  0
SECTION
  2
HEADER
  9
$ACADVER
  1
AC1012
  9
$DWGCODEPAGE
  3
ansi_1252
  9
$INSBASE
 10
0.0
 20
0.0
 30
0.0
  9
$EXTMIN
 10
0.0
 20
-16000.0
 30
0.0
  9
$EXTMAX
 10
8135.0
 20
0.0
 30
0.0
  9
$LIMMIN
 10
0.0
 20
0.0
  9
$LIMMAX
 10
12.0
 20
9.0
  9
$ORTHOMODE
 70
     0
  9
$REGENMODE
 70
     1
  9
$FILLMODE
 70
     1
  9
$QTEXTMODE
 70
     0
  9
$MIRRTEXT
 70
     1
  9
$DRAGMODE
 70
     2
  9
$LTSCALE
 40
1.0
  9
$OSMODE
 70
     0
  9
$ATTMODE
 70
     1
  9
$TEXTSIZE
 40
0.2
  9
$TRACEWID
 40
0.05
  9
$TEXTSTYLE
  7
SIMPLEX
  9
$CLAYER
  8
SIMPLE
  9
$CELTYPE
  6
CONTINUOUS
  9
$CECOLOR
 62
   256
  9
$CELTSCALE
 40
1.0
  9
$DELOBJ
 70
     1
  9
$DISPSILH
 70
     0
  9
$DIMSCALE
 40
1.0
  9
$DIMASZ
 40
0.18
  9
$DIMEXO
 40
0.0625
  9
$DIMDLI
 40
0.38
  9
$DIMRND
 40
0.0
  9
$DIMDLE
 40
0.0
  9
$DIMEXE
 40
0.18
  9
$DIMTP
 40
0.0
  9
$DIMTM
 40
0.0
  9
$DIMTXT
 40
0.18
  9
$DIMCEN
 40
0.09
  9
$DIMTSZ
 40
0.0
  9
$DIMTOL
 70
     0
  9
$DIMLIM
 70
     0
  9
$DIMTIH
 70
     1
  9
$DIMTOH
 70
     1
  9
$DIMSE1
 70
     0
  9
$DIMSE2
 70
     0
  9
$DIMTAD
 70
     0
  9
$DIMZIN
 70
     0
  9
$DIMBLK
  1

  9
$DIMASO
 70
     1
  9
$DIMSHO
 70
     1
  9
$DIMPOST
  1

  9
$DIMAPOST
  1

  9
$DIMALT
 70
     0
  9
$DIMALTD
 70
     2
  9
$DIMALTF
 40
25.4
  9
$DIMLFAC
 40
1.0
  9
$DIMTOFL
 70
     0
  9
$DIMTVP
 40
0.0
  9
$DIMTIX
 70
     0
  9
$DIMSOXD
 70
     0
  9
$DIMSAH
 70
     0
  9
$DIMBLK1
  1

  9
$DIMBLK2
  1

  9
$DIMSTYLE
  2
STANDARD
  9
$DIMCLRD
 70
     0
  9
$DIMCLRE
 70
     0
  9
$DIMCLRT
 70
     0
  9
$DIMTFAC
 40
1.0
  9
$DIMGAP
 40
0.09
  9
$DIMJUST
 70
     0
  9
$DIMSD1
 70
     0
  9
$DIMSD2
 70
     0
  9
$DIMTOLJ
 70
     1
  9
$DIMTZIN
 70
     0
  9
$DIMALTZ
 70
     0
  9
$DIMALTTZ
 70
     0
  9
$DIMFIT
 70
     3
  9
$DIMUPT
 70
     0
  9
$DIMUNIT
 70
     2
  9
$DIMDEC
 70
     4
  9
$DIMTDEC
 70
     4
  9
$DIMALTU
 70
     2
  9
$DIMALTTD
 70
     2
  9
$DIMTXSTY
  7
STANDARD
  9
$DIMAUNIT
 70
     0
  9
$LUNITS
 70
     2
  9
$LUPREC
 70
     4
  9
$SKETCHINC
 40
0.1
  9
$FILLETRAD
 40
0.5
  9
$AUNITS
 70
     0
  9
$AUPREC
 70
     0
  9
$MENU
  1
.
  9
$ELEVATION
 40
0.0
  9
$PELEVATION
 40
0.0
  9
$THICKNESS
 40
0.0
  9
$LIMCHECK
 70
     0
  9
$BLIPMODE
 70
     0
  9
$CHAMFERA
 40
0.5
  9
$CHAMFERB
 40
0.5
  9
$CHAMFERC
 40
1.0
  9
$CHAMFERD
 40
0.0
  9
$SKPOLY
 70
     0
  9
$TDCREATE
 40
2452695.7451618058
  9
$TDUPDATE
 40
2453326.5926041552
  9
$TDINDWG
 40
29.606770833333
  9
$TDUSRTIMER
 40
29.606770833333
  9
$USRTIMER
 70
     1
  9
$ANGBASE
 50
0.0
  9
$ANGDIR
 70
     0
  9
$PDMODE
 70
    35
  9
$PDSIZE
 40
5.0
  9
$PLINEWID
 40
0.0
  9
$COORDS
 70
     1
  9
$SPLFRAME
 70
     0
  9
$SPLINETYPE
 70
     6
  9
$SPLINESEGS
 70
     8
  9
$ATTDIA
 70
     0
  9
$ATTREQ
 70
     1
  9
$HANDLING
 70
     1
  9
$HANDSEED
  5
DF3414A0FD4F8477
  9
$SURFTAB1
 70
     6
  9
$SURFTAB2
 70
     6
  9
$SURFTYPE
 70
     6
  9
$SURFU
 70
     6
  9
$SURFV
 70
     6
  9
$UCSNAME
  2

  9
$UCSORG
 10
0.0
 20
0.0
 30
0.0
  9
$UCSXDIR
 10
1.0
 20
0.0
 30
0.0
  9
$UCSYDIR
 10
0.0
 20
1.0
 30
0.0
  9
$PUCSNAME
  2

  9
$PUCSORG
 10
0.0
 20
0.0
 30
0.0
  9
$PUCSXDIR
 10
1.0
 20
0.0
 30
0.0
  9
$PUCSYDIR
 10
0.0
 20
1.0
 30
0.0
  9
$USERI1
 70
     0
  9
$USERI2
 70
     0
  9
$USERI3
 70
     0
  9
$USERI4
 70
     0
  9
$USERI5
 70
     0
  9
$USERR1
 40
0.0
  9
$USERR2
 40
0.0
  9
$USERR3
 40
0.0
  9
$USERR4
 40
0.0
  9
$USERR5
 40
0.0
  9
$WORLDVIEW
 70
     1
  9
$SHADEDGE
 70
     3
  9
$SHADEDIF
 70
    70
  9
$TILEMODE
 70
     1
  9
$MAXACTVP
 70
    48
  9
$PINSBASE
 10
0.0
 20
0.0
 30
0.0
  9
$PLIMCHECK
 70
     0
  9
$PEXTMIN
 10
1.000000E+020
 20
1.000000E+020
 30
1.000000E+020
  9
$PEXTMAX
 10
-1.000000E+020
 20
-1.000000E+020
 30
-1.000000E+020
  9
$PLIMMIN
 10
0.0
 20
0.0
  9
$PLIMMAX
 10
12.0
 20
9.0
  9
$UNITMODE
 70
     0
  9
$VISRETAIN
 70
     1
  9
$PLINEGEN
 70
     0
  9
$PSLTSCALE
 70
     1
  9
$TREEDEPTH
 70
  3020
  9
$PICKSTYLE
 70
     1
  9
$CMLSTYLE
  2
STANDARD
  9
$CMLJUST
 70
     0
  9
$CMLSCALE
 40
1.0
  9
$SAVEIMAGES
 70
     1
  0
ENDSEC
  0
SECTION
  2
CLASSES
  0
CLASS
  1
LWPOLYLINE
  2
AcDbPolyline
  3
"AutoCAD"
 90
        0
280
     0
281
     1
  0
ENDSEC
  0
SECTION
  2
TABLES
  0
TABLE
  2
VPORT
  5
8
100
AcDbSymbolTable
 70
     1
  0
VPORT
  5
37
100
AcDbSymbolTableRecord
100
AcDbViewportTableRecord
  2
*ACTIVE
 70
    64
 10
0.0
 20
0.0
 11
1.0
 21
1.0
 12
5115.250006
 22
-6985.542557
 13
0.0
 23
0.0
 14
5.0
 24
5.0
 15
5.0
 25
5.0
 16
0.0
 26
0.0
 36
1.0
 17
0.0
 27
0.0
 37
0.0
 40
21381.483764
 41
1.376866
 42
50.0
 43
0.0
 44
0.0
 50
0.0
 51
0.0
 71
     0
 72
   100
 73
     1
 74
     1
 75
     1
 76
     1
 77
     0
 78
     0
  0
ENDTAB
  0
TABLE
  2
LTYPE
  5
5
100
AcDbSymbolTable
 70
     2
  0
LTYPE
  5
12
100
AcDbSymbolTableRecord
100
AcDbLinetypeTableRecord
  2
BYBLOCK
 70
     0
  3

 72
    65
 73
     0
 40
0.0
  0
LTYPE
  5
13
100
AcDbSymbolTableRecord
100
AcDbLinetypeTableRecord
  2
BYLAYER
 70
     0
  3

 72
    65
 73
     0
 40
0.0
  0
LTYPE
  5
14
100
AcDbSymbolTableRecord
100
AcDbLinetypeTableRecord
  2
CONTINUOUS
 70
     0
  3
Solid line
 72
    65
 73
     0
 40
0.0
  0
LTYPE
  5
2A422EFD12C
100
AcDbSymbolTableRecord
100
AcDbLinetypeTableRecord
  2
DETAIL_1
 70
     0
  3
Solid line
 72
    65
 73
     2
 40
6.0
 49
5.0
 74
     0
 49
-1.0
 74
     0
  0
ENDTAB
  0
TABLE
  2
LAYER
  5
2
100
AcDbSymbolTable
 70
     3
  0
LAYER
  5
541
100
AcDbSymbolTableRecord
100
AcDbLayerTableRecord
  2
COMMENT
 70
     0
 62
   254
  6
CONTINUOUS
  0
LAYER
  5
1DAE4
100
AcDbSymbolTableRecord
100
AcDbLayerTableRecord
  2
SIMPLE
 70
     0
 62
   182
  6
CONTINUOUS
  0
LAYER
  5
DF3414A0FD3F3859
100
AcDbSymbolTableRecord
100
AcDbLayerTableRecord
  2
0
 70
    64
 62
     7
  6
CONTINUOUS
  0
ENDTAB
  0
TABLE
  2
STYLE
  5
3
100
AcDbSymbolTable
 70
     8
  0
STYLE
  5
F
100
AcDbSymbolTableRecord
100
AcDbTextStyleTableRecord
  2
STANDARD
 70
     0
 40
0.0
 41
1.0
 50
0.0
 71
     0
 42
0.2
  3
txt.shx
  4

  0
STYLE
  5
21
100
AcDbSymbolTableRecord
100
AcDbTextStyleTableRecord
  2
COMPLEX
 70
     0
 40
0.0
 41
1.0
 50
0.0
 71
     0
 42
0.2
  3
complex
  4

  0
STYLE
  5
22
100
AcDbSymbolTableRecord
100
AcDbTextStyleTableRecord
  2
ITALIC
 70
     0
 40
0.0
 41
1.0
 50
0.0
 71
     0
 42
0.2
  3
italic
  4

  0
STYLE
  5
23
100
AcDbSymbolTableRecord
100
AcDbTextStyleTableRecord
  2
ROMANC
 70
     0
 40
0.0
 41
1.0
 50
0.0
 71
     0
 42
0.2
  3
romanc
  4

  0
STYLE
  5
24
100
AcDbSymbolTableRecord
100
AcDbTextStyleTableRecord
  2
SIMPLEX
 70
     0
 40
0.0
 41
1.0
 50
0.0
 71
     0
 42
0.2
  3
simplex
  4

  0
STYLE
  5
34
100
AcDbSymbolTableRecord
100
AcDbTextStyleTableRecord
  2

 70
     1
 40
0.0
 41
1.0
 50
0.0
 71
     0
 42
0.2
  3
ltypeshp.shx
  4

  0
STYLE
  5
38
100
AcDbSymbolTableRecord
100
AcDbTextStyleTableRecord
  2
ARIAL
 70
     0
 40
0.0
 41
1.0
 50
0.0
 71
     0
 42
0.2
  3

  4

1001
ACAD
1000
Arial
1071
       34
  0
STYLE
  5
39
100
AcDbSymbolTableRecord
100
AcDbTextStyleTableRecord
  2
TIMES_NEW_ROMAN
 70
     0
 40
0.0
 41
1.0
 50
0.0
 71
     0
 42
0.2
  3

  4

1001
ACAD
1000
Times New Roman
1071
       18
  0
ENDTAB
  0
TABLE
  2
VIEW
  5
6
100
AcDbSymbolTable
 70
     0
  0
ENDTAB
  0
TABLE
  2
UCS
  5
7
100
AcDbSymbolTable
 70
     0
  0
ENDTAB
  0
TABLE
  2
APPID
  5
9
100
AcDbSymbolTable
 70
     1
  0
APPID
  5
10
100
AcDbSymbolTableRecord
100
AcDbRegAppTableRecord
  2
ACAD
 70
     0
  0
ENDTAB
  0
TABLE
  2
DIMSTYLE
  5
A
100
AcDbSymbolTable
 70
     1
  0
DIMSTYLE
105
1D
100
AcDbSymbolTableRecord
100
AcDbDimStyleTableRecord
  2
STANDARD
 70
     0
  3

  4

  5

  6

  7

 40
1.0
 41
0.18
 42
0.0625
 43
0.38
 44
0.18
 45
0.0
 46
0.0
 47
0.0
 48
0.0
140
0.18
141
0.09
142
0.0
143
25.4
144
1.0
145
0.0
146
1.0
147
0.09
 71
     0
 72
     0
 73
     1
 74
     1
 75
     0
 76
     0
 77
     0
 78
     0
170
     0
171
     2
172
     0
173
     0
174
     0
175
     0
176
     0
177
     0
178
     0
270
     2
271
     4
272
     4
273
     2
274
     2
340
F
275
     0
280
     0
281
     0
282
     0
283
     1
284
     0
285
     0
286
     0
287
     3
288
     0
  0
ENDTAB
  0
TABLE
  2
BLOCK_RECORD
  5
1
100
AcDbSymbolTable
 70
    31
  0
BLOCK_RECORD
  5
18
100
AcDbSymbolTableRecord
100
AcDbBlockTableRecord
  2
*MODEL_SPACE
  0
BLOCK_RECORD
  5
15
100
AcDbSymbolTableRecord
100
AcDbBlockTableRecord
  2
*PAPER_SPACE
  0
BLOCK_RECORD
  5
DF3414A0D7EA01D0
100
AcDbSymbolTableRecord
100
AcDbBlockTableRecord
  2
LAB_YGR
  0
BLOCK_RECORD
  5
DF3414A0FD3EFC75
100
AcDbSymbolTableRecord
100
AcDbBlockTableRecord
  2
ALM_COMB_ARM
  0
BLOCK_RECORD
  5
DF3414A0FD3EFC7B
100
AcDbSymbolTableRecord
100
AcDbBlockTableRecord
  2
ALM_FF_ARM
  0
BLOCK_RECORD
  5
DF3414A0FD3F4D9F
100
AcDbSymbolTableRecord
100
AcDbBlockTableRecord
  2
ALM_DATA_IN_GROUP
  0
BLOCK_RECORD
  5
DF3414A0FD3F4DA3
100
AcDbSymbolTableRecord
100
AcDbBlockTableRecord
  2
ALM_LABWIDE_IN_GROUP
  0
BLOCK_RECORD
  5
DF3414A0FD3F4DA7
100
AcDbSymbolTableRecord
100
AcDbBlockTableRecord
  2
ALM_DATA_OUT_GROUP
  0
BLOCK_RECORD
  5
DF3414A0FD3F4DAB
100
AcDbSymbolTableRecord
100
AcDbBlockTableRecord
  2
ALM_COMB_F_INPUT
  0
BLOCK_RECORD
  5
DF3414A0FD3F4DAF
100
AcDbSymbolTableRecord
100
AcDbBlockTableRecord
  2
ALM_COMB_E_INPUT
  0
BLOCK_RECORD
  5
DF3414A0FD3F4DB3
100
AcDbSymbolTableRecord
100
AcDbBlockTableRecord
  2
ALM_COMB_A_INPUT
  0
BLOCK_RECORD
  5
DF3414A0FD3F4DB7
100
AcDbSymbolTableRecord
100
AcDbBlockTableRecord
  2
ALM_COMB_B_INPUT
  0
BLOCK_RECORD
  5
DF3414A0FD3F4DBB
100
AcDbSymbolTableRecord
100
AcDbBlockTableRecord
  2
ALM_COMB_C_INPUT
  0
BLOCK_RECORD
  5
DF3414A0FD3F4DBF
100
AcDbSymbolTableRecord
100
AcDbBlockTableRecord
  2
ALM_COMB_D_INPUT
  0
BLOCK_RECORD
  5
DF3414A0FD3F4DC3
100
AcDbSymbolTableRecord
100
AcDbBlockTableRecord
  2
ALM_COMB_SHARE_INPUT
  0
BLOCK_RECORD
  5
DF3414A0FD3F4DC7
100
AcDbSymbolTableRecord
100
AcDbBlockTableRecord
  2
ALM_COMB_CARRY_INPUT
  0
BLOCK_RECORD
  5
DF3414A0FD3F4DCB
100
AcDbSymbolTableRecord
100
AcDbBlockTableRecord
  2
ALM_COMB_SHARE_OUTPUT
  0
BLOCK_RECORD
  5
DF3414A0FD3F4DCF
100
AcDbSymbolTableRecord
100
AcDbBlockTableRecord
  2
ALM_COMB_CARRY_OUTPUT
  0
BLOCK_RECORD
  5
DF3414A0FD3F4DD3
100
AcDbSymbolTableRecord
100
AcDbBlockTableRecord
  2
ALM_COMB_SUM_OUTPUT
  0
BLOCK_RECORD
  5
DF3414A0FD3F4DD7
100
AcDbSymbolTableRecord
100
AcDbBlockTableRecord
  2
ALM_COMB_COMB_OUTPUT
  0
BLOCK_RECORD
  5
DF3414A0FD3F4E13
100
AcDbSymbolTableRecord
100
AcDbBlockTableRecord
  2
ALM_FF_REG_CHAIN
  0
BLOCK_RECORD
  5
DF3414A0FD3F4E17
100
AcDbSymbolTableRecord
100
AcDbBlockTableRecord
  2
ALM_FF_ALOAD_IN
  0
BLOCK_RECORD
  5
DF3414A0FD3F4E1B
100
AcDbSymbolTableRecord
100
AcDbBlockTableRecord
  2
ALM_FF_SCLR
  0
BLOCK_RECORD
  5
DF3414A0FD3F4E1F
100
AcDbSymbolTableRecord
100
AcDbBlockTableRecord
  2
ALM_FF_SLOAD
  0
BLOCK_RECORD
  5
DF3414A0FD3F4E23
100
AcDbSymbolTableRecord
100
AcDbBlockTableRecord
  2
ALM_FF_DATA_IN
  0
BLOCK_RECORD
  5
DF3414A0FD3F4E27
100
AcDbSymbolTableRecord
100
AcDbBlockTableRecord
  2
ALM_FF_ADATA_SDATA
  0
BLOCK_RECORD
  5
DF3414A0FD3F4E2B
100
AcDbSymbolTableRecord
100
AcDbBlockTableRecord
  2
ALM_FF_CLK
  0
BLOCK_RECORD
  5
DF3414A0FD3F4E2F
100
AcDbSymbolTableRecord
100
AcDbBlockTableRecord
  2
ALM_FF_ENABLE
  0
BLOCK_RECORD
  5
DF3414A0FD3F4E33
100
AcDbSymbolTableRecord
100
AcDbBlockTableRecord
  2
ALM_FF_ACLR
  0
BLOCK_RECORD
  5
DF3414A0FD3F4E37
100
AcDbSymbolTableRecord
100
AcDbBlockTableRecord
  2
ALM_FF_REGOUT
  0
BLOCK_RECORD
  5
DF3414A0FD3F4E4B
100
AcDbSymbolTableRecord
100
AcDbBlockTableRecord
  2
ALM_COMB_COMMON_LUTS
  0
BLOCK_RECORD
  5
DF3414A0FD3F4E4F
100
AcDbSymbolTableRecord
100
AcDbBlockTableRecord
  2
ALM_ARM
  0
BLOCK_RECORD
  5
DF3414A0FD4F8467
100
AcDbSymbolTableRecord
100
AcDbBlockTableRecord
  2
ACV_GRID_SIZE_BLOCK
  0
ENDTAB
  0
ENDSEC
  0
SECTION
  2
BLOCKS
  0
BLOCK
  5
19
100
AcDbEntity
  8
COMMENT
100
AcDbBlockBegin
  2
*MODEL_SPACE
 70
     0
 10
0.0
 20
0.0
 30
0.0
  3
*MODEL_SPACE
  1

  0
ENDBLK
  5
1A
100
AcDbEntity
  8
COMMENT
100
AcDbBlockEnd
  0
BLOCK
  5
16
100
AcDbEntity
 67
     1
  8
COMMENT
100
AcDbBlockBegin
  2
*PAPER_SPACE
 70
     0
 10
0.0
 20
0.0
 30
0.0
  3
*PAPER_SPACE
  1

  0
ENDBLK
  5
17
100
AcDbEntity
 67
     1
  8
COMMENT
100
AcDbBlockEnd
  0
BLOCK
  5
DF3414A0FD4F846A
100
AcDbEntity
  8
SIMPLE
  6
CONTINUOUS
100
AcDbBlockBegin
  2
LAB_YGR
 70
     0
 10
0.0
 20
0.0
 30
0.0
  1

  0
LINE
  5
DF3414A0FD4F8445
100
AcDbEntity
  8
COMMENT
  6
CONTINUOUS
100
AcDbLine
 10
2900.0
 20
-5900.0
 30
0.0
 11
2320.0
 21
-6040.0
 31
0.0
  0
LINE
  5
DF3414A0FD4F8446
100
AcDbEntity
  8
COMMENT
  6
CONTINUOUS
100
AcDbLine
 10
2900.0
 20
-7100.0
 30
0.0
 11
2320.0
 21
-7240.0
 31
0.0
  0
LINE
  5
DF3414A0FD4F8447
100
AcDbEntity
  8
COMMENT
  6
CONTINUOUS
100
AcDbLine
 10
2900.0
 20
-8300.0
 30
0.0
 11
2320.0
 21
-8440.0
 31
0.0
  0
LINE
  5
DF3414A0FD4F8448
100
AcDbEntity
  8
COMMENT
  6
CONTINUOUS
100
AcDbLine
 10
2900.0
 20
-10200.0
 30
0.0
 11
2320.0
 21
-10340.0
 31
0.0
  0
LINE
  5
DF3414A0FD4F8449
100
AcDbEntity
  8
COMMENT
  6
CONTINUOUS
100
AcDbLine
 10
2900.0
 20
-11400.0
 30
0.0
 11
2320.0
 21
-11540.0
 31
0.0
  0
LINE
  5
DF3414A0FD4F844A
100
AcDbEntity
  8
COMMENT
  6
CONTINUOUS
100
AcDbLine
 10
2900.0
 20
-12600.0
 30
0.0
 11
2320.0
 21
-12740.0
 31
0.0
  0
LINE
  5
DF3414A0FD4F844B
100
AcDbEntity
  8
COMMENT
  6
CONTINUOUS
100
AcDbLine
 10
2900.0
 20
-13800.0
 30
0.0
 11
2320.0
 21
-13940.0
 31
0.0
  0
INSERT
  5
DF3414A0FD4F844C
100
AcDbEntity
  8
SIMPLE
  6
CONTINUOUS
100
AcDbBlockReference
 66
     1
  2
ALM_ARM
 10
0.0
 20
0.0
 30
0.0
  0
ATTRIB
  5
DF3414A0FD4F844D
100
AcDbEntity
  8
SIMPLE
  6
CONTINUOUS
100
AcDbText
 10
3910.0
 20
-4210.0
 30
0.0
 40
100.0
  1
0
  7
SIMPLEX
100
AcDbAttribute
  2
index
 70
     0
  0
SEQEND
  5
DF3414A0FD4F844E
100
AcDbEntity
  8
SIMPLE
  6
CONTINUOUS
  0
INSERT
  5
DF3414A0FD4F844F
100
AcDbEntity
  8
SIMPLE
  6
CONTINUOUS
100
AcDbBlockReference
 66
     1
  2
ALM_ARM
 10
0.0
 20
-1200.0
 30
0.0
  0
ATTRIB
  5
DF3414A0FD4F8450
100
AcDbEntity
  8
SIMPLE
  6
CONTINUOUS
100
AcDbText
 10
3910.0
 20
-5410.0
 30
0.0
 40
100.0
  1
1
  7
SIMPLEX
100
AcDbAttribute
  2
index
 70
     0
  0
SEQEND
  5
DF3414A0FD4F8451
100
AcDbEntity
  8
SIMPLE
  6
CONTINUOUS
  0
INSERT
  5
DF3414A0FD4F8452
100
AcDbEntity
  8
SIMPLE
  6
CONTINUOUS
100
AcDbBlockReference
 66
     1
  2
ALM_ARM
 10
0.0
 20
-2400.0
 30
0.0
  0
ATTRIB
  5
DF3414A0FD4F8453
100
AcDbEntity
  8
SIMPLE
  6
CONTINUOUS
100
AcDbText
 10
3910.0
 20
-6610.0
 30
0.0
 40
100.0
  1
2
  7
SIMPLEX
100
AcDbAttribute
  2
index
 70
     0
  0
SEQEND
  5
DF3414A0FD4F8454
100
AcDbEntity
  8
SIMPLE
  6
CONTINUOUS
  0
INSERT
  5
DF3414A0FD4F8455
100
AcDbEntity
  8
SIMPLE
  6
CONTINUOUS
100
AcDbBlockReference
 66
     1
  2
ALM_ARM
 10
0.0
 20
-3600.0
 30
0.0
  0
ATTRIB
  5
DF3414A0FD4F8456
100
AcDbEntity
  8
SIMPLE
  6
CONTINUOUS
100
AcDbText
 10
3910.0
 20
-7810.0
 30
0.0
 40
100.0
  1
3
  7
SIMPLEX
100
AcDbAttribute
  2
index
 70
     0
  0
SEQEND
  5
DF3414A0FD4F8457
100
AcDbEntity
  8
SIMPLE
  6
CONTINUOUS
  0
INSERT
  5
DF3414A0FD4F8458
100
AcDbEntity
  8
SIMPLE
  6
CONTINUOUS
100
AcDbBlockReference
 66
     1
  2
ALM_ARM
 10
0.0
 20
-5500.0
 30
0.0
  0
ATTRIB
  5
DF3414A0FD4F8459
100
AcDbEntity
  8
SIMPLE
  6
CONTINUOUS
100
AcDbText
 10
3910.0
 20
-9710.0
 30
0.0
 40
100.0
  1
4
  7
SIMPLEX
100
AcDbAttribute
  2
index
 70
     0
  0
SEQEND
  5
DF3414A0FD4F845A
100
AcDbEntity
  8
SIMPLE
  6
CONTINUOUS
  0
INSERT
  5
DF3414A0FD4F845B
100
AcDbEntity
  8
SIMPLE
  6
CONTINUOUS
100
AcDbBlockReference
 66
     1
  2
ALM_ARM
 10
0.0
 20
-6700.0
 30
0.0
  0
ATTRIB
  5
DF3414A0FD4F845C
100
AcDbEntity
  8
SIMPLE
  6
CONTINUOUS
100
AcDbText
 10
3910.0
 20
-10910.0
 30
0.0
 40
100.0
  1
5
  7
SIMPLEX
100
AcDbAttribute
  2
index
 70
     0
  0
SEQEND
  5
DF3414A0FD4F845D
100
AcDbEntity
  8
SIMPLE
  6
CONTINUOUS
  0
INSERT
  5
DF3414A0FD4F845E
100
AcDbEntity
  8
SIMPLE
  6
CONTINUOUS
100
AcDbBlockReference
 66
     1
  2
ALM_ARM
 10
0.0
 20
-7900.0
 30
0.0
  0
ATTRIB
  5
DF3414A0FD4F845F
100
AcDbEntity
  8
SIMPLE
  6
CONTINUOUS
100
AcDbText
 10
3910.0
 20
-12110.0
 30
0.0
 40
100.0
  1
6
  7
SIMPLEX
100
AcDbAttribute
  2
index
 70
     0
  0
SEQEND
  5
DF3414A0FD4F8460
100
AcDbEntity
  8
SIMPLE
  6
CONTINUOUS
  0
INSERT
  5
DF3414A0FD4F8461
100
AcDbEntity
  8
SIMPLE
  6
CONTINUOUS
100
AcDbBlockReference
 66
     1
  2
ALM_ARM
 10
0.0
 20
-9100.0
 30
0.0
  0
ATTRIB
  5
DF3414A0FD4F8462
100
AcDbEntity
  8
SIMPLE
  6
CONTINUOUS
100
AcDbText
 10
3910.0
 20
-13310.0
 30
0.0
 40
100.0
  1
7
  7
SIMPLEX
100
AcDbAttribute
  2
index
 70
     0
  0
SEQEND
  5
DF3414A0FD4F8463
100
AcDbEntity
  8
SIMPLE
  6
CONTINUOUS
  0
POLYLINE
  5
DF3414A0FD4F8465
100
AcDbEntity
  8
SIMPLE
  6
CONTINUOUS
100
AcDb2dPolyline
 66
     1
 10
0.0
 20
0.0
 30
0.0
 70
     1
  0
VERTEX
  5
DF3414A0FD4F846D
100
AcDbEntity
  8
SIMPLE
  6
CONTINUOUS
100
AcDbVertex
100
AcDb2dVertex
 10
0.0
 20
0.0
 30
0.0
  0
VERTEX
  5
DF3414A0FD4F846E
100
AcDbEntity
  8
SIMPLE
  6
CONTINUOUS
100
AcDbVertex
100
AcDb2dVertex
 10
8000.0
 20
0.0
 30
0.0
  0
VERTEX
  5
DF3414A0FD4F846F
100
AcDbEntity
  8
SIMPLE
  6
CONTINUOUS
100
AcDbVertex
100
AcDb2dVertex
 10
8000.0
 20
-16000.0
 30
0.0
  0
VERTEX
  5
DF3414A0FD4F8470
100
AcDbEntity
  8
SIMPLE
  6
CONTINUOUS
100
AcDbVertex
100
AcDb2dVertex
 10
0.0
 20
-16000.0
 30
0.0
  0
SEQEND
  5
DF3414A0FD4F8471
100
AcDbEntity
  8
SIMPLE
  6
CONTINUOUS
  0
INSERT
  5
DF3414A0FD4F8469
100
AcDbEntity
  8
SIMPLE
  6
CONTINUOUS
100
AcDbBlockReference
  2
ACV_GRID_SIZE_BLOCK
 10
0.0
 20
0.0
 30
0.0
  0
ENDBLK
  5
DF3414A0FD4F846B
100
AcDbEntity
  8
SIMPLE
  6
CONTINUOUS
100
AcDbBlockEnd
  0
BLOCK
  5
DF3414A0FD4B5437
100
AcDbEntity
  8
SIMPLE
  6
CONTINUOUS
100
AcDbBlockBegin
  2
ALM_COMB_ARM
 70
    66
 10
0.0
 20
0.0
 30
0.0
  1

  0
POLYLINE
  5
DF3414A0FD4330E7
100
AcDbEntity
  8
SIMPLE
  6
CONTINUOUS
100
AcDb2dPolyline
 66
     1
 10
0.0
 20
0.0
 30
0.0
 70
     1
  0
VERTEX
  5
DF3414A0FD4330E8
100
AcDbEntity
  8
SIMPLE
  6
CONTINUOUS
100
AcDbVertex
100
AcDb2dVertex
 10
3660.0
 20
-3715.0
 30
0.0
  0
VERTEX
  5
DF3414A0FD4330E9
100
AcDbEntity
  8
SIMPLE
  6
CONTINUOUS
100
AcDbVertex
100
AcDb2dVertex
 10
3915.0
 20
-3715.0
 30
0.0
  0
VERTEX
  5
DF3414A0FD4330EA
100
AcDbEntity
  8
SIMPLE
  6
CONTINUOUS
100
AcDbVertex
100
AcDb2dVertex
 10
3915.0
 20
-4045.0
 30
0.0
  0
VERTEX
  5
DF3414A0FD4330EB
100
AcDbEntity
  8
SIMPLE
  6
CONTINUOUS
100
AcDbVertex
100
AcDb2dVertex
 10
3660.0
 20
-4045.0
 30
0.0
  0
SEQEND
  5
DF3414A0FD4330EC
100
AcDbEntity
  8
SIMPLE
  6
CONTINUOUS
  0
ATTDEF
  5
DF3414A0FD4330ED
100
AcDbEntity
  8
SIMPLE
  6
CONTINUOUS
100
AcDbText
 10
3455.0
 20
-3910.0
 30
0.0
 40
100.0
  1
0
  7
SIMPLEX
100
AcDbAttributeDefinition
  3

  2
index
 70
     0
  0
INSERT
  5
DF3414A0FD4330EE
100
AcDbEntity
  8
SIMPLE
  6
CONTINUOUS
 62
     1
100
AcDbBlockReference
  2
ALM_COMB_F_INPUT
 10
0.0
 20
-55.0
 30
0.0
  0
INSERT
  5
DF3414A0FD4330EF
100
AcDbEntity
  8
SIMPLE
  6
CONTINUOUS
 62
     1
100
AcDbBlockReference
  2
ALM_COMB_E_INPUT
 10
0.0
 20
-55.0
 30
0.0
  0
INSERT
  5
DF3414A0FD4330F0
100
AcDbEntity
  8
SIMPLE
  6
CONTINUOUS
 62
     1
100
AcDbBlockReference
  2
ALM_COMB_A_INPUT
 10
0.0
 20
-15.0
 30
0.0
  0
INSERT
  5
DF3414A0FD4330F1
100
AcDbEntity
  8
SIMPLE
  6
CONTINUOUS
 62
     1
100
AcDbBlockReference
  2
ALM_COMB_B_INPUT
 10
0.0
 20
-55.0
 30
0.0
  0
INSERT
  5
DF3414A0FD4330F2
100
AcDbEntity
  8
SIMPLE
  6
CONTINUOUS
 62
     1
100
AcDbBlockReference
  2
ALM_COMB_C_INPUT
 10
0.0
 20
-85.0
 30
0.0
  0
INSERT
  5
DF3414A0FD4330F3
100
AcDbEntity
  8
SIMPLE
  6
CONTINUOUS
 62
     1
100
AcDbBlockReference
  2
ALM_COMB_D_INPUT
 10
0.0
 20
-55.0
 30
0.0
  0
INSERT
  5
DF3414A0FD4330F4
100
AcDbEntity
  8
SIMPLE
  6
CONTINUOUS
 62
     1
100
AcDbBlockReference
  2
ALM_COMB_SHARE_INPUT
 10
0.0
 20
-55.0
 30
0.0
  0
INSERT
  5
DF3414A0FD4330F5
100
AcDbEntity
  8
SIMPLE
  6
CONTINUOUS
 62
     1
100
AcDbBlockReference
  2
ALM_COMB_CARRY_INPUT
 10
0.0
 20
-55.0
 30
0.0
  0
INSERT
  5
DF3414A0FD4330F6
100
AcDbEntity
  8
SIMPLE
  6
CONTINUOUS
 62
     1
100
AcDbBlockReference
  2
ALM_COMB_SUM_OUTPUT
 10
0.0
 20
-55.0
 30
0.0
  0
INSERT
  5
DF3414A0FD4330F7
100
AcDbEntity
  8
SIMPLE
  6
CONTINUOUS
 62
     1
100
AcDbBlockReference
  2
ALM_COMB_COMB_OUTPUT
 10
0.0
 20
-55.0
 30
0.0
  0
INSERT
  5
DF3414A0FD4374E1
100
AcDbEntity
  8
SIMPLE
  6
CONTINUOUS
100
AcDbBlockReference
  2
ALM_COMB_CARRY_OUTPUT
 10
0.0
 20
0.0
 30
0.0
  0
INSERT
  5
DF3414A0FD43FCB1
100
AcDbEntity
  8
SIMPLE
  6
CONTINUOUS
100
AcDbBlockReference
  2
ALM_COMB_SHARE_OUTPUT
 10
0.0
 20
0.0
 30
0.0
  0
ENDBLK
  5
DF3414A0FD4B5438
100
AcDbEntity
  8
SIMPLE
  6
CONTINUOUS
100
AcDbBlockEnd
  0
BLOCK
  5
DF3414A0FD4F83F6
100
AcDbEntity
  8
SIMPLE
  6
CONTINUOUS
100
AcDbBlockBegin
  2
ALM_FF_ARM
 70
    66
 10
0.0
 20
0.0
 30
0.0
  1

  0
POLYLINE
  5
DF3414A0FD4B5452
100
AcDbEntity
  8
SIMPLE
  6
CONTINUOUS
100
AcDb2dPolyline
 66
     1
 10
0.0
 20
0.0
 30
0.0
 70
     1
  0
VERTEX
  5
DF3414A0FD4B5453
100
AcDbEntity
  8
SIMPLE
  6
CONTINUOUS
100
AcDbVertex
100
AcDb2dVertex
 10
4270.0
 20
-3640.0
 30
0.0
  0
VERTEX
  5
DF3414A0FD4B5454
100
AcDbEntity
  8
SIMPLE
  6
CONTINUOUS
100
AcDbVertex
100
AcDb2dVertex
 10
4650.0
 20
-3640.0
 30
0.0
  0
VERTEX
  5
DF3414A0FD4B5455
100
AcDbEntity
  8
SIMPLE
  6
CONTINUOUS
100
AcDbVertex
100
AcDb2dVertex
 10
4650.0
 20
-4110.0
 30
0.0
  0
VERTEX
  5
DF3414A0FD4B5456
100
AcDbEntity
  8
SIMPLE
  6
CONTINUOUS
100
AcDbVertex
100
AcDb2dVertex
 10
4270.0
 20
-4110.0
 30
0.0
  0
SEQEND
  5
DF3414A0FD4B5457
100
AcDbEntity
  8
SIMPLE
  6
CONTINUOUS
  0
ATTDEF
  5
DF3414A0FD4B5458
100
AcDbEntity
  8
SIMPLE
  6
CONTINUOUS
100
AcDbText
 10
4285.0
 20
-3900.0
 30
0.0
 40
100.0
  1
0
  7
SIMPLEX
100
AcDbAttributeDefinition
  3

  2
index
 70
     0
  0
INSERT
  5
DF3414A0FD4B545A
100
AcDbEntity
  8
SIMPLE
  6
CONTINUOUS
 62
     1
100
AcDbBlockReference
  2
ALM_FF_ALOAD_IN
 10
0.0
 20
-85.0
 30
0.0
  0
INSERT
  5
DF3414A0FD4B545B
100
AcDbEntity
  8
SIMPLE
  6
CONTINUOUS
 62
     1
100
AcDbBlockReference
  2
ALM_FF_SCLR
 10
0.0
 20
-85.0
 30
0.0
  0
INSERT
  5
DF3414A0FD4B545C
100
AcDbEntity
  8
SIMPLE
  6
CONTINUOUS
 62
     1
100
AcDbBlockReference
  2
ALM_FF_SLOAD
 10
0.0
 20
-85.0
 30
0.0
  0
INSERT
  5
DF3414A0FD4B545D
100
AcDbEntity
  8
SIMPLE
  6
CONTINUOUS
 62
     1
100
AcDbBlockReference
  2
ALM_FF_DATA_IN
 10
0.0
 20
-85.0
 30
0.0
  0
INSERT
  5
DF3414A0FD4B545E
100
AcDbEntity
  8
SIMPLE
  6
CONTINUOUS
 62
     1
100
AcDbBlockReference
  2
ALM_FF_ADATA_SDATA
 10
0.0
 20
-105.0
 30
0.0
  0
INSERT
  5
DF3414A0FD4B545F
100
AcDbEntity
  8
SIMPLE
  6
CONTINUOUS
 62
     1
100
AcDbBlockReference
  2
ALM_FF_CLK
 10
0.0
 20
-85.0
 30
0.0
  0
INSERT
  5
DF3414A0FD4B5460
100
AcDbEntity
  8
SIMPLE
  6
CONTINUOUS
 62
     1
100
AcDbBlockReference
  2
ALM_FF_ENABLE
 10
0.0
 20
-85.0
 30
0.0
  0
INSERT
  5
DF3414A0FD4B5461
100
AcDbEntity
  8
SIMPLE
  6
CONTINUOUS
 62
     1
100
AcDbBlockReference
  2
ALM_FF_ACLR
 10
0.0
 20
-85.0
 30
0.0
  0
INSERT
  5
DF3414A0FD4B5462
100
AcDbEntity
  8
SIMPLE
  6
CONTINUOUS
 62
     1
100
AcDbBlockReference
  2
ALM_FF_REGOUT
 10
0.0
 20
-55.0
 30
0.0
  0
INSERT
  5
DF3414A0FD4F83F5
100
AcDbEntity
  8
SIMPLE
  6
CONTINUOUS
100
AcDbBlockReference
  2
ALM_FF_REG_CHAIN
 10
0.0
 20
0.0
 30
0.0
  0
ENDBLK
  5
DF3414A0FD4F83F7
100
AcDbEntity
  8
SIMPLE
  6
CONTINUOUS
100
AcDbBlockEnd
  0
BLOCK
  5
DF3414A0FD42FE14
100
AcDbEntity
  8
SIMPLE
  6
CONTINUOUS
100
AcDbBlockBegin
  2
ALM_DATA_IN_GROUP
 70
    64
 10
0.0
 20
0.0
 30
0.0
  1

  0
LINE
  5
DF3414A0FD42FE0A
100
AcDbEntity
  8
SIMPLE
  6
CONTINUOUS
100
AcDbLine
 10
2900.0
 20
-4150.0
 30
0.0
 11
800.0
 21
-4150.0
 31
0.0
  0
ENDBLK
  5
DF3414A0FD42FE15
100
AcDbEntity
  8
SIMPLE
  6
CONTINUOUS
100
AcDbBlockEnd
  0
BLOCK
  5
DF3414A0FD4B5434
100
AcDbEntity
  8
SIMPLE
  6
CONTINUOUS
100
AcDbBlockBegin
  2
ALM_LABWIDE_IN_GROUP
 70
    64
 10
0.0
 20
0.0
 30
0.0
  1

  0
LINE
  5
DF3414A0FD4B5432
100
AcDbEntity
  8
SIMPLE
  6
CONTINUOUS
100
AcDbLine
 10
800.0
 20
-3575.0
 30
0.0
 11
4215.0
 21
-3575.0
 31
0.0
  0
LINE
  5
DF3414A0FD4B5433
100
AcDbEntity
  8
SIMPLE
  6
CONTINUOUS
100
AcDbLine
 10
4215.0
 20
-3600.0
 30
0.0
 11
4215.0
 21
-3575.0
 31
0.0
  0
ENDBLK
  5
DF3414A0FD4B5435
100
AcDbEntity
  8
SIMPLE
  6
CONTINUOUS
100
AcDbBlockEnd
  0
BLOCK
  5
DF3414A0FD430EFF
100
AcDbEntity
  8
SIMPLE
  6
CONTINUOUS
100
AcDbBlockBegin
  2
ALM_DATA_OUT_GROUP
 70
    64
 10
0.0
 20
0.0
 30
0.0
  1

  0
LINE
  5
DF3414A0FD430EFE
100
AcDbEntity
  8
SIMPLE
  6
CONTINUOUS
100
AcDbLine
 10
4700.0
 20
-4150.0
 30
0.0
 11
5400.0
 21
-4150.0
 31
0.0
  0
ENDBLK
  5
DF3414A0FD430F00
100
AcDbEntity
  8
SIMPLE
  6
CONTINUOUS
100
AcDbBlockEnd
  0
BLOCK
  5
DF3414A0FD3F4DAA
100
AcDbEntity
  8
SIMPLE
  6
CONTINUOUS
 62
     1
100
AcDbBlockBegin
  2
ALM_COMB_F_INPUT
 70
    64
 10
0.0
 20
0.0
 30
0.0
  1

  0
POINT
  5
DF3414A0FD3F1A02
100
AcDbEntity
  8
SIMPLE
  6
CONTINUOUS
 62
     1
100
AcDbPoint
 10
3160.0
 20
-3610.0
 30
0.0
  0
ENDBLK
  5
DF3414A0FD3F4DAC
100
AcDbEntity
  8
SIMPLE
  6
CONTINUOUS
 62
     1
100
AcDbBlockEnd
  0
BLOCK
  5
DF3414A0FD3F4DAE
100
AcDbEntity
  8
SIMPLE
  6
CONTINUOUS
 62
     1
100
AcDbBlockBegin
  2
ALM_COMB_E_INPUT
 70
    64
 10
0.0
 20
0.0
 30
0.0
  1

  0
POINT
  5
DF3414A0FD3F1A03
100
AcDbEntity
  8
SIMPLE
  6
CONTINUOUS
 62
     1
100
AcDbPoint
 10
3160.0
 20
-3685.0
 30
0.0
  0
ENDBLK
  5
DF3414A0FD3F4DB0
100
AcDbEntity
  8
SIMPLE
  6
CONTINUOUS
 62
     1
100
AcDbBlockEnd
  0
BLOCK
  5
DF3414A0FD3F4DB2
100
AcDbEntity
  8
SIMPLE
  6
CONTINUOUS
 62
     1
100
AcDbBlockBegin
  2
ALM_COMB_A_INPUT
 70
    64
 10
0.0
 20
0.0
 30
0.0
  1

  0
POINT
  5
DF3414A0FD3F1A04
100
AcDbEntity
  8
SIMPLE
  6
CONTINUOUS
 62
     1
100
AcDbPoint
 10
3160.0
 20
-3795.0
 30
0.0
  0
ENDBLK
  5
DF3414A0FD3F4DB4
100
AcDbEntity
  8
SIMPLE
  6
CONTINUOUS
 62
     1
100
AcDbBlockEnd
  0
BLOCK
  5
DF3414A0FD3F4DB6
100
AcDbEntity
  8
SIMPLE
  6
CONTINUOUS
 62
     1
100
AcDbBlockBegin
  2
ALM_COMB_B_INPUT
 70
    64
 10
0.0
 20
0.0
 30
0.0
  1

  0
POINT
  5
DF3414A0FD3F1A05
100
AcDbEntity
  8
SIMPLE
  6
CONTINUOUS
 62
     1
100
AcDbPoint
 10
3160.0
 20
-3830.0
 30
0.0
  0
ENDBLK
  5
DF3414A0FD3F4DB8
100
AcDbEntity
  8
SIMPLE
  6
CONTINUOUS
 62
     1
100
AcDbBlockEnd
  0
BLOCK
  5
DF3414A0FD3F4DBA
100
AcDbEntity
  8
SIMPLE
  6
CONTINUOUS
 62
     1
100
AcDbBlockBegin
  2
ALM_COMB_C_INPUT
 70
    64
 10
0.0
 20
0.0
 30
0.0
  1

  0
POINT
  5
DF3414A0FD3F1A06
100
AcDbEntity
  8
SIMPLE
  6
CONTINUOUS
 62
     1
100
AcDbPoint
 10
3160.0
 20
-3890.0
 30
0.0
  0
ENDBLK
  5
DF3414A0FD3F4DBC
100
AcDbEntity
  8
SIMPLE
  6
CONTINUOUS
 62
     1
100
AcDbBlockEnd
  0
BLOCK
  5
DF3414A0FD3F4DBE
100
AcDbEntity
  8
SIMPLE
  6
CONTINUOUS
 62
     1
100
AcDbBlockBegin
  2
ALM_COMB_D_INPUT
 70
    64
 10
0.0
 20
0.0
 30
0.0
  1

  0
POINT
  5
DF3414A0FD3F1A07
100
AcDbEntity
  8
SIMPLE
  6
CONTINUOUS
 62
     1
100
AcDbPoint
 10
3160.0
 20
-4005.0
 30
0.0
  0
ENDBLK
  5
DF3414A0FD3F4DC0
100
AcDbEntity
  8
SIMPLE
  6
CONTINUOUS
 62
     1
100
AcDbBlockEnd
  0
BLOCK
  5
DF3414A0FD3F4DC2
100
AcDbEntity
  8
SIMPLE
  6
CONTINUOUS
 62
     1
100
AcDbBlockBegin
  2
ALM_COMB_SHARE_INPUT
 70
    64
 10
0.0
 20
0.0
 30
0.0
  1

  0
POINT
  5
DF3414A0FD3F1A13
100
AcDbEntity
  8
SIMPLE
  6
CONTINUOUS
 62
     1
100
AcDbPoint
 10
3725.0
 20
-3660.0
 30
0.0
  0
ENDBLK
  5
DF3414A0FD3F4DC4
100
AcDbEntity
  8
SIMPLE
  6
CONTINUOUS
 62
     1
100
AcDbBlockEnd
  0
BLOCK
  5
DF3414A0FD3F4DC6
100
AcDbEntity
  8
SIMPLE
  6
CONTINUOUS
 62
     1
100
AcDbBlockBegin
  2
ALM_COMB_CARRY_INPUT
 70
    64
 10
0.0
 20
0.0
 30
0.0
  1

  0
POINT
  5
DF3414A0FD3F1A12
100
AcDbEntity
  8
SIMPLE
  6
CONTINUOUS
 62
     1
100
AcDbPoint
 10
3845.0
 20
-3660.0
 30
0.0
  0
ENDBLK
  5
DF3414A0FD3F4DC8
100
AcDbEntity
  8
SIMPLE
  6
CONTINUOUS
 62
     1
100
AcDbBlockEnd
  0
BLOCK
  5
DF3414A0FD43FCAF
100
AcDbEntity
  8
SIMPLE
  6
CONTINUOUS
100
AcDbBlockBegin
  2
ALM_COMB_SHARE_OUTPUT
 70
    64
 10
0.0
 20
0.0
 30
0.0
  1

  0
POINT
  5
DF3414A0FD43FCA5
100
AcDbEntity
  8
SIMPLE
  6
CONTINUOUS
 62
     1
100
AcDbPoint
 10
3725.0
 20
-4045.0
 30
0.0
  0
POLYLINE
  5
DF3414A0FD43FCAE
100
AcDbEntity
  8
SIMPLE
  6
CONTINUOUS
100
AcDb2dPolyline
 66
     1
 10
0.0
 20
0.0
 30
0.0
 70
     1
  0
VERTEX
  5
DF3414A0FD4F841E
100
AcDbEntity
  8
SIMPLE
  6
CONTINUOUS
100
AcDbVertex
100
AcDb2dVertex
 10
3705.0
 20
-4020.0
 30
0.0
  0
VERTEX
  5
DF3414A0FD4F841F
100
AcDbEntity
  8
SIMPLE
  6
CONTINUOUS
100
AcDbVertex
100
AcDb2dVertex
 10
3745.0
 20
-4020.0
 30
0.0
  0
VERTEX
  5
DF3414A0FD4F8420
100
AcDbEntity
  8
SIMPLE
  6
CONTINUOUS
100
AcDbVertex
100
AcDb2dVertex
 10
3745.0
 20
-4145.0
 30
0.0
  0
VERTEX
  5
DF3414A0FD4F8421
100
AcDbEntity
  8
SIMPLE
  6
CONTINUOUS
100
AcDbVertex
100
AcDb2dVertex
 10
3705.0
 20
-4145.0
 30
0.0
  0
SEQEND
  5
DF3414A0FD4F8422
100
AcDbEntity
  8
SIMPLE
  6
CONTINUOUS
  0
ENDBLK
  5
DF3414A0FD43FCB0
100
AcDbEntity
  8
SIMPLE
  6
CONTINUOUS
100
AcDbBlockEnd
  0
BLOCK
  5
DF3414A0FD4374DF
100
AcDbEntity
  8
SIMPLE
  6
CONTINUOUS
100
AcDbBlockBegin
  2
ALM_COMB_CARRY_OUTPUT
 70
    64
 10
0.0
 20
0.0
 30
0.0
  1

  0
POINT
  5
DF3414A0FD4374D6
100
AcDbEntity
  8
SIMPLE
  6
CONTINUOUS
 62
     1
100
AcDbPoint
 10
3845.0
 20
-4045.0
 30
0.0
  0
POLYLINE
  5
DF3414A0FD4330FB
100
AcDbEntity
  8
SIMPLE
  6
CONTINUOUS
100
AcDb2dPolyline
 66
     1
 10
0.0
 20
0.0
 30
0.0
 70
     1
  0
VERTEX
  5
DF3414A0FD4F8423
100
AcDbEntity
  8
SIMPLE
  6
CONTINUOUS
100
AcDbVertex
100
AcDb2dVertex
 10
3825.0
 20
-4020.0
 30
0.0
  0
VERTEX
  5
DF3414A0FD4F8424
100
AcDbEntity
  8
SIMPLE
  6
CONTINUOUS
100
AcDbVertex
100
AcDb2dVertex
 10
3865.0
 20
-4020.0
 30
0.0
  0
VERTEX
  5
DF3414A0FD4F8425
100
AcDbEntity
  8
SIMPLE
  6
CONTINUOUS
100
AcDbVertex
100
AcDb2dVertex
 10
3865.0
 20
-4145.0
 30
0.0
  0
VERTEX
  5
DF3414A0FD4F8426
100
AcDbEntity
  8
SIMPLE
  6
CONTINUOUS
100
AcDbVertex
100
AcDb2dVertex
 10
3825.0
 20
-4145.0
 30
0.0
  0
SEQEND
  5
DF3414A0FD4F8427
100
AcDbEntity
  8
SIMPLE
  6
CONTINUOUS
  0
ENDBLK
  5
DF3414A0FD4374E0
100
AcDbEntity
  8
SIMPLE
  6
CONTINUOUS
100
AcDbBlockEnd
  0
BLOCK
  5
DF3414A0FD3F4DD2
100
AcDbEntity
  8
SIMPLE
  6
CONTINUOUS
 62
     1
100
AcDbBlockBegin
  2
ALM_COMB_SUM_OUTPUT
 70
    64
 10
0.0
 20
0.0
 30
0.0
  1

  0
POINT
  5
DF3414A0FD3F1A11
100
AcDbEntity
  8
SIMPLE
  6
CONTINUOUS
 62
     1
100
AcDbPoint
 10
3915.0
 20
-3770.0
 30
0.0
  0
ENDBLK
  5
DF3414A0FD3F4DD4
100
AcDbEntity
  8
SIMPLE
  6
CONTINUOUS
 62
     1
100
AcDbBlockEnd
  0
BLOCK
  5
DF3414A0FD3F4DD6
100
AcDbEntity
  8
SIMPLE
  6
CONTINUOUS
 62
     1
100
AcDbBlockBegin
  2
ALM_COMB_COMB_OUTPUT
 70
    64
 10
0.0
 20
0.0
 30
0.0
  1

  0
POINT
  5
DF3414A0FD3F1A10
100
AcDbEntity
  8
SIMPLE
  6
CONTINUOUS
 62
     1
100
AcDbPoint
 10
3915.0
 20
-3910.0
 30
0.0
  0
ENDBLK
  5
DF3414A0FD3F4DD8
100
AcDbEntity
  8
SIMPLE
  6
CONTINUOUS
 62
     1
100
AcDbBlockEnd
  0
BLOCK
  5
DF3414A0FD4F83F3
100
AcDbEntity
  8
SIMPLE
  6
CONTINUOUS
100
AcDbBlockBegin
  2
ALM_FF_REG_CHAIN
 70
    64
 10
0.0
 20
0.0
 30
0.0
  1

  0
POLYLINE
  5
DF3414A0FD4F83E0
100
AcDbEntity
  8
SIMPLE
  6
CONTINUOUS
100
AcDb2dPolyline
 66
     1
 10
0.0
 20
0.0
 30
0.0
 70
     1
  0
VERTEX
  5
DF3414A0FD4F8428
100
AcDbEntity
  8
SIMPLE
  6
CONTINUOUS
100
AcDbVertex
100
AcDb2dVertex
 10
4455.0
 20
-4020.0
 30
0.0
  0
VERTEX
  5
DF3414A0FD4F8429
100
AcDbEntity
  8
SIMPLE
  6
CONTINUOUS
100
AcDbVertex
100
AcDb2dVertex
 10
4495.0
 20
-4020.0
 30
0.0
  0
VERTEX
  5
DF3414A0FD4F842A
100
AcDbEntity
  8
SIMPLE
  6
CONTINUOUS
100
AcDbVertex
100
AcDb2dVertex
 10
4495.0
 20
-4145.0
 30
0.0
  0
VERTEX
  5
DF3414A0FD4F842B
100
AcDbEntity
  8
SIMPLE
  6
CONTINUOUS
100
AcDbVertex
100
AcDb2dVertex
 10
4455.0
 20
-4145.0
 30
0.0
  0
SEQEND
  5
DF3414A0FD4F842C
100
AcDbEntity
  8
SIMPLE
  6
CONTINUOUS
  0
ENDBLK
  5
DF3414A0FD4F83F4
100
AcDbEntity
  8
SIMPLE
  6
CONTINUOUS
100
AcDbBlockEnd
  0
BLOCK
  5
DF3414A0FD3F4E16
100
AcDbEntity
  8
SIMPLE
  6
CONTINUOUS
 62
     1
100
AcDbBlockBegin
  2
ALM_FF_ALOAD_IN
 70
    64
 10
0.0
 20
0.0
 30
0.0
  1

  0
POINT
  5
DF3414A0FD3F1A29
100
AcDbEntity
  8
SIMPLE
  6
CONTINUOUS
 62
     1
100
AcDbPoint
 10
4270.0
 20
-3600.0
 30
0.0
  0
ENDBLK
  5
DF3414A0FD3F4E18
100
AcDbEntity
  8
SIMPLE
  6
CONTINUOUS
 62
     1
100
AcDbBlockEnd
  0
BLOCK
  5
DF3414A0FD3F4E1A
100
AcDbEntity
  8
SIMPLE
  6
CONTINUOUS
 62
     1
100
AcDbBlockBegin
  2
ALM_FF_SCLR
 70
    64
 10
0.0
 20
0.0
 30
0.0
  1

  0
POINT
  5
DF3414A0FD3F1A28
100
AcDbEntity
  8
SIMPLE
  6
CONTINUOUS
 62
     1
100
AcDbPoint
 10
4270.0
 20
-3645.0
 30
0.0
  0
ENDBLK
  5
DF3414A0FD3F4E1C
100
AcDbEntity
  8
SIMPLE
  6
CONTINUOUS
 62
     1
100
AcDbBlockEnd
  0
BLOCK
  5
DF3414A0FD3F4E1E
100
AcDbEntity
  8
SIMPLE
  6
CONTINUOUS
 62
     1
100
AcDbBlockBegin
  2
ALM_FF_SLOAD
 70
    64
 10
0.0
 20
0.0
 30
0.0
  1

  0
POINT
  5
DF3414A0FD3F1A27
100
AcDbEntity
  8
SIMPLE
  6
CONTINUOUS
 62
     1
100
AcDbPoint
 10
4270.0
 20
-3695.0
 30
0.0
  0
ENDBLK
  5
DF3414A0FD3F4E20
100
AcDbEntity
  8
SIMPLE
  6
CONTINUOUS
 62
     1
100
AcDbBlockEnd
  0
BLOCK
  5
DF3414A0FD3F4E22
100
AcDbEntity
  8
SIMPLE
  6
CONTINUOUS
 62
     1
100
AcDbBlockBegin
  2
ALM_FF_DATA_IN
 70
    64
 10
0.0
 20
0.0
 30
0.0
  1

  0
POINT
  5
DF3414A0FD3F1A26
100
AcDbEntity
  8
SIMPLE
  6
CONTINUOUS
 62
     1
100
AcDbPoint
 10
4270.0
 20
-3745.0
 30
0.0
  0
ENDBLK
  5
DF3414A0FD3F4E24
100
AcDbEntity
  8
SIMPLE
  6
CONTINUOUS
 62
     1
100
AcDbBlockEnd
  0
BLOCK
  5
DF3414A0FD3F4E26
100
AcDbEntity
  8
SIMPLE
  6
CONTINUOUS
 62
     1
100
AcDbBlockBegin
  2
ALM_FF_ADATA_SDATA
 70
    64
 10
0.0
 20
0.0
 30
0.0
  1

  0
POINT
  5
DF3414A0FD3F1A25
100
AcDbEntity
  8
SIMPLE
  6
CONTINUOUS
 62
     1
100
AcDbPoint
 10
4270.0
 20
-3775.0
 30
0.0
  0
ENDBLK
  5
DF3414A0FD3F4E28
100
AcDbEntity
  8
SIMPLE
  6
CONTINUOUS
 62
     1
100
AcDbBlockEnd
  0
BLOCK
  5
DF3414A0FD3F4E2A
100
AcDbEntity
  8
SIMPLE
  6
CONTINUOUS
 62
     1
100
AcDbBlockBegin
  2
ALM_FF_CLK
 70
    64
 10
0.0
 20
0.0
 30
0.0
  1

  0
POINT
  5
DF3414A0FD3F1A24
100
AcDbEntity
  8
SIMPLE
  6
CONTINUOUS
 62
     1
100
AcDbPoint
 10
4270.0
 20
-3850.0
 30
0.0
  0
ENDBLK
  5
DF3414A0FD3F4E2C
100
AcDbEntity
  8
SIMPLE
  6
CONTINUOUS
 62
     1
100
AcDbBlockEnd
  0
BLOCK
  5
DF3414A0FD3F4E2E
100
AcDbEntity
  8
SIMPLE
  6
CONTINUOUS
 62
     1
100
AcDbBlockBegin
  2
ALM_FF_ENABLE
 70
    64
 10
0.0
 20
0.0
 30
0.0
  1

  0
POINT
  5
DF3414A0FD3F1A23
100
AcDbEntity
  8
SIMPLE
  6
CONTINUOUS
 62
     1
100
AcDbPoint
 10
4270.0
 20
-3905.0
 30
0.0
  0
ENDBLK
  5
DF3414A0FD3F4E30
100
AcDbEntity
  8
SIMPLE
  6
CONTINUOUS
 62
     1
100
AcDbBlockEnd
  0
BLOCK
  5
DF3414A0FD3F4E32
100
AcDbEntity
  8
SIMPLE
  6
CONTINUOUS
 62
     1
100
AcDbBlockBegin
  2
ALM_FF_ACLR
 70
    64
 10
0.0
 20
0.0
 30
0.0
  1

  0
POINT
  5
DF3414A0FD3F1A22
100
AcDbEntity
  8
SIMPLE
  6
CONTINUOUS
 62
     1
100
AcDbPoint
 10
4270.0
 20
-3975.0
 30
0.0
  0
ENDBLK
  5
DF3414A0FD3F4E34
100
AcDbEntity
  8
SIMPLE
  6
CONTINUOUS
 62
     1
100
AcDbBlockEnd
  0
BLOCK
  5
DF3414A0FD3F4E36
100
AcDbEntity
  8
SIMPLE
  6
CONTINUOUS
 62
     1
100
AcDbBlockBegin
  2
ALM_FF_REGOUT
 70
    64
 10
0.0
 20
0.0
 30
0.0
  1

  0
POINT
  5
DF3414A0FD3F1A21
100
AcDbEntity
  8
SIMPLE
  6
CONTINUOUS
 62
     1
100
AcDbPoint
 10
4650.0
 20
-3725.0
 30
0.0
  0
ENDBLK
  5
DF3414A0FD3F4E38
100
AcDbEntity
  8
SIMPLE
  6
CONTINUOUS
 62
     1
100
AcDbBlockEnd
  0
BLOCK
  5
DF3414A0FD3F4E4A
100
AcDbEntity
  8
SIMPLE
  6
CONTINUOUS
100
AcDbBlockBegin
  2
ALM_COMB_COMMON_LUTS
 70
    64
 10
0.0
 20
0.0
 30
0.0
  1

  0
POLYLINE
  5
DF3414A0FD3F19DE
100
AcDbEntity
  8
SIMPLE
  6
CONTINUOUS
100
AcDb2dPolyline
 66
     1
 10
0.0
 20
0.0
 30
0.0
 70
     1
  0
VERTEX
  5
DF3414A0FD3F19DF
100
AcDbEntity
  8
SIMPLE
  6
CONTINUOUS
100
AcDbVertex
100
AcDb2dVertex
 10
3160.0
 20
-3585.0
 30
0.0
  0
VERTEX
  5
DF3414A0FD3F19E0
100
AcDbEntity
  8
SIMPLE
  6
CONTINUOUS
100
AcDbVertex
100
AcDb2dVertex
 10
3660.0
 20
-3585.0
 30
0.0
  0
VERTEX
  5
DF3414A0FD3F19E1
100
AcDbEntity
  8
SIMPLE
  6
CONTINUOUS
100
AcDbVertex
100
AcDb2dVertex
 10
3660.0
 20
-4610.0
 30
0.0
  0
VERTEX
  5
DF3414A0FD3F19E2
100
AcDbEntity
  8
SIMPLE
  6
CONTINUOUS
100
AcDbVertex
100
AcDb2dVertex
 10
3160.0
 20
-4610.0
 30
0.0
  0
SEQEND
  5
DF3414A0FD3F19E3
100
AcDbEntity
  8
SIMPLE
  6
CONTINUOUS
  0
ENDBLK
  5
DF3414A0FD3F4E4C
100
AcDbEntity
  8
SIMPLE
  6
CONTINUOUS
100
AcDbBlockEnd
  0
BLOCK
  5
DF3414A0FD4F83FE
100
AcDbEntity
  8
SIMPLE
  6
CONTINUOUS
100
AcDbBlockBegin
  2
ALM_ARM
 70
    66
 10
0.0
 20
0.0
 30
0.0
  1

  0
POINT
  5
DF3414A0FD42F0C5
100
AcDbEntity
  8
COMMENT
  6
CONTINUOUS
 62
    53
100
AcDbPoint
 10
4700.0
 20
-4690.0
 30
0.0
  0
POINT
  5
DF3414A0FD42F0C6
100
AcDbEntity
  8
COMMENT
  6
CONTINUOUS
 62
    53
100
AcDbPoint
 10
3725.0
 20
-4700.0
 30
0.0
  0
POINT
  5
DF3414A0FD42F0C7
100
AcDbEntity
  8
COMMENT
  6
CONTINUOUS
 62
    53
100
AcDbPoint
 10
3845.0
 20
-4700.0
 30
0.0
  0
POINT
  5
DF3414A0FD42F0C8
100
AcDbEntity
  8
COMMENT
  6
CONTINUOUS
 62
    53
100
AcDbPoint
 10
4080.0
 20
-4700.0
 30
0.0
  0
POINT
  5
DF3414A0FD42F0C9
100
AcDbEntity
  8
COMMENT
  6
CONTINUOUS
 62
    53
100
AcDbPoint
 10
2900.0
 20
-4680.0
 30
0.0
  0
LINE
  5
DF3414A0FD42F0CA
100
AcDbEntity
  8
COMMENT
  6
CONTINUOUS
100
AcDbLine
 10
2900.0
 20
-4700.0
 30
0.0
 11
2320.0
 21
-4840.0
 31
0.0
  0
POINT
  5
DF3414A0FD42F138
100
AcDbEntity
  8
COMMENT
  6
CONTINUOUS
 62
    53
100
AcDbPoint
 10
2900.0
 20
-3850.0
 30
0.0
  0
POINT
  5
DF3414A0FD42F139
100
AcDbEntity
  8
COMMENT
  6
CONTINUOUS
 62
    53
100
AcDbPoint
 10
2900.0
 20
-3885.0
 30
0.0
  0
POINT
  5
DF3414A0FD42F13A
100
AcDbEntity
  8
COMMENT
  6
CONTINUOUS
 62
    53
100
AcDbPoint
 10
2900.0
 20
-3945.0
 30
0.0
  0
POINT
  5
DF3414A0FD42F13B
100
AcDbEntity
  8
COMMENT
  6
CONTINUOUS
 62
    53
100
AcDbPoint
 10
4700.0
 20
-3620.0
 30
0.0
  0
POINT
  5
DF3414A0FD42F13C
100
AcDbEntity
  8
COMMENT
  6
CONTINUOUS
 62
    53
100
AcDbPoint
 10
3725.0
 20
-3600.0
 30
0.0
  0
POINT
  5
DF3414A0FD42F13D
100
AcDbEntity
  8
COMMENT
  6
CONTINUOUS
 62
    53
100
AcDbPoint
 10
3845.0
 20
-3600.0
 30
0.0
  0
POINT
  5
DF3414A0FD42F13E
100
AcDbEntity
  8
COMMENT
  6
CONTINUOUS
 62
    53
100
AcDbPoint
 10
4700.0
 20
-4330.0
 30
0.0
  0
POINT
  5
DF3414A0FD42F13F
100
AcDbEntity
  8
COMMENT
  6
CONTINUOUS
 62
    53
100
AcDbPoint
 10
4080.0
 20
-3600.0
 30
0.0
  0
POINT
  5
DF3414A0FD42F140
100
AcDbEntity
  8
COMMENT
  6
CONTINUOUS
 62
    53
100
AcDbPoint
 10
4700.0
 20
-3780.0
 30
0.0
  0
POINT
  5
DF3414A0FD42F141
100
AcDbEntity
  8
COMMENT
  6
CONTINUOUS
 62
    53
100
AcDbPoint
 10
2900.0
 20
-3665.0
 30
0.0
  0
POINT
  5
DF3414A0FD42F142
100
AcDbEntity
  8
COMMENT
  6
CONTINUOUS
 62
    53
100
AcDbPoint
 10
2900.0
 20
-3630.0
 30
0.0
  0
POLYLINE
  5
DF3414A0FD42F143
100
AcDbEntity
  8
COMMENT
  6
CONTINUOUS
 62
    50
100
AcDb2dPolyline
 66
     1
 10
0.0
 20
0.0
 30
0.0
 70
     1
  0
VERTEX
  5
DF3414A0FD42F144
100
AcDbEntity
  8
COMMENT
  6
CONTINUOUS
 62
    50
100
AcDbVertex
100
AcDb2dVertex
 10
2900.0
 20
-3600.0
 30
0.0
  0
VERTEX
  5
DF3414A0FD42F145
100
AcDbEntity
  8
COMMENT
  6
CONTINUOUS
 62
    50
100
AcDbVertex
100
AcDb2dVertex
 10
4700.0
 20
-3600.0
 30
0.0
  0
VERTEX
  5
DF3414A0FD42F146
100
AcDbEntity
  8
COMMENT
  6
CONTINUOUS
 62
    50
100
AcDbVertex
100
AcDb2dVertex
 10
4700.0
 20
-4700.0
 30
0.0
  0
VERTEX
  5
DF3414A0FD42F147
100
AcDbEntity
  8
COMMENT
  6
CONTINUOUS
 62
    50
100
AcDbVertex
100
AcDb2dVertex
 10
2900.0
 20
-4700.0
 30
0.0
  0
SEQEND
  5
DF3414A0FD42F148
100
AcDbEntity
  8
COMMENT
  6
CONTINUOUS
 62
    50
  0
POINT
  5
DF3414A0FD42F149
100
AcDbEntity
  8
COMMENT
  6
CONTINUOUS
 62
    53
100
AcDbPoint
 10
2900.0
 20
-4090.0
 30
0.0
  0
POINT
  5
DF3414A0FD42F14A
100
AcDbEntity
  8
COMMENT
  6
CONTINUOUS
 62
    53
100
AcDbPoint
 10
2900.0
 20
-4215.0
 30
0.0
  0
POINT
  5
DF3414A0FD42F14B
100
AcDbEntity
  8
COMMENT
  6
CONTINUOUS
 62
    53
100
AcDbPoint
 10
4700.0
 20
-4140.0
 30
0.0
  0
POINT
  5
DF3414A0FD42F14C
100
AcDbEntity
  8
COMMENT
  6
CONTINUOUS
 62
    53
100
AcDbPoint
 10
4700.0
 20
-4170.0
 30
0.0
  0
INSERT
  5
DF3414A0FD42F14D
100
AcDbEntity
  8
SIMPLE
  6
CONTINUOUS
100
AcDbBlockReference
  2
ALM_COMB_COMMON_LUTS
 10
0.0
 20
-55.0
 30
0.0
  0
ATTDEF
  5
DF3414A0FD42F14E
100
AcDbEntity
  8
SIMPLE
  6
CONTINUOUS
100
AcDbText
 10
3910.0
 20
-4210.0
 30
0.0
 40
100.0
  1

  7
SIMPLEX
100
AcDbAttributeDefinition
  3

  2
index
 70
     0
  0
POLYLINE
  5
DF3414A0FD42F14F
100
AcDbEntity
  8
SIMPLE
  6
CONTINUOUS
100
AcDb2dPolyline
 66
     1
 10
0.0
 20
0.0
 30
0.0
 70
     1
  0
VERTEX
  5
DF3414A0FD42F150
100
AcDbEntity
  8
SIMPLE
  6
CONTINUOUS
100
AcDbVertex
100
AcDb2dVertex
 10
2900.0
 20
-3600.0
 30
0.0
  0
VERTEX
  5
DF3414A0FD42F151
100
AcDbEntity
  8
SIMPLE
  6
CONTINUOUS
100
AcDbVertex
100
AcDb2dVertex
 10
4700.0
 20
-3600.0
 30
0.0
  0
VERTEX
  5
DF3414A0FD42F152
100
AcDbEntity
  8
SIMPLE
  6
CONTINUOUS
100
AcDbVertex
100
AcDb2dVertex
 10
4700.0
 20
-4700.0
 30
0.0
  0
VERTEX
  5
DF3414A0FD42F153
100
AcDbEntity
  8
SIMPLE
  6
CONTINUOUS
100
AcDbVertex
100
AcDb2dVertex
 10
2900.0
 20
-4700.0
 30
0.0
  0
SEQEND
  5
DF3414A0FD42F154
100
AcDbEntity
  8
SIMPLE
  6
CONTINUOUS
  0
INSERT
  5
DF3414A0FD42FE16
100
AcDbEntity
  8
SIMPLE
  6
CONTINUOUS
100
AcDbBlockReference
  2
ALM_DATA_IN_GROUP
 10
0.0
 20
0.0
 30
0.0
  0
INSERT
  5
DF3414A0FD430F01
100
AcDbEntity
  8
SIMPLE
  6
CONTINUOUS
100
AcDbBlockReference
  2
ALM_DATA_OUT_GROUP
 10
0.0
 20
0.0
 30
0.0
  0
LINE
  5
DF3414A0FD430F02
100
AcDbEntity
  8
COMMENT
  6
CONTINUOUS
100
AcDbLine
 10
3915.0
 20
-4595.0
 30
0.0
 11
4045.0
 21
-4775.0
 31
0.0
  0
LINE
  5
DF3414A0FD430F04
100
AcDbEntity
  8
COMMENT
  6
CONTINUOUS
100
AcDbLine
 10
4650.0
 20
-4660.0
 30
0.0
 11
4855.0
 21
-4840.0
 31
0.0
  0
INSERT
  5
DF3414A0FD4B5436
100
AcDbEntity
  8
SIMPLE
  6
CONTINUOUS
100
AcDbBlockReference
  2
ALM_LABWIDE_IN_GROUP
 10
0.0
 20
0.0
 30
0.0
  0
INSERT
  5
DF3414A0FD4B5439
100
AcDbEntity
  8
SIMPLE
  6
CONTINUOUS
100
AcDbBlockReference
 66
     1
  2
ALM_COMB_ARM
 10
0.0
 20
0.0
 30
0.0
  0
ATTRIB
  5
DF3414A0FD4B543A
100
AcDbEntity
  8
SIMPLE
  6
CONTINUOUS
100
AcDbText
 10
3455.0
 20
-3910.0
 30
0.0
 40
100.0
  1
0
  7
SIMPLEX
100
AcDbAttribute
  2
index
 70
     0
  0
SEQEND
  5
DF3414A0FD4B543B
100
AcDbEntity
  8
SIMPLE
  6
CONTINUOUS
  0
INSERT
  5
DF3414A0FD4B5441
100
AcDbEntity
  8
SIMPLE
  6
CONTINUOUS
100
AcDbBlockReference
 66
     1
  2
ALM_COMB_ARM
 10
0.0
 20
-550.0
 30
0.0
  0
ATTRIB
  5
DF3414A0FD4B5442
100
AcDbEntity
  8
SIMPLE
  6
CONTINUOUS
100
AcDbText
 10
3455.0
 20
-4460.0
 30
0.0
 40
100.0
  1
2
  7
SIMPLEX
100
AcDbAttribute
  2
index
 70
     0
  0
SEQEND
  5
DF3414A0FD4B5443
100
AcDbEntity
  8
SIMPLE
  6
CONTINUOUS
  0
INSERT
  5
DF3414A0FD4F83F8
100
AcDbEntity
  8
SIMPLE
  6
CONTINUOUS
100
AcDbBlockReference
 66
     1
  2
ALM_FF_ARM
 10
0.0
 20
0.0
 30
0.0
  0
ATTRIB
  5
DF3414A0FD4F83F9
100
AcDbEntity
  8
SIMPLE
  6
CONTINUOUS
100
AcDbText
 10
4285.0
 20
-3900.0
 30
0.0
 40
100.0
  1
1
  7
SIMPLEX
100
AcDbAttribute
  2
index
 70
     0
  0
SEQEND
  5
DF3414A0FD4F83FA
100
AcDbEntity
  8
SIMPLE
  6
CONTINUOUS
  0
INSERT
  5
DF3414A0FD4F83FB
100
AcDbEntity
  8
SIMPLE
  6
CONTINUOUS
100
AcDbBlockReference
 66
     1
  2
ALM_FF_ARM
 10
0.0
 20
-550.0
 30
0.0
  0
ATTRIB
  5
DF3414A0FD4F83FC
100
AcDbEntity
  8
SIMPLE
  6
CONTINUOUS
100
AcDbText
 10
4285.0
 20
-4450.0
 30
0.0
 40
100.0
  1
3
  7
SIMPLEX
100
AcDbAttribute
  2
index
 70
     0
  0
SEQEND
  5
DF3414A0FD4F83FD
100
AcDbEntity
  8
SIMPLE
  6
CONTINUOUS
  0
ENDBLK
  5
DF3414A0FD4F83FF
100
AcDbEntity
  8
SIMPLE
  6
CONTINUOUS
100
AcDbBlockEnd
  0
BLOCK
  5
DF3414A0FD4F8466
100
AcDbEntity
  8
SIMPLE
  6
CONTINUOUS
100
AcDbBlockBegin
  2
ACV_GRID_SIZE_BLOCK
 70
    64
 10
0.0
 20
0.0
 30
0.0
  1

  0
POLYLINE
  5
DF3414A0FD4F8464
100
AcDbEntity
  8
SIMPLE
  6
CONTINUOUS
100
AcDb2dPolyline
 66
     1
 10
0.0
 20
0.0
 30
0.0
 70
     1
  0
VERTEX
  5
DF3414A0FD4F8472
100
AcDbEntity
  8
SIMPLE
  6
CONTINUOUS
100
AcDbVertex
100
AcDb2dVertex
 10
0.0
 20
0.0
 30
0.0
  0
VERTEX
  5
DF3414A0FD4F8473
100
AcDbEntity
  8
SIMPLE
  6
CONTINUOUS
100
AcDbVertex
100
AcDb2dVertex
 10
8000.0
 20
0.0
 30
0.0
  0
VERTEX
  5
DF3414A0FD4F8474
100
AcDbEntity
  8
SIMPLE
  6
CONTINUOUS
100
AcDbVertex
100
AcDb2dVertex
 10
8000.0
 20
-16000.0
 30
0.0
  0
VERTEX
  5
DF3414A0FD4F8475
100
AcDbEntity
  8
SIMPLE
  6
CONTINUOUS
100
AcDbVertex
100
AcDb2dVertex
 10
0.0
 20
-16000.0
 30
0.0
  0
SEQEND
  5
DF3414A0FD4F8476
100
AcDbEntity
  8
SIMPLE
  6
CONTINUOUS
  0
ENDBLK
  5
DF3414A0FD4F8468
100
AcDbEntity
  8
SIMPLE
  6
CONTINUOUS
100
AcDbBlockEnd
  0
ENDSEC
  0
SECTION
  2
ENTITIES
  0
INSERT
  5
DF3414A0FD4F846C
100
AcDbEntity
  8
SIMPLE
  6
CONTINUOUS
100
AcDbBlockReference
  2
LAB_YGR
 10
0.0
 20
0.0
 30
0.0
  0
ENDSEC
  0
SECTION
  2
OBJECTS
  0
DICTIONARY
  5
C
100
AcDbDictionary
  3
ACAD_GROUP
350
D
  3
ACAD_MLINESTYLE
350
1B
  0
DICTIONARY
  5
D
102
{ACAD_REACTORS
330
C
102
}
100
AcDbDictionary
  0
DICTIONARY
  5
1B
102
{ACAD_REACTORS
330
C
102
}
100
AcDbDictionary
  3
STANDARD
350
1C
  0
MLINESTYLE
  5
1C
102
{ACAD_REACTORS
330
1B
102
}
100
AcDbMlineStyle
  2
STANDARD
 70
     0
  3

 62
   256
 51
90.0
 52
90.0
 71
     2
 49
0.5
 62
   256
  6
BYLAYER
 49
-0.5
 62
   256
  6
BYLAYER
  0
ENDSEC
  0
EOF
