  0
SECTION
  2
HEADER
  9
$ACADVER
  1
AC1014
  9
$ACADMAINTVER
 70
     0
  9
$DWGCODEPAGE
  3
ANSI_1252
  9
$INSBASE
 10
0.0
 20
0.0
 30
0.0
  9
$EXTMIN
 10
20.0
 20
-1125.0
 30
0.0
  9
$EXTMAX
 10
1890.304577
 20
-5.0
 30
2.0
  9
$LIMMIN
 10
0.0
 20
0.0
  9
$LIMMAX
 10
12.0
 20
9.0
  9
$ORTHOMODE
 70
     0
  9
$REGENMODE
 70
     1
  9
$FILLMODE
 70
     1
  9
$QTEXTMODE
 70
     0
  9
$MIRRTEXT
 70
     1
  9
$DRAGMODE
 70
     2
  9
$LTSCALE
 40
1.0
  9
$OSMODE
 70
     0
  9
$ATTMODE
 70
     1
  9
$TEXTSIZE
 40
0.2
  9
$TRACEWID
 40
0.05
  9
$TEXTSTYLE
  7
SIMPLEX
  9
$CLAYER
  8
SIMPLE
  9
$CELTYPE
  6
CONTINUOUS
  9
$CECOLOR
 62
    50
  9
$CELTSCALE
 40
1.0
  9
$DELOBJ
 70
     1
  9
$DISPSILH
 70
     0
  9
$DIMSCALE
 40
1.0
  9
$DIMASZ
 40
0.18
  9
$DIMEXO
 40
0.0625
  9
$DIMDLI
 40
0.38
  9
$DIMRND
 40
0.0
  9
$DIMDLE
 40
0.0
  9
$DIMEXE
 40
0.18
  9
$DIMTP
 40
0.0
  9
$DIMTM
 40
0.0
  9
$DIMTXT
 40
0.18
  9
$DIMCEN
 40
0.09
  9
$DIMTSZ
 40
0.0
  9
$DIMTOL
 70
     0
  9
$DIMLIM
 70
     0
  9
$DIMTIH
 70
     1
  9
$DIMTOH
 70
     1
  9
$DIMSE1
 70
     0
  9
$DIMSE2
 70
     0
  9
$DIMTAD
 70
     0
  9
$DIMZIN
 70
     0
  9
$DIMBLK
  1

  9
$DIMASO
 70
     1
  9
$DIMSHO
 70
     1
  9
$DIMPOST
  1

  9
$DIMAPOST
  1

  9
$DIMALT
 70
     0
  9
$DIMALTD
 70
     2
  9
$DIMALTF
 40
25.4
  9
$DIMLFAC
 40
1.0
  9
$DIMTOFL
 70
     0
  9
$DIMTVP
 40
0.0
  9
$DIMTIX
 70
     0
  9
$DIMSOXD
 70
     0
  9
$DIMSAH
 70
     0
  9
$DIMBLK1
  1

  9
$DIMBLK2
  1

  9
$DIMSTYLE
  2
STANDARD
  9
$DIMCLRD
 70
     0
  9
$DIMCLRE
 70
     0
  9
$DIMCLRT
 70
     0
  9
$DIMTFAC
 40
1.0
  9
$DIMGAP
 40
0.09
  9
$DIMJUST
 70
     0
  9
$DIMSD1
 70
     0
  9
$DIMSD2
 70
     0
  9
$DIMTOLJ
 70
     1
  9
$DIMTZIN
 70
     0
  9
$DIMALTZ
 70
     0
  9
$DIMALTTZ
 70
     0
  9
$DIMFIT
 70
     3
  9
$DIMUPT
 70
     0
  9
$DIMUNIT
 70
     2
  9
$DIMDEC
 70
     4
  9
$DIMTDEC
 70
     4
  9
$DIMALTU
 70
     2
  9
$DIMALTTD
 70
     2
  9
$DIMTXSTY
  7
STANDARD
  9
$DIMAUNIT
 70
     0
  9
$LUNITS
 70
     2
  9
$LUPREC
 70
     4
  9
$SKETCHINC
 40
0.1
  9
$FILLETRAD
 40
0.5
  9
$AUNITS
 70
     0
  9
$AUPREC
 70
     0
  9
$MENU
  1
.
  9
$ELEVATION
 40
0.0
  9
$PELEVATION
 40
0.0
  9
$THICKNESS
 40
0.0
  9
$LIMCHECK
 70
     0
  9
$BLIPMODE
 70
     0
  9
$CHAMFERA
 40
0.5
  9
$CHAMFERB
 40
0.5
  9
$CHAMFERC
 40
1.0
  9
$CHAMFERD
 40
0.0
  9
$SKPOLY
 70
     0
  9
$TDCREATE
 40
2453115.609964896
  9
$TDUPDATE
 40
2453942.616643507
  9
$TDINDWG
 40
7.952314814815
  9
$TDUSRTIMER
 40
7.952314814815
  9
$USRTIMER
 70
     1
  9
$ANGBASE
 50
0.0
  9
$ANGDIR
 70
     0
  9
$PDMODE
 70
    35
  9
$PDSIZE
 40
5.0
  9
$PLINEWID
 40
0.0
  9
$COORDS
 70
     1
  9
$SPLFRAME
 70
     0
  9
$SPLINETYPE
 70
     6
  9
$SPLINESEGS
 70
     8
  9
$ATTDIA
 70
     0
  9
$ATTREQ
 70
     1
  9
$HANDLING
 70
     1
  9
$HANDSEED
  5
FFFF4FE814B967C0
  9
$SURFTAB1
 70
     6
  9
$SURFTAB2
 70
     6
  9
$SURFTYPE
 70
     6
  9
$SURFU
 70
     6
  9
$SURFV
 70
     6
  9
$UCSNAME
  2

  9
$UCSORG
 10
0.0
 20
0.0
 30
0.0
  9
$UCSXDIR
 10
1.0
 20
0.0
 30
0.0
  9
$UCSYDIR
 10
0.0
 20
1.0
 30
0.0
  9
$PUCSNAME
  2

  9
$PUCSORG
 10
0.0
 20
0.0
 30
0.0
  9
$PUCSXDIR
 10
1.0
 20
0.0
 30
0.0
  9
$PUCSYDIR
 10
0.0
 20
1.0
 30
0.0
  9
$USERI1
 70
     0
  9
$USERI2
 70
     0
  9
$USERI3
 70
     0
  9
$USERI4
 70
     0
  9
$USERI5
 70
     0
  9
$USERR1
 40
0.0
  9
$USERR2
 40
0.0
  9
$USERR3
 40
0.0
  9
$USERR4
 40
0.0
  9
$USERR5
 40
0.0
  9
$WORLDVIEW
 70
     1
  9
$SHADEDGE
 70
     3
  9
$SHADEDIF
 70
    70
  9
$TILEMODE
 70
     1
  9
$MAXACTVP
 70
    48
  9
$PINSBASE
 10
0.0
 20
0.0
 30
0.0
  9
$PLIMCHECK
 70
     0
  9
$PEXTMIN
 10
1.000000E+020
 20
1.000000E+020
 30
1.000000E+020
  9
$PEXTMAX
 10
-1.000000E+020
 20
-1.000000E+020
 30
-1.000000E+020
  9
$PLIMMIN
 10
0.0
 20
0.0
  9
$PLIMMAX
 10
12.0
 20
9.0
  9
$UNITMODE
 70
     0
  9
$VISRETAIN
 70
     1
  9
$PLINEGEN
 70
     0
  9
$PSLTSCALE
 70
     1
  9
$TREEDEPTH
 70
  3020
  9
$PICKSTYLE
 70
     1
  9
$CMLSTYLE
  2
STANDARD
  9
$CMLJUST
 70
     0
  9
$CMLSCALE
 40
1.0
  9
$PROXYGRAPHICS
 70
     1
  9
$MEASUREMENT
 70
     0
  0
ENDSEC
  0
SECTION
  2
CLASSES
  0
CLASS
  1
LWPOLYLINE
  2
AcDbPolyline
  3
"AutoCAD"
 90
        0
280
     0
281
     1
  0
ENDSEC
  0
SECTION
  2
TABLES
  0
TABLE
  2
VPORT
  5
8
100
AcDbSymbolTable
 70
     1
  0
VPORT
  5
37
100
AcDbSymbolTableRecord
100
AcDbViewportTableRecord
  2
*ACTIVE
 70
     0
 10
0.0
 20
0.0
 11
1.0
 21
1.0
 12
809.432123
 22
-586.283476
 13
0.0
 23
0.0
 14
5.0
 24
5.0
 15
5.0
 25
5.0
 16
0.0
 26
0.0
 36
1.0
 17
0.0
 27
0.0
 37
0.0
 40
2356.841717
 41
1.418935
 42
50.0
 43
0.0
 44
0.0
 50
0.0
 51
0.0
 71
     0
 72
   100
 73
     1
 74
     1
 75
     0
 76
     1
 77
     0
 78
     0
  0
ENDTAB
  0
TABLE
  2
LTYPE
  5
5
100
AcDbSymbolTable
 70
     2
  0
LTYPE
  5
12
100
AcDbSymbolTableRecord
100
AcDbLinetypeTableRecord
  2
BYBLOCK
 70
     0
  3

 72
    65
 73
     0
 40
0.0
  0
LTYPE
  5
13
100
AcDbSymbolTableRecord
100
AcDbLinetypeTableRecord
  2
BYLAYER
 70
     0
  3

 72
    65
 73
     0
 40
0.0
  0
LTYPE
  5
14
100
AcDbSymbolTableRecord
100
AcDbLinetypeTableRecord
  2
CONTINUOUS
 70
     0
  3
Solid line
 72
    65
 73
     0
 40
0.0
  0
LTYPE
  5
EABC2558047DBBEB
100
AcDbSymbolTableRecord
100
AcDbLinetypeTableRecord
  2
ASDF
 70
     0
  3
Solid line
 72
    65
 73
     4
 40
15.0
 49
5.0
 74
     0
 49
-5.0
 74
     0
 49
0.0
 74
     0
 49
-5.0
 74
     0
  0
ENDTAB
  0
TABLE
  2
LAYER
  5
2
100
AcDbSymbolTable
 70
     4
  0
LAYER
  5
541
100
AcDbSymbolTableRecord
100
AcDbLayerTableRecord
  2
SIMPLE
 70
     0
 62
   162
  6
CONTINUOUS
  0
LAYER
  5
EABC2557EAE3CBBD
100
AcDbSymbolTableRecord
100
AcDbLayerTableRecord
  2
COMMENT
 70
     0
 62
    -2
  6
CONTINUOUS
  0
LAYER
  5
EABC2557F58DF72F
100
AcDbSymbolTableRecord
100
AcDbLayerTableRecord
  2
DETAIL_MEDIUM
 70
     0
 62
   182
  6
CONTINUOUS
  0
LAYER
  5
EABC255822623822
100
AcDbSymbolTableRecord
100
AcDbLayerTableRecord
  2
PORTS
 70
     0
 62
   248
  6
CONTINUOUS
  0
ENDTAB
  0
TABLE
  2
STYLE
  5
3
100
AcDbSymbolTable
 70
     8
  0
STYLE
  5
F
100
AcDbSymbolTableRecord
100
AcDbTextStyleTableRecord
  2
STANDARD
 70
     0
 40
0.0
 41
1.0
 50
0.0
 71
     0
 42
100.0
  3
txt.shx
  4

  0
STYLE
  5
21
100
AcDbSymbolTableRecord
100
AcDbTextStyleTableRecord
  2
COMPLEX
 70
     0
 40
0.0
 41
1.0
 50
0.0
 71
     0
 42
0.2
  3
complex
  4

  0
STYLE
  5
22
100
AcDbSymbolTableRecord
100
AcDbTextStyleTableRecord
  2
ITALIC
 70
     0
 40
0.0
 41
1.0
 50
0.0
 71
     0
 42
0.2
  3
italic
  4

  0
STYLE
  5
23
100
AcDbSymbolTableRecord
100
AcDbTextStyleTableRecord
  2
ROMANC
 70
     0
 40
0.0
 41
1.0
 50
0.0
 71
     0
 42
0.2
  3
romanc
  4

  0
STYLE
  5
24
100
AcDbSymbolTableRecord
100
AcDbTextStyleTableRecord
  2
SIMPLEX
 70
     0
 40
0.0
 41
1.0
 50
0.0
 71
     0
 42
10.0
  3
simplex
  4

  0
STYLE
  5
34
100
AcDbSymbolTableRecord
100
AcDbTextStyleTableRecord
  2

 70
     1
 40
0.0
 41
1.0
 50
0.0
 71
     0
 42
0.2
  3
ltypeshp.shx
  4

  0
STYLE
  5
38
100
AcDbSymbolTableRecord
100
AcDbTextStyleTableRecord
  2
ARIAL
 70
     0
 40
0.0
 41
1.0
 50
0.0
 71
     0
 42
0.2
  3

  4

1001
ACAD
1000
Arial
1071
       34
  0
STYLE
  5
39
100
AcDbSymbolTableRecord
100
AcDbTextStyleTableRecord
  2
TIMES_NEW_ROMAN
 70
     0
 40
0.0
 41
1.0
 50
0.0
 71
     0
 42
0.2
  3

  4

1001
ACAD
1000
Times New Roman
1071
       18
  0
ENDTAB
  0
TABLE
  2
VIEW
  5
6
100
AcDbSymbolTable
 70
     0
  0
ENDTAB
  0
TABLE
  2
UCS
  5
7
100
AcDbSymbolTable
 70
     0
  0
ENDTAB
  0
TABLE
  2
APPID
  5
9
100
AcDbSymbolTable
 70
     1
  0
APPID
  5
10
100
AcDbSymbolTableRecord
100
AcDbRegAppTableRecord
  2
ACAD
 70
     0
  0
ENDTAB
  0
TABLE
  2
DIMSTYLE
  5
A
100
AcDbSymbolTable
 70
     1
  0
DIMSTYLE
105
1D
100
AcDbSymbolTableRecord
100
AcDbDimStyleTableRecord
  2
STANDARD
 70
     0
  3

  4

  5

  6

  7

 40
1.0
 41
100.0
 42
50.0
 43
0.38
 44
50.0
 45
0.0
 46
0.0
 47
0.0
 48
0.0
140
100.0
141
0.09
142
0.0
143
25.4
144
1.0
145
0.0
146
1.0
147
0.09
 71
     0
 72
     0
 73
     1
 74
     1
 75
     0
 76
     0
 77
     0
 78
     0
170
     0
171
     2
172
     0
173
     0
174
     0
175
     0
176
     0
177
     0
178
     0
270
     2
271
     4
272
     4
273
     2
274
     2
340
F
275
     0
280
     0
281
     0
282
     0
283
     1
284
     0
285
     0
286
     0
287
     3
288
     0
  0
ENDTAB
  0
TABLE
  2
BLOCK_RECORD
  5
1
100
AcDbSymbolTable
 70
   108
  0
BLOCK_RECORD
  5
18
100
AcDbSymbolTableRecord
100
AcDbBlockTableRecord
  2
*MODEL_SPACE
  0
BLOCK_RECORD
  5
15
100
AcDbSymbolTableRecord
100
AcDbBlockTableRecord
  2
*PAPER_SPACE
  0
BLOCK_RECORD
  5
EABC2557E039A7B5
100
AcDbSymbolTableRecord
100
AcDbBlockTableRecord
  2
*D0
  0
BLOCK_RECORD
  5
EABC2557E039A7C4
100
AcDbSymbolTableRecord
100
AcDbBlockTableRecord
  2
*D1
  0
BLOCK_RECORD
  5
EABC2557E039A7E1
100
AcDbSymbolTableRecord
100
AcDbBlockTableRecord
  2
*D2
  0
BLOCK_RECORD
  5
EABC2557E039A7F0
100
AcDbSymbolTableRecord
100
AcDbBlockTableRecord
  2
*D3
  0
BLOCK_RECORD
  5
EABC2557E039A7FF
100
AcDbSymbolTableRecord
100
AcDbBlockTableRecord
  2
*D4
  0
BLOCK_RECORD
  5
EABC2557E039A81C
100
AcDbSymbolTableRecord
100
AcDbBlockTableRecord
  2
*D5
  0
BLOCK_RECORD
  5
EABC2557E039A82C
100
AcDbSymbolTableRecord
100
AcDbBlockTableRecord
  2
*D6
  0
BLOCK_RECORD
  5
EABC2557E039A83C
100
AcDbSymbolTableRecord
100
AcDbBlockTableRecord
  2
*D7
  0
BLOCK_RECORD
  5
EABC2557E039A84D
100
AcDbSymbolTableRecord
100
AcDbBlockTableRecord
  2
*D8
  0
BLOCK_RECORD
  5
EABC2557E039A85C
100
AcDbSymbolTableRecord
100
AcDbBlockTableRecord
  2
*D9
  0
BLOCK_RECORD
  5
EABC2557E039A86B
100
AcDbSymbolTableRecord
100
AcDbBlockTableRecord
  2
*D10
  0
BLOCK_RECORD
  5
EABC2557E039A87B
100
AcDbSymbolTableRecord
100
AcDbBlockTableRecord
  2
*D11
  0
BLOCK_RECORD
  5
EABC2557E039A88B
100
AcDbSymbolTableRecord
100
AcDbBlockTableRecord
  2
*D12
  0
BLOCK_RECORD
  5
EABC2557E039A8B5
100
AcDbSymbolTableRecord
100
AcDbBlockTableRecord
  2
*D13
  0
BLOCK_RECORD
  5
EABC2557E039A8C5
100
AcDbSymbolTableRecord
100
AcDbBlockTableRecord
  2
*D14
  0
BLOCK_RECORD
  5
EABC2557E039A8D5
100
AcDbSymbolTableRecord
100
AcDbBlockTableRecord
  2
*D15
  0
BLOCK_RECORD
  5
EABC2557E039A8E5
100
AcDbSymbolTableRecord
100
AcDbBlockTableRecord
  2
*D16
  0
BLOCK_RECORD
  5
EABC2557E039A8F5
100
AcDbSymbolTableRecord
100
AcDbBlockTableRecord
  2
*D17
  0
BLOCK_RECORD
  5
EABC2557E039A906
100
AcDbSymbolTableRecord
100
AcDbBlockTableRecord
  2
*D18
  0
BLOCK_RECORD
  5
EABC2557E039A916
100
AcDbSymbolTableRecord
100
AcDbBlockTableRecord
  2
*D19
  0
BLOCK_RECORD
  5
EABC2557E039A926
100
AcDbSymbolTableRecord
100
AcDbBlockTableRecord
  2
*D20
  0
BLOCK_RECORD
  5
EABC2557E039A936
100
AcDbSymbolTableRecord
100
AcDbBlockTableRecord
  2
*D21
  0
BLOCK_RECORD
  5
EABC2557E039A946
100
AcDbSymbolTableRecord
100
AcDbBlockTableRecord
  2
*D22
  0
BLOCK_RECORD
  5
EABC2557E039A956
100
AcDbSymbolTableRecord
100
AcDbBlockTableRecord
  2
*D23
  0
BLOCK_RECORD
  5
EABC2557E039A974
100
AcDbSymbolTableRecord
100
AcDbBlockTableRecord
  2
*D24
  0
BLOCK_RECORD
  5
EABC2557E039A984
100
AcDbSymbolTableRecord
100
AcDbBlockTableRecord
  2
*D25
  0
BLOCK_RECORD
  5
EABC2557E039A994
100
AcDbSymbolTableRecord
100
AcDbBlockTableRecord
  2
*D26
  0
BLOCK_RECORD
  5
EABC2557E58EBC78
100
AcDbSymbolTableRecord
100
AcDbBlockTableRecord
  2
*D27
  0
BLOCK_RECORD
  5
EABC2557E58EBC87
100
AcDbSymbolTableRecord
100
AcDbBlockTableRecord
  2
*D28
  0
BLOCK_RECORD
  5
EABC2557E58EBC96
100
AcDbSymbolTableRecord
100
AcDbBlockTableRecord
  2
*D29
  0
BLOCK_RECORD
  5
EABC2557E58EBCA5
100
AcDbSymbolTableRecord
100
AcDbBlockTableRecord
  2
*D30
  0
BLOCK_RECORD
  5
EABC2557E58EBCB4
100
AcDbSymbolTableRecord
100
AcDbBlockTableRecord
  2
*D31
  0
BLOCK_RECORD
  5
EABC2557E58EBCC3
100
AcDbSymbolTableRecord
100
AcDbBlockTableRecord
  2
*D32
  0
BLOCK_RECORD
  5
EABC2557E58EBCD2
100
AcDbSymbolTableRecord
100
AcDbBlockTableRecord
  2
*D33
  0
BLOCK_RECORD
  5
EABC2557E58EBCE1
100
AcDbSymbolTableRecord
100
AcDbBlockTableRecord
  2
*D34
  0
BLOCK_RECORD
  5
EABC2557E58EBCF0
100
AcDbSymbolTableRecord
100
AcDbBlockTableRecord
  2
*D35
  0
BLOCK_RECORD
  5
EABC2557E58EBCFF
100
AcDbSymbolTableRecord
100
AcDbBlockTableRecord
  2
*D36
  0
BLOCK_RECORD
  5
EABC2558047DB823
100
AcDbSymbolTableRecord
100
AcDbBlockTableRecord
  2
*D37
  0
BLOCK_RECORD
  5
EABC2558047DB833
100
AcDbSymbolTableRecord
100
AcDbBlockTableRecord
  2
*D38
  0
BLOCK_RECORD
  5
FFFE2AD084B10BD6
100
AcDbSymbolTableRecord
100
AcDbBlockTableRecord
  2
TITAN_ALM_COMMON_REGISTER_BLOCK
  0
BLOCK_RECORD
  5
FFFE2AD084B10C46
100
AcDbSymbolTableRecord
100
AcDbBlockTableRecord
  2
TITAN_ALM_DATAIN_REG_0
  0
BLOCK_RECORD
  5
FFFE2AD084B10DA3
100
AcDbSymbolTableRecord
100
AcDbBlockTableRecord
  2
TITAN_ALM_ADATASDATA_REG_0
  0
BLOCK_RECORD
  5
FFFE2AD084B10E87
100
AcDbSymbolTableRecord
100
AcDbBlockTableRecord
  2
TITAN_ALM_ADATASDATA_REG_1
  0
BLOCK_RECORD
  5
FFFE2AD084B10E8B
100
AcDbSymbolTableRecord
100
AcDbBlockTableRecord
  2
TITAN_ALM_DATAIN_REG_1
  0
BLOCK_RECORD
  5
FFFE2AD084B112A0
100
AcDbSymbolTableRecord
100
AcDbBlockTableRecord
  2
TITAN_LUT_FF_REGOUT_WIRE2
  0
BLOCK_RECORD
  5
FFFE2AD084B11AB6
100
AcDbSymbolTableRecord
100
AcDbBlockTableRecord
  2
TITAN_LUT_FF_REGOUT_WIRE0
  0
BLOCK_RECORD
  5
FFFE2AD084B11ABA
100
AcDbSymbolTableRecord
100
AcDbBlockTableRecord
  2
TITAN_LUT_FF_REGOUT_WIRE1
  0
BLOCK_RECORD
  5
FFFE2AD084B11ABE
100
AcDbSymbolTableRecord
100
AcDbBlockTableRecord
  2
TITAN_LUT_FF_REGOUT_POINT
  0
BLOCK_RECORD
  5
FFFE2AD084B11AC2
100
AcDbSymbolTableRecord
100
AcDbBlockTableRecord
  2
TITAN_LUT_FF_REGOUT
  0
BLOCK_RECORD
  5
FFFE2AD084B11ACD
100
AcDbSymbolTableRecord
100
AcDbBlockTableRecord
  2
TITAN_LUT_FF_CLK_ENABLE_PORT
  0
BLOCK_RECORD
  5
FFFE2AD084B11AD3
100
AcDbSymbolTableRecord
100
AcDbBlockTableRecord
  2
TITAN_LUT_FF_CLK_ENABLE_WIRE0
  0
BLOCK_RECORD
  5
FFFE2AD084B11AD7
100
AcDbSymbolTableRecord
100
AcDbBlockTableRecord
  2
TITAN_LUT_FF_CLK_ENABLE_WIRE1
  0
BLOCK_RECORD
  5
FFFE2AD084B11ADB
100
AcDbSymbolTableRecord
100
AcDbBlockTableRecord
  2
TITAN_LUT_FF_CLK_PORT
  0
BLOCK_RECORD
  5
FFFE2AD084B11AE1
100
AcDbSymbolTableRecord
100
AcDbBlockTableRecord
  2
TITAN_LUT_FF_CLK_WIRE0
  0
BLOCK_RECORD
  5
FFFE2AD084B11B65
100
AcDbSymbolTableRecord
100
AcDbBlockTableRecord
  2
TITAN_LUT_FF_ACLR_PORT
  0
BLOCK_RECORD
  5
FFFE2AD084B11B6B
100
AcDbSymbolTableRecord
100
AcDbBlockTableRecord
  2
TITAN_LUT_FF_ACLR_WIRE0
  0
BLOCK_RECORD
  5
FFFE2AD084B11B77
100
AcDbSymbolTableRecord
100
AcDbBlockTableRecord
  2
TITAN_LUT_FF_SCLR_PORT
  0
BLOCK_RECORD
  5
FFFE2AD084B11B7D
100
AcDbSymbolTableRecord
100
AcDbBlockTableRecord
  2
TITAN_LUT_FF_SCLR_WIRE0
  0
BLOCK_RECORD
  5
FFFE2AD084B11B81
100
AcDbSymbolTableRecord
100
AcDbBlockTableRecord
  2
TITAN_LUT_FF_SCLR_WIRE1
  0
BLOCK_RECORD
  5
FFFE2AD084B11B85
100
AcDbSymbolTableRecord
100
AcDbBlockTableRecord
  2
TITAN_LUT_FF_DATAIN_PORT
  0
BLOCK_RECORD
  5
FFFE2AD084B13B22
100
AcDbSymbolTableRecord
100
AcDbBlockTableRecord
  2
TITAN_LUT_FF_ADATASDATA_E1
  0
BLOCK_RECORD
  5
FFFE2AD084B163B9
100
AcDbSymbolTableRecord
100
AcDbBlockTableRecord
  2
TITAN_LUT_FF_ADATASDATA_F1
  0
BLOCK_RECORD
  5
FFFE2AD084B1A1C0
100
AcDbSymbolTableRecord
100
AcDbBlockTableRecord
  2
TITAN_LUT_FF_ADATASDATA_F0
  0
BLOCK_RECORD
  5
FFFE2AD084B23102
100
AcDbSymbolTableRecord
100
AcDbBlockTableRecord
  2
TITAN_LUT_FF_ADATASDATA_E0
  0
BLOCK_RECORD
  5
FFFE2AD084B5A15C
100
AcDbSymbolTableRecord
100
AcDbBlockTableRecord
  2
TITAN_LUT_FF_REG_CASC_0
  0
BLOCK_RECORD
  5
FFFE2AD084BA3724
100
AcDbSymbolTableRecord
100
AcDbBlockTableRecord
  2
TITAN_LUT_FF_REG_CASC_1
  0
BLOCK_RECORD
  5
FFFE2AD084D5B12A
100
AcDbSymbolTableRecord
100
AcDbBlockTableRecord
  2
TITAN_ALM_ADATASDATA_1_SEL_E
  0
BLOCK_RECORD
  5
FFFE2AD084FA53DE
100
AcDbSymbolTableRecord
100
AcDbBlockTableRecord
  2
TITAN_ALM_ADATASDATA_1_SEL_F
  0
BLOCK_RECORD
  5
FFFE2AD085439950
100
AcDbSymbolTableRecord
100
AcDbBlockTableRecord
  2
TITAN_ALM_ADATASDATA_1_WIRE
  0
BLOCK_RECORD
  5
FFFE2AD085D6243D
100
AcDbSymbolTableRecord
100
AcDbBlockTableRecord
  2
TITAN_ALM_ADATASDATA_1_PORT
  0
BLOCK_RECORD
  5
FFFE2AD086FB3A21
100
AcDbSymbolTableRecord
100
AcDbBlockTableRecord
  2
TITAN_ALM_DATAIN_1_PORT
  0
BLOCK_RECORD
  5
FFFE2AD0894569D7
100
AcDbSymbolTableRecord
100
AcDbBlockTableRecord
  2
TITAN_LUT_FF_REG_CASC_IN_0
  0
BLOCK_RECORD
  5
FFFE2AD097028470
100
AcDbSymbolTableRecord
100
AcDbBlockTableRecord
  2
TITAN_ALM_DATAIN_REG_0_SEL_REG
  0
BLOCK_RECORD
  5
FFFE2AD0A953FE66
100
AcDbSymbolTableRecord
100
AcDbBlockTableRecord
  2
TITAN_ALM_DATAIN_REG_0_SEL_CASC
  0
BLOCK_RECORD
  5
FFFE2AD1173CD38F
100
AcDbSymbolTableRecord
100
AcDbBlockTableRecord
  2
TITAN_ALM_ADATASDATA_0_SEL_F
  0
BLOCK_RECORD
  5
FFFE2AD1A9C89C31
100
AcDbSymbolTableRecord
100
AcDbBlockTableRecord
  2
TITAN_ALM_ADATASDATA_0_SEL_E
  0
BLOCK_RECORD
  5
FFFE2AD2CEE02D7F
100
AcDbSymbolTableRecord
100
AcDbBlockTableRecord
  2
TITAN_ALM_ADATASDATA_0_WIRE
  0
BLOCK_RECORD
  5
FFFE2AD5190F4CA7
100
AcDbSymbolTableRecord
100
AcDbBlockTableRecord
  2
TITAN_ALM_ADATASDATA_0_PORT
  0
BLOCK_RECORD
  5
FFFE2AD9AD6D8B01
100
AcDbSymbolTableRecord
100
AcDbBlockTableRecord
  2
TITAN_ALM_DATAIN_0_PORT
  0
BLOCK_RECORD
  5
FFFE2AF527A30936
100
AcDbSymbolTableRecord
100
AcDbBlockTableRecord
  2
TITAN_LUT_REGISTER_REGOUT_PORT
  0
BLOCK_RECORD
  5
FFFE2B631079023B
100
AcDbSymbolTableRecord
100
AcDbBlockTableRecord
  2
TITAN_LUT_REGISTER_REGOUT_WIRE
  0
BLOCK_RECORD
  5
FFFE2BF59C40F8F3
100
AcDbSymbolTableRecord
100
AcDbBlockTableRecord
  2
TITAN_LUT_REGISTER_QOUT
  0
BLOCK_RECORD
  5
FFFE2D1AB3D0E739
100
AcDbSymbolTableRecord
100
AcDbBlockTableRecord
  2
TITAN_LUT_REGISTER_BLOCK
  0
BLOCK_RECORD
  5
FFFE2F64E2F0C3B8
100
AcDbSymbolTableRecord
100
AcDbBlockTableRecord
  2
TITAN_LUT_REGISTER_ACLR_PORT
  0
BLOCK_RECORD
  5
FFFE33F941307CAC
100
AcDbSymbolTableRecord
100
AcDbBlockTableRecord
  2
TITAN_LUT_REGISTER_ACLR_WIRE
  0
BLOCK_RECORD
  5
FFFE3D21FDAFEE94
100
AcDbSymbolTableRecord
100
AcDbBlockTableRecord
  2
TITAN_LUT_REGISTER_ENA_PORT
  0
BLOCK_RECORD
  5
FFFE4F7376AED25B
100
AcDbSymbolTableRecord
100
AcDbBlockTableRecord
  2
TITAN_LUT_REGISTER_ENA_WIRE
  0
BLOCK_RECORD
  5
FFFE741668AC99E8
100
AcDbSymbolTableRecord
100
AcDbBlockTableRecord
  2
TITAN_LUT_REGISTER_CLK_PORT
  0
BLOCK_RECORD
  5
FFFEBD5C4CA828F9
100
AcDbSymbolTableRecord
100
AcDbBlockTableRecord
  2
TITAN_LUT_REGISTER_CLK_WIRE
  0
BLOCK_RECORD
  5
FFFF4FE8149F4712
100
AcDbSymbolTableRecord
100
AcDbBlockTableRecord
  2
TITAN_LUT_REGISTER_ADATA_BYPASS
  0
BLOCK_RECORD
  5
FFFF4FE8149F4717
100
AcDbSymbolTableRecord
100
AcDbBlockTableRecord
  2
TITAN_LUT_REGISTER_ADATA_POINT
  0
BLOCK_RECORD
  5
FFFF4FE8149F471C
100
AcDbSymbolTableRecord
100
AcDbBlockTableRecord
  2
TITAN_LUT_REGISTER_SLOAD_MUX
  0
BLOCK_RECORD
  5
FFFF4FE8149F4721
100
AcDbSymbolTableRecord
100
AcDbBlockTableRecord
  2
TITAN_LUT_REGISTER_SCLR_NAND
  0
BLOCK_RECORD
  5
FFFF4FE8149F4726
100
AcDbSymbolTableRecord
100
AcDbBlockTableRecord
  2
TITAN_LUT_REGISTER_SLOAD_PORT
  0
BLOCK_RECORD
  5
FFFF4FE8149F472D
100
AcDbSymbolTableRecord
100
AcDbBlockTableRecord
  2
TITAN_LUT_REGISTER_SLOAD_WIRE
  0
BLOCK_RECORD
  5
FFFF4FE8149F4732
100
AcDbSymbolTableRecord
100
AcDbBlockTableRecord
  2
TITAN_LUT_REGISTER_SCLR_PORT
  0
BLOCK_RECORD
  5
FFFF4FE8149F4739
100
AcDbSymbolTableRecord
100
AcDbBlockTableRecord
  2
TITAN_LUT_REGISTER_SCLR_WIRE
  0
BLOCK_RECORD
  5
FFFF4FE8149F489C
100
AcDbSymbolTableRecord
100
AcDbBlockTableRecord
  2
TITAN_LUT_FF
  0
BLOCK_RECORD
  5
FFFF4FE8149F48C3
100
AcDbSymbolTableRecord
100
AcDbBlockTableRecord
  2
TITAN_LUT_REGISTER
  0
BLOCK_RECORD
  5
FFFF4FE814B96798
100
AcDbSymbolTableRecord
100
AcDbBlockTableRecord
  2
TITAN_LUT_FF_SCLR_WIRE2
  0
BLOCK_RECORD
  5
FFFF4FE814B9679C
100
AcDbSymbolTableRecord
100
AcDbBlockTableRecord
  2
TITAN_LUT_FF_SCLR_WIRE3
  0
BLOCK_RECORD
  5
FFFF4FE814B967A0
100
AcDbSymbolTableRecord
100
AcDbBlockTableRecord
  2
TITAN_LUT_FF_DATAIN_WIRE0
  0
BLOCK_RECORD
  5
FFFF4FE814B967A4
100
AcDbSymbolTableRecord
100
AcDbBlockTableRecord
  2
TITAN_LUT_FF_DATAIN_WIRE1
  0
BLOCK_RECORD
  5
FFFF4FE814B967A8
100
AcDbSymbolTableRecord
100
AcDbBlockTableRecord
  2
TITAN_LUT_FF_DATAIN_WIRE2
  0
BLOCK_RECORD
  5
FFFF4FE814B967AC
100
AcDbSymbolTableRecord
100
AcDbBlockTableRecord
  2
TITAN_LUT_FF_COMB_NODE_LUT
  0
BLOCK_RECORD
  5
FFFF4FE814B967B0
100
AcDbSymbolTableRecord
100
AcDbBlockTableRecord
  2
TITAN_LUT_FF_COMBOUT_PORT
  0
BLOCK_RECORD
  5
FFFF4FE814B967B6
100
AcDbSymbolTableRecord
100
AcDbBlockTableRecord
  2
TITAN_LUT_FF_COMBOUT_WIRE
  0
BLOCK_RECORD
  5
FFFF4FE814B967BA
100
AcDbSymbolTableRecord
100
AcDbBlockTableRecord
  2
TITAN_LUT_FF_DATAIN_MUX
  0
ENDTAB
  0
ENDSEC
  0
SECTION
  2
BLOCKS
  0
BLOCK
  5
19
100
AcDbEntity
  8
SIMPLE
100
AcDbBlockBegin
  2
*MODEL_SPACE
 70
     0
 10
0.0
 20
0.0
 30
0.0
  3
*MODEL_SPACE
  1

  0
ENDBLK
  5
1A
100
AcDbEntity
  8
SIMPLE
100
AcDbBlockEnd
  0
BLOCK
  5
16
100
AcDbEntity
 67
     1
  8
SIMPLE
100
AcDbBlockBegin
  2
*PAPER_SPACE
 70
     0
 10
0.0
 20
0.0
 30
0.0
  3
*PAPER_SPACE
  1

  0
ENDBLK
  5
17
100
AcDbEntity
 67
     1
  8
SIMPLE
100
AcDbBlockEnd
  0
BLOCK
  5
EABC2557E039A7B4
100
AcDbEntity
  8
SIMPLE
 62
     5
100
AcDbBlockBegin
  2
*D0
 70
     1
 10
0.0
 20
0.0
 30
0.0
  1

  0
POINT
  5
EABC2557E039A7AD
100
AcDbEntity
  8
SIMPLE
 62
     0
100
AcDbPoint
 10
12000.0
 20
21200.0
 30
0.0
  0
POINT
  5
EABC2557E039A7AE
100
AcDbEntity
  8
SIMPLE
 62
     0
100
AcDbPoint
 10
16300.0
 20
20900.0
 30
0.0
  0
LINE
  5
EABC2557E039A7A8
100
AcDbEntity
  8
SIMPLE
 62
     0
100
AcDbLine
 10
12000.0
 20
21200.0625
 30
0.0
 11
12000.0
 21
21700.18
 31
0.0
  0
LINE
  5
EABC2557E039A7A9
100
AcDbEntity
  8
SIMPLE
 62
     0
100
AcDbLine
 10
16300.0
 20
20900.0625
 30
0.0
 11
16300.0
 21
21700.18
 31
0.0
  0
TEXT
  5
EABC2557E039A7AF
100
AcDbEntity
  8
SIMPLE
 62
     0
100
AcDbText
 10
14149.297143
 20
21699.91
 30
0.0
 40
0.18
  1
4300.0000
  7
SIMPLEX
 72
     1
 11
14150.0
 21
21699.91
 31
0.0
100
AcDbText
  0
SOLID
  5
EABC2557E039A7AA
100
AcDbEntity
  8
SIMPLE
 62
     0
100
AcDbTrace
 10
12000.18
 20
21699.97
 30
0.0
 11
12000.18
 21
21700.03
 31
0.0
 12
12000.0
 22
21700.0
 32
0.0
 13
12000.0
 23
21700.0
 33
0.0
  0
SOLID
  5
EABC2557E039A7AB
100
AcDbEntity
  8
SIMPLE
 62
     0
100
AcDbTrace
 10
16299.82
 20
21700.03
 30
0.0
 11
16299.82
 21
21699.97
 31
0.0
 12
16300.0
 22
21700.0
 32
0.0
 13
16300.0
 23
21700.0
 33
0.0
  0
LINE
  5
EABC2557E039A7B0
100
AcDbEntity
  8
SIMPLE
 62
     0
100
AcDbLine
 10
12000.18
 20
21700.0
 30
0.0
 11
14149.207143
 21
21700.0
 31
0.0
  0
LINE
  5
EABC2557E039A7B1
100
AcDbEntity
  8
SIMPLE
 62
     0
100
AcDbLine
 10
14150.792857
 20
21700.0
 30
0.0
 11
16299.82
 21
21700.0
 31
0.0
  0
ENDBLK
  5
EABC2557E039A7B6
100
AcDbEntity
  8
SIMPLE
 62
     5
100
AcDbBlockEnd
  0
BLOCK
  5
EABC2557E039A7C3
100
AcDbEntity
  8
SIMPLE
 62
     5
100
AcDbBlockBegin
  2
*D1
 70
     1
 10
0.0
 20
0.0
 30
0.0
  1

  0
POINT
  5
EABC2557E039A7BC
100
AcDbEntity
  8
SIMPLE
 62
     0
100
AcDbPoint
 10
12000.0
 20
21200.0
 30
0.0
  0
POINT
  5
EABC2557E039A7BD
100
AcDbEntity
  8
SIMPLE
 62
     0
100
AcDbPoint
 10
16300.0
 20
20900.0
 30
0.0
  0
LINE
  5
EABC2557E039A7B7
100
AcDbEntity
  8
SIMPLE
 62
     0
100
AcDbLine
 10
12000.0
 20
21200.0625
 30
0.0
 11
12000.0
 21
21700.18
 31
0.0
  0
LINE
  5
EABC2557E039A7B8
100
AcDbEntity
  8
SIMPLE
 62
     0
100
AcDbLine
 10
16300.0
 20
20900.0625
 30
0.0
 11
16300.0
 21
21700.18
 31
0.0
  0
TEXT
  5
EABC2557E039A7BE
100
AcDbEntity
  8
SIMPLE
 62
     0
100
AcDbText
 10
14149.297143
 20
21699.91
 30
0.0
 40
0.18
  1
asdfasdfas
  7
SIMPLEX
 72
     1
 11
14150.0
 21
21699.91
 31
0.0
100
AcDbText
  0
SOLID
  5
EABC2557E039A7B9
100
AcDbEntity
  8
SIMPLE
 62
     0
100
AcDbTrace
 10
12000.18
 20
21699.97
 30
0.0
 11
12000.18
 21
21700.03
 31
0.0
 12
12000.0
 22
21700.0
 32
0.0
 13
12000.0
 23
21700.0
 33
0.0
  0
SOLID
  5
EABC2557E039A7BA
100
AcDbEntity
  8
SIMPLE
 62
     0
100
AcDbTrace
 10
16299.82
 20
21700.03
 30
0.0
 11
16299.82
 21
21699.97
 31
0.0
 12
16300.0
 22
21700.0
 32
0.0
 13
16300.0
 23
21700.0
 33
0.0
  0
LINE
  5
EABC2557E039A7BF
100
AcDbEntity
  8
SIMPLE
 62
     0
100
AcDbLine
 10
12000.18
 20
21700.0
 30
0.0
 11
14149.207143
 21
21700.0
 31
0.0
  0
LINE
  5
EABC2557E039A7C0
100
AcDbEntity
  8
SIMPLE
 62
     0
100
AcDbLine
 10
14150.792857
 20
21700.0
 30
0.0
 11
16299.82
 21
21700.0
 31
0.0
  0
ENDBLK
  5
EABC2557E039A7C5
100
AcDbEntity
  8
SIMPLE
 62
     5
100
AcDbBlockEnd
  0
BLOCK
  5
EABC2557E039A7E0
100
AcDbEntity
  8
SIMPLE
 62
     5
100
AcDbBlockBegin
  2
*D2
 70
     1
 10
0.0
 20
0.0
 30
0.0
  1

  0
POINT
  5
EABC2557E039A7D9
100
AcDbEntity
  8
SIMPLE
 62
     0
100
AcDbPoint
 10
16000.0
 20
19100.0
 30
0.0
  0
POINT
  5
EABC2557E039A7DA
100
AcDbEntity
  8
SIMPLE
 62
     0
100
AcDbPoint
 10
18100.0
 20
19300.0
 30
0.0
  0
LINE
  5
EABC2557E039A7D4
100
AcDbEntity
  8
SIMPLE
 62
     0
100
AcDbLine
 10
16000.0
 20
19100.0625
 30
0.0
 11
16000.0
 21
19600.18
 31
0.0
  0
LINE
  5
EABC2557E039A7D5
100
AcDbEntity
  8
SIMPLE
 62
     0
100
AcDbLine
 10
18100.0
 20
19300.0625
 30
0.0
 11
18100.0
 21
19600.18
 31
0.0
  0
TEXT
  5
EABC2557E039A7DB
100
AcDbEntity
  8
SIMPLE
 62
     0
100
AcDbText
 10
17049.314286
 20
19599.91
 30
0.0
 40
0.18
  1
2100.0000
  7
SIMPLEX
 72
     1
 11
17050.0
 21
19599.91
 31
0.0
100
AcDbText
  0
SOLID
  5
EABC2557E039A7D6
100
AcDbEntity
  8
SIMPLE
 62
     0
100
AcDbTrace
 10
16000.18
 20
19599.97
 30
0.0
 11
16000.18
 21
19600.03
 31
0.0
 12
16000.0
 22
19600.0
 32
0.0
 13
16000.0
 23
19600.0
 33
0.0
  0
SOLID
  5
EABC2557E039A7D7
100
AcDbEntity
  8
SIMPLE
 62
     0
100
AcDbTrace
 10
18099.82
 20
19600.03
 30
0.0
 11
18099.82
 21
19599.97
 31
0.0
 12
18100.0
 22
19600.0
 32
0.0
 13
18100.0
 23
19600.0
 33
0.0
  0
LINE
  5
EABC2557E039A7DC
100
AcDbEntity
  8
SIMPLE
 62
     0
100
AcDbLine
 10
16000.18
 20
19600.0
 30
0.0
 11
17049.224286
 21
19600.0
 31
0.0
  0
LINE
  5
EABC2557E039A7DD
100
AcDbEntity
  8
SIMPLE
 62
     0
100
AcDbLine
 10
17050.775714
 20
19600.0
 30
0.0
 11
18099.82
 21
19600.0
 31
0.0
  0
ENDBLK
  5
EABC2557E039A7E2
100
AcDbEntity
  8
SIMPLE
 62
     5
100
AcDbBlockEnd
  0
BLOCK
  5
EABC2557E039A7EF
100
AcDbEntity
  8
SIMPLE
 62
     5
100
AcDbBlockBegin
  2
*D3
 70
     1
 10
0.0
 20
0.0
 30
0.0
  1

  0
POINT
  5
EABC2557E039A7E8
100
AcDbEntity
  8
SIMPLE
 62
     0
100
AcDbPoint
 10
16000.0
 20
19100.0
 30
0.0
  0
POINT
  5
EABC2557E039A7E9
100
AcDbEntity
  8
SIMPLE
 62
     0
100
AcDbPoint
 10
18100.0
 20
19300.0
 30
0.0
  0
LINE
  5
EABC2557E039A7E3
100
AcDbEntity
  8
SIMPLE
 62
     0
100
AcDbLine
 10
16000.0
 20
19100.0625
 30
0.0
 11
16000.0
 21
19600.18
 31
0.0
  0
LINE
  5
EABC2557E039A7E4
100
AcDbEntity
  8
SIMPLE
 62
     0
100
AcDbLine
 10
18100.0
 20
19300.0625
 30
0.0
 11
18100.0
 21
19600.18
 31
0.0
  0
TEXT
  5
EABC2557E039A7EA
100
AcDbEntity
  8
SIMPLE
 62
     0
100
AcDbText
 10
17049.314286
 20
19599.91
 30
0.0
 40
0.18
  1
2100.0000
  7
SIMPLEX
 72
     1
 11
17050.0
 21
19599.91
 31
0.0
100
AcDbText
  0
SOLID
  5
EABC2557E039A7E5
100
AcDbEntity
  8
SIMPLE
 62
     0
100
AcDbTrace
 10
16000.18
 20
19599.97
 30
0.0
 11
16000.18
 21
19600.03
 31
0.0
 12
16000.0
 22
19600.0
 32
0.0
 13
16000.0
 23
19600.0
 33
0.0
  0
SOLID
  5
EABC2557E039A7E6
100
AcDbEntity
  8
SIMPLE
 62
     0
100
AcDbTrace
 10
18099.82
 20
19600.03
 30
0.0
 11
18099.82
 21
19599.97
 31
0.0
 12
18100.0
 22
19600.0
 32
0.0
 13
18100.0
 23
19600.0
 33
0.0
  0
LINE
  5
EABC2557E039A7EB
100
AcDbEntity
  8
SIMPLE
 62
     0
100
AcDbLine
 10
16000.18
 20
19600.0
 30
0.0
 11
17049.224286
 21
19600.0
 31
0.0
  0
LINE
  5
EABC2557E039A7EC
100
AcDbEntity
  8
SIMPLE
 62
     0
100
AcDbLine
 10
17050.775714
 20
19600.0
 30
0.0
 11
18099.82
 21
19600.0
 31
0.0
  0
ENDBLK
  5
EABC2557E039A7F1
100
AcDbEntity
  8
SIMPLE
 62
     5
100
AcDbBlockEnd
  0
BLOCK
  5
EABC2557E039A7FE
100
AcDbEntity
  8
SIMPLE
 62
     5
100
AcDbBlockBegin
  2
*D4
 70
     1
 10
0.0
 20
0.0
 30
0.0
  1

  0
POINT
  5
EABC2557E039A7F7
100
AcDbEntity
  8
SIMPLE
 62
     0
100
AcDbPoint
 10
16000.0
 20
19100.0
 30
0.0
  0
POINT
  5
EABC2557E039A7F8
100
AcDbEntity
  8
SIMPLE
 62
     0
100
AcDbPoint
 10
18100.0
 20
19300.0
 30
0.0
  0
LINE
  5
EABC2557E039A7F2
100
AcDbEntity
  8
SIMPLE
 62
     0
100
AcDbLine
 10
16000.0
 20
19100.0625
 30
0.0
 11
16000.0
 21
19600.18
 31
0.0
  0
LINE
  5
EABC2557E039A7F3
100
AcDbEntity
  8
SIMPLE
 62
     0
100
AcDbLine
 10
18100.0
 20
19300.0625
 30
0.0
 11
18100.0
 21
19600.18
 31
0.0
  0
TEXT
  5
EABC2557E039A7F9
100
AcDbEntity
  8
SIMPLE
 62
     0
100
AcDbText
 10
17049.515714
 20
19599.91
 30
0.0
 40
0.18
  1
asdfe4r
  7
SIMPLEX
 72
     1
 11
17050.0
 21
19599.91
 31
0.0
100
AcDbText
  0
SOLID
  5
EABC2557E039A7F4
100
AcDbEntity
  8
SIMPLE
 62
     0
100
AcDbTrace
 10
16000.18
 20
19599.97
 30
0.0
 11
16000.18
 21
19600.03
 31
0.0
 12
16000.0
 22
19600.0
 32
0.0
 13
16000.0
 23
19600.0
 33
0.0
  0
SOLID
  5
EABC2557E039A7F5
100
AcDbEntity
  8
SIMPLE
 62
     0
100
AcDbTrace
 10
18099.82
 20
19600.03
 30
0.0
 11
18099.82
 21
19599.97
 31
0.0
 12
18100.0
 22
19600.0
 32
0.0
 13
18100.0
 23
19600.0
 33
0.0
  0
LINE
  5
EABC2557E039A7FA
100
AcDbEntity
  8
SIMPLE
 62
     0
100
AcDbLine
 10
16000.18
 20
19600.0
 30
0.0
 11
17049.425714
 21
19600.0
 31
0.0
  0
LINE
  5
EABC2557E039A7FB
100
AcDbEntity
  8
SIMPLE
 62
     0
100
AcDbLine
 10
17050.574286
 20
19600.0
 30
0.0
 11
18099.82
 21
19600.0
 31
0.0
  0
ENDBLK
  5
EABC2557E039A800
100
AcDbEntity
  8
SIMPLE
 62
     5
100
AcDbBlockEnd
  0
BLOCK
  5
EABC2557E039A81B
100
AcDbEntity
  8
SIMPLE
 62
     5
100
AcDbBlockBegin
  2
*D5
 70
     1
 10
0.0
 20
0.0
 30
0.0
  1

  0
POINT
  5
EABC2557E039A814
100
AcDbEntity
  8
SIMPLE
 62
     0
100
AcDbPoint
 10
16600.0
 20
19600.0
 30
0.0
  0
POINT
  5
EABC2557E039A815
100
AcDbEntity
  8
SIMPLE
 62
     0
100
AcDbPoint
 10
17400.0
 20
19300.0
 30
0.0
  0
LINE
  5
EABC2557E039A80F
100
AcDbEntity
  8
SIMPLE
 62
     0
100
AcDbLine
 10
16600.0
 20
19599.9375
 30
0.0
 11
16600.0
 21
19399.82
 31
0.0
  0
LINE
  5
EABC2557E039A810
100
AcDbEntity
  8
SIMPLE
 62
     0
100
AcDbLine
 10
17400.0
 20
19300.0625
 30
0.0
 11
17400.0
 21
19400.18
 31
0.0
  0
TEXT
  5
EABC2557E039A816
100
AcDbEntity
  8
SIMPLE
 62
     0
100
AcDbText
 10
16999.382857
 20
19399.91
 30
0.0
 40
0.18
  1
800.0000
  7
SIMPLEX
 72
     1
 11
17000.0
 21
19399.91
 31
0.0
100
AcDbText
  0
SOLID
  5
EABC2557E039A811
100
AcDbEntity
  8
SIMPLE
 62
     0
100
AcDbTrace
 10
16600.18
 20
19399.97
 30
0.0
 11
16600.18
 21
19400.03
 31
0.0
 12
16600.0
 22
19400.0
 32
0.0
 13
16600.0
 23
19400.0
 33
0.0
  0
SOLID
  5
EABC2557E039A812
100
AcDbEntity
  8
SIMPLE
 62
     0
100
AcDbTrace
 10
17399.82
 20
19400.03
 30
0.0
 11
17399.82
 21
19399.97
 31
0.0
 12
17400.0
 22
19400.0
 32
0.0
 13
17400.0
 23
19400.0
 33
0.0
  0
LINE
  5
EABC2557E039A817
100
AcDbEntity
  8
SIMPLE
 62
     0
100
AcDbLine
 10
16600.18
 20
19400.0
 30
0.0
 11
16999.292857
 21
19400.0
 31
0.0
  0
LINE
  5
EABC2557E039A818
100
AcDbEntity
  8
SIMPLE
 62
     0
100
AcDbLine
 10
17000.707143
 20
19400.0
 30
0.0
 11
17399.82
 21
19400.0
 31
0.0
  0
ENDBLK
  5
EABC2557E039A81D
100
AcDbEntity
  8
SIMPLE
 62
     5
100
AcDbBlockEnd
  0
BLOCK
  5
EABC2557E039A82B
100
AcDbEntity
  8
SIMPLE
  6
CONTINUOUS
 62
     5
100
AcDbBlockBegin
  2
*D6
 70
     1
 10
0.0
 20
0.0
 30
0.0
  1

  0
POINT
  5
EABC2557E039A824
100
AcDbEntity
  8
SIMPLE
  6
CONTINUOUS
 62
     0
100
AcDbPoint
 10
16800.0
 20
19500.0
 30
0.0
  0
POINT
  5
EABC2557E039A825
100
AcDbEntity
  8
SIMPLE
  6
CONTINUOUS
 62
     0
100
AcDbPoint
 10
16900.0
 20
19500.0
 30
0.0
  0
LINE
  5
EABC2557E039A81F
100
AcDbEntity
  8
SIMPLE
  6
CONTINUOUS
 62
     0
100
AcDbLine
 10
16800.0
 20
19499.9375
 30
0.0
 11
16800.0
 21
19399.82
 31
0.0
  0
LINE
  5
EABC2557E039A820
100
AcDbEntity
  8
SIMPLE
  6
CONTINUOUS
 62
     0
100
AcDbLine
 10
16900.0
 20
19499.9375
 30
0.0
 11
16900.0
 21
19399.82
 31
0.0
  0
TEXT
  5
EABC2557E039A826
100
AcDbEntity
  8
SIMPLE
  6
CONTINUOUS
 62
     0
100
AcDbText
 10
16999.4
 20
19399.91
 30
0.0
 40
0.18
  1
100.0000
  7
SIMPLEX
 72
     1
 11
17000.0
 21
19399.91
 31
0.0
100
AcDbText
  0
SOLID
  5
EABC2557E039A821
100
AcDbEntity
  8
SIMPLE
  6
CONTINUOUS
 62
     0
100
AcDbTrace
 10
16800.18
 20
19399.97
 30
0.0
 11
16800.18
 21
19400.03
 31
0.0
 12
16800.0
 22
19400.0
 32
0.0
 13
16800.0
 23
19400.0
 33
0.0
  0
SOLID
  5
EABC2557E039A822
100
AcDbEntity
  8
SIMPLE
  6
CONTINUOUS
 62
     0
100
AcDbTrace
 10
16899.82
 20
19400.03
 30
0.0
 11
16899.82
 21
19399.97
 31
0.0
 12
16900.0
 22
19400.0
 32
0.0
 13
16900.0
 23
19400.0
 33
0.0
  0
LINE
  5
EABC2557E039A827
100
AcDbEntity
  8
SIMPLE
  6
CONTINUOUS
 62
     0
100
AcDbLine
 10
16800.18
 20
19400.0
 30
0.0
 11
16899.82
 21
19400.0
 31
0.0
  0
ENDBLK
  5
EABC2557E039A82D
100
AcDbEntity
  8
SIMPLE
  6
CONTINUOUS
 62
     5
100
AcDbBlockEnd
  0
BLOCK
  5
EABC2557E039A83B
100
AcDbEntity
  8
SIMPLE
  6
CONTINUOUS
 62
     5
100
AcDbBlockBegin
  2
*D7
 70
     1
 10
0.0
 20
0.0
 30
0.0
  1

  0
POINT
  5
EABC2557E039A834
100
AcDbEntity
  8
SIMPLE
  6
CONTINUOUS
 62
     0
100
AcDbPoint
 10
17000.0
 20
19400.0
 30
0.0
  0
POINT
  5
EABC2557E039A835
100
AcDbEntity
  8
SIMPLE
  6
CONTINUOUS
 62
     0
100
AcDbPoint
 10
17200.0
 20
19300.0
 30
0.0
  0
LINE
  5
EABC2557E039A82F
100
AcDbEntity
  8
SIMPLE
  6
CONTINUOUS
 62
     0
100
AcDbLine
 10
17000.0
 20
19350.0
 30
0.0
 11
17000.0
 21
19250.0
 31
0.0
  0
LINE
  5
EABC2557E039A830
100
AcDbEntity
  8
SIMPLE
  6
CONTINUOUS
 62
     0
100
AcDbLine
 10
17200.0
 20
19250.0
 30
0.0
 11
17200.0
 21
19250.0
 31
0.0
  0
TEXT
  5
EABC2557E039A836
100
AcDbEntity
  8
SIMPLE
  6
CONTINUOUS
 62
     0
100
AcDbText
 10
16757.142857
 20
19250.0
 30
0.0
 40
100.0
  1
200.0000
  7
SIMPLEX
 72
     1
 11
17100.0
 21
19250.0
 31
0.0
100
AcDbText
  0
SOLID
  5
EABC2557E039A831
100
AcDbEntity
  8
SIMPLE
  6
CONTINUOUS
 62
     0
100
AcDbTrace
 10
17020.0
 20
19296.666667
 30
0.0
 11
17020.0
 21
19303.333333
 31
0.0
 12
17000.0
 22
19300.0
 32
0.0
 13
17000.0
 23
19300.0
 33
0.0
  0
SOLID
  5
EABC2557E039A832
100
AcDbEntity
  8
SIMPLE
  6
CONTINUOUS
 62
     0
100
AcDbTrace
 10
17180.0
 20
19303.333333
 30
0.0
 11
17180.0
 21
19296.666667
 31
0.0
 12
17200.0
 22
19300.0
 32
0.0
 13
17200.0
 23
19300.0
 33
0.0
  0
LINE
  5
EABC2557E039A837
100
AcDbEntity
  8
SIMPLE
  6
CONTINUOUS
 62
     0
100
AcDbLine
 10
17020.0
 20
19300.0
 30
0.0
 11
17180.0
 21
19300.0
 31
0.0
  0
ENDBLK
  5
EABC2557E039A83D
100
AcDbEntity
  8
SIMPLE
  6
CONTINUOUS
 62
     5
100
AcDbBlockEnd
  0
BLOCK
  5
EABC2557E039A84C
100
AcDbEntity
  8
SIMPLE
  6
CONTINUOUS
 62
     5
100
AcDbBlockBegin
  2
*D8
 70
     1
 10
0.0
 20
0.0
 30
0.0
  1

  0
POINT
  5
EABC2557E039A845
100
AcDbEntity
  8
SIMPLE
  6
CONTINUOUS
 62
     0
100
AcDbPoint
 10
15099.0
 20
19600.0
 30
0.0
  0
POINT
  5
EABC2557E039A846
100
AcDbEntity
  8
SIMPLE
  6
CONTINUOUS
 62
     0
100
AcDbPoint
 10
23099.0
 20
19600.0
 30
0.0
  0
LINE
  5
EABC2557E039A840
100
AcDbEntity
  8
SIMPLE
  6
CONTINUOUS
 62
     0
100
AcDbLine
 10
15099.0
 20
19650.0
 30
0.0
 11
15099.0
 21
20850.0
 31
0.0
  0
LINE
  5
EABC2557E039A841
100
AcDbEntity
  8
SIMPLE
  6
CONTINUOUS
 62
     0
100
AcDbLine
 10
23099.0
 20
19650.0
 30
0.0
 11
23099.0
 21
20850.0
 31
0.0
  0
TEXT
  5
EABC2557E039A847
100
AcDbEntity
  8
SIMPLE
  6
CONTINUOUS
 62
     0
100
AcDbText
 10
18708.52381
 20
20750.0
 30
0.0
 40
100.0
  1
8000.0000
  7
SIMPLEX
 72
     1
 11
19099.0
 21
20750.0
 31
0.0
100
AcDbText
  0
SOLID
  5
EABC2557E039A842
100
AcDbEntity
  8
SIMPLE
  6
CONTINUOUS
 62
     0
100
AcDbTrace
 10
15119.0
 20
20796.666667
 30
0.0
 11
15119.0
 21
20803.333333
 31
0.0
 12
15099.0
 22
20800.0
 32
0.0
 13
15099.0
 23
20800.0
 33
0.0
  0
SOLID
  5
EABC2557E039A843
100
AcDbEntity
  8
SIMPLE
  6
CONTINUOUS
 62
     0
100
AcDbTrace
 10
23079.0
 20
20803.333333
 30
0.0
 11
23079.0
 21
20796.666667
 31
0.0
 12
23099.0
 22
20800.0
 32
0.0
 13
23099.0
 23
20800.0
 33
0.0
  0
LINE
  5
EABC2557E039A848
100
AcDbEntity
  8
SIMPLE
  6
CONTINUOUS
 62
     0
100
AcDbLine
 10
15119.0
 20
20800.0
 30
0.0
 11
18708.43381
 21
20800.0
 31
0.0
  0
LINE
  5
EABC2557E039A849
100
AcDbEntity
  8
SIMPLE
  6
CONTINUOUS
 62
     0
100
AcDbLine
 10
19489.56619
 20
20800.0
 30
0.0
 11
23079.0
 21
20800.0
 31
0.0
  0
ENDBLK
  5
EABC2557E039A84E
100
AcDbEntity
  8
SIMPLE
  6
CONTINUOUS
 62
     5
100
AcDbBlockEnd
  0
BLOCK
  5
EABC2557E039A85B
100
AcDbEntity
  8
SIMPLE
  6
CONTINUOUS
 62
     5
100
AcDbBlockBegin
  2
*D9
 70
     1
 10
0.0
 20
0.0
 30
0.0
  1

  0
POINT
  5
EABC2557E039A854
100
AcDbEntity
  8
SIMPLE
  6
CONTINUOUS
 62
     0
100
AcDbPoint
 10
15099.0
 20
19600.0
 30
0.0
  0
POINT
  5
EABC2557E039A855
100
AcDbEntity
  8
SIMPLE
  6
CONTINUOUS
 62
     0
100
AcDbPoint
 10
23099.0
 20
19600.0
 30
0.0
  0
LINE
  5
EABC2557E039A84F
100
AcDbEntity
  8
SIMPLE
  6
CONTINUOUS
 62
     0
100
AcDbLine
 10
15099.0
 20
19650.0
 30
0.0
 11
15099.0
 21
20850.0
 31
0.0
  0
LINE
  5
EABC2557E039A850
100
AcDbEntity
  8
SIMPLE
  6
CONTINUOUS
 62
     0
100
AcDbLine
 10
23099.0
 20
19650.0
 30
0.0
 11
23099.0
 21
20850.0
 31
0.0
  0
TEXT
  5
EABC2557E039A856
100
AcDbEntity
  8
SIMPLE
  6
CONTINUOUS
 62
     0
100
AcDbText
 10
18708.52381
 20
20750.0
 30
0.0
 40
100.0
  1
8000.0000
  7
SIMPLEX
 72
     1
 11
19099.0
 21
20750.0
 31
0.0
100
AcDbText
  0
SOLID
  5
EABC2557E039A851
100
AcDbEntity
  8
SIMPLE
  6
CONTINUOUS
 62
     0
100
AcDbTrace
 10
15199.0
 20
20783.333333
 30
0.0
 11
15199.0
 21
20816.666667
 31
0.0
 12
15099.0
 22
20800.0
 32
0.0
 13
15099.0
 23
20800.0
 33
0.0
  0
SOLID
  5
EABC2557E039A852
100
AcDbEntity
  8
SIMPLE
  6
CONTINUOUS
 62
     0
100
AcDbTrace
 10
22999.0
 20
20816.666667
 30
0.0
 11
22999.0
 21
20783.333333
 31
0.0
 12
23099.0
 22
20800.0
 32
0.0
 13
23099.0
 23
20800.0
 33
0.0
  0
LINE
  5
EABC2557E039A857
100
AcDbEntity
  8
SIMPLE
  6
CONTINUOUS
 62
     0
100
AcDbLine
 10
15199.0
 20
20800.0
 30
0.0
 11
18708.43381
 21
20800.0
 31
0.0
  0
LINE
  5
EABC2557E039A858
100
AcDbEntity
  8
SIMPLE
  6
CONTINUOUS
 62
     0
100
AcDbLine
 10
19489.56619
 20
20800.0
 30
0.0
 11
22999.0
 21
20800.0
 31
0.0
  0
ENDBLK
  5
EABC2557E039A85D
100
AcDbEntity
  8
SIMPLE
  6
CONTINUOUS
 62
     5
100
AcDbBlockEnd
  0
BLOCK
  5
EABC2557E039A86A
100
AcDbEntity
  8
SIMPLE
  6
CONTINUOUS
 62
     5
100
AcDbBlockBegin
  2
*D10
 70
     1
 10
0.0
 20
0.0
 30
0.0
  1

  0
POINT
  5
EABC2557E039A863
100
AcDbEntity
  8
SIMPLE
  6
CONTINUOUS
 62
     0
100
AcDbPoint
 10
15099.0
 20
19600.0
 30
0.0
  0
POINT
  5
EABC2557E039A864
100
AcDbEntity
  8
SIMPLE
  6
CONTINUOUS
 62
     0
100
AcDbPoint
 10
23099.0
 20
19600.0
 30
0.0
  0
LINE
  5
EABC2557E039A85E
100
AcDbEntity
  8
SIMPLE
  6
CONTINUOUS
 62
     0
100
AcDbLine
 10
15099.0
 20
19650.0
 30
0.0
 11
15099.0
 21
20850.0
 31
0.0
  0
LINE
  5
EABC2557E039A85F
100
AcDbEntity
  8
SIMPLE
  6
CONTINUOUS
 62
     0
100
AcDbLine
 10
23099.0
 20
19650.0
 30
0.0
 11
23099.0
 21
20850.0
 31
0.0
  0
TEXT
  5
EABC2557E039A865
100
AcDbEntity
  8
SIMPLE
  6
CONTINUOUS
 62
     0
100
AcDbText
 10
18708.52381
 20
20750.0
 30
0.0
 40
100.0
  1
8000.0000
  7
SIMPLEX
 72
     1
 11
19099.0
 21
20750.0
 31
0.0
100
AcDbText
  0
SOLID
  5
EABC2557E039A860
100
AcDbEntity
  8
SIMPLE
  6
CONTINUOUS
 62
     0
100
AcDbTrace
 10
15199.0
 20
20783.333333
 30
0.0
 11
15199.0
 21
20816.666667
 31
0.0
 12
15099.0
 22
20800.0
 32
0.0
 13
15099.0
 23
20800.0
 33
0.0
  0
SOLID
  5
EABC2557E039A861
100
AcDbEntity
  8
SIMPLE
  6
CONTINUOUS
 62
     0
100
AcDbTrace
 10
22999.0
 20
20816.666667
 30
0.0
 11
22999.0
 21
20783.333333
 31
0.0
 12
23099.0
 22
20800.0
 32
0.0
 13
23099.0
 23
20800.0
 33
0.0
  0
LINE
  5
EABC2557E039A866
100
AcDbEntity
  8
SIMPLE
  6
CONTINUOUS
 62
     0
100
AcDbLine
 10
15199.0
 20
20800.0
 30
0.0
 11
18708.43381
 21
20800.0
 31
0.0
  0
LINE
  5
EABC2557E039A867
100
AcDbEntity
  8
SIMPLE
  6
CONTINUOUS
 62
     0
100
AcDbLine
 10
19489.56619
 20
20800.0
 30
0.0
 11
22999.0
 21
20800.0
 31
0.0
  0
ENDBLK
  5
EABC2557E039A86C
100
AcDbEntity
  8
SIMPLE
  6
CONTINUOUS
 62
     5
100
AcDbBlockEnd
  0
BLOCK
  5
EABC2557E039A87A
100
AcDbEntity
  8
SIMPLE
  6
CONTINUOUS
 62
     5
100
AcDbBlockBegin
  2
*D11
 70
     1
 10
0.0
 20
0.0
 30
0.0
  1

  0
POINT
  5
EABC2557E039A873
100
AcDbEntity
  8
SIMPLE
  6
CONTINUOUS
 62
     0
100
AcDbPoint
 10
15100.0
 20
18800.0
 30
0.0
  0
POINT
  5
EABC2557E039A874
100
AcDbEntity
  8
SIMPLE
  6
CONTINUOUS
 62
     0
100
AcDbPoint
 10
16000.0
 20
18000.0
 30
0.0
  0
LINE
  5
EABC2557E039A86E
100
AcDbEntity
  8
SIMPLE
  6
CONTINUOUS
 62
     0
100
AcDbLine
 10
15100.0
 20
18850.0
 30
0.0
 11
15100.0
 21
20250.0
 31
0.0
  0
LINE
  5
EABC2557E039A86F
100
AcDbEntity
  8
SIMPLE
  6
CONTINUOUS
 62
     0
100
AcDbLine
 10
16000.0
 20
18050.0
 30
0.0
 11
16000.0
 21
20250.0
 31
0.0
  0
TEXT
  5
EABC2557E039A875
100
AcDbEntity
  8
SIMPLE
  6
CONTINUOUS
 62
     0
100
AcDbText
 10
15207.142857
 20
20150.0
 30
0.0
 40
100.0
  1
900.0000
  7
SIMPLEX
 72
     1
 11
15550.0
 21
20150.0
 31
0.0
100
AcDbText
  0
SOLID
  5
EABC2557E039A870
100
AcDbEntity
  8
SIMPLE
  6
CONTINUOUS
 62
     0
100
AcDbTrace
 10
15200.0
 20
20183.333333
 30
0.0
 11
15200.0
 21
20216.666667
 31
0.0
 12
15100.0
 22
20200.0
 32
0.0
 13
15100.0
 23
20200.0
 33
0.0
  0
SOLID
  5
EABC2557E039A871
100
AcDbEntity
  8
SIMPLE
  6
CONTINUOUS
 62
     0
100
AcDbTrace
 10
15900.0
 20
20216.666667
 30
0.0
 11
15900.0
 21
20183.333333
 31
0.0
 12
16000.0
 22
20200.0
 32
0.0
 13
16000.0
 23
20200.0
 33
0.0
  0
LINE
  5
EABC2557E039A876
100
AcDbEntity
  8
SIMPLE
  6
CONTINUOUS
 62
     0
100
AcDbLine
 10
15200.0
 20
20200.0
 30
0.0
 11
15207.052857
 21
20200.0
 31
0.0
  0
LINE
  5
EABC2557E039A877
100
AcDbEntity
  8
SIMPLE
  6
CONTINUOUS
 62
     0
100
AcDbLine
 10
15892.947143
 20
20200.0
 30
0.0
 11
15900.0
 21
20200.0
 31
0.0
  0
ENDBLK
  5
EABC2557E039A87C
100
AcDbEntity
  8
SIMPLE
  6
CONTINUOUS
 62
     5
100
AcDbBlockEnd
  0
BLOCK
  5
EABC2557E039A88A
100
AcDbEntity
  8
SIMPLE
  6
CONTINUOUS
 62
     5
100
AcDbBlockBegin
  2
*D12
 70
     1
 10
0.0
 20
0.0
 30
0.0
  1

  0
POINT
  5
EABC2557E039A883
100
AcDbEntity
  8
SIMPLE
  6
CONTINUOUS
 62
     0
100
AcDbPoint
 10
16200.0
 20
15900.0
 30
0.0
  0
POINT
  5
EABC2557E039A884
100
AcDbEntity
  8
SIMPLE
  6
CONTINUOUS
 62
     0
100
AcDbPoint
 10
17600.0
 20
15900.0
 30
0.0
  0
LINE
  5
EABC2557E039A87E
100
AcDbEntity
  8
SIMPLE
  6
CONTINUOUS
 62
     0
100
AcDbLine
 10
16200.0
 20
15950.0
 30
0.0
 11
16200.0
 21
20250.0
 31
0.0
  0
LINE
  5
EABC2557E039A87F
100
AcDbEntity
  8
SIMPLE
  6
CONTINUOUS
 62
     0
100
AcDbLine
 10
17600.0
 20
15950.0
 30
0.0
 11
17600.0
 21
20250.0
 31
0.0
  0
TEXT
  5
EABC2557E039A885
100
AcDbEntity
  8
SIMPLE
  6
CONTINUOUS
 62
     0
100
AcDbText
 10
16519.047619
 20
20150.0
 30
0.0
 40
100.0
  1
1400.0000
  7
SIMPLEX
 72
     1
 11
16900.0
 21
20150.0
 31
0.0
100
AcDbText
  0
SOLID
  5
EABC2557E039A880
100
AcDbEntity
  8
SIMPLE
  6
CONTINUOUS
 62
     0
100
AcDbTrace
 10
16300.0
 20
20183.333333
 30
0.0
 11
16300.0
 21
20216.666667
 31
0.0
 12
16200.0
 22
20200.0
 32
0.0
 13
16200.0
 23
20200.0
 33
0.0
  0
SOLID
  5
EABC2557E039A881
100
AcDbEntity
  8
SIMPLE
  6
CONTINUOUS
 62
     0
100
AcDbTrace
 10
17500.0
 20
20216.666667
 30
0.0
 11
17500.0
 21
20183.333333
 31
0.0
 12
17600.0
 22
20200.0
 32
0.0
 13
17600.0
 23
20200.0
 33
0.0
  0
LINE
  5
EABC2557E039A886
100
AcDbEntity
  8
SIMPLE
  6
CONTINUOUS
 62
     0
100
AcDbLine
 10
16300.0
 20
20200.0
 30
0.0
 11
16518.957619
 21
20200.0
 31
0.0
  0
LINE
  5
EABC2557E039A887
100
AcDbEntity
  8
SIMPLE
  6
CONTINUOUS
 62
     0
100
AcDbLine
 10
17281.042381
 20
20200.0
 30
0.0
 11
17500.0
 21
20200.0
 31
0.0
  0
ENDBLK
  5
EABC2557E039A88C
100
AcDbEntity
  8
SIMPLE
  6
CONTINUOUS
 62
     5
100
AcDbBlockEnd
  0
BLOCK
  5
EABC2557E039A8B4
100
AcDbEntity
  8
SIMPLE
  6
CONTINUOUS
 62
     5
100
AcDbBlockBegin
  2
*D13
 70
     1
 10
0.0
 20
0.0
 30
0.0
  1

  0
POINT
  5
EABC2557E039A8AD
100
AcDbEntity
  8
SIMPLE
  6
CONTINUOUS
 62
     0
100
AcDbPoint
 10
16200.0
 20
15900.0
 30
0.0
  0
POINT
  5
EABC2557E039A8AE
100
AcDbEntity
  8
SIMPLE
  6
CONTINUOUS
 62
     0
100
AcDbPoint
 10
17400.0
 20
15900.0
 30
0.0
  0
LINE
  5
EABC2557E039A8A8
100
AcDbEntity
  8
SIMPLE
  6
CONTINUOUS
 62
     0
100
AcDbLine
 10
16200.0
 20
15950.0
 30
0.0
 11
16200.0
 21
20250.0
 31
0.0
  0
LINE
  5
EABC2557E039A8A9
100
AcDbEntity
  8
SIMPLE
  6
CONTINUOUS
 62
     0
100
AcDbLine
 10
17400.0
 20
15950.0
 30
0.0
 11
17400.0
 21
20250.0
 31
0.0
  0
TEXT
  5
EABC2557E039A8AF
100
AcDbEntity
  8
SIMPLE
  6
CONTINUOUS
 62
     0
100
AcDbText
 10
16419.047619
 20
20150.0
 30
0.0
 40
100.0
  1
1200.0000
  7
SIMPLEX
 72
     1
 11
16800.0
 21
20150.0
 31
0.0
100
AcDbText
  0
SOLID
  5
EABC2557E039A8AA
100
AcDbEntity
  8
SIMPLE
  6
CONTINUOUS
 62
     0
100
AcDbTrace
 10
16300.0
 20
20183.333333
 30
0.0
 11
16300.0
 21
20216.666667
 31
0.0
 12
16200.0
 22
20200.0
 32
0.0
 13
16200.0
 23
20200.0
 33
0.0
  0
SOLID
  5
EABC2557E039A8AB
100
AcDbEntity
  8
SIMPLE
  6
CONTINUOUS
 62
     0
100
AcDbTrace
 10
17300.0
 20
20216.666667
 30
0.0
 11
17300.0
 21
20183.333333
 31
0.0
 12
17400.0
 22
20200.0
 32
0.0
 13
17400.0
 23
20200.0
 33
0.0
  0
LINE
  5
EABC2557E039A8B0
100
AcDbEntity
  8
SIMPLE
  6
CONTINUOUS
 62
     0
100
AcDbLine
 10
16300.0
 20
20200.0
 30
0.0
 11
16418.957619
 21
20200.0
 31
0.0
  0
LINE
  5
EABC2557E039A8B1
100
AcDbEntity
  8
SIMPLE
  6
CONTINUOUS
 62
     0
100
AcDbLine
 10
17181.042381
 20
20200.0
 30
0.0
 11
17300.0
 21
20200.0
 31
0.0
  0
ENDBLK
  5
EABC2557E039A8B6
100
AcDbEntity
  8
SIMPLE
  6
CONTINUOUS
 62
     5
100
AcDbBlockEnd
  0
BLOCK
  5
EABC2557E039A8C4
100
AcDbEntity
  8
SIMPLE
  6
CONTINUOUS
 62
     5
100
AcDbBlockBegin
  2
*D14
 70
     1
 10
0.0
 20
0.0
 30
0.0
  1

  0
POINT
  5
EABC2557E039A8BD
100
AcDbEntity
  8
SIMPLE
  6
CONTINUOUS
 62
     0
100
AcDbPoint
 10
17600.0
 20
14000.0
 30
0.0
  0
POINT
  5
EABC2557E039A8BE
100
AcDbEntity
  8
SIMPLE
  6
CONTINUOUS
 62
     0
100
AcDbPoint
 10
17600.0
 20
20200.0
 30
0.0
  0
LINE
  5
EABC2557E039A8B8
100
AcDbEntity
  8
SIMPLE
  6
CONTINUOUS
 62
     0
100
AcDbLine
 10
17600.0
 20
14050.0
 30
0.0
 11
17600.0
 21
20250.0
 31
0.0
  0
LINE
  5
EABC2557E039A8B9
100
AcDbEntity
  8
SIMPLE
  6
CONTINUOUS
 62
     0
100
AcDbLine
 10
17600.0
 20
20150.0
 30
0.0
 11
17600.0
 21
20150.0
 31
0.0
  0
TEXT
  5
EABC2557E039A8BF
100
AcDbEntity
  8
SIMPLE
  6
CONTINUOUS
 62
     0
100
AcDbText
 10
17600.18
 20
20150.0
 30
0.0
 40
100.0
  1
3.7963E-013
  7
SIMPLEX
 72
     1
 11
18088.275238
 21
20150.0
 31
0.0
100
AcDbText
  0
SOLID
  5
EABC2557E039A8BA
100
AcDbEntity
  8
SIMPLE
  6
CONTINUOUS
 62
     0
100
AcDbTrace
 10
17700.0
 20
20183.333333
 30
0.0
 11
17700.0
 21
20216.666667
 31
0.0
 12
17600.0
 22
20200.0
 32
0.0
 13
17600.0
 23
20200.0
 33
0.0
  0
SOLID
  5
EABC2557E039A8BB
100
AcDbEntity
  8
SIMPLE
  6
CONTINUOUS
 62
     0
100
AcDbTrace
 10
17500.0
 20
20216.666667
 30
0.0
 11
17500.0
 21
20183.333333
 31
0.0
 12
17600.0
 22
20200.0
 32
0.0
 13
17600.0
 23
20200.0
 33
0.0
  0
LINE
  5
EABC2557E039A8C0
100
AcDbEntity
  8
SIMPLE
  6
CONTINUOUS
 62
     0
100
AcDbLine
 10
17600.0
 20
20200.0
 30
0.0
 11
17600.0
 21
20200.0
 31
0.0
  0
LINE
  5
EABC2557E039A8C1
100
AcDbEntity
  8
SIMPLE
  6
CONTINUOUS
 62
     0
100
AcDbLine
 10
17600.0
 20
20200.0
 30
0.0
 11
17600.0
 21
20200.0
 31
0.0
  0
ENDBLK
  5
EABC2557E039A8C6
100
AcDbEntity
  8
SIMPLE
  6
CONTINUOUS
 62
     5
100
AcDbBlockEnd
  0
BLOCK
  5
EABC2557E039A8D4
100
AcDbEntity
  8
SIMPLE
  6
CONTINUOUS
 62
     5
100
AcDbBlockBegin
  2
*D15
 70
     1
 10
0.0
 20
0.0
 30
0.0
  1

  0
POINT
  5
EABC2557E039A8CD
100
AcDbEntity
  8
SIMPLE
  6
CONTINUOUS
 62
     0
100
AcDbPoint
 10
17600.0
 20
14500.0
 30
0.0
  0
POINT
  5
EABC2557E039A8CE
100
AcDbEntity
  8
SIMPLE
  6
CONTINUOUS
 62
     0
100
AcDbPoint
 10
18000.0
 20
20200.0
 30
0.0
  0
LINE
  5
EABC2557E039A8C8
100
AcDbEntity
  8
SIMPLE
  6
CONTINUOUS
 62
     0
100
AcDbLine
 10
17600.0
 20
14550.0
 30
0.0
 11
17600.0
 21
20250.0
 31
0.0
  0
LINE
  5
EABC2557E039A8C9
100
AcDbEntity
  8
SIMPLE
  6
CONTINUOUS
 62
     0
100
AcDbLine
 10
18000.0
 20
20150.0
 30
0.0
 11
18000.0
 21
20150.0
 31
0.0
  0
TEXT
  5
EABC2557E039A8CF
100
AcDbEntity
  8
SIMPLE
  6
CONTINUOUS
 62
     0
100
AcDbText
 10
18200.18
 20
20150.0
 30
0.0
 40
100.0
  1
400.0000
  7
SIMPLEX
 72
     1
 11
18543.037143
 21
20150.0
 31
0.0
100
AcDbText
  0
SOLID
  5
EABC2557E039A8CA
100
AcDbEntity
  8
SIMPLE
  6
CONTINUOUS
 62
     0
100
AcDbTrace
 10
17500.0
 20
20216.666667
 30
0.0
 11
17500.0
 21
20183.333333
 31
0.0
 12
17600.0
 22
20200.0
 32
0.0
 13
17600.0
 23
20200.0
 33
0.0
  0
SOLID
  5
EABC2557E039A8CB
100
AcDbEntity
  8
SIMPLE
  6
CONTINUOUS
 62
     0
100
AcDbTrace
 10
18100.0
 20
20183.333333
 30
0.0
 11
18100.0
 21
20216.666667
 31
0.0
 12
18000.0
 22
20200.0
 32
0.0
 13
18000.0
 23
20200.0
 33
0.0
  0
LINE
  5
EABC2557E039A8D0
100
AcDbEntity
  8
SIMPLE
  6
CONTINUOUS
 62
     0
100
AcDbLine
 10
17500.0
 20
20200.0
 30
0.0
 11
17400.0
 21
20200.0
 31
0.0
  0
LINE
  5
EABC2557E039A8D1
100
AcDbEntity
  8
SIMPLE
  6
CONTINUOUS
 62
     0
100
AcDbLine
 10
18100.0
 20
20200.0
 30
0.0
 11
18200.0
 21
20200.0
 31
0.0
  0
ENDBLK
  5
EABC2557E039A8D6
100
AcDbEntity
  8
SIMPLE
  6
CONTINUOUS
 62
     5
100
AcDbBlockEnd
  0
BLOCK
  5
EABC2557E039A8E4
100
AcDbEntity
  8
SIMPLE
  6
CONTINUOUS
 62
     5
100
AcDbBlockBegin
  2
*D16
 70
     1
 10
0.0
 20
0.0
 30
0.0
  1

  0
POINT
  5
EABC2557E039A8DD
100
AcDbEntity
  8
SIMPLE
  6
CONTINUOUS
 62
     0
100
AcDbPoint
 10
17600.0
 20
14000.0
 30
0.0
  0
POINT
  5
EABC2557E039A8DE
100
AcDbEntity
  8
SIMPLE
  6
CONTINUOUS
 62
     0
100
AcDbPoint
 10
18000.0
 20
14000.0
 30
0.0
  0
LINE
  5
EABC2557E039A8D8
100
AcDbEntity
  8
SIMPLE
  6
CONTINUOUS
 62
     0
100
AcDbLine
 10
17600.0
 20
14050.0
 30
0.0
 11
17600.0
 21
20250.0
 31
0.0
  0
LINE
  5
EABC2557E039A8D9
100
AcDbEntity
  8
SIMPLE
  6
CONTINUOUS
 62
     0
100
AcDbLine
 10
18000.0
 20
14050.0
 30
0.0
 11
18000.0
 21
20250.0
 31
0.0
  0
TEXT
  5
EABC2557E039A8DF
100
AcDbEntity
  8
SIMPLE
  6
CONTINUOUS
 62
     0
100
AcDbText
 10
18200.18
 20
20150.0
 30
0.0
 40
100.0
  1
400.0000
  7
SIMPLEX
 72
     1
 11
18543.037143
 21
20150.0
 31
0.0
100
AcDbText
  0
SOLID
  5
EABC2557E039A8DA
100
AcDbEntity
  8
SIMPLE
  6
CONTINUOUS
 62
     0
100
AcDbTrace
 10
17500.0
 20
20216.666667
 30
0.0
 11
17500.0
 21
20183.333333
 31
0.0
 12
17600.0
 22
20200.0
 32
0.0
 13
17600.0
 23
20200.0
 33
0.0
  0
SOLID
  5
EABC2557E039A8DB
100
AcDbEntity
  8
SIMPLE
  6
CONTINUOUS
 62
     0
100
AcDbTrace
 10
18100.0
 20
20183.333333
 30
0.0
 11
18100.0
 21
20216.666667
 31
0.0
 12
18000.0
 22
20200.0
 32
0.0
 13
18000.0
 23
20200.0
 33
0.0
  0
LINE
  5
EABC2557E039A8E0
100
AcDbEntity
  8
SIMPLE
  6
CONTINUOUS
 62
     0
100
AcDbLine
 10
17500.0
 20
20200.0
 30
0.0
 11
17400.0
 21
20200.0
 31
0.0
  0
LINE
  5
EABC2557E039A8E1
100
AcDbEntity
  8
SIMPLE
  6
CONTINUOUS
 62
     0
100
AcDbLine
 10
18100.0
 20
20200.0
 30
0.0
 11
18200.0
 21
20200.0
 31
0.0
  0
ENDBLK
  5
EABC2557E039A8E6
100
AcDbEntity
  8
SIMPLE
  6
CONTINUOUS
 62
     5
100
AcDbBlockEnd
  0
BLOCK
  5
EABC2557E039A8F4
100
AcDbEntity
  8
SIMPLE
  6
CONTINUOUS
 62
     5
100
AcDbBlockBegin
  2
*D17
 70
     1
 10
0.0
 20
0.0
 30
0.0
  1

  0
POINT
  5
EABC2557E039A8ED
100
AcDbEntity
  8
SIMPLE
  6
CONTINUOUS
 62
     0
100
AcDbPoint
 10
21800.0
 20
15900.0
 30
0.0
  0
POINT
  5
EABC2557E039A8EE
100
AcDbEntity
  8
SIMPLE
  6
CONTINUOUS
 62
     0
100
AcDbPoint
 10
21100.0
 20
20200.0
 30
0.0
  0
LINE
  5
EABC2557E039A8E8
100
AcDbEntity
  8
SIMPLE
  6
CONTINUOUS
 62
     0
100
AcDbLine
 10
21800.0
 20
15950.0
 30
0.0
 11
21800.0
 21
20250.0
 31
0.0
  0
LINE
  5
EABC2557E039A8E9
100
AcDbEntity
  8
SIMPLE
  6
CONTINUOUS
 62
     0
100
AcDbLine
 10
21100.0
 20
20150.0
 30
0.0
 11
21100.0
 21
20150.0
 31
0.0
  0
TEXT
  5
EABC2557E039A8EF
100
AcDbEntity
  8
SIMPLE
  6
CONTINUOUS
 62
     0
100
AcDbText
 10
20214.105714
 20
20150.0
 30
0.0
 40
100.0
  1
700.0000
  7
SIMPLEX
 72
     1
 11
20556.962857
 21
20150.0
 31
0.0
100
AcDbText
  0
SOLID
  5
EABC2557E039A8EA
100
AcDbEntity
  8
SIMPLE
  6
CONTINUOUS
 62
     0
100
AcDbTrace
 10
21900.0
 20
20183.333333
 30
0.0
 11
21900.0
 21
20216.666667
 31
0.0
 12
21800.0
 22
20200.0
 32
0.0
 13
21800.0
 23
20200.0
 33
0.0
  0
SOLID
  5
EABC2557E039A8EB
100
AcDbEntity
  8
SIMPLE
  6
CONTINUOUS
 62
     0
100
AcDbTrace
 10
21000.0
 20
20216.666667
 30
0.0
 11
21000.0
 21
20183.333333
 31
0.0
 12
21100.0
 22
20200.0
 32
0.0
 13
21100.0
 23
20200.0
 33
0.0
  0
LINE
  5
EABC2557E039A8F0
100
AcDbEntity
  8
SIMPLE
  6
CONTINUOUS
 62
     0
100
AcDbLine
 10
21900.0
 20
20200.0
 30
0.0
 11
22000.0
 21
20200.0
 31
0.0
  0
LINE
  5
EABC2557E039A8F1
100
AcDbEntity
  8
SIMPLE
  6
CONTINUOUS
 62
     0
100
AcDbLine
 10
21000.0
 20
20200.0
 30
0.0
 11
20900.0
 21
20200.0
 31
0.0
  0
ENDBLK
  5
EABC2557E039A8F6
100
AcDbEntity
  8
SIMPLE
  6
CONTINUOUS
 62
     5
100
AcDbBlockEnd
  0
BLOCK
  5
EABC2557E039A905
100
AcDbEntity
  8
SIMPLE
  6
CONTINUOUS
 62
     5
100
AcDbBlockBegin
  2
*D18
 70
     1
 10
0.0
 20
0.0
 30
0.0
  1

  0
POINT
  5
EABC2557E039A8FE
100
AcDbEntity
  8
SIMPLE
  6
CONTINUOUS
 62
     0
100
AcDbPoint
 10
21800.0
 20
15900.0
 30
0.0
  0
POINT
  5
EABC2557E039A8FF
100
AcDbEntity
  8
SIMPLE
  6
CONTINUOUS
 62
     0
100
AcDbPoint
 10
21000.0
 20
15900.0
 30
0.0
  0
LINE
  5
EABC2557E039A8F9
100
AcDbEntity
  8
SIMPLE
  6
CONTINUOUS
 62
     0
100
AcDbLine
 10
21800.0
 20
15950.0
 30
0.0
 11
21800.0
 21
20250.0
 31
0.0
  0
LINE
  5
EABC2557E039A8FA
100
AcDbEntity
  8
SIMPLE
  6
CONTINUOUS
 62
     0
100
AcDbLine
 10
21000.0
 20
15950.0
 30
0.0
 11
21000.0
 21
20250.0
 31
0.0
  0
TEXT
  5
EABC2557E039A900
100
AcDbEntity
  8
SIMPLE
  6
CONTINUOUS
 62
     0
100
AcDbText
 10
21057.142857
 20
20150.0
 30
0.0
 40
100.0
  1
800.0000
  7
SIMPLEX
 72
     1
 11
21400.0
 21
20150.0
 31
0.0
100
AcDbText
  0
SOLID
  5
EABC2557E039A8FB
100
AcDbEntity
  8
SIMPLE
  6
CONTINUOUS
 62
     0
100
AcDbTrace
 10
21700.0
 20
20216.666667
 30
0.0
 11
21700.0
 21
20183.333333
 31
0.0
 12
21800.0
 22
20200.0
 32
0.0
 13
21800.0
 23
20200.0
 33
0.0
  0
SOLID
  5
EABC2557E039A8FC
100
AcDbEntity
  8
SIMPLE
  6
CONTINUOUS
 62
     0
100
AcDbTrace
 10
21100.0
 20
20183.333333
 30
0.0
 11
21100.0
 21
20216.666667
 31
0.0
 12
21000.0
 22
20200.0
 32
0.0
 13
21000.0
 23
20200.0
 33
0.0
  0
LINE
  5
EABC2557E039A901
100
AcDbEntity
  8
SIMPLE
  6
CONTINUOUS
 62
     0
100
AcDbLine
 10
21700.0
 20
20200.0
 30
0.0
 11
21100.0
 21
20200.0
 31
0.0
  0
ENDBLK
  5
EABC2557E039A907
100
AcDbEntity
  8
SIMPLE
  6
CONTINUOUS
 62
     5
100
AcDbBlockEnd
  0
BLOCK
  5
EABC2557E039A915
100
AcDbEntity
  8
SIMPLE
  6
CONTINUOUS
 62
     5
100
AcDbBlockBegin
  2
*D19
 70
     1
 10
0.0
 20
0.0
 30
0.0
  1

  0
POINT
  5
EABC2557E039A90E
100
AcDbEntity
  8
SIMPLE
  6
CONTINUOUS
 62
     0
100
AcDbPoint
 10
15900.0
 20
15500.0
 30
0.0
  0
POINT
  5
EABC2557E039A90F
100
AcDbEntity
  8
SIMPLE
  6
CONTINUOUS
 62
     0
100
AcDbPoint
 10
14200.0
 20
15500.0
 30
0.0
  0
LINE
  5
EABC2557E039A909
100
AcDbEntity
  8
SIMPLE
  6
CONTINUOUS
 62
     0
100
AcDbLine
 10
15900.0
 20
15550.0
 30
0.0
 11
15900.0
 21
22550.0
 31
0.0
  0
LINE
  5
EABC2557E039A90A
100
AcDbEntity
  8
SIMPLE
  6
CONTINUOUS
 62
     0
100
AcDbLine
 10
14200.0
 20
15550.0
 30
0.0
 11
14200.0
 21
22550.0
 31
0.0
  0
TEXT
  5
EABC2557E039A910
100
AcDbEntity
  8
SIMPLE
  6
CONTINUOUS
 62
     0
100
AcDbText
 10
14669.047619
 20
22450.0
 30
0.0
 40
100.0
  1
1700.0000
  7
SIMPLEX
 72
     1
 11
15050.0
 21
22450.0
 31
0.0
100
AcDbText
  0
SOLID
  5
EABC2557E039A90B
100
AcDbEntity
  8
SIMPLE
  6
CONTINUOUS
 62
     0
100
AcDbTrace
 10
15800.0
 20
22516.666667
 30
0.0
 11
15800.0
 21
22483.333333
 31
0.0
 12
15900.0
 22
22500.0
 32
0.0
 13
15900.0
 23
22500.0
 33
0.0
  0
SOLID
  5
EABC2557E039A90C
100
AcDbEntity
  8
SIMPLE
  6
CONTINUOUS
 62
     0
100
AcDbTrace
 10
14300.0
 20
22483.333333
 30
0.0
 11
14300.0
 21
22516.666667
 31
0.0
 12
14200.0
 22
22500.0
 32
0.0
 13
14200.0
 23
22500.0
 33
0.0
  0
LINE
  5
EABC2557E039A911
100
AcDbEntity
  8
SIMPLE
  6
CONTINUOUS
 62
     0
100
AcDbLine
 10
15800.0
 20
22500.0
 30
0.0
 11
15431.042381
 21
22500.0
 31
0.0
  0
LINE
  5
EABC2557E039A912
100
AcDbEntity
  8
SIMPLE
  6
CONTINUOUS
 62
     0
100
AcDbLine
 10
14668.957619
 20
22500.0
 30
0.0
 11
14300.0
 21
22500.0
 31
0.0
  0
ENDBLK
  5
EABC2557E039A917
100
AcDbEntity
  8
SIMPLE
  6
CONTINUOUS
 62
     5
100
AcDbBlockEnd
  0
BLOCK
  5
EABC2557E039A925
100
AcDbEntity
  8
SIMPLE
  6
CONTINUOUS
 62
     5
100
AcDbBlockBegin
  2
*D20
 70
     1
 10
0.0
 20
0.0
 30
0.0
  1

  0
POINT
  5
EABC2557E039A91E
100
AcDbEntity
  8
SIMPLE
  6
CONTINUOUS
 62
     0
100
AcDbPoint
 10
16000.0
 20
18000.0
 30
0.0
  0
POINT
  5
EABC2557E039A91F
100
AcDbEntity
  8
SIMPLE
  6
CONTINUOUS
 62
     0
100
AcDbPoint
 10
14200.0
 20
18100.0
 30
0.0
  0
LINE
  5
EABC2557E039A919
100
AcDbEntity
  8
SIMPLE
  6
CONTINUOUS
 62
     0
100
AcDbLine
 10
16000.0
 20
18050.0
 30
0.0
 11
16000.0
 21
19550.0
 31
0.0
  0
LINE
  5
EABC2557E039A91A
100
AcDbEntity
  8
SIMPLE
  6
CONTINUOUS
 62
     0
100
AcDbLine
 10
14200.0
 20
18150.0
 30
0.0
 11
14200.0
 21
19550.0
 31
0.0
  0
TEXT
  5
EABC2557E039A920
100
AcDbEntity
  8
SIMPLE
  6
CONTINUOUS
 62
     0
100
AcDbText
 10
14719.047619
 20
19450.0
 30
0.0
 40
100.0
  1
1800.0000
  7
SIMPLEX
 72
     1
 11
15100.0
 21
19450.0
 31
0.0
100
AcDbText
  0
SOLID
  5
EABC2557E039A91B
100
AcDbEntity
  8
SIMPLE
  6
CONTINUOUS
 62
     0
100
AcDbTrace
 10
15900.0
 20
19516.666667
 30
0.0
 11
15900.0
 21
19483.333333
 31
0.0
 12
16000.0
 22
19500.0
 32
0.0
 13
16000.0
 23
19500.0
 33
0.0
  0
SOLID
  5
EABC2557E039A91C
100
AcDbEntity
  8
SIMPLE
  6
CONTINUOUS
 62
     0
100
AcDbTrace
 10
14300.0
 20
19483.333333
 30
0.0
 11
14300.0
 21
19516.666667
 31
0.0
 12
14200.0
 22
19500.0
 32
0.0
 13
14200.0
 23
19500.0
 33
0.0
  0
LINE
  5
EABC2557E039A921
100
AcDbEntity
  8
SIMPLE
  6
CONTINUOUS
 62
     0
100
AcDbLine
 10
15900.0
 20
19500.0
 30
0.0
 11
15481.042381
 21
19500.0
 31
0.0
  0
LINE
  5
EABC2557E039A922
100
AcDbEntity
  8
SIMPLE
  6
CONTINUOUS
 62
     0
100
AcDbLine
 10
14718.957619
 20
19500.0
 30
0.0
 11
14300.0
 21
19500.0
 31
0.0
  0
ENDBLK
  5
EABC2557E039A927
100
AcDbEntity
  8
SIMPLE
  6
CONTINUOUS
 62
     5
100
AcDbBlockEnd
  0
BLOCK
  5
EABC2557E039A935
100
AcDbEntity
  8
SIMPLE
  6
CONTINUOUS
 62
     5
100
AcDbBlockBegin
  2
*D21
 70
     1
 10
0.0
 20
0.0
 30
0.0
  1

  0
POINT
  5
EABC2557E039A92E
100
AcDbEntity
  8
SIMPLE
  6
CONTINUOUS
 62
     0
100
AcDbPoint
 10
18900.0
 20
14500.0
 30
0.0
  0
POINT
  5
EABC2557E039A92F
100
AcDbEntity
  8
SIMPLE
  6
CONTINUOUS
 62
     0
100
AcDbPoint
 10
20700.0
 20
14500.0
 30
0.0
  0
LINE
  5
EABC2557E039A929
100
AcDbEntity
  8
SIMPLE
  6
CONTINUOUS
 62
     0
100
AcDbLine
 10
18900.0
 20
14550.0
 30
0.0
 11
18900.0
 21
15350.0
 31
0.0
  0
LINE
  5
EABC2557E039A92A
100
AcDbEntity
  8
SIMPLE
  6
CONTINUOUS
 62
     0
100
AcDbLine
 10
20700.0
 20
14550.0
 30
0.0
 11
20700.0
 21
15350.0
 31
0.0
  0
TEXT
  5
EABC2557E039A930
100
AcDbEntity
  8
SIMPLE
  6
CONTINUOUS
 62
     0
100
AcDbText
 10
19419.047619
 20
15250.0
 30
0.0
 40
100.0
  1
1800.0000
  7
SIMPLEX
 72
     1
 11
19800.0
 21
15250.0
 31
0.0
100
AcDbText
  0
SOLID
  5
EABC2557E039A92B
100
AcDbEntity
  8
SIMPLE
  6
CONTINUOUS
 62
     0
100
AcDbTrace
 10
19000.0
 20
15283.333333
 30
0.0
 11
19000.0
 21
15316.666667
 31
0.0
 12
18900.0
 22
15300.0
 32
0.0
 13
18900.0
 23
15300.0
 33
0.0
  0
SOLID
  5
EABC2557E039A92C
100
AcDbEntity
  8
SIMPLE
  6
CONTINUOUS
 62
     0
100
AcDbTrace
 10
20600.0
 20
15316.666667
 30
0.0
 11
20600.0
 21
15283.333333
 31
0.0
 12
20700.0
 22
15300.0
 32
0.0
 13
20700.0
 23
15300.0
 33
0.0
  0
LINE
  5
EABC2557E039A931
100
AcDbEntity
  8
SIMPLE
  6
CONTINUOUS
 62
     0
100
AcDbLine
 10
19000.0
 20
15300.0
 30
0.0
 11
19418.957619
 21
15300.0
 31
0.0
  0
LINE
  5
EABC2557E039A932
100
AcDbEntity
  8
SIMPLE
  6
CONTINUOUS
 62
     0
100
AcDbLine
 10
20181.042381
 20
15300.0
 30
0.0
 11
20600.0
 21
15300.0
 31
0.0
  0
ENDBLK
  5
EABC2557E039A937
100
AcDbEntity
  8
SIMPLE
  6
CONTINUOUS
 62
     5
100
AcDbBlockEnd
  0
BLOCK
  5
EABC2557E039A945
100
AcDbEntity
  8
SIMPLE
  6
CONTINUOUS
 62
     5
100
AcDbBlockBegin
  2
*D22
 70
     1
 10
0.0
 20
0.0
 30
0.0
  1

  0
POINT
  5
EABC2557E039A93E
100
AcDbEntity
  8
SIMPLE
  6
CONTINUOUS
 62
     0
100
AcDbPoint
 10
20700.0
 20
13700.0
 30
0.0
  0
POINT
  5
EABC2557E039A93F
100
AcDbEntity
  8
SIMPLE
  6
CONTINUOUS
 62
     0
100
AcDbPoint
 10
20700.0
 20
14500.0
 30
0.0
  0
LINE
  5
EABC2557E039A939
100
AcDbEntity
  8
SIMPLE
  6
CONTINUOUS
 62
     0
100
AcDbLine
 10
20650.0
 20
13700.0
 30
0.0
 11
20150.0
 21
13700.0
 31
0.0
  0
LINE
  5
EABC2557E039A93A
100
AcDbEntity
  8
SIMPLE
  6
CONTINUOUS
 62
     0
100
AcDbLine
 10
20650.0
 20
14500.0
 30
0.0
 11
20150.0
 21
14500.0
 31
0.0
  0
TEXT
  5
EABC2557E039A940
100
AcDbEntity
  8
SIMPLE
  6
CONTINUOUS
 62
     0
100
AcDbText
 10
19857.142857
 20
14050.0
 30
0.0
 40
100.0
  1
800.0000
  7
SIMPLEX
 72
     1
 11
20200.0
 21
14050.0
 31
0.0
100
AcDbText
  0
SOLID
  5
EABC2557E039A93B
100
AcDbEntity
  8
SIMPLE
  6
CONTINUOUS
 62
     0
100
AcDbTrace
 10
20216.666667
 20
13800.0
 30
0.0
 11
20183.333333
 21
13800.0
 31
0.0
 12
20200.0
 22
13700.0
 32
0.0
 13
20200.0
 23
13700.0
 33
0.0
  0
SOLID
  5
EABC2557E039A93C
100
AcDbEntity
  8
SIMPLE
  6
CONTINUOUS
 62
     0
100
AcDbTrace
 10
20183.333333
 20
14400.0
 30
0.0
 11
20216.666667
 21
14400.0
 31
0.0
 12
20200.0
 22
14500.0
 32
0.0
 13
20200.0
 23
14500.0
 33
0.0
  0
LINE
  5
EABC2557E039A941
100
AcDbEntity
  8
SIMPLE
  6
CONTINUOUS
 62
     0
100
AcDbLine
 10
20200.0
 20
13800.0
 30
0.0
 11
20200.0
 21
14016.576667
 31
0.0
  0
LINE
  5
EABC2557E039A942
100
AcDbEntity
  8
SIMPLE
  6
CONTINUOUS
 62
     0
100
AcDbLine
 10
20200.0
 20
14150.09
 30
0.0
 11
20200.0
 21
14400.0
 31
0.0
  0
ENDBLK
  5
EABC2557E039A947
100
AcDbEntity
  8
SIMPLE
  6
CONTINUOUS
 62
     5
100
AcDbBlockEnd
  0
BLOCK
  5
EABC2557E039A955
100
AcDbEntity
  8
SIMPLE
  6
CONTINUOUS
 62
     5
100
AcDbBlockBegin
  2
*D23
 70
     1
 10
0.0
 20
0.0
 30
0.0
  1

  0
POINT
  5
EABC2557E039A94E
100
AcDbEntity
  8
SIMPLE
  6
CONTINUOUS
 62
     0
100
AcDbPoint
 10
18600.0
 20
14000.0
 30
0.0
  0
POINT
  5
EABC2557E039A94F
100
AcDbEntity
  8
SIMPLE
  6
CONTINUOUS
 62
     0
100
AcDbPoint
 10
18200.0
 20
14000.0
 30
0.0
  0
LINE
  5
EABC2557E039A949
100
AcDbEntity
  8
SIMPLE
  6
CONTINUOUS
 62
     0
100
AcDbLine
 10
18600.0
 20
13950.0
 30
0.0
 11
18600.0
 21
13550.0
 31
0.0
  0
LINE
  5
EABC2557E039A94A
100
AcDbEntity
  8
SIMPLE
  6
CONTINUOUS
 62
     0
100
AcDbLine
 10
18200.0
 20
13950.0
 30
0.0
 11
18200.0
 21
13550.0
 31
0.0
  0
TEXT
  5
EABC2557E039A950
100
AcDbEntity
  8
SIMPLE
  6
CONTINUOUS
 62
     0
100
AcDbText
 10
17314.105714
 20
13550.0
 30
0.0
 40
100.0
  1
400.0000
  7
SIMPLEX
 72
     1
 11
17656.962857
 21
13550.0
 31
0.0
100
AcDbText
  0
SOLID
  5
EABC2557E039A94B
100
AcDbEntity
  8
SIMPLE
  6
CONTINUOUS
 62
     0
100
AcDbTrace
 10
18700.0
 20
13583.333333
 30
0.0
 11
18700.0
 21
13616.666667
 31
0.0
 12
18600.0
 22
13600.0
 32
0.0
 13
18600.0
 23
13600.0
 33
0.0
  0
SOLID
  5
EABC2557E039A94C
100
AcDbEntity
  8
SIMPLE
  6
CONTINUOUS
 62
     0
100
AcDbTrace
 10
18100.0
 20
13616.666667
 30
0.0
 11
18100.0
 21
13583.333333
 31
0.0
 12
18200.0
 22
13600.0
 32
0.0
 13
18200.0
 23
13600.0
 33
0.0
  0
LINE
  5
EABC2557E039A951
100
AcDbEntity
  8
SIMPLE
  6
CONTINUOUS
 62
     0
100
AcDbLine
 10
18700.0
 20
13600.0
 30
0.0
 11
18800.0
 21
13600.0
 31
0.0
  0
LINE
  5
EABC2557E039A952
100
AcDbEntity
  8
SIMPLE
  6
CONTINUOUS
 62
     0
100
AcDbLine
 10
18100.0
 20
13600.0
 30
0.0
 11
18000.0
 21
13600.0
 31
0.0
  0
ENDBLK
  5
EABC2557E039A957
100
AcDbEntity
  8
SIMPLE
  6
CONTINUOUS
 62
     5
100
AcDbBlockEnd
  0
BLOCK
  5
EABC2557E039A973
100
AcDbEntity
  8
SIMPLE
  6
CONTINUOUS
 62
     5
100
AcDbBlockBegin
  2
*D24
 70
     1
 10
0.0
 20
0.0
 30
0.0
  1

  0
POINT
  5
EABC2557E039A96C
100
AcDbEntity
  8
SIMPLE
  6
CONTINUOUS
 62
     0
100
AcDbPoint
 10
22000.0
 20
18000.0
 30
0.0
  0
POINT
  5
EABC2557E039A96D
100
AcDbEntity
  8
SIMPLE
  6
CONTINUOUS
 62
     0
100
AcDbPoint
 10
21900.0
 20
16200.0
 30
0.0
  0
LINE
  5
EABC2557E039A967
100
AcDbEntity
  8
SIMPLE
  6
CONTINUOUS
 62
     0
100
AcDbLine
 10
22050.0
 20
18000.0
 30
0.0
 11
25750.0
 21
18000.0
 31
0.0
  0
LINE
  5
EABC2557E039A968
100
AcDbEntity
  8
SIMPLE
  6
CONTINUOUS
 62
     0
100
AcDbLine
 10
21950.0
 20
16200.0
 30
0.0
 11
25750.0
 21
16200.0
 31
0.0
  0
TEXT
  5
EABC2557E039A96E
100
AcDbEntity
  8
SIMPLE
  6
CONTINUOUS
 62
     0
100
AcDbText
 10
25319.047619
 20
17050.0
 30
0.0
 40
100.0
  1
1800.0000
  7
SIMPLEX
 72
     1
 11
25700.0
 21
17050.0
 31
0.0
100
AcDbText
  0
SOLID
  5
EABC2557E039A969
100
AcDbEntity
  8
SIMPLE
  6
CONTINUOUS
 62
     0
100
AcDbTrace
 10
25683.333333
 20
17900.0
 30
0.0
 11
25716.666667
 21
17900.0
 31
0.0
 12
25700.0
 22
18000.0
 32
0.0
 13
25700.0
 23
18000.0
 33
0.0
  0
SOLID
  5
EABC2557E039A96A
100
AcDbEntity
  8
SIMPLE
  6
CONTINUOUS
 62
     0
100
AcDbTrace
 10
25716.666667
 20
16300.0
 30
0.0
 11
25683.333333
 21
16300.0
 31
0.0
 12
25700.0
 22
16200.0
 32
0.0
 13
25700.0
 23
16200.0
 33
0.0
  0
LINE
  5
EABC2557E039A96F
100
AcDbEntity
  8
SIMPLE
  6
CONTINUOUS
 62
     0
100
AcDbLine
 10
25700.0
 20
17900.0
 30
0.0
 11
25700.0
 21
17150.09
 31
0.0
  0
LINE
  5
EABC2557E039A970
100
AcDbEntity
  8
SIMPLE
  6
CONTINUOUS
 62
     0
100
AcDbLine
 10
25700.0
 20
17016.576667
 30
0.0
 11
25700.0
 21
16300.0
 31
0.0
  0
ENDBLK
  5
EABC2557E039A975
100
AcDbEntity
  8
SIMPLE
  6
CONTINUOUS
 62
     5
100
AcDbBlockEnd
  0
BLOCK
  5
EABC2557E039A983
100
AcDbEntity
  8
SIMPLE
  6
CONTINUOUS
 62
     5
100
AcDbBlockBegin
  2
*D25
 70
     1
 10
0.0
 20
0.0
 30
0.0
  1

  0
POINT
  5
EABC2557E039A97C
100
AcDbEntity
  8
SIMPLE
  6
CONTINUOUS
 62
     0
100
AcDbPoint
 10
26500.0
 20
17000.0
 30
0.0
  0
POINT
  5
EABC2557E039A97D
100
AcDbEntity
  8
SIMPLE
  6
CONTINUOUS
 62
     0
100
AcDbPoint
 10
26500.0
 20
1000.0
 30
0.0
  0
LINE
  5
EABC2557E039A977
100
AcDbEntity
  8
SIMPLE
  6
CONTINUOUS
 62
     0
100
AcDbLine
 10
26550.0
 20
17000.0
 30
0.0
 11
28550.0
 21
17000.0
 31
0.0
  0
LINE
  5
EABC2557E039A978
100
AcDbEntity
  8
SIMPLE
  6
CONTINUOUS
 62
     0
100
AcDbLine
 10
26550.0
 20
1000.0
 30
0.0
 11
28550.0
 21
1000.0
 31
0.0
  0
TEXT
  5
EABC2557E039A97E
100
AcDbEntity
  8
SIMPLE
  6
CONTINUOUS
 62
     0
100
AcDbText
 10
28071.428571
 20
8950.0
 30
0.0
 40
100.0
  1
16000.0000
  7
SIMPLEX
 72
     1
 11
28500.0
 21
8950.0
 31
0.0
100
AcDbText
  0
SOLID
  5
EABC2557E039A979
100
AcDbEntity
  8
SIMPLE
  6
CONTINUOUS
 62
     0
100
AcDbTrace
 10
28483.333333
 20
16900.0
 30
0.0
 11
28516.666667
 21
16900.0
 31
0.0
 12
28500.0
 22
17000.0
 32
0.0
 13
28500.0
 23
17000.0
 33
0.0
  0
SOLID
  5
EABC2557E039A97A
100
AcDbEntity
  8
SIMPLE
  6
CONTINUOUS
 62
     0
100
AcDbTrace
 10
28516.666667
 20
1100.0
 30
0.0
 11
28483.333333
 21
1100.0
 31
0.0
 12
28500.0
 22
1000.0
 32
0.0
 13
28500.0
 23
1000.0
 33
0.0
  0
LINE
  5
EABC2557E039A97F
100
AcDbEntity
  8
SIMPLE
  6
CONTINUOUS
 62
     0
100
AcDbLine
 10
28500.0
 20
16900.0
 30
0.0
 11
28500.0
 21
9050.09
 31
0.0
  0
LINE
  5
EABC2557E039A980
100
AcDbEntity
  8
SIMPLE
  6
CONTINUOUS
 62
     0
100
AcDbLine
 10
28500.0
 20
8916.576667
 30
0.0
 11
28500.0
 21
1100.0
 31
0.0
  0
ENDBLK
  5
EABC2557E039A985
100
AcDbEntity
  8
SIMPLE
  6
CONTINUOUS
 62
     5
100
AcDbBlockEnd
  0
BLOCK
  5
EABC2557E039A993
100
AcDbEntity
  8
SIMPLE
  6
CONTINUOUS
 62
     5
100
AcDbBlockBegin
  2
*D26
 70
     1
 10
0.0
 20
0.0
 30
0.0
  1

  0
POINT
  5
EABC2557E039A98C
100
AcDbEntity
  8
SIMPLE
  6
CONTINUOUS
 62
     0
100
AcDbPoint
 10
24700.0
 20
17100.0
 30
0.0
  0
POINT
  5
EABC2557E039A98D
100
AcDbEntity
  8
SIMPLE
  6
CONTINUOUS
 62
     0
100
AcDbPoint
 10
24700.0
 20
1100.0
 30
0.0
  0
LINE
  5
EABC2557E039A987
100
AcDbEntity
  8
SIMPLE
  6
CONTINUOUS
 62
     0
100
AcDbLine
 10
24750.0
 20
17100.0
 30
0.0
 11
27050.0
 21
17100.0
 31
0.0
  0
LINE
  5
EABC2557E039A988
100
AcDbEntity
  8
SIMPLE
  6
CONTINUOUS
 62
     0
100
AcDbLine
 10
24750.0
 20
1100.0
 30
0.0
 11
27050.0
 21
1100.0
 31
0.0
  0
TEXT
  5
EABC2557E039A98E
100
AcDbEntity
  8
SIMPLE
  6
CONTINUOUS
 62
     0
100
AcDbText
 10
26571.428571
 20
9050.0
 30
0.0
 40
100.0
  1
16000.0000
  7
SIMPLEX
 72
     1
 11
27000.0
 21
9050.0
 31
0.0
100
AcDbText
  0
SOLID
  5
EABC2557E039A989
100
AcDbEntity
  8
SIMPLE
  6
CONTINUOUS
 62
     0
100
AcDbTrace
 10
26983.333333
 20
17000.0
 30
0.0
 11
27016.666667
 21
17000.0
 31
0.0
 12
27000.0
 22
17100.0
 32
0.0
 13
27000.0
 23
17100.0
 33
0.0
  0
SOLID
  5
EABC2557E039A98A
100
AcDbEntity
  8
SIMPLE
  6
CONTINUOUS
 62
     0
100
AcDbTrace
 10
27016.666667
 20
1200.0
 30
0.0
 11
26983.333333
 21
1200.0
 31
0.0
 12
27000.0
 22
1100.0
 32
0.0
 13
27000.0
 23
1100.0
 33
0.0
  0
LINE
  5
EABC2557E039A98F
100
AcDbEntity
  8
SIMPLE
  6
CONTINUOUS
 62
     0
100
AcDbLine
 10
27000.0
 20
17000.0
 30
0.0
 11
27000.0
 21
9150.09
 31
0.0
  0
LINE
  5
EABC2557E039A990
100
AcDbEntity
  8
SIMPLE
  6
CONTINUOUS
 62
     0
100
AcDbLine
 10
27000.0
 20
9016.576667
 30
0.0
 11
27000.0
 21
1200.0
 31
0.0
  0
ENDBLK
  5
EABC2557E039A995
100
AcDbEntity
  8
SIMPLE
  6
CONTINUOUS
 62
     5
100
AcDbBlockEnd
  0
BLOCK
  5
EABC2557E58EBC77
100
AcDbEntity
  8
SIMPLE
  6
CONTINUOUS
100
AcDbBlockBegin
  2
*D27
 70
     1
 10
0.0
 20
0.0
 30
0.0
  1

  0
POINT
  5
EABC2557E58EBC70
100
AcDbEntity
  8
SIMPLE
  6
CONTINUOUS
 62
     0
100
AcDbPoint
 10
15099.0
 20
19600.0
 30
0.0
  0
POINT
  5
EABC2557E58EBC71
100
AcDbEntity
  8
SIMPLE
  6
CONTINUOUS
 62
     0
100
AcDbPoint
 10
23099.0
 20
19600.0
 30
0.0
  0
LINE
  5
EABC2557E58EBC6B
100
AcDbEntity
  8
SIMPLE
  6
CONTINUOUS
 62
     0
100
AcDbLine
 10
15099.0
 20
19650.0
 30
0.0
 11
15099.0
 21
20850.0
 31
0.0
  0
LINE
  5
EABC2557E58EBC6C
100
AcDbEntity
  8
SIMPLE
  6
CONTINUOUS
 62
     0
100
AcDbLine
 10
23099.0
 20
19650.0
 30
0.0
 11
23099.0
 21
20850.0
 31
0.0
  0
TEXT
  5
EABC2557E58EBC72
100
AcDbEntity
  8
SIMPLE
  6
CONTINUOUS
 62
     0
100
AcDbText
 10
18708.52381
 20
20750.0
 30
0.0
 40
100.0
  1
8000.0000
  7
SIMPLEX
 72
     1
 11
19099.0
 21
20750.0
 31
0.0
100
AcDbText
  0
SOLID
  5
EABC2557E58EBC6D
100
AcDbEntity
  8
SIMPLE
  6
CONTINUOUS
 62
     0
100
AcDbTrace
 10
15199.0
 20
20783.333333
 30
0.0
 11
15199.0
 21
20816.666667
 31
0.0
 12
15099.0
 22
20800.0
 32
0.0
 13
15099.0
 23
20800.0
 33
0.0
  0
SOLID
  5
EABC2557E58EBC6E
100
AcDbEntity
  8
SIMPLE
  6
CONTINUOUS
 62
     0
100
AcDbTrace
 10
22999.0
 20
20816.666667
 30
0.0
 11
22999.0
 21
20783.333333
 31
0.0
 12
23099.0
 22
20800.0
 32
0.0
 13
23099.0
 23
20800.0
 33
0.0
  0
LINE
  5
EABC2557E58EBC73
100
AcDbEntity
  8
SIMPLE
  6
CONTINUOUS
 62
     0
100
AcDbLine
 10
15199.0
 20
20800.0
 30
0.0
 11
18708.43381
 21
20800.0
 31
0.0
  0
LINE
  5
EABC2557E58EBC74
100
AcDbEntity
  8
SIMPLE
  6
CONTINUOUS
 62
     0
100
AcDbLine
 10
19489.56619
 20
20800.0
 30
0.0
 11
22999.0
 21
20800.0
 31
0.0
  0
ENDBLK
  5
EABC2557E58EBC79
100
AcDbEntity
  8
SIMPLE
  6
CONTINUOUS
100
AcDbBlockEnd
  0
BLOCK
  5
EABC2557E58EBC86
100
AcDbEntity
  8
SIMPLE
  6
CONTINUOUS
100
AcDbBlockBegin
  2
*D28
 70
     1
 10
0.0
 20
0.0
 30
0.0
  1

  0
POINT
  5
EABC2557E58EBC7F
100
AcDbEntity
  8
SIMPLE
  6
CONTINUOUS
 62
     0
100
AcDbPoint
 10
15100.0
 20
18800.0
 30
0.0
  0
POINT
  5
EABC2557E58EBC80
100
AcDbEntity
  8
SIMPLE
  6
CONTINUOUS
 62
     0
100
AcDbPoint
 10
16000.0
 20
18000.0
 30
0.0
  0
LINE
  5
EABC2557E58EBC7A
100
AcDbEntity
  8
SIMPLE
  6
CONTINUOUS
 62
     0
100
AcDbLine
 10
15100.0
 20
18850.0
 30
0.0
 11
15100.0
 21
20250.0
 31
0.0
  0
LINE
  5
EABC2557E58EBC7B
100
AcDbEntity
  8
SIMPLE
  6
CONTINUOUS
 62
     0
100
AcDbLine
 10
16000.0
 20
18050.0
 30
0.0
 11
16000.0
 21
20250.0
 31
0.0
  0
TEXT
  5
EABC2557E58EBC81
100
AcDbEntity
  8
SIMPLE
  6
CONTINUOUS
 62
     0
100
AcDbText
 10
15207.142857
 20
20150.0
 30
0.0
 40
100.0
  1
900.0000
  7
SIMPLEX
 72
     1
 11
15550.0
 21
20150.0
 31
0.0
100
AcDbText
  0
SOLID
  5
EABC2557E58EBC7C
100
AcDbEntity
  8
SIMPLE
  6
CONTINUOUS
 62
     0
100
AcDbTrace
 10
15200.0
 20
20183.333333
 30
0.0
 11
15200.0
 21
20216.666667
 31
0.0
 12
15100.0
 22
20200.0
 32
0.0
 13
15100.0
 23
20200.0
 33
0.0
  0
SOLID
  5
EABC2557E58EBC7D
100
AcDbEntity
  8
SIMPLE
  6
CONTINUOUS
 62
     0
100
AcDbTrace
 10
15900.0
 20
20216.666667
 30
0.0
 11
15900.0
 21
20183.333333
 31
0.0
 12
16000.0
 22
20200.0
 32
0.0
 13
16000.0
 23
20200.0
 33
0.0
  0
LINE
  5
EABC2557E58EBC82
100
AcDbEntity
  8
SIMPLE
  6
CONTINUOUS
 62
     0
100
AcDbLine
 10
15200.0
 20
20200.0
 30
0.0
 11
15207.052857
 21
20200.0
 31
0.0
  0
LINE
  5
EABC2557E58EBC83
100
AcDbEntity
  8
SIMPLE
  6
CONTINUOUS
 62
     0
100
AcDbLine
 10
15892.947143
 20
20200.0
 30
0.0
 11
15900.0
 21
20200.0
 31
0.0
  0
ENDBLK
  5
EABC2557E58EBC88
100
AcDbEntity
  8
SIMPLE
  6
CONTINUOUS
100
AcDbBlockEnd
  0
BLOCK
  5
EABC2557E58EBC95
100
AcDbEntity
  8
SIMPLE
  6
CONTINUOUS
100
AcDbBlockBegin
  2
*D29
 70
     1
 10
0.0
 20
0.0
 30
0.0
  1

  0
POINT
  5
EABC2557E58EBC8E
100
AcDbEntity
  8
SIMPLE
  6
CONTINUOUS
 62
     0
100
AcDbPoint
 10
16200.0
 20
15900.0
 30
0.0
  0
POINT
  5
EABC2557E58EBC8F
100
AcDbEntity
  8
SIMPLE
  6
CONTINUOUS
 62
     0
100
AcDbPoint
 10
17400.0
 20
15900.0
 30
0.0
  0
LINE
  5
EABC2557E58EBC89
100
AcDbEntity
  8
SIMPLE
  6
CONTINUOUS
 62
     0
100
AcDbLine
 10
16200.0
 20
15950.0
 30
0.0
 11
16200.0
 21
20250.0
 31
0.0
  0
LINE
  5
EABC2557E58EBC8A
100
AcDbEntity
  8
SIMPLE
  6
CONTINUOUS
 62
     0
100
AcDbLine
 10
17400.0
 20
15950.0
 30
0.0
 11
17400.0
 21
20250.0
 31
0.0
  0
TEXT
  5
EABC2557E58EBC90
100
AcDbEntity
  8
SIMPLE
  6
CONTINUOUS
 62
     0
100
AcDbText
 10
16419.047619
 20
20150.0
 30
0.0
 40
100.0
  1
1200.0000
  7
SIMPLEX
 72
     1
 11
16800.0
 21
20150.0
 31
0.0
100
AcDbText
  0
SOLID
  5
EABC2557E58EBC8B
100
AcDbEntity
  8
SIMPLE
  6
CONTINUOUS
 62
     0
100
AcDbTrace
 10
16300.0
 20
20183.333333
 30
0.0
 11
16300.0
 21
20216.666667
 31
0.0
 12
16200.0
 22
20200.0
 32
0.0
 13
16200.0
 23
20200.0
 33
0.0
  0
SOLID
  5
EABC2557E58EBC8C
100
AcDbEntity
  8
SIMPLE
  6
CONTINUOUS
 62
     0
100
AcDbTrace
 10
17300.0
 20
20216.666667
 30
0.0
 11
17300.0
 21
20183.333333
 31
0.0
 12
17400.0
 22
20200.0
 32
0.0
 13
17400.0
 23
20200.0
 33
0.0
  0
LINE
  5
EABC2557E58EBC91
100
AcDbEntity
  8
SIMPLE
  6
CONTINUOUS
 62
     0
100
AcDbLine
 10
16300.0
 20
20200.0
 30
0.0
 11
16418.957619
 21
20200.0
 31
0.0
  0
LINE
  5
EABC2557E58EBC92
100
AcDbEntity
  8
SIMPLE
  6
CONTINUOUS
 62
     0
100
AcDbLine
 10
17181.042381
 20
20200.0
 30
0.0
 11
17300.0
 21
20200.0
 31
0.0
  0
ENDBLK
  5
EABC2557E58EBC97
100
AcDbEntity
  8
SIMPLE
  6
CONTINUOUS
100
AcDbBlockEnd
  0
BLOCK
  5
EABC2557E58EBCA4
100
AcDbEntity
  8
SIMPLE
  6
CONTINUOUS
100
AcDbBlockBegin
  2
*D30
 70
     1
 10
0.0
 20
0.0
 30
0.0
  1

  0
POINT
  5
EABC2557E58EBC9D
100
AcDbEntity
  8
SIMPLE
  6
CONTINUOUS
 62
     0
100
AcDbPoint
 10
17600.0
 20
14000.0
 30
0.0
  0
POINT
  5
EABC2557E58EBC9E
100
AcDbEntity
  8
SIMPLE
  6
CONTINUOUS
 62
     0
100
AcDbPoint
 10
18000.0
 20
14000.0
 30
0.0
  0
LINE
  5
EABC2557E58EBC98
100
AcDbEntity
  8
SIMPLE
  6
CONTINUOUS
 62
     0
100
AcDbLine
 10
17600.0
 20
14050.0
 30
0.0
 11
17600.0
 21
20250.0
 31
0.0
  0
LINE
  5
EABC2557E58EBC99
100
AcDbEntity
  8
SIMPLE
  6
CONTINUOUS
 62
     0
100
AcDbLine
 10
18000.0
 20
14050.0
 30
0.0
 11
18000.0
 21
20250.0
 31
0.0
  0
TEXT
  5
EABC2557E58EBC9F
100
AcDbEntity
  8
SIMPLE
  6
CONTINUOUS
 62
     0
100
AcDbText
 10
18200.18
 20
20150.0
 30
0.0
 40
100.0
  1
400.0000
  7
SIMPLEX
 72
     1
 11
18543.037143
 21
20150.0
 31
0.0
100
AcDbText
  0
SOLID
  5
EABC2557E58EBC9A
100
AcDbEntity
  8
SIMPLE
  6
CONTINUOUS
 62
     0
100
AcDbTrace
 10
17500.0
 20
20216.666667
 30
0.0
 11
17500.0
 21
20183.333333
 31
0.0
 12
17600.0
 22
20200.0
 32
0.0
 13
17600.0
 23
20200.0
 33
0.0
  0
SOLID
  5
EABC2557E58EBC9B
100
AcDbEntity
  8
SIMPLE
  6
CONTINUOUS
 62
     0
100
AcDbTrace
 10
18100.0
 20
20183.333333
 30
0.0
 11
18100.0
 21
20216.666667
 31
0.0
 12
18000.0
 22
20200.0
 32
0.0
 13
18000.0
 23
20200.0
 33
0.0
  0
LINE
  5
EABC2557E58EBCA0
100
AcDbEntity
  8
SIMPLE
  6
CONTINUOUS
 62
     0
100
AcDbLine
 10
17500.0
 20
20200.0
 30
0.0
 11
17400.0
 21
20200.0
 31
0.0
  0
LINE
  5
EABC2557E58EBCA1
100
AcDbEntity
  8
SIMPLE
  6
CONTINUOUS
 62
     0
100
AcDbLine
 10
18100.0
 20
20200.0
 30
0.0
 11
18200.0
 21
20200.0
 31
0.0
  0
ENDBLK
  5
EABC2557E58EBCA6
100
AcDbEntity
  8
SIMPLE
  6
CONTINUOUS
100
AcDbBlockEnd
  0
BLOCK
  5
EABC2557E58EBCB3
100
AcDbEntity
  8
SIMPLE
  6
CONTINUOUS
100
AcDbBlockBegin
  2
*D31
 70
     1
 10
0.0
 20
0.0
 30
0.0
  1

  0
POINT
  5
EABC2557E58EBCAC
100
AcDbEntity
  8
SIMPLE
  6
CONTINUOUS
 62
     0
100
AcDbPoint
 10
21800.0
 20
15900.0
 30
0.0
  0
POINT
  5
EABC2557E58EBCAD
100
AcDbEntity
  8
SIMPLE
  6
CONTINUOUS
 62
     0
100
AcDbPoint
 10
21000.0
 20
15900.0
 30
0.0
  0
LINE
  5
EABC2557E58EBCA7
100
AcDbEntity
  8
SIMPLE
  6
CONTINUOUS
 62
     0
100
AcDbLine
 10
21800.0
 20
15950.0
 30
0.0
 11
21800.0
 21
20250.0
 31
0.0
  0
LINE
  5
EABC2557E58EBCA8
100
AcDbEntity
  8
SIMPLE
  6
CONTINUOUS
 62
     0
100
AcDbLine
 10
21000.0
 20
15950.0
 30
0.0
 11
21000.0
 21
20250.0
 31
0.0
  0
TEXT
  5
EABC2557E58EBCAE
100
AcDbEntity
  8
SIMPLE
  6
CONTINUOUS
 62
     0
100
AcDbText
 10
21057.142857
 20
20150.0
 30
0.0
 40
100.0
  1
800.0000
  7
SIMPLEX
 72
     1
 11
21400.0
 21
20150.0
 31
0.0
100
AcDbText
  0
SOLID
  5
EABC2557E58EBCA9
100
AcDbEntity
  8
SIMPLE
  6
CONTINUOUS
 62
     0
100
AcDbTrace
 10
21700.0
 20
20216.666667
 30
0.0
 11
21700.0
 21
20183.333333
 31
0.0
 12
21800.0
 22
20200.0
 32
0.0
 13
21800.0
 23
20200.0
 33
0.0
  0
SOLID
  5
EABC2557E58EBCAA
100
AcDbEntity
  8
SIMPLE
  6
CONTINUOUS
 62
     0
100
AcDbTrace
 10
21100.0
 20
20183.333333
 30
0.0
 11
21100.0
 21
20216.666667
 31
0.0
 12
21000.0
 22
20200.0
 32
0.0
 13
21000.0
 23
20200.0
 33
0.0
  0
LINE
  5
EABC2557E58EBCAF
100
AcDbEntity
  8
SIMPLE
  6
CONTINUOUS
 62
     0
100
AcDbLine
 10
21700.0
 20
20200.0
 30
0.0
 11
21100.0
 21
20200.0
 31
0.0
  0
ENDBLK
  5
EABC2557E58EBCB5
100
AcDbEntity
  8
SIMPLE
  6
CONTINUOUS
100
AcDbBlockEnd
  0
BLOCK
  5
EABC2557E58EBCC2
100
AcDbEntity
  8
SIMPLE
  6
CONTINUOUS
100
AcDbBlockBegin
  2
*D32
 70
     1
 10
0.0
 20
0.0
 30
0.0
  1

  0
POINT
  5
EABC2557E58EBCBB
100
AcDbEntity
  8
SIMPLE
  6
CONTINUOUS
 62
     0
100
AcDbPoint
 10
16000.0
 20
18000.0
 30
0.0
  0
POINT
  5
EABC2557E58EBCBC
100
AcDbEntity
  8
SIMPLE
  6
CONTINUOUS
 62
     0
100
AcDbPoint
 10
14200.0
 20
18100.0
 30
0.0
  0
LINE
  5
EABC2557E58EBCB6
100
AcDbEntity
  8
SIMPLE
  6
CONTINUOUS
 62
     0
100
AcDbLine
 10
16000.0
 20
18050.0
 30
0.0
 11
16000.0
 21
19550.0
 31
0.0
  0
LINE
  5
EABC2557E58EBCB7
100
AcDbEntity
  8
SIMPLE
  6
CONTINUOUS
 62
     0
100
AcDbLine
 10
14200.0
 20
18150.0
 30
0.0
 11
14200.0
 21
19550.0
 31
0.0
  0
TEXT
  5
EABC2557E58EBCBD
100
AcDbEntity
  8
SIMPLE
  6
CONTINUOUS
 62
     0
100
AcDbText
 10
14719.047619
 20
19450.0
 30
0.0
 40
100.0
  1
1800.0000
  7
SIMPLEX
 72
     1
 11
15100.0
 21
19450.0
 31
0.0
100
AcDbText
  0
SOLID
  5
EABC2557E58EBCB8
100
AcDbEntity
  8
SIMPLE
  6
CONTINUOUS
 62
     0
100
AcDbTrace
 10
15900.0
 20
19516.666667
 30
0.0
 11
15900.0
 21
19483.333333
 31
0.0
 12
16000.0
 22
19500.0
 32
0.0
 13
16000.0
 23
19500.0
 33
0.0
  0
SOLID
  5
EABC2557E58EBCB9
100
AcDbEntity
  8
SIMPLE
  6
CONTINUOUS
 62
     0
100
AcDbTrace
 10
14300.0
 20
19483.333333
 30
0.0
 11
14300.0
 21
19516.666667
 31
0.0
 12
14200.0
 22
19500.0
 32
0.0
 13
14200.0
 23
19500.0
 33
0.0
  0
LINE
  5
EABC2557E58EBCBE
100
AcDbEntity
  8
SIMPLE
  6
CONTINUOUS
 62
     0
100
AcDbLine
 10
15900.0
 20
19500.0
 30
0.0
 11
15481.042381
 21
19500.0
 31
0.0
  0
LINE
  5
EABC2557E58EBCBF
100
AcDbEntity
  8
SIMPLE
  6
CONTINUOUS
 62
     0
100
AcDbLine
 10
14718.957619
 20
19500.0
 30
0.0
 11
14300.0
 21
19500.0
 31
0.0
  0
ENDBLK
  5
EABC2557E58EBCC4
100
AcDbEntity
  8
SIMPLE
  6
CONTINUOUS
100
AcDbBlockEnd
  0
BLOCK
  5
EABC2557E58EBCD1
100
AcDbEntity
  8
SIMPLE
  6
CONTINUOUS
100
AcDbBlockBegin
  2
*D33
 70
     1
 10
0.0
 20
0.0
 30
0.0
  1

  0
POINT
  5
EABC2557E58EBCCA
100
AcDbEntity
  8
SIMPLE
  6
CONTINUOUS
 62
     0
100
AcDbPoint
 10
18900.0
 20
14500.0
 30
0.0
  0
POINT
  5
EABC2557E58EBCCB
100
AcDbEntity
  8
SIMPLE
  6
CONTINUOUS
 62
     0
100
AcDbPoint
 10
20700.0
 20
14500.0
 30
0.0
  0
LINE
  5
EABC2557E58EBCC5
100
AcDbEntity
  8
SIMPLE
  6
CONTINUOUS
 62
     0
100
AcDbLine
 10
18900.0
 20
14550.0
 30
0.0
 11
18900.0
 21
15350.0
 31
0.0
  0
LINE
  5
EABC2557E58EBCC6
100
AcDbEntity
  8
SIMPLE
  6
CONTINUOUS
 62
     0
100
AcDbLine
 10
20700.0
 20
14550.0
 30
0.0
 11
20700.0
 21
15350.0
 31
0.0
  0
TEXT
  5
EABC2557E58EBCCC
100
AcDbEntity
  8
SIMPLE
  6
CONTINUOUS
 62
     0
100
AcDbText
 10
19419.047619
 20
15250.0
 30
0.0
 40
100.0
  1
1800.0000
  7
SIMPLEX
 72
     1
 11
19800.0
 21
15250.0
 31
0.0
100
AcDbText
  0
SOLID
  5
EABC2557E58EBCC7
100
AcDbEntity
  8
SIMPLE
  6
CONTINUOUS
 62
     0
100
AcDbTrace
 10
19000.0
 20
15283.333333
 30
0.0
 11
19000.0
 21
15316.666667
 31
0.0
 12
18900.0
 22
15300.0
 32
0.0
 13
18900.0
 23
15300.0
 33
0.0
  0
SOLID
  5
EABC2557E58EBCC8
100
AcDbEntity
  8
SIMPLE
  6
CONTINUOUS
 62
     0
100
AcDbTrace
 10
20600.0
 20
15316.666667
 30
0.0
 11
20600.0
 21
15283.333333
 31
0.0
 12
20700.0
 22
15300.0
 32
0.0
 13
20700.0
 23
15300.0
 33
0.0
  0
LINE
  5
EABC2557E58EBCCD
100
AcDbEntity
  8
SIMPLE
  6
CONTINUOUS
 62
     0
100
AcDbLine
 10
19000.0
 20
15300.0
 30
0.0
 11
19418.957619
 21
15300.0
 31
0.0
  0
LINE
  5
EABC2557E58EBCCE
100
AcDbEntity
  8
SIMPLE
  6
CONTINUOUS
 62
     0
100
AcDbLine
 10
20181.042381
 20
15300.0
 30
0.0
 11
20600.0
 21
15300.0
 31
0.0
  0
ENDBLK
  5
EABC2557E58EBCD3
100
AcDbEntity
  8
SIMPLE
  6
CONTINUOUS
100
AcDbBlockEnd
  0
BLOCK
  5
EABC2557E58EBCE0
100
AcDbEntity
  8
SIMPLE
  6
CONTINUOUS
100
AcDbBlockBegin
  2
*D34
 70
     1
 10
0.0
 20
0.0
 30
0.0
  1

  0
POINT
  5
EABC2557E58EBCD9
100
AcDbEntity
  8
SIMPLE
  6
CONTINUOUS
 62
     0
100
AcDbPoint
 10
18600.0
 20
14000.0
 30
0.0
  0
POINT
  5
EABC2557E58EBCDA
100
AcDbEntity
  8
SIMPLE
  6
CONTINUOUS
 62
     0
100
AcDbPoint
 10
18200.0
 20
14000.0
 30
0.0
  0
LINE
  5
EABC2557E58EBCD4
100
AcDbEntity
  8
SIMPLE
  6
CONTINUOUS
 62
     0
100
AcDbLine
 10
18600.0
 20
13950.0
 30
0.0
 11
18600.0
 21
13550.0
 31
0.0
  0
LINE
  5
EABC2557E58EBCD5
100
AcDbEntity
  8
SIMPLE
  6
CONTINUOUS
 62
     0
100
AcDbLine
 10
18200.0
 20
13950.0
 30
0.0
 11
18200.0
 21
13550.0
 31
0.0
  0
TEXT
  5
EABC2557E58EBCDB
100
AcDbEntity
  8
SIMPLE
  6
CONTINUOUS
 62
     0
100
AcDbText
 10
17314.105714
 20
13550.0
 30
0.0
 40
100.0
  1
400.0000
  7
SIMPLEX
 72
     1
 11
17656.962857
 21
13550.0
 31
0.0
100
AcDbText
  0
SOLID
  5
EABC2557E58EBCD6
100
AcDbEntity
  8
SIMPLE
  6
CONTINUOUS
 62
     0
100
AcDbTrace
 10
18700.0
 20
13583.333333
 30
0.0
 11
18700.0
 21
13616.666667
 31
0.0
 12
18600.0
 22
13600.0
 32
0.0
 13
18600.0
 23
13600.0
 33
0.0
  0
SOLID
  5
EABC2557E58EBCD7
100
AcDbEntity
  8
SIMPLE
  6
CONTINUOUS
 62
     0
100
AcDbTrace
 10
18100.0
 20
13616.666667
 30
0.0
 11
18100.0
 21
13583.333333
 31
0.0
 12
18200.0
 22
13600.0
 32
0.0
 13
18200.0
 23
13600.0
 33
0.0
  0
LINE
  5
EABC2557E58EBCDC
100
AcDbEntity
  8
SIMPLE
  6
CONTINUOUS
 62
     0
100
AcDbLine
 10
18700.0
 20
13600.0
 30
0.0
 11
18800.0
 21
13600.0
 31
0.0
  0
LINE
  5
EABC2557E58EBCDD
100
AcDbEntity
  8
SIMPLE
  6
CONTINUOUS
 62
     0
100
AcDbLine
 10
18100.0
 20
13600.0
 30
0.0
 11
18000.0
 21
13600.0
 31
0.0
  0
ENDBLK
  5
EABC2557E58EBCE2
100
AcDbEntity
  8
SIMPLE
  6
CONTINUOUS
100
AcDbBlockEnd
  0
BLOCK
  5
EABC2557E58EBCEF
100
AcDbEntity
  8
SIMPLE
  6
CONTINUOUS
100
AcDbBlockBegin
  2
*D35
 70
     1
 10
0.0
 20
0.0
 30
0.0
  1

  0
POINT
  5
EABC2557E58EBCE8
100
AcDbEntity
  8
SIMPLE
  6
CONTINUOUS
 62
     0
100
AcDbPoint
 10
22000.0
 20
18000.0
 30
0.0
  0
POINT
  5
EABC2557E58EBCE9
100
AcDbEntity
  8
SIMPLE
  6
CONTINUOUS
 62
     0
100
AcDbPoint
 10
21900.0
 20
16200.0
 30
0.0
  0
LINE
  5
EABC2557E58EBCE3
100
AcDbEntity
  8
SIMPLE
  6
CONTINUOUS
 62
     0
100
AcDbLine
 10
22050.0
 20
18000.0
 30
0.0
 11
25750.0
 21
18000.0
 31
0.0
  0
LINE
  5
EABC2557E58EBCE4
100
AcDbEntity
  8
SIMPLE
  6
CONTINUOUS
 62
     0
100
AcDbLine
 10
21950.0
 20
16200.0
 30
0.0
 11
25750.0
 21
16200.0
 31
0.0
  0
TEXT
  5
EABC2557E58EBCEA
100
AcDbEntity
  8
SIMPLE
  6
CONTINUOUS
 62
     0
100
AcDbText
 10
25319.047619
 20
17050.0
 30
0.0
 40
100.0
  1
1800.0000
  7
SIMPLEX
 72
     1
 11
25700.0
 21
17050.0
 31
0.0
100
AcDbText
  0
SOLID
  5
EABC2557E58EBCE5
100
AcDbEntity
  8
SIMPLE
  6
CONTINUOUS
 62
     0
100
AcDbTrace
 10
25683.333333
 20
17900.0
 30
0.0
 11
25716.666667
 21
17900.0
 31
0.0
 12
25700.0
 22
18000.0
 32
0.0
 13
25700.0
 23
18000.0
 33
0.0
  0
SOLID
  5
EABC2557E58EBCE6
100
AcDbEntity
  8
SIMPLE
  6
CONTINUOUS
 62
     0
100
AcDbTrace
 10
25716.666667
 20
16300.0
 30
0.0
 11
25683.333333
 21
16300.0
 31
0.0
 12
25700.0
 22
16200.0
 32
0.0
 13
25700.0
 23
16200.0
 33
0.0
  0
LINE
  5
EABC2557E58EBCEB
100
AcDbEntity
  8
SIMPLE
  6
CONTINUOUS
 62
     0
100
AcDbLine
 10
25700.0
 20
17900.0
 30
0.0
 11
25700.0
 21
17150.09
 31
0.0
  0
LINE
  5
EABC2557E58EBCEC
100
AcDbEntity
  8
SIMPLE
  6
CONTINUOUS
 62
     0
100
AcDbLine
 10
25700.0
 20
17016.576667
 30
0.0
 11
25700.0
 21
16300.0
 31
0.0
  0
ENDBLK
  5
EABC2557E58EBCF1
100
AcDbEntity
  8
SIMPLE
  6
CONTINUOUS
100
AcDbBlockEnd
  0
BLOCK
  5
EABC2557E58EBCFE
100
AcDbEntity
  8
SIMPLE
  6
CONTINUOUS
100
AcDbBlockBegin
  2
*D36
 70
     1
 10
0.0
 20
0.0
 30
0.0
  1

  0
POINT
  5
EABC2557E58EBCF7
100
AcDbEntity
  8
SIMPLE
  6
CONTINUOUS
 62
     0
100
AcDbPoint
 10
24700.0
 20
17100.0
 30
0.0
  0
POINT
  5
EABC2557E58EBCF8
100
AcDbEntity
  8
SIMPLE
  6
CONTINUOUS
 62
     0
100
AcDbPoint
 10
24700.0
 20
1100.0
 30
0.0
  0
LINE
  5
EABC2557E58EBCF2
100
AcDbEntity
  8
SIMPLE
  6
CONTINUOUS
 62
     0
100
AcDbLine
 10
24750.0
 20
17100.0
 30
0.0
 11
27050.0
 21
17100.0
 31
0.0
  0
LINE
  5
EABC2557E58EBCF3
100
AcDbEntity
  8
SIMPLE
  6
CONTINUOUS
 62
     0
100
AcDbLine
 10
24750.0
 20
1100.0
 30
0.0
 11
27050.0
 21
1100.0
 31
0.0
  0
TEXT
  5
EABC2557E58EBCF9
100
AcDbEntity
  8
SIMPLE
  6
CONTINUOUS
 62
     0
100
AcDbText
 10
26571.428571
 20
9050.0
 30
0.0
 40
100.0
  1
16000.0000
  7
SIMPLEX
 72
     1
 11
27000.0
 21
9050.0
 31
0.0
100
AcDbText
  0
SOLID
  5
EABC2557E58EBCF4
100
AcDbEntity
  8
SIMPLE
  6
CONTINUOUS
 62
     0
100
AcDbTrace
 10
26983.333333
 20
17000.0
 30
0.0
 11
27016.666667
 21
17000.0
 31
0.0
 12
27000.0
 22
17100.0
 32
0.0
 13
27000.0
 23
17100.0
 33
0.0
  0
SOLID
  5
EABC2557E58EBCF5
100
AcDbEntity
  8
SIMPLE
  6
CONTINUOUS
 62
     0
100
AcDbTrace
 10
27016.666667
 20
1200.0
 30
0.0
 11
26983.333333
 21
1200.0
 31
0.0
 12
27000.0
 22
1100.0
 32
0.0
 13
27000.0
 23
1100.0
 33
0.0
  0
LINE
  5
EABC2557E58EBCFA
100
AcDbEntity
  8
SIMPLE
  6
CONTINUOUS
 62
     0
100
AcDbLine
 10
27000.0
 20
17000.0
 30
0.0
 11
27000.0
 21
9150.09
 31
0.0
  0
LINE
  5
EABC2557E58EBCFB
100
AcDbEntity
  8
SIMPLE
  6
CONTINUOUS
 62
     0
100
AcDbLine
 10
27000.0
 20
9016.576667
 30
0.0
 11
27000.0
 21
1200.0
 31
0.0
  0
ENDBLK
  5
EABC2557E58EBD00
100
AcDbEntity
  8
SIMPLE
  6
CONTINUOUS
100
AcDbBlockEnd
  0
BLOCK
  5
EABC2558047DB822
100
AcDbEntity
  8
COMMENT
  6
CONTINUOUS
 62
     1
100
AcDbBlockBegin
  2
*D37
 70
     1
 10
0.0
 20
0.0
 30
0.0
  1

  0
POINT
  5
EABC2558047DB81A
100
AcDbEntity
  8
SIMPLE
  6
CONTINUOUS
 62
     0
100
AcDbPoint
 10
4950.0
 20
-4100.0
 30
0.0
  0
POINT
  5
EABC2558047DB81C
100
AcDbEntity
  8
SIMPLE
  6
CONTINUOUS
 62
     0
100
AcDbPoint
 10
5000.0
 20
-3550.0
 30
0.0
  0
LINE
  5
EABC2558047DB815
100
AcDbEntity
  8
SIMPLE
  6
CONTINUOUS
 62
     0
100
AcDbLine
 10
5000.0
 20
-4100.0
 30
0.0
 11
5050.0
 21
-4100.0
 31
0.0
  0
LINE
  5
EABC2558047DB816
100
AcDbEntity
  8
SIMPLE
  6
CONTINUOUS
 62
     0
100
AcDbLine
 10
5050.0
 20
-3550.0
 30
0.0
 11
5050.0
 21
-3550.0
 31
0.0
  0
TEXT
  5
EABC2558047DB81D
100
AcDbEntity
  8
SIMPLE
  6
CONTINUOUS
 62
     0
100
AcDbText
 10
5000.09
 20
-3399.91
 30
0.0
 40
100.0
  1
550.0000
  7
SIMPLEX
 72
     1
 11
5342.947143
 21
-3399.91
 31
0.0
100
AcDbText
  0
SOLID
  5
EABC2558047DB817
100
AcDbEntity
  8
SIMPLE
  6
CONTINUOUS
 62
     0
100
AcDbTrace
 10
4983.333333
 20
-4200.0
 30
0.0
 11
5016.666667
 21
-4200.0
 31
0.0
 12
5000.0
 22
-4100.0
 32
0.0
 13
5000.0
 23
-4100.0
 33
0.0
  0
SOLID
  5
EABC2558047DB818
100
AcDbEntity
  8
SIMPLE
  6
CONTINUOUS
 62
     0
100
AcDbTrace
 10
5016.666667
 20
-3450.0
 30
0.0
 11
4983.333333
 21
-3450.0
 31
0.0
 12
5000.0
 22
-3550.0
 32
0.0
 13
5000.0
 23
-3550.0
 33
0.0
  0
LINE
  5
EABC2558047DB81E
100
AcDbEntity
  8
SIMPLE
  6
CONTINUOUS
 62
     0
100
AcDbLine
 10
5000.0
 20
-4200.0
 30
0.0
 11
5000.0
 21
-4300.0
 31
0.0
  0
LINE
  5
EABC2558047DB81F
100
AcDbEntity
  8
SIMPLE
  6
CONTINUOUS
 62
     0
100
AcDbLine
 10
5000.0
 20
-3450.0
 30
0.0
 11
5000.0
 21
-3350.0
 31
0.0
  0
ENDBLK
  5
EABC2558047DB824
100
AcDbEntity
  8
COMMENT
  6
CONTINUOUS
 62
     1
100
AcDbBlockEnd
  0
BLOCK
  5
EABC2558047DB832
100
AcDbEntity
  8
COMMENT
  6
CONTINUOUS
 62
     1
100
AcDbBlockBegin
  2
*D38
 70
     1
 10
0.0
 20
0.0
 30
0.0
  1

  0
POINT
  5
EABC2558047DB82B
100
AcDbEntity
  8
SIMPLE
  6
CONTINUOUS
 62
     0
100
AcDbPoint
 10
5000.0
 20
-4100.0
 30
0.0
  0
POINT
  5
EABC2558047DB82C
100
AcDbEntity
  8
SIMPLE
  6
CONTINUOUS
 62
     0
100
AcDbPoint
 10
5000.0
 20
-4650.0
 30
0.0
  0
LINE
  5
EABC2558047DB826
100
AcDbEntity
  8
SIMPLE
  6
CONTINUOUS
 62
     0
100
AcDbLine
 10
5050.0
 20
-4100.0
 30
0.0
 11
5050.0
 21
-4100.0
 31
0.0
  0
LINE
  5
EABC2558047DB827
100
AcDbEntity
  8
SIMPLE
  6
CONTINUOUS
 62
     0
100
AcDbLine
 10
4950.0
 20
-4650.0
 30
0.0
 11
4950.0
 21
-4650.0
 31
0.0
  0
TEXT
  5
EABC2558047DB82D
100
AcDbEntity
  8
SIMPLE
  6
CONTINUOUS
 62
     0
100
AcDbText
 10
4314.195714
 20
-4900.09
 30
0.0
 40
100.0
  1
550.0000
  7
SIMPLEX
 72
     1
 11
4657.052857
 21
-4900.09
 31
0.0
100
AcDbText
  0
SOLID
  5
EABC2558047DB828
100
AcDbEntity
  8
SIMPLE
  6
CONTINUOUS
 62
     0
100
AcDbTrace
 10
5016.666667
 20
-4000.0
 30
0.0
 11
4983.333333
 21
-4000.0
 31
0.0
 12
5000.0
 22
-4100.0
 32
0.0
 13
5000.0
 23
-4100.0
 33
0.0
  0
SOLID
  5
EABC2558047DB829
100
AcDbEntity
  8
SIMPLE
  6
CONTINUOUS
 62
     0
100
AcDbTrace
 10
4983.333333
 20
-4750.0
 30
0.0
 11
5016.666667
 21
-4750.0
 31
0.0
 12
5000.0
 22
-4650.0
 32
0.0
 13
5000.0
 23
-4650.0
 33
0.0
  0
LINE
  5
EABC2558047DB82E
100
AcDbEntity
  8
SIMPLE
  6
CONTINUOUS
 62
     0
100
AcDbLine
 10
5000.0
 20
-4000.0
 30
0.0
 11
5000.0
 21
-3900.0
 31
0.0
  0
LINE
  5
EABC2558047DB82F
100
AcDbEntity
  8
SIMPLE
  6
CONTINUOUS
 62
     0
100
AcDbLine
 10
5000.0
 20
-4750.0
 30
0.0
 11
5000.0
 21
-4850.0
 31
0.0
  0
ENDBLK
  5
EABC2558047DB834
100
AcDbEntity
  8
COMMENT
  6
CONTINUOUS
 62
     1
100
AcDbBlockEnd
  0
BLOCK
  5
FFFF4FE8149F473C
100
AcDbEntity
  8
SIMPLE
  6
CONTINUOUS
 62
    50
100
AcDbBlockBegin
  2
TITAN_ALM_COMMON_REGISTER_BLOCK
 70
     2
 10
0.0
 20
0.0
 30
0.0
  1

  0
INSERT
  5
FFFF4FE8149F4728
100
AcDbEntity
  8
PORTS
  6
CONTINUOUS
100
AcDbBlockReference
 66
     1
  2
TITAN_LUT_REGISTER_SLOAD_PORT
 10
0.0
 20
0.0
 30
0.0
  0
ATTRIB
  5
FFFF4FE8149F4729
100
AcDbEntity
  8
PORTS
  6
CONTINUOUS
100
AcDbText
 10
1340.0
 20
-155.0
 30
0.0
 40
7.071068
  1
LEFT
  7
SIMPLEX
100
AcDbAttribute
  2
SIDE
 70
     0
  0
SEQEND
  5
FFFF4FE8149F472A
100
AcDbEntity
  8
PORTS
  6
CONTINUOUS
  0
INSERT
  5
FFFF4FE8149F4734
100
AcDbEntity
  8
PORTS
  6
CONTINUOUS
100
AcDbBlockReference
 66
     1
  2
TITAN_LUT_REGISTER_SCLR_PORT
 10
0.0
 20
0.0
 30
0.0
  0
ATTRIB
  5
FFFF4FE8149F4735
100
AcDbEntity
  8
PORTS
  6
CONTINUOUS
100
AcDbText
 10
1340.0
 20
-105.0
 30
0.0
 40
7.071068
  1
LEFT
  7
SIMPLEX
100
AcDbAttribute
  2
SIDE
 70
     0
  0
SEQEND
  5
FFFF4FE8149F4736
100
AcDbEntity
  8
PORTS
  6
CONTINUOUS
  0
INSERT
  5
FFFF4FE8149F473B
100
AcDbEntity
  8
DETAIL_MEDIUM
  6
CONTINUOUS
100
AcDbBlockReference
  2
TITAN_LUT_REGISTER_SCLR_WIRE
 10
0.0
 20
0.0
 30
0.0
  0
INSERT
  5
FFFF4FE8149F472F
100
AcDbEntity
  8
DETAIL_MEDIUM
  6
CONTINUOUS
100
AcDbBlockReference
  2
TITAN_LUT_REGISTER_SLOAD_WIRE
 10
0.0
 20
0.0
 30
0.0
  0
INSERT
  5
FFFF4FE8149F471E
100
AcDbEntity
  8
DETAIL_MEDIUM
  6
CONTINUOUS
100
AcDbBlockReference
  2
TITAN_LUT_REGISTER_SLOAD_MUX
 10
0.0
 20
0.0
 30
0.0
  0
INSERT
  5
FFFF4FE8149F4723
100
AcDbEntity
  8
SIMPLE
  6
CONTINUOUS
100
AcDbBlockReference
  2
TITAN_LUT_REGISTER_SCLR_NAND
 10
0.0
 20
0.0
 30
0.0
  0
INSERT
  5
FFFE4F7376AED25D
100
AcDbEntity
  8
DETAIL_MEDIUM
  6
CONTINUOUS
100
AcDbBlockReference
  2
TITAN_LUT_REGISTER_ENA_WIRE
 10
0.0
 20
0.0
 30
0.0
  0
INSERT
  5
FFFEBD5C4CA828FB
100
AcDbEntity
  8
DETAIL_MEDIUM
  6
CONTINUOUS
100
AcDbBlockReference
  2
TITAN_LUT_REGISTER_CLK_WIRE
 10
0.0
 20
0.0
 30
0.0
  0
INSERT
  5
FFFE741668AC99EA
100
AcDbEntity
  8
PORTS
  6
CONTINUOUS
 62
    50
100
AcDbBlockReference
 66
     1
  2
TITAN_LUT_REGISTER_CLK_PORT
 10
0.0
 20
0.0
 30
0.0
  0
ATTRIB
  5
FFFE741668AC99EB
100
AcDbEntity
  8
PORTS
  6
CONTINUOUS
 62
   249
100
AcDbText
 10
1340.0
 20
-310.0
 30
0.0
 40
7.071068
  1
LEFT
  7
SIMPLEX
100
AcDbAttribute
  2
SIDE
 70
     0
  0
SEQEND
  5
FFFE741668AC99EC
100
AcDbEntity
  8
PORTS
  6
CONTINUOUS
 62
    50
  0
INSERT
  5
FFFE3D21FDAFEE96
100
AcDbEntity
  8
PORTS
  6
CONTINUOUS
 62
    50
100
AcDbBlockReference
 66
     1
  2
TITAN_LUT_REGISTER_ENA_PORT
 10
0.0
 20
0.0
 30
0.0
  0
ATTRIB
  5
FFFE3D21FDAFEE97
100
AcDbEntity
  8
PORTS
  6
CONTINUOUS
 62
   249
100
AcDbText
 10
1340.0
 20
-365.0
 30
0.0
 40
7.071068
  1
LEFT
  7
SIMPLEX
100
AcDbAttribute
  2
SIDE
 70
     0
  0
SEQEND
  5
FFFE3D21FDAFEE98
100
AcDbEntity
  8
PORTS
  6
CONTINUOUS
 62
    50
  0
INSERT
  5
FFFE2F64E2F0C3BA
100
AcDbEntity
  8
PORTS
  6
CONTINUOUS
 62
    50
100
AcDbBlockReference
 66
     1
  2
TITAN_LUT_REGISTER_ACLR_PORT
 10
0.0
 20
0.0
 30
0.0
  0
ATTRIB
  5
FFFE2F64E2F0C3BB
100
AcDbEntity
  8
PORTS
  6
CONTINUOUS
 62
   249
100
AcDbText
 10
1340.0
 20
-435.0
 30
0.0
 40
7.071068
  1
LEFT
  7
SIMPLEX
100
AcDbAttribute
  2
SIDE
 70
     0
  0
SEQEND
  5
FFFE2F64E2F0C3BC
100
AcDbEntity
  8
PORTS
  6
CONTINUOUS
 62
    50
  0
INSERT
  5
FFFE33F941307CAE
100
AcDbEntity
  8
DETAIL_MEDIUM
  6
CONTINUOUS
100
AcDbBlockReference
  2
TITAN_LUT_REGISTER_ACLR_WIRE
 10
0.0
 20
0.0
 30
0.0
  0
INSERT
  5
FFFE2D1AB3D0E73B
100
AcDbEntity
  8
DETAIL_MEDIUM
  6
CONTINUOUS
100
AcDbBlockReference
  2
TITAN_LUT_REGISTER_BLOCK
 10
0.0
 20
0.0
 30
0.0
  0
INSERT
  5
FFFF4FE8149F4714
100
AcDbEntity
  8
DETAIL_MEDIUM
  6
CONTINUOUS
100
AcDbBlockReference
  2
TITAN_LUT_REGISTER_ADATA_BYPASS
 10
0.0
 20
0.0
 30
0.0
  0
INSERT
  5
FFFF4FE8149F4719
100
AcDbEntity
  8
DETAIL_MEDIUM
  6
CONTINUOUS
100
AcDbBlockReference
  2
TITAN_LUT_REGISTER_ADATA_POINT
 10
0.0
 20
0.0
 30
0.0
  0
INSERT
  5
FFFE2BF59C40F8F5
100
AcDbEntity
  8
SIMPLE
  6
CONTINUOUS
100
AcDbBlockReference
  2
TITAN_LUT_REGISTER_QOUT
 10
0.0
 20
0.0
 30
0.0
  0
INSERT
  5
FFFE2AF527A30938
100
AcDbEntity
  8
SIMPLE
  6
CONTINUOUS
 62
    50
100
AcDbBlockReference
 66
     1
  2
TITAN_LUT_REGISTER_REGOUT_PORT
 10
0.0
 20
0.0
 30
0.0
  0
ATTRIB
  5
FFFE2AF527A30939
100
AcDbEntity
  8
PORTS
  6
CONTINUOUS
 62
   249
100
AcDbText
 10
1860.0
 20
-200.0
 30
0.0
 40
7.071068
  1
RIGHT
  7
SIMPLEX
100
AcDbAttribute
  2
SIDE
 70
     0
  0
SEQEND
  5
FFFE2AF527A3093A
100
AcDbEntity
  8
SIMPLE
  6
CONTINUOUS
 62
    50
  0
INSERT
  5
FFFE2B631079023D
100
AcDbEntity
  8
SIMPLE
  6
CONTINUOUS
100
AcDbBlockReference
  2
TITAN_LUT_REGISTER_REGOUT_WIRE
 10
0.0
 20
0.0
 30
0.0
  0
ATTDEF
  5
FFFE2AE2D62A0A56
100
AcDbEntity
  8
SIMPLE
  6
CONTINUOUS
100
AcDbText
 10
1170.0
 20
-525.0
 30
0.0
 40
20.0
  1

  7
SIMPLEX
100
AcDbAttributeDefinition
  3

  2
index
 70
     0
  0
ENDBLK
  5
FFFF4FE8149F473D
100
AcDbEntity
  8
SIMPLE
  6
CONTINUOUS
 62
    50
100
AcDbBlockEnd
  0
BLOCK
  5
FFFE2AD0A953FE69
100
AcDbEntity
  8
SIMPLE
  6
CONTINUOUS
100
AcDbBlockBegin
  2
TITAN_ALM_DATAIN_REG_0
 70
     0
 10
0.0
 20
0.0
 30
0.0
  1

  0
POLYLINE
  5
FFFE2AD08DD9C76F
100
AcDbEntity
  8
DETAIL_MEDIUM
100
AcDb2dPolyline
 66
     1
 10
0.0
 20
0.0
 30
0.0
 39
2.0
 70
     1
  0
VERTEX
  5
FFFE2AD08DD9C770
100
AcDbEntity
  8
DETAIL_MEDIUM
100
AcDbVertex
100
AcDb2dVertex
 10
1225.0
 20
-186.628159
 30
0.0
  0
VERTEX
  5
FFFE2AD08DD9C771
100
AcDbEntity
  8
DETAIL_MEDIUM
100
AcDbVertex
100
AcDb2dVertex
 10
1255.0
 20
-196.628159
 30
0.0
  0
VERTEX
  5
FFFE2AD08DD9C772
100
AcDbEntity
  8
DETAIL_MEDIUM
100
AcDbVertex
100
AcDb2dVertex
 10
1255.0
 20
-236.628159
 30
0.0
  0
VERTEX
  5
FFFE2AD08DD9C773
100
AcDbEntity
  8
DETAIL_MEDIUM
100
AcDbVertex
100
AcDb2dVertex
 10
1225.0
 20
-246.628159
 30
0.0
  0
VERTEX
  5
FFFE2AD08DD9C774
100
AcDbEntity
  8
DETAIL_MEDIUM
100
AcDbVertex
100
AcDb2dVertex
 10
1225.0
 20
-186.628159
 30
0.0
  0
SEQEND
  5
FFFE2AD08DD9C775
100
AcDbEntity
  8
DETAIL_MEDIUM
  0
INSERT
  5
FFFE2AD097028472
100
AcDbEntity
  8
SIMPLE
  6
CONTINUOUS
100
AcDbBlockReference
  2
TITAN_ALM_DATAIN_REG_0_SEL_REG
 10
0.0
 20
0.0
 30
0.0
  0
INSERT
  5
FFFE2AD0A953FE68
100
AcDbEntity
  8
SIMPLE
  6
CONTINUOUS
100
AcDbBlockReference
  2
TITAN_ALM_DATAIN_REG_0_SEL_CASC
 10
0.0
 20
0.0
 30
0.0
  0
LINE
  5
FFFE2AD08DD9C778
100
AcDbEntity
  8
SIMPLE
  6
CONTINUOUS
100
AcDbLine
 10
1315.0
 20
-215.0
 30
0.0
 11
1255.0
 21
-215.0
 31
0.0
  0
LINE
  5
FFFE2AD08DD9C779
100
AcDbEntity
  8
DETAIL_MEDIUM
  6
CONTINUOUS
100
AcDbLine
 10
1395.0
 20
-215.0
 30
0.0
 11
1445.0
 21
-215.0
 31
0.0
  0
ENDBLK
  5
FFFE2AD0A953FE6A
100
AcDbEntity
  8
SIMPLE
  6
CONTINUOUS
100
AcDbBlockEnd
  0
BLOCK
  5
FFFE2AD1A9C89C34
100
AcDbEntity
  8
SIMPLE
  6
CONTINUOUS
100
AcDbBlockBegin
  2
TITAN_ALM_ADATASDATA_REG_0
 70
     0
 10
0.0
 20
0.0
 30
0.0
  1

  0
POLYLINE
  5
FFFE2AD0CDF6EF36
100
AcDbEntity
  8
DETAIL_MEDIUM
100
AcDb2dPolyline
 66
     1
 10
0.0
 20
0.0
 30
0.0
 39
2.0
 70
     1
  0
VERTEX
  5
FFFE2AD0CDF6EF37
100
AcDbEntity
  8
DETAIL_MEDIUM
100
AcDbVertex
100
AcDb2dVertex
 10
1225.0
 20
-305.0
 30
0.0
  0
VERTEX
  5
FFFE2AD0CDF6EF38
100
AcDbEntity
  8
DETAIL_MEDIUM
100
AcDbVertex
100
AcDb2dVertex
 10
1255.0
 20
-315.0
 30
0.0
  0
VERTEX
  5
FFFE2AD0CDF6EF39
100
AcDbEntity
  8
DETAIL_MEDIUM
100
AcDbVertex
100
AcDb2dVertex
 10
1255.0
 20
-355.0
 30
0.0
  0
VERTEX
  5
FFFE2AD0CDF6EF3A
100
AcDbEntity
  8
DETAIL_MEDIUM
100
AcDbVertex
100
AcDb2dVertex
 10
1225.0
 20
-365.0
 30
0.0
  0
VERTEX
  5
FFFE2AD0CDF6EF3B
100
AcDbEntity
  8
DETAIL_MEDIUM
100
AcDbVertex
100
AcDb2dVertex
 10
1225.0
 20
-305.0
 30
0.0
  0
SEQEND
  5
FFFE2AD0CDF6EF3C
100
AcDbEntity
  8
DETAIL_MEDIUM
  0
INSERT
  5
FFFE2AD1A9C89C33
100
AcDbEntity
  8
DETAIL_MEDIUM
  6
CONTINUOUS
100
AcDbBlockReference
  2
TITAN_ALM_ADATASDATA_0_SEL_E
 10
0.0
 20
0.0
 30
0.0
  0
INSERT
  5
FFFE2AD1173CD391
100
AcDbEntity
  8
DETAIL_MEDIUM
  6
CONTINUOUS
100
AcDbBlockReference
  2
TITAN_ALM_ADATASDATA_0_SEL_F
 10
0.0
 20
0.0
 30
0.0
  0
LINE
  5
FFFE2AD0CDF6EF3F
100
AcDbEntity
  8
SIMPLE
  6
CONTINUOUS
100
AcDbLine
 10
1255.0
 20
-335.0
 30
0.0
 11
1282.667518
 21
-335.0
 31
0.0
  0
LINE
  5
FFFE2AD0CDF6EF40
100
AcDbEntity
  8
SIMPLE
  6
CONTINUOUS
100
AcDbLine
 10
1282.667518
 20
-335.0
 30
0.0
 11
1282.667518
 21
-244.708814
 31
0.0
  0
LINE
  5
FFFE2AD0CDF6EF41
100
AcDbEntity
  8
SIMPLE
  6
CONTINUOUS
100
AcDbLine
 10
1282.667518
 20
-244.708814
 30
0.0
 11
1315.0
 21
-244.708814
 31
0.0
  0
LINE
  5
FFFE2AD0CDF6EF42
100
AcDbEntity
  8
DETAIL_MEDIUM
  6
CONTINUOUS
100
AcDbLine
 10
1395.0
 20
-245.0
 30
0.0
 11
1420.0
 21
-245.0
 31
0.0
  0
ENDBLK
  5
FFFE2AD1A9C89C35
100
AcDbEntity
  8
SIMPLE
  6
CONTINUOUS
100
AcDbBlockEnd
  0
BLOCK
  5
FFFE2AD084FA53E1
100
AcDbEntity
  8
SIMPLE
  6
CONTINUOUS
100
AcDbBlockBegin
  2
TITAN_ALM_ADATASDATA_REG_1
 70
     0
 10
0.0
 20
0.0
 30
0.0
  1

  0
LINE
  5
FFFE2AD084C35FD4
100
AcDbEntity
  8
DETAIL_MEDIUM
  6
CONTINUOUS
100
AcDbLine
 10
1395.0
 20
-794.956401
 30
0.0
 11
1420.0
 21
-794.956401
 31
0.0
  0
LINE
  5
FFFE2AD084C35FD3
100
AcDbEntity
  8
SIMPLE
  6
CONTINUOUS
100
AcDbLine
 10
1282.667518
 20
-794.665216
 30
0.0
 11
1315.0
 21
-794.665216
 31
0.0
  0
LINE
  5
FFFE2AD084C35FD2
100
AcDbEntity
  8
SIMPLE
  6
CONTINUOUS
100
AcDbLine
 10
1282.667518
 20
-884.956401
 30
0.0
 11
1282.667518
 21
-794.665216
 31
0.0
  0
LINE
  5
FFFE2AD084C35FD1
100
AcDbEntity
  8
SIMPLE
  6
CONTINUOUS
100
AcDbLine
 10
1255.0
 20
-884.956401
 30
0.0
 11
1282.667518
 21
-884.956401
 31
0.0
  0
POLYLINE
  5
FFFE2AD084C35FCA
100
AcDbEntity
  8
DETAIL_MEDIUM
100
AcDb2dPolyline
 66
     1
 10
0.0
 20
0.0
 30
0.0
 39
2.0
 70
     1
  0
VERTEX
  5
FFFE2AD084C35FCB
100
AcDbEntity
  8
DETAIL_MEDIUM
100
AcDbVertex
100
AcDb2dVertex
 10
1225.0
 20
-854.956401
 30
0.0
  0
VERTEX
  5
FFFE2AD084C35FCC
100
AcDbEntity
  8
DETAIL_MEDIUM
100
AcDbVertex
100
AcDb2dVertex
 10
1255.0
 20
-864.956401
 30
0.0
  0
VERTEX
  5
FFFE2AD084C35FCD
100
AcDbEntity
  8
DETAIL_MEDIUM
100
AcDbVertex
100
AcDb2dVertex
 10
1255.0
 20
-904.956401
 30
0.0
  0
VERTEX
  5
FFFE2AD084C35FCE
100
AcDbEntity
  8
DETAIL_MEDIUM
100
AcDbVertex
100
AcDb2dVertex
 10
1225.0
 20
-914.956401
 30
0.0
  0
VERTEX
  5
FFFE2AD084C35FCF
100
AcDbEntity
  8
DETAIL_MEDIUM
100
AcDbVertex
100
AcDb2dVertex
 10
1225.0
 20
-854.956401
 30
0.0
  0
SEQEND
  5
FFFE2AD084C35FD0
100
AcDbEntity
  8
DETAIL_MEDIUM
  0
INSERT
  5
FFFE2AD084D5B12C
100
AcDbEntity
  8
DETAIL_MEDIUM
  6
CONTINUOUS
100
AcDbBlockReference
  2
TITAN_ALM_ADATASDATA_1_SEL_E
 10
0.0
 20
0.0
 30
0.0
  0
INSERT
  5
FFFE2AD084FA53E0
100
AcDbEntity
  8
DETAIL_MEDIUM
  6
CONTINUOUS
100
AcDbBlockReference
  2
TITAN_ALM_ADATASDATA_1_SEL_F
 10
0.0
 20
0.0
 30
0.0
  0
ENDBLK
  5
FFFE2AD084FA53E2
100
AcDbEntity
  8
SIMPLE
  6
CONTINUOUS
100
AcDbBlockEnd
  0
BLOCK
  5
FFFE2AD084B10E8A
100
AcDbEntity
  8
DETAIL_MEDIUM
  6
CONTINUOUS
100
AcDbBlockBegin
  2
TITAN_ALM_DATAIN_REG_1
 70
     0
 10
0.0
 20
0.0
 30
0.0
  1

  0
LINE
  5
FFFE2AD084B108CE
100
AcDbEntity
  8
DETAIL_MEDIUM
  6
CONTINUOUS
100
AcDbLine
 10
1395.0
 20
-764.956401
 30
0.0
 11
1445.0
 21
-764.956401
 31
0.0
  0
ENDBLK
  5
FFFE2AD084B10E8C
100
AcDbEntity
  8
DETAIL_MEDIUM
  6
CONTINUOUS
100
AcDbBlockEnd
  0
BLOCK
  5
FFFF4FE814B9677D
100
AcDbEntity
  8
SIMPLE
  6
CONTINUOUS
100
AcDbBlockBegin
  2
TITAN_LUT_FF_REGOUT_WIRE2
 70
     0
 10
0.0
 20
0.0
 30
0.0
  1

  0
LINE
  5
FFFF4FE8149F55AB
100
AcDbEntity
  8
SIMPLE
  6
CONTINUOUS
100
AcDbLine
 10
1107.867715
 20
-591.6449
 30
0.0
 11
1107.867715
 21
-229.361532
 31
0.0
  0
LINE
  5
FFFF4FE814A5CE83
100
AcDbEntity
  8
SIMPLE
  6
CONTINUOUS
100
AcDbLine
 10
1107.867715
 20
-229.361532
 30
0.0
 11
1225.0
 21
-229.361532
 31
0.0
  0
ENDBLK
  5
FFFF4FE814B9677E
100
AcDbEntity
  8
SIMPLE
  6
CONTINUOUS
100
AcDbBlockEnd
  0
BLOCK
  5
FFFF4FE814B96777
100
AcDbEntity
  8
SIMPLE
  6
CONTINUOUS
100
AcDbBlockBegin
  2
TITAN_LUT_FF_REGOUT_WIRE0
 70
     0
 10
0.0
 20
0.0
 30
0.0
  1

  0
LINE
  5
FFFF4FE814A5CE89
100
AcDbEntity
  8
SIMPLE
  6
CONTINUOUS
100
AcDbLine
 10
1107.867715
 20
-657.987241
 30
0.0
 11
1026.076518
 21
-657.987241
 31
0.0
  0
LINE
  5
FFFF4FE8149F55A4
100
AcDbEntity
  8
SIMPLE
  6
CONTINUOUS
100
AcDbLine
 10
1107.867715
 20
-657.987241
 30
0.0
 11
1107.867715
 21
-591.6449
 31
0.0
  0
ENDBLK
  5
FFFF4FE814B96778
100
AcDbEntity
  8
SIMPLE
  6
CONTINUOUS
100
AcDbBlockEnd
  0
BLOCK
  5
FFFF4FE814B9677A
100
AcDbEntity
  8
SIMPLE
  6
CONTINUOUS
100
AcDbBlockBegin
  2
TITAN_LUT_FF_REGOUT_WIRE1
 70
     0
 10
0.0
 20
0.0
 30
0.0
  1

  0
LINE
  5
FFFF4FE814A5CE85
100
AcDbEntity
  8
SIMPLE
  6
CONTINUOUS
100
AcDbLine
 10
1107.867715
 20
-591.6449
 30
0.0
 11
1844.752893
 21
-591.6449
 31
0.0
  0
LINE
  5
74FFA48D8F57
100
AcDbEntity
  8
DETAIL_MEDIUM
  6
CONTINUOUS
100
AcDbLine
 10
1844.752893
 20
-586.075247
 30
0.0
 11
1844.752893
 21
-596.075247
 31
0.0
  0
LINE
  5
74FFA48D8F58
100
AcDbEntity
  8
DETAIL_MEDIUM
  6
CONTINUOUS
100
AcDbLine
 10
1844.752893
 20
-596.075247
 30
0.0
 11
1854.752893
 21
-596.075247
 31
0.0
  0
LINE
  5
74FFA48D8F59
100
AcDbEntity
  8
DETAIL_MEDIUM
  6
CONTINUOUS
100
AcDbLine
 10
1854.752893
 20
-596.075247
 30
0.0
 11
1854.752893
 21
-586.075247
 31
0.0
  0
LINE
  5
74FFA48D8F5A
100
AcDbEntity
  8
DETAIL_MEDIUM
  6
CONTINUOUS
100
AcDbLine
 10
1854.752893
 20
-586.075247
 30
0.0
 11
1844.752893
 21
-586.075247
 31
0.0
  0
LINE
  5
74FFA48D8F5B
100
AcDbEntity
  8
DETAIL_MEDIUM
  6
CONTINUOUS
100
AcDbLine
 10
1844.752893
 20
-596.075247
 30
0.0
 11
1854.752893
 21
-586.075247
 31
0.0
  0
LINE
  5
74FFA48D8F5C
100
AcDbEntity
  8
DETAIL_MEDIUM
  6
CONTINUOUS
100
AcDbLine
 10
1844.752893
 20
-586.075247
 30
0.0
 11
1854.752893
 21
-596.075247
 31
0.0
  0
ENDBLK
  5
FFFF4FE814B9677B
100
AcDbEntity
  8
SIMPLE
  6
CONTINUOUS
100
AcDbBlockEnd
  0
BLOCK
  5
FFFF4FE814B96780
100
AcDbEntity
  8
DETAIL_MEDIUM
  6
CONTINUOUS
100
AcDbBlockBegin
  2
TITAN_LUT_FF_REGOUT_POINT
 70
     0
 10
0.0
 20
0.0
 30
0.0
  1

  0
POINT
  5
74FFA48D9085
100
AcDbEntity
  8
DETAIL_MEDIUM
  6
CONTINUOUS
100
AcDbPoint
 10
1107.867715
 20
-591.6449
 30
0.0
  0
ENDBLK
  5
FFFF4FE814B96781
100
AcDbEntity
  8
DETAIL_MEDIUM
  6
CONTINUOUS
100
AcDbBlockEnd
  0
BLOCK
  5
FFFF4FE814B96783
100
AcDbEntity
  8
PORTS
  6
CONTINUOUS
100
AcDbBlockBegin
  2
TITAN_LUT_FF_REGOUT
 70
     2
 10
0.0
 20
0.0
 30
0.0
  1

  0
ATTDEF
  5
74FFA48D8F47
100
AcDbEntity
  8
PORTS
  6
CONTINUOUS
100
AcDbText
 10
961.076518
 20
-642.987241
 30
0.0
 40
7.071068
  1

  7
SIMPLEX
100
AcDbAttributeDefinition
  3

  2
SIDE
 70
     0
  0
POLYLINE
  5
74FFA48D8F48
100
AcDbEntity
  8
PORTS
  6
CONTINUOUS
100
AcDb2dPolyline
 66
     1
 10
0.0
 20
0.0
 30
0.0
 70
     1
  0
VERTEX
  5
74FFA48D8F49
100
AcDbEntity
  8
PORTS
  6
CONTINUOUS
100
AcDbVertex
100
AcDb2dVertex
 10
1026.076518
 20
-657.987241
 30
0.0
  0
VERTEX
  5
74FFA48D8F4A
100
AcDbEntity
  8
PORTS
  6
CONTINUOUS
100
AcDbVertex
100
AcDb2dVertex
 10
1018.076518
 20
-663.987241
 30
0.0
  0
VERTEX
  5
74FFA48D8F4B
100
AcDbEntity
  8
PORTS
  6
CONTINUOUS
100
AcDbVertex
100
AcDb2dVertex
 10
946.076518
 20
-663.987241
 30
0.0
  0
VERTEX
  5
74FFA48D8F4C
100
AcDbEntity
  8
PORTS
  6
CONTINUOUS
100
AcDbVertex
100
AcDb2dVertex
 10
946.076518
 20
-651.987241
 30
0.0
  0
VERTEX
  5
74FFA48D8F4D
100
AcDbEntity
  8
PORTS
  6
CONTINUOUS
100
AcDbVertex
100
AcDb2dVertex
 10
1018.076518
 20
-651.987241
 30
0.0
  0
VERTEX
  5
74FFA48D8F4E
100
AcDbEntity
  8
PORTS
  6
CONTINUOUS
100
AcDbVertex
100
AcDb2dVertex
 10
1026.076518
 20
-657.987241
 30
0.0
  0
SEQEND
  5
74FFA48D8F4F
100
AcDbEntity
  8
PORTS
  6
CONTINUOUS
  0
POINT
  5
74FFA48D8F50
100
AcDbEntity
  8
PORTS
  6
CONTINUOUS
100
AcDbPoint
 10
946.076518
 20
-656.977159
 30
0.0
  0
ENDBLK
  5
FFFF4FE814B96784
100
AcDbEntity
  8
PORTS
  6
CONTINUOUS
100
AcDbBlockEnd
  0
BLOCK
  5
FFFE2AD084B11ACC
100
AcDbEntity
  8
PORTS
  6
CONTINUOUS
100
AcDbBlockBegin
  2
TITAN_LUT_FF_CLK_ENABLE_PORT
 70
     2
 10
0.0
 20
0.0
 30
0.0
  1

  0
POLYLINE
  5
FFFB12C250C10D9D
100
AcDbEntity
  8
PORTS
  6
CONTINUOUS
100
AcDb2dPolyline
 66
     1
 10
0.0
 20
0.0
 30
0.0
 70
     1
  0
VERTEX
  5
FFFB12C250C10D9E
100
AcDbEntity
  8
PORTS
  6
CONTINUOUS
100
AcDbVertex
100
AcDb2dVertex
 10
285.0
 20
-80.0
 30
0.0
  0
VERTEX
  5
FFFB12C250C10D9F
100
AcDbEntity
  8
PORTS
  6
CONTINUOUS
100
AcDbVertex
100
AcDb2dVertex
 10
277.0
 20
-86.0
 30
0.0
  0
VERTEX
  5
FFFB12C250C10DA0
100
AcDbEntity
  8
PORTS
  6
CONTINUOUS
100
AcDbVertex
100
AcDb2dVertex
 10
205.0
 20
-86.0
 30
0.0
  0
VERTEX
  5
FFFB12C250C10DA1
100
AcDbEntity
  8
PORTS
  6
CONTINUOUS
100
AcDbVertex
100
AcDb2dVertex
 10
205.0
 20
-74.0
 30
0.0
  0
VERTEX
  5
FFFB12C250C10DA2
100
AcDbEntity
  8
PORTS
  6
CONTINUOUS
100
AcDbVertex
100
AcDb2dVertex
 10
277.0
 20
-74.0
 30
0.0
  0
VERTEX
  5
FFFB12C250C10DA3
100
AcDbEntity
  8
PORTS
  6
CONTINUOUS
100
AcDbVertex
100
AcDb2dVertex
 10
285.0
 20
-80.0
 30
0.0
  0
SEQEND
  5
FFFB12C250C10DA4
100
AcDbEntity
  8
PORTS
  6
CONTINUOUS
  0
ATTDEF
  5
FFFB12C250C10DA6
100
AcDbEntity
  8
PORTS
  6
CONTINUOUS
100
AcDbText
 10
230.0
 20
-70.0
 30
0.0
 40
7.071068
  1

  7
SIMPLEX
100
AcDbAttributeDefinition
  3

  2
SIDE
 70
     0
  0
POINT
  5
FFFB12C250C10DA5
100
AcDbEntity
  8
PORTS
  6
CONTINUOUS
100
AcDbPoint
 10
285.0
 20
-80.0
 30
0.0
  0
ENDBLK
  5
FFFE2AD084B11ACE
100
AcDbEntity
  8
PORTS
  6
CONTINUOUS
100
AcDbBlockEnd
  0
BLOCK
  5
FFFE2AD084B11AD2
100
AcDbEntity
  8
DETAIL_MEDIUM
  6
CONTINUOUS
100
AcDbBlockBegin
  2
TITAN_LUT_FF_CLK_ENABLE_WIRE0
 70
     0
 10
0.0
 20
0.0
 30
0.0
  1

  0
LINE
  5
1534F2A0908571B5
100
AcDbEntity
  8
DETAIL_MEDIUM
  6
CONTINUOUS
100
AcDbLine
 10
30.0
 20
-85.0
 30
0.0
 11
30.0
 21
-75.0
 31
0.0
  0
LINE
  5
1534F2A0908571B6
100
AcDbEntity
  8
DETAIL_MEDIUM
  6
CONTINUOUS
100
AcDbLine
 10
30.0
 20
-75.0
 30
0.0
 11
20.0
 21
-75.0
 31
0.0
  0
LINE
  5
1534F2A0908571B7
100
AcDbEntity
  8
DETAIL_MEDIUM
  6
CONTINUOUS
100
AcDbLine
 10
20.0
 20
-75.0
 30
0.0
 11
20.0
 21
-85.0
 31
0.0
  0
LINE
  5
1534F2A0908571B8
100
AcDbEntity
  8
DETAIL_MEDIUM
  6
CONTINUOUS
100
AcDbLine
 10
20.0
 20
-85.0
 30
0.0
 11
30.0
 21
-85.0
 31
0.0
  0
LINE
  5
1534F2A0908571B9
100
AcDbEntity
  8
DETAIL_MEDIUM
  6
CONTINUOUS
100
AcDbLine
 10
30.0
 20
-85.0
 30
0.0
 11
20.0
 21
-75.0
 31
0.0
  0
LINE
  5
1534F2A0908571BA
100
AcDbEntity
  8
DETAIL_MEDIUM
  6
CONTINUOUS
100
AcDbLine
 10
30.0
 20
-75.0
 30
0.0
 11
20.0
 21
-85.0
 31
0.0
  0
LINE
  5
1534F2A0908571BB
100
AcDbEntity
  8
DETAIL_MEDIUM
  6
CONTINUOUS
100
AcDbLine
 10
75.0
 20
-80.0
 30
0.0
 11
30.0
 21
-80.0
 31
0.0
  0
ENDBLK
  5
FFFE2AD084B11AD4
100
AcDbEntity
  8
DETAIL_MEDIUM
  6
CONTINUOUS
100
AcDbBlockEnd
  0
BLOCK
  5
FFFF4FE814B9678B
100
AcDbEntity
  8
SIMPLE
  6
CONTINUOUS
100
AcDbBlockBegin
  2
TITAN_LUT_FF_CLK_ENABLE_WIRE1
 70
     0
 10
0.0
 20
0.0
 30
0.0
  1

  0
LINE
  5
FFFF4FE8149F62BE
100
AcDbEntity
  8
DETAIL_MEDIUM
  6
CONTINUOUS
100
AcDbLine
 10
75.0
 20
-80.0
 30
0.0
 11
205.0
 21
-80.0
 31
0.0
  0
LINE
  5
FFFF4FE814B96757
100
AcDbEntity
  8
SIMPLE
  6
CONTINUOUS
100
AcDbLine
 10
370.790302
 20
-80.0
 30
0.0
 11
285.0
 21
-80.0
 31
0.0
  0
LINE
  5
FFFF4FE814B96750
100
AcDbEntity
  8
SIMPLE
  6
CONTINUOUS
100
AcDbLine
 10
370.790302
 20
-80.0
 30
0.0
 11
370.790302
 21
-869.933657
 31
0.0
  0
LINE
  5
FFFF4FE814B96761
100
AcDbEntity
  8
SIMPLE
  6
CONTINUOUS
100
AcDbLine
 10
370.790302
 20
-869.933657
 30
0.0
 11
570.260476
 21
-869.933657
 31
0.0
  0
ENDBLK
  5
FFFF4FE814B9678C
100
AcDbEntity
  8
SIMPLE
  6
CONTINUOUS
100
AcDbBlockEnd
  0
BLOCK
  5
FFFE2AD084B11ADA
100
AcDbEntity
  8
PORTS
  6
CONTINUOUS
100
AcDbBlockBegin
  2
TITAN_LUT_FF_CLK_PORT
 70
     2
 10
0.0
 20
0.0
 30
0.0
  1

  0
ATTDEF
  5
FFFB13260DC5A75F
100
AcDbEntity
  8
PORTS
  6
CONTINUOUS
100
AcDbText
 10
230.0
 20
-255.0
 30
0.0
 40
7.071068
  1

  7
SIMPLEX
100
AcDbAttributeDefinition
  3

  2
SIDE
 70
     0
  0
POLYLINE
  5
FFFB13260DC5A760
100
AcDbEntity
  8
PORTS
  6
CONTINUOUS
100
AcDb2dPolyline
 66
     1
 10
0.0
 20
0.0
 30
0.0
 70
     1
  0
VERTEX
  5
FFFB13260DC5A761
100
AcDbEntity
  8
PORTS
  6
CONTINUOUS
100
AcDbVertex
100
AcDb2dVertex
 10
285.0
 20
-265.0
 30
0.0
  0
VERTEX
  5
FFFB13260DC5A762
100
AcDbEntity
  8
PORTS
  6
CONTINUOUS
100
AcDbVertex
100
AcDb2dVertex
 10
277.0
 20
-271.0
 30
0.0
  0
VERTEX
  5
FFFB13260DC5A763
100
AcDbEntity
  8
PORTS
  6
CONTINUOUS
100
AcDbVertex
100
AcDb2dVertex
 10
205.0
 20
-271.0
 30
0.0
  0
VERTEX
  5
FFFB13260DC5A764
100
AcDbEntity
  8
PORTS
  6
CONTINUOUS
100
AcDbVertex
100
AcDb2dVertex
 10
205.0
 20
-259.0
 30
0.0
  0
VERTEX
  5
FFFB13260DC5A765
100
AcDbEntity
  8
PORTS
  6
CONTINUOUS
100
AcDbVertex
100
AcDb2dVertex
 10
277.0
 20
-259.0
 30
0.0
  0
VERTEX
  5
FFFB13260DC5A766
100
AcDbEntity
  8
PORTS
  6
CONTINUOUS
100
AcDbVertex
100
AcDb2dVertex
 10
285.0
 20
-265.0
 30
0.0
  0
SEQEND
  5
FFFB13260DC5A767
100
AcDbEntity
  8
PORTS
  6
CONTINUOUS
  0
POINT
  5
FFFB13260DC5A768
100
AcDbEntity
  8
PORTS
  6
CONTINUOUS
100
AcDbPoint
 10
285.0
 20
-265.0
 30
0.0
  0
ENDBLK
  5
FFFE2AD084B11ADC
100
AcDbEntity
  8
PORTS
  6
CONTINUOUS
100
AcDbBlockEnd
  0
BLOCK
  5
FFFF4FE814B9678E
100
AcDbEntity
  8
SIMPLE
  6
CONTINUOUS
100
AcDbBlockBegin
  2
TITAN_LUT_FF_CLK_WIRE0
 70
     0
 10
0.0
 20
0.0
 30
0.0
  1

  0
LINE
  5
FFFF4FE814AC57DA
100
AcDbEntity
  8
DETAIL_MEDIUM
  6
CONTINUOUS
100
AcDbLine
 10
30.0
 20
-270.0
 30
0.0
 11
30.0
 21
-260.0
 31
0.0
  0
LINE
  5
FFFF4FE814AC57DB
100
AcDbEntity
  8
DETAIL_MEDIUM
  6
CONTINUOUS
100
AcDbLine
 10
30.0
 20
-260.0
 30
0.0
 11
20.0
 21
-260.0
 31
0.0
  0
LINE
  5
FFFF4FE814AC57DC
100
AcDbEntity
  8
DETAIL_MEDIUM
  6
CONTINUOUS
100
AcDbLine
 10
20.0
 20
-270.0
 30
0.0
 11
30.0
 21
-270.0
 31
0.0
  0
LINE
  5
FFFF4FE814AC57DD
100
AcDbEntity
  8
DETAIL_MEDIUM
  6
CONTINUOUS
100
AcDbLine
 10
30.0
 20
-270.0
 30
0.0
 11
20.0
 21
-260.0
 31
0.0
  0
LINE
  5
FFFF4FE814AC57DE
100
AcDbEntity
  8
DETAIL_MEDIUM
  6
CONTINUOUS
100
AcDbLine
 10
20.0
 20
-270.0
 30
0.0
 11
30.0
 21
-260.0
 31
0.0
  0
LINE
  5
FFFF4FE814AC57DF
100
AcDbEntity
  8
DETAIL_MEDIUM
  6
CONTINUOUS
100
AcDbLine
 10
20.0
 20
-260.0
 30
0.0
 11
20.0
 21
-270.0
 31
0.0
  0
LINE
  5
FFFF4FE814AC57E0
100
AcDbEntity
  8
DETAIL_MEDIUM
  6
CONTINUOUS
100
AcDbLine
 10
30.0
 20
-265.0
 30
0.0
 11
205.0
 21
-265.0
 31
0.0
  0
LINE
  5
FFFF4FE814B96759
100
AcDbEntity
  8
SIMPLE
  6
CONTINUOUS
100
AcDbLine
 10
285.0
 20
-265.0
 30
0.0
 11
401.471082
 21
-265.0
 31
0.0
  0
LINE
  5
FFFF4FE814B9674C
100
AcDbEntity
  8
SIMPLE
  6
CONTINUOUS
100
AcDbLine
 10
401.471082
 20
-265.0
 30
0.0
 11
401.471082
 21
-790.948302
 31
0.0
  0
LINE
  5
FFFF4FE814B9675F
100
AcDbEntity
  8
SIMPLE
  6
CONTINUOUS
100
AcDbLine
 10
401.471082
 20
-790.948302
 30
0.0
 11
570.260476
 21
-790.948302
 31
0.0
  0
ENDBLK
  5
FFFF4FE814B9678F
100
AcDbEntity
  8
SIMPLE
  6
CONTINUOUS
100
AcDbBlockEnd
  0
BLOCK
  5
FFFE2AD084B11B64
100
AcDbEntity
  8
PORTS
  6
CONTINUOUS
100
AcDbBlockBegin
  2
TITAN_LUT_FF_ACLR_PORT
 70
     2
 10
0.0
 20
0.0
 30
0.0
  1

  0
POLYLINE
  5
14E92D45A805CF6F
100
AcDbEntity
  8
PORTS
  6
CONTINUOUS
100
AcDb2dPolyline
 66
     1
 10
0.0
 20
0.0
 30
0.0
 70
     1
  0
VERTEX
  5
14E92D45A805CF70
100
AcDbEntity
  8
PORTS
  6
CONTINUOUS
100
AcDbVertex
100
AcDb2dVertex
 10
285.0
 20
-360.0
 30
0.0
  0
VERTEX
  5
14E92D45A805CF71
100
AcDbEntity
  8
PORTS
  6
CONTINUOUS
100
AcDbVertex
100
AcDb2dVertex
 10
277.0
 20
-366.0
 30
0.0
  0
VERTEX
  5
14E92D45A805CF72
100
AcDbEntity
  8
PORTS
  6
CONTINUOUS
100
AcDbVertex
100
AcDb2dVertex
 10
205.0
 20
-366.0
 30
0.0
  0
VERTEX
  5
14E92D45A805CF73
100
AcDbEntity
  8
PORTS
  6
CONTINUOUS
100
AcDbVertex
100
AcDb2dVertex
 10
205.0
 20
-354.0
 30
0.0
  0
VERTEX
  5
14E92D45A805CF74
100
AcDbEntity
  8
PORTS
  6
CONTINUOUS
100
AcDbVertex
100
AcDb2dVertex
 10
277.0
 20
-354.0
 30
0.0
  0
VERTEX
  5
14E92D45A805CF75
100
AcDbEntity
  8
PORTS
  6
CONTINUOUS
100
AcDbVertex
100
AcDb2dVertex
 10
285.0
 20
-360.0
 30
0.0
  0
SEQEND
  5
14E92D45A805CF76
100
AcDbEntity
  8
PORTS
  6
CONTINUOUS
  0
POINT
  5
14E92D45A805CF77
100
AcDbEntity
  8
PORTS
  6
CONTINUOUS
100
AcDbPoint
 10
285.0
 20
-360.0
 30
0.0
  0
ATTDEF
  5
14E92D45A805CF6E
100
AcDbEntity
  8
PORTS
  6
CONTINUOUS
100
AcDbText
 10
230.0
 20
-350.0
 30
0.0
 40
7.071068
  1

  7
SIMPLEX
100
AcDbAttributeDefinition
  3

  2
SIDE
 70
     0
  0
ENDBLK
  5
FFFE2AD084B11B66
100
AcDbEntity
  8
PORTS
  6
CONTINUOUS
100
AcDbBlockEnd
  0
BLOCK
  5
FFFF4FE814B96791
100
AcDbEntity
  8
SIMPLE
  6
CONTINUOUS
100
AcDbBlockBegin
  2
TITAN_LUT_FF_ACLR_WIRE0
 70
     0
 10
0.0
 20
0.0
 30
0.0
  1

  0
LINE
  5
FFFF4FE814B96725
100
AcDbEntity
  8
SIMPLE
  6
CONTINUOUS
100
AcDbLine
 10
30.0
 20
-360.0
 30
0.0
 11
45.0
 21
-360.0
 31
0.0
  0
LINE
  5
FFFF4FE814B96726
100
AcDbEntity
  8
DETAIL_MEDIUM
  6
CONTINUOUS
100
AcDbLine
 10
30.0
 20
-365.0
 30
0.0
 11
30.0
 21
-355.0
 31
0.0
  0
LINE
  5
FFFF4FE814B96727
100
AcDbEntity
  8
DETAIL_MEDIUM
  6
CONTINUOUS
100
AcDbLine
 10
30.0
 20
-355.0
 30
0.0
 11
20.0
 21
-355.0
 31
0.0
  0
LINE
  5
FFFF4FE814B96728
100
AcDbEntity
  8
DETAIL_MEDIUM
  6
CONTINUOUS
100
AcDbLine
 10
20.0
 20
-355.0
 30
0.0
 11
20.0
 21
-365.0
 31
0.0
  0
LINE
  5
FFFF4FE814B96729
100
AcDbEntity
  8
DETAIL_MEDIUM
  6
CONTINUOUS
100
AcDbLine
 10
20.0
 20
-365.0
 30
0.0
 11
30.0
 21
-365.0
 31
0.0
  0
LINE
  5
FFFF4FE814B9672A
100
AcDbEntity
  8
DETAIL_MEDIUM
  6
CONTINUOUS
100
AcDbLine
 10
30.0
 20
-365.0
 30
0.0
 11
20.0
 21
-355.0
 31
0.0
  0
LINE
  5
FFFF4FE814B9672B
100
AcDbEntity
  8
DETAIL_MEDIUM
  6
CONTINUOUS
100
AcDbLine
 10
20.0
 20
-365.0
 30
0.0
 11
30.0
 21
-355.0
 31
0.0
  0
LINE
  5
FFFF4FE814B9672C
100
AcDbEntity
  8
DETAIL_MEDIUM
  6
CONTINUOUS
100
AcDbLine
 10
45.0
 20
-360.0
 30
0.0
 11
205.0
 21
-360.0
 31
0.0
  0
LINE
  5
FFFF4FE814B9675B
100
AcDbEntity
  8
SIMPLE
  6
CONTINUOUS
100
AcDbLine
 10
285.0
 20
-360.0
 30
0.0
 11
425.178957
 21
-360.0
 31
0.0
  0
LINE
  5
FFFF4FE814B96738
100
AcDbEntity
  8
SIMPLE
  6
CONTINUOUS
100
AcDbLine
 10
425.178957
 20
-360.0
 30
0.0
 11
425.178957
 21
-582.643427
 31
0.0
  0
LINE
  5
FFFF4FE814B9675D
100
AcDbEntity
  8
SIMPLE
  6
CONTINUOUS
100
AcDbLine
 10
425.178957
 20
-582.643427
 30
0.0
 11
678.992681
 21
-582.643427
 31
0.0
  0
LINE
  5
FFFF4FE814B9673A
100
AcDbEntity
  8
SIMPLE
  6
CONTINUOUS
100
AcDbLine
 10
678.992681
 20
-582.643427
 30
0.0
 11
678.992681
 21
-610.233967
 31
0.0
  0
ENDBLK
  5
FFFF4FE814B96792
100
AcDbEntity
  8
SIMPLE
  6
CONTINUOUS
100
AcDbBlockEnd
  0
BLOCK
  5
FFFE2AD084B11B76
100
AcDbEntity
  8
PORTS
  6
CONTINUOUS
100
AcDbBlockBegin
  2
TITAN_LUT_FF_SCLR_PORT
 70
     2
 10
0.0
 20
0.0
 30
0.0
  1

  0
POLYLINE
  5
FFFB157C7BE141BA
100
AcDbEntity
  8
PORTS
  6
CONTINUOUS
100
AcDb2dPolyline
 66
     1
 10
0.0
 20
0.0
 30
0.0
 70
     1
  0
VERTEX
  5
FFFB157C7BE141BB
100
AcDbEntity
  8
PORTS
  6
CONTINUOUS
100
AcDbVertex
100
AcDb2dVertex
 10
285.0
 20
-630.0
 30
0.0
  0
VERTEX
  5
FFFB157C7BE141BC
100
AcDbEntity
  8
PORTS
  6
CONTINUOUS
100
AcDbVertex
100
AcDb2dVertex
 10
277.0
 20
-636.0
 30
0.0
  0
VERTEX
  5
FFFB157C7BE141BD
100
AcDbEntity
  8
PORTS
  6
CONTINUOUS
100
AcDbVertex
100
AcDb2dVertex
 10
205.0
 20
-636.0
 30
0.0
  0
VERTEX
  5
FFFB157C7BE141BE
100
AcDbEntity
  8
PORTS
  6
CONTINUOUS
100
AcDbVertex
100
AcDb2dVertex
 10
205.0
 20
-624.0
 30
0.0
  0
VERTEX
  5
FFFB157C7BE141BF
100
AcDbEntity
  8
PORTS
  6
CONTINUOUS
100
AcDbVertex
100
AcDb2dVertex
 10
277.0
 20
-624.0
 30
0.0
  0
VERTEX
  5
FFFB157C7BE141C0
100
AcDbEntity
  8
PORTS
  6
CONTINUOUS
100
AcDbVertex
100
AcDb2dVertex
 10
285.0
 20
-630.0
 30
0.0
  0
SEQEND
  5
FFFB157C7BE141C1
100
AcDbEntity
  8
PORTS
  6
CONTINUOUS
  0
POINT
  5
FFFB157C7BE141C2
100
AcDbEntity
  8
PORTS
  6
CONTINUOUS
100
AcDbPoint
 10
285.0
 20
-630.0
 30
0.0
  0
ATTDEF
  5
FFFB157C7BE141B9
100
AcDbEntity
  8
PORTS
  6
CONTINUOUS
100
AcDbText
 10
230.0
 20
-620.0
 30
0.0
 40
7.071068
  1

  7
SIMPLEX
100
AcDbAttributeDefinition
  3

  2
SIDE
 70
     0
  0
ENDBLK
  5
FFFE2AD084B11B78
100
AcDbEntity
  8
PORTS
  6
CONTINUOUS
100
AcDbBlockEnd
  0
BLOCK
  5
FFFE2AD084B11B7C
100
AcDbEntity
  8
DETAIL_MEDIUM
  6
CONTINUOUS
100
AcDbBlockBegin
  2
TITAN_LUT_FF_SCLR_WIRE0
 70
     0
 10
0.0
 20
0.0
 30
0.0
  1

  0
LINE
  5
102CD797200ADDE1
100
AcDbEntity
  8
DETAIL_MEDIUM
  6
CONTINUOUS
100
AcDbLine
 10
30.0
 20
-635.0
 30
0.0
 11
30.0
 21
-625.0
 31
0.0
  0
LINE
  5
102CD797200ADDE2
100
AcDbEntity
  8
DETAIL_MEDIUM
  6
CONTINUOUS
100
AcDbLine
 10
30.0
 20
-625.0
 30
0.0
 11
20.0
 21
-625.0
 31
0.0
  0
LINE
  5
102CD797200ADDE3
100
AcDbEntity
  8
DETAIL_MEDIUM
  6
CONTINUOUS
100
AcDbLine
 10
20.0
 20
-625.0
 30
0.0
 11
20.0
 21
-635.0
 31
0.0
  0
LINE
  5
102CD797200ADDE4
100
AcDbEntity
  8
DETAIL_MEDIUM
  6
CONTINUOUS
100
AcDbLine
 10
20.0
 20
-635.0
 30
0.0
 11
30.0
 21
-635.0
 31
0.0
  0
LINE
  5
102CD797200ADDE5
100
AcDbEntity
  8
DETAIL_MEDIUM
  6
CONTINUOUS
100
AcDbLine
 10
30.0
 20
-635.0
 30
0.0
 11
20.0
 21
-625.0
 31
0.0
  0
LINE
  5
102CD797200ADDE6
100
AcDbEntity
  8
DETAIL_MEDIUM
  6
CONTINUOUS
100
AcDbLine
 10
20.0
 20
-635.0
 30
0.0
 11
30.0
 21
-625.0
 31
0.0
  0
LINE
  5
102CD797200ADDE7
100
AcDbEntity
  8
DETAIL_MEDIUM
  6
CONTINUOUS
100
AcDbLine
 10
75.0
 20
-630.0
 30
0.0
 11
30.0
 21
-630.0
 31
0.0
  0
ENDBLK
  5
FFFE2AD084B11B7E
100
AcDbEntity
  8
DETAIL_MEDIUM
  6
CONTINUOUS
100
AcDbBlockEnd
  0
BLOCK
  5
FFFF4FE814B96794
100
AcDbEntity
  8
SIMPLE
  6
CONTINUOUS
100
AcDbBlockBegin
  2
TITAN_LUT_FF_SCLR_WIRE1
 70
     0
 10
0.0
 20
0.0
 30
0.0
  1

  0
LINE
  5
FFFF4FE814A01968
100
AcDbEntity
  8
DETAIL_MEDIUM
  6
CONTINUOUS
100
AcDbLine
 10
75.0
 20
-630.0
 30
0.0
 11
205.0
 21
-630.0
 31
0.0
  0
LINE
  5
FFFF4FE814B96769
100
AcDbEntity
  8
SIMPLE
  6
CONTINUOUS
100
AcDbLine
 10
285.0
 20
-630.0
 30
0.0
 11
312.217904
 21
-630.0
 31
0.0
  0
ENDBLK
  5
FFFF4FE814B96795
100
AcDbEntity
  8
SIMPLE
  6
CONTINUOUS
100
AcDbBlockEnd
  0
BLOCK
  5
FFFE2AD084B11B84
100
AcDbEntity
  8
PORTS
  6
CONTINUOUS
100
AcDbBlockBegin
  2
TITAN_LUT_FF_DATAIN_PORT
 70
     2
 10
0.0
 20
0.0
 30
0.0
  1

  0
ATTDEF
  5
1055F0239B4A743
100
AcDbEntity
  8
PORTS
  6
CONTINUOUS
100
AcDbText
 10
230.0
 20
-900.0
 30
0.0
 40
7.071068
  1

  7
SIMPLEX
100
AcDbAttributeDefinition
  3

  2
SIDE
 70
     0
  0
POLYLINE
  5
1055F0239B4A744
100
AcDbEntity
  8
PORTS
  6
CONTINUOUS
100
AcDb2dPolyline
 66
     1
 10
0.0
 20
0.0
 30
0.0
 70
     1
  0
VERTEX
  5
1055F0239B4A745
100
AcDbEntity
  8
PORTS
  6
CONTINUOUS
100
AcDbVertex
100
AcDb2dVertex
 10
285.0
 20
-910.0
 30
0.0
  0
VERTEX
  5
1055F0239B4A746
100
AcDbEntity
  8
PORTS
  6
CONTINUOUS
100
AcDbVertex
100
AcDb2dVertex
 10
277.0
 20
-916.0
 30
0.0
  0
VERTEX
  5
1055F0239B4A747
100
AcDbEntity
  8
PORTS
  6
CONTINUOUS
100
AcDbVertex
100
AcDb2dVertex
 10
205.0
 20
-916.0
 30
0.0
  0
VERTEX
  5
1055F0239B4A748
100
AcDbEntity
  8
PORTS
  6
CONTINUOUS
100
AcDbVertex
100
AcDb2dVertex
 10
205.0
 20
-904.0
 30
0.0
  0
VERTEX
  5
1055F0239B4A749
100
AcDbEntity
  8
PORTS
  6
CONTINUOUS
100
AcDbVertex
100
AcDb2dVertex
 10
277.0
 20
-904.0
 30
0.0
  0
VERTEX
  5
1055F0239B4A74A
100
AcDbEntity
  8
PORTS
  6
CONTINUOUS
100
AcDbVertex
100
AcDb2dVertex
 10
285.0
 20
-910.0
 30
0.0
  0
SEQEND
  5
1055F0239B4A74B
100
AcDbEntity
  8
PORTS
  6
CONTINUOUS
  0
POINT
  5
1055F0239B4A74C
100
AcDbEntity
  8
PORTS
  6
CONTINUOUS
100
AcDbPoint
 10
285.0
 20
-910.0
 30
0.0
  0
ENDBLK
  5
FFFE2AD084B11B86
100
AcDbEntity
  8
PORTS
  6
CONTINUOUS
100
AcDbBlockEnd
  0
BLOCK
  5
FFFF4FE8149F479F
100
AcDbEntity
  8
SIMPLE
  6
CONTINUOUS
100
AcDbBlockBegin
  2
TITAN_LUT_FF_ADATASDATA_E1
 70
     0
 10
0.0
 20
0.0
 30
0.0
  1

  0
LINE
  5
74FFA48D5420
100
AcDbEntity
  8
DETAIL_MEDIUM
  6
CONTINUOUS
100
AcDbLine
 10
1225.0
 20
-900.0
 30
0.0
 11
1155.0
 21
-900.0
 31
0.0
  0
LINE
  5
FFFF4FE8149F479D
100
AcDbEntity
  8
SIMPLE
  6
CONTINUOUS
100
AcDbLine
 10
1155.271845
 20
-1095.0
 30
0.0
 11
1155.271845
 21
-900.0
 31
0.0
  0
LINE
  5
FFFF4FE8149F479C
100
AcDbEntity
  8
SIMPLE
  6
CONTINUOUS
100
AcDbLine
 10
30.0
 20
-1095.0
 30
0.0
 11
1155.271845
 21
-1095.0
 31
0.0
  0
LINE
  5
74FFA48D5417
100
AcDbEntity
  8
DETAIL_MEDIUM
  6
CONTINUOUS
100
AcDbLine
 10
30.0
 20
-1100.0
 30
0.0
 11
30.0
 21
-1090.0
 31
0.0
  0
LINE
  5
74FFA48D5418
100
AcDbEntity
  8
DETAIL_MEDIUM
  6
CONTINUOUS
100
AcDbLine
 10
30.0
 20
-1090.0
 30
0.0
 11
20.0
 21
-1090.0
 31
0.0
  0
LINE
  5
74FFA48D5419
100
AcDbEntity
  8
DETAIL_MEDIUM
  6
CONTINUOUS
100
AcDbLine
 10
20.0
 20
-1090.0
 30
0.0
 11
20.0
 21
-1100.0
 31
0.0
  0
LINE
  5
74FFA48D541A
100
AcDbEntity
  8
DETAIL_MEDIUM
  6
CONTINUOUS
100
AcDbLine
 10
20.0
 20
-1100.0
 30
0.0
 11
30.0
 21
-1100.0
 31
0.0
  0
LINE
  5
74FFA48D541B
100
AcDbEntity
  8
DETAIL_MEDIUM
  6
CONTINUOUS
100
AcDbLine
 10
30.0
 20
-1100.0
 30
0.0
 11
20.0
 21
-1090.0
 31
0.0
  0
LINE
  5
74FFA48D541C
100
AcDbEntity
  8
DETAIL_MEDIUM
  6
CONTINUOUS
100
AcDbLine
 10
20.0
 20
-1100.0
 30
0.0
 11
30.0
 21
-1090.0
 31
0.0
  0
ENDBLK
  5
FFFF4FE8149F47A0
100
AcDbEntity
  8
SIMPLE
  6
CONTINUOUS
100
AcDbBlockEnd
  0
BLOCK
  5
FFFE2AD084B163B8
100
AcDbEntity
  8
DETAIL_MEDIUM
  6
CONTINUOUS
100
AcDbBlockBegin
  2
TITAN_LUT_FF_ADATASDATA_F1
 70
     0
 10
0.0
 20
0.0
 30
0.0
  1

  0
LINE
  5
FFFE2AD084B163B3
100
AcDbEntity
  8
DETAIL_MEDIUM
  6
CONTINUOUS
100
AcDbLine
 10
1225.0
 20
-870.0
 30
0.0
 11
1155.0
 21
-870.0
 31
0.0
  0
LINE
  5
FFFE2AD084B163B4
100
AcDbEntity
  8
DETAIL_MEDIUM
  6
CONTINUOUS
100
AcDbLine
 10
1155.0
 20
-870.0
 30
0.0
 11
1155.0
 21
-35.0
 31
0.0
  0
LINE
  5
FFFE2AD084B163B5
100
AcDbEntity
  8
DETAIL_MEDIUM
  6
CONTINUOUS
100
AcDbLine
 10
1155.0
 20
-35.0
 30
0.0
 11
75.0
 21
-35.0
 31
0.0
  0
LINE
  5
FFFE2AD084B163B6
100
AcDbEntity
  8
DETAIL_MEDIUM
  6
CONTINUOUS
100
AcDbLine
 10
75.0
 20
-80.0
 30
0.0
 11
75.0
 21
-35.0
 31
0.0
  0
POINT
  5
FFFE2AD084B163B7
100
AcDbEntity
  8
DETAIL_MEDIUM
  6
CONTINUOUS
100
AcDbPoint
 10
75.0
 20
-80.0
 30
0.0
  0
ENDBLK
  5
FFFE2AD084B163BA
100
AcDbEntity
  8
DETAIL_MEDIUM
  6
CONTINUOUS
100
AcDbBlockEnd
  0
BLOCK
  5
FFFF4FE8149F47B6
100
AcDbEntity
  8
SIMPLE
  6
CONTINUOUS
100
AcDbBlockBegin
  2
TITAN_LUT_FF_ADATASDATA_F0
 70
     0
 10
0.0
 20
0.0
 30
0.0
  1

  0
LINE
  5
FFFF4FE8149F47B4
100
AcDbEntity
  8
SIMPLE
  6
CONTINUOUS
100
AcDbLine
 10
1129.369902
 20
-348.920078
 30
0.0
 11
1225.0
 21
-348.920078
 31
0.0
  0
LINE
  5
FFFF4FE8149F47B3
100
AcDbEntity
  8
SIMPLE
  6
CONTINUOUS
100
AcDbLine
 10
1129.369902
 20
-1064.729963
 30
0.0
 11
1129.369902
 21
-348.920078
 31
0.0
  0
LINE
  5
FFFF4FE8149F47B0
100
AcDbEntity
  8
SIMPLE
  6
CONTINUOUS
100
AcDbLine
 10
75.0
 20
-1064.729963
 30
0.0
 11
1129.369902
 21
-1064.729963
 31
0.0
  0
LINE
  5
FFFF4FE8149F47B1
100
AcDbEntity
  8
SIMPLE
  6
CONTINUOUS
100
AcDbLine
 10
75.0
 20
-630.0
 30
0.0
 11
75.0
 21
-1064.729963
 31
0.0
  0
POINT
  5
74FFA48CED6B
100
AcDbEntity
  8
DETAIL_MEDIUM
  6
CONTINUOUS
100
AcDbPoint
 10
75.0
 20
-630.0
 30
0.0
  0
ENDBLK
  5
FFFF4FE8149F47B7
100
AcDbEntity
  8
SIMPLE
  6
CONTINUOUS
100
AcDbBlockEnd
  0
BLOCK
  5
FFFE2AD084B23101
100
AcDbEntity
  8
DETAIL_MEDIUM
  6
CONTINUOUS
100
AcDbBlockBegin
  2
TITAN_LUT_FF_ADATASDATA_E0
 70
     0
 10
0.0
 20
0.0
 30
0.0
  1

  0
LINE
  5
FFFE2AD084B230F7
100
AcDbEntity
  8
DETAIL_MEDIUM
  6
CONTINUOUS
100
AcDbLine
 10
1225.0
 20
-320.0
 30
0.0
 11
1180.0
 21
-320.0
 31
0.0
  0
LINE
  5
FFFE2AD084B230F8
100
AcDbEntity
  8
DETAIL_MEDIUM
  6
CONTINUOUS
100
AcDbLine
 10
1180.0
 20
-320.0
 30
0.0
 11
1180.0
 21
-45.0
 31
0.0
  0
LINE
  5
FFFE2AD084B230F9
100
AcDbEntity
  8
DETAIL_MEDIUM
  6
CONTINUOUS
100
AcDbLine
 10
1180.0
 20
-45.0
 30
0.0
 11
115.0
 21
-45.0
 31
0.0
  0
LINE
  5
FFFE2AD084B230FA
100
AcDbEntity
  8
DETAIL_MEDIUM
  6
CONTINUOUS
100
AcDbLine
 10
20.0
 20
-40.0
 30
0.0
 11
20.0
 21
-50.0
 31
0.0
  0
LINE
  5
FFFE2AD084B230FB
100
AcDbEntity
  8
DETAIL_MEDIUM
  6
CONTINUOUS
100
AcDbLine
 10
30.0
 20
-50.0
 30
0.0
 11
30.0
 21
-40.0
 31
0.0
  0
LINE
  5
FFFE2AD084B230FC
100
AcDbEntity
  8
DETAIL_MEDIUM
  6
CONTINUOUS
100
AcDbLine
 10
30.0
 20
-40.0
 30
0.0
 11
20.0
 21
-40.0
 31
0.0
  0
LINE
  5
FFFE2AD084B230FD
100
AcDbEntity
  8
DETAIL_MEDIUM
  6
CONTINUOUS
100
AcDbLine
 10
20.0
 20
-50.0
 30
0.0
 11
30.0
 21
-50.0
 31
0.0
  0
LINE
  5
FFFE2AD084B230FE
100
AcDbEntity
  8
DETAIL_MEDIUM
  6
CONTINUOUS
100
AcDbLine
 10
30.0
 20
-50.0
 30
0.0
 11
20.0
 21
-40.0
 31
0.0
  0
LINE
  5
FFFE2AD084B230FF
100
AcDbEntity
  8
DETAIL_MEDIUM
  6
CONTINUOUS
100
AcDbLine
 10
30.0
 20
-40.0
 30
0.0
 11
20.0
 21
-50.0
 31
0.0
  0
LINE
  5
FFFE2AD084B23100
100
AcDbEntity
  8
DETAIL_MEDIUM
  6
CONTINUOUS
100
AcDbLine
 10
115.0
 20
-45.0
 30
0.0
 11
30.0
 21
-45.0
 31
0.0
  0
ENDBLK
  5
FFFE2AD084B23103
100
AcDbEntity
  8
DETAIL_MEDIUM
  6
CONTINUOUS
100
AcDbBlockEnd
  0
BLOCK
  5
FFFE2AD084B5A15B
100
AcDbEntity
  8
SIMPLE
  6
CONTINUOUS
100
AcDbBlockBegin
  2
TITAN_LUT_FF_REG_CASC_0
 70
     0
 10
0.0
 20
0.0
 30
0.0
  1

  0
LINE
  5
FFFE2AD084B5A157
100
AcDbEntity
  8
DETAIL_MEDIUM
  6
CONTINUOUS
100
AcDbLine
 10
1800.0
 20
-220.0
 30
0.0
 11
1800.0
 21
-540.0
 31
0.0
  0
LINE
  5
FFFE2AD084B5A158
100
AcDbEntity
  8
DETAIL_MEDIUM
  6
CONTINUOUS
100
AcDbLine
 10
1800.0
 20
-540.0
 30
0.0
 11
1205.0
 21
-540.0
 31
0.0
  0
LINE
  5
FFFE2AD084B5A159
100
AcDbEntity
  8
SIMPLE
  6
CONTINUOUS
100
AcDbLine
 10
1205.0
 20
-540.0
 30
0.0
 11
1205.0
 21
-764.529289
 31
0.0
  0
LINE
  5
FFFE2AD084B5A15A
100
AcDbEntity
  8
SIMPLE
  6
CONTINUOUS
100
AcDbLine
 10
1314.40731
 20
-764.529289
 30
0.0
 11
1205.31847
 21
-764.529289
 31
0.0
  0
ENDBLK
  5
FFFE2AD084B5A15D
100
AcDbEntity
  8
SIMPLE
  6
CONTINUOUS
100
AcDbBlockEnd
  0
BLOCK
  5
FFFE2AD084BA3723
100
AcDbEntity
  8
DETAIL_MEDIUM
  6
CONTINUOUS
100
AcDbBlockBegin
  2
TITAN_LUT_FF_REG_CASC_1
 70
     0
 10
0.0
 20
0.0
 30
0.0
  1

  0
LINE
  5
FFFE2AD084BA371A
100
AcDbEntity
  8
DETAIL_MEDIUM
  6
CONTINUOUS
100
AcDbLine
 10
1800.0
 20
-770.0
 30
0.0
 11
1800.0
 21
-1090.0
 31
0.0
  0
LINE
  5
FFFE2AD084BA371B
100
AcDbEntity
  8
DETAIL_MEDIUM
  6
CONTINUOUS
100
AcDbLine
 10
1800.0
 20
-1090.0
 30
0.0
 11
1205.0
 21
-1090.0
 31
0.0
  0
LINE
  5
FFFE2AD084BA371C
100
AcDbEntity
  8
DETAIL_MEDIUM
  6
CONTINUOUS
100
AcDbLine
 10
1205.0
 20
-1090.0
 30
0.0
 11
1205.0
 21
-1115.0
 31
0.0
  0
LINE
  5
FFFE2AD084BA371D
100
AcDbEntity
  8
DETAIL_MEDIUM
  6
CONTINUOUS
100
AcDbLine
 10
1200.0
 20
-1115.0
 30
0.0
 11
1210.0
 21
-1115.0
 31
0.0
  0
LINE
  5
FFFE2AD084BA371E
100
AcDbEntity
  8
DETAIL_MEDIUM
  6
CONTINUOUS
100
AcDbLine
 10
1210.0
 20
-1115.0
 30
0.0
 11
1210.0
 21
-1125.0
 31
0.0
  0
LINE
  5
FFFE2AD084BA371F
100
AcDbEntity
  8
DETAIL_MEDIUM
  6
CONTINUOUS
100
AcDbLine
 10
1210.0
 20
-1125.0
 30
0.0
 11
1200.0
 21
-1125.0
 31
0.0
  0
LINE
  5
FFFE2AD084BA3720
100
AcDbEntity
  8
DETAIL_MEDIUM
  6
CONTINUOUS
100
AcDbLine
 10
1200.0
 20
-1125.0
 30
0.0
 11
1200.0
 21
-1115.0
 31
0.0
  0
LINE
  5
FFFE2AD084BA3721
100
AcDbEntity
  8
DETAIL_MEDIUM
  6
CONTINUOUS
100
AcDbLine
 10
1200.0
 20
-1115.0
 30
0.0
 11
1210.0
 21
-1125.0
 31
0.0
  0
LINE
  5
FFFE2AD084BA3722
100
AcDbEntity
  8
DETAIL_MEDIUM
  6
CONTINUOUS
100
AcDbLine
 10
1200.0
 20
-1125.0
 30
0.0
 11
1210.0
 21
-1115.0
 31
0.0
  0
ENDBLK
  5
FFFE2AD084BA3725
100
AcDbEntity
  8
DETAIL_MEDIUM
  6
CONTINUOUS
100
AcDbBlockEnd
  0
BLOCK
  5
FFFE2AD084D5B129
100
AcDbEntity
  8
DETAIL_MEDIUM
  6
CONTINUOUS
100
AcDbBlockBegin
  2
TITAN_ALM_ADATASDATA_1_SEL_E
 70
     0
 10
0.0
 20
0.0
 30
0.0
  1

  0
LINE
  5
FFFE2AD084D5B128
100
AcDbEntity
  8
DETAIL_MEDIUM
  6
CONTINUOUS
100
AcDbLine
 10
1255.0
 20
-884.956401
 30
0.0
 11
1225.0
 21
-899.956401
 31
0.0
  0
ENDBLK
  5
FFFE2AD084D5B12B
100
AcDbEntity
  8
DETAIL_MEDIUM
  6
CONTINUOUS
100
AcDbBlockEnd
  0
BLOCK
  5
FFFE2AD084FA53DD
100
AcDbEntity
  8
DETAIL_MEDIUM
  6
CONTINUOUS
100
AcDbBlockBegin
  2
TITAN_ALM_ADATASDATA_1_SEL_F
 70
     0
 10
0.0
 20
0.0
 30
0.0
  1

  0
LINE
  5
FFFE2AD084FA53DC
100
AcDbEntity
  8
DETAIL_MEDIUM
  6
CONTINUOUS
100
AcDbLine
 10
1225.0
 20
-869.956401
 30
0.0
 11
1255.0
 21
-884.956401
 31
0.0
  0
ENDBLK
  5
FFFE2AD084FA53DF
100
AcDbEntity
  8
DETAIL_MEDIUM
  6
CONTINUOUS
100
AcDbBlockEnd
  0
BLOCK
  5
FFFE2AD08543994F
100
AcDbEntity
  8
DETAIL_MEDIUM
  6
CONTINUOUS
100
AcDbBlockBegin
  2
TITAN_ALM_ADATASDATA_1_WIRE
 70
     0
 10
0.0
 20
0.0
 30
0.0
  1

  0
LINE
  5
FFFE2AD08543994E
100
AcDbEntity
  8
DETAIL_MEDIUM
  6
CONTINUOUS
100
AcDbLine
 10
1420.0
 20
-794.956401
 30
0.0
 11
1445.0
 21
-794.956401
 31
0.0
  0
ENDBLK
  5
FFFE2AD085439951
100
AcDbEntity
  8
DETAIL_MEDIUM
  6
CONTINUOUS
100
AcDbBlockEnd
  0
BLOCK
  5
FFFE2AD085D6243C
100
AcDbEntity
  8
PORTS
  6
CONTINUOUS
100
AcDbBlockBegin
  2
TITAN_ALM_ADATASDATA_1_PORT
 70
     2
 10
0.0
 20
0.0
 30
0.0
  1

  0
ATTDEF
  5
FFFE2AD085D62432
100
AcDbEntity
  8
PORTS
  6
CONTINUOUS
100
AcDbText
 10
1339.684227
 20
-785.217071
 30
0.0
 40
7.071068
  1

  7
SIMPLEX
100
AcDbAttributeDefinition
  3

  2
SIDE
 70
     0
  0
POLYLINE
  5
FFFE2AD085D62433
100
AcDbEntity
  8
PORTS
  6
CONTINUOUS
100
AcDb2dPolyline
 66
     1
 10
0.0
 20
0.0
 30
0.0
 70
     1
  0
VERTEX
  5
FFFE2AD085D62434
100
AcDbEntity
  8
PORTS
  6
CONTINUOUS
100
AcDbVertex
100
AcDb2dVertex
 10
1394.684227
 20
-795.217071
 30
0.0
  0
VERTEX
  5
FFFE2AD085D62435
100
AcDbEntity
  8
PORTS
  6
CONTINUOUS
100
AcDbVertex
100
AcDb2dVertex
 10
1386.684227
 20
-801.217071
 30
0.0
  0
VERTEX
  5
FFFE2AD085D62436
100
AcDbEntity
  8
PORTS
  6
CONTINUOUS
100
AcDbVertex
100
AcDb2dVertex
 10
1314.684227
 20
-801.217071
 30
0.0
  0
VERTEX
  5
FFFE2AD085D62437
100
AcDbEntity
  8
PORTS
  6
CONTINUOUS
100
AcDbVertex
100
AcDb2dVertex
 10
1314.684227
 20
-789.217071
 30
0.0
  0
VERTEX
  5
FFFE2AD085D62438
100
AcDbEntity
  8
PORTS
  6
CONTINUOUS
100
AcDbVertex
100
AcDb2dVertex
 10
1386.684227
 20
-789.217071
 30
0.0
  0
VERTEX
  5
FFFE2AD085D62439
100
AcDbEntity
  8
PORTS
  6
CONTINUOUS
100
AcDbVertex
100
AcDb2dVertex
 10
1394.684227
 20
-795.217071
 30
0.0
  0
SEQEND
  5
FFFE2AD085D6243A
100
AcDbEntity
  8
PORTS
  6
CONTINUOUS
  0
POINT
  5
FFFE2AD085D6243B
100
AcDbEntity
  8
PORTS
  6
CONTINUOUS
100
AcDbPoint
 10
1394.684227
 20
-795.217071
 30
0.0
  0
ENDBLK
  5
FFFE2AD085D6243E
100
AcDbEntity
  8
PORTS
  6
CONTINUOUS
100
AcDbBlockEnd
  0
BLOCK
  5
FFFE2AD086FB3A20
100
AcDbEntity
  8
PORTS
  6
CONTINUOUS
100
AcDbBlockBegin
  2
TITAN_ALM_DATAIN_1_PORT
 70
     2
 10
0.0
 20
0.0
 30
0.0
  1

  0
ATTDEF
  5
FFFE2AD086FB3A1E
100
AcDbEntity
  8
PORTS
  6
CONTINUOUS
100
AcDbText
 10
1339.684227
 20
-754.920495
 30
0.0
 40
7.071068
  1

  7
SIMPLEX
100
AcDbAttributeDefinition
  3

  2
SIDE
 70
     0
  0
POLYLINE
  5
FFFE2AD086FB3A16
100
AcDbEntity
  8
PORTS
  6
CONTINUOUS
100
AcDb2dPolyline
 66
     1
 10
0.0
 20
0.0
 30
0.0
 70
     1
  0
VERTEX
  5
FFFE2AD086FB3A17
100
AcDbEntity
  8
PORTS
  6
CONTINUOUS
100
AcDbVertex
100
AcDb2dVertex
 10
1394.684227
 20
-764.920495
 30
0.0
  0
VERTEX
  5
FFFE2AD086FB3A18
100
AcDbEntity
  8
PORTS
  6
CONTINUOUS
100
AcDbVertex
100
AcDb2dVertex
 10
1386.684227
 20
-770.920495
 30
0.0
  0
VERTEX
  5
FFFE2AD086FB3A19
100
AcDbEntity
  8
PORTS
  6
CONTINUOUS
100
AcDbVertex
100
AcDb2dVertex
 10
1314.684227
 20
-770.920495
 30
0.0
  0
VERTEX
  5
FFFE2AD086FB3A1A
100
AcDbEntity
  8
PORTS
  6
CONTINUOUS
100
AcDbVertex
100
AcDb2dVertex
 10
1314.684227
 20
-758.920495
 30
0.0
  0
VERTEX
  5
FFFE2AD086FB3A1B
100
AcDbEntity
  8
PORTS
  6
CONTINUOUS
100
AcDbVertex
100
AcDb2dVertex
 10
1386.684227
 20
-758.920495
 30
0.0
  0
VERTEX
  5
FFFE2AD086FB3A1C
100
AcDbEntity
  8
PORTS
  6
CONTINUOUS
100
AcDbVertex
100
AcDb2dVertex
 10
1394.684227
 20
-764.920495
 30
0.0
  0
SEQEND
  5
FFFE2AD086FB3A1D
100
AcDbEntity
  8
PORTS
  6
CONTINUOUS
  0
POINT
  5
FFFE2AD086FB3A1F
100
AcDbEntity
  8
PORTS
  6
CONTINUOUS
100
AcDbPoint
 10
1394.684227
 20
-764.920495
 30
0.0
  0
ENDBLK
  5
FFFE2AD086FB3A22
100
AcDbEntity
  8
PORTS
  6
CONTINUOUS
100
AcDbBlockEnd
  0
BLOCK
  5
FFFE2AD0894569D6
100
AcDbEntity
  8
SIMPLE
  6
CONTINUOUS
100
AcDbBlockBegin
  2
TITAN_LUT_FF_REG_CASC_IN_0
 70
     0
 10
0.0
 20
0.0
 30
0.0
  1

  0
LINE
  5
FFFE2AD0894569CE
100
AcDbEntity
  8
DETAIL_MEDIUM
  6
CONTINUOUS
100
AcDbLine
 10
1200.0
 20
-5.0
 30
0.0
 11
1200.0
 21
-15.0
 31
0.0
  0
LINE
  5
FFFE2AD0894569CF
100
AcDbEntity
  8
DETAIL_MEDIUM
  6
CONTINUOUS
100
AcDbLine
 10
1200.0
 20
-15.0
 30
0.0
 11
1210.0
 21
-15.0
 31
0.0
  0
LINE
  5
FFFE2AD0894569D0
100
AcDbEntity
  8
DETAIL_MEDIUM
  6
CONTINUOUS
100
AcDbLine
 10
1210.0
 20
-15.0
 30
0.0
 11
1210.0
 21
-5.0
 31
0.0
  0
LINE
  5
FFFE2AD0894569D1
100
AcDbEntity
  8
DETAIL_MEDIUM
  6
CONTINUOUS
100
AcDbLine
 10
1210.0
 20
-5.0
 30
0.0
 11
1200.0
 21
-5.0
 31
0.0
  0
LINE
  5
FFFE2AD0894569D2
100
AcDbEntity
  8
DETAIL_MEDIUM
  6
CONTINUOUS
100
AcDbLine
 10
1200.0
 20
-5.0
 30
0.0
 11
1210.0
 21
-15.0
 31
0.0
  0
LINE
  5
FFFE2AD0894569D3
100
AcDbEntity
  8
DETAIL_MEDIUM
  6
CONTINUOUS
100
AcDbLine
 10
1200.0
 20
-15.0
 30
0.0
 11
1210.0
 21
-5.0
 31
0.0
  0
LINE
  5
FFFE2AD0894569D4
100
AcDbEntity
  8
SIMPLE
  6
CONTINUOUS
100
AcDbLine
 10
1205.0
 20
-199.370224
 30
0.0
 11
1205.0
 21
-15.0
 31
0.0
  0
LINE
  5
FFFE2AD0894569D5
100
AcDbEntity
  8
SIMPLE
  6
CONTINUOUS
100
AcDbLine
 10
1225.0
 20
-199.370224
 30
0.0
 11
1205.0
 21
-199.370224
 31
0.0
  0
ENDBLK
  5
FFFE2AD0894569D8
100
AcDbEntity
  8
SIMPLE
  6
CONTINUOUS
100
AcDbBlockEnd
  0
BLOCK
  5
FFFE2AD09702846F
100
AcDbEntity
  8
SIMPLE
  6
CONTINUOUS
100
AcDbBlockBegin
  2
TITAN_ALM_DATAIN_REG_0_SEL_REG
 70
     0
 10
0.0
 20
0.0
 30
0.0
  1

  0
LINE
  5
FFFE2AD09702846E
100
AcDbEntity
  8
SIMPLE
  6
CONTINUOUS
100
AcDbLine
 10
1225.0
 20
-229.370224
 30
0.0
 11
1255.0
 21
-216.628159
 31
0.0
  0
ENDBLK
  5
FFFE2AD097028471
100
AcDbEntity
  8
SIMPLE
  6
CONTINUOUS
100
AcDbBlockEnd
  0
BLOCK
  5
FFFE2AD0A953FE65
100
AcDbEntity
  8
SIMPLE
  6
CONTINUOUS
100
AcDbBlockBegin
  2
TITAN_ALM_DATAIN_REG_0_SEL_CASC
 70
     0
 10
0.0
 20
0.0
 30
0.0
  1

  0
LINE
  5
FFFE2AD0A953FE64
100
AcDbEntity
  8
SIMPLE
  6
CONTINUOUS
100
AcDbLine
 10
1255.0
 20
-216.628159
 30
0.0
 11
1225.0
 21
-199.370224
 31
0.0
  0
ENDBLK
  5
FFFE2AD0A953FE67
100
AcDbEntity
  8
SIMPLE
  6
CONTINUOUS
100
AcDbBlockEnd
  0
BLOCK
  5
FFFE2AD1173CD38E
100
AcDbEntity
  8
DETAIL_MEDIUM
  6
CONTINUOUS
100
AcDbBlockBegin
  2
TITAN_ALM_ADATASDATA_0_SEL_F
 70
     0
 10
0.0
 20
0.0
 30
0.0
  1

  0
LINE
  5
FFFE2AD1173CD38D
100
AcDbEntity
  8
DETAIL_MEDIUM
  6
CONTINUOUS
100
AcDbLine
 10
1255.0
 20
-335.0
 30
0.0
 11
1225.0
 21
-350.0
 31
0.0
  0
ENDBLK
  5
FFFE2AD1173CD390
100
AcDbEntity
  8
DETAIL_MEDIUM
  6
CONTINUOUS
100
AcDbBlockEnd
  0
BLOCK
  5
FFFE2AD1A9C89C30
100
AcDbEntity
  8
DETAIL_MEDIUM
  6
CONTINUOUS
100
AcDbBlockBegin
  2
TITAN_ALM_ADATASDATA_0_SEL_E
 70
     0
 10
0.0
 20
0.0
 30
0.0
  1

  0
LINE
  5
FFFE2AD1A9C89C2F
100
AcDbEntity
  8
DETAIL_MEDIUM
  6
CONTINUOUS
100
AcDbLine
 10
1225.0
 20
-320.0
 30
0.0
 11
1255.0
 21
-335.0
 31
0.0
  0
ENDBLK
  5
FFFE2AD1A9C89C32
100
AcDbEntity
  8
DETAIL_MEDIUM
  6
CONTINUOUS
100
AcDbBlockEnd
  0
BLOCK
  5
FFFE2AD2CEE02D7E
100
AcDbEntity
  8
DETAIL_MEDIUM
  6
CONTINUOUS
100
AcDbBlockBegin
  2
TITAN_ALM_ADATASDATA_0_WIRE
 70
     0
 10
0.0
 20
0.0
 30
0.0
  1

  0
LINE
  5
FFFE2AD2CEE02D7D
100
AcDbEntity
  8
DETAIL_MEDIUM
  6
CONTINUOUS
100
AcDbLine
 10
1420.0
 20
-245.0
 30
0.0
 11
1445.0
 21
-245.0
 31
0.0
  0
ENDBLK
  5
FFFE2AD2CEE02D80
100
AcDbEntity
  8
DETAIL_MEDIUM
  6
CONTINUOUS
100
AcDbBlockEnd
  0
BLOCK
  5
FFFE2AD5190F4CA6
100
AcDbEntity
  8
PORTS
  6
CONTINUOUS
100
AcDbBlockBegin
  2
TITAN_ALM_ADATASDATA_0_PORT
 70
     2
 10
0.0
 20
0.0
 30
0.0
  1

  0
POLYLINE
  5
FFFE2AD5190F4C9D
100
AcDbEntity
  8
PORTS
  6
CONTINUOUS
100
AcDb2dPolyline
 66
     1
 10
0.0
 20
0.0
 30
0.0
 70
     1
  0
VERTEX
  5
FFFE2AD5190F4C9E
100
AcDbEntity
  8
PORTS
  6
CONTINUOUS
100
AcDbVertex
100
AcDb2dVertex
 10
1394.684227
 20
-245.13556
 30
0.0
  0
VERTEX
  5
FFFE2AD5190F4C9F
100
AcDbEntity
  8
PORTS
  6
CONTINUOUS
100
AcDbVertex
100
AcDb2dVertex
 10
1386.684227
 20
-251.13556
 30
0.0
  0
VERTEX
  5
FFFE2AD5190F4CA0
100
AcDbEntity
  8
PORTS
  6
CONTINUOUS
100
AcDbVertex
100
AcDb2dVertex
 10
1314.684227
 20
-251.13556
 30
0.0
  0
VERTEX
  5
FFFE2AD5190F4CA1
100
AcDbEntity
  8
PORTS
  6
CONTINUOUS
100
AcDbVertex
100
AcDb2dVertex
 10
1314.684227
 20
-239.13556
 30
0.0
  0
VERTEX
  5
FFFE2AD5190F4CA2
100
AcDbEntity
  8
PORTS
  6
CONTINUOUS
100
AcDbVertex
100
AcDb2dVertex
 10
1386.684227
 20
-239.13556
 30
0.0
  0
VERTEX
  5
FFFE2AD5190F4CA3
100
AcDbEntity
  8
PORTS
  6
CONTINUOUS
100
AcDbVertex
100
AcDb2dVertex
 10
1394.684227
 20
-245.13556
 30
0.0
  0
SEQEND
  5
FFFE2AD5190F4CA4
100
AcDbEntity
  8
PORTS
  6
CONTINUOUS
  0
ATTDEF
  5
FFFE2AD5190F4C9C
100
AcDbEntity
  8
PORTS
  6
CONTINUOUS
100
AcDbText
 10
1339.684227
 20
-235.13556
 30
0.0
 40
7.071068
  1

  7
SIMPLEX
100
AcDbAttributeDefinition
  3

  2
SIDE
 70
     0
  0
POINT
  5
FFFE2AD5190F4CA5
100
AcDbEntity
  8
PORTS
  6
CONTINUOUS
100
AcDbPoint
 10
1394.684227
 20
-245.13556
 30
0.0
  0
ENDBLK
  5
FFFE2AD5190F4CA8
100
AcDbEntity
  8
PORTS
  6
CONTINUOUS
100
AcDbBlockEnd
  0
BLOCK
  5
FFFE2AD9AD6D8B00
100
AcDbEntity
  8
PORTS
  6
CONTINUOUS
100
AcDbBlockBegin
  2
TITAN_ALM_DATAIN_0_PORT
 70
     2
 10
0.0
 20
0.0
 30
0.0
  1

  0
POLYLINE
  5
FFFE2AD9AD6D8AF7
100
AcDbEntity
  8
PORTS
  6
CONTINUOUS
100
AcDb2dPolyline
 66
     1
 10
0.0
 20
0.0
 30
0.0
 70
     1
  0
VERTEX
  5
FFFE2AD9AD6D8AF8
100
AcDbEntity
  8
PORTS
  6
CONTINUOUS
100
AcDbVertex
100
AcDb2dVertex
 10
1394.684227
 20
-214.8331
 30
0.0
  0
VERTEX
  5
FFFE2AD9AD6D8AF9
100
AcDbEntity
  8
PORTS
  6
CONTINUOUS
100
AcDbVertex
100
AcDb2dVertex
 10
1386.684227
 20
-220.8331
 30
0.0
  0
VERTEX
  5
FFFE2AD9AD6D8AFA
100
AcDbEntity
  8
PORTS
  6
CONTINUOUS
100
AcDbVertex
100
AcDb2dVertex
 10
1314.684227
 20
-220.8331
 30
0.0
  0
VERTEX
  5
FFFE2AD9AD6D8AFB
100
AcDbEntity
  8
PORTS
  6
CONTINUOUS
100
AcDbVertex
100
AcDb2dVertex
 10
1314.684227
 20
-208.8331
 30
0.0
  0
VERTEX
  5
FFFE2AD9AD6D8AFC
100
AcDbEntity
  8
PORTS
  6
CONTINUOUS
100
AcDbVertex
100
AcDb2dVertex
 10
1386.684227
 20
-208.8331
 30
0.0
  0
VERTEX
  5
FFFE2AD9AD6D8AFD
100
AcDbEntity
  8
PORTS
  6
CONTINUOUS
100
AcDbVertex
100
AcDb2dVertex
 10
1394.684227
 20
-214.8331
 30
0.0
  0
SEQEND
  5
FFFE2AD9AD6D8AFE
100
AcDbEntity
  8
PORTS
  6
CONTINUOUS
  0
POINT
  5
FFFE2AD9AD6D8AFF
100
AcDbEntity
  8
PORTS
  6
CONTINUOUS
100
AcDbPoint
 10
1394.684227
 20
-214.8331
 30
0.0
  0
ATTDEF
  5
FFFE2AD9AD6D8AF6
100
AcDbEntity
  8
PORTS
  6
CONTINUOUS
100
AcDbText
 10
1339.684227
 20
-204.8331
 30
0.0
 40
7.071068
  1

  7
SIMPLEX
100
AcDbAttributeDefinition
  3

  2
SIDE
 70
     0
  0
ENDBLK
  5
FFFE2AD9AD6D8B02
100
AcDbEntity
  8
PORTS
  6
CONTINUOUS
100
AcDbBlockEnd
  0
BLOCK
  5
FFFE2AF527A30935
100
AcDbEntity
  8
SIMPLE
  6
CONTINUOUS
 62
    50
100
AcDbBlockBegin
  2
TITAN_LUT_REGISTER_REGOUT_PORT
 70
     2
 10
0.0
 20
0.0
 30
0.0
  1

  0
POLYLINE
  5
FFFE2AF527A3092C
100
AcDbEntity
  8
PORTS
  6
CONTINUOUS
100
AcDb2dPolyline
 66
     1
 10
0.0
 20
0.0
 30
0.0
 70
     1
  0
VERTEX
  5
FFFE2AF527A3092D
100
AcDbEntity
  8
PORTS
  6
CONTINUOUS
100
AcDbVertex
100
AcDb2dVertex
 10
1855.0
 20
-195.0
 30
0.0
  0
VERTEX
  5
FFFE2AF527A3092E
100
AcDbEntity
  8
PORTS
  6
CONTINUOUS
100
AcDbVertex
100
AcDb2dVertex
 10
1847.0
 20
-201.0
 30
0.0
  0
VERTEX
  5
FFFE2AF527A3092F
100
AcDbEntity
  8
PORTS
  6
CONTINUOUS
100
AcDbVertex
100
AcDb2dVertex
 10
1775.0
 20
-201.0
 30
0.0
  0
VERTEX
  5
FFFE2AF527A30930
100
AcDbEntity
  8
PORTS
  6
CONTINUOUS
100
AcDbVertex
100
AcDb2dVertex
 10
1775.0
 20
-189.0
 30
0.0
  0
VERTEX
  5
FFFE2AF527A30931
100
AcDbEntity
  8
PORTS
  6
CONTINUOUS
100
AcDbVertex
100
AcDb2dVertex
 10
1847.0
 20
-189.0
 30
0.0
  0
VERTEX
  5
FFFE2AF527A30932
100
AcDbEntity
  8
PORTS
  6
CONTINUOUS
100
AcDbVertex
100
AcDb2dVertex
 10
1855.0
 20
-195.0
 30
0.0
  0
SEQEND
  5
FFFE2AF527A30933
100
AcDbEntity
  8
PORTS
  6
CONTINUOUS
  0
ATTDEF
  5
FFFE2AF527A30934
100
AcDbEntity
  8
PORTS
  6
CONTINUOUS
 62
   249
100
AcDbText
 10
1860.0
 20
-200.0
 30
0.0
 40
7.071068
  1

  7
SIMPLEX
100
AcDbAttributeDefinition
  3

  2
SIDE
 70
     0
  0
POINT
  5
FFFE2AF527A3092B
100
AcDbEntity
  8
PORTS
  6
CONTINUOUS
100
AcDbPoint
 10
1775.0
 20
-195.0
 30
0.0
  0
LINE
  5
FFFE2AF527A3092A
100
AcDbEntity
  8
DETAIL_MEDIUM
  6
CONTINUOUS
100
AcDbLine
 10
1775.0
 20
-195.0
 30
0.0
 11
1755.0
 21
-195.0
 31
0.0
  0
LINE
  5
FFFE2AF527A30929
100
AcDbEntity
  8
DETAIL_MEDIUM
  6
CONTINUOUS
100
AcDbLine
 10
1755.0
 20
-195.0
 30
0.0
 11
1755.0
 21
-220.0
 31
0.0
  0
ENDBLK
  5
FFFE2AF527A30937
100
AcDbEntity
  8
SIMPLE
  6
CONTINUOUS
 62
    50
100
AcDbBlockEnd
  0
BLOCK
  5
FFFE2B631079023A
100
AcDbEntity
  8
SIMPLE
  6
CONTINUOUS
100
AcDbBlockBegin
  2
TITAN_LUT_REGISTER_REGOUT_WIRE
 70
     0
 10
0.0
 20
0.0
 30
0.0
  1

  0
POINT
  5
FFFE2B6310790239
100
AcDbEntity
  8
DETAIL_MEDIUM
  6
ASDF
100
AcDbPoint
 10
1755.0
 20
-220.0
 30
0.0
  0
LINE
  5
FFFE2B19CA9506E3
100
AcDbEntity
  8
SIMPLE
  6
CONTINUOUS
100
AcDbLine
 10
1800.0
 20
-220.0
 30
0.0
 11
1755.0
 21
-220.0
 31
0.0
  0
ENDBLK
  5
FFFE2B631079023C
100
AcDbEntity
  8
SIMPLE
  6
CONTINUOUS
100
AcDbBlockEnd
  0
BLOCK
  5
FFFE2BF59C40F8F2
100
AcDbEntity
  8
SIMPLE
  6
CONTINUOUS
100
AcDbBlockBegin
  2
TITAN_LUT_REGISTER_QOUT
 70
     0
 10
0.0
 20
0.0
 30
0.0
  1

  0
LINE
  5
FFFE2BF59C40F8F1
100
AcDbEntity
  8
SIMPLE
  6
CONTINUOUS
100
AcDbLine
 10
1755.0
 20
-220.0
 30
0.0
 11
1680.0
 21
-220.0
 31
0.0
  0
ENDBLK
  5
FFFE2BF59C40F8F4
100
AcDbEntity
  8
SIMPLE
  6
CONTINUOUS
100
AcDbBlockEnd
  0
BLOCK
  5
FFFE2D1AB3D0E738
100
AcDbEntity
  8
DETAIL_MEDIUM
  6
CONTINUOUS
100
AcDbBlockBegin
  2
TITAN_LUT_REGISTER_BLOCK
 70
     0
 10
0.0
 20
0.0
 30
0.0
  1

  0
POLYLINE
  5
FFFE2D1AB3D0E725
100
AcDbEntity
  8
DETAIL_MEDIUM
  6
CONTINUOUS
100
AcDb2dPolyline
 66
     1
 10
0.0
 20
0.0
 30
0.0
 70
     1
  0
VERTEX
  5
FFFE2D1AB3D0E726
100
AcDbEntity
  8
DETAIL_MEDIUM
  6
CONTINUOUS
100
AcDbVertex
100
AcDb2dVertex
 10
1600.0
 20
-200.0
 30
0.0
  0
VERTEX
  5
FFFE2D1AB3D0E727
100
AcDbEntity
  8
DETAIL_MEDIUM
  6
CONTINUOUS
100
AcDbVertex
100
AcDb2dVertex
 10
1680.0
 20
-200.0
 30
0.0
  0
VERTEX
  5
FFFE2D1AB3D0E728
100
AcDbEntity
  8
DETAIL_MEDIUM
  6
CONTINUOUS
100
AcDbVertex
100
AcDb2dVertex
 10
1680.0
 20
-330.0
 30
0.0
  0
VERTEX
  5
FFFE2D1AB3D0E729
100
AcDbEntity
  8
DETAIL_MEDIUM
  6
CONTINUOUS
100
AcDbVertex
100
AcDb2dVertex
 10
1600.0
 20
-330.0
 30
0.0
  0
SEQEND
  5
FFFE2D1AB3D0E72A
100
AcDbEntity
  8
DETAIL_MEDIUM
  6
CONTINUOUS
  0
POLYLINE
  5
FFFE2D1AB3D0E72C
100
AcDbEntity
  8
DETAIL_MEDIUM
  6
CONTINUOUS
100
AcDb2dPolyline
 66
     1
 10
0.0
 20
0.0
 30
0.0
 70
     1
  0
VERTEX
  5
FFFE2D1AB3D0E72D
100
AcDbEntity
  8
DETAIL_MEDIUM
  6
CONTINUOUS
100
AcDbVertex
100
AcDb2dVertex
 10
1630.0
 20
-310.0
 30
0.0
  0
VERTEX
  5
FFFE2D1AB3D0E72E
100
AcDbEntity
  8
DETAIL_MEDIUM
  6
CONTINUOUS
100
AcDbVertex
100
AcDb2dVertex
 10
1650.0
 20
-310.0
 30
0.0
  0
VERTEX
  5
FFFE2D1AB3D0E72F
100
AcDbEntity
  8
DETAIL_MEDIUM
  6
CONTINUOUS
100
AcDbVertex
100
AcDb2dVertex
 10
1650.0
 20
-330.0
 30
0.0
  0
VERTEX
  5
FFFE2D1AB3D0E730
100
AcDbEntity
  8
DETAIL_MEDIUM
  6
CONTINUOUS
100
AcDbVertex
100
AcDb2dVertex
 10
1630.0
 20
-330.0
 30
0.0
  0
SEQEND
  5
FFFE2D1AB3D0E731
100
AcDbEntity
  8
DETAIL_MEDIUM
  6
CONTINUOUS
  0
TEXT
  5
FFFE2D1AB3D0E72B
100
AcDbEntity
  8
DETAIL_MEDIUM
100
AcDbText
 10
1637.5
 20
-322.5
 30
0.0
 40
10.0
  1
C
100
AcDbText
  0
TEXT
  5
FFFE2D1AB3D0E732
100
AcDbEntity
  8
DETAIL_MEDIUM
100
AcDbText
 10
1605.0
 20
-302.5
 30
0.0
 40
10.0
  1
data
100
AcDbText
  0
TEXT
  5
FFFE2D1AB3D0E733
100
AcDbEntity
  8
DETAIL_MEDIUM
100
AcDbText
 10
1605.0
 20
-282.5
 30
0.0
 40
10.0
  1
en
100
AcDbText
  0
LINE
  5
FFFE2D1AB3D0E734
100
AcDbEntity
  8
DETAIL_MEDIUM
100
AcDbLine
 39
2.0
 10
1610.0
 20
-250.0
 30
0.0
 11
1600.0
 21
-260.0
 31
0.0
  0
LINE
  5
FFFE2D1AB3D0E735
100
AcDbEntity
  8
DETAIL_MEDIUM
100
AcDbLine
 39
2.0
 10
1600.0
 20
-240.0
 30
0.0
 11
1610.0
 21
-250.0
 31
0.0
  0
TEXT
  5
FFFE2D1AB3D0E736
100
AcDbEntity
  8
DETAIL_MEDIUM
100
AcDbText
 10
1607.5
 20
-222.5
 30
0.0
 40
10.0
  1
D
100
AcDbText
  0
TEXT
  5
FFFE2D1AB3D0E737
100
AcDbEntity
  8
DETAIL_MEDIUM
100
AcDbText
 10
1667.5
 20
-222.5
 30
0.0
 40
10.0
  1
Q
100
AcDbText
  0
ENDBLK
  5
FFFE2D1AB3D0E73A
100
AcDbEntity
  8
DETAIL_MEDIUM
  6
CONTINUOUS
100
AcDbBlockEnd
  0
BLOCK
  5
FFFE2F64E2F0C3B7
100
AcDbEntity
  8
PORTS
  6
CONTINUOUS
 62
    50
100
AcDbBlockBegin
  2
TITAN_LUT_REGISTER_ACLR_PORT
 70
     2
 10
0.0
 20
0.0
 30
0.0
  1

  0
ATTDEF
  5
FFFE2F64E2F0C3AD
100
AcDbEntity
  8
PORTS
  6
CONTINUOUS
 62
   249
100
AcDbText
 10
1340.0
 20
-435.0
 30
0.0
 40
7.071068
  1

  7
SIMPLEX
100
AcDbAttributeDefinition
  3

  2
SIDE
 70
     0
  0
POLYLINE
  5
FFFE2F64E2F0C3AE
100
AcDbEntity
  8
PORTS
  6
CONTINUOUS
100
AcDb2dPolyline
 66
     1
 10
0.0
 20
0.0
 30
0.0
 70
     1
  0
VERTEX
  5
FFFE2F64E2F0C3AF
100
AcDbEntity
  8
PORTS
  6
CONTINUOUS
100
AcDbVertex
100
AcDb2dVertex
 10
1395.0
 20
-445.0
 30
0.0
  0
VERTEX
  5
FFFE2F64E2F0C3B0
100
AcDbEntity
  8
PORTS
  6
CONTINUOUS
100
AcDbVertex
100
AcDb2dVertex
 10
1387.0
 20
-451.0
 30
0.0
  0
VERTEX
  5
FFFE2F64E2F0C3B1
100
AcDbEntity
  8
PORTS
  6
CONTINUOUS
100
AcDbVertex
100
AcDb2dVertex
 10
1315.0
 20
-451.0
 30
0.0
  0
VERTEX
  5
FFFE2F64E2F0C3B2
100
AcDbEntity
  8
PORTS
  6
CONTINUOUS
100
AcDbVertex
100
AcDb2dVertex
 10
1315.0
 20
-439.0
 30
0.0
  0
VERTEX
  5
FFFE2F64E2F0C3B3
100
AcDbEntity
  8
PORTS
  6
CONTINUOUS
100
AcDbVertex
100
AcDb2dVertex
 10
1387.0
 20
-439.0
 30
0.0
  0
VERTEX
  5
FFFE2F64E2F0C3B4
100
AcDbEntity
  8
PORTS
  6
CONTINUOUS
100
AcDbVertex
100
AcDb2dVertex
 10
1395.0
 20
-445.0
 30
0.0
  0
SEQEND
  5
FFFE2F64E2F0C3B5
100
AcDbEntity
  8
PORTS
  6
CONTINUOUS
  0
POINT
  5
FFFE2F64E2F0C3B6
100
AcDbEntity
  8
PORTS
  6
CONTINUOUS
100
AcDbPoint
 10
1395.0
 20
-445.0
 30
0.0
  0
ENDBLK
  5
FFFE2F64E2F0C3B9
100
AcDbEntity
  8
PORTS
  6
CONTINUOUS
 62
    50
100
AcDbBlockEnd
  0
BLOCK
  5
FFFE33F941307CAB
100
AcDbEntity
  8
DETAIL_MEDIUM
  6
CONTINUOUS
100
AcDbBlockBegin
  2
TITAN_LUT_REGISTER_ACLR_WIRE
 70
     0
 10
0.0
 20
0.0
 30
0.0
  1

  0
LINE
  5
FFFE33F941307CA9
100
AcDbEntity
  8
DETAIL_MEDIUM
  6
CONTINUOUS
100
AcDbLine
 10
1395.0
 20
-445.0
 30
0.0
 11
1640.0
 21
-445.0
 31
0.0
  0
LINE
  5
FFFE33F941307CAA
100
AcDbEntity
  8
DETAIL_MEDIUM
  6
CONTINUOUS
100
AcDbLine
 10
1640.0
 20
-445.0
 30
0.0
 11
1640.0
 21
-330.0
 31
0.0
  0
ENDBLK
  5
FFFE33F941307CAD
100
AcDbEntity
  8
DETAIL_MEDIUM
  6
CONTINUOUS
100
AcDbBlockEnd
  0
BLOCK
  5
FFFE3D21FDAFEE93
100
AcDbEntity
  8
PORTS
  6
CONTINUOUS
 62
    50
100
AcDbBlockBegin
  2
TITAN_LUT_REGISTER_ENA_PORT
 70
     2
 10
0.0
 20
0.0
 30
0.0
  1

  0
ATTDEF
  5
FFFE3D21FDAFEE89
100
AcDbEntity
  8
PORTS
  6
CONTINUOUS
 62
   249
100
AcDbText
 10
1340.0
 20
-365.0
 30
0.0
 40
7.071068
  1

  7
SIMPLEX
100
AcDbAttributeDefinition
  3

  2
SIDE
 70
     0
  0
POLYLINE
  5
FFFE3D21FDAFEE8A
100
AcDbEntity
  8
PORTS
  6
CONTINUOUS
100
AcDb2dPolyline
 66
     1
 10
0.0
 20
0.0
 30
0.0
 70
     1
  0
VERTEX
  5
FFFE3D21FDAFEE8B
100
AcDbEntity
  8
PORTS
  6
CONTINUOUS
100
AcDbVertex
100
AcDb2dVertex
 10
1395.0
 20
-375.0
 30
0.0
  0
VERTEX
  5
FFFE3D21FDAFEE8C
100
AcDbEntity
  8
PORTS
  6
CONTINUOUS
100
AcDbVertex
100
AcDb2dVertex
 10
1387.0
 20
-381.0
 30
0.0
  0
VERTEX
  5
FFFE3D21FDAFEE8D
100
AcDbEntity
  8
PORTS
  6
CONTINUOUS
100
AcDbVertex
100
AcDb2dVertex
 10
1315.0
 20
-381.0
 30
0.0
  0
VERTEX
  5
FFFE3D21FDAFEE8E
100
AcDbEntity
  8
PORTS
  6
CONTINUOUS
100
AcDbVertex
100
AcDb2dVertex
 10
1315.0
 20
-369.0
 30
0.0
  0
VERTEX
  5
FFFE3D21FDAFEE8F
100
AcDbEntity
  8
PORTS
  6
CONTINUOUS
100
AcDbVertex
100
AcDb2dVertex
 10
1387.0
 20
-369.0
 30
0.0
  0
VERTEX
  5
FFFE3D21FDAFEE90
100
AcDbEntity
  8
PORTS
  6
CONTINUOUS
100
AcDbVertex
100
AcDb2dVertex
 10
1395.0
 20
-375.0
 30
0.0
  0
SEQEND
  5
FFFE3D21FDAFEE91
100
AcDbEntity
  8
PORTS
  6
CONTINUOUS
  0
POINT
  5
FFFE3D21FDAFEE92
100
AcDbEntity
  8
PORTS
  6
CONTINUOUS
100
AcDbPoint
 10
1395.0
 20
-375.0
 30
0.0
  0
ENDBLK
  5
FFFE3D21FDAFEE95
100
AcDbEntity
  8
PORTS
  6
CONTINUOUS
 62
    50
100
AcDbBlockEnd
  0
BLOCK
  5
FFFE4F7376AED25A
100
AcDbEntity
  8
DETAIL_MEDIUM
  6
CONTINUOUS
100
AcDbBlockBegin
  2
TITAN_LUT_REGISTER_ENA_WIRE
 70
     0
 10
0.0
 20
0.0
 30
0.0
  1

  0
LINE
  5
FFFE4F7376AED257
100
AcDbEntity
  8
DETAIL_MEDIUM
  6
CONTINUOUS
100
AcDbLine
 10
1515.0
 20
-375.0
 30
0.0
 11
1395.0
 21
-375.0
 31
0.0
  0
LINE
  5
FFFE4F7376AED258
100
AcDbEntity
  8
DETAIL_MEDIUM
  6
CONTINUOUS
100
AcDbLine
 10
1515.0
 20
-280.0
 30
0.0
 11
1515.0
 21
-375.0
 31
0.0
  0
LINE
  5
FFFE4F7376AED259
100
AcDbEntity
  8
DETAIL_MEDIUM
  6
CONTINUOUS
100
AcDbLine
 10
1600.0
 20
-280.0
 30
0.0
 11
1515.0
 21
-280.0
 31
0.0
  0
ENDBLK
  5
FFFE4F7376AED25C
100
AcDbEntity
  8
DETAIL_MEDIUM
  6
CONTINUOUS
100
AcDbBlockEnd
  0
BLOCK
  5
FFFE741668AC99E7
100
AcDbEntity
  8
PORTS
  6
CONTINUOUS
 62
    50
100
AcDbBlockBegin
  2
TITAN_LUT_REGISTER_CLK_PORT
 70
     2
 10
0.0
 20
0.0
 30
0.0
  1

  0
ATTDEF
  5
FFFE741668AC99DD
100
AcDbEntity
  8
PORTS
  6
CONTINUOUS
 62
   249
100
AcDbText
 10
1340.0
 20
-310.0
 30
0.0
 40
7.071068
  1

  7
SIMPLEX
100
AcDbAttributeDefinition
  3

  2
SIDE
 70
     0
  0
POLYLINE
  5
FFFE741668AC99DE
100
AcDbEntity
  8
PORTS
  6
CONTINUOUS
100
AcDb2dPolyline
 66
     1
 10
0.0
 20
0.0
 30
0.0
 70
     1
  0
VERTEX
  5
FFFE741668AC99DF
100
AcDbEntity
  8
PORTS
  6
CONTINUOUS
100
AcDbVertex
100
AcDb2dVertex
 10
1395.0
 20
-320.0
 30
0.0
  0
VERTEX
  5
FFFE741668AC99E0
100
AcDbEntity
  8
PORTS
  6
CONTINUOUS
100
AcDbVertex
100
AcDb2dVertex
 10
1387.0
 20
-326.0
 30
0.0
  0
VERTEX
  5
FFFE741668AC99E1
100
AcDbEntity
  8
PORTS
  6
CONTINUOUS
100
AcDbVertex
100
AcDb2dVertex
 10
1315.0
 20
-326.0
 30
0.0
  0
VERTEX
  5
FFFE741668AC99E2
100
AcDbEntity
  8
PORTS
  6
CONTINUOUS
100
AcDbVertex
100
AcDb2dVertex
 10
1315.0
 20
-314.0
 30
0.0
  0
VERTEX
  5
FFFE741668AC99E3
100
AcDbEntity
  8
PORTS
  6
CONTINUOUS
100
AcDbVertex
100
AcDb2dVertex
 10
1387.0
 20
-314.0
 30
0.0
  0
VERTEX
  5
FFFE741668AC99E4
100
AcDbEntity
  8
PORTS
  6
CONTINUOUS
100
AcDbVertex
100
AcDb2dVertex
 10
1395.0
 20
-320.0
 30
0.0
  0
SEQEND
  5
FFFE741668AC99E5
100
AcDbEntity
  8
PORTS
  6
CONTINUOUS
  0
POINT
  5
FFFE741668AC99E6
100
AcDbEntity
  8
PORTS
  6
CONTINUOUS
100
AcDbPoint
 10
1395.0
 20
-320.0
 30
0.0
  0
ENDBLK
  5
FFFE741668AC99E9
100
AcDbEntity
  8
PORTS
  6
CONTINUOUS
 62
    50
100
AcDbBlockEnd
  0
BLOCK
  5
FFFEBD5C4CA828F8
100
AcDbEntity
  8
DETAIL_MEDIUM
  6
CONTINUOUS
100
AcDbBlockBegin
  2
TITAN_LUT_REGISTER_CLK_WIRE
 70
     0
 10
0.0
 20
0.0
 30
0.0
  1

  0
LINE
  5
FFFEBD5C4CA828F5
100
AcDbEntity
  8
DETAIL_MEDIUM
  6
CONTINUOUS
100
AcDbLine
 10
1395.0
 20
-320.0
 30
0.0
 11
1495.0
 21
-320.0
 31
0.0
  0
LINE
  5
FFFEBD5C4CA828F6
100
AcDbEntity
  8
DETAIL_MEDIUM
  6
CONTINUOUS
100
AcDbLine
 10
1495.0
 20
-320.0
 30
0.0
 11
1495.0
 21
-250.0
 31
0.0
  0
LINE
  5
FFFEBD5C4CA828F7
100
AcDbEntity
  8
DETAIL_MEDIUM
  6
CONTINUOUS
100
AcDbLine
 10
1600.0
 20
-250.0
 30
0.0
 11
1495.0
 21
-250.0
 31
0.0
  0
ENDBLK
  5
FFFEBD5C4CA828FA
100
AcDbEntity
  8
DETAIL_MEDIUM
  6
CONTINUOUS
100
AcDbBlockEnd
  0
BLOCK
  5
FFFF4FE8149F4711
100
AcDbEntity
  8
DETAIL_MEDIUM
  6
CONTINUOUS
100
AcDbBlockBegin
  2
TITAN_LUT_REGISTER_ADATA_BYPASS
 70
     0
 10
0.0
 20
0.0
 30
0.0
  1

  0
LINE
  5
FFFF4FE8149F4710
100
AcDbEntity
  8
DETAIL_MEDIUM
  6
CONTINUOUS
100
AcDbLine
 10
1420.0
 20
-300.0
 30
0.0
 11
1600.0
 21
-300.0
 31
0.0
  0
LINE
  5
FFFF4FE8149F470F
100
AcDbEntity
  8
DETAIL_MEDIUM
  6
CONTINUOUS
100
AcDbLine
 10
1420.0
 20
-245.0
 30
0.0
 11
1420.0
 21
-300.0
 31
0.0
  0
ENDBLK
  5
FFFF4FE8149F4713
100
AcDbEntity
  8
DETAIL_MEDIUM
  6
CONTINUOUS
100
AcDbBlockEnd
  0
BLOCK
  5
FFFF4FE8149F4716
100
AcDbEntity
  8
DETAIL_MEDIUM
  6
CONTINUOUS
100
AcDbBlockBegin
  2
TITAN_LUT_REGISTER_ADATA_POINT
 70
     0
 10
0.0
 20
0.0
 30
0.0
  1

  0
POINT
  5
74FFA48D833D
100
AcDbEntity
  8
DETAIL_MEDIUM
  6
CONTINUOUS
100
AcDbPoint
 10
1420.0
 20
-245.0
 30
0.0
  0
ENDBLK
  5
FFFF4FE8149F4718
100
AcDbEntity
  8
DETAIL_MEDIUM
  6
CONTINUOUS
100
AcDbBlockEnd
  0
BLOCK
  5
FFFF4FE8149F471B
100
AcDbEntity
  8
DETAIL_MEDIUM
  6
CONTINUOUS
100
AcDbBlockBegin
  2
TITAN_LUT_REGISTER_SLOAD_MUX
 70
     0
 10
0.0
 20
0.0
 30
0.0
  1

  0
TEXT
  5
74FFA48D8384
100
AcDbEntity
  8
DETAIL_MEDIUM
100
AcDbText
 10
1452.5
 20
-247.5
 30
0.0
 40
10.0
  1
1
100
AcDbText
  0
POLYLINE
  5
74FFA48D837B
100
AcDbEntity
  8
DETAIL_MEDIUM
100
AcDb2dPolyline
 66
     1
 10
0.0
 20
0.0
 30
0.0
 39
2.0
 70
     1
  0
VERTEX
  5
74FFA48D837C
100
AcDbEntity
  8
DETAIL_MEDIUM
100
AcDbVertex
100
AcDb2dVertex
 10
1445.0
 20
-200.0
 30
0.0
  0
VERTEX
  5
74FFA48D837D
100
AcDbEntity
  8
DETAIL_MEDIUM
100
AcDbVertex
100
AcDb2dVertex
 10
1475.0
 20
-210.0
 30
0.0
  0
VERTEX
  5
74FFA48D837E
100
AcDbEntity
  8
DETAIL_MEDIUM
100
AcDbVertex
100
AcDb2dVertex
 10
1475.0
 20
-250.0
 30
0.0
  0
VERTEX
  5
74FFA48D837F
100
AcDbEntity
  8
DETAIL_MEDIUM
100
AcDbVertex
100
AcDb2dVertex
 10
1445.0
 20
-260.0
 30
0.0
  0
VERTEX
  5
74FFA48D8380
100
AcDbEntity
  8
DETAIL_MEDIUM
100
AcDbVertex
100
AcDb2dVertex
 10
1445.0
 20
-200.0
 30
0.0
  0
SEQEND
  5
74FFA48D8381
100
AcDbEntity
  8
DETAIL_MEDIUM
  0
TEXT
  5
74FFA48D8383
100
AcDbEntity
  8
DETAIL_MEDIUM
100
AcDbText
 10
1452.5
 20
-217.5
 30
0.0
 40
10.0
  1
0
100
AcDbText
  0
LINE
  5
74FFA48D8382
100
AcDbEntity
  8
DETAIL_MEDIUM
  6
CONTINUOUS
100
AcDbLine
 10
1515.0
 20
-230.0
 30
0.0
 11
1475.0
 21
-230.0
 31
0.0
  0
ENDBLK
  5
FFFF4FE8149F471D
100
AcDbEntity
  8
DETAIL_MEDIUM
  6
CONTINUOUS
100
AcDbBlockEnd
  0
BLOCK
  5
FFFF4FE8149F4720
100
AcDbEntity
  8
SIMPLE
  6
CONTINUOUS
100
AcDbBlockBegin
  2
TITAN_LUT_REGISTER_SCLR_NAND
 70
     0
 10
0.0
 20
0.0
 30
0.0
  1

  0
POLYLINE
  5
74FFA48D8389
100
AcDbEntity
  8
DETAIL_MEDIUM
100
AcDb2dPolyline
 66
     1
 10
0.0
 20
0.0
 30
0.0
 39
2.0
 70
     1
  0
VERTEX
  5
74FFA48D838A
100
AcDbEntity
  8
DETAIL_MEDIUM
100
AcDbVertex
100
AcDb2dVertex
 10
1515.0
 20
-200.0
 30
0.0
  0
VERTEX
  5
74FFA48D838B
100
AcDbEntity
  8
DETAIL_MEDIUM
100
AcDbVertex
100
AcDb2dVertex
 10
1525.0
 20
-200.0
 30
0.0
  0
VERTEX
  5
74FFA48D838C
100
AcDbEntity
  8
DETAIL_MEDIUM
100
AcDbVertex
100
AcDb2dVertex
 10
1535.0
 20
-202.0
 30
0.0
  0
VERTEX
  5
74FFA48D838D
100
AcDbEntity
  8
DETAIL_MEDIUM
100
AcDbVertex
100
AcDb2dVertex
 10
1543.0
 20
-210.0
 30
0.0
  0
VERTEX
  5
74FFA48D838E
100
AcDbEntity
  8
DETAIL_MEDIUM
100
AcDbVertex
100
AcDb2dVertex
 10
1545.0
 20
-220.0
 30
0.0
  0
VERTEX
  5
74FFA48D838F
100
AcDbEntity
  8
DETAIL_MEDIUM
100
AcDbVertex
100
AcDb2dVertex
 10
1543.0
 20
-230.0
 30
0.0
  0
VERTEX
  5
74FFA48D8390
100
AcDbEntity
  8
DETAIL_MEDIUM
100
AcDbVertex
100
AcDb2dVertex
 10
1535.0
 20
-238.0
 30
0.0
  0
VERTEX
  5
74FFA48D8391
100
AcDbEntity
  8
DETAIL_MEDIUM
100
AcDbVertex
100
AcDb2dVertex
 10
1525.0
 20
-240.0
 30
0.0
  0
VERTEX
  5
74FFA48D8392
100
AcDbEntity
  8
DETAIL_MEDIUM
100
AcDbVertex
100
AcDb2dVertex
 10
1515.0
 20
-240.0
 30
0.0
  0
VERTEX
  5
74FFA48D8393
100
AcDbEntity
  8
DETAIL_MEDIUM
100
AcDbVertex
100
AcDb2dVertex
 10
1515.0
 20
-200.0
 30
0.0
  0
SEQEND
  5
74FFA48D8394
100
AcDbEntity
  8
DETAIL_MEDIUM
  0
LINE
  5
74FFA48D8395
100
AcDbEntity
  8
DETAIL_MEDIUM
  6
CONTINUOUS
100
AcDbLine
 10
1600.0
 20
-220.0
 30
0.0
 11
1545.0
 21
-220.0
 31
0.0
  0
CIRCLE
  5
74FFA48D8388
100
AcDbEntity
  8
SIMPLE
  6
CONTINUOUS
100
AcDbCircle
 10
1510.0
 20
-210.0
 30
0.0
 40
5.0
  0
ENDBLK
  5
FFFF4FE8149F4722
100
AcDbEntity
  8
SIMPLE
  6
CONTINUOUS
100
AcDbBlockEnd
  0
BLOCK
  5
FFFF4FE8149F4725
100
AcDbEntity
  8
PORTS
  6
CONTINUOUS
100
AcDbBlockBegin
  2
TITAN_LUT_REGISTER_SLOAD_PORT
 70
     2
 10
0.0
 20
0.0
 30
0.0
  1

  0
POLYLINE
  5
74FFA48D838C
100
AcDbEntity
  8
PORTS
  6
CONTINUOUS
100
AcDb2dPolyline
 66
     1
 10
0.0
 20
0.0
 30
0.0
 70
     1
  0
VERTEX
  5
74FFA48D838D
100
AcDbEntity
  8
PORTS
  6
CONTINUOUS
100
AcDbVertex
100
AcDb2dVertex
 10
1395.0
 20
-165.0
 30
0.0
  0
VERTEX
  5
74FFA48D838E
100
AcDbEntity
  8
PORTS
  6
CONTINUOUS
100
AcDbVertex
100
AcDb2dVertex
 10
1387.0
 20
-171.0
 30
0.0
  0
VERTEX
  5
74FFA48D838F
100
AcDbEntity
  8
PORTS
  6
CONTINUOUS
100
AcDbVertex
100
AcDb2dVertex
 10
1315.0
 20
-171.0
 30
0.0
  0
VERTEX
  5
74FFA48D8390
100
AcDbEntity
  8
PORTS
  6
CONTINUOUS
100
AcDbVertex
100
AcDb2dVertex
 10
1315.0
 20
-159.0
 30
0.0
  0
VERTEX
  5
74FFA48D8391
100
AcDbEntity
  8
PORTS
  6
CONTINUOUS
100
AcDbVertex
100
AcDb2dVertex
 10
1387.0
 20
-159.0
 30
0.0
  0
VERTEX
  5
74FFA48D8392
100
AcDbEntity
  8
PORTS
  6
CONTINUOUS
100
AcDbVertex
100
AcDb2dVertex
 10
1395.0
 20
-165.0
 30
0.0
  0
SEQEND
  5
74FFA48D8393
100
AcDbEntity
  8
PORTS
  6
CONTINUOUS
  0
POINT
  5
74FFA48D8394
100
AcDbEntity
  8
PORTS
  6
CONTINUOUS
100
AcDbPoint
 10
1395.0
 20
-165.0
 30
0.0
  0
ATTDEF
  5
74FFA48D838B
100
AcDbEntity
  8
PORTS
  6
CONTINUOUS
100
AcDbText
 10
1340.0
 20
-155.0
 30
0.0
 40
7.071068
  1

  7
SIMPLEX
100
AcDbAttributeDefinition
  3

  2
SIDE
 70
     0
  0
ENDBLK
  5
FFFF4FE8149F4727
100
AcDbEntity
  8
PORTS
  6
CONTINUOUS
100
AcDbBlockEnd
  0
BLOCK
  5
FFFF4FE8149F472C
100
AcDbEntity
  8
DETAIL_MEDIUM
  6
CONTINUOUS
100
AcDbBlockBegin
  2
TITAN_LUT_REGISTER_SLOAD_WIRE
 70
     0
 10
0.0
 20
0.0
 30
0.0
  1

  0
LINE
  5
74FFA48D8393
100
AcDbEntity
  8
DETAIL_MEDIUM
  6
CONTINUOUS
100
AcDbLine
 10
1395.0
 20
-165.0
 30
0.0
 11
1460.0
 21
-165.0
 31
0.0
  0
LINE
  5
74FFA48D8394
100
AcDbEntity
  8
DETAIL_MEDIUM
  6
CONTINUOUS
100
AcDbLine
 10
1460.0
 20
-205.0
 30
0.0
 11
1460.0
 21
-165.0
 31
0.0
  0
ENDBLK
  5
FFFF4FE8149F472E
100
AcDbEntity
  8
DETAIL_MEDIUM
  6
CONTINUOUS
100
AcDbBlockEnd
  0
BLOCK
  5
FFFF4FE8149F4731
100
AcDbEntity
  8
PORTS
  6
CONTINUOUS
100
AcDbBlockBegin
  2
TITAN_LUT_REGISTER_SCLR_PORT
 70
     2
 10
0.0
 20
0.0
 30
0.0
  1

  0
POLYLINE
  5
74FFA48D83B4
100
AcDbEntity
  8
PORTS
  6
CONTINUOUS
100
AcDb2dPolyline
 66
     1
 10
0.0
 20
0.0
 30
0.0
 70
     1
  0
VERTEX
  5
74FFA48D83B5
100
AcDbEntity
  8
PORTS
  6
CONTINUOUS
100
AcDbVertex
100
AcDb2dVertex
 10
1395.0
 20
-115.0
 30
0.0
  0
VERTEX
  5
74FFA48D83B6
100
AcDbEntity
  8
PORTS
  6
CONTINUOUS
100
AcDbVertex
100
AcDb2dVertex
 10
1387.0
 20
-121.0
 30
0.0
  0
VERTEX
  5
74FFA48D83B7
100
AcDbEntity
  8
PORTS
  6
CONTINUOUS
100
AcDbVertex
100
AcDb2dVertex
 10
1315.0
 20
-121.0
 30
0.0
  0
VERTEX
  5
74FFA48D83B8
100
AcDbEntity
  8
PORTS
  6
CONTINUOUS
100
AcDbVertex
100
AcDb2dVertex
 10
1315.0
 20
-109.0
 30
0.0
  0
VERTEX
  5
74FFA48D83B9
100
AcDbEntity
  8
PORTS
  6
CONTINUOUS
100
AcDbVertex
100
AcDb2dVertex
 10
1387.0
 20
-109.0
 30
0.0
  0
VERTEX
  5
74FFA48D83BA
100
AcDbEntity
  8
PORTS
  6
CONTINUOUS
100
AcDbVertex
100
AcDb2dVertex
 10
1395.0
 20
-115.0
 30
0.0
  0
SEQEND
  5
74FFA48D83BB
100
AcDbEntity
  8
PORTS
  6
CONTINUOUS
  0
ATTDEF
  5
74FFA48D83BD
100
AcDbEntity
  8
PORTS
  6
CONTINUOUS
100
AcDbText
 10
1340.0
 20
-105.0
 30
0.0
 40
7.071068
  1

  7
SIMPLEX
100
AcDbAttributeDefinition
  3

  2
SIDE
 70
     0
  0
POINT
  5
74FFA48D83BC
100
AcDbEntity
  8
PORTS
  6
CONTINUOUS
100
AcDbPoint
 10
1395.0
 20
-115.0
 30
0.0
  0
ENDBLK
  5
FFFF4FE8149F4733
100
AcDbEntity
  8
PORTS
  6
CONTINUOUS
100
AcDbBlockEnd
  0
BLOCK
  5
FFFF4FE8149F4738
100
AcDbEntity
  8
DETAIL_MEDIUM
  6
CONTINUOUS
100
AcDbBlockBegin
  2
TITAN_LUT_REGISTER_SCLR_WIRE
 70
     0
 10
0.0
 20
0.0
 30
0.0
  1

  0
LINE
  5
74FFA48D83BC
100
AcDbEntity
  8
DETAIL_MEDIUM
  6
CONTINUOUS
100
AcDbLine
 10
1395.0
 20
-115.0
 30
0.0
 11
1495.0
 21
-115.0
 31
0.0
  0
LINE
  5
74FFA48D83BD
100
AcDbEntity
  8
DETAIL_MEDIUM
  6
CONTINUOUS
100
AcDbLine
 10
1495.0
 20
-210.0
 30
0.0
 11
1495.0
 21
-115.0
 31
0.0
  0
LINE
  5
74FFA48D83BE
100
AcDbEntity
  8
DETAIL_MEDIUM
  6
CONTINUOUS
100
AcDbLine
 10
1495.0
 20
-210.0
 30
0.0
 11
1505.0
 21
-210.0
 31
0.0
  0
ENDBLK
  5
FFFF4FE8149F473A
100
AcDbEntity
  8
DETAIL_MEDIUM
  6
CONTINUOUS
100
AcDbBlockEnd
  0
BLOCK
  5
FFFF4FE814B96788
100
AcDbEntity
  8
SIMPLE
  6
CONTINUOUS
100
AcDbBlockBegin
  2
TITAN_LUT_FF
 70
     0
 10
0.0
 20
0.0
 30
0.0
  1

  0
POLYLINE
  5
FFFF4FE8149F557E
100
AcDbEntity
  8
DETAIL_MEDIUM
  6
CONTINUOUS
100
AcDb2dPolyline
 66
     1
 10
0.0
 20
0.0
 30
0.0
 70
     1
  0
VERTEX
  5
FFFF4FE8149F557F
100
AcDbEntity
  8
DETAIL_MEDIUM
  6
CONTINUOUS
100
AcDbVertex
100
AcDb2dVertex
 10
570.260476
 20
-610.233967
 30
0.0
  0
VERTEX
  5
FFFF4FE8149F5580
100
AcDbEntity
  8
DETAIL_MEDIUM
  6
CONTINUOUS
100
AcDbVertex
100
AcDb2dVertex
 10
793.39342
 20
-610.233967
 30
0.0
  0
VERTEX
  5
FFFF4FE8149F5581
100
AcDbEntity
  8
DETAIL_MEDIUM
  6
CONTINUOUS
100
AcDbVertex
100
AcDb2dVertex
 10
793.39342
 20
-972.825
 30
0.0
  0
VERTEX
  5
FFFF4FE8149F5582
100
AcDbEntity
  8
DETAIL_MEDIUM
  6
CONTINUOUS
100
AcDbVertex
100
AcDb2dVertex
 10
570.260476
 20
-972.825
 30
0.0
  0
SEQEND
  5
FFFF4FE8149F5583
100
AcDbEntity
  8
DETAIL_MEDIUM
  6
CONTINUOUS
  0
TEXT
  5
FFFF4FE8149F5584
100
AcDbEntity
  8
DETAIL_MEDIUM
  6
CONTINUOUS
100
AcDbText
 10
583.158339
 20
-666.050975
 30
0.0
 40
20.0
  1
D
  7
SIMPLEX
100
AcDbText
  0
TEXT
  5
FFFF4FE8149F5585
100
AcDbEntity
  8
DETAIL_MEDIUM
  6
CONTINUOUS
100
AcDbText
 10
763.059274
 20
-666.050975
 30
0.0
 40
20.0
  1
Q
  7
SIMPLEX
100
AcDbText
  0
LINE
  5
FFFF4FE8149F5586
100
AcDbEntity
  8
SIMPLE
  6
CONTINUOUS
100
AcDbLine
 10
570.260476
 20
-759.454123
 30
0.0
 11
609.930878
 21
-787.031423
 31
0.0
  0
LINE
  5
FFFF4FE8149F5587
100
AcDbEntity
  8
SIMPLE
  6
CONTINUOUS
100
AcDbLine
 10
609.930878
 20
-787.031423
 30
0.0
 11
570.882613
 21
-814.923041
 31
0.0
  0
TEXT
  5
FFFF4FE8149F5589
100
AcDbEntity
  8
DETAIL_MEDIUM
  6
CONTINUOUS
100
AcDbText
 10
578.974596
 20
-878.027272
 30
0.0
 40
20.0
  1
en
  7
SIMPLEX
100
AcDbText
  0
TEXT
  5
FFFF4FE8149F558E
100
AcDbEntity
  8
DETAIL_MEDIUM
  6
CONTINUOUS
100
AcDbText
 10
672.411516
 20
-639.553938
 30
0.0
 40
20.0
  1
A
  7
SIMPLEX
100
AcDbText
  0
TEXT
  5
FFFF4FE8149F558F
100
AcDbEntity
  8
DETAIL_MEDIUM
  6
CONTINUOUS
100
AcDbText
 10
672.411516
 20
-963.096706
 30
0.0
 40
20.0
  1
S
  7
SIMPLEX
100
AcDbText
  0
LINE
  5
FFFF4FE8149F5590
100
AcDbEntity
  8
SIMPLE
  6
CONTINUOUS
100
AcDbLine
 10
658.74121
 20
-610.279794
 30
0.0
 11
658.74121
 21
-647.933478
 31
0.0
  0
LINE
  5
FFFF4FE8149F5591
100
AcDbEntity
  8
SIMPLE
  6
CONTINUOUS
100
AcDbLine
 10
658.74121
 20
-647.933478
 30
0.0
 11
700.578637
 21
-647.933478
 31
0.0
  0
LINE
  5
FFFF4FE8149F5592
100
AcDbEntity
  8
SIMPLE
  6
CONTINUOUS
100
AcDbLine
 10
700.578637
 20
-647.933478
 30
0.0
 11
700.578637
 21
-610.279794
 31
0.0
  0
LINE
  5
FFFF4FE8149F5594
100
AcDbEntity
  8
SIMPLE
  6
CONTINUOUS
100
AcDbLine
 10
658.74121
 20
-934.868498
 30
0.0
 11
658.74121
 21
-972.522182
 31
0.0
  0
LINE
  5
FFFF4FE8149F5595
100
AcDbEntity
  8
SIMPLE
  6
CONTINUOUS
100
AcDbLine
 10
700.578637
 20
-934.868498
 30
0.0
 11
658.74121
 21
-934.868498
 31
0.0
  0
LINE
  5
FFFF4FE8149F5596
100
AcDbEntity
  8
SIMPLE
  6
CONTINUOUS
100
AcDbLine
 10
700.578637
 20
-972.522182
 30
0.0
 11
700.578637
 21
-934.868498
 31
0.0
  0
LINE
  5
FFFF4FE814A5CE87
100
AcDbEntity
  8
SIMPLE
  6
CONTINUOUS
100
AcDbLine
 10
946.076518
 20
-657.987241
 30
0.0
 11
793.39342
 21
-657.987241
 31
0.0
  0
ENDBLK
  5
FFFF4FE814B96789
100
AcDbEntity
  8
SIMPLE
  6
CONTINUOUS
100
AcDbBlockEnd
  0
BLOCK
  5
FFFF4FE814B967BD
100
AcDbEntity
  8
SIMPLE
  6
CONTINUOUS
 62
    50
100
AcDbBlockBegin
  2
TITAN_LUT_REGISTER
 70
     0
 10
0.0
 20
0.0
 30
0.0
  1

  0
LINE
  5
FFFF4FE8149F5393
100
AcDbEntity
  8
DETAIL_MEDIUM
  6
CONTINUOUS
100
AcDbLine
 10
1225.0
 20
-195.0
 30
0.0
 11
1225.0
 21
-195.0
 31
0.0
  0
LINE
  5
FFFF4FE8149F5394
100
AcDbEntity
  8
DETAIL_MEDIUM
100
AcDbLine
 39
2.0
 10
1225.0
 20
-857.020164
 30
0.0
 11
1225.0
 21
-857.020164
 31
0.0
  0
LINE
  5
FFFF4FE8149F5395
100
AcDbEntity
  8
SIMPLE
  6
CONTINUOUS
 62
    50
100
AcDbLine
 10
1255.0
 20
-227.257935
 30
0.0
 11
1255.0
 21
-227.257935
 31
0.0
  0
INSERT
  5
FFFF4FE8149F5396
100
AcDbEntity
  8
DETAIL_MEDIUM
  6
CONTINUOUS
100
AcDbBlockReference
  2
TITAN_ALM_DATAIN_REG_1
 10
0.0
 20
0.0
 30
0.0
  0
INSERT
  5
FFFF4FE8149F539E
100
AcDbEntity
  8
PORTS
  6
CONTINUOUS
100
AcDbBlockReference
 66
     1
  2
TITAN_LUT_FF_CLK_ENABLE_PORT
 10
0.0
 20
0.0
 30
0.0
  0
ATTRIB
  5
FFFF4FE8149F539F
100
AcDbEntity
  8
PORTS
  6
CONTINUOUS
100
AcDbText
 10
230.0
 20
-70.0
 30
0.0
 40
7.071068
  1
LEFT
  7
SIMPLEX
100
AcDbAttribute
  2
SIDE
 70
     0
  0
SEQEND
  5
FFFF4FE8149F53A0
100
AcDbEntity
  8
PORTS
  6
CONTINUOUS
  0
INSERT
  5
FFFF4FE8149F53A1
100
AcDbEntity
  8
DETAIL_MEDIUM
  6
CONTINUOUS
100
AcDbBlockReference
  2
TITAN_LUT_FF_CLK_ENABLE_WIRE0
 10
0.0
 20
0.0
 30
0.0
  0
INSERT
  5
FFFF4FE8149F53A2
100
AcDbEntity
  8
PORTS
  6
CONTINUOUS
100
AcDbBlockReference
 66
     1
  2
TITAN_LUT_FF_CLK_PORT
 10
0.0
 20
0.0
 30
0.0
  0
ATTRIB
  5
FFFF4FE8149F53A3
100
AcDbEntity
  8
PORTS
  6
CONTINUOUS
100
AcDbText
 10
230.0
 20
-255.0
 30
0.0
 40
7.071068
  1
LEFT
  7
SIMPLEX
100
AcDbAttribute
  2
SIDE
 70
     0
  0
SEQEND
  5
FFFF4FE8149F53A4
100
AcDbEntity
  8
PORTS
  6
CONTINUOUS
  0
INSERT
  5
FFFF4FE8149F53A5
100
AcDbEntity
  8
PORTS
  6
CONTINUOUS
100
AcDbBlockReference
 66
     1
  2
TITAN_LUT_FF_ACLR_PORT
 10
0.0
 20
0.0
 30
0.0
  0
ATTRIB
  5
FFFF4FE8149F53A6
100
AcDbEntity
  8
PORTS
  6
CONTINUOUS
100
AcDbText
 10
230.0
 20
-350.0
 30
0.0
 40
7.071068
  1
LEFT
  7
SIMPLEX
100
AcDbAttribute
  2
SIDE
 70
     0
  0
SEQEND
  5
FFFF4FE8149F53A7
100
AcDbEntity
  8
PORTS
  6
CONTINUOUS
  0
INSERT
  5
FFFF4FE8149F53A8
100
AcDbEntity
  8
PORTS
  6
CONTINUOUS
100
AcDbBlockReference
 66
     1
  2
TITAN_LUT_FF_SCLR_PORT
 10
0.0
 20
0.0
 30
0.0
  0
ATTRIB
  5
FFFF4FE8149F53A9
100
AcDbEntity
  8
PORTS
  6
CONTINUOUS
100
AcDbText
 10
230.0
 20
-620.0
 30
0.0
 40
7.071068
  1
LEFT
  7
SIMPLEX
100
AcDbAttribute
  2
SIDE
 70
     0
  0
SEQEND
  5
FFFF4FE8149F53AA
100
AcDbEntity
  8
PORTS
  6
CONTINUOUS
  0
INSERT
  5
FFFF4FE8149F53AB
100
AcDbEntity
  8
DETAIL_MEDIUM
  6
CONTINUOUS
100
AcDbBlockReference
  2
TITAN_LUT_FF_SCLR_WIRE0
 10
0.0
 20
0.0
 30
0.0
  0
INSERT
  5
FFFF4FE8149F53AC
100
AcDbEntity
  8
PORTS
  6
CONTINUOUS
100
AcDbBlockReference
 66
     1
  2
TITAN_LUT_FF_DATAIN_PORT
 10
0.0
 20
0.0
 30
0.0
  0
ATTRIB
  5
FFFF4FE8149F53AD
100
AcDbEntity
  8
PORTS
  6
CONTINUOUS
100
AcDbText
 10
230.0
 20
-900.0
 30
0.0
 40
7.071068
  1
LEFT
  7
SIMPLEX
100
AcDbAttribute
  2
SIDE
 70
     0
  0
SEQEND
  5
FFFF4FE8149F53AE
100
AcDbEntity
  8
PORTS
  6
CONTINUOUS
  0
INSERT
  5
FFFF4FE8149F53AF
100
AcDbEntity
  8
DETAIL_MEDIUM
  6
CONTINUOUS
100
AcDbBlockReference
  2
TITAN_LUT_FF_ADATASDATA_F1
 10
0.0
 20
0.0
 30
0.0
  0
INSERT
  5
FFFF4FE8149F53B0
100
AcDbEntity
  8
DETAIL_MEDIUM
  6
CONTINUOUS
100
AcDbBlockReference
  2
TITAN_LUT_FF_ADATASDATA_E0
 10
0.0
 20
0.0
 30
0.0
  0
INSERT
  5
FFFF4FE8149F53B1
100
AcDbEntity
  8
SIMPLE
  6
CONTINUOUS
100
AcDbBlockReference
  2
TITAN_LUT_FF_REG_CASC_0
 10
0.0
 20
0.0
 30
0.0
  0
INSERT
  5
FFFF4FE8149F53B2
100
AcDbEntity
  8
DETAIL_MEDIUM
  6
CONTINUOUS
100
AcDbBlockReference
  2
TITAN_LUT_FF_REG_CASC_1
 10
0.0
 20
0.0
 30
0.0
  0
INSERT
  5
FFFF4FE8149F53B3
100
AcDbEntity
  8
SIMPLE
  6
CONTINUOUS
100
AcDbBlockReference
  2
TITAN_ALM_ADATASDATA_REG_1
 10
0.0
 20
0.0
 30
0.0
  0
INSERT
  5
FFFF4FE8149F53B4
100
AcDbEntity
  8
DETAIL_MEDIUM
  6
CONTINUOUS
100
AcDbBlockReference
  2
TITAN_ALM_ADATASDATA_1_WIRE
 10
0.0
 20
0.0
 30
0.0
  0
INSERT
  5
FFFF4FE8149F53B5
100
AcDbEntity
  8
PORTS
  6
CONTINUOUS
100
AcDbBlockReference
 66
     1
  2
TITAN_ALM_ADATASDATA_1_PORT
 10
0.0
 20
0.0
 30
0.0
  0
ATTRIB
  5
FFFF4FE8149F53B6
100
AcDbEntity
  8
PORTS
  6
CONTINUOUS
100
AcDbText
 10
1339.684227
 20
-785.217071
 30
0.0
 40
7.071068
  1
LEFT
  7
SIMPLEX
100
AcDbAttribute
  2
SIDE
 70
     0
  0
SEQEND
  5
FFFF4FE8149F53B7
100
AcDbEntity
  8
PORTS
  6
CONTINUOUS
  0
INSERT
  5
FFFF4FE8149F53B8
100
AcDbEntity
  8
PORTS
  6
CONTINUOUS
100
AcDbBlockReference
 66
     1
  2
TITAN_ALM_DATAIN_1_PORT
 10
0.0
 20
0.0
 30
0.0
  0
ATTRIB
  5
FFFF4FE8149F53B9
100
AcDbEntity
  8
PORTS
  6
CONTINUOUS
100
AcDbText
 10
1339.684227
 20
-754.920495
 30
0.0
 40
7.071068
  1
LEFT
  7
SIMPLEX
100
AcDbAttribute
  2
SIDE
 70
     0
  0
SEQEND
  5
FFFF4FE8149F53BA
100
AcDbEntity
  8
PORTS
  6
CONTINUOUS
  0
INSERT
  5
FFFF4FE8149F53BB
100
AcDbEntity
  8
SIMPLE
  6
CONTINUOUS
100
AcDbBlockReference
  2
TITAN_LUT_FF_REG_CASC_IN_0
 10
0.0
 20
0.0
 30
0.0
  0
INSERT
  5
FFFF4FE8149F53BC
100
AcDbEntity
  8
SIMPLE
  6
CONTINUOUS
100
AcDbBlockReference
  2
TITAN_ALM_DATAIN_REG_0
 10
0.0
 20
0.0
 30
0.0
  0
INSERT
  5
FFFF4FE8149F53BD
100
AcDbEntity
  8
SIMPLE
  6
CONTINUOUS
100
AcDbBlockReference
  2
TITAN_ALM_ADATASDATA_REG_0
 10
0.0
 20
0.0
 30
0.0
  0
INSERT
  5
FFFF4FE8149F53BE
100
AcDbEntity
  8
DETAIL_MEDIUM
  6
CONTINUOUS
100
AcDbBlockReference
  2
TITAN_ALM_ADATASDATA_0_WIRE
 10
0.0
 20
0.0
 30
0.0
  0
INSERT
  5
FFFF4FE8149F53BF
100
AcDbEntity
  8
PORTS
  6
CONTINUOUS
100
AcDbBlockReference
 66
     1
  2
TITAN_ALM_ADATASDATA_0_PORT
 10
0.0
 20
0.0
 30
0.0
  0
ATTRIB
  5
FFFF4FE8149F53C0
100
AcDbEntity
  8
PORTS
  6
CONTINUOUS
100
AcDbText
 10
1339.684227
 20
-235.13556
 30
0.0
 40
7.071068
  1
LEFT
  7
SIMPLEX
100
AcDbAttribute
  2
SIDE
 70
     0
  0
SEQEND
  5
FFFF4FE8149F53C1
100
AcDbEntity
  8
PORTS
  6
CONTINUOUS
  0
INSERT
  5
FFFF4FE8149F53C2
100
AcDbEntity
  8
PORTS
  6
CONTINUOUS
100
AcDbBlockReference
 66
     1
  2
TITAN_ALM_DATAIN_0_PORT
 10
0.0
 20
0.0
 30
0.0
  0
ATTRIB
  5
FFFF4FE8149F53C3
100
AcDbEntity
  8
PORTS
  6
CONTINUOUS
100
AcDbText
 10
1339.684227
 20
-204.8331
 30
0.0
 40
7.071068
  1
LEFT
  7
SIMPLEX
100
AcDbAttribute
  2
SIDE
 70
     0
  0
SEQEND
  5
FFFF4FE8149F53C4
100
AcDbEntity
  8
PORTS
  6
CONTINUOUS
  0
INSERT
  5
FFFF4FE8149F53C5
100
AcDbEntity
  8
SIMPLE
  6
CONTINUOUS
 62
    50
100
AcDbBlockReference
 66
     1
  2
TITAN_ALM_COMMON_REGISTER_BLOCK
 10
0.0
 20
0.0
 30
0.0
  0
ATTRIB
  5
FFFF4FE8149F53C6
100
AcDbEntity
  8
SIMPLE
  6
CONTINUOUS
100
AcDbText
 10
1170.0
 20
-525.0
 30
0.0
 40
20.0
  1
0
  7
SIMPLEX
100
AcDbAttribute
  2
index
 70
     0
  0
SEQEND
  5
FFFF4FE8149F53C7
100
AcDbEntity
  8
SIMPLE
  6
CONTINUOUS
 62
    50
  0
INSERT
  5
FFFF4FE8149F53C8
100
AcDbEntity
  8
SIMPLE
  6
CONTINUOUS
 62
    50
100
AcDbBlockReference
 66
     1
  2
TITAN_ALM_COMMON_REGISTER_BLOCK
 10
0.0
 20
-550.831396
 30
0.0
  0
ATTRIB
  5
FFFF4FE8149F53C9
100
AcDbEntity
  8
SIMPLE
  6
CONTINUOUS
100
AcDbText
 10
1170.0
 20
-1075.831396
 30
0.0
 40
20.0
  1
1
  7
SIMPLEX
100
AcDbAttribute
  2
index
 70
     0
  0
SEQEND
  5
FFFF4FE8149F53CA
100
AcDbEntity
  8
SIMPLE
  6
CONTINUOUS
 62
    50
  0
INSERT
  5
FFFF4FE8149F53CB
100
AcDbEntity
  8
SIMPLE
  6
CONTINUOUS
100
AcDbBlockReference
  2
TITAN_LUT_FF_ADATASDATA_E1
 10
0.0
 20
0.0
 30
0.0
  0
INSERT
  5
FFFF4FE8149F53CC
100
AcDbEntity
  8
SIMPLE
  6
CONTINUOUS
100
AcDbBlockReference
  2
TITAN_LUT_FF_ADATASDATA_F0
 10
0.0
 20
0.0
 30
0.0
  0
INSERT
  5
FFFF4FE814B96779
100
AcDbEntity
  8
SIMPLE
  6
CONTINUOUS
100
AcDbBlockReference
  2
TITAN_LUT_FF_REGOUT_WIRE0
 10
0.0
 20
0.0
 30
0.0
  0
INSERT
  5
FFFF4FE814B9677C
100
AcDbEntity
  8
SIMPLE
  6
CONTINUOUS
100
AcDbBlockReference
  2
TITAN_LUT_FF_REGOUT_WIRE1
 10
0.0
 20
0.0
 30
0.0
  0
INSERT
  5
FFFF4FE814B9677F
100
AcDbEntity
  8
SIMPLE
  6
CONTINUOUS
100
AcDbBlockReference
  2
TITAN_LUT_FF_REGOUT_WIRE2
 10
0.0
 20
0.0
 30
0.0
  0
INSERT
  5
FFFF4FE814B96782
100
AcDbEntity
  8
DETAIL_MEDIUM
  6
CONTINUOUS
100
AcDbBlockReference
  2
TITAN_LUT_FF_REGOUT_POINT
 10
0.0
 20
0.0
 30
0.0
  0
INSERT
  5
FFFF4FE814B96785
100
AcDbEntity
  8
PORTS
  6
CONTINUOUS
100
AcDbBlockReference
 66
     1
  2
TITAN_LUT_FF_REGOUT
 10
0.0
 20
0.0
 30
0.0
  0
ATTRIB
  5
FFFF4FE814B96786
100
AcDbEntity
  8
PORTS
  6
CONTINUOUS
100
AcDbText
 10
961.076518
 20
-642.987241
 30
0.0
 40
7.071068
  1
RIGHT
  7
SIMPLEX
100
AcDbAttribute
  2
SIDE
 70
     0
  0
SEQEND
  5
FFFF4FE814B96787
100
AcDbEntity
  8
PORTS
  6
CONTINUOUS
  0
INSERT
  5
FFFF4FE814B9678A
100
AcDbEntity
  8
SIMPLE
  6
CONTINUOUS
100
AcDbBlockReference
  2
TITAN_LUT_FF
 10
0.0
 20
0.0
 30
0.0
  0
INSERT
  5
FFFF4FE814B9678D
100
AcDbEntity
  8
SIMPLE
  6
CONTINUOUS
100
AcDbBlockReference
  2
TITAN_LUT_FF_CLK_ENABLE_WIRE1
 10
0.0
 20
0.0
 30
0.0
  0
INSERT
  5
FFFF4FE814B96790
100
AcDbEntity
  8
SIMPLE
  6
CONTINUOUS
100
AcDbBlockReference
  2
TITAN_LUT_FF_CLK_WIRE0
 10
0.0
 20
0.0
 30
0.0
  0
INSERT
  5
FFFF4FE814B96793
100
AcDbEntity
  8
SIMPLE
  6
CONTINUOUS
100
AcDbBlockReference
  2
TITAN_LUT_FF_ACLR_WIRE0
 10
0.0
 20
0.0
 30
0.0
  0
INSERT
  5
FFFF4FE814B96796
100
AcDbEntity
  8
SIMPLE
  6
CONTINUOUS
100
AcDbBlockReference
  2
TITAN_LUT_FF_SCLR_WIRE1
 10
0.0
 20
0.0
 30
0.0
  0
INSERT
  5
FFFF4FE814B9679A
100
AcDbEntity
  8
SIMPLE
  6
CONTINUOUS
100
AcDbBlockReference
  2
TITAN_LUT_FF_SCLR_WIRE2
 10
0.0
 20
0.0
 30
0.0
  0
INSERT
  5
FFFF4FE814B9679E
100
AcDbEntity
  8
SIMPLE
  6
CONTINUOUS
100
AcDbBlockReference
  2
TITAN_LUT_FF_SCLR_WIRE3
 10
0.0
 20
0.0
 30
0.0
  0
INSERT
  5
FFFF4FE814B967A2
100
AcDbEntity
  8
SIMPLE
  6
CONTINUOUS
100
AcDbBlockReference
  2
TITAN_LUT_FF_DATAIN_WIRE0
 10
0.0
 20
0.0
 30
0.0
  0
INSERT
  5
FFFF4FE814B967AA
100
AcDbEntity
  8
SIMPLE
  6
CONTINUOUS
100
AcDbBlockReference
  2
TITAN_LUT_FF_DATAIN_WIRE2
 10
0.0
 20
0.0
 30
0.0
  0
INSERT
  5
FFFF4FE814B967AE
100
AcDbEntity
  8
SIMPLE
  6
CONTINUOUS
100
AcDbBlockReference
  2
TITAN_LUT_FF_COMB_NODE_LUT
 10
0.0
 20
0.0
 30
0.0
  0
INSERT
  5
FFFF4FE814B967B2
100
AcDbEntity
  8
PORTS
  6
CONTINUOUS
100
AcDbBlockReference
 66
     1
  2
TITAN_LUT_FF_COMBOUT_PORT
 10
0.0
 20
0.0
 30
0.0
  0
ATTRIB
  5
FFFF4FE814B967B3
100
AcDbEntity
  8
PORTS
  6
CONTINUOUS
100
AcDbText
 10
961.076518
 20
-244.137104
 30
0.0
 40
7.071068
  1
RIGHT
  7
SIMPLEX
100
AcDbAttribute
  2
SIDE
 70
     0
  0
SEQEND
  5
FFFF4FE814B967B4
100
AcDbEntity
  8
PORTS
  6
CONTINUOUS
  0
INSERT
  5
FFFF4FE814B967BC
100
AcDbEntity
  8
SIMPLE
  6
CONTINUOUS
100
AcDbBlockReference
  2
TITAN_LUT_FF_DATAIN_MUX
 10
0.0
 20
0.0
 30
0.0
  0
ENDBLK
  5
FFFF4FE814B967BE
100
AcDbEntity
  8
SIMPLE
  6
CONTINUOUS
 62
    50
100
AcDbBlockEnd
  0
BLOCK
  5
FFFF4FE814B96797
100
AcDbEntity
  8
SIMPLE
  6
CONTINUOUS
100
AcDbBlockBegin
  2
TITAN_LUT_FF_SCLR_WIRE2
 70
     0
 10
0.0
 20
0.0
 30
0.0
  1

  0
LINE
  5
FFFF4FE814B9676D
100
AcDbEntity
  8
SIMPLE
  6
CONTINUOUS
100
AcDbLine
 10
312.217904
 20
-630.0
 30
0.0
 11
312.217904
 21
-1001.024262
 31
0.0
  0
LINE
  5
FFFF4FE814B9676E
100
AcDbEntity
  8
SIMPLE
  6
CONTINUOUS
100
AcDbLine
 10
312.217904
 20
-1001.024262
 30
0.0
 11
678.992681
 21
-1001.024262
 31
0.0
  0
LINE
  5
FFFF4FE814B9676F
100
AcDbEntity
  8
SIMPLE
  6
CONTINUOUS
100
AcDbLine
 10
678.992681
 20
-1001.024262
 30
0.0
 11
678.992681
 21
-972.825
 31
0.0
  0
ENDBLK
  5
FFFF4FE814B96799
100
AcDbEntity
  8
SIMPLE
  6
CONTINUOUS
100
AcDbBlockEnd
  0
BLOCK
  5
FFFF4FE814B9679B
100
AcDbEntity
  8
SIMPLE
  6
CONTINUOUS
100
AcDbBlockBegin
  2
TITAN_LUT_FF_SCLR_WIRE3
 70
     0
 10
0.0
 20
0.0
 30
0.0
  1

  0
LINE
  5
FFFF4FE814B9676A
100
AcDbEntity
  8
SIMPLE
  6
CONTINUOUS
100
AcDbLine
 10
312.217904
 20
-630.0
 30
0.0
 11
312.217904
 21
-206.11315
 31
0.0
  0
LINE
  5
FFFF4FE814B9676B
100
AcDbEntity
  8
SIMPLE
  6
CONTINUOUS
100
AcDbLine
 10
312.217904
 20
-206.11315
 30
0.0
 11
523.631082
 21
-206.11315
 31
0.0
  0
ENDBLK
  5
FFFF4FE814B9679D
100
AcDbEntity
  8
SIMPLE
  6
CONTINUOUS
100
AcDbBlockEnd
  0
BLOCK
  5
FFFF4FE814B9679F
100
AcDbEntity
  8
SIMPLE
  6
CONTINUOUS
100
AcDbBlockBegin
  2
TITAN_LUT_FF_DATAIN_WIRE0
 70
     0
 10
0.0
 20
0.0
 30
0.0
  1

  0
LINE
  5
FFFF4FE814A5CE77
100
AcDbEntity
  8
DETAIL_MEDIUM
  6
CONTINUOUS
100
AcDbLine
 10
30.0
 20
-510.0
 30
0.0
 11
30.0
 21
-500.0
 31
0.0
  0
LINE
  5
FFFF4FE814A5CE78
100
AcDbEntity
  8
DETAIL_MEDIUM
  6
CONTINUOUS
100
AcDbLine
 10
30.0
 20
-500.0
 30
0.0
 11
20.0
 21
-500.0
 31
0.0
  0
LINE
  5
FFFF4FE814A5CE79
100
AcDbEntity
  8
DETAIL_MEDIUM
  6
CONTINUOUS
100
AcDbLine
 10
20.0
 20
-500.0
 30
0.0
 11
20.0
 21
-510.0
 31
0.0
  0
LINE
  5
FFFF4FE814A5CE7A
100
AcDbEntity
  8
DETAIL_MEDIUM
  6
CONTINUOUS
100
AcDbLine
 10
20.0
 20
-510.0
 30
0.0
 11
30.0
 21
-510.0
 31
0.0
  0
LINE
  5
FFFF4FE814A5CE7B
100
AcDbEntity
  8
DETAIL_MEDIUM
  6
CONTINUOUS
100
AcDbLine
 10
30.0
 20
-510.0
 30
0.0
 11
20.0
 21
-500.0
 31
0.0
  0
LINE
  5
FFFF4FE814A5CE7C
100
AcDbEntity
  8
DETAIL_MEDIUM
  6
CONTINUOUS
100
AcDbLine
 10
20.0
 20
-510.0
 30
0.0
 11
30.0
 21
-500.0
 31
0.0
  0
LINE
  5
FFFF4FE814B96773
100
AcDbEntity
  8
SIMPLE
  6
CONTINUOUS
100
AcDbLine
 10
30.0
 20
-505.0
 30
0.0
 11
47.221809
 21
-505.0
 31
0.0
  0
LINE
  5
FFFF4FE814B96774
100
AcDbEntity
  8
SIMPLE
  6
CONTINUOUS
100
AcDbLine
 10
47.221809
 20
-505.0
 30
0.0
 11
47.221809
 21
-910.402228
 31
0.0
  0
LINE
  5
FFFF4FE814B96775
100
AcDbEntity
  8
SIMPLE
  6
CONTINUOUS
100
AcDbLine
 10
47.221809
 20
-910.402228
 30
0.0
 11
205.0
 21
-910.402228
 31
0.0
  0
LINE
  5
FFFF4FE814B96763
100
AcDbEntity
  8
SIMPLE
  6
CONTINUOUS
100
AcDbLine
 10
285.0
 20
-910.0
 30
0.0
 11
340.109522
 21
-910.0
 31
0.0
  0
ENDBLK
  5
FFFF4FE814B967A1
100
AcDbEntity
  8
SIMPLE
  6
CONTINUOUS
100
AcDbBlockEnd
  0
BLOCK
  5
FFFF4FE814B967A3
100
AcDbEntity
  8
SIMPLE
  6
CONTINUOUS
100
AcDbBlockBegin
  2
TITAN_LUT_FF_DATAIN_WIRE1
 70
     0
 10
0.0
 20
0.0
 30
0.0
  1

  0
LINE
  5
FFFF4FE814B96767
100
AcDbEntity
  8
SIMPLE
  6
CONTINUOUS
100
AcDbLine
 10
340.109522
 20
-910.0
 30
0.0
 11
450.37145
 21
-910.0
 31
0.0
  0
LINE
  5
FFFF4FE814B9673D
100
AcDbEntity
  8
SIMPLE
  6
CONTINUOUS
100
AcDbLine
 10
450.37145
 20
-910.0
 30
0.0
 11
450.37145
 21
-671.896604
 31
0.0
  0
LINE
  5
FFFF4FE814B9673E
100
AcDbEntity
  8
SIMPLE
  6
CONTINUOUS
100
AcDbLine
 10
450.37145
 20
-671.896604
 30
0.0
 11
490.724259
 21
-671.896604
 31
0.0
  0
LINE
  5
FFFF4FE814B96740
100
AcDbEntity
  8
SIMPLE
  6
CONTINUOUS
100
AcDbLine
 10
490.724259
 20
-671.896604
 30
0.0
 11
520.724259
 21
-655.83868
 31
0.0
  0
ENDBLK
  5
FFFF4FE814B967A5
100
AcDbEntity
  8
SIMPLE
  6
CONTINUOUS
100
AcDbBlockEnd
  0
BLOCK
  5
FFFF4FE814B967A7
100
AcDbEntity
  8
SIMPLE
  6
CONTINUOUS
100
AcDbBlockBegin
  2
TITAN_LUT_FF_DATAIN_WIRE2
 70
     0
 10
0.0
 20
0.0
 30
0.0
  1

  0
LINE
  5
FFFF4FE814B96764
100
AcDbEntity
  8
SIMPLE
  6
CONTINUOUS
100
AcDbLine
 10
340.109522
 20
-910.0
 30
0.0
 11
340.109522
 21
-316.285041
 31
0.0
  0
LINE
  5
FFFF4FE814B96765
100
AcDbEntity
  8
SIMPLE
  6
CONTINUOUS
100
AcDbLine
 10
340.109522
 20
-316.285041
 30
0.0
 11
523.631082
 21
-316.285041
 31
0.0
  0
ENDBLK
  5
FFFF4FE814B967A9
100
AcDbEntity
  8
SIMPLE
  6
CONTINUOUS
100
AcDbBlockEnd
  0
BLOCK
  5
FFFF4FE814B967AB
100
AcDbEntity
  8
SIMPLE
  6
CONTINUOUS
100
AcDbBlockBegin
  2
TITAN_LUT_FF_COMB_NODE_LUT
 70
     0
 10
0.0
 20
0.0
 30
0.0
  1

  0
POLYLINE
  5
FFFF4FE8149F54CA
100
AcDbEntity
  8
DETAIL_MEDIUM
  6
CONTINUOUS
100
AcDb2dPolyline
 66
     1
 10
0.0
 20
0.0
 30
0.0
 70
     1
  0
VERTEX
  5
FFFF4FE8149F54CB
100
AcDbEntity
  8
DETAIL_MEDIUM
  6
CONTINUOUS
100
AcDbVertex
100
AcDb2dVertex
 10
523.629752
 20
-69.741429
 30
0.0
  0
VERTEX
  5
FFFF4FE8149F54CC
100
AcDbEntity
  8
DETAIL_MEDIUM
  6
CONTINUOUS
100
AcDbVertex
100
AcDb2dVertex
 10
847.874435
 20
-69.741429
 30
0.0
  0
VERTEX
  5
FFFF4FE8149F54CD
100
AcDbEntity
  8
DETAIL_MEDIUM
  6
CONTINUOUS
100
AcDbVertex
100
AcDb2dVertex
 10
847.874435
 20
-460.962229
 30
0.0
  0
VERTEX
  5
FFFF4FE8149F54CE
100
AcDbEntity
  8
DETAIL_MEDIUM
  6
CONTINUOUS
100
AcDbVertex
100
AcDb2dVertex
 10
523.632411
 20
-460.962229
 30
0.0
  0
SEQEND
  5
FFFF4FE8149F54CF
100
AcDbEntity
  8
DETAIL_MEDIUM
  6
CONTINUOUS
  0
TEXT
  5
FFFF4FE8149F54D1
100
AcDbEntity
  8
DETAIL_MEDIUM
  6
CONTINUOUS
100
AcDbText
 10
537.137169
 20
-326.960126
 30
0.0
 40
20.0
  1
Data C
  7
SIMPLEX
100
AcDbText
  0
TEXT
  5
FFFF4FE8149F54D5
100
AcDbEntity
  8
DETAIL_MEDIUM
  6
CONTINUOUS
100
AcDbText
 10
537.137169
 20
-217.690779
 30
0.0
 40
20.0
  1
Data F
  7
SIMPLEX
100
AcDbText
  0
LINE
  5
FFFF4FE814A5CE8B
100
AcDbEntity
  8
SIMPLE
  6
CONTINUOUS
100
AcDbLine
 10
946.076518
 20
-258.127022
 30
0.0
 11
847.874435
 21
-258.127022
 31
0.0
  0
ENDBLK
  5
FFFF4FE814B967AD
100
AcDbEntity
  8
SIMPLE
  6
CONTINUOUS
100
AcDbBlockEnd
  0
BLOCK
  5
FFFF4FE814B967AF
100
AcDbEntity
  8
PORTS
  6
CONTINUOUS
100
AcDbBlockBegin
  2
TITAN_LUT_FF_COMBOUT_PORT
 70
     2
 10
0.0
 20
0.0
 30
0.0
  1

  0
POLYLINE
  5
FFFF4FE8149F5597
100
AcDbEntity
  8
PORTS
  6
CONTINUOUS
100
AcDb2dPolyline
 66
     1
 10
0.0
 20
0.0
 30
0.0
 70
     1
  0
VERTEX
  5
FFFF4FE8149F5598
100
AcDbEntity
  8
PORTS
  6
CONTINUOUS
100
AcDbVertex
100
AcDb2dVertex
 10
1026.076518
 20
-259.137104
 30
0.0
  0
VERTEX
  5
FFFF4FE8149F5599
100
AcDbEntity
  8
PORTS
  6
CONTINUOUS
100
AcDbVertex
100
AcDb2dVertex
 10
1018.076518
 20
-265.137104
 30
0.0
  0
VERTEX
  5
FFFF4FE8149F559A
100
AcDbEntity
  8
PORTS
  6
CONTINUOUS
100
AcDbVertex
100
AcDb2dVertex
 10
946.076518
 20
-265.137104
 30
0.0
  0
VERTEX
  5
FFFF4FE8149F559B
100
AcDbEntity
  8
PORTS
  6
CONTINUOUS
100
AcDbVertex
100
AcDb2dVertex
 10
946.076518
 20
-253.137104
 30
0.0
  0
VERTEX
  5
FFFF4FE8149F559C
100
AcDbEntity
  8
PORTS
  6
CONTINUOUS
100
AcDbVertex
100
AcDb2dVertex
 10
1018.076518
 20
-253.137104
 30
0.0
  0
VERTEX
  5
FFFF4FE8149F559D
100
AcDbEntity
  8
PORTS
  6
CONTINUOUS
100
AcDbVertex
100
AcDb2dVertex
 10
1026.076518
 20
-259.137104
 30
0.0
  0
SEQEND
  5
FFFF4FE8149F559E
100
AcDbEntity
  8
PORTS
  6
CONTINUOUS
  0
POINT
  5
FFFF4FE8149F55A0
100
AcDbEntity
  8
PORTS
  6
CONTINUOUS
100
AcDbPoint
 10
946.076518
 20
-258.127022
 30
0.0
  0
ATTDEF
  5
FFFF4FE8149F559F
100
AcDbEntity
  8
PORTS
  6
CONTINUOUS
100
AcDbText
 10
961.076518
 20
-244.137104
 30
0.0
 40
7.071068
  1

  7
SIMPLEX
100
AcDbAttributeDefinition
  3

  2
SIDE
 70
     0
  0
ENDBLK
  5
FFFF4FE814B967B1
100
AcDbEntity
  8
PORTS
  6
CONTINUOUS
100
AcDbBlockEnd
  0
BLOCK
  5
FFFF4FE814B967B5
100
AcDbEntity
  8
SIMPLE
  6
CONTINUOUS
100
AcDbBlockBegin
  2
TITAN_LUT_FF_COMBOUT_WIRE
 70
     0
 10
0.0
 20
0.0
 30
0.0
  1

  0
LINE
  5
FFFF4FE814A5CE8D
100
AcDbEntity
  8
SIMPLE
  6
CONTINUOUS
100
AcDbLine
 10
1026.076518
 20
-259.137104
 30
0.0
 11
1060.173048
 21
-259.137104
 31
0.0
  0
LINE
  5
FFFF4FE814A5CE8E
100
AcDbEntity
  8
SIMPLE
  6
CONTINUOUS
100
AcDbLine
 10
1060.173048
 20
-259.137104
 30
0.0
 11
1060.173048
 21
-540.325696
 31
0.0
  0
LINE
  5
FFFF4FE814B96755
100
AcDbEntity
  8
SIMPLE
  6
CONTINUOUS
100
AcDbLine
 10
450.281413
 20
-540.325696
 30
0.0
 11
1061.107847
 21
-540.325696
 31
0.0
  0
LINE
  5
FFFF4FE814A5CF11
100
AcDbEntity
  8
SIMPLE
  6
CONTINUOUS
100
AcDbLine
 10
450.281413
 20
-540.325696
 30
0.0
 11
450.281413
 21
-639.484452
 31
0.0
  0
LINE
  5
FFFF4FE814A5CF12
100
AcDbEntity
  8
SIMPLE
  6
CONTINUOUS
100
AcDbLine
 10
450.281413
 20
-639.484452
 30
0.0
 11
490.724259
 21
-639.484452
 31
0.0
  0
LINE
  5
FFFF4FE814B96741
100
AcDbEntity
  8
SIMPLE
  6
CONTINUOUS
100
AcDbLine
 10
520.724259
 20
-655.83868
 30
0.0
 11
490.724259
 21
-639.484452
 31
0.0
  0
ENDBLK
  5
FFFF4FE814B967B7
100
AcDbEntity
  8
SIMPLE
  6
CONTINUOUS
100
AcDbBlockEnd
  0
BLOCK
  5
FFFF4FE814B967B9
100
AcDbEntity
  8
SIMPLE
  6
CONTINUOUS
100
AcDbBlockBegin
  2
TITAN_LUT_FF_DATAIN_MUX
 70
     0
 10
0.0
 20
0.0
 30
0.0
  1

  0
LINE
  5
FFFF4FE814B96771
100
AcDbEntity
  8
SIMPLE
  6
CONTINUOUS
100
AcDbLine
 10
520.724259
 20
-655.83868
 30
0.0
 11
570.260476
 21
-655.83868
 31
0.0
  0
POLYLINE
  5
FFFF4FE814A5CF07
100
AcDbEntity
  8
DETAIL_MEDIUM
100
AcDb2dPolyline
 66
     1
 10
0.0
 20
0.0
 30
0.0
 39
2.0
 70
     1
  0
VERTEX
  5
FFFF4FE814A5CF08
100
AcDbEntity
  8
DETAIL_MEDIUM
100
AcDbVertex
100
AcDb2dVertex
 10
490.724259
 20
-625.83868
 30
0.0
  0
VERTEX
  5
FFFF4FE814A5CF09
100
AcDbEntity
  8
DETAIL_MEDIUM
100
AcDbVertex
100
AcDb2dVertex
 10
520.724259
 20
-635.83868
 30
0.0
  0
VERTEX
  5
FFFF4FE814A5CF0A
100
AcDbEntity
  8
DETAIL_MEDIUM
100
AcDbVertex
100
AcDb2dVertex
 10
520.724259
 20
-675.83868
 30
0.0
  0
VERTEX
  5
FFFF4FE814A5CF0B
100
AcDbEntity
  8
DETAIL_MEDIUM
100
AcDbVertex
100
AcDb2dVertex
 10
490.724259
 20
-685.83868
 30
0.0
  0
VERTEX
  5
FFFF4FE814A5CF0C
100
AcDbEntity
  8
DETAIL_MEDIUM
100
AcDbVertex
100
AcDb2dVertex
 10
490.724259
 20
-625.83868
 30
0.0
  0
SEQEND
  5
FFFF4FE814A5CF0D
100
AcDbEntity
  8
DETAIL_MEDIUM
  0
INSERT
  5
FFFF4FE814B967A6
100
AcDbEntity
  8
SIMPLE
  6
CONTINUOUS
100
AcDbBlockReference
  2
TITAN_LUT_FF_DATAIN_WIRE1
 10
0.0
 20
0.0
 30
0.0
  0
INSERT
  5
FFFF4FE814B967B8
100
AcDbEntity
  8
SIMPLE
  6
CONTINUOUS
100
AcDbBlockReference
  2
TITAN_LUT_FF_COMBOUT_WIRE
 10
0.0
 20
0.0
 30
0.0
  0
ENDBLK
  5
FFFF4FE814B967BB
100
AcDbEntity
  8
SIMPLE
  6
CONTINUOUS
100
AcDbBlockEnd
  0
ENDSEC
  0
SECTION
  2
ENTITIES
  0
POINT
  5
EABC25582255E283
100
AcDbEntity
  8
COMMENT
  6
CONTINUOUS
 62
     1
100
AcDbPoint
 10
0.0
 20
-550.0
 30
0.0
  0
POINT
  5
EABC25582255E284
100
AcDbEntity
  8
COMMENT
  6
CONTINUOUS
 62
     1
100
AcDbPoint
 10
0.0
 20
-250.0
 30
0.0
  0
POINT
  5
EABC25582255E285
100
AcDbEntity
  8
COMMENT
  6
CONTINUOUS
 62
     1
100
AcDbPoint
 10
0.0
 20
-285.0
 30
0.0
  0
POINT
  5
EABC25582255E286
100
AcDbEntity
  8
COMMENT
  6
CONTINUOUS
 62
     1
100
AcDbPoint
 10
0.0
 20
-345.0
 30
0.0
  0
POINT
  5
EABC25582255E287
100
AcDbEntity
  8
COMMENT
  6
CONTINUOUS
 62
     1
100
AcDbPoint
 10
0.0
 20
-490.0
 30
0.0
  0
POINT
  5
EABC25582255E288
100
AcDbEntity
  8
COMMENT
  6
CONTINUOUS
 62
     1
100
AcDbPoint
 10
1800.0
 20
-20.0
 30
0.0
  0
POINT
  5
EABC25582255E289
100
AcDbEntity
  8
COMMENT
  6
CONTINUOUS
 62
     1
100
AcDbPoint
 10
1800.0
 20
-540.0
 30
0.0
  0
TEXT
  5
EABC25582255E306
100
AcDbEntity
  8
COMMENT
  6
CONTINUOUS
100
AcDbText
 10
8910.0
 20
-4245.0
 30
0.0
 40
10.0
  1
F0
  7
SIMPLEX
100
AcDbText
  0
TEXT
  5
EABC25582255E30D
100
AcDbEntity
  8
COMMENT
  6
CONTINUOUS
100
AcDbText
 10
8905.0
 20
-4525.0
 30
0.0
 40
10.0
  1
C0
  7
SIMPLEX
100
AcDbText
  0
TEXT
  5
EABC25582255E30E
100
AcDbEntity
  8
COMMENT
  6
CONTINUOUS
100
AcDbText
 10
8630.0
 20
-4715.0
 30
0.0
 40
10.0
  1
LAB_WIDE
  7
SIMPLEX
100
AcDbText
  0
TEXT
  5
EABC25582255E30F
100
AcDbEntity
  8
COMMENT
  6
CONTINUOUS
100
AcDbText
 10
8650.0
 20
-4415.0
 30
0.0
 40
10.0
  1
A_EXT
  7
SIMPLEX
100
AcDbText
  0
TEXT
  5
EABC25582255E310
100
AcDbEntity
  8
COMMENT
  6
CONTINUOUS
100
AcDbText
 10
8650.0
 20
-4455.0
 30
0.0
 40
10.0
  1
B_EXT
  7
SIMPLEX
100
AcDbText
  0
TEXT
  5
EABC25582255E311
100
AcDbEntity
  8
COMMENT
  6
CONTINUOUS
100
AcDbText
 10
8630.0
 20
-4510.0
 30
0.0
 40
10.0
  1
DC0_EXT
  7
SIMPLEX
100
AcDbText
  0
TEXT
  5
EABC25582255E312
100
AcDbEntity
  8
COMMENT
  6
CONTINUOUS
100
AcDbText
 10
8635.0
 20
-4655.0
 30
0.0
 40
10.0
  1
DC1_EXT
  7
SIMPLEX
100
AcDbText
  0
TEXT
  5
EABC25582255E328
100
AcDbEntity
  8
COMMENT
  6
CONTINUOUS
100
AcDbText
 10
8905.0
 20
-4640.0
 30
0.0
 40
10.0
  1
D0
  7
SIMPLEX
100
AcDbText
  0
TEXT
  5
EABC25582255E338
100
AcDbEntity
  8
COMMENT
  6
CONTINUOUS
100
AcDbText
 10
8910.0
 20
-4320.0
 30
0.0
 40
10.0
  1
E0
  7
SIMPLEX
100
AcDbText
  0
TEXT
  5
EABC25582255E33A
100
AcDbEntity
  8
COMMENT
  6
CONTINUOUS
100
AcDbText
 10
8640.0
 20
-4230.0
 30
0.0
 40
10.0
  1
F0_EXT
  7
SIMPLEX
100
AcDbText
  0
TEXT
  5
EABC25582255E33C
100
AcDbEntity
  8
COMMENT
  6
CONTINUOUS
100
AcDbText
 10
8640.0
 20
-4195.0
 30
0.0
 40
10.0
  1
E0_EXT
  7
SIMPLEX
100
AcDbText
  0
POINT
  5
EABC25582255E341
100
AcDbEntity
  8
COMMENT
  6
CONTINUOUS
 62
     1
100
AcDbPoint
 10
820.0
 20
0.0
 30
0.0
  0
POINT
  5
EABC25582255E342
100
AcDbEntity
  8
COMMENT
  6
CONTINUOUS
 62
     1
100
AcDbPoint
 10
940.0
 20
0.0
 30
0.0
  0
POINT
  5
EABC25582255E43C
100
AcDbEntity
  8
COMMENT
  6
CONTINUOUS
 62
     1
100
AcDbPoint
 10
1800.0
 20
-570.0
 30
0.0
  0
POINT
  5
EABC25582255E43D
100
AcDbEntity
  8
COMMENT
  6
CONTINUOUS
 62
     1
100
AcDbPoint
 10
1800.0
 20
-730.0
 30
0.0
  0
POINT
  5
EABC25582255E43E
100
AcDbEntity
  8
COMMENT
  6
CONTINUOUS
 62
     1
100
AcDbPoint
 10
1800.0
 20
-1090.0
 30
0.0
  0
TEXT
  5
EABC25582255E497
100
AcDbEntity
  8
COMMENT
  6
CONTINUOUS
100
AcDbText
 10
8910.0
 20
-4795.0
 30
0.0
 40
10.0
  1
F1
  7
SIMPLEX
100
AcDbText
  0
TEXT
  5
EABC25582255E49E
100
AcDbEntity
  8
COMMENT
  6
CONTINUOUS
100
AcDbText
 10
8905.0
 20
-5075.0
 30
0.0
 40
10.0
  1
C1
  7
SIMPLEX
100
AcDbText
  0
TEXT
  5
EABC25582255E4AD
100
AcDbEntity
  8
COMMENT
  6
CONTINUOUS
100
AcDbText
 10
8905.0
 20
-5190.0
 30
0.0
 40
10.0
  1
D1
  7
SIMPLEX
100
AcDbText
  0
TEXT
  5
EABC25582255E4BC
100
AcDbEntity
  8
COMMENT
  6
CONTINUOUS
100
AcDbText
 10
8910.0
 20
-4870.0
 30
0.0
 40
10.0
  1
E1
  7
SIMPLEX
100
AcDbText
  0
TEXT
  5
EABC25582255E4BE
100
AcDbEntity
  8
COMMENT
  6
CONTINUOUS
100
AcDbText
 10
8645.0
 20
-4775.0
 30
0.0
 40
10.0
  1
F1_EXT
  7
SIMPLEX
100
AcDbText
  0
TEXT
  5
EABC25582255E4C0
100
AcDbEntity
  8
COMMENT
  6
CONTINUOUS
100
AcDbText
 10
8645.0
 20
-5245.0
 30
0.0
 40
10.0
  1
E1_EXT
  7
SIMPLEX
100
AcDbText
  0
TEXT
  5
EABC25582255E4CD
100
AcDbEntity
  8
COMMENT
  6
CONTINUOUS
100
AcDbText
 10
8640.0
 20
-5175.0
 30
0.0
 40
10.0
  1
DC0_EXT
  7
SIMPLEX
100
AcDbText
  0
POINT
  5
EABC25582255E4CE
100
AcDbEntity
  8
COMMENT
  6
CONTINUOUS
 62
     1
100
AcDbPoint
 10
1175.0
 20
0.0
 30
0.0
  0
POINT
  5
EABC25582255E4EA
100
AcDbEntity
  8
COMMENT
  6
CONTINUOUS
 62
     1
100
AcDbPoint
 10
820.0
 20
-1100.0
 30
0.0
  0
POINT
  5
EABC25582255E4EB
100
AcDbEntity
  8
COMMENT
  6
CONTINUOUS
 62
     1
100
AcDbPoint
 10
940.0
 20
-1100.0
 30
0.0
  0
POINT
  5
EABC25582255E4EC
100
AcDbEntity
  8
COMMENT
  6
CONTINUOUS
 62
     1
100
AcDbPoint
 10
1175.0
 20
-1100.0
 30
0.0
  0
POINT
  5
EABC25582255E501
100
AcDbEntity
  8
COMMENT
  6
CONTINUOUS
 62
     1
100
AcDbPoint
 10
1800.0
 20
-180.0
 30
0.0
  0
POINT
  5
EABC25582255E521
100
AcDbEntity
  8
COMMENT
  6
CONTINUOUS
 62
     1
100
AcDbPoint
 10
0.0
 20
-615.0
 30
0.0
  0
POINT
  5
EABC25582255E522
100
AcDbEntity
  8
COMMENT
  6
CONTINUOUS
 62
     1
100
AcDbPoint
 10
0.0
 20
-1080.0
 30
0.0
  0
POINT
  5
EABC25582255E616
100
AcDbEntity
  8
COMMENT
  6
CONTINUOUS
 62
     1
100
AcDbPoint
 10
0.0
 20
-65.0
 30
0.0
  0
POINT
  5
EABC25582255E617
100
AcDbEntity
  8
COMMENT
  6
CONTINUOUS
 62
     1
100
AcDbPoint
 10
0.0
 20
-30.0
 30
0.0
  0
TEXT
  5
EABC25582255FDCB
100
AcDbEntity
  8
COMMENT
  6
CONTINUOUS
100
AcDbText
 10
9155.0
 20
-4320.0
 30
0.0
 40
40.0
  1
F0
  7
SIMPLEX
100
AcDbText
  0
TEXT
  5
EABC25582255FDCC
100
AcDbEntity
  8
COMMENT
  6
CONTINUOUS
100
AcDbText
 10
9155.0
 20
-4450.0
 30
0.0
 40
30.0
  1
F2h
  7
SIMPLEX
100
AcDbText
  0
TEXT
  5
EABC25582255FDCD
100
AcDbEntity
  8
COMMENT
  6
CONTINUOUS
100
AcDbText
 10
9155.0
 20
-4575.0
 30
0.0
 40
30.0
  1
F2l
  7
SIMPLEX
100
AcDbText
  0
TEXT
  5
EABC25582255FDCE
100
AcDbEntity
  8
COMMENT
  6
CONTINUOUS
100
AcDbText
 10
9160.0
 20
-4870.0
 30
0.0
 40
40.0
  1
F1
  7
SIMPLEX
100
AcDbText
  0
TEXT
  5
EABC25582255FDCF
100
AcDbEntity
  8
COMMENT
  6
CONTINUOUS
100
AcDbText
 10
9155.0
 20
-5000.0
 30
0.0
 40
30.0
  1
F3h
  7
SIMPLEX
100
AcDbText
  0
TEXT
  5
EABC25582255FDD0
100
AcDbEntity
  8
COMMENT
  6
CONTINUOUS
100
AcDbText
 10
9155.0
 20
-5120.0
 30
0.0
 40
30.0
  1
F3l
  7
SIMPLEX
100
AcDbText
  0
POLYLINE
  5
EABC25582255FDD7
100
AcDbEntity
  8
COMMENT
  6
CONTINUOUS
 62
    50
100
AcDb2dPolyline
 66
     1
 10
0.0
 20
0.0
 30
0.0
 70
     1
  0
VERTEX
  5
EABC25582255FE4E
100
AcDbEntity
  8
COMMENT
  6
CONTINUOUS
 62
    50
100
AcDbVertex
100
AcDb2dVertex
 10
255.0
 20
-40.0
 30
0.0
  0
VERTEX
  5
EABC25582255FE4F
100
AcDbEntity
  8
COMMENT
  6
CONTINUOUS
 62
    50
100
AcDbVertex
100
AcDb2dVertex
 10
755.0
 20
-40.0
 30
0.0
  0
VERTEX
  5
EABC25582255FE50
100
AcDbEntity
  8
COMMENT
  6
CONTINUOUS
 62
    50
100
AcDbVertex
100
AcDb2dVertex
 10
755.0
 20
-1065.0
 30
0.0
  0
VERTEX
  5
EABC25582255FE51
100
AcDbEntity
  8
COMMENT
  6
CONTINUOUS
 62
    50
100
AcDbVertex
100
AcDb2dVertex
 10
255.0
 20
-1065.0
 30
0.0
  0
SEQEND
  5
EABC25582255FE52
100
AcDbEntity
  8
COMMENT
  6
CONTINUOUS
 62
    50
  0
POLYLINE
  5
EABC25582255FDD8
100
AcDbEntity
  8
COMMENT
  6
CONTINUOUS
 62
    50
100
AcDb2dPolyline
 66
     1
 10
0.0
 20
0.0
 30
0.0
 70
     1
  0
VERTEX
  5
EABC25582255FE53
100
AcDbEntity
  8
COMMENT
  6
CONTINUOUS
 62
    50
100
AcDbVertex
100
AcDb2dVertex
 10
755.0
 20
-115.0
 30
0.0
  0
VERTEX
  5
EABC25582255FE54
100
AcDbEntity
  8
COMMENT
  6
CONTINUOUS
 62
    50
100
AcDbVertex
100
AcDb2dVertex
 10
1010.0
 20
-115.0
 30
0.0
  0
VERTEX
  5
EABC25582255FE55
100
AcDbEntity
  8
COMMENT
  6
CONTINUOUS
 62
    50
100
AcDbVertex
100
AcDb2dVertex
 10
1010.0
 20
-445.0
 30
0.0
  0
VERTEX
  5
EABC25582255FE56
100
AcDbEntity
  8
COMMENT
  6
CONTINUOUS
 62
    50
100
AcDbVertex
100
AcDb2dVertex
 10
755.0
 20
-445.0
 30
0.0
  0
SEQEND
  5
EABC25582255FE57
100
AcDbEntity
  8
COMMENT
  6
CONTINUOUS
 62
    50
  0
POLYLINE
  5
EABC25582255FDD9
100
AcDbEntity
  8
COMMENT
  6
CONTINUOUS
 62
    50
100
AcDb2dPolyline
 66
     1
 10
0.0
 20
0.0
 30
0.0
 70
     1
  0
VERTEX
  5
EABC25582255FE58
100
AcDbEntity
  8
COMMENT
  6
CONTINUOUS
 62
    50
100
AcDbVertex
100
AcDb2dVertex
 10
755.0
 20
-665.0
 30
0.0
  0
VERTEX
  5
EABC25582255FE59
100
AcDbEntity
  8
COMMENT
  6
CONTINUOUS
 62
    50
100
AcDbVertex
100
AcDb2dVertex
 10
1010.0
 20
-665.0
 30
0.0
  0
VERTEX
  5
EABC25582255FE5A
100
AcDbEntity
  8
COMMENT
  6
CONTINUOUS
 62
    50
100
AcDbVertex
100
AcDb2dVertex
 10
1010.0
 20
-995.0
 30
0.0
  0
VERTEX
  5
EABC25582255FE5B
100
AcDbEntity
  8
COMMENT
  6
CONTINUOUS
 62
    50
100
AcDbVertex
100
AcDb2dVertex
 10
755.0
 20
-995.0
 30
0.0
  0
SEQEND
  5
EABC25582255FE5C
100
AcDbEntity
  8
COMMENT
  6
CONTINUOUS
 62
    50
  0
POLYLINE
  5
EABC25582255FDDA
100
AcDbEntity
  8
COMMENT
  6
CONTINUOUS
 62
    50
100
AcDb2dPolyline
 66
     1
 10
0.0
 20
0.0
 30
0.0
 70
     1
  0
VERTEX
  5
EABC25582255FE5D
100
AcDbEntity
  8
COMMENT
  6
CONTINUOUS
 62
    50
100
AcDbVertex
100
AcDb2dVertex
 10
1365.0
 20
-40.0
 30
0.0
  0
VERTEX
  5
EABC25582255FE5E
100
AcDbEntity
  8
COMMENT
  6
CONTINUOUS
 62
    50
100
AcDbVertex
100
AcDb2dVertex
 10
1745.0
 20
-40.0
 30
0.0
  0
VERTEX
  5
EABC25582255FE5F
100
AcDbEntity
  8
COMMENT
  6
CONTINUOUS
 62
    50
100
AcDbVertex
100
AcDb2dVertex
 10
1745.0
 20
-510.0
 30
0.0
  0
VERTEX
  5
EABC25582255FE60
100
AcDbEntity
  8
COMMENT
  6
CONTINUOUS
 62
    50
100
AcDbVertex
100
AcDb2dVertex
 10
1365.0
 20
-510.0
 30
0.0
  0
SEQEND
  5
EABC25582255FE61
100
AcDbEntity
  8
COMMENT
  6
CONTINUOUS
 62
    50
  0
POLYLINE
  5
EABC25582255FDDB
100
AcDbEntity
  8
COMMENT
  6
CONTINUOUS
 62
    50
100
AcDb2dPolyline
 66
     1
 10
0.0
 20
0.0
 30
0.0
 70
     1
  0
VERTEX
  5
EABC25582255FE62
100
AcDbEntity
  8
COMMENT
  6
CONTINUOUS
 62
    50
100
AcDbVertex
100
AcDb2dVertex
 10
1365.0
 20
-590.0
 30
0.0
  0
VERTEX
  5
EABC25582255FE63
100
AcDbEntity
  8
COMMENT
  6
CONTINUOUS
 62
    50
100
AcDbVertex
100
AcDb2dVertex
 10
1745.0
 20
-590.0
 30
0.0
  0
VERTEX
  5
EABC25582255FE64
100
AcDbEntity
  8
COMMENT
  6
CONTINUOUS
 62
    50
100
AcDbVertex
100
AcDb2dVertex
 10
1745.0
 20
-1060.0
 30
0.0
  0
VERTEX
  5
EABC25582255FE65
100
AcDbEntity
  8
COMMENT
  6
CONTINUOUS
 62
    50
100
AcDbVertex
100
AcDb2dVertex
 10
1365.0
 20
-1060.0
 30
0.0
  0
SEQEND
  5
EABC25582255FE66
100
AcDbEntity
  8
COMMENT
  6
CONTINUOUS
 62
    50
  0
POLYLINE
  5
EABC25582255FDDD
100
AcDbEntity
  8
COMMENT
  6
CONTINUOUS
 62
    50
100
AcDb2dPolyline
 66
     1
 10
0.0
 20
0.0
 30
0.0
 70
     1
  0
VERTEX
  5
EABC25582255FE67
100
AcDbEntity
  8
COMMENT
  6
CONTINUOUS
 62
    50
100
AcDbVertex
100
AcDb2dVertex
 10
0.0
 20
0.0
 30
0.0
  0
VERTEX
  5
EABC25582255FE68
100
AcDbEntity
  8
COMMENT
  6
CONTINUOUS
 62
    50
100
AcDbVertex
100
AcDb2dVertex
 10
1800.0
 20
0.0
 30
0.0
  0
VERTEX
  5
EABC25582255FE69
100
AcDbEntity
  8
COMMENT
  6
CONTINUOUS
 62
    50
100
AcDbVertex
100
AcDb2dVertex
 10
1800.0
 20
-1100.0
 30
0.0
  0
VERTEX
  5
EABC25582255FE6A
100
AcDbEntity
  8
COMMENT
  6
CONTINUOUS
 62
    50
100
AcDbVertex
100
AcDb2dVertex
 10
0.0
 20
-1100.0
 30
0.0
  0
SEQEND
  5
EABC25582255FE6B
100
AcDbEntity
  8
COMMENT
  6
CONTINUOUS
 62
    50
  0
INSERT
  5
FFFF4FE814B967BF
100
AcDbEntity
  8
SIMPLE
  6
CONTINUOUS
 62
    50
100
AcDbBlockReference
  2
TITAN_LUT_REGISTER
 10
0.0
 20
0.0
 30
0.0
  0
ENDSEC
  0
SECTION
  2
OBJECTS
  0
DICTIONARY
  5
C
100
AcDbDictionary
  3
ACAD_GROUP
350
D
  3
ACAD_MLINESTYLE
350
1B
  0
DICTIONARY
  5
D
102
{ACAD_REACTORS
330
C
102
}
100
AcDbDictionary
  0
DICTIONARY
  5
1B
102
{ACAD_REACTORS
330
C
102
}
100
AcDbDictionary
  3
STANDARD
350
1C
  0
MLINESTYLE
  5
1C
102
{ACAD_REACTORS
330
1B
102
}
100
AcDbMlineStyle
  2
STANDARD
 70
     0
  3

 62
   256
 51
90.0
 52
90.0
 71
     2
 49
0.5
 62
   256
  6
BYLAYER
 49
-0.5
 62
   256
  6
BYLAYER
  0
ENDSEC
  0
EOF
