  0
SECTION
  2
HEADER
  9
$ACADVER
  1
AC1012
  9
$DWGCODEPAGE
  3
ansi_1252
  9
$INSBASE
 10
0.0
 20
0.0
 30
0.0
  9
$EXTMIN
 10
0.0
 20
-24500.0
 30
0.0
  9
$EXTMAX
 10
18250.0
 20
8150.0
 30
0.0
  9
$LIMMIN
 10
0.0
 20
0.0
  9
$LIMMAX
 10
12.0
 20
9.0
  9
$ORTHOMODE
 70
     0
  9
$REGENMODE
 70
     1
  9
$FILLMODE
 70
     1
  9
$QTEXTMODE
 70
     0
  9
$MIRRTEXT
 70
     1
  9
$DRAGMODE
 70
     2
  9
$LTSCALE
 40
1.0
  9
$OSMODE
 70
     0
  9
$ATTMODE
 70
     1
  9
$TEXTSIZE
 40
0.2
  9
$TRACEWID
 40
0.05
  9
$TEXTSTYLE
  7
SIMPLEX
  9
$CLAYER
  8
SIMPLE
  9
$CELTYPE
  6
CONTINUOUS
  9
$CECOLOR
 62
   256
  9
$CELTSCALE
 40
1.0
  9
$DELOBJ
 70
     1
  9
$DISPSILH
 70
     0
  9
$DIMSCALE
 40
1.0
  9
$DIMASZ
 40
0.18
  9
$DIMEXO
 40
0.0625
  9
$DIMDLI
 40
0.38
  9
$DIMRND
 40
0.0
  9
$DIMDLE
 40
0.0
  9
$DIMEXE
 40
0.18
  9
$DIMTP
 40
0.0
  9
$DIMTM
 40
0.0
  9
$DIMTXT
 40
0.18
  9
$DIMCEN
 40
0.09
  9
$DIMTSZ
 40
0.0
  9
$DIMTOL
 70
     0
  9
$DIMLIM
 70
     0
  9
$DIMTIH
 70
     1
  9
$DIMTOH
 70
     1
  9
$DIMSE1
 70
     0
  9
$DIMSE2
 70
     0
  9
$DIMTAD
 70
     0
  9
$DIMZIN
 70
     0
  9
$DIMBLK
  1

  9
$DIMASO
 70
     1
  9
$DIMSHO
 70
     1
  9
$DIMPOST
  1

  9
$DIMAPOST
  1

  9
$DIMALT
 70
     0
  9
$DIMALTD
 70
     2
  9
$DIMALTF
 40
25.4
  9
$DIMLFAC
 40
1.0
  9
$DIMTOFL
 70
     0
  9
$DIMTVP
 40
0.0
  9
$DIMTIX
 70
     0
  9
$DIMSOXD
 70
     0
  9
$DIMSAH
 70
     0
  9
$DIMBLK1
  1

  9
$DIMBLK2
  1

  9
$DIMSTYLE
  2
STANDARD
  9
$DIMCLRD
 70
     0
  9
$DIMCLRE
 70
     0
  9
$DIMCLRT
 70
     0
  9
$DIMTFAC
 40
1.0
  9
$DIMGAP
 40
0.09
  9
$DIMJUST
 70
     0
  9
$DIMSD1
 70
     0
  9
$DIMSD2
 70
     0
  9
$DIMTOLJ
 70
     1
  9
$DIMTZIN
 70
     0
  9
$DIMALTZ
 70
     0
  9
$DIMALTTZ
 70
     0
  9
$DIMFIT
 70
     3
  9
$DIMUPT
 70
     0
  9
$DIMUNIT
 70
     2
  9
$DIMDEC
 70
     4
  9
$DIMTDEC
 70
     4
  9
$DIMALTU
 70
     2
  9
$DIMALTTD
 70
     2
  9
$DIMTXSTY
  7
STANDARD
  9
$DIMAUNIT
 70
     0
  9
$LUNITS
 70
     2
  9
$LUPREC
 70
     4
  9
$SKETCHINC
 40
0.1
  9
$FILLETRAD
 40
0.5
  9
$AUNITS
 70
     0
  9
$AUPREC
 70
     0
  9
$MENU
  1
.
  9
$ELEVATION
 40
0.0
  9
$PELEVATION
 40
0.0
  9
$THICKNESS
 40
0.0
  9
$LIMCHECK
 70
     0
  9
$BLIPMODE
 70
     0
  9
$CHAMFERA
 40
0.5
  9
$CHAMFERB
 40
0.5
  9
$CHAMFERC
 40
1.0
  9
$CHAMFERD
 40
0.0
  9
$SKPOLY
 70
     0
  9
$TDCREATE
 40
2453082.8340391899
  9
$TDUPDATE
 40
2453326.5939351735
  9
$TDINDWG
 40
0.826851851852
  9
$TDUSRTIMER
 40
0.826851851852
  9
$USRTIMER
 70
     1
  9
$ANGBASE
 50
0.0
  9
$ANGDIR
 70
     0
  9
$PDMODE
 70
    65
  9
$PDSIZE
 40
80.0
  9
$PLINEWID
 40
0.0
  9
$COORDS
 70
     1
  9
$SPLFRAME
 70
     0
  9
$SPLINETYPE
 70
     6
  9
$SPLINESEGS
 70
     8
  9
$ATTDIA
 70
     0
  9
$ATTREQ
 70
     1
  9
$HANDLING
 70
     1
  9
$HANDSEED
  5
EABC256C949D35D5
  9
$SURFTAB1
 70
     6
  9
$SURFTAB2
 70
     6
  9
$SURFTYPE
 70
     6
  9
$SURFU
 70
     6
  9
$SURFV
 70
     6
  9
$UCSNAME
  2

  9
$UCSORG
 10
0.0
 20
0.0
 30
0.0
  9
$UCSXDIR
 10
1.0
 20
0.0
 30
0.0
  9
$UCSYDIR
 10
0.0
 20
1.0
 30
0.0
  9
$PUCSNAME
  2

  9
$PUCSORG
 10
0.0
 20
0.0
 30
0.0
  9
$PUCSXDIR
 10
1.0
 20
0.0
 30
0.0
  9
$PUCSYDIR
 10
0.0
 20
1.0
 30
0.0
  9
$USERI1
 70
     0
  9
$USERI2
 70
     0
  9
$USERI3
 70
     0
  9
$USERI4
 70
     0
  9
$USERI5
 70
     0
  9
$USERR1
 40
0.0
  9
$USERR2
 40
0.0
  9
$USERR3
 40
0.0
  9
$USERR4
 40
0.0
  9
$USERR5
 40
0.0
  9
$WORLDVIEW
 70
     1
  9
$SHADEDGE
 70
     3
  9
$SHADEDIF
 70
    70
  9
$TILEMODE
 70
     1
  9
$MAXACTVP
 70
    48
  9
$PINSBASE
 10
0.0
 20
0.0
 30
0.0
  9
$PLIMCHECK
 70
     0
  9
$PEXTMIN
 10
1.000000E+020
 20
1.000000E+020
 30
1.000000E+020
  9
$PEXTMAX
 10
-1.000000E+020
 20
-1.000000E+020
 30
-1.000000E+020
  9
$PLIMMIN
 10
0.0
 20
0.0
  9
$PLIMMAX
 10
12.0
 20
9.0
  9
$UNITMODE
 70
     0
  9
$VISRETAIN
 70
     1
  9
$PLINEGEN
 70
     0
  9
$PSLTSCALE
 70
     1
  9
$TREEDEPTH
 70
  3020
  9
$PICKSTYLE
 70
     1
  9
$CMLSTYLE
  2
STANDARD
  9
$CMLJUST
 70
     0
  9
$CMLSCALE
 40
1.0
  9
$SAVEIMAGES
 70
     1
  0
ENDSEC
  0
SECTION
  2
CLASSES
  0
CLASS
  1
LWPOLYLINE
  2
AcDbPolyline
  3
"AutoCAD"
 90
        0
280
     0
281
     1
  0
ENDSEC
  0
SECTION
  2
TABLES
  0
TABLE
  2
VPORT
  5
8
100
AcDbSymbolTable
 70
     1
  0
VPORT
  5
37
100
AcDbSymbolTableRecord
100
AcDbViewportTableRecord
  2
*ACTIVE
 70
    64
 10
0.0
 20
0.0
 11
1.0
 21
1.0
 12
8530.839509
 22
-7700.131821
 13
0.0
 23
0.0
 14
50.0
 24
50.0
 15
50.0
 25
50.0
 16
0.0
 26
0.0
 36
1.0
 17
0.0
 27
0.0
 37
0.0
 40
73313.05228
 41
1.376866
 42
50.0
 43
0.0
 44
0.0
 50
0.0
 51
0.0
 71
     0
 72
   100
 73
     1
 74
     1
 75
     1
 76
     1
 77
     0
 78
     0
  0
ENDTAB
  0
TABLE
  2
LTYPE
  5
5
100
AcDbSymbolTable
 70
     1
  0
LTYPE
  5
12
100
AcDbSymbolTableRecord
100
AcDbLinetypeTableRecord
  2
BYBLOCK
 70
     0
  3

 72
    65
 73
     0
 40
0.0
  0
LTYPE
  5
13
100
AcDbSymbolTableRecord
100
AcDbLinetypeTableRecord
  2
BYLAYER
 70
     0
  3

 72
    65
 73
     0
 40
0.0
  0
LTYPE
  5
14
100
AcDbSymbolTableRecord
100
AcDbLinetypeTableRecord
  2
CONTINUOUS
 70
     0
  3
Solid line
 72
    65
 73
     0
 40
0.0
  0
ENDTAB
  0
TABLE
  2
LAYER
  5
2
100
AcDbSymbolTable
 70
     2
  0
LAYER
  5
541
100
AcDbSymbolTableRecord
100
AcDbLayerTableRecord
  2
SIMPLE
 70
     0
 62
   162
  6
CONTINUOUS
  0
LAYER
  5
EABC2557EAE3CBBD
100
AcDbSymbolTableRecord
100
AcDbLayerTableRecord
  2
COMMENT
 70
     0
 62
     2
  6
CONTINUOUS
  0
ENDTAB
  0
TABLE
  2
STYLE
  5
3
100
AcDbSymbolTable
 70
     8
  0
STYLE
  5
F
100
AcDbSymbolTableRecord
100
AcDbTextStyleTableRecord
  2
STANDARD
 70
     0
 40
0.0
 41
1.0
 50
0.0
 71
     0
 42
100.0
  3
txt.shx
  4

  0
STYLE
  5
21
100
AcDbSymbolTableRecord
100
AcDbTextStyleTableRecord
  2
COMPLEX
 70
     0
 40
0.0
 41
1.0
 50
0.0
 71
     0
 42
0.2
  3
complex
  4

  0
STYLE
  5
22
100
AcDbSymbolTableRecord
100
AcDbTextStyleTableRecord
  2
ITALIC
 70
     0
 40
0.0
 41
1.0
 50
0.0
 71
     0
 42
0.2
  3
italic
  4

  0
STYLE
  5
23
100
AcDbSymbolTableRecord
100
AcDbTextStyleTableRecord
  2
ROMANC
 70
     0
 40
0.0
 41
1.0
 50
0.0
 71
     0
 42
0.2
  3
romanc
  4

  0
STYLE
  5
24
100
AcDbSymbolTableRecord
100
AcDbTextStyleTableRecord
  2
SIMPLEX
 70
     0
 40
0.0
 41
1.0
 50
0.0
 71
     0
 42
0.2
  3
simplex
  4

  0
STYLE
  5
34
100
AcDbSymbolTableRecord
100
AcDbTextStyleTableRecord
  2

 70
     1
 40
0.0
 41
1.0
 50
0.0
 71
     0
 42
0.2
  3
ltypeshp.shx
  4

  0
STYLE
  5
38
100
AcDbSymbolTableRecord
100
AcDbTextStyleTableRecord
  2
ARIAL
 70
     0
 40
0.0
 41
1.0
 50
0.0
 71
     0
 42
0.2
  3

  4

1001
ACAD
1000
Arial
1071
       34
  0
STYLE
  5
39
100
AcDbSymbolTableRecord
100
AcDbTextStyleTableRecord
  2
TIMES_NEW_ROMAN
 70
     0
 40
0.0
 41
1.0
 50
0.0
 71
     0
 42
0.2
  3

  4

1001
ACAD
1000
Times New Roman
1071
       18
  0
ENDTAB
  0
TABLE
  2
VIEW
  5
6
100
AcDbSymbolTable
 70
     0
  0
ENDTAB
  0
TABLE
  2
UCS
  5
7
100
AcDbSymbolTable
 70
     0
  0
ENDTAB
  0
TABLE
  2
APPID
  5
9
100
AcDbSymbolTable
 70
     1
  0
APPID
  5
10
100
AcDbSymbolTableRecord
100
AcDbRegAppTableRecord
  2
ACAD
 70
     0
  0
ENDTAB
  0
TABLE
  2
DIMSTYLE
  5
A
100
AcDbSymbolTable
 70
     1
  0
DIMSTYLE
105
1D
100
AcDbSymbolTableRecord
100
AcDbDimStyleTableRecord
  2
STANDARD
 70
     0
  3

  4

  5

  6

  7

 40
1.0
 41
100.0
 42
50.0
 43
0.38
 44
50.0
 45
0.0
 46
0.0
 47
0.0
 48
0.0
140
100.0
141
0.09
142
0.0
143
25.4
144
1.0
145
0.0
146
1.0
147
0.09
 71
     0
 72
     0
 73
     1
 74
     1
 75
     0
 76
     0
 77
     0
 78
     0
170
     0
171
     2
172
     0
173
     0
174
     0
175
     0
176
     0
177
     0
178
     0
270
     2
271
     4
272
     4
273
     2
274
     2
340
F
275
     0
280
     0
281
     0
282
     0
283
     1
284
     0
285
     0
286
     0
287
     3
288
     0
  0
ENDTAB
  0
TABLE
  2
BLOCK_RECORD
  5
1
100
AcDbSymbolTable
 70
    60
  0
BLOCK_RECORD
  5
18
100
AcDbSymbolTableRecord
100
AcDbBlockTableRecord
  2
*MODEL_SPACE
  0
BLOCK_RECORD
  5
15
100
AcDbSymbolTableRecord
100
AcDbBlockTableRecord
  2
*PAPER_SPACE
  0
BLOCK_RECORD
  5
EABC2557E039A7B5
100
AcDbSymbolTableRecord
100
AcDbBlockTableRecord
  2
*D0
  0
BLOCK_RECORD
  5
EABC2557E039A7C4
100
AcDbSymbolTableRecord
100
AcDbBlockTableRecord
  2
*D1
  0
BLOCK_RECORD
  5
EABC2557E039A7E1
100
AcDbSymbolTableRecord
100
AcDbBlockTableRecord
  2
*D2
  0
BLOCK_RECORD
  5
EABC2557E039A7F0
100
AcDbSymbolTableRecord
100
AcDbBlockTableRecord
  2
*D3
  0
BLOCK_RECORD
  5
EABC2557E039A7FF
100
AcDbSymbolTableRecord
100
AcDbBlockTableRecord
  2
*D4
  0
BLOCK_RECORD
  5
EABC2557E039A81C
100
AcDbSymbolTableRecord
100
AcDbBlockTableRecord
  2
*D5
  0
BLOCK_RECORD
  5
EABC2557E039A82C
100
AcDbSymbolTableRecord
100
AcDbBlockTableRecord
  2
*D6
  0
BLOCK_RECORD
  5
EABC2557E039A83C
100
AcDbSymbolTableRecord
100
AcDbBlockTableRecord
  2
*D7
  0
BLOCK_RECORD
  5
EABC2557E039A84D
100
AcDbSymbolTableRecord
100
AcDbBlockTableRecord
  2
*D8
  0
BLOCK_RECORD
  5
EABC2557E039A85C
100
AcDbSymbolTableRecord
100
AcDbBlockTableRecord
  2
*D9
  0
BLOCK_RECORD
  5
EABC2557E039A86B
100
AcDbSymbolTableRecord
100
AcDbBlockTableRecord
  2
*D10
  0
BLOCK_RECORD
  5
EABC2557E039A87B
100
AcDbSymbolTableRecord
100
AcDbBlockTableRecord
  2
*D11
  0
BLOCK_RECORD
  5
EABC2557E039A88B
100
AcDbSymbolTableRecord
100
AcDbBlockTableRecord
  2
*D12
  0
BLOCK_RECORD
  5
EABC2557E039A8B5
100
AcDbSymbolTableRecord
100
AcDbBlockTableRecord
  2
*D13
  0
BLOCK_RECORD
  5
EABC2557E039A8C5
100
AcDbSymbolTableRecord
100
AcDbBlockTableRecord
  2
*D14
  0
BLOCK_RECORD
  5
EABC2557E039A8D5
100
AcDbSymbolTableRecord
100
AcDbBlockTableRecord
  2
*D15
  0
BLOCK_RECORD
  5
EABC2557E039A8E5
100
AcDbSymbolTableRecord
100
AcDbBlockTableRecord
  2
*D16
  0
BLOCK_RECORD
  5
EABC2557E039A8F5
100
AcDbSymbolTableRecord
100
AcDbBlockTableRecord
  2
*D17
  0
BLOCK_RECORD
  5
EABC2557E039A906
100
AcDbSymbolTableRecord
100
AcDbBlockTableRecord
  2
*D18
  0
BLOCK_RECORD
  5
EABC2557E039A916
100
AcDbSymbolTableRecord
100
AcDbBlockTableRecord
  2
*D19
  0
BLOCK_RECORD
  5
EABC2557E039A926
100
AcDbSymbolTableRecord
100
AcDbBlockTableRecord
  2
*D20
  0
BLOCK_RECORD
  5
EABC2557E039A936
100
AcDbSymbolTableRecord
100
AcDbBlockTableRecord
  2
*D21
  0
BLOCK_RECORD
  5
EABC2557E039A946
100
AcDbSymbolTableRecord
100
AcDbBlockTableRecord
  2
*D22
  0
BLOCK_RECORD
  5
EABC2557E039A956
100
AcDbSymbolTableRecord
100
AcDbBlockTableRecord
  2
*D23
  0
BLOCK_RECORD
  5
EABC2557E039A974
100
AcDbSymbolTableRecord
100
AcDbBlockTableRecord
  2
*D24
  0
BLOCK_RECORD
  5
EABC2557E039A984
100
AcDbSymbolTableRecord
100
AcDbBlockTableRecord
  2
*D25
  0
BLOCK_RECORD
  5
EABC2557E039A994
100
AcDbSymbolTableRecord
100
AcDbBlockTableRecord
  2
*D26
  0
BLOCK_RECORD
  5
EABC2557E58EBC78
100
AcDbSymbolTableRecord
100
AcDbBlockTableRecord
  2
*D27
  0
BLOCK_RECORD
  5
EABC2557E58EBC87
100
AcDbSymbolTableRecord
100
AcDbBlockTableRecord
  2
*D28
  0
BLOCK_RECORD
  5
EABC2557E58EBC96
100
AcDbSymbolTableRecord
100
AcDbBlockTableRecord
  2
*D29
  0
BLOCK_RECORD
  5
EABC2557E58EBCA5
100
AcDbSymbolTableRecord
100
AcDbBlockTableRecord
  2
*D30
  0
BLOCK_RECORD
  5
EABC2557E58EBCB4
100
AcDbSymbolTableRecord
100
AcDbBlockTableRecord
  2
*D31
  0
BLOCK_RECORD
  5
EABC2557E58EBCC3
100
AcDbSymbolTableRecord
100
AcDbBlockTableRecord
  2
*D32
  0
BLOCK_RECORD
  5
EABC2557E58EBCD2
100
AcDbSymbolTableRecord
100
AcDbBlockTableRecord
  2
*D33
  0
BLOCK_RECORD
  5
EABC2557E58EBCE1
100
AcDbSymbolTableRecord
100
AcDbBlockTableRecord
  2
*D34
  0
BLOCK_RECORD
  5
EABC2557E58EBCF0
100
AcDbSymbolTableRecord
100
AcDbBlockTableRecord
  2
*D35
  0
BLOCK_RECORD
  5
EABC2557E58EBCFF
100
AcDbSymbolTableRecord
100
AcDbBlockTableRecord
  2
*D36
  0
BLOCK_RECORD
  5
EABC2557EAE3CC22
100
AcDbSymbolTableRecord
100
AcDbBlockTableRecord
  2
LE_CIN0
  0
BLOCK_RECORD
  5
EABC2557EAE3CC26
100
AcDbSymbolTableRecord
100
AcDbBlockTableRecord
  2
LE_CIN1
  0
BLOCK_RECORD
  5
EABC2557EAE3CC2E
100
AcDbSymbolTableRecord
100
AcDbBlockTableRecord
  2
LE_REG_CASCADE_IN
  0
BLOCK_RECORD
  5
EABC2557EAE3CC32
100
AcDbSymbolTableRecord
100
AcDbBlockTableRecord
  2
LE_REG_OUT
  0
BLOCK_RECORD
  5
EABC2557EAE3CC36
100
AcDbSymbolTableRecord
100
AcDbBlockTableRecord
  2
LE_COMB_OUT
  0
BLOCK_RECORD
  5
EABC2557EAE3CC3E
100
AcDbSymbolTableRecord
100
AcDbBlockTableRecord
  2
LE_LUT_CASCADE
  0
BLOCK_RECORD
  5
EABC2557EAE3CC42
100
AcDbSymbolTableRecord
100
AcDbBlockTableRecord
  2
LE_COUT1
  0
BLOCK_RECORD
  5
EABC2557EAE3CC46
100
AcDbSymbolTableRecord
100
AcDbBlockTableRecord
  2
LE_COUT0
  0
BLOCK_RECORD
  5
EABC2557EAE3CC4A
100
AcDbSymbolTableRecord
100
AcDbBlockTableRecord
  2
LE_CARRY_SELECT_IN
  0
BLOCK_RECORD
  5
EABC2557EAE3CC4E
100
AcDbSymbolTableRecord
100
AcDbBlockTableRecord
  2
LE_LABWIDE_IN
  0
BLOCK_RECORD
  5
EABC2557EAE3CC52
100
AcDbSymbolTableRecord
100
AcDbBlockTableRecord
  2
LE_DATA_A
  0
BLOCK_RECORD
  5
EABC2557EAE3CC56
100
AcDbSymbolTableRecord
100
AcDbBlockTableRecord
  2
LE_DATA_B
  0
BLOCK_RECORD
  5
EABC2557EAE3CC5A
100
AcDbSymbolTableRecord
100
AcDbBlockTableRecord
  2
LE_DATA_C
  0
BLOCK_RECORD
  5
EABC2557EAE3CC5E
100
AcDbSymbolTableRecord
100
AcDbBlockTableRecord
  2
LE_DATA_D
  0
BLOCK_RECORD
  5
EABC2557EAE3CC63
100
AcDbSymbolTableRecord
100
AcDbBlockTableRecord
  2
LE_YGR
  0
BLOCK_RECORD
  5
EABC2557EAE3CC8D
100
AcDbSymbolTableRecord
100
AcDbBlockTableRecord
  2
CARRY_MUX_5_TO_9
  0
BLOCK_RECORD
  5
EABC2557F038E0F7
100
AcDbSymbolTableRecord
100
AcDbBlockTableRecord
  2
LUT_CASCADE_4_TO_5_EXT
  0
BLOCK_RECORD
  5
EABC2557F038E0FB
100
AcDbSymbolTableRecord
100
AcDbBlockTableRecord
  2
REG_CASCADE_4_TO_5_EXT
  0
BLOCK_RECORD
  5
EABC2557F038E101
100
AcDbSymbolTableRecord
100
AcDbBlockTableRecord
  2
LAB_YGR
  0
BLOCK_RECORD
  5
EABC2557F038E1AA
100
AcDbSymbolTableRecord
100
AcDbBlockTableRecord
  2
CARRY_MUX_5_TO_9_OUT_RIGHT
  0
BLOCK_RECORD
  5
EABC2557F58DF6C8
100
AcDbSymbolTableRecord
100
AcDbBlockTableRecord
  2
CARRY_MUX_5_TO_9_OUT_DOWN
  0
BLOCK_RECORD
  5
EABC25623FC080EA
100
AcDbSymbolTableRecord
100
AcDbBlockTableRecord
  2
CARRY_MUX_0_TO_4_OUT
  0
BLOCK_RECORD
  5
EABC256C949D35CF
100
AcDbSymbolTableRecord
100
AcDbBlockTableRecord
  2
ACV_GRID_SIZE_BLOCK
  0
ENDTAB
  0
ENDSEC
  0
SECTION
  2
BLOCKS
  0
BLOCK
  5
19
100
AcDbEntity
  8
SIMPLE
100
AcDbBlockBegin
  2
*MODEL_SPACE
 70
     0
 10
0.0
 20
0.0
 30
0.0
  3
*MODEL_SPACE
  1

  0
ENDBLK
  5
1A
100
AcDbEntity
  8
SIMPLE
100
AcDbBlockEnd
  0
BLOCK
  5
16
100
AcDbEntity
 67
     1
  8
SIMPLE
100
AcDbBlockBegin
  2
*PAPER_SPACE
 70
     0
 10
0.0
 20
0.0
 30
0.0
  3
*PAPER_SPACE
  1

  0
ENDBLK
  5
17
100
AcDbEntity
 67
     1
  8
SIMPLE
100
AcDbBlockEnd
  0
BLOCK
  5
EABC2557E039A7B4
100
AcDbEntity
  8
SIMPLE
 62
     5
100
AcDbBlockBegin
  2
*D0
 70
     1
 10
0.0
 20
0.0
 30
0.0
  1

  0
POINT
  5
EABC2557E039A7AD
100
AcDbEntity
  8
SIMPLE
 62
     0
100
AcDbPoint
 10
12000.0
 20
21200.0
 30
0.0
  0
POINT
  5
EABC2557E039A7AE
100
AcDbEntity
  8
SIMPLE
 62
     0
100
AcDbPoint
 10
16300.0
 20
20900.0
 30
0.0
  0
LINE
  5
EABC2557E039A7A8
100
AcDbEntity
  8
SIMPLE
 62
     0
100
AcDbLine
 10
12000.0
 20
21200.0625
 30
0.0
 11
12000.0
 21
21700.18
 31
0.0
  0
LINE
  5
EABC2557E039A7A9
100
AcDbEntity
  8
SIMPLE
 62
     0
100
AcDbLine
 10
16300.0
 20
20900.0625
 30
0.0
 11
16300.0
 21
21700.18
 31
0.0
  0
TEXT
  5
EABC2557E039A7AF
100
AcDbEntity
  8
SIMPLE
 62
     0
100
AcDbText
 10
14149.297143
 20
21699.91
 30
0.0
 40
0.18
  1
4300.0000
  7
SIMPLEX
 72
     1
 11
14150.0
 21
21699.91
 31
0.0
100
AcDbText
  0
SOLID
  5
EABC2557E039A7AA
100
AcDbEntity
  8
SIMPLE
 62
     0
100
AcDbTrace
 10
12000.18
 20
21699.97
 30
0.0
 11
12000.18
 21
21700.03
 31
0.0
 12
12000.0
 22
21700.0
 32
0.0
 13
12000.0
 23
21700.0
 33
0.0
  0
SOLID
  5
EABC2557E039A7AB
100
AcDbEntity
  8
SIMPLE
 62
     0
100
AcDbTrace
 10
16299.82
 20
21700.03
 30
0.0
 11
16299.82
 21
21699.97
 31
0.0
 12
16300.0
 22
21700.0
 32
0.0
 13
16300.0
 23
21700.0
 33
0.0
  0
LINE
  5
EABC2557E039A7B0
100
AcDbEntity
  8
SIMPLE
 62
     0
100
AcDbLine
 10
12000.18
 20
21700.0
 30
0.0
 11
14149.207143
 21
21700.0
 31
0.0
  0
LINE
  5
EABC2557E039A7B1
100
AcDbEntity
  8
SIMPLE
 62
     0
100
AcDbLine
 10
14150.792857
 20
21700.0
 30
0.0
 11
16299.82
 21
21700.0
 31
0.0
  0
ENDBLK
  5
EABC2557E039A7B6
100
AcDbEntity
  8
SIMPLE
 62
     5
100
AcDbBlockEnd
  0
BLOCK
  5
EABC2557E039A7C3
100
AcDbEntity
  8
SIMPLE
 62
     5
100
AcDbBlockBegin
  2
*D1
 70
     1
 10
0.0
 20
0.0
 30
0.0
  1

  0
POINT
  5
EABC2557E039A7BC
100
AcDbEntity
  8
SIMPLE
 62
     0
100
AcDbPoint
 10
12000.0
 20
21200.0
 30
0.0
  0
POINT
  5
EABC2557E039A7BD
100
AcDbEntity
  8
SIMPLE
 62
     0
100
AcDbPoint
 10
16300.0
 20
20900.0
 30
0.0
  0
LINE
  5
EABC2557E039A7B7
100
AcDbEntity
  8
SIMPLE
 62
     0
100
AcDbLine
 10
12000.0
 20
21200.0625
 30
0.0
 11
12000.0
 21
21700.18
 31
0.0
  0
LINE
  5
EABC2557E039A7B8
100
AcDbEntity
  8
SIMPLE
 62
     0
100
AcDbLine
 10
16300.0
 20
20900.0625
 30
0.0
 11
16300.0
 21
21700.18
 31
0.0
  0
TEXT
  5
EABC2557E039A7BE
100
AcDbEntity
  8
SIMPLE
 62
     0
100
AcDbText
 10
14149.297143
 20
21699.91
 30
0.0
 40
0.18
  1
asdfasdfas
  7
SIMPLEX
 72
     1
 11
14150.0
 21
21699.91
 31
0.0
100
AcDbText
  0
SOLID
  5
EABC2557E039A7B9
100
AcDbEntity
  8
SIMPLE
 62
     0
100
AcDbTrace
 10
12000.18
 20
21699.97
 30
0.0
 11
12000.18
 21
21700.03
 31
0.0
 12
12000.0
 22
21700.0
 32
0.0
 13
12000.0
 23
21700.0
 33
0.0
  0
SOLID
  5
EABC2557E039A7BA
100
AcDbEntity
  8
SIMPLE
 62
     0
100
AcDbTrace
 10
16299.82
 20
21700.03
 30
0.0
 11
16299.82
 21
21699.97
 31
0.0
 12
16300.0
 22
21700.0
 32
0.0
 13
16300.0
 23
21700.0
 33
0.0
  0
LINE
  5
EABC2557E039A7BF
100
AcDbEntity
  8
SIMPLE
 62
     0
100
AcDbLine
 10
12000.18
 20
21700.0
 30
0.0
 11
14149.207143
 21
21700.0
 31
0.0
  0
LINE
  5
EABC2557E039A7C0
100
AcDbEntity
  8
SIMPLE
 62
     0
100
AcDbLine
 10
14150.792857
 20
21700.0
 30
0.0
 11
16299.82
 21
21700.0
 31
0.0
  0
ENDBLK
  5
EABC2557E039A7C5
100
AcDbEntity
  8
SIMPLE
 62
     5
100
AcDbBlockEnd
  0
BLOCK
  5
EABC2557E039A7E0
100
AcDbEntity
  8
SIMPLE
 62
     5
100
AcDbBlockBegin
  2
*D2
 70
     1
 10
0.0
 20
0.0
 30
0.0
  1

  0
POINT
  5
EABC2557E039A7D9
100
AcDbEntity
  8
SIMPLE
 62
     0
100
AcDbPoint
 10
16000.0
 20
19100.0
 30
0.0
  0
POINT
  5
EABC2557E039A7DA
100
AcDbEntity
  8
SIMPLE
 62
     0
100
AcDbPoint
 10
18100.0
 20
19300.0
 30
0.0
  0
LINE
  5
EABC2557E039A7D4
100
AcDbEntity
  8
SIMPLE
 62
     0
100
AcDbLine
 10
16000.0
 20
19100.0625
 30
0.0
 11
16000.0
 21
19600.18
 31
0.0
  0
LINE
  5
EABC2557E039A7D5
100
AcDbEntity
  8
SIMPLE
 62
     0
100
AcDbLine
 10
18100.0
 20
19300.0625
 30
0.0
 11
18100.0
 21
19600.18
 31
0.0
  0
TEXT
  5
EABC2557E039A7DB
100
AcDbEntity
  8
SIMPLE
 62
     0
100
AcDbText
 10
17049.314286
 20
19599.91
 30
0.0
 40
0.18
  1
2100.0000
  7
SIMPLEX
 72
     1
 11
17050.0
 21
19599.91
 31
0.0
100
AcDbText
  0
SOLID
  5
EABC2557E039A7D6
100
AcDbEntity
  8
SIMPLE
 62
     0
100
AcDbTrace
 10
16000.18
 20
19599.97
 30
0.0
 11
16000.18
 21
19600.03
 31
0.0
 12
16000.0
 22
19600.0
 32
0.0
 13
16000.0
 23
19600.0
 33
0.0
  0
SOLID
  5
EABC2557E039A7D7
100
AcDbEntity
  8
SIMPLE
 62
     0
100
AcDbTrace
 10
18099.82
 20
19600.03
 30
0.0
 11
18099.82
 21
19599.97
 31
0.0
 12
18100.0
 22
19600.0
 32
0.0
 13
18100.0
 23
19600.0
 33
0.0
  0
LINE
  5
EABC2557E039A7DC
100
AcDbEntity
  8
SIMPLE
 62
     0
100
AcDbLine
 10
16000.18
 20
19600.0
 30
0.0
 11
17049.224286
 21
19600.0
 31
0.0
  0
LINE
  5
EABC2557E039A7DD
100
AcDbEntity
  8
SIMPLE
 62
     0
100
AcDbLine
 10
17050.775714
 20
19600.0
 30
0.0
 11
18099.82
 21
19600.0
 31
0.0
  0
ENDBLK
  5
EABC2557E039A7E2
100
AcDbEntity
  8
SIMPLE
 62
     5
100
AcDbBlockEnd
  0
BLOCK
  5
EABC2557E039A7EF
100
AcDbEntity
  8
SIMPLE
 62
     5
100
AcDbBlockBegin
  2
*D3
 70
     1
 10
0.0
 20
0.0
 30
0.0
  1

  0
POINT
  5
EABC2557E039A7E8
100
AcDbEntity
  8
SIMPLE
 62
     0
100
AcDbPoint
 10
16000.0
 20
19100.0
 30
0.0
  0
POINT
  5
EABC2557E039A7E9
100
AcDbEntity
  8
SIMPLE
 62
     0
100
AcDbPoint
 10
18100.0
 20
19300.0
 30
0.0
  0
LINE
  5
EABC2557E039A7E3
100
AcDbEntity
  8
SIMPLE
 62
     0
100
AcDbLine
 10
16000.0
 20
19100.0625
 30
0.0
 11
16000.0
 21
19600.18
 31
0.0
  0
LINE
  5
EABC2557E039A7E4
100
AcDbEntity
  8
SIMPLE
 62
     0
100
AcDbLine
 10
18100.0
 20
19300.0625
 30
0.0
 11
18100.0
 21
19600.18
 31
0.0
  0
TEXT
  5
EABC2557E039A7EA
100
AcDbEntity
  8
SIMPLE
 62
     0
100
AcDbText
 10
17049.314286
 20
19599.91
 30
0.0
 40
0.18
  1
2100.0000
  7
SIMPLEX
 72
     1
 11
17050.0
 21
19599.91
 31
0.0
100
AcDbText
  0
SOLID
  5
EABC2557E039A7E5
100
AcDbEntity
  8
SIMPLE
 62
     0
100
AcDbTrace
 10
16000.18
 20
19599.97
 30
0.0
 11
16000.18
 21
19600.03
 31
0.0
 12
16000.0
 22
19600.0
 32
0.0
 13
16000.0
 23
19600.0
 33
0.0
  0
SOLID
  5
EABC2557E039A7E6
100
AcDbEntity
  8
SIMPLE
 62
     0
100
AcDbTrace
 10
18099.82
 20
19600.03
 30
0.0
 11
18099.82
 21
19599.97
 31
0.0
 12
18100.0
 22
19600.0
 32
0.0
 13
18100.0
 23
19600.0
 33
0.0
  0
LINE
  5
EABC2557E039A7EB
100
AcDbEntity
  8
SIMPLE
 62
     0
100
AcDbLine
 10
16000.18
 20
19600.0
 30
0.0
 11
17049.224286
 21
19600.0
 31
0.0
  0
LINE
  5
EABC2557E039A7EC
100
AcDbEntity
  8
SIMPLE
 62
     0
100
AcDbLine
 10
17050.775714
 20
19600.0
 30
0.0
 11
18099.82
 21
19600.0
 31
0.0
  0
ENDBLK
  5
EABC2557E039A7F1
100
AcDbEntity
  8
SIMPLE
 62
     5
100
AcDbBlockEnd
  0
BLOCK
  5
EABC2557E039A7FE
100
AcDbEntity
  8
SIMPLE
 62
     5
100
AcDbBlockBegin
  2
*D4
 70
     1
 10
0.0
 20
0.0
 30
0.0
  1

  0
POINT
  5
EABC2557E039A7F7
100
AcDbEntity
  8
SIMPLE
 62
     0
100
AcDbPoint
 10
16000.0
 20
19100.0
 30
0.0
  0
POINT
  5
EABC2557E039A7F8
100
AcDbEntity
  8
SIMPLE
 62
     0
100
AcDbPoint
 10
18100.0
 20
19300.0
 30
0.0
  0
LINE
  5
EABC2557E039A7F2
100
AcDbEntity
  8
SIMPLE
 62
     0
100
AcDbLine
 10
16000.0
 20
19100.0625
 30
0.0
 11
16000.0
 21
19600.18
 31
0.0
  0
LINE
  5
EABC2557E039A7F3
100
AcDbEntity
  8
SIMPLE
 62
     0
100
AcDbLine
 10
18100.0
 20
19300.0625
 30
0.0
 11
18100.0
 21
19600.18
 31
0.0
  0
TEXT
  5
EABC2557E039A7F9
100
AcDbEntity
  8
SIMPLE
 62
     0
100
AcDbText
 10
17049.515714
 20
19599.91
 30
0.0
 40
0.18
  1
asdfe4r
  7
SIMPLEX
 72
     1
 11
17050.0
 21
19599.91
 31
0.0
100
AcDbText
  0
SOLID
  5
EABC2557E039A7F4
100
AcDbEntity
  8
SIMPLE
 62
     0
100
AcDbTrace
 10
16000.18
 20
19599.97
 30
0.0
 11
16000.18
 21
19600.03
 31
0.0
 12
16000.0
 22
19600.0
 32
0.0
 13
16000.0
 23
19600.0
 33
0.0
  0
SOLID
  5
EABC2557E039A7F5
100
AcDbEntity
  8
SIMPLE
 62
     0
100
AcDbTrace
 10
18099.82
 20
19600.03
 30
0.0
 11
18099.82
 21
19599.97
 31
0.0
 12
18100.0
 22
19600.0
 32
0.0
 13
18100.0
 23
19600.0
 33
0.0
  0
LINE
  5
EABC2557E039A7FA
100
AcDbEntity
  8
SIMPLE
 62
     0
100
AcDbLine
 10
16000.18
 20
19600.0
 30
0.0
 11
17049.425714
 21
19600.0
 31
0.0
  0
LINE
  5
EABC2557E039A7FB
100
AcDbEntity
  8
SIMPLE
 62
     0
100
AcDbLine
 10
17050.574286
 20
19600.0
 30
0.0
 11
18099.82
 21
19600.0
 31
0.0
  0
ENDBLK
  5
EABC2557E039A800
100
AcDbEntity
  8
SIMPLE
 62
     5
100
AcDbBlockEnd
  0
BLOCK
  5
EABC2557E039A81B
100
AcDbEntity
  8
SIMPLE
 62
     5
100
AcDbBlockBegin
  2
*D5
 70
     1
 10
0.0
 20
0.0
 30
0.0
  1

  0
POINT
  5
EABC2557E039A814
100
AcDbEntity
  8
SIMPLE
 62
     0
100
AcDbPoint
 10
16600.0
 20
19600.0
 30
0.0
  0
POINT
  5
EABC2557E039A815
100
AcDbEntity
  8
SIMPLE
 62
     0
100
AcDbPoint
 10
17400.0
 20
19300.0
 30
0.0
  0
LINE
  5
EABC2557E039A80F
100
AcDbEntity
  8
SIMPLE
 62
     0
100
AcDbLine
 10
16600.0
 20
19599.9375
 30
0.0
 11
16600.0
 21
19399.82
 31
0.0
  0
LINE
  5
EABC2557E039A810
100
AcDbEntity
  8
SIMPLE
 62
     0
100
AcDbLine
 10
17400.0
 20
19300.0625
 30
0.0
 11
17400.0
 21
19400.18
 31
0.0
  0
TEXT
  5
EABC2557E039A816
100
AcDbEntity
  8
SIMPLE
 62
     0
100
AcDbText
 10
16999.382857
 20
19399.91
 30
0.0
 40
0.18
  1
800.0000
  7
SIMPLEX
 72
     1
 11
17000.0
 21
19399.91
 31
0.0
100
AcDbText
  0
SOLID
  5
EABC2557E039A811
100
AcDbEntity
  8
SIMPLE
 62
     0
100
AcDbTrace
 10
16600.18
 20
19399.97
 30
0.0
 11
16600.18
 21
19400.03
 31
0.0
 12
16600.0
 22
19400.0
 32
0.0
 13
16600.0
 23
19400.0
 33
0.0
  0
SOLID
  5
EABC2557E039A812
100
AcDbEntity
  8
SIMPLE
 62
     0
100
AcDbTrace
 10
17399.82
 20
19400.03
 30
0.0
 11
17399.82
 21
19399.97
 31
0.0
 12
17400.0
 22
19400.0
 32
0.0
 13
17400.0
 23
19400.0
 33
0.0
  0
LINE
  5
EABC2557E039A817
100
AcDbEntity
  8
SIMPLE
 62
     0
100
AcDbLine
 10
16600.18
 20
19400.0
 30
0.0
 11
16999.292857
 21
19400.0
 31
0.0
  0
LINE
  5
EABC2557E039A818
100
AcDbEntity
  8
SIMPLE
 62
     0
100
AcDbLine
 10
17000.707143
 20
19400.0
 30
0.0
 11
17399.82
 21
19400.0
 31
0.0
  0
ENDBLK
  5
EABC2557E039A81D
100
AcDbEntity
  8
SIMPLE
 62
     5
100
AcDbBlockEnd
  0
BLOCK
  5
EABC2557E039A82B
100
AcDbEntity
  8
SIMPLE
  6
CONTINUOUS
 62
     5
100
AcDbBlockBegin
  2
*D6
 70
     1
 10
0.0
 20
0.0
 30
0.0
  1

  0
POINT
  5
EABC2557E039A824
100
AcDbEntity
  8
SIMPLE
  6
CONTINUOUS
 62
     0
100
AcDbPoint
 10
16800.0
 20
19500.0
 30
0.0
  0
POINT
  5
EABC2557E039A825
100
AcDbEntity
  8
SIMPLE
  6
CONTINUOUS
 62
     0
100
AcDbPoint
 10
16900.0
 20
19500.0
 30
0.0
  0
LINE
  5
EABC2557E039A81F
100
AcDbEntity
  8
SIMPLE
  6
CONTINUOUS
 62
     0
100
AcDbLine
 10
16800.0
 20
19499.9375
 30
0.0
 11
16800.0
 21
19399.82
 31
0.0
  0
LINE
  5
EABC2557E039A820
100
AcDbEntity
  8
SIMPLE
  6
CONTINUOUS
 62
     0
100
AcDbLine
 10
16900.0
 20
19499.9375
 30
0.0
 11
16900.0
 21
19399.82
 31
0.0
  0
TEXT
  5
EABC2557E039A826
100
AcDbEntity
  8
SIMPLE
  6
CONTINUOUS
 62
     0
100
AcDbText
 10
16999.4
 20
19399.91
 30
0.0
 40
0.18
  1
100.0000
  7
SIMPLEX
 72
     1
 11
17000.0
 21
19399.91
 31
0.0
100
AcDbText
  0
SOLID
  5
EABC2557E039A821
100
AcDbEntity
  8
SIMPLE
  6
CONTINUOUS
 62
     0
100
AcDbTrace
 10
16800.18
 20
19399.97
 30
0.0
 11
16800.18
 21
19400.03
 31
0.0
 12
16800.0
 22
19400.0
 32
0.0
 13
16800.0
 23
19400.0
 33
0.0
  0
SOLID
  5
EABC2557E039A822
100
AcDbEntity
  8
SIMPLE
  6
CONTINUOUS
 62
     0
100
AcDbTrace
 10
16899.82
 20
19400.03
 30
0.0
 11
16899.82
 21
19399.97
 31
0.0
 12
16900.0
 22
19400.0
 32
0.0
 13
16900.0
 23
19400.0
 33
0.0
  0
LINE
  5
EABC2557E039A827
100
AcDbEntity
  8
SIMPLE
  6
CONTINUOUS
 62
     0
100
AcDbLine
 10
16800.18
 20
19400.0
 30
0.0
 11
16899.82
 21
19400.0
 31
0.0
  0
ENDBLK
  5
EABC2557E039A82D
100
AcDbEntity
  8
SIMPLE
  6
CONTINUOUS
 62
     5
100
AcDbBlockEnd
  0
BLOCK
  5
EABC2557E039A83B
100
AcDbEntity
  8
SIMPLE
  6
CONTINUOUS
 62
     5
100
AcDbBlockBegin
  2
*D7
 70
     1
 10
0.0
 20
0.0
 30
0.0
  1

  0
POINT
  5
EABC2557E039A834
100
AcDbEntity
  8
SIMPLE
  6
CONTINUOUS
 62
     0
100
AcDbPoint
 10
17000.0
 20
19400.0
 30
0.0
  0
POINT
  5
EABC2557E039A835
100
AcDbEntity
  8
SIMPLE
  6
CONTINUOUS
 62
     0
100
AcDbPoint
 10
17200.0
 20
19300.0
 30
0.0
  0
LINE
  5
EABC2557E039A82F
100
AcDbEntity
  8
SIMPLE
  6
CONTINUOUS
 62
     0
100
AcDbLine
 10
17000.0
 20
19350.0
 30
0.0
 11
17000.0
 21
19250.0
 31
0.0
  0
LINE
  5
EABC2557E039A830
100
AcDbEntity
  8
SIMPLE
  6
CONTINUOUS
 62
     0
100
AcDbLine
 10
17200.0
 20
19250.0
 30
0.0
 11
17200.0
 21
19250.0
 31
0.0
  0
TEXT
  5
EABC2557E039A836
100
AcDbEntity
  8
SIMPLE
  6
CONTINUOUS
 62
     0
100
AcDbText
 10
16757.142857
 20
19250.0
 30
0.0
 40
100.0
  1
200.0000
  7
SIMPLEX
 72
     1
 11
17100.0
 21
19250.0
 31
0.0
100
AcDbText
  0
SOLID
  5
EABC2557E039A831
100
AcDbEntity
  8
SIMPLE
  6
CONTINUOUS
 62
     0
100
AcDbTrace
 10
17020.0
 20
19296.666667
 30
0.0
 11
17020.0
 21
19303.333333
 31
0.0
 12
17000.0
 22
19300.0
 32
0.0
 13
17000.0
 23
19300.0
 33
0.0
  0
SOLID
  5
EABC2557E039A832
100
AcDbEntity
  8
SIMPLE
  6
CONTINUOUS
 62
     0
100
AcDbTrace
 10
17180.0
 20
19303.333333
 30
0.0
 11
17180.0
 21
19296.666667
 31
0.0
 12
17200.0
 22
19300.0
 32
0.0
 13
17200.0
 23
19300.0
 33
0.0
  0
LINE
  5
EABC2557E039A837
100
AcDbEntity
  8
SIMPLE
  6
CONTINUOUS
 62
     0
100
AcDbLine
 10
17020.0
 20
19300.0
 30
0.0
 11
17180.0
 21
19300.0
 31
0.0
  0
ENDBLK
  5
EABC2557E039A83D
100
AcDbEntity
  8
SIMPLE
  6
CONTINUOUS
 62
     5
100
AcDbBlockEnd
  0
BLOCK
  5
EABC2557E039A84C
100
AcDbEntity
  8
SIMPLE
  6
CONTINUOUS
 62
     5
100
AcDbBlockBegin
  2
*D8
 70
     1
 10
0.0
 20
0.0
 30
0.0
  1

  0
POINT
  5
EABC2557E039A845
100
AcDbEntity
  8
SIMPLE
  6
CONTINUOUS
 62
     0
100
AcDbPoint
 10
15099.0
 20
19600.0
 30
0.0
  0
POINT
  5
EABC2557E039A846
100
AcDbEntity
  8
SIMPLE
  6
CONTINUOUS
 62
     0
100
AcDbPoint
 10
23099.0
 20
19600.0
 30
0.0
  0
LINE
  5
EABC2557E039A840
100
AcDbEntity
  8
SIMPLE
  6
CONTINUOUS
 62
     0
100
AcDbLine
 10
15099.0
 20
19650.0
 30
0.0
 11
15099.0
 21
20850.0
 31
0.0
  0
LINE
  5
EABC2557E039A841
100
AcDbEntity
  8
SIMPLE
  6
CONTINUOUS
 62
     0
100
AcDbLine
 10
23099.0
 20
19650.0
 30
0.0
 11
23099.0
 21
20850.0
 31
0.0
  0
TEXT
  5
EABC2557E039A847
100
AcDbEntity
  8
SIMPLE
  6
CONTINUOUS
 62
     0
100
AcDbText
 10
18708.52381
 20
20750.0
 30
0.0
 40
100.0
  1
8000.0000
  7
SIMPLEX
 72
     1
 11
19099.0
 21
20750.0
 31
0.0
100
AcDbText
  0
SOLID
  5
EABC2557E039A842
100
AcDbEntity
  8
SIMPLE
  6
CONTINUOUS
 62
     0
100
AcDbTrace
 10
15119.0
 20
20796.666667
 30
0.0
 11
15119.0
 21
20803.333333
 31
0.0
 12
15099.0
 22
20800.0
 32
0.0
 13
15099.0
 23
20800.0
 33
0.0
  0
SOLID
  5
EABC2557E039A843
100
AcDbEntity
  8
SIMPLE
  6
CONTINUOUS
 62
     0
100
AcDbTrace
 10
23079.0
 20
20803.333333
 30
0.0
 11
23079.0
 21
20796.666667
 31
0.0
 12
23099.0
 22
20800.0
 32
0.0
 13
23099.0
 23
20800.0
 33
0.0
  0
LINE
  5
EABC2557E039A848
100
AcDbEntity
  8
SIMPLE
  6
CONTINUOUS
 62
     0
100
AcDbLine
 10
15119.0
 20
20800.0
 30
0.0
 11
18708.43381
 21
20800.0
 31
0.0
  0
LINE
  5
EABC2557E039A849
100
AcDbEntity
  8
SIMPLE
  6
CONTINUOUS
 62
     0
100
AcDbLine
 10
19489.56619
 20
20800.0
 30
0.0
 11
23079.0
 21
20800.0
 31
0.0
  0
ENDBLK
  5
EABC2557E039A84E
100
AcDbEntity
  8
SIMPLE
  6
CONTINUOUS
 62
     5
100
AcDbBlockEnd
  0
BLOCK
  5
EABC2557E039A85B
100
AcDbEntity
  8
SIMPLE
  6
CONTINUOUS
 62
     5
100
AcDbBlockBegin
  2
*D9
 70
     1
 10
0.0
 20
0.0
 30
0.0
  1

  0
POINT
  5
EABC2557E039A854
100
AcDbEntity
  8
SIMPLE
  6
CONTINUOUS
 62
     0
100
AcDbPoint
 10
15099.0
 20
19600.0
 30
0.0
  0
POINT
  5
EABC2557E039A855
100
AcDbEntity
  8
SIMPLE
  6
CONTINUOUS
 62
     0
100
AcDbPoint
 10
23099.0
 20
19600.0
 30
0.0
  0
LINE
  5
EABC2557E039A84F
100
AcDbEntity
  8
SIMPLE
  6
CONTINUOUS
 62
     0
100
AcDbLine
 10
15099.0
 20
19650.0
 30
0.0
 11
15099.0
 21
20850.0
 31
0.0
  0
LINE
  5
EABC2557E039A850
100
AcDbEntity
  8
SIMPLE
  6
CONTINUOUS
 62
     0
100
AcDbLine
 10
23099.0
 20
19650.0
 30
0.0
 11
23099.0
 21
20850.0
 31
0.0
  0
TEXT
  5
EABC2557E039A856
100
AcDbEntity
  8
SIMPLE
  6
CONTINUOUS
 62
     0
100
AcDbText
 10
18708.52381
 20
20750.0
 30
0.0
 40
100.0
  1
8000.0000
  7
SIMPLEX
 72
     1
 11
19099.0
 21
20750.0
 31
0.0
100
AcDbText
  0
SOLID
  5
EABC2557E039A851
100
AcDbEntity
  8
SIMPLE
  6
CONTINUOUS
 62
     0
100
AcDbTrace
 10
15199.0
 20
20783.333333
 30
0.0
 11
15199.0
 21
20816.666667
 31
0.0
 12
15099.0
 22
20800.0
 32
0.0
 13
15099.0
 23
20800.0
 33
0.0
  0
SOLID
  5
EABC2557E039A852
100
AcDbEntity
  8
SIMPLE
  6
CONTINUOUS
 62
     0
100
AcDbTrace
 10
22999.0
 20
20816.666667
 30
0.0
 11
22999.0
 21
20783.333333
 31
0.0
 12
23099.0
 22
20800.0
 32
0.0
 13
23099.0
 23
20800.0
 33
0.0
  0
LINE
  5
EABC2557E039A857
100
AcDbEntity
  8
SIMPLE
  6
CONTINUOUS
 62
     0
100
AcDbLine
 10
15199.0
 20
20800.0
 30
0.0
 11
18708.43381
 21
20800.0
 31
0.0
  0
LINE
  5
EABC2557E039A858
100
AcDbEntity
  8
SIMPLE
  6
CONTINUOUS
 62
     0
100
AcDbLine
 10
19489.56619
 20
20800.0
 30
0.0
 11
22999.0
 21
20800.0
 31
0.0
  0
ENDBLK
  5
EABC2557E039A85D
100
AcDbEntity
  8
SIMPLE
  6
CONTINUOUS
 62
     5
100
AcDbBlockEnd
  0
BLOCK
  5
EABC2557E039A86A
100
AcDbEntity
  8
SIMPLE
  6
CONTINUOUS
 62
     5
100
AcDbBlockBegin
  2
*D10
 70
     1
 10
0.0
 20
0.0
 30
0.0
  1

  0
POINT
  5
EABC2557E039A863
100
AcDbEntity
  8
SIMPLE
  6
CONTINUOUS
 62
     0
100
AcDbPoint
 10
15099.0
 20
19600.0
 30
0.0
  0
POINT
  5
EABC2557E039A864
100
AcDbEntity
  8
SIMPLE
  6
CONTINUOUS
 62
     0
100
AcDbPoint
 10
23099.0
 20
19600.0
 30
0.0
  0
LINE
  5
EABC2557E039A85E
100
AcDbEntity
  8
SIMPLE
  6
CONTINUOUS
 62
     0
100
AcDbLine
 10
15099.0
 20
19650.0
 30
0.0
 11
15099.0
 21
20850.0
 31
0.0
  0
LINE
  5
EABC2557E039A85F
100
AcDbEntity
  8
SIMPLE
  6
CONTINUOUS
 62
     0
100
AcDbLine
 10
23099.0
 20
19650.0
 30
0.0
 11
23099.0
 21
20850.0
 31
0.0
  0
TEXT
  5
EABC2557E039A865
100
AcDbEntity
  8
SIMPLE
  6
CONTINUOUS
 62
     0
100
AcDbText
 10
18708.52381
 20
20750.0
 30
0.0
 40
100.0
  1
8000.0000
  7
SIMPLEX
 72
     1
 11
19099.0
 21
20750.0
 31
0.0
100
AcDbText
  0
SOLID
  5
EABC2557E039A860
100
AcDbEntity
  8
SIMPLE
  6
CONTINUOUS
 62
     0
100
AcDbTrace
 10
15199.0
 20
20783.333333
 30
0.0
 11
15199.0
 21
20816.666667
 31
0.0
 12
15099.0
 22
20800.0
 32
0.0
 13
15099.0
 23
20800.0
 33
0.0
  0
SOLID
  5
EABC2557E039A861
100
AcDbEntity
  8
SIMPLE
  6
CONTINUOUS
 62
     0
100
AcDbTrace
 10
22999.0
 20
20816.666667
 30
0.0
 11
22999.0
 21
20783.333333
 31
0.0
 12
23099.0
 22
20800.0
 32
0.0
 13
23099.0
 23
20800.0
 33
0.0
  0
LINE
  5
EABC2557E039A866
100
AcDbEntity
  8
SIMPLE
  6
CONTINUOUS
 62
     0
100
AcDbLine
 10
15199.0
 20
20800.0
 30
0.0
 11
18708.43381
 21
20800.0
 31
0.0
  0
LINE
  5
EABC2557E039A867
100
AcDbEntity
  8
SIMPLE
  6
CONTINUOUS
 62
     0
100
AcDbLine
 10
19489.56619
 20
20800.0
 30
0.0
 11
22999.0
 21
20800.0
 31
0.0
  0
ENDBLK
  5
EABC2557E039A86C
100
AcDbEntity
  8
SIMPLE
  6
CONTINUOUS
 62
     5
100
AcDbBlockEnd
  0
BLOCK
  5
EABC2557E039A87A
100
AcDbEntity
  8
SIMPLE
  6
CONTINUOUS
 62
     5
100
AcDbBlockBegin
  2
*D11
 70
     1
 10
0.0
 20
0.0
 30
0.0
  1

  0
POINT
  5
EABC2557E039A873
100
AcDbEntity
  8
SIMPLE
  6
CONTINUOUS
 62
     0
100
AcDbPoint
 10
15100.0
 20
18800.0
 30
0.0
  0
POINT
  5
EABC2557E039A874
100
AcDbEntity
  8
SIMPLE
  6
CONTINUOUS
 62
     0
100
AcDbPoint
 10
16000.0
 20
18000.0
 30
0.0
  0
LINE
  5
EABC2557E039A86E
100
AcDbEntity
  8
SIMPLE
  6
CONTINUOUS
 62
     0
100
AcDbLine
 10
15100.0
 20
18850.0
 30
0.0
 11
15100.0
 21
20250.0
 31
0.0
  0
LINE
  5
EABC2557E039A86F
100
AcDbEntity
  8
SIMPLE
  6
CONTINUOUS
 62
     0
100
AcDbLine
 10
16000.0
 20
18050.0
 30
0.0
 11
16000.0
 21
20250.0
 31
0.0
  0
TEXT
  5
EABC2557E039A875
100
AcDbEntity
  8
SIMPLE
  6
CONTINUOUS
 62
     0
100
AcDbText
 10
15207.142857
 20
20150.0
 30
0.0
 40
100.0
  1
900.0000
  7
SIMPLEX
 72
     1
 11
15550.0
 21
20150.0
 31
0.0
100
AcDbText
  0
SOLID
  5
EABC2557E039A870
100
AcDbEntity
  8
SIMPLE
  6
CONTINUOUS
 62
     0
100
AcDbTrace
 10
15200.0
 20
20183.333333
 30
0.0
 11
15200.0
 21
20216.666667
 31
0.0
 12
15100.0
 22
20200.0
 32
0.0
 13
15100.0
 23
20200.0
 33
0.0
  0
SOLID
  5
EABC2557E039A871
100
AcDbEntity
  8
SIMPLE
  6
CONTINUOUS
 62
     0
100
AcDbTrace
 10
15900.0
 20
20216.666667
 30
0.0
 11
15900.0
 21
20183.333333
 31
0.0
 12
16000.0
 22
20200.0
 32
0.0
 13
16000.0
 23
20200.0
 33
0.0
  0
LINE
  5
EABC2557E039A876
100
AcDbEntity
  8
SIMPLE
  6
CONTINUOUS
 62
     0
100
AcDbLine
 10
15200.0
 20
20200.0
 30
0.0
 11
15207.052857
 21
20200.0
 31
0.0
  0
LINE
  5
EABC2557E039A877
100
AcDbEntity
  8
SIMPLE
  6
CONTINUOUS
 62
     0
100
AcDbLine
 10
15892.947143
 20
20200.0
 30
0.0
 11
15900.0
 21
20200.0
 31
0.0
  0
ENDBLK
  5
EABC2557E039A87C
100
AcDbEntity
  8
SIMPLE
  6
CONTINUOUS
 62
     5
100
AcDbBlockEnd
  0
BLOCK
  5
EABC2557E039A88A
100
AcDbEntity
  8
SIMPLE
  6
CONTINUOUS
 62
     5
100
AcDbBlockBegin
  2
*D12
 70
     1
 10
0.0
 20
0.0
 30
0.0
  1

  0
POINT
  5
EABC2557E039A883
100
AcDbEntity
  8
SIMPLE
  6
CONTINUOUS
 62
     0
100
AcDbPoint
 10
16200.0
 20
15900.0
 30
0.0
  0
POINT
  5
EABC2557E039A884
100
AcDbEntity
  8
SIMPLE
  6
CONTINUOUS
 62
     0
100
AcDbPoint
 10
17600.0
 20
15900.0
 30
0.0
  0
LINE
  5
EABC2557E039A87E
100
AcDbEntity
  8
SIMPLE
  6
CONTINUOUS
 62
     0
100
AcDbLine
 10
16200.0
 20
15950.0
 30
0.0
 11
16200.0
 21
20250.0
 31
0.0
  0
LINE
  5
EABC2557E039A87F
100
AcDbEntity
  8
SIMPLE
  6
CONTINUOUS
 62
     0
100
AcDbLine
 10
17600.0
 20
15950.0
 30
0.0
 11
17600.0
 21
20250.0
 31
0.0
  0
TEXT
  5
EABC2557E039A885
100
AcDbEntity
  8
SIMPLE
  6
CONTINUOUS
 62
     0
100
AcDbText
 10
16519.047619
 20
20150.0
 30
0.0
 40
100.0
  1
1400.0000
  7
SIMPLEX
 72
     1
 11
16900.0
 21
20150.0
 31
0.0
100
AcDbText
  0
SOLID
  5
EABC2557E039A880
100
AcDbEntity
  8
SIMPLE
  6
CONTINUOUS
 62
     0
100
AcDbTrace
 10
16300.0
 20
20183.333333
 30
0.0
 11
16300.0
 21
20216.666667
 31
0.0
 12
16200.0
 22
20200.0
 32
0.0
 13
16200.0
 23
20200.0
 33
0.0
  0
SOLID
  5
EABC2557E039A881
100
AcDbEntity
  8
SIMPLE
  6
CONTINUOUS
 62
     0
100
AcDbTrace
 10
17500.0
 20
20216.666667
 30
0.0
 11
17500.0
 21
20183.333333
 31
0.0
 12
17600.0
 22
20200.0
 32
0.0
 13
17600.0
 23
20200.0
 33
0.0
  0
LINE
  5
EABC2557E039A886
100
AcDbEntity
  8
SIMPLE
  6
CONTINUOUS
 62
     0
100
AcDbLine
 10
16300.0
 20
20200.0
 30
0.0
 11
16518.957619
 21
20200.0
 31
0.0
  0
LINE
  5
EABC2557E039A887
100
AcDbEntity
  8
SIMPLE
  6
CONTINUOUS
 62
     0
100
AcDbLine
 10
17281.042381
 20
20200.0
 30
0.0
 11
17500.0
 21
20200.0
 31
0.0
  0
ENDBLK
  5
EABC2557E039A88C
100
AcDbEntity
  8
SIMPLE
  6
CONTINUOUS
 62
     5
100
AcDbBlockEnd
  0
BLOCK
  5
EABC2557E039A8B4
100
AcDbEntity
  8
SIMPLE
  6
CONTINUOUS
 62
     5
100
AcDbBlockBegin
  2
*D13
 70
     1
 10
0.0
 20
0.0
 30
0.0
  1

  0
POINT
  5
EABC2557E039A8AD
100
AcDbEntity
  8
SIMPLE
  6
CONTINUOUS
 62
     0
100
AcDbPoint
 10
16200.0
 20
15900.0
 30
0.0
  0
POINT
  5
EABC2557E039A8AE
100
AcDbEntity
  8
SIMPLE
  6
CONTINUOUS
 62
     0
100
AcDbPoint
 10
17400.0
 20
15900.0
 30
0.0
  0
LINE
  5
EABC2557E039A8A8
100
AcDbEntity
  8
SIMPLE
  6
CONTINUOUS
 62
     0
100
AcDbLine
 10
16200.0
 20
15950.0
 30
0.0
 11
16200.0
 21
20250.0
 31
0.0
  0
LINE
  5
EABC2557E039A8A9
100
AcDbEntity
  8
SIMPLE
  6
CONTINUOUS
 62
     0
100
AcDbLine
 10
17400.0
 20
15950.0
 30
0.0
 11
17400.0
 21
20250.0
 31
0.0
  0
TEXT
  5
EABC2557E039A8AF
100
AcDbEntity
  8
SIMPLE
  6
CONTINUOUS
 62
     0
100
AcDbText
 10
16419.047619
 20
20150.0
 30
0.0
 40
100.0
  1
1200.0000
  7
SIMPLEX
 72
     1
 11
16800.0
 21
20150.0
 31
0.0
100
AcDbText
  0
SOLID
  5
EABC2557E039A8AA
100
AcDbEntity
  8
SIMPLE
  6
CONTINUOUS
 62
     0
100
AcDbTrace
 10
16300.0
 20
20183.333333
 30
0.0
 11
16300.0
 21
20216.666667
 31
0.0
 12
16200.0
 22
20200.0
 32
0.0
 13
16200.0
 23
20200.0
 33
0.0
  0
SOLID
  5
EABC2557E039A8AB
100
AcDbEntity
  8
SIMPLE
  6
CONTINUOUS
 62
     0
100
AcDbTrace
 10
17300.0
 20
20216.666667
 30
0.0
 11
17300.0
 21
20183.333333
 31
0.0
 12
17400.0
 22
20200.0
 32
0.0
 13
17400.0
 23
20200.0
 33
0.0
  0
LINE
  5
EABC2557E039A8B0
100
AcDbEntity
  8
SIMPLE
  6
CONTINUOUS
 62
     0
100
AcDbLine
 10
16300.0
 20
20200.0
 30
0.0
 11
16418.957619
 21
20200.0
 31
0.0
  0
LINE
  5
EABC2557E039A8B1
100
AcDbEntity
  8
SIMPLE
  6
CONTINUOUS
 62
     0
100
AcDbLine
 10
17181.042381
 20
20200.0
 30
0.0
 11
17300.0
 21
20200.0
 31
0.0
  0
ENDBLK
  5
EABC2557E039A8B6
100
AcDbEntity
  8
SIMPLE
  6
CONTINUOUS
 62
     5
100
AcDbBlockEnd
  0
BLOCK
  5
EABC2557E039A8C4
100
AcDbEntity
  8
SIMPLE
  6
CONTINUOUS
 62
     5
100
AcDbBlockBegin
  2
*D14
 70
     1
 10
0.0
 20
0.0
 30
0.0
  1

  0
POINT
  5
EABC2557E039A8BD
100
AcDbEntity
  8
SIMPLE
  6
CONTINUOUS
 62
     0
100
AcDbPoint
 10
17600.0
 20
14000.0
 30
0.0
  0
POINT
  5
EABC2557E039A8BE
100
AcDbEntity
  8
SIMPLE
  6
CONTINUOUS
 62
     0
100
AcDbPoint
 10
17600.0
 20
20200.0
 30
0.0
  0
LINE
  5
EABC2557E039A8B8
100
AcDbEntity
  8
SIMPLE
  6
CONTINUOUS
 62
     0
100
AcDbLine
 10
17600.0
 20
14050.0
 30
0.0
 11
17600.0
 21
20250.0
 31
0.0
  0
LINE
  5
EABC2557E039A8B9
100
AcDbEntity
  8
SIMPLE
  6
CONTINUOUS
 62
     0
100
AcDbLine
 10
17600.0
 20
20150.0
 30
0.0
 11
17600.0
 21
20150.0
 31
0.0
  0
TEXT
  5
EABC2557E039A8BF
100
AcDbEntity
  8
SIMPLE
  6
CONTINUOUS
 62
     0
100
AcDbText
 10
17600.18
 20
20150.0
 30
0.0
 40
100.0
  1
3.7963E-013
  7
SIMPLEX
 72
     1
 11
18088.275238
 21
20150.0
 31
0.0
100
AcDbText
  0
SOLID
  5
EABC2557E039A8BA
100
AcDbEntity
  8
SIMPLE
  6
CONTINUOUS
 62
     0
100
AcDbTrace
 10
17700.0
 20
20183.333333
 30
0.0
 11
17700.0
 21
20216.666667
 31
0.0
 12
17600.0
 22
20200.0
 32
0.0
 13
17600.0
 23
20200.0
 33
0.0
  0
SOLID
  5
EABC2557E039A8BB
100
AcDbEntity
  8
SIMPLE
  6
CONTINUOUS
 62
     0
100
AcDbTrace
 10
17500.0
 20
20216.666667
 30
0.0
 11
17500.0
 21
20183.333333
 31
0.0
 12
17600.0
 22
20200.0
 32
0.0
 13
17600.0
 23
20200.0
 33
0.0
  0
LINE
  5
EABC2557E039A8C0
100
AcDbEntity
  8
SIMPLE
  6
CONTINUOUS
 62
     0
100
AcDbLine
 10
17600.0
 20
20200.0
 30
0.0
 11
17600.0
 21
20200.0
 31
0.0
  0
LINE
  5
EABC2557E039A8C1
100
AcDbEntity
  8
SIMPLE
  6
CONTINUOUS
 62
     0
100
AcDbLine
 10
17600.0
 20
20200.0
 30
0.0
 11
17600.0
 21
20200.0
 31
0.0
  0
ENDBLK
  5
EABC2557E039A8C6
100
AcDbEntity
  8
SIMPLE
  6
CONTINUOUS
 62
     5
100
AcDbBlockEnd
  0
BLOCK
  5
EABC2557E039A8D4
100
AcDbEntity
  8
SIMPLE
  6
CONTINUOUS
 62
     5
100
AcDbBlockBegin
  2
*D15
 70
     1
 10
0.0
 20
0.0
 30
0.0
  1

  0
POINT
  5
EABC2557E039A8CD
100
AcDbEntity
  8
SIMPLE
  6
CONTINUOUS
 62
     0
100
AcDbPoint
 10
17600.0
 20
14500.0
 30
0.0
  0
POINT
  5
EABC2557E039A8CE
100
AcDbEntity
  8
SIMPLE
  6
CONTINUOUS
 62
     0
100
AcDbPoint
 10
18000.0
 20
20200.0
 30
0.0
  0
LINE
  5
EABC2557E039A8C8
100
AcDbEntity
  8
SIMPLE
  6
CONTINUOUS
 62
     0
100
AcDbLine
 10
17600.0
 20
14550.0
 30
0.0
 11
17600.0
 21
20250.0
 31
0.0
  0
LINE
  5
EABC2557E039A8C9
100
AcDbEntity
  8
SIMPLE
  6
CONTINUOUS
 62
     0
100
AcDbLine
 10
18000.0
 20
20150.0
 30
0.0
 11
18000.0
 21
20150.0
 31
0.0
  0
TEXT
  5
EABC2557E039A8CF
100
AcDbEntity
  8
SIMPLE
  6
CONTINUOUS
 62
     0
100
AcDbText
 10
18200.18
 20
20150.0
 30
0.0
 40
100.0
  1
400.0000
  7
SIMPLEX
 72
     1
 11
18543.037143
 21
20150.0
 31
0.0
100
AcDbText
  0
SOLID
  5
EABC2557E039A8CA
100
AcDbEntity
  8
SIMPLE
  6
CONTINUOUS
 62
     0
100
AcDbTrace
 10
17500.0
 20
20216.666667
 30
0.0
 11
17500.0
 21
20183.333333
 31
0.0
 12
17600.0
 22
20200.0
 32
0.0
 13
17600.0
 23
20200.0
 33
0.0
  0
SOLID
  5
EABC2557E039A8CB
100
AcDbEntity
  8
SIMPLE
  6
CONTINUOUS
 62
     0
100
AcDbTrace
 10
18100.0
 20
20183.333333
 30
0.0
 11
18100.0
 21
20216.666667
 31
0.0
 12
18000.0
 22
20200.0
 32
0.0
 13
18000.0
 23
20200.0
 33
0.0
  0
LINE
  5
EABC2557E039A8D0
100
AcDbEntity
  8
SIMPLE
  6
CONTINUOUS
 62
     0
100
AcDbLine
 10
17500.0
 20
20200.0
 30
0.0
 11
17400.0
 21
20200.0
 31
0.0
  0
LINE
  5
EABC2557E039A8D1
100
AcDbEntity
  8
SIMPLE
  6
CONTINUOUS
 62
     0
100
AcDbLine
 10
18100.0
 20
20200.0
 30
0.0
 11
18200.0
 21
20200.0
 31
0.0
  0
ENDBLK
  5
EABC2557E039A8D6
100
AcDbEntity
  8
SIMPLE
  6
CONTINUOUS
 62
     5
100
AcDbBlockEnd
  0
BLOCK
  5
EABC2557E039A8E4
100
AcDbEntity
  8
SIMPLE
  6
CONTINUOUS
 62
     5
100
AcDbBlockBegin
  2
*D16
 70
     1
 10
0.0
 20
0.0
 30
0.0
  1

  0
POINT
  5
EABC2557E039A8DD
100
AcDbEntity
  8
SIMPLE
  6
CONTINUOUS
 62
     0
100
AcDbPoint
 10
17600.0
 20
14000.0
 30
0.0
  0
POINT
  5
EABC2557E039A8DE
100
AcDbEntity
  8
SIMPLE
  6
CONTINUOUS
 62
     0
100
AcDbPoint
 10
18000.0
 20
14000.0
 30
0.0
  0
LINE
  5
EABC2557E039A8D8
100
AcDbEntity
  8
SIMPLE
  6
CONTINUOUS
 62
     0
100
AcDbLine
 10
17600.0
 20
14050.0
 30
0.0
 11
17600.0
 21
20250.0
 31
0.0
  0
LINE
  5
EABC2557E039A8D9
100
AcDbEntity
  8
SIMPLE
  6
CONTINUOUS
 62
     0
100
AcDbLine
 10
18000.0
 20
14050.0
 30
0.0
 11
18000.0
 21
20250.0
 31
0.0
  0
TEXT
  5
EABC2557E039A8DF
100
AcDbEntity
  8
SIMPLE
  6
CONTINUOUS
 62
     0
100
AcDbText
 10
18200.18
 20
20150.0
 30
0.0
 40
100.0
  1
400.0000
  7
SIMPLEX
 72
     1
 11
18543.037143
 21
20150.0
 31
0.0
100
AcDbText
  0
SOLID
  5
EABC2557E039A8DA
100
AcDbEntity
  8
SIMPLE
  6
CONTINUOUS
 62
     0
100
AcDbTrace
 10
17500.0
 20
20216.666667
 30
0.0
 11
17500.0
 21
20183.333333
 31
0.0
 12
17600.0
 22
20200.0
 32
0.0
 13
17600.0
 23
20200.0
 33
0.0
  0
SOLID
  5
EABC2557E039A8DB
100
AcDbEntity
  8
SIMPLE
  6
CONTINUOUS
 62
     0
100
AcDbTrace
 10
18100.0
 20
20183.333333
 30
0.0
 11
18100.0
 21
20216.666667
 31
0.0
 12
18000.0
 22
20200.0
 32
0.0
 13
18000.0
 23
20200.0
 33
0.0
  0
LINE
  5
EABC2557E039A8E0
100
AcDbEntity
  8
SIMPLE
  6
CONTINUOUS
 62
     0
100
AcDbLine
 10
17500.0
 20
20200.0
 30
0.0
 11
17400.0
 21
20200.0
 31
0.0
  0
LINE
  5
EABC2557E039A8E1
100
AcDbEntity
  8
SIMPLE
  6
CONTINUOUS
 62
     0
100
AcDbLine
 10
18100.0
 20
20200.0
 30
0.0
 11
18200.0
 21
20200.0
 31
0.0
  0
ENDBLK
  5
EABC2557E039A8E6
100
AcDbEntity
  8
SIMPLE
  6
CONTINUOUS
 62
     5
100
AcDbBlockEnd
  0
BLOCK
  5
EABC2557E039A8F4
100
AcDbEntity
  8
SIMPLE
  6
CONTINUOUS
 62
     5
100
AcDbBlockBegin
  2
*D17
 70
     1
 10
0.0
 20
0.0
 30
0.0
  1

  0
POINT
  5
EABC2557E039A8ED
100
AcDbEntity
  8
SIMPLE
  6
CONTINUOUS
 62
     0
100
AcDbPoint
 10
21800.0
 20
15900.0
 30
0.0
  0
POINT
  5
EABC2557E039A8EE
100
AcDbEntity
  8
SIMPLE
  6
CONTINUOUS
 62
     0
100
AcDbPoint
 10
21100.0
 20
20200.0
 30
0.0
  0
LINE
  5
EABC2557E039A8E8
100
AcDbEntity
  8
SIMPLE
  6
CONTINUOUS
 62
     0
100
AcDbLine
 10
21800.0
 20
15950.0
 30
0.0
 11
21800.0
 21
20250.0
 31
0.0
  0
LINE
  5
EABC2557E039A8E9
100
AcDbEntity
  8
SIMPLE
  6
CONTINUOUS
 62
     0
100
AcDbLine
 10
21100.0
 20
20150.0
 30
0.0
 11
21100.0
 21
20150.0
 31
0.0
  0
TEXT
  5
EABC2557E039A8EF
100
AcDbEntity
  8
SIMPLE
  6
CONTINUOUS
 62
     0
100
AcDbText
 10
20214.105714
 20
20150.0
 30
0.0
 40
100.0
  1
700.0000
  7
SIMPLEX
 72
     1
 11
20556.962857
 21
20150.0
 31
0.0
100
AcDbText
  0
SOLID
  5
EABC2557E039A8EA
100
AcDbEntity
  8
SIMPLE
  6
CONTINUOUS
 62
     0
100
AcDbTrace
 10
21900.0
 20
20183.333333
 30
0.0
 11
21900.0
 21
20216.666667
 31
0.0
 12
21800.0
 22
20200.0
 32
0.0
 13
21800.0
 23
20200.0
 33
0.0
  0
SOLID
  5
EABC2557E039A8EB
100
AcDbEntity
  8
SIMPLE
  6
CONTINUOUS
 62
     0
100
AcDbTrace
 10
21000.0
 20
20216.666667
 30
0.0
 11
21000.0
 21
20183.333333
 31
0.0
 12
21100.0
 22
20200.0
 32
0.0
 13
21100.0
 23
20200.0
 33
0.0
  0
LINE
  5
EABC2557E039A8F0
100
AcDbEntity
  8
SIMPLE
  6
CONTINUOUS
 62
     0
100
AcDbLine
 10
21900.0
 20
20200.0
 30
0.0
 11
22000.0
 21
20200.0
 31
0.0
  0
LINE
  5
EABC2557E039A8F1
100
AcDbEntity
  8
SIMPLE
  6
CONTINUOUS
 62
     0
100
AcDbLine
 10
21000.0
 20
20200.0
 30
0.0
 11
20900.0
 21
20200.0
 31
0.0
  0
ENDBLK
  5
EABC2557E039A8F6
100
AcDbEntity
  8
SIMPLE
  6
CONTINUOUS
 62
     5
100
AcDbBlockEnd
  0
BLOCK
  5
EABC2557E039A905
100
AcDbEntity
  8
SIMPLE
  6
CONTINUOUS
 62
     5
100
AcDbBlockBegin
  2
*D18
 70
     1
 10
0.0
 20
0.0
 30
0.0
  1

  0
POINT
  5
EABC2557E039A8FE
100
AcDbEntity
  8
SIMPLE
  6
CONTINUOUS
 62
     0
100
AcDbPoint
 10
21800.0
 20
15900.0
 30
0.0
  0
POINT
  5
EABC2557E039A8FF
100
AcDbEntity
  8
SIMPLE
  6
CONTINUOUS
 62
     0
100
AcDbPoint
 10
21000.0
 20
15900.0
 30
0.0
  0
LINE
  5
EABC2557E039A8F9
100
AcDbEntity
  8
SIMPLE
  6
CONTINUOUS
 62
     0
100
AcDbLine
 10
21800.0
 20
15950.0
 30
0.0
 11
21800.0
 21
20250.0
 31
0.0
  0
LINE
  5
EABC2557E039A8FA
100
AcDbEntity
  8
SIMPLE
  6
CONTINUOUS
 62
     0
100
AcDbLine
 10
21000.0
 20
15950.0
 30
0.0
 11
21000.0
 21
20250.0
 31
0.0
  0
TEXT
  5
EABC2557E039A900
100
AcDbEntity
  8
SIMPLE
  6
CONTINUOUS
 62
     0
100
AcDbText
 10
21057.142857
 20
20150.0
 30
0.0
 40
100.0
  1
800.0000
  7
SIMPLEX
 72
     1
 11
21400.0
 21
20150.0
 31
0.0
100
AcDbText
  0
SOLID
  5
EABC2557E039A8FB
100
AcDbEntity
  8
SIMPLE
  6
CONTINUOUS
 62
     0
100
AcDbTrace
 10
21700.0
 20
20216.666667
 30
0.0
 11
21700.0
 21
20183.333333
 31
0.0
 12
21800.0
 22
20200.0
 32
0.0
 13
21800.0
 23
20200.0
 33
0.0
  0
SOLID
  5
EABC2557E039A8FC
100
AcDbEntity
  8
SIMPLE
  6
CONTINUOUS
 62
     0
100
AcDbTrace
 10
21100.0
 20
20183.333333
 30
0.0
 11
21100.0
 21
20216.666667
 31
0.0
 12
21000.0
 22
20200.0
 32
0.0
 13
21000.0
 23
20200.0
 33
0.0
  0
LINE
  5
EABC2557E039A901
100
AcDbEntity
  8
SIMPLE
  6
CONTINUOUS
 62
     0
100
AcDbLine
 10
21700.0
 20
20200.0
 30
0.0
 11
21100.0
 21
20200.0
 31
0.0
  0
ENDBLK
  5
EABC2557E039A907
100
AcDbEntity
  8
SIMPLE
  6
CONTINUOUS
 62
     5
100
AcDbBlockEnd
  0
BLOCK
  5
EABC2557E039A915
100
AcDbEntity
  8
SIMPLE
  6
CONTINUOUS
 62
     5
100
AcDbBlockBegin
  2
*D19
 70
     1
 10
0.0
 20
0.0
 30
0.0
  1

  0
POINT
  5
EABC2557E039A90E
100
AcDbEntity
  8
SIMPLE
  6
CONTINUOUS
 62
     0
100
AcDbPoint
 10
15900.0
 20
15500.0
 30
0.0
  0
POINT
  5
EABC2557E039A90F
100
AcDbEntity
  8
SIMPLE
  6
CONTINUOUS
 62
     0
100
AcDbPoint
 10
14200.0
 20
15500.0
 30
0.0
  0
LINE
  5
EABC2557E039A909
100
AcDbEntity
  8
SIMPLE
  6
CONTINUOUS
 62
     0
100
AcDbLine
 10
15900.0
 20
15550.0
 30
0.0
 11
15900.0
 21
22550.0
 31
0.0
  0
LINE
  5
EABC2557E039A90A
100
AcDbEntity
  8
SIMPLE
  6
CONTINUOUS
 62
     0
100
AcDbLine
 10
14200.0
 20
15550.0
 30
0.0
 11
14200.0
 21
22550.0
 31
0.0
  0
TEXT
  5
EABC2557E039A910
100
AcDbEntity
  8
SIMPLE
  6
CONTINUOUS
 62
     0
100
AcDbText
 10
14669.047619
 20
22450.0
 30
0.0
 40
100.0
  1
1700.0000
  7
SIMPLEX
 72
     1
 11
15050.0
 21
22450.0
 31
0.0
100
AcDbText
  0
SOLID
  5
EABC2557E039A90B
100
AcDbEntity
  8
SIMPLE
  6
CONTINUOUS
 62
     0
100
AcDbTrace
 10
15800.0
 20
22516.666667
 30
0.0
 11
15800.0
 21
22483.333333
 31
0.0
 12
15900.0
 22
22500.0
 32
0.0
 13
15900.0
 23
22500.0
 33
0.0
  0
SOLID
  5
EABC2557E039A90C
100
AcDbEntity
  8
SIMPLE
  6
CONTINUOUS
 62
     0
100
AcDbTrace
 10
14300.0
 20
22483.333333
 30
0.0
 11
14300.0
 21
22516.666667
 31
0.0
 12
14200.0
 22
22500.0
 32
0.0
 13
14200.0
 23
22500.0
 33
0.0
  0
LINE
  5
EABC2557E039A911
100
AcDbEntity
  8
SIMPLE
  6
CONTINUOUS
 62
     0
100
AcDbLine
 10
15800.0
 20
22500.0
 30
0.0
 11
15431.042381
 21
22500.0
 31
0.0
  0
LINE
  5
EABC2557E039A912
100
AcDbEntity
  8
SIMPLE
  6
CONTINUOUS
 62
     0
100
AcDbLine
 10
14668.957619
 20
22500.0
 30
0.0
 11
14300.0
 21
22500.0
 31
0.0
  0
ENDBLK
  5
EABC2557E039A917
100
AcDbEntity
  8
SIMPLE
  6
CONTINUOUS
 62
     5
100
AcDbBlockEnd
  0
BLOCK
  5
EABC2557E039A925
100
AcDbEntity
  8
SIMPLE
  6
CONTINUOUS
 62
     5
100
AcDbBlockBegin
  2
*D20
 70
     1
 10
0.0
 20
0.0
 30
0.0
  1

  0
POINT
  5
EABC2557E039A91E
100
AcDbEntity
  8
SIMPLE
  6
CONTINUOUS
 62
     0
100
AcDbPoint
 10
16000.0
 20
18000.0
 30
0.0
  0
POINT
  5
EABC2557E039A91F
100
AcDbEntity
  8
SIMPLE
  6
CONTINUOUS
 62
     0
100
AcDbPoint
 10
14200.0
 20
18100.0
 30
0.0
  0
LINE
  5
EABC2557E039A919
100
AcDbEntity
  8
SIMPLE
  6
CONTINUOUS
 62
     0
100
AcDbLine
 10
16000.0
 20
18050.0
 30
0.0
 11
16000.0
 21
19550.0
 31
0.0
  0
LINE
  5
EABC2557E039A91A
100
AcDbEntity
  8
SIMPLE
  6
CONTINUOUS
 62
     0
100
AcDbLine
 10
14200.0
 20
18150.0
 30
0.0
 11
14200.0
 21
19550.0
 31
0.0
  0
TEXT
  5
EABC2557E039A920
100
AcDbEntity
  8
SIMPLE
  6
CONTINUOUS
 62
     0
100
AcDbText
 10
14719.047619
 20
19450.0
 30
0.0
 40
100.0
  1
1800.0000
  7
SIMPLEX
 72
     1
 11
15100.0
 21
19450.0
 31
0.0
100
AcDbText
  0
SOLID
  5
EABC2557E039A91B
100
AcDbEntity
  8
SIMPLE
  6
CONTINUOUS
 62
     0
100
AcDbTrace
 10
15900.0
 20
19516.666667
 30
0.0
 11
15900.0
 21
19483.333333
 31
0.0
 12
16000.0
 22
19500.0
 32
0.0
 13
16000.0
 23
19500.0
 33
0.0
  0
SOLID
  5
EABC2557E039A91C
100
AcDbEntity
  8
SIMPLE
  6
CONTINUOUS
 62
     0
100
AcDbTrace
 10
14300.0
 20
19483.333333
 30
0.0
 11
14300.0
 21
19516.666667
 31
0.0
 12
14200.0
 22
19500.0
 32
0.0
 13
14200.0
 23
19500.0
 33
0.0
  0
LINE
  5
EABC2557E039A921
100
AcDbEntity
  8
SIMPLE
  6
CONTINUOUS
 62
     0
100
AcDbLine
 10
15900.0
 20
19500.0
 30
0.0
 11
15481.042381
 21
19500.0
 31
0.0
  0
LINE
  5
EABC2557E039A922
100
AcDbEntity
  8
SIMPLE
  6
CONTINUOUS
 62
     0
100
AcDbLine
 10
14718.957619
 20
19500.0
 30
0.0
 11
14300.0
 21
19500.0
 31
0.0
  0
ENDBLK
  5
EABC2557E039A927
100
AcDbEntity
  8
SIMPLE
  6
CONTINUOUS
 62
     5
100
AcDbBlockEnd
  0
BLOCK
  5
EABC2557E039A935
100
AcDbEntity
  8
SIMPLE
  6
CONTINUOUS
 62
     5
100
AcDbBlockBegin
  2
*D21
 70
     1
 10
0.0
 20
0.0
 30
0.0
  1

  0
POINT
  5
EABC2557E039A92E
100
AcDbEntity
  8
SIMPLE
  6
CONTINUOUS
 62
     0
100
AcDbPoint
 10
18900.0
 20
14500.0
 30
0.0
  0
POINT
  5
EABC2557E039A92F
100
AcDbEntity
  8
SIMPLE
  6
CONTINUOUS
 62
     0
100
AcDbPoint
 10
20700.0
 20
14500.0
 30
0.0
  0
LINE
  5
EABC2557E039A929
100
AcDbEntity
  8
SIMPLE
  6
CONTINUOUS
 62
     0
100
AcDbLine
 10
18900.0
 20
14550.0
 30
0.0
 11
18900.0
 21
15350.0
 31
0.0
  0
LINE
  5
EABC2557E039A92A
100
AcDbEntity
  8
SIMPLE
  6
CONTINUOUS
 62
     0
100
AcDbLine
 10
20700.0
 20
14550.0
 30
0.0
 11
20700.0
 21
15350.0
 31
0.0
  0
TEXT
  5
EABC2557E039A930
100
AcDbEntity
  8
SIMPLE
  6
CONTINUOUS
 62
     0
100
AcDbText
 10
19419.047619
 20
15250.0
 30
0.0
 40
100.0
  1
1800.0000
  7
SIMPLEX
 72
     1
 11
19800.0
 21
15250.0
 31
0.0
100
AcDbText
  0
SOLID
  5
EABC2557E039A92B
100
AcDbEntity
  8
SIMPLE
  6
CONTINUOUS
 62
     0
100
AcDbTrace
 10
19000.0
 20
15283.333333
 30
0.0
 11
19000.0
 21
15316.666667
 31
0.0
 12
18900.0
 22
15300.0
 32
0.0
 13
18900.0
 23
15300.0
 33
0.0
  0
SOLID
  5
EABC2557E039A92C
100
AcDbEntity
  8
SIMPLE
  6
CONTINUOUS
 62
     0
100
AcDbTrace
 10
20600.0
 20
15316.666667
 30
0.0
 11
20600.0
 21
15283.333333
 31
0.0
 12
20700.0
 22
15300.0
 32
0.0
 13
20700.0
 23
15300.0
 33
0.0
  0
LINE
  5
EABC2557E039A931
100
AcDbEntity
  8
SIMPLE
  6
CONTINUOUS
 62
     0
100
AcDbLine
 10
19000.0
 20
15300.0
 30
0.0
 11
19418.957619
 21
15300.0
 31
0.0
  0
LINE
  5
EABC2557E039A932
100
AcDbEntity
  8
SIMPLE
  6
CONTINUOUS
 62
     0
100
AcDbLine
 10
20181.042381
 20
15300.0
 30
0.0
 11
20600.0
 21
15300.0
 31
0.0
  0
ENDBLK
  5
EABC2557E039A937
100
AcDbEntity
  8
SIMPLE
  6
CONTINUOUS
 62
     5
100
AcDbBlockEnd
  0
BLOCK
  5
EABC2557E039A945
100
AcDbEntity
  8
SIMPLE
  6
CONTINUOUS
 62
     5
100
AcDbBlockBegin
  2
*D22
 70
     1
 10
0.0
 20
0.0
 30
0.0
  1

  0
POINT
  5
EABC2557E039A93E
100
AcDbEntity
  8
SIMPLE
  6
CONTINUOUS
 62
     0
100
AcDbPoint
 10
20700.0
 20
13700.0
 30
0.0
  0
POINT
  5
EABC2557E039A93F
100
AcDbEntity
  8
SIMPLE
  6
CONTINUOUS
 62
     0
100
AcDbPoint
 10
20700.0
 20
14500.0
 30
0.0
  0
LINE
  5
EABC2557E039A939
100
AcDbEntity
  8
SIMPLE
  6
CONTINUOUS
 62
     0
100
AcDbLine
 10
20650.0
 20
13700.0
 30
0.0
 11
20150.0
 21
13700.0
 31
0.0
  0
LINE
  5
EABC2557E039A93A
100
AcDbEntity
  8
SIMPLE
  6
CONTINUOUS
 62
     0
100
AcDbLine
 10
20650.0
 20
14500.0
 30
0.0
 11
20150.0
 21
14500.0
 31
0.0
  0
TEXT
  5
EABC2557E039A940
100
AcDbEntity
  8
SIMPLE
  6
CONTINUOUS
 62
     0
100
AcDbText
 10
19857.142857
 20
14050.0
 30
0.0
 40
100.0
  1
800.0000
  7
SIMPLEX
 72
     1
 11
20200.0
 21
14050.0
 31
0.0
100
AcDbText
  0
SOLID
  5
EABC2557E039A93B
100
AcDbEntity
  8
SIMPLE
  6
CONTINUOUS
 62
     0
100
AcDbTrace
 10
20216.666667
 20
13800.0
 30
0.0
 11
20183.333333
 21
13800.0
 31
0.0
 12
20200.0
 22
13700.0
 32
0.0
 13
20200.0
 23
13700.0
 33
0.0
  0
SOLID
  5
EABC2557E039A93C
100
AcDbEntity
  8
SIMPLE
  6
CONTINUOUS
 62
     0
100
AcDbTrace
 10
20183.333333
 20
14400.0
 30
0.0
 11
20216.666667
 21
14400.0
 31
0.0
 12
20200.0
 22
14500.0
 32
0.0
 13
20200.0
 23
14500.0
 33
0.0
  0
LINE
  5
EABC2557E039A941
100
AcDbEntity
  8
SIMPLE
  6
CONTINUOUS
 62
     0
100
AcDbLine
 10
20200.0
 20
13800.0
 30
0.0
 11
20200.0
 21
14016.576667
 31
0.0
  0
LINE
  5
EABC2557E039A942
100
AcDbEntity
  8
SIMPLE
  6
CONTINUOUS
 62
     0
100
AcDbLine
 10
20200.0
 20
14150.09
 30
0.0
 11
20200.0
 21
14400.0
 31
0.0
  0
ENDBLK
  5
EABC2557E039A947
100
AcDbEntity
  8
SIMPLE
  6
CONTINUOUS
 62
     5
100
AcDbBlockEnd
  0
BLOCK
  5
EABC2557E039A955
100
AcDbEntity
  8
SIMPLE
  6
CONTINUOUS
 62
     5
100
AcDbBlockBegin
  2
*D23
 70
     1
 10
0.0
 20
0.0
 30
0.0
  1

  0
POINT
  5
EABC2557E039A94E
100
AcDbEntity
  8
SIMPLE
  6
CONTINUOUS
 62
     0
100
AcDbPoint
 10
18600.0
 20
14000.0
 30
0.0
  0
POINT
  5
EABC2557E039A94F
100
AcDbEntity
  8
SIMPLE
  6
CONTINUOUS
 62
     0
100
AcDbPoint
 10
18200.0
 20
14000.0
 30
0.0
  0
LINE
  5
EABC2557E039A949
100
AcDbEntity
  8
SIMPLE
  6
CONTINUOUS
 62
     0
100
AcDbLine
 10
18600.0
 20
13950.0
 30
0.0
 11
18600.0
 21
13550.0
 31
0.0
  0
LINE
  5
EABC2557E039A94A
100
AcDbEntity
  8
SIMPLE
  6
CONTINUOUS
 62
     0
100
AcDbLine
 10
18200.0
 20
13950.0
 30
0.0
 11
18200.0
 21
13550.0
 31
0.0
  0
TEXT
  5
EABC2557E039A950
100
AcDbEntity
  8
SIMPLE
  6
CONTINUOUS
 62
     0
100
AcDbText
 10
17314.105714
 20
13550.0
 30
0.0
 40
100.0
  1
400.0000
  7
SIMPLEX
 72
     1
 11
17656.962857
 21
13550.0
 31
0.0
100
AcDbText
  0
SOLID
  5
EABC2557E039A94B
100
AcDbEntity
  8
SIMPLE
  6
CONTINUOUS
 62
     0
100
AcDbTrace
 10
18700.0
 20
13583.333333
 30
0.0
 11
18700.0
 21
13616.666667
 31
0.0
 12
18600.0
 22
13600.0
 32
0.0
 13
18600.0
 23
13600.0
 33
0.0
  0
SOLID
  5
EABC2557E039A94C
100
AcDbEntity
  8
SIMPLE
  6
CONTINUOUS
 62
     0
100
AcDbTrace
 10
18100.0
 20
13616.666667
 30
0.0
 11
18100.0
 21
13583.333333
 31
0.0
 12
18200.0
 22
13600.0
 32
0.0
 13
18200.0
 23
13600.0
 33
0.0
  0
LINE
  5
EABC2557E039A951
100
AcDbEntity
  8
SIMPLE
  6
CONTINUOUS
 62
     0
100
AcDbLine
 10
18700.0
 20
13600.0
 30
0.0
 11
18800.0
 21
13600.0
 31
0.0
  0
LINE
  5
EABC2557E039A952
100
AcDbEntity
  8
SIMPLE
  6
CONTINUOUS
 62
     0
100
AcDbLine
 10
18100.0
 20
13600.0
 30
0.0
 11
18000.0
 21
13600.0
 31
0.0
  0
ENDBLK
  5
EABC2557E039A957
100
AcDbEntity
  8
SIMPLE
  6
CONTINUOUS
 62
     5
100
AcDbBlockEnd
  0
BLOCK
  5
EABC2557E039A973
100
AcDbEntity
  8
SIMPLE
  6
CONTINUOUS
 62
     5
100
AcDbBlockBegin
  2
*D24
 70
     1
 10
0.0
 20
0.0
 30
0.0
  1

  0
POINT
  5
EABC2557E039A96C
100
AcDbEntity
  8
SIMPLE
  6
CONTINUOUS
 62
     0
100
AcDbPoint
 10
22000.0
 20
18000.0
 30
0.0
  0
POINT
  5
EABC2557E039A96D
100
AcDbEntity
  8
SIMPLE
  6
CONTINUOUS
 62
     0
100
AcDbPoint
 10
21900.0
 20
16200.0
 30
0.0
  0
LINE
  5
EABC2557E039A967
100
AcDbEntity
  8
SIMPLE
  6
CONTINUOUS
 62
     0
100
AcDbLine
 10
22050.0
 20
18000.0
 30
0.0
 11
25750.0
 21
18000.0
 31
0.0
  0
LINE
  5
EABC2557E039A968
100
AcDbEntity
  8
SIMPLE
  6
CONTINUOUS
 62
     0
100
AcDbLine
 10
21950.0
 20
16200.0
 30
0.0
 11
25750.0
 21
16200.0
 31
0.0
  0
TEXT
  5
EABC2557E039A96E
100
AcDbEntity
  8
SIMPLE
  6
CONTINUOUS
 62
     0
100
AcDbText
 10
25319.047619
 20
17050.0
 30
0.0
 40
100.0
  1
1800.0000
  7
SIMPLEX
 72
     1
 11
25700.0
 21
17050.0
 31
0.0
100
AcDbText
  0
SOLID
  5
EABC2557E039A969
100
AcDbEntity
  8
SIMPLE
  6
CONTINUOUS
 62
     0
100
AcDbTrace
 10
25683.333333
 20
17900.0
 30
0.0
 11
25716.666667
 21
17900.0
 31
0.0
 12
25700.0
 22
18000.0
 32
0.0
 13
25700.0
 23
18000.0
 33
0.0
  0
SOLID
  5
EABC2557E039A96A
100
AcDbEntity
  8
SIMPLE
  6
CONTINUOUS
 62
     0
100
AcDbTrace
 10
25716.666667
 20
16300.0
 30
0.0
 11
25683.333333
 21
16300.0
 31
0.0
 12
25700.0
 22
16200.0
 32
0.0
 13
25700.0
 23
16200.0
 33
0.0
  0
LINE
  5
EABC2557E039A96F
100
AcDbEntity
  8
SIMPLE
  6
CONTINUOUS
 62
     0
100
AcDbLine
 10
25700.0
 20
17900.0
 30
0.0
 11
25700.0
 21
17150.09
 31
0.0
  0
LINE
  5
EABC2557E039A970
100
AcDbEntity
  8
SIMPLE
  6
CONTINUOUS
 62
     0
100
AcDbLine
 10
25700.0
 20
17016.576667
 30
0.0
 11
25700.0
 21
16300.0
 31
0.0
  0
ENDBLK
  5
EABC2557E039A975
100
AcDbEntity
  8
SIMPLE
  6
CONTINUOUS
 62
     5
100
AcDbBlockEnd
  0
BLOCK
  5
EABC2557E039A983
100
AcDbEntity
  8
SIMPLE
  6
CONTINUOUS
 62
     5
100
AcDbBlockBegin
  2
*D25
 70
     1
 10
0.0
 20
0.0
 30
0.0
  1

  0
POINT
  5
EABC2557E039A97C
100
AcDbEntity
  8
SIMPLE
  6
CONTINUOUS
 62
     0
100
AcDbPoint
 10
26500.0
 20
17000.0
 30
0.0
  0
POINT
  5
EABC2557E039A97D
100
AcDbEntity
  8
SIMPLE
  6
CONTINUOUS
 62
     0
100
AcDbPoint
 10
26500.0
 20
1000.0
 30
0.0
  0
LINE
  5
EABC2557E039A977
100
AcDbEntity
  8
SIMPLE
  6
CONTINUOUS
 62
     0
100
AcDbLine
 10
26550.0
 20
17000.0
 30
0.0
 11
28550.0
 21
17000.0
 31
0.0
  0
LINE
  5
EABC2557E039A978
100
AcDbEntity
  8
SIMPLE
  6
CONTINUOUS
 62
     0
100
AcDbLine
 10
26550.0
 20
1000.0
 30
0.0
 11
28550.0
 21
1000.0
 31
0.0
  0
TEXT
  5
EABC2557E039A97E
100
AcDbEntity
  8
SIMPLE
  6
CONTINUOUS
 62
     0
100
AcDbText
 10
28071.428571
 20
8950.0
 30
0.0
 40
100.0
  1
16000.0000
  7
SIMPLEX
 72
     1
 11
28500.0
 21
8950.0
 31
0.0
100
AcDbText
  0
SOLID
  5
EABC2557E039A979
100
AcDbEntity
  8
SIMPLE
  6
CONTINUOUS
 62
     0
100
AcDbTrace
 10
28483.333333
 20
16900.0
 30
0.0
 11
28516.666667
 21
16900.0
 31
0.0
 12
28500.0
 22
17000.0
 32
0.0
 13
28500.0
 23
17000.0
 33
0.0
  0
SOLID
  5
EABC2557E039A97A
100
AcDbEntity
  8
SIMPLE
  6
CONTINUOUS
 62
     0
100
AcDbTrace
 10
28516.666667
 20
1100.0
 30
0.0
 11
28483.333333
 21
1100.0
 31
0.0
 12
28500.0
 22
1000.0
 32
0.0
 13
28500.0
 23
1000.0
 33
0.0
  0
LINE
  5
EABC2557E039A97F
100
AcDbEntity
  8
SIMPLE
  6
CONTINUOUS
 62
     0
100
AcDbLine
 10
28500.0
 20
16900.0
 30
0.0
 11
28500.0
 21
9050.09
 31
0.0
  0
LINE
  5
EABC2557E039A980
100
AcDbEntity
  8
SIMPLE
  6
CONTINUOUS
 62
     0
100
AcDbLine
 10
28500.0
 20
8916.576667
 30
0.0
 11
28500.0
 21
1100.0
 31
0.0
  0
ENDBLK
  5
EABC2557E039A985
100
AcDbEntity
  8
SIMPLE
  6
CONTINUOUS
 62
     5
100
AcDbBlockEnd
  0
BLOCK
  5
EABC2557E039A993
100
AcDbEntity
  8
SIMPLE
  6
CONTINUOUS
 62
     5
100
AcDbBlockBegin
  2
*D26
 70
     1
 10
0.0
 20
0.0
 30
0.0
  1

  0
POINT
  5
EABC2557E039A98C
100
AcDbEntity
  8
SIMPLE
  6
CONTINUOUS
 62
     0
100
AcDbPoint
 10
24700.0
 20
17100.0
 30
0.0
  0
POINT
  5
EABC2557E039A98D
100
AcDbEntity
  8
SIMPLE
  6
CONTINUOUS
 62
     0
100
AcDbPoint
 10
24700.0
 20
1100.0
 30
0.0
  0
LINE
  5
EABC2557E039A987
100
AcDbEntity
  8
SIMPLE
  6
CONTINUOUS
 62
     0
100
AcDbLine
 10
24750.0
 20
17100.0
 30
0.0
 11
27050.0
 21
17100.0
 31
0.0
  0
LINE
  5
EABC2557E039A988
100
AcDbEntity
  8
SIMPLE
  6
CONTINUOUS
 62
     0
100
AcDbLine
 10
24750.0
 20
1100.0
 30
0.0
 11
27050.0
 21
1100.0
 31
0.0
  0
TEXT
  5
EABC2557E039A98E
100
AcDbEntity
  8
SIMPLE
  6
CONTINUOUS
 62
     0
100
AcDbText
 10
26571.428571
 20
9050.0
 30
0.0
 40
100.0
  1
16000.0000
  7
SIMPLEX
 72
     1
 11
27000.0
 21
9050.0
 31
0.0
100
AcDbText
  0
SOLID
  5
EABC2557E039A989
100
AcDbEntity
  8
SIMPLE
  6
CONTINUOUS
 62
     0
100
AcDbTrace
 10
26983.333333
 20
17000.0
 30
0.0
 11
27016.666667
 21
17000.0
 31
0.0
 12
27000.0
 22
17100.0
 32
0.0
 13
27000.0
 23
17100.0
 33
0.0
  0
SOLID
  5
EABC2557E039A98A
100
AcDbEntity
  8
SIMPLE
  6
CONTINUOUS
 62
     0
100
AcDbTrace
 10
27016.666667
 20
1200.0
 30
0.0
 11
26983.333333
 21
1200.0
 31
0.0
 12
27000.0
 22
1100.0
 32
0.0
 13
27000.0
 23
1100.0
 33
0.0
  0
LINE
  5
EABC2557E039A98F
100
AcDbEntity
  8
SIMPLE
  6
CONTINUOUS
 62
     0
100
AcDbLine
 10
27000.0
 20
17000.0
 30
0.0
 11
27000.0
 21
9150.09
 31
0.0
  0
LINE
  5
EABC2557E039A990
100
AcDbEntity
  8
SIMPLE
  6
CONTINUOUS
 62
     0
100
AcDbLine
 10
27000.0
 20
9016.576667
 30
0.0
 11
27000.0
 21
1200.0
 31
0.0
  0
ENDBLK
  5
EABC2557E039A995
100
AcDbEntity
  8
SIMPLE
  6
CONTINUOUS
 62
     5
100
AcDbBlockEnd
  0
BLOCK
  5
EABC2557E58EBC77
100
AcDbEntity
  8
SIMPLE
  6
CONTINUOUS
100
AcDbBlockBegin
  2
*D27
 70
     1
 10
0.0
 20
0.0
 30
0.0
  1

  0
POINT
  5
EABC2557E58EBC70
100
AcDbEntity
  8
SIMPLE
  6
CONTINUOUS
 62
     0
100
AcDbPoint
 10
15099.0
 20
19600.0
 30
0.0
  0
POINT
  5
EABC2557E58EBC71
100
AcDbEntity
  8
SIMPLE
  6
CONTINUOUS
 62
     0
100
AcDbPoint
 10
23099.0
 20
19600.0
 30
0.0
  0
LINE
  5
EABC2557E58EBC6B
100
AcDbEntity
  8
SIMPLE
  6
CONTINUOUS
 62
     0
100
AcDbLine
 10
15099.0
 20
19650.0
 30
0.0
 11
15099.0
 21
20850.0
 31
0.0
  0
LINE
  5
EABC2557E58EBC6C
100
AcDbEntity
  8
SIMPLE
  6
CONTINUOUS
 62
     0
100
AcDbLine
 10
23099.0
 20
19650.0
 30
0.0
 11
23099.0
 21
20850.0
 31
0.0
  0
TEXT
  5
EABC2557E58EBC72
100
AcDbEntity
  8
SIMPLE
  6
CONTINUOUS
 62
     0
100
AcDbText
 10
18708.52381
 20
20750.0
 30
0.0
 40
100.0
  1
8000.0000
  7
SIMPLEX
 72
     1
 11
19099.0
 21
20750.0
 31
0.0
100
AcDbText
  0
SOLID
  5
EABC2557E58EBC6D
100
AcDbEntity
  8
SIMPLE
  6
CONTINUOUS
 62
     0
100
AcDbTrace
 10
15199.0
 20
20783.333333
 30
0.0
 11
15199.0
 21
20816.666667
 31
0.0
 12
15099.0
 22
20800.0
 32
0.0
 13
15099.0
 23
20800.0
 33
0.0
  0
SOLID
  5
EABC2557E58EBC6E
100
AcDbEntity
  8
SIMPLE
  6
CONTINUOUS
 62
     0
100
AcDbTrace
 10
22999.0
 20
20816.666667
 30
0.0
 11
22999.0
 21
20783.333333
 31
0.0
 12
23099.0
 22
20800.0
 32
0.0
 13
23099.0
 23
20800.0
 33
0.0
  0
LINE
  5
EABC2557E58EBC73
100
AcDbEntity
  8
SIMPLE
  6
CONTINUOUS
 62
     0
100
AcDbLine
 10
15199.0
 20
20800.0
 30
0.0
 11
18708.43381
 21
20800.0
 31
0.0
  0
LINE
  5
EABC2557E58EBC74
100
AcDbEntity
  8
SIMPLE
  6
CONTINUOUS
 62
     0
100
AcDbLine
 10
19489.56619
 20
20800.0
 30
0.0
 11
22999.0
 21
20800.0
 31
0.0
  0
ENDBLK
  5
EABC2557E58EBC79
100
AcDbEntity
  8
SIMPLE
  6
CONTINUOUS
100
AcDbBlockEnd
  0
BLOCK
  5
EABC2557E58EBC86
100
AcDbEntity
  8
SIMPLE
  6
CONTINUOUS
100
AcDbBlockBegin
  2
*D28
 70
     1
 10
0.0
 20
0.0
 30
0.0
  1

  0
POINT
  5
EABC2557E58EBC7F
100
AcDbEntity
  8
SIMPLE
  6
CONTINUOUS
 62
     0
100
AcDbPoint
 10
15100.0
 20
18800.0
 30
0.0
  0
POINT
  5
EABC2557E58EBC80
100
AcDbEntity
  8
SIMPLE
  6
CONTINUOUS
 62
     0
100
AcDbPoint
 10
16000.0
 20
18000.0
 30
0.0
  0
LINE
  5
EABC2557E58EBC7A
100
AcDbEntity
  8
SIMPLE
  6
CONTINUOUS
 62
     0
100
AcDbLine
 10
15100.0
 20
18850.0
 30
0.0
 11
15100.0
 21
20250.0
 31
0.0
  0
LINE
  5
EABC2557E58EBC7B
100
AcDbEntity
  8
SIMPLE
  6
CONTINUOUS
 62
     0
100
AcDbLine
 10
16000.0
 20
18050.0
 30
0.0
 11
16000.0
 21
20250.0
 31
0.0
  0
TEXT
  5
EABC2557E58EBC81
100
AcDbEntity
  8
SIMPLE
  6
CONTINUOUS
 62
     0
100
AcDbText
 10
15207.142857
 20
20150.0
 30
0.0
 40
100.0
  1
900.0000
  7
SIMPLEX
 72
     1
 11
15550.0
 21
20150.0
 31
0.0
100
AcDbText
  0
SOLID
  5
EABC2557E58EBC7C
100
AcDbEntity
  8
SIMPLE
  6
CONTINUOUS
 62
     0
100
AcDbTrace
 10
15200.0
 20
20183.333333
 30
0.0
 11
15200.0
 21
20216.666667
 31
0.0
 12
15100.0
 22
20200.0
 32
0.0
 13
15100.0
 23
20200.0
 33
0.0
  0
SOLID
  5
EABC2557E58EBC7D
100
AcDbEntity
  8
SIMPLE
  6
CONTINUOUS
 62
     0
100
AcDbTrace
 10
15900.0
 20
20216.666667
 30
0.0
 11
15900.0
 21
20183.333333
 31
0.0
 12
16000.0
 22
20200.0
 32
0.0
 13
16000.0
 23
20200.0
 33
0.0
  0
LINE
  5
EABC2557E58EBC82
100
AcDbEntity
  8
SIMPLE
  6
CONTINUOUS
 62
     0
100
AcDbLine
 10
15200.0
 20
20200.0
 30
0.0
 11
15207.052857
 21
20200.0
 31
0.0
  0
LINE
  5
EABC2557E58EBC83
100
AcDbEntity
  8
SIMPLE
  6
CONTINUOUS
 62
     0
100
AcDbLine
 10
15892.947143
 20
20200.0
 30
0.0
 11
15900.0
 21
20200.0
 31
0.0
  0
ENDBLK
  5
EABC2557E58EBC88
100
AcDbEntity
  8
SIMPLE
  6
CONTINUOUS
100
AcDbBlockEnd
  0
BLOCK
  5
EABC2557E58EBC95
100
AcDbEntity
  8
SIMPLE
  6
CONTINUOUS
100
AcDbBlockBegin
  2
*D29
 70
     1
 10
0.0
 20
0.0
 30
0.0
  1

  0
POINT
  5
EABC2557E58EBC8E
100
AcDbEntity
  8
SIMPLE
  6
CONTINUOUS
 62
     0
100
AcDbPoint
 10
16200.0
 20
15900.0
 30
0.0
  0
POINT
  5
EABC2557E58EBC8F
100
AcDbEntity
  8
SIMPLE
  6
CONTINUOUS
 62
     0
100
AcDbPoint
 10
17400.0
 20
15900.0
 30
0.0
  0
LINE
  5
EABC2557E58EBC89
100
AcDbEntity
  8
SIMPLE
  6
CONTINUOUS
 62
     0
100
AcDbLine
 10
16200.0
 20
15950.0
 30
0.0
 11
16200.0
 21
20250.0
 31
0.0
  0
LINE
  5
EABC2557E58EBC8A
100
AcDbEntity
  8
SIMPLE
  6
CONTINUOUS
 62
     0
100
AcDbLine
 10
17400.0
 20
15950.0
 30
0.0
 11
17400.0
 21
20250.0
 31
0.0
  0
TEXT
  5
EABC2557E58EBC90
100
AcDbEntity
  8
SIMPLE
  6
CONTINUOUS
 62
     0
100
AcDbText
 10
16419.047619
 20
20150.0
 30
0.0
 40
100.0
  1
1200.0000
  7
SIMPLEX
 72
     1
 11
16800.0
 21
20150.0
 31
0.0
100
AcDbText
  0
SOLID
  5
EABC2557E58EBC8B
100
AcDbEntity
  8
SIMPLE
  6
CONTINUOUS
 62
     0
100
AcDbTrace
 10
16300.0
 20
20183.333333
 30
0.0
 11
16300.0
 21
20216.666667
 31
0.0
 12
16200.0
 22
20200.0
 32
0.0
 13
16200.0
 23
20200.0
 33
0.0
  0
SOLID
  5
EABC2557E58EBC8C
100
AcDbEntity
  8
SIMPLE
  6
CONTINUOUS
 62
     0
100
AcDbTrace
 10
17300.0
 20
20216.666667
 30
0.0
 11
17300.0
 21
20183.333333
 31
0.0
 12
17400.0
 22
20200.0
 32
0.0
 13
17400.0
 23
20200.0
 33
0.0
  0
LINE
  5
EABC2557E58EBC91
100
AcDbEntity
  8
SIMPLE
  6
CONTINUOUS
 62
     0
100
AcDbLine
 10
16300.0
 20
20200.0
 30
0.0
 11
16418.957619
 21
20200.0
 31
0.0
  0
LINE
  5
EABC2557E58EBC92
100
AcDbEntity
  8
SIMPLE
  6
CONTINUOUS
 62
     0
100
AcDbLine
 10
17181.042381
 20
20200.0
 30
0.0
 11
17300.0
 21
20200.0
 31
0.0
  0
ENDBLK
  5
EABC2557E58EBC97
100
AcDbEntity
  8
SIMPLE
  6
CONTINUOUS
100
AcDbBlockEnd
  0
BLOCK
  5
EABC2557E58EBCA4
100
AcDbEntity
  8
SIMPLE
  6
CONTINUOUS
100
AcDbBlockBegin
  2
*D30
 70
     1
 10
0.0
 20
0.0
 30
0.0
  1

  0
POINT
  5
EABC2557E58EBC9D
100
AcDbEntity
  8
SIMPLE
  6
CONTINUOUS
 62
     0
100
AcDbPoint
 10
17600.0
 20
14000.0
 30
0.0
  0
POINT
  5
EABC2557E58EBC9E
100
AcDbEntity
  8
SIMPLE
  6
CONTINUOUS
 62
     0
100
AcDbPoint
 10
18000.0
 20
14000.0
 30
0.0
  0
LINE
  5
EABC2557E58EBC98
100
AcDbEntity
  8
SIMPLE
  6
CONTINUOUS
 62
     0
100
AcDbLine
 10
17600.0
 20
14050.0
 30
0.0
 11
17600.0
 21
20250.0
 31
0.0
  0
LINE
  5
EABC2557E58EBC99
100
AcDbEntity
  8
SIMPLE
  6
CONTINUOUS
 62
     0
100
AcDbLine
 10
18000.0
 20
14050.0
 30
0.0
 11
18000.0
 21
20250.0
 31
0.0
  0
TEXT
  5
EABC2557E58EBC9F
100
AcDbEntity
  8
SIMPLE
  6
CONTINUOUS
 62
     0
100
AcDbText
 10
18200.18
 20
20150.0
 30
0.0
 40
100.0
  1
400.0000
  7
SIMPLEX
 72
     1
 11
18543.037143
 21
20150.0
 31
0.0
100
AcDbText
  0
SOLID
  5
EABC2557E58EBC9A
100
AcDbEntity
  8
SIMPLE
  6
CONTINUOUS
 62
     0
100
AcDbTrace
 10
17500.0
 20
20216.666667
 30
0.0
 11
17500.0
 21
20183.333333
 31
0.0
 12
17600.0
 22
20200.0
 32
0.0
 13
17600.0
 23
20200.0
 33
0.0
  0
SOLID
  5
EABC2557E58EBC9B
100
AcDbEntity
  8
SIMPLE
  6
CONTINUOUS
 62
     0
100
AcDbTrace
 10
18100.0
 20
20183.333333
 30
0.0
 11
18100.0
 21
20216.666667
 31
0.0
 12
18000.0
 22
20200.0
 32
0.0
 13
18000.0
 23
20200.0
 33
0.0
  0
LINE
  5
EABC2557E58EBCA0
100
AcDbEntity
  8
SIMPLE
  6
CONTINUOUS
 62
     0
100
AcDbLine
 10
17500.0
 20
20200.0
 30
0.0
 11
17400.0
 21
20200.0
 31
0.0
  0
LINE
  5
EABC2557E58EBCA1
100
AcDbEntity
  8
SIMPLE
  6
CONTINUOUS
 62
     0
100
AcDbLine
 10
18100.0
 20
20200.0
 30
0.0
 11
18200.0
 21
20200.0
 31
0.0
  0
ENDBLK
  5
EABC2557E58EBCA6
100
AcDbEntity
  8
SIMPLE
  6
CONTINUOUS
100
AcDbBlockEnd
  0
BLOCK
  5
EABC2557E58EBCB3
100
AcDbEntity
  8
SIMPLE
  6
CONTINUOUS
100
AcDbBlockBegin
  2
*D31
 70
     1
 10
0.0
 20
0.0
 30
0.0
  1

  0
POINT
  5
EABC2557E58EBCAC
100
AcDbEntity
  8
SIMPLE
  6
CONTINUOUS
 62
     0
100
AcDbPoint
 10
21800.0
 20
15900.0
 30
0.0
  0
POINT
  5
EABC2557E58EBCAD
100
AcDbEntity
  8
SIMPLE
  6
CONTINUOUS
 62
     0
100
AcDbPoint
 10
21000.0
 20
15900.0
 30
0.0
  0
LINE
  5
EABC2557E58EBCA7
100
AcDbEntity
  8
SIMPLE
  6
CONTINUOUS
 62
     0
100
AcDbLine
 10
21800.0
 20
15950.0
 30
0.0
 11
21800.0
 21
20250.0
 31
0.0
  0
LINE
  5
EABC2557E58EBCA8
100
AcDbEntity
  8
SIMPLE
  6
CONTINUOUS
 62
     0
100
AcDbLine
 10
21000.0
 20
15950.0
 30
0.0
 11
21000.0
 21
20250.0
 31
0.0
  0
TEXT
  5
EABC2557E58EBCAE
100
AcDbEntity
  8
SIMPLE
  6
CONTINUOUS
 62
     0
100
AcDbText
 10
21057.142857
 20
20150.0
 30
0.0
 40
100.0
  1
800.0000
  7
SIMPLEX
 72
     1
 11
21400.0
 21
20150.0
 31
0.0
100
AcDbText
  0
SOLID
  5
EABC2557E58EBCA9
100
AcDbEntity
  8
SIMPLE
  6
CONTINUOUS
 62
     0
100
AcDbTrace
 10
21700.0
 20
20216.666667
 30
0.0
 11
21700.0
 21
20183.333333
 31
0.0
 12
21800.0
 22
20200.0
 32
0.0
 13
21800.0
 23
20200.0
 33
0.0
  0
SOLID
  5
EABC2557E58EBCAA
100
AcDbEntity
  8
SIMPLE
  6
CONTINUOUS
 62
     0
100
AcDbTrace
 10
21100.0
 20
20183.333333
 30
0.0
 11
21100.0
 21
20216.666667
 31
0.0
 12
21000.0
 22
20200.0
 32
0.0
 13
21000.0
 23
20200.0
 33
0.0
  0
LINE
  5
EABC2557E58EBCAF
100
AcDbEntity
  8
SIMPLE
  6
CONTINUOUS
 62
     0
100
AcDbLine
 10
21700.0
 20
20200.0
 30
0.0
 11
21100.0
 21
20200.0
 31
0.0
  0
ENDBLK
  5
EABC2557E58EBCB5
100
AcDbEntity
  8
SIMPLE
  6
CONTINUOUS
100
AcDbBlockEnd
  0
BLOCK
  5
EABC2557E58EBCC2
100
AcDbEntity
  8
SIMPLE
  6
CONTINUOUS
100
AcDbBlockBegin
  2
*D32
 70
     1
 10
0.0
 20
0.0
 30
0.0
  1

  0
POINT
  5
EABC2557E58EBCBB
100
AcDbEntity
  8
SIMPLE
  6
CONTINUOUS
 62
     0
100
AcDbPoint
 10
16000.0
 20
18000.0
 30
0.0
  0
POINT
  5
EABC2557E58EBCBC
100
AcDbEntity
  8
SIMPLE
  6
CONTINUOUS
 62
     0
100
AcDbPoint
 10
14200.0
 20
18100.0
 30
0.0
  0
LINE
  5
EABC2557E58EBCB6
100
AcDbEntity
  8
SIMPLE
  6
CONTINUOUS
 62
     0
100
AcDbLine
 10
16000.0
 20
18050.0
 30
0.0
 11
16000.0
 21
19550.0
 31
0.0
  0
LINE
  5
EABC2557E58EBCB7
100
AcDbEntity
  8
SIMPLE
  6
CONTINUOUS
 62
     0
100
AcDbLine
 10
14200.0
 20
18150.0
 30
0.0
 11
14200.0
 21
19550.0
 31
0.0
  0
TEXT
  5
EABC2557E58EBCBD
100
AcDbEntity
  8
SIMPLE
  6
CONTINUOUS
 62
     0
100
AcDbText
 10
14719.047619
 20
19450.0
 30
0.0
 40
100.0
  1
1800.0000
  7
SIMPLEX
 72
     1
 11
15100.0
 21
19450.0
 31
0.0
100
AcDbText
  0
SOLID
  5
EABC2557E58EBCB8
100
AcDbEntity
  8
SIMPLE
  6
CONTINUOUS
 62
     0
100
AcDbTrace
 10
15900.0
 20
19516.666667
 30
0.0
 11
15900.0
 21
19483.333333
 31
0.0
 12
16000.0
 22
19500.0
 32
0.0
 13
16000.0
 23
19500.0
 33
0.0
  0
SOLID
  5
EABC2557E58EBCB9
100
AcDbEntity
  8
SIMPLE
  6
CONTINUOUS
 62
     0
100
AcDbTrace
 10
14300.0
 20
19483.333333
 30
0.0
 11
14300.0
 21
19516.666667
 31
0.0
 12
14200.0
 22
19500.0
 32
0.0
 13
14200.0
 23
19500.0
 33
0.0
  0
LINE
  5
EABC2557E58EBCBE
100
AcDbEntity
  8
SIMPLE
  6
CONTINUOUS
 62
     0
100
AcDbLine
 10
15900.0
 20
19500.0
 30
0.0
 11
15481.042381
 21
19500.0
 31
0.0
  0
LINE
  5
EABC2557E58EBCBF
100
AcDbEntity
  8
SIMPLE
  6
CONTINUOUS
 62
     0
100
AcDbLine
 10
14718.957619
 20
19500.0
 30
0.0
 11
14300.0
 21
19500.0
 31
0.0
  0
ENDBLK
  5
EABC2557E58EBCC4
100
AcDbEntity
  8
SIMPLE
  6
CONTINUOUS
100
AcDbBlockEnd
  0
BLOCK
  5
EABC2557E58EBCD1
100
AcDbEntity
  8
SIMPLE
  6
CONTINUOUS
100
AcDbBlockBegin
  2
*D33
 70
     1
 10
0.0
 20
0.0
 30
0.0
  1

  0
POINT
  5
EABC2557E58EBCCA
100
AcDbEntity
  8
SIMPLE
  6
CONTINUOUS
 62
     0
100
AcDbPoint
 10
18900.0
 20
14500.0
 30
0.0
  0
POINT
  5
EABC2557E58EBCCB
100
AcDbEntity
  8
SIMPLE
  6
CONTINUOUS
 62
     0
100
AcDbPoint
 10
20700.0
 20
14500.0
 30
0.0
  0
LINE
  5
EABC2557E58EBCC5
100
AcDbEntity
  8
SIMPLE
  6
CONTINUOUS
 62
     0
100
AcDbLine
 10
18900.0
 20
14550.0
 30
0.0
 11
18900.0
 21
15350.0
 31
0.0
  0
LINE
  5
EABC2557E58EBCC6
100
AcDbEntity
  8
SIMPLE
  6
CONTINUOUS
 62
     0
100
AcDbLine
 10
20700.0
 20
14550.0
 30
0.0
 11
20700.0
 21
15350.0
 31
0.0
  0
TEXT
  5
EABC2557E58EBCCC
100
AcDbEntity
  8
SIMPLE
  6
CONTINUOUS
 62
     0
100
AcDbText
 10
19419.047619
 20
15250.0
 30
0.0
 40
100.0
  1
1800.0000
  7
SIMPLEX
 72
     1
 11
19800.0
 21
15250.0
 31
0.0
100
AcDbText
  0
SOLID
  5
EABC2557E58EBCC7
100
AcDbEntity
  8
SIMPLE
  6
CONTINUOUS
 62
     0
100
AcDbTrace
 10
19000.0
 20
15283.333333
 30
0.0
 11
19000.0
 21
15316.666667
 31
0.0
 12
18900.0
 22
15300.0
 32
0.0
 13
18900.0
 23
15300.0
 33
0.0
  0
SOLID
  5
EABC2557E58EBCC8
100
AcDbEntity
  8
SIMPLE
  6
CONTINUOUS
 62
     0
100
AcDbTrace
 10
20600.0
 20
15316.666667
 30
0.0
 11
20600.0
 21
15283.333333
 31
0.0
 12
20700.0
 22
15300.0
 32
0.0
 13
20700.0
 23
15300.0
 33
0.0
  0
LINE
  5
EABC2557E58EBCCD
100
AcDbEntity
  8
SIMPLE
  6
CONTINUOUS
 62
     0
100
AcDbLine
 10
19000.0
 20
15300.0
 30
0.0
 11
19418.957619
 21
15300.0
 31
0.0
  0
LINE
  5
EABC2557E58EBCCE
100
AcDbEntity
  8
SIMPLE
  6
CONTINUOUS
 62
     0
100
AcDbLine
 10
20181.042381
 20
15300.0
 30
0.0
 11
20600.0
 21
15300.0
 31
0.0
  0
ENDBLK
  5
EABC2557E58EBCD3
100
AcDbEntity
  8
SIMPLE
  6
CONTINUOUS
100
AcDbBlockEnd
  0
BLOCK
  5
EABC2557E58EBCE0
100
AcDbEntity
  8
SIMPLE
  6
CONTINUOUS
100
AcDbBlockBegin
  2
*D34
 70
     1
 10
0.0
 20
0.0
 30
0.0
  1

  0
POINT
  5
EABC2557E58EBCD9
100
AcDbEntity
  8
SIMPLE
  6
CONTINUOUS
 62
     0
100
AcDbPoint
 10
18600.0
 20
14000.0
 30
0.0
  0
POINT
  5
EABC2557E58EBCDA
100
AcDbEntity
  8
SIMPLE
  6
CONTINUOUS
 62
     0
100
AcDbPoint
 10
18200.0
 20
14000.0
 30
0.0
  0
LINE
  5
EABC2557E58EBCD4
100
AcDbEntity
  8
SIMPLE
  6
CONTINUOUS
 62
     0
100
AcDbLine
 10
18600.0
 20
13950.0
 30
0.0
 11
18600.0
 21
13550.0
 31
0.0
  0
LINE
  5
EABC2557E58EBCD5
100
AcDbEntity
  8
SIMPLE
  6
CONTINUOUS
 62
     0
100
AcDbLine
 10
18200.0
 20
13950.0
 30
0.0
 11
18200.0
 21
13550.0
 31
0.0
  0
TEXT
  5
EABC2557E58EBCDB
100
AcDbEntity
  8
SIMPLE
  6
CONTINUOUS
 62
     0
100
AcDbText
 10
17314.105714
 20
13550.0
 30
0.0
 40
100.0
  1
400.0000
  7
SIMPLEX
 72
     1
 11
17656.962857
 21
13550.0
 31
0.0
100
AcDbText
  0
SOLID
  5
EABC2557E58EBCD6
100
AcDbEntity
  8
SIMPLE
  6
CONTINUOUS
 62
     0
100
AcDbTrace
 10
18700.0
 20
13583.333333
 30
0.0
 11
18700.0
 21
13616.666667
 31
0.0
 12
18600.0
 22
13600.0
 32
0.0
 13
18600.0
 23
13600.0
 33
0.0
  0
SOLID
  5
EABC2557E58EBCD7
100
AcDbEntity
  8
SIMPLE
  6
CONTINUOUS
 62
     0
100
AcDbTrace
 10
18100.0
 20
13616.666667
 30
0.0
 11
18100.0
 21
13583.333333
 31
0.0
 12
18200.0
 22
13600.0
 32
0.0
 13
18200.0
 23
13600.0
 33
0.0
  0
LINE
  5
EABC2557E58EBCDC
100
AcDbEntity
  8
SIMPLE
  6
CONTINUOUS
 62
     0
100
AcDbLine
 10
18700.0
 20
13600.0
 30
0.0
 11
18800.0
 21
13600.0
 31
0.0
  0
LINE
  5
EABC2557E58EBCDD
100
AcDbEntity
  8
SIMPLE
  6
CONTINUOUS
 62
     0
100
AcDbLine
 10
18100.0
 20
13600.0
 30
0.0
 11
18000.0
 21
13600.0
 31
0.0
  0
ENDBLK
  5
EABC2557E58EBCE2
100
AcDbEntity
  8
SIMPLE
  6
CONTINUOUS
100
AcDbBlockEnd
  0
BLOCK
  5
EABC2557E58EBCEF
100
AcDbEntity
  8
SIMPLE
  6
CONTINUOUS
100
AcDbBlockBegin
  2
*D35
 70
     1
 10
0.0
 20
0.0
 30
0.0
  1

  0
POINT
  5
EABC2557E58EBCE8
100
AcDbEntity
  8
SIMPLE
  6
CONTINUOUS
 62
     0
100
AcDbPoint
 10
22000.0
 20
18000.0
 30
0.0
  0
POINT
  5
EABC2557E58EBCE9
100
AcDbEntity
  8
SIMPLE
  6
CONTINUOUS
 62
     0
100
AcDbPoint
 10
21900.0
 20
16200.0
 30
0.0
  0
LINE
  5
EABC2557E58EBCE3
100
AcDbEntity
  8
SIMPLE
  6
CONTINUOUS
 62
     0
100
AcDbLine
 10
22050.0
 20
18000.0
 30
0.0
 11
25750.0
 21
18000.0
 31
0.0
  0
LINE
  5
EABC2557E58EBCE4
100
AcDbEntity
  8
SIMPLE
  6
CONTINUOUS
 62
     0
100
AcDbLine
 10
21950.0
 20
16200.0
 30
0.0
 11
25750.0
 21
16200.0
 31
0.0
  0
TEXT
  5
EABC2557E58EBCEA
100
AcDbEntity
  8
SIMPLE
  6
CONTINUOUS
 62
     0
100
AcDbText
 10
25319.047619
 20
17050.0
 30
0.0
 40
100.0
  1
1800.0000
  7
SIMPLEX
 72
     1
 11
25700.0
 21
17050.0
 31
0.0
100
AcDbText
  0
SOLID
  5
EABC2557E58EBCE5
100
AcDbEntity
  8
SIMPLE
  6
CONTINUOUS
 62
     0
100
AcDbTrace
 10
25683.333333
 20
17900.0
 30
0.0
 11
25716.666667
 21
17900.0
 31
0.0
 12
25700.0
 22
18000.0
 32
0.0
 13
25700.0
 23
18000.0
 33
0.0
  0
SOLID
  5
EABC2557E58EBCE6
100
AcDbEntity
  8
SIMPLE
  6
CONTINUOUS
 62
     0
100
AcDbTrace
 10
25716.666667
 20
16300.0
 30
0.0
 11
25683.333333
 21
16300.0
 31
0.0
 12
25700.0
 22
16200.0
 32
0.0
 13
25700.0
 23
16200.0
 33
0.0
  0
LINE
  5
EABC2557E58EBCEB
100
AcDbEntity
  8
SIMPLE
  6
CONTINUOUS
 62
     0
100
AcDbLine
 10
25700.0
 20
17900.0
 30
0.0
 11
25700.0
 21
17150.09
 31
0.0
  0
LINE
  5
EABC2557E58EBCEC
100
AcDbEntity
  8
SIMPLE
  6
CONTINUOUS
 62
     0
100
AcDbLine
 10
25700.0
 20
17016.576667
 30
0.0
 11
25700.0
 21
16300.0
 31
0.0
  0
ENDBLK
  5
EABC2557E58EBCF1
100
AcDbEntity
  8
SIMPLE
  6
CONTINUOUS
100
AcDbBlockEnd
  0
BLOCK
  5
EABC2557E58EBCFE
100
AcDbEntity
  8
SIMPLE
  6
CONTINUOUS
100
AcDbBlockBegin
  2
*D36
 70
     1
 10
0.0
 20
0.0
 30
0.0
  1

  0
POINT
  5
EABC2557E58EBCF7
100
AcDbEntity
  8
SIMPLE
  6
CONTINUOUS
 62
     0
100
AcDbPoint
 10
24700.0
 20
17100.0
 30
0.0
  0
POINT
  5
EABC2557E58EBCF8
100
AcDbEntity
  8
SIMPLE
  6
CONTINUOUS
 62
     0
100
AcDbPoint
 10
24700.0
 20
1100.0
 30
0.0
  0
LINE
  5
EABC2557E58EBCF2
100
AcDbEntity
  8
SIMPLE
  6
CONTINUOUS
 62
     0
100
AcDbLine
 10
24750.0
 20
17100.0
 30
0.0
 11
27050.0
 21
17100.0
 31
0.0
  0
LINE
  5
EABC2557E58EBCF3
100
AcDbEntity
  8
SIMPLE
  6
CONTINUOUS
 62
     0
100
AcDbLine
 10
24750.0
 20
1100.0
 30
0.0
 11
27050.0
 21
1100.0
 31
0.0
  0
TEXT
  5
EABC2557E58EBCF9
100
AcDbEntity
  8
SIMPLE
  6
CONTINUOUS
 62
     0
100
AcDbText
 10
26571.428571
 20
9050.0
 30
0.0
 40
100.0
  1
16000.0000
  7
SIMPLEX
 72
     1
 11
27000.0
 21
9050.0
 31
0.0
100
AcDbText
  0
SOLID
  5
EABC2557E58EBCF4
100
AcDbEntity
  8
SIMPLE
  6
CONTINUOUS
 62
     0
100
AcDbTrace
 10
26983.333333
 20
17000.0
 30
0.0
 11
27016.666667
 21
17000.0
 31
0.0
 12
27000.0
 22
17100.0
 32
0.0
 13
27000.0
 23
17100.0
 33
0.0
  0
SOLID
  5
EABC2557E58EBCF5
100
AcDbEntity
  8
SIMPLE
  6
CONTINUOUS
 62
     0
100
AcDbTrace
 10
27016.666667
 20
1200.0
 30
0.0
 11
26983.333333
 21
1200.0
 31
0.0
 12
27000.0
 22
1100.0
 32
0.0
 13
27000.0
 23
1100.0
 33
0.0
  0
LINE
  5
EABC2557E58EBCFA
100
AcDbEntity
  8
SIMPLE
  6
CONTINUOUS
 62
     0
100
AcDbLine
 10
27000.0
 20
17000.0
 30
0.0
 11
27000.0
 21
9150.09
 31
0.0
  0
LINE
  5
EABC2557E58EBCFB
100
AcDbEntity
  8
SIMPLE
  6
CONTINUOUS
 62
     0
100
AcDbLine
 10
27000.0
 20
9016.576667
 30
0.0
 11
27000.0
 21
1200.0
 31
0.0
  0
ENDBLK
  5
EABC2557E58EBD00
100
AcDbEntity
  8
SIMPLE
  6
CONTINUOUS
100
AcDbBlockEnd
  0
BLOCK
  5
EABC2557EAE3CC21
100
AcDbEntity
  8
SIMPLE
  6
CONTINUOUS
100
AcDbBlockBegin
  2
LE_CIN0
 70
     0
 10
16800.0
 20
14600.0
 30
0.0
  1

  0
LINE
  5
EABC2557EAE3CBC2
100
AcDbEntity
  8
SIMPLE
  6
CONTINUOUS
100
AcDbLine
 10
19100.0
 20
14600.0
 30
0.0
 11
19100.0
 21
14500.0
 31
0.0
  0
POINT
  5
EABC2557EAE3CBC6
100
AcDbEntity
  8
SIMPLE
  6
CONTINUOUS
100
AcDbPoint
 10
19100.0
 20
14500.0
 30
0.0
  0
ENDBLK
  5
EABC2557EAE3CC23
100
AcDbEntity
  8
SIMPLE
  6
CONTINUOUS
100
AcDbBlockEnd
  0
BLOCK
  5
EABC2557EAE3CC25
100
AcDbEntity
  8
SIMPLE
  6
CONTINUOUS
100
AcDbBlockBegin
  2
LE_CIN1
 70
     0
 10
16800.0
 20
14600.0
 30
0.0
  1

  0
LINE
  5
EABC2557EAE3CBC3
100
AcDbEntity
  8
SIMPLE
  6
CONTINUOUS
100
AcDbLine
 10
19300.0
 20
14600.0
 30
0.0
 11
19300.0
 21
14500.0
 31
0.0
  0
POINT
  5
EABC2557EAE3CBC7
100
AcDbEntity
  8
SIMPLE
  6
CONTINUOUS
100
AcDbPoint
 10
19300.0
 20
14500.0
 30
0.0
  0
ENDBLK
  5
EABC2557EAE3CC27
100
AcDbEntity
  8
SIMPLE
  6
CONTINUOUS
100
AcDbBlockEnd
  0
BLOCK
  5
EABC255840353C3E
100
AcDbEntity
  8
SIMPLE
  6
CONTINUOUS
100
AcDbBlockBegin
  2
LE_REG_CASCADE_IN
 70
     0
 10
0.0
 20
0.0
 30
0.0
  1

  0
POINT
  5
EABC255840353C3A
100
AcDbEntity
  8
SIMPLE
  6
CONTINUOUS
100
AcDbPoint
 10
4300.0
 20
-3500.0
 30
0.0
  0
LINE
  5
EABC255840353C3B
100
AcDbEntity
  8
SIMPLE
  6
CONTINUOUS
100
AcDbLine
 10
4300.0
 20
-3400.0
 30
0.0
 11
4750.0
 21
-3400.0
 31
0.0
  0
LINE
  5
EABC255840353C3C
100
AcDbEntity
  8
SIMPLE
  6
CONTINUOUS
100
AcDbLine
 10
4750.0
 20
-3400.0
 30
0.0
 11
4750.0
 21
-2800.0
 31
0.0
  0
LINE
  5
EABC255840353C3D
100
AcDbEntity
  8
SIMPLE
  6
CONTINUOUS
100
AcDbLine
 10
4300.0
 20
-3400.0
 30
0.0
 11
4300.0
 21
-3500.0
 31
0.0
  0
ENDBLK
  5
EABC255840353C3F
100
AcDbEntity
  8
SIMPLE
  6
CONTINUOUS
100
AcDbBlockEnd
  0
BLOCK
  5
EABC25589586AC54
100
AcDbEntity
  8
SIMPLE
  6
CONTINUOUS
100
AcDbBlockBegin
  2
LE_REG_OUT
 70
     0
 10
0.0
 20
0.0
 30
0.0
  1

  0
LINE
  5
EABC25589586AC51
100
AcDbEntity
  8
SIMPLE
  6
CONTINUOUS
100
AcDbLine
 10
4700.0
 20
-3800.0
 30
0.0
 11
5400.0
 21
-3800.0
 31
0.0
  0
POLYLINE
  5
EABC25589586AC53
100
AcDbEntity
  8
SIMPLE
  6
CONTINUOUS
100
AcDb2dPolyline
 66
     1
 10
0.0
 20
0.0
 30
0.0
 70
     1
  0
VERTEX
  5
EABC256C949D355F
100
AcDbEntity
  8
SIMPLE
  6
CONTINUOUS
100
AcDbVertex
100
AcDb2dVertex
 10
4740.0
 20
-3790.0
 30
0.0
  0
VERTEX
  5
EABC256C949D3560
100
AcDbEntity
  8
SIMPLE
  6
CONTINUOUS
100
AcDbVertex
100
AcDb2dVertex
 10
4760.0
 20
-3790.0
 30
0.0
  0
VERTEX
  5
EABC256C949D3561
100
AcDbEntity
  8
SIMPLE
  6
CONTINUOUS
100
AcDbVertex
100
AcDb2dVertex
 10
4760.0
 20
-3810.0
 30
0.0
  0
VERTEX
  5
EABC256C949D3562
100
AcDbEntity
  8
SIMPLE
  6
CONTINUOUS
100
AcDbVertex
100
AcDb2dVertex
 10
4740.0
 20
-3810.0
 30
0.0
  0
SEQEND
  5
EABC256C949D3563
100
AcDbEntity
  8
SIMPLE
  6
CONTINUOUS
  0
POINT
  5
EABC25589586AC52
100
AcDbEntity
  8
SIMPLE
  6
CONTINUOUS
100
AcDbPoint
 10
4700.0
 20
-3800.0
 30
0.0
  0
ENDBLK
  5
EABC25589586AC55
100
AcDbEntity
  8
SIMPLE
  6
CONTINUOUS
100
AcDbBlockEnd
  0
BLOCK
  5
EABC2557EAE3CC35
100
AcDbEntity
  8
SIMPLE
  6
CONTINUOUS
100
AcDbBlockBegin
  2
LE_COMB_OUT
 70
     0
 10
16800.0
 20
14600.0
 30
0.0
  1

  0
LINE
  5
EABC2557EAE3CB4A
100
AcDbEntity
  8
SIMPLE
  6
CONTINUOUS
100
AcDbLine
 10
20700.0
 20
14200.0
 30
0.0
 11
21400.0
 21
14200.0
 31
0.0
  0
POINT
  5
EABC2557EAE3CBCE
100
AcDbEntity
  8
SIMPLE
  6
CONTINUOUS
100
AcDbPoint
 10
20700.0
 20
14200.0
 30
0.0
  0
ENDBLK
  5
EABC2557EAE3CC37
100
AcDbEntity
  8
SIMPLE
  6
CONTINUOUS
100
AcDbBlockEnd
  0
BLOCK
  5
EABC2558403523EB
100
AcDbEntity
  8
SIMPLE
  6
CONTINUOUS
100
AcDbBlockBegin
  2
LE_LUT_CASCADE
 70
     2
 10
3600.0
 20
-4500.0
 30
0.0
  1

  0
LINE
  5
EABC2558158C77FF
100
AcDbEntity
  8
SIMPLE
  6
CONTINUOUS
100
AcDbLine
 10
3600.0
 20
-4500.0
 30
0.0
 11
3600.0
 21
-4300.0
 31
0.0
  0
ATTDEF
  5
EABC2558158C7801
100
AcDbEntity
  8
SIMPLE
  6
CONTINUOUS
100
AcDbText
 10
3620.0
 20
-4410.0
 30
0.0
 40
40.0
  1

  7
SIMPLEX
100
AcDbAttributeDefinition
  3

  2
index
 70
     0
  0
ENDBLK
  5
EABC2558403523EC
100
AcDbEntity
  8
SIMPLE
  6
CONTINUOUS
100
AcDbBlockEnd
  0
BLOCK
  5
EABC2557EAE3CC41
100
AcDbEntity
  8
SIMPLE
  6
CONTINUOUS
100
AcDbBlockBegin
  2
LE_COUT1
 70
     0
 10
16800.0
 20
14600.0
 30
0.0
  1

  0
LINE
  5
EABC2557EAE3CB4D
100
AcDbEntity
  8
SIMPLE
  6
CONTINUOUS
100
AcDbLine
 10
19300.0
 20
13700.0
 30
0.0
 11
19300.0
 21
13600.0
 31
0.0
  0
POINT
  5
EABC2557EAE3CBCC
100
AcDbEntity
  8
SIMPLE
  6
CONTINUOUS
100
AcDbPoint
 10
19300.0
 20
13700.0
 30
0.0
  0
ENDBLK
  5
EABC2557EAE3CC43
100
AcDbEntity
  8
SIMPLE
  6
CONTINUOUS
100
AcDbBlockEnd
  0
BLOCK
  5
EABC2557EAE3CC45
100
AcDbEntity
  8
SIMPLE
  6
CONTINUOUS
100
AcDbBlockBegin
  2
LE_COUT0
 70
     0
 10
16800.0
 20
14600.0
 30
0.0
  1

  0
LINE
  5
EABC2557EAE3CB4C
100
AcDbEntity
  8
SIMPLE
  6
CONTINUOUS
100
AcDbLine
 10
19100.0
 20
13700.0
 30
0.0
 11
19100.0
 21
13600.0
 31
0.0
  0
POINT
  5
EABC2557EAE3CBCD
100
AcDbEntity
  8
SIMPLE
  6
CONTINUOUS
100
AcDbPoint
 10
19100.0
 20
13700.0
 30
0.0
  0
ENDBLK
  5
EABC2557EAE3CC47
100
AcDbEntity
  8
SIMPLE
  6
CONTINUOUS
100
AcDbBlockEnd
  0
BLOCK
  5
EABC2557EAE3CC49
100
AcDbEntity
  8
SIMPLE
  6
CONTINUOUS
100
AcDbBlockBegin
  2
LE_CARRY_SELECT_IN
 70
     0
 10
16800.0
 20
14600.0
 30
0.0
  1

  0
POINT
  5
EABC2557EAE3CBD1
100
AcDbEntity
  8
SIMPLE
  6
CONTINUOUS
100
AcDbPoint
 10
18900.0
 20
14400.0
 30
0.0
  0
LINE
  5
EABC2557EAE3CB42
100
AcDbEntity
  8
SIMPLE
  6
CONTINUOUS
100
AcDbLine
 10
18800.0
 20
14400.0
 30
0.0
 11
18900.0
 21
14400.0
 31
0.0
  0
ENDBLK
  5
EABC2557EAE3CC4B
100
AcDbEntity
  8
SIMPLE
  6
CONTINUOUS
100
AcDbBlockEnd
  0
BLOCK
  5
EABC2557EAE3CC4D
100
AcDbEntity
  8
SIMPLE
  6
CONTINUOUS
100
AcDbBlockBegin
  2
LE_LABWIDE_IN
 70
     0
 10
16800.0
 20
14600.0
 30
0.0
  1

  0
POINT
  5
EABC2557EAE3CBD2
100
AcDbEntity
  8
SIMPLE
  6
CONTINUOUS
100
AcDbPoint
 10
18900.0
 20
14300.0
 30
0.0
  0
LINE
  5
EABC2557EAE3CB40
100
AcDbEntity
  8
SIMPLE
  6
CONTINUOUS
100
AcDbLine
 10
18900.0
 20
14300.0
 30
0.0
 11
18400.0
 21
14300.0
 31
0.0
  0
ENDBLK
  5
EABC2557EAE3CC4F
100
AcDbEntity
  8
SIMPLE
  6
CONTINUOUS
100
AcDbBlockEnd
  0
BLOCK
  5
EABC2557EAE3CC51
100
AcDbEntity
  8
SIMPLE
  6
CONTINUOUS
100
AcDbBlockBegin
  2
LE_DATA_A
 70
     0
 10
16800.0
 20
14600.0
 30
0.0
  1

  0
POINT
  5
EABC2557EAE3CC15
100
AcDbEntity
  8
SIMPLE
  6
CONTINUOUS
100
AcDbPoint
 10
18900.0
 20
14100.0
 30
0.0
  0
LINE
  5
EABC2557EAE3CC16
100
AcDbEntity
  8
SIMPLE
  6
CONTINUOUS
100
AcDbLine
 10
18900.0
 20
14100.0
 30
0.0
 11
16800.0
 21
14100.0
 31
0.0
  0
ENDBLK
  5
EABC2557EAE3CC53
100
AcDbEntity
  8
SIMPLE
  6
CONTINUOUS
100
AcDbBlockEnd
  0
BLOCK
  5
EABC2557EAE3CC55
100
AcDbEntity
  8
SIMPLE
  6
CONTINUOUS
100
AcDbBlockBegin
  2
LE_DATA_B
 70
     0
 10
16800.0
 20
14600.0
 30
0.0
  1

  0
POINT
  5
EABC2557EAE3CC11
100
AcDbEntity
  8
SIMPLE
  6
CONTINUOUS
100
AcDbPoint
 10
18900.0
 20
14000.0
 30
0.0
  0
LINE
  5
EABC2557EAE3CC12
100
AcDbEntity
  8
SIMPLE
  6
CONTINUOUS
100
AcDbLine
 10
18900.0
 20
14000.0
 30
0.0
 11
16800.0
 21
14000.0
 31
0.0
  0
ENDBLK
  5
EABC2557EAE3CC57
100
AcDbEntity
  8
SIMPLE
  6
CONTINUOUS
100
AcDbBlockEnd
  0
BLOCK
  5
EABC2557EAE3CC59
100
AcDbEntity
  8
SIMPLE
  6
CONTINUOUS
100
AcDbBlockBegin
  2
LE_DATA_C
 70
     0
 10
16800.0
 20
14600.0
 30
0.0
  1

  0
LINE
  5
EABC2557EAE3CB50
100
AcDbEntity
  8
SIMPLE
  6
CONTINUOUS
100
AcDbLine
 10
18900.0
 20
13900.0
 30
0.0
 11
16800.0
 21
13900.0
 31
0.0
  0
POINT
  5
EABC2557EAE3CBD3
100
AcDbEntity
  8
SIMPLE
  6
CONTINUOUS
100
AcDbPoint
 10
18900.0
 20
13900.0
 30
0.0
  0
ENDBLK
  5
EABC2557EAE3CC5B
100
AcDbEntity
  8
SIMPLE
  6
CONTINUOUS
100
AcDbBlockEnd
  0
BLOCK
  5
EABC2557EAE3CC5D
100
AcDbEntity
  8
SIMPLE
  6
CONTINUOUS
100
AcDbBlockBegin
  2
LE_DATA_D
 70
     0
 10
16800.0
 20
14600.0
 30
0.0
  1

  0
POINT
  5
EABC2557EAE3CC19
100
AcDbEntity
  8
SIMPLE
  6
CONTINUOUS
100
AcDbPoint
 10
18900.0
 20
13800.0
 30
0.0
  0
LINE
  5
EABC2557EAE3CC1A
100
AcDbEntity
  8
SIMPLE
  6
CONTINUOUS
100
AcDbLine
 10
18900.0
 20
13800.0
 30
0.0
 11
16800.0
 21
13800.0
 31
0.0
  0
ENDBLK
  5
EABC2557EAE3CC5F
100
AcDbEntity
  8
SIMPLE
  6
CONTINUOUS
100
AcDbBlockEnd
  0
BLOCK
  5
EABC25589586AC57
100
AcDbEntity
  8
SIMPLE
  6
CONTINUOUS
100
AcDbBlockBegin
  2
LE_YGR
 70
     2
 10
0.0
 20
0.0
 30
0.0
  1

  0
POLYLINE
  5
EABC255840353727
100
AcDbEntity
  8
SIMPLE
  6
CONTINUOUS
100
AcDb2dPolyline
 66
     1
 10
0.0
 20
0.0
 30
0.0
 70
     1
  0
VERTEX
  5
EABC255840353728
100
AcDbEntity
  8
SIMPLE
  6
CONTINUOUS
100
AcDbVertex
100
AcDb2dVertex
 10
2900.0
 20
-3500.0
 30
0.0
  0
VERTEX
  5
EABC255840353729
100
AcDbEntity
  8
SIMPLE
  6
CONTINUOUS
100
AcDbVertex
100
AcDb2dVertex
 10
4700.0
 20
-3500.0
 30
0.0
  0
VERTEX
  5
EABC25584035372A
100
AcDbEntity
  8
SIMPLE
  6
CONTINUOUS
100
AcDbVertex
100
AcDb2dVertex
 10
4700.0
 20
-4300.0
 30
0.0
  0
VERTEX
  5
EABC25584035372B
100
AcDbEntity
  8
SIMPLE
  6
CONTINUOUS
100
AcDbVertex
100
AcDb2dVertex
 10
2900.0
 20
-4300.0
 30
0.0
  0
SEQEND
  5
EABC25584035372C
100
AcDbEntity
  8
SIMPLE
  6
CONTINUOUS
  0
INSERT
  5
EABC25584035372E
100
AcDbEntity
  8
SIMPLE
  6
CONTINUOUS
100
AcDbBlockReference
  2
LE_COMB_OUT
 10
800.0
 20
-3600.0
 30
0.0
  0
ATTDEF
  5
EABC25584035372F
100
AcDbEntity
  8
SIMPLE
  6
CONTINUOUS
100
AcDbText
 10
3400.0
 20
-4000.0
 30
0.0
 40
200.0
  1

  7
SIMPLEX
100
AcDbAttributeDefinition
  3

  2
index
 70
     0
  0
INSERT
  5
EABC255840353C40
100
AcDbEntity
  8
SIMPLE
  6
CONTINUOUS
100
AcDbBlockReference
  2
LE_REG_CASCADE_IN
 10
0.0
 20
0.0
 30
0.0
  0
INSERT
  5
EABC25589586AC56
100
AcDbEntity
  8
SIMPLE
  6
CONTINUOUS
100
AcDbBlockReference
  2
LE_REG_OUT
 10
0.0
 20
0.0
 30
0.0
  0
POINT
  5
EABC2558403532A6
100
AcDbEntity
  8
COMMENT
  6
CONTINUOUS
 62
     1
100
AcDbPoint
 10
2900.0
 20
-4300.0
 30
0.0
  0
POINT
  5
EABC2558403532A7
100
AcDbEntity
  8
COMMENT
  6
CONTINUOUS
 62
     1
100
AcDbPoint
 10
2900.0
 20
-4300.0
 30
0.0
  0
POINT
  5
EABC255840353731
100
AcDbEntity
  8
COMMENT
  6
CONTINUOUS
 62
     1
100
AcDbPoint
 10
2900.0
 20
-4300.0
 30
0.0
  0
POINT
  5
EABC255840353732
100
AcDbEntity
  8
COMMENT
  6
CONTINUOUS
100
AcDbPoint
 10
2400.0
 20
-3700.0
 30
0.0
  0
POINT
  5
EABC255840353733
100
AcDbEntity
  8
COMMENT
  6
CONTINUOUS
100
AcDbPoint
 10
2800.0
 20
-3600.0
 30
0.0
  0
INSERT
  5
EABC255840353734
100
AcDbEntity
  8
SIMPLE
  6
CONTINUOUS
100
AcDbBlockReference
  2
LE_COUT1
 10
800.0
 20
-3400.0
 30
0.0
  0
INSERT
  5
EABC255840353735
100
AcDbEntity
  8
SIMPLE
  6
CONTINUOUS
100
AcDbBlockReference
  2
LE_COUT0
 10
800.0
 20
-3400.0
 30
0.0
  0
INSERT
  5
EABC255840353736
100
AcDbEntity
  8
SIMPLE
  6
CONTINUOUS
100
AcDbBlockReference
  2
LE_CARRY_SELECT_IN
 10
800.0
 20
-3400.0
 30
0.0
  0
INSERT
  5
EABC255840353737
100
AcDbEntity
  8
SIMPLE
  6
CONTINUOUS
100
AcDbBlockReference
  2
LE_LABWIDE_IN
 10
800.0
 20
-3400.0
 30
0.0
  0
INSERT
  5
EABC255840353738
100
AcDbEntity
  8
SIMPLE
  6
CONTINUOUS
100
AcDbBlockReference
  2
LE_DATA_A
 10
800.0
 20
-3400.0
 30
0.0
  0
INSERT
  5
EABC255840353739
100
AcDbEntity
  8
SIMPLE
  6
CONTINUOUS
100
AcDbBlockReference
  2
LE_DATA_B
 10
800.0
 20
-3400.0
 30
0.0
  0
INSERT
  5
EABC25584035373A
100
AcDbEntity
  8
SIMPLE
  6
CONTINUOUS
100
AcDbBlockReference
  2
LE_DATA_C
 10
800.0
 20
-3400.0
 30
0.0
  0
INSERT
  5
EABC25584035373B
100
AcDbEntity
  8
SIMPLE
  6
CONTINUOUS
100
AcDbBlockReference
  2
LE_DATA_D
 10
800.0
 20
-3400.0
 30
0.0
  0
POINT
  5
EABC25584035373C
100
AcDbEntity
  8
COMMENT
  6
CONTINUOUS
 62
     1
100
AcDbPoint
 10
2900.0
 20
-4300.0
 30
0.0
  0
INSERT
  5
EABC25584035373D
100
AcDbEntity
  8
SIMPLE
  6
CONTINUOUS
100
AcDbBlockReference
  2
LE_CIN0
 10
800.0
 20
-3400.0
 30
0.0
  0
INSERT
  5
EABC25584035373E
100
AcDbEntity
  8
SIMPLE
  6
CONTINUOUS
100
AcDbBlockReference
  2
LE_CIN1
 10
800.0
 20
-3400.0
 30
0.0
  0
ENDBLK
  5
EABC25589586AC58
100
AcDbEntity
  8
SIMPLE
  6
CONTINUOUS
100
AcDbBlockEnd
  0
BLOCK
  5
EABC256C949D3559
100
AcDbEntity
  8
SIMPLE
  6
CONTINUOUS
100
AcDbBlockBegin
  2
CARRY_MUX_5_TO_9
 70
     0
 10
0.0
 20
0.0
 30
0.0
  1

  0
POLYLINE
  5
EABC256C949D354E
100
AcDbEntity
  8
SIMPLE
  6
CONTINUOUS
100
AcDb2dPolyline
 66
     1
 10
0.0
 20
0.0
 30
0.0
 70
     1
  0
VERTEX
  5
EABC256C949D354F
100
AcDbEntity
  8
SIMPLE
  6
CONTINUOUS
100
AcDbVertex
100
AcDb2dVertex
 10
3000.0
 20
-13900.0
 30
0.0
  0
VERTEX
  5
EABC256C949D3550
100
AcDbEntity
  8
SIMPLE
  6
CONTINUOUS
100
AcDbVertex
100
AcDb2dVertex
 10
3100.0
 20
-14100.0
 30
0.0
  0
VERTEX
  5
EABC256C949D3551
100
AcDbEntity
  8
SIMPLE
  6
CONTINUOUS
100
AcDbVertex
100
AcDb2dVertex
 10
3300.0
 20
-14100.0
 30
0.0
  0
VERTEX
  5
EABC256C949D3552
100
AcDbEntity
  8
SIMPLE
  6
CONTINUOUS
100
AcDbVertex
100
AcDb2dVertex
 10
3400.0
 20
-13900.0
 30
0.0
  0
VERTEX
  5
EABC256C949D3553
100
AcDbEntity
  8
SIMPLE
  6
CONTINUOUS
100
AcDbVertex
100
AcDb2dVertex
 10
3000.0
 20
-13900.0
 30
0.0
  0
SEQEND
  5
EABC256C949D3554
100
AcDbEntity
  8
SIMPLE
  6
CONTINUOUS
  0
LINE
  5
EABC256C949D3555
100
AcDbEntity
  8
SIMPLE
  6
CONTINUOUS
100
AcDbLine
 10
3100.0
 20
-13800.0
 30
0.0
 11
3100.0
 21
-13900.0
 31
0.0
  0
LINE
  5
EABC256C949D3557
100
AcDbEntity
  8
SIMPLE
  6
CONTINUOUS
100
AcDbLine
 10
3300.0
 20
-13800.0
 30
0.0
 11
3300.0
 21
-13900.0
 31
0.0
  0
ENDBLK
  5
EABC256C949D355A
100
AcDbEntity
  8
SIMPLE
  6
CONTINUOUS
100
AcDbBlockEnd
  0
BLOCK
  5
EABC2557F038E0F6
100
AcDbEntity
  8
SIMPLE
  6
CONTINUOUS
100
AcDbBlockBegin
  2
LUT_CASCADE_4_TO_5_EXT
 70
     0
 10
3600.0
 20
-8400.0
 30
0.0
  1

  0
LINE
  5
EABC2557F038DBAE
100
AcDbEntity
  8
SIMPLE
  6
CONTINUOUS
100
AcDbLine
 10
3600.0
 20
-8400.0
 30
0.0
 11
3600.0
 21
-8900.0
 31
0.0
  0
ENDBLK
  5
EABC2557F038E0F8
100
AcDbEntity
  8
SIMPLE
  6
CONTINUOUS
100
AcDbBlockEnd
  0
BLOCK
  5
EABC255840352576
100
AcDbEntity
  8
SIMPLE
  6
CONTINUOUS
100
AcDbBlockBegin
  2
REG_CASCADE_4_TO_5_EXT
 70
     0
 10
0.0
 20
0.0
 30
0.0
  1

  0
LINE
  5
EABC255840352574
100
AcDbEntity
  8
SIMPLE
  6
CONTINUOUS
100
AcDbLine
 10
4750.0
 20
-8000.0
 30
0.0
 11
4750.0
 21
-8500.0
 31
0.0
  0
ENDBLK
  5
EABC255840352577
100
AcDbEntity
  8
SIMPLE
  6
CONTINUOUS
100
AcDbBlockEnd
  0
BLOCK
  5
EABC256C949D35D2
100
AcDbEntity
  8
SIMPLE
  6
CONTINUOUS
100
AcDbBlockBegin
  2
LAB_YGR
 70
     0
 10
0.0
 20
0.0
 30
0.0
  1

  0
INSERT
  5
EABC256C949D357C
100
AcDbEntity
  8
SIMPLE
  6
CONTINUOUS
100
AcDbBlockReference
  2
LUT_CASCADE_4_TO_5_EXT
 10
3600.0
 20
-8300.0
 30
0.0
  0
POINT
  5
EABC256C949D357D
100
AcDbEntity
  8
COMMENT
  6
CONTINUOUS
 62
     1
100
AcDbPoint
 10
2900.0
 20
-6300.0
 30
0.0
  0
POINT
  5
EABC256C949D357E
100
AcDbEntity
  8
COMMENT
  6
CONTINUOUS
 62
     1
100
AcDbPoint
 10
2900.0
 20
-7300.0
 30
0.0
  0
POINT
  5
EABC256C949D357F
100
AcDbEntity
  8
COMMENT
  6
CONTINUOUS
 62
     1
100
AcDbPoint
 10
2900.0
 20
-8300.0
 30
0.0
  0
POINT
  5
EABC256C949D3580
100
AcDbEntity
  8
COMMENT
  6
CONTINUOUS
 62
     1
100
AcDbPoint
 10
2900.0
 20
-9800.0
 30
0.0
  0
POINT
  5
EABC256C949D3581
100
AcDbEntity
  8
COMMENT
  6
CONTINUOUS
 62
     1
100
AcDbPoint
 10
2900.0
 20
-10800.0
 30
0.0
  0
POINT
  5
EABC256C949D3582
100
AcDbEntity
  8
COMMENT
  6
CONTINUOUS
 62
     1
100
AcDbPoint
 10
2900.0
 20
-11800.0
 30
0.0
  0
POINT
  5
EABC256C949D3583
100
AcDbEntity
  8
COMMENT
  6
CONTINUOUS
 62
     1
100
AcDbPoint
 10
2900.0
 20
-12800.0
 30
0.0
  0
POINT
  5
EABC256C949D3584
100
AcDbEntity
  8
COMMENT
  6
CONTINUOUS
 62
     1
100
AcDbPoint
 10
2900.0
 20
-13800.0
 30
0.0
  0
INSERT
  5
EABC256C949D3585
100
AcDbEntity
  8
SIMPLE
  6
CONTINUOUS
100
AcDbBlockReference
 66
     1
  2
LE_LUT_CASCADE
 10
3600.0
 20
-4500.0
 30
0.0
  0
ATTRIB
  5
EABC256C949D3586
100
AcDbEntity
  8
SIMPLE
  6
CONTINUOUS
100
AcDbText
 10
3620.0
 20
-4410.0
 30
0.0
 40
40.0
  1
0
  7
SIMPLEX
100
AcDbAttribute
  2
index
 70
     0
  0
SEQEND
  5
EABC256C949D3587
100
AcDbEntity
  8
SIMPLE
  6
CONTINUOUS
  0
POINT
  5
EABC256C949D3588
100
AcDbEntity
  8
COMMENT
  6
CONTINUOUS
100
AcDbPoint
 10
800.0
 20
-4100.0
 30
0.0
  0
POINT
  5
EABC256C949D3589
100
AcDbEntity
  8
COMMENT
  6
CONTINUOUS
100
AcDbPoint
 10
800.0
 20
-4000.0
 30
0.0
  0
POINT
  5
EABC256C949D358A
100
AcDbEntity
  8
COMMENT
  6
CONTINUOUS
100
AcDbPoint
 10
800.0
 20
-3900.0
 30
0.0
  0
POINT
  5
EABC256C949D358B
100
AcDbEntity
  8
COMMENT
  6
CONTINUOUS
100
AcDbPoint
 10
800.0
 20
-4200.0
 30
0.0
  0
INSERT
  5
EABC256C949D358C
100
AcDbEntity
  8
SIMPLE
  6
CONTINUOUS
100
AcDbBlockReference
 66
     1
  2
LE_LUT_CASCADE
 10
3600.0
 20
-5500.0
 30
0.0
  0
ATTRIB
  5
EABC256C949D358D
100
AcDbEntity
  8
SIMPLE
  6
CONTINUOUS
100
AcDbText
 10
3620.0
 20
-5410.0
 30
0.0
 40
40.0
  1
1
  7
SIMPLEX
100
AcDbAttribute
  2
index
 70
     0
  0
SEQEND
  5
EABC256C949D358E
100
AcDbEntity
  8
SIMPLE
  6
CONTINUOUS
  0
INSERT
  5
EABC256C949D358F
100
AcDbEntity
  8
SIMPLE
  6
CONTINUOUS
100
AcDbBlockReference
 66
     1
  2
LE_LUT_CASCADE
 10
3600.0
 20
-6500.0
 30
0.0
  0
ATTRIB
  5
EABC256C949D3590
100
AcDbEntity
  8
SIMPLE
  6
CONTINUOUS
100
AcDbText
 10
3620.0
 20
-6410.0
 30
0.0
 40
40.0
  1
2
  7
SIMPLEX
100
AcDbAttribute
  2
index
 70
     0
  0
SEQEND
  5
EABC256C949D3591
100
AcDbEntity
  8
SIMPLE
  6
CONTINUOUS
  0
INSERT
  5
EABC256C949D3592
100
AcDbEntity
  8
SIMPLE
  6
CONTINUOUS
100
AcDbBlockReference
 66
     1
  2
LE_LUT_CASCADE
 10
3600.0
 20
-7500.0
 30
0.0
  0
ATTRIB
  5
EABC256C949D3593
100
AcDbEntity
  8
SIMPLE
  6
CONTINUOUS
100
AcDbText
 10
3620.0
 20
-7410.0
 30
0.0
 40
40.0
  1
3
  7
SIMPLEX
100
AcDbAttribute
  2
index
 70
     0
  0
SEQEND
  5
EABC256C949D3594
100
AcDbEntity
  8
SIMPLE
  6
CONTINUOUS
  0
INSERT
  5
EABC256C949D3595
100
AcDbEntity
  8
SIMPLE
  6
CONTINUOUS
100
AcDbBlockReference
 66
     1
  2
LE_LUT_CASCADE
 10
3600.0
 20
-9000.0
 30
0.0
  0
ATTRIB
  5
EABC256C949D3596
100
AcDbEntity
  8
SIMPLE
  6
CONTINUOUS
100
AcDbText
 10
3620.0
 20
-8910.0
 30
0.0
 40
40.0
  1
4
  7
SIMPLEX
100
AcDbAttribute
  2
index
 70
     0
  0
SEQEND
  5
EABC256C949D3597
100
AcDbEntity
  8
SIMPLE
  6
CONTINUOUS
  0
INSERT
  5
EABC256C949D3598
100
AcDbEntity
  8
SIMPLE
  6
CONTINUOUS
100
AcDbBlockReference
 66
     1
  2
LE_LUT_CASCADE
 10
3600.0
 20
-10000.0
 30
0.0
  0
ATTRIB
  5
EABC256C949D3599
100
AcDbEntity
  8
SIMPLE
  6
CONTINUOUS
100
AcDbText
 10
3620.0
 20
-9910.0
 30
0.0
 40
40.0
  1
5
  7
SIMPLEX
100
AcDbAttribute
  2
index
 70
     0
  0
SEQEND
  5
EABC256C949D359A
100
AcDbEntity
  8
SIMPLE
  6
CONTINUOUS
  0
INSERT
  5
EABC256C949D359B
100
AcDbEntity
  8
SIMPLE
  6
CONTINUOUS
100
AcDbBlockReference
 66
     1
  2
LE_LUT_CASCADE
 10
3600.0
 20
-11000.0
 30
0.0
  0
ATTRIB
  5
EABC256C949D359C
100
AcDbEntity
  8
SIMPLE
  6
CONTINUOUS
100
AcDbText
 10
3620.0
 20
-10910.0
 30
0.0
 40
40.0
  1
6
  7
SIMPLEX
100
AcDbAttribute
  2
index
 70
     0
  0
SEQEND
  5
EABC256C949D359D
100
AcDbEntity
  8
SIMPLE
  6
CONTINUOUS
  0
INSERT
  5
EABC256C949D359E
100
AcDbEntity
  8
SIMPLE
  6
CONTINUOUS
100
AcDbBlockReference
 66
     1
  2
LE_LUT_CASCADE
 10
3600.0
 20
-12000.0
 30
0.0
  0
ATTRIB
  5
EABC256C949D359F
100
AcDbEntity
  8
SIMPLE
  6
CONTINUOUS
100
AcDbText
 10
3620.0
 20
-11910.0
 30
0.0
 40
40.0
  1
7
  7
SIMPLEX
100
AcDbAttribute
  2
index
 70
     0
  0
SEQEND
  5
EABC256C949D35A0
100
AcDbEntity
  8
SIMPLE
  6
CONTINUOUS
  0
INSERT
  5
EABC256C949D35A1
100
AcDbEntity
  8
SIMPLE
  6
CONTINUOUS
100
AcDbBlockReference
 66
     1
  2
LE_LUT_CASCADE
 10
3600.0
 20
-13000.0
 30
0.0
  0
ATTRIB
  5
EABC256C949D35A2
100
AcDbEntity
  8
SIMPLE
  6
CONTINUOUS
100
AcDbText
 10
3620.0
 20
-12910.0
 30
0.0
 40
40.0
  1
8
  7
SIMPLEX
100
AcDbAttribute
  2
index
 70
     0
  0
SEQEND
  5
EABC256C949D35A3
100
AcDbEntity
  8
SIMPLE
  6
CONTINUOUS
  0
INSERT
  5
EABC256C949D35A4
100
AcDbEntity
  8
SIMPLE
  6
CONTINUOUS
100
AcDbBlockReference
  2
REG_CASCADE_4_TO_5_EXT
 10
0.0
 20
200.0
 30
0.0
  0
POLYLINE
  5
EABC256C949D35A5
100
AcDbEntity
  8
SIMPLE
  6
CONTINUOUS
100
AcDb2dPolyline
 66
     1
 10
0.0
 20
0.0
 30
0.0
 70
     1
  0
VERTEX
  5
EABC256C949D35A6
100
AcDbEntity
  8
SIMPLE
  6
CONTINUOUS
100
AcDbVertex
100
AcDb2dVertex
 10
0.0
 20
0.0
 30
0.0
  0
VERTEX
  5
EABC256C949D35A7
100
AcDbEntity
  8
SIMPLE
  6
CONTINUOUS
100
AcDbVertex
100
AcDb2dVertex
 10
8000.0
 20
0.0
 30
0.0
  0
VERTEX
  5
EABC256C949D35A8
100
AcDbEntity
  8
SIMPLE
  6
CONTINUOUS
100
AcDbVertex
100
AcDb2dVertex
 10
8000.0
 20
-16000.0
 30
0.0
  0
VERTEX
  5
EABC256C949D35A9
100
AcDbEntity
  8
SIMPLE
  6
CONTINUOUS
100
AcDbVertex
100
AcDb2dVertex
 10
0.0
 20
-16000.0
 30
0.0
  0
SEQEND
  5
EABC256C949D35AA
100
AcDbEntity
  8
SIMPLE
  6
CONTINUOUS
  0
INSERT
  5
EABC256C949D35AB
100
AcDbEntity
  8
SIMPLE
  6
CONTINUOUS
100
AcDbBlockReference
 66
     1
  2
LE_YGR
 10
0.0
 20
0.0
 30
0.0
  0
ATTRIB
  5
EABC256C949D35AC
100
AcDbEntity
  8
SIMPLE
  6
CONTINUOUS
100
AcDbText
 10
3400.0
 20
-4000.0
 30
0.0
 40
200.0
  1
0
  7
SIMPLEX
100
AcDbAttribute
  2
index
 70
     0
  0
SEQEND
  5
EABC256C949D35AD
100
AcDbEntity
  8
SIMPLE
  6
CONTINUOUS
  0
INSERT
  5
EABC256C949D35AE
100
AcDbEntity
  8
SIMPLE
  6
CONTINUOUS
100
AcDbBlockReference
 66
     1
  2
LE_YGR
 10
0.0
 20
-1000.0
 30
0.0
  0
ATTRIB
  5
EABC256C949D35AF
100
AcDbEntity
  8
SIMPLE
  6
CONTINUOUS
100
AcDbText
 10
3400.0
 20
-5000.0
 30
0.0
 40
200.0
  1
1
  7
SIMPLEX
100
AcDbAttribute
  2
index
 70
     0
  0
SEQEND
  5
EABC256C949D35B0
100
AcDbEntity
  8
SIMPLE
  6
CONTINUOUS
  0
INSERT
  5
EABC256C949D35B1
100
AcDbEntity
  8
SIMPLE
  6
CONTINUOUS
100
AcDbBlockReference
 66
     1
  2
LE_YGR
 10
0.0
 20
-2000.0
 30
0.0
  0
ATTRIB
  5
EABC256C949D35B2
100
AcDbEntity
  8
SIMPLE
  6
CONTINUOUS
100
AcDbText
 10
3400.0
 20
-6000.0
 30
0.0
 40
200.0
  1
2
  7
SIMPLEX
100
AcDbAttribute
  2
index
 70
     0
  0
SEQEND
  5
EABC256C949D35B3
100
AcDbEntity
  8
SIMPLE
  6
CONTINUOUS
  0
INSERT
  5
EABC256C949D35B4
100
AcDbEntity
  8
SIMPLE
  6
CONTINUOUS
100
AcDbBlockReference
 66
     1
  2
LE_YGR
 10
0.0
 20
-3000.0
 30
0.0
  0
ATTRIB
  5
EABC256C949D35B5
100
AcDbEntity
  8
SIMPLE
  6
CONTINUOUS
100
AcDbText
 10
3400.0
 20
-7000.0
 30
0.0
 40
200.0
  1
3
  7
SIMPLEX
100
AcDbAttribute
  2
index
 70
     0
  0
SEQEND
  5
EABC256C949D35B6
100
AcDbEntity
  8
SIMPLE
  6
CONTINUOUS
  0
INSERT
  5
EABC256C949D35B7
100
AcDbEntity
  8
SIMPLE
  6
CONTINUOUS
100
AcDbBlockReference
 66
     1
  2
LE_YGR
 10
0.0
 20
-4000.0
 30
0.0
  0
ATTRIB
  5
EABC256C949D35B8
100
AcDbEntity
  8
SIMPLE
  6
CONTINUOUS
100
AcDbText
 10
3400.0
 20
-8000.0
 30
0.0
 40
200.0
  1
4
  7
SIMPLEX
100
AcDbAttribute
  2
index
 70
     0
  0
SEQEND
  5
EABC256C949D35B9
100
AcDbEntity
  8
SIMPLE
  6
CONTINUOUS
  0
INSERT
  5
EABC256C949D35BA
100
AcDbEntity
  8
SIMPLE
  6
CONTINUOUS
100
AcDbBlockReference
 66
     1
  2
LE_YGR
 10
0.0
 20
-5500.0
 30
0.0
  0
ATTRIB
  5
EABC256C949D35BB
100
AcDbEntity
  8
SIMPLE
  6
CONTINUOUS
100
AcDbText
 10
3400.0
 20
-9500.0
 30
0.0
 40
200.0
  1
5
  7
SIMPLEX
100
AcDbAttribute
  2
index
 70
     0
  0
SEQEND
  5
EABC256C949D35BC
100
AcDbEntity
  8
SIMPLE
  6
CONTINUOUS
  0
INSERT
  5
EABC256C949D35BD
100
AcDbEntity
  8
SIMPLE
  6
CONTINUOUS
100
AcDbBlockReference
 66
     1
  2
LE_YGR
 10
0.0
 20
-6500.0
 30
0.0
  0
ATTRIB
  5
EABC256C949D35BE
100
AcDbEntity
  8
SIMPLE
  6
CONTINUOUS
100
AcDbText
 10
3400.0
 20
-10500.0
 30
0.0
 40
200.0
  1
6
  7
SIMPLEX
100
AcDbAttribute
  2
index
 70
     0
  0
SEQEND
  5
EABC256C949D35BF
100
AcDbEntity
  8
SIMPLE
  6
CONTINUOUS
  0
INSERT
  5
EABC256C949D35C0
100
AcDbEntity
  8
SIMPLE
  6
CONTINUOUS
100
AcDbBlockReference
 66
     1
  2
LE_YGR
 10
0.0
 20
-7500.0
 30
0.0
  0
ATTRIB
  5
EABC256C949D35C1
100
AcDbEntity
  8
SIMPLE
  6
CONTINUOUS
100
AcDbText
 10
3400.0
 20
-11500.0
 30
0.0
 40
200.0
  1
7
  7
SIMPLEX
100
AcDbAttribute
  2
index
 70
     0
  0
SEQEND
  5
EABC256C949D35C2
100
AcDbEntity
  8
SIMPLE
  6
CONTINUOUS
  0
INSERT
  5
EABC256C949D35C3
100
AcDbEntity
  8
SIMPLE
  6
CONTINUOUS
100
AcDbBlockReference
 66
     1
  2
LE_YGR
 10
0.0
 20
-8500.0
 30
0.0
  0
ATTRIB
  5
EABC256C949D35C4
100
AcDbEntity
  8
SIMPLE
  6
CONTINUOUS
100
AcDbText
 10
3400.0
 20
-12500.0
 30
0.0
 40
200.0
  1
8
  7
SIMPLEX
100
AcDbAttribute
  2
index
 70
     0
  0
SEQEND
  5
EABC256C949D35C5
100
AcDbEntity
  8
SIMPLE
  6
CONTINUOUS
  0
INSERT
  5
EABC256C949D35C6
100
AcDbEntity
  8
SIMPLE
  6
CONTINUOUS
100
AcDbBlockReference
 66
     1
  2
LE_YGR
 10
0.0
 20
-9500.0
 30
0.0
  0
ATTRIB
  5
EABC256C949D35C7
100
AcDbEntity
  8
SIMPLE
  6
CONTINUOUS
100
AcDbText
 10
3400.0
 20
-13500.0
 30
0.0
 40
200.0
  1
9
  7
SIMPLEX
100
AcDbAttribute
  2
index
 70
     0
  0
SEQEND
  5
EABC256C949D35C8
100
AcDbEntity
  8
SIMPLE
  6
CONTINUOUS
  0
INSERT
  5
EABC256C949D35C9
100
AcDbEntity
  8
SIMPLE
  6
CONTINUOUS
100
AcDbBlockReference
  2
CARRY_MUX_5_TO_9_OUT_RIGHT
 10
0.0
 20
0.0
 30
0.0
  0
INSERT
  5
EABC256C949D35CA
100
AcDbEntity
  8
SIMPLE
  6
CONTINUOUS
100
AcDbBlockReference
  2
CARRY_MUX_5_TO_9_OUT_DOWN
 10
0.0
 20
0.0
 30
0.0
  0
INSERT
  5
EABC256C949D35CB
100
AcDbEntity
  8
SIMPLE
  6
CONTINUOUS
100
AcDbBlockReference
  2
CARRY_MUX_0_TO_4_OUT
 10
0.0
 20
0.0
 30
0.0
  0
INSERT
  5
EABC256C949D35CC
100
AcDbEntity
  8
SIMPLE
  6
CONTINUOUS
100
AcDbBlockReference
  2
CARRY_MUX_5_TO_9
 10
0.0
 20
0.0
 30
0.0
  0
INSERT
  5
EABC256C949D35D1
100
AcDbEntity
  8
SIMPLE
  6
CONTINUOUS
 62
     1
100
AcDbBlockReference
  2
ACV_GRID_SIZE_BLOCK
 10
3450.0
 20
-2150.0
 30
0.0
  0
ENDBLK
  5
EABC256C949D35D3
100
AcDbEntity
  8
SIMPLE
  6
CONTINUOUS
100
AcDbBlockEnd
  0
BLOCK
  5
EABC25593AD477FF
100
AcDbEntity
  8
SIMPLE
  6
CONTINUOUS
100
AcDbBlockBegin
  2
CARRY_MUX_5_TO_9_OUT_RIGHT
 70
     0
 10
0.0
 20
0.0
 30
0.0
  1

  0
POINT
  5
EABC25593AD477FE
100
AcDbEntity
  8
SIMPLE
  6
CONTINUOUS
100
AcDbPoint
 10
3200.0
 20
-14100.0
 30
0.0
  0
LINE
  5
EABC25593AD477FA
100
AcDbEntity
  8
SIMPLE
  6
CONTINUOUS
100
AcDbLine
 10
3200.0
 20
-14100.0
 30
0.0
 11
3200.0
 21
-14200.0
 31
0.0
  0
LINE
  5
EABC25593AD477F9
100
AcDbEntity
  8
SIMPLE
  6
CONTINUOUS
100
AcDbLine
 10
3200.0
 20
-14200.0
 30
0.0
 11
10700.0
 21
-14200.0
 31
0.0
  0
LINE
  5
EABC25593AD477F8
100
AcDbEntity
  8
SIMPLE
  6
CONTINUOUS
100
AcDbLine
 10
10700.0
 20
-14200.0
 30
0.0
 11
10700.0
 21
-8500.0
 31
0.0
  0
LINE
  5
EABC25593AD477F7
100
AcDbEntity
  8
SIMPLE
  6
CONTINUOUS
100
AcDbLine
 10
10700.0
 20
-8500.0
 30
0.0
 11
11050.0
 21
-8500.0
 31
0.0
  0
LINE
  5
EABC25593AD477FB
100
AcDbEntity
  8
SIMPLE
  6
CONTINUOUS
100
AcDbLine
 10
10800.0
 20
-3600.0
 30
0.0
 11
10800.0
 21
-8500.0
 31
0.0
  0
POLYLINE
  5
EABC25593AD477FD
100
AcDbEntity
  8
SIMPLE
  6
CONTINUOUS
100
AcDb2dPolyline
 66
     1
 10
0.0
 20
0.0
 30
0.0
 70
     1
  0
VERTEX
  5
EABC256C949D3564
100
AcDbEntity
  8
SIMPLE
  6
CONTINUOUS
100
AcDbVertex
100
AcDb2dVertex
 10
10790.0
 20
-8490.0
 30
0.0
  0
VERTEX
  5
EABC256C949D3565
100
AcDbEntity
  8
SIMPLE
  6
CONTINUOUS
100
AcDbVertex
100
AcDb2dVertex
 10
10810.0
 20
-8490.0
 30
0.0
  0
VERTEX
  5
EABC256C949D3566
100
AcDbEntity
  8
SIMPLE
  6
CONTINUOUS
100
AcDbVertex
100
AcDb2dVertex
 10
10810.0
 20
-8510.0
 30
0.0
  0
VERTEX
  5
EABC256C949D3567
100
AcDbEntity
  8
SIMPLE
  6
CONTINUOUS
100
AcDbVertex
100
AcDb2dVertex
 10
10790.0
 20
-8510.0
 30
0.0
  0
SEQEND
  5
EABC256C949D3568
100
AcDbEntity
  8
SIMPLE
  6
CONTINUOUS
  0
ENDBLK
  5
EABC25593AD47800
100
AcDbEntity
  8
SIMPLE
  6
CONTINUOUS
100
AcDbBlockEnd
  0
BLOCK
  5
EABC255A801AF942
100
AcDbEntity
  8
SIMPLE
  6
CONTINUOUS
100
AcDbBlockBegin
  2
CARRY_MUX_5_TO_9_OUT_DOWN
 70
     0
 10
0.0
 20
0.0
 30
0.0
  1

  0
LINE
  5
EABC255A801AF93D
100
AcDbEntity
  8
SIMPLE
  6
CONTINUOUS
100
AcDbLine
 10
3200.0
 20
-14100.0
 30
0.0
 11
3200.0
 21
-14200.0
 31
0.0
  0
POINT
  5
EABC255A801AF941
100
AcDbEntity
  8
SIMPLE
  6
CONTINUOUS
100
AcDbPoint
 10
3200.0
 20
-14100.0
 30
0.0
  0
LINE
  5
EABC255A801AF93E
100
AcDbEntity
  8
SIMPLE
  6
CONTINUOUS
100
AcDbLine
 10
3200.0
 20
-14200.0
 30
0.0
 11
2800.0
 21
-14200.0
 31
0.0
  0
LINE
  5
EABC255A801AF93F
100
AcDbEntity
  8
SIMPLE
  6
CONTINUOUS
100
AcDbLine
 10
2800.0
 20
-14200.0
 30
0.0
 11
2800.0
 21
-24500.0
 31
0.0
  0
LINE
  5
EABC255A801AF940
100
AcDbEntity
  8
SIMPLE
  6
CONTINUOUS
100
AcDbLine
 10
2800.0
 20
-24500.0
 30
0.0
 11
3050.0
 21
-24500.0
 31
0.0
  0
ENDBLK
  5
EABC255A801AF943
100
AcDbEntity
  8
SIMPLE
  6
CONTINUOUS
100
AcDbBlockEnd
  0
BLOCK
  5
EABC25623FC080E9
100
AcDbEntity
  8
SIMPLE
  6
CONTINUOUS
100
AcDbBlockBegin
  2
CARRY_MUX_0_TO_4_OUT
 70
    64
 10
0.0
 20
0.0
 30
0.0
  1

  0
LINE
  5
EABC25623FC080E6
100
AcDbEntity
  8
SIMPLE
  6
CONTINUOUS
100
AcDbLine
 10
3100.0
 20
-8300.0
 30
0.0
 11
3100.0
 21
-8400.0
 31
0.0
  0
LINE
  5
EABC25623FC080E8
100
AcDbEntity
  8
SIMPLE
  6
CONTINUOUS
100
AcDbLine
 10
3300.0
 20
-8300.0
 30
0.0
 11
3300.0
 21
-8400.0
 31
0.0
  0
POLYLINE
  5
EABC25623FC080DB
100
AcDbEntity
  8
SIMPLE
  6
CONTINUOUS
100
AcDb2dPolyline
 66
     1
 10
0.0
 20
0.0
 30
0.0
 70
     1
  0
VERTEX
  5
EABC25623FC080DC
100
AcDbEntity
  8
SIMPLE
  6
CONTINUOUS
100
AcDbVertex
100
AcDb2dVertex
 10
3000.0
 20
-8400.0
 30
0.0
  0
VERTEX
  5
EABC25623FC080DD
100
AcDbEntity
  8
SIMPLE
  6
CONTINUOUS
100
AcDbVertex
100
AcDb2dVertex
 10
3100.0
 20
-8600.0
 30
0.0
  0
VERTEX
  5
EABC25623FC080DE
100
AcDbEntity
  8
SIMPLE
  6
CONTINUOUS
100
AcDbVertex
100
AcDb2dVertex
 10
3300.0
 20
-8600.0
 30
0.0
  0
VERTEX
  5
EABC25623FC080DF
100
AcDbEntity
  8
SIMPLE
  6
CONTINUOUS
100
AcDbVertex
100
AcDb2dVertex
 10
3400.0
 20
-8400.0
 30
0.0
  0
VERTEX
  5
EABC25623FC080E0
100
AcDbEntity
  8
SIMPLE
  6
CONTINUOUS
100
AcDbVertex
100
AcDb2dVertex
 10
3000.0
 20
-8400.0
 30
0.0
  0
SEQEND
  5
EABC25623FC080E1
100
AcDbEntity
  8
SIMPLE
  6
CONTINUOUS
  0
POINT
  5
EABC25623FC080E2
100
AcDbEntity
  8
SIMPLE
  6
CONTINUOUS
100
AcDbPoint
 10
3200.0
 20
-8600.0
 30
0.0
  0
LINE
  5
EABC25623FC080E4
100
AcDbEntity
  8
SIMPLE
  6
CONTINUOUS
100
AcDbLine
 10
3200.0
 20
-8600.0
 30
0.0
 11
3200.0
 21
-8700.0
 31
0.0
  0
LINE
  5
EABC25623FC080E3
100
AcDbEntity
  8
SIMPLE
  6
CONTINUOUS
100
AcDbLine
 10
3200.0
 20
-8700.0
 30
0.0
 11
2800.0
 21
-8700.0
 31
0.0
  0
LINE
  5
EABC25623FC080E5
100
AcDbEntity
  8
SIMPLE
  6
CONTINUOUS
100
AcDbLine
 10
2800.0
 20
-8700.0
 30
0.0
 11
2800.0
 21
-14000.0
 31
0.0
  0
LINE
  5
EABC25623FC0801A
100
AcDbEntity
  8
SIMPLE
  6
CONTINUOUS
100
AcDbLine
 10
2800.0
 20
-14000.0
 30
0.0
 11
3050.0
 21
-14000.0
 31
0.0
  0
ENDBLK
  5
EABC25623FC080EB
100
AcDbEntity
  8
SIMPLE
  6
CONTINUOUS
100
AcDbBlockEnd
  0
BLOCK
  5
EABC256C949D35CE
100
AcDbEntity
  8
SIMPLE
  6
CONTINUOUS
 62
     1
100
AcDbBlockBegin
  2
ACV_GRID_SIZE_BLOCK
 70
    64
 10
0.0
 20
0.0
 30
0.0
  1

  0
POLYLINE
  5
EABC256C949D3576
100
AcDbEntity
  8
SIMPLE
  6
CONTINUOUS
 62
     1
100
AcDb2dPolyline
 66
     1
 10
0.0
 20
0.0
 30
0.0
 70
     1
  0
VERTEX
  5
EABC256C949D3577
100
AcDbEntity
  8
SIMPLE
  6
CONTINUOUS
 62
     1
100
AcDbVertex
100
AcDb2dVertex
 10
-3450.0
 20
2150.0
 30
0.0
  0
VERTEX
  5
EABC256C949D3578
100
AcDbEntity
  8
SIMPLE
  6
CONTINUOUS
 62
     1
100
AcDbVertex
100
AcDb2dVertex
 10
4550.0
 20
2150.0
 30
0.0
  0
VERTEX
  5
EABC256C949D3579
100
AcDbEntity
  8
SIMPLE
  6
CONTINUOUS
 62
     1
100
AcDbVertex
100
AcDb2dVertex
 10
4550.0
 20
-13850.0
 30
0.0
  0
VERTEX
  5
EABC256C949D357A
100
AcDbEntity
  8
SIMPLE
  6
CONTINUOUS
 62
     1
100
AcDbVertex
100
AcDb2dVertex
 10
-3450.0
 20
-13850.0
 30
0.0
  0
SEQEND
  5
EABC256C949D357B
100
AcDbEntity
  8
SIMPLE
  6
CONTINUOUS
 62
     1
  0
ENDBLK
  5
EABC256C949D35D0
100
AcDbEntity
  8
SIMPLE
  6
CONTINUOUS
 62
     1
100
AcDbBlockEnd
  0
ENDSEC
  0
SECTION
  2
ENTITIES
  0
INSERT
  5
EABC256C949D35D4
100
AcDbEntity
  8
SIMPLE
  6
CONTINUOUS
100
AcDbBlockReference
  2
LAB_YGR
 10
0.0
 20
0.0
 30
0.0
  0
ENDSEC
  0
SECTION
  2
OBJECTS
  0
DICTIONARY
  5
C
100
AcDbDictionary
  3
ACAD_GROUP
350
D
  3
ACAD_MLINESTYLE
350
1B
  0
DICTIONARY
  5
D
102
{ACAD_REACTORS
330
C
102
}
100
AcDbDictionary
  0
DICTIONARY
  5
1B
102
{ACAD_REACTORS
330
C
102
}
100
AcDbDictionary
  3
STANDARD
350
1C
  0
MLINESTYLE
  5
1C
102
{ACAD_REACTORS
330
1B
102
}
100
AcDbMlineStyle
  2
STANDARD
 70
     0
  3

 62
   256
 51
90.0
 52
90.0
 71
     2
 49
0.5
 62
   256
  6
BYLAYER
 49
-0.5
 62
   256
  6
BYLAYER
  0
ENDSEC
  0
EOF
