  0
SECTION
  2
HEADER
  9
$ACADVER
  1
AC1014
  9
$ACADMAINTVER
 70
     0
  9
$DWGCODEPAGE
  3
ANSI_1252
  9
$INSBASE
 10
0.0
 20
0.0
 30
0.0
  9
$EXTMIN
 10
-104.0
 20
-608.166667
 30
0.0
  9
$EXTMAX
 10
1258.666667
 20
143.5
 30
2.0
  9
$LIMMIN
 10
0.0
 20
0.0
  9
$LIMMAX
 10
12.0
 20
9.0
  9
$ORTHOMODE
 70
     0
  9
$REGENMODE
 70
     1
  9
$FILLMODE
 70
     1
  9
$QTEXTMODE
 70
     0
  9
$MIRRTEXT
 70
     1
  9
$DRAGMODE
 70
     2
  9
$LTSCALE
 40
1.0
  9
$OSMODE
 70
     0
  9
$ATTMODE
 70
     1
  9
$TEXTSIZE
 40
0.2
  9
$TRACEWID
 40
0.05
  9
$TEXTSTYLE
  7
SIMPLEX
  9
$CLAYER
  8
DETAIL_MEDIUM
  9
$CELTYPE
  6
CONTINUOUS
  9
$CECOLOR
 62
   256
  9
$CELTSCALE
 40
1.0
  9
$DELOBJ
 70
     1
  9
$DISPSILH
 70
     0
  9
$DIMSCALE
 40
1.0
  9
$DIMASZ
 40
0.18
  9
$DIMEXO
 40
0.0625
  9
$DIMDLI
 40
0.38
  9
$DIMRND
 40
0.0
  9
$DIMDLE
 40
0.0
  9
$DIMEXE
 40
0.18
  9
$DIMTP
 40
0.0
  9
$DIMTM
 40
0.0
  9
$DIMTXT
 40
0.18
  9
$DIMCEN
 40
0.09
  9
$DIMTSZ
 40
0.0
  9
$DIMTOL
 70
     0
  9
$DIMLIM
 70
     0
  9
$DIMTIH
 70
     1
  9
$DIMTOH
 70
     1
  9
$DIMSE1
 70
     0
  9
$DIMSE2
 70
     0
  9
$DIMTAD
 70
     0
  9
$DIMZIN
 70
     0
  9
$DIMBLK
  1

  9
$DIMASO
 70
     1
  9
$DIMSHO
 70
     1
  9
$DIMPOST
  1

  9
$DIMAPOST
  1

  9
$DIMALT
 70
     0
  9
$DIMALTD
 70
     2
  9
$DIMALTF
 40
25.4
  9
$DIMLFAC
 40
1.0
  9
$DIMTOFL
 70
     0
  9
$DIMTVP
 40
0.0
  9
$DIMTIX
 70
     0
  9
$DIMSOXD
 70
     0
  9
$DIMSAH
 70
     0
  9
$DIMBLK1
  1

  9
$DIMBLK2
  1

  9
$DIMSTYLE
  2
STANDARD
  9
$DIMCLRD
 70
     0
  9
$DIMCLRE
 70
     0
  9
$DIMCLRT
 70
     0
  9
$DIMTFAC
 40
1.0
  9
$DIMGAP
 40
0.09
  9
$DIMJUST
 70
     0
  9
$DIMSD1
 70
     0
  9
$DIMSD2
 70
     0
  9
$DIMTOLJ
 70
     1
  9
$DIMTZIN
 70
     0
  9
$DIMALTZ
 70
     0
  9
$DIMALTTZ
 70
     0
  9
$DIMFIT
 70
     3
  9
$DIMUPT
 70
     0
  9
$DIMUNIT
 70
     2
  9
$DIMDEC
 70
     4
  9
$DIMTDEC
 70
     4
  9
$DIMALTU
 70
     2
  9
$DIMALTTD
 70
     2
  9
$DIMTXSTY
  7
STANDARD
  9
$DIMAUNIT
 70
     0
  9
$LUNITS
 70
     2
  9
$LUPREC
 70
     4
  9
$SKETCHINC
 40
0.1
  9
$FILLETRAD
 40
0.5
  9
$AUNITS
 70
     0
  9
$AUPREC
 70
     0
  9
$MENU
  1
.
  9
$ELEVATION
 40
0.0
  9
$PELEVATION
 40
0.0
  9
$THICKNESS
 40
0.0
  9
$LIMCHECK
 70
     0
  9
$BLIPMODE
 70
     0
  9
$CHAMFERA
 40
0.5
  9
$CHAMFERB
 40
0.5
  9
$CHAMFERC
 40
1.0
  9
$CHAMFERD
 40
0.0
  9
$SKPOLY
 70
     0
  9
$TDCREATE
 40
2453066.6602082755
  9
$TDUPDATE
 40
2453928.5426157406
  9
$TDINDWG
 40
0.233611111111
  9
$TDUSRTIMER
 40
0.233611111111
  9
$USRTIMER
 70
     1
  9
$ANGBASE
 50
0.0
  9
$ANGDIR
 70
     0
  9
$PDMODE
 70
    35
  9
$PDSIZE
 40
5.0
  9
$PLINEWID
 40
0.0
  9
$COORDS
 70
     1
  9
$SPLFRAME
 70
     0
  9
$SPLINETYPE
 70
     6
  9
$SPLINESEGS
 70
     8
  9
$ATTDIA
 70
     0
  9
$ATTREQ
 70
     1
  9
$HANDLING
 70
     1
  9
$HANDSEED
  5
DF3414B25834E866
  9
$SURFTAB1
 70
     6
  9
$SURFTAB2
 70
     6
  9
$SURFTYPE
 70
     6
  9
$SURFU
 70
     6
  9
$SURFV
 70
     6
  9
$UCSNAME
  2

  9
$UCSORG
 10
0.0
 20
0.0
 30
0.0
  9
$UCSXDIR
 10
1.0
 20
0.0
 30
0.0
  9
$UCSYDIR
 10
0.0
 20
1.0
 30
0.0
  9
$PUCSNAME
  2

  9
$PUCSORG
 10
0.0
 20
0.0
 30
0.0
  9
$PUCSXDIR
 10
1.0
 20
0.0
 30
0.0
  9
$PUCSYDIR
 10
0.0
 20
1.0
 30
0.0
  9
$USERI1
 70
     0
  9
$USERI2
 70
     0
  9
$USERI3
 70
     0
  9
$USERI4
 70
     0
  9
$USERI5
 70
     0
  9
$USERR1
 40
0.0
  9
$USERR2
 40
0.0
  9
$USERR3
 40
0.0
  9
$USERR4
 40
0.0
  9
$USERR5
 40
0.0
  9
$WORLDVIEW
 70
     1
  9
$SHADEDGE
 70
     3
  9
$SHADEDIF
 70
    70
  9
$TILEMODE
 70
     1
  9
$MAXACTVP
 70
    48
  9
$PINSBASE
 10
0.0
 20
0.0
 30
0.0
  9
$PLIMCHECK
 70
     0
  9
$PEXTMIN
 10
1.000000E+020
 20
1.000000E+020
 30
1.000000E+020
  9
$PEXTMAX
 10
-1.000000E+020
 20
-1.000000E+020
 30
-1.000000E+020
  9
$PLIMMIN
 10
0.0
 20
0.0
  9
$PLIMMAX
 10
12.0
 20
9.0
  9
$UNITMODE
 70
     0
  9
$VISRETAIN
 70
     1
  9
$PLINEGEN
 70
     0
  9
$PSLTSCALE
 70
     1
  9
$TREEDEPTH
 70
  3020
  9
$PICKSTYLE
 70
     1
  9
$CMLSTYLE
  2
STANDARD
  9
$CMLJUST
 70
     0
  9
$CMLSCALE
 40
1.0
  9
$PROXYGRAPHICS
 70
     1
  9
$MEASUREMENT
 70
     0
  0
ENDSEC
  0
SECTION
  2
CLASSES
  0
CLASS
  1
LWPOLYLINE
  2
AcDbPolyline
  3
"AutoCAD"
 90
        0
280
     0
281
     1
  0
ENDSEC
  0
SECTION
  2
TABLES
  0
TABLE
  2
VPORT
  5
8
100
AcDbSymbolTable
 70
     1
  0
VPORT
  5
37
100
AcDbSymbolTableRecord
100
AcDbViewportTableRecord
  2
*ACTIVE
 70
     0
 10
0.0
 20
0.0
 11
1.0
 21
1.0
 12
619.92422
 22
-233.697344
 13
0.0
 23
0.0
 14
1.0
 24
1.0
 15
1.0
 25
1.0
 16
0.0
 26
0.0
 36
1.0
 17
0.0
 27
0.0
 37
0.0
 40
1069.863921
 41
1.418935
 42
50.0
 43
0.0
 44
0.0
 50
0.0
 51
0.0
 71
     0
 72
   100
 73
     1
 74
     1
 75
     1
 76
     1
 77
     0
 78
     0
  0
ENDTAB
  0
TABLE
  2
LTYPE
  5
5
100
AcDbSymbolTable
 70
     2
  0
LTYPE
  5
12
100
AcDbSymbolTableRecord
100
AcDbLinetypeTableRecord
  2
BYBLOCK
 70
     0
  3

 72
    65
 73
     0
 40
0.0
  0
LTYPE
  5
13
100
AcDbSymbolTableRecord
100
AcDbLinetypeTableRecord
  2
BYLAYER
 70
     0
  3

 72
    65
 73
     0
 40
0.0
  0
LTYPE
  5
14
100
AcDbSymbolTableRecord
100
AcDbLinetypeTableRecord
  2
CONTINUOUS
 70
     0
  3
Solid line
 72
    65
 73
     0
 40
0.0
  0
LTYPE
  5
2A422EFD12C
100
AcDbSymbolTableRecord
100
AcDbLinetypeTableRecord
  2
DETAIL_1
 70
     0
  3
Solid line
 72
    65
 73
     2
 40
6.0
 49
5.0
 74
     0
 49
-1.0
 74
     0
  0
ENDTAB
  0
TABLE
  2
LAYER
  5
2
100
AcDbSymbolTable
 70
     6
  0
LAYER
  5
E
100
AcDbSymbolTableRecord
100
AcDbLayerTableRecord
  2
DETAIL_HIGH
 70
     0
 62
   101
  6
CONTINUOUS
  0
LAYER
  5
541
100
AcDbSymbolTableRecord
100
AcDbLayerTableRecord
  2
COMMENT
 70
     0
 62
   254
  6
CONTINUOUS
  0
LAYER
  5
1DAE4
100
AcDbSymbolTableRecord
100
AcDbLayerTableRecord
  2
DETAIL_MEDIUM
 70
     0
 62
   182
  6
CONTINUOUS
  0
LAYER
  5
15543B5
100
AcDbSymbolTableRecord
100
AcDbLayerTableRecord
  2
DETAIL_LOWEST
 70
     0
 62
   143
  6
CONTINUOUS
  0
LAYER
  5
DF2FB97E2E1C53EE
100
AcDbSymbolTableRecord
100
AcDbLayerTableRecord
  2
PORTS
 70
     0
 62
   188
  6
CONTINUOUS
  0
LAYER
  5
DF2FCAEAB671269E
100
AcDbSymbolTableRecord
100
AcDbLayerTableRecord
  2
NON_DDR
 70
     0
 62
   240
  6
CONTINUOUS
  0
ENDTAB
  0
TABLE
  2
STYLE
  5
3
100
AcDbSymbolTable
 70
     8
  0
STYLE
  5
F
100
AcDbSymbolTableRecord
100
AcDbTextStyleTableRecord
  2
STANDARD
 70
     0
 40
0.0
 41
1.0
 50
0.0
 71
     0
 42
0.2
  3
txt.shx
  4

  0
STYLE
  5
21
100
AcDbSymbolTableRecord
100
AcDbTextStyleTableRecord
  2
COMPLEX
 70
     0
 40
0.0
 41
1.0
 50
0.0
 71
     0
 42
0.2
  3
complex
  4

  0
STYLE
  5
22
100
AcDbSymbolTableRecord
100
AcDbTextStyleTableRecord
  2
ITALIC
 70
     0
 40
0.0
 41
1.0
 50
0.0
 71
     0
 42
0.2
  3
italic
  4

  0
STYLE
  5
23
100
AcDbSymbolTableRecord
100
AcDbTextStyleTableRecord
  2
ROMANC
 70
     0
 40
0.0
 41
1.0
 50
0.0
 71
     0
 42
0.2
  3
romanc
  4

  0
STYLE
  5
24
100
AcDbSymbolTableRecord
100
AcDbTextStyleTableRecord
  2
SIMPLEX
 70
     0
 40
0.0
 41
1.0
 50
0.0
 71
     0
 42
0.2
  3
simplex
  4

  0
STYLE
  5
34
100
AcDbSymbolTableRecord
100
AcDbTextStyleTableRecord
  2

 70
     1
 40
0.0
 41
1.0
 50
0.0
 71
     0
 42
0.2
  3
ltypeshp.shx
  4

  0
STYLE
  5
38
100
AcDbSymbolTableRecord
100
AcDbTextStyleTableRecord
  2
ARIAL
 70
     0
 40
0.0
 41
1.0
 50
0.0
 71
     0
 42
0.2
  3

  4

1001
ACAD
1000
Arial
1071
       34
  0
STYLE
  5
39
100
AcDbSymbolTableRecord
100
AcDbTextStyleTableRecord
  2
TIMES_NEW_ROMAN
 70
     0
 40
0.0
 41
1.0
 50
0.0
 71
     0
 42
0.2
  3

  4

1001
ACAD
1000
Times New Roman
1071
       18
  0
ENDTAB
  0
TABLE
  2
VIEW
  5
6
100
AcDbSymbolTable
 70
     0
  0
ENDTAB
  0
TABLE
  2
UCS
  5
7
100
AcDbSymbolTable
 70
     0
  0
ENDTAB
  0
TABLE
  2
APPID
  5
9
100
AcDbSymbolTable
 70
     1
  0
APPID
  5
10
100
AcDbSymbolTableRecord
100
AcDbRegAppTableRecord
  2
ACAD
 70
     0
  0
ENDTAB
  0
TABLE
  2
DIMSTYLE
  5
A
100
AcDbSymbolTable
 70
     1
  0
DIMSTYLE
105
1D
100
AcDbSymbolTableRecord
100
AcDbDimStyleTableRecord
  2
STANDARD
 70
     0
  3

  4

  5

  6

  7

 40
1.0
 41
0.18
 42
0.0625
 43
0.38
 44
0.18
 45
0.0
 46
0.0
 47
0.0
 48
0.0
140
0.18
141
0.09
142
0.0
143
25.4
144
1.0
145
0.0
146
1.0
147
0.09
 71
     0
 72
     0
 73
     1
 74
     1
 75
     0
 76
     0
 77
     0
 78
     0
170
     0
171
     2
172
     0
173
     0
174
     0
175
     0
176
     0
177
     0
178
     0
270
     2
271
     4
272
     4
273
     2
274
     2
340
F
275
     0
280
     0
281
     0
282
     0
283
     1
284
     0
285
     0
286
     0
287
     3
288
     0
  0
ENDTAB
  0
TABLE
  2
BLOCK_RECORD
  5
1
100
AcDbSymbolTable
 70
    56
  0
BLOCK_RECORD
  5
18
100
AcDbSymbolTableRecord
100
AcDbBlockTableRecord
  2
*MODEL_SPACE
  0
BLOCK_RECORD
  5
15
100
AcDbSymbolTableRecord
100
AcDbBlockTableRecord
  2
*PAPER_SPACE
  0
BLOCK_RECORD
  5
DF3414A0433263E6
100
AcDbSymbolTableRecord
100
AcDbBlockTableRecord
  2
IO_CYC_SCLR
  0
BLOCK_RECORD
  5
DF3414A0433263EC
100
AcDbSymbolTableRecord
100
AcDbBlockTableRecord
  2
IO_CYC_REG_SYNC
  0
BLOCK_RECORD
  5
DF3414A0433263F0
100
AcDbSymbolTableRecord
100
AcDbBlockTableRecord
  2
IO_CYC_REG_ASYNC
  0
BLOCK_RECORD
  5
DF3414A0433263F4
100
AcDbSymbolTableRecord
100
AcDbBlockTableRecord
  2
IO_CYC_REGISTER
  0
BLOCK_RECORD
  5
DF3414A04332641E
100
AcDbSymbolTableRecord
100
AcDbBlockTableRecord
  2
IO_CYC_DELAY_CHAIN
  0
BLOCK_RECORD
  5
DF3414A04332643A
100
AcDbSymbolTableRecord
100
AcDbBlockTableRecord
  2
IO_CYC_OE
  0
BLOCK_RECORD
  5
DF3414A043326440
100
AcDbSymbolTableRecord
100
AcDbBlockTableRecord
  2
IO_CYC_OE_MUX
  0
BLOCK_RECORD
  5
DF3414A043326444
100
AcDbSymbolTableRecord
100
AcDbBlockTableRecord
  2
IO_CYC_BUFFER
  0
BLOCK_RECORD
  5
DF3414A043326448
100
AcDbSymbolTableRecord
100
AcDbBlockTableRecord
  2
IO_CYC_PAD
  0
BLOCK_RECORD
  5
DF3414A043326456
100
AcDbSymbolTableRecord
100
AcDbBlockTableRecord
  2
IO_CYC_COMBOUT
  0
BLOCK_RECORD
  5
DF3414A04332645C
100
AcDbSymbolTableRecord
100
AcDbBlockTableRecord
  2
IO_CYC_REGOUT
  0
BLOCK_RECORD
  5
DF3414A043326466
100
AcDbSymbolTableRecord
100
AcDbBlockTableRecord
  2
IO_CYC_REG_2_BYPASS
  0
BLOCK_RECORD
  5
DF3414A043326494
100
AcDbSymbolTableRecord
100
AcDbBlockTableRecord
  2
IO_CYC_CLK_IN
  0
BLOCK_RECORD
  5
DF3414A04332649A
100
AcDbSymbolTableRecord
100
AcDbBlockTableRecord
  2
IO_CYC_CE_IN
  0
BLOCK_RECORD
  5
DF3414A0433264A0
100
AcDbSymbolTableRecord
100
AcDbBlockTableRecord
  2
IO_CYC_REG_2_USED
  0
BLOCK_RECORD
  5
DF3414A043326509
100
AcDbSymbolTableRecord
100
AcDbBlockTableRecord
  2
IO_CYC_DIN_MUX
  0
BLOCK_RECORD
  5
DF3414A04332650D
100
AcDbSymbolTableRecord
100
AcDbBlockTableRecord
  2
IO_CYC_DIN
  0
BLOCK_RECORD
  5
DF3414A04332652B
100
AcDbSymbolTableRecord
100
AcDbBlockTableRecord
  2
IO_CYC_DIN_REG_USED
  0
BLOCK_RECORD
  5
DF3414A04332652F
100
AcDbSymbolTableRecord
100
AcDbBlockTableRecord
  2
IO_CYC_DIN_REG_SKIPPED
  0
BLOCK_RECORD
  5
DF3414A04332653A
100
AcDbSymbolTableRecord
100
AcDbBlockTableRecord
  2
IO_CYC_CLK_OUT
  0
BLOCK_RECORD
  5
DF3414A043326540
100
AcDbSymbolTableRecord
100
AcDbBlockTableRecord
  2
IO_CYC_CE_OUT
  0
BLOCK_RECORD
  5
DF3414A043326546
100
AcDbSymbolTableRecord
100
AcDbBlockTableRecord
  2
IO_CYC_ACLR
  0
BLOCK_RECORD
  5
DF3414A04332654C
100
AcDbSymbolTableRecord
100
AcDbBlockTableRecord
  2
IO_CYC_ACLR_TO_REG_0
  0
BLOCK_RECORD
  5
DF3414A043326550
100
AcDbSymbolTableRecord
100
AcDbBlockTableRecord
  2
IO_CYC_ACLR_TO_REG_1_OR_2
  0
BLOCK_RECORD
  5
DF3414A043326554
100
AcDbSymbolTableRecord
100
AcDbBlockTableRecord
  2
IO_CYC_ACLR_TO_REG_1
  0
BLOCK_RECORD
  5
DF3414A043326558
100
AcDbSymbolTableRecord
100
AcDbBlockTableRecord
  2
IO_CYC_ACLR_TO_REG_2
  0
BLOCK_RECORD
  5
DF3414A04332655C
100
AcDbSymbolTableRecord
100
AcDbBlockTableRecord
  2
IO_CYC_SCLR_TO_REG_1_OR_2
  0
BLOCK_RECORD
  5
DF3414A043326563
100
AcDbSymbolTableRecord
100
AcDbBlockTableRecord
  2
IO_CYC_SCLR_TO_REG_1
  0
BLOCK_RECORD
  5
DF3414A043326567
100
AcDbSymbolTableRecord
100
AcDbBlockTableRecord
  2
IO_CYC_SCLR_TO_REG_2
  0
BLOCK_RECORD
  5
DF3414A04332656B
100
AcDbSymbolTableRecord
100
AcDbBlockTableRecord
  2
IO_CYC_SCLR_TO_REG_0
  0
BLOCK_RECORD
  5
DF3414A0433266BD
100
AcDbSymbolTableRecord
100
AcDbBlockTableRecord
  2
IO_CYC_REG_0_USED
  0
BLOCK_RECORD
  5
DF3414A0433266C1
100
AcDbSymbolTableRecord
100
AcDbBlockTableRecord
  2
IO_CYC_REG_0_SKIPPED
  0
BLOCK_RECORD
  5
DF3414A043327866
100
AcDbSymbolTableRecord
100
AcDbBlockTableRecord
  2
IO_CYC_REGOUT_USED
  0
BLOCK_RECORD
  5
DF3414A04332786F
100
AcDbSymbolTableRecord
100
AcDbBlockTableRecord
  2
IO_CYC_COMBOUT_OR_CLOCK_USED
  0
BLOCK_RECORD
  5
DF3414A0433278CA
100
AcDbSymbolTableRecord
100
AcDbBlockTableRecord
  2
IO_CYC
  0
BLOCK_RECORD
  5
DF3414A04344CD86
100
AcDbSymbolTableRecord
100
AcDbBlockTableRecord
  2
IO_CYC_COMBOUT_WIRE
  0
BLOCK_RECORD
  5
DF3414A0435736CF
100
AcDbSymbolTableRecord
100
AcDbBlockTableRecord
  2
IO_CYC_REGOUT_MUX
  0
BLOCK_RECORD
  5
DF3414A0437C090D
100
AcDbSymbolTableRecord
100
AcDbBlockTableRecord
  2
IO_CYC_REG_2_USED_WIRE
  0
BLOCK_RECORD
  5
DF3414A043C5ADA0
100
AcDbSymbolTableRecord
100
AcDbBlockTableRecord
  2
IO_CYC_CLK_IN_WIRE
  0
BLOCK_RECORD
  5
DF3414A04458F6C0
100
AcDbSymbolTableRecord
100
AcDbBlockTableRecord
  2
IO_CYC_CE_IN_WIRE
  0
BLOCK_RECORD
  5
DF3414A04576435A
100
AcDbSymbolTableRecord
100
AcDbBlockTableRecord
  2
IO_CYC_OE_MUX_WIRE
  0
BLOCK_RECORD
  5
DF3414A04C3D3E96
100
AcDbSymbolTableRecord
100
AcDbBlockTableRecord
  2
IO_CYC_DIN_MUX_WIRE
  0
BLOCK_RECORD
  5
DF3414A05548167C
100
AcDbSymbolTableRecord
100
AcDbBlockTableRecord
  2
IO_CYC_REG_0_USED_WIRE
  0
BLOCK_RECORD
  5
DF3414A0675CA059
100
AcDbSymbolTableRecord
100
AcDbBlockTableRecord
  2
IO_CYC_DIN_REG_USED_WIRE
  0
BLOCK_RECORD
  5
DF3414A08B86DCE4
100
AcDbSymbolTableRecord
100
AcDbBlockTableRecord
  2
IO_CYC_SCLR_WIRE
  0
BLOCK_RECORD
  5
DF3414A0D3DB0C73
100
AcDbSymbolTableRecord
100
AcDbBlockTableRecord
  2
IO_CYC_OE_WIRE
  0
BLOCK_RECORD
  5
DF3414A16483B3B8
100
AcDbSymbolTableRecord
100
AcDbBlockTableRecord
  2
IO_CYC_ACLR_WIRE
  0
BLOCK_RECORD
  5
DF3414A285D50255
100
AcDbSymbolTableRecord
100
AcDbBlockTableRecord
  2
IO_CYC_DIN_WIRE
  0
BLOCK_RECORD
  5
DF3414A4C8779F8D
100
AcDbSymbolTableRecord
100
AcDbBlockTableRecord
  2
IO_CYC_CLK_OUT_WIRE1
  0
BLOCK_RECORD
  5
DF3414A4C8779F91
100
AcDbSymbolTableRecord
100
AcDbBlockTableRecord
  2
IO_CYC_CLK_OUT_WIRE2
  0
BLOCK_RECORD
  5
DF3414A4C8779F95
100
AcDbSymbolTableRecord
100
AcDbBlockTableRecord
  2
IO_CYC_CLK_OUT_WIRE3
  0
BLOCK_RECORD
  5
DF3414A94DBCDA07
100
AcDbSymbolTableRecord
100
AcDbBlockTableRecord
  2
IO_CYC_CE_OUT_WIRE1
  0
BLOCK_RECORD
  5
DF3414A94DBCDA0B
100
AcDbSymbolTableRecord
100
AcDbBlockTableRecord
  2
IO_CYC_CE_OUT_WIRE2
  0
BLOCK_RECORD
  5
DF3414A94DBCDA0F
100
AcDbSymbolTableRecord
100
AcDbBlockTableRecord
  2
IO_CYC_CE_OUT_WIRE3
  0
BLOCK_RECORD
  5
DF3414A94DBCDADF
100
AcDbSymbolTableRecord
100
AcDbBlockTableRecord
  2
IO_CYC_BYPASS_DELAY_CHAIN_WIRE
  0
BLOCK_RECORD
  5
DF3414B25834E85E
100
AcDbSymbolTableRecord
100
AcDbBlockTableRecord
  2
IO_CYC_COMBOUT_PORT
  0
ENDTAB
  0
ENDSEC
  0
SECTION
  2
BLOCKS
  0
BLOCK
  5
19
100
AcDbEntity
  8
DETAIL_HIGH
100
AcDbBlockBegin
  2
*MODEL_SPACE
 70
     0
 10
0.0
 20
0.0
 30
0.0
  3
*MODEL_SPACE
  1

  0
ENDBLK
  5
1A
100
AcDbEntity
  8
DETAIL_HIGH
100
AcDbBlockEnd
  0
BLOCK
  5
16
100
AcDbEntity
 67
     1
  8
DETAIL_HIGH
100
AcDbBlockBegin
  2
*PAPER_SPACE
 70
     0
 10
0.0
 20
0.0
 30
0.0
  3
*PAPER_SPACE
  1

  0
ENDBLK
  5
17
100
AcDbEntity
 67
     1
  8
DETAIL_HIGH
100
AcDbBlockEnd
  0
BLOCK
  5
DF3414A08B86DCDE
100
AcDbEntity
  8
PORTS
  6
CONTINUOUS
100
AcDbBlockBegin
  2
IO_CYC_SCLR
 70
     2
 10
0.0
 20
0.0
 30
0.0
  1

  0
POLYLINE
  5
DF3414A08B86DCD3
100
AcDbEntity
  8
PORTS
  6
CONTINUOUS
100
AcDb2dPolyline
 66
     1
 10
0.0
 20
0.0
 30
0.0
 70
     1
  0
VERTEX
  5
DF3414A08B86DCD4
100
AcDbEntity
  8
PORTS
  6
CONTINUOUS
100
AcDbVertex
100
AcDb2dVertex
 10
80.0
 20
-10.0
 30
0.0
  0
VERTEX
  5
DF3414A08B86DCD5
100
AcDbEntity
  8
PORTS
  6
CONTINUOUS
100
AcDbVertex
100
AcDb2dVertex
 10
72.0
 20
-16.0
 30
0.0
  0
VERTEX
  5
DF3414A08B86DCD6
100
AcDbEntity
  8
PORTS
  6
CONTINUOUS
100
AcDbVertex
100
AcDb2dVertex
 10
0.0
 20
-16.0
 30
0.0
  0
VERTEX
  5
DF3414A08B86DCD7
100
AcDbEntity
  8
PORTS
  6
CONTINUOUS
100
AcDbVertex
100
AcDb2dVertex
 10
0.0
 20
-4.0
 30
0.0
  0
VERTEX
  5
DF3414A08B86DCD8
100
AcDbEntity
  8
PORTS
  6
CONTINUOUS
100
AcDbVertex
100
AcDb2dVertex
 10
72.0
 20
-4.0
 30
0.0
  0
VERTEX
  5
DF3414A08B86DCD9
100
AcDbEntity
  8
PORTS
  6
CONTINUOUS
100
AcDbVertex
100
AcDb2dVertex
 10
80.0
 20
-10.0
 30
0.0
  0
SEQEND
  5
DF3414A08B86DCDA
100
AcDbEntity
  8
PORTS
  6
CONTINUOUS
  0
POINT
  5
DF3414A08B86DCDB
100
AcDbEntity
  8
PORTS
  6
CONTINUOUS
100
AcDbPoint
 10
80.0
 20
-10.0
 30
0.0
  0
ATTDEF
  5
DF3414A08B86DCDD
100
AcDbEntity
  8
PORTS
  6
CONTINUOUS
100
AcDbText
 10
2.0
 20
2.0
 30
0.0
 40
10.0
  1

  7
SIMPLEX
100
AcDbAttributeDefinition
  3

  2
SIDE
 70
     0
  0
ENDBLK
  5
DF3414A08B86DCDF
100
AcDbEntity
  8
PORTS
  6
CONTINUOUS
100
AcDbBlockEnd
  0
BLOCK
  5
DF3414A0433263EB
100
AcDbEntity
  8
DETAIL_MEDIUM
  6
CONTINUOUS
100
AcDbBlockBegin
  2
IO_CYC_REG_SYNC
 70
     0
 10
430.0
 20
-40.0
 30
0.0
  1

  0
POLYLINE
  5
DF3414A0433263C7
100
AcDbEntity
  8
DETAIL_MEDIUM
  6
CONTINUOUS
100
AcDb2dPolyline
 66
     1
 10
0.0
 20
0.0
 30
0.0
 70
     1
  0
VERTEX
  5
DF3414A04332ADC8
100
AcDbEntity
  8
DETAIL_MEDIUM
  6
CONTINUOUS
100
AcDbVertex
100
AcDb2dVertex
 10
430.0
 20
-20.0
 30
0.0
  0
VERTEX
  5
DF3414A04332ADC9
100
AcDbEntity
  8
DETAIL_MEDIUM
  6
CONTINUOUS
100
AcDbVertex
100
AcDb2dVertex
 10
450.0
 20
-20.0
 30
0.0
  0
VERTEX
  5
DF3414A04332ADCA
100
AcDbEntity
  8
DETAIL_MEDIUM
  6
CONTINUOUS
100
AcDbVertex
100
AcDb2dVertex
 10
450.0
 20
-40.0
 30
0.0
  0
VERTEX
  5
DF3414A04332ADCB
100
AcDbEntity
  8
DETAIL_MEDIUM
  6
CONTINUOUS
100
AcDbVertex
100
AcDb2dVertex
 10
430.0
 20
-40.0
 30
0.0
  0
SEQEND
  5
DF3414A04332ADCC
100
AcDbEntity
  8
DETAIL_MEDIUM
  6
CONTINUOUS
  0
TEXT
  5
DF3414A0433263DF
100
AcDbEntity
  8
DETAIL_HIGH
100
AcDbText
 10
437.5
 20
-32.5
 30
0.0
 40
10.0
  1
S
100
AcDbText
  0
ENDBLK
  5
DF3414A0433263ED
100
AcDbEntity
  8
DETAIL_MEDIUM
  6
CONTINUOUS
100
AcDbBlockEnd
  0
BLOCK
  5
DF3414A0433263EF
100
AcDbEntity
  8
DETAIL_MEDIUM
  6
CONTINUOUS
100
AcDbBlockBegin
  2
IO_CYC_REG_ASYNC
 70
     0
 10
430.0
 20
-150.0
 30
0.0
  1

  0
POLYLINE
  5
DF3414A0433263C8
100
AcDbEntity
  8
DETAIL_MEDIUM
  6
CONTINUOUS
100
AcDb2dPolyline
 66
     1
 10
0.0
 20
0.0
 30
0.0
 70
     1
  0
VERTEX
  5
DF3414A04332ADCD
100
AcDbEntity
  8
DETAIL_MEDIUM
  6
CONTINUOUS
100
AcDbVertex
100
AcDb2dVertex
 10
430.0
 20
-130.0
 30
0.0
  0
VERTEX
  5
DF3414A04332ADCE
100
AcDbEntity
  8
DETAIL_MEDIUM
  6
CONTINUOUS
100
AcDbVertex
100
AcDb2dVertex
 10
450.0
 20
-130.0
 30
0.0
  0
VERTEX
  5
DF3414A04332ADCF
100
AcDbEntity
  8
DETAIL_MEDIUM
  6
CONTINUOUS
100
AcDbVertex
100
AcDb2dVertex
 10
450.0
 20
-150.0
 30
0.0
  0
VERTEX
  5
DF3414A04332ADD0
100
AcDbEntity
  8
DETAIL_MEDIUM
  6
CONTINUOUS
100
AcDbVertex
100
AcDb2dVertex
 10
430.0
 20
-150.0
 30
0.0
  0
SEQEND
  5
DF3414A04332ADD1
100
AcDbEntity
  8
DETAIL_MEDIUM
  6
CONTINUOUS
  0
TEXT
  5
DF3414A0433263E0
100
AcDbEntity
  8
DETAIL_HIGH
100
AcDbText
 10
437.5
 20
-142.5
 30
0.0
 40
10.0
  1
A
100
AcDbText
  0
ENDBLK
  5
DF3414A0433263F1
100
AcDbEntity
  8
DETAIL_MEDIUM
  6
CONTINUOUS
100
AcDbBlockEnd
  0
BLOCK
  5
DF3414A043326405
100
AcDbEntity
  8
DETAIL_MEDIUM
  6
CONTINUOUS
100
AcDbBlockBegin
  2
IO_CYC_REGISTER
 70
     2
 10
400.0
 20
-150.0
 30
0.0
  1

  0
TEXT
  5
DF3414A0433263FB
100
AcDbEntity
  8
DETAIL_HIGH
100
AcDbText
 10
407.5
 20
-42.5
 30
0.0
 40
10.0
  1
D
100
AcDbText
  0
INSERT
  5
DF3414A0433263FC
100
AcDbEntity
  8
DETAIL_MEDIUM
  6
CONTINUOUS
100
AcDbBlockReference
  2
IO_CYC_REG_SYNC
 10
430.0
 20
-40.0
 30
0.0
  0
TEXT
  5
DF3414A0433263FD
100
AcDbEntity
  8
DETAIL_HIGH
100
AcDbText
 10
467.5
 20
-42.5
 30
0.0
 40
10.0
  1
Q
100
AcDbText
  0
LINE
  5
DF3414A0433263FE
100
AcDbEntity
  8
DETAIL_MEDIUM
100
AcDbLine
 39
2.0
 10
410.0
 20
-80.0
 30
0.0
 11
400.0
 21
-90.0
 31
0.0
  0
LINE
  5
DF3414A0433263FF
100
AcDbEntity
  8
DETAIL_MEDIUM
100
AcDbLine
 39
2.0
 10
400.0
 20
-70.0
 30
0.0
 11
410.0
 21
-80.0
 31
0.0
  0
TEXT
  5
DF3414A043326400
100
AcDbEntity
  8
DETAIL_HIGH
100
AcDbText
 10
405.0
 20
-122.5
 30
0.0
 40
10.0
  1
en
100
AcDbText
  0
INSERT
  5
DF3414A043326401
100
AcDbEntity
  8
DETAIL_MEDIUM
  6
CONTINUOUS
100
AcDbBlockReference
  2
IO_CYC_REG_ASYNC
 10
430.0
 20
-150.0
 30
0.0
  0
POLYLINE
  5
DF3414A043326402
100
AcDbEntity
  8
DETAIL_MEDIUM
  6
CONTINUOUS
100
AcDb2dPolyline
 66
     1
 10
0.0
 20
0.0
 30
0.0
 70
     1
  0
VERTEX
  5
DF3414A04332ADD2
100
AcDbEntity
  8
DETAIL_MEDIUM
  6
CONTINUOUS
100
AcDbVertex
100
AcDb2dVertex
 10
400.0
 20
-20.0
 30
0.0
  0
VERTEX
  5
DF3414A04332ADD3
100
AcDbEntity
  8
DETAIL_MEDIUM
  6
CONTINUOUS
100
AcDbVertex
100
AcDb2dVertex
 10
480.0
 20
-20.0
 30
0.0
  0
VERTEX
  5
DF3414A04332ADD4
100
AcDbEntity
  8
DETAIL_MEDIUM
  6
CONTINUOUS
100
AcDbVertex
100
AcDb2dVertex
 10
480.0
 20
-150.0
 30
0.0
  0
VERTEX
  5
DF3414A04332ADD5
100
AcDbEntity
  8
DETAIL_MEDIUM
  6
CONTINUOUS
100
AcDbVertex
100
AcDb2dVertex
 10
400.0
 20
-150.0
 30
0.0
  0
SEQEND
  5
DF3414A04332ADD6
100
AcDbEntity
  8
DETAIL_MEDIUM
  6
CONTINUOUS
  0
ATTDEF
  5
DF3414A043326403
100
AcDbEntity
  8
DETAIL_MEDIUM
  6
CONTINUOUS
100
AcDbText
 10
430.0
 20
-90.0
 30
0.0
 40
10.0
  1
0
  7
SIMPLEX
100
AcDbAttributeDefinition
  3

  2
index
 70
     0
  0
ENDBLK
  5
DF3414A043326406
100
AcDbEntity
  8
DETAIL_MEDIUM
  6
CONTINUOUS
100
AcDbBlockEnd
  0
BLOCK
  5
DF3414A04337067B
100
AcDbEntity
  8
DETAIL_MEDIUM
  6
CONTINUOUS
100
AcDbBlockBegin
  2
IO_CYC_DELAY_CHAIN
 70
     2
 10
320.0
 20
-370.0
 30
0.0
  1

  0
POLYLINE
  5
DF3414A04337066B
100
AcDbEntity
  8
DETAIL_MEDIUM
  6
CONTINUOUS
100
AcDb2dPolyline
 66
     1
 10
0.0
 20
0.0
 30
0.0
 70
     1
  0
VERTEX
  5
DF3414A04337066C
100
AcDbEntity
  8
DETAIL_MEDIUM
  6
CONTINUOUS
100
AcDbVertex
100
AcDb2dVertex
 10
400.0
 20
-360.0
 30
0.0
  0
VERTEX
  5
DF3414A04337066D
100
AcDbEntity
  8
DETAIL_MEDIUM
  6
CONTINUOUS
100
AcDbVertex
100
AcDb2dVertex
 10
320.0
 20
-360.0
 30
0.0
  0
VERTEX
  5
DF3414A04337066E
100
AcDbEntity
  8
DETAIL_MEDIUM
  6
CONTINUOUS
100
AcDbVertex
100
AcDb2dVertex
 10
320.0
 20
-320.0
 30
0.0
  0
VERTEX
  5
DF3414A04337066F
100
AcDbEntity
  8
DETAIL_MEDIUM
  6
CONTINUOUS
100
AcDbVertex
100
AcDb2dVertex
 10
400.0
 20
-320.0
 30
0.0
  0
SEQEND
  5
DF3414A043370670
100
AcDbEntity
  8
DETAIL_MEDIUM
  6
CONTINUOUS
  0
LINE
  5
DF3414A043370671
100
AcDbEntity
  8
DETAIL_HIGH
  6
CONTINUOUS
100
AcDbLine
 10
370.0
 20
-330.0
 30
0.0
 11
370.0
 21
-350.0
 31
0.0
  0
LINE
  5
DF3414A043370672
100
AcDbEntity
  8
DETAIL_HIGH
  6
CONTINUOUS
100
AcDbLine
 10
360.0
 20
-330.0
 30
0.0
 11
380.0
 21
-330.0
 31
0.0
  0
POLYLINE
  5
DF3414A043370673
100
AcDbEntity
  8
DETAIL_HIGH
  6
CONTINUOUS
100
AcDb2dPolyline
 66
     1
 10
0.0
 20
0.0
 30
0.0
  0
VERTEX
  5
DF3414A043370674
100
AcDbEntity
  8
DETAIL_HIGH
  6
CONTINUOUS
100
AcDbVertex
100
AcDb2dVertex
 10
340.0
 20
-350.0
 30
0.0
  0
VERTEX
  5
DF3414A043370675
100
AcDbEntity
  8
DETAIL_HIGH
  6
CONTINUOUS
100
AcDbVertex
100
AcDb2dVertex
 10
350.0
 20
-340.0
 30
0.0
  0
VERTEX
  5
DF3414A043370676
100
AcDbEntity
  8
DETAIL_HIGH
  6
CONTINUOUS
100
AcDbVertex
100
AcDb2dVertex
 10
360.0
 20
-350.0
 30
0.0
  0
VERTEX
  5
DF3414A043370677
100
AcDbEntity
  8
DETAIL_HIGH
  6
CONTINUOUS
100
AcDbVertex
100
AcDb2dVertex
 10
340.0
 20
-350.0
 30
0.0
  0
SEQEND
  5
DF3414A043370678
100
AcDbEntity
  8
DETAIL_HIGH
  6
CONTINUOUS
  0
ATTDEF
  5
DF3414A043370679
100
AcDbEntity
  8
DETAIL_MEDIUM
  6
CONTINUOUS
100
AcDbText
 10
390.0
 20
-360.0
 30
0.0
 40
10.0
  1

  7
SIMPLEX
100
AcDbAttributeDefinition
  3

  2
index
 70
     0
  0
ATTDEF
  5
DF3414A04337067A
100
AcDbEntity
  8
DETAIL_MEDIUM
  6
CONTINUOUS
100
AcDbText
 10
330.0
 20
-370.0
 30
0.0
 40
10.0
  1

  7
SIMPLEX
100
AcDbAttributeDefinition
  3

  2
name
 70
     0
  0
ENDBLK
  5
DF3414A04337067C
100
AcDbEntity
  8
DETAIL_MEDIUM
  6
CONTINUOUS
100
AcDbBlockEnd
  0
BLOCK
  5
DF3414A0D3DB0C6D
100
AcDbEntity
  8
PORTS
  6
CONTINUOUS
100
AcDbBlockBegin
  2
IO_CYC_OE
 70
     2
 10
0.0
 20
0.0
 30
0.0
  1

  0
POINT
  5
DF3414A0D3DB0C6B
100
AcDbEntity
  8
PORTS
  6
CONTINUOUS
100
AcDbPoint
 10
80.0
 20
-70.0
 30
0.0
  0
POLYLINE
  5
DF3414A0D3DB0C63
100
AcDbEntity
  8
PORTS
  6
CONTINUOUS
100
AcDb2dPolyline
 66
     1
 10
0.0
 20
0.0
 30
0.0
 70
     1
  0
VERTEX
  5
DF3414A0D3DB0C64
100
AcDbEntity
  8
PORTS
  6
CONTINUOUS
100
AcDbVertex
100
AcDb2dVertex
 10
80.0
 20
-70.0
 30
0.0
  0
VERTEX
  5
DF3414A0D3DB0C65
100
AcDbEntity
  8
PORTS
  6
CONTINUOUS
100
AcDbVertex
100
AcDb2dVertex
 10
72.0
 20
-76.0
 30
0.0
  0
VERTEX
  5
DF3414A0D3DB0C66
100
AcDbEntity
  8
PORTS
  6
CONTINUOUS
100
AcDbVertex
100
AcDb2dVertex
 10
0.0
 20
-76.0
 30
0.0
  0
VERTEX
  5
DF3414A0D3DB0C67
100
AcDbEntity
  8
PORTS
  6
CONTINUOUS
100
AcDbVertex
100
AcDb2dVertex
 10
0.0
 20
-64.0
 30
0.0
  0
VERTEX
  5
DF3414A0D3DB0C68
100
AcDbEntity
  8
PORTS
  6
CONTINUOUS
100
AcDbVertex
100
AcDb2dVertex
 10
72.0
 20
-64.0
 30
0.0
  0
VERTEX
  5
DF3414A0D3DB0C69
100
AcDbEntity
  8
PORTS
  6
CONTINUOUS
100
AcDbVertex
100
AcDb2dVertex
 10
80.0
 20
-70.0
 30
0.0
  0
SEQEND
  5
DF3414A0D3DB0C6A
100
AcDbEntity
  8
PORTS
  6
CONTINUOUS
  0
ATTDEF
  5
DF3414A0D3DB0C6C
100
AcDbEntity
  8
PORTS
  6
CONTINUOUS
100
AcDbText
 10
2.0
 20
-58.0
 30
0.0
 40
10.0
  1

  7
SIMPLEX
100
AcDbAttributeDefinition
  3

  2
SIDE
 70
     0
  0
ENDBLK
  5
DF3414A0D3DB0C6E
100
AcDbEntity
  8
PORTS
  6
CONTINUOUS
100
AcDbBlockEnd
  0
BLOCK
  5
DF3414A045764356
100
AcDbEntity
  8
DETAIL_MEDIUM
100
AcDbBlockBegin
  2
IO_CYC_OE_MUX
 70
     0
 10
0.0
 20
0.0
 30
0.0
  1

  0
POLYLINE
  5
DF3414A04576434E
100
AcDbEntity
  8
DETAIL_MEDIUM
100
AcDb2dPolyline
 66
     1
 10
0.0
 20
0.0
 30
0.0
 39
2.0
 70
     1
  0
VERTEX
  5
DF3414A04576434F
100
AcDbEntity
  8
DETAIL_MEDIUM
100
AcDbVertex
100
AcDb2dVertex
 10
490.0
 20
-20.0
 30
0.0
  0
VERTEX
  5
DF3414A045764350
100
AcDbEntity
  8
DETAIL_MEDIUM
100
AcDbVertex
100
AcDb2dVertex
 10
520.0
 20
-30.0
 30
0.0
  0
VERTEX
  5
DF3414A045764351
100
AcDbEntity
  8
DETAIL_MEDIUM
100
AcDbVertex
100
AcDb2dVertex
 10
520.0
 20
-70.0
 30
0.0
  0
VERTEX
  5
DF3414A045764352
100
AcDbEntity
  8
DETAIL_MEDIUM
100
AcDbVertex
100
AcDb2dVertex
 10
490.0
 20
-80.0
 30
0.0
  0
VERTEX
  5
DF3414A045764353
100
AcDbEntity
  8
DETAIL_MEDIUM
100
AcDbVertex
100
AcDb2dVertex
 10
490.0
 20
-20.0
 30
0.0
  0
SEQEND
  5
DF3414A045764354
100
AcDbEntity
  8
DETAIL_MEDIUM
  0
ENDBLK
  5
DF3414A045764357
100
AcDbEntity
  8
DETAIL_MEDIUM
100
AcDbBlockEnd
  0
BLOCK
  5
DF3414A047B7D1C5
100
AcDbEntity
  8
DETAIL_MEDIUM
  6
CONTINUOUS
100
AcDbBlockBegin
  2
IO_CYC_BUFFER
 70
     0
 10
0.0
 20
0.0
 30
0.0
  1

  0
POLYLINE
  5
DF3414A047B7D1BE
100
AcDbEntity
  8
DETAIL_MEDIUM
  6
CONTINUOUS
100
AcDb2dPolyline
 66
     1
 10
0.0
 20
0.0
 30
0.0
 70
     1
  0
VERTEX
  5
DF3414A047B7D1BF
100
AcDbEntity
  8
DETAIL_MEDIUM
  6
CONTINUOUS
100
AcDbVertex
100
AcDb2dVertex
 10
520.0
 20
-450.0
 30
0.0
  0
VERTEX
  5
DF3414A047B7D1C0
100
AcDbEntity
  8
DETAIL_MEDIUM
  6
CONTINUOUS
100
AcDbVertex
100
AcDb2dVertex
 10
520.0
 20
-410.0
 30
0.0
  0
VERTEX
  5
DF3414A047B7D1C1
100
AcDbEntity
  8
DETAIL_MEDIUM
  6
CONTINUOUS
100
AcDbVertex
100
AcDb2dVertex
 10
560.0
 20
-430.0
 30
0.0
  0
VERTEX
  5
DF3414A047B7D1C2
100
AcDbEntity
  8
DETAIL_MEDIUM
  6
CONTINUOUS
100
AcDbVertex
100
AcDb2dVertex
 10
520.0
 20
-450.0
 30
0.0
  0
SEQEND
  5
DF3414A047B7D1C3
100
AcDbEntity
  8
DETAIL_MEDIUM
  6
CONTINUOUS
  0
LINE
  5
DF3414A047B7D1C4
100
AcDbEntity
  8
DETAIL_MEDIUM
  6
CONTINUOUS
100
AcDbLine
 10
560.0
 20
-430.0
 30
0.0
 11
590.0
 21
-430.0
 31
0.0
  0
ENDBLK
  5
DF3414A047B7D1C6
100
AcDbEntity
  8
DETAIL_MEDIUM
  6
CONTINUOUS
100
AcDbBlockEnd
  0
BLOCK
  5
DF3414A043326447
100
AcDbEntity
  8
DETAIL_MEDIUM
  6
CONTINUOUS
100
AcDbBlockBegin
  2
IO_CYC_PAD
 70
     0
 10
770.0
 20
-430.0
 30
0.0
  1

  0
POLYLINE
  5
DF2FC23470F1A7DB
100
AcDbEntity
  8
DETAIL_MEDIUM
  6
CONTINUOUS
100
AcDb2dPolyline
 66
     1
 10
0.0
 20
0.0
 30
0.0
 70
     1
  0
VERTEX
  5
DF3414A04332ADE6
100
AcDbEntity
  8
DETAIL_MEDIUM
  6
CONTINUOUS
100
AcDbVertex
100
AcDb2dVertex
 10
770.0
 20
-370.0
 30
0.0
  0
VERTEX
  5
DF3414A04332ADE7
100
AcDbEntity
  8
DETAIL_MEDIUM
  6
CONTINUOUS
100
AcDbVertex
100
AcDb2dVertex
 10
830.0
 20
-370.0
 30
0.0
  0
VERTEX
  5
DF3414A04332ADE8
100
AcDbEntity
  8
DETAIL_MEDIUM
  6
CONTINUOUS
100
AcDbVertex
100
AcDb2dVertex
 10
830.0
 20
-430.0
 30
0.0
  0
VERTEX
  5
DF3414A04332ADE9
100
AcDbEntity
  8
DETAIL_MEDIUM
  6
CONTINUOUS
100
AcDbVertex
100
AcDb2dVertex
 10
770.0
 20
-430.0
 30
0.0
  0
SEQEND
  5
DF3414A04332ADEA
100
AcDbEntity
  8
DETAIL_MEDIUM
  6
CONTINUOUS
  0
POLYLINE
  5
DF2FC23470F1A7DE
100
AcDbEntity
  8
DETAIL_MEDIUM
  6
CONTINUOUS
100
AcDb2dPolyline
 66
     1
 10
0.0
 20
0.0
 30
0.0
  0
VERTEX
  5
DF3414A04332ADEB
100
AcDbEntity
  8
DETAIL_MEDIUM
  6
CONTINUOUS
100
AcDbVertex
100
AcDb2dVertex
 10
770.0
 20
-400.0
 30
0.0
  0
VERTEX
  5
DF3414A04332ADEC
100
AcDbEntity
  8
DETAIL_MEDIUM
  6
CONTINUOUS
100
AcDbVertex
100
AcDb2dVertex
 10
800.0
 20
-370.0
 30
0.0
  0
VERTEX
  5
DF3414A04332ADED
100
AcDbEntity
  8
DETAIL_MEDIUM
  6
CONTINUOUS
100
AcDbVertex
100
AcDb2dVertex
 10
830.0
 20
-400.0
 30
0.0
  0
VERTEX
  5
DF3414A04332ADEE
100
AcDbEntity
  8
DETAIL_MEDIUM
  6
CONTINUOUS
100
AcDbVertex
100
AcDb2dVertex
 10
800.0
 20
-430.0
 30
0.0
  0
VERTEX
  5
DF3414A04332ADEF
100
AcDbEntity
  8
DETAIL_MEDIUM
  6
CONTINUOUS
100
AcDbVertex
100
AcDb2dVertex
 10
770.0
 20
-400.0
 30
0.0
  0
SEQEND
  5
DF3414A04332ADF0
100
AcDbEntity
  8
DETAIL_MEDIUM
  6
CONTINUOUS
  0
ENDBLK
  5
DF3414A043326449
100
AcDbEntity
  8
DETAIL_MEDIUM
  6
CONTINUOUS
100
AcDbBlockEnd
  0
BLOCK
  5
DF3414B25834E858
100
AcDbEntity
  8
PORTS
  6
CONTINUOUS
100
AcDbBlockBegin
  2
IO_CYC_COMBOUT
 70
     2
 10
0.0
 20
0.0
 30
0.0
  1

  0
ATTDEF
  5
DF3414B25834E84D
100
AcDbEntity
  8
PORTS
  6
CONTINUOUS
100
AcDbText
 10
1062.0
 20
-188.0
 30
0.0
 40
10.0
  1

 50
0.000019
  7
SIMPLEX
100
AcDbAttributeDefinition
  3

  2
SIDE
 70
     0
  0
POINT
  5
DF3414B25834E84C
100
AcDbEntity
  8
PORTS
  6
CONTINUOUS
100
AcDbPoint
 10
1060.0
 20
-200.0
 30
0.0
  0
POLYLINE
  5
DF3414B25834E844
100
AcDbEntity
  8
PORTS
  6
CONTINUOUS
100
AcDb2dPolyline
 66
     1
 10
0.0
 20
0.0
 30
0.0
 70
     1
  0
VERTEX
  5
DF3414B25834E845
100
AcDbEntity
  8
PORTS
  6
CONTINUOUS
100
AcDbVertex
100
AcDb2dVertex
 10
1140.0
 20
-200.0
 30
0.0
  0
VERTEX
  5
DF3414B25834E846
100
AcDbEntity
  8
PORTS
  6
CONTINUOUS
100
AcDbVertex
100
AcDb2dVertex
 10
1132.0
 20
-206.0
 30
0.0
  0
VERTEX
  5
DF3414B25834E847
100
AcDbEntity
  8
PORTS
  6
CONTINUOUS
100
AcDbVertex
100
AcDb2dVertex
 10
1060.0
 20
-206.0
 30
0.0
  0
VERTEX
  5
DF3414B25834E848
100
AcDbEntity
  8
PORTS
  6
CONTINUOUS
100
AcDbVertex
100
AcDb2dVertex
 10
1060.0
 20
-194.0
 30
0.0
  0
VERTEX
  5
DF3414B25834E849
100
AcDbEntity
  8
PORTS
  6
CONTINUOUS
100
AcDbVertex
100
AcDb2dVertex
 10
1132.0
 20
-194.0
 30
0.0
  0
VERTEX
  5
DF3414B25834E84A
100
AcDbEntity
  8
PORTS
  6
CONTINUOUS
100
AcDbVertex
100
AcDb2dVertex
 10
1140.0
 20
-200.0
 30
0.0
  0
SEQEND
  5
DF3414B25834E84B
100
AcDbEntity
  8
PORTS
  6
CONTINUOUS
  0
ENDBLK
  5
DF3414B25834E859
100
AcDbEntity
  8
PORTS
  6
CONTINUOUS
100
AcDbBlockEnd
  0
BLOCK
  5
DF3414A0435736C9
100
AcDbEntity
  8
PORTS
  6
CONTINUOUS
100
AcDbBlockBegin
  2
IO_CYC_REGOUT
 70
     2
 10
0.0
 20
0.0
 30
0.0
  1

  0
POLYLINE
  5
DF3414A0435736BF
100
AcDbEntity
  8
PORTS
  6
CONTINUOUS
100
AcDb2dPolyline
 66
     1
 10
0.0
 20
0.0
 30
0.0
 70
     1
  0
VERTEX
  5
DF3414A0435736C0
100
AcDbEntity
  8
PORTS
  6
CONTINUOUS
100
AcDbVertex
100
AcDb2dVertex
 10
1130.0
 20
-280.0
 30
0.0
  0
VERTEX
  5
DF3414A0435736C1
100
AcDbEntity
  8
PORTS
  6
CONTINUOUS
100
AcDbVertex
100
AcDb2dVertex
 10
1122.0
 20
-286.0
 30
0.0
  0
VERTEX
  5
DF3414A0435736C2
100
AcDbEntity
  8
PORTS
  6
CONTINUOUS
100
AcDbVertex
100
AcDb2dVertex
 10
1050.0
 20
-286.0
 30
0.0
  0
VERTEX
  5
DF3414A0435736C3
100
AcDbEntity
  8
PORTS
  6
CONTINUOUS
100
AcDbVertex
100
AcDb2dVertex
 10
1050.0
 20
-274.0
 30
0.0
  0
VERTEX
  5
DF3414A0435736C4
100
AcDbEntity
  8
PORTS
  6
CONTINUOUS
100
AcDbVertex
100
AcDb2dVertex
 10
1122.0
 20
-274.0
 30
0.0
  0
VERTEX
  5
DF3414A0435736C5
100
AcDbEntity
  8
PORTS
  6
CONTINUOUS
100
AcDbVertex
100
AcDb2dVertex
 10
1130.0
 20
-280.0
 30
0.0
  0
SEQEND
  5
DF3414A0435736C6
100
AcDbEntity
  8
PORTS
  6
CONTINUOUS
  0
POINT
  5
DF3414A0435736C8
100
AcDbEntity
  8
PORTS
  6
CONTINUOUS
100
AcDbPoint
 10
1050.0
 20
-280.0
 30
0.0
  0
ATTDEF
  5
DF3414A0435736C7
100
AcDbEntity
  8
PORTS
  6
CONTINUOUS
100
AcDbText
 10
1052.0
 20
-268.0
 30
0.0
 40
10.0
  1

 50
0.000019
  7
SIMPLEX
100
AcDbAttributeDefinition
  3

  2
SIDE
 70
     0
  0
ENDBLK
  5
DF3414A0435736CA
100
AcDbEntity
  8
PORTS
  6
CONTINUOUS
100
AcDbBlockEnd
  0
BLOCK
  5
DF3414A043326465
100
AcDbEntity
  8
DETAIL_MEDIUM
  6
CONTINUOUS
100
AcDbBlockBegin
  2
IO_CYC_REG_2_BYPASS
 70
     0
 10
980.0
 20
-310.0
 30
0.0
  1

  0
LINE
  5
DF3414A0433263B7
100
AcDbEntity
  8
DETAIL_MEDIUM
  6
CONTINUOUS
100
AcDbLine
 10
980.0
 20
-230.0
 30
0.0
 11
1180.0
 21
-230.0
 31
0.0
  0
LINE
  5
DF3414A0433263B6
100
AcDbEntity
  8
DETAIL_MEDIUM
  6
CONTINUOUS
100
AcDbLine
 10
980.0
 20
-310.0
 30
0.0
 11
980.0
 21
-230.0
 31
0.0
  0
ENDBLK
  5
DF3414A043326467
100
AcDbEntity
  8
DETAIL_MEDIUM
  6
CONTINUOUS
100
AcDbBlockEnd
  0
BLOCK
  5
DF3414A043C5AD9A
100
AcDbEntity
  8
PORTS
  6
CONTINUOUS
100
AcDbBlockBegin
  2
IO_CYC_CLK_IN
 70
     2
 10
0.0
 20
0.0
 30
0.0
  1

  0
ATTDEF
  5
DF3414A043C5AD97
100
AcDbEntity
  8
PORTS
  6
CONTINUOUS
100
AcDbText
 10
722.0
 20
-498.0
 30
0.0
 40
10.0
  1

 50
0.000019
  7
SIMPLEX
100
AcDbAttributeDefinition
  3

  2
SIDE
 70
     0
  0
POLYLINE
  5
DF3414A043C5AD8E
100
AcDbEntity
  8
PORTS
  6
CONTINUOUS
100
AcDb2dPolyline
 66
     1
 10
0.0
 20
0.0
 30
0.0
 70
     1
  0
VERTEX
  5
DF3414A043C5AD8F
100
AcDbEntity
  8
PORTS
  6
CONTINUOUS
100
AcDbVertex
100
AcDb2dVertex
 10
800.0
 20
-510.0
 30
0.0
  0
VERTEX
  5
DF3414A043C5AD90
100
AcDbEntity
  8
PORTS
  6
CONTINUOUS
100
AcDbVertex
100
AcDb2dVertex
 10
792.0
 20
-516.0
 30
0.0
  0
VERTEX
  5
DF3414A043C5AD91
100
AcDbEntity
  8
PORTS
  6
CONTINUOUS
100
AcDbVertex
100
AcDb2dVertex
 10
720.0
 20
-516.0
 30
0.0
  0
VERTEX
  5
DF3414A043C5AD92
100
AcDbEntity
  8
PORTS
  6
CONTINUOUS
100
AcDbVertex
100
AcDb2dVertex
 10
720.0
 20
-504.0
 30
0.0
  0
VERTEX
  5
DF3414A043C5AD93
100
AcDbEntity
  8
PORTS
  6
CONTINUOUS
100
AcDbVertex
100
AcDb2dVertex
 10
792.0
 20
-504.0
 30
0.0
  0
VERTEX
  5
DF3414A043C5AD94
100
AcDbEntity
  8
PORTS
  6
CONTINUOUS
100
AcDbVertex
100
AcDb2dVertex
 10
800.0
 20
-510.0
 30
0.0
  0
SEQEND
  5
DF3414A043C5AD95
100
AcDbEntity
  8
PORTS
  6
CONTINUOUS
  0
POINT
  5
DF3414A043C5AD96
100
AcDbEntity
  8
PORTS
  6
CONTINUOUS
100
AcDbPoint
 10
800.0
 20
-510.0
 30
0.0
  0
ENDBLK
  5
DF3414A043C5AD9B
100
AcDbEntity
  8
PORTS
  6
CONTINUOUS
100
AcDbBlockEnd
  0
BLOCK
  5
DF3414A04458F6BA
100
AcDbEntity
  8
PORTS
  6
CONTINUOUS
100
AcDbBlockBegin
  2
IO_CYC_CE_IN
 70
     2
 10
0.0
 20
0.0
 30
0.0
  1

  0
POLYLINE
  5
DF3414A04458F6B0
100
AcDbEntity
  8
PORTS
  6
CONTINUOUS
100
AcDb2dPolyline
 66
     1
 10
0.0
 20
0.0
 30
0.0
 70
     1
  0
VERTEX
  5
DF3414A04458F6B1
100
AcDbEntity
  8
PORTS
  6
CONTINUOUS
100
AcDbVertex
100
AcDb2dVertex
 10
800.0
 20
-550.0
 30
0.0
  0
VERTEX
  5
DF3414A04458F6B2
100
AcDbEntity
  8
PORTS
  6
CONTINUOUS
100
AcDbVertex
100
AcDb2dVertex
 10
792.0
 20
-556.0
 30
0.0
  0
VERTEX
  5
DF3414A04458F6B3
100
AcDbEntity
  8
PORTS
  6
CONTINUOUS
100
AcDbVertex
100
AcDb2dVertex
 10
720.0
 20
-556.0
 30
0.0
  0
VERTEX
  5
DF3414A04458F6B4
100
AcDbEntity
  8
PORTS
  6
CONTINUOUS
100
AcDbVertex
100
AcDb2dVertex
 10
720.0
 20
-544.0
 30
0.0
  0
VERTEX
  5
DF3414A04458F6B5
100
AcDbEntity
  8
PORTS
  6
CONTINUOUS
100
AcDbVertex
100
AcDb2dVertex
 10
792.0
 20
-544.0
 30
0.0
  0
VERTEX
  5
DF3414A04458F6B6
100
AcDbEntity
  8
PORTS
  6
CONTINUOUS
100
AcDbVertex
100
AcDb2dVertex
 10
800.0
 20
-550.0
 30
0.0
  0
SEQEND
  5
DF3414A04458F6B7
100
AcDbEntity
  8
PORTS
  6
CONTINUOUS
  0
ATTDEF
  5
DF3414A04458F6B9
100
AcDbEntity
  8
PORTS
  6
CONTINUOUS
100
AcDbText
 10
722.0
 20
-538.0
 30
0.0
 40
10.0
  1

 50
0.000019
  7
SIMPLEX
100
AcDbAttributeDefinition
  3

  2
SIDE
 70
     0
  0
POINT
  5
DF3414A04458F6B8
100
AcDbEntity
  8
PORTS
  6
CONTINUOUS
100
AcDbPoint
 10
800.0
 20
-550.0
 30
0.0
  0
ENDBLK
  5
DF3414A04458F6BB
100
AcDbEntity
  8
PORTS
  6
CONTINUOUS
100
AcDbBlockEnd
  0
BLOCK
  5
DF3414A0437C0909
100
AcDbEntity
  8
DETAIL_MEDIUM
  6
CONTINUOUS
100
AcDbBlockBegin
  2
IO_CYC_REG_2_USED
 70
     0
 10
0.0
 20
0.0
 30
0.0
  1

  0
LINE
  5
DF3414A0437C0907
100
AcDbEntity
  8
DETAIL_MEDIUM
  6
CONTINUOUS
100
AcDbLine
 10
960.0
 20
-340.0
 30
0.0
 11
980.0
 21
-340.0
 31
0.0
  0
LINE
  5
DF3414A0437C0906
100
AcDbEntity
  8
DETAIL_MEDIUM
  6
CONTINUOUS
100
AcDbLine
 10
980.0
 20
-340.0
 30
0.0
 11
980.0
 21
-300.0
 31
0.0
  0
LINE
  5
DF3414A0437C0905
100
AcDbEntity
  8
DETAIL_MEDIUM
  6
CONTINUOUS
100
AcDbLine
 10
980.0
 20
-300.0
 30
0.0
 11
1000.0
 21
-300.0
 31
0.0
  0
ENDBLK
  5
DF3414A0437C090A
100
AcDbEntity
  8
DETAIL_MEDIUM
  6
CONTINUOUS
100
AcDbBlockEnd
  0
BLOCK
  5
DF3414A04C3D3E92
100
AcDbEntity
  8
DETAIL_MEDIUM
100
AcDbBlockBegin
  2
IO_CYC_DIN_MUX
 70
     0
 10
0.0
 20
0.0
 30
0.0
  1

  0
POLYLINE
  5
DF3414A04C3D3E88
100
AcDbEntity
  8
DETAIL_MEDIUM
100
AcDb2dPolyline
 66
     1
 10
0.0
 20
0.0
 30
0.0
 39
2.0
 70
     1
  0
VERTEX
  5
DF3414A04C3D3E89
100
AcDbEntity
  8
DETAIL_MEDIUM
100
AcDbVertex
100
AcDb2dVertex
 10
420.0
 20
-290.0
 30
0.0
  0
VERTEX
  5
DF3414A04C3D3E8A
100
AcDbEntity
  8
DETAIL_MEDIUM
100
AcDbVertex
100
AcDb2dVertex
 10
450.0
 20
-300.0
 30
0.0
  0
VERTEX
  5
DF3414A04C3D3E8B
100
AcDbEntity
  8
DETAIL_MEDIUM
100
AcDbVertex
100
AcDb2dVertex
 10
450.0
 20
-340.0
 30
0.0
  0
VERTEX
  5
DF3414A04C3D3E8C
100
AcDbEntity
  8
DETAIL_MEDIUM
100
AcDbVertex
100
AcDb2dVertex
 10
420.0
 20
-350.0
 30
0.0
  0
VERTEX
  5
DF3414A04C3D3E8D
100
AcDbEntity
  8
DETAIL_MEDIUM
100
AcDbVertex
100
AcDb2dVertex
 10
420.0
 20
-290.0
 30
0.0
  0
SEQEND
  5
DF3414A04C3D3E8E
100
AcDbEntity
  8
DETAIL_MEDIUM
  0
ENDBLK
  5
DF3414A04C3D3E93
100
AcDbEntity
  8
DETAIL_MEDIUM
100
AcDbBlockEnd
  0
BLOCK
  5
DF3414A285D5024F
100
AcDbEntity
  8
PORTS
  6
CONTINUOUS
100
AcDbBlockBegin
  2
IO_CYC_DIN
 70
     2
 10
0.0
 20
0.0
 30
0.0
  1

  0
POLYLINE
  5
DF3414A285D50244
100
AcDbEntity
  8
PORTS
  6
CONTINUOUS
100
AcDb2dPolyline
 66
     1
 10
0.0
 20
0.0
 30
0.0
 70
     1
  0
VERTEX
  5
DF3414A285D50245
100
AcDbEntity
  8
PORTS
  6
CONTINUOUS
100
AcDbVertex
100
AcDb2dVertex
 10
80.0
 20
-340.0
 30
0.0
  0
VERTEX
  5
DF3414A285D50246
100
AcDbEntity
  8
PORTS
  6
CONTINUOUS
100
AcDbVertex
100
AcDb2dVertex
 10
72.0
 20
-346.0
 30
0.0
  0
VERTEX
  5
DF3414A285D50247
100
AcDbEntity
  8
PORTS
  6
CONTINUOUS
100
AcDbVertex
100
AcDb2dVertex
 10
0.0
 20
-346.0
 30
0.0
  0
VERTEX
  5
DF3414A285D50248
100
AcDbEntity
  8
PORTS
  6
CONTINUOUS
100
AcDbVertex
100
AcDb2dVertex
 10
0.0
 20
-334.0
 30
0.0
  0
VERTEX
  5
DF3414A285D50249
100
AcDbEntity
  8
PORTS
  6
CONTINUOUS
100
AcDbVertex
100
AcDb2dVertex
 10
72.0
 20
-334.0
 30
0.0
  0
VERTEX
  5
DF3414A285D5024A
100
AcDbEntity
  8
PORTS
  6
CONTINUOUS
100
AcDbVertex
100
AcDb2dVertex
 10
80.0
 20
-340.0
 30
0.0
  0
SEQEND
  5
DF3414A285D5024B
100
AcDbEntity
  8
PORTS
  6
CONTINUOUS
  0
POINT
  5
DF3414A285D5024C
100
AcDbEntity
  8
PORTS
  6
CONTINUOUS
100
AcDbPoint
 10
80.0
 20
-340.0
 30
0.0
  0
ATTDEF
  5
DF3414A285D5024D
100
AcDbEntity
  8
PORTS
  6
CONTINUOUS
100
AcDbText
 10
2.0
 20
-328.0
 30
0.0
 40
10.0
  1

  7
SIMPLEX
100
AcDbAttributeDefinition
  3

  2
SIDE
 70
     0
  0
ENDBLK
  5
DF3414A285D50250
100
AcDbEntity
  8
PORTS
  6
CONTINUOUS
100
AcDbBlockEnd
  0
BLOCK
  5
DF3414A0675CA055
100
AcDbEntity
  8
DETAIL_MEDIUM
  6
CONTINUOUS
100
AcDbBlockBegin
  2
IO_CYC_DIN_REG_USED
 70
     0
 10
0.0
 20
0.0
 30
0.0
  1

  0
LINE
  5
DF3414A0675CA054
100
AcDbEntity
  8
DETAIL_MEDIUM
  6
CONTINUOUS
100
AcDbLine
 10
400.0
 20
-340.0
 30
0.0
 11
420.0
 21
-340.0
 31
0.0
  0
LINE
  5
DF3414A0675CA053
100
AcDbEntity
  8
DETAIL_MEDIUM
  6
CONTINUOUS
100
AcDbLine
 10
300.0
 20
-340.0
 30
0.0
 11
320.0
 21
-340.0
 31
0.0
  0
ENDBLK
  5
DF3414A0675CA056
100
AcDbEntity
  8
DETAIL_MEDIUM
  6
CONTINUOUS
100
AcDbBlockEnd
  0
BLOCK
  5
DF3414A043338CAF
100
AcDbEntity
  8
DETAIL_MEDIUM
  6
CONTINUOUS
100
AcDbBlockBegin
  2
IO_CYC_DIN_REG_SKIPPED
 70
     0
 10
100.0
 20
-340.0
 30
0.0
  1

  0
LINE
  5
DF3414A043338CA6
100
AcDbEntity
  8
DETAIL_MEDIUM
  6
CONTINUOUS
100
AcDbLine
 10
100.0
 20
-300.0
 30
0.0
 11
420.0
 21
-300.0
 31
0.0
  0
LINE
  5
DF3414A043338CA7
100
AcDbEntity
  8
DETAIL_MEDIUM
  6
CONTINUOUS
100
AcDbLine
 10
100.0
 20
-340.0
 30
0.0
 11
100.0
 21
-300.0
 31
0.0
  0
ENDBLK
  5
DF3414A043338CB0
100
AcDbEntity
  8
DETAIL_MEDIUM
  6
CONTINUOUS
100
AcDbBlockEnd
  0
BLOCK
  5
DF3414A4C8779F84
100
AcDbEntity
  8
PORTS
  6
CONTINUOUS
100
AcDbBlockBegin
  2
IO_CYC_CLK_OUT
 70
     2
 10
0.0
 20
0.0
 30
0.0
  1

  0
POLYLINE
  5
DF3414A4C8779F78
100
AcDbEntity
  8
PORTS
  6
CONTINUOUS
100
AcDb2dPolyline
 66
     1
 10
0.0
 20
0.0
 30
0.0
 70
     1
  0
VERTEX
  5
DF3414A4C8779F79
100
AcDbEntity
  8
PORTS
  6
CONTINUOUS
100
AcDbVertex
100
AcDb2dVertex
 10
80.0
 20
-110.0
 30
0.0
  0
VERTEX
  5
DF3414A4C8779F7A
100
AcDbEntity
  8
PORTS
  6
CONTINUOUS
100
AcDbVertex
100
AcDb2dVertex
 10
72.0
 20
-116.0
 30
0.0
  0
VERTEX
  5
DF3414A4C8779F7B
100
AcDbEntity
  8
PORTS
  6
CONTINUOUS
100
AcDbVertex
100
AcDb2dVertex
 10
0.0
 20
-116.0
 30
0.0
  0
VERTEX
  5
DF3414A4C8779F7C
100
AcDbEntity
  8
PORTS
  6
CONTINUOUS
100
AcDbVertex
100
AcDb2dVertex
 10
0.0
 20
-104.0
 30
0.0
  0
VERTEX
  5
DF3414A4C8779F7D
100
AcDbEntity
  8
PORTS
  6
CONTINUOUS
100
AcDbVertex
100
AcDb2dVertex
 10
72.0
 20
-104.0
 30
0.0
  0
VERTEX
  5
DF3414A4C8779F7E
100
AcDbEntity
  8
PORTS
  6
CONTINUOUS
100
AcDbVertex
100
AcDb2dVertex
 10
80.0
 20
-110.0
 30
0.0
  0
SEQEND
  5
DF3414A4C8779F7F
100
AcDbEntity
  8
PORTS
  6
CONTINUOUS
  0
POINT
  5
DF3414A4C8779F80
100
AcDbEntity
  8
PORTS
  6
CONTINUOUS
100
AcDbPoint
 10
80.0
 20
-110.0
 30
0.0
  0
ATTDEF
  5
DF3414A4C8779F77
100
AcDbEntity
  8
PORTS
  6
CONTINUOUS
100
AcDbText
 10
2.0
 20
-98.0
 30
0.0
 40
10.0
  1

  7
SIMPLEX
100
AcDbAttributeDefinition
  3

  2
SIDE
 70
     0
  0
ENDBLK
  5
DF3414A4C8779F85
100
AcDbEntity
  8
PORTS
  6
CONTINUOUS
100
AcDbBlockEnd
  0
BLOCK
  5
DF3414A94DBCD9FE
100
AcDbEntity
  8
PORTS
  6
CONTINUOUS
100
AcDbBlockBegin
  2
IO_CYC_CE_OUT
 70
     2
 10
0.0
 20
0.0
 30
0.0
  1

  0
ATTDEF
  5
DF3414A94DBCD9F9
100
AcDbEntity
  8
PORTS
  6
CONTINUOUS
100
AcDbText
 10
2.0
 20
-138.0
 30
0.0
 40
10.0
  1

  7
SIMPLEX
100
AcDbAttributeDefinition
  3

  2
SIDE
 70
     0
  0
POLYLINE
  5
DF3414A94DBCD9F1
100
AcDbEntity
  8
PORTS
  6
CONTINUOUS
100
AcDb2dPolyline
 66
     1
 10
0.0
 20
0.0
 30
0.0
 70
     1
  0
VERTEX
  5
DF3414A94DBCD9F2
100
AcDbEntity
  8
PORTS
  6
CONTINUOUS
100
AcDbVertex
100
AcDb2dVertex
 10
80.0
 20
-150.0
 30
0.0
  0
VERTEX
  5
DF3414A94DBCD9F3
100
AcDbEntity
  8
PORTS
  6
CONTINUOUS
100
AcDbVertex
100
AcDb2dVertex
 10
72.0
 20
-156.0
 30
0.0
  0
VERTEX
  5
DF3414A94DBCD9F4
100
AcDbEntity
  8
PORTS
  6
CONTINUOUS
100
AcDbVertex
100
AcDb2dVertex
 10
0.0
 20
-156.0
 30
0.0
  0
VERTEX
  5
DF3414A94DBCD9F5
100
AcDbEntity
  8
PORTS
  6
CONTINUOUS
100
AcDbVertex
100
AcDb2dVertex
 10
0.0
 20
-144.0
 30
0.0
  0
VERTEX
  5
DF3414A94DBCD9F6
100
AcDbEntity
  8
PORTS
  6
CONTINUOUS
100
AcDbVertex
100
AcDb2dVertex
 10
72.0
 20
-144.0
 30
0.0
  0
VERTEX
  5
DF3414A94DBCD9F7
100
AcDbEntity
  8
PORTS
  6
CONTINUOUS
100
AcDbVertex
100
AcDb2dVertex
 10
80.0
 20
-150.0
 30
0.0
  0
SEQEND
  5
DF3414A94DBCD9F8
100
AcDbEntity
  8
PORTS
  6
CONTINUOUS
  0
POINT
  5
DF3414A94DBCD9FA
100
AcDbEntity
  8
PORTS
  6
CONTINUOUS
100
AcDbPoint
 10
80.0
 20
-150.0
 30
0.0
  0
ENDBLK
  5
DF3414A94DBCD9FF
100
AcDbEntity
  8
PORTS
  6
CONTINUOUS
100
AcDbBlockEnd
  0
BLOCK
  5
DF3414A16483B3B2
100
AcDbEntity
  8
PORTS
  6
CONTINUOUS
100
AcDbBlockBegin
  2
IO_CYC_ACLR
 70
     2
 10
0.0
 20
0.0
 30
0.0
  1

  0
POLYLINE
  5
DF3414A16483B3A7
100
AcDbEntity
  8
PORTS
  6
CONTINUOUS
100
AcDb2dPolyline
 66
     1
 10
0.0
 20
0.0
 30
0.0
 70
     1
  0
VERTEX
  5
DF3414A16483B3A8
100
AcDbEntity
  8
PORTS
  6
CONTINUOUS
100
AcDbVertex
100
AcDb2dVertex
 10
80.0
 20
-200.0
 30
0.0
  0
VERTEX
  5
DF3414A16483B3A9
100
AcDbEntity
  8
PORTS
  6
CONTINUOUS
100
AcDbVertex
100
AcDb2dVertex
 10
72.0
 20
-206.0
 30
0.0
  0
VERTEX
  5
DF3414A16483B3AA
100
AcDbEntity
  8
PORTS
  6
CONTINUOUS
100
AcDbVertex
100
AcDb2dVertex
 10
0.0
 20
-206.0
 30
0.0
  0
VERTEX
  5
DF3414A16483B3AB
100
AcDbEntity
  8
PORTS
  6
CONTINUOUS
100
AcDbVertex
100
AcDb2dVertex
 10
0.0
 20
-194.0
 30
0.0
  0
VERTEX
  5
DF3414A16483B3AC
100
AcDbEntity
  8
PORTS
  6
CONTINUOUS
100
AcDbVertex
100
AcDb2dVertex
 10
72.0
 20
-194.0
 30
0.0
  0
VERTEX
  5
DF3414A16483B3AD
100
AcDbEntity
  8
PORTS
  6
CONTINUOUS
100
AcDbVertex
100
AcDb2dVertex
 10
80.0
 20
-200.0
 30
0.0
  0
SEQEND
  5
DF3414A16483B3AE
100
AcDbEntity
  8
PORTS
  6
CONTINUOUS
  0
ATTDEF
  5
DF3414A16483B3B0
100
AcDbEntity
  8
PORTS
  6
CONTINUOUS
100
AcDbText
 10
2.0
 20
-188.0
 30
0.0
 40
10.0
  1

  7
SIMPLEX
100
AcDbAttributeDefinition
  3

  2
SIDE
 70
     0
  0
POINT
  5
DF3414A16483B3AF
100
AcDbEntity
  8
PORTS
  6
CONTINUOUS
100
AcDbPoint
 10
80.0
 20
-200.0
 30
0.0
  0
ENDBLK
  5
DF3414A16483B3B3
100
AcDbEntity
  8
PORTS
  6
CONTINUOUS
100
AcDbBlockEnd
  0
BLOCK
  5
DF3414A04332654B
100
AcDbEntity
  8
DETAIL_MEDIUM
  6
CONTINUOUS
100
AcDbBlockBegin
  2
IO_CYC_ACLR_TO_REG_0
 70
     0
 10
340.0
 20
-170.0
 30
0.0
  1

  0
LINE
  5
DF3414A04332628A
100
AcDbEntity
  8
DETAIL_MEDIUM
  6
CONTINUOUS
100
AcDbLine
 10
440.0
 20
-170.0
 30
0.0
 11
340.0
 21
-170.0
 31
0.0
  0
LINE
  5
DF2FDC573EC57D70
100
AcDbEntity
  8
DETAIL_MEDIUM
  6
CONTINUOUS
100
AcDbLine
 10
440.0
 20
-150.0
 30
0.0
 11
440.0
 21
-170.0
 31
0.0
  0
ENDBLK
  5
DF3414A04332654D
100
AcDbEntity
  8
DETAIL_MEDIUM
  6
CONTINUOUS
100
AcDbBlockEnd
  0
BLOCK
  5
DF3414A04332654F
100
AcDbEntity
  8
DETAIL_MEDIUM
  6
CONTINUOUS
100
AcDbBlockBegin
  2
IO_CYC_ACLR_TO_REG_1_OR_2
 70
     0
 10
340.0
 20
-440.0
 30
0.0
  1

  0
LINE
  5
DF3414A043326312
100
AcDbEntity
  8
DETAIL_MEDIUM
  6
CONTINUOUS
100
AcDbLine
 10
340.0
 20
-170.0
 30
0.0
 11
340.0
 21
-440.0
 31
0.0
  0
LINE
  5
DF2FBBA34984513B
100
AcDbEntity
  8
DETAIL_MEDIUM
  6
CONTINUOUS
100
AcDbLine
 10
440.0
 20
-440.0
 30
0.0
 11
340.0
 21
-440.0
 31
0.0
  0
ENDBLK
  5
DF3414A043326551
100
AcDbEntity
  8
DETAIL_MEDIUM
  6
CONTINUOUS
100
AcDbBlockEnd
  0
BLOCK
  5
DF3414A043326553
100
AcDbEntity
  8
DETAIL_MEDIUM
  6
CONTINUOUS
100
AcDbBlockBegin
  2
IO_CYC_ACLR_TO_REG_1
 70
     0
 10
440.0
 20
-440.0
 30
0.0
  1

  0
LINE
  5
DF3044E270BF8314
100
AcDbEntity
  8
DETAIL_MEDIUM
  6
CONTINUOUS
100
AcDbLine
 10
440.0
 20
-420.0
 30
0.0
 11
440.0
 21
-440.0
 31
0.0
  0
ENDBLK
  5
DF3414A043326555
100
AcDbEntity
  8
DETAIL_MEDIUM
  6
CONTINUOUS
100
AcDbBlockEnd
  0
BLOCK
  5
DF3414A043326557
100
AcDbEntity
  8
DETAIL_MEDIUM
  6
CONTINUOUS
100
AcDbBlockBegin
  2
IO_CYC_ACLR_TO_REG_2
 70
     0
 10
440.0
 20
-440.0
 30
0.0
  1

  0
LINE
  5
DF3414A043326314
100
AcDbEntity
  8
DETAIL_MEDIUM
  6
CONTINUOUS
100
AcDbLine
 10
440.0
 20
-440.0
 30
0.0
 11
1100.0
 21
-440.0
 31
0.0
  0
LINE
  5
DF3414A043326315
100
AcDbEntity
  8
DETAIL_MEDIUM
  6
CONTINUOUS
100
AcDbLine
 10
1100.0
 20
-440.0
 30
0.0
 11
1100.0
 21
-420.0
 31
0.0
  0
ENDBLK
  5
DF3414A043326559
100
AcDbEntity
  8
DETAIL_MEDIUM
  6
CONTINUOUS
100
AcDbBlockEnd
  0
BLOCK
  5
DF3414A04332655B
100
AcDbEntity
  8
DETAIL_MEDIUM
  6
CONTINUOUS
100
AcDbBlockBegin
  2
IO_CYC_SCLR_TO_REG_1_OR_2
 70
     0
 10
440.0
 20
-250.0
 30
0.0
  1

  0
LINE
  5
DF3414A043326387
100
AcDbEntity
  8
DETAIL_MEDIUM
  6
CONTINUOUS
100
AcDbLine
 10
440.0
 20
20.0
 30
0.0
 11
510.0
 21
20.0
 31
0.0
  0
LINE
  5
DF3414A0433263C0
100
AcDbEntity
  8
DETAIL_MEDIUM
  6
CONTINUOUS
100
AcDbLine
 10
510.0
 20
20.0
 30
0.0
 11
510.0
 21
-250.0
 31
0.0
  0
ENDBLK
  5
DF3414A04332655D
100
AcDbEntity
  8
DETAIL_MEDIUM
  6
CONTINUOUS
100
AcDbBlockEnd
  0
BLOCK
  5
DF3414A043326562
100
AcDbEntity
  8
DETAIL_MEDIUM
  6
CONTINUOUS
100
AcDbBlockBegin
  2
IO_CYC_SCLR_TO_REG_1
 70
     0
 10
440.0
 20
-290.0
 30
0.0
  1

  0
LINE
  5
DF3414A04332655F
100
AcDbEntity
  8
DETAIL_MEDIUM
  6
CONTINUOUS
100
AcDbLine
 10
440.0
 20
-250.0
 30
0.0
 11
510.0
 21
-250.0
 31
0.0
  0
LINE
  5
DF3414A0433263C2
100
AcDbEntity
  8
DETAIL_MEDIUM
  6
CONTINUOUS
100
AcDbLine
 10
440.0
 20
-290.0
 30
0.0
 11
440.0
 21
-250.0
 31
0.0
  0
ENDBLK
  5
DF3414A043326564
100
AcDbEntity
  8
DETAIL_MEDIUM
  6
CONTINUOUS
100
AcDbBlockEnd
  0
BLOCK
  5
DF3414A043326566
100
AcDbEntity
  8
DETAIL_MEDIUM
  6
CONTINUOUS
100
AcDbBlockBegin
  2
IO_CYC_SCLR_TO_REG_2
 70
     0
 10
510.0
 20
-290.0
 30
0.0
  1

  0
LINE
  5
DF3414A043326560
100
AcDbEntity
  8
DETAIL_MEDIUM
  6
CONTINUOUS
100
AcDbLine
 10
510.0
 20
-250.0
 30
0.0
 11
1100.0
 21
-250.0
 31
0.0
  0
LINE
  5
DF3414A0433263B9
100
AcDbEntity
  8
DETAIL_MEDIUM
  6
CONTINUOUS
100
AcDbLine
 10
1100.0
 20
-290.0
 30
0.0
 11
1100.0
 21
-250.0
 31
0.0
  0
ENDBLK
  5
DF3414A043326568
100
AcDbEntity
  8
DETAIL_MEDIUM
  6
CONTINUOUS
100
AcDbBlockEnd
  0
BLOCK
  5
DF3414A04332656A
100
AcDbEntity
  8
DETAIL_MEDIUM
  6
CONTINUOUS
100
AcDbBlockBegin
  2
IO_CYC_SCLR_TO_REG_0
 70
     0
 10
440.0
 20
-20.0
 30
0.0
  1

  0
LINE
  5
DF3414A043326382
100
AcDbEntity
  8
DETAIL_MEDIUM
  6
CONTINUOUS
100
AcDbLine
 10
440.0
 20
20.0
 30
0.0
 11
440.0
 21
-20.0
 31
0.0
  0
ENDBLK
  5
DF3414A04332656C
100
AcDbEntity
  8
DETAIL_MEDIUM
  6
CONTINUOUS
100
AcDbBlockEnd
  0
BLOCK
  5
DF3414A055481678
100
AcDbEntity
  8
DETAIL_MEDIUM
  6
CONTINUOUS
100
AcDbBlockBegin
  2
IO_CYC_REG_0_USED
 70
     0
 10
0.0
 20
0.0
 30
0.0
  1

  0
LINE
  5
DF3414A055481676
100
AcDbEntity
  8
DETAIL_MEDIUM
  6
CONTINUOUS
100
AcDbLine
 10
300.0
 20
-70.0
 30
0.0
 11
490.0
 21
-70.0
 31
0.0
  0
ENDBLK
  5
DF3414A055481679
100
AcDbEntity
  8
DETAIL_MEDIUM
  6
CONTINUOUS
100
AcDbBlockEnd
  0
BLOCK
  5
DF3414A0433266C0
100
AcDbEntity
  8
DETAIL_MEDIUM
  6
CONTINUOUS
100
AcDbBlockBegin
  2
IO_CYC_REG_0_SKIPPED
 70
     0
 10
320.0
 20
-40.0
 30
0.0
  1

  0
LINE
  5
DF3414A0433266B1
100
AcDbEntity
  8
DETAIL_MEDIUM
  6
CONTINUOUS
100
AcDbLine
 10
320.0
 20
0.0
 30
0.0
 11
670.0
 21
0.0
 31
0.0
  0
LINE
  5
DF3414A0433266B0
100
AcDbEntity
  8
DETAIL_MEDIUM
  6
CONTINUOUS
100
AcDbLine
 10
320.0
 20
-40.0
 30
0.0
 11
320.0
 21
0.0
 31
0.0
  0
ENDBLK
  5
DF3414A0433266C2
100
AcDbEntity
  8
DETAIL_MEDIUM
  6
CONTINUOUS
100
AcDbBlockEnd
  0
BLOCK
  5
DF3414A043327869
100
AcDbEntity
  8
DETAIL_MEDIUM
  6
CONTINUOUS
100
AcDbBlockBegin
  2
IO_CYC_REGOUT_USED
 70
     0
 10
830.0
 20
-400.0
 30
0.0
  1

  0
POLYLINE
  5
DF2FCAEAB67126F3
100
AcDbEntity
  8
DETAIL_MEDIUM
  6
CONTINUOUS
100
AcDb2dPolyline
 66
     1
 10
0.0
 20
0.0
 30
0.0
  0
VERTEX
  5
DF3414A04332ADF1
100
AcDbEntity
  8
DETAIL_MEDIUM
  6
CONTINUOUS
100
AcDbVertex
100
AcDb2dVertex
 10
830.0
 20
-400.0
 30
0.0
  0
VERTEX
  5
DF3414A04332ADF2
100
AcDbEntity
  8
DETAIL_MEDIUM
  6
CONTINUOUS
100
AcDbVertex
100
AcDb2dVertex
 10
870.0
 20
-400.0
 30
0.0
  0
SEQEND
  5
DF3414A04332ADF3
100
AcDbEntity
  8
DETAIL_MEDIUM
  6
CONTINUOUS
  0
LINE
  5
DF3414A043326397
100
AcDbEntity
  8
DETAIL_MEDIUM
  6
CONTINUOUS
100
AcDbLine
 10
980.0
 20
-400.0
 30
0.0
 11
950.0
 21
-400.0
 31
0.0
  0
LINE
  5
DF3414A043326396
100
AcDbEntity
  8
DETAIL_MEDIUM
  6
CONTINUOUS
100
AcDbLine
 10
980.0
 20
-310.0
 30
0.0
 11
980.0
 21
-400.0
 31
0.0
  0
ENDBLK
  5
DF3414A04332786A
100
AcDbEntity
  8
DETAIL_MEDIUM
  6
CONTINUOUS
100
AcDbBlockEnd
  0
BLOCK
  5
DF3414A04332786E
100
AcDbEntity
  8
DETAIL_MEDIUM
  6
CONTINUOUS
100
AcDbBlockBegin
  2
IO_CYC_COMBOUT_OR_CLOCK_USED
 70
     0
 10
830.0
 20
-400.0
 30
0.0
  1

  0
LINE
  5
DF3414A04332644B
100
AcDbEntity
  8
DETAIL_MEDIUM
  6
CONTINUOUS
100
AcDbLine
 10
850.0
 20
-400.0
 30
0.0
 11
850.0
 21
-160.0
 31
0.0
  0
LINE
  5
DF3414A04332786C
100
AcDbEntity
  8
DETAIL_MEDIUM
  6
CONTINUOUS
100
AcDbLine
 10
830.0
 20
-400.0
 30
0.0
 11
850.0
 21
-400.0
 31
0.0
  0
ENDBLK
  5
DF3414A043327870
100
AcDbEntity
  8
DETAIL_MEDIUM
  6
CONTINUOUS
100
AcDbBlockEnd
  0
BLOCK
  5
DF3414B25834E863
100
AcDbEntity
  8
DETAIL_MEDIUM
  6
CONTINUOUS
100
AcDbBlockBegin
  2
IO_CYC
 70
     0
 10
0.0
 20
0.0
 30
0.0
  1

  0
INSERT
  5
DF3414A94DBCDA7C
100
AcDbEntity
  8
DETAIL_MEDIUM
  6
CONTINUOUS
100
AcDbBlockReference
 66
     1
  2
IO_CYC_REGISTER
 10
230.0
 20
-190.0
 30
0.0
  0
ATTRIB
  5
DF3414A94DBCDA7D
100
AcDbEntity
  8
DETAIL_MEDIUM
  6
CONTINUOUS
100
AcDbText
 10
260.0
 20
-130.0
 30
0.0
 40
10.0
  1
0
  7
SIMPLEX
100
AcDbAttribute
  2
index
 70
     0
  0
SEQEND
  5
DF3414A94DBCDA7E
100
AcDbEntity
  8
DETAIL_MEDIUM
  6
CONTINUOUS
  0
INSERT
  5
DF3414A94DBCDA7F
100
AcDbEntity
  8
DETAIL_MEDIUM
  6
CONTINUOUS
100
AcDbBlockReference
 66
     1
  2
IO_CYC_REGISTER
 10
230.0
 20
-460.0
 30
0.0
  0
ATTRIB
  5
DF3414A94DBCDA80
100
AcDbEntity
  8
DETAIL_MEDIUM
  6
CONTINUOUS
100
AcDbText
 10
260.0
 20
-400.0
 30
0.0
 40
10.0
  1
1
  7
SIMPLEX
100
AcDbAttribute
  2
index
 70
     0
  0
SEQEND
  5
DF3414A94DBCDA81
100
AcDbEntity
  8
DETAIL_MEDIUM
  6
CONTINUOUS
  0
INSERT
  5
DF3414A94DBCDA82
100
AcDbEntity
  8
DETAIL_MEDIUM
  6
CONTINUOUS
100
AcDbBlockReference
 66
     1
  2
IO_CYC_REGISTER
 10
890.0
 20
-460.0
 30
0.0
  0
ATTRIB
  5
DF3414A94DBCDA83
100
AcDbEntity
  8
DETAIL_MEDIUM
  6
CONTINUOUS
100
AcDbText
 10
920.0
 20
-400.0
 30
0.0
 40
10.0
  1
2
  7
SIMPLEX
100
AcDbAttribute
  2
index
 70
     0
  0
SEQEND
  5
DF3414A94DBCDA84
100
AcDbEntity
  8
DETAIL_MEDIUM
  6
CONTINUOUS
  0
INSERT
  5
DF3414A94DBCDA85
100
AcDbEntity
  8
DETAIL_MEDIUM
  6
CONTINUOUS
100
AcDbBlockReference
  2
IO_CYC_PAD
 10
600.0
 20
-470.0
 30
0.0
  0
INSERT
  5
DF3414A94DBCDA86
100
AcDbEntity
  8
DETAIL_MEDIUM
  6
CONTINUOUS
100
AcDbBlockReference
  2
IO_CYC_REG_2_BYPASS
 10
810.0
 20
-350.0
 30
0.0
  0
INSERT
  5
DF3414A94DBCDA87
100
AcDbEntity
  8
DETAIL_MEDIUM
  6
CONTINUOUS
100
AcDbBlockReference
  2
IO_CYC_ACLR_TO_REG_0
 10
170.0
 20
-210.0
 30
0.0
  0
INSERT
  5
DF3414A94DBCDA88
100
AcDbEntity
  8
DETAIL_MEDIUM
  6
CONTINUOUS
100
AcDbBlockReference
  2
IO_CYC_ACLR_TO_REG_1_OR_2
 10
170.0
 20
-480.0
 30
0.0
  0
INSERT
  5
DF3414A94DBCDA89
100
AcDbEntity
  8
DETAIL_MEDIUM
  6
CONTINUOUS
100
AcDbBlockReference
  2
IO_CYC_ACLR_TO_REG_1
 10
270.0
 20
-480.0
 30
0.0
  0
INSERT
  5
DF3414A94DBCDA8A
100
AcDbEntity
  8
DETAIL_MEDIUM
  6
CONTINUOUS
100
AcDbBlockReference
  2
IO_CYC_ACLR_TO_REG_2
 10
270.0
 20
-480.0
 30
0.0
  0
INSERT
  5
DF3414A94DBCDA8B
100
AcDbEntity
  8
DETAIL_MEDIUM
  6
CONTINUOUS
100
AcDbBlockReference
  2
IO_CYC_SCLR_TO_REG_1_OR_2
 10
270.0
 20
-290.0
 30
0.0
  0
INSERT
  5
DF3414A94DBCDA8C
100
AcDbEntity
  8
DETAIL_MEDIUM
  6
CONTINUOUS
100
AcDbBlockReference
  2
IO_CYC_SCLR_TO_REG_1
 10
270.0
 20
-330.0
 30
0.0
  0
INSERT
  5
DF3414A94DBCDA8D
100
AcDbEntity
  8
DETAIL_MEDIUM
  6
CONTINUOUS
100
AcDbBlockReference
  2
IO_CYC_SCLR_TO_REG_2
 10
340.0
 20
-330.0
 30
0.0
  0
INSERT
  5
DF3414A94DBCDA8E
100
AcDbEntity
  8
DETAIL_MEDIUM
  6
CONTINUOUS
100
AcDbBlockReference
  2
IO_CYC_SCLR_TO_REG_0
 10
270.0
 20
-60.0
 30
0.0
  0
INSERT
  5
DF3414A94DBCDA8F
100
AcDbEntity
  8
DETAIL_MEDIUM
  6
CONTINUOUS
100
AcDbBlockReference
  2
IO_CYC_REG_0_SKIPPED
 10
150.0
 20
-80.0
 30
0.0
  0
INSERT
  5
DF3414A94DBCDA90
100
AcDbEntity
  8
DETAIL_MEDIUM
  6
CONTINUOUS
100
AcDbBlockReference
  2
IO_CYC_REGOUT_USED
 10
660.0
 20
-440.0
 30
0.0
  0
INSERT
  5
DF3414A94DBCDA91
100
AcDbEntity
  8
DETAIL_MEDIUM
  6
CONTINUOUS
100
AcDbBlockReference
  2
IO_CYC_COMBOUT_OR_CLOCK_USED
 10
660.0
 20
-440.0
 30
0.0
  0
INSERT
  5
DF3414A94DBCDA92
100
AcDbEntity
  8
DETAIL_MEDIUM
  6
CONTINUOUS
100
AcDbBlockReference
  2
IO_CYC_DIN_REG_SKIPPED
 10
110.0
 20
-350.0
 30
0.0
  0
INSERT
  5
DF3414A94DBCDA93
100
AcDbEntity
  8
DETAIL_MEDIUM
  6
CONTINUOUS
100
AcDbBlockReference
 66
     1
  2
IO_CYC_DELAY_CHAIN
 10
330.0
 20
-380.0
 30
0.0
  0
ATTRIB
  5
DF3414A94DBCDA94
100
AcDbEntity
  8
DETAIL_MEDIUM
  6
CONTINUOUS
100
AcDbText
 10
400.0
 20
-370.0
 30
0.0
 40
10.0
  1
0
  7
SIMPLEX
100
AcDbAttribute
  2
index
 70
     0
  0
ATTRIB
  5
DF3414A94DBCDA95
100
AcDbEntity
  8
DETAIL_MEDIUM
  6
CONTINUOUS
100
AcDbText
 10
340.0
 20
-380.0
 30
0.0
 40
10.0
  1
Output Pin Delay
  7
SIMPLEX
100
AcDbAttribute
  2
name
 70
     0
  0
SEQEND
  5
DF3414A94DBCDA96
100
AcDbEntity
  8
DETAIL_MEDIUM
  6
CONTINUOUS
  0
INSERT
  5
DF3414A94DBCDA97
100
AcDbEntity
  8
DETAIL_MEDIUM
  6
CONTINUOUS
100
AcDbBlockReference
 66
     1
  2
IO_CYC_DELAY_CHAIN
 10
700.0
 20
-470.0
 30
0.0
  0
ATTRIB
  5
DF3414A94DBCDA98
100
AcDbEntity
  8
DETAIL_MEDIUM
  6
CONTINUOUS
100
AcDbText
 10
770.0
 20
-460.0
 30
0.0
 40
10.0
  1
1
  7
SIMPLEX
100
AcDbAttribute
  2
index
 70
     0
  0
ATTRIB
  5
DF3414A94DBCDA99
100
AcDbEntity
  8
DETAIL_MEDIUM
  6
CONTINUOUS
100
AcDbText
 10
710.0
 20
-470.0
 30
0.0
 40
10.0
  1
Input Pin to Input Register Delay
  7
SIMPLEX
100
AcDbAttribute
  2
name
 70
     0
  0
SEQEND
  5
DF3414A94DBCDA9A
100
AcDbEntity
  8
DETAIL_MEDIUM
  6
CONTINUOUS
  0
INSERT
  5
DF3414A94DBCDA9B
100
AcDbEntity
  8
DETAIL_MEDIUM
  6
CONTINUOUS
100
AcDbBlockReference
 66
     1
  2
IO_CYC_DELAY_CHAIN
 10
700.0
 20
-230.0
 30
0.0
  0
ATTRIB
  5
DF3414A94DBCDA9C
100
AcDbEntity
  8
DETAIL_MEDIUM
  6
CONTINUOUS
100
AcDbText
 10
770.0
 20
-220.0
 30
0.0
 40
10.0
  1
2
  7
SIMPLEX
100
AcDbAttribute
  2
index
 70
     0
  0
ATTRIB
  5
DF3414A94DBCDA9D
100
AcDbEntity
  8
DETAIL_MEDIUM
  6
CONTINUOUS
100
AcDbText
 10
710.0
 20
-230.0
 30
0.0
 40
10.0
  1
Input Pin to Logic Array Delay 0
  7
SIMPLEX
100
AcDbAttribute
  2
name
 70
     0
  0
SEQEND
  5
DF3414A94DBCDA9E
100
AcDbEntity
  8
DETAIL_MEDIUM
  6
CONTINUOUS
  0
INSERT
  5
DF3414A94DBCDA9F
100
AcDbEntity
  8
DETAIL_MEDIUM
  6
CONTINUOUS
100
AcDbBlockReference
 66
     1
  2
IO_CYC_DELAY_CHAIN
 10
700.0
 20
-470.0
 30
0.0
  0
ATTRIB
  5
DF3414A94DBCDAA0
100
AcDbEntity
  8
DETAIL_MEDIUM
  6
CONTINUOUS
100
AcDbText
 10
770.0
 20
-460.0
 30
0.0
 40
10.0
  1
3
  7
SIMPLEX
100
AcDbAttribute
  2
index
 70
     0
  0
ATTRIB
  5
DF3414A94DBCDAA1
100
AcDbEntity
  8
DETAIL_MEDIUM
  6
CONTINUOUS
100
AcDbText
 10
710.0
 20
-470.0
 30
0.0
 40
10.0
  1
Input Pin to Logic Array Delay 1
  7
SIMPLEX
100
AcDbAttribute
  2
name
 70
     0
  0
SEQEND
  5
DF3414A94DBCDAA2
100
AcDbEntity
  8
DETAIL_MEDIUM
  6
CONTINUOUS
  0
INSERT
  5
DF3414A94DBCDAA6
100
AcDbEntity
  8
DETAIL_MEDIUM
  6
CONTINUOUS
100
AcDbBlockReference
  2
IO_CYC_COMBOUT_WIRE
 10
10.0
 20
-10.0
 30
0.0
  0
INSERT
  5
DF3414A94DBCDAA7
100
AcDbEntity
  8
PORTS
  6
CONTINUOUS
100
AcDbBlockReference
 66
     1
  2
IO_CYC_REGOUT
 10
10.0
 20
-10.0
 30
0.0
  0
ATTRIB
  5
DF3414A94DBCDAA8
100
AcDbEntity
  8
PORTS
  6
CONTINUOUS
100
AcDbText
 10
1062.0
 20
-278.0
 30
0.0
 40
10.0
  1
RIGHT
 50
0.000019
  7
SIMPLEX
100
AcDbAttribute
  2
SIDE
 70
     0
  0
SEQEND
  5
DF3414A94DBCDAA9
100
AcDbEntity
  8
PORTS
  6
CONTINUOUS
  0
INSERT
  5
DF3414A94DBCDAAA
100
AcDbEntity
  8
DETAIL_MEDIUM
  6
CONTINUOUS
100
AcDbBlockReference
  2
IO_CYC_REGOUT_MUX
 10
10.0
 20
-10.0
 30
0.0
  0
INSERT
  5
DF3414A94DBCDAAB
100
AcDbEntity
  8
DETAIL_MEDIUM
  6
CONTINUOUS
100
AcDbBlockReference
  2
IO_CYC_REG_2_USED
 10
10.0
 20
-10.0
 30
0.0
  0
INSERT
  5
DF3414A94DBCDAAC
100
AcDbEntity
  8
DETAIL_MEDIUM
  6
CONTINUOUS
100
AcDbBlockReference
  2
IO_CYC_REG_2_USED_WIRE
 10
10.0
 20
-10.0
 30
0.0
  0
INSERT
  5
DF3414A94DBCDAAD
100
AcDbEntity
  8
PORTS
  6
CONTINUOUS
100
AcDbBlockReference
 66
     1
  2
IO_CYC_CLK_IN
 10
10.0
 20
-10.0
 30
0.0
  0
ATTRIB
  5
DF3414A94DBCDAAE
100
AcDbEntity
  8
PORTS
  6
CONTINUOUS
100
AcDbText
 10
732.0
 20
-508.0
 30
0.0
 40
10.0
  1
LEFT
 50
0.000019
  7
SIMPLEX
100
AcDbAttribute
  2
SIDE
 70
     0
  0
SEQEND
  5
DF3414A94DBCDAAF
100
AcDbEntity
  8
PORTS
  6
CONTINUOUS
  0
INSERT
  5
DF3414A94DBCDAB0
100
AcDbEntity
  8
DETAIL_MEDIUM
  6
CONTINUOUS
100
AcDbBlockReference
  2
IO_CYC_CLK_IN_WIRE
 10
10.0
 20
-10.0
 30
0.0
  0
INSERT
  5
DF3414A94DBCDAB1
100
AcDbEntity
  8
PORTS
  6
CONTINUOUS
100
AcDbBlockReference
 66
     1
  2
IO_CYC_CE_IN
 10
10.0
 20
-10.0
 30
0.0
  0
ATTRIB
  5
DF3414A94DBCDAB2
100
AcDbEntity
  8
PORTS
  6
CONTINUOUS
100
AcDbText
 10
732.0
 20
-548.0
 30
0.0
 40
10.0
  1
LEFT
 50
0.000019
  7
SIMPLEX
100
AcDbAttribute
  2
SIDE
 70
     0
  0
SEQEND
  5
DF3414A94DBCDAB3
100
AcDbEntity
  8
PORTS
  6
CONTINUOUS
  0
INSERT
  5
DF3414A94DBCDAB4
100
AcDbEntity
  8
DETAIL_MEDIUM
  6
CONTINUOUS
100
AcDbBlockReference
  2
IO_CYC_CE_IN_WIRE
 10
10.0
 20
-10.0
 30
0.0
  0
INSERT
  5
DF3414A94DBCDAB5
100
AcDbEntity
  8
DETAIL_MEDIUM
100
AcDbBlockReference
  2
IO_CYC_OE_MUX
 10
10.0
 20
-10.0
 30
0.0
  0
INSERT
  5
DF3414A94DBCDAB6
100
AcDbEntity
  8
DETAIL_MEDIUM
  6
CONTINUOUS
100
AcDbBlockReference
  2
IO_CYC_OE_MUX_WIRE
 10
10.0
 20
-10.0
 30
0.0
  0
INSERT
  5
DF3414A94DBCDAB7
100
AcDbEntity
  8
DETAIL_MEDIUM
  6
CONTINUOUS
100
AcDbBlockReference
  2
IO_CYC_BUFFER
 10
10.0
 20
-10.0
 30
0.0
  0
INSERT
  5
DF3414A94DBCDAB8
100
AcDbEntity
  8
DETAIL_MEDIUM
100
AcDbBlockReference
  2
IO_CYC_DIN_MUX
 10
10.0
 20
-10.0
 30
0.0
  0
INSERT
  5
DF3414A94DBCDAB9
100
AcDbEntity
  8
DETAIL_MEDIUM
  6
CONTINUOUS
100
AcDbBlockReference
  2
IO_CYC_DIN_MUX_WIRE
 10
10.0
 20
-10.0
 30
0.0
  0
INSERT
  5
DF3414A94DBCDABA
100
AcDbEntity
  8
DETAIL_MEDIUM
  6
CONTINUOUS
100
AcDbBlockReference
  2
IO_CYC_REG_0_USED
 10
10.0
 20
-10.0
 30
0.0
  0
INSERT
  5
DF3414A94DBCDABB
100
AcDbEntity
  8
DETAIL_MEDIUM
  6
CONTINUOUS
100
AcDbBlockReference
  2
IO_CYC_REG_0_USED_WIRE
 10
10.0
 20
-10.0
 30
0.0
  0
INSERT
  5
DF3414A94DBCDABC
100
AcDbEntity
  8
DETAIL_MEDIUM
  6
CONTINUOUS
100
AcDbBlockReference
  2
IO_CYC_DIN_REG_USED
 10
10.0
 20
-10.0
 30
0.0
  0
INSERT
  5
DF3414A94DBCDABD
100
AcDbEntity
  8
DETAIL_MEDIUM
  6
CONTINUOUS
100
AcDbBlockReference
  2
IO_CYC_DIN_REG_USED_WIRE
 10
10.0
 20
-10.0
 30
0.0
  0
INSERT
  5
DF3414A94DBCDABE
100
AcDbEntity
  8
PORTS
  6
CONTINUOUS
100
AcDbBlockReference
 66
     1
  2
IO_CYC_SCLR
 10
10.0
 20
-10.0
 30
0.0
  0
ATTRIB
  5
DF3414A94DBCDABF
100
AcDbEntity
  8
PORTS
  6
CONTINUOUS
100
AcDbText
 10
12.0
 20
-8.0
 30
0.0
 40
10.0
  1
LEFT
  7
SIMPLEX
100
AcDbAttribute
  2
SIDE
 70
     0
  0
SEQEND
  5
DF3414A94DBCDAC0
100
AcDbEntity
  8
PORTS
  6
CONTINUOUS
  0
INSERT
  5
DF3414A94DBCDAC1
100
AcDbEntity
  8
DETAIL_MEDIUM
  6
CONTINUOUS
100
AcDbBlockReference
  2
IO_CYC_SCLR_WIRE
 10
10.0
 20
-10.0
 30
0.0
  0
INSERT
  5
DF3414A94DBCDAC2
100
AcDbEntity
  8
PORTS
  6
CONTINUOUS
100
AcDbBlockReference
 66
     1
  2
IO_CYC_OE
 10
10.0
 20
-10.0
 30
0.0
  0
ATTRIB
  5
DF3414A94DBCDAC3
100
AcDbEntity
  8
PORTS
  6
CONTINUOUS
100
AcDbText
 10
12.0
 20
-68.0
 30
0.0
 40
10.0
  1
LEFT
  7
SIMPLEX
100
AcDbAttribute
  2
SIDE
 70
     0
  0
SEQEND
  5
DF3414A94DBCDAC4
100
AcDbEntity
  8
PORTS
  6
CONTINUOUS
  0
INSERT
  5
DF3414A94DBCDAC5
100
AcDbEntity
  8
DETAIL_MEDIUM
  6
CONTINUOUS
100
AcDbBlockReference
  2
IO_CYC_OE_WIRE
 10
10.0
 20
-10.0
 30
0.0
  0
INSERT
  5
DF3414A94DBCDAC6
100
AcDbEntity
  8
PORTS
  6
CONTINUOUS
100
AcDbBlockReference
 66
     1
  2
IO_CYC_ACLR
 10
10.0
 20
-10.0
 30
0.0
  0
ATTRIB
  5
DF3414A94DBCDAC7
100
AcDbEntity
  8
PORTS
  6
CONTINUOUS
100
AcDbText
 10
12.0
 20
-198.0
 30
0.0
 40
10.0
  1
LEFT
  7
SIMPLEX
100
AcDbAttribute
  2
SIDE
 70
     0
  0
SEQEND
  5
DF3414A94DBCDAC8
100
AcDbEntity
  8
PORTS
  6
CONTINUOUS
  0
INSERT
  5
DF3414A94DBCDAC9
100
AcDbEntity
  8
DETAIL_MEDIUM
  6
CONTINUOUS
100
AcDbBlockReference
  2
IO_CYC_ACLR_WIRE
 10
10.0
 20
-10.0
 30
0.0
  0
INSERT
  5
DF3414A94DBCDACA
100
AcDbEntity
  8
PORTS
  6
CONTINUOUS
100
AcDbBlockReference
 66
     1
  2
IO_CYC_DIN
 10
10.0
 20
-10.0
 30
0.0
  0
ATTRIB
  5
DF3414A94DBCDACB
100
AcDbEntity
  8
PORTS
  6
CONTINUOUS
100
AcDbText
 10
12.0
 20
-338.0
 30
0.0
 40
10.0
  1
LEFT
  7
SIMPLEX
100
AcDbAttribute
  2
SIDE
 70
     0
  0
SEQEND
  5
DF3414A94DBCDACC
100
AcDbEntity
  8
PORTS
  6
CONTINUOUS
  0
INSERT
  5
DF3414A94DBCDACD
100
AcDbEntity
  8
DETAIL_MEDIUM
  6
CONTINUOUS
100
AcDbBlockReference
  2
IO_CYC_DIN_WIRE
 10
10.0
 20
-10.0
 30
0.0
  0
INSERT
  5
DF3414A94DBCDACE
100
AcDbEntity
  8
PORTS
  6
CONTINUOUS
100
AcDbBlockReference
 66
     1
  2
IO_CYC_CLK_OUT
 10
10.0
 20
-10.0
 30
0.0
  0
ATTRIB
  5
DF3414A94DBCDACF
100
AcDbEntity
  8
PORTS
  6
CONTINUOUS
100
AcDbText
 10
12.0
 20
-108.0
 30
0.0
 40
10.0
  1
LEFT
  7
SIMPLEX
100
AcDbAttribute
  2
SIDE
 70
     0
  0
SEQEND
  5
DF3414A94DBCDAD0
100
AcDbEntity
  8
PORTS
  6
CONTINUOUS
  0
INSERT
  5
DF3414A94DBCDAD1
100
AcDbEntity
  8
DETAIL_MEDIUM
  6
CONTINUOUS
100
AcDbBlockReference
  2
IO_CYC_CLK_OUT_WIRE1
 10
10.0
 20
-10.0
 30
0.0
  0
INSERT
  5
DF3414A94DBCDAD2
100
AcDbEntity
  8
DETAIL_MEDIUM
  6
CONTINUOUS
100
AcDbBlockReference
  2
IO_CYC_CLK_OUT_WIRE2
 10
10.0
 20
-10.0
 30
0.0
  0
INSERT
  5
DF3414A94DBCDAD3
100
AcDbEntity
  8
DETAIL_MEDIUM
  6
CONTINUOUS
100
AcDbBlockReference
  2
IO_CYC_CLK_OUT_WIRE3
 10
10.0
 20
-10.0
 30
0.0
  0
INSERT
  5
DF3414A94DBCDAD4
100
AcDbEntity
  8
PORTS
  6
CONTINUOUS
100
AcDbBlockReference
 66
     1
  2
IO_CYC_CE_OUT
 10
10.0
 20
-10.0
 30
0.0
  0
ATTRIB
  5
DF3414A94DBCDAD5
100
AcDbEntity
  8
PORTS
  6
CONTINUOUS
100
AcDbText
 10
12.0
 20
-148.0
 30
0.0
 40
10.0
  1
LEFT
  7
SIMPLEX
100
AcDbAttribute
  2
SIDE
 70
     0
  0
SEQEND
  5
DF3414A94DBCDAD6
100
AcDbEntity
  8
PORTS
  6
CONTINUOUS
  0
INSERT
  5
DF3414A94DBCDAD7
100
AcDbEntity
  8
DETAIL_MEDIUM
  6
CONTINUOUS
100
AcDbBlockReference
  2
IO_CYC_CE_OUT_WIRE1
 10
10.0
 20
-10.0
 30
0.0
  0
INSERT
  5
DF3414A94DBCDAD8
100
AcDbEntity
  8
DETAIL_MEDIUM
  6
CONTINUOUS
100
AcDbBlockReference
  2
IO_CYC_CE_OUT_WIRE2
 10
10.0
 20
-10.0
 30
0.0
  0
INSERT
  5
DF3414A94DBCDAD9
100
AcDbEntity
  8
DETAIL_MEDIUM
  6
CONTINUOUS
100
AcDbBlockReference
  2
IO_CYC_CE_OUT_WIRE3
 10
10.0
 20
-10.0
 30
0.0
  0
INSERT
  5
DF3414A94DBCDAE1
100
AcDbEntity
  8
DETAIL_MEDIUM
  6
CONTINUOUS
100
AcDbBlockReference
  2
IO_CYC_BYPASS_DELAY_CHAIN_WIRE
 10
0.0
 20
0.0
 30
0.0
  0
INSERT
  5
DF3414B25834E85A
100
AcDbEntity
  8
PORTS
  6
CONTINUOUS
100
AcDbBlockReference
 66
     1
  2
IO_CYC_COMBOUT
 10
0.0
 20
0.0
 30
0.0
  0
ATTRIB
  5
DF3414B25834E85B
100
AcDbEntity
  8
PORTS
  6
CONTINUOUS
100
AcDbText
 10
1062.0
 20
-188.0
 30
0.0
 40
10.0
  1
RIGHT
 50
0.000019
  7
SIMPLEX
100
AcDbAttribute
  2
SIDE
 70
     0
  0
SEQEND
  5
DF3414B25834E85C
100
AcDbEntity
  8
PORTS
  6
CONTINUOUS
  0
INSERT
  5
DF3414B25834E860
100
AcDbEntity
  8
PORTS
  6
CONTINUOUS
100
AcDbBlockReference
 66
     1
  2
IO_CYC_COMBOUT_PORT
 10
0.0
 20
0.0
 30
0.0
  0
ATTRIB
  5
DF3414B25834E861
100
AcDbEntity
  8
PORTS
  6
CONTINUOUS
100
AcDbText
 10
1062.0
 20
-121.0
 30
0.0
 40
10.0
  1
RIGHT
 50
0.000019
  7
SIMPLEX
100
AcDbAttribute
  2
SIDE
 70
     0
  0
SEQEND
  5
DF3414B25834E862
100
AcDbEntity
  8
PORTS
  6
CONTINUOUS
  0
ENDBLK
  5
DF3414B25834E864
100
AcDbEntity
  8
DETAIL_MEDIUM
  6
CONTINUOUS
100
AcDbBlockEnd
  0
BLOCK
  5
DF3414A04344CD85
100
AcDbEntity
  8
DETAIL_MEDIUM
  6
CONTINUOUS
100
AcDbBlockBegin
  2
IO_CYC_COMBOUT_WIRE
 70
     0
 10
0.0
 20
0.0
 30
0.0
  1

  0
LINE
  5
DF3414A04344CD74
100
AcDbEntity
  8
DETAIL_MEDIUM
  6
CONTINUOUS
100
AcDbLine
 10
770.0
 20
-190.0
 30
0.0
 11
1050.0
 21
-190.0
 31
0.0
  0
LINE
  5
DF3414A04344CD7F
100
AcDbEntity
  8
DETAIL_MEDIUM
  6
CONTINUOUS
100
AcDbLine
 10
670.0
 20
-190.0
 30
0.0
 11
690.0
 21
-190.0
 31
0.0
  0
ENDBLK
  5
DF3414A04344CD87
100
AcDbEntity
  8
DETAIL_MEDIUM
  6
CONTINUOUS
100
AcDbBlockEnd
  0
BLOCK
  5
DF3414A0435736CE
100
AcDbEntity
  8
DETAIL_MEDIUM
  6
CONTINUOUS
100
AcDbBlockBegin
  2
IO_CYC_REGOUT_MUX
 70
     0
 10
0.0
 20
0.0
 30
0.0
  1

  0
POLYLINE
  5
DF3414A0435736B7
100
AcDbEntity
  8
DETAIL_MEDIUM
100
AcDb2dPolyline
 66
     1
 10
0.0
 20
0.0
 30
0.0
 39
2.0
 70
     1
  0
VERTEX
  5
DF3414A0435736B8
100
AcDbEntity
  8
DETAIL_MEDIUM
100
AcDbVertex
100
AcDb2dVertex
 10
1000.0
 20
-250.0
 30
0.0
  0
VERTEX
  5
DF3414A0435736B9
100
AcDbEntity
  8
DETAIL_MEDIUM
100
AcDbVertex
100
AcDb2dVertex
 10
1030.0
 20
-260.0
 30
0.0
  0
VERTEX
  5
DF3414A0435736BA
100
AcDbEntity
  8
DETAIL_MEDIUM
100
AcDbVertex
100
AcDb2dVertex
 10
1030.0
 20
-300.0
 30
0.0
  0
VERTEX
  5
DF3414A0435736BB
100
AcDbEntity
  8
DETAIL_MEDIUM
100
AcDbVertex
100
AcDb2dVertex
 10
1000.0
 20
-310.0
 30
0.0
  0
VERTEX
  5
DF3414A0435736BC
100
AcDbEntity
  8
DETAIL_MEDIUM
100
AcDbVertex
100
AcDb2dVertex
 10
1000.0
 20
-250.0
 30
0.0
  0
SEQEND
  5
DF3414A0435736BD
100
AcDbEntity
  8
DETAIL_MEDIUM
  0
LINE
  5
DF3414A0435736BE
100
AcDbEntity
  8
DETAIL_MEDIUM
  6
CONTINUOUS
100
AcDbLine
 10
1030.0
 20
-280.0
 30
0.0
 11
1050.0
 21
-280.0
 31
0.0
  0
ENDBLK
  5
DF3414A0435736D0
100
AcDbEntity
  8
DETAIL_MEDIUM
  6
CONTINUOUS
100
AcDbBlockEnd
  0
BLOCK
  5
DF3414A0437C090C
100
AcDbEntity
  8
DETAIL_MEDIUM
  6
CONTINUOUS
100
AcDbBlockBegin
  2
IO_CYC_REG_2_USED_WIRE
 70
     0
 10
0.0
 20
0.0
 30
0.0
  1

  0
LINE
  5
DF3414A0437C0908
100
AcDbEntity
  8
DETAIL_MEDIUM
  6
CONTINUOUS
100
AcDbLine
 10
880.0
 20
-340.0
 30
0.0
 11
800.0
 21
-340.0
 31
0.0
  0
ENDBLK
  5
DF3414A0437C090E
100
AcDbEntity
  8
DETAIL_MEDIUM
  6
CONTINUOUS
100
AcDbBlockEnd
  0
BLOCK
  5
DF3414A043C5AD9F
100
AcDbEntity
  8
DETAIL_MEDIUM
  6
CONTINUOUS
100
AcDbBlockBegin
  2
IO_CYC_CLK_IN_WIRE
 70
     0
 10
0.0
 20
0.0
 30
0.0
  1

  0
LINE
  5
DF3414A043C5AD8D
100
AcDbEntity
  8
DETAIL_MEDIUM
  6
CONTINUOUS
100
AcDbLine
 10
800.0
 20
-510.0
 30
0.0
 11
820.0
 21
-510.0
 31
0.0
  0
LINE
  5
DF3414A043C5AD98
100
AcDbEntity
  8
DETAIL_MEDIUM
  6
CONTINUOUS
100
AcDbLine
 10
820.0
 20
-510.0
 30
0.0
 11
820.0
 21
-380.0
 31
0.0
  0
LINE
  5
DF3414A043C5AD99
100
AcDbEntity
  8
DETAIL_MEDIUM
  6
CONTINUOUS
100
AcDbLine
 10
880.0
 20
-380.0
 30
0.0
 11
820.0
 21
-380.0
 31
0.0
  0
ENDBLK
  5
DF3414A043C5ADA1
100
AcDbEntity
  8
DETAIL_MEDIUM
  6
CONTINUOUS
100
AcDbBlockEnd
  0
BLOCK
  5
DF3414A04458F6BF
100
AcDbEntity
  8
DETAIL_MEDIUM
  6
CONTINUOUS
100
AcDbBlockBegin
  2
IO_CYC_CE_IN_WIRE
 70
     0
 10
0.0
 20
0.0
 30
0.0
  1

  0
LINE
  5
DF3414A04458F6AF
100
AcDbEntity
  8
DETAIL_MEDIUM
  6
CONTINUOUS
100
AcDbLine
 10
800.0
 20
-550.0
 30
0.0
 11
840.0
 21
-550.0
 31
0.0
  0
LINE
  5
DF3414A04458F6AE
100
AcDbEntity
  8
DETAIL_MEDIUM
  6
CONTINUOUS
100
AcDbLine
 10
840.0
 20
-550.0
 30
0.0
 11
840.0
 21
-420.0
 31
0.0
  0
LINE
  5
DF3414A04458F6AD
100
AcDbEntity
  8
DETAIL_MEDIUM
  6
CONTINUOUS
100
AcDbLine
 10
840.0
 20
-420.0
 30
0.0
 11
880.0
 21
-420.0
 31
0.0
  0
ENDBLK
  5
DF3414A04458F6C1
100
AcDbEntity
  8
DETAIL_MEDIUM
  6
CONTINUOUS
100
AcDbBlockEnd
  0
BLOCK
  5
DF3414A045764359
100
AcDbEntity
  8
DETAIL_MEDIUM
  6
CONTINUOUS
100
AcDbBlockBegin
  2
IO_CYC_OE_MUX_WIRE
 70
     0
 10
0.0
 20
0.0
 30
0.0
  1

  0
LINE
  5
DF3414A04576434D
100
AcDbEntity
  8
DETAIL_MEDIUM
  6
CONTINUOUS
100
AcDbLine
 10
540.0
 20
-50.0
 30
0.0
 11
540.0
 21
-409.0
 31
0.0
  0
LINE
  5
DF3414A045764355
100
AcDbEntity
  8
DETAIL_MEDIUM
  6
CONTINUOUS
100
AcDbLine
 10
520.0
 20
-50.0
 30
0.0
 11
540.0
 21
-50.0
 31
0.0
  0
CIRCLE
  5
DF3414A04576434C
100
AcDbEntity
  8
DETAIL_MEDIUM
  6
CONTINUOUS
100
AcDbCircle
 10
540.0
 20
-414.0
 30
0.0
 40
5.385165
  0
ENDBLK
  5
DF3414A04576435B
100
AcDbEntity
  8
DETAIL_MEDIUM
  6
CONTINUOUS
100
AcDbBlockEnd
  0
BLOCK
  5
DF3414A04C3D3E95
100
AcDbEntity
  8
DETAIL_MEDIUM
  6
CONTINUOUS
100
AcDbBlockBegin
  2
IO_CYC_DIN_MUX_WIRE
 70
     0
 10
0.0
 20
0.0
 30
0.0
  1

  0
LINE
  5
DF3414A04C3D3E8F
100
AcDbEntity
  8
DETAIL_MEDIUM
  6
CONTINUOUS
100
AcDbLine
 10
450.0
 20
-320.0
 30
0.0
 11
470.0
 21
-320.0
 31
0.0
  0
LINE
  5
DF3414A04C3D3E90
100
AcDbEntity
  8
DETAIL_MEDIUM
  6
CONTINUOUS
100
AcDbLine
 10
470.0
 20
-320.0
 30
0.0
 11
470.0
 21
-430.0
 31
0.0
  0
LINE
  5
DF3414A04C3D3E91
100
AcDbEntity
  8
DETAIL_MEDIUM
  6
CONTINUOUS
100
AcDbLine
 10
470.0
 20
-430.0
 30
0.0
 11
490.0
 21
-430.0
 31
0.0
  0
LINE
  5
DF3414A047B7D1BD
100
AcDbEntity
  8
DETAIL_MEDIUM
  6
CONTINUOUS
100
AcDbLine
 10
490.0
 20
-430.0
 30
0.0
 11
520.0
 21
-430.0
 31
0.0
  0
ENDBLK
  5
DF3414A04C3D3E97
100
AcDbEntity
  8
DETAIL_MEDIUM
  6
CONTINUOUS
100
AcDbBlockEnd
  0
BLOCK
  5
DF3414A05548167B
100
AcDbEntity
  8
DETAIL_MEDIUM
  6
CONTINUOUS
100
AcDbBlockBegin
  2
IO_CYC_REG_0_USED_WIRE
 70
     0
 10
0.0
 20
0.0
 30
0.0
  1

  0
LINE
  5
DF3414A055481677
100
AcDbEntity
  8
DETAIL_MEDIUM
  6
CONTINUOUS
100
AcDbLine
 10
140.0
 20
-70.0
 30
0.0
 11
220.0
 21
-70.0
 31
0.0
  0
ENDBLK
  5
DF3414A05548167D
100
AcDbEntity
  8
DETAIL_MEDIUM
  6
CONTINUOUS
100
AcDbBlockEnd
  0
BLOCK
  5
DF3414A0675CA058
100
AcDbEntity
  8
DETAIL_MEDIUM
  6
CONTINUOUS
100
AcDbBlockBegin
  2
IO_CYC_DIN_REG_USED_WIRE
 70
     0
 10
0.0
 20
0.0
 30
0.0
  1

  0
LINE
  5
DF3414A0675CA052
100
AcDbEntity
  8
DETAIL_MEDIUM
  6
CONTINUOUS
100
AcDbLine
 10
100.0
 20
-340.0
 30
0.0
 11
220.0
 21
-340.0
 31
0.0
  0
ENDBLK
  5
DF3414A0675CA05A
100
AcDbEntity
  8
DETAIL_MEDIUM
  6
CONTINUOUS
100
AcDbBlockEnd
  0
BLOCK
  5
DF3414A08B86DCE3
100
AcDbEntity
  8
DETAIL_MEDIUM
  6
CONTINUOUS
100
AcDbBlockBegin
  2
IO_CYC_SCLR_WIRE
 70
     0
 10
0.0
 20
0.0
 30
0.0
  1

  0
LINE
  5
DF3414A08B86DCDC
100
AcDbEntity
  8
DETAIL_MEDIUM
  6
CONTINUOUS
100
AcDbLine
 10
80.0
 20
-10.0
 30
0.0
 11
260.0
 21
-10.0
 31
0.0
  0
ENDBLK
  5
DF3414A08B86DCE5
100
AcDbEntity
  8
DETAIL_MEDIUM
  6
CONTINUOUS
100
AcDbBlockEnd
  0
BLOCK
  5
DF3414A0D3DB0C72
100
AcDbEntity
  8
DETAIL_MEDIUM
  6
CONTINUOUS
100
AcDbBlockBegin
  2
IO_CYC_OE_WIRE
 70
     0
 10
0.0
 20
0.0
 30
0.0
  1

  0
LINE
  5
DF3414A0D3DB0C62
100
AcDbEntity
  8
DETAIL_MEDIUM
  6
CONTINUOUS
100
AcDbLine
 10
80.0
 20
-70.0
 30
0.0
 11
140.0
 21
-70.0
 31
0.0
  0
ENDBLK
  5
DF3414A0D3DB0C74
100
AcDbEntity
  8
DETAIL_MEDIUM
  6
CONTINUOUS
100
AcDbBlockEnd
  0
BLOCK
  5
DF3414A16483B3B7
100
AcDbEntity
  8
DETAIL_MEDIUM
  6
CONTINUOUS
100
AcDbBlockBegin
  2
IO_CYC_ACLR_WIRE
 70
     0
 10
0.0
 20
0.0
 30
0.0
  1

  0
LINE
  5
DF3414A16483B3B1
100
AcDbEntity
  8
DETAIL_MEDIUM
  6
CONTINUOUS
100
AcDbLine
 10
80.0
 20
-200.0
 30
0.0
 11
160.0
 21
-200.0
 31
0.0
  0
ENDBLK
  5
DF3414A16483B3B9
100
AcDbEntity
  8
DETAIL_MEDIUM
  6
CONTINUOUS
100
AcDbBlockEnd
  0
BLOCK
  5
DF3414A285D50254
100
AcDbEntity
  8
DETAIL_MEDIUM
  6
CONTINUOUS
100
AcDbBlockBegin
  2
IO_CYC_DIN_WIRE
 70
     0
 10
0.0
 20
0.0
 30
0.0
  1

  0
LINE
  5
DF3414A285D5024E
100
AcDbEntity
  8
DETAIL_MEDIUM
  6
CONTINUOUS
100
AcDbLine
 10
80.0
 20
-340.0
 30
0.0
 11
100.0
 21
-340.0
 31
0.0
  0
ENDBLK
  5
DF3414A285D50256
100
AcDbEntity
  8
DETAIL_MEDIUM
  6
CONTINUOUS
100
AcDbBlockEnd
  0
BLOCK
  5
DF3414A4C8779F8C
100
AcDbEntity
  8
DETAIL_MEDIUM
  6
CONTINUOUS
100
AcDbBlockBegin
  2
IO_CYC_CLK_OUT_WIRE1
 70
     0
 10
0.0
 20
0.0
 30
0.0
  1

  0
LINE
  5
DF3414A4C8779F89
100
AcDbEntity
  8
DETAIL_MEDIUM
  6
CONTINUOUS
100
AcDbLine
 10
80.0
 20
-110.0
 30
0.0
 11
180.0
 21
-110.0
 31
0.0
  0
ENDBLK
  5
DF3414A4C8779F8E
100
AcDbEntity
  8
DETAIL_MEDIUM
  6
CONTINUOUS
100
AcDbBlockEnd
  0
BLOCK
  5
DF3414A4C8779F90
100
AcDbEntity
  8
DETAIL_MEDIUM
  6
CONTINUOUS
100
AcDbBlockBegin
  2
IO_CYC_CLK_OUT_WIRE2
 70
     0
 10
0.0
 20
0.0
 30
0.0
  1

  0
LINE
  5
DF3414A4C8779F8A
100
AcDbEntity
  8
DETAIL_MEDIUM
  6
CONTINUOUS
100
AcDbLine
 10
180.0
 20
-110.0
 30
0.0
 11
220.0
 21
-110.0
 31
0.0
  0
ENDBLK
  5
DF3414A4C8779F92
100
AcDbEntity
  8
DETAIL_MEDIUM
  6
CONTINUOUS
100
AcDbBlockEnd
  0
BLOCK
  5
DF3414A4C8779F94
100
AcDbEntity
  8
DETAIL_MEDIUM
  6
CONTINUOUS
100
AcDbBlockBegin
  2
IO_CYC_CLK_OUT_WIRE3
 70
     0
 10
0.0
 20
0.0
 30
0.0
  1

  0
LINE
  5
DF3414A4C8779F82
100
AcDbEntity
  8
DETAIL_MEDIUM
  6
CONTINUOUS
100
AcDbLine
 10
180.0
 20
-110.0
 30
0.0
 11
180.0
 21
-380.0
 31
0.0
  0
LINE
  5
DF3414A4C8779F83
100
AcDbEntity
  8
DETAIL_MEDIUM
  6
CONTINUOUS
100
AcDbLine
 10
180.0
 20
-380.0
 30
0.0
 11
220.0
 21
-380.0
 31
0.0
  0
ENDBLK
  5
DF3414A4C8779F96
100
AcDbEntity
  8
DETAIL_MEDIUM
  6
CONTINUOUS
100
AcDbBlockEnd
  0
BLOCK
  5
DF3414A94DBCDA06
100
AcDbEntity
  8
DETAIL_MEDIUM
  6
CONTINUOUS
100
AcDbBlockBegin
  2
IO_CYC_CE_OUT_WIRE1
 70
     0
 10
0.0
 20
0.0
 30
0.0
  1

  0
LINE
  5
DF3414A94DBCDA03
100
AcDbEntity
  8
DETAIL_MEDIUM
  6
CONTINUOUS
100
AcDbLine
 10
80.0
 20
-150.0
 30
0.0
 11
140.0
 21
-150.0
 31
0.0
  0
ENDBLK
  5
DF3414A94DBCDA08
100
AcDbEntity
  8
DETAIL_MEDIUM
  6
CONTINUOUS
100
AcDbBlockEnd
  0
BLOCK
  5
DF3414A94DBCDA0A
100
AcDbEntity
  8
DETAIL_MEDIUM
  6
CONTINUOUS
100
AcDbBlockBegin
  2
IO_CYC_CE_OUT_WIRE2
 70
     0
 10
0.0
 20
0.0
 30
0.0
  1

  0
LINE
  5
DF3414A94DBCDA04
100
AcDbEntity
  8
DETAIL_MEDIUM
  6
CONTINUOUS
100
AcDbLine
 10
140.0
 20
-150.0
 30
0.0
 11
220.0
 21
-150.0
 31
0.0
  0
ENDBLK
  5
DF3414A94DBCDA0C
100
AcDbEntity
  8
DETAIL_MEDIUM
  6
CONTINUOUS
100
AcDbBlockEnd
  0
BLOCK
  5
DF3414A94DBCDA0E
100
AcDbEntity
  8
DETAIL_MEDIUM
  6
CONTINUOUS
100
AcDbBlockBegin
  2
IO_CYC_CE_OUT_WIRE3
 70
     0
 10
0.0
 20
0.0
 30
0.0
  1

  0
LINE
  5
DF3414A94DBCD9FB
100
AcDbEntity
  8
DETAIL_MEDIUM
  6
CONTINUOUS
100
AcDbLine
 10
140.0
 20
-150.0
 30
0.0
 11
140.0
 21
-420.0
 31
0.0
  0
LINE
  5
DF3414A94DBCD9FD
100
AcDbEntity
  8
DETAIL_MEDIUM
  6
CONTINUOUS
100
AcDbLine
 10
140.0
 20
-420.0
 30
0.0
 11
220.0
 21
-420.0
 31
0.0
  0
ENDBLK
  5
DF3414A94DBCDA10
100
AcDbEntity
  8
DETAIL_MEDIUM
  6
CONTINUOUS
100
AcDbBlockEnd
  0
BLOCK
  5
DF3414A94DBCDADE
100
AcDbEntity
  8
DETAIL_MEDIUM
  6
CONTINUOUS
100
AcDbBlockBegin
  2
IO_CYC_BYPASS_DELAY_CHAIN_WIRE
 70
     0
 10
0.0
 20
0.0
 30
0.0
  1

  0
LINE
  5
DF3414A94DBCDADA
100
AcDbEntity
  8
DETAIL_MEDIUM
  6
CONTINUOUS
100
AcDbLine
 10
660.0
 20
-440.0
 30
0.0
 11
680.0
 21
-440.0
 31
0.0
  0
LINE
  5
DF3414A94DBCDADB
100
AcDbEntity
  8
DETAIL_MEDIUM
  6
CONTINUOUS
100
AcDbLine
 10
680.0
 20
-440.0
 30
0.0
 11
680.0
 21
-132.0
 31
0.0
  0
LINE
  5
DF3414A94DBCDADC
100
AcDbEntity
  8
DETAIL_MEDIUM
  6
CONTINUOUS
100
AcDbLine
 10
680.0
 20
-132.0
 30
0.0
 11
1060.0
 21
-132.0
 31
0.0
  0
ENDBLK
  5
DF3414A94DBCDAE0
100
AcDbEntity
  8
DETAIL_MEDIUM
  6
CONTINUOUS
100
AcDbBlockEnd
  0
BLOCK
  5
DF3414B25834E85D
100
AcDbEntity
  8
PORTS
  6
CONTINUOUS
100
AcDbBlockBegin
  2
IO_CYC_COMBOUT_PORT
 70
     2
 10
0.0
 20
0.0
 30
0.0
  1

  0
POLYLINE
  5
DF3414B25834E84F
100
AcDbEntity
  8
PORTS
  6
CONTINUOUS
100
AcDb2dPolyline
 66
     1
 10
0.0
 20
0.0
 30
0.0
 70
     1
  0
VERTEX
  5
DF3414B25834E850
100
AcDbEntity
  8
PORTS
  6
CONTINUOUS
100
AcDbVertex
100
AcDb2dVertex
 10
1140.0
 20
-133.0
 30
0.0
  0
VERTEX
  5
DF3414B25834E851
100
AcDbEntity
  8
PORTS
  6
CONTINUOUS
100
AcDbVertex
100
AcDb2dVertex
 10
1132.0
 20
-139.0
 30
0.0
  0
VERTEX
  5
DF3414B25834E852
100
AcDbEntity
  8
PORTS
  6
CONTINUOUS
100
AcDbVertex
100
AcDb2dVertex
 10
1060.0
 20
-139.0
 30
0.0
  0
VERTEX
  5
DF3414B25834E853
100
AcDbEntity
  8
PORTS
  6
CONTINUOUS
100
AcDbVertex
100
AcDb2dVertex
 10
1060.0
 20
-127.0
 30
0.0
  0
VERTEX
  5
DF3414B25834E854
100
AcDbEntity
  8
PORTS
  6
CONTINUOUS
100
AcDbVertex
100
AcDb2dVertex
 10
1132.0
 20
-127.0
 30
0.0
  0
VERTEX
  5
DF3414B25834E855
100
AcDbEntity
  8
PORTS
  6
CONTINUOUS
100
AcDbVertex
100
AcDb2dVertex
 10
1140.0
 20
-133.0
 30
0.0
  0
SEQEND
  5
DF3414B25834E856
100
AcDbEntity
  8
PORTS
  6
CONTINUOUS
  0
ATTDEF
  5
DF3414B25834E84E
100
AcDbEntity
  8
PORTS
  6
CONTINUOUS
100
AcDbText
 10
1062.0
 20
-121.0
 30
0.0
 40
10.0
  1

 50
0.000019
  7
SIMPLEX
100
AcDbAttributeDefinition
  3

  2
SIDE
 70
     0
  0
POINT
  5
DF3414B25834E857
100
AcDbEntity
  8
PORTS
  6
CONTINUOUS
100
AcDbPoint
 10
1060.0
 20
-133.0
 30
0.0
  0
ENDBLK
  5
DF3414B25834E85F
100
AcDbEntity
  8
PORTS
  6
CONTINUOUS
100
AcDbBlockEnd
  0
ENDSEC
  0
SECTION
  2
ENTITIES
  0
TEXT
  5
1555386
100
AcDbEntity
  8
COMMENT
100
AcDbText
 10
-103.0
 20
133.5
 30
0.0
 40
10.0
  1
Comments:
100
AcDbText
  0
TEXT
  5
DF2FB97E2E1C5501
100
AcDbEntity
  8
COMMENT
  6
CONTINUOUS
100
AcDbText
 10
-104.0
 20
114.0
 30
0.0
 40
10.0
  1
All ports are on PORTS layer. They don't have FILLCLR since it is assigned in software.
  7
SIMPLEX
100
AcDbText
  0
TEXT
  5
DF2FB97E2E1C5502
100
AcDbEntity
  8
COMMENT
  6
CONTINUOUS
100
AcDbText
 10
-104.0
 20
96.857143
 30
0.0
 40
10.0
  1
Text is drawn starting at the only point contained by the port block on PORTS layer. SIDE determines 
  7
SIMPLEX
100
AcDbText
  0
TEXT
  5
DF2FB97E2E1C5503
100
AcDbEntity
  8
COMMENT
  6
CONTINUOUS
100
AcDbText
 10
-104.0
 20
79.714286
 30
0.0
 40
10.0
  1
the direction of the text. Port association is based on the name of the block.
  7
SIMPLEX
100
AcDbText
  0
TEXT
  5
DF2FCAEAB6712686
100
AcDbEntity
  8
COMMENT
100
AcDbText
 10
-83.0
 20
-86.5
 30
0.0
 40
10.0
  1
OE
100
AcDbText
  0
TEXT
  5
DF2FCAEAB6712687
100
AcDbEntity
  8
COMMENT
100
AcDbText
 10
-83.0
 20
-126.5
 30
0.0
 40
10.0
  1
clkout
100
AcDbText
  0
TEXT
  5
DF2FCAEAB6712688
100
AcDbEntity
  8
COMMENT
100
AcDbText
 10
-83.0
 20
-166.5
 30
0.0
 40
10.0
  1
ce_out
100
AcDbText
  0
TEXT
  5
DF2FCAEAB6712689
100
AcDbEntity
  8
COMMENT
100
AcDbText
 10
-83.0
 20
-16.5
 30
0.0
 40
10.0
  1
sclr
100
AcDbText
  0
TEXT
  5
DF2FCAEAB671268A
100
AcDbEntity
  8
COMMENT
100
AcDbText
 10
-83.0
 20
-216.5
 30
0.0
 40
10.0
  1
aclr/prn
100
AcDbText
  0
TEXT
  5
DF2FCAEAB671268B
100
AcDbEntity
  8
COMMENT
100
AcDbText
 10
-83.0
 20
-346.5
 30
0.0
 40
10.0
  1
din1
100
AcDbText
  0
TEXT
  5
DF3414A04332AE75
100
AcDbEntity
  8
COMMENT
100
AcDbText
 10
1197.0
 20
-286.5
 30
0.0
 40
10.0
  1
datain1
100
AcDbText
  0
TEXT
  5
DF3414A04332AE76
100
AcDbEntity
  8
COMMENT
100
AcDbText
 10
577.0
 20
-606.5
 30
0.0
 40
10.0
  1
ce_in
100
AcDbText
  0
TEXT
  5
DF3414A04332AE77
100
AcDbEntity
  8
COMMENT
100
AcDbText
 10
577.0
 20
-586.5
 30
0.0
 40
10.0
  1
clk_in
100
AcDbText
  0
TEXT
  5
DF3414A04332AE78
100
AcDbEntity
  8
COMMENT
100
AcDbText
 10
1197.0
 20
-196.5
 30
0.0
 40
10.0
  1
datain0
100
AcDbText
  0
INSERT
  5
DF3414B25834E865
100
AcDbEntity
  8
DETAIL_MEDIUM
  6
CONTINUOUS
100
AcDbBlockReference
  2
IO_CYC
 10
0.0
 20
0.0
 30
0.0
  0
ENDSEC
  0
SECTION
  2
OBJECTS
  0
DICTIONARY
  5
C
100
AcDbDictionary
  3
ACAD_GROUP
350
D
  3
ACAD_MLINESTYLE
350
1B
  0
DICTIONARY
  5
D
102
{ACAD_REACTORS
330
C
102
}
100
AcDbDictionary
  0
DICTIONARY
  5
1B
102
{ACAD_REACTORS
330
C
102
}
100
AcDbDictionary
  3
STANDARD
350
1C
  0
MLINESTYLE
  5
1C
102
{ACAD_REACTORS
330
1B
102
}
100
AcDbMlineStyle
  2
STANDARD
 70
     0
  3

 62
   256
 51
90.0
 52
90.0
 71
     2
 49
0.5
 62
   256
  6
BYLAYER
 49
-0.5
 62
   256
  6
BYLAYER
  0
ENDSEC
  0
EOF
