  0
SECTION
  2
HEADER
  9
$ACADVER
  1
AC1014
  9
$ACADMAINTVER
 70
     0
  9
$DWGCODEPAGE
  3
ANSI_1252
  9
$INSBASE
 10
0.0
 20
0.0
 30
0.0
  9
$EXTMIN
 10
-130.0
 20
-838.0
 30
0.0
  9
$EXTMAX
 10
1150.0
 20
140.0
 30
0.0
  9
$LIMMIN
 10
0.0
 20
0.0
  9
$LIMMAX
 10
12.0
 20
9.0
  9
$ORTHOMODE
 70
     0
  9
$REGENMODE
 70
     1
  9
$FILLMODE
 70
     1
  9
$QTEXTMODE
 70
     0
  9
$MIRRTEXT
 70
     1
  9
$DRAGMODE
 70
     2
  9
$LTSCALE
 40
1.0
  9
$OSMODE
 70
     0
  9
$ATTMODE
 70
     1
  9
$TEXTSIZE
 40
0.2
  9
$TRACEWID
 40
0.05
  9
$TEXTSTYLE
  7
SIMPLEX
  9
$CLAYER
  8
DETAIL_MEDIUM
  9
$CELTYPE
  6
CONTINUOUS
  9
$CECOLOR
 62
   256
  9
$CELTSCALE
 40
1.0
  9
$DELOBJ
 70
     1
  9
$DISPSILH
 70
     0
  9
$DIMSCALE
 40
1.0
  9
$DIMASZ
 40
0.18
  9
$DIMEXO
 40
0.0625
  9
$DIMDLI
 40
0.38
  9
$DIMRND
 40
0.0
  9
$DIMDLE
 40
0.0
  9
$DIMEXE
 40
0.18
  9
$DIMTP
 40
0.0
  9
$DIMTM
 40
0.0
  9
$DIMTXT
 40
0.18
  9
$DIMCEN
 40
0.09
  9
$DIMTSZ
 40
0.0
  9
$DIMTOL
 70
     0
  9
$DIMLIM
 70
     0
  9
$DIMTIH
 70
     1
  9
$DIMTOH
 70
     1
  9
$DIMSE1
 70
     0
  9
$DIMSE2
 70
     0
  9
$DIMTAD
 70
     0
  9
$DIMZIN
 70
     0
  9
$DIMBLK
  1

  9
$DIMASO
 70
     1
  9
$DIMSHO
 70
     1
  9
$DIMPOST
  1

  9
$DIMAPOST
  1

  9
$DIMALT
 70
     0
  9
$DIMALTD
 70
     2
  9
$DIMALTF
 40
25.4
  9
$DIMLFAC
 40
1.0
  9
$DIMTOFL
 70
     0
  9
$DIMTVP
 40
0.0
  9
$DIMTIX
 70
     0
  9
$DIMSOXD
 70
     0
  9
$DIMSAH
 70
     0
  9
$DIMBLK1
  1

  9
$DIMBLK2
  1

  9
$DIMSTYLE
  2
STANDARD
  9
$DIMCLRD
 70
     0
  9
$DIMCLRE
 70
     0
  9
$DIMCLRT
 70
     0
  9
$DIMTFAC
 40
1.0
  9
$DIMGAP
 40
0.09
  9
$DIMJUST
 70
     0
  9
$DIMSD1
 70
     0
  9
$DIMSD2
 70
     0
  9
$DIMTOLJ
 70
     1
  9
$DIMTZIN
 70
     0
  9
$DIMALTZ
 70
     0
  9
$DIMALTTZ
 70
     0
  9
$DIMFIT
 70
     3
  9
$DIMUPT
 70
     0
  9
$DIMUNIT
 70
     2
  9
$DIMDEC
 70
     4
  9
$DIMTDEC
 70
     4
  9
$DIMALTU
 70
     2
  9
$DIMALTTD
 70
     2
  9
$DIMTXSTY
  7
STANDARD
  9
$DIMAUNIT
 70
     0
  9
$LUNITS
 70
     2
  9
$LUPREC
 70
     4
  9
$SKETCHINC
 40
0.1
  9
$FILLETRAD
 40
0.5
  9
$AUNITS
 70
     0
  9
$AUPREC
 70
     0
  9
$MENU
  1
.
  9
$ELEVATION
 40
0.0
  9
$PELEVATION
 40
0.0
  9
$THICKNESS
 40
0.0
  9
$LIMCHECK
 70
     0
  9
$BLIPMODE
 70
     0
  9
$CHAMFERA
 40
0.5
  9
$CHAMFERB
 40
0.5
  9
$CHAMFERC
 40
1.0
  9
$CHAMFERD
 40
0.0
  9
$SKPOLY
 70
     0
  9
$TDCREATE
 40
2452695.7451618058
  9
$TDUPDATE
 40
2453263.5669328589
  9
$TDINDWG
 40
13.280335648148
  9
$TDUSRTIMER
 40
13.280335648148
  9
$USRTIMER
 70
     1
  9
$ANGBASE
 50
0.0
  9
$ANGDIR
 70
     0
  9
$PDMODE
 70
    35
  9
$PDSIZE
 40
5.0
  9
$PLINEWID
 40
0.0
  9
$COORDS
 70
     1
  9
$SPLFRAME
 70
     0
  9
$SPLINETYPE
 70
     6
  9
$SPLINESEGS
 70
     8
  9
$ATTDIA
 70
     0
  9
$ATTREQ
 70
     1
  9
$HANDLING
 70
     1
  9
$HANDSEED
  5
DF3415280CCF1CEB
  9
$SURFTAB1
 70
     6
  9
$SURFTAB2
 70
     6
  9
$SURFTYPE
 70
     6
  9
$SURFU
 70
     6
  9
$SURFV
 70
     6
  9
$UCSNAME
  2

  9
$UCSORG
 10
0.0
 20
0.0
 30
0.0
  9
$UCSXDIR
 10
1.0
 20
0.0
 30
0.0
  9
$UCSYDIR
 10
0.0
 20
1.0
 30
0.0
  9
$PUCSNAME
  2

  9
$PUCSORG
 10
0.0
 20
0.0
 30
0.0
  9
$PUCSXDIR
 10
1.0
 20
0.0
 30
0.0
  9
$PUCSYDIR
 10
0.0
 20
1.0
 30
0.0
  9
$USERI1
 70
     0
  9
$USERI2
 70
     0
  9
$USERI3
 70
     0
  9
$USERI4
 70
     0
  9
$USERI5
 70
     0
  9
$USERR1
 40
0.0
  9
$USERR2
 40
0.0
  9
$USERR3
 40
0.0
  9
$USERR4
 40
0.0
  9
$USERR5
 40
0.0
  9
$WORLDVIEW
 70
     1
  9
$SHADEDGE
 70
     3
  9
$SHADEDIF
 70
    70
  9
$TILEMODE
 70
     1
  9
$MAXACTVP
 70
    48
  9
$PINSBASE
 10
0.0
 20
0.0
 30
0.0
  9
$PLIMCHECK
 70
     0
  9
$PEXTMIN
 10
1.000000E+020
 20
1.000000E+020
 30
1.000000E+020
  9
$PEXTMAX
 10
-1.000000E+020
 20
-1.000000E+020
 30
-1.000000E+020
  9
$PLIMMIN
 10
0.0
 20
0.0
  9
$PLIMMAX
 10
12.0
 20
9.0
  9
$UNITMODE
 70
     0
  9
$VISRETAIN
 70
     1
  9
$PLINEGEN
 70
     0
  9
$PSLTSCALE
 70
     1
  9
$TREEDEPTH
 70
  3020
  9
$PICKSTYLE
 70
     1
  9
$CMLSTYLE
  2
STANDARD
  9
$CMLJUST
 70
     0
  9
$CMLSCALE
 40
1.0
  9
$PROXYGRAPHICS
 70
     1
  9
$MEASUREMENT
 70
     0
  0
ENDSEC
  0
SECTION
  2
CLASSES
  0
CLASS
  1
LWPOLYLINE
  2
AcDbPolyline
  3
"AutoCAD"
 90
        0
280
     0
281
     1
  0
ENDSEC
  0
SECTION
  2
TABLES
  0
TABLE
  2
VPORT
  5
8
100
AcDbSymbolTable
 70
     1
  0
VPORT
  5
37
100
AcDbSymbolTableRecord
100
AcDbViewportTableRecord
  2
*ACTIVE
 70
     0
 10
0.0
 20
0.0
 11
1.0
 21
1.0
 12
354.681217
 22
-271.14737
 13
0.0
 23
0.0
 14
10.0
 24
10.0
 15
10.0
 25
10.0
 16
0.0
 26
0.0
 36
1.0
 17
0.0
 27
0.0
 37
0.0
 40
1497.508218
 41
1.370286
 42
50.0
 43
0.0
 44
0.0
 50
0.0
 51
0.0
 71
     0
 72
   100
 73
     1
 74
     1
 75
     1
 76
     1
 77
     0
 78
     0
  0
ENDTAB
  0
TABLE
  2
LTYPE
  5
5
100
AcDbSymbolTable
 70
     2
  0
LTYPE
  5
12
100
AcDbSymbolTableRecord
100
AcDbLinetypeTableRecord
  2
BYBLOCK
 70
     0
  3

 72
    65
 73
     0
 40
0.0
  0
LTYPE
  5
13
100
AcDbSymbolTableRecord
100
AcDbLinetypeTableRecord
  2
BYLAYER
 70
     0
  3

 72
    65
 73
     0
 40
0.0
  0
LTYPE
  5
14
100
AcDbSymbolTableRecord
100
AcDbLinetypeTableRecord
  2
CONTINUOUS
 70
     0
  3
Solid line
 72
    65
 73
     0
 40
0.0
  0
LTYPE
  5
2A422EFD12C
100
AcDbSymbolTableRecord
100
AcDbLinetypeTableRecord
  2
DETAIL_1
 70
     0
  3
Solid line
 72
    65
 73
     2
 40
6.0
 49
5.0
 74
     0
 49
-1.0
 74
     0
  0
ENDTAB
  0
TABLE
  2
LAYER
  5
2
100
AcDbSymbolTable
 70
     6
  0
LAYER
  5
E
100
AcDbSymbolTableRecord
100
AcDbLayerTableRecord
  2
DETAIL_HIGH
 70
     0
 62
   101
  6
CONTINUOUS
  0
LAYER
  5
541
100
AcDbSymbolTableRecord
100
AcDbLayerTableRecord
  2
COMMENT
 70
     0
 62
   254
  6
CONTINUOUS
  0
LAYER
  5
1DAE4
100
AcDbSymbolTableRecord
100
AcDbLayerTableRecord
  2
DETAIL_MEDIUM
 70
     0
 62
   182
  6
CONTINUOUS
  0
LAYER
  5
15543B5
100
AcDbSymbolTableRecord
100
AcDbLayerTableRecord
  2
DETAIL_LOWEST
 70
     0
 62
   143
  6
CONTINUOUS
  0
LAYER
  5
DF2FB97E2E1C53EE
100
AcDbSymbolTableRecord
100
AcDbLayerTableRecord
  2
PORTS
 70
     0
 62
   188
  6
CONTINUOUS
  0
LAYER
  5
DF2FCAEAB671269E
100
AcDbSymbolTableRecord
100
AcDbLayerTableRecord
  2
NON_DDR
 70
     0
 62
   240
  6
CONTINUOUS
  0
ENDTAB
  0
TABLE
  2
STYLE
  5
3
100
AcDbSymbolTable
 70
     8
  0
STYLE
  5
F
100
AcDbSymbolTableRecord
100
AcDbTextStyleTableRecord
  2
STANDARD
 70
     0
 40
0.0
 41
1.0
 50
0.0
 71
     0
 42
0.2
  3
txt.shx
  4

  0
STYLE
  5
21
100
AcDbSymbolTableRecord
100
AcDbTextStyleTableRecord
  2
COMPLEX
 70
     0
 40
0.0
 41
1.0
 50
0.0
 71
     0
 42
0.2
  3
complex
  4

  0
STYLE
  5
22
100
AcDbSymbolTableRecord
100
AcDbTextStyleTableRecord
  2
ITALIC
 70
     0
 40
0.0
 41
1.0
 50
0.0
 71
     0
 42
0.2
  3
italic
  4

  0
STYLE
  5
23
100
AcDbSymbolTableRecord
100
AcDbTextStyleTableRecord
  2
ROMANC
 70
     0
 40
0.0
 41
1.0
 50
0.0
 71
     0
 42
0.2
  3
romanc
  4

  0
STYLE
  5
24
100
AcDbSymbolTableRecord
100
AcDbTextStyleTableRecord
  2
SIMPLEX
 70
     0
 40
0.0
 41
1.0
 50
0.0
 71
     0
 42
0.2
  3
simplex
  4

  0
STYLE
  5
34
100
AcDbSymbolTableRecord
100
AcDbTextStyleTableRecord
  2

 70
     1
 40
0.0
 41
1.0
 50
0.0
 71
     0
 42
0.2
  3
ltypeshp.shx
  4

  0
STYLE
  5
38
100
AcDbSymbolTableRecord
100
AcDbTextStyleTableRecord
  2
ARIAL
 70
     0
 40
0.0
 41
1.0
 50
0.0
 71
     0
 42
0.2
  3

  4

1001
ACAD
1000
Arial
1071
       34
  0
STYLE
  5
39
100
AcDbSymbolTableRecord
100
AcDbTextStyleTableRecord
  2
TIMES_NEW_ROMAN
 70
     0
 40
0.0
 41
1.0
 50
0.0
 71
     0
 42
0.2
  3

  4

1001
ACAD
1000
Times New Roman
1071
       18
  0
ENDTAB
  0
TABLE
  2
VIEW
  5
6
100
AcDbSymbolTable
 70
     0
  0
ENDTAB
  0
TABLE
  2
UCS
  5
7
100
AcDbSymbolTable
 70
     0
  0
ENDTAB
  0
TABLE
  2
APPID
  5
9
100
AcDbSymbolTable
 70
     1
  0
APPID
  5
10
100
AcDbSymbolTableRecord
100
AcDbRegAppTableRecord
  2
ACAD
 70
     0
  0
ENDTAB
  0
TABLE
  2
DIMSTYLE
  5
A
100
AcDbSymbolTable
 70
     1
  0
DIMSTYLE
105
1D
100
AcDbSymbolTableRecord
100
AcDbDimStyleTableRecord
  2
STANDARD
 70
     0
  3

  4

  5

  6

  7

 40
1.0
 41
0.18
 42
0.0625
 43
0.38
 44
0.18
 45
0.0
 46
0.0
 47
0.0
 48
0.0
140
0.18
141
0.09
142
0.0
143
25.4
144
1.0
145
0.0
146
1.0
147
0.09
 71
     0
 72
     0
 73
     1
 74
     1
 75
     0
 76
     0
 77
     0
 78
     0
170
     0
171
     2
172
     0
173
     0
174
     0
175
     0
176
     0
177
     0
178
     0
270
     2
271
     4
272
     4
273
     2
274
     2
340
F
275
     0
280
     0
281
     0
282
     0
283
     1
284
     0
285
     0
286
     0
287
     3
288
     0
  0
ENDTAB
  0
TABLE
  2
BLOCK_RECORD
  5
1
100
AcDbSymbolTable
 70
    24
  0
BLOCK_RECORD
  5
18
100
AcDbSymbolTableRecord
100
AcDbBlockTableRecord
  2
*MODEL_SPACE
  0
BLOCK_RECORD
  5
15
100
AcDbSymbolTableRecord
100
AcDbBlockTableRecord
  2
*PAPER_SPACE
  0
BLOCK_RECORD
  5
DF3415280CC4E9BC
100
AcDbSymbolTableRecord
100
AcDbBlockTableRecord
  2
PLL_YGR_PLL_ENA
  0
BLOCK_RECORD
  5
DF3415280CC4E9C2
100
AcDbSymbolTableRecord
100
AcDbBlockTableRecord
  2
PLL_YGR_ARESET
  0
BLOCK_RECORD
  5
DF3415280CC4E9C8
100
AcDbSymbolTableRecord
100
AcDbBlockTableRecord
  2
PLL_YGR_PFDENA
  0
BLOCK_RECORD
  5
DF3415280CC4E9CE
100
AcDbSymbolTableRecord
100
AcDbBlockTableRecord
  2
PLL_YGR_SCANCLK
  0
BLOCK_RECORD
  5
DF3415280CC4E9DA
100
AcDbSymbolTableRecord
100
AcDbBlockTableRecord
  2
PLL_YGR_SCANDATA
  0
BLOCK_RECORD
  5
DF3415280CC4E9E0
100
AcDbSymbolTableRecord
100
AcDbBlockTableRecord
  2
PLL_YGR_CLKSWITCH
  0
BLOCK_RECORD
  5
DF3415280CC4E9E6
100
AcDbSymbolTableRecord
100
AcDbBlockTableRecord
  2
PLL_YGR_FBIN
  0
BLOCK_RECORD
  5
DF3415280CC4EA6E
100
AcDbSymbolTableRecord
100
AcDbBlockTableRecord
  2
PLL_YGR_C
  0
BLOCK_RECORD
  5
DF3415280CC4EB98
100
AcDbSymbolTableRecord
100
AcDbBlockTableRecord
  2
PLL_YGR_SCANDATAOUT
  0
BLOCK_RECORD
  5
DF3415280CC4EB9E
100
AcDbSymbolTableRecord
100
AcDbBlockTableRecord
  2
PLL_YGR_LOCKED
  0
BLOCK_RECORD
  5
DF3415280CC4EBA4
100
AcDbSymbolTableRecord
100
AcDbBlockTableRecord
  2
PLL_YGR_ACTIVECLOCK
  0
BLOCK_RECORD
  5
DF3415280CC4EC23
100
AcDbSymbolTableRecord
100
AcDbBlockTableRecord
  2
PLL_YGR_ENABLE_OUT0
  0
BLOCK_RECORD
  5
DF3415280CC4EC29
100
AcDbSymbolTableRecord
100
AcDbBlockTableRecord
  2
PLL_YGR_ENABLE_OUT1
  0
BLOCK_RECORD
  5
DF3415280CC56466
100
AcDbSymbolTableRecord
100
AcDbBlockTableRecord
  2
PLL_YGR_INCLK
  0
BLOCK_RECORD
  5
DF3415280CC56471
100
AcDbSymbolTableRecord
100
AcDbBlockTableRecord
  2
PLL_YGR_CLKBAD
  0
BLOCK_RECORD
  5
DF3415280CC5E1D8
100
AcDbSymbolTableRecord
100
AcDbBlockTableRecord
  2
PLL_ARM_SCAN_READ
  0
BLOCK_RECORD
  5
DF3415280CC5E1DE
100
AcDbSymbolTableRecord
100
AcDbBlockTableRecord
  2
PLL_ARM_SCAN_WRITE
  0
BLOCK_RECORD
  5
DF3415280CC7D382
100
AcDbSymbolTableRecord
100
AcDbBlockTableRecord
  2
PLL_ARM_GATE_LOCKED
  0
BLOCK_RECORD
  5
DF3415280CC7D393
100
AcDbSymbolTableRecord
100
AcDbBlockTableRecord
  2
PLL_ARM_SCAN_DONE
  0
BLOCK_RECORD
  5
DF3415280CC7D3A4
100
AcDbSymbolTableRecord
100
AcDbBlockTableRecord
  2
PLL_ARM_TEST_UP_OUT
  0
BLOCK_RECORD
  5
DF3415280CC7D3BA
100
AcDbSymbolTableRecord
100
AcDbBlockTableRecord
  2
PLL_ARM_TEST_DOWN_OUT
  0
BLOCK_RECORD
  5
DF3415280CCABCCC
100
AcDbSymbolTableRecord
100
AcDbBlockTableRecord
  2
PLL_ARM_SCLKOUT
  0
BLOCK_RECORD
  5
DF3415280CCABCD7
100
AcDbSymbolTableRecord
100
AcDbBlockTableRecord
  2
PLL_ARM
  0
BLOCK_RECORD
  5
DF3415280CCF1C54
100
AcDbSymbolTableRecord
100
AcDbBlockTableRecord
  2
PLL_ARM_TESTIN
  0
ENDTAB
  0
ENDSEC
  0
SECTION
  2
BLOCKS
  0
BLOCK
  5
19
100
AcDbEntity
  8
DETAIL_HIGH
100
AcDbBlockBegin
  2
*MODEL_SPACE
 70
     0
 10
0.0
 20
0.0
 30
0.0
  3
*MODEL_SPACE
  1

  0
ENDBLK
  5
1A
100
AcDbEntity
  8
DETAIL_HIGH
100
AcDbBlockEnd
  0
BLOCK
  5
16
100
AcDbEntity
 67
     1
  8
DETAIL_HIGH
100
AcDbBlockBegin
  2
*PAPER_SPACE
 70
     0
 10
0.0
 20
0.0
 30
0.0
  3
*PAPER_SPACE
  1

  0
ENDBLK
  5
17
100
AcDbEntity
 67
     1
  8
DETAIL_HIGH
100
AcDbBlockEnd
  0
BLOCK
  5
DF3415280CC4E9BB
100
AcDbEntity
  8
DETAIL_MEDIUM
  6
CONTINUOUS
100
AcDbBlockBegin
  2
PLL_YGR_PLL_ENA
 70
     2
 10
210.0
 20
-230.0
 30
0.0
  1

  0
POLYLINE
  5
DF3415280CC4E657
100
AcDbEntity
  8
PORTS
  6
CONTINUOUS
100
AcDb2dPolyline
 66
     1
 10
0.0
 20
0.0
 30
0.0
 70
     1
  0
VERTEX
  5
DF3415280CC4E658
100
AcDbEntity
  8
PORTS
  6
CONTINUOUS
100
AcDbVertex
100
AcDb2dVertex
 10
220.0
 20
-130.0
 30
0.0
  0
VERTEX
  5
DF3415280CC4E659
100
AcDbEntity
  8
PORTS
  6
CONTINUOUS
100
AcDbVertex
100
AcDb2dVertex
 10
214.0
 20
-122.0
 30
0.0
  0
VERTEX
  5
DF3415280CC4E65A
100
AcDbEntity
  8
PORTS
  6
CONTINUOUS
100
AcDbVertex
100
AcDb2dVertex
 10
214.0
 20
-50.0
 30
0.0
  0
VERTEX
  5
DF3415280CC4E65B
100
AcDbEntity
  8
PORTS
  6
CONTINUOUS
100
AcDbVertex
100
AcDb2dVertex
 10
226.0
 20
-50.0
 30
0.0
  0
VERTEX
  5
DF3415280CC4E65C
100
AcDbEntity
  8
PORTS
  6
CONTINUOUS
100
AcDbVertex
100
AcDb2dVertex
 10
226.0
 20
-122.0
 30
0.0
  0
VERTEX
  5
DF3415280CC4E65D
100
AcDbEntity
  8
PORTS
  6
CONTINUOUS
100
AcDbVertex
100
AcDb2dVertex
 10
220.0
 20
-130.0
 30
0.0
  0
SEQEND
  5
DF3415280CC4E65E
100
AcDbEntity
  8
PORTS
  6
CONTINUOUS
  0
POINT
  5
DF3415280CC4E65F
100
AcDbEntity
  8
PORTS
  6
CONTINUOUS
100
AcDbPoint
 10
220.0
 20
-130.0
 30
0.0
  0
LINE
  5
DF3415280CC4E6EE
100
AcDbEntity
  8
DETAIL_MEDIUM
  6
CONTINUOUS
100
AcDbLine
 10
220.0
 20
-130.0
 30
0.0
 11
220.0
 21
-230.0
 31
0.0
  0
ATTDEF
  5
DF3415280CC4E669
100
AcDbEntity
  8
PORTS
  6
CONTINUOUS
100
AcDbText
 10
212.0
 20
-38.0
 30
0.0
 40
10.0
  1

  7
SIMPLEX
100
AcDbAttributeDefinition
  3

  2
SIDE
 70
     0
  0
ENDBLK
  5
DF3415280CC4E9BD
100
AcDbEntity
  8
DETAIL_MEDIUM
  6
CONTINUOUS
100
AcDbBlockEnd
  0
BLOCK
  5
DF3415280CC4E9C1
100
AcDbEntity
  8
DETAIL_MEDIUM
  6
CONTINUOUS
100
AcDbBlockBegin
  2
PLL_YGR_ARESET
 70
     2
 10
240.0
 20
-230.0
 30
0.0
  1

  0
ATTDEF
  5
DF3415280CC4E6F9
100
AcDbEntity
  8
PORTS
  6
CONTINUOUS
100
AcDbText
 10
242.0
 20
-38.0
 30
0.0
 40
10.0
  1

  7
SIMPLEX
100
AcDbAttributeDefinition
  3

  2
SIDE
 70
     0
  0
POLYLINE
  5
DF3415280CC4E6F0
100
AcDbEntity
  8
PORTS
  6
CONTINUOUS
100
AcDb2dPolyline
 66
     1
 10
0.0
 20
0.0
 30
0.0
 70
     1
  0
VERTEX
  5
DF3415280CC4E6F1
100
AcDbEntity
  8
PORTS
  6
CONTINUOUS
100
AcDbVertex
100
AcDb2dVertex
 10
250.0
 20
-130.0
 30
0.0
  0
VERTEX
  5
DF3415280CC4E6F2
100
AcDbEntity
  8
PORTS
  6
CONTINUOUS
100
AcDbVertex
100
AcDb2dVertex
 10
244.0
 20
-122.0
 30
0.0
  0
VERTEX
  5
DF3415280CC4E6F3
100
AcDbEntity
  8
PORTS
  6
CONTINUOUS
100
AcDbVertex
100
AcDb2dVertex
 10
244.0
 20
-50.0
 30
0.0
  0
VERTEX
  5
DF3415280CC4E6F4
100
AcDbEntity
  8
PORTS
  6
CONTINUOUS
100
AcDbVertex
100
AcDb2dVertex
 10
256.0
 20
-50.0
 30
0.0
  0
VERTEX
  5
DF3415280CC4E6F5
100
AcDbEntity
  8
PORTS
  6
CONTINUOUS
100
AcDbVertex
100
AcDb2dVertex
 10
256.0
 20
-122.0
 30
0.0
  0
VERTEX
  5
DF3415280CC4E6F6
100
AcDbEntity
  8
PORTS
  6
CONTINUOUS
100
AcDbVertex
100
AcDb2dVertex
 10
250.0
 20
-130.0
 30
0.0
  0
SEQEND
  5
DF3415280CC4E6F7
100
AcDbEntity
  8
PORTS
  6
CONTINUOUS
  0
POINT
  5
DF3415280CC4E6F8
100
AcDbEntity
  8
PORTS
  6
CONTINUOUS
100
AcDbPoint
 10
250.0
 20
-130.0
 30
0.0
  0
LINE
  5
DF3415280CC4E6FA
100
AcDbEntity
  8
DETAIL_MEDIUM
  6
CONTINUOUS
100
AcDbLine
 10
250.0
 20
-130.0
 30
0.0
 11
250.0
 21
-230.0
 31
0.0
  0
ENDBLK
  5
DF3415280CC4E9C3
100
AcDbEntity
  8
DETAIL_MEDIUM
  6
CONTINUOUS
100
AcDbBlockEnd
  0
BLOCK
  5
DF3415280CC4E9C7
100
AcDbEntity
  8
DETAIL_MEDIUM
  6
CONTINUOUS
100
AcDbBlockBegin
  2
PLL_YGR_PFDENA
 70
     2
 10
270.0
 20
-230.0
 30
0.0
  1

  0
POLYLINE
  5
DF3415280CC4E6FB
100
AcDbEntity
  8
PORTS
  6
CONTINUOUS
100
AcDb2dPolyline
 66
     1
 10
0.0
 20
0.0
 30
0.0
 70
     1
  0
VERTEX
  5
DF3415280CC4E6FC
100
AcDbEntity
  8
PORTS
  6
CONTINUOUS
100
AcDbVertex
100
AcDb2dVertex
 10
280.0
 20
-130.0
 30
0.0
  0
VERTEX
  5
DF3415280CC4E6FD
100
AcDbEntity
  8
PORTS
  6
CONTINUOUS
100
AcDbVertex
100
AcDb2dVertex
 10
274.0
 20
-122.0
 30
0.0
  0
VERTEX
  5
DF3415280CC4E6FE
100
AcDbEntity
  8
PORTS
  6
CONTINUOUS
100
AcDbVertex
100
AcDb2dVertex
 10
274.0
 20
-50.0
 30
0.0
  0
VERTEX
  5
DF3415280CC4E6FF
100
AcDbEntity
  8
PORTS
  6
CONTINUOUS
100
AcDbVertex
100
AcDb2dVertex
 10
286.0
 20
-50.0
 30
0.0
  0
VERTEX
  5
DF3415280CC4E700
100
AcDbEntity
  8
PORTS
  6
CONTINUOUS
100
AcDbVertex
100
AcDb2dVertex
 10
286.0
 20
-122.0
 30
0.0
  0
VERTEX
  5
DF3415280CC4E701
100
AcDbEntity
  8
PORTS
  6
CONTINUOUS
100
AcDbVertex
100
AcDb2dVertex
 10
280.0
 20
-130.0
 30
0.0
  0
SEQEND
  5
DF3415280CC4E702
100
AcDbEntity
  8
PORTS
  6
CONTINUOUS
  0
POINT
  5
DF3415280CC4E703
100
AcDbEntity
  8
PORTS
  6
CONTINUOUS
100
AcDbPoint
 10
280.0
 20
-130.0
 30
0.0
  0
ATTDEF
  5
DF3415280CC4E704
100
AcDbEntity
  8
PORTS
  6
CONTINUOUS
100
AcDbText
 10
272.0
 20
-38.0
 30
0.0
 40
10.0
  1

  7
SIMPLEX
100
AcDbAttributeDefinition
  3

  2
SIDE
 70
     0
  0
LINE
  5
DF3415280CC4E705
100
AcDbEntity
  8
DETAIL_MEDIUM
  6
CONTINUOUS
100
AcDbLine
 10
280.0
 20
-130.0
 30
0.0
 11
280.0
 21
-230.0
 31
0.0
  0
ENDBLK
  5
DF3415280CC4E9C9
100
AcDbEntity
  8
DETAIL_MEDIUM
  6
CONTINUOUS
100
AcDbBlockEnd
  0
BLOCK
  5
DF3415280CC5E1D2
100
AcDbEntity
  8
DETAIL_MEDIUM
  6
CONTINUOUS
100
AcDbBlockBegin
  2
PLL_YGR_SCANCLK
 70
     2
 10
0.0
 20
0.0
 30
0.0
  1

  0
LINE
  5
DF3415280CC5E1BB
100
AcDbEntity
  8
DETAIL_MEDIUM
  6
CONTINUOUS
100
AcDbLine
 10
330.0
 20
-90.0
 30
0.0
 11
330.0
 21
-190.0
 31
0.0
  0
POINT
  5
DF3415280CC5E1B9
100
AcDbEntity
  8
PORTS
  6
CONTINUOUS
100
AcDbPoint
 10
330.0
 20
-90.0
 30
0.0
  0
POLYLINE
  5
DF3415280CC5E1B1
100
AcDbEntity
  8
PORTS
  6
CONTINUOUS
100
AcDb2dPolyline
 66
     1
 10
0.0
 20
0.0
 30
0.0
 70
     1
  0
VERTEX
  5
DF3415280CC5E1B2
100
AcDbEntity
  8
PORTS
  6
CONTINUOUS
100
AcDbVertex
100
AcDb2dVertex
 10
330.0
 20
-90.0
 30
0.0
  0
VERTEX
  5
DF3415280CC5E1B3
100
AcDbEntity
  8
PORTS
  6
CONTINUOUS
100
AcDbVertex
100
AcDb2dVertex
 10
324.0
 20
-82.0
 30
0.0
  0
VERTEX
  5
DF3415280CC5E1B4
100
AcDbEntity
  8
PORTS
  6
CONTINUOUS
100
AcDbVertex
100
AcDb2dVertex
 10
324.0
 20
-10.0
 30
0.0
  0
VERTEX
  5
DF3415280CC5E1B5
100
AcDbEntity
  8
PORTS
  6
CONTINUOUS
100
AcDbVertex
100
AcDb2dVertex
 10
336.0
 20
-10.0
 30
0.0
  0
VERTEX
  5
DF3415280CC5E1B6
100
AcDbEntity
  8
PORTS
  6
CONTINUOUS
100
AcDbVertex
100
AcDb2dVertex
 10
336.0
 20
-82.0
 30
0.0
  0
VERTEX
  5
DF3415280CC5E1B7
100
AcDbEntity
  8
PORTS
  6
CONTINUOUS
100
AcDbVertex
100
AcDb2dVertex
 10
330.0
 20
-90.0
 30
0.0
  0
SEQEND
  5
DF3415280CC5E1B8
100
AcDbEntity
  8
PORTS
  6
CONTINUOUS
  0
ATTDEF
  5
DF3415280CC5E1BA
100
AcDbEntity
  8
PORTS
  6
CONTINUOUS
100
AcDbText
 10
322.0
 20
2.0
 30
0.0
 40
10.0
  1

  7
SIMPLEX
100
AcDbAttributeDefinition
  3

  2
SIDE
 70
     0
  0
ENDBLK
  5
DF3415280CC5E1D3
100
AcDbEntity
  8
DETAIL_MEDIUM
  6
CONTINUOUS
100
AcDbBlockEnd
  0
BLOCK
  5
DF3415280CC4E9D9
100
AcDbEntity
  8
DETAIL_MEDIUM
  6
CONTINUOUS
100
AcDbBlockBegin
  2
PLL_YGR_SCANDATA
 70
     2
 10
360.0
 20
-230.0
 30
0.0
  1

  0
POLYLINE
  5
DF3415280CC4E71C
100
AcDbEntity
  8
PORTS
  6
CONTINUOUS
100
AcDb2dPolyline
 66
     1
 10
0.0
 20
0.0
 30
0.0
 70
     1
  0
VERTEX
  5
DF3415280CC4E71D
100
AcDbEntity
  8
PORTS
  6
CONTINUOUS
100
AcDbVertex
100
AcDb2dVertex
 10
370.0
 20
-130.0
 30
0.0
  0
VERTEX
  5
DF3415280CC4E71E
100
AcDbEntity
  8
PORTS
  6
CONTINUOUS
100
AcDbVertex
100
AcDb2dVertex
 10
364.0
 20
-122.0
 30
0.0
  0
VERTEX
  5
DF3415280CC4E71F
100
AcDbEntity
  8
PORTS
  6
CONTINUOUS
100
AcDbVertex
100
AcDb2dVertex
 10
364.0
 20
-50.0
 30
0.0
  0
VERTEX
  5
DF3415280CC4E720
100
AcDbEntity
  8
PORTS
  6
CONTINUOUS
100
AcDbVertex
100
AcDb2dVertex
 10
376.0
 20
-50.0
 30
0.0
  0
VERTEX
  5
DF3415280CC4E721
100
AcDbEntity
  8
PORTS
  6
CONTINUOUS
100
AcDbVertex
100
AcDb2dVertex
 10
376.0
 20
-122.0
 30
0.0
  0
VERTEX
  5
DF3415280CC4E722
100
AcDbEntity
  8
PORTS
  6
CONTINUOUS
100
AcDbVertex
100
AcDb2dVertex
 10
370.0
 20
-130.0
 30
0.0
  0
SEQEND
  5
DF3415280CC4E723
100
AcDbEntity
  8
PORTS
  6
CONTINUOUS
  0
POINT
  5
DF3415280CC4E724
100
AcDbEntity
  8
PORTS
  6
CONTINUOUS
100
AcDbPoint
 10
370.0
 20
-130.0
 30
0.0
  0
ATTDEF
  5
DF3415280CC4E725
100
AcDbEntity
  8
PORTS
  6
CONTINUOUS
100
AcDbText
 10
362.0
 20
-38.0
 30
0.0
 40
10.0
  1

  7
SIMPLEX
100
AcDbAttributeDefinition
  3

  2
SIDE
 70
     0
  0
LINE
  5
DF3415280CC4E726
100
AcDbEntity
  8
DETAIL_MEDIUM
  6
CONTINUOUS
100
AcDbLine
 10
370.0
 20
-130.0
 30
0.0
 11
370.0
 21
-230.0
 31
0.0
  0
ENDBLK
  5
DF3415280CC4E9DB
100
AcDbEntity
  8
DETAIL_MEDIUM
  6
CONTINUOUS
100
AcDbBlockEnd
  0
BLOCK
  5
DF3415280CC4E9DF
100
AcDbEntity
  8
DETAIL_MEDIUM
  6
CONTINUOUS
100
AcDbBlockBegin
  2
PLL_YGR_CLKSWITCH
 70
     2
 10
390.0
 20
-230.0
 30
0.0
  1

  0
POLYLINE
  5
DF3415280CC4E727
100
AcDbEntity
  8
PORTS
  6
CONTINUOUS
100
AcDb2dPolyline
 66
     1
 10
0.0
 20
0.0
 30
0.0
 70
     1
  0
VERTEX
  5
DF3415280CC4E728
100
AcDbEntity
  8
PORTS
  6
CONTINUOUS
100
AcDbVertex
100
AcDb2dVertex
 10
400.0
 20
-130.0
 30
0.0
  0
VERTEX
  5
DF3415280CC4E729
100
AcDbEntity
  8
PORTS
  6
CONTINUOUS
100
AcDbVertex
100
AcDb2dVertex
 10
394.0
 20
-122.0
 30
0.0
  0
VERTEX
  5
DF3415280CC4E72A
100
AcDbEntity
  8
PORTS
  6
CONTINUOUS
100
AcDbVertex
100
AcDb2dVertex
 10
394.0
 20
-50.0
 30
0.0
  0
VERTEX
  5
DF3415280CC4E72B
100
AcDbEntity
  8
PORTS
  6
CONTINUOUS
100
AcDbVertex
100
AcDb2dVertex
 10
406.0
 20
-50.0
 30
0.0
  0
VERTEX
  5
DF3415280CC4E72C
100
AcDbEntity
  8
PORTS
  6
CONTINUOUS
100
AcDbVertex
100
AcDb2dVertex
 10
406.0
 20
-122.0
 30
0.0
  0
VERTEX
  5
DF3415280CC4E72D
100
AcDbEntity
  8
PORTS
  6
CONTINUOUS
100
AcDbVertex
100
AcDb2dVertex
 10
400.0
 20
-130.0
 30
0.0
  0
SEQEND
  5
DF3415280CC4E72E
100
AcDbEntity
  8
PORTS
  6
CONTINUOUS
  0
POINT
  5
DF3415280CC4E72F
100
AcDbEntity
  8
PORTS
  6
CONTINUOUS
100
AcDbPoint
 10
400.0
 20
-130.0
 30
0.0
  0
ATTDEF
  5
DF3415280CC4E730
100
AcDbEntity
  8
PORTS
  6
CONTINUOUS
100
AcDbText
 10
392.0
 20
-38.0
 30
0.0
 40
10.0
  1

  7
SIMPLEX
100
AcDbAttributeDefinition
  3

  2
SIDE
 70
     0
  0
LINE
  5
DF3415280CC4E731
100
AcDbEntity
  8
DETAIL_MEDIUM
  6
CONTINUOUS
100
AcDbLine
 10
400.0
 20
-130.0
 30
0.0
 11
400.0
 21
-230.0
 31
0.0
  0
ENDBLK
  5
DF3415280CC4E9E1
100
AcDbEntity
  8
DETAIL_MEDIUM
  6
CONTINUOUS
100
AcDbBlockEnd
  0
BLOCK
  5
DF3415280CC4E9E5
100
AcDbEntity
  8
DETAIL_MEDIUM
  6
CONTINUOUS
100
AcDbBlockBegin
  2
PLL_YGR_FBIN
 70
     2
 10
420.0
 20
-230.0
 30
0.0
  1

  0
POLYLINE
  5
DF3415280CC4E732
100
AcDbEntity
  8
PORTS
  6
CONTINUOUS
100
AcDb2dPolyline
 66
     1
 10
0.0
 20
0.0
 30
0.0
 70
     1
  0
VERTEX
  5
DF3415280CC4E733
100
AcDbEntity
  8
PORTS
  6
CONTINUOUS
100
AcDbVertex
100
AcDb2dVertex
 10
430.0
 20
-130.0
 30
0.0
  0
VERTEX
  5
DF3415280CC4E734
100
AcDbEntity
  8
PORTS
  6
CONTINUOUS
100
AcDbVertex
100
AcDb2dVertex
 10
424.0
 20
-122.0
 30
0.0
  0
VERTEX
  5
DF3415280CC4E735
100
AcDbEntity
  8
PORTS
  6
CONTINUOUS
100
AcDbVertex
100
AcDb2dVertex
 10
424.0
 20
-50.0
 30
0.0
  0
VERTEX
  5
DF3415280CC4E736
100
AcDbEntity
  8
PORTS
  6
CONTINUOUS
100
AcDbVertex
100
AcDb2dVertex
 10
436.0
 20
-50.0
 30
0.0
  0
VERTEX
  5
DF3415280CC4E737
100
AcDbEntity
  8
PORTS
  6
CONTINUOUS
100
AcDbVertex
100
AcDb2dVertex
 10
436.0
 20
-122.0
 30
0.0
  0
VERTEX
  5
DF3415280CC4E738
100
AcDbEntity
  8
PORTS
  6
CONTINUOUS
100
AcDbVertex
100
AcDb2dVertex
 10
430.0
 20
-130.0
 30
0.0
  0
SEQEND
  5
DF3415280CC4E739
100
AcDbEntity
  8
PORTS
  6
CONTINUOUS
  0
POINT
  5
DF3415280CC4E73A
100
AcDbEntity
  8
PORTS
  6
CONTINUOUS
100
AcDbPoint
 10
430.0
 20
-130.0
 30
0.0
  0
ATTDEF
  5
DF3415280CC4E73B
100
AcDbEntity
  8
PORTS
  6
CONTINUOUS
100
AcDbText
 10
422.0
 20
-38.0
 30
0.0
 40
10.0
  1

  7
SIMPLEX
100
AcDbAttributeDefinition
  3

  2
SIDE
 70
     0
  0
LINE
  5
DF3415280CC4E73C
100
AcDbEntity
  8
DETAIL_MEDIUM
  6
CONTINUOUS
100
AcDbLine
 10
430.0
 20
-130.0
 30
0.0
 11
430.0
 21
-230.0
 31
0.0
  0
ENDBLK
  5
DF3415280CC4E9E7
100
AcDbEntity
  8
DETAIL_MEDIUM
  6
CONTINUOUS
100
AcDbBlockEnd
  0
BLOCK
  5
DF3415280CC4EA6D
100
AcDbEntity
  8
DETAIL_MEDIUM
  6
CONTINUOUS
100
AcDbBlockBegin
  2
PLL_YGR_C
 70
     2
 10
660.0
 20
-270.0
 30
0.0
  1

  0
POLYLINE
  5
DF3415280CC4E989
100
AcDbEntity
  8
PORTS
  6
CONTINUOUS
100
AcDb2dPolyline
 66
     1
 10
0.0
 20
0.0
 30
0.0
 70
     1
  0
VERTEX
  5
DF3415280CC4E98A
100
AcDbEntity
  8
PORTS
  6
CONTINUOUS
100
AcDbVertex
100
AcDb2dVertex
 10
840.0
 20
-260.0
 30
0.0
  0
VERTEX
  5
DF3415280CC4E98B
100
AcDbEntity
  8
PORTS
  6
CONTINUOUS
100
AcDbVertex
100
AcDb2dVertex
 10
832.0
 20
-266.0
 30
0.0
  0
VERTEX
  5
DF3415280CC4E98C
100
AcDbEntity
  8
PORTS
  6
CONTINUOUS
100
AcDbVertex
100
AcDb2dVertex
 10
760.0
 20
-266.0
 30
0.0
  0
VERTEX
  5
DF3415280CC4E98D
100
AcDbEntity
  8
PORTS
  6
CONTINUOUS
100
AcDbVertex
100
AcDb2dVertex
 10
760.0
 20
-254.0
 30
0.0
  0
VERTEX
  5
DF3415280CC4E98E
100
AcDbEntity
  8
PORTS
  6
CONTINUOUS
100
AcDbVertex
100
AcDb2dVertex
 10
832.0
 20
-254.0
 30
0.0
  0
VERTEX
  5
DF3415280CC4E98F
100
AcDbEntity
  8
PORTS
  6
CONTINUOUS
100
AcDbVertex
100
AcDb2dVertex
 10
840.0
 20
-260.0
 30
0.0
  0
SEQEND
  5
DF3415280CC4E990
100
AcDbEntity
  8
PORTS
  6
CONTINUOUS
  0
ATTDEF
  5
DF3415280CC4E991
100
AcDbEntity
  8
PORTS
  6
CONTINUOUS
100
AcDbText
 10
762.0
 20
-248.0
 30
0.0
 40
10.0
  1

 50
0.000019
  7
SIMPLEX
100
AcDbAttributeDefinition
  3

  2
SIDE
 70
     0
  0
POINT
  5
DF3415280CC4E992
100
AcDbEntity
  8
PORTS
  6
CONTINUOUS
100
AcDbPoint
 10
760.0
 20
-260.0
 30
0.0
  0
LINE
  5
DF3415280CC4E993
100
AcDbEntity
  8
DETAIL_MEDIUM
  6
CONTINUOUS
100
AcDbLine
 10
660.0
 20
-260.0
 30
0.0
 11
760.0
 21
-260.0
 31
0.0
  0
ATTDEF
  5
DF3415280CC4EA6C
100
AcDbEntity
  8
PORTS
  6
CONTINUOUS
100
AcDbText
 10
812.0
 20
-248.0
 30
0.0
 40
10.0
  1
0
 50
0.000019
  7
SIMPLEX
100
AcDbAttributeDefinition
  3

  2
INDEX
 70
     0
  0
ENDBLK
  5
DF3415280CC4EA6F
100
AcDbEntity
  8
DETAIL_MEDIUM
  6
CONTINUOUS
100
AcDbBlockEnd
  0
BLOCK
  5
DF3415280CC4EB97
100
AcDbEntity
  8
DETAIL_MEDIUM
  6
CONTINUOUS
100
AcDbBlockBegin
  2
PLL_YGR_SCANDATAOUT
 70
     2
 10
260.0
 20
-860.0
 30
0.0
  1

  0
POLYLINE
  5
DF3415280CC4E6E0
100
AcDbEntity
  8
PORTS
  6
CONTINUOUS
100
AcDb2dPolyline
 66
     1
 10
0.0
 20
0.0
 30
0.0
 70
     1
  0
VERTEX
  5
DF3415280CC4E6E1
100
AcDbEntity
  8
PORTS
  6
CONTINUOUS
100
AcDbVertex
100
AcDb2dVertex
 10
270.0
 20
-860.0
 30
0.0
  0
VERTEX
  5
DF3415280CC4E6E2
100
AcDbEntity
  8
PORTS
  6
CONTINUOUS
100
AcDbVertex
100
AcDb2dVertex
 10
264.0
 20
-852.0
 30
0.0
  0
VERTEX
  5
DF3415280CC4E6E3
100
AcDbEntity
  8
PORTS
  6
CONTINUOUS
100
AcDbVertex
100
AcDb2dVertex
 10
264.0
 20
-780.0
 30
0.0
  0
VERTEX
  5
DF3415280CC4E6E4
100
AcDbEntity
  8
PORTS
  6
CONTINUOUS
100
AcDbVertex
100
AcDb2dVertex
 10
276.0
 20
-780.0
 30
0.0
  0
VERTEX
  5
DF3415280CC4E6E5
100
AcDbEntity
  8
PORTS
  6
CONTINUOUS
100
AcDbVertex
100
AcDb2dVertex
 10
276.0
 20
-852.0
 30
0.0
  0
VERTEX
  5
DF3415280CC4E6E6
100
AcDbEntity
  8
PORTS
  6
CONTINUOUS
100
AcDbVertex
100
AcDb2dVertex
 10
270.0
 20
-860.0
 30
0.0
  0
SEQEND
  5
DF3415280CC4E6E7
100
AcDbEntity
  8
PORTS
  6
CONTINUOUS
  0
POINT
  5
DF3415280CC4E6E8
100
AcDbEntity
  8
PORTS
  6
CONTINUOUS
100
AcDbPoint
 10
270.0
 20
-780.0
 30
0.0
  0
ATTDEF
  5
DF3415280CC4E6E9
100
AcDbEntity
  8
PORTS
  6
CONTINUOUS
100
AcDbText
 10
262.0
 20
-888.0
 30
0.0
 40
10.0
  1

  7
SIMPLEX
100
AcDbAttributeDefinition
  3

  2
SIDE
 70
     0
  0
LINE
  5
DF3415280CC4E748
100
AcDbEntity
  8
DETAIL_MEDIUM
  6
CONTINUOUS
100
AcDbLine
 10
270.0
 20
-680.0
 30
0.0
 11
270.0
 21
-780.0
 31
0.0
  0
ENDBLK
  5
DF3415280CC4EB99
100
AcDbEntity
  8
DETAIL_MEDIUM
  6
CONTINUOUS
100
AcDbBlockEnd
  0
BLOCK
  5
DF3415280CC7D3B4
100
AcDbEntity
  8
DETAIL_MEDIUM
  6
CONTINUOUS
100
AcDbBlockBegin
  2
PLL_YGR_LOCKED
 70
     2
 10
0.0
 20
0.0
 30
0.0
  1

  0
LINE
  5
DF3415280CC7D374
100
AcDbEntity
  8
DETAIL_MEDIUM
  6
CONTINUOUS
100
AcDbLine
 10
310.0
 20
-630.0
 30
0.0
 11
310.0
 21
-730.0
 31
0.0
  0
POINT
  5
DF3415280CC7D373
100
AcDbEntity
  8
PORTS
  6
CONTINUOUS
100
AcDbPoint
 10
310.0
 20
-730.0
 30
0.0
  0
POLYLINE
  5
DF3415280CC7D36B
100
AcDbEntity
  8
PORTS
  6
CONTINUOUS
100
AcDb2dPolyline
 66
     1
 10
0.0
 20
0.0
 30
0.0
 70
     1
  0
VERTEX
  5
DF3415280CC7D36C
100
AcDbEntity
  8
PORTS
  6
CONTINUOUS
100
AcDbVertex
100
AcDb2dVertex
 10
310.0
 20
-810.0
 30
0.0
  0
VERTEX
  5
DF3415280CC7D36D
100
AcDbEntity
  8
PORTS
  6
CONTINUOUS
100
AcDbVertex
100
AcDb2dVertex
 10
304.0
 20
-802.0
 30
0.0
  0
VERTEX
  5
DF3415280CC7D36E
100
AcDbEntity
  8
PORTS
  6
CONTINUOUS
100
AcDbVertex
100
AcDb2dVertex
 10
304.0
 20
-730.0
 30
0.0
  0
VERTEX
  5
DF3415280CC7D36F
100
AcDbEntity
  8
PORTS
  6
CONTINUOUS
100
AcDbVertex
100
AcDb2dVertex
 10
316.0
 20
-730.0
 30
0.0
  0
VERTEX
  5
DF3415280CC7D370
100
AcDbEntity
  8
PORTS
  6
CONTINUOUS
100
AcDbVertex
100
AcDb2dVertex
 10
316.0
 20
-802.0
 30
0.0
  0
VERTEX
  5
DF3415280CC7D371
100
AcDbEntity
  8
PORTS
  6
CONTINUOUS
100
AcDbVertex
100
AcDb2dVertex
 10
310.0
 20
-810.0
 30
0.0
  0
SEQEND
  5
DF3415280CC7D372
100
AcDbEntity
  8
PORTS
  6
CONTINUOUS
  0
ATTDEF
  5
DF3415280CC7D375
100
AcDbEntity
  8
PORTS
  6
CONTINUOUS
100
AcDbText
 10
302.0
 20
-838.0
 30
0.0
 40
10.0
  1

  7
SIMPLEX
100
AcDbAttributeDefinition
  3

  2
SIDE
 70
     0
  0
ENDBLK
  5
DF3415280CC7D3B5
100
AcDbEntity
  8
DETAIL_MEDIUM
  6
CONTINUOUS
100
AcDbBlockEnd
  0
BLOCK
  5
DF3415280CC4EBA3
100
AcDbEntity
  8
DETAIL_MEDIUM
  6
CONTINUOUS
100
AcDbBlockBegin
  2
PLL_YGR_ACTIVECLOCK
 70
     2
 10
390.0
 20
-860.0
 30
0.0
  1

  0
POLYLINE
  5
DF3415280CC4EB76
100
AcDbEntity
  8
PORTS
  6
CONTINUOUS
100
AcDb2dPolyline
 66
     1
 10
0.0
 20
0.0
 30
0.0
 70
     1
  0
VERTEX
  5
DF3415280CC4EB77
100
AcDbEntity
  8
PORTS
  6
CONTINUOUS
100
AcDbVertex
100
AcDb2dVertex
 10
400.0
 20
-860.0
 30
0.0
  0
VERTEX
  5
DF3415280CC4EB78
100
AcDbEntity
  8
PORTS
  6
CONTINUOUS
100
AcDbVertex
100
AcDb2dVertex
 10
394.0
 20
-852.0
 30
0.0
  0
VERTEX
  5
DF3415280CC4EB79
100
AcDbEntity
  8
PORTS
  6
CONTINUOUS
100
AcDbVertex
100
AcDb2dVertex
 10
394.0
 20
-780.0
 30
0.0
  0
VERTEX
  5
DF3415280CC4EB7A
100
AcDbEntity
  8
PORTS
  6
CONTINUOUS
100
AcDbVertex
100
AcDb2dVertex
 10
406.0
 20
-780.0
 30
0.0
  0
VERTEX
  5
DF3415280CC4EB7B
100
AcDbEntity
  8
PORTS
  6
CONTINUOUS
100
AcDbVertex
100
AcDb2dVertex
 10
406.0
 20
-852.0
 30
0.0
  0
VERTEX
  5
DF3415280CC4EB7C
100
AcDbEntity
  8
PORTS
  6
CONTINUOUS
100
AcDbVertex
100
AcDb2dVertex
 10
400.0
 20
-860.0
 30
0.0
  0
SEQEND
  5
DF3415280CC4EB7D
100
AcDbEntity
  8
PORTS
  6
CONTINUOUS
  0
POINT
  5
DF3415280CC4EB7E
100
AcDbEntity
  8
PORTS
  6
CONTINUOUS
100
AcDbPoint
 10
400.0
 20
-780.0
 30
0.0
  0
ATTDEF
  5
DF3415280CC4EB7F
100
AcDbEntity
  8
PORTS
  6
CONTINUOUS
100
AcDbText
 10
392.0
 20
-888.0
 30
0.0
 40
10.0
  1

  7
SIMPLEX
100
AcDbAttributeDefinition
  3

  2
SIDE
 70
     0
  0
LINE
  5
DF3415280CC4EB80
100
AcDbEntity
  8
DETAIL_MEDIUM
  6
CONTINUOUS
100
AcDbLine
 10
400.0
 20
-680.0
 30
0.0
 11
400.0
 21
-780.0
 31
0.0
  0
ENDBLK
  5
DF3415280CC4EBA5
100
AcDbEntity
  8
DETAIL_MEDIUM
  6
CONTINUOUS
100
AcDbBlockEnd
  0
BLOCK
  5
DF3415280CC4EC22
100
AcDbEntity
  8
DETAIL_MEDIUM
  6
CONTINUOUS
100
AcDbBlockBegin
  2
PLL_YGR_ENABLE_OUT0
 70
     2
 10
420.0
 20
-850.0
 30
0.0
  1

  0
POLYLINE
  5
DF3415280CC4EBD5
100
AcDbEntity
  8
PORTS
  6
CONTINUOUS
100
AcDb2dPolyline
 66
     1
 10
0.0
 20
0.0
 30
0.0
 70
     1
  0
VERTEX
  5
DF3415280CC4EBD6
100
AcDbEntity
  8
PORTS
  6
CONTINUOUS
100
AcDbVertex
100
AcDb2dVertex
 10
430.0
 20
-850.0
 30
0.0
  0
VERTEX
  5
DF3415280CC4EBD7
100
AcDbEntity
  8
PORTS
  6
CONTINUOUS
100
AcDbVertex
100
AcDb2dVertex
 10
424.0
 20
-842.0
 30
0.0
  0
VERTEX
  5
DF3415280CC4EBD8
100
AcDbEntity
  8
PORTS
  6
CONTINUOUS
100
AcDbVertex
100
AcDb2dVertex
 10
424.0
 20
-770.0
 30
0.0
  0
VERTEX
  5
DF3415280CC4EBD9
100
AcDbEntity
  8
PORTS
  6
CONTINUOUS
100
AcDbVertex
100
AcDb2dVertex
 10
436.0
 20
-770.0
 30
0.0
  0
VERTEX
  5
DF3415280CC4EBDA
100
AcDbEntity
  8
PORTS
  6
CONTINUOUS
100
AcDbVertex
100
AcDb2dVertex
 10
436.0
 20
-842.0
 30
0.0
  0
VERTEX
  5
DF3415280CC4EBDB
100
AcDbEntity
  8
PORTS
  6
CONTINUOUS
100
AcDbVertex
100
AcDb2dVertex
 10
430.0
 20
-850.0
 30
0.0
  0
SEQEND
  5
DF3415280CC4EBDC
100
AcDbEntity
  8
PORTS
  6
CONTINUOUS
  0
POINT
  5
DF3415280CC4EBDD
100
AcDbEntity
  8
PORTS
  6
CONTINUOUS
100
AcDbPoint
 10
430.0
 20
-770.0
 30
0.0
  0
ATTDEF
  5
DF3415280CC4EBDE
100
AcDbEntity
  8
PORTS
  6
CONTINUOUS
100
AcDbText
 10
422.0
 20
-878.0
 30
0.0
 40
10.0
  1

  7
SIMPLEX
100
AcDbAttributeDefinition
  3

  2
SIDE
 70
     0
  0
LINE
  5
DF3415280CC4EBDF
100
AcDbEntity
  8
DETAIL_MEDIUM
  6
CONTINUOUS
100
AcDbLine
 10
430.0
 20
-670.0
 30
0.0
 11
430.0
 21
-770.0
 31
0.0
  0
ENDBLK
  5
DF3415280CC4EC24
100
AcDbEntity
  8
DETAIL_MEDIUM
  6
CONTINUOUS
100
AcDbBlockEnd
  0
BLOCK
  5
DF3415280CC4EC28
100
AcDbEntity
  8
DETAIL_MEDIUM
  6
CONTINUOUS
100
AcDbBlockBegin
  2
PLL_YGR_ENABLE_OUT1
 70
     2
 10
460.0
 20
-850.0
 30
0.0
  1

  0
POLYLINE
  5
DF3415280CC4EC17
100
AcDbEntity
  8
PORTS
  6
CONTINUOUS
100
AcDb2dPolyline
 66
     1
 10
0.0
 20
0.0
 30
0.0
 70
     1
  0
VERTEX
  5
DF3415280CC4EC18
100
AcDbEntity
  8
PORTS
  6
CONTINUOUS
100
AcDbVertex
100
AcDb2dVertex
 10
470.0
 20
-850.0
 30
0.0
  0
VERTEX
  5
DF3415280CC4EC19
100
AcDbEntity
  8
PORTS
  6
CONTINUOUS
100
AcDbVertex
100
AcDb2dVertex
 10
464.0
 20
-842.0
 30
0.0
  0
VERTEX
  5
DF3415280CC4EC1A
100
AcDbEntity
  8
PORTS
  6
CONTINUOUS
100
AcDbVertex
100
AcDb2dVertex
 10
464.0
 20
-770.0
 30
0.0
  0
VERTEX
  5
DF3415280CC4EC1B
100
AcDbEntity
  8
PORTS
  6
CONTINUOUS
100
AcDbVertex
100
AcDb2dVertex
 10
476.0
 20
-770.0
 30
0.0
  0
VERTEX
  5
DF3415280CC4EC1C
100
AcDbEntity
  8
PORTS
  6
CONTINUOUS
100
AcDbVertex
100
AcDb2dVertex
 10
476.0
 20
-842.0
 30
0.0
  0
VERTEX
  5
DF3415280CC4EC1D
100
AcDbEntity
  8
PORTS
  6
CONTINUOUS
100
AcDbVertex
100
AcDb2dVertex
 10
470.0
 20
-850.0
 30
0.0
  0
SEQEND
  5
DF3415280CC4EC1E
100
AcDbEntity
  8
PORTS
  6
CONTINUOUS
  0
POINT
  5
DF3415280CC4EC1F
100
AcDbEntity
  8
PORTS
  6
CONTINUOUS
100
AcDbPoint
 10
470.0
 20
-770.0
 30
0.0
  0
ATTDEF
  5
DF3415280CC4EC20
100
AcDbEntity
  8
PORTS
  6
CONTINUOUS
100
AcDbText
 10
462.0
 20
-878.0
 30
0.0
 40
10.0
  1

  7
SIMPLEX
100
AcDbAttributeDefinition
  3

  2
SIDE
 70
     0
  0
LINE
  5
DF3415280CC4EC21
100
AcDbEntity
  8
DETAIL_MEDIUM
  6
CONTINUOUS
100
AcDbLine
 10
470.0
 20
-670.0
 30
0.0
 11
470.0
 21
-770.0
 31
0.0
  0
ENDBLK
  5
DF3415280CC4EC2A
100
AcDbEntity
  8
DETAIL_MEDIUM
  6
CONTINUOUS
100
AcDbBlockEnd
  0
BLOCK
  5
DF3415280CC56465
100
AcDbEntity
  8
DETAIL_MEDIUM
  6
CONTINUOUS
100
AcDbBlockBegin
  2
PLL_YGR_INCLK
 70
     2
 10
10.0
 20
-230.0
 30
0.0
  1

  0
ATTDEF
  5
DF3415280CC4F11D
100
AcDbEntity
  8
PORTS
  6
CONTINUOUS
100
AcDbText
 10
12.0
 20
-208.0
 30
0.0
 40
10.0
  1

  7
SIMPLEX
100
AcDbAttributeDefinition
  3

  2
SIDE
 70
     0
  0
POLYLINE
  5
DF3415280CC4F11E
100
AcDbEntity
  8
PORTS
  6
CONTINUOUS
100
AcDb2dPolyline
 66
     1
 10
0.0
 20
0.0
 30
0.0
 70
     1
  0
VERTEX
  5
DF3415280CC4F11F
100
AcDbEntity
  8
PORTS
  6
CONTINUOUS
100
AcDbVertex
100
AcDb2dVertex
 10
90.0
 20
-220.0
 30
0.0
  0
VERTEX
  5
DF3415280CC4F120
100
AcDbEntity
  8
PORTS
  6
CONTINUOUS
100
AcDbVertex
100
AcDb2dVertex
 10
82.0
 20
-226.0
 30
0.0
  0
VERTEX
  5
DF3415280CC4F121
100
AcDbEntity
  8
PORTS
  6
CONTINUOUS
100
AcDbVertex
100
AcDb2dVertex
 10
10.0
 20
-226.0
 30
0.0
  0
VERTEX
  5
DF3415280CC4F122
100
AcDbEntity
  8
PORTS
  6
CONTINUOUS
100
AcDbVertex
100
AcDb2dVertex
 10
10.0
 20
-214.0
 30
0.0
  0
VERTEX
  5
DF3415280CC4F123
100
AcDbEntity
  8
PORTS
  6
CONTINUOUS
100
AcDbVertex
100
AcDb2dVertex
 10
82.0
 20
-214.0
 30
0.0
  0
VERTEX
  5
DF3415280CC4F124
100
AcDbEntity
  8
PORTS
  6
CONTINUOUS
100
AcDbVertex
100
AcDb2dVertex
 10
90.0
 20
-220.0
 30
0.0
  0
SEQEND
  5
DF3415280CC4F125
100
AcDbEntity
  8
PORTS
  6
CONTINUOUS
  0
POINT
  5
DF3415280CC4F126
100
AcDbEntity
  8
PORTS
  6
CONTINUOUS
100
AcDbPoint
 10
90.0
 20
-220.0
 30
0.0
  0
LINE
  5
DF3415280CC4F127
100
AcDbEntity
  8
DETAIL_MEDIUM
  6
CONTINUOUS
100
AcDbLine
 10
90.0
 20
-220.0
 30
0.0
 11
190.0
 21
-220.0
 31
0.0
  0
ATTDEF
  5
DF3415280CC56462
100
AcDbEntity
  8
PORTS
  6
CONTINUOUS
100
AcDbText
 10
62.0
 20
-208.0
 30
0.0
 40
10.0
  1
0
 50
0.000019
  7
SIMPLEX
100
AcDbAttributeDefinition
  3

  2
INDEX
 70
     0
  0
ENDBLK
  5
DF3415280CC56467
100
AcDbEntity
  8
DETAIL_MEDIUM
  6
CONTINUOUS
100
AcDbBlockEnd
  0
BLOCK
  5
DF3415280CC56470
100
AcDbEntity
  8
DETAIL_MEDIUM
  6
CONTINUOUS
100
AcDbBlockBegin
  2
PLL_YGR_CLKBAD
 70
     2
 10
540.0
 20
-230.0
 30
0.0
  1

  0
LINE
  5
DF3415280CC50933
100
AcDbEntity
  8
DETAIL_MEDIUM
  6
CONTINUOUS
100
AcDbLine
 10
540.0
 20
-220.0
 30
0.0
 11
640.0
 21
-220.0
 31
0.0
  0
POLYLINE
  5
DF3415280CC50934
100
AcDbEntity
  8
PORTS
  6
CONTINUOUS
100
AcDb2dPolyline
 66
     1
 10
0.0
 20
0.0
 30
0.0
 70
     1
  0
VERTEX
  5
DF3415280CC50935
100
AcDbEntity
  8
PORTS
  6
CONTINUOUS
100
AcDbVertex
100
AcDb2dVertex
 10
720.0
 20
-220.0
 30
0.0
  0
VERTEX
  5
DF3415280CC50936
100
AcDbEntity
  8
PORTS
  6
CONTINUOUS
100
AcDbVertex
100
AcDb2dVertex
 10
712.0
 20
-226.0
 30
0.0
  0
VERTEX
  5
DF3415280CC50937
100
AcDbEntity
  8
PORTS
  6
CONTINUOUS
100
AcDbVertex
100
AcDb2dVertex
 10
640.0
 20
-226.0
 30
0.0
  0
VERTEX
  5
DF3415280CC50938
100
AcDbEntity
  8
PORTS
  6
CONTINUOUS
100
AcDbVertex
100
AcDb2dVertex
 10
640.0
 20
-214.0
 30
0.0
  0
VERTEX
  5
DF3415280CC50939
100
AcDbEntity
  8
PORTS
  6
CONTINUOUS
100
AcDbVertex
100
AcDb2dVertex
 10
712.0
 20
-214.0
 30
0.0
  0
VERTEX
  5
DF3415280CC5093A
100
AcDbEntity
  8
PORTS
  6
CONTINUOUS
100
AcDbVertex
100
AcDb2dVertex
 10
720.0
 20
-220.0
 30
0.0
  0
SEQEND
  5
DF3415280CC5093B
100
AcDbEntity
  8
PORTS
  6
CONTINUOUS
  0
POINT
  5
DF3415280CC5093C
100
AcDbEntity
  8
PORTS
  6
CONTINUOUS
100
AcDbPoint
 10
640.0
 20
-220.0
 30
0.0
  0
ATTDEF
  5
DF3415280CC5093D
100
AcDbEntity
  8
PORTS
  6
CONTINUOUS
100
AcDbText
 10
642.0
 20
-208.0
 30
0.0
 40
10.0
  1

 50
0.000019
  7
SIMPLEX
100
AcDbAttributeDefinition
  3

  2
SIDE
 70
     0
  0
ATTDEF
  5
DF3415280CC56461
100
AcDbEntity
  8
PORTS
  6
CONTINUOUS
100
AcDbText
 10
692.0
 20
-208.0
 30
0.0
 40
10.0
  1
0
 50
0.000019
  7
SIMPLEX
100
AcDbAttributeDefinition
  3

  2
INDEX
 70
     0
  0
ENDBLK
  5
DF3415280CC56472
100
AcDbEntity
  8
DETAIL_MEDIUM
  6
CONTINUOUS
100
AcDbBlockEnd
  0
BLOCK
  5
DF3415280CC5E1D7
100
AcDbEntity
  8
DETAIL_MEDIUM
  6
CONTINUOUS
100
AcDbBlockBegin
  2
PLL_ARM_SCAN_READ
 70
     2
 10
0.0
 20
0.0
 30
0.0
  1

  0
LINE
  5
DF3415280CC5E1C6
100
AcDbEntity
  8
DETAIL_MEDIUM
  6
CONTINUOUS
100
AcDbLine
 10
360.0
 20
-90.0
 30
0.0
 11
360.0
 21
-190.0
 31
0.0
  0
POINT
  5
DF3415280CC5E1C4
100
AcDbEntity
  8
PORTS
  6
CONTINUOUS
100
AcDbPoint
 10
360.0
 20
-90.0
 30
0.0
  0
POLYLINE
  5
DF3415280CC5E1BC
100
AcDbEntity
  8
PORTS
  6
CONTINUOUS
100
AcDb2dPolyline
 66
     1
 10
0.0
 20
0.0
 30
0.0
 70
     1
  0
VERTEX
  5
DF3415280CC5E1BD
100
AcDbEntity
  8
PORTS
  6
CONTINUOUS
100
AcDbVertex
100
AcDb2dVertex
 10
360.0
 20
-90.0
 30
0.0
  0
VERTEX
  5
DF3415280CC5E1BE
100
AcDbEntity
  8
PORTS
  6
CONTINUOUS
100
AcDbVertex
100
AcDb2dVertex
 10
354.0
 20
-82.0
 30
0.0
  0
VERTEX
  5
DF3415280CC5E1BF
100
AcDbEntity
  8
PORTS
  6
CONTINUOUS
100
AcDbVertex
100
AcDb2dVertex
 10
354.0
 20
-10.0
 30
0.0
  0
VERTEX
  5
DF3415280CC5E1C0
100
AcDbEntity
  8
PORTS
  6
CONTINUOUS
100
AcDbVertex
100
AcDb2dVertex
 10
366.0
 20
-10.0
 30
0.0
  0
VERTEX
  5
DF3415280CC5E1C1
100
AcDbEntity
  8
PORTS
  6
CONTINUOUS
100
AcDbVertex
100
AcDb2dVertex
 10
366.0
 20
-82.0
 30
0.0
  0
VERTEX
  5
DF3415280CC5E1C2
100
AcDbEntity
  8
PORTS
  6
CONTINUOUS
100
AcDbVertex
100
AcDb2dVertex
 10
360.0
 20
-90.0
 30
0.0
  0
SEQEND
  5
DF3415280CC5E1C3
100
AcDbEntity
  8
PORTS
  6
CONTINUOUS
  0
ATTDEF
  5
DF3415280CC5E1C5
100
AcDbEntity
  8
PORTS
  6
CONTINUOUS
100
AcDbText
 10
352.0
 20
2.0
 30
0.0
 40
10.0
  1

  7
SIMPLEX
100
AcDbAttributeDefinition
  3

  2
SIDE
 70
     0
  0
ENDBLK
  5
DF3415280CC5E1D9
100
AcDbEntity
  8
DETAIL_MEDIUM
  6
CONTINUOUS
100
AcDbBlockEnd
  0
BLOCK
  5
DF3415280CC5E1DD
100
AcDbEntity
  8
DETAIL_MEDIUM
  6
CONTINUOUS
100
AcDbBlockBegin
  2
PLL_ARM_SCAN_WRITE
 70
     2
 10
0.0
 20
0.0
 30
0.0
  1

  0
POLYLINE
  5
DF3415280CC5E1C7
100
AcDbEntity
  8
PORTS
  6
CONTINUOUS
100
AcDb2dPolyline
 66
     1
 10
0.0
 20
0.0
 30
0.0
 70
     1
  0
VERTEX
  5
DF3415280CC5E1C8
100
AcDbEntity
  8
PORTS
  6
CONTINUOUS
100
AcDbVertex
100
AcDb2dVertex
 10
390.0
 20
-90.0
 30
0.0
  0
VERTEX
  5
DF3415280CC5E1C9
100
AcDbEntity
  8
PORTS
  6
CONTINUOUS
100
AcDbVertex
100
AcDb2dVertex
 10
384.0
 20
-82.0
 30
0.0
  0
VERTEX
  5
DF3415280CC5E1CA
100
AcDbEntity
  8
PORTS
  6
CONTINUOUS
100
AcDbVertex
100
AcDb2dVertex
 10
384.0
 20
-10.0
 30
0.0
  0
VERTEX
  5
DF3415280CC5E1CB
100
AcDbEntity
  8
PORTS
  6
CONTINUOUS
100
AcDbVertex
100
AcDb2dVertex
 10
396.0
 20
-10.0
 30
0.0
  0
VERTEX
  5
DF3415280CC5E1CC
100
AcDbEntity
  8
PORTS
  6
CONTINUOUS
100
AcDbVertex
100
AcDb2dVertex
 10
396.0
 20
-82.0
 30
0.0
  0
VERTEX
  5
DF3415280CC5E1CD
100
AcDbEntity
  8
PORTS
  6
CONTINUOUS
100
AcDbVertex
100
AcDb2dVertex
 10
390.0
 20
-90.0
 30
0.0
  0
SEQEND
  5
DF3415280CC5E1CE
100
AcDbEntity
  8
PORTS
  6
CONTINUOUS
  0
POINT
  5
DF3415280CC5E1CF
100
AcDbEntity
  8
PORTS
  6
CONTINUOUS
100
AcDbPoint
 10
390.0
 20
-90.0
 30
0.0
  0
LINE
  5
DF3415280CC5E1D1
100
AcDbEntity
  8
DETAIL_MEDIUM
  6
CONTINUOUS
100
AcDbLine
 10
390.0
 20
-90.0
 30
0.0
 11
390.0
 21
-190.0
 31
0.0
  0
ATTDEF
  5
DF3415280CC5E1D0
100
AcDbEntity
  8
PORTS
  6
CONTINUOUS
100
AcDbText
 10
382.0
 20
2.0
 30
0.0
 40
10.0
  1

  7
SIMPLEX
100
AcDbAttributeDefinition
  3

  2
SIDE
 70
     0
  0
ENDBLK
  5
DF3415280CC5E1DF
100
AcDbEntity
  8
DETAIL_MEDIUM
  6
CONTINUOUS
100
AcDbBlockEnd
  0
BLOCK
  5
DF3415280CC7D381
100
AcDbEntity
  8
DETAIL_MEDIUM
  6
CONTINUOUS
100
AcDbBlockBegin
  2
PLL_ARM_GATE_LOCKED
 70
     2
 10
0.0
 20
0.0
 30
0.0
  1

  0
ATTDEF
  5
DF3415280CC7D380
100
AcDbEntity
  8
PORTS
  6
CONTINUOUS
100
AcDbText
 10
262.0
 20
-838.0
 30
0.0
 40
10.0
  1

  7
SIMPLEX
100
AcDbAttributeDefinition
  3

  2
SIDE
 70
     0
  0
POLYLINE
  5
DF3415280CC7D377
100
AcDbEntity
  8
PORTS
  6
CONTINUOUS
100
AcDb2dPolyline
 66
     1
 10
0.0
 20
0.0
 30
0.0
 70
     1
  0
VERTEX
  5
DF3415280CC7D378
100
AcDbEntity
  8
PORTS
  6
CONTINUOUS
100
AcDbVertex
100
AcDb2dVertex
 10
270.0
 20
-810.0
 30
0.0
  0
VERTEX
  5
DF3415280CC7D379
100
AcDbEntity
  8
PORTS
  6
CONTINUOUS
100
AcDbVertex
100
AcDb2dVertex
 10
264.0
 20
-802.0
 30
0.0
  0
VERTEX
  5
DF3415280CC7D37A
100
AcDbEntity
  8
PORTS
  6
CONTINUOUS
100
AcDbVertex
100
AcDb2dVertex
 10
264.0
 20
-730.0
 30
0.0
  0
VERTEX
  5
DF3415280CC7D37B
100
AcDbEntity
  8
PORTS
  6
CONTINUOUS
100
AcDbVertex
100
AcDb2dVertex
 10
276.0
 20
-730.0
 30
0.0
  0
VERTEX
  5
DF3415280CC7D37C
100
AcDbEntity
  8
PORTS
  6
CONTINUOUS
100
AcDbVertex
100
AcDb2dVertex
 10
276.0
 20
-802.0
 30
0.0
  0
VERTEX
  5
DF3415280CC7D37D
100
AcDbEntity
  8
PORTS
  6
CONTINUOUS
100
AcDbVertex
100
AcDb2dVertex
 10
270.0
 20
-810.0
 30
0.0
  0
SEQEND
  5
DF3415280CC7D37E
100
AcDbEntity
  8
PORTS
  6
CONTINUOUS
  0
POINT
  5
DF3415280CC7D37F
100
AcDbEntity
  8
PORTS
  6
CONTINUOUS
100
AcDbPoint
 10
270.0
 20
-730.0
 30
0.0
  0
LINE
  5
DF3415280CC7D376
100
AcDbEntity
  8
DETAIL_MEDIUM
  6
CONTINUOUS
100
AcDbLine
 10
270.0
 20
-630.0
 30
0.0
 11
270.0
 21
-730.0
 31
0.0
  0
ENDBLK
  5
DF3415280CC7D383
100
AcDbEntity
  8
DETAIL_MEDIUM
  6
CONTINUOUS
100
AcDbBlockEnd
  0
BLOCK
  5
DF3415280CC7D392
100
AcDbEntity
  8
DETAIL_MEDIUM
  6
CONTINUOUS
100
AcDbBlockBegin
  2
PLL_ARM_SCAN_DONE
 70
     2
 10
0.0
 20
0.0
 30
0.0
  1

  0
ATTDEF
  5
DF3415280CC7D391
100
AcDbEntity
  8
PORTS
  6
CONTINUOUS
100
AcDbText
 10
382.0
 20
-838.0
 30
0.0
 40
10.0
  1

  7
SIMPLEX
100
AcDbAttributeDefinition
  3

  2
SIDE
 70
     0
  0
POLYLINE
  5
DF3415280CC7D389
100
AcDbEntity
  8
PORTS
  6
CONTINUOUS
100
AcDb2dPolyline
 66
     1
 10
0.0
 20
0.0
 30
0.0
 70
     1
  0
VERTEX
  5
DF3415280CC7D38A
100
AcDbEntity
  8
PORTS
  6
CONTINUOUS
100
AcDbVertex
100
AcDb2dVertex
 10
390.0
 20
-810.0
 30
0.0
  0
VERTEX
  5
DF3415280CC7D38B
100
AcDbEntity
  8
PORTS
  6
CONTINUOUS
100
AcDbVertex
100
AcDb2dVertex
 10
384.0
 20
-802.0
 30
0.0
  0
VERTEX
  5
DF3415280CC7D38C
100
AcDbEntity
  8
PORTS
  6
CONTINUOUS
100
AcDbVertex
100
AcDb2dVertex
 10
384.0
 20
-730.0
 30
0.0
  0
VERTEX
  5
DF3415280CC7D38D
100
AcDbEntity
  8
PORTS
  6
CONTINUOUS
100
AcDbVertex
100
AcDb2dVertex
 10
396.0
 20
-730.0
 30
0.0
  0
VERTEX
  5
DF3415280CC7D38E
100
AcDbEntity
  8
PORTS
  6
CONTINUOUS
100
AcDbVertex
100
AcDb2dVertex
 10
396.0
 20
-802.0
 30
0.0
  0
VERTEX
  5
DF3415280CC7D38F
100
AcDbEntity
  8
PORTS
  6
CONTINUOUS
100
AcDbVertex
100
AcDb2dVertex
 10
390.0
 20
-810.0
 30
0.0
  0
SEQEND
  5
DF3415280CC7D390
100
AcDbEntity
  8
PORTS
  6
CONTINUOUS
  0
POINT
  5
DF3415280CC7D388
100
AcDbEntity
  8
PORTS
  6
CONTINUOUS
100
AcDbPoint
 10
390.0
 20
-730.0
 30
0.0
  0
LINE
  5
DF3415280CC7D387
100
AcDbEntity
  8
DETAIL_MEDIUM
  6
CONTINUOUS
100
AcDbLine
 10
390.0
 20
-630.0
 30
0.0
 11
390.0
 21
-730.0
 31
0.0
  0
ENDBLK
  5
DF3415280CC7D394
100
AcDbEntity
  8
DETAIL_MEDIUM
  6
CONTINUOUS
100
AcDbBlockEnd
  0
BLOCK
  5
DF3415280CC7D3A3
100
AcDbEntity
  8
DETAIL_MEDIUM
  6
CONTINUOUS
100
AcDbBlockBegin
  2
PLL_ARM_TEST_UP_OUT
 70
     2
 10
0.0
 20
0.0
 30
0.0
  1

  0
LINE
  5
DF3415280CC7D3A1
100
AcDbEntity
  8
DETAIL_MEDIUM
  6
CONTINUOUS
100
AcDbLine
 10
460.0
 20
-660.0
 30
0.0
 11
460.0
 21
-760.0
 31
0.0
  0
POINT
  5
DF3415280CC7D3A0
100
AcDbEntity
  8
PORTS
  6
CONTINUOUS
100
AcDbPoint
 10
460.0
 20
-760.0
 30
0.0
  0
POLYLINE
  5
DF3415280CC7D398
100
AcDbEntity
  8
PORTS
  6
CONTINUOUS
100
AcDb2dPolyline
 66
     1
 10
0.0
 20
0.0
 30
0.0
 70
     1
  0
VERTEX
  5
DF3415280CC7D399
100
AcDbEntity
  8
PORTS
  6
CONTINUOUS
100
AcDbVertex
100
AcDb2dVertex
 10
460.0
 20
-840.0
 30
0.0
  0
VERTEX
  5
DF3415280CC7D39A
100
AcDbEntity
  8
PORTS
  6
CONTINUOUS
100
AcDbVertex
100
AcDb2dVertex
 10
454.0
 20
-832.0
 30
0.0
  0
VERTEX
  5
DF3415280CC7D39B
100
AcDbEntity
  8
PORTS
  6
CONTINUOUS
100
AcDbVertex
100
AcDb2dVertex
 10
454.0
 20
-760.0
 30
0.0
  0
VERTEX
  5
DF3415280CC7D39C
100
AcDbEntity
  8
PORTS
  6
CONTINUOUS
100
AcDbVertex
100
AcDb2dVertex
 10
466.0
 20
-760.0
 30
0.0
  0
VERTEX
  5
DF3415280CC7D39D
100
AcDbEntity
  8
PORTS
  6
CONTINUOUS
100
AcDbVertex
100
AcDb2dVertex
 10
466.0
 20
-832.0
 30
0.0
  0
VERTEX
  5
DF3415280CC7D39E
100
AcDbEntity
  8
PORTS
  6
CONTINUOUS
100
AcDbVertex
100
AcDb2dVertex
 10
460.0
 20
-840.0
 30
0.0
  0
SEQEND
  5
DF3415280CC7D39F
100
AcDbEntity
  8
PORTS
  6
CONTINUOUS
  0
ATTDEF
  5
DF3415280CC7D3A2
100
AcDbEntity
  8
PORTS
  6
CONTINUOUS
100
AcDbText
 10
452.0
 20
-868.0
 30
0.0
 40
10.0
  1

  7
SIMPLEX
100
AcDbAttributeDefinition
  3

  2
SIDE
 70
     0
  0
ENDBLK
  5
DF3415280CC7D3A5
100
AcDbEntity
  8
DETAIL_MEDIUM
  6
CONTINUOUS
100
AcDbBlockEnd
  0
BLOCK
  5
DF3415280CC7D3B9
100
AcDbEntity
  8
DETAIL_MEDIUM
  6
CONTINUOUS
100
AcDbBlockBegin
  2
PLL_ARM_TEST_DOWN_OUT
 70
     2
 10
0.0
 20
0.0
 30
0.0
  1

  0
LINE
  5
DF3415280CC7D3A9
100
AcDbEntity
  8
DETAIL_MEDIUM
  6
CONTINUOUS
100
AcDbLine
 10
560.0
 20
-650.0
 30
0.0
 11
560.0
 21
-750.0
 31
0.0
  0
POINT
  5
DF3415280CC7D3AA
100
AcDbEntity
  8
PORTS
  6
CONTINUOUS
100
AcDbPoint
 10
560.0
 20
-750.0
 30
0.0
  0
POLYLINE
  5
DF3415280CC7D3AB
100
AcDbEntity
  8
PORTS
  6
CONTINUOUS
100
AcDb2dPolyline
 66
     1
 10
0.0
 20
0.0
 30
0.0
 70
     1
  0
VERTEX
  5
DF3415280CC7D3AC
100
AcDbEntity
  8
PORTS
  6
CONTINUOUS
100
AcDbVertex
100
AcDb2dVertex
 10
560.0
 20
-830.0
 30
0.0
  0
VERTEX
  5
DF3415280CC7D3AD
100
AcDbEntity
  8
PORTS
  6
CONTINUOUS
100
AcDbVertex
100
AcDb2dVertex
 10
554.0
 20
-822.0
 30
0.0
  0
VERTEX
  5
DF3415280CC7D3AE
100
AcDbEntity
  8
PORTS
  6
CONTINUOUS
100
AcDbVertex
100
AcDb2dVertex
 10
554.0
 20
-750.0
 30
0.0
  0
VERTEX
  5
DF3415280CC7D3AF
100
AcDbEntity
  8
PORTS
  6
CONTINUOUS
100
AcDbVertex
100
AcDb2dVertex
 10
566.0
 20
-750.0
 30
0.0
  0
VERTEX
  5
DF3415280CC7D3B0
100
AcDbEntity
  8
PORTS
  6
CONTINUOUS
100
AcDbVertex
100
AcDb2dVertex
 10
566.0
 20
-822.0
 30
0.0
  0
VERTEX
  5
DF3415280CC7D3B1
100
AcDbEntity
  8
PORTS
  6
CONTINUOUS
100
AcDbVertex
100
AcDb2dVertex
 10
560.0
 20
-830.0
 30
0.0
  0
SEQEND
  5
DF3415280CC7D3B2
100
AcDbEntity
  8
PORTS
  6
CONTINUOUS
  0
ATTDEF
  5
DF3415280CC7D3B3
100
AcDbEntity
  8
PORTS
  6
CONTINUOUS
100
AcDbText
 10
552.0
 20
-858.0
 30
0.0
 40
10.0
  1

  7
SIMPLEX
100
AcDbAttributeDefinition
  3

  2
SIDE
 70
     0
  0
ENDBLK
  5
DF3415280CC7D3BB
100
AcDbEntity
  8
DETAIL_MEDIUM
  6
CONTINUOUS
100
AcDbBlockEnd
  0
BLOCK
  5
DF3415280CCABCCB
100
AcDbEntity
  8
DETAIL_MEDIUM
  6
CONTINUOUS
100
AcDbBlockBegin
  2
PLL_ARM_SCLKOUT
 70
     2
 10
0.0
 20
0.0
 30
0.0
  1

  0
LINE
  5
DF3415280CCABCC8
100
AcDbEntity
  8
DETAIL_MEDIUM
  6
CONTINUOUS
100
AcDbLine
 10
540.0
 20
-510.0
 30
0.0
 11
640.0
 21
-510.0
 31
0.0
  0
POINT
  5
DF3415280CCABCC7
100
AcDbEntity
  8
PORTS
  6
CONTINUOUS
100
AcDbPoint
 10
640.0
 20
-510.0
 30
0.0
  0
POLYLINE
  5
DF3415280CCABCBF
100
AcDbEntity
  8
PORTS
  6
CONTINUOUS
100
AcDb2dPolyline
 66
     1
 10
0.0
 20
0.0
 30
0.0
 70
     1
  0
VERTEX
  5
DF3415280CCABCC0
100
AcDbEntity
  8
PORTS
  6
CONTINUOUS
100
AcDbVertex
100
AcDb2dVertex
 10
720.0
 20
-510.0
 30
0.0
  0
VERTEX
  5
DF3415280CCABCC1
100
AcDbEntity
  8
PORTS
  6
CONTINUOUS
100
AcDbVertex
100
AcDb2dVertex
 10
712.0
 20
-516.0
 30
0.0
  0
VERTEX
  5
DF3415280CCABCC2
100
AcDbEntity
  8
PORTS
  6
CONTINUOUS
100
AcDbVertex
100
AcDb2dVertex
 10
640.0
 20
-516.0
 30
0.0
  0
VERTEX
  5
DF3415280CCABCC3
100
AcDbEntity
  8
PORTS
  6
CONTINUOUS
100
AcDbVertex
100
AcDb2dVertex
 10
640.0
 20
-504.0
 30
0.0
  0
VERTEX
  5
DF3415280CCABCC4
100
AcDbEntity
  8
PORTS
  6
CONTINUOUS
100
AcDbVertex
100
AcDb2dVertex
 10
712.0
 20
-504.0
 30
0.0
  0
VERTEX
  5
DF3415280CCABCC5
100
AcDbEntity
  8
PORTS
  6
CONTINUOUS
100
AcDbVertex
100
AcDb2dVertex
 10
720.0
 20
-510.0
 30
0.0
  0
SEQEND
  5
DF3415280CCABCC6
100
AcDbEntity
  8
PORTS
  6
CONTINUOUS
  0
ATTDEF
  5
DF3415280CCABCC9
100
AcDbEntity
  8
PORTS
  6
CONTINUOUS
100
AcDbText
 10
642.0
 20
-498.0
 30
0.0
 40
10.0
  1

 50
0.000019
  7
SIMPLEX
100
AcDbAttributeDefinition
  3

  2
SIDE
 70
     0
  0
ATTDEF
  5
DF3415280CCABCCA
100
AcDbEntity
  8
PORTS
  6
CONTINUOUS
100
AcDbText
 10
692.0
 20
-498.0
 30
0.0
 40
10.0
  1
0
 50
0.000019
  7
SIMPLEX
100
AcDbAttributeDefinition
  3

  2
INDEX
 70
     0
  0
ENDBLK
  5
DF3415280CCABCCD
100
AcDbEntity
  8
DETAIL_MEDIUM
  6
CONTINUOUS
100
AcDbBlockEnd
  0
BLOCK
  5
DF3415280CCF1CE8
100
AcDbEntity
  8
DETAIL_MEDIUM
  6
CONTINUOUS
100
AcDbBlockBegin
  2
PLL_ARM
 70
     0
 10
0.0
 20
0.0
 30
0.0
  1

  0
INSERT
  5
DF3415280CCF1C6C
100
AcDbEntity
  8
DETAIL_MEDIUM
  6
CONTINUOUS
100
AcDbBlockReference
 66
     1
  2
PLL_YGR_PLL_ENA
 10
210.0
 20
-190.0
 30
0.0
  0
ATTRIB
  5
DF3415280CCF1C6D
100
AcDbEntity
  8
PORTS
  6
CONTINUOUS
100
AcDbText
 10
212.0
 20
2.0
 30
0.0
 40
10.0
  1
TOP
  7
SIMPLEX
100
AcDbAttribute
  2
SIDE
 70
     0
  0
SEQEND
  5
DF3415280CCF1C6E
100
AcDbEntity
  8
DETAIL_MEDIUM
  6
CONTINUOUS
  0
INSERT
  5
DF3415280CCF1C6F
100
AcDbEntity
  8
DETAIL_MEDIUM
  6
CONTINUOUS
100
AcDbBlockReference
 66
     1
  2
PLL_YGR_ARESET
 10
240.0
 20
-190.0
 30
0.0
  0
ATTRIB
  5
DF3415280CCF1C70
100
AcDbEntity
  8
PORTS
  6
CONTINUOUS
100
AcDbText
 10
242.0
 20
2.0
 30
0.0
 40
10.0
  1
TOP
  7
SIMPLEX
100
AcDbAttribute
  2
SIDE
 70
     0
  0
SEQEND
  5
DF3415280CCF1C71
100
AcDbEntity
  8
DETAIL_MEDIUM
  6
CONTINUOUS
  0
INSERT
  5
DF3415280CCF1C72
100
AcDbEntity
  8
DETAIL_MEDIUM
  6
CONTINUOUS
100
AcDbBlockReference
 66
     1
  2
PLL_YGR_PFDENA
 10
270.0
 20
-190.0
 30
0.0
  0
ATTRIB
  5
DF3415280CCF1C73
100
AcDbEntity
  8
PORTS
  6
CONTINUOUS
100
AcDbText
 10
272.0
 20
2.0
 30
0.0
 40
10.0
  1
TOP
  7
SIMPLEX
100
AcDbAttribute
  2
SIDE
 70
     0
  0
SEQEND
  5
DF3415280CCF1C74
100
AcDbEntity
  8
DETAIL_MEDIUM
  6
CONTINUOUS
  0
INSERT
  5
DF3415280CCF1C75
100
AcDbEntity
  8
DETAIL_MEDIUM
  6
CONTINUOUS
100
AcDbBlockReference
 66
     1
  2
PLL_YGR_SCANDATA
 10
410.0
 20
-190.0
 30
0.0
  0
ATTRIB
  5
DF3415280CCF1C76
100
AcDbEntity
  8
PORTS
  6
CONTINUOUS
100
AcDbText
 10
412.0
 20
2.0
 30
0.0
 40
10.0
  1
TOP
  7
SIMPLEX
100
AcDbAttribute
  2
SIDE
 70
     0
  0
SEQEND
  5
DF3415280CCF1C77
100
AcDbEntity
  8
DETAIL_MEDIUM
  6
CONTINUOUS
  0
INSERT
  5
DF3415280CCF1C78
100
AcDbEntity
  8
DETAIL_MEDIUM
  6
CONTINUOUS
100
AcDbBlockReference
 66
     1
  2
PLL_YGR_CLKSWITCH
 10
470.0
 20
-190.0
 30
0.0
  0
ATTRIB
  5
DF3415280CCF1C79
100
AcDbEntity
  8
PORTS
  6
CONTINUOUS
100
AcDbText
 10
472.0
 20
2.0
 30
0.0
 40
10.0
  1
TOP
  7
SIMPLEX
100
AcDbAttribute
  2
SIDE
 70
     0
  0
SEQEND
  5
DF3415280CCF1C7A
100
AcDbEntity
  8
DETAIL_MEDIUM
  6
CONTINUOUS
  0
INSERT
  5
DF3415280CCF1C7B
100
AcDbEntity
  8
DETAIL_MEDIUM
  6
CONTINUOUS
100
AcDbBlockReference
 66
     1
  2
PLL_YGR_FBIN
 10
500.0
 20
-190.0
 30
0.0
  0
ATTRIB
  5
DF3415280CCF1C7C
100
AcDbEntity
  8
PORTS
  6
CONTINUOUS
100
AcDbText
 10
502.0
 20
2.0
 30
0.0
 40
10.0
  1
TOP
  7
SIMPLEX
100
AcDbAttribute
  2
SIDE
 70
     0
  0
SEQEND
  5
DF3415280CCF1C7D
100
AcDbEntity
  8
DETAIL_MEDIUM
  6
CONTINUOUS
  0
INSERT
  5
DF3415280CCF1C7E
100
AcDbEntity
  8
DETAIL_MEDIUM
  6
CONTINUOUS
100
AcDbBlockReference
 66
     1
  2
PLL_YGR_C
 10
540.0
 20
-340.0
 30
0.0
  0
ATTRIB
  5
DF3415280CCF1C7F
100
AcDbEntity
  8
PORTS
  6
CONTINUOUS
100
AcDbText
 10
642.0
 20
-318.0
 30
0.0
 40
10.0
  1
RIGHT
 50
0.000019
  7
SIMPLEX
100
AcDbAttribute
  2
SIDE
 70
     0
  0
ATTRIB
  5
DF3415280CCF1C80
100
AcDbEntity
  8
PORTS
  6
CONTINUOUS
100
AcDbText
 10
692.0
 20
-318.0
 30
0.0
 40
10.0
  1
1
 50
0.000019
  7
SIMPLEX
100
AcDbAttribute
  2
INDEX
 70
     0
  0
SEQEND
  5
DF3415280CCF1C81
100
AcDbEntity
  8
DETAIL_MEDIUM
  6
CONTINUOUS
  0
INSERT
  5
DF3415280CCF1C82
100
AcDbEntity
  8
DETAIL_MEDIUM
  6
CONTINUOUS
100
AcDbBlockReference
 66
     1
  2
PLL_YGR_C
 10
540.0
 20
-370.0
 30
0.0
  0
ATTRIB
  5
DF3415280CCF1C83
100
AcDbEntity
  8
PORTS
  6
CONTINUOUS
100
AcDbText
 10
642.0
 20
-348.0
 30
0.0
 40
10.0
  1
RIGHT
 50
0.000019
  7
SIMPLEX
100
AcDbAttribute
  2
SIDE
 70
     0
  0
ATTRIB
  5
DF3415280CCF1C84
100
AcDbEntity
  8
PORTS
  6
CONTINUOUS
100
AcDbText
 10
692.0
 20
-348.0
 30
0.0
 40
10.0
  1
2
 50
0.000019
  7
SIMPLEX
100
AcDbAttribute
  2
INDEX
 70
     0
  0
SEQEND
  5
DF3415280CCF1C85
100
AcDbEntity
  8
DETAIL_MEDIUM
  6
CONTINUOUS
  0
INSERT
  5
DF3415280CCF1C86
100
AcDbEntity
  8
DETAIL_MEDIUM
  6
CONTINUOUS
100
AcDbBlockReference
 66
     1
  2
PLL_YGR_C
 10
540.0
 20
-400.0
 30
0.0
  0
ATTRIB
  5
DF3415280CCF1C87
100
AcDbEntity
  8
PORTS
  6
CONTINUOUS
100
AcDbText
 10
642.0
 20
-378.0
 30
0.0
 40
10.0
  1
RIGHT
 50
0.000019
  7
SIMPLEX
100
AcDbAttribute
  2
SIDE
 70
     0
  0
ATTRIB
  5
DF3415280CCF1C88
100
AcDbEntity
  8
PORTS
  6
CONTINUOUS
100
AcDbText
 10
692.0
 20
-378.0
 30
0.0
 40
10.0
  1
3
 50
0.000019
  7
SIMPLEX
100
AcDbAttribute
  2
INDEX
 70
     0
  0
SEQEND
  5
DF3415280CCF1C89
100
AcDbEntity
  8
DETAIL_MEDIUM
  6
CONTINUOUS
  0
INSERT
  5
DF3415280CCF1C8A
100
AcDbEntity
  8
DETAIL_MEDIUM
  6
CONTINUOUS
100
AcDbBlockReference
 66
     1
  2
PLL_YGR_C
 10
540.0
 20
-430.0
 30
0.0
  0
ATTRIB
  5
DF3415280CCF1C8B
100
AcDbEntity
  8
PORTS
  6
CONTINUOUS
100
AcDbText
 10
642.0
 20
-408.0
 30
0.0
 40
10.0
  1
RIGHT
 50
0.000019
  7
SIMPLEX
100
AcDbAttribute
  2
SIDE
 70
     0
  0
ATTRIB
  5
DF3415280CCF1C8C
100
AcDbEntity
  8
PORTS
  6
CONTINUOUS
100
AcDbText
 10
692.0
 20
-408.0
 30
0.0
 40
10.0
  1
4
 50
0.000019
  7
SIMPLEX
100
AcDbAttribute
  2
INDEX
 70
     0
  0
SEQEND
  5
DF3415280CCF1C8D
100
AcDbEntity
  8
DETAIL_MEDIUM
  6
CONTINUOUS
  0
INSERT
  5
DF3415280CCF1C8E
100
AcDbEntity
  8
DETAIL_MEDIUM
  6
CONTINUOUS
100
AcDbBlockReference
 66
     1
  2
PLL_YGR_C
 10
540.0
 20
-460.0
 30
0.0
  0
ATTRIB
  5
DF3415280CCF1C8F
100
AcDbEntity
  8
PORTS
  6
CONTINUOUS
100
AcDbText
 10
642.0
 20
-438.0
 30
0.0
 40
10.0
  1
RIGHT
 50
0.000019
  7
SIMPLEX
100
AcDbAttribute
  2
SIDE
 70
     0
  0
ATTRIB
  5
DF3415280CCF1C90
100
AcDbEntity
  8
PORTS
  6
CONTINUOUS
100
AcDbText
 10
692.0
 20
-438.0
 30
0.0
 40
10.0
  1
5
 50
0.000019
  7
SIMPLEX
100
AcDbAttribute
  2
INDEX
 70
     0
  0
SEQEND
  5
DF3415280CCF1C91
100
AcDbEntity
  8
DETAIL_MEDIUM
  6
CONTINUOUS
  0
INSERT
  5
DF3415280CCF1C92
100
AcDbEntity
  8
DETAIL_MEDIUM
  6
CONTINUOUS
100
AcDbBlockReference
 66
     1
  2
PLL_YGR_SCANDATAOUT
 10
210.0
 20
-810.0
 30
0.0
  0
ATTRIB
  5
DF3415280CCF1C93
100
AcDbEntity
  8
PORTS
  6
CONTINUOUS
100
AcDbText
 10
212.0
 20
-838.0
 30
0.0
 40
10.0
  1
BOTTOM
  7
SIMPLEX
100
AcDbAttribute
  2
SIDE
 70
     0
  0
SEQEND
  5
DF3415280CCF1C94
100
AcDbEntity
  8
DETAIL_MEDIUM
  6
CONTINUOUS
  0
INSERT
  5
DF3415280CCF1C95
100
AcDbEntity
  8
DETAIL_MEDIUM
  6
CONTINUOUS
100
AcDbBlockReference
 66
     1
  2
PLL_YGR_ACTIVECLOCK
 10
350.0
 20
-810.0
 30
0.0
  0
ATTRIB
  5
DF3415280CCF1C96
100
AcDbEntity
  8
PORTS
  6
CONTINUOUS
100
AcDbText
 10
352.0
 20
-838.0
 30
0.0
 40
10.0
  1
BOTTOM
  7
SIMPLEX
100
AcDbAttribute
  2
SIDE
 70
     0
  0
SEQEND
  5
DF3415280CCF1C97
100
AcDbEntity
  8
DETAIL_MEDIUM
  6
CONTINUOUS
  0
POLYLINE
  5
DF3415280CCF1C98
100
AcDbEntity
  8
DETAIL_MEDIUM
  6
CONTINUOUS
100
AcDb2dPolyline
 66
     1
 10
0.0
 20
0.0
 30
0.0
 70
     1
  0
VERTEX
  5
DF3415280CCF1C99
100
AcDbEntity
  8
DETAIL_MEDIUM
  6
CONTINUOUS
100
AcDbVertex
100
AcDb2dVertex
 10
540.0
 20
-630.0
 30
0.0
  0
VERTEX
  5
DF3415280CCF1C9A
100
AcDbEntity
  8
DETAIL_MEDIUM
  6
CONTINUOUS
100
AcDbVertex
100
AcDb2dVertex
 10
190.0
 20
-630.0
 30
0.0
  0
VERTEX
  5
DF3415280CCF1C9B
100
AcDbEntity
  8
DETAIL_MEDIUM
  6
CONTINUOUS
100
AcDbVertex
100
AcDb2dVertex
 10
190.0
 20
-190.0
 30
0.0
  0
VERTEX
  5
DF3415280CCF1C9C
100
AcDbEntity
  8
DETAIL_MEDIUM
  6
CONTINUOUS
100
AcDbVertex
100
AcDb2dVertex
 10
540.0
 20
-190.0
 30
0.0
  0
SEQEND
  5
DF3415280CCF1C9D
100
AcDbEntity
  8
DETAIL_MEDIUM
  6
CONTINUOUS
  0
INSERT
  5
DF3415280CCF1C9E
100
AcDbEntity
  8
DETAIL_MEDIUM
  6
CONTINUOUS
100
AcDbBlockReference
 66
     1
  2
PLL_YGR_ENABLE_OUT0
 10
460.0
 20
-810.0
 30
0.0
  0
ATTRIB
  5
DF3415280CCF1C9F
100
AcDbEntity
  8
PORTS
  6
CONTINUOUS
100
AcDbText
 10
462.0
 20
-838.0
 30
0.0
 40
10.0
  1
BOTTOM
  7
SIMPLEX
100
AcDbAttribute
  2
SIDE
 70
     0
  0
SEQEND
  5
DF3415280CCF1CA0
100
AcDbEntity
  8
DETAIL_MEDIUM
  6
CONTINUOUS
  0
INSERT
  5
DF3415280CCF1CA1
100
AcDbEntity
  8
DETAIL_MEDIUM
  6
CONTINUOUS
100
AcDbBlockReference
 66
     1
  2
PLL_YGR_ENABLE_OUT1
 10
500.0
 20
-810.0
 30
0.0
  0
ATTRIB
  5
DF3415280CCF1CA2
100
AcDbEntity
  8
PORTS
  6
CONTINUOUS
100
AcDbText
 10
502.0
 20
-838.0
 30
0.0
 40
10.0
  1
BOTTOM
  7
SIMPLEX
100
AcDbAttribute
  2
SIDE
 70
     0
  0
SEQEND
  5
DF3415280CCF1CA3
100
AcDbEntity
  8
DETAIL_MEDIUM
  6
CONTINUOUS
  0
INSERT
  5
DF3415280CCF1CA4
100
AcDbEntity
  8
DETAIL_MEDIUM
  6
CONTINUOUS
100
AcDbBlockReference
 66
     1
  2
PLL_YGR_INCLK
 10
10.0
 20
-310.0
 30
0.0
  0
ATTRIB
  5
DF3415280CCF1CA5
100
AcDbEntity
  8
PORTS
  6
CONTINUOUS
100
AcDbText
 10
12.0
 20
-288.0
 30
0.0
 40
10.0
  1
LEFT
  7
SIMPLEX
100
AcDbAttribute
  2
SIDE
 70
     0
  0
ATTRIB
  5
DF3415280CCF1CA6
100
AcDbEntity
  8
PORTS
  6
CONTINUOUS
100
AcDbText
 10
62.0
 20
-288.0
 30
0.0
 40
10.0
  1
0
 50
0.000019
  7
SIMPLEX
100
AcDbAttribute
  2
INDEX
 70
     0
  0
SEQEND
  5
DF3415280CCF1CA7
100
AcDbEntity
  8
DETAIL_MEDIUM
  6
CONTINUOUS
  0
INSERT
  5
DF3415280CCF1CA8
100
AcDbEntity
  8
DETAIL_MEDIUM
  6
CONTINUOUS
100
AcDbBlockReference
 66
     1
  2
PLL_YGR_CLKBAD
 10
540.0
 20
-230.0
 30
0.0
  0
ATTRIB
  5
DF3415280CCF1CA9
100
AcDbEntity
  8
PORTS
  6
CONTINUOUS
100
AcDbText
 10
642.0
 20
-208.0
 30
0.0
 40
10.0
  1
RIGHT
 50
0.000019
  7
SIMPLEX
100
AcDbAttribute
  2
SIDE
 70
     0
  0
ATTRIB
  5
DF3415280CCF1CAA
100
AcDbEntity
  8
PORTS
  6
CONTINUOUS
100
AcDbText
 10
692.0
 20
-208.0
 30
0.0
 40
10.0
  1
0
 50
0.000019
  7
SIMPLEX
100
AcDbAttribute
  2
INDEX
 70
     0
  0
SEQEND
  5
DF3415280CCF1CAB
100
AcDbEntity
  8
DETAIL_MEDIUM
  6
CONTINUOUS
  0
INSERT
  5
DF3415280CCF1CAC
100
AcDbEntity
  8
DETAIL_MEDIUM
  6
CONTINUOUS
100
AcDbBlockReference
 66
     1
  2
PLL_YGR_CLKBAD
 10
540.0
 20
-260.0
 30
0.0
  0
ATTRIB
  5
DF3415280CCF1CAD
100
AcDbEntity
  8
PORTS
  6
CONTINUOUS
100
AcDbText
 10
642.0
 20
-238.0
 30
0.0
 40
10.0
  1
RIGHT
 50
0.000019
  7
SIMPLEX
100
AcDbAttribute
  2
SIDE
 70
     0
  0
ATTRIB
  5
DF3415280CCF1CAE
100
AcDbEntity
  8
PORTS
  6
CONTINUOUS
100
AcDbText
 10
692.0
 20
-238.0
 30
0.0
 40
10.0
  1
1
 50
0.000019
  7
SIMPLEX
100
AcDbAttribute
  2
INDEX
 70
     0
  0
SEQEND
  5
DF3415280CCF1CAF
100
AcDbEntity
  8
DETAIL_MEDIUM
  6
CONTINUOUS
  0
INSERT
  5
DF3415280CCF1CB0
100
AcDbEntity
  8
DETAIL_MEDIUM
  6
CONTINUOUS
100
AcDbBlockReference
 66
     1
  2
PLL_YGR_C
 10
540.0
 20
-310.0
 30
0.0
  0
ATTRIB
  5
DF3415280CCF1CB1
100
AcDbEntity
  8
PORTS
  6
CONTINUOUS
100
AcDbText
 10
642.0
 20
-288.0
 30
0.0
 40
10.0
  1
RIGHT
 50
0.000019
  7
SIMPLEX
100
AcDbAttribute
  2
SIDE
 70
     0
  0
ATTRIB
  5
DF3415280CCF1CB2
100
AcDbEntity
  8
PORTS
  6
CONTINUOUS
100
AcDbText
 10
692.0
 20
-288.0
 30
0.0
 40
10.0
  1
0
 50
0.000019
  7
SIMPLEX
100
AcDbAttribute
  2
INDEX
 70
     0
  0
SEQEND
  5
DF3415280CCF1CB3
100
AcDbEntity
  8
DETAIL_MEDIUM
  6
CONTINUOUS
  0
INSERT
  5
DF3415280CCF1CB4
100
AcDbEntity
  8
DETAIL_MEDIUM
  6
CONTINUOUS
100
AcDbBlockReference
 66
     1
  2
PLL_YGR_SCANCLK
 10
0.0
 20
0.0
 30
0.0
  0
ATTRIB
  5
DF3415280CCF1CB5
100
AcDbEntity
  8
PORTS
  6
CONTINUOUS
100
AcDbText
 10
322.0
 20
2.0
 30
0.0
 40
10.0
  1
TOP
  7
SIMPLEX
100
AcDbAttribute
  2
SIDE
 70
     0
  0
SEQEND
  5
DF3415280CCF1CB6
100
AcDbEntity
  8
DETAIL_MEDIUM
  6
CONTINUOUS
  0
INSERT
  5
DF3415280CCF1CB7
100
AcDbEntity
  8
DETAIL_MEDIUM
  6
CONTINUOUS
100
AcDbBlockReference
 66
     1
  2
PLL_ARM_SCAN_READ
 10
0.0
 20
0.0
 30
0.0
  0
ATTRIB
  5
DF3415280CCF1CB8
100
AcDbEntity
  8
PORTS
  6
CONTINUOUS
100
AcDbText
 10
352.0
 20
2.0
 30
0.0
 40
10.0
  1
TOP
  7
SIMPLEX
100
AcDbAttribute
  2
SIDE
 70
     0
  0
SEQEND
  5
DF3415280CCF1CB9
100
AcDbEntity
  8
DETAIL_MEDIUM
  6
CONTINUOUS
  0
INSERT
  5
DF3415280CCF1CBA
100
AcDbEntity
  8
DETAIL_MEDIUM
  6
CONTINUOUS
100
AcDbBlockReference
 66
     1
  2
PLL_ARM_SCAN_WRITE
 10
0.0
 20
0.0
 30
0.0
  0
ATTRIB
  5
DF3415280CCF1CBB
100
AcDbEntity
  8
PORTS
  6
CONTINUOUS
100
AcDbText
 10
382.0
 20
2.0
 30
0.0
 40
10.0
  1
TOP
  7
SIMPLEX
100
AcDbAttribute
  2
SIDE
 70
     0
  0
SEQEND
  5
DF3415280CCF1CBC
100
AcDbEntity
  8
DETAIL_MEDIUM
  6
CONTINUOUS
  0
INSERT
  5
DF3415280CCF1CBD
100
AcDbEntity
  8
DETAIL_MEDIUM
  6
CONTINUOUS
100
AcDbBlockReference
 66
     1
  2
PLL_YGR_INCLK
 10
10.0
 20
-340.0
 30
0.0
  0
ATTRIB
  5
DF3415280CCF1CBE
100
AcDbEntity
  8
PORTS
  6
CONTINUOUS
100
AcDbText
 10
12.0
 20
-318.0
 30
0.0
 40
10.0
  1
LEFT
  7
SIMPLEX
100
AcDbAttribute
  2
SIDE
 70
     0
  0
ATTRIB
  5
DF3415280CCF1CBF
100
AcDbEntity
  8
PORTS
  6
CONTINUOUS
100
AcDbText
 10
62.0
 20
-318.0
 30
0.0
 40
10.0
  1
1
 50
0.000019
  7
SIMPLEX
100
AcDbAttribute
  2
INDEX
 70
     0
  0
SEQEND
  5
DF3415280CCF1CC0
100
AcDbEntity
  8
DETAIL_MEDIUM
  6
CONTINUOUS
  0
INSERT
  5
DF3415280CCF1CC1
100
AcDbEntity
  8
DETAIL_MEDIUM
  6
CONTINUOUS
100
AcDbBlockReference
 66
     1
  2
PLL_ARM_GATE_LOCKED
 10
20.0
 20
0.0
 30
0.0
  0
ATTRIB
  5
DF3415280CCF1CC2
100
AcDbEntity
  8
PORTS
  6
CONTINUOUS
100
AcDbText
 10
282.0
 20
-838.0
 30
0.0
 40
10.0
  1
BOTTOM
  7
SIMPLEX
100
AcDbAttribute
  2
SIDE
 70
     0
  0
SEQEND
  5
DF3415280CCF1CC3
100
AcDbEntity
  8
DETAIL_MEDIUM
  6
CONTINUOUS
  0
INSERT
  5
DF3415280CCF1CC4
100
AcDbEntity
  8
DETAIL_MEDIUM
  6
CONTINUOUS
100
AcDbBlockReference
 66
     1
  2
PLL_ARM_SCAN_DONE
 10
-140.0
 20
0.0
 30
0.0
  0
ATTRIB
  5
DF3415280CCF1CC5
100
AcDbEntity
  8
PORTS
  6
CONTINUOUS
100
AcDbText
 10
242.0
 20
-838.0
 30
0.0
 40
10.0
  1
BOTTOM
  7
SIMPLEX
100
AcDbAttribute
  2
SIDE
 70
     0
  0
SEQEND
  5
DF3415280CCF1CC6
100
AcDbEntity
  8
DETAIL_MEDIUM
  6
CONTINUOUS
  0
INSERT
  5
DF3415280CCF1CC7
100
AcDbEntity
  8
DETAIL_MEDIUM
  6
CONTINUOUS
100
AcDbBlockReference
 66
     1
  2
PLL_ARM_TEST_UP_OUT
 10
-60.0
 20
30.0
 30
0.0
  0
ATTRIB
  5
DF3415280CCF1CC8
100
AcDbEntity
  8
PORTS
  6
CONTINUOUS
100
AcDbText
 10
392.0
 20
-838.0
 30
0.0
 40
10.0
  1
BOTTOM
  7
SIMPLEX
100
AcDbAttribute
  2
SIDE
 70
     0
  0
SEQEND
  5
DF3415280CCF1CC9
100
AcDbEntity
  8
DETAIL_MEDIUM
  6
CONTINUOUS
  0
INSERT
  5
DF3415280CCF1CCA
100
AcDbEntity
  8
DETAIL_MEDIUM
  6
CONTINUOUS
100
AcDbBlockReference
 66
     1
  2
PLL_YGR_LOCKED
 10
10.0
 20
0.0
 30
0.0
  0
ATTRIB
  5
DF3415280CCF1CCB
100
AcDbEntity
  8
PORTS
  6
CONTINUOUS
100
AcDbText
 10
312.0
 20
-838.0
 30
0.0
 40
10.0
  1
BOTTOM
  7
SIMPLEX
100
AcDbAttribute
  2
SIDE
 70
     0
  0
SEQEND
  5
DF3415280CCF1CCC
100
AcDbEntity
  8
DETAIL_MEDIUM
  6
CONTINUOUS
  0
INSERT
  5
DF3415280CCF1CCD
100
AcDbEntity
  8
DETAIL_MEDIUM
  6
CONTINUOUS
100
AcDbBlockReference
 66
     1
  2
PLL_ARM_TEST_DOWN_OUT
 10
-130.0
 20
20.0
 30
0.0
  0
ATTRIB
  5
DF3415280CCF1CCE
100
AcDbEntity
  8
PORTS
  6
CONTINUOUS
100
AcDbText
 10
422.0
 20
-838.0
 30
0.0
 40
10.0
  1
BOTTOM
  7
SIMPLEX
100
AcDbAttribute
  2
SIDE
 70
     0
  0
SEQEND
  5
DF3415280CCF1CCF
100
AcDbEntity
  8
DETAIL_MEDIUM
  6
CONTINUOUS
  0
INSERT
  5
DF3415280CCF1CD0
100
AcDbEntity
  8
DETAIL_MEDIUM
  6
CONTINUOUS
100
AcDbBlockReference
 66
     1
  2
PLL_ARM_SCLKOUT
 10
0.0
 20
0.0
 30
0.0
  0
ATTRIB
  5
DF3415280CCF1CD1
100
AcDbEntity
  8
PORTS
  6
CONTINUOUS
100
AcDbText
 10
642.0
 20
-498.0
 30
0.0
 40
10.0
  1
RIGHT
 50
0.000019
  7
SIMPLEX
100
AcDbAttribute
  2
SIDE
 70
     0
  0
ATTRIB
  5
DF3415280CCF1CD2
100
AcDbEntity
  8
PORTS
  6
CONTINUOUS
100
AcDbText
 10
692.0
 20
-498.0
 30
0.0
 40
10.0
  1
0
 50
0.000019
  7
SIMPLEX
100
AcDbAttribute
  2
INDEX
 70
     0
  0
SEQEND
  5
DF3415280CCF1CD3
100
AcDbEntity
  8
DETAIL_MEDIUM
  6
CONTINUOUS
  0
INSERT
  5
DF3415280CCF1CD4
100
AcDbEntity
  8
DETAIL_MEDIUM
  6
CONTINUOUS
100
AcDbBlockReference
 66
     1
  2
PLL_ARM_SCLKOUT
 10
0.0
 20
-30.0
 30
0.0
  0
ATTRIB
  5
DF3415280CCF1CD5
100
AcDbEntity
  8
PORTS
  6
CONTINUOUS
100
AcDbText
 10
642.0
 20
-528.0
 30
0.0
 40
10.0
  1
RIGHT
 50
0.000019
  7
SIMPLEX
100
AcDbAttribute
  2
SIDE
 70
     0
  0
ATTRIB
  5
DF3415280CCF1CD6
100
AcDbEntity
  8
PORTS
  6
CONTINUOUS
100
AcDbText
 10
692.0
 20
-528.0
 30
0.0
 40
10.0
  1
1
 50
0.000019
  7
SIMPLEX
100
AcDbAttribute
  2
INDEX
 70
     0
  0
SEQEND
  5
DF3415280CCF1CD7
100
AcDbEntity
  8
DETAIL_MEDIUM
  6
CONTINUOUS
  0
INSERT
  5
DF3415280CCF1CD8
100
AcDbEntity
  8
DETAIL_MEDIUM
  6
CONTINUOUS
100
AcDbBlockReference
 66
     1
  2
PLL_ARM_TESTIN
 10
0.0
 20
-80.0
 30
0.0
  0
ATTRIB
  5
DF3415280CCF1CD9
100
AcDbEntity
  8
PORTS
  6
CONTINUOUS
100
AcDbText
 10
12.0
 20
-368.0
 30
0.0
 40
10.0
  1
LEFT
  7
SIMPLEX
100
AcDbAttribute
  2
SIDE
 70
     0
  0
ATTRIB
  5
DF3415280CCF1CDA
100
AcDbEntity
  8
PORTS
  6
CONTINUOUS
100
AcDbText
 10
62.0
 20
-368.0
 30
0.0
 40
10.0
  1
0
 50
0.000019
  7
SIMPLEX
100
AcDbAttribute
  2
INDEX
 70
     0
  0
SEQEND
  5
DF3415280CCF1CDB
100
AcDbEntity
  8
DETAIL_MEDIUM
  6
CONTINUOUS
  0
INSERT
  5
DF3415280CCF1CDC
100
AcDbEntity
  8
DETAIL_MEDIUM
  6
CONTINUOUS
100
AcDbBlockReference
 66
     1
  2
PLL_ARM_TESTIN
 10
0.0
 20
-110.0
 30
0.0
  0
ATTRIB
  5
DF3415280CCF1CDD
100
AcDbEntity
  8
PORTS
  6
CONTINUOUS
100
AcDbText
 10
12.0
 20
-398.0
 30
0.0
 40
10.0
  1
LEFT
  7
SIMPLEX
100
AcDbAttribute
  2
SIDE
 70
     0
  0
ATTRIB
  5
DF3415280CCF1CDE
100
AcDbEntity
  8
PORTS
  6
CONTINUOUS
100
AcDbText
 10
62.0
 20
-398.0
 30
0.0
 40
10.0
  1
1
 50
0.000019
  7
SIMPLEX
100
AcDbAttribute
  2
INDEX
 70
     0
  0
SEQEND
  5
DF3415280CCF1CDF
100
AcDbEntity
  8
DETAIL_MEDIUM
  6
CONTINUOUS
  0
INSERT
  5
DF3415280CCF1CE0
100
AcDbEntity
  8
DETAIL_MEDIUM
  6
CONTINUOUS
100
AcDbBlockReference
 66
     1
  2
PLL_ARM_TESTIN
 10
0.0
 20
-140.0
 30
0.0
  0
ATTRIB
  5
DF3415280CCF1CE1
100
AcDbEntity
  8
PORTS
  6
CONTINUOUS
100
AcDbText
 10
12.0
 20
-428.0
 30
0.0
 40
10.0
  1
LEFT
  7
SIMPLEX
100
AcDbAttribute
  2
SIDE
 70
     0
  0
ATTRIB
  5
DF3415280CCF1CE2
100
AcDbEntity
  8
PORTS
  6
CONTINUOUS
100
AcDbText
 10
62.0
 20
-428.0
 30
0.0
 40
10.0
  1
2
 50
0.000019
  7
SIMPLEX
100
AcDbAttribute
  2
INDEX
 70
     0
  0
SEQEND
  5
DF3415280CCF1CE3
100
AcDbEntity
  8
DETAIL_MEDIUM
  6
CONTINUOUS
  0
INSERT
  5
DF3415280CCF1CE4
100
AcDbEntity
  8
DETAIL_MEDIUM
  6
CONTINUOUS
100
AcDbBlockReference
 66
     1
  2
PLL_ARM_TESTIN
 10
0.0
 20
-170.0
 30
0.0
  0
ATTRIB
  5
DF3415280CCF1CE5
100
AcDbEntity
  8
PORTS
  6
CONTINUOUS
100
AcDbText
 10
12.0
 20
-458.0
 30
0.0
 40
10.0
  1
LEFT
  7
SIMPLEX
100
AcDbAttribute
  2
SIDE
 70
     0
  0
ATTRIB
  5
DF3415280CCF1CE6
100
AcDbEntity
  8
PORTS
  6
CONTINUOUS
100
AcDbText
 10
62.0
 20
-458.0
 30
0.0
 40
10.0
  1
3
 50
0.000019
  7
SIMPLEX
100
AcDbAttribute
  2
INDEX
 70
     0
  0
SEQEND
  5
DF3415280CCF1CE7
100
AcDbEntity
  8
DETAIL_MEDIUM
  6
CONTINUOUS
  0
ENDBLK
  5
DF3415280CCF1CE9
100
AcDbEntity
  8
DETAIL_MEDIUM
  6
CONTINUOUS
100
AcDbBlockEnd
  0
BLOCK
  5
DF3415280CCF1C53
100
AcDbEntity
  8
DETAIL_MEDIUM
  6
CONTINUOUS
100
AcDbBlockBegin
  2
PLL_ARM_TESTIN
 70
     2
 10
0.0
 20
0.0
 30
0.0
  1

  0
POLYLINE
  5
DF3415280CCF1C47
100
AcDbEntity
  8
PORTS
  6
CONTINUOUS
100
AcDb2dPolyline
 66
     1
 10
0.0
 20
0.0
 30
0.0
 70
     1
  0
VERTEX
  5
DF3415280CCF1C48
100
AcDbEntity
  8
PORTS
  6
CONTINUOUS
100
AcDbVertex
100
AcDb2dVertex
 10
90.0
 20
-300.0
 30
0.0
  0
VERTEX
  5
DF3415280CCF1C49
100
AcDbEntity
  8
PORTS
  6
CONTINUOUS
100
AcDbVertex
100
AcDb2dVertex
 10
82.0
 20
-306.0
 30
0.0
  0
VERTEX
  5
DF3415280CCF1C4A
100
AcDbEntity
  8
PORTS
  6
CONTINUOUS
100
AcDbVertex
100
AcDb2dVertex
 10
10.0
 20
-306.0
 30
0.0
  0
VERTEX
  5
DF3415280CCF1C4B
100
AcDbEntity
  8
PORTS
  6
CONTINUOUS
100
AcDbVertex
100
AcDb2dVertex
 10
10.0
 20
-294.0
 30
0.0
  0
VERTEX
  5
DF3415280CCF1C4C
100
AcDbEntity
  8
PORTS
  6
CONTINUOUS
100
AcDbVertex
100
AcDb2dVertex
 10
82.0
 20
-294.0
 30
0.0
  0
VERTEX
  5
DF3415280CCF1C4D
100
AcDbEntity
  8
PORTS
  6
CONTINUOUS
100
AcDbVertex
100
AcDb2dVertex
 10
90.0
 20
-300.0
 30
0.0
  0
SEQEND
  5
DF3415280CCF1C4E
100
AcDbEntity
  8
PORTS
  6
CONTINUOUS
  0
ATTDEF
  5
DF3415280CCF1C52
100
AcDbEntity
  8
PORTS
  6
CONTINUOUS
100
AcDbText
 10
12.0
 20
-288.0
 30
0.0
 40
10.0
  1

  7
SIMPLEX
100
AcDbAttributeDefinition
  3

  2
SIDE
 70
     0
  0
ATTDEF
  5
DF3415280CCF1C51
100
AcDbEntity
  8
PORTS
  6
CONTINUOUS
100
AcDbText
 10
62.0
 20
-288.0
 30
0.0
 40
10.0
  1
0
 50
0.000019
  7
SIMPLEX
100
AcDbAttributeDefinition
  3

  2
INDEX
 70
     0
  0
POINT
  5
DF3415280CCF1C4F
100
AcDbEntity
  8
PORTS
  6
CONTINUOUS
100
AcDbPoint
 10
90.0
 20
-300.0
 30
0.0
  0
LINE
  5
DF3415280CCF1C50
100
AcDbEntity
  8
DETAIL_MEDIUM
  6
CONTINUOUS
100
AcDbLine
 10
90.0
 20
-300.0
 30
0.0
 11
190.0
 21
-300.0
 31
0.0
  0
ENDBLK
  5
DF3415280CCF1C55
100
AcDbEntity
  8
DETAIL_MEDIUM
  6
CONTINUOUS
100
AcDbBlockEnd
  0
ENDSEC
  0
SECTION
  2
ENTITIES
  0
TEXT
  5
1555386
100
AcDbEntity
  8
COMMENT
100
AcDbText
 10
27.0
 20
113.5
 30
0.0
 40
10.0
  1
Comments:
100
AcDbText
  0
TEXT
  5
DF2FB97E2E1C5501
100
AcDbEntity
  8
COMMENT
  6
CONTINUOUS
100
AcDbText
 10
26.0
 20
94.0
 30
0.0
 40
10.0
  1
All ports are on PORTS layer. They don't have FILLCLR since it is assigned in software.
  7
SIMPLEX
100
AcDbText
  0
TEXT
  5
DF2FB97E2E1C5502
100
AcDbEntity
  8
COMMENT
  6
CONTINUOUS
100
AcDbText
 10
26.0
 20
76.857143
 30
0.0
 40
10.0
  1
Text is drawn starting at the only point contained by the port block on PORTS layer. SIDE determines 
  7
SIMPLEX
100
AcDbText
  0
TEXT
  5
DF2FB97E2E1C5503
100
AcDbEntity
  8
COMMENT
  6
CONTINUOUS
100
AcDbText
 10
26.0
 20
59.714286
 30
0.0
 40
10.0
  1
the direction of the text. Port association is based on the name of the block.
  7
SIMPLEX
100
AcDbText
  0
LINE
  5
DF3414A04332ADC8
100
AcDbEntity
  8
COMMENT
  6
CONTINUOUS
100
AcDbLine
 10
-130.0
 20
0.0
 30
0.0
 11
1150.0
 21
0.0
 31
0.0
  0
LINE
  5
DF3414A04332ADCA
100
AcDbEntity
  8
COMMENT
  6
CONTINUOUS
100
AcDbLine
 10
0.0
 20
140.0
 30
0.0
 11
0.0
 21
-820.0
 31
0.0
  0
TEXT
  5
DF3414A0D7EA00A9
100
AcDbEntity
  8
COMMENT
  6
CONTINUOUS
100
AcDbText
 10
26.0
 20
39.714286
 30
0.0
 40
10.0
  1
Point 0,0 must be in top left corner of the drawing.
  7
SIMPLEX
100
AcDbText
  0
INSERT
  5
DF3415280CCF1CEA
100
AcDbEntity
  8
DETAIL_MEDIUM
  6
CONTINUOUS
100
AcDbBlockReference
  2
PLL_ARM
 10
0.0
 20
0.0
 30
0.0
  0
ENDSEC
  0
SECTION
  2
OBJECTS
  0
DICTIONARY
  5
C
100
AcDbDictionary
  3
ACAD_GROUP
350
D
  3
ACAD_MLINESTYLE
350
1B
  0
DICTIONARY
  5
D
102
{ACAD_REACTORS
330
C
102
}
100
AcDbDictionary
  0
DICTIONARY
  5
1B
102
{ACAD_REACTORS
330
C
102
}
100
AcDbDictionary
  3
STANDARD
350
1C
  0
MLINESTYLE
  5
1C
102
{ACAD_REACTORS
330
1B
102
}
100
AcDbMlineStyle
  2
STANDARD
 70
     0
  3

 62
   256
 51
90.0
 52
90.0
 71
     2
 49
0.5
 62
   256
  6
BYLAYER
 49
-0.5
 62
   256
  6
BYLAYER
  0
ENDSEC
  0
EOF
