  0
SECTION
  2
HEADER
  9
$ACADVER
  1
AC1012
  9
$DWGCODEPAGE
  3
ansi_1252
  9
$INSBASE
 10
0.0
 20
0.0
 30
0.0
  9
$EXTMIN
 10
0.0
 20
-16000.0
 30
0.0
  9
$EXTMAX
 10
8000.0
 20
0.0
 30
0.0
  9
$LIMMIN
 10
0.0
 20
0.0
  9
$LIMMAX
 10
12.0
 20
9.0
  9
$ORTHOMODE
 70
     0
  9
$REGENMODE
 70
     1
  9
$FILLMODE
 70
     1
  9
$QTEXTMODE
 70
     0
  9
$MIRRTEXT
 70
     1
  9
$DRAGMODE
 70
     2
  9
$LTSCALE
 40
1.0
  9
$OSMODE
 70
     0
  9
$ATTMODE
 70
     1
  9
$TEXTSIZE
 40
0.2
  9
$TRACEWID
 40
0.05
  9
$TEXTSTYLE
  7
SIMPLEX
  9
$CLAYER
  8
SIMPLE
  9
$CELTYPE
  6
CONTINUOUS
  9
$CECOLOR
 62
   256
  9
$CELTSCALE
 40
1.0
  9
$DELOBJ
 70
     1
  9
$DISPSILH
 70
     0
  9
$DIMSCALE
 40
1.0
  9
$DIMASZ
 40
0.18
  9
$DIMEXO
 40
0.0625
  9
$DIMDLI
 40
0.38
  9
$DIMRND
 40
0.0
  9
$DIMDLE
 40
0.0
  9
$DIMEXE
 40
0.18
  9
$DIMTP
 40
0.0
  9
$DIMTM
 40
0.0
  9
$DIMTXT
 40
0.18
  9
$DIMCEN
 40
0.09
  9
$DIMTSZ
 40
0.0
  9
$DIMTOL
 70
     0
  9
$DIMLIM
 70
     0
  9
$DIMTIH
 70
     1
  9
$DIMTOH
 70
     1
  9
$DIMSE1
 70
     0
  9
$DIMSE2
 70
     0
  9
$DIMTAD
 70
     0
  9
$DIMZIN
 70
     0
  9
$DIMBLK
  1

  9
$DIMASO
 70
     1
  9
$DIMSHO
 70
     1
  9
$DIMPOST
  1

  9
$DIMAPOST
  1

  9
$DIMALT
 70
     0
  9
$DIMALTD
 70
     2
  9
$DIMALTF
 40
25.4
  9
$DIMLFAC
 40
1.0
  9
$DIMTOFL
 70
     0
  9
$DIMTVP
 40
0.0
  9
$DIMTIX
 70
     0
  9
$DIMSOXD
 70
     0
  9
$DIMSAH
 70
     0
  9
$DIMBLK1
  1

  9
$DIMBLK2
  1

  9
$DIMSTYLE
  2
STANDARD
  9
$DIMCLRD
 70
     0
  9
$DIMCLRE
 70
     0
  9
$DIMCLRT
 70
     0
  9
$DIMTFAC
 40
1.0
  9
$DIMGAP
 40
0.09
  9
$DIMJUST
 70
     0
  9
$DIMSD1
 70
     0
  9
$DIMSD2
 70
     0
  9
$DIMTOLJ
 70
     1
  9
$DIMTZIN
 70
     0
  9
$DIMALTZ
 70
     0
  9
$DIMALTTZ
 70
     0
  9
$DIMFIT
 70
     3
  9
$DIMUPT
 70
     0
  9
$DIMUNIT
 70
     2
  9
$DIMDEC
 70
     4
  9
$DIMTDEC
 70
     4
  9
$DIMALTU
 70
     2
  9
$DIMALTTD
 70
     2
  9
$DIMTXSTY
  7
STANDARD
  9
$DIMAUNIT
 70
     0
  9
$LUNITS
 70
     2
  9
$LUPREC
 70
     4
  9
$SKETCHINC
 40
0.1
  9
$FILLETRAD
 40
0.5
  9
$AUNITS
 70
     0
  9
$AUPREC
 70
     0
  9
$MENU
  1
.
  9
$ELEVATION
 40
0.0
  9
$PELEVATION
 40
0.0
  9
$THICKNESS
 40
0.0
  9
$LIMCHECK
 70
     0
  9
$BLIPMODE
 70
     0
  9
$CHAMFERA
 40
0.5
  9
$CHAMFERB
 40
0.5
  9
$CHAMFERC
 40
1.0
  9
$CHAMFERD
 40
0.0
  9
$SKPOLY
 70
     0
  9
$TDCREATE
 40
2453082.8340391321
  9
$TDUPDATE
 40
2454132.7934722109
  9
$TDINDWG
 40
5.337071759259
  9
$TDUSRTIMER
 40
5.337071759259
  9
$USRTIMER
 70
     1
  9
$ANGBASE
 50
0.0
  9
$ANGDIR
 70
     0
  9
$PDMODE
 70
    65
  9
$PDSIZE
 40
40.0
  9
$PLINEWID
 40
0.0
  9
$COORDS
 70
     1
  9
$SPLFRAME
 70
     0
  9
$SPLINETYPE
 70
     6
  9
$SPLINESEGS
 70
     8
  9
$ATTDIA
 70
     0
  9
$ATTREQ
 70
     1
  9
$HANDLING
 70
     1
  9
$HANDSEED
  5
EABC255A95FC9082
  9
$SURFTAB1
 70
     6
  9
$SURFTAB2
 70
     6
  9
$SURFTYPE
 70
     6
  9
$SURFU
 70
     6
  9
$SURFV
 70
     6
  9
$UCSNAME
  2

  9
$UCSORG
 10
0.0
 20
0.0
 30
0.0
  9
$UCSXDIR
 10
1.0
 20
0.0
 30
0.0
  9
$UCSYDIR
 10
0.0
 20
1.0
 30
0.0
  9
$PUCSNAME
  2

  9
$PUCSORG
 10
0.0
 20
0.0
 30
0.0
  9
$PUCSXDIR
 10
1.0
 20
0.0
 30
0.0
  9
$PUCSYDIR
 10
0.0
 20
1.0
 30
0.0
  9
$USERI1
 70
     0
  9
$USERI2
 70
     0
  9
$USERI3
 70
     0
  9
$USERI4
 70
     0
  9
$USERI5
 70
     0
  9
$USERR1
 40
0.0
  9
$USERR2
 40
0.0
  9
$USERR3
 40
0.0
  9
$USERR4
 40
0.0
  9
$USERR5
 40
0.0
  9
$WORLDVIEW
 70
     1
  9
$SHADEDGE
 70
     3
  9
$SHADEDIF
 70
    70
  9
$TILEMODE
 70
     1
  9
$MAXACTVP
 70
    48
  9
$PINSBASE
 10
0.0
 20
0.0
 30
0.0
  9
$PLIMCHECK
 70
     0
  9
$PEXTMIN
 10
1.000000E+020
 20
1.000000E+020
 30
1.000000E+020
  9
$PEXTMAX
 10
-1.000000E+020
 20
-1.000000E+020
 30
-1.000000E+020
  9
$PLIMMIN
 10
0.0
 20
0.0
  9
$PLIMMAX
 10
12.0
 20
9.0
  9
$UNITMODE
 70
     0
  9
$VISRETAIN
 70
     1
  9
$PLINEGEN
 70
     0
  9
$PSLTSCALE
 70
     1
  9
$TREEDEPTH
 70
  3020
  9
$PICKSTYLE
 70
     1
  9
$CMLSTYLE
  2
STANDARD
  9
$CMLJUST
 70
     0
  9
$CMLSCALE
 40
1.0
  9
$SAVEIMAGES
 70
     1
  0
ENDSEC
  0
SECTION
  2
CLASSES
  0
CLASS
  1
LWPOLYLINE
  2
AcDbPolyline
  3
"AutoCAD"
 90
        0
280
     0
281
     1
  0
CLASS
  1
IMAGE
  2
AcDbRasterImage
  3
ISM
 90
      127
280
     0
281
     1
  0
CLASS
  1
RASTERVARIABLES
  2
AcDbRasterVariables
  3
ISM
 90
        0
280
     0
281
     0
  0
CLASS
  1
IMAGEDEF
  2
AcDbRasterImageDef
  3
ISM
 90
        0
280
     0
281
     0
  0
CLASS
  1
IMAGEDEF_REACTOR
  2
AcDbRasterImageDefReactor
  3
ISM
 90
        1
280
     0
281
     0
  0
ENDSEC
  0
SECTION
  2
TABLES
  0
TABLE
  2
VPORT
  5
8
100
AcDbSymbolTable
 70
     1
  0
VPORT
  5
37
100
AcDbSymbolTableRecord
100
AcDbViewportTableRecord
  2
*ACTIVE
 70
    64
 10
0.0
 20
0.0
 11
1.0
 21
1.0
 12
2632.342853
 22
-11311.745043
 13
0.0
 23
0.0
 14
25.0
 24
25.0
 15
25.0
 25
25.0
 16
0.0
 26
0.0
 36
1.0
 17
0.0
 27
0.0
 37
0.0
 40
38535.774174
 41
1.442829
 42
50.0
 43
0.0
 44
0.0
 50
0.0
 51
0.0
 71
     0
 72
   100
 73
     1
 74
     1
 75
     1
 76
     1
 77
     0
 78
     0
  0
ENDTAB
  0
TABLE
  2
LTYPE
  5
5
100
AcDbSymbolTable
 70
     1
  0
LTYPE
  5
12
100
AcDbSymbolTableRecord
100
AcDbLinetypeTableRecord
  2
BYBLOCK
 70
     0
  3

 72
    65
 73
     0
 40
0.0
  0
LTYPE
  5
13
100
AcDbSymbolTableRecord
100
AcDbLinetypeTableRecord
  2
BYLAYER
 70
     0
  3

 72
    65
 73
     0
 40
0.0
  0
LTYPE
  5
14
100
AcDbSymbolTableRecord
100
AcDbLinetypeTableRecord
  2
CONTINUOUS
 70
     0
  3
Solid line
 72
    65
 73
     0
 40
0.0
  0
ENDTAB
  0
TABLE
  2
LAYER
  5
2
100
AcDbSymbolTable
 70
     2
  0
LAYER
  5
541
100
AcDbSymbolTableRecord
100
AcDbLayerTableRecord
  2
SIMPLE
 70
     0
 62
   162
  6
CONTINUOUS
  0
LAYER
  5
EABC2557EAE3CBBD
100
AcDbSymbolTableRecord
100
AcDbLayerTableRecord
  2
COMMENT
 70
     0
 62
     2
  6
CONTINUOUS
  0
ENDTAB
  0
TABLE
  2
STYLE
  5
3
100
AcDbSymbolTable
 70
     8
  0
STYLE
  5
F
100
AcDbSymbolTableRecord
100
AcDbTextStyleTableRecord
  2
STANDARD
 70
     0
 40
0.0
 41
1.0
 50
0.0
 71
     0
 42
100.0
  3
txt.shx
  4

  0
STYLE
  5
21
100
AcDbSymbolTableRecord
100
AcDbTextStyleTableRecord
  2
COMPLEX
 70
     0
 40
0.0
 41
1.0
 50
0.0
 71
     0
 42
0.2
  3
complex
  4

  0
STYLE
  5
22
100
AcDbSymbolTableRecord
100
AcDbTextStyleTableRecord
  2
ITALIC
 70
     0
 40
0.0
 41
1.0
 50
0.0
 71
     0
 42
0.2
  3
italic
  4

  0
STYLE
  5
23
100
AcDbSymbolTableRecord
100
AcDbTextStyleTableRecord
  2
ROMANC
 70
     0
 40
0.0
 41
1.0
 50
0.0
 71
     0
 42
0.2
  3
romanc
  4

  0
STYLE
  5
24
100
AcDbSymbolTableRecord
100
AcDbTextStyleTableRecord
  2
SIMPLEX
 70
     0
 40
0.0
 41
1.0
 50
0.0
 71
     0
 42
0.2
  3
simplex
  4

  0
STYLE
  5
34
100
AcDbSymbolTableRecord
100
AcDbTextStyleTableRecord
  2

 70
     1
 40
0.0
 41
1.0
 50
0.0
 71
     0
 42
0.2
  3
ltypeshp.shx
  4

  0
STYLE
  5
38
100
AcDbSymbolTableRecord
100
AcDbTextStyleTableRecord
  2
ARIAL
 70
     0
 40
0.0
 41
1.0
 50
0.0
 71
     0
 42
0.2
  3

  4

1001
ACAD
1000
Arial
1071
       34
  0
STYLE
  5
39
100
AcDbSymbolTableRecord
100
AcDbTextStyleTableRecord
  2
TIMES_NEW_ROMAN
 70
     0
 40
0.0
 41
1.0
 50
0.0
 71
     0
 42
0.2
  3

  4

1001
ACAD
1000
Times New Roman
1071
       18
  0
ENDTAB
  0
TABLE
  2
VIEW
  5
6
100
AcDbSymbolTable
 70
     0
  0
ENDTAB
  0
TABLE
  2
UCS
  5
7
100
AcDbSymbolTable
 70
     0
  0
ENDTAB
  0
TABLE
  2
APPID
  5
9
100
AcDbSymbolTable
 70
     1
  0
APPID
  5
10
100
AcDbSymbolTableRecord
100
AcDbRegAppTableRecord
  2
ACAD
 70
     0
  0
ENDTAB
  0
TABLE
  2
DIMSTYLE
  5
A
100
AcDbSymbolTable
 70
     1
  0
DIMSTYLE
105
1D
100
AcDbSymbolTableRecord
100
AcDbDimStyleTableRecord
  2
STANDARD
 70
     0
  3

  4

  5

  6

  7

 40
1.0
 41
100.0
 42
50.0
 43
0.38
 44
50.0
 45
0.0
 46
0.0
 47
0.0
 48
0.0
140
100.0
141
0.09
142
0.0
143
25.4
144
1.0
145
0.0
146
1.0
147
0.09
 71
     0
 72
     0
 73
     1
 74
     1
 75
     0
 76
     0
 77
     0
 78
     0
170
     0
171
     2
172
     0
173
     0
174
     0
175
     0
176
     0
177
     0
178
     0
270
     2
271
     4
272
     4
273
     2
274
     2
340
F
275
     0
280
     0
281
     0
282
     0
283
     1
284
     0
285
     0
286
     0
287
     3
288
     0
  0
ENDTAB
  0
TABLE
  2
BLOCK_RECORD
  5
1
100
AcDbSymbolTable
 70
    88
  0
BLOCK_RECORD
  5
18
100
AcDbSymbolTableRecord
100
AcDbBlockTableRecord
  2
*MODEL_SPACE
  0
BLOCK_RECORD
  5
15
100
AcDbSymbolTableRecord
100
AcDbBlockTableRecord
  2
*PAPER_SPACE
  0
BLOCK_RECORD
  5
EABC2557E039A7B5
100
AcDbSymbolTableRecord
100
AcDbBlockTableRecord
  2
*D0
  0
BLOCK_RECORD
  5
EABC2557E039A7C4
100
AcDbSymbolTableRecord
100
AcDbBlockTableRecord
  2
*D1
  0
BLOCK_RECORD
  5
EABC2557E039A7E1
100
AcDbSymbolTableRecord
100
AcDbBlockTableRecord
  2
*D2
  0
BLOCK_RECORD
  5
EABC2557E039A7F0
100
AcDbSymbolTableRecord
100
AcDbBlockTableRecord
  2
*D3
  0
BLOCK_RECORD
  5
EABC2557E039A7FF
100
AcDbSymbolTableRecord
100
AcDbBlockTableRecord
  2
*D4
  0
BLOCK_RECORD
  5
EABC2557E039A81C
100
AcDbSymbolTableRecord
100
AcDbBlockTableRecord
  2
*D5
  0
BLOCK_RECORD
  5
EABC2557E039A82C
100
AcDbSymbolTableRecord
100
AcDbBlockTableRecord
  2
*D6
  0
BLOCK_RECORD
  5
EABC2557E039A83C
100
AcDbSymbolTableRecord
100
AcDbBlockTableRecord
  2
*D7
  0
BLOCK_RECORD
  5
EABC2557E039A84D
100
AcDbSymbolTableRecord
100
AcDbBlockTableRecord
  2
*D8
  0
BLOCK_RECORD
  5
EABC2557E039A85C
100
AcDbSymbolTableRecord
100
AcDbBlockTableRecord
  2
*D9
  0
BLOCK_RECORD
  5
EABC2557E039A86B
100
AcDbSymbolTableRecord
100
AcDbBlockTableRecord
  2
*D10
  0
BLOCK_RECORD
  5
EABC2557E039A87B
100
AcDbSymbolTableRecord
100
AcDbBlockTableRecord
  2
*D11
  0
BLOCK_RECORD
  5
EABC2557E039A88B
100
AcDbSymbolTableRecord
100
AcDbBlockTableRecord
  2
*D12
  0
BLOCK_RECORD
  5
EABC2557E039A8B5
100
AcDbSymbolTableRecord
100
AcDbBlockTableRecord
  2
*D13
  0
BLOCK_RECORD
  5
EABC2557E039A8C5
100
AcDbSymbolTableRecord
100
AcDbBlockTableRecord
  2
*D14
  0
BLOCK_RECORD
  5
EABC2557E039A8D5
100
AcDbSymbolTableRecord
100
AcDbBlockTableRecord
  2
*D15
  0
BLOCK_RECORD
  5
EABC2557E039A8E5
100
AcDbSymbolTableRecord
100
AcDbBlockTableRecord
  2
*D16
  0
BLOCK_RECORD
  5
EABC2557E039A8F5
100
AcDbSymbolTableRecord
100
AcDbBlockTableRecord
  2
*D17
  0
BLOCK_RECORD
  5
EABC2557E039A906
100
AcDbSymbolTableRecord
100
AcDbBlockTableRecord
  2
*D18
  0
BLOCK_RECORD
  5
EABC2557E039A916
100
AcDbSymbolTableRecord
100
AcDbBlockTableRecord
  2
*D19
  0
BLOCK_RECORD
  5
EABC2557E039A926
100
AcDbSymbolTableRecord
100
AcDbBlockTableRecord
  2
*D20
  0
BLOCK_RECORD
  5
EABC2557E039A936
100
AcDbSymbolTableRecord
100
AcDbBlockTableRecord
  2
*D21
  0
BLOCK_RECORD
  5
EABC2557E039A946
100
AcDbSymbolTableRecord
100
AcDbBlockTableRecord
  2
*D22
  0
BLOCK_RECORD
  5
EABC2557E039A956
100
AcDbSymbolTableRecord
100
AcDbBlockTableRecord
  2
*D23
  0
BLOCK_RECORD
  5
EABC2557E039A974
100
AcDbSymbolTableRecord
100
AcDbBlockTableRecord
  2
*D24
  0
BLOCK_RECORD
  5
EABC2557E039A984
100
AcDbSymbolTableRecord
100
AcDbBlockTableRecord
  2
*D25
  0
BLOCK_RECORD
  5
EABC2557E039A994
100
AcDbSymbolTableRecord
100
AcDbBlockTableRecord
  2
*D26
  0
BLOCK_RECORD
  5
EABC2557E58EBC78
100
AcDbSymbolTableRecord
100
AcDbBlockTableRecord
  2
*D27
  0
BLOCK_RECORD
  5
EABC2557E58EBC87
100
AcDbSymbolTableRecord
100
AcDbBlockTableRecord
  2
*D28
  0
BLOCK_RECORD
  5
EABC2557E58EBC96
100
AcDbSymbolTableRecord
100
AcDbBlockTableRecord
  2
*D29
  0
BLOCK_RECORD
  5
EABC2557E58EBCA5
100
AcDbSymbolTableRecord
100
AcDbBlockTableRecord
  2
*D30
  0
BLOCK_RECORD
  5
EABC2557E58EBCB4
100
AcDbSymbolTableRecord
100
AcDbBlockTableRecord
  2
*D31
  0
BLOCK_RECORD
  5
EABC2557E58EBCC3
100
AcDbSymbolTableRecord
100
AcDbBlockTableRecord
  2
*D32
  0
BLOCK_RECORD
  5
EABC2557E58EBCD2
100
AcDbSymbolTableRecord
100
AcDbBlockTableRecord
  2
*D33
  0
BLOCK_RECORD
  5
EABC2557E58EBCE1
100
AcDbSymbolTableRecord
100
AcDbBlockTableRecord
  2
*D34
  0
BLOCK_RECORD
  5
EABC2557E58EBCF0
100
AcDbSymbolTableRecord
100
AcDbBlockTableRecord
  2
*D35
  0
BLOCK_RECORD
  5
EABC2557E58EBCFF
100
AcDbSymbolTableRecord
100
AcDbBlockTableRecord
  2
*D36
  0
BLOCK_RECORD
  5
EABC255A95F7FF8F
100
AcDbSymbolTableRecord
100
AcDbBlockTableRecord
  2
IO_CELL_CORE_OUT
  0
BLOCK_RECORD
  5
EABC255A95F7FF93
100
AcDbSymbolTableRecord
100
AcDbBlockTableRecord
  2
IO_CELL_CORE_IN
  0
BLOCK_RECORD
  5
EABC255A95F8D5C7
100
AcDbSymbolTableRecord
100
AcDbBlockTableRecord
  2
IO_CELL_TITAN_IN_PORT_GROUP
  0
BLOCK_RECORD
  5
EABC255A95F8D5CC
100
AcDbSymbolTableRecord
100
AcDbBlockTableRecord
  2
IO_CELL_TITAN_OUT_PORT_GROUP
  0
BLOCK_RECORD
  5
EABC255A95F8D5D5
100
AcDbSymbolTableRecord
100
AcDbBlockTableRecord
  2
IO_CELL_TITAN_DDIO_OE_IN_PORT
  0
BLOCK_RECORD
  5
EABC255A95F8D5D9
100
AcDbSymbolTableRecord
100
AcDbBlockTableRecord
  2
IO_CELL_TITAN_DDIO_OE_OUT_PORT
  0
BLOCK_RECORD
  5
EABC255A95F8D5DD
100
AcDbSymbolTableRecord
100
AcDbBlockTableRecord
  2
IO_CELL_TITAN_DDIO_OE
  0
BLOCK_RECORD
  5
EABC255A95F8D5E1
100
AcDbSymbolTableRecord
100
AcDbBlockTableRecord
  2
IO_CELL_TITAN_DDIO_IN_IN_PORT
  0
BLOCK_RECORD
  5
EABC255A95F8D5E5
100
AcDbSymbolTableRecord
100
AcDbBlockTableRecord
  2
IO_CELL_TITAN_DDIO_IN_OUT_PORT
  0
BLOCK_RECORD
  5
EABC255A95F8D5E9
100
AcDbSymbolTableRecord
100
AcDbBlockTableRecord
  2
IO_CELL_TITAN_DDIO_IN
  0
BLOCK_RECORD
  5
EABC255A95F8D5ED
100
AcDbSymbolTableRecord
100
AcDbBlockTableRecord
  2
IO_CELL_TITAN_DDIO_OUT_IN_PORT
  0
BLOCK_RECORD
  5
EABC255A95F8D5F1
100
AcDbSymbolTableRecord
100
AcDbBlockTableRecord
  2
IO_CELL_TITAN_DDIO_OUT_OUT_PORT
  0
BLOCK_RECORD
  5
EABC255A95F8D5F5
100
AcDbSymbolTableRecord
100
AcDbBlockTableRecord
  2
IO_CELL_TITAN_DDIO_OUT
  0
BLOCK_RECORD
  5
EABC255A95F8D5F9
100
AcDbSymbolTableRecord
100
AcDbBlockTableRecord
  2
IO_CELL_TITAN_PAD_IN_PORT
  0
BLOCK_RECORD
  5
EABC255A95F8D5FD
100
AcDbSymbolTableRecord
100
AcDbBlockTableRecord
  2
IO_CELL_TITAN_PAD_OUT_PORT
  0
BLOCK_RECORD
  5
EABC255A95F8D601
100
AcDbSymbolTableRecord
100
AcDbBlockTableRecord
  2
IO_CELL_TITAN_PAD
  0
BLOCK_RECORD
  5
EABC255A95F8D605
100
AcDbSymbolTableRecord
100
AcDbBlockTableRecord
  2
IO_CELL_TITAN_INBUF_IN_PORT
  0
BLOCK_RECORD
  5
EABC255A95F8D609
100
AcDbSymbolTableRecord
100
AcDbBlockTableRecord
  2
IO_CELL_TITAN_INBUF_OUT_PORT
  0
BLOCK_RECORD
  5
EABC255A95F8D60D
100
AcDbSymbolTableRecord
100
AcDbBlockTableRecord
  2
IO_CELL_TITAN_INBUF
  0
BLOCK_RECORD
  5
EABC255A95F8D611
100
AcDbSymbolTableRecord
100
AcDbBlockTableRecord
  2
IO_CELL_TITAN_OUTBUF_IN_PORT
  0
BLOCK_RECORD
  5
EABC255A95F8D615
100
AcDbSymbolTableRecord
100
AcDbBlockTableRecord
  2
IO_CELL_TITAN_OUTBUF_OUT_PORT
  0
BLOCK_RECORD
  5
EABC255A95F8D619
100
AcDbSymbolTableRecord
100
AcDbBlockTableRecord
  2
IO_CELL_TITAN_OUTBUF
  0
BLOCK_RECORD
  5
EABC255A95F8D61E
100
AcDbSymbolTableRecord
100
AcDbBlockTableRecord
  2
IO_CELL_YGR
  0
BLOCK_RECORD
  5
EABC255A95F8D630
100
AcDbSymbolTableRecord
100
AcDbBlockTableRecord
  2
IO_GROUP_YGR
  0
BLOCK_RECORD
  5
EABC255A95F8D661
100
AcDbSymbolTableRecord
100
AcDbBlockTableRecord
  2
TERMINATION_BLOCK_IN_PORT
  0
BLOCK_RECORD
  5
EABC255A95F8D665
100
AcDbSymbolTableRecord
100
AcDbBlockTableRecord
  2
TERMINATION_BLOCK_OUT_PORT
  0
BLOCK_RECORD
  5
EABC255A95F8D669
100
AcDbSymbolTableRecord
100
AcDbBlockTableRecord
  2
TERMINATION_BLOCK
  0
BLOCK_RECORD
  5
EABC255A95F8D66D
100
AcDbSymbolTableRecord
100
AcDbBlockTableRecord
  2
SERDES_BLOCK_RX_IN_PORT
  0
BLOCK_RECORD
  5
EABC255A95F8D671
100
AcDbSymbolTableRecord
100
AcDbBlockTableRecord
  2
SERDES_BLOCK_RX_OUT_PORT
  0
BLOCK_RECORD
  5
EABC255A95F8D676
100
AcDbSymbolTableRecord
100
AcDbBlockTableRecord
  2
SERDES_BLOCK_TX_IN_PORT
  0
BLOCK_RECORD
  5
EABC255A95F8D67A
100
AcDbSymbolTableRecord
100
AcDbBlockTableRecord
  2
SERDES_BLOCK_TX_OUT_PORT
  0
BLOCK_RECORD
  5
EABC255A95F8D67E
100
AcDbSymbolTableRecord
100
AcDbBlockTableRecord
  2
SERDES_BLOCK_RX
  0
BLOCK_RECORD
  5
EABC255A95F8D682
100
AcDbSymbolTableRecord
100
AcDbBlockTableRecord
  2
SERDES_BLOCK_TX
  0
BLOCK_RECORD
  5
EABC255A95F8D686
100
AcDbSymbolTableRecord
100
AcDbBlockTableRecord
  2
CLKCTRL_BLOCK_IN_PORT
  0
BLOCK_RECORD
  5
EABC255A95F8D68A
100
AcDbSymbolTableRecord
100
AcDbBlockTableRecord
  2
CLKCTRL_BLOCK_OUT_PORT
  0
BLOCK_RECORD
  5
EABC255A95F8D68E
100
AcDbSymbolTableRecord
100
AcDbBlockTableRecord
  2
CLKCTRL_BLOCK
  0
BLOCK_RECORD
  5
EABC255A95F8D8CF
100
AcDbSymbolTableRecord
100
AcDbBlockTableRecord
  2
DLL_OFFSET_CTRL
  0
BLOCK_RECORD
  5
EABC255A95F8D8D3
100
AcDbSymbolTableRecord
100
AcDbBlockTableRecord
  2
DQS_DELAY_CHAIN
  0
BLOCK_RECORD
  5
EABC255A95F8D8D7
100
AcDbSymbolTableRecord
100
AcDbBlockTableRecord
  2
DQS_ENABLE
  0
BLOCK_RECORD
  5
EABC255A95F8D8DB
100
AcDbSymbolTableRecord
100
AcDbBlockTableRecord
  2
DQS_ENABLE_CTRL
  0
BLOCK_RECORD
  5
EABC255A95F8D8DF
100
AcDbSymbolTableRecord
100
AcDbBlockTableRecord
  2
IO_CLOCK_DIVIDER
  0
BLOCK_RECORD
  5
EABC255A95F8D8E3
100
AcDbSymbolTableRecord
100
AcDbBlockTableRecord
  2
DQS_CONFIG
  0
BLOCK_RECORD
  5
EABC255A95F8D8E8
100
AcDbSymbolTableRecord
100
AcDbBlockTableRecord
  2
TSDBLOCK
  0
BLOCK_RECORD
  5
EABC255A95F8D8F4
100
AcDbSymbolTableRecord
100
AcDbBlockTableRecord
  2
DELAY_CHAIN
  0
BLOCK_RECORD
  5
EABC255A95F8D8F8
100
AcDbSymbolTableRecord
100
AcDbBlockTableRecord
  2
INPUT_PHASE_ALIGNMENT
  0
BLOCK_RECORD
  5
EABC255A95F8D8FC
100
AcDbSymbolTableRecord
100
AcDbBlockTableRecord
  2
HALF_RATE_INPUT
  0
BLOCK_RECORD
  5
EABC255A95F8D900
100
AcDbSymbolTableRecord
100
AcDbBlockTableRecord
  2
IO_CONFIG
  0
BLOCK_RECORD
  5
EABC255A95F8D904
100
AcDbSymbolTableRecord
100
AcDbBlockTableRecord
  2
MP_OCT_CONTROL_REG
  0
BLOCK_RECORD
  5
EABC255A95F8D908
100
AcDbSymbolTableRecord
100
AcDbBlockTableRecord
  2
DDIO_OUT
  0
BLOCK_RECORD
  5
EABC255A95F8D90D
100
AcDbSymbolTableRecord
100
AcDbBlockTableRecord
  2
IO_CELL_YGR_OTHERS
  0
BLOCK_RECORD
  5
EABC255A95F8D9E1
100
AcDbSymbolTableRecord
100
AcDbBlockTableRecord
  2
IO_GROUP_CLKBUBLOCK
  0
ENDTAB
  0
ENDSEC
  0
SECTION
  2
BLOCKS
  0
BLOCK
  5
19
100
AcDbEntity
  8
SIMPLE
100
AcDbBlockBegin
  2
*MODEL_SPACE
 70
     0
 10
0.0
 20
0.0
 30
0.0
  3
*MODEL_SPACE
  1

  0
ENDBLK
  5
1A
100
AcDbEntity
  8
SIMPLE
100
AcDbBlockEnd
  0
BLOCK
  5
16
100
AcDbEntity
 67
     1
  8
SIMPLE
100
AcDbBlockBegin
  2
*PAPER_SPACE
 70
     0
 10
0.0
 20
0.0
 30
0.0
  3
*PAPER_SPACE
  1

  0
ENDBLK
  5
17
100
AcDbEntity
 67
     1
  8
SIMPLE
100
AcDbBlockEnd
  0
BLOCK
  5
EABC2557E039A7B4
100
AcDbEntity
  8
SIMPLE
 62
     5
100
AcDbBlockBegin
  2
*D0
 70
     1
 10
0.0
 20
0.0
 30
0.0
  1

  0
POINT
  5
EABC2557E039A7AD
100
AcDbEntity
  8
SIMPLE
 62
     0
100
AcDbPoint
 10
12000.0
 20
21200.0
 30
0.0
  0
POINT
  5
EABC2557E039A7AE
100
AcDbEntity
  8
SIMPLE
 62
     0
100
AcDbPoint
 10
16300.0
 20
20900.0
 30
0.0
  0
LINE
  5
EABC2557E039A7A8
100
AcDbEntity
  8
SIMPLE
 62
     0
100
AcDbLine
 10
12000.0
 20
21200.0625
 30
0.0
 11
12000.0
 21
21700.18
 31
0.0
  0
LINE
  5
EABC2557E039A7A9
100
AcDbEntity
  8
SIMPLE
 62
     0
100
AcDbLine
 10
16300.0
 20
20900.0625
 30
0.0
 11
16300.0
 21
21700.18
 31
0.0
  0
TEXT
  5
EABC2557E039A7AF
100
AcDbEntity
  8
SIMPLE
 62
     0
100
AcDbText
 10
14149.297143
 20
21699.91
 30
0.0
 40
0.18
  1
4300.0000
  7
SIMPLEX
 72
     1
 11
14150.0
 21
21699.91
 31
0.0
100
AcDbText
  0
SOLID
  5
EABC2557E039A7AA
100
AcDbEntity
  8
SIMPLE
 62
     0
100
AcDbTrace
 10
12000.18
 20
21699.97
 30
0.0
 11
12000.18
 21
21700.03
 31
0.0
 12
12000.0
 22
21700.0
 32
0.0
 13
12000.0
 23
21700.0
 33
0.0
  0
SOLID
  5
EABC2557E039A7AB
100
AcDbEntity
  8
SIMPLE
 62
     0
100
AcDbTrace
 10
16299.82
 20
21700.03
 30
0.0
 11
16299.82
 21
21699.97
 31
0.0
 12
16300.0
 22
21700.0
 32
0.0
 13
16300.0
 23
21700.0
 33
0.0
  0
LINE
  5
EABC2557E039A7B0
100
AcDbEntity
  8
SIMPLE
 62
     0
100
AcDbLine
 10
12000.18
 20
21700.0
 30
0.0
 11
14149.207143
 21
21700.0
 31
0.0
  0
LINE
  5
EABC2557E039A7B1
100
AcDbEntity
  8
SIMPLE
 62
     0
100
AcDbLine
 10
14150.792857
 20
21700.0
 30
0.0
 11
16299.82
 21
21700.0
 31
0.0
  0
ENDBLK
  5
EABC2557E039A7B6
100
AcDbEntity
  8
SIMPLE
 62
     5
100
AcDbBlockEnd
  0
BLOCK
  5
EABC2557E039A7C3
100
AcDbEntity
  8
SIMPLE
 62
     5
100
AcDbBlockBegin
  2
*D1
 70
     1
 10
0.0
 20
0.0
 30
0.0
  1

  0
POINT
  5
EABC2557E039A7BC
100
AcDbEntity
  8
SIMPLE
 62
     0
100
AcDbPoint
 10
12000.0
 20
21200.0
 30
0.0
  0
POINT
  5
EABC2557E039A7BD
100
AcDbEntity
  8
SIMPLE
 62
     0
100
AcDbPoint
 10
16300.0
 20
20900.0
 30
0.0
  0
LINE
  5
EABC2557E039A7B7
100
AcDbEntity
  8
SIMPLE
 62
     0
100
AcDbLine
 10
12000.0
 20
21200.0625
 30
0.0
 11
12000.0
 21
21700.18
 31
0.0
  0
LINE
  5
EABC2557E039A7B8
100
AcDbEntity
  8
SIMPLE
 62
     0
100
AcDbLine
 10
16300.0
 20
20900.0625
 30
0.0
 11
16300.0
 21
21700.18
 31
0.0
  0
TEXT
  5
EABC2557E039A7BE
100
AcDbEntity
  8
SIMPLE
 62
     0
100
AcDbText
 10
14149.297143
 20
21699.91
 30
0.0
 40
0.18
  1
asdfasdfas
  7
SIMPLEX
 72
     1
 11
14150.0
 21
21699.91
 31
0.0
100
AcDbText
  0
SOLID
  5
EABC2557E039A7B9
100
AcDbEntity
  8
SIMPLE
 62
     0
100
AcDbTrace
 10
12000.18
 20
21699.97
 30
0.0
 11
12000.18
 21
21700.03
 31
0.0
 12
12000.0
 22
21700.0
 32
0.0
 13
12000.0
 23
21700.0
 33
0.0
  0
SOLID
  5
EABC2557E039A7BA
100
AcDbEntity
  8
SIMPLE
 62
     0
100
AcDbTrace
 10
16299.82
 20
21700.03
 30
0.0
 11
16299.82
 21
21699.97
 31
0.0
 12
16300.0
 22
21700.0
 32
0.0
 13
16300.0
 23
21700.0
 33
0.0
  0
LINE
  5
EABC2557E039A7BF
100
AcDbEntity
  8
SIMPLE
 62
     0
100
AcDbLine
 10
12000.18
 20
21700.0
 30
0.0
 11
14149.207143
 21
21700.0
 31
0.0
  0
LINE
  5
EABC2557E039A7C0
100
AcDbEntity
  8
SIMPLE
 62
     0
100
AcDbLine
 10
14150.792857
 20
21700.0
 30
0.0
 11
16299.82
 21
21700.0
 31
0.0
  0
ENDBLK
  5
EABC2557E039A7C5
100
AcDbEntity
  8
SIMPLE
 62
     5
100
AcDbBlockEnd
  0
BLOCK
  5
EABC2557E039A7E0
100
AcDbEntity
  8
SIMPLE
 62
     5
100
AcDbBlockBegin
  2
*D2
 70
     1
 10
0.0
 20
0.0
 30
0.0
  1

  0
POINT
  5
EABC2557E039A7D9
100
AcDbEntity
  8
SIMPLE
 62
     0
100
AcDbPoint
 10
16000.0
 20
19100.0
 30
0.0
  0
POINT
  5
EABC2557E039A7DA
100
AcDbEntity
  8
SIMPLE
 62
     0
100
AcDbPoint
 10
18100.0
 20
19300.0
 30
0.0
  0
LINE
  5
EABC2557E039A7D4
100
AcDbEntity
  8
SIMPLE
 62
     0
100
AcDbLine
 10
16000.0
 20
19100.0625
 30
0.0
 11
16000.0
 21
19600.18
 31
0.0
  0
LINE
  5
EABC2557E039A7D5
100
AcDbEntity
  8
SIMPLE
 62
     0
100
AcDbLine
 10
18100.0
 20
19300.0625
 30
0.0
 11
18100.0
 21
19600.18
 31
0.0
  0
TEXT
  5
EABC2557E039A7DB
100
AcDbEntity
  8
SIMPLE
 62
     0
100
AcDbText
 10
17049.314286
 20
19599.91
 30
0.0
 40
0.18
  1
2100.0000
  7
SIMPLEX
 72
     1
 11
17050.0
 21
19599.91
 31
0.0
100
AcDbText
  0
SOLID
  5
EABC2557E039A7D6
100
AcDbEntity
  8
SIMPLE
 62
     0
100
AcDbTrace
 10
16000.18
 20
19599.97
 30
0.0
 11
16000.18
 21
19600.03
 31
0.0
 12
16000.0
 22
19600.0
 32
0.0
 13
16000.0
 23
19600.0
 33
0.0
  0
SOLID
  5
EABC2557E039A7D7
100
AcDbEntity
  8
SIMPLE
 62
     0
100
AcDbTrace
 10
18099.82
 20
19600.03
 30
0.0
 11
18099.82
 21
19599.97
 31
0.0
 12
18100.0
 22
19600.0
 32
0.0
 13
18100.0
 23
19600.0
 33
0.0
  0
LINE
  5
EABC2557E039A7DC
100
AcDbEntity
  8
SIMPLE
 62
     0
100
AcDbLine
 10
16000.18
 20
19600.0
 30
0.0
 11
17049.224286
 21
19600.0
 31
0.0
  0
LINE
  5
EABC2557E039A7DD
100
AcDbEntity
  8
SIMPLE
 62
     0
100
AcDbLine
 10
17050.775714
 20
19600.0
 30
0.0
 11
18099.82
 21
19600.0
 31
0.0
  0
ENDBLK
  5
EABC2557E039A7E2
100
AcDbEntity
  8
SIMPLE
 62
     5
100
AcDbBlockEnd
  0
BLOCK
  5
EABC2557E039A7EF
100
AcDbEntity
  8
SIMPLE
 62
     5
100
AcDbBlockBegin
  2
*D3
 70
     1
 10
0.0
 20
0.0
 30
0.0
  1

  0
POINT
  5
EABC2557E039A7E8
100
AcDbEntity
  8
SIMPLE
 62
     0
100
AcDbPoint
 10
16000.0
 20
19100.0
 30
0.0
  0
POINT
  5
EABC2557E039A7E9
100
AcDbEntity
  8
SIMPLE
 62
     0
100
AcDbPoint
 10
18100.0
 20
19300.0
 30
0.0
  0
LINE
  5
EABC2557E039A7E3
100
AcDbEntity
  8
SIMPLE
 62
     0
100
AcDbLine
 10
16000.0
 20
19100.0625
 30
0.0
 11
16000.0
 21
19600.18
 31
0.0
  0
LINE
  5
EABC2557E039A7E4
100
AcDbEntity
  8
SIMPLE
 62
     0
100
AcDbLine
 10
18100.0
 20
19300.0625
 30
0.0
 11
18100.0
 21
19600.18
 31
0.0
  0
TEXT
  5
EABC2557E039A7EA
100
AcDbEntity
  8
SIMPLE
 62
     0
100
AcDbText
 10
17049.314286
 20
19599.91
 30
0.0
 40
0.18
  1
2100.0000
  7
SIMPLEX
 72
     1
 11
17050.0
 21
19599.91
 31
0.0
100
AcDbText
  0
SOLID
  5
EABC2557E039A7E5
100
AcDbEntity
  8
SIMPLE
 62
     0
100
AcDbTrace
 10
16000.18
 20
19599.97
 30
0.0
 11
16000.18
 21
19600.03
 31
0.0
 12
16000.0
 22
19600.0
 32
0.0
 13
16000.0
 23
19600.0
 33
0.0
  0
SOLID
  5
EABC2557E039A7E6
100
AcDbEntity
  8
SIMPLE
 62
     0
100
AcDbTrace
 10
18099.82
 20
19600.03
 30
0.0
 11
18099.82
 21
19599.97
 31
0.0
 12
18100.0
 22
19600.0
 32
0.0
 13
18100.0
 23
19600.0
 33
0.0
  0
LINE
  5
EABC2557E039A7EB
100
AcDbEntity
  8
SIMPLE
 62
     0
100
AcDbLine
 10
16000.18
 20
19600.0
 30
0.0
 11
17049.224286
 21
19600.0
 31
0.0
  0
LINE
  5
EABC2557E039A7EC
100
AcDbEntity
  8
SIMPLE
 62
     0
100
AcDbLine
 10
17050.775714
 20
19600.0
 30
0.0
 11
18099.82
 21
19600.0
 31
0.0
  0
ENDBLK
  5
EABC2557E039A7F1
100
AcDbEntity
  8
SIMPLE
 62
     5
100
AcDbBlockEnd
  0
BLOCK
  5
EABC2557E039A7FE
100
AcDbEntity
  8
SIMPLE
 62
     5
100
AcDbBlockBegin
  2
*D4
 70
     1
 10
0.0
 20
0.0
 30
0.0
  1

  0
POINT
  5
EABC2557E039A7F7
100
AcDbEntity
  8
SIMPLE
 62
     0
100
AcDbPoint
 10
16000.0
 20
19100.0
 30
0.0
  0
POINT
  5
EABC2557E039A7F8
100
AcDbEntity
  8
SIMPLE
 62
     0
100
AcDbPoint
 10
18100.0
 20
19300.0
 30
0.0
  0
LINE
  5
EABC2557E039A7F2
100
AcDbEntity
  8
SIMPLE
 62
     0
100
AcDbLine
 10
16000.0
 20
19100.0625
 30
0.0
 11
16000.0
 21
19600.18
 31
0.0
  0
LINE
  5
EABC2557E039A7F3
100
AcDbEntity
  8
SIMPLE
 62
     0
100
AcDbLine
 10
18100.0
 20
19300.0625
 30
0.0
 11
18100.0
 21
19600.18
 31
0.0
  0
TEXT
  5
EABC2557E039A7F9
100
AcDbEntity
  8
SIMPLE
 62
     0
100
AcDbText
 10
17049.515714
 20
19599.91
 30
0.0
 40
0.18
  1
asdfe4r
  7
SIMPLEX
 72
     1
 11
17050.0
 21
19599.91
 31
0.0
100
AcDbText
  0
SOLID
  5
EABC2557E039A7F4
100
AcDbEntity
  8
SIMPLE
 62
     0
100
AcDbTrace
 10
16000.18
 20
19599.97
 30
0.0
 11
16000.18
 21
19600.03
 31
0.0
 12
16000.0
 22
19600.0
 32
0.0
 13
16000.0
 23
19600.0
 33
0.0
  0
SOLID
  5
EABC2557E039A7F5
100
AcDbEntity
  8
SIMPLE
 62
     0
100
AcDbTrace
 10
18099.82
 20
19600.03
 30
0.0
 11
18099.82
 21
19599.97
 31
0.0
 12
18100.0
 22
19600.0
 32
0.0
 13
18100.0
 23
19600.0
 33
0.0
  0
LINE
  5
EABC2557E039A7FA
100
AcDbEntity
  8
SIMPLE
 62
     0
100
AcDbLine
 10
16000.18
 20
19600.0
 30
0.0
 11
17049.425714
 21
19600.0
 31
0.0
  0
LINE
  5
EABC2557E039A7FB
100
AcDbEntity
  8
SIMPLE
 62
     0
100
AcDbLine
 10
17050.574286
 20
19600.0
 30
0.0
 11
18099.82
 21
19600.0
 31
0.0
  0
ENDBLK
  5
EABC2557E039A800
100
AcDbEntity
  8
SIMPLE
 62
     5
100
AcDbBlockEnd
  0
BLOCK
  5
EABC2557E039A81B
100
AcDbEntity
  8
SIMPLE
 62
     5
100
AcDbBlockBegin
  2
*D5
 70
     1
 10
0.0
 20
0.0
 30
0.0
  1

  0
POINT
  5
EABC2557E039A814
100
AcDbEntity
  8
SIMPLE
 62
     0
100
AcDbPoint
 10
16600.0
 20
19600.0
 30
0.0
  0
POINT
  5
EABC2557E039A815
100
AcDbEntity
  8
SIMPLE
 62
     0
100
AcDbPoint
 10
17400.0
 20
19300.0
 30
0.0
  0
LINE
  5
EABC2557E039A80F
100
AcDbEntity
  8
SIMPLE
 62
     0
100
AcDbLine
 10
16600.0
 20
19599.9375
 30
0.0
 11
16600.0
 21
19399.82
 31
0.0
  0
LINE
  5
EABC2557E039A810
100
AcDbEntity
  8
SIMPLE
 62
     0
100
AcDbLine
 10
17400.0
 20
19300.0625
 30
0.0
 11
17400.0
 21
19400.18
 31
0.0
  0
TEXT
  5
EABC2557E039A816
100
AcDbEntity
  8
SIMPLE
 62
     0
100
AcDbText
 10
16999.382857
 20
19399.91
 30
0.0
 40
0.18
  1
800.0000
  7
SIMPLEX
 72
     1
 11
17000.0
 21
19399.91
 31
0.0
100
AcDbText
  0
SOLID
  5
EABC2557E039A811
100
AcDbEntity
  8
SIMPLE
 62
     0
100
AcDbTrace
 10
16600.18
 20
19399.97
 30
0.0
 11
16600.18
 21
19400.03
 31
0.0
 12
16600.0
 22
19400.0
 32
0.0
 13
16600.0
 23
19400.0
 33
0.0
  0
SOLID
  5
EABC2557E039A812
100
AcDbEntity
  8
SIMPLE
 62
     0
100
AcDbTrace
 10
17399.82
 20
19400.03
 30
0.0
 11
17399.82
 21
19399.97
 31
0.0
 12
17400.0
 22
19400.0
 32
0.0
 13
17400.0
 23
19400.0
 33
0.0
  0
LINE
  5
EABC2557E039A817
100
AcDbEntity
  8
SIMPLE
 62
     0
100
AcDbLine
 10
16600.18
 20
19400.0
 30
0.0
 11
16999.292857
 21
19400.0
 31
0.0
  0
LINE
  5
EABC2557E039A818
100
AcDbEntity
  8
SIMPLE
 62
     0
100
AcDbLine
 10
17000.707143
 20
19400.0
 30
0.0
 11
17399.82
 21
19400.0
 31
0.0
  0
ENDBLK
  5
EABC2557E039A81D
100
AcDbEntity
  8
SIMPLE
 62
     5
100
AcDbBlockEnd
  0
BLOCK
  5
EABC2557E039A82B
100
AcDbEntity
  8
SIMPLE
  6
CONTINUOUS
 62
     5
100
AcDbBlockBegin
  2
*D6
 70
     1
 10
0.0
 20
0.0
 30
0.0
  1

  0
POINT
  5
EABC2557E039A824
100
AcDbEntity
  8
SIMPLE
  6
CONTINUOUS
 62
     0
100
AcDbPoint
 10
16800.0
 20
19500.0
 30
0.0
  0
POINT
  5
EABC2557E039A825
100
AcDbEntity
  8
SIMPLE
  6
CONTINUOUS
 62
     0
100
AcDbPoint
 10
16900.0
 20
19500.0
 30
0.0
  0
LINE
  5
EABC2557E039A81F
100
AcDbEntity
  8
SIMPLE
  6
CONTINUOUS
 62
     0
100
AcDbLine
 10
16800.0
 20
19499.9375
 30
0.0
 11
16800.0
 21
19399.82
 31
0.0
  0
LINE
  5
EABC2557E039A820
100
AcDbEntity
  8
SIMPLE
  6
CONTINUOUS
 62
     0
100
AcDbLine
 10
16900.0
 20
19499.9375
 30
0.0
 11
16900.0
 21
19399.82
 31
0.0
  0
TEXT
  5
EABC2557E039A826
100
AcDbEntity
  8
SIMPLE
  6
CONTINUOUS
 62
     0
100
AcDbText
 10
16999.4
 20
19399.91
 30
0.0
 40
0.18
  1
100.0000
  7
SIMPLEX
 72
     1
 11
17000.0
 21
19399.91
 31
0.0
100
AcDbText
  0
SOLID
  5
EABC2557E039A821
100
AcDbEntity
  8
SIMPLE
  6
CONTINUOUS
 62
     0
100
AcDbTrace
 10
16800.18
 20
19399.97
 30
0.0
 11
16800.18
 21
19400.03
 31
0.0
 12
16800.0
 22
19400.0
 32
0.0
 13
16800.0
 23
19400.0
 33
0.0
  0
SOLID
  5
EABC2557E039A822
100
AcDbEntity
  8
SIMPLE
  6
CONTINUOUS
 62
     0
100
AcDbTrace
 10
16899.82
 20
19400.03
 30
0.0
 11
16899.82
 21
19399.97
 31
0.0
 12
16900.0
 22
19400.0
 32
0.0
 13
16900.0
 23
19400.0
 33
0.0
  0
LINE
  5
EABC2557E039A827
100
AcDbEntity
  8
SIMPLE
  6
CONTINUOUS
 62
     0
100
AcDbLine
 10
16800.18
 20
19400.0
 30
0.0
 11
16899.82
 21
19400.0
 31
0.0
  0
ENDBLK
  5
EABC2557E039A82D
100
AcDbEntity
  8
SIMPLE
  6
CONTINUOUS
 62
     5
100
AcDbBlockEnd
  0
BLOCK
  5
EABC2557E039A83B
100
AcDbEntity
  8
SIMPLE
  6
CONTINUOUS
 62
     5
100
AcDbBlockBegin
  2
*D7
 70
     1
 10
0.0
 20
0.0
 30
0.0
  1

  0
POINT
  5
EABC2557E039A834
100
AcDbEntity
  8
SIMPLE
  6
CONTINUOUS
 62
     0
100
AcDbPoint
 10
17000.0
 20
19400.0
 30
0.0
  0
POINT
  5
EABC2557E039A835
100
AcDbEntity
  8
SIMPLE
  6
CONTINUOUS
 62
     0
100
AcDbPoint
 10
17200.0
 20
19300.0
 30
0.0
  0
LINE
  5
EABC2557E039A82F
100
AcDbEntity
  8
SIMPLE
  6
CONTINUOUS
 62
     0
100
AcDbLine
 10
17000.0
 20
19350.0
 30
0.0
 11
17000.0
 21
19250.0
 31
0.0
  0
LINE
  5
EABC2557E039A830
100
AcDbEntity
  8
SIMPLE
  6
CONTINUOUS
 62
     0
100
AcDbLine
 10
17200.0
 20
19250.0
 30
0.0
 11
17200.0
 21
19250.0
 31
0.0
  0
TEXT
  5
EABC2557E039A836
100
AcDbEntity
  8
SIMPLE
  6
CONTINUOUS
 62
     0
100
AcDbText
 10
16757.142857
 20
19250.0
 30
0.0
 40
100.0
  1
200.0000
  7
SIMPLEX
 72
     1
 11
17100.0
 21
19250.0
 31
0.0
100
AcDbText
  0
SOLID
  5
EABC2557E039A831
100
AcDbEntity
  8
SIMPLE
  6
CONTINUOUS
 62
     0
100
AcDbTrace
 10
17020.0
 20
19296.666667
 30
0.0
 11
17020.0
 21
19303.333333
 31
0.0
 12
17000.0
 22
19300.0
 32
0.0
 13
17000.0
 23
19300.0
 33
0.0
  0
SOLID
  5
EABC2557E039A832
100
AcDbEntity
  8
SIMPLE
  6
CONTINUOUS
 62
     0
100
AcDbTrace
 10
17180.0
 20
19303.333333
 30
0.0
 11
17180.0
 21
19296.666667
 31
0.0
 12
17200.0
 22
19300.0
 32
0.0
 13
17200.0
 23
19300.0
 33
0.0
  0
LINE
  5
EABC2557E039A837
100
AcDbEntity
  8
SIMPLE
  6
CONTINUOUS
 62
     0
100
AcDbLine
 10
17020.0
 20
19300.0
 30
0.0
 11
17180.0
 21
19300.0
 31
0.0
  0
ENDBLK
  5
EABC2557E039A83D
100
AcDbEntity
  8
SIMPLE
  6
CONTINUOUS
 62
     5
100
AcDbBlockEnd
  0
BLOCK
  5
EABC2557E039A84C
100
AcDbEntity
  8
SIMPLE
  6
CONTINUOUS
 62
     5
100
AcDbBlockBegin
  2
*D8
 70
     1
 10
0.0
 20
0.0
 30
0.0
  1

  0
POINT
  5
EABC2557E039A845
100
AcDbEntity
  8
SIMPLE
  6
CONTINUOUS
 62
     0
100
AcDbPoint
 10
15099.0
 20
19600.0
 30
0.0
  0
POINT
  5
EABC2557E039A846
100
AcDbEntity
  8
SIMPLE
  6
CONTINUOUS
 62
     0
100
AcDbPoint
 10
23099.0
 20
19600.0
 30
0.0
  0
LINE
  5
EABC2557E039A840
100
AcDbEntity
  8
SIMPLE
  6
CONTINUOUS
 62
     0
100
AcDbLine
 10
15099.0
 20
19650.0
 30
0.0
 11
15099.0
 21
20850.0
 31
0.0
  0
LINE
  5
EABC2557E039A841
100
AcDbEntity
  8
SIMPLE
  6
CONTINUOUS
 62
     0
100
AcDbLine
 10
23099.0
 20
19650.0
 30
0.0
 11
23099.0
 21
20850.0
 31
0.0
  0
TEXT
  5
EABC2557E039A847
100
AcDbEntity
  8
SIMPLE
  6
CONTINUOUS
 62
     0
100
AcDbText
 10
18708.52381
 20
20750.0
 30
0.0
 40
100.0
  1
8000.0000
  7
SIMPLEX
 72
     1
 11
19099.0
 21
20750.0
 31
0.0
100
AcDbText
  0
SOLID
  5
EABC2557E039A842
100
AcDbEntity
  8
SIMPLE
  6
CONTINUOUS
 62
     0
100
AcDbTrace
 10
15119.0
 20
20796.666667
 30
0.0
 11
15119.0
 21
20803.333333
 31
0.0
 12
15099.0
 22
20800.0
 32
0.0
 13
15099.0
 23
20800.0
 33
0.0
  0
SOLID
  5
EABC2557E039A843
100
AcDbEntity
  8
SIMPLE
  6
CONTINUOUS
 62
     0
100
AcDbTrace
 10
23079.0
 20
20803.333333
 30
0.0
 11
23079.0
 21
20796.666667
 31
0.0
 12
23099.0
 22
20800.0
 32
0.0
 13
23099.0
 23
20800.0
 33
0.0
  0
LINE
  5
EABC2557E039A848
100
AcDbEntity
  8
SIMPLE
  6
CONTINUOUS
 62
     0
100
AcDbLine
 10
15119.0
 20
20800.0
 30
0.0
 11
18708.43381
 21
20800.0
 31
0.0
  0
LINE
  5
EABC2557E039A849
100
AcDbEntity
  8
SIMPLE
  6
CONTINUOUS
 62
     0
100
AcDbLine
 10
19489.56619
 20
20800.0
 30
0.0
 11
23079.0
 21
20800.0
 31
0.0
  0
ENDBLK
  5
EABC2557E039A84E
100
AcDbEntity
  8
SIMPLE
  6
CONTINUOUS
 62
     5
100
AcDbBlockEnd
  0
BLOCK
  5
EABC2557E039A85B
100
AcDbEntity
  8
SIMPLE
  6
CONTINUOUS
 62
     5
100
AcDbBlockBegin
  2
*D9
 70
     1
 10
0.0
 20
0.0
 30
0.0
  1

  0
POINT
  5
EABC2557E039A854
100
AcDbEntity
  8
SIMPLE
  6
CONTINUOUS
 62
     0
100
AcDbPoint
 10
15099.0
 20
19600.0
 30
0.0
  0
POINT
  5
EABC2557E039A855
100
AcDbEntity
  8
SIMPLE
  6
CONTINUOUS
 62
     0
100
AcDbPoint
 10
23099.0
 20
19600.0
 30
0.0
  0
LINE
  5
EABC2557E039A84F
100
AcDbEntity
  8
SIMPLE
  6
CONTINUOUS
 62
     0
100
AcDbLine
 10
15099.0
 20
19650.0
 30
0.0
 11
15099.0
 21
20850.0
 31
0.0
  0
LINE
  5
EABC2557E039A850
100
AcDbEntity
  8
SIMPLE
  6
CONTINUOUS
 62
     0
100
AcDbLine
 10
23099.0
 20
19650.0
 30
0.0
 11
23099.0
 21
20850.0
 31
0.0
  0
TEXT
  5
EABC2557E039A856
100
AcDbEntity
  8
SIMPLE
  6
CONTINUOUS
 62
     0
100
AcDbText
 10
18708.52381
 20
20750.0
 30
0.0
 40
100.0
  1
8000.0000
  7
SIMPLEX
 72
     1
 11
19099.0
 21
20750.0
 31
0.0
100
AcDbText
  0
SOLID
  5
EABC2557E039A851
100
AcDbEntity
  8
SIMPLE
  6
CONTINUOUS
 62
     0
100
AcDbTrace
 10
15199.0
 20
20783.333333
 30
0.0
 11
15199.0
 21
20816.666667
 31
0.0
 12
15099.0
 22
20800.0
 32
0.0
 13
15099.0
 23
20800.0
 33
0.0
  0
SOLID
  5
EABC2557E039A852
100
AcDbEntity
  8
SIMPLE
  6
CONTINUOUS
 62
     0
100
AcDbTrace
 10
22999.0
 20
20816.666667
 30
0.0
 11
22999.0
 21
20783.333333
 31
0.0
 12
23099.0
 22
20800.0
 32
0.0
 13
23099.0
 23
20800.0
 33
0.0
  0
LINE
  5
EABC2557E039A857
100
AcDbEntity
  8
SIMPLE
  6
CONTINUOUS
 62
     0
100
AcDbLine
 10
15199.0
 20
20800.0
 30
0.0
 11
18708.43381
 21
20800.0
 31
0.0
  0
LINE
  5
EABC2557E039A858
100
AcDbEntity
  8
SIMPLE
  6
CONTINUOUS
 62
     0
100
AcDbLine
 10
19489.56619
 20
20800.0
 30
0.0
 11
22999.0
 21
20800.0
 31
0.0
  0
ENDBLK
  5
EABC2557E039A85D
100
AcDbEntity
  8
SIMPLE
  6
CONTINUOUS
 62
     5
100
AcDbBlockEnd
  0
BLOCK
  5
EABC2557E039A86A
100
AcDbEntity
  8
SIMPLE
  6
CONTINUOUS
 62
     5
100
AcDbBlockBegin
  2
*D10
 70
     1
 10
0.0
 20
0.0
 30
0.0
  1

  0
POINT
  5
EABC2557E039A863
100
AcDbEntity
  8
SIMPLE
  6
CONTINUOUS
 62
     0
100
AcDbPoint
 10
15099.0
 20
19600.0
 30
0.0
  0
POINT
  5
EABC2557E039A864
100
AcDbEntity
  8
SIMPLE
  6
CONTINUOUS
 62
     0
100
AcDbPoint
 10
23099.0
 20
19600.0
 30
0.0
  0
LINE
  5
EABC2557E039A85E
100
AcDbEntity
  8
SIMPLE
  6
CONTINUOUS
 62
     0
100
AcDbLine
 10
15099.0
 20
19650.0
 30
0.0
 11
15099.0
 21
20850.0
 31
0.0
  0
LINE
  5
EABC2557E039A85F
100
AcDbEntity
  8
SIMPLE
  6
CONTINUOUS
 62
     0
100
AcDbLine
 10
23099.0
 20
19650.0
 30
0.0
 11
23099.0
 21
20850.0
 31
0.0
  0
TEXT
  5
EABC2557E039A865
100
AcDbEntity
  8
SIMPLE
  6
CONTINUOUS
 62
     0
100
AcDbText
 10
18708.52381
 20
20750.0
 30
0.0
 40
100.0
  1
8000.0000
  7
SIMPLEX
 72
     1
 11
19099.0
 21
20750.0
 31
0.0
100
AcDbText
  0
SOLID
  5
EABC2557E039A860
100
AcDbEntity
  8
SIMPLE
  6
CONTINUOUS
 62
     0
100
AcDbTrace
 10
15199.0
 20
20783.333333
 30
0.0
 11
15199.0
 21
20816.666667
 31
0.0
 12
15099.0
 22
20800.0
 32
0.0
 13
15099.0
 23
20800.0
 33
0.0
  0
SOLID
  5
EABC2557E039A861
100
AcDbEntity
  8
SIMPLE
  6
CONTINUOUS
 62
     0
100
AcDbTrace
 10
22999.0
 20
20816.666667
 30
0.0
 11
22999.0
 21
20783.333333
 31
0.0
 12
23099.0
 22
20800.0
 32
0.0
 13
23099.0
 23
20800.0
 33
0.0
  0
LINE
  5
EABC2557E039A866
100
AcDbEntity
  8
SIMPLE
  6
CONTINUOUS
 62
     0
100
AcDbLine
 10
15199.0
 20
20800.0
 30
0.0
 11
18708.43381
 21
20800.0
 31
0.0
  0
LINE
  5
EABC2557E039A867
100
AcDbEntity
  8
SIMPLE
  6
CONTINUOUS
 62
     0
100
AcDbLine
 10
19489.56619
 20
20800.0
 30
0.0
 11
22999.0
 21
20800.0
 31
0.0
  0
ENDBLK
  5
EABC2557E039A86C
100
AcDbEntity
  8
SIMPLE
  6
CONTINUOUS
 62
     5
100
AcDbBlockEnd
  0
BLOCK
  5
EABC2557E039A87A
100
AcDbEntity
  8
SIMPLE
  6
CONTINUOUS
 62
     5
100
AcDbBlockBegin
  2
*D11
 70
     1
 10
0.0
 20
0.0
 30
0.0
  1

  0
POINT
  5
EABC2557E039A873
100
AcDbEntity
  8
SIMPLE
  6
CONTINUOUS
 62
     0
100
AcDbPoint
 10
15100.0
 20
18800.0
 30
0.0
  0
POINT
  5
EABC2557E039A874
100
AcDbEntity
  8
SIMPLE
  6
CONTINUOUS
 62
     0
100
AcDbPoint
 10
16000.0
 20
18000.0
 30
0.0
  0
LINE
  5
EABC2557E039A86E
100
AcDbEntity
  8
SIMPLE
  6
CONTINUOUS
 62
     0
100
AcDbLine
 10
15100.0
 20
18850.0
 30
0.0
 11
15100.0
 21
20250.0
 31
0.0
  0
LINE
  5
EABC2557E039A86F
100
AcDbEntity
  8
SIMPLE
  6
CONTINUOUS
 62
     0
100
AcDbLine
 10
16000.0
 20
18050.0
 30
0.0
 11
16000.0
 21
20250.0
 31
0.0
  0
TEXT
  5
EABC2557E039A875
100
AcDbEntity
  8
SIMPLE
  6
CONTINUOUS
 62
     0
100
AcDbText
 10
15207.142857
 20
20150.0
 30
0.0
 40
100.0
  1
900.0000
  7
SIMPLEX
 72
     1
 11
15550.0
 21
20150.0
 31
0.0
100
AcDbText
  0
SOLID
  5
EABC2557E039A870
100
AcDbEntity
  8
SIMPLE
  6
CONTINUOUS
 62
     0
100
AcDbTrace
 10
15200.0
 20
20183.333333
 30
0.0
 11
15200.0
 21
20216.666667
 31
0.0
 12
15100.0
 22
20200.0
 32
0.0
 13
15100.0
 23
20200.0
 33
0.0
  0
SOLID
  5
EABC2557E039A871
100
AcDbEntity
  8
SIMPLE
  6
CONTINUOUS
 62
     0
100
AcDbTrace
 10
15900.0
 20
20216.666667
 30
0.0
 11
15900.0
 21
20183.333333
 31
0.0
 12
16000.0
 22
20200.0
 32
0.0
 13
16000.0
 23
20200.0
 33
0.0
  0
LINE
  5
EABC2557E039A876
100
AcDbEntity
  8
SIMPLE
  6
CONTINUOUS
 62
     0
100
AcDbLine
 10
15200.0
 20
20200.0
 30
0.0
 11
15207.052857
 21
20200.0
 31
0.0
  0
LINE
  5
EABC2557E039A877
100
AcDbEntity
  8
SIMPLE
  6
CONTINUOUS
 62
     0
100
AcDbLine
 10
15892.947143
 20
20200.0
 30
0.0
 11
15900.0
 21
20200.0
 31
0.0
  0
ENDBLK
  5
EABC2557E039A87C
100
AcDbEntity
  8
SIMPLE
  6
CONTINUOUS
 62
     5
100
AcDbBlockEnd
  0
BLOCK
  5
EABC2557E039A88A
100
AcDbEntity
  8
SIMPLE
  6
CONTINUOUS
 62
     5
100
AcDbBlockBegin
  2
*D12
 70
     1
 10
0.0
 20
0.0
 30
0.0
  1

  0
POINT
  5
EABC2557E039A883
100
AcDbEntity
  8
SIMPLE
  6
CONTINUOUS
 62
     0
100
AcDbPoint
 10
16200.0
 20
15900.0
 30
0.0
  0
POINT
  5
EABC2557E039A884
100
AcDbEntity
  8
SIMPLE
  6
CONTINUOUS
 62
     0
100
AcDbPoint
 10
17600.0
 20
15900.0
 30
0.0
  0
LINE
  5
EABC2557E039A87E
100
AcDbEntity
  8
SIMPLE
  6
CONTINUOUS
 62
     0
100
AcDbLine
 10
16200.0
 20
15950.0
 30
0.0
 11
16200.0
 21
20250.0
 31
0.0
  0
LINE
  5
EABC2557E039A87F
100
AcDbEntity
  8
SIMPLE
  6
CONTINUOUS
 62
     0
100
AcDbLine
 10
17600.0
 20
15950.0
 30
0.0
 11
17600.0
 21
20250.0
 31
0.0
  0
TEXT
  5
EABC2557E039A885
100
AcDbEntity
  8
SIMPLE
  6
CONTINUOUS
 62
     0
100
AcDbText
 10
16519.047619
 20
20150.0
 30
0.0
 40
100.0
  1
1400.0000
  7
SIMPLEX
 72
     1
 11
16900.0
 21
20150.0
 31
0.0
100
AcDbText
  0
SOLID
  5
EABC2557E039A880
100
AcDbEntity
  8
SIMPLE
  6
CONTINUOUS
 62
     0
100
AcDbTrace
 10
16300.0
 20
20183.333333
 30
0.0
 11
16300.0
 21
20216.666667
 31
0.0
 12
16200.0
 22
20200.0
 32
0.0
 13
16200.0
 23
20200.0
 33
0.0
  0
SOLID
  5
EABC2557E039A881
100
AcDbEntity
  8
SIMPLE
  6
CONTINUOUS
 62
     0
100
AcDbTrace
 10
17500.0
 20
20216.666667
 30
0.0
 11
17500.0
 21
20183.333333
 31
0.0
 12
17600.0
 22
20200.0
 32
0.0
 13
17600.0
 23
20200.0
 33
0.0
  0
LINE
  5
EABC2557E039A886
100
AcDbEntity
  8
SIMPLE
  6
CONTINUOUS
 62
     0
100
AcDbLine
 10
16300.0
 20
20200.0
 30
0.0
 11
16518.957619
 21
20200.0
 31
0.0
  0
LINE
  5
EABC2557E039A887
100
AcDbEntity
  8
SIMPLE
  6
CONTINUOUS
 62
     0
100
AcDbLine
 10
17281.042381
 20
20200.0
 30
0.0
 11
17500.0
 21
20200.0
 31
0.0
  0
ENDBLK
  5
EABC2557E039A88C
100
AcDbEntity
  8
SIMPLE
  6
CONTINUOUS
 62
     5
100
AcDbBlockEnd
  0
BLOCK
  5
EABC2557E039A8B4
100
AcDbEntity
  8
SIMPLE
  6
CONTINUOUS
 62
     5
100
AcDbBlockBegin
  2
*D13
 70
     1
 10
0.0
 20
0.0
 30
0.0
  1

  0
POINT
  5
EABC2557E039A8AD
100
AcDbEntity
  8
SIMPLE
  6
CONTINUOUS
 62
     0
100
AcDbPoint
 10
16200.0
 20
15900.0
 30
0.0
  0
POINT
  5
EABC2557E039A8AE
100
AcDbEntity
  8
SIMPLE
  6
CONTINUOUS
 62
     0
100
AcDbPoint
 10
17400.0
 20
15900.0
 30
0.0
  0
LINE
  5
EABC2557E039A8A8
100
AcDbEntity
  8
SIMPLE
  6
CONTINUOUS
 62
     0
100
AcDbLine
 10
16200.0
 20
15950.0
 30
0.0
 11
16200.0
 21
20250.0
 31
0.0
  0
LINE
  5
EABC2557E039A8A9
100
AcDbEntity
  8
SIMPLE
  6
CONTINUOUS
 62
     0
100
AcDbLine
 10
17400.0
 20
15950.0
 30
0.0
 11
17400.0
 21
20250.0
 31
0.0
  0
TEXT
  5
EABC2557E039A8AF
100
AcDbEntity
  8
SIMPLE
  6
CONTINUOUS
 62
     0
100
AcDbText
 10
16419.047619
 20
20150.0
 30
0.0
 40
100.0
  1
1200.0000
  7
SIMPLEX
 72
     1
 11
16800.0
 21
20150.0
 31
0.0
100
AcDbText
  0
SOLID
  5
EABC2557E039A8AA
100
AcDbEntity
  8
SIMPLE
  6
CONTINUOUS
 62
     0
100
AcDbTrace
 10
16300.0
 20
20183.333333
 30
0.0
 11
16300.0
 21
20216.666667
 31
0.0
 12
16200.0
 22
20200.0
 32
0.0
 13
16200.0
 23
20200.0
 33
0.0
  0
SOLID
  5
EABC2557E039A8AB
100
AcDbEntity
  8
SIMPLE
  6
CONTINUOUS
 62
     0
100
AcDbTrace
 10
17300.0
 20
20216.666667
 30
0.0
 11
17300.0
 21
20183.333333
 31
0.0
 12
17400.0
 22
20200.0
 32
0.0
 13
17400.0
 23
20200.0
 33
0.0
  0
LINE
  5
EABC2557E039A8B0
100
AcDbEntity
  8
SIMPLE
  6
CONTINUOUS
 62
     0
100
AcDbLine
 10
16300.0
 20
20200.0
 30
0.0
 11
16418.957619
 21
20200.0
 31
0.0
  0
LINE
  5
EABC2557E039A8B1
100
AcDbEntity
  8
SIMPLE
  6
CONTINUOUS
 62
     0
100
AcDbLine
 10
17181.042381
 20
20200.0
 30
0.0
 11
17300.0
 21
20200.0
 31
0.0
  0
ENDBLK
  5
EABC2557E039A8B6
100
AcDbEntity
  8
SIMPLE
  6
CONTINUOUS
 62
     5
100
AcDbBlockEnd
  0
BLOCK
  5
EABC2557E039A8C4
100
AcDbEntity
  8
SIMPLE
  6
CONTINUOUS
 62
     5
100
AcDbBlockBegin
  2
*D14
 70
     1
 10
0.0
 20
0.0
 30
0.0
  1

  0
POINT
  5
EABC2557E039A8BD
100
AcDbEntity
  8
SIMPLE
  6
CONTINUOUS
 62
     0
100
AcDbPoint
 10
17600.0
 20
14000.0
 30
0.0
  0
POINT
  5
EABC2557E039A8BE
100
AcDbEntity
  8
SIMPLE
  6
CONTINUOUS
 62
     0
100
AcDbPoint
 10
17600.0
 20
20200.0
 30
0.0
  0
LINE
  5
EABC2557E039A8B8
100
AcDbEntity
  8
SIMPLE
  6
CONTINUOUS
 62
     0
100
AcDbLine
 10
17600.0
 20
14050.0
 30
0.0
 11
17600.0
 21
20250.0
 31
0.0
  0
LINE
  5
EABC2557E039A8B9
100
AcDbEntity
  8
SIMPLE
  6
CONTINUOUS
 62
     0
100
AcDbLine
 10
17600.0
 20
20150.0
 30
0.0
 11
17600.0
 21
20150.0
 31
0.0
  0
TEXT
  5
EABC2557E039A8BF
100
AcDbEntity
  8
SIMPLE
  6
CONTINUOUS
 62
     0
100
AcDbText
 10
17600.18
 20
20150.0
 30
0.0
 40
100.0
  1
3.7963E-013
  7
SIMPLEX
 72
     1
 11
18088.275238
 21
20150.0
 31
0.0
100
AcDbText
  0
SOLID
  5
EABC2557E039A8BA
100
AcDbEntity
  8
SIMPLE
  6
CONTINUOUS
 62
     0
100
AcDbTrace
 10
17700.0
 20
20183.333333
 30
0.0
 11
17700.0
 21
20216.666667
 31
0.0
 12
17600.0
 22
20200.0
 32
0.0
 13
17600.0
 23
20200.0
 33
0.0
  0
SOLID
  5
EABC2557E039A8BB
100
AcDbEntity
  8
SIMPLE
  6
CONTINUOUS
 62
     0
100
AcDbTrace
 10
17500.0
 20
20216.666667
 30
0.0
 11
17500.0
 21
20183.333333
 31
0.0
 12
17600.0
 22
20200.0
 32
0.0
 13
17600.0
 23
20200.0
 33
0.0
  0
LINE
  5
EABC2557E039A8C0
100
AcDbEntity
  8
SIMPLE
  6
CONTINUOUS
 62
     0
100
AcDbLine
 10
17600.0
 20
20200.0
 30
0.0
 11
17600.0
 21
20200.0
 31
0.0
  0
LINE
  5
EABC2557E039A8C1
100
AcDbEntity
  8
SIMPLE
  6
CONTINUOUS
 62
     0
100
AcDbLine
 10
17600.0
 20
20200.0
 30
0.0
 11
17600.0
 21
20200.0
 31
0.0
  0
ENDBLK
  5
EABC2557E039A8C6
100
AcDbEntity
  8
SIMPLE
  6
CONTINUOUS
 62
     5
100
AcDbBlockEnd
  0
BLOCK
  5
EABC2557E039A8D4
100
AcDbEntity
  8
SIMPLE
  6
CONTINUOUS
 62
     5
100
AcDbBlockBegin
  2
*D15
 70
     1
 10
0.0
 20
0.0
 30
0.0
  1

  0
POINT
  5
EABC2557E039A8CD
100
AcDbEntity
  8
SIMPLE
  6
CONTINUOUS
 62
     0
100
AcDbPoint
 10
17600.0
 20
14500.0
 30
0.0
  0
POINT
  5
EABC2557E039A8CE
100
AcDbEntity
  8
SIMPLE
  6
CONTINUOUS
 62
     0
100
AcDbPoint
 10
18000.0
 20
20200.0
 30
0.0
  0
LINE
  5
EABC2557E039A8C8
100
AcDbEntity
  8
SIMPLE
  6
CONTINUOUS
 62
     0
100
AcDbLine
 10
17600.0
 20
14550.0
 30
0.0
 11
17600.0
 21
20250.0
 31
0.0
  0
LINE
  5
EABC2557E039A8C9
100
AcDbEntity
  8
SIMPLE
  6
CONTINUOUS
 62
     0
100
AcDbLine
 10
18000.0
 20
20150.0
 30
0.0
 11
18000.0
 21
20150.0
 31
0.0
  0
TEXT
  5
EABC2557E039A8CF
100
AcDbEntity
  8
SIMPLE
  6
CONTINUOUS
 62
     0
100
AcDbText
 10
18200.18
 20
20150.0
 30
0.0
 40
100.0
  1
400.0000
  7
SIMPLEX
 72
     1
 11
18543.037143
 21
20150.0
 31
0.0
100
AcDbText
  0
SOLID
  5
EABC2557E039A8CA
100
AcDbEntity
  8
SIMPLE
  6
CONTINUOUS
 62
     0
100
AcDbTrace
 10
17500.0
 20
20216.666667
 30
0.0
 11
17500.0
 21
20183.333333
 31
0.0
 12
17600.0
 22
20200.0
 32
0.0
 13
17600.0
 23
20200.0
 33
0.0
  0
SOLID
  5
EABC2557E039A8CB
100
AcDbEntity
  8
SIMPLE
  6
CONTINUOUS
 62
     0
100
AcDbTrace
 10
18100.0
 20
20183.333333
 30
0.0
 11
18100.0
 21
20216.666667
 31
0.0
 12
18000.0
 22
20200.0
 32
0.0
 13
18000.0
 23
20200.0
 33
0.0
  0
LINE
  5
EABC2557E039A8D0
100
AcDbEntity
  8
SIMPLE
  6
CONTINUOUS
 62
     0
100
AcDbLine
 10
17500.0
 20
20200.0
 30
0.0
 11
17400.0
 21
20200.0
 31
0.0
  0
LINE
  5
EABC2557E039A8D1
100
AcDbEntity
  8
SIMPLE
  6
CONTINUOUS
 62
     0
100
AcDbLine
 10
18100.0
 20
20200.0
 30
0.0
 11
18200.0
 21
20200.0
 31
0.0
  0
ENDBLK
  5
EABC2557E039A8D6
100
AcDbEntity
  8
SIMPLE
  6
CONTINUOUS
 62
     5
100
AcDbBlockEnd
  0
BLOCK
  5
EABC2557E039A8E4
100
AcDbEntity
  8
SIMPLE
  6
CONTINUOUS
 62
     5
100
AcDbBlockBegin
  2
*D16
 70
     1
 10
0.0
 20
0.0
 30
0.0
  1

  0
POINT
  5
EABC2557E039A8DD
100
AcDbEntity
  8
SIMPLE
  6
CONTINUOUS
 62
     0
100
AcDbPoint
 10
17600.0
 20
14000.0
 30
0.0
  0
POINT
  5
EABC2557E039A8DE
100
AcDbEntity
  8
SIMPLE
  6
CONTINUOUS
 62
     0
100
AcDbPoint
 10
18000.0
 20
14000.0
 30
0.0
  0
LINE
  5
EABC2557E039A8D8
100
AcDbEntity
  8
SIMPLE
  6
CONTINUOUS
 62
     0
100
AcDbLine
 10
17600.0
 20
14050.0
 30
0.0
 11
17600.0
 21
20250.0
 31
0.0
  0
LINE
  5
EABC2557E039A8D9
100
AcDbEntity
  8
SIMPLE
  6
CONTINUOUS
 62
     0
100
AcDbLine
 10
18000.0
 20
14050.0
 30
0.0
 11
18000.0
 21
20250.0
 31
0.0
  0
TEXT
  5
EABC2557E039A8DF
100
AcDbEntity
  8
SIMPLE
  6
CONTINUOUS
 62
     0
100
AcDbText
 10
18200.18
 20
20150.0
 30
0.0
 40
100.0
  1
400.0000
  7
SIMPLEX
 72
     1
 11
18543.037143
 21
20150.0
 31
0.0
100
AcDbText
  0
SOLID
  5
EABC2557E039A8DA
100
AcDbEntity
  8
SIMPLE
  6
CONTINUOUS
 62
     0
100
AcDbTrace
 10
17500.0
 20
20216.666667
 30
0.0
 11
17500.0
 21
20183.333333
 31
0.0
 12
17600.0
 22
20200.0
 32
0.0
 13
17600.0
 23
20200.0
 33
0.0
  0
SOLID
  5
EABC2557E039A8DB
100
AcDbEntity
  8
SIMPLE
  6
CONTINUOUS
 62
     0
100
AcDbTrace
 10
18100.0
 20
20183.333333
 30
0.0
 11
18100.0
 21
20216.666667
 31
0.0
 12
18000.0
 22
20200.0
 32
0.0
 13
18000.0
 23
20200.0
 33
0.0
  0
LINE
  5
EABC2557E039A8E0
100
AcDbEntity
  8
SIMPLE
  6
CONTINUOUS
 62
     0
100
AcDbLine
 10
17500.0
 20
20200.0
 30
0.0
 11
17400.0
 21
20200.0
 31
0.0
  0
LINE
  5
EABC2557E039A8E1
100
AcDbEntity
  8
SIMPLE
  6
CONTINUOUS
 62
     0
100
AcDbLine
 10
18100.0
 20
20200.0
 30
0.0
 11
18200.0
 21
20200.0
 31
0.0
  0
ENDBLK
  5
EABC2557E039A8E6
100
AcDbEntity
  8
SIMPLE
  6
CONTINUOUS
 62
     5
100
AcDbBlockEnd
  0
BLOCK
  5
EABC2557E039A8F4
100
AcDbEntity
  8
SIMPLE
  6
CONTINUOUS
 62
     5
100
AcDbBlockBegin
  2
*D17
 70
     1
 10
0.0
 20
0.0
 30
0.0
  1

  0
POINT
  5
EABC2557E039A8ED
100
AcDbEntity
  8
SIMPLE
  6
CONTINUOUS
 62
     0
100
AcDbPoint
 10
21800.0
 20
15900.0
 30
0.0
  0
POINT
  5
EABC2557E039A8EE
100
AcDbEntity
  8
SIMPLE
  6
CONTINUOUS
 62
     0
100
AcDbPoint
 10
21100.0
 20
20200.0
 30
0.0
  0
LINE
  5
EABC2557E039A8E8
100
AcDbEntity
  8
SIMPLE
  6
CONTINUOUS
 62
     0
100
AcDbLine
 10
21800.0
 20
15950.0
 30
0.0
 11
21800.0
 21
20250.0
 31
0.0
  0
LINE
  5
EABC2557E039A8E9
100
AcDbEntity
  8
SIMPLE
  6
CONTINUOUS
 62
     0
100
AcDbLine
 10
21100.0
 20
20150.0
 30
0.0
 11
21100.0
 21
20150.0
 31
0.0
  0
TEXT
  5
EABC2557E039A8EF
100
AcDbEntity
  8
SIMPLE
  6
CONTINUOUS
 62
     0
100
AcDbText
 10
20214.105714
 20
20150.0
 30
0.0
 40
100.0
  1
700.0000
  7
SIMPLEX
 72
     1
 11
20556.962857
 21
20150.0
 31
0.0
100
AcDbText
  0
SOLID
  5
EABC2557E039A8EA
100
AcDbEntity
  8
SIMPLE
  6
CONTINUOUS
 62
     0
100
AcDbTrace
 10
21900.0
 20
20183.333333
 30
0.0
 11
21900.0
 21
20216.666667
 31
0.0
 12
21800.0
 22
20200.0
 32
0.0
 13
21800.0
 23
20200.0
 33
0.0
  0
SOLID
  5
EABC2557E039A8EB
100
AcDbEntity
  8
SIMPLE
  6
CONTINUOUS
 62
     0
100
AcDbTrace
 10
21000.0
 20
20216.666667
 30
0.0
 11
21000.0
 21
20183.333333
 31
0.0
 12
21100.0
 22
20200.0
 32
0.0
 13
21100.0
 23
20200.0
 33
0.0
  0
LINE
  5
EABC2557E039A8F0
100
AcDbEntity
  8
SIMPLE
  6
CONTINUOUS
 62
     0
100
AcDbLine
 10
21900.0
 20
20200.0
 30
0.0
 11
22000.0
 21
20200.0
 31
0.0
  0
LINE
  5
EABC2557E039A8F1
100
AcDbEntity
  8
SIMPLE
  6
CONTINUOUS
 62
     0
100
AcDbLine
 10
21000.0
 20
20200.0
 30
0.0
 11
20900.0
 21
20200.0
 31
0.0
  0
ENDBLK
  5
EABC2557E039A8F6
100
AcDbEntity
  8
SIMPLE
  6
CONTINUOUS
 62
     5
100
AcDbBlockEnd
  0
BLOCK
  5
EABC2557E039A905
100
AcDbEntity
  8
SIMPLE
  6
CONTINUOUS
 62
     5
100
AcDbBlockBegin
  2
*D18
 70
     1
 10
0.0
 20
0.0
 30
0.0
  1

  0
POINT
  5
EABC2557E039A8FE
100
AcDbEntity
  8
SIMPLE
  6
CONTINUOUS
 62
     0
100
AcDbPoint
 10
21800.0
 20
15900.0
 30
0.0
  0
POINT
  5
EABC2557E039A8FF
100
AcDbEntity
  8
SIMPLE
  6
CONTINUOUS
 62
     0
100
AcDbPoint
 10
21000.0
 20
15900.0
 30
0.0
  0
LINE
  5
EABC2557E039A8F9
100
AcDbEntity
  8
SIMPLE
  6
CONTINUOUS
 62
     0
100
AcDbLine
 10
21800.0
 20
15950.0
 30
0.0
 11
21800.0
 21
20250.0
 31
0.0
  0
LINE
  5
EABC2557E039A8FA
100
AcDbEntity
  8
SIMPLE
  6
CONTINUOUS
 62
     0
100
AcDbLine
 10
21000.0
 20
15950.0
 30
0.0
 11
21000.0
 21
20250.0
 31
0.0
  0
TEXT
  5
EABC2557E039A900
100
AcDbEntity
  8
SIMPLE
  6
CONTINUOUS
 62
     0
100
AcDbText
 10
21057.142857
 20
20150.0
 30
0.0
 40
100.0
  1
800.0000
  7
SIMPLEX
 72
     1
 11
21400.0
 21
20150.0
 31
0.0
100
AcDbText
  0
SOLID
  5
EABC2557E039A8FB
100
AcDbEntity
  8
SIMPLE
  6
CONTINUOUS
 62
     0
100
AcDbTrace
 10
21700.0
 20
20216.666667
 30
0.0
 11
21700.0
 21
20183.333333
 31
0.0
 12
21800.0
 22
20200.0
 32
0.0
 13
21800.0
 23
20200.0
 33
0.0
  0
SOLID
  5
EABC2557E039A8FC
100
AcDbEntity
  8
SIMPLE
  6
CONTINUOUS
 62
     0
100
AcDbTrace
 10
21100.0
 20
20183.333333
 30
0.0
 11
21100.0
 21
20216.666667
 31
0.0
 12
21000.0
 22
20200.0
 32
0.0
 13
21000.0
 23
20200.0
 33
0.0
  0
LINE
  5
EABC2557E039A901
100
AcDbEntity
  8
SIMPLE
  6
CONTINUOUS
 62
     0
100
AcDbLine
 10
21700.0
 20
20200.0
 30
0.0
 11
21100.0
 21
20200.0
 31
0.0
  0
ENDBLK
  5
EABC2557E039A907
100
AcDbEntity
  8
SIMPLE
  6
CONTINUOUS
 62
     5
100
AcDbBlockEnd
  0
BLOCK
  5
EABC2557E039A915
100
AcDbEntity
  8
SIMPLE
  6
CONTINUOUS
 62
     5
100
AcDbBlockBegin
  2
*D19
 70
     1
 10
0.0
 20
0.0
 30
0.0
  1

  0
POINT
  5
EABC2557E039A90E
100
AcDbEntity
  8
SIMPLE
  6
CONTINUOUS
 62
     0
100
AcDbPoint
 10
15900.0
 20
15500.0
 30
0.0
  0
POINT
  5
EABC2557E039A90F
100
AcDbEntity
  8
SIMPLE
  6
CONTINUOUS
 62
     0
100
AcDbPoint
 10
14200.0
 20
15500.0
 30
0.0
  0
LINE
  5
EABC2557E039A909
100
AcDbEntity
  8
SIMPLE
  6
CONTINUOUS
 62
     0
100
AcDbLine
 10
15900.0
 20
15550.0
 30
0.0
 11
15900.0
 21
22550.0
 31
0.0
  0
LINE
  5
EABC2557E039A90A
100
AcDbEntity
  8
SIMPLE
  6
CONTINUOUS
 62
     0
100
AcDbLine
 10
14200.0
 20
15550.0
 30
0.0
 11
14200.0
 21
22550.0
 31
0.0
  0
TEXT
  5
EABC2557E039A910
100
AcDbEntity
  8
SIMPLE
  6
CONTINUOUS
 62
     0
100
AcDbText
 10
14669.047619
 20
22450.0
 30
0.0
 40
100.0
  1
1700.0000
  7
SIMPLEX
 72
     1
 11
15050.0
 21
22450.0
 31
0.0
100
AcDbText
  0
SOLID
  5
EABC2557E039A90B
100
AcDbEntity
  8
SIMPLE
  6
CONTINUOUS
 62
     0
100
AcDbTrace
 10
15800.0
 20
22516.666667
 30
0.0
 11
15800.0
 21
22483.333333
 31
0.0
 12
15900.0
 22
22500.0
 32
0.0
 13
15900.0
 23
22500.0
 33
0.0
  0
SOLID
  5
EABC2557E039A90C
100
AcDbEntity
  8
SIMPLE
  6
CONTINUOUS
 62
     0
100
AcDbTrace
 10
14300.0
 20
22483.333333
 30
0.0
 11
14300.0
 21
22516.666667
 31
0.0
 12
14200.0
 22
22500.0
 32
0.0
 13
14200.0
 23
22500.0
 33
0.0
  0
LINE
  5
EABC2557E039A911
100
AcDbEntity
  8
SIMPLE
  6
CONTINUOUS
 62
     0
100
AcDbLine
 10
15800.0
 20
22500.0
 30
0.0
 11
15431.042381
 21
22500.0
 31
0.0
  0
LINE
  5
EABC2557E039A912
100
AcDbEntity
  8
SIMPLE
  6
CONTINUOUS
 62
     0
100
AcDbLine
 10
14668.957619
 20
22500.0
 30
0.0
 11
14300.0
 21
22500.0
 31
0.0
  0
ENDBLK
  5
EABC2557E039A917
100
AcDbEntity
  8
SIMPLE
  6
CONTINUOUS
 62
     5
100
AcDbBlockEnd
  0
BLOCK
  5
EABC2557E039A925
100
AcDbEntity
  8
SIMPLE
  6
CONTINUOUS
 62
     5
100
AcDbBlockBegin
  2
*D20
 70
     1
 10
0.0
 20
0.0
 30
0.0
  1

  0
POINT
  5
EABC2557E039A91E
100
AcDbEntity
  8
SIMPLE
  6
CONTINUOUS
 62
     0
100
AcDbPoint
 10
16000.0
 20
18000.0
 30
0.0
  0
POINT
  5
EABC2557E039A91F
100
AcDbEntity
  8
SIMPLE
  6
CONTINUOUS
 62
     0
100
AcDbPoint
 10
14200.0
 20
18100.0
 30
0.0
  0
LINE
  5
EABC2557E039A919
100
AcDbEntity
  8
SIMPLE
  6
CONTINUOUS
 62
     0
100
AcDbLine
 10
16000.0
 20
18050.0
 30
0.0
 11
16000.0
 21
19550.0
 31
0.0
  0
LINE
  5
EABC2557E039A91A
100
AcDbEntity
  8
SIMPLE
  6
CONTINUOUS
 62
     0
100
AcDbLine
 10
14200.0
 20
18150.0
 30
0.0
 11
14200.0
 21
19550.0
 31
0.0
  0
TEXT
  5
EABC2557E039A920
100
AcDbEntity
  8
SIMPLE
  6
CONTINUOUS
 62
     0
100
AcDbText
 10
14719.047619
 20
19450.0
 30
0.0
 40
100.0
  1
1800.0000
  7
SIMPLEX
 72
     1
 11
15100.0
 21
19450.0
 31
0.0
100
AcDbText
  0
SOLID
  5
EABC2557E039A91B
100
AcDbEntity
  8
SIMPLE
  6
CONTINUOUS
 62
     0
100
AcDbTrace
 10
15900.0
 20
19516.666667
 30
0.0
 11
15900.0
 21
19483.333333
 31
0.0
 12
16000.0
 22
19500.0
 32
0.0
 13
16000.0
 23
19500.0
 33
0.0
  0
SOLID
  5
EABC2557E039A91C
100
AcDbEntity
  8
SIMPLE
  6
CONTINUOUS
 62
     0
100
AcDbTrace
 10
14300.0
 20
19483.333333
 30
0.0
 11
14300.0
 21
19516.666667
 31
0.0
 12
14200.0
 22
19500.0
 32
0.0
 13
14200.0
 23
19500.0
 33
0.0
  0
LINE
  5
EABC2557E039A921
100
AcDbEntity
  8
SIMPLE
  6
CONTINUOUS
 62
     0
100
AcDbLine
 10
15900.0
 20
19500.0
 30
0.0
 11
15481.042381
 21
19500.0
 31
0.0
  0
LINE
  5
EABC2557E039A922
100
AcDbEntity
  8
SIMPLE
  6
CONTINUOUS
 62
     0
100
AcDbLine
 10
14718.957619
 20
19500.0
 30
0.0
 11
14300.0
 21
19500.0
 31
0.0
  0
ENDBLK
  5
EABC2557E039A927
100
AcDbEntity
  8
SIMPLE
  6
CONTINUOUS
 62
     5
100
AcDbBlockEnd
  0
BLOCK
  5
EABC2557E039A935
100
AcDbEntity
  8
SIMPLE
  6
CONTINUOUS
 62
     5
100
AcDbBlockBegin
  2
*D21
 70
     1
 10
0.0
 20
0.0
 30
0.0
  1

  0
POINT
  5
EABC2557E039A92E
100
AcDbEntity
  8
SIMPLE
  6
CONTINUOUS
 62
     0
100
AcDbPoint
 10
18900.0
 20
14500.0
 30
0.0
  0
POINT
  5
EABC2557E039A92F
100
AcDbEntity
  8
SIMPLE
  6
CONTINUOUS
 62
     0
100
AcDbPoint
 10
20700.0
 20
14500.0
 30
0.0
  0
LINE
  5
EABC2557E039A929
100
AcDbEntity
  8
SIMPLE
  6
CONTINUOUS
 62
     0
100
AcDbLine
 10
18900.0
 20
14550.0
 30
0.0
 11
18900.0
 21
15350.0
 31
0.0
  0
LINE
  5
EABC2557E039A92A
100
AcDbEntity
  8
SIMPLE
  6
CONTINUOUS
 62
     0
100
AcDbLine
 10
20700.0
 20
14550.0
 30
0.0
 11
20700.0
 21
15350.0
 31
0.0
  0
TEXT
  5
EABC2557E039A930
100
AcDbEntity
  8
SIMPLE
  6
CONTINUOUS
 62
     0
100
AcDbText
 10
19419.047619
 20
15250.0
 30
0.0
 40
100.0
  1
1800.0000
  7
SIMPLEX
 72
     1
 11
19800.0
 21
15250.0
 31
0.0
100
AcDbText
  0
SOLID
  5
EABC2557E039A92B
100
AcDbEntity
  8
SIMPLE
  6
CONTINUOUS
 62
     0
100
AcDbTrace
 10
19000.0
 20
15283.333333
 30
0.0
 11
19000.0
 21
15316.666667
 31
0.0
 12
18900.0
 22
15300.0
 32
0.0
 13
18900.0
 23
15300.0
 33
0.0
  0
SOLID
  5
EABC2557E039A92C
100
AcDbEntity
  8
SIMPLE
  6
CONTINUOUS
 62
     0
100
AcDbTrace
 10
20600.0
 20
15316.666667
 30
0.0
 11
20600.0
 21
15283.333333
 31
0.0
 12
20700.0
 22
15300.0
 32
0.0
 13
20700.0
 23
15300.0
 33
0.0
  0
LINE
  5
EABC2557E039A931
100
AcDbEntity
  8
SIMPLE
  6
CONTINUOUS
 62
     0
100
AcDbLine
 10
19000.0
 20
15300.0
 30
0.0
 11
19418.957619
 21
15300.0
 31
0.0
  0
LINE
  5
EABC2557E039A932
100
AcDbEntity
  8
SIMPLE
  6
CONTINUOUS
 62
     0
100
AcDbLine
 10
20181.042381
 20
15300.0
 30
0.0
 11
20600.0
 21
15300.0
 31
0.0
  0
ENDBLK
  5
EABC2557E039A937
100
AcDbEntity
  8
SIMPLE
  6
CONTINUOUS
 62
     5
100
AcDbBlockEnd
  0
BLOCK
  5
EABC2557E039A945
100
AcDbEntity
  8
SIMPLE
  6
CONTINUOUS
 62
     5
100
AcDbBlockBegin
  2
*D22
 70
     1
 10
0.0
 20
0.0
 30
0.0
  1

  0
POINT
  5
EABC2557E039A93E
100
AcDbEntity
  8
SIMPLE
  6
CONTINUOUS
 62
     0
100
AcDbPoint
 10
20700.0
 20
13700.0
 30
0.0
  0
POINT
  5
EABC2557E039A93F
100
AcDbEntity
  8
SIMPLE
  6
CONTINUOUS
 62
     0
100
AcDbPoint
 10
20700.0
 20
14500.0
 30
0.0
  0
LINE
  5
EABC2557E039A939
100
AcDbEntity
  8
SIMPLE
  6
CONTINUOUS
 62
     0
100
AcDbLine
 10
20650.0
 20
13700.0
 30
0.0
 11
20150.0
 21
13700.0
 31
0.0
  0
LINE
  5
EABC2557E039A93A
100
AcDbEntity
  8
SIMPLE
  6
CONTINUOUS
 62
     0
100
AcDbLine
 10
20650.0
 20
14500.0
 30
0.0
 11
20150.0
 21
14500.0
 31
0.0
  0
TEXT
  5
EABC2557E039A940
100
AcDbEntity
  8
SIMPLE
  6
CONTINUOUS
 62
     0
100
AcDbText
 10
19857.142857
 20
14050.0
 30
0.0
 40
100.0
  1
800.0000
  7
SIMPLEX
 72
     1
 11
20200.0
 21
14050.0
 31
0.0
100
AcDbText
  0
SOLID
  5
EABC2557E039A93B
100
AcDbEntity
  8
SIMPLE
  6
CONTINUOUS
 62
     0
100
AcDbTrace
 10
20216.666667
 20
13800.0
 30
0.0
 11
20183.333333
 21
13800.0
 31
0.0
 12
20200.0
 22
13700.0
 32
0.0
 13
20200.0
 23
13700.0
 33
0.0
  0
SOLID
  5
EABC2557E039A93C
100
AcDbEntity
  8
SIMPLE
  6
CONTINUOUS
 62
     0
100
AcDbTrace
 10
20183.333333
 20
14400.0
 30
0.0
 11
20216.666667
 21
14400.0
 31
0.0
 12
20200.0
 22
14500.0
 32
0.0
 13
20200.0
 23
14500.0
 33
0.0
  0
LINE
  5
EABC2557E039A941
100
AcDbEntity
  8
SIMPLE
  6
CONTINUOUS
 62
     0
100
AcDbLine
 10
20200.0
 20
13800.0
 30
0.0
 11
20200.0
 21
14016.576667
 31
0.0
  0
LINE
  5
EABC2557E039A942
100
AcDbEntity
  8
SIMPLE
  6
CONTINUOUS
 62
     0
100
AcDbLine
 10
20200.0
 20
14150.09
 30
0.0
 11
20200.0
 21
14400.0
 31
0.0
  0
ENDBLK
  5
EABC2557E039A947
100
AcDbEntity
  8
SIMPLE
  6
CONTINUOUS
 62
     5
100
AcDbBlockEnd
  0
BLOCK
  5
EABC2557E039A955
100
AcDbEntity
  8
SIMPLE
  6
CONTINUOUS
 62
     5
100
AcDbBlockBegin
  2
*D23
 70
     1
 10
0.0
 20
0.0
 30
0.0
  1

  0
POINT
  5
EABC2557E039A94E
100
AcDbEntity
  8
SIMPLE
  6
CONTINUOUS
 62
     0
100
AcDbPoint
 10
18600.0
 20
14000.0
 30
0.0
  0
POINT
  5
EABC2557E039A94F
100
AcDbEntity
  8
SIMPLE
  6
CONTINUOUS
 62
     0
100
AcDbPoint
 10
18200.0
 20
14000.0
 30
0.0
  0
LINE
  5
EABC2557E039A949
100
AcDbEntity
  8
SIMPLE
  6
CONTINUOUS
 62
     0
100
AcDbLine
 10
18600.0
 20
13950.0
 30
0.0
 11
18600.0
 21
13550.0
 31
0.0
  0
LINE
  5
EABC2557E039A94A
100
AcDbEntity
  8
SIMPLE
  6
CONTINUOUS
 62
     0
100
AcDbLine
 10
18200.0
 20
13950.0
 30
0.0
 11
18200.0
 21
13550.0
 31
0.0
  0
TEXT
  5
EABC2557E039A950
100
AcDbEntity
  8
SIMPLE
  6
CONTINUOUS
 62
     0
100
AcDbText
 10
17314.105714
 20
13550.0
 30
0.0
 40
100.0
  1
400.0000
  7
SIMPLEX
 72
     1
 11
17656.962857
 21
13550.0
 31
0.0
100
AcDbText
  0
SOLID
  5
EABC2557E039A94B
100
AcDbEntity
  8
SIMPLE
  6
CONTINUOUS
 62
     0
100
AcDbTrace
 10
18700.0
 20
13583.333333
 30
0.0
 11
18700.0
 21
13616.666667
 31
0.0
 12
18600.0
 22
13600.0
 32
0.0
 13
18600.0
 23
13600.0
 33
0.0
  0
SOLID
  5
EABC2557E039A94C
100
AcDbEntity
  8
SIMPLE
  6
CONTINUOUS
 62
     0
100
AcDbTrace
 10
18100.0
 20
13616.666667
 30
0.0
 11
18100.0
 21
13583.333333
 31
0.0
 12
18200.0
 22
13600.0
 32
0.0
 13
18200.0
 23
13600.0
 33
0.0
  0
LINE
  5
EABC2557E039A951
100
AcDbEntity
  8
SIMPLE
  6
CONTINUOUS
 62
     0
100
AcDbLine
 10
18700.0
 20
13600.0
 30
0.0
 11
18800.0
 21
13600.0
 31
0.0
  0
LINE
  5
EABC2557E039A952
100
AcDbEntity
  8
SIMPLE
  6
CONTINUOUS
 62
     0
100
AcDbLine
 10
18100.0
 20
13600.0
 30
0.0
 11
18000.0
 21
13600.0
 31
0.0
  0
ENDBLK
  5
EABC2557E039A957
100
AcDbEntity
  8
SIMPLE
  6
CONTINUOUS
 62
     5
100
AcDbBlockEnd
  0
BLOCK
  5
EABC2557E039A973
100
AcDbEntity
  8
SIMPLE
  6
CONTINUOUS
 62
     5
100
AcDbBlockBegin
  2
*D24
 70
     1
 10
0.0
 20
0.0
 30
0.0
  1

  0
POINT
  5
EABC2557E039A96C
100
AcDbEntity
  8
SIMPLE
  6
CONTINUOUS
 62
     0
100
AcDbPoint
 10
22000.0
 20
18000.0
 30
0.0
  0
POINT
  5
EABC2557E039A96D
100
AcDbEntity
  8
SIMPLE
  6
CONTINUOUS
 62
     0
100
AcDbPoint
 10
21900.0
 20
16200.0
 30
0.0
  0
LINE
  5
EABC2557E039A967
100
AcDbEntity
  8
SIMPLE
  6
CONTINUOUS
 62
     0
100
AcDbLine
 10
22050.0
 20
18000.0
 30
0.0
 11
25750.0
 21
18000.0
 31
0.0
  0
LINE
  5
EABC2557E039A968
100
AcDbEntity
  8
SIMPLE
  6
CONTINUOUS
 62
     0
100
AcDbLine
 10
21950.0
 20
16200.0
 30
0.0
 11
25750.0
 21
16200.0
 31
0.0
  0
TEXT
  5
EABC2557E039A96E
100
AcDbEntity
  8
SIMPLE
  6
CONTINUOUS
 62
     0
100
AcDbText
 10
25319.047619
 20
17050.0
 30
0.0
 40
100.0
  1
1800.0000
  7
SIMPLEX
 72
     1
 11
25700.0
 21
17050.0
 31
0.0
100
AcDbText
  0
SOLID
  5
EABC2557E039A969
100
AcDbEntity
  8
SIMPLE
  6
CONTINUOUS
 62
     0
100
AcDbTrace
 10
25683.333333
 20
17900.0
 30
0.0
 11
25716.666667
 21
17900.0
 31
0.0
 12
25700.0
 22
18000.0
 32
0.0
 13
25700.0
 23
18000.0
 33
0.0
  0
SOLID
  5
EABC2557E039A96A
100
AcDbEntity
  8
SIMPLE
  6
CONTINUOUS
 62
     0
100
AcDbTrace
 10
25716.666667
 20
16300.0
 30
0.0
 11
25683.333333
 21
16300.0
 31
0.0
 12
25700.0
 22
16200.0
 32
0.0
 13
25700.0
 23
16200.0
 33
0.0
  0
LINE
  5
EABC2557E039A96F
100
AcDbEntity
  8
SIMPLE
  6
CONTINUOUS
 62
     0
100
AcDbLine
 10
25700.0
 20
17900.0
 30
0.0
 11
25700.0
 21
17150.09
 31
0.0
  0
LINE
  5
EABC2557E039A970
100
AcDbEntity
  8
SIMPLE
  6
CONTINUOUS
 62
     0
100
AcDbLine
 10
25700.0
 20
17016.576667
 30
0.0
 11
25700.0
 21
16300.0
 31
0.0
  0
ENDBLK
  5
EABC2557E039A975
100
AcDbEntity
  8
SIMPLE
  6
CONTINUOUS
 62
     5
100
AcDbBlockEnd
  0
BLOCK
  5
EABC2557E039A983
100
AcDbEntity
  8
SIMPLE
  6
CONTINUOUS
 62
     5
100
AcDbBlockBegin
  2
*D25
 70
     1
 10
0.0
 20
0.0
 30
0.0
  1

  0
POINT
  5
EABC2557E039A97C
100
AcDbEntity
  8
SIMPLE
  6
CONTINUOUS
 62
     0
100
AcDbPoint
 10
26500.0
 20
17000.0
 30
0.0
  0
POINT
  5
EABC2557E039A97D
100
AcDbEntity
  8
SIMPLE
  6
CONTINUOUS
 62
     0
100
AcDbPoint
 10
26500.0
 20
1000.0
 30
0.0
  0
LINE
  5
EABC2557E039A977
100
AcDbEntity
  8
SIMPLE
  6
CONTINUOUS
 62
     0
100
AcDbLine
 10
26550.0
 20
17000.0
 30
0.0
 11
28550.0
 21
17000.0
 31
0.0
  0
LINE
  5
EABC2557E039A978
100
AcDbEntity
  8
SIMPLE
  6
CONTINUOUS
 62
     0
100
AcDbLine
 10
26550.0
 20
1000.0
 30
0.0
 11
28550.0
 21
1000.0
 31
0.0
  0
TEXT
  5
EABC2557E039A97E
100
AcDbEntity
  8
SIMPLE
  6
CONTINUOUS
 62
     0
100
AcDbText
 10
28071.428571
 20
8950.0
 30
0.0
 40
100.0
  1
16000.0000
  7
SIMPLEX
 72
     1
 11
28500.0
 21
8950.0
 31
0.0
100
AcDbText
  0
SOLID
  5
EABC2557E039A979
100
AcDbEntity
  8
SIMPLE
  6
CONTINUOUS
 62
     0
100
AcDbTrace
 10
28483.333333
 20
16900.0
 30
0.0
 11
28516.666667
 21
16900.0
 31
0.0
 12
28500.0
 22
17000.0
 32
0.0
 13
28500.0
 23
17000.0
 33
0.0
  0
SOLID
  5
EABC2557E039A97A
100
AcDbEntity
  8
SIMPLE
  6
CONTINUOUS
 62
     0
100
AcDbTrace
 10
28516.666667
 20
1100.0
 30
0.0
 11
28483.333333
 21
1100.0
 31
0.0
 12
28500.0
 22
1000.0
 32
0.0
 13
28500.0
 23
1000.0
 33
0.0
  0
LINE
  5
EABC2557E039A97F
100
AcDbEntity
  8
SIMPLE
  6
CONTINUOUS
 62
     0
100
AcDbLine
 10
28500.0
 20
16900.0
 30
0.0
 11
28500.0
 21
9050.09
 31
0.0
  0
LINE
  5
EABC2557E039A980
100
AcDbEntity
  8
SIMPLE
  6
CONTINUOUS
 62
     0
100
AcDbLine
 10
28500.0
 20
8916.576667
 30
0.0
 11
28500.0
 21
1100.0
 31
0.0
  0
ENDBLK
  5
EABC2557E039A985
100
AcDbEntity
  8
SIMPLE
  6
CONTINUOUS
 62
     5
100
AcDbBlockEnd
  0
BLOCK
  5
EABC2557E039A993
100
AcDbEntity
  8
SIMPLE
  6
CONTINUOUS
 62
     5
100
AcDbBlockBegin
  2
*D26
 70
     1
 10
0.0
 20
0.0
 30
0.0
  1

  0
POINT
  5
EABC2557E039A98C
100
AcDbEntity
  8
SIMPLE
  6
CONTINUOUS
 62
     0
100
AcDbPoint
 10
24700.0
 20
17100.0
 30
0.0
  0
POINT
  5
EABC2557E039A98D
100
AcDbEntity
  8
SIMPLE
  6
CONTINUOUS
 62
     0
100
AcDbPoint
 10
24700.0
 20
1100.0
 30
0.0
  0
LINE
  5
EABC2557E039A987
100
AcDbEntity
  8
SIMPLE
  6
CONTINUOUS
 62
     0
100
AcDbLine
 10
24750.0
 20
17100.0
 30
0.0
 11
27050.0
 21
17100.0
 31
0.0
  0
LINE
  5
EABC2557E039A988
100
AcDbEntity
  8
SIMPLE
  6
CONTINUOUS
 62
     0
100
AcDbLine
 10
24750.0
 20
1100.0
 30
0.0
 11
27050.0
 21
1100.0
 31
0.0
  0
TEXT
  5
EABC2557E039A98E
100
AcDbEntity
  8
SIMPLE
  6
CONTINUOUS
 62
     0
100
AcDbText
 10
26571.428571
 20
9050.0
 30
0.0
 40
100.0
  1
16000.0000
  7
SIMPLEX
 72
     1
 11
27000.0
 21
9050.0
 31
0.0
100
AcDbText
  0
SOLID
  5
EABC2557E039A989
100
AcDbEntity
  8
SIMPLE
  6
CONTINUOUS
 62
     0
100
AcDbTrace
 10
26983.333333
 20
17000.0
 30
0.0
 11
27016.666667
 21
17000.0
 31
0.0
 12
27000.0
 22
17100.0
 32
0.0
 13
27000.0
 23
17100.0
 33
0.0
  0
SOLID
  5
EABC2557E039A98A
100
AcDbEntity
  8
SIMPLE
  6
CONTINUOUS
 62
     0
100
AcDbTrace
 10
27016.666667
 20
1200.0
 30
0.0
 11
26983.333333
 21
1200.0
 31
0.0
 12
27000.0
 22
1100.0
 32
0.0
 13
27000.0
 23
1100.0
 33
0.0
  0
LINE
  5
EABC2557E039A98F
100
AcDbEntity
  8
SIMPLE
  6
CONTINUOUS
 62
     0
100
AcDbLine
 10
27000.0
 20
17000.0
 30
0.0
 11
27000.0
 21
9150.09
 31
0.0
  0
LINE
  5
EABC2557E039A990
100
AcDbEntity
  8
SIMPLE
  6
CONTINUOUS
 62
     0
100
AcDbLine
 10
27000.0
 20
9016.576667
 30
0.0
 11
27000.0
 21
1200.0
 31
0.0
  0
ENDBLK
  5
EABC2557E039A995
100
AcDbEntity
  8
SIMPLE
  6
CONTINUOUS
 62
     5
100
AcDbBlockEnd
  0
BLOCK
  5
EABC2557E58EBC77
100
AcDbEntity
  8
SIMPLE
  6
CONTINUOUS
100
AcDbBlockBegin
  2
*D27
 70
     1
 10
0.0
 20
0.0
 30
0.0
  1

  0
POINT
  5
EABC2557E58EBC70
100
AcDbEntity
  8
SIMPLE
  6
CONTINUOUS
 62
     0
100
AcDbPoint
 10
15099.0
 20
19600.0
 30
0.0
  0
POINT
  5
EABC2557E58EBC71
100
AcDbEntity
  8
SIMPLE
  6
CONTINUOUS
 62
     0
100
AcDbPoint
 10
23099.0
 20
19600.0
 30
0.0
  0
LINE
  5
EABC2557E58EBC6B
100
AcDbEntity
  8
SIMPLE
  6
CONTINUOUS
 62
     0
100
AcDbLine
 10
15099.0
 20
19650.0
 30
0.0
 11
15099.0
 21
20850.0
 31
0.0
  0
LINE
  5
EABC2557E58EBC6C
100
AcDbEntity
  8
SIMPLE
  6
CONTINUOUS
 62
     0
100
AcDbLine
 10
23099.0
 20
19650.0
 30
0.0
 11
23099.0
 21
20850.0
 31
0.0
  0
TEXT
  5
EABC2557E58EBC72
100
AcDbEntity
  8
SIMPLE
  6
CONTINUOUS
 62
     0
100
AcDbText
 10
18708.52381
 20
20750.0
 30
0.0
 40
100.0
  1
8000.0000
  7
SIMPLEX
 72
     1
 11
19099.0
 21
20750.0
 31
0.0
100
AcDbText
  0
SOLID
  5
EABC2557E58EBC6D
100
AcDbEntity
  8
SIMPLE
  6
CONTINUOUS
 62
     0
100
AcDbTrace
 10
15199.0
 20
20783.333333
 30
0.0
 11
15199.0
 21
20816.666667
 31
0.0
 12
15099.0
 22
20800.0
 32
0.0
 13
15099.0
 23
20800.0
 33
0.0
  0
SOLID
  5
EABC2557E58EBC6E
100
AcDbEntity
  8
SIMPLE
  6
CONTINUOUS
 62
     0
100
AcDbTrace
 10
22999.0
 20
20816.666667
 30
0.0
 11
22999.0
 21
20783.333333
 31
0.0
 12
23099.0
 22
20800.0
 32
0.0
 13
23099.0
 23
20800.0
 33
0.0
  0
LINE
  5
EABC2557E58EBC73
100
AcDbEntity
  8
SIMPLE
  6
CONTINUOUS
 62
     0
100
AcDbLine
 10
15199.0
 20
20800.0
 30
0.0
 11
18708.43381
 21
20800.0
 31
0.0
  0
LINE
  5
EABC2557E58EBC74
100
AcDbEntity
  8
SIMPLE
  6
CONTINUOUS
 62
     0
100
AcDbLine
 10
19489.56619
 20
20800.0
 30
0.0
 11
22999.0
 21
20800.0
 31
0.0
  0
ENDBLK
  5
EABC2557E58EBC79
100
AcDbEntity
  8
SIMPLE
  6
CONTINUOUS
100
AcDbBlockEnd
  0
BLOCK
  5
EABC2557E58EBC86
100
AcDbEntity
  8
SIMPLE
  6
CONTINUOUS
100
AcDbBlockBegin
  2
*D28
 70
     1
 10
0.0
 20
0.0
 30
0.0
  1

  0
POINT
  5
EABC2557E58EBC7F
100
AcDbEntity
  8
SIMPLE
  6
CONTINUOUS
 62
     0
100
AcDbPoint
 10
15100.0
 20
18800.0
 30
0.0
  0
POINT
  5
EABC2557E58EBC80
100
AcDbEntity
  8
SIMPLE
  6
CONTINUOUS
 62
     0
100
AcDbPoint
 10
16000.0
 20
18000.0
 30
0.0
  0
LINE
  5
EABC2557E58EBC7A
100
AcDbEntity
  8
SIMPLE
  6
CONTINUOUS
 62
     0
100
AcDbLine
 10
15100.0
 20
18850.0
 30
0.0
 11
15100.0
 21
20250.0
 31
0.0
  0
LINE
  5
EABC2557E58EBC7B
100
AcDbEntity
  8
SIMPLE
  6
CONTINUOUS
 62
     0
100
AcDbLine
 10
16000.0
 20
18050.0
 30
0.0
 11
16000.0
 21
20250.0
 31
0.0
  0
TEXT
  5
EABC2557E58EBC81
100
AcDbEntity
  8
SIMPLE
  6
CONTINUOUS
 62
     0
100
AcDbText
 10
15207.142857
 20
20150.0
 30
0.0
 40
100.0
  1
900.0000
  7
SIMPLEX
 72
     1
 11
15550.0
 21
20150.0
 31
0.0
100
AcDbText
  0
SOLID
  5
EABC2557E58EBC7C
100
AcDbEntity
  8
SIMPLE
  6
CONTINUOUS
 62
     0
100
AcDbTrace
 10
15200.0
 20
20183.333333
 30
0.0
 11
15200.0
 21
20216.666667
 31
0.0
 12
15100.0
 22
20200.0
 32
0.0
 13
15100.0
 23
20200.0
 33
0.0
  0
SOLID
  5
EABC2557E58EBC7D
100
AcDbEntity
  8
SIMPLE
  6
CONTINUOUS
 62
     0
100
AcDbTrace
 10
15900.0
 20
20216.666667
 30
0.0
 11
15900.0
 21
20183.333333
 31
0.0
 12
16000.0
 22
20200.0
 32
0.0
 13
16000.0
 23
20200.0
 33
0.0
  0
LINE
  5
EABC2557E58EBC82
100
AcDbEntity
  8
SIMPLE
  6
CONTINUOUS
 62
     0
100
AcDbLine
 10
15200.0
 20
20200.0
 30
0.0
 11
15207.052857
 21
20200.0
 31
0.0
  0
LINE
  5
EABC2557E58EBC83
100
AcDbEntity
  8
SIMPLE
  6
CONTINUOUS
 62
     0
100
AcDbLine
 10
15892.947143
 20
20200.0
 30
0.0
 11
15900.0
 21
20200.0
 31
0.0
  0
ENDBLK
  5
EABC2557E58EBC88
100
AcDbEntity
  8
SIMPLE
  6
CONTINUOUS
100
AcDbBlockEnd
  0
BLOCK
  5
EABC2557E58EBC95
100
AcDbEntity
  8
SIMPLE
  6
CONTINUOUS
100
AcDbBlockBegin
  2
*D29
 70
     1
 10
0.0
 20
0.0
 30
0.0
  1

  0
POINT
  5
EABC2557E58EBC8E
100
AcDbEntity
  8
SIMPLE
  6
CONTINUOUS
 62
     0
100
AcDbPoint
 10
16200.0
 20
15900.0
 30
0.0
  0
POINT
  5
EABC2557E58EBC8F
100
AcDbEntity
  8
SIMPLE
  6
CONTINUOUS
 62
     0
100
AcDbPoint
 10
17400.0
 20
15900.0
 30
0.0
  0
LINE
  5
EABC2557E58EBC89
100
AcDbEntity
  8
SIMPLE
  6
CONTINUOUS
 62
     0
100
AcDbLine
 10
16200.0
 20
15950.0
 30
0.0
 11
16200.0
 21
20250.0
 31
0.0
  0
LINE
  5
EABC2557E58EBC8A
100
AcDbEntity
  8
SIMPLE
  6
CONTINUOUS
 62
     0
100
AcDbLine
 10
17400.0
 20
15950.0
 30
0.0
 11
17400.0
 21
20250.0
 31
0.0
  0
TEXT
  5
EABC2557E58EBC90
100
AcDbEntity
  8
SIMPLE
  6
CONTINUOUS
 62
     0
100
AcDbText
 10
16419.047619
 20
20150.0
 30
0.0
 40
100.0
  1
1200.0000
  7
SIMPLEX
 72
     1
 11
16800.0
 21
20150.0
 31
0.0
100
AcDbText
  0
SOLID
  5
EABC2557E58EBC8B
100
AcDbEntity
  8
SIMPLE
  6
CONTINUOUS
 62
     0
100
AcDbTrace
 10
16300.0
 20
20183.333333
 30
0.0
 11
16300.0
 21
20216.666667
 31
0.0
 12
16200.0
 22
20200.0
 32
0.0
 13
16200.0
 23
20200.0
 33
0.0
  0
SOLID
  5
EABC2557E58EBC8C
100
AcDbEntity
  8
SIMPLE
  6
CONTINUOUS
 62
     0
100
AcDbTrace
 10
17300.0
 20
20216.666667
 30
0.0
 11
17300.0
 21
20183.333333
 31
0.0
 12
17400.0
 22
20200.0
 32
0.0
 13
17400.0
 23
20200.0
 33
0.0
  0
LINE
  5
EABC2557E58EBC91
100
AcDbEntity
  8
SIMPLE
  6
CONTINUOUS
 62
     0
100
AcDbLine
 10
16300.0
 20
20200.0
 30
0.0
 11
16418.957619
 21
20200.0
 31
0.0
  0
LINE
  5
EABC2557E58EBC92
100
AcDbEntity
  8
SIMPLE
  6
CONTINUOUS
 62
     0
100
AcDbLine
 10
17181.042381
 20
20200.0
 30
0.0
 11
17300.0
 21
20200.0
 31
0.0
  0
ENDBLK
  5
EABC2557E58EBC97
100
AcDbEntity
  8
SIMPLE
  6
CONTINUOUS
100
AcDbBlockEnd
  0
BLOCK
  5
EABC2557E58EBCA4
100
AcDbEntity
  8
SIMPLE
  6
CONTINUOUS
100
AcDbBlockBegin
  2
*D30
 70
     1
 10
0.0
 20
0.0
 30
0.0
  1

  0
POINT
  5
EABC2557E58EBC9D
100
AcDbEntity
  8
SIMPLE
  6
CONTINUOUS
 62
     0
100
AcDbPoint
 10
17600.0
 20
14000.0
 30
0.0
  0
POINT
  5
EABC2557E58EBC9E
100
AcDbEntity
  8
SIMPLE
  6
CONTINUOUS
 62
     0
100
AcDbPoint
 10
18000.0
 20
14000.0
 30
0.0
  0
LINE
  5
EABC2557E58EBC98
100
AcDbEntity
  8
SIMPLE
  6
CONTINUOUS
 62
     0
100
AcDbLine
 10
17600.0
 20
14050.0
 30
0.0
 11
17600.0
 21
20250.0
 31
0.0
  0
LINE
  5
EABC2557E58EBC99
100
AcDbEntity
  8
SIMPLE
  6
CONTINUOUS
 62
     0
100
AcDbLine
 10
18000.0
 20
14050.0
 30
0.0
 11
18000.0
 21
20250.0
 31
0.0
  0
TEXT
  5
EABC2557E58EBC9F
100
AcDbEntity
  8
SIMPLE
  6
CONTINUOUS
 62
     0
100
AcDbText
 10
18200.18
 20
20150.0
 30
0.0
 40
100.0
  1
400.0000
  7
SIMPLEX
 72
     1
 11
18543.037143
 21
20150.0
 31
0.0
100
AcDbText
  0
SOLID
  5
EABC2557E58EBC9A
100
AcDbEntity
  8
SIMPLE
  6
CONTINUOUS
 62
     0
100
AcDbTrace
 10
17500.0
 20
20216.666667
 30
0.0
 11
17500.0
 21
20183.333333
 31
0.0
 12
17600.0
 22
20200.0
 32
0.0
 13
17600.0
 23
20200.0
 33
0.0
  0
SOLID
  5
EABC2557E58EBC9B
100
AcDbEntity
  8
SIMPLE
  6
CONTINUOUS
 62
     0
100
AcDbTrace
 10
18100.0
 20
20183.333333
 30
0.0
 11
18100.0
 21
20216.666667
 31
0.0
 12
18000.0
 22
20200.0
 32
0.0
 13
18000.0
 23
20200.0
 33
0.0
  0
LINE
  5
EABC2557E58EBCA0
100
AcDbEntity
  8
SIMPLE
  6
CONTINUOUS
 62
     0
100
AcDbLine
 10
17500.0
 20
20200.0
 30
0.0
 11
17400.0
 21
20200.0
 31
0.0
  0
LINE
  5
EABC2557E58EBCA1
100
AcDbEntity
  8
SIMPLE
  6
CONTINUOUS
 62
     0
100
AcDbLine
 10
18100.0
 20
20200.0
 30
0.0
 11
18200.0
 21
20200.0
 31
0.0
  0
ENDBLK
  5
EABC2557E58EBCA6
100
AcDbEntity
  8
SIMPLE
  6
CONTINUOUS
100
AcDbBlockEnd
  0
BLOCK
  5
EABC2557E58EBCB3
100
AcDbEntity
  8
SIMPLE
  6
CONTINUOUS
100
AcDbBlockBegin
  2
*D31
 70
     1
 10
0.0
 20
0.0
 30
0.0
  1

  0
POINT
  5
EABC2557E58EBCAC
100
AcDbEntity
  8
SIMPLE
  6
CONTINUOUS
 62
     0
100
AcDbPoint
 10
21800.0
 20
15900.0
 30
0.0
  0
POINT
  5
EABC2557E58EBCAD
100
AcDbEntity
  8
SIMPLE
  6
CONTINUOUS
 62
     0
100
AcDbPoint
 10
21000.0
 20
15900.0
 30
0.0
  0
LINE
  5
EABC2557E58EBCA7
100
AcDbEntity
  8
SIMPLE
  6
CONTINUOUS
 62
     0
100
AcDbLine
 10
21800.0
 20
15950.0
 30
0.0
 11
21800.0
 21
20250.0
 31
0.0
  0
LINE
  5
EABC2557E58EBCA8
100
AcDbEntity
  8
SIMPLE
  6
CONTINUOUS
 62
     0
100
AcDbLine
 10
21000.0
 20
15950.0
 30
0.0
 11
21000.0
 21
20250.0
 31
0.0
  0
TEXT
  5
EABC2557E58EBCAE
100
AcDbEntity
  8
SIMPLE
  6
CONTINUOUS
 62
     0
100
AcDbText
 10
21057.142857
 20
20150.0
 30
0.0
 40
100.0
  1
800.0000
  7
SIMPLEX
 72
     1
 11
21400.0
 21
20150.0
 31
0.0
100
AcDbText
  0
SOLID
  5
EABC2557E58EBCA9
100
AcDbEntity
  8
SIMPLE
  6
CONTINUOUS
 62
     0
100
AcDbTrace
 10
21700.0
 20
20216.666667
 30
0.0
 11
21700.0
 21
20183.333333
 31
0.0
 12
21800.0
 22
20200.0
 32
0.0
 13
21800.0
 23
20200.0
 33
0.0
  0
SOLID
  5
EABC2557E58EBCAA
100
AcDbEntity
  8
SIMPLE
  6
CONTINUOUS
 62
     0
100
AcDbTrace
 10
21100.0
 20
20183.333333
 30
0.0
 11
21100.0
 21
20216.666667
 31
0.0
 12
21000.0
 22
20200.0
 32
0.0
 13
21000.0
 23
20200.0
 33
0.0
  0
LINE
  5
EABC2557E58EBCAF
100
AcDbEntity
  8
SIMPLE
  6
CONTINUOUS
 62
     0
100
AcDbLine
 10
21700.0
 20
20200.0
 30
0.0
 11
21100.0
 21
20200.0
 31
0.0
  0
ENDBLK
  5
EABC2557E58EBCB5
100
AcDbEntity
  8
SIMPLE
  6
CONTINUOUS
100
AcDbBlockEnd
  0
BLOCK
  5
EABC2557E58EBCC2
100
AcDbEntity
  8
SIMPLE
  6
CONTINUOUS
100
AcDbBlockBegin
  2
*D32
 70
     1
 10
0.0
 20
0.0
 30
0.0
  1

  0
POINT
  5
EABC2557E58EBCBB
100
AcDbEntity
  8
SIMPLE
  6
CONTINUOUS
 62
     0
100
AcDbPoint
 10
16000.0
 20
18000.0
 30
0.0
  0
POINT
  5
EABC2557E58EBCBC
100
AcDbEntity
  8
SIMPLE
  6
CONTINUOUS
 62
     0
100
AcDbPoint
 10
14200.0
 20
18100.0
 30
0.0
  0
LINE
  5
EABC2557E58EBCB6
100
AcDbEntity
  8
SIMPLE
  6
CONTINUOUS
 62
     0
100
AcDbLine
 10
16000.0
 20
18050.0
 30
0.0
 11
16000.0
 21
19550.0
 31
0.0
  0
LINE
  5
EABC2557E58EBCB7
100
AcDbEntity
  8
SIMPLE
  6
CONTINUOUS
 62
     0
100
AcDbLine
 10
14200.0
 20
18150.0
 30
0.0
 11
14200.0
 21
19550.0
 31
0.0
  0
TEXT
  5
EABC2557E58EBCBD
100
AcDbEntity
  8
SIMPLE
  6
CONTINUOUS
 62
     0
100
AcDbText
 10
14719.047619
 20
19450.0
 30
0.0
 40
100.0
  1
1800.0000
  7
SIMPLEX
 72
     1
 11
15100.0
 21
19450.0
 31
0.0
100
AcDbText
  0
SOLID
  5
EABC2557E58EBCB8
100
AcDbEntity
  8
SIMPLE
  6
CONTINUOUS
 62
     0
100
AcDbTrace
 10
15900.0
 20
19516.666667
 30
0.0
 11
15900.0
 21
19483.333333
 31
0.0
 12
16000.0
 22
19500.0
 32
0.0
 13
16000.0
 23
19500.0
 33
0.0
  0
SOLID
  5
EABC2557E58EBCB9
100
AcDbEntity
  8
SIMPLE
  6
CONTINUOUS
 62
     0
100
AcDbTrace
 10
14300.0
 20
19483.333333
 30
0.0
 11
14300.0
 21
19516.666667
 31
0.0
 12
14200.0
 22
19500.0
 32
0.0
 13
14200.0
 23
19500.0
 33
0.0
  0
LINE
  5
EABC2557E58EBCBE
100
AcDbEntity
  8
SIMPLE
  6
CONTINUOUS
 62
     0
100
AcDbLine
 10
15900.0
 20
19500.0
 30
0.0
 11
15481.042381
 21
19500.0
 31
0.0
  0
LINE
  5
EABC2557E58EBCBF
100
AcDbEntity
  8
SIMPLE
  6
CONTINUOUS
 62
     0
100
AcDbLine
 10
14718.957619
 20
19500.0
 30
0.0
 11
14300.0
 21
19500.0
 31
0.0
  0
ENDBLK
  5
EABC2557E58EBCC4
100
AcDbEntity
  8
SIMPLE
  6
CONTINUOUS
100
AcDbBlockEnd
  0
BLOCK
  5
EABC2557E58EBCD1
100
AcDbEntity
  8
SIMPLE
  6
CONTINUOUS
100
AcDbBlockBegin
  2
*D33
 70
     1
 10
0.0
 20
0.0
 30
0.0
  1

  0
POINT
  5
EABC2557E58EBCCA
100
AcDbEntity
  8
SIMPLE
  6
CONTINUOUS
 62
     0
100
AcDbPoint
 10
18900.0
 20
14500.0
 30
0.0
  0
POINT
  5
EABC2557E58EBCCB
100
AcDbEntity
  8
SIMPLE
  6
CONTINUOUS
 62
     0
100
AcDbPoint
 10
20700.0
 20
14500.0
 30
0.0
  0
LINE
  5
EABC2557E58EBCC5
100
AcDbEntity
  8
SIMPLE
  6
CONTINUOUS
 62
     0
100
AcDbLine
 10
18900.0
 20
14550.0
 30
0.0
 11
18900.0
 21
15350.0
 31
0.0
  0
LINE
  5
EABC2557E58EBCC6
100
AcDbEntity
  8
SIMPLE
  6
CONTINUOUS
 62
     0
100
AcDbLine
 10
20700.0
 20
14550.0
 30
0.0
 11
20700.0
 21
15350.0
 31
0.0
  0
TEXT
  5
EABC2557E58EBCCC
100
AcDbEntity
  8
SIMPLE
  6
CONTINUOUS
 62
     0
100
AcDbText
 10
19419.047619
 20
15250.0
 30
0.0
 40
100.0
  1
1800.0000
  7
SIMPLEX
 72
     1
 11
19800.0
 21
15250.0
 31
0.0
100
AcDbText
  0
SOLID
  5
EABC2557E58EBCC7
100
AcDbEntity
  8
SIMPLE
  6
CONTINUOUS
 62
     0
100
AcDbTrace
 10
19000.0
 20
15283.333333
 30
0.0
 11
19000.0
 21
15316.666667
 31
0.0
 12
18900.0
 22
15300.0
 32
0.0
 13
18900.0
 23
15300.0
 33
0.0
  0
SOLID
  5
EABC2557E58EBCC8
100
AcDbEntity
  8
SIMPLE
  6
CONTINUOUS
 62
     0
100
AcDbTrace
 10
20600.0
 20
15316.666667
 30
0.0
 11
20600.0
 21
15283.333333
 31
0.0
 12
20700.0
 22
15300.0
 32
0.0
 13
20700.0
 23
15300.0
 33
0.0
  0
LINE
  5
EABC2557E58EBCCD
100
AcDbEntity
  8
SIMPLE
  6
CONTINUOUS
 62
     0
100
AcDbLine
 10
19000.0
 20
15300.0
 30
0.0
 11
19418.957619
 21
15300.0
 31
0.0
  0
LINE
  5
EABC2557E58EBCCE
100
AcDbEntity
  8
SIMPLE
  6
CONTINUOUS
 62
     0
100
AcDbLine
 10
20181.042381
 20
15300.0
 30
0.0
 11
20600.0
 21
15300.0
 31
0.0
  0
ENDBLK
  5
EABC2557E58EBCD3
100
AcDbEntity
  8
SIMPLE
  6
CONTINUOUS
100
AcDbBlockEnd
  0
BLOCK
  5
EABC2557E58EBCE0
100
AcDbEntity
  8
SIMPLE
  6
CONTINUOUS
100
AcDbBlockBegin
  2
*D34
 70
     1
 10
0.0
 20
0.0
 30
0.0
  1

  0
POINT
  5
EABC2557E58EBCD9
100
AcDbEntity
  8
SIMPLE
  6
CONTINUOUS
 62
     0
100
AcDbPoint
 10
18600.0
 20
14000.0
 30
0.0
  0
POINT
  5
EABC2557E58EBCDA
100
AcDbEntity
  8
SIMPLE
  6
CONTINUOUS
 62
     0
100
AcDbPoint
 10
18200.0
 20
14000.0
 30
0.0
  0
LINE
  5
EABC2557E58EBCD4
100
AcDbEntity
  8
SIMPLE
  6
CONTINUOUS
 62
     0
100
AcDbLine
 10
18600.0
 20
13950.0
 30
0.0
 11
18600.0
 21
13550.0
 31
0.0
  0
LINE
  5
EABC2557E58EBCD5
100
AcDbEntity
  8
SIMPLE
  6
CONTINUOUS
 62
     0
100
AcDbLine
 10
18200.0
 20
13950.0
 30
0.0
 11
18200.0
 21
13550.0
 31
0.0
  0
TEXT
  5
EABC2557E58EBCDB
100
AcDbEntity
  8
SIMPLE
  6
CONTINUOUS
 62
     0
100
AcDbText
 10
17314.105714
 20
13550.0
 30
0.0
 40
100.0
  1
400.0000
  7
SIMPLEX
 72
     1
 11
17656.962857
 21
13550.0
 31
0.0
100
AcDbText
  0
SOLID
  5
EABC2557E58EBCD6
100
AcDbEntity
  8
SIMPLE
  6
CONTINUOUS
 62
     0
100
AcDbTrace
 10
18700.0
 20
13583.333333
 30
0.0
 11
18700.0
 21
13616.666667
 31
0.0
 12
18600.0
 22
13600.0
 32
0.0
 13
18600.0
 23
13600.0
 33
0.0
  0
SOLID
  5
EABC2557E58EBCD7
100
AcDbEntity
  8
SIMPLE
  6
CONTINUOUS
 62
     0
100
AcDbTrace
 10
18100.0
 20
13616.666667
 30
0.0
 11
18100.0
 21
13583.333333
 31
0.0
 12
18200.0
 22
13600.0
 32
0.0
 13
18200.0
 23
13600.0
 33
0.0
  0
LINE
  5
EABC2557E58EBCDC
100
AcDbEntity
  8
SIMPLE
  6
CONTINUOUS
 62
     0
100
AcDbLine
 10
18700.0
 20
13600.0
 30
0.0
 11
18800.0
 21
13600.0
 31
0.0
  0
LINE
  5
EABC2557E58EBCDD
100
AcDbEntity
  8
SIMPLE
  6
CONTINUOUS
 62
     0
100
AcDbLine
 10
18100.0
 20
13600.0
 30
0.0
 11
18000.0
 21
13600.0
 31
0.0
  0
ENDBLK
  5
EABC2557E58EBCE2
100
AcDbEntity
  8
SIMPLE
  6
CONTINUOUS
100
AcDbBlockEnd
  0
BLOCK
  5
EABC2557E58EBCEF
100
AcDbEntity
  8
SIMPLE
  6
CONTINUOUS
100
AcDbBlockBegin
  2
*D35
 70
     1
 10
0.0
 20
0.0
 30
0.0
  1

  0
POINT
  5
EABC2557E58EBCE8
100
AcDbEntity
  8
SIMPLE
  6
CONTINUOUS
 62
     0
100
AcDbPoint
 10
22000.0
 20
18000.0
 30
0.0
  0
POINT
  5
EABC2557E58EBCE9
100
AcDbEntity
  8
SIMPLE
  6
CONTINUOUS
 62
     0
100
AcDbPoint
 10
21900.0
 20
16200.0
 30
0.0
  0
LINE
  5
EABC2557E58EBCE3
100
AcDbEntity
  8
SIMPLE
  6
CONTINUOUS
 62
     0
100
AcDbLine
 10
22050.0
 20
18000.0
 30
0.0
 11
25750.0
 21
18000.0
 31
0.0
  0
LINE
  5
EABC2557E58EBCE4
100
AcDbEntity
  8
SIMPLE
  6
CONTINUOUS
 62
     0
100
AcDbLine
 10
21950.0
 20
16200.0
 30
0.0
 11
25750.0
 21
16200.0
 31
0.0
  0
TEXT
  5
EABC2557E58EBCEA
100
AcDbEntity
  8
SIMPLE
  6
CONTINUOUS
 62
     0
100
AcDbText
 10
25319.047619
 20
17050.0
 30
0.0
 40
100.0
  1
1800.0000
  7
SIMPLEX
 72
     1
 11
25700.0
 21
17050.0
 31
0.0
100
AcDbText
  0
SOLID
  5
EABC2557E58EBCE5
100
AcDbEntity
  8
SIMPLE
  6
CONTINUOUS
 62
     0
100
AcDbTrace
 10
25683.333333
 20
17900.0
 30
0.0
 11
25716.666667
 21
17900.0
 31
0.0
 12
25700.0
 22
18000.0
 32
0.0
 13
25700.0
 23
18000.0
 33
0.0
  0
SOLID
  5
EABC2557E58EBCE6
100
AcDbEntity
  8
SIMPLE
  6
CONTINUOUS
 62
     0
100
AcDbTrace
 10
25716.666667
 20
16300.0
 30
0.0
 11
25683.333333
 21
16300.0
 31
0.0
 12
25700.0
 22
16200.0
 32
0.0
 13
25700.0
 23
16200.0
 33
0.0
  0
LINE
  5
EABC2557E58EBCEB
100
AcDbEntity
  8
SIMPLE
  6
CONTINUOUS
 62
     0
100
AcDbLine
 10
25700.0
 20
17900.0
 30
0.0
 11
25700.0
 21
17150.09
 31
0.0
  0
LINE
  5
EABC2557E58EBCEC
100
AcDbEntity
  8
SIMPLE
  6
CONTINUOUS
 62
     0
100
AcDbLine
 10
25700.0
 20
17016.576667
 30
0.0
 11
25700.0
 21
16300.0
 31
0.0
  0
ENDBLK
  5
EABC2557E58EBCF1
100
AcDbEntity
  8
SIMPLE
  6
CONTINUOUS
100
AcDbBlockEnd
  0
BLOCK
  5
EABC2557E58EBCFE
100
AcDbEntity
  8
SIMPLE
  6
CONTINUOUS
100
AcDbBlockBegin
  2
*D36
 70
     1
 10
0.0
 20
0.0
 30
0.0
  1

  0
POINT
  5
EABC2557E58EBCF7
100
AcDbEntity
  8
SIMPLE
  6
CONTINUOUS
 62
     0
100
AcDbPoint
 10
24700.0
 20
17100.0
 30
0.0
  0
POINT
  5
EABC2557E58EBCF8
100
AcDbEntity
  8
SIMPLE
  6
CONTINUOUS
 62
     0
100
AcDbPoint
 10
24700.0
 20
1100.0
 30
0.0
  0
LINE
  5
EABC2557E58EBCF2
100
AcDbEntity
  8
SIMPLE
  6
CONTINUOUS
 62
     0
100
AcDbLine
 10
24750.0
 20
17100.0
 30
0.0
 11
27050.0
 21
17100.0
 31
0.0
  0
LINE
  5
EABC2557E58EBCF3
100
AcDbEntity
  8
SIMPLE
  6
CONTINUOUS
 62
     0
100
AcDbLine
 10
24750.0
 20
1100.0
 30
0.0
 11
27050.0
 21
1100.0
 31
0.0
  0
TEXT
  5
EABC2557E58EBCF9
100
AcDbEntity
  8
SIMPLE
  6
CONTINUOUS
 62
     0
100
AcDbText
 10
26571.428571
 20
9050.0
 30
0.0
 40
100.0
  1
16000.0000
  7
SIMPLEX
 72
     1
 11
27000.0
 21
9050.0
 31
0.0
100
AcDbText
  0
SOLID
  5
EABC2557E58EBCF4
100
AcDbEntity
  8
SIMPLE
  6
CONTINUOUS
 62
     0
100
AcDbTrace
 10
26983.333333
 20
17000.0
 30
0.0
 11
27016.666667
 21
17000.0
 31
0.0
 12
27000.0
 22
17100.0
 32
0.0
 13
27000.0
 23
17100.0
 33
0.0
  0
SOLID
  5
EABC2557E58EBCF5
100
AcDbEntity
  8
SIMPLE
  6
CONTINUOUS
 62
     0
100
AcDbTrace
 10
27016.666667
 20
1200.0
 30
0.0
 11
26983.333333
 21
1200.0
 31
0.0
 12
27000.0
 22
1100.0
 32
0.0
 13
27000.0
 23
1100.0
 33
0.0
  0
LINE
  5
EABC2557E58EBCFA
100
AcDbEntity
  8
SIMPLE
  6
CONTINUOUS
 62
     0
100
AcDbLine
 10
27000.0
 20
17000.0
 30
0.0
 11
27000.0
 21
9150.09
 31
0.0
  0
LINE
  5
EABC2557E58EBCFB
100
AcDbEntity
  8
SIMPLE
  6
CONTINUOUS
 62
     0
100
AcDbLine
 10
27000.0
 20
9016.576667
 30
0.0
 11
27000.0
 21
1200.0
 31
0.0
  0
ENDBLK
  5
EABC2557E58EBD00
100
AcDbEntity
  8
SIMPLE
  6
CONTINUOUS
100
AcDbBlockEnd
  0
BLOCK
  5
EABC255A95F810BA
100
AcDbEntity
  8
SIMPLE
  6
CONTINUOUS
100
AcDbBlockBegin
  2
IO_CELL_CORE_OUT
 70
     0
 10
0.0
 20
0.0
 30
0.0
  1

  0
POLYLINE
  5
EABC255A95F80E79
100
AcDbEntity
  8
SIMPLE
  6
CONTINUOUS
100
AcDb2dPolyline
 66
     1
 10
0.0
 20
0.0
 30
0.0
 70
     1
  0
VERTEX
  5
EABC255A95F810E7
100
AcDbEntity
  8
SIMPLE
  6
CONTINUOUS
100
AcDbVertex
100
AcDb2dVertex
 10
3875.0
 20
-3800.0
 30
0.0
  0
VERTEX
  5
EABC255A95F810E8
100
AcDbEntity
  8
SIMPLE
  6
CONTINUOUS
100
AcDbVertex
100
AcDb2dVertex
 10
3925.0
 20
-3800.0
 30
0.0
  0
VERTEX
  5
EABC255A95F810E9
100
AcDbEntity
  8
SIMPLE
  6
CONTINUOUS
100
AcDbVertex
100
AcDb2dVertex
 10
3925.0
 20
-3725.0
 30
0.0
  0
VERTEX
  5
EABC255A95F810EA
100
AcDbEntity
  8
SIMPLE
  6
CONTINUOUS
100
AcDbVertex
100
AcDb2dVertex
 10
3950.0
 20
-3725.0
 30
0.0
  0
VERTEX
  5
EABC255A95F810EB
100
AcDbEntity
  8
SIMPLE
  6
CONTINUOUS
100
AcDbVertex
100
AcDb2dVertex
 10
3900.0
 20
-3675.0
 30
0.0
  0
VERTEX
  5
EABC255A95F810EC
100
AcDbEntity
  8
SIMPLE
  6
CONTINUOUS
100
AcDbVertex
100
AcDb2dVertex
 10
3850.0
 20
-3725.0
 30
0.0
  0
VERTEX
  5
EABC255A95F810ED
100
AcDbEntity
  8
SIMPLE
  6
CONTINUOUS
100
AcDbVertex
100
AcDb2dVertex
 10
3875.0
 20
-3725.0
 30
0.0
  0
VERTEX
  5
EABC255A95F810EE
100
AcDbEntity
  8
SIMPLE
  6
CONTINUOUS
100
AcDbVertex
100
AcDb2dVertex
 10
3875.0
 20
-3800.0
 30
0.0
  0
SEQEND
  5
EABC255A95F810EF
100
AcDbEntity
  8
SIMPLE
  6
CONTINUOUS
  0
ENDBLK
  5
EABC255A95F810BB
100
AcDbEntity
  8
SIMPLE
  6
CONTINUOUS
100
AcDbBlockEnd
  0
BLOCK
  5
EABC255A95F810BD
100
AcDbEntity
  8
SIMPLE
  6
CONTINUOUS
100
AcDbBlockBegin
  2
IO_CELL_CORE_IN
 70
     0
 10
0.0
 20
0.0
 30
0.0
  1

  0
POLYLINE
  5
EABC255A95F80E77
100
AcDbEntity
  8
SIMPLE
  6
CONTINUOUS
100
AcDb2dPolyline
 66
     1
 10
0.0
 20
0.0
 30
0.0
 70
     1
  0
VERTEX
  5
EABC255A95F810F0
100
AcDbEntity
  8
SIMPLE
  6
CONTINUOUS
100
AcDbVertex
100
AcDb2dVertex
 10
3700.0
 20
-3750.0
 30
0.0
  0
VERTEX
  5
EABC255A95F810F1
100
AcDbEntity
  8
SIMPLE
  6
CONTINUOUS
100
AcDbVertex
100
AcDb2dVertex
 10
3750.0
 20
-3800.0
 30
0.0
  0
VERTEX
  5
EABC255A95F810F2
100
AcDbEntity
  8
SIMPLE
  6
CONTINUOUS
100
AcDbVertex
100
AcDb2dVertex
 10
3800.0
 20
-3750.0
 30
0.0
  0
VERTEX
  5
EABC255A95F810F3
100
AcDbEntity
  8
SIMPLE
  6
CONTINUOUS
100
AcDbVertex
100
AcDb2dVertex
 10
3775.0
 20
-3750.0
 30
0.0
  0
VERTEX
  5
EABC255A95F810F4
100
AcDbEntity
  8
SIMPLE
  6
CONTINUOUS
100
AcDbVertex
100
AcDb2dVertex
 10
3775.0
 20
-3675.0
 30
0.0
  0
VERTEX
  5
EABC255A95F810F5
100
AcDbEntity
  8
SIMPLE
  6
CONTINUOUS
100
AcDbVertex
100
AcDb2dVertex
 10
3725.0
 20
-3675.0
 30
0.0
  0
VERTEX
  5
EABC255A95F810F6
100
AcDbEntity
  8
SIMPLE
  6
CONTINUOUS
100
AcDbVertex
100
AcDb2dVertex
 10
3725.0
 20
-3750.0
 30
0.0
  0
VERTEX
  5
EABC255A95F810F7
100
AcDbEntity
  8
SIMPLE
  6
CONTINUOUS
100
AcDbVertex
100
AcDb2dVertex
 10
3700.0
 20
-3750.0
 30
0.0
  0
SEQEND
  5
EABC255A95F810F8
100
AcDbEntity
  8
SIMPLE
  6
CONTINUOUS
  0
ENDBLK
  5
EABC255A95F810BE
100
AcDbEntity
  8
SIMPLE
  6
CONTINUOUS
100
AcDbBlockEnd
  0
BLOCK
  5
EABC255A95F8D5C6
100
AcDbEntity
  8
SIMPLE
  6
CONTINUOUS
100
AcDbBlockBegin
  2
IO_CELL_TITAN_IN_PORT_GROUP
 70
     0
 10
0.0
 20
0.0
 30
0.0
  1

  0
LINE
  5
EABC255A95F8D5AD
100
AcDbEntity
  8
SIMPLE
  6
CONTINUOUS
100
AcDbLine
 10
2900.0
 20
-4200.0
 30
0.0
 11
800.0
 21
-4200.0
 31
0.0
  0
POINT
  5
EABC255A95F8D5AE
100
AcDbEntity
  8
SIMPLE
  6
CONTINUOUS
100
AcDbPoint
 10
2900.0
 20
-4200.0
 30
0.0
  0
ENDBLK
  5
EABC255A95F8D5C8
100
AcDbEntity
  8
SIMPLE
  6
CONTINUOUS
100
AcDbBlockEnd
  0
BLOCK
  5
EABC255A95F8D5CB
100
AcDbEntity
  8
COMMENT
  6
CONTINUOUS
100
AcDbBlockBegin
  2
IO_CELL_TITAN_OUT_PORT_GROUP
 70
     0
 10
0.0
 20
0.0
 30
0.0
  1

  0
LINE
  5
EABC255A95F86B10
100
AcDbEntity
  8
SIMPLE
  6
CONTINUOUS
100
AcDbLine
 10
4675.0
 20
-4200.0
 30
0.0
 11
5375.0
 21
-4200.0
 31
0.0
  0
POINT
  5
EABC255A95F86B11
100
AcDbEntity
  8
SIMPLE
  6
CONTINUOUS
100
AcDbPoint
 10
4675.0
 20
-4200.0
 30
0.0
  0
POINT
  5
EABC255A95F86B12
100
AcDbEntity
  8
COMMENT
  6
CONTINUOUS
100
AcDbPoint
 10
5375.0
 20
-4200.0
 30
0.0
  0
ENDBLK
  5
EABC255A95F8D5CD
100
AcDbEntity
  8
COMMENT
  6
CONTINUOUS
100
AcDbBlockEnd
  0
BLOCK
  5
EABC255A95F8D5D4
100
AcDbEntity
  8
SIMPLE
  6
CONTINUOUS
100
AcDbBlockBegin
  2
IO_CELL_TITAN_DDIO_OE_IN_PORT
 70
     0
 10
0.0
 20
0.0
 30
0.0
  1

  0
POINT
  5
EABC255A95F8D5AF
100
AcDbEntity
  8
SIMPLE
  6
CONTINUOUS
100
AcDbPoint
 10
3000.0
 20
-3800.0
 30
0.0
  0
ENDBLK
  5
EABC255A95F8D5D6
100
AcDbEntity
  8
SIMPLE
  6
CONTINUOUS
100
AcDbBlockEnd
  0
BLOCK
  5
EABC255A95F8D5D8
100
AcDbEntity
  8
SIMPLE
  6
CONTINUOUS
100
AcDbBlockBegin
  2
IO_CELL_TITAN_DDIO_OE_OUT_PORT
 70
     0
 10
0.0
 20
0.0
 30
0.0
  1

  0
POINT
  5
EABC255A95F8D5B4
100
AcDbEntity
  8
SIMPLE
  6
CONTINUOUS
100
AcDbPoint
 10
3625.0
 20
-3800.0
 30
0.0
  0
ENDBLK
  5
EABC255A95F8D5DA
100
AcDbEntity
  8
SIMPLE
  6
CONTINUOUS
100
AcDbBlockEnd
  0
BLOCK
  5
EABC255A95F8D5DC
100
AcDbEntity
  8
SIMPLE
  6
CONTINUOUS
100
AcDbBlockBegin
  2
IO_CELL_TITAN_DDIO_OE
 70
     0
 10
0.0
 20
0.0
 30
0.0
  1

  0
POLYLINE
  5
EABC255A95F82ABA
100
AcDbEntity
  8
SIMPLE
  6
CONTINUOUS
100
AcDb2dPolyline
 66
     1
 10
0.0
 20
0.0
 30
0.0
 70
     1
  0
VERTEX
  5
EABC255A95F8D694
100
AcDbEntity
  8
SIMPLE
  6
CONTINUOUS
100
AcDbVertex
100
AcDb2dVertex
 10
3000.0
 20
-3600.0
 30
0.0
  0
VERTEX
  5
EABC255A95F8D695
100
AcDbEntity
  8
SIMPLE
  6
CONTINUOUS
100
AcDbVertex
100
AcDb2dVertex
 10
3625.0
 20
-3600.0
 30
0.0
  0
VERTEX
  5
EABC255A95F8D696
100
AcDbEntity
  8
SIMPLE
  6
CONTINUOUS
100
AcDbVertex
100
AcDb2dVertex
 10
3625.0
 20
-4000.0
 30
0.0
  0
VERTEX
  5
EABC255A95F8D697
100
AcDbEntity
  8
SIMPLE
  6
CONTINUOUS
100
AcDbVertex
100
AcDb2dVertex
 10
3000.0
 20
-4000.0
 30
0.0
  0
SEQEND
  5
EABC255A95F8D698
100
AcDbEntity
  8
SIMPLE
  6
CONTINUOUS
  0
INSERT
  5
EABC255A95F8D5D7
100
AcDbEntity
  8
SIMPLE
  6
CONTINUOUS
100
AcDbBlockReference
  2
IO_CELL_TITAN_DDIO_OE_IN_PORT
 10
0.0
 20
0.0
 30
0.0
  0
INSERT
  5
EABC255A95F8D5DB
100
AcDbEntity
  8
SIMPLE
  6
CONTINUOUS
100
AcDbBlockReference
  2
IO_CELL_TITAN_DDIO_OE_OUT_PORT
 10
0.0
 20
0.0
 30
0.0
  0
ENDBLK
  5
EABC255A95F8D5DE
100
AcDbEntity
  8
SIMPLE
  6
CONTINUOUS
100
AcDbBlockEnd
  0
BLOCK
  5
EABC255A95F8D5E0
100
AcDbEntity
  8
SIMPLE
  6
CONTINUOUS
100
AcDbBlockBegin
  2
IO_CELL_TITAN_DDIO_IN_IN_PORT
 70
     0
 10
0.0
 20
0.0
 30
0.0
  1

  0
POINT
  5
EABC255A95F8D5B0
100
AcDbEntity
  8
SIMPLE
  6
CONTINUOUS
100
AcDbPoint
 10
3000.0
 20
-4600.0
 30
0.0
  0
ENDBLK
  5
EABC255A95F8D5E2
100
AcDbEntity
  8
SIMPLE
  6
CONTINUOUS
100
AcDbBlockEnd
  0
BLOCK
  5
EABC255A95F8D5E4
100
AcDbEntity
  8
SIMPLE
  6
CONTINUOUS
100
AcDbBlockBegin
  2
IO_CELL_TITAN_DDIO_IN_OUT_PORT
 70
     0
 10
0.0
 20
0.0
 30
0.0
  1

  0
POINT
  5
EABC255A95F8D5B2
100
AcDbEntity
  8
SIMPLE
  6
CONTINUOUS
100
AcDbPoint
 10
3625.0
 20
-4600.0
 30
0.0
  0
ENDBLK
  5
EABC255A95F8D5E6
100
AcDbEntity
  8
SIMPLE
  6
CONTINUOUS
100
AcDbBlockEnd
  0
BLOCK
  5
EABC255A95F8D5E8
100
AcDbEntity
  8
SIMPLE
  6
CONTINUOUS
100
AcDbBlockBegin
  2
IO_CELL_TITAN_DDIO_IN
 70
     0
 10
0.0
 20
0.0
 30
0.0
  1

  0
POLYLINE
  5
EABC255A95F83545
100
AcDbEntity
  8
SIMPLE
  6
CONTINUOUS
100
AcDb2dPolyline
 66
     1
 10
0.0
 20
0.0
 30
0.0
 70
     1
  0
VERTEX
  5
EABC255A95F8D699
100
AcDbEntity
  8
SIMPLE
  6
CONTINUOUS
100
AcDbVertex
100
AcDb2dVertex
 10
3000.0
 20
-4400.0
 30
0.0
  0
VERTEX
  5
EABC255A95F8D69A
100
AcDbEntity
  8
SIMPLE
  6
CONTINUOUS
100
AcDbVertex
100
AcDb2dVertex
 10
3625.0
 20
-4400.0
 30
0.0
  0
VERTEX
  5
EABC255A95F8D69B
100
AcDbEntity
  8
SIMPLE
  6
CONTINUOUS
100
AcDbVertex
100
AcDb2dVertex
 10
3625.0
 20
-4800.0
 30
0.0
  0
VERTEX
  5
EABC255A95F8D69C
100
AcDbEntity
  8
SIMPLE
  6
CONTINUOUS
100
AcDbVertex
100
AcDb2dVertex
 10
3000.0
 20
-4800.0
 30
0.0
  0
SEQEND
  5
EABC255A95F8D69D
100
AcDbEntity
  8
SIMPLE
  6
CONTINUOUS
  0
INSERT
  5
EABC255A95F8D5E3
100
AcDbEntity
  8
SIMPLE
  6
CONTINUOUS
100
AcDbBlockReference
  2
IO_CELL_TITAN_DDIO_IN_IN_PORT
 10
0.0
 20
0.0
 30
0.0
  0
INSERT
  5
EABC255A95F8D5E7
100
AcDbEntity
  8
SIMPLE
  6
CONTINUOUS
100
AcDbBlockReference
  2
IO_CELL_TITAN_DDIO_IN_OUT_PORT
 10
0.0
 20
0.0
 30
0.0
  0
ENDBLK
  5
EABC255A95F8D5EA
100
AcDbEntity
  8
SIMPLE
  6
CONTINUOUS
100
AcDbBlockEnd
  0
BLOCK
  5
EABC255A95F8D5EC
100
AcDbEntity
  8
SIMPLE
  6
CONTINUOUS
100
AcDbBlockBegin
  2
IO_CELL_TITAN_DDIO_OUT_IN_PORT
 70
     0
 10
0.0
 20
0.0
 30
0.0
  1

  0
POINT
  5
EABC255A95F8D5B1
100
AcDbEntity
  8
SIMPLE
  6
CONTINUOUS
100
AcDbPoint
 10
3000.0
 20
-4600.0
 30
0.0
  0
ENDBLK
  5
EABC255A95F8D5EE
100
AcDbEntity
  8
SIMPLE
  6
CONTINUOUS
100
AcDbBlockEnd
  0
BLOCK
  5
EABC255A95F8D5F0
100
AcDbEntity
  8
SIMPLE
  6
CONTINUOUS
100
AcDbBlockBegin
  2
IO_CELL_TITAN_DDIO_OUT_OUT_PORT
 70
     0
 10
0.0
 20
0.0
 30
0.0
  1

  0
POINT
  5
EABC255A95F8D5B3
100
AcDbEntity
  8
SIMPLE
  6
CONTINUOUS
100
AcDbPoint
 10
3625.0
 20
-4600.0
 30
0.0
  0
ENDBLK
  5
EABC255A95F8D5F2
100
AcDbEntity
  8
SIMPLE
  6
CONTINUOUS
100
AcDbBlockEnd
  0
BLOCK
  5
EABC255A95F8D5F4
100
AcDbEntity
  8
SIMPLE
  6
CONTINUOUS
100
AcDbBlockBegin
  2
IO_CELL_TITAN_DDIO_OUT
 70
     0
 10
0.0
 20
0.0
 30
0.0
  1

  0
POLYLINE
  5
EABC255A95F83546
100
AcDbEntity
  8
SIMPLE
  6
CONTINUOUS
100
AcDb2dPolyline
 66
     1
 10
0.0
 20
0.0
 30
0.0
 70
     1
  0
VERTEX
  5
EABC255A95F8D69E
100
AcDbEntity
  8
SIMPLE
  6
CONTINUOUS
100
AcDbVertex
100
AcDb2dVertex
 10
3000.0
 20
-4400.0
 30
0.0
  0
VERTEX
  5
EABC255A95F8D69F
100
AcDbEntity
  8
SIMPLE
  6
CONTINUOUS
100
AcDbVertex
100
AcDb2dVertex
 10
3625.0
 20
-4400.0
 30
0.0
  0
VERTEX
  5
EABC255A95F8D6A0
100
AcDbEntity
  8
SIMPLE
  6
CONTINUOUS
100
AcDbVertex
100
AcDb2dVertex
 10
3625.0
 20
-4800.0
 30
0.0
  0
VERTEX
  5
EABC255A95F8D6A1
100
AcDbEntity
  8
SIMPLE
  6
CONTINUOUS
100
AcDbVertex
100
AcDb2dVertex
 10
3000.0
 20
-4800.0
 30
0.0
  0
SEQEND
  5
EABC255A95F8D6A2
100
AcDbEntity
  8
SIMPLE
  6
CONTINUOUS
  0
INSERT
  5
EABC255A95F8D5EF
100
AcDbEntity
  8
SIMPLE
  6
CONTINUOUS
100
AcDbBlockReference
  2
IO_CELL_TITAN_DDIO_OUT_IN_PORT
 10
0.0
 20
0.0
 30
0.0
  0
INSERT
  5
EABC255A95F8D5F3
100
AcDbEntity
  8
SIMPLE
  6
CONTINUOUS
100
AcDbBlockReference
  2
IO_CELL_TITAN_DDIO_OUT_OUT_PORT
 10
0.0
 20
0.0
 30
0.0
  0
ENDBLK
  5
EABC255A95F8D5F6
100
AcDbEntity
  8
SIMPLE
  6
CONTINUOUS
100
AcDbBlockEnd
  0
BLOCK
  5
EABC255A95F8D5F8
100
AcDbEntity
  8
SIMPLE
  6
CONTINUOUS
100
AcDbBlockBegin
  2
IO_CELL_TITAN_PAD_IN_PORT
 70
     0
 10
0.0
 20
0.0
 30
0.0
  1

  0
POINT
  5
EABC255A95F8D5B5
100
AcDbEntity
  8
SIMPLE
  6
CONTINUOUS
100
AcDbPoint
 10
3125.0
 20
-4200.0
 30
0.0
  0
ENDBLK
  5
EABC255A95F8D5FA
100
AcDbEntity
  8
SIMPLE
  6
CONTINUOUS
100
AcDbBlockEnd
  0
BLOCK
  5
EABC255A95F8D5FC
100
AcDbEntity
  8
SIMPLE
  6
CONTINUOUS
100
AcDbBlockBegin
  2
IO_CELL_TITAN_PAD_OUT_PORT
 70
     0
 10
0.0
 20
0.0
 30
0.0
  1

  0
POINT
  5
EABC255A95F8D5B6
100
AcDbEntity
  8
SIMPLE
  6
CONTINUOUS
100
AcDbPoint
 10
3500.0
 20
-4200.0
 30
0.0
  0
ENDBLK
  5
EABC255A95F8D5FE
100
AcDbEntity
  8
SIMPLE
  6
CONTINUOUS
100
AcDbBlockEnd
  0
BLOCK
  5
EABC255A95F8D600
100
AcDbEntity
  8
SIMPLE
  6
CONTINUOUS
100
AcDbBlockBegin
  2
IO_CELL_TITAN_PAD
 70
     0
 10
0.0
 20
0.0
 30
0.0
  1

  0
INSERT
  5
EABC255A95F82AB8
100
AcDbEntity
  8
SIMPLE
  6
CONTINUOUS
100
AcDbBlockReference
  2
IO_CELL_CORE_OUT
 10
-50.0
 20
-462.0
 30
0.0
  0
INSERT
  5
EABC255A95F82AB9
100
AcDbEntity
  8
SIMPLE
  6
CONTINUOUS
100
AcDbBlockReference
  2
IO_CELL_CORE_IN
 10
-25.0
 20
-462.0
 30
0.0
  0
POLYLINE
  5
EABC255A95F8D5BD
100
AcDbEntity
  8
SIMPLE
  6
CONTINUOUS
100
AcDb2dPolyline
 66
     1
 10
0.0
 20
0.0
 30
0.0
 70
     1
  0
VERTEX
  5
EABC255A95F8D6A3
100
AcDbEntity
  8
SIMPLE
  6
CONTINUOUS
100
AcDbVertex
100
AcDb2dVertex
 10
3600.0
 20
-4100.0
 30
0.0
  0
VERTEX
  5
EABC255A95F8D6A4
100
AcDbEntity
  8
SIMPLE
  6
CONTINUOUS
100
AcDbVertex
100
AcDb2dVertex
 10
3975.0
 20
-4100.0
 30
0.0
  0
VERTEX
  5
EABC255A95F8D6A5
100
AcDbEntity
  8
SIMPLE
  6
CONTINUOUS
100
AcDbVertex
100
AcDb2dVertex
 10
3975.0
 20
-4300.0
 30
0.0
  0
VERTEX
  5
EABC255A95F8D6A6
100
AcDbEntity
  8
SIMPLE
  6
CONTINUOUS
100
AcDbVertex
100
AcDb2dVertex
 10
3600.0
 20
-4300.0
 30
0.0
  0
SEQEND
  5
EABC255A95F8D6A7
100
AcDbEntity
  8
SIMPLE
  6
CONTINUOUS
  0
INSERT
  5
EABC255A95F8D5FB
100
AcDbEntity
  8
SIMPLE
  6
CONTINUOUS
100
AcDbBlockReference
  2
IO_CELL_TITAN_PAD_IN_PORT
 10
475.0
 20
0.0
 30
0.0
  0
INSERT
  5
EABC255A95F8D5FF
100
AcDbEntity
  8
SIMPLE
  6
CONTINUOUS
100
AcDbBlockReference
  2
IO_CELL_TITAN_PAD_OUT_PORT
 10
475.0
 20
0.0
 30
0.0
  0
ENDBLK
  5
EABC255A95F8D602
100
AcDbEntity
  8
SIMPLE
  6
CONTINUOUS
100
AcDbBlockEnd
  0
BLOCK
  5
EABC255A95F8D604
100
AcDbEntity
  8
SIMPLE
  6
CONTINUOUS
100
AcDbBlockBegin
  2
IO_CELL_TITAN_INBUF_IN_PORT
 70
     0
 10
0.0
 20
0.0
 30
0.0
  1

  0
POINT
  5
EABC255A95F8D5B9
100
AcDbEntity
  8
SIMPLE
  6
CONTINUOUS
100
AcDbPoint
 10
4075.0
 20
-4200.0
 30
0.0
  0
ENDBLK
  5
EABC255A95F8D606
100
AcDbEntity
  8
SIMPLE
  6
CONTINUOUS
100
AcDbBlockEnd
  0
BLOCK
  5
EABC255A95F8D608
100
AcDbEntity
  8
SIMPLE
  6
CONTINUOUS
100
AcDbBlockBegin
  2
IO_CELL_TITAN_INBUF_OUT_PORT
 70
     0
 10
0.0
 20
0.0
 30
0.0
  1

  0
POINT
  5
EABC255A95F8D5BA
100
AcDbEntity
  8
SIMPLE
  6
CONTINUOUS
100
AcDbPoint
 10
4450.0
 20
-4200.0
 30
0.0
  0
ENDBLK
  5
EABC255A95F8D60A
100
AcDbEntity
  8
SIMPLE
  6
CONTINUOUS
100
AcDbBlockEnd
  0
BLOCK
  5
EABC255A95F8D60C
100
AcDbEntity
  8
SIMPLE
  6
CONTINUOUS
100
AcDbBlockBegin
  2
IO_CELL_TITAN_INBUF
 70
     0
 10
0.0
 20
0.0
 30
0.0
  1

  0
POLYLINE
  5
EABC255A95F8D5BE
100
AcDbEntity
  8
SIMPLE
  6
CONTINUOUS
100
AcDb2dPolyline
 66
     1
 10
0.0
 20
0.0
 30
0.0
 70
     1
  0
VERTEX
  5
EABC255A95F8D6A8
100
AcDbEntity
  8
SIMPLE
  6
CONTINUOUS
100
AcDbVertex
100
AcDb2dVertex
 10
4075.0
 20
-4100.0
 30
0.0
  0
VERTEX
  5
EABC255A95F8D6A9
100
AcDbEntity
  8
SIMPLE
  6
CONTINUOUS
100
AcDbVertex
100
AcDb2dVertex
 10
4450.0
 20
-4100.0
 30
0.0
  0
VERTEX
  5
EABC255A95F8D6AA
100
AcDbEntity
  8
SIMPLE
  6
CONTINUOUS
100
AcDbVertex
100
AcDb2dVertex
 10
4450.0
 20
-4300.0
 30
0.0
  0
VERTEX
  5
EABC255A95F8D6AB
100
AcDbEntity
  8
SIMPLE
  6
CONTINUOUS
100
AcDbVertex
100
AcDb2dVertex
 10
4075.0
 20
-4300.0
 30
0.0
  0
SEQEND
  5
EABC255A95F8D6AC
100
AcDbEntity
  8
SIMPLE
  6
CONTINUOUS
  0
INSERT
  5
EABC255A95F8D607
100
AcDbEntity
  8
SIMPLE
  6
CONTINUOUS
100
AcDbBlockReference
  2
IO_CELL_TITAN_INBUF_IN_PORT
 10
0.0
 20
0.0
 30
0.0
  0
INSERT
  5
EABC255A95F8D60B
100
AcDbEntity
  8
SIMPLE
  6
CONTINUOUS
100
AcDbBlockReference
  2
IO_CELL_TITAN_INBUF_OUT_PORT
 10
0.0
 20
0.0
 30
0.0
  0
ENDBLK
  5
EABC255A95F8D60E
100
AcDbEntity
  8
SIMPLE
  6
CONTINUOUS
100
AcDbBlockEnd
  0
BLOCK
  5
EABC255A95F8D610
100
AcDbEntity
  8
SIMPLE
  6
CONTINUOUS
100
AcDbBlockBegin
  2
IO_CELL_TITAN_OUTBUF_IN_PORT
 70
     0
 10
0.0
 20
0.0
 30
0.0
  1

  0
POINT
  5
EABC255A95F8D5B7
100
AcDbEntity
  8
SIMPLE
  6
CONTINUOUS
100
AcDbPoint
 10
3125.0
 20
-4200.0
 30
0.0
  0
ENDBLK
  5
EABC255A95F8D612
100
AcDbEntity
  8
SIMPLE
  6
CONTINUOUS
100
AcDbBlockEnd
  0
BLOCK
  5
EABC255A95F8D614
100
AcDbEntity
  8
SIMPLE
  6
CONTINUOUS
100
AcDbBlockBegin
  2
IO_CELL_TITAN_OUTBUF_OUT_PORT
 70
     0
 10
0.0
 20
0.0
 30
0.0
  1

  0
POINT
  5
EABC255A95F8D5B8
100
AcDbEntity
  8
SIMPLE
  6
CONTINUOUS
100
AcDbPoint
 10
3500.0
 20
-4200.0
 30
0.0
  0
ENDBLK
  5
EABC255A95F8D616
100
AcDbEntity
  8
SIMPLE
  6
CONTINUOUS
100
AcDbBlockEnd
  0
BLOCK
  5
EABC255A95F8D618
100
AcDbEntity
  8
SIMPLE
  6
CONTINUOUS
100
AcDbBlockBegin
  2
IO_CELL_TITAN_OUTBUF
 70
     0
 10
0.0
 20
0.0
 30
0.0
  1

  0
POLYLINE
  5
EABC255A95F8D5BC
100
AcDbEntity
  8
SIMPLE
  6
CONTINUOUS
100
AcDb2dPolyline
 66
     1
 10
0.0
 20
0.0
 30
0.0
 70
     1
  0
VERTEX
  5
EABC255A95F8D6AD
100
AcDbEntity
  8
SIMPLE
  6
CONTINUOUS
100
AcDbVertex
100
AcDb2dVertex
 10
3125.0
 20
-4100.0
 30
0.0
  0
VERTEX
  5
EABC255A95F8D6AE
100
AcDbEntity
  8
SIMPLE
  6
CONTINUOUS
100
AcDbVertex
100
AcDb2dVertex
 10
3500.0
 20
-4100.0
 30
0.0
  0
VERTEX
  5
EABC255A95F8D6AF
100
AcDbEntity
  8
SIMPLE
  6
CONTINUOUS
100
AcDbVertex
100
AcDb2dVertex
 10
3500.0
 20
-4300.0
 30
0.0
  0
VERTEX
  5
EABC255A95F8D6B0
100
AcDbEntity
  8
SIMPLE
  6
CONTINUOUS
100
AcDbVertex
100
AcDb2dVertex
 10
3125.0
 20
-4300.0
 30
0.0
  0
SEQEND
  5
EABC255A95F8D6B1
100
AcDbEntity
  8
SIMPLE
  6
CONTINUOUS
  0
INSERT
  5
EABC255A95F8D613
100
AcDbEntity
  8
SIMPLE
  6
CONTINUOUS
100
AcDbBlockReference
  2
IO_CELL_TITAN_OUTBUF_IN_PORT
 10
0.0
 20
0.0
 30
0.0
  0
INSERT
  5
EABC255A95F8D617
100
AcDbEntity
  8
SIMPLE
  6
CONTINUOUS
100
AcDbBlockReference
  2
IO_CELL_TITAN_OUTBUF_OUT_PORT
 10
0.0
 20
0.0
 30
0.0
  0
ENDBLK
  5
EABC255A95F8D61A
100
AcDbEntity
  8
SIMPLE
  6
CONTINUOUS
100
AcDbBlockEnd
  0
BLOCK
  5
EABC255A95F8D910
100
AcDbEntity
  8
SIMPLE
  6
CONTINUOUS
100
AcDbBlockBegin
  2
IO_CELL_YGR
 70
     2
 10
0.0
 20
0.0
 30
0.0
  1

  0
POLYLINE
  5
EABC255A95F8D895
100
AcDbEntity
  8
SIMPLE
  6
CONTINUOUS
100
AcDb2dPolyline
 66
     1
 10
0.0
 20
0.0
 30
0.0
 70
     1
  0
VERTEX
  5
EABC255A95F8D896
100
AcDbEntity
  8
SIMPLE
  6
CONTINUOUS
100
AcDbVertex
100
AcDb2dVertex
 10
2900.0
 20
-5500.0
 30
0.0
  0
VERTEX
  5
EABC255A95F8D897
100
AcDbEntity
  8
SIMPLE
  6
CONTINUOUS
100
AcDbVertex
100
AcDb2dVertex
 10
4675.0
 20
-5500.0
 30
0.0
  0
VERTEX
  5
EABC255A95F8D898
100
AcDbEntity
  8
SIMPLE
  6
CONTINUOUS
100
AcDbVertex
100
AcDb2dVertex
 10
4675.0
 20
-6900.0
 30
0.0
  0
VERTEX
  5
EABC255A95F8D899
100
AcDbEntity
  8
SIMPLE
  6
CONTINUOUS
100
AcDbVertex
100
AcDb2dVertex
 10
2900.0
 20
-6900.0
 30
0.0
  0
SEQEND
  5
EABC255A95F8D89A
100
AcDbEntity
  8
SIMPLE
  6
CONTINUOUS
  0
INSERT
  5
EABC255A95F8D89B
100
AcDbEntity
  8
SIMPLE
  6
CONTINUOUS
100
AcDbBlockReference
  2
IO_CELL_TITAN_IN_PORT_GROUP
 10
0.0
 20
-2000.0
 30
0.0
  0
INSERT
  5
EABC255A95F8D89C
100
AcDbEntity
  8
SIMPLE
  6
CONTINUOUS
100
AcDbBlockReference
  2
IO_CELL_TITAN_OUT_PORT_GROUP
 10
0.0
 20
-2000.0
 30
0.0
  0
INSERT
  5
EABC255A95F8D89D
100
AcDbEntity
  8
SIMPLE
  6
CONTINUOUS
100
AcDbBlockReference
  2
IO_CELL_TITAN_DDIO_OE
 10
0.0
 20
-2000.0
 30
0.0
  0
INSERT
  5
EABC255A95F8D89E
100
AcDbEntity
  8
SIMPLE
  6
CONTINUOUS
100
AcDbBlockReference
  2
IO_CELL_TITAN_DDIO_IN
 10
950.0
 20
-2000.0
 30
0.0
  0
INSERT
  5
EABC255A95F8D89F
100
AcDbEntity
  8
SIMPLE
  6
CONTINUOUS
100
AcDbBlockReference
  2
IO_CELL_TITAN_DDIO_OUT
 10
0.0
 20
-2000.0
 30
0.0
  0
INSERT
  5
EABC255A95F8D8A0
100
AcDbEntity
  8
SIMPLE
  6
CONTINUOUS
100
AcDbBlockReference
  2
IO_CELL_TITAN_PAD
 10
0.0
 20
-2000.0
 30
0.0
  0
INSERT
  5
EABC255A95F8D8A1
100
AcDbEntity
  8
SIMPLE
  6
CONTINUOUS
100
AcDbBlockReference
  2
IO_CELL_TITAN_INBUF
 10
0.0
 20
-2000.0
 30
0.0
  0
INSERT
  5
EABC255A95F8D8A2
100
AcDbEntity
  8
SIMPLE
  6
CONTINUOUS
100
AcDbBlockReference
  2
IO_CELL_TITAN_OUTBUF
 10
0.0
 20
-2000.0
 30
0.0
  0
ATTDEF
  5
EABC255A95F8D8A3
100
AcDbEntity
  8
SIMPLE
  6
CONTINUOUS
100
AcDbText
 10
3675.0
 20
-6075.0
 30
0.0
 40
50.0
  1

  7
SIMPLEX
100
AcDbAttributeDefinition
  3

  2
index
 70
     0
  0
INSERT
  5
EABC255A95F8D8F6
100
AcDbEntity
  8
SIMPLE
  6
CONTINUOUS
100
AcDbBlockReference
  2
DELAY_CHAIN
 10
0.0
 20
0.0
 30
0.0
  0
INSERT
  5
EABC255A95F8D8FA
100
AcDbEntity
  8
SIMPLE
  6
CONTINUOUS
100
AcDbBlockReference
  2
INPUT_PHASE_ALIGNMENT
 10
0.0
 20
0.0
 30
0.0
  0
INSERT
  5
EABC255A95F8D8FE
100
AcDbEntity
  8
SIMPLE
  6
CONTINUOUS
100
AcDbBlockReference
  2
HALF_RATE_INPUT
 10
0.0
 20
0.0
 30
0.0
  0
INSERT
  5
EABC255A95F8D902
100
AcDbEntity
  8
SIMPLE
  6
CONTINUOUS
100
AcDbBlockReference
  2
IO_CONFIG
 10
0.0
 20
0.0
 30
0.0
  0
INSERT
  5
EABC255A95F8D906
100
AcDbEntity
  8
SIMPLE
  6
CONTINUOUS
100
AcDbBlockReference
  2
MP_OCT_CONTROL_REG
 10
0.0
 20
0.0
 30
0.0
  0
INSERT
  5
EABC255A95F8D90A
100
AcDbEntity
  8
SIMPLE
  6
CONTINUOUS
100
AcDbBlockReference
  2
DDIO_OUT
 10
0.0
 20
0.0
 30
0.0
  0
INSERT
  5
EABC255A95F8D90F
100
AcDbEntity
  8
SIMPLE
  6
CONTINUOUS
100
AcDbBlockReference
  2
IO_CELL_YGR_OTHERS
 10
0.0
 20
0.0
 30
0.0
  0
ENDBLK
  5
EABC255A95F8D911
100
AcDbEntity
  8
SIMPLE
  6
CONTINUOUS
100
AcDbBlockEnd
  0
BLOCK
  5
EABC255A95FC907F
100
AcDbEntity
  8
SIMPLE
  6
CONTINUOUS
100
AcDbBlockBegin
  2
IO_GROUP_YGR
 70
     0
 10
0.0
 20
0.0
 30
0.0
  1

  0
POLYLINE
  5
EABC255A95FC9008
100
AcDbEntity
  8
COMMENT
  6
CONTINUOUS
100
AcDb2dPolyline
 66
     1
 10
0.0
 20
0.0
 30
0.0
 70
     1
  0
VERTEX
  5
EABC255A95FC9009
100
AcDbEntity
  8
COMMENT
  6
CONTINUOUS
100
AcDbVertex
100
AcDb2dVertex
 10
0.0
 20
0.0
 30
0.0
  0
VERTEX
  5
EABC255A95FC900A
100
AcDbEntity
  8
COMMENT
  6
CONTINUOUS
100
AcDbVertex
100
AcDb2dVertex
 10
8000.0
 20
0.0
 30
0.0
  0
VERTEX
  5
EABC255A95FC900B
100
AcDbEntity
  8
COMMENT
  6
CONTINUOUS
100
AcDbVertex
100
AcDb2dVertex
 10
8000.0
 20
-16000.0
 30
0.0
  0
VERTEX
  5
EABC255A95FC900C
100
AcDbEntity
  8
COMMENT
  6
CONTINUOUS
100
AcDbVertex
100
AcDb2dVertex
 10
0.0
 20
-16000.0
 30
0.0
  0
SEQEND
  5
EABC255A95FC900D
100
AcDbEntity
  8
COMMENT
  6
CONTINUOUS
  0
POLYLINE
  5
EABC255A95FC900E
100
AcDbEntity
  8
SIMPLE
  6
CONTINUOUS
100
AcDb2dPolyline
 66
     1
 10
0.0
 20
0.0
 30
0.0
 70
     1
  0
VERTEX
  5
EABC255A95FC900F
100
AcDbEntity
  8
SIMPLE
  6
CONTINUOUS
100
AcDbVertex
100
AcDb2dVertex
 10
0.0
 20
0.0
 30
0.0
  0
VERTEX
  5
EABC255A95FC9010
100
AcDbEntity
  8
SIMPLE
  6
CONTINUOUS
100
AcDbVertex
100
AcDb2dVertex
 10
8000.0
 20
0.0
 30
0.0
  0
VERTEX
  5
EABC255A95FC9011
100
AcDbEntity
  8
SIMPLE
  6
CONTINUOUS
100
AcDbVertex
100
AcDb2dVertex
 10
8000.0
 20
-16000.0
 30
0.0
  0
VERTEX
  5
EABC255A95FC9012
100
AcDbEntity
  8
SIMPLE
  6
CONTINUOUS
100
AcDbVertex
100
AcDb2dVertex
 10
0.0
 20
-16000.0
 30
0.0
  0
SEQEND
  5
EABC255A95FC9013
100
AcDbEntity
  8
SIMPLE
  6
CONTINUOUS
  0
POLYLINE
  5
EABC255A95FC9014
100
AcDbEntity
  8
COMMENT
  6
CONTINUOUS
100
AcDb2dPolyline
 66
     1
 10
0.0
 20
0.0
 30
0.0
 70
     1
  0
VERTEX
  5
EABC255A95FC9015
100
AcDbEntity
  8
COMMENT
  6
CONTINUOUS
100
AcDbVertex
100
AcDb2dVertex
 10
4675.0
 20
-3500.0
 30
0.0
  0
VERTEX
  5
EABC255A95FC9016
100
AcDbEntity
  8
COMMENT
  6
CONTINUOUS
100
AcDbVertex
100
AcDb2dVertex
 10
2900.0
 20
-3500.0
 30
0.0
  0
VERTEX
  5
EABC255A95FC9017
100
AcDbEntity
  8
COMMENT
  6
CONTINUOUS
100
AcDbVertex
100
AcDb2dVertex
 10
2900.0
 20
-13625.0
 30
0.0
  0
VERTEX
  5
EABC255A95FC9018
100
AcDbEntity
  8
COMMENT
  6
CONTINUOUS
100
AcDbVertex
100
AcDb2dVertex
 10
4675.0
 20
-13625.0
 30
0.0
  0
SEQEND
  5
EABC255A95FC9019
100
AcDbEntity
  8
COMMENT
  6
CONTINUOUS
  0
INSERT
  5
EABC255A95FC901A
100
AcDbEntity
  8
SIMPLE
  6
CONTINUOUS
100
AcDbBlockReference
  2
TERMINATION_BLOCK
 10
0.0
 20
250.0
 30
0.0
  0
INSERT
  5
EABC255A95FC901B
100
AcDbEntity
  8
SIMPLE
  6
CONTINUOUS
100
AcDbBlockReference
  2
SERDES_BLOCK_RX
 10
0.0
 20
0.0
 30
0.0
  0
INSERT
  5
EABC255A95FC901C
100
AcDbEntity
  8
SIMPLE
  6
CONTINUOUS
100
AcDbBlockReference
  2
SERDES_BLOCK_TX
 10
0.0
 20
0.0
 30
0.0
  0
INSERT
  5
EABC255A95FC901D
100
AcDbEntity
  8
SIMPLE
  6
CONTINUOUS
100
AcDbBlockReference
  2
CLKCTRL_BLOCK
 10
0.0
 20
0.0
 30
0.0
  0
INSERT
  5
EABC255A95FC901E
100
AcDbEntity
  8
SIMPLE
  6
CONTINUOUS
100
AcDbBlockReference
  2
DLL_OFFSET_CTRL
 10
0.0
 20
0.0
 30
0.0
  0
INSERT
  5
EABC255A95FC901F
100
AcDbEntity
  8
SIMPLE
  6
CONTINUOUS
100
AcDbBlockReference
  2
DQS_DELAY_CHAIN
 10
0.0
 20
0.0
 30
0.0
  0
INSERT
  5
EABC255A95FC9020
100
AcDbEntity
  8
SIMPLE
  6
CONTINUOUS
100
AcDbBlockReference
  2
DQS_ENABLE
 10
0.0
 20
0.0
 30
0.0
  0
INSERT
  5
EABC255A95FC9021
100
AcDbEntity
  8
SIMPLE
  6
CONTINUOUS
100
AcDbBlockReference
  2
DQS_ENABLE_CTRL
 10
0.0
 20
0.0
 30
0.0
  0
INSERT
  5
EABC255A95FC9022
100
AcDbEntity
  8
SIMPLE
  6
CONTINUOUS
100
AcDbBlockReference
  2
IO_CLOCK_DIVIDER
 10
0.0
 20
0.0
 30
0.0
  0
INSERT
  5
EABC255A95FC9023
100
AcDbEntity
  8
SIMPLE
  6
CONTINUOUS
100
AcDbBlockReference
  2
DQS_CONFIG
 10
0.0
 20
0.0
 30
0.0
  0
INSERT
  5
EABC255A95FC9024
100
AcDbEntity
  8
SIMPLE
  6
CONTINUOUS
100
AcDbBlockReference
  2
TSDBLOCK
 10
0.0
 20
0.0
 30
0.0
  0
INSERT
  5
EABC255A95FC9025
100
AcDbEntity
  8
SIMPLE
  6
CONTINUOUS
100
AcDbBlockReference
 66
     1
  2
IO_CELL_YGR
 10
0.0
 20
0.0
 30
0.0
  0
ATTRIB
  5
EABC255A95FC9026
100
AcDbEntity
  8
SIMPLE
  6
CONTINUOUS
100
AcDbText
 10
3675.0
 20
-6075.0
 30
0.0
 40
50.0
  1
0
  7
SIMPLEX
100
AcDbAttribute
  2
index
 70
     0
  0
SEQEND
  5
EABC255A95FC9027
100
AcDbEntity
  8
SIMPLE
  6
CONTINUOUS
  0
INSERT
  5
EABC255A95FC9028
100
AcDbEntity
  8
SIMPLE
  6
CONTINUOUS
100
AcDbBlockReference
 66
     1
  2
IO_CELL_YGR
 10
0.0
 20
-1500.0
 30
0.0
  0
ATTRIB
  5
EABC255A95FC9029
100
AcDbEntity
  8
SIMPLE
  6
CONTINUOUS
100
AcDbText
 10
3675.0
 20
-7575.0
 30
0.0
 40
50.0
  1
1
  7
SIMPLEX
100
AcDbAttribute
  2
index
 70
     0
  0
SEQEND
  5
EABC255A95FC902A
100
AcDbEntity
  8
SIMPLE
  6
CONTINUOUS
  0
INSERT
  5
EABC255A95FC902B
100
AcDbEntity
  8
SIMPLE
  6
CONTINUOUS
100
AcDbBlockReference
 66
     1
  2
IO_CELL_YGR
 10
0.0
 20
-3000.0
 30
0.0
  0
ATTRIB
  5
EABC255A95FC902C
100
AcDbEntity
  8
SIMPLE
  6
CONTINUOUS
100
AcDbText
 10
3675.0
 20
-9075.0
 30
0.0
 40
50.0
  1
2
  7
SIMPLEX
100
AcDbAttribute
  2
index
 70
     0
  0
SEQEND
  5
EABC255A95FC902D
100
AcDbEntity
  8
SIMPLE
  6
CONTINUOUS
  0
INSERT
  5
EABC255A95FC902E
100
AcDbEntity
  8
SIMPLE
  6
CONTINUOUS
100
AcDbBlockReference
 66
     1
  2
IO_CELL_YGR
 10
0.0
 20
-4500.0
 30
0.0
  0
ATTRIB
  5
EABC255A95FC902F
100
AcDbEntity
  8
SIMPLE
  6
CONTINUOUS
100
AcDbText
 10
3675.0
 20
-10575.0
 30
0.0
 40
50.0
  1
3
  7
SIMPLEX
100
AcDbAttribute
  2
index
 70
     0
  0
SEQEND
  5
EABC255A95FC9030
100
AcDbEntity
  8
SIMPLE
  6
CONTINUOUS
  0
INSERT
  5
EABC255A95FC9031
100
AcDbEntity
  8
SIMPLE
  6
CONTINUOUS
100
AcDbBlockReference
 66
     1
  2
IO_GROUP_CLKBUBLOCK
 10
3725.0
 20
11150.0
 30
0.0
  0
ATTRIB
  5
EABC255A95FC9032
100
AcDbEntity
  8
SIMPLE
  6
CONTINUOUS
100
AcDbText
 10
5175.0
 20
-3850.0
 30
0.0
 40
100.0
  1
1
  7
SIMPLEX
100
AcDbAttribute
  2
index
 70
     0
  0
SEQEND
  5
EABC255A95FC9033
100
AcDbEntity
  8
SIMPLE
  6
CONTINUOUS
  0
INSERT
  5
EABC255A95FC9034
100
AcDbEntity
  8
SIMPLE
  6
CONTINUOUS
100
AcDbBlockReference
 66
     1
  2
IO_GROUP_CLKBUBLOCK
 10
3725.0
 20
10200.0
 30
0.0
  0
ATTRIB
  5
EABC255A95FC9035
100
AcDbEntity
  8
SIMPLE
  6
CONTINUOUS
100
AcDbText
 10
5175.0
 20
-4800.0
 30
0.0
 40
100.0
  1
2
  7
SIMPLEX
100
AcDbAttribute
  2
index
 70
     0
  0
SEQEND
  5
EABC255A95FC9036
100
AcDbEntity
  8
SIMPLE
  6
CONTINUOUS
  0
INSERT
  5
EABC255A95FC9037
100
AcDbEntity
  8
SIMPLE
  6
CONTINUOUS
100
AcDbBlockReference
 66
     1
  2
IO_GROUP_CLKBUBLOCK
 10
3725.0
 20
9250.0
 30
0.0
  0
ATTRIB
  5
EABC255A95FC9038
100
AcDbEntity
  8
SIMPLE
  6
CONTINUOUS
100
AcDbText
 10
5175.0
 20
-5750.0
 30
0.0
 40
100.0
  1
3
  7
SIMPLEX
100
AcDbAttribute
  2
index
 70
     0
  0
SEQEND
  5
EABC255A95FC9039
100
AcDbEntity
  8
SIMPLE
  6
CONTINUOUS
  0
INSERT
  5
EABC255A95FC903A
100
AcDbEntity
  8
SIMPLE
  6
CONTINUOUS
100
AcDbBlockReference
 66
     1
  2
IO_GROUP_CLKBUBLOCK
 10
3725.0
 20
8300.0
 30
0.0
  0
ATTRIB
  5
EABC255A95FC903B
100
AcDbEntity
  8
SIMPLE
  6
CONTINUOUS
100
AcDbText
 10
5175.0
 20
-6700.0
 30
0.0
 40
100.0
  1
4
  7
SIMPLEX
100
AcDbAttribute
  2
index
 70
     0
  0
SEQEND
  5
EABC255A95FC903C
100
AcDbEntity
  8
SIMPLE
  6
CONTINUOUS
  0
INSERT
  5
EABC255A95FC903D
100
AcDbEntity
  8
SIMPLE
  6
CONTINUOUS
100
AcDbBlockReference
 66
     1
  2
IO_GROUP_CLKBUBLOCK
 10
3725.0
 20
7350.0
 30
0.0
  0
ATTRIB
  5
EABC255A95FC903E
100
AcDbEntity
  8
SIMPLE
  6
CONTINUOUS
100
AcDbText
 10
5175.0
 20
-7650.0
 30
0.0
 40
100.0
  1
5
  7
SIMPLEX
100
AcDbAttribute
  2
index
 70
     0
  0
SEQEND
  5
EABC255A95FC903F
100
AcDbEntity
  8
SIMPLE
  6
CONTINUOUS
  0
INSERT
  5
EABC255A95FC9040
100
AcDbEntity
  8
SIMPLE
  6
CONTINUOUS
100
AcDbBlockReference
 66
     1
  2
IO_GROUP_CLKBUBLOCK
 10
3725.0
 20
6400.0
 30
0.0
  0
ATTRIB
  5
EABC255A95FC9041
100
AcDbEntity
  8
SIMPLE
  6
CONTINUOUS
100
AcDbText
 10
5175.0
 20
-8600.0
 30
0.0
 40
100.0
  1
6
  7
SIMPLEX
100
AcDbAttribute
  2
index
 70
     0
  0
SEQEND
  5
EABC255A95FC9042
100
AcDbEntity
  8
SIMPLE
  6
CONTINUOUS
  0
INSERT
  5
EABC255A95FC9043
100
AcDbEntity
  8
SIMPLE
  6
CONTINUOUS
100
AcDbBlockReference
 66
     1
  2
IO_GROUP_CLKBUBLOCK
 10
3725.0
 20
5450.0
 30
0.0
  0
ATTRIB
  5
EABC255A95FC9044
100
AcDbEntity
  8
SIMPLE
  6
CONTINUOUS
100
AcDbText
 10
5175.0
 20
-9550.0
 30
0.0
 40
100.0
  1
7
  7
SIMPLEX
100
AcDbAttribute
  2
index
 70
     0
  0
SEQEND
  5
EABC255A95FC9045
100
AcDbEntity
  8
SIMPLE
  6
CONTINUOUS
  0
INSERT
  5
EABC255A95FC9046
100
AcDbEntity
  8
SIMPLE
  6
CONTINUOUS
100
AcDbBlockReference
 66
     1
  2
IO_GROUP_CLKBUBLOCK
 10
3725.0
 20
4500.0
 30
0.0
  0
ATTRIB
  5
EABC255A95FC9047
100
AcDbEntity
  8
SIMPLE
  6
CONTINUOUS
100
AcDbText
 10
5175.0
 20
-10500.0
 30
0.0
 40
100.0
  1
8
  7
SIMPLEX
100
AcDbAttribute
  2
index
 70
     0
  0
SEQEND
  5
EABC255A95FC9048
100
AcDbEntity
  8
SIMPLE
  6
CONTINUOUS
  0
INSERT
  5
EABC255A95FC9049
100
AcDbEntity
  8
SIMPLE
  6
CONTINUOUS
100
AcDbBlockReference
 66
     1
  2
IO_GROUP_CLKBUBLOCK
 10
3725.0
 20
3550.0
 30
0.0
  0
ATTRIB
  5
EABC255A95FC904A
100
AcDbEntity
  8
SIMPLE
  6
CONTINUOUS
100
AcDbText
 10
5175.0
 20
-11450.0
 30
0.0
 40
100.0
  1
9
  7
SIMPLEX
100
AcDbAttribute
  2
index
 70
     0
  0
SEQEND
  5
EABC255A95FC904B
100
AcDbEntity
  8
SIMPLE
  6
CONTINUOUS
  0
INSERT
  5
EABC255A95FC904C
100
AcDbEntity
  8
SIMPLE
  6
CONTINUOUS
100
AcDbBlockReference
 66
     1
  2
IO_GROUP_CLKBUBLOCK
 10
3725.0
 20
2600.0
 30
0.0
  0
ATTRIB
  5
EABC255A95FC904D
100
AcDbEntity
  8
SIMPLE
  6
CONTINUOUS
100
AcDbText
 10
5175.0
 20
-12400.0
 30
0.0
 40
100.0
  1
A
  7
SIMPLEX
100
AcDbAttribute
  2
index
 70
     0
  0
SEQEND
  5
EABC255A95FC904E
100
AcDbEntity
  8
SIMPLE
  6
CONTINUOUS
  0
INSERT
  5
EABC255A95FC904F
100
AcDbEntity
  8
SIMPLE
  6
CONTINUOUS
100
AcDbBlockReference
 66
     1
  2
IO_GROUP_CLKBUBLOCK
 10
3725.0
 20
1650.0
 30
0.0
  0
ATTRIB
  5
EABC255A95FC9050
100
AcDbEntity
  8
SIMPLE
  6
CONTINUOUS
100
AcDbText
 10
5175.0
 20
-13350.0
 30
0.0
 40
100.0
  1
B
  7
SIMPLEX
100
AcDbAttribute
  2
index
 70
     0
  0
SEQEND
  5
EABC255A95FC9051
100
AcDbEntity
  8
SIMPLE
  6
CONTINUOUS
  0
INSERT
  5
EABC255A95FC9052
100
AcDbEntity
  8
SIMPLE
  6
CONTINUOUS
100
AcDbBlockReference
 66
     1
  2
IO_GROUP_CLKBUBLOCK
 10
3725.0
 20
750.0
 30
0.0
  0
ATTRIB
  5
EABC255A95FC9053
100
AcDbEntity
  8
SIMPLE
  6
CONTINUOUS
100
AcDbText
 10
5175.0
 20
-14250.0
 30
0.0
 40
100.0
  1
C
  7
SIMPLEX
100
AcDbAttribute
  2
index
 70
     0
  0
SEQEND
  5
EABC255A95FC9054
100
AcDbEntity
  8
SIMPLE
  6
CONTINUOUS
  0
INSERT
  5
EABC255A95FC9055
100
AcDbEntity
  8
SIMPLE
  6
CONTINUOUS
100
AcDbBlockReference
 66
     1
  2
IO_GROUP_CLKBUBLOCK
 10
4450.0
 20
11150.0
 30
0.0
  0
ATTRIB
  5
EABC255A95FC9056
100
AcDbEntity
  8
SIMPLE
  6
CONTINUOUS
100
AcDbText
 10
5900.0
 20
-3850.0
 30
0.0
 40
100.0
  1
E
  7
SIMPLEX
100
AcDbAttribute
  2
index
 70
     0
  0
SEQEND
  5
EABC255A95FC9057
100
AcDbEntity
  8
SIMPLE
  6
CONTINUOUS
  0
INSERT
  5
EABC255A95FC9058
100
AcDbEntity
  8
SIMPLE
  6
CONTINUOUS
100
AcDbBlockReference
 66
     1
  2
IO_GROUP_CLKBUBLOCK
 10
4450.0
 20
10200.0
 30
0.0
  0
ATTRIB
  5
EABC255A95FC9059
100
AcDbEntity
  8
SIMPLE
  6
CONTINUOUS
100
AcDbText
 10
5900.0
 20
-4800.0
 30
0.0
 40
100.0
  1
F
  7
SIMPLEX
100
AcDbAttribute
  2
index
 70
     0
  0
SEQEND
  5
EABC255A95FC905A
100
AcDbEntity
  8
SIMPLE
  6
CONTINUOUS
  0
INSERT
  5
EABC255A95FC905B
100
AcDbEntity
  8
SIMPLE
  6
CONTINUOUS
100
AcDbBlockReference
 66
     1
  2
IO_GROUP_CLKBUBLOCK
 10
4450.0
 20
9250.0
 30
0.0
  0
ATTRIB
  5
EABC255A95FC905C
100
AcDbEntity
  8
SIMPLE
  6
CONTINUOUS
100
AcDbText
 10
5900.0
 20
-5750.0
 30
0.0
 40
100.0
  1
10
  7
SIMPLEX
100
AcDbAttribute
  2
index
 70
     0
  0
SEQEND
  5
EABC255A95FC905D
100
AcDbEntity
  8
SIMPLE
  6
CONTINUOUS
  0
INSERT
  5
EABC255A95FC905E
100
AcDbEntity
  8
SIMPLE
  6
CONTINUOUS
100
AcDbBlockReference
 66
     1
  2
IO_GROUP_CLKBUBLOCK
 10
4450.0
 20
8300.0
 30
0.0
  0
ATTRIB
  5
EABC255A95FC905F
100
AcDbEntity
  8
SIMPLE
  6
CONTINUOUS
100
AcDbText
 10
5900.0
 20
-6700.0
 30
0.0
 40
100.0
  1
11
  7
SIMPLEX
100
AcDbAttribute
  2
index
 70
     0
  0
SEQEND
  5
EABC255A95FC9060
100
AcDbEntity
  8
SIMPLE
  6
CONTINUOUS
  0
INSERT
  5
EABC255A95FC9061
100
AcDbEntity
  8
SIMPLE
  6
CONTINUOUS
100
AcDbBlockReference
 66
     1
  2
IO_GROUP_CLKBUBLOCK
 10
4450.0
 20
7350.0
 30
0.0
  0
ATTRIB
  5
EABC255A95FC9062
100
AcDbEntity
  8
SIMPLE
  6
CONTINUOUS
100
AcDbText
 10
5900.0
 20
-7650.0
 30
0.0
 40
100.0
  1
12
  7
SIMPLEX
100
AcDbAttribute
  2
index
 70
     0
  0
SEQEND
  5
EABC255A95FC9063
100
AcDbEntity
  8
SIMPLE
  6
CONTINUOUS
  0
INSERT
  5
EABC255A95FC9064
100
AcDbEntity
  8
SIMPLE
  6
CONTINUOUS
100
AcDbBlockReference
 66
     1
  2
IO_GROUP_CLKBUBLOCK
 10
4450.0
 20
6400.0
 30
0.0
  0
ATTRIB
  5
EABC255A95FC9065
100
AcDbEntity
  8
SIMPLE
  6
CONTINUOUS
100
AcDbText
 10
5900.0
 20
-8600.0
 30
0.0
 40
100.0
  1
13
  7
SIMPLEX
100
AcDbAttribute
  2
index
 70
     0
  0
SEQEND
  5
EABC255A95FC9066
100
AcDbEntity
  8
SIMPLE
  6
CONTINUOUS
  0
INSERT
  5
EABC255A95FC9067
100
AcDbEntity
  8
SIMPLE
  6
CONTINUOUS
100
AcDbBlockReference
 66
     1
  2
IO_GROUP_CLKBUBLOCK
 10
4450.0
 20
5450.0
 30
0.0
  0
ATTRIB
  5
EABC255A95FC9068
100
AcDbEntity
  8
SIMPLE
  6
CONTINUOUS
100
AcDbText
 10
5900.0
 20
-9550.0
 30
0.0
 40
100.0
  1
14
  7
SIMPLEX
100
AcDbAttribute
  2
index
 70
     0
  0
SEQEND
  5
EABC255A95FC9069
100
AcDbEntity
  8
SIMPLE
  6
CONTINUOUS
  0
INSERT
  5
EABC255A95FC906A
100
AcDbEntity
  8
SIMPLE
  6
CONTINUOUS
100
AcDbBlockReference
 66
     1
  2
IO_GROUP_CLKBUBLOCK
 10
4450.0
 20
12100.0
 30
0.0
  0
ATTRIB
  5
EABC255A95FC906B
100
AcDbEntity
  8
SIMPLE
  6
CONTINUOUS
100
AcDbText
 10
5900.0
 20
-2900.0
 30
0.0
 40
100.0
  1
D
  7
SIMPLEX
100
AcDbAttribute
  2
index
 70
     0
  0
SEQEND
  5
EABC255A95FC906C
100
AcDbEntity
  8
SIMPLE
  6
CONTINUOUS
  0
INSERT
  5
EABC255A95FC906D
100
AcDbEntity
  8
SIMPLE
  6
CONTINUOUS
100
AcDbBlockReference
 66
     1
  2
IO_GROUP_CLKBUBLOCK
 10
4450.0
 20
4500.0
 30
0.0
  0
ATTRIB
  5
EABC255A95FC906E
100
AcDbEntity
  8
SIMPLE
  6
CONTINUOUS
100
AcDbText
 10
5900.0
 20
-10500.0
 30
0.0
 40
100.0
  1
15
  7
SIMPLEX
100
AcDbAttribute
  2
index
 70
     0
  0
SEQEND
  5
EABC255A95FC906F
100
AcDbEntity
  8
SIMPLE
  6
CONTINUOUS
  0
INSERT
  5
EABC255A95FC9070
100
AcDbEntity
  8
SIMPLE
  6
CONTINUOUS
100
AcDbBlockReference
 66
     1
  2
IO_GROUP_CLKBUBLOCK
 10
4450.0
 20
3550.0
 30
0.0
  0
ATTRIB
  5
EABC255A95FC9071
100
AcDbEntity
  8
SIMPLE
  6
CONTINUOUS
100
AcDbText
 10
5900.0
 20
-11450.0
 30
0.0
 40
100.0
  1
16
  7
SIMPLEX
100
AcDbAttribute
  2
index
 70
     0
  0
SEQEND
  5
EABC255A95FC9072
100
AcDbEntity
  8
SIMPLE
  6
CONTINUOUS
  0
INSERT
  5
EABC255A95FC9073
100
AcDbEntity
  8
SIMPLE
  6
CONTINUOUS
100
AcDbBlockReference
 66
     1
  2
IO_GROUP_CLKBUBLOCK
 10
4450.0
 20
2600.0
 30
0.0
  0
ATTRIB
  5
EABC255A95FC9074
100
AcDbEntity
  8
SIMPLE
  6
CONTINUOUS
100
AcDbText
 10
5900.0
 20
-12400.0
 30
0.0
 40
100.0
  1
17
  7
SIMPLEX
100
AcDbAttribute
  2
index
 70
     0
  0
SEQEND
  5
EABC255A95FC9075
100
AcDbEntity
  8
SIMPLE
  6
CONTINUOUS
  0
INSERT
  5
EABC255A95FC9076
100
AcDbEntity
  8
SIMPLE
  6
CONTINUOUS
100
AcDbBlockReference
 66
     1
  2
IO_GROUP_CLKBUBLOCK
 10
4450.0
 20
1650.0
 30
0.0
  0
ATTRIB
  5
EABC255A95FC9077
100
AcDbEntity
  8
SIMPLE
  6
CONTINUOUS
100
AcDbText
 10
5900.0
 20
-13350.0
 30
0.0
 40
100.0
  1
18
  7
SIMPLEX
100
AcDbAttribute
  2
index
 70
     0
  0
SEQEND
  5
EABC255A95FC9078
100
AcDbEntity
  8
SIMPLE
  6
CONTINUOUS
  0
INSERT
  5
EABC255A95FC9079
100
AcDbEntity
  8
SIMPLE
  6
CONTINUOUS
100
AcDbBlockReference
 66
     1
  2
IO_GROUP_CLKBUBLOCK
 10
4450.0
 20
750.0
 30
0.0
  0
ATTRIB
  5
EABC255A95FC907A
100
AcDbEntity
  8
SIMPLE
  6
CONTINUOUS
100
AcDbText
 10
5900.0
 20
-14250.0
 30
0.0
 40
100.0
  1
7B
  7
SIMPLEX
100
AcDbAttribute
  2
index
 70
     0
  0
SEQEND
  5
EABC255A95FC907B
100
AcDbEntity
  8
SIMPLE
  6
CONTINUOUS
  0
INSERT
  5
EABC255A95FC907C
100
AcDbEntity
  8
SIMPLE
  6
CONTINUOUS
100
AcDbBlockReference
 66
     1
  2
IO_GROUP_CLKBUBLOCK
 10
3725.0
 20
12100.0
 30
0.0
  0
ATTRIB
  5
EABC255A95FC907D
100
AcDbEntity
  8
SIMPLE
  6
CONTINUOUS
100
AcDbText
 10
5175.0
 20
-2900.0
 30
0.0
 40
100.0
  1
0
  7
SIMPLEX
100
AcDbAttribute
  2
index
 70
     0
  0
SEQEND
  5
EABC255A95FC907E
100
AcDbEntity
  8
SIMPLE
  6
CONTINUOUS
  0
ENDBLK
  5
EABC255A95FC9080
100
AcDbEntity
  8
SIMPLE
  6
CONTINUOUS
100
AcDbBlockEnd
  0
BLOCK
  5
EABC255A95F8D660
100
AcDbEntity
  8
SIMPLE
  6
CONTINUOUS
100
AcDbBlockBegin
  2
TERMINATION_BLOCK_IN_PORT
 70
    64
 10
0.0
 20
0.0
 30
0.0
  1

  0
POINT
  5
EABC255A95F8D65E
100
AcDbEntity
  8
SIMPLE
  6
CONTINUOUS
100
AcDbPoint
 10
3000.0
 20
-4950.0
 30
0.0
  0
ENDBLK
  5
EABC255A95F8D662
100
AcDbEntity
  8
SIMPLE
  6
CONTINUOUS
100
AcDbBlockEnd
  0
BLOCK
  5
EABC255A95F8D664
100
AcDbEntity
  8
SIMPLE
  6
CONTINUOUS
100
AcDbBlockBegin
  2
TERMINATION_BLOCK_OUT_PORT
 70
    64
 10
0.0
 20
0.0
 30
0.0
  1

  0
POINT
  5
EABC255A95F8D65F
100
AcDbEntity
  8
SIMPLE
  6
CONTINUOUS
100
AcDbPoint
 10
4575.0
 20
-4950.0
 30
0.0
  0
ENDBLK
  5
EABC255A95F8D666
100
AcDbEntity
  8
SIMPLE
  6
CONTINUOUS
100
AcDbBlockEnd
  0
BLOCK
  5
EABC255A95F8D668
100
AcDbEntity
  8
SIMPLE
  6
CONTINUOUS
100
AcDbBlockBegin
  2
TERMINATION_BLOCK
 70
    64
 10
0.0
 20
0.0
 30
0.0
  1

  0
POLYLINE
  5
EABC255A95F8D65A
100
AcDbEntity
  8
SIMPLE
  6
CONTINUOUS
100
AcDb2dPolyline
 66
     1
 10
0.0
 20
0.0
 30
0.0
 70
     1
  0
VERTEX
  5
EABC255A95F8D6BC
100
AcDbEntity
  8
SIMPLE
  6
CONTINUOUS
100
AcDbVertex
100
AcDb2dVertex
 10
3000.0
 20
-4725.0
 30
0.0
  0
VERTEX
  5
EABC255A95F8D6BD
100
AcDbEntity
  8
SIMPLE
  6
CONTINUOUS
100
AcDbVertex
100
AcDb2dVertex
 10
4575.0
 20
-4725.0
 30
0.0
  0
VERTEX
  5
EABC255A95F8D6BE
100
AcDbEntity
  8
SIMPLE
  6
CONTINUOUS
100
AcDbVertex
100
AcDb2dVertex
 10
4575.0
 20
-5175.0
 30
0.0
  0
VERTEX
  5
EABC255A95F8D6BF
100
AcDbEntity
  8
SIMPLE
  6
CONTINUOUS
100
AcDbVertex
100
AcDb2dVertex
 10
3000.0
 20
-5175.0
 30
0.0
  0
SEQEND
  5
EABC255A95F8D6C0
100
AcDbEntity
  8
SIMPLE
  6
CONTINUOUS
  0
INSERT
  5
EABC255A95F8D663
100
AcDbEntity
  8
SIMPLE
  6
CONTINUOUS
100
AcDbBlockReference
  2
TERMINATION_BLOCK_IN_PORT
 10
0.0
 20
0.0
 30
0.0
  0
INSERT
  5
EABC255A95F8D667
100
AcDbEntity
  8
SIMPLE
  6
CONTINUOUS
100
AcDbBlockReference
  2
TERMINATION_BLOCK_OUT_PORT
 10
0.0
 20
0.0
 30
0.0
  0
ENDBLK
  5
EABC255A95F8D66A
100
AcDbEntity
  8
SIMPLE
  6
CONTINUOUS
100
AcDbBlockEnd
  0
BLOCK
  5
EABC255A95F8D66C
100
AcDbEntity
  8
SIMPLE
  6
CONTINUOUS
100
AcDbBlockBegin
  2
SERDES_BLOCK_RX_IN_PORT
 70
    64
 10
0.0
 20
0.0
 30
0.0
  1

  0
POINT
  5
EABC255A95F8D655
100
AcDbEntity
  8
SIMPLE
  6
CONTINUOUS
100
AcDbPoint
 10
3000.0
 20
-4000.0
 30
0.0
  0
ENDBLK
  5
EABC255A95F8D66E
100
AcDbEntity
  8
SIMPLE
  6
CONTINUOUS
100
AcDbBlockEnd
  0
BLOCK
  5
EABC255A95F8D670
100
AcDbEntity
  8
SIMPLE
  6
CONTINUOUS
100
AcDbBlockBegin
  2
SERDES_BLOCK_RX_OUT_PORT
 70
    64
 10
0.0
 20
0.0
 30
0.0
  1

  0
POINT
  5
EABC255A95F8D657
100
AcDbEntity
  8
SIMPLE
  6
CONTINUOUS
100
AcDbPoint
 10
3750.0
 20
-4000.0
 30
0.0
  0
ENDBLK
  5
EABC255A95F8D672
100
AcDbEntity
  8
SIMPLE
  6
CONTINUOUS
100
AcDbBlockEnd
  0
BLOCK
  5
EABC255A95F8D675
100
AcDbEntity
  8
SIMPLE
  6
CONTINUOUS
100
AcDbBlockBegin
  2
SERDES_BLOCK_TX_IN_PORT
 70
    64
 10
0.0
 20
0.0
 30
0.0
  1

  0
POINT
  5
EABC255A95F8D656
100
AcDbEntity
  8
SIMPLE
  6
CONTINUOUS
100
AcDbPoint
 10
3825.0
 20
-4000.0
 30
0.0
  0
ENDBLK
  5
EABC255A95F8D677
100
AcDbEntity
  8
SIMPLE
  6
CONTINUOUS
100
AcDbBlockEnd
  0
BLOCK
  5
EABC255A95F8D679
100
AcDbEntity
  8
SIMPLE
  6
CONTINUOUS
100
AcDbBlockBegin
  2
SERDES_BLOCK_TX_OUT_PORT
 70
    64
 10
0.0
 20
0.0
 30
0.0
  1

  0
POINT
  5
EABC255A95F8D658
100
AcDbEntity
  8
SIMPLE
  6
CONTINUOUS
100
AcDbPoint
 10
4575.0
 20
-4000.0
 30
0.0
  0
ENDBLK
  5
EABC255A95F8D67B
100
AcDbEntity
  8
SIMPLE
  6
CONTINUOUS
100
AcDbBlockEnd
  0
BLOCK
  5
EABC255A95F8D67D
100
AcDbEntity
  8
SIMPLE
  6
CONTINUOUS
100
AcDbBlockBegin
  2
SERDES_BLOCK_RX
 70
    64
 10
0.0
 20
0.0
 30
0.0
  1

  0
POLYLINE
  5
EABC255A95F8D651
100
AcDbEntity
  8
SIMPLE
  6
CONTINUOUS
100
AcDb2dPolyline
 66
     1
 10
0.0
 20
0.0
 30
0.0
 70
     1
  0
VERTEX
  5
EABC255A95F8D6C1
100
AcDbEntity
  8
SIMPLE
  6
CONTINUOUS
100
AcDbVertex
100
AcDb2dVertex
 10
3000.0
 20
-4400.0
 30
0.0
  0
VERTEX
  5
EABC255A95F8D6C2
100
AcDbEntity
  8
SIMPLE
  6
CONTINUOUS
100
AcDbVertex
100
AcDb2dVertex
 10
3750.0
 20
-4400.0
 30
0.0
  0
VERTEX
  5
EABC255A95F8D6C3
100
AcDbEntity
  8
SIMPLE
  6
CONTINUOUS
100
AcDbVertex
100
AcDb2dVertex
 10
3750.0
 20
-3600.0
 30
0.0
  0
VERTEX
  5
EABC255A95F8D6C4
100
AcDbEntity
  8
SIMPLE
  6
CONTINUOUS
100
AcDbVertex
100
AcDb2dVertex
 10
3000.0
 20
-3600.0
 30
0.0
  0
SEQEND
  5
EABC255A95F8D6C5
100
AcDbEntity
  8
SIMPLE
  6
CONTINUOUS
  0
INSERT
  5
EABC255A95F8D66F
100
AcDbEntity
  8
SIMPLE
  6
CONTINUOUS
100
AcDbBlockReference
  2
SERDES_BLOCK_RX_IN_PORT
 10
0.0
 20
0.0
 30
0.0
  0
INSERT
  5
EABC255A95F8D673
100
AcDbEntity
  8
SIMPLE
  6
CONTINUOUS
100
AcDbBlockReference
  2
SERDES_BLOCK_RX_OUT_PORT
 10
0.0
 20
0.0
 30
0.0
  0
ENDBLK
  5
EABC255A95F8D67F
100
AcDbEntity
  8
SIMPLE
  6
CONTINUOUS
100
AcDbBlockEnd
  0
BLOCK
  5
EABC255A95F8D681
100
AcDbEntity
  8
SIMPLE
  6
CONTINUOUS
100
AcDbBlockBegin
  2
SERDES_BLOCK_TX
 70
    64
 10
0.0
 20
0.0
 30
0.0
  1

  0
POLYLINE
  5
EABC255A95F8D652
100
AcDbEntity
  8
SIMPLE
  6
CONTINUOUS
100
AcDb2dPolyline
 66
     1
 10
0.0
 20
0.0
 30
0.0
 70
     1
  0
VERTEX
  5
EABC255A95F8D6C6
100
AcDbEntity
  8
SIMPLE
  6
CONTINUOUS
100
AcDbVertex
100
AcDb2dVertex
 10
3825.0
 20
-4400.0
 30
0.0
  0
VERTEX
  5
EABC255A95F8D6C7
100
AcDbEntity
  8
SIMPLE
  6
CONTINUOUS
100
AcDbVertex
100
AcDb2dVertex
 10
4575.0
 20
-4400.0
 30
0.0
  0
VERTEX
  5
EABC255A95F8D6C8
100
AcDbEntity
  8
SIMPLE
  6
CONTINUOUS
100
AcDbVertex
100
AcDb2dVertex
 10
4575.0
 20
-3600.0
 30
0.0
  0
VERTEX
  5
EABC255A95F8D6C9
100
AcDbEntity
  8
SIMPLE
  6
CONTINUOUS
100
AcDbVertex
100
AcDb2dVertex
 10
3825.0
 20
-3600.0
 30
0.0
  0
SEQEND
  5
EABC255A95F8D6CA
100
AcDbEntity
  8
SIMPLE
  6
CONTINUOUS
  0
INSERT
  5
EABC255A95F8D678
100
AcDbEntity
  8
SIMPLE
  6
CONTINUOUS
100
AcDbBlockReference
  2
SERDES_BLOCK_TX_IN_PORT
 10
0.0
 20
0.0
 30
0.0
  0
INSERT
  5
EABC255A95F8D67C
100
AcDbEntity
  8
SIMPLE
  6
CONTINUOUS
100
AcDbBlockReference
  2
SERDES_BLOCK_TX_OUT_PORT
 10
0.0
 20
0.0
 30
0.0
  0
ENDBLK
  5
EABC255A95F8D683
100
AcDbEntity
  8
SIMPLE
  6
CONTINUOUS
100
AcDbBlockEnd
  0
BLOCK
  5
EABC255A95F8D685
100
AcDbEntity
  8
SIMPLE
  6
CONTINUOUS
100
AcDbBlockBegin
  2
CLKCTRL_BLOCK_IN_PORT
 70
    64
 10
0.0
 20
0.0
 30
0.0
  1

  0
POINT
  5
EABC255A95F8D65C
100
AcDbEntity
  8
SIMPLE
  6
CONTINUOUS
100
AcDbPoint
 10
3000.0
 20
-12650.0
 30
0.0
  0
ENDBLK
  5
EABC255A95F8D687
100
AcDbEntity
  8
SIMPLE
  6
CONTINUOUS
100
AcDbBlockEnd
  0
BLOCK
  5
EABC255A95F8D689
100
AcDbEntity
  8
SIMPLE
  6
CONTINUOUS
100
AcDbBlockBegin
  2
CLKCTRL_BLOCK_OUT_PORT
 70
    64
 10
0.0
 20
0.0
 30
0.0
  1

  0
POINT
  5
EABC255A95F8D65D
100
AcDbEntity
  8
SIMPLE
  6
CONTINUOUS
100
AcDbPoint
 10
4575.0
 20
-12650.0
 30
0.0
  0
ENDBLK
  5
EABC255A95F8D68B
100
AcDbEntity
  8
SIMPLE
  6
CONTINUOUS
100
AcDbBlockEnd
  0
BLOCK
  5
EABC255A95F8D68D
100
AcDbEntity
  8
SIMPLE
  6
CONTINUOUS
100
AcDbBlockBegin
  2
CLKCTRL_BLOCK
 70
    64
 10
0.0
 20
0.0
 30
0.0
  1

  0
POLYLINE
  5
EABC255A95F8D65B
100
AcDbEntity
  8
SIMPLE
  6
CONTINUOUS
100
AcDb2dPolyline
 66
     1
 10
0.0
 20
0.0
 30
0.0
 70
     1
  0
VERTEX
  5
EABC255A95F8D6CB
100
AcDbEntity
  8
SIMPLE
  6
CONTINUOUS
100
AcDbVertex
100
AcDb2dVertex
 10
3000.0
 20
-12425.0
 30
0.0
  0
VERTEX
  5
EABC255A95F8D6CC
100
AcDbEntity
  8
SIMPLE
  6
CONTINUOUS
100
AcDbVertex
100
AcDb2dVertex
 10
4575.0
 20
-12425.0
 30
0.0
  0
VERTEX
  5
EABC255A95F8D6CD
100
AcDbEntity
  8
SIMPLE
  6
CONTINUOUS
100
AcDbVertex
100
AcDb2dVertex
 10
4575.0
 20
-12875.0
 30
0.0
  0
VERTEX
  5
EABC255A95F8D6CE
100
AcDbEntity
  8
SIMPLE
  6
CONTINUOUS
100
AcDbVertex
100
AcDb2dVertex
 10
3000.0
 20
-12875.0
 30
0.0
  0
SEQEND
  5
EABC255A95F8D6CF
100
AcDbEntity
  8
SIMPLE
  6
CONTINUOUS
  0
INSERT
  5
EABC255A95F8D688
100
AcDbEntity
  8
SIMPLE
  6
CONTINUOUS
100
AcDbBlockReference
  2
CLKCTRL_BLOCK_IN_PORT
 10
0.0
 20
0.0
 30
0.0
  0
INSERT
  5
EABC255A95F8D68C
100
AcDbEntity
  8
SIMPLE
  6
CONTINUOUS
100
AcDbBlockReference
  2
CLKCTRL_BLOCK_OUT_PORT
 10
0.0
 20
0.0
 30
0.0
  0
ENDBLK
  5
EABC255A95F8D68F
100
AcDbEntity
  8
SIMPLE
  6
CONTINUOUS
100
AcDbBlockEnd
  0
BLOCK
  5
EABC255A95F8D8CE
100
AcDbEntity
  8
SIMPLE
  6
CONTINUOUS
100
AcDbBlockBegin
  2
DLL_OFFSET_CTRL
 70
    64
 10
0.0
 20
0.0
 30
0.0
  1

  0
POLYLINE
  5
EABC255A95F8D8C6
100
AcDbEntity
  8
SIMPLE
  6
CONTINUOUS
100
AcDb2dPolyline
 66
     1
 10
0.0
 20
0.0
 30
0.0
 70
     1
  0
VERTEX
  5
EABC255A95F8D927
100
AcDbEntity
  8
SIMPLE
  6
CONTINUOUS
100
AcDbVertex
100
AcDb2dVertex
 10
3050.0
 20
-5025.0
 30
0.0
  0
VERTEX
  5
EABC255A95F8D928
100
AcDbEntity
  8
SIMPLE
  6
CONTINUOUS
100
AcDbVertex
100
AcDb2dVertex
 10
3375.0
 20
-5025.0
 30
0.0
  0
VERTEX
  5
EABC255A95F8D929
100
AcDbEntity
  8
SIMPLE
  6
CONTINUOUS
100
AcDbVertex
100
AcDb2dVertex
 10
3375.0
 20
-5175.0
 30
0.0
  0
VERTEX
  5
EABC255A95F8D92A
100
AcDbEntity
  8
SIMPLE
  6
CONTINUOUS
100
AcDbVertex
100
AcDb2dVertex
 10
3050.0
 20
-5175.0
 30
0.0
  0
SEQEND
  5
EABC255A95F8D92B
100
AcDbEntity
  8
SIMPLE
  6
CONTINUOUS
  0
ENDBLK
  5
EABC255A95F8D8D0
100
AcDbEntity
  8
SIMPLE
  6
CONTINUOUS
100
AcDbBlockEnd
  0
BLOCK
  5
EABC255A95F8D8D2
100
AcDbEntity
  8
SIMPLE
  6
CONTINUOUS
100
AcDbBlockBegin
  2
DQS_DELAY_CHAIN
 70
    64
 10
0.0
 20
0.0
 30
0.0
  1

  0
POLYLINE
  5
EABC255A95F8D8C8
100
AcDbEntity
  8
SIMPLE
  6
CONTINUOUS
100
AcDb2dPolyline
 66
     1
 10
0.0
 20
0.0
 30
0.0
 70
     1
  0
VERTEX
  5
EABC255A95F8D92C
100
AcDbEntity
  8
SIMPLE
  6
CONTINUOUS
100
AcDbVertex
100
AcDb2dVertex
 10
3800.0
 20
-5025.0
 30
0.0
  0
VERTEX
  5
EABC255A95F8D92D
100
AcDbEntity
  8
SIMPLE
  6
CONTINUOUS
100
AcDbVertex
100
AcDb2dVertex
 10
4125.0
 20
-5025.0
 30
0.0
  0
VERTEX
  5
EABC255A95F8D92E
100
AcDbEntity
  8
SIMPLE
  6
CONTINUOUS
100
AcDbVertex
100
AcDb2dVertex
 10
4125.0
 20
-5175.0
 30
0.0
  0
VERTEX
  5
EABC255A95F8D92F
100
AcDbEntity
  8
SIMPLE
  6
CONTINUOUS
100
AcDbVertex
100
AcDb2dVertex
 10
3800.0
 20
-5175.0
 30
0.0
  0
SEQEND
  5
EABC255A95F8D930
100
AcDbEntity
  8
SIMPLE
  6
CONTINUOUS
  0
ENDBLK
  5
EABC255A95F8D8D4
100
AcDbEntity
  8
SIMPLE
  6
CONTINUOUS
100
AcDbBlockEnd
  0
BLOCK
  5
EABC255A95F8D8D6
100
AcDbEntity
  8
SIMPLE
  6
CONTINUOUS
100
AcDbBlockBegin
  2
DQS_ENABLE
 70
    64
 10
0.0
 20
0.0
 30
0.0
  1

  0
POLYLINE
  5
EABC255A95F8D8C9
100
AcDbEntity
  8
SIMPLE
  6
CONTINUOUS
100
AcDb2dPolyline
 66
     1
 10
0.0
 20
0.0
 30
0.0
 70
     1
  0
VERTEX
  5
EABC255A95F8D931
100
AcDbEntity
  8
SIMPLE
  6
CONTINUOUS
100
AcDbVertex
100
AcDb2dVertex
 10
4175.0
 20
-5025.0
 30
0.0
  0
VERTEX
  5
EABC255A95F8D932
100
AcDbEntity
  8
SIMPLE
  6
CONTINUOUS
100
AcDbVertex
100
AcDb2dVertex
 10
4500.0
 20
-5025.0
 30
0.0
  0
VERTEX
  5
EABC255A95F8D933
100
AcDbEntity
  8
SIMPLE
  6
CONTINUOUS
100
AcDbVertex
100
AcDb2dVertex
 10
4500.0
 20
-5175.0
 30
0.0
  0
VERTEX
  5
EABC255A95F8D934
100
AcDbEntity
  8
SIMPLE
  6
CONTINUOUS
100
AcDbVertex
100
AcDb2dVertex
 10
4175.0
 20
-5175.0
 30
0.0
  0
SEQEND
  5
EABC255A95F8D935
100
AcDbEntity
  8
SIMPLE
  6
CONTINUOUS
  0
ENDBLK
  5
EABC255A95F8D8D8
100
AcDbEntity
  8
SIMPLE
  6
CONTINUOUS
100
AcDbBlockEnd
  0
BLOCK
  5
EABC255A95F8D8DA
100
AcDbEntity
  8
SIMPLE
  6
CONTINUOUS
100
AcDbBlockBegin
  2
DQS_ENABLE_CTRL
 70
    64
 10
0.0
 20
0.0
 30
0.0
  1

  0
POLYLINE
  5
EABC255A95F8D8CD
100
AcDbEntity
  8
SIMPLE
  6
CONTINUOUS
100
AcDb2dPolyline
 66
     1
 10
0.0
 20
0.0
 30
0.0
 70
     1
  0
VERTEX
  5
EABC255A95F8D936
100
AcDbEntity
  8
SIMPLE
  6
CONTINUOUS
100
AcDbVertex
100
AcDb2dVertex
 10
4175.0
 20
-5225.0
 30
0.0
  0
VERTEX
  5
EABC255A95F8D937
100
AcDbEntity
  8
SIMPLE
  6
CONTINUOUS
100
AcDbVertex
100
AcDb2dVertex
 10
4500.0
 20
-5225.0
 30
0.0
  0
VERTEX
  5
EABC255A95F8D938
100
AcDbEntity
  8
SIMPLE
  6
CONTINUOUS
100
AcDbVertex
100
AcDb2dVertex
 10
4500.0
 20
-5375.0
 30
0.0
  0
VERTEX
  5
EABC255A95F8D939
100
AcDbEntity
  8
SIMPLE
  6
CONTINUOUS
100
AcDbVertex
100
AcDb2dVertex
 10
4175.0
 20
-5375.0
 30
0.0
  0
SEQEND
  5
EABC255A95F8D93A
100
AcDbEntity
  8
SIMPLE
  6
CONTINUOUS
  0
ENDBLK
  5
EABC255A95F8D8DC
100
AcDbEntity
  8
SIMPLE
  6
CONTINUOUS
100
AcDbBlockEnd
  0
BLOCK
  5
EABC255A95F8D8DE
100
AcDbEntity
  8
SIMPLE
  6
CONTINUOUS
100
AcDbBlockBegin
  2
IO_CLOCK_DIVIDER
 70
    64
 10
0.0
 20
0.0
 30
0.0
  1

  0
POLYLINE
  5
EABC255A95F8D8CA
100
AcDbEntity
  8
SIMPLE
  6
CONTINUOUS
100
AcDb2dPolyline
 66
     1
 10
0.0
 20
0.0
 30
0.0
 70
     1
  0
VERTEX
  5
EABC255A95F8D93B
100
AcDbEntity
  8
SIMPLE
  6
CONTINUOUS
100
AcDbVertex
100
AcDb2dVertex
 10
3050.0
 20
-5225.0
 30
0.0
  0
VERTEX
  5
EABC255A95F8D93C
100
AcDbEntity
  8
SIMPLE
  6
CONTINUOUS
100
AcDbVertex
100
AcDb2dVertex
 10
3375.0
 20
-5225.0
 30
0.0
  0
VERTEX
  5
EABC255A95F8D93D
100
AcDbEntity
  8
SIMPLE
  6
CONTINUOUS
100
AcDbVertex
100
AcDb2dVertex
 10
3375.0
 20
-5375.0
 30
0.0
  0
VERTEX
  5
EABC255A95F8D93E
100
AcDbEntity
  8
SIMPLE
  6
CONTINUOUS
100
AcDbVertex
100
AcDb2dVertex
 10
3050.0
 20
-5375.0
 30
0.0
  0
SEQEND
  5
EABC255A95F8D93F
100
AcDbEntity
  8
SIMPLE
  6
CONTINUOUS
  0
ENDBLK
  5
EABC255A95F8D8E0
100
AcDbEntity
  8
SIMPLE
  6
CONTINUOUS
100
AcDbBlockEnd
  0
BLOCK
  5
EABC255A95F8D8E2
100
AcDbEntity
  8
SIMPLE
  6
CONTINUOUS
100
AcDbBlockBegin
  2
DQS_CONFIG
 70
    64
 10
0.0
 20
0.0
 30
0.0
  1

  0
POLYLINE
  5
EABC255A95F8D8CC
100
AcDbEntity
  8
SIMPLE
  6
CONTINUOUS
100
AcDb2dPolyline
 66
     1
 10
0.0
 20
0.0
 30
0.0
 70
     1
  0
VERTEX
  5
EABC255A95F8D940
100
AcDbEntity
  8
SIMPLE
  6
CONTINUOUS
100
AcDbVertex
100
AcDb2dVertex
 10
3800.0
 20
-5225.0
 30
0.0
  0
VERTEX
  5
EABC255A95F8D941
100
AcDbEntity
  8
SIMPLE
  6
CONTINUOUS
100
AcDbVertex
100
AcDb2dVertex
 10
4125.0
 20
-5225.0
 30
0.0
  0
VERTEX
  5
EABC255A95F8D942
100
AcDbEntity
  8
SIMPLE
  6
CONTINUOUS
100
AcDbVertex
100
AcDb2dVertex
 10
4125.0
 20
-5375.0
 30
0.0
  0
VERTEX
  5
EABC255A95F8D943
100
AcDbEntity
  8
SIMPLE
  6
CONTINUOUS
100
AcDbVertex
100
AcDb2dVertex
 10
3800.0
 20
-5375.0
 30
0.0
  0
SEQEND
  5
EABC255A95F8D944
100
AcDbEntity
  8
SIMPLE
  6
CONTINUOUS
  0
ENDBLK
  5
EABC255A95F8D8E4
100
AcDbEntity
  8
SIMPLE
  6
CONTINUOUS
100
AcDbBlockEnd
  0
BLOCK
  5
EABC255A95F8D8E7
100
AcDbEntity
  8
SIMPLE
  6
CONTINUOUS
100
AcDbBlockBegin
  2
TSDBLOCK
 70
    64
 10
0.0
 20
0.0
 30
0.0
  1

  0
POLYLINE
  5
EABC255A95F8D8E6
100
AcDbEntity
  8
SIMPLE
  6
CONTINUOUS
100
AcDb2dPolyline
 66
     1
 10
0.0
 20
0.0
 30
0.0
 70
     1
  0
VERTEX
  5
EABC255A95F8D945
100
AcDbEntity
  8
SIMPLE
  6
CONTINUOUS
100
AcDbVertex
100
AcDb2dVertex
 10
3425.0
 20
-5025.0
 30
0.0
  0
VERTEX
  5
EABC255A95F8D946
100
AcDbEntity
  8
SIMPLE
  6
CONTINUOUS
100
AcDbVertex
100
AcDb2dVertex
 10
3750.0
 20
-5025.0
 30
0.0
  0
VERTEX
  5
EABC255A95F8D947
100
AcDbEntity
  8
SIMPLE
  6
CONTINUOUS
100
AcDbVertex
100
AcDb2dVertex
 10
3750.0
 20
-5375.0
 30
0.0
  0
VERTEX
  5
EABC255A95F8D948
100
AcDbEntity
  8
SIMPLE
  6
CONTINUOUS
100
AcDbVertex
100
AcDb2dVertex
 10
3425.0
 20
-5375.0
 30
0.0
  0
SEQEND
  5
EABC255A95F8D949
100
AcDbEntity
  8
SIMPLE
  6
CONTINUOUS
  0
ENDBLK
  5
EABC255A95F8D8E9
100
AcDbEntity
  8
SIMPLE
  6
CONTINUOUS
100
AcDbBlockEnd
  0
BLOCK
  5
EABC255A95F8D8F3
100
AcDbEntity
  8
SIMPLE
  6
CONTINUOUS
100
AcDbBlockBegin
  2
DELAY_CHAIN
 70
    64
 10
0.0
 20
0.0
 30
0.0
  1

  0
POLYLINE
  5
EABC255A95F8D8EB
100
AcDbEntity
  8
SIMPLE
  6
CONTINUOUS
100
AcDb2dPolyline
 66
     1
 10
0.0
 20
0.0
 30
0.0
 70
     1
  0
VERTEX
  5
EABC255A95F8D94A
100
AcDbEntity
  8
SIMPLE
  6
CONTINUOUS
100
AcDbVertex
100
AcDb2dVertex
 10
3800.0
 20
-5625.0
 30
0.0
  0
VERTEX
  5
EABC255A95F8D94B
100
AcDbEntity
  8
SIMPLE
  6
CONTINUOUS
100
AcDbVertex
100
AcDb2dVertex
 10
3950.0
 20
-5625.0
 30
0.0
  0
VERTEX
  5
EABC255A95F8D94C
100
AcDbEntity
  8
SIMPLE
  6
CONTINUOUS
100
AcDbVertex
100
AcDb2dVertex
 10
3950.0
 20
-5775.0
 30
0.0
  0
VERTEX
  5
EABC255A95F8D94D
100
AcDbEntity
  8
SIMPLE
  6
CONTINUOUS
100
AcDbVertex
100
AcDb2dVertex
 10
3800.0
 20
-5775.0
 30
0.0
  0
SEQEND
  5
EABC255A95F8D94E
100
AcDbEntity
  8
SIMPLE
  6
CONTINUOUS
  0
ENDBLK
  5
EABC255A95F8D8F5
100
AcDbEntity
  8
SIMPLE
  6
CONTINUOUS
100
AcDbBlockEnd
  0
BLOCK
  5
EABC255A95F8D8F7
100
AcDbEntity
  8
SIMPLE
  6
CONTINUOUS
100
AcDbBlockBegin
  2
INPUT_PHASE_ALIGNMENT
 70
    64
 10
0.0
 20
0.0
 30
0.0
  1

  0
POLYLINE
  5
EABC255A95F8D8EF
100
AcDbEntity
  8
SIMPLE
  6
CONTINUOUS
100
AcDb2dPolyline
 66
     1
 10
0.0
 20
0.0
 30
0.0
 70
     1
  0
VERTEX
  5
EABC255A95F8D94F
100
AcDbEntity
  8
SIMPLE
  6
CONTINUOUS
100
AcDbVertex
100
AcDb2dVertex
 10
3800.0
 20
-5825.0
 30
0.0
  0
VERTEX
  5
EABC255A95F8D950
100
AcDbEntity
  8
SIMPLE
  6
CONTINUOUS
100
AcDbVertex
100
AcDb2dVertex
 10
3950.0
 20
-5825.0
 30
0.0
  0
VERTEX
  5
EABC255A95F8D951
100
AcDbEntity
  8
SIMPLE
  6
CONTINUOUS
100
AcDbVertex
100
AcDb2dVertex
 10
3950.0
 20
-5975.0
 30
0.0
  0
VERTEX
  5
EABC255A95F8D952
100
AcDbEntity
  8
SIMPLE
  6
CONTINUOUS
100
AcDbVertex
100
AcDb2dVertex
 10
3800.0
 20
-5975.0
 30
0.0
  0
SEQEND
  5
EABC255A95F8D953
100
AcDbEntity
  8
SIMPLE
  6
CONTINUOUS
  0
ENDBLK
  5
EABC255A95F8D8F9
100
AcDbEntity
  8
SIMPLE
  6
CONTINUOUS
100
AcDbBlockEnd
  0
BLOCK
  5
EABC255A95F8D8FB
100
AcDbEntity
  8
SIMPLE
  6
CONTINUOUS
100
AcDbBlockBegin
  2
HALF_RATE_INPUT
 70
    64
 10
0.0
 20
0.0
 30
0.0
  1

  0
POLYLINE
  5
EABC255A95F8D8EC
100
AcDbEntity
  8
SIMPLE
  6
CONTINUOUS
100
AcDb2dPolyline
 66
     1
 10
0.0
 20
0.0
 30
0.0
 70
     1
  0
VERTEX
  5
EABC255A95F8D954
100
AcDbEntity
  8
SIMPLE
  6
CONTINUOUS
100
AcDbVertex
100
AcDb2dVertex
 10
4000.0
 20
-5625.0
 30
0.0
  0
VERTEX
  5
EABC255A95F8D955
100
AcDbEntity
  8
SIMPLE
  6
CONTINUOUS
100
AcDbVertex
100
AcDb2dVertex
 10
4150.0
 20
-5625.0
 30
0.0
  0
VERTEX
  5
EABC255A95F8D956
100
AcDbEntity
  8
SIMPLE
  6
CONTINUOUS
100
AcDbVertex
100
AcDb2dVertex
 10
4150.0
 20
-5775.0
 30
0.0
  0
VERTEX
  5
EABC255A95F8D957
100
AcDbEntity
  8
SIMPLE
  6
CONTINUOUS
100
AcDbVertex
100
AcDb2dVertex
 10
4000.0
 20
-5775.0
 30
0.0
  0
SEQEND
  5
EABC255A95F8D958
100
AcDbEntity
  8
SIMPLE
  6
CONTINUOUS
  0
ENDBLK
  5
EABC255A95F8D8FD
100
AcDbEntity
  8
SIMPLE
  6
CONTINUOUS
100
AcDbBlockEnd
  0
BLOCK
  5
EABC255A95F8D8FF
100
AcDbEntity
  8
SIMPLE
  6
CONTINUOUS
100
AcDbBlockBegin
  2
IO_CONFIG
 70
    64
 10
0.0
 20
0.0
 30
0.0
  1

  0
POLYLINE
  5
EABC255A95F8D8F0
100
AcDbEntity
  8
SIMPLE
  6
CONTINUOUS
100
AcDb2dPolyline
 66
     1
 10
0.0
 20
0.0
 30
0.0
 70
     1
  0
VERTEX
  5
EABC255A95F8D959
100
AcDbEntity
  8
SIMPLE
  6
CONTINUOUS
100
AcDbVertex
100
AcDb2dVertex
 10
4000.0
 20
-5825.0
 30
0.0
  0
VERTEX
  5
EABC255A95F8D95A
100
AcDbEntity
  8
SIMPLE
  6
CONTINUOUS
100
AcDbVertex
100
AcDb2dVertex
 10
4150.0
 20
-5825.0
 30
0.0
  0
VERTEX
  5
EABC255A95F8D95B
100
AcDbEntity
  8
SIMPLE
  6
CONTINUOUS
100
AcDbVertex
100
AcDb2dVertex
 10
4150.0
 20
-5975.0
 30
0.0
  0
VERTEX
  5
EABC255A95F8D95C
100
AcDbEntity
  8
SIMPLE
  6
CONTINUOUS
100
AcDbVertex
100
AcDb2dVertex
 10
4000.0
 20
-5975.0
 30
0.0
  0
SEQEND
  5
EABC255A95F8D95D
100
AcDbEntity
  8
SIMPLE
  6
CONTINUOUS
  0
ENDBLK
  5
EABC255A95F8D901
100
AcDbEntity
  8
SIMPLE
  6
CONTINUOUS
100
AcDbBlockEnd
  0
BLOCK
  5
EABC255A95F8D903
100
AcDbEntity
  8
SIMPLE
  6
CONTINUOUS
100
AcDbBlockBegin
  2
MP_OCT_CONTROL_REG
 70
    64
 10
0.0
 20
0.0
 30
0.0
  1

  0
POLYLINE
  5
EABC255A95F8D8ED
100
AcDbEntity
  8
SIMPLE
  6
CONTINUOUS
100
AcDb2dPolyline
 66
     1
 10
0.0
 20
0.0
 30
0.0
 70
     1
  0
VERTEX
  5
EABC255A95F8D95E
100
AcDbEntity
  8
SIMPLE
  6
CONTINUOUS
100
AcDbVertex
100
AcDb2dVertex
 10
4200.0
 20
-5625.0
 30
0.0
  0
VERTEX
  5
EABC255A95F8D95F
100
AcDbEntity
  8
SIMPLE
  6
CONTINUOUS
100
AcDbVertex
100
AcDb2dVertex
 10
4350.0
 20
-5625.0
 30
0.0
  0
VERTEX
  5
EABC255A95F8D960
100
AcDbEntity
  8
SIMPLE
  6
CONTINUOUS
100
AcDbVertex
100
AcDb2dVertex
 10
4350.0
 20
-5775.0
 30
0.0
  0
VERTEX
  5
EABC255A95F8D961
100
AcDbEntity
  8
SIMPLE
  6
CONTINUOUS
100
AcDbVertex
100
AcDb2dVertex
 10
4200.0
 20
-5775.0
 30
0.0
  0
SEQEND
  5
EABC255A95F8D962
100
AcDbEntity
  8
SIMPLE
  6
CONTINUOUS
  0
ENDBLK
  5
EABC255A95F8D905
100
AcDbEntity
  8
SIMPLE
  6
CONTINUOUS
100
AcDbBlockEnd
  0
BLOCK
  5
EABC255A95F8D907
100
AcDbEntity
  8
SIMPLE
  6
CONTINUOUS
100
AcDbBlockBegin
  2
DDIO_OUT
 70
    64
 10
0.0
 20
0.0
 30
0.0
  1

  0
POLYLINE
  5
EABC255A95F8D8F1
100
AcDbEntity
  8
SIMPLE
  6
CONTINUOUS
100
AcDb2dPolyline
 66
     1
 10
0.0
 20
0.0
 30
0.0
 70
     1
  0
VERTEX
  5
EABC255A95F8D963
100
AcDbEntity
  8
SIMPLE
  6
CONTINUOUS
100
AcDbVertex
100
AcDb2dVertex
 10
4200.0
 20
-5825.0
 30
0.0
  0
VERTEX
  5
EABC255A95F8D964
100
AcDbEntity
  8
SIMPLE
  6
CONTINUOUS
100
AcDbVertex
100
AcDb2dVertex
 10
4350.0
 20
-5825.0
 30
0.0
  0
VERTEX
  5
EABC255A95F8D965
100
AcDbEntity
  8
SIMPLE
  6
CONTINUOUS
100
AcDbVertex
100
AcDb2dVertex
 10
4350.0
 20
-5975.0
 30
0.0
  0
VERTEX
  5
EABC255A95F8D966
100
AcDbEntity
  8
SIMPLE
  6
CONTINUOUS
100
AcDbVertex
100
AcDb2dVertex
 10
4200.0
 20
-5975.0
 30
0.0
  0
SEQEND
  5
EABC255A95F8D967
100
AcDbEntity
  8
SIMPLE
  6
CONTINUOUS
  0
ENDBLK
  5
EABC255A95F8D909
100
AcDbEntity
  8
SIMPLE
  6
CONTINUOUS
100
AcDbBlockEnd
  0
BLOCK
  5
EABC255A95F8D90C
100
AcDbEntity
  8
SIMPLE
  6
CONTINUOUS
100
AcDbBlockBegin
  2
IO_CELL_YGR_OTHERS
 70
    64
 10
0.0
 20
0.0
 30
0.0
  1

  0
POLYLINE
  5
EABC255A95F8D90B
100
AcDbEntity
  8
SIMPLE
  6
CONTINUOUS
100
AcDb2dPolyline
 66
     1
 10
0.0
 20
0.0
 30
0.0
 70
     1
  0
VERTEX
  5
EABC255A95F8D968
100
AcDbEntity
  8
SIMPLE
  6
CONTINUOUS
100
AcDbVertex
100
AcDb2dVertex
 10
4400.0
 20
-5625.0
 30
0.0
  0
VERTEX
  5
EABC255A95F8D969
100
AcDbEntity
  8
SIMPLE
  6
CONTINUOUS
100
AcDbVertex
100
AcDb2dVertex
 10
4575.0
 20
-5625.0
 30
0.0
  0
VERTEX
  5
EABC255A95F8D96A
100
AcDbEntity
  8
SIMPLE
  6
CONTINUOUS
100
AcDbVertex
100
AcDb2dVertex
 10
4575.0
 20
-5975.0
 30
0.0
  0
VERTEX
  5
EABC255A95F8D96B
100
AcDbEntity
  8
SIMPLE
  6
CONTINUOUS
100
AcDbVertex
100
AcDb2dVertex
 10
4400.0
 20
-5975.0
 30
0.0
  0
SEQEND
  5
EABC255A95F8D96C
100
AcDbEntity
  8
SIMPLE
  6
CONTINUOUS
  0
ENDBLK
  5
EABC255A95F8D90E
100
AcDbEntity
  8
SIMPLE
  6
CONTINUOUS
100
AcDbBlockEnd
  0
BLOCK
  5
B4AC5F5623DCE530
100
AcDbEntity
  8
SIMPLE
  6
CONTINUOUS
100
AcDbBlockBegin
  2
IO_GROUP_CLKBUBLOCK
 70
    66
 10
0.0
 20
0.0
 30
0.0
  3
IO_GROUP_CLKBUBLOCK
  1

  0
POLYLINE
  5
B4AC5F5623DCE52D
100
AcDbEntity
  8
SIMPLE
  6
CONTINUOUS
100
AcDb2dPolyline
 66
     1
 10
0.0
 20
0.0
 30
0.0
 70
     1
  0
VERTEX
  5
B4AC5F5623DD05AA
100
AcDbEntity
  8
SIMPLE
  6
CONTINUOUS
100
AcDbVertex
100
AcDb2dVertex
 10
1400.0
 20
-14600.0
 30
0.0
  0
VERTEX
  5
B4AC5F5623DD05AB
100
AcDbEntity
  8
SIMPLE
  6
CONTINUOUS
100
AcDbVertex
100
AcDb2dVertex
 10
2000.0
 20
-15000.0
 30
0.0
  0
VERTEX
  5
B4AC5F5623DD05AC
100
AcDbEntity
  8
SIMPLE
  6
CONTINUOUS
100
AcDbVertex
100
AcDb2dVertex
 10
1400.0
 20
-15400.0
 30
0.0
  0
VERTEX
  5
B4AC5F5623DD05AD
100
AcDbEntity
  8
SIMPLE
  6
CONTINUOUS
100
AcDbVertex
100
AcDb2dVertex
 10
1400.0
 20
-14600.0
 30
0.0
  0
SEQEND
  5
B4AC5F5623DD05AE
100
AcDbEntity
  8
SIMPLE
  6
CONTINUOUS
  0
ATTDEF
  5
B4AC5F5623DCE52E
100
AcDbEntity
  8
SIMPLE
  6
CONTINUOUS
100
AcDbText
 10
1450.0
 20
-15000.0
 30
0.0
 40
100.0
  1

  7
SIMPLEX
100
AcDbAttributeDefinition
  3

  2
index
 70
     0
  0
ENDBLK
  5
B4AC5F5623DCE531
100
AcDbEntity
  8
SIMPLE
  6
CONTINUOUS
100
AcDbBlockEnd
  0
ENDSEC
  0
SECTION
  2
ENTITIES
  0
INSERT
  5
EABC255A95FC9081
100
AcDbEntity
  8
SIMPLE
  6
CONTINUOUS
100
AcDbBlockReference
  2
IO_GROUP_YGR
 10
0.0
 20
0.0
 30
0.0
  0
ENDSEC
  0
SECTION
  2
OBJECTS
  0
DICTIONARY
  5
C
100
AcDbDictionary
  3
ACAD_GROUP
350
D
  3
ACAD_MLINESTYLE
350
1B
  3
ACAD_IMAGE_DICT
350
E8682BEEBCF87848
  3
ACAD_IMAGE_VARS
350
E8682BEEBCF87846
  0
IMAGEDEF_REACTOR
  5
E34DD2EA0F025618
100
AcDbRasterImageDefReactor
 90
        2
330
0
  0
IMAGEDEF_REACTOR
  5
E34DD2EA0F025C09
100
AcDbRasterImageDefReactor
 90
        2
330
0
  0
IMAGEDEF_REACTOR
  5
E34FA19C674B5729
100
AcDbRasterImageDefReactor
 90
        2
330
0
  0
IMAGEDEF_REACTOR
  5
E34FA19C674F0DB8
100
AcDbRasterImageDefReactor
 90
        2
330
0
  0
IMAGEDEF_REACTOR
  5
E34FA19C6752C3AC
100
AcDbRasterImageDefReactor
 90
        2
330
0
  0
IMAGEDEF_REACTOR
  5
E34FA19C677213E8
100
AcDbRasterImageDefReactor
 90
        2
330
0
  0
IMAGEDEF_REACTOR
  5
E34FA19C6775C9CA
100
AcDbRasterImageDefReactor
 90
        2
330
0
  0
IMAGEDEF_REACTOR
  5
E34FA19C67797FB2
100
AcDbRasterImageDefReactor
 90
        2
330
0
  0
IMAGEDEF_REACTOR
  5
E8682BEEBCF8784A
100
AcDbRasterImageDefReactor
 90
        2
330
0
  0
IMAGEDEF_REACTOR
  5
CE09F844A4FA80D4
100
AcDbRasterImageDefReactor
 90
        2
330
0
  0
IMAGEDEF_REACTOR
  5
CE09F844A4FA86C5
100
AcDbRasterImageDefReactor
 90
        2
330
0
  0
IMAGEDEF_REACTOR
  5
CE0BC6F6FD4381E5
100
AcDbRasterImageDefReactor
 90
        2
330
0
  0
IMAGEDEF_REACTOR
  5
CE0BC6F6FD473874
100
AcDbRasterImageDefReactor
 90
        2
330
0
  0
IMAGEDEF_REACTOR
  5
CE0BC6F6FD4AEE68
100
AcDbRasterImageDefReactor
 90
        2
330
0
  0
IMAGEDEF_REACTOR
  5
CE0BC6F6FD6A3EA4
100
AcDbRasterImageDefReactor
 90
        2
330
0
  0
IMAGEDEF_REACTOR
  5
CE0BC6F6FD6DF486
100
AcDbRasterImageDefReactor
 90
        2
330
0
  0
IMAGEDEF_REACTOR
  5
CE0BC6F6FD71AA6E
100
AcDbRasterImageDefReactor
 90
        2
330
0
  0
IMAGEDEF_REACTOR
  5
D324514952F0A306
100
AcDbRasterImageDefReactor
 90
        2
330
0
  0
DICTIONARY
  5
D
102
{ACAD_REACTORS
330
C
102
}
100
AcDbDictionary
  0
DICTIONARY
  5
1B
102
{ACAD_REACTORS
330
C
102
}
100
AcDbDictionary
  3
STANDARD
350
1C
  0
DICTIONARY
  5
E8682BEEBCF87848
102
{ACAD_REACTORS
330
C
102
}
100
AcDbDictionary
  3
SC_3_
350
E8682BEEBCF87849
  0
RASTERVARIABLES
  5
E8682BEEBCF87846
102
{ACAD_REACTORS
330
C
102
}
100
AcDbRasterVariables
 90
        0
 70
     1
 71
     1
 72
     0
  0
MLINESTYLE
  5
1C
102
{ACAD_REACTORS
330
1B
102
}
100
AcDbMlineStyle
  2
STANDARD
 70
     0
  3

 62
   256
 51
90.0
 52
90.0
 71
     2
 49
0.5
 62
   256
  6
BYLAYER
 49
-0.5
 62
   256
  6
BYLAYER
  0
IMAGEDEF
  5
E8682BEEBCF87849
102
{ACAD_REACTORS
330
E8682BEEBCF8784A
330
E8682BEEBCF87848
102
}
100
AcDbRasterImageDef
 90
        0
  1
C:\Documents and Settings\jmkuo\Local Settings\Temporary Internet Files\Content.IE5\LNC0CMSM\sc[3].png
 10
850.0
 20
668.0
 11
1.0
 21
1.0
280
     1
281
     0
  0
ENDSEC
  0
EOF
