  0
SECTION
  2
HEADER
  9
$ACADVER
  1
AC1012
  9
$DWGCODEPAGE
  3
ansi_1252
  9
$INSBASE
 10
0.0
 20
0.0
 30
0.0
  9
$EXTMIN
 10
-2534399.247774
 20
-19659174.219653
 30
0.0
  9
$EXTMAX
 10
7585916.95282
 20
581458.181534
 30
0.0
  9
$LIMMIN
 10
0.0
 20
0.0
  9
$LIMMAX
 10
12.0
 20
9.0
  9
$ORTHOMODE
 70
     0
  9
$REGENMODE
 70
     1
  9
$FILLMODE
 70
     1
  9
$QTEXTMODE
 70
     0
  9
$MIRRTEXT
 70
     1
  9
$DRAGMODE
 70
     2
  9
$LTSCALE
 40
1.0
  9
$OSMODE
 70
     0
  9
$ATTMODE
 70
     1
  9
$TEXTSIZE
 40
0.2
  9
$TRACEWID
 40
0.05
  9
$TEXTSTYLE
  7
SIMPLEX
  9
$CLAYER
  8
SIMPLE
  9
$CELTYPE
  6
CONTINUOUS
  9
$CECOLOR
 62
   256
  9
$CELTSCALE
 40
1.0
  9
$DELOBJ
 70
     1
  9
$DISPSILH
 70
     0
  9
$DIMSCALE
 40
1.0
  9
$DIMASZ
 40
0.18
  9
$DIMEXO
 40
0.0625
  9
$DIMDLI
 40
0.38
  9
$DIMRND
 40
0.0
  9
$DIMDLE
 40
0.0
  9
$DIMEXE
 40
0.18
  9
$DIMTP
 40
0.0
  9
$DIMTM
 40
0.0
  9
$DIMTXT
 40
0.18
  9
$DIMCEN
 40
0.09
  9
$DIMTSZ
 40
0.0
  9
$DIMTOL
 70
     0
  9
$DIMLIM
 70
     0
  9
$DIMTIH
 70
     1
  9
$DIMTOH
 70
     1
  9
$DIMSE1
 70
     0
  9
$DIMSE2
 70
     0
  9
$DIMTAD
 70
     0
  9
$DIMZIN
 70
     0
  9
$DIMBLK
  1

  9
$DIMASO
 70
     1
  9
$DIMSHO
 70
     1
  9
$DIMPOST
  1

  9
$DIMAPOST
  1

  9
$DIMALT
 70
     0
  9
$DIMALTD
 70
     2
  9
$DIMALTF
 40
25.4
  9
$DIMLFAC
 40
1.0
  9
$DIMTOFL
 70
     0
  9
$DIMTVP
 40
0.0
  9
$DIMTIX
 70
     0
  9
$DIMSOXD
 70
     0
  9
$DIMSAH
 70
     0
  9
$DIMBLK1
  1

  9
$DIMBLK2
  1

  9
$DIMSTYLE
  2
STANDARD
  9
$DIMCLRD
 70
     0
  9
$DIMCLRE
 70
     0
  9
$DIMCLRT
 70
     0
  9
$DIMTFAC
 40
1.0
  9
$DIMGAP
 40
0.09
  9
$DIMJUST
 70
     0
  9
$DIMSD1
 70
     0
  9
$DIMSD2
 70
     0
  9
$DIMTOLJ
 70
     1
  9
$DIMTZIN
 70
     0
  9
$DIMALTZ
 70
     0
  9
$DIMALTTZ
 70
     0
  9
$DIMFIT
 70
     3
  9
$DIMUPT
 70
     0
  9
$DIMUNIT
 70
     2
  9
$DIMDEC
 70
     4
  9
$DIMTDEC
 70
     4
  9
$DIMALTU
 70
     2
  9
$DIMALTTD
 70
     2
  9
$DIMTXSTY
  7
STANDARD
  9
$DIMAUNIT
 70
     0
  9
$LUNITS
 70
     2
  9
$LUPREC
 70
     4
  9
$SKETCHINC
 40
0.1
  9
$FILLETRAD
 40
0.5
  9
$AUNITS
 70
     0
  9
$AUPREC
 70
     0
  9
$MENU
  1
.
  9
$ELEVATION
 40
0.0
  9
$PELEVATION
 40
0.0
  9
$THICKNESS
 40
0.0
  9
$LIMCHECK
 70
     0
  9
$BLIPMODE
 70
     0
  9
$CHAMFERA
 40
0.5
  9
$CHAMFERB
 40
0.5
  9
$CHAMFERC
 40
0.0
  9
$CHAMFERD
 40
0.0
  9
$SKPOLY
 70
     0
  9
$TDCREATE
 40
2453966.6881017131
  9
$TDUPDATE
 40
2453970.5737499883
  9
$TDINDWG
 40
0.023055555556
  9
$TDUSRTIMER
 40
0.023055555556
  9
$USRTIMER
 70
     1
  9
$ANGBASE
 50
0.0
  9
$ANGDIR
 70
     0
  9
$PDMODE
 70
    35
  9
$PDSIZE
 40
5.0
  9
$PLINEWID
 40
0.0
  9
$COORDS
 70
     1
  9
$SPLFRAME
 70
     0
  9
$SPLINETYPE
 70
     6
  9
$SPLINESEGS
 70
     8
  9
$ATTDIA
 70
     0
  9
$ATTREQ
 70
     1
  9
$HANDLING
 70
     1
  9
$HANDSEED
  5
EA0C95D535FBB60F
  9
$SURFTAB1
 70
     6
  9
$SURFTAB2
 70
     6
  9
$SURFTYPE
 70
     6
  9
$SURFU
 70
     6
  9
$SURFV
 70
     6
  9
$UCSNAME
  2

  9
$UCSORG
 10
0.0
 20
0.0
 30
0.0
  9
$UCSXDIR
 10
1.0
 20
0.0
 30
0.0
  9
$UCSYDIR
 10
0.0
 20
1.0
 30
0.0
  9
$PUCSNAME
  2

  9
$PUCSORG
 10
0.0
 20
0.0
 30
0.0
  9
$PUCSXDIR
 10
1.0
 20
0.0
 30
0.0
  9
$PUCSYDIR
 10
0.0
 20
1.0
 30
0.0
  9
$USERI1
 70
     0
  9
$USERI2
 70
     0
  9
$USERI3
 70
     0
  9
$USERI4
 70
     0
  9
$USERI5
 70
     0
  9
$USERR1
 40
0.0
  9
$USERR2
 40
0.0
  9
$USERR3
 40
0.0
  9
$USERR4
 40
0.0
  9
$USERR5
 40
0.0
  9
$WORLDVIEW
 70
     1
  9
$SHADEDGE
 70
     3
  9
$SHADEDIF
 70
    70
  9
$TILEMODE
 70
     1
  9
$MAXACTVP
 70
    16
  9
$PINSBASE
 10
0.0
 20
0.0
 30
0.0
  9
$PLIMCHECK
 70
     0
  9
$PEXTMIN
 10
1.000000E+020
 20
1.000000E+020
 30
1.000000E+020
  9
$PEXTMAX
 10
-1.000000E+020
 20
-1.000000E+020
 30
-1.000000E+020
  9
$PLIMMIN
 10
0.0
 20
0.0
  9
$PLIMMAX
 10
12.0
 20
9.0
  9
$UNITMODE
 70
     0
  9
$VISRETAIN
 70
     0
  9
$PLINEGEN
 70
     0
  9
$PSLTSCALE
 70
     1
  9
$TREEDEPTH
 70
  3020
  9
$PICKSTYLE
 70
     1
  9
$CMLSTYLE
  2
STANDARD
  9
$CMLJUST
 70
     0
  9
$CMLSCALE
 40
1.0
  9
$SAVEIMAGES
 70
     0
  0
ENDSEC
  0
SECTION
  2
CLASSES
  0
CLASS
  1
LWPOLYLINE
  2
AcDbPolyline
  3
"AutoCAD"
 90
        0
280
     0
281
     1
  0
ENDSEC
  0
SECTION
  2
TABLES
  0
TABLE
  2
VPORT
  5
DF3414A12ED3E00D
100
AcDbSymbolTable
 70
     1
  0
VPORT
  5
DF3414A12ED3E00E
100
AcDbSymbolTableRecord
100
AcDbViewportTableRecord
  2
*ACTIVE
 70
    64
 10
0.0
 20
0.0
 11
1.0
 21
1.0
 12
7157.85035
 22
-7932.439547
 13
0.0
 23
0.0
 14
5.0
 24
5.0
 15
5.0
 25
5.0
 16
0.0
 26
0.0
 36
1.0
 17
0.0
 27
0.0
 37
0.0
 40
19442.994762
 41
1.442829
 42
50.0
 43
0.0
 44
0.0
 50
0.0
 51
0.0
 71
     0
 72
   100
 73
     1
 74
     1
 75
     1
 76
     1
 77
     0
 78
     0
  0
ENDTAB
  0
TABLE
  2
LTYPE
  5
DF3414A12ED3E006
100
AcDbSymbolTable
 70
     2
  0
LTYPE
  5
DF3414A12ED3E009
100
AcDbSymbolTableRecord
100
AcDbLinetypeTableRecord
  2
BYBLOCK
 70
    64
  3

 72
    65
 73
     0
 40
0.0
  0
LTYPE
  5
DF3414A12ED3E00A
100
AcDbSymbolTableRecord
100
AcDbLinetypeTableRecord
  2
BYLAYER
 70
    64
  3

 72
    65
 73
     0
 40
0.0
  0
LTYPE
  5
DF3414A12ED3E007
100
AcDbSymbolTableRecord
100
AcDbLinetypeTableRecord
  2
CONTINUOUS
 70
     0
  3
Solid line
 72
    65
 73
     0
 40
0.0
  0
LTYPE
  5
DF3414A12ED3E008
100
AcDbSymbolTableRecord
100
AcDbLinetypeTableRecord
  2
DETAIL_1
 70
     0
  3
Solid line
 72
    65
 73
     2
 40
6.0
 49
5.0
 74
     0
 49
-1.0
 74
     0
  0
ENDTAB
  0
TABLE
  2
LAYER
  5
DF3414A12ED3DFF9
100
AcDbSymbolTable
 70
     3
  0
LAYER
  5
DF3414A12ED3DFFA
100
AcDbSymbolTableRecord
100
AcDbLayerTableRecord
  2
COMMENT
 70
     0
 62
   254
  6
CONTINUOUS
  0
LAYER
  5
DF3414A12ED3DFFB
100
AcDbSymbolTableRecord
100
AcDbLayerTableRecord
  2
SIMPLE
 70
     0
 62
   182
  6
CONTINUOUS
  0
LAYER
  5
DF3414A12ED3DFFC
100
AcDbSymbolTableRecord
100
AcDbLayerTableRecord
  2
0
 70
     0
 62
     7
  6
CONTINUOUS
  0
ENDTAB
  0
TABLE
  2
STYLE
  5
DF3414A12ED3DFFD
100
AcDbSymbolTable
 70
     8
  0
STYLE
  5
DF3414A12ED3DFFE
100
AcDbSymbolTableRecord
100
AcDbTextStyleTableRecord
  2
STANDARD
 70
     0
 40
0.0
 41
1.0
 50
0.0
 71
     0
 42
0.2
  3
txt.shx
  4

  0
STYLE
  5
DF3414A12ED3DFFF
100
AcDbSymbolTableRecord
100
AcDbTextStyleTableRecord
  2
COMPLEX
 70
     0
 40
0.0
 41
1.0
 50
0.0
 71
     0
 42
0.2
  3
complex
  4

  0
STYLE
  5
DF3414A12ED3E000
100
AcDbSymbolTableRecord
100
AcDbTextStyleTableRecord
  2
ITALIC
 70
     0
 40
0.0
 41
1.0
 50
0.0
 71
     0
 42
0.2
  3
italic
  4

  0
STYLE
  5
DF3414A12ED3E001
100
AcDbSymbolTableRecord
100
AcDbTextStyleTableRecord
  2
ROMANC
 70
     0
 40
0.0
 41
1.0
 50
0.0
 71
     0
 42
0.2
  3
romanc
  4

  0
STYLE
  5
DF3414A12ED3E002
100
AcDbSymbolTableRecord
100
AcDbTextStyleTableRecord
  2
SIMPLEX
 70
     0
 40
0.0
 41
1.0
 50
0.0
 71
     0
 42
0.2
  3
simplex
  4

  0
STYLE
  5
DF3414A12ED3E003
100
AcDbSymbolTableRecord
100
AcDbTextStyleTableRecord
  2

 70
     1
 40
0.0
 41
1.0
 50
0.0
 71
     0
 42
0.2
  3
ltypeshp.shx
  4

  0
STYLE
  5
DF3414A12ED3E004
100
AcDbSymbolTableRecord
100
AcDbTextStyleTableRecord
  2
ARIAL
 70
     0
 40
0.0
 41
1.0
 50
0.0
 71
     0
 42
0.2
  3

  4

  0
STYLE
  5
DF3414A12ED3E005
100
AcDbSymbolTableRecord
100
AcDbTextStyleTableRecord
  2
TIMES_NEW_ROMAN
 70
     0
 40
0.0
 41
1.0
 50
0.0
 71
     0
 42
0.2
  3

  4

  0
ENDTAB
  0
TABLE
  2
VIEW
  5
DF3414A12ED3E00B
100
AcDbSymbolTable
 70
     0
  0
ENDTAB
  0
TABLE
  2
UCS
  5
DF3414A12ED3E00C
100
AcDbSymbolTable
 70
     0
  0
ENDTAB
  0
TABLE
  2
APPID
  5
DF3414A12ED3E00F
100
AcDbSymbolTable
 70
     1
  0
APPID
  5
DF3414A12ED3E016
100
AcDbSymbolTableRecord
100
AcDbRegAppTableRecord
  2
ACAD
 70
    64
  0
ENDTAB
  0
TABLE
  2
DIMSTYLE
  5
DF3414A12ED3E010
100
AcDbSymbolTable
 70
     1
  0
DIMSTYLE
105
DF3414A12ED3E017
100
AcDbSymbolTableRecord
100
AcDbDimStyleTableRecord
  2
STANDARD
 70
    64
  3

  4

  5

  6

  7

 40
1.0
 41
0.18
 42
0.0625
 43
0.38
 44
0.18
 45
0.0
 46
0.0
 47
0.0
 48
0.0
140
0.18
141
0.09
142
0.0
143
25.4
144
1.0
145
0.0
146
1.0
147
0.09
 71
     0
 72
     0
 73
     1
 74
     1
 75
     0
 76
     0
 77
     0
 78
     0
170
     0
171
     2
172
     0
173
     0
174
     0
175
     0
176
     0
177
     0
178
     0
270
     2
271
     4
272
     4
273
     2
274
     2
340
DF3414A12ED3DFFE
275
     0
280
     0
281
     0
282
     0
283
     1
284
     0
285
     0
286
     0
287
     3
288
     0
  0
ENDTAB
  0
TABLE
  2
BLOCK_RECORD
  5
DF3414A12ED3DFD3
100
AcDbSymbolTable
 70
    31
  0
BLOCK_RECORD
  5
DF3414A12ED3DFF3
100
AcDbSymbolTableRecord
100
AcDbBlockTableRecord
  2
*MODEL_SPACE
  0
BLOCK_RECORD
  5
DF3414A12ED3DFF4
100
AcDbSymbolTableRecord
100
AcDbBlockTableRecord
  2
*PAPER_SPACE
  0
BLOCK_RECORD
  5
DF3414A12ED3DFD4
100
AcDbSymbolTableRecord
100
AcDbBlockTableRecord
  2
LAB_YGR
  0
BLOCK_RECORD
  5
DF3414A12ED3DFD5
100
AcDbSymbolTableRecord
100
AcDbBlockTableRecord
  2
ALM_COMB_ARM
  0
BLOCK_RECORD
  5
DF3414A12ED3DFD6
100
AcDbSymbolTableRecord
100
AcDbBlockTableRecord
  2
ALM_FF_ARM
  0
BLOCK_RECORD
  5
DF3414A12ED3DFD7
100
AcDbSymbolTableRecord
100
AcDbBlockTableRecord
  2
ALM_DATA_IN_GROUP
  0
BLOCK_RECORD
  5
DF3414A12ED3DFD8
100
AcDbSymbolTableRecord
100
AcDbBlockTableRecord
  2
ALM_LABWIDE_IN_GROUP
  0
BLOCK_RECORD
  5
DF3414A12ED3DFD9
100
AcDbSymbolTableRecord
100
AcDbBlockTableRecord
  2
ALM_DATA_OUT_GROUP
  0
BLOCK_RECORD
  5
DF3414A12ED3DFDA
100
AcDbSymbolTableRecord
100
AcDbBlockTableRecord
  2
ALM_COMB_F_INPUT
  0
BLOCK_RECORD
  5
DF3414A12ED3DFDB
100
AcDbSymbolTableRecord
100
AcDbBlockTableRecord
  2
ALM_COMB_E_INPUT
  0
BLOCK_RECORD
  5
DF3414A12ED3DFDC
100
AcDbSymbolTableRecord
100
AcDbBlockTableRecord
  2
ALM_COMB_A_INPUT
  0
BLOCK_RECORD
  5
DF3414A12ED3DFDD
100
AcDbSymbolTableRecord
100
AcDbBlockTableRecord
  2
ALM_COMB_B_INPUT
  0
BLOCK_RECORD
  5
DF3414A12ED3DFDE
100
AcDbSymbolTableRecord
100
AcDbBlockTableRecord
  2
ALM_COMB_C_INPUT
  0
BLOCK_RECORD
  5
DF3414A12ED3DFDF
100
AcDbSymbolTableRecord
100
AcDbBlockTableRecord
  2
ALM_COMB_D_INPUT
  0
BLOCK_RECORD
  5
DF3414A12ED3DFE0
100
AcDbSymbolTableRecord
100
AcDbBlockTableRecord
  2
ALM_COMB_SHARE_INPUT
  0
BLOCK_RECORD
  5
DF3414A12ED3DFE1
100
AcDbSymbolTableRecord
100
AcDbBlockTableRecord
  2
ALM_COMB_CARRY_INPUT
  0
BLOCK_RECORD
  5
DF3414A12ED3DFE2
100
AcDbSymbolTableRecord
100
AcDbBlockTableRecord
  2
ALM_COMB_SHARE_OUTPUT
  0
BLOCK_RECORD
  5
DF3414A12ED3DFE3
100
AcDbSymbolTableRecord
100
AcDbBlockTableRecord
  2
ALM_COMB_CARRY_OUTPUT
  0
BLOCK_RECORD
  5
DF3414A12ED3DFE4
100
AcDbSymbolTableRecord
100
AcDbBlockTableRecord
  2
ALM_COMB_SUM_OUTPUT
  0
BLOCK_RECORD
  5
DF3414A12ED3DFE5
100
AcDbSymbolTableRecord
100
AcDbBlockTableRecord
  2
ALM_COMB_COMB_OUTPUT
  0
BLOCK_RECORD
  5
DF3414A12ED3DFE6
100
AcDbSymbolTableRecord
100
AcDbBlockTableRecord
  2
ALM_FF_REG_CHAIN
  0
BLOCK_RECORD
  5
DF3414A12ED3DFE7
100
AcDbSymbolTableRecord
100
AcDbBlockTableRecord
  2
ALM_FF_ALOAD_IN
  0
BLOCK_RECORD
  5
DF3414A12ED3DFE8
100
AcDbSymbolTableRecord
100
AcDbBlockTableRecord
  2
ALM_FF_SCLR
  0
BLOCK_RECORD
  5
DF3414A12ED3DFE9
100
AcDbSymbolTableRecord
100
AcDbBlockTableRecord
  2
ALM_FF_SLOAD
  0
BLOCK_RECORD
  5
DF3414A12ED3DFEA
100
AcDbSymbolTableRecord
100
AcDbBlockTableRecord
  2
ALM_FF_DATA_IN
  0
BLOCK_RECORD
  5
DF3414A12ED3DFEB
100
AcDbSymbolTableRecord
100
AcDbBlockTableRecord
  2
ALM_FF_ADATA_SDATA
  0
BLOCK_RECORD
  5
DF3414A12ED3DFEC
100
AcDbSymbolTableRecord
100
AcDbBlockTableRecord
  2
ALM_FF_CLK
  0
BLOCK_RECORD
  5
DF3414A12ED3DFED
100
AcDbSymbolTableRecord
100
AcDbBlockTableRecord
  2
ALM_FF_ENABLE
  0
BLOCK_RECORD
  5
DF3414A12ED3DFEE
100
AcDbSymbolTableRecord
100
AcDbBlockTableRecord
  2
ALM_FF_ACLR
  0
BLOCK_RECORD
  5
DF3414A12ED3DFEF
100
AcDbSymbolTableRecord
100
AcDbBlockTableRecord
  2
ALM_FF_REGOUT
  0
BLOCK_RECORD
  5
DF3414A12ED3DFF0
100
AcDbSymbolTableRecord
100
AcDbBlockTableRecord
  2
ALM_COMB_COMMON_LUTS
  0
BLOCK_RECORD
  5
DF3414A12ED3DFF1
100
AcDbSymbolTableRecord
100
AcDbBlockTableRecord
  2
ALM_ARM
  0
BLOCK_RECORD
  5
DF3414A12ED3DFF2
100
AcDbSymbolTableRecord
100
AcDbBlockTableRecord
  2
ACV_GRID_SIZE_BLOCK
  0
ENDTAB
  0
ENDSEC
  0
SECTION
  2
BLOCKS
  0
BLOCK
  5
DF3414A12ED3E018
100
AcDbEntity
  8
COMMENT
100
AcDbBlockBegin
  2
*MODEL_SPACE
 70
    64
 10
0.0
 20
0.0
 30
0.0
  3
*MODEL_SPACE
  1

  0
ENDBLK
  5
DF3414A12ED3E019
100
AcDbEntity
  8
COMMENT
100
AcDbBlockEnd
  0
BLOCK
  5
DF3414A12ED3E01A
100
AcDbEntity
 67
     1
  8
COMMENT
100
AcDbBlockBegin
  2
*PAPER_SPACE
 70
    64
 10
0.0
 20
0.0
 30
0.0
  3
*PAPER_SPACE
  1

  0
ENDBLK
  5
DF3414A12ED3E01B
100
AcDbEntity
 67
     1
  8
COMMENT
100
AcDbBlockEnd
  0
BLOCK
  5
EA0C95D535FBB60C
100
AcDbEntity
  8
SIMPLE
  6
CONTINUOUS
100
AcDbBlockBegin
  2
LAB_YGR
 70
     0
 10
0.0
 20
0.0
 30
0.0
  1

  0
POINT
  5
EA0C95D535FBB5D0
100
AcDbEntity
  8
SIMPLE
  6
CONTINUOUS
 62
    53
100
AcDbPoint
 10
2910.16
 20
-4470.0
 30
0.0
  0
POINT
  5
EA0C95D535FBB5D2
100
AcDbEntity
  8
SIMPLE
  6
CONTINUOUS
 62
    53
100
AcDbPoint
 10
3725.0
 20
-13095.0
 30
0.0
  0
POINT
  5
EA0C95D535FBB5D3
100
AcDbEntity
  8
SIMPLE
  6
CONTINUOUS
 62
    53
100
AcDbPoint
 10
2900.0
 20
-13075.0
 30
0.0
  0
INSERT
  5
EA0C95D535FBB5D5
100
AcDbEntity
  8
SIMPLE
  6
CONTINUOUS
100
AcDbBlockReference
  2
ACV_GRID_SIZE_BLOCK
 10
0.0
 20
0.0
 30
0.0
  0
POLYLINE
  5
EA0C95D535FBB5D8
100
AcDbEntity
  8
SIMPLE
  6
CONTINUOUS
100
AcDb2dPolyline
 66
     1
 10
0.0
 20
0.0
 30
0.0
 70
     1
  0
VERTEX
  5
EA0C95D535FBB5D9
100
AcDbEntity
  8
SIMPLE
  6
CONTINUOUS
100
AcDbVertex
100
AcDb2dVertex
 10
0.0
 20
0.0
 30
0.0
  0
VERTEX
  5
EA0C95D535FBB5DA
100
AcDbEntity
  8
SIMPLE
  6
CONTINUOUS
100
AcDbVertex
100
AcDb2dVertex
 10
8000.0
 20
0.0
 30
0.0
  0
VERTEX
  5
EA0C95D535FBB5DB
100
AcDbEntity
  8
SIMPLE
  6
CONTINUOUS
100
AcDbVertex
100
AcDb2dVertex
 10
8000.0
 20
-16000.0
 30
0.0
  0
VERTEX
  5
EA0C95D535FBB5DC
100
AcDbEntity
  8
SIMPLE
  6
CONTINUOUS
100
AcDbVertex
100
AcDb2dVertex
 10
0.0
 20
-16000.0
 30
0.0
  0
SEQEND
  5
EA0C95D535FBB5DD
100
AcDbEntity
  8
SIMPLE
  6
CONTINUOUS
  0
INSERT
  5
EA0C95D535FBB5EE
100
AcDbEntity
  8
SIMPLE
  6
CONTINUOUS
100
AcDbBlockReference
 66
     1
  2
ALM_ARM
 10
0.0
 20
0.0
 30
0.0
  0
ATTRIB
  5
EA0C95D535FBB5EF
100
AcDbEntity
  8
SIMPLE
  6
CONTINUOUS
100
AcDbText
 10
3718.16
 20
-4094.0
 30
0.0
 40
80.0
  1
0
  7
SIMPLEX
100
AcDbAttribute
  2
index
 70
     0
  0
SEQEND
  5
EA0C95D535FBB5F0
100
AcDbEntity
  8
SIMPLE
  6
CONTINUOUS
  0
INSERT
  5
EA0C95D535FBB5F1
100
AcDbEntity
  8
SIMPLE
  6
CONTINUOUS
100
AcDbBlockReference
 66
     1
  2
ALM_ARM
 10
0.0
 20
-966.0
 30
0.0
  0
ATTRIB
  5
EA0C95D535FBB5F2
100
AcDbEntity
  8
SIMPLE
  6
CONTINUOUS
100
AcDbText
 10
3718.16
 20
-5060.0
 30
0.0
 40
80.0
  1
1
  7
SIMPLEX
100
AcDbAttribute
  2
index
 70
     0
  0
SEQEND
  5
EA0C95D535FBB5F3
100
AcDbEntity
  8
SIMPLE
  6
CONTINUOUS
  0
INSERT
  5
EA0C95D535FBB5F4
100
AcDbEntity
  8
SIMPLE
  6
CONTINUOUS
100
AcDbBlockReference
 66
     1
  2
ALM_ARM
 10
0.0
 20
-1916.0
 30
0.0
  0
ATTRIB
  5
EA0C95D535FBB5F5
100
AcDbEntity
  8
SIMPLE
  6
CONTINUOUS
100
AcDbText
 10
3718.16
 20
-6010.0
 30
0.0
 40
80.0
  1
2
  7
SIMPLEX
100
AcDbAttribute
  2
index
 70
     0
  0
SEQEND
  5
EA0C95D535FBB5F6
100
AcDbEntity
  8
SIMPLE
  6
CONTINUOUS
  0
INSERT
  5
EA0C95D535FBB5F7
100
AcDbEntity
  8
SIMPLE
  6
CONTINUOUS
100
AcDbBlockReference
 66
     1
  2
ALM_ARM
 10
0.0
 20
-2866.0
 30
0.0
  0
ATTRIB
  5
EA0C95D535FBB5F8
100
AcDbEntity
  8
SIMPLE
  6
CONTINUOUS
100
AcDbText
 10
3718.16
 20
-6960.0
 30
0.0
 40
80.0
  1
3
  7
SIMPLEX
100
AcDbAttribute
  2
index
 70
     0
  0
SEQEND
  5
EA0C95D535FBB5F9
100
AcDbEntity
  8
SIMPLE
  6
CONTINUOUS
  0
INSERT
  5
EA0C95D535FBB5FA
100
AcDbEntity
  8
SIMPLE
  6
CONTINUOUS
100
AcDbBlockReference
 66
     1
  2
ALM_ARM
 10
0.0
 20
-3816.0
 30
0.0
  0
ATTRIB
  5
EA0C95D535FBB5FB
100
AcDbEntity
  8
SIMPLE
  6
CONTINUOUS
100
AcDbText
 10
3718.16
 20
-7910.0
 30
0.0
 40
80.0
  1
4
  7
SIMPLEX
100
AcDbAttribute
  2
index
 70
     0
  0
SEQEND
  5
EA0C95D535FBB5FC
100
AcDbEntity
  8
SIMPLE
  6
CONTINUOUS
  0
INSERT
  5
EA0C95D535FBB5FD
100
AcDbEntity
  8
SIMPLE
  6
CONTINUOUS
100
AcDbBlockReference
 66
     1
  2
ALM_ARM
 10
0.0
 20
-4766.0
 30
0.0
  0
ATTRIB
  5
EA0C95D535FBB5FE
100
AcDbEntity
  8
SIMPLE
  6
CONTINUOUS
100
AcDbText
 10
3718.16
 20
-8860.0
 30
0.0
 40
80.0
  1
5
  7
SIMPLEX
100
AcDbAttribute
  2
index
 70
     0
  0
SEQEND
  5
EA0C95D535FBB5FF
100
AcDbEntity
  8
SIMPLE
  6
CONTINUOUS
  0
INSERT
  5
EA0C95D535FBB600
100
AcDbEntity
  8
SIMPLE
  6
CONTINUOUS
100
AcDbBlockReference
 66
     1
  2
ALM_ARM
 10
0.0
 20
-5716.0
 30
0.0
  0
ATTRIB
  5
EA0C95D535FBB601
100
AcDbEntity
  8
SIMPLE
  6
CONTINUOUS
100
AcDbText
 10
3718.16
 20
-9810.0
 30
0.0
 40
80.0
  1
6
  7
SIMPLEX
100
AcDbAttribute
  2
index
 70
     0
  0
SEQEND
  5
EA0C95D535FBB602
100
AcDbEntity
  8
SIMPLE
  6
CONTINUOUS
  0
INSERT
  5
EA0C95D535FBB603
100
AcDbEntity
  8
SIMPLE
  6
CONTINUOUS
100
AcDbBlockReference
 66
     1
  2
ALM_ARM
 10
0.0
 20
-6666.0
 30
0.0
  0
ATTRIB
  5
EA0C95D535FBB604
100
AcDbEntity
  8
SIMPLE
  6
CONTINUOUS
100
AcDbText
 10
3718.16
 20
-10760.0
 30
0.0
 40
80.0
  1
7
  7
SIMPLEX
100
AcDbAttribute
  2
index
 70
     0
  0
SEQEND
  5
EA0C95D535FBB605
100
AcDbEntity
  8
SIMPLE
  6
CONTINUOUS
  0
INSERT
  5
EA0C95D535FBB606
100
AcDbEntity
  8
SIMPLE
  6
CONTINUOUS
100
AcDbBlockReference
 66
     1
  2
ALM_ARM
 10
0.0
 20
-7616.0
 30
0.0
  0
ATTRIB
  5
EA0C95D535FBB607
100
AcDbEntity
  8
SIMPLE
  6
CONTINUOUS
100
AcDbText
 10
3718.16
 20
-11710.0
 30
0.0
 40
80.0
  1
8
  7
SIMPLEX
100
AcDbAttribute
  2
index
 70
     0
  0
SEQEND
  5
EA0C95D535FBB608
100
AcDbEntity
  8
SIMPLE
  6
CONTINUOUS
  0
INSERT
  5
EA0C95D535FBB609
100
AcDbEntity
  8
SIMPLE
  6
CONTINUOUS
100
AcDbBlockReference
 66
     1
  2
ALM_ARM
 10
0.0
 20
-8566.0
 30
0.0
  0
ATTRIB
  5
EA0C95D535FBB60A
100
AcDbEntity
  8
SIMPLE
  6
CONTINUOUS
100
AcDbText
 10
3718.16
 20
-12660.0
 30
0.0
 40
80.0
  1
9
  7
SIMPLEX
100
AcDbAttribute
  2
index
 70
     0
  0
SEQEND
  5
EA0C95D535FBB60B
100
AcDbEntity
  8
SIMPLE
  6
CONTINUOUS
  0
ENDBLK
  5
EA0C95D535FBB60D
100
AcDbEntity
  8
SIMPLE
  6
CONTINUOUS
100
AcDbBlockEnd
  0
BLOCK
  5
EA0C95D535FBB4B2
100
AcDbEntity
  8
SIMPLE
  6
CONTINUOUS
100
AcDbBlockBegin
  2
ALM_COMB_ARM
 70
     2
 10
0.0
 20
0.0
 30
0.0
  1

  0
POLYLINE
  5
DF3414A12ED3E7BA
100
AcDbEntity
  8
SIMPLE
  6
CONTINUOUS
100
AcDb2dPolyline
 66
     1
 10
0.0
 20
0.0
 30
0.0
 70
     1
  0
VERTEX
  5
DF3414A12ED3E7BB
100
AcDbEntity
  8
SIMPLE
  6
CONTINUOUS
100
AcDbVertex
100
AcDb2dVertex
 10
3518.16
 20
-3698.0
 30
0.0
  0
VERTEX
  5
DF3414A12ED3E7BC
100
AcDbEntity
  8
SIMPLE
  6
CONTINUOUS
100
AcDbVertex
100
AcDb2dVertex
 10
3722.16
 20
-3698.0
 30
0.0
  0
VERTEX
  5
DF3414A12ED3E7BD
100
AcDbEntity
  8
SIMPLE
  6
CONTINUOUS
100
AcDbVertex
100
AcDb2dVertex
 10
3722.16
 20
-3962.0
 30
0.0
  0
VERTEX
  5
DF3414A12ED3E7BE
100
AcDbEntity
  8
SIMPLE
  6
CONTINUOUS
100
AcDbVertex
100
AcDb2dVertex
 10
3518.16
 20
-3962.0
 30
0.0
  0
SEQEND
  5
DF3414A12ED3E7BF
100
AcDbEntity
  8
SIMPLE
  6
CONTINUOUS
  0
ATTDEF
  5
DF3414A12ED3E7C0
100
AcDbEntity
  8
SIMPLE
  6
CONTINUOUS
100
AcDbText
 10
3354.16
 20
-3854.0
 30
0.0
 40
80.0
  1
0
  7
SIMPLEX
100
AcDbAttributeDefinition
  3

  2
index
 70
     0
  0
INSERT
  5
DF3414A1606881CF
100
AcDbEntity
  8
SIMPLE
  6
CONTINUOUS
 62
     1
100
AcDbBlockReference
  2
ALM_COMB_SHARE_INPUT
 10
0.0
 20
0.0
 30
0.0
  0
INSERT
  5
EA0C95D535FBB4A5
100
AcDbEntity
  8
SIMPLE
  6
CONTINUOUS
 62
     1
100
AcDbBlockReference
  2
ALM_COMB_CARRY_INPUT
 10
0.0
 20
0.0
 30
0.0
  0
INSERT
  5
EA0C95D535FBB4A8
100
AcDbEntity
  8
SIMPLE
  6
CONTINUOUS
 62
     1
100
AcDbBlockReference
  2
ALM_COMB_SUM_OUTPUT
 10
0.0
 20
0.0
 30
0.0
  0
INSERT
  5
EA0C95D535FBB4AB
100
AcDbEntity
  8
SIMPLE
  6
CONTINUOUS
 62
     1
100
AcDbBlockReference
  2
ALM_COMB_COMB_OUTPUT
 10
0.0
 20
0.0
 30
0.0
  0
INSERT
  5
EA0C95D535FBB4AE
100
AcDbEntity
  8
SIMPLE
  6
CONTINUOUS
100
AcDbBlockReference
  2
ALM_COMB_CARRY_OUTPUT
 10
0.0
 20
0.0
 30
0.0
  0
INSERT
  5
EA0C95D535FBB4B1
100
AcDbEntity
  8
SIMPLE
  6
CONTINUOUS
100
AcDbBlockReference
  2
ALM_COMB_SHARE_OUTPUT
 10
0.0
 20
0.0
 30
0.0
  0
INSERT
  5
EA0C95D535FBB493
100
AcDbEntity
  8
SIMPLE
  6
CONTINUOUS
 62
     1
100
AcDbBlockReference
  2
ALM_COMB_F_INPUT
 10
0.0
 20
0.0
 30
0.0
  0
INSERT
  5
EA0C95D535FBB496
100
AcDbEntity
  8
SIMPLE
  6
CONTINUOUS
 62
     1
100
AcDbBlockReference
  2
ALM_COMB_E_INPUT
 10
0.0
 20
0.0
 30
0.0
  0
INSERT
  5
EA0C95D535FBB499
100
AcDbEntity
  8
SIMPLE
  6
CONTINUOUS
 62
     1
100
AcDbBlockReference
  2
ALM_COMB_A_INPUT
 10
0.0
 20
0.0
 30
0.0
  0
INSERT
  5
EA0C95D535FBB49C
100
AcDbEntity
  8
SIMPLE
  6
CONTINUOUS
 62
     1
100
AcDbBlockReference
  2
ALM_COMB_B_INPUT
 10
0.0
 20
0.0
 30
0.0
  0
INSERT
  5
EA0C95D535FBB49F
100
AcDbEntity
  8
SIMPLE
  6
CONTINUOUS
 62
     1
100
AcDbBlockReference
  2
ALM_COMB_C_INPUT
 10
0.0
 20
0.0
 30
0.0
  0
INSERT
  5
EA0C95D535FBB4A2
100
AcDbEntity
  8
SIMPLE
  6
CONTINUOUS
 62
     1
100
AcDbBlockReference
  2
ALM_COMB_D_INPUT
 10
0.0
 20
0.0
 30
0.0
  0
ENDBLK
  5
EA0C95D535FBB4B3
100
AcDbEntity
  8
SIMPLE
  6
CONTINUOUS
100
AcDbBlockEnd
  0
BLOCK
  5
EA0C95D535FBB4D8
100
AcDbEntity
  8
SIMPLE
  6
CONTINUOUS
100
AcDbBlockBegin
  2
ALM_FF_ARM
 70
     2
 10
0.0
 20
0.0
 30
0.0
  1

  0
POLYLINE
  5
DF36CAC14A4D812F
100
AcDbEntity
  8
SIMPLE
  6
CONTINUOUS
100
AcDb2dPolyline
 66
     1
 10
0.0
 20
0.0
 30
0.0
 70
     1
  0
VERTEX
  5
DF36CAC14A4D8130
100
AcDbEntity
  8
SIMPLE
  6
CONTINUOUS
100
AcDbVertex
100
AcDb2dVertex
 10
4006.16
 20
-3638.0
 30
0.0
  0
VERTEX
  5
DF36CAC14A4D8131
100
AcDbEntity
  8
SIMPLE
  6
CONTINUOUS
100
AcDbVertex
100
AcDb2dVertex
 10
4310.16
 20
-3638.0
 30
0.0
  0
VERTEX
  5
DF36CAC14A4D8132
100
AcDbEntity
  8
SIMPLE
  6
CONTINUOUS
100
AcDbVertex
100
AcDb2dVertex
 10
4310.16
 20
-4014.0
 30
0.0
  0
VERTEX
  5
DF36CAC14A4D8133
100
AcDbEntity
  8
SIMPLE
  6
CONTINUOUS
100
AcDbVertex
100
AcDb2dVertex
 10
4006.16
 20
-4014.0
 30
0.0
  0
SEQEND
  5
DF36CAC14A4D8134
100
AcDbEntity
  8
SIMPLE
  6
CONTINUOUS
  0
ATTDEF
  5
DF36CAC14A4D8135
100
AcDbEntity
  8
SIMPLE
  6
CONTINUOUS
100
AcDbText
 10
4018.16
 20
-3846.0
 30
0.0
 40
80.0
  1
0
  7
SIMPLEX
100
AcDbAttributeDefinition
  3

  2
index
 70
     0
  0
INSERT
  5
EA0C95D535FBB4B9
100
AcDbEntity
  8
SIMPLE
  6
CONTINUOUS
 62
     1
100
AcDbBlockReference
  2
ALM_FF_ALOAD_IN
 10
0.0
 20
0.0
 30
0.0
  0
INSERT
  5
EA0C95D535FBB4BC
100
AcDbEntity
  8
SIMPLE
  6
CONTINUOUS
 62
     1
100
AcDbBlockReference
  2
ALM_FF_SCLR
 10
0.0
 20
0.0
 30
0.0
  0
INSERT
  5
EA0C95D535FBB4BF
100
AcDbEntity
  8
SIMPLE
  6
CONTINUOUS
 62
     1
100
AcDbBlockReference
  2
ALM_FF_SLOAD
 10
0.0
 20
0.0
 30
0.0
  0
INSERT
  5
EA0C95D535FBB4C2
100
AcDbEntity
  8
SIMPLE
  6
CONTINUOUS
 62
     1
100
AcDbBlockReference
  2
ALM_FF_DATA_IN
 10
0.0
 20
0.0
 30
0.0
  0
INSERT
  5
EA0C95D535FBB4C5
100
AcDbEntity
  8
SIMPLE
  6
CONTINUOUS
 62
     1
100
AcDbBlockReference
  2
ALM_FF_ADATA_SDATA
 10
0.0
 20
0.0
 30
0.0
  0
INSERT
  5
EA0C95D535FBB4C8
100
AcDbEntity
  8
SIMPLE
  6
CONTINUOUS
 62
     1
100
AcDbBlockReference
  2
ALM_FF_CLK
 10
0.0
 20
0.0
 30
0.0
  0
INSERT
  5
EA0C95D535FBB4CB
100
AcDbEntity
  8
SIMPLE
  6
CONTINUOUS
 62
     1
100
AcDbBlockReference
  2
ALM_FF_ENABLE
 10
0.0
 20
0.0
 30
0.0
  0
INSERT
  5
EA0C95D535FBB4CE
100
AcDbEntity
  8
SIMPLE
  6
CONTINUOUS
 62
     1
100
AcDbBlockReference
  2
ALM_FF_ACLR
 10
0.0
 20
0.0
 30
0.0
  0
INSERT
  5
EA0C95D535FBB4D1
100
AcDbEntity
  8
SIMPLE
  6
CONTINUOUS
 62
     1
100
AcDbBlockReference
  2
ALM_FF_REGOUT
 10
0.0
 20
0.0
 30
0.0
  0
INSERT
  5
EA0C95D535FBB4D7
100
AcDbEntity
  8
SIMPLE
  6
CONTINUOUS
100
AcDbBlockReference
  2
ALM_FF_REG_CHAIN
 10
0.0
 20
0.0
 30
0.0
  0
ENDBLK
  5
EA0C95D535FBB4D9
100
AcDbEntity
  8
SIMPLE
  6
CONTINUOUS
100
AcDbBlockEnd
  0
BLOCK
  5
DF3414A12ED3DF17
100
AcDbEntity
  8
SIMPLE
  6
CONTINUOUS
100
AcDbBlockBegin
  2
ALM_DATA_IN_GROUP
 70
     0
 10
0.0
 20
0.0
 30
0.0
  1

  0
LINE
  5
DF3414A0FED3DA60
100
AcDbEntity
  8
SIMPLE
  6
CONTINUOUS
100
AcDbLine
 10
2910.16
 20
-4046.0
 30
0.0
 11
795.0
 21
-4046.0
 31
0.0
  0
ENDBLK
  5
DF3414A12ED3DF18
100
AcDbEntity
  8
SIMPLE
  6
CONTINUOUS
100
AcDbBlockEnd
  0
BLOCK
  5
DF3414A12ED3DF1A
100
AcDbEntity
  8
SIMPLE
  6
CONTINUOUS
100
AcDbBlockBegin
  2
ALM_LABWIDE_IN_GROUP
 70
     0
 10
0.0
 20
0.0
 30
0.0
  1

  0
LINE
  5
DF3414A0FE0B6C38
100
AcDbEntity
  8
SIMPLE
  6
CONTINUOUS
100
AcDbLine
 10
795.0
 20
-3586.0
 30
0.0
 11
3962.16
 21
-3586.0
 31
0.0
  0
LINE
  5
DF3414A0FE0B6C39
100
AcDbEntity
  8
SIMPLE
  6
CONTINUOUS
100
AcDbLine
 10
3962.16
 20
-3606.0
 30
0.0
 11
3962.16
 21
-3586.0
 31
0.0
  0
ENDBLK
  5
DF3414A12ED3DF1B
100
AcDbEntity
  8
SIMPLE
  6
CONTINUOUS
100
AcDbBlockEnd
  0
BLOCK
  5
DF3414A12ED3DF14
100
AcDbEntity
  8
SIMPLE
  6
CONTINUOUS
100
AcDbBlockBegin
  2
ALM_DATA_OUT_GROUP
 70
     0
 10
0.0
 20
0.0
 30
0.0
  1

  0
LINE
  5
DF3414A10064A5C3
100
AcDbEntity
  8
SIMPLE
  6
CONTINUOUS
100
AcDbLine
 10
4350.16
 20
-4046.0
 30
0.0
 11
5405.0
 21
-4046.0
 31
0.0
  0
ENDBLK
  5
DF3414A12ED3DF15
100
AcDbEntity
  8
SIMPLE
  6
CONTINUOUS
100
AcDbBlockEnd
  0
BLOCK
  5
EA0C95D535FBB491
100
AcDbEntity
  8
SIMPLE
  6
CONTINUOUS
 62
     1
100
AcDbBlockBegin
  2
ALM_COMB_F_INPUT
 70
     0
 10
0.0
 20
0.0
 30
0.0
  1

  0
POINT
  5
DF3414A3B35FCC6C
100
AcDbEntity
  8
SIMPLE
  6
CONTINUOUS
 62
     1
100
AcDbPoint
 10
3118.16
 20
-3658.0
 30
0.0
  0
ENDBLK
  5
EA0C95D535FBB492
100
AcDbEntity
  8
SIMPLE
  6
CONTINUOUS
 62
     1
100
AcDbBlockEnd
  0
BLOCK
  5
EA0C95D535FBB494
100
AcDbEntity
  8
SIMPLE
  6
CONTINUOUS
 62
     1
100
AcDbBlockBegin
  2
ALM_COMB_E_INPUT
 70
     0
 10
0.0
 20
0.0
 30
0.0
  1

  0
POINT
  5
DF3414A669804B2C
100
AcDbEntity
  8
SIMPLE
  6
CONTINUOUS
 62
     1
100
AcDbPoint
 10
3118.16
 20
-3718.0
 30
0.0
  0
ENDBLK
  5
EA0C95D535FBB495
100
AcDbEntity
  8
SIMPLE
  6
CONTINUOUS
 62
     1
100
AcDbBlockEnd
  0
BLOCK
  5
EA0C95D535FBB497
100
AcDbEntity
  8
SIMPLE
  6
CONTINUOUS
 62
     1
100
AcDbBlockBegin
  2
ALM_COMB_A_INPUT
 70
     0
 10
0.0
 20
0.0
 30
0.0
  1

  0
POINT
  5
DF3414ABD5C148A8
100
AcDbEntity
  8
SIMPLE
  6
CONTINUOUS
 62
     1
100
AcDbPoint
 10
3118.16
 20
-3774.0
 30
0.0
  0
ENDBLK
  5
EA0C95D535FBB498
100
AcDbEntity
  8
SIMPLE
  6
CONTINUOUS
 62
     1
100
AcDbBlockEnd
  0
BLOCK
  5
EA0C95D535FBB49A
100
AcDbEntity
  8
SIMPLE
  6
CONTINUOUS
 62
     1
100
AcDbBlockBegin
  2
ALM_COMB_B_INPUT
 70
     0
 10
0.0
 20
0.0
 30
0.0
  1

  0
POINT
  5
DF3414B6AE43439C
100
AcDbEntity
  8
SIMPLE
  6
CONTINUOUS
 62
     1
100
AcDbPoint
 10
3118.16
 20
-3834.0
 30
0.0
  0
ENDBLK
  5
EA0C95D535FBB49B
100
AcDbEntity
  8
SIMPLE
  6
CONTINUOUS
 62
     1
100
AcDbBlockEnd
  0
BLOCK
  5
EA0C95D535FBB49D
100
AcDbEntity
  8
SIMPLE
  6
CONTINUOUS
 62
     1
100
AcDbBlockBegin
  2
ALM_COMB_C_INPUT
 70
     0
 10
0.0
 20
0.0
 30
0.0
  1

  0
POINT
  5
DF3414CC5F473980
100
AcDbEntity
  8
SIMPLE
  6
CONTINUOUS
 62
     1
100
AcDbPoint
 10
3118.16
 20
-3906.0
 30
0.0
  0
ENDBLK
  5
EA0C95D535FBB49E
100
AcDbEntity
  8
SIMPLE
  6
CONTINUOUS
 62
     1
100
AcDbBlockEnd
  0
BLOCK
  5
EA0C95D535FBB4A0
100
AcDbEntity
  8
SIMPLE
  6
CONTINUOUS
 62
     1
100
AcDbBlockBegin
  2
ALM_COMB_D_INPUT
 70
     0
 10
0.0
 20
0.0
 30
0.0
  1

  0
POINT
  5
DF3414F7C14F2544
100
AcDbEntity
  8
SIMPLE
  6
CONTINUOUS
 62
     1
100
AcDbPoint
 10
3118.16
 20
-3974.0
 30
0.0
  0
ENDBLK
  5
EA0C95D535FBB4A1
100
AcDbEntity
  8
SIMPLE
  6
CONTINUOUS
 62
     1
100
AcDbBlockEnd
  0
BLOCK
  5
DF3414A1606881CD
100
AcDbEntity
  8
SIMPLE
  6
CONTINUOUS
 62
     1
100
AcDbBlockBegin
  2
ALM_COMB_SHARE_INPUT
 70
     0
 10
0.0
 20
0.0
 30
0.0
  1

  0
POINT
  5
DF3414A1606881CC
100
AcDbEntity
  8
SIMPLE
  6
CONTINUOUS
 62
     1
100
AcDbPoint
 10
3570.16
 20
-3698.0
 30
0.0
  0
ENDBLK
  5
DF3414A1606881CE
100
AcDbEntity
  8
SIMPLE
  6
CONTINUOUS
 62
     1
100
AcDbBlockEnd
  0
BLOCK
  5
EA0C95D535FBB4A3
100
AcDbEntity
  8
SIMPLE
  6
CONTINUOUS
 62
     1
100
AcDbBlockBegin
  2
ALM_COMB_CARRY_INPUT
 70
     0
 10
0.0
 20
0.0
 30
0.0
  1

  0
POINT
  5
DF3414A1C391B5FC
100
AcDbEntity
  8
SIMPLE
  6
CONTINUOUS
 62
     1
100
AcDbPoint
 10
3666.16
 20
-3698.0
 30
0.0
  0
ENDBLK
  5
EA0C95D535FBB4A4
100
AcDbEntity
  8
SIMPLE
  6
CONTINUOUS
 62
     1
100
AcDbBlockEnd
  0
BLOCK
  5
EA0C95D535FBB4AF
100
AcDbEntity
  8
SIMPLE
  6
CONTINUOUS
100
AcDbBlockBegin
  2
ALM_COMB_SHARE_OUTPUT
 70
     0
 10
0.0
 20
0.0
 30
0.0
  1

  0
POINT
  5
DF356FB13C90B015
100
AcDbEntity
  8
SIMPLE
  6
CONTINUOUS
 62
     1
100
AcDbPoint
 10
3570.16
 20
-3962.0
 30
0.0
  0
POLYLINE
  5
DF356FB13C90B016
100
AcDbEntity
  8
SIMPLE
  6
CONTINUOUS
100
AcDb2dPolyline
 66
     1
 10
0.0
 20
0.0
 30
0.0
 70
     1
  0
VERTEX
  5
DF356FB13C90B017
100
AcDbEntity
  8
SIMPLE
  6
CONTINUOUS
100
AcDbVertex
100
AcDb2dVertex
 10
3554.16
 20
-3942.0
 30
0.0
  0
VERTEX
  5
DF356FB13C90B018
100
AcDbEntity
  8
SIMPLE
  6
CONTINUOUS
100
AcDbVertex
100
AcDb2dVertex
 10
3586.16
 20
-3942.0
 30
0.0
  0
VERTEX
  5
DF356FB13C90B019
100
AcDbEntity
  8
SIMPLE
  6
CONTINUOUS
100
AcDbVertex
100
AcDb2dVertex
 10
3586.16
 20
-4042.0
 30
0.0
  0
VERTEX
  5
DF356FB13C90B01A
100
AcDbEntity
  8
SIMPLE
  6
CONTINUOUS
100
AcDbVertex
100
AcDb2dVertex
 10
3554.16
 20
-4042.0
 30
0.0
  0
SEQEND
  5
DF356FB13C90B01B
100
AcDbEntity
  8
SIMPLE
  6
CONTINUOUS
  0
ENDBLK
  5
EA0C95D535FBB4B0
100
AcDbEntity
  8
SIMPLE
  6
CONTINUOUS
100
AcDbBlockEnd
  0
BLOCK
  5
EA0C95D535FBB4AC
100
AcDbEntity
  8
SIMPLE
  6
CONTINUOUS
100
AcDbBlockBegin
  2
ALM_COMB_CARRY_OUTPUT
 70
     0
 10
0.0
 20
0.0
 30
0.0
  1

  0
POINT
  5
DF34C2291CEA565B
100
AcDbEntity
  8
SIMPLE
  6
CONTINUOUS
 62
     1
100
AcDbPoint
 10
3666.16
 20
-3962.0
 30
0.0
  0
POLYLINE
  5
DF34C2291CEA565C
100
AcDbEntity
  8
SIMPLE
  6
CONTINUOUS
100
AcDb2dPolyline
 66
     1
 10
0.0
 20
0.0
 30
0.0
 70
     1
  0
VERTEX
  5
DF34C2291CEA565D
100
AcDbEntity
  8
SIMPLE
  6
CONTINUOUS
100
AcDbVertex
100
AcDb2dVertex
 10
3650.16
 20
-3942.0
 30
0.0
  0
VERTEX
  5
DF34C2291CEA565E
100
AcDbEntity
  8
SIMPLE
  6
CONTINUOUS
100
AcDbVertex
100
AcDb2dVertex
 10
3682.16
 20
-3942.0
 30
0.0
  0
VERTEX
  5
DF34C2291CEA565F
100
AcDbEntity
  8
SIMPLE
  6
CONTINUOUS
100
AcDbVertex
100
AcDb2dVertex
 10
3682.16
 20
-4042.0
 30
0.0
  0
VERTEX
  5
DF34C2291CEA5660
100
AcDbEntity
  8
SIMPLE
  6
CONTINUOUS
100
AcDbVertex
100
AcDb2dVertex
 10
3650.16
 20
-4042.0
 30
0.0
  0
SEQEND
  5
DF34C2291CEA5661
100
AcDbEntity
  8
SIMPLE
  6
CONTINUOUS
  0
ENDBLK
  5
EA0C95D535FBB4AD
100
AcDbEntity
  8
SIMPLE
  6
CONTINUOUS
100
AcDbBlockEnd
  0
BLOCK
  5
EA0C95D535FBB4A6
100
AcDbEntity
  8
SIMPLE
  6
CONTINUOUS
 62
     1
100
AcDbBlockBegin
  2
ALM_COMB_SUM_OUTPUT
 70
     0
 10
0.0
 20
0.0
 30
0.0
  1

  0
POINT
  5
DF344003052B19B8
100
AcDbEntity
  8
SIMPLE
  6
CONTINUOUS
 62
     1
100
AcDbPoint
 10
3722.16
 20
-3786.0
 30
0.0
  0
ENDBLK
  5
EA0C95D535FBB4A7
100
AcDbEntity
  8
SIMPLE
  6
CONTINUOUS
 62
     1
100
AcDbBlockEnd
  0
BLOCK
  5
EA0C95D535FBB4A9
100
AcDbEntity
  8
SIMPLE
  6
CONTINUOUS
 62
     1
100
AcDbBlockBegin
  2
ALM_COMB_COMB_OUTPUT
 70
     0
 10
0.0
 20
0.0
 30
0.0
  1

  0
POINT
  5
DF346B650D16E59C
100
AcDbEntity
  8
SIMPLE
  6
CONTINUOUS
 62
     1
100
AcDbPoint
 10
3722.16
 20
-3898.0
 30
0.0
  0
ENDBLK
  5
EA0C95D535FBB4AA
100
AcDbEntity
  8
SIMPLE
  6
CONTINUOUS
 62
     1
100
AcDbBlockEnd
  0
BLOCK
  5
EA0C95D535FBB4D5
100
AcDbEntity
  8
SIMPLE
  6
CONTINUOUS
100
AcDbBlockBegin
  2
ALM_FF_REG_CHAIN
 70
     0
 10
0.0
 20
0.0
 30
0.0
  1

  0
POLYLINE
  5
EA0C95D535FBB48B
100
AcDbEntity
  8
SIMPLE
  6
CONTINUOUS
100
AcDb2dPolyline
 66
     1
 10
0.0
 20
0.0
 30
0.0
 70
     1
  0
VERTEX
  5
EA0C95D535FBB48C
100
AcDbEntity
  8
SIMPLE
  6
CONTINUOUS
100
AcDbVertex
100
AcDb2dVertex
 10
4154.16
 20
-3942.0
 30
0.0
  0
VERTEX
  5
EA0C95D535FBB48D
100
AcDbEntity
  8
SIMPLE
  6
CONTINUOUS
100
AcDbVertex
100
AcDb2dVertex
 10
4186.16
 20
-3942.0
 30
0.0
  0
VERTEX
  5
EA0C95D535FBB48E
100
AcDbEntity
  8
SIMPLE
  6
CONTINUOUS
100
AcDbVertex
100
AcDb2dVertex
 10
4186.16
 20
-4042.0
 30
0.0
  0
VERTEX
  5
EA0C95D535FBB48F
100
AcDbEntity
  8
SIMPLE
  6
CONTINUOUS
100
AcDbVertex
100
AcDb2dVertex
 10
4154.16
 20
-4042.0
 30
0.0
  0
SEQEND
  5
EA0C95D535FBB490
100
AcDbEntity
  8
SIMPLE
  6
CONTINUOUS
  0
POINT
  5
EA0C95D535FBB4D4
100
AcDbEntity
  8
SIMPLE
  6
CONTINUOUS
 62
     1
100
AcDbPoint
 10
4170.0
 20
-4015.0
 30
0.0
  0
ENDBLK
  5
EA0C95D535FBB4D6
100
AcDbEntity
  8
SIMPLE
  6
CONTINUOUS
100
AcDbBlockEnd
  0
BLOCK
  5
EA0C95D535FBB4B7
100
AcDbEntity
  8
SIMPLE
  6
CONTINUOUS
 62
     1
100
AcDbBlockBegin
  2
ALM_FF_ALOAD_IN
 70
     0
 10
0.0
 20
0.0
 30
0.0
  1

  0
POINT
  5
DF3980E1975BB46A
100
AcDbEntity
  8
SIMPLE
  6
CONTINUOUS
 62
     1
100
AcDbPoint
 10
4006.16
 20
-3674.0
 30
0.0
  0
ENDBLK
  5
EA0C95D535FBB4B8
100
AcDbEntity
  8
SIMPLE
  6
CONTINUOUS
 62
     1
100
AcDbBlockEnd
  0
BLOCK
  5
EA0C95D535FBB4BA
100
AcDbEntity
  8
SIMPLE
  6
CONTINUOUS
 62
     1
100
AcDbBlockBegin
  2
ALM_FF_SCLR
 70
     0
 10
0.0
 20
0.0
 30
0.0
  1

  0
POINT
  5
DF3EED2231781ABC
100
AcDbEntity
  8
SIMPLE
  6
CONTINUOUS
 62
     1
100
AcDbPoint
 10
4006.16
 20
-3710.0
 30
0.0
  0
ENDBLK
  5
EA0C95D535FBB4BB
100
AcDbEntity
  8
SIMPLE
  6
CONTINUOUS
 62
     1
100
AcDbBlockEnd
  0
BLOCK
  5
EA0C95D535FBB4BD
100
AcDbEntity
  8
SIMPLE
  6
CONTINUOUS
 62
     1
100
AcDbBlockBegin
  2
ALM_FF_SLOAD
 70
     0
 10
0.0
 20
0.0
 30
0.0
  1

  0
POINT
  5
DF49C5A365B0E75C
100
AcDbEntity
  8
SIMPLE
  6
CONTINUOUS
 62
     1
100
AcDbPoint
 10
4006.16
 20
-3750.0
 30
0.0
  0
ENDBLK
  5
EA0C95D535FBB4BE
100
AcDbEntity
  8
SIMPLE
  6
CONTINUOUS
 62
     1
100
AcDbBlockEnd
  0
BLOCK
  5
EA0C95D535FBB4C0
100
AcDbEntity
  8
SIMPLE
  6
CONTINUOUS
 62
     1
100
AcDbBlockBegin
  2
ALM_FF_DATA_IN
 70
     0
 10
0.0
 20
0.0
 30
0.0
  1

  0
POINT
  5
DF5F76A5CE228098
100
AcDbEntity
  8
SIMPLE
  6
CONTINUOUS
 62
     1
100
AcDbPoint
 10
4006.16
 20
-3790.0
 30
0.0
  0
ENDBLK
  5
EA0C95D535FBB4C1
100
AcDbEntity
  8
SIMPLE
  6
CONTINUOUS
 62
     1
100
AcDbBlockEnd
  0
BLOCK
  5
EA0C95D535FBB4C3
100
AcDbEntity
  8
SIMPLE
  6
CONTINUOUS
 62
     1
100
AcDbBlockBegin
  2
ALM_FF_ADATA_SDATA
 70
     0
 10
0.0
 20
0.0
 30
0.0
  1

  0
POINT
  5
DF8AD8AA9F05B30C
100
AcDbEntity
  8
SIMPLE
  6
CONTINUOUS
 62
     1
100
AcDbPoint
 10
4006.16
 20
-3830.0
 30
0.0
  0
ENDBLK
  5
EA0C95D535FBB4C4
100
AcDbEntity
  8
SIMPLE
  6
CONTINUOUS
 62
     1
100
AcDbBlockEnd
  0
BLOCK
  5
EA0C95D535FBB4C6
100
AcDbEntity
  8
SIMPLE
  6
CONTINUOUS
 62
     1
100
AcDbBlockBegin
  2
ALM_FF_CLK
 70
     0
 10
0.0
 20
0.0
 30
0.0
  1

  0
POINT
  5
DFE19CB440CC17F0
100
AcDbEntity
  8
SIMPLE
  6
CONTINUOUS
 62
     1
100
AcDbPoint
 10
4006.16
 20
-3874.0
 30
0.0
  0
ENDBLK
  5
EA0C95D535FBB4C7
100
AcDbEntity
  8
SIMPLE
  6
CONTINUOUS
 62
     1
100
AcDbBlockEnd
  0
BLOCK
  5
EA0C95D535FBB4C9
100
AcDbEntity
  8
SIMPLE
  6
CONTINUOUS
 62
     1
100
AcDbBlockBegin
  2
ALM_FF_ENABLE
 70
     0
 10
0.0
 20
0.0
 30
0.0
  1

  0
POINT
  5
E08F24C78458E1B4
100
AcDbEntity
  8
SIMPLE
  6
CONTINUOUS
 62
     1
100
AcDbPoint
 10
4006.16
 20
-3918.0
 30
0.0
  0
ENDBLK
  5
EA0C95D535FBB4CA
100
AcDbEntity
  8
SIMPLE
  6
CONTINUOUS
 62
     1
100
AcDbBlockEnd
  0
BLOCK
  5
EA0C95D535FBB4CC
100
AcDbEntity
  8
SIMPLE
  6
CONTINUOUS
 62
     1
100
AcDbBlockBegin
  2
ALM_FF_ACLR
 70
     0
 10
0.0
 20
0.0
 30
0.0
  1

  0
POINT
  5
E1EA34EE0B727538
100
AcDbEntity
  8
SIMPLE
  6
CONTINUOUS
 62
     1
100
AcDbPoint
 10
4006.16
 20
-3974.0
 30
0.0
  0
ENDBLK
  5
EA0C95D535FBB4CD
100
AcDbEntity
  8
SIMPLE
  6
CONTINUOUS
 62
     1
100
AcDbBlockEnd
  0
BLOCK
  5
EA0C95D535FBB4CF
100
AcDbEntity
  8
SIMPLE
  6
CONTINUOUS
 62
     1
100
AcDbBlockBegin
  2
ALM_FF_REGOUT
 70
     0
 10
0.0
 20
0.0
 30
0.0
  1

  0
POINT
  5
E4A0553B19A59C3C
100
AcDbEntity
  8
SIMPLE
  6
CONTINUOUS
 62
     1
100
AcDbPoint
 10
4310.16
 20
-3750.0
 30
0.0
  0
ENDBLK
  5
EA0C95D535FBB4D0
100
AcDbEntity
  8
SIMPLE
  6
CONTINUOUS
 62
     1
100
AcDbBlockEnd
  0
BLOCK
  5
EA0C95D535FBB55A
100
AcDbEntity
  8
SIMPLE
  6
CONTINUOUS
100
AcDbBlockBegin
  2
ALM_COMB_COMMON_LUTS
 70
     0
 10
0.0
 20
0.0
 30
0.0
  1

  0
POLYLINE
  5
EA0C95D535FBB545
100
AcDbEntity
  8
SIMPLE
  6
CONTINUOUS
100
AcDb2dPolyline
 66
     1
 10
0.0
 20
0.0
 30
0.0
 70
     1
  0
VERTEX
  5
EA0C95D535FBB546
100
AcDbEntity
  8
SIMPLE
  6
CONTINUOUS
100
AcDbVertex
100
AcDb2dVertex
 10
3118.16
 20
-3638.0
 30
0.0
  0
VERTEX
  5
EA0C95D535FBB547
100
AcDbEntity
  8
SIMPLE
  6
CONTINUOUS
100
AcDbVertex
100
AcDb2dVertex
 10
3518.16
 20
-3638.0
 30
0.0
  0
VERTEX
  5
EA0C95D535FBB548
100
AcDbEntity
  8
SIMPLE
  6
CONTINUOUS
100
AcDbVertex
100
AcDb2dVertex
 10
3518.16
 20
-4458.0
 30
0.0
  0
VERTEX
  5
EA0C95D535FBB549
100
AcDbEntity
  8
SIMPLE
  6
CONTINUOUS
100
AcDbVertex
100
AcDb2dVertex
 10
3118.16
 20
-4458.0
 30
0.0
  0
SEQEND
  5
EA0C95D535FBB54A
100
AcDbEntity
  8
SIMPLE
  6
CONTINUOUS
  0
ENDBLK
  5
EA0C95D535FBB55B
100
AcDbEntity
  8
SIMPLE
  6
CONTINUOUS
100
AcDbBlockEnd
  0
BLOCK
  5
EA0C95D535FBB55D
100
AcDbEntity
  8
COMMENT
  6
CONTINUOUS
100
AcDbBlockBegin
  2
ALM_ARM
 70
     2
 10
0.0
 20
0.0
 30
0.0
  1

  0
POINT
  5
EA0C95D535FBB529
100
AcDbEntity
  8
COMMENT
  6
CONTINUOUS
 62
    53
100
AcDbPoint
 10
2910.16
 20
-3806.0
 30
0.0
  0
POINT
  5
EA0C95D535FBB52A
100
AcDbEntity
  8
COMMENT
  6
CONTINUOUS
 62
    53
100
AcDbPoint
 10
2910.16
 20
-3834.0
 30
0.0
  0
POINT
  5
EA0C95D535FBB52B
100
AcDbEntity
  8
COMMENT
  6
CONTINUOUS
 62
    53
100
AcDbPoint
 10
2910.16
 20
-3882.0
 30
0.0
  0
POINT
  5
EA0C95D535FBB52C
100
AcDbEntity
  8
COMMENT
  6
CONTINUOUS
 62
    53
100
AcDbPoint
 10
4350.16
 20
-3622.0
 30
0.0
  0
POINT
  5
EA0C95D535FBB52D
100
AcDbEntity
  8
COMMENT
  6
CONTINUOUS
 62
    53
100
AcDbPoint
 10
3570.16
 20
-3606.0
 30
0.0
  0
POINT
  5
EA0C95D535FBB52E
100
AcDbEntity
  8
COMMENT
  6
CONTINUOUS
 62
    53
100
AcDbPoint
 10
3666.16
 20
-3606.0
 30
0.0
  0
POINT
  5
EA0C95D535FBB52F
100
AcDbEntity
  8
COMMENT
  6
CONTINUOUS
 62
    53
100
AcDbPoint
 10
4350.16
 20
-4190.0
 30
0.0
  0
POINT
  5
EA0C95D535FBB530
100
AcDbEntity
  8
COMMENT
  6
CONTINUOUS
 62
    53
100
AcDbPoint
 10
3854.16
 20
-3606.0
 30
0.0
  0
POINT
  5
EA0C95D535FBB531
100
AcDbEntity
  8
COMMENT
  6
CONTINUOUS
 62
    53
100
AcDbPoint
 10
4350.16
 20
-3750.0
 30
0.0
  0
POINT
  5
EA0C95D535FBB532
100
AcDbEntity
  8
COMMENT
  6
CONTINUOUS
 62
    53
100
AcDbPoint
 10
2910.16
 20
-3658.0
 30
0.0
  0
POINT
  5
EA0C95D535FBB533
100
AcDbEntity
  8
COMMENT
  6
CONTINUOUS
 62
    53
100
AcDbPoint
 10
2910.16
 20
-3630.0
 30
0.0
  0
POLYLINE
  5
EA0C95D535FBB534
100
AcDbEntity
  8
COMMENT
  6
CONTINUOUS
 62
    50
100
AcDb2dPolyline
 66
     1
 10
0.0
 20
0.0
 30
0.0
 70
     1
  0
VERTEX
  5
EA0C95D535FBB535
100
AcDbEntity
  8
COMMENT
  6
CONTINUOUS
 62
    50
100
AcDbVertex
100
AcDb2dVertex
 10
2910.16
 20
-3606.0
 30
0.0
  0
VERTEX
  5
EA0C95D535FBB536
100
AcDbEntity
  8
COMMENT
  6
CONTINUOUS
 62
    50
100
AcDbVertex
100
AcDb2dVertex
 10
4350.16
 20
-3606.0
 30
0.0
  0
VERTEX
  5
EA0C95D535FBB537
100
AcDbEntity
  8
COMMENT
  6
CONTINUOUS
 62
    50
100
AcDbVertex
100
AcDb2dVertex
 10
4350.16
 20
-4486.0
 30
0.0
  0
VERTEX
  5
EA0C95D535FBB538
100
AcDbEntity
  8
COMMENT
  6
CONTINUOUS
 62
    50
100
AcDbVertex
100
AcDb2dVertex
 10
2910.16
 20
-4486.0
 30
0.0
  0
SEQEND
  5
EA0C95D535FBB539
100
AcDbEntity
  8
COMMENT
  6
CONTINUOUS
 62
    50
  0
POINT
  5
EA0C95D535FBB53A
100
AcDbEntity
  8
COMMENT
  6
CONTINUOUS
 62
    53
100
AcDbPoint
 10
2910.16
 20
-3998.0
 30
0.0
  0
POINT
  5
EA0C95D535FBB53B
100
AcDbEntity
  8
COMMENT
  6
CONTINUOUS
 62
    53
100
AcDbPoint
 10
2910.16
 20
-4098.0
 30
0.0
  0
POINT
  5
EA0C95D535FBB53C
100
AcDbEntity
  8
COMMENT
  6
CONTINUOUS
 62
    53
100
AcDbPoint
 10
4350.16
 20
-4038.0
 30
0.0
  0
POINT
  5
EA0C95D535FBB53D
100
AcDbEntity
  8
COMMENT
  6
CONTINUOUS
 62
    53
100
AcDbPoint
 10
4350.16
 20
-4062.0
 30
0.0
  0
ATTDEF
  5
EA0C95D535FBB53E
100
AcDbEntity
  8
SIMPLE
  6
CONTINUOUS
100
AcDbText
 10
3718.16
 20
-4094.0
 30
0.0
 40
80.0
  1

  7
SIMPLEX
100
AcDbAttributeDefinition
  3

  2
index
 70
     0
  0
POLYLINE
  5
EA0C95D535FBB53F
100
AcDbEntity
  8
SIMPLE
  6
CONTINUOUS
100
AcDb2dPolyline
 66
     1
 10
0.0
 20
0.0
 30
0.0
 70
     1
  0
VERTEX
  5
EA0C95D535FBB540
100
AcDbEntity
  8
SIMPLE
  6
CONTINUOUS
100
AcDbVertex
100
AcDb2dVertex
 10
2910.16
 20
-3606.0
 30
0.0
  0
VERTEX
  5
EA0C95D535FBB541
100
AcDbEntity
  8
SIMPLE
  6
CONTINUOUS
100
AcDbVertex
100
AcDb2dVertex
 10
4350.16
 20
-3606.0
 30
0.0
  0
VERTEX
  5
EA0C95D535FBB542
100
AcDbEntity
  8
SIMPLE
  6
CONTINUOUS
100
AcDbVertex
100
AcDb2dVertex
 10
4350.16
 20
-4486.0
 30
0.0
  0
VERTEX
  5
EA0C95D535FBB543
100
AcDbEntity
  8
SIMPLE
  6
CONTINUOUS
100
AcDbVertex
100
AcDb2dVertex
 10
2910.16
 20
-4486.0
 30
0.0
  0
SEQEND
  5
EA0C95D535FBB544
100
AcDbEntity
  8
SIMPLE
  6
CONTINUOUS
  0
INSERT
  5
EA0C95D535FBB54B
100
AcDbEntity
  8
SIMPLE
  6
CONTINUOUS
100
AcDbBlockReference
  2
ALM_DATA_OUT_GROUP
 10
0.0
 20
0.0
 30
0.0
  0
INSERT
  5
EA0C95D535FBB54C
100
AcDbEntity
  8
SIMPLE
  6
CONTINUOUS
100
AcDbBlockReference
  2
ALM_DATA_IN_GROUP
 10
0.0
 20
0.0
 30
0.0
  0
INSERT
  5
EA0C95D535FBB54D
100
AcDbEntity
  8
SIMPLE
  6
CONTINUOUS
100
AcDbBlockReference
  2
ALM_LABWIDE_IN_GROUP
 10
0.0
 20
0.0
 30
0.0
  0
INSERT
  5
EA0C95D535FBB54E
100
AcDbEntity
  8
SIMPLE
  6
CONTINUOUS
100
AcDbBlockReference
 66
     1
  2
ALM_COMB_ARM
 10
0.0
 20
0.0
 30
0.0
  0
ATTRIB
  5
EA0C95D535FBB54F
100
AcDbEntity
  8
SIMPLE
  6
CONTINUOUS
100
AcDbText
 10
3354.16
 20
-3854.0
 30
0.0
 40
80.0
  1
0
  7
SIMPLEX
100
AcDbAttribute
  2
index
 70
     0
  0
SEQEND
  5
EA0C95D535FBB550
100
AcDbEntity
  8
SIMPLE
  6
CONTINUOUS
  0
INSERT
  5
EA0C95D535FBB551
100
AcDbEntity
  8
SIMPLE
  6
CONTINUOUS
100
AcDbBlockReference
 66
     1
  2
ALM_FF_ARM
 10
0.0
 20
0.0
 30
0.0
  0
ATTRIB
  5
EA0C95D535FBB552
100
AcDbEntity
  8
SIMPLE
  6
CONTINUOUS
100
AcDbText
 10
4018.16
 20
-3846.0
 30
0.0
 40
80.0
  1
1
  7
SIMPLEX
100
AcDbAttribute
  2
index
 70
     0
  0
SEQEND
  5
EA0C95D535FBB553
100
AcDbEntity
  8
SIMPLE
  6
CONTINUOUS
  0
INSERT
  5
EA0C95D535FBB554
100
AcDbEntity
  8
SIMPLE
  6
CONTINUOUS
100
AcDbBlockReference
 66
     1
  2
ALM_COMB_ARM
 10
0.0
 20
-440.0
 30
0.0
  0
ATTRIB
  5
EA0C95D535FBB555
100
AcDbEntity
  8
SIMPLE
  6
CONTINUOUS
100
AcDbText
 10
3354.16
 20
-4294.0
 30
0.0
 40
80.0
  1
2
  7
SIMPLEX
100
AcDbAttribute
  2
index
 70
     0
  0
SEQEND
  5
EA0C95D535FBB556
100
AcDbEntity
  8
SIMPLE
  6
CONTINUOUS
  0
INSERT
  5
EA0C95D535FBB557
100
AcDbEntity
  8
SIMPLE
  6
CONTINUOUS
100
AcDbBlockReference
 66
     1
  2
ALM_FF_ARM
 10
0.0
 20
-440.0
 30
0.0
  0
ATTRIB
  5
EA0C95D535FBB558
100
AcDbEntity
  8
SIMPLE
  6
CONTINUOUS
100
AcDbText
 10
4018.16
 20
-4286.0
 30
0.0
 40
80.0
  1
3
  7
SIMPLEX
100
AcDbAttribute
  2
index
 70
     0
  0
SEQEND
  5
EA0C95D535FBB559
100
AcDbEntity
  8
SIMPLE
  6
CONTINUOUS
  0
INSERT
  5
EA0C95D535FBB55C
100
AcDbEntity
  8
SIMPLE
  6
CONTINUOUS
100
AcDbBlockReference
  2
ALM_COMB_COMMON_LUTS
 10
0.0
 20
0.0
 30
0.0
  0
ENDBLK
  5
EA0C95D535FBB55E
100
AcDbEntity
  8
COMMENT
  6
CONTINUOUS
100
AcDbBlockEnd
  0
BLOCK
  5
DF3414A0FD4F8466
100
AcDbEntity
  8
SIMPLE
  6
CONTINUOUS
100
AcDbBlockBegin
  2
ACV_GRID_SIZE_BLOCK
 70
     0
 10
0.0
 20
0.0
 30
0.0
  1

  0
POLYLINE
  5
DF3414A0FD4F8464
100
AcDbEntity
  8
SIMPLE
  6
CONTINUOUS
100
AcDb2dPolyline
 66
     1
 10
0.0
 20
0.0
 30
0.0
 70
     1
  0
VERTEX
  5
DF3414A0FD4F8472
100
AcDbEntity
  8
SIMPLE
  6
CONTINUOUS
100
AcDbVertex
100
AcDb2dVertex
 10
0.0
 20
0.0
 30
0.0
  0
VERTEX
  5
DF3414A0FD4F8473
100
AcDbEntity
  8
SIMPLE
  6
CONTINUOUS
100
AcDbVertex
100
AcDb2dVertex
 10
8000.0
 20
0.0
 30
0.0
  0
VERTEX
  5
DF3414A0FD4F8474
100
AcDbEntity
  8
SIMPLE
  6
CONTINUOUS
100
AcDbVertex
100
AcDb2dVertex
 10
8000.0
 20
-16000.0
 30
0.0
  0
VERTEX
  5
DF3414A0FD4F8475
100
AcDbEntity
  8
SIMPLE
  6
CONTINUOUS
100
AcDbVertex
100
AcDb2dVertex
 10
0.0
 20
-16000.0
 30
0.0
  0
SEQEND
  5
DF3414A0FD4F8476
100
AcDbEntity
  8
SIMPLE
  6
CONTINUOUS
  0
ENDBLK
  5
DF3414A0FD4F8468
100
AcDbEntity
  8
SIMPLE
  6
CONTINUOUS
100
AcDbBlockEnd
  0
ENDSEC
  0
SECTION
  2
ENTITIES
  0
POLYLINE
  5
DF3414A0FD533AD2
100
AcDbEntity
  8
SIMPLE
  6
CONTINUOUS
100
AcDb2dPolyline
 66
     1
 10
0.0
 20
0.0
 30
0.0
 70
     1
  0
VERTEX
  5
DF3414A0FD533AD3
100
AcDbEntity
  8
SIMPLE
  6
CONTINUOUS
100
AcDbVertex
100
AcDb2dVertex
 10
-2534399.247774
 20
581458.181534
 30
0.0
  0
VERTEX
  5
DF3414A0FD533AD4
100
AcDbEntity
  8
SIMPLE
  6
CONTINUOUS
100
AcDbVertex
100
AcDb2dVertex
 10
7585916.95282
 20
581458.181534
 30
0.0
  0
VERTEX
  5
DF3414A0FD533AD5
100
AcDbEntity
  8
SIMPLE
  6
CONTINUOUS
100
AcDbVertex
100
AcDb2dVertex
 10
7585916.95282
 20
-19659174.219653
 30
0.0
  0
VERTEX
  5
DF3414A0FD533AD6
100
AcDbEntity
  8
SIMPLE
  6
CONTINUOUS
100
AcDbVertex
100
AcDb2dVertex
 10
-2534399.247774
 20
-19659174.219653
 30
0.0
  0
SEQEND
  5
DF3414A0FD533AD7
100
AcDbEntity
  8
SIMPLE
  6
CONTINUOUS
  0
INSERT
  5
EA0C95D535FBB60E
100
AcDbEntity
  8
SIMPLE
  6
CONTINUOUS
100
AcDbBlockReference
  2
LAB_YGR
 10
0.0
 20
0.0
 30
0.0
  0
ENDSEC
  0
SECTION
  2
OBJECTS
  0
DICTIONARY
  5
DF3414A12ED3E012
100
AcDbDictionary
  3
ACAD_MLINESTYLE
350
DF3414A12ED3E013
  3
ACAD_GROUP
350
DF3414A12ED3E015
  0
DICTIONARY
  5
DF3414A12ED3E013
102
{ACAD_REACTORS
330
DF3414A12ED3E012
102
}
100
AcDbDictionary
  3
STANDARD
350
DF3414A12ED3E014
  0
DICTIONARY
  5
DF3414A12ED3E015
102
{ACAD_REACTORS
330
DF3414A12ED3E012
102
}
100
AcDbDictionary
  0
MLINESTYLE
  5
DF3414A12ED3E014
102
{ACAD_REACTORS
330
DF3414A12ED3E013
102
}
100
AcDbMlineStyle
  2
STANDARD
 70
     0
  3

 62
   256
 51
90.0
 52
90.0
 71
     2
 49
0.5
 62
   256
  6
BYLAYER
 49
-0.5
 62
   256
  6
BYLAYER
  0
ENDSEC
  0
EOF
