  0
SECTION
  2
HEADER
  9
$ACADVER
  1
AC1014
  9
$ACADMAINTVER
 70
     0
  9
$DWGCODEPAGE
  3
ANSI_1252
  9
$INSBASE
 10
0.0
 20
0.0
 30
0.0
  9
$EXTMIN
 10
-252.0
 20
-893.0
 30
-1.0
  9
$EXTMAX
 10
1927.333333
 20
123.5
 30
2.0
  9
$LIMMIN
 10
0.0
 20
0.0
  9
$LIMMAX
 10
12.0
 20
9.0
  9
$ORTHOMODE
 70
     0
  9
$REGENMODE
 70
     1
  9
$FILLMODE
 70
     1
  9
$QTEXTMODE
 70
     0
  9
$MIRRTEXT
 70
     1
  9
$DRAGMODE
 70
     2
  9
$LTSCALE
 40
1.0
  9
$OSMODE
 70
     0
  9
$ATTMODE
 70
     1
  9
$TEXTSIZE
 40
0.2
  9
$TRACEWID
 40
0.05
  9
$TEXTSTYLE
  7
SIMPLEX
  9
$CLAYER
  8
DETAIL_MEDIUM
  9
$CELTYPE
  6
CONTINUOUS
  9
$CECOLOR
 62
   256
  9
$CELTSCALE
 40
1.0
  9
$DELOBJ
 70
     1
  9
$DISPSILH
 70
     0
  9
$DIMSCALE
 40
1.0
  9
$DIMASZ
 40
0.18
  9
$DIMEXO
 40
0.0625
  9
$DIMDLI
 40
0.38
  9
$DIMRND
 40
0.0
  9
$DIMDLE
 40
0.0
  9
$DIMEXE
 40
0.18
  9
$DIMTP
 40
0.0
  9
$DIMTM
 40
0.0
  9
$DIMTXT
 40
0.18
  9
$DIMCEN
 40
0.09
  9
$DIMTSZ
 40
0.0
  9
$DIMTOL
 70
     0
  9
$DIMLIM
 70
     0
  9
$DIMTIH
 70
     1
  9
$DIMTOH
 70
     1
  9
$DIMSE1
 70
     0
  9
$DIMSE2
 70
     0
  9
$DIMTAD
 70
     0
  9
$DIMZIN
 70
     0
  9
$DIMBLK
  1

  9
$DIMASO
 70
     1
  9
$DIMSHO
 70
     1
  9
$DIMPOST
  1

  9
$DIMAPOST
  1

  9
$DIMALT
 70
     0
  9
$DIMALTD
 70
     2
  9
$DIMALTF
 40
25.4
  9
$DIMLFAC
 40
1.0
  9
$DIMTOFL
 70
     0
  9
$DIMTVP
 40
0.0
  9
$DIMTIX
 70
     0
  9
$DIMSOXD
 70
     0
  9
$DIMSAH
 70
     0
  9
$DIMBLK1
  1

  9
$DIMBLK2
  1

  9
$DIMSTYLE
  2
STANDARD
  9
$DIMCLRD
 70
     0
  9
$DIMCLRE
 70
     0
  9
$DIMCLRT
 70
     0
  9
$DIMTFAC
 40
1.0
  9
$DIMGAP
 40
0.09
  9
$DIMJUST
 70
     0
  9
$DIMSD1
 70
     0
  9
$DIMSD2
 70
     0
  9
$DIMTOLJ
 70
     1
  9
$DIMTZIN
 70
     0
  9
$DIMALTZ
 70
     0
  9
$DIMALTTZ
 70
     0
  9
$DIMFIT
 70
     3
  9
$DIMUPT
 70
     0
  9
$DIMUNIT
 70
     2
  9
$DIMDEC
 70
     4
  9
$DIMTDEC
 70
     4
  9
$DIMALTU
 70
     2
  9
$DIMALTTD
 70
     2
  9
$DIMTXSTY
  7
STANDARD
  9
$DIMAUNIT
 70
     0
  9
$LUNITS
 70
     2
  9
$LUPREC
 70
     4
  9
$SKETCHINC
 40
0.1
  9
$FILLETRAD
 40
0.5
  9
$AUNITS
 70
     0
  9
$AUPREC
 70
     0
  9
$MENU
  1
.
  9
$ELEVATION
 40
0.0
  9
$PELEVATION
 40
0.0
  9
$THICKNESS
 40
0.0
  9
$LIMCHECK
 70
     0
  9
$BLIPMODE
 70
     0
  9
$CHAMFERA
 40
0.5
  9
$CHAMFERB
 40
0.5
  9
$CHAMFERC
 40
1.0
  9
$CHAMFERD
 40
0.0
  9
$SKPOLY
 70
     0
  9
$TDCREATE
 40
2454077.562222199
  9
$TDUPDATE
 40
2454272.6220948957
  9
$TDINDWG
 40
0.009363425926
  9
$TDUSRTIMER
 40
0.009363425926
  9
$USRTIMER
 70
     1
  9
$ANGBASE
 50
0.0
  9
$ANGDIR
 70
     0
  9
$PDMODE
 70
    35
  9
$PDSIZE
 40
5.0
  9
$PLINEWID
 40
0.0
  9
$COORDS
 70
     1
  9
$SPLFRAME
 70
     0
  9
$SPLINETYPE
 70
     6
  9
$SPLINESEGS
 70
     8
  9
$ATTDIA
 70
     0
  9
$ATTREQ
 70
     1
  9
$HANDLING
 70
     1
  9
$HANDSEED
  5
FDAC069427702BEC
  9
$SURFTAB1
 70
     6
  9
$SURFTAB2
 70
     6
  9
$SURFTYPE
 70
     6
  9
$SURFU
 70
     6
  9
$SURFV
 70
     6
  9
$UCSNAME
  2

  9
$UCSORG
 10
0.0
 20
0.0
 30
0.0
  9
$UCSXDIR
 10
1.0
 20
0.0
 30
0.0
  9
$UCSYDIR
 10
0.0
 20
1.0
 30
0.0
  9
$PUCSNAME
  2

  9
$PUCSORG
 10
0.0
 20
0.0
 30
0.0
  9
$PUCSXDIR
 10
1.0
 20
0.0
 30
0.0
  9
$PUCSYDIR
 10
0.0
 20
1.0
 30
0.0
  9
$USERI1
 70
     0
  9
$USERI2
 70
     0
  9
$USERI3
 70
     0
  9
$USERI4
 70
     0
  9
$USERI5
 70
     0
  9
$USERR1
 40
0.0
  9
$USERR2
 40
0.0
  9
$USERR3
 40
0.0
  9
$USERR4
 40
0.0
  9
$USERR5
 40
0.0
  9
$WORLDVIEW
 70
     1
  9
$SHADEDGE
 70
     3
  9
$SHADEDIF
 70
    70
  9
$TILEMODE
 70
     1
  9
$MAXACTVP
 70
    48
  9
$PINSBASE
 10
0.0
 20
0.0
 30
0.0
  9
$PLIMCHECK
 70
     0
  9
$PEXTMIN
 10
1.000000E+020
 20
1.000000E+020
 30
1.000000E+020
  9
$PEXTMAX
 10
-1.000000E+020
 20
-1.000000E+020
 30
-1.000000E+020
  9
$PLIMMIN
 10
0.0
 20
0.0
  9
$PLIMMAX
 10
12.0
 20
9.0
  9
$UNITMODE
 70
     0
  9
$VISRETAIN
 70
     1
  9
$PLINEGEN
 70
     0
  9
$PSLTSCALE
 70
     1
  9
$TREEDEPTH
 70
  3020
  9
$PICKSTYLE
 70
     1
  9
$CMLSTYLE
  2
STANDARD
  9
$CMLJUST
 70
     0
  9
$CMLSCALE
 40
1.0
  9
$PROXYGRAPHICS
 70
     1
  9
$MEASUREMENT
 70
     0
  0
ENDSEC
  0
SECTION
  2
CLASSES
  0
CLASS
  1
LWPOLYLINE
  2
AcDbPolyline
  3
"AutoCAD"
 90
        0
280
     0
281
     1
  0
CLASS
  1
IMAGE
  2
AcDbRasterImage
  3
ISM
 90
      127
280
     0
281
     1
  0
CLASS
  1
RASTERVARIABLES
  2
AcDbRasterVariables
  3
ISM
 90
        0
280
     0
281
     0
  0
CLASS
  1
IMAGEDEF
  2
AcDbRasterImageDef
  3
ISM
 90
        0
280
     0
281
     0
  0
CLASS
  1
IMAGEDEF_REACTOR
  2
AcDbRasterImageDefReactor
  3
ISM
 90
        1
280
     0
281
     0
  0
ENDSEC
  0
SECTION
  2
TABLES
  0
TABLE
  2
VPORT
  5
8
100
AcDbSymbolTable
 70
     1
  0
VPORT
  5
37
100
AcDbSymbolTableRecord
100
AcDbViewportTableRecord
  2
*ACTIVE
 70
     0
 10
0.0
 20
0.0
 11
1.0
 21
1.0
 12
502.816426
 22
-500.815556
 13
0.0
 23
0.0
 14
1.0
 24
1.0
 15
1.0
 25
1.0
 16
0.0
 26
0.0
 36
1.0
 17
0.0
 27
0.0
 37
0.0
 40
2082.070366
 41
1.797633
 42
50.0
 43
0.0
 44
0.0
 50
0.0
 51
0.0
 71
     0
 72
   100
 73
     1
 74
     1
 75
     1
 76
     1
 77
     0
 78
     0
  0
ENDTAB
  0
TABLE
  2
LTYPE
  5
5
100
AcDbSymbolTable
 70
     2
  0
LTYPE
  5
12
100
AcDbSymbolTableRecord
100
AcDbLinetypeTableRecord
  2
BYBLOCK
 70
     0
  3

 72
    65
 73
     0
 40
0.0
  0
LTYPE
  5
13
100
AcDbSymbolTableRecord
100
AcDbLinetypeTableRecord
  2
BYLAYER
 70
     0
  3

 72
    65
 73
     0
 40
0.0
  0
LTYPE
  5
14
100
AcDbSymbolTableRecord
100
AcDbLinetypeTableRecord
  2
CONTINUOUS
 70
     0
  3
Solid line
 72
    65
 73
     0
 40
0.0
  0
LTYPE
  5
2A422EFD12C
100
AcDbSymbolTableRecord
100
AcDbLinetypeTableRecord
  2
DETAIL_1
 70
     0
  3
Solid line
 72
    65
 73
     2
 40
6.0
 49
5.0
 74
     0
 49
-1.0
 74
     0
  0
ENDTAB
  0
TABLE
  2
LAYER
  5
2
100
AcDbSymbolTable
 70
     6
  0
LAYER
  5
E
100
AcDbSymbolTableRecord
100
AcDbLayerTableRecord
  2
DETAIL_HIGH
 70
     0
 62
   101
  6
CONTINUOUS
  0
LAYER
  5
541
100
AcDbSymbolTableRecord
100
AcDbLayerTableRecord
  2
COMMENT
 70
     0
 62
   254
  6
CONTINUOUS
  0
LAYER
  5
1DAE4
100
AcDbSymbolTableRecord
100
AcDbLayerTableRecord
  2
DETAIL_MEDIUM
 70
     0
 62
   182
  6
CONTINUOUS
  0
LAYER
  5
15543B5
100
AcDbSymbolTableRecord
100
AcDbLayerTableRecord
  2
DETAIL_LOWEST
 70
     0
 62
   143
  6
CONTINUOUS
  0
LAYER
  5
DF2FB97E2E1C53EE
100
AcDbSymbolTableRecord
100
AcDbLayerTableRecord
  2
PORTS
 70
     0
 62
   188
  6
CONTINUOUS
  0
LAYER
  5
DF2FCAEAB671269E
100
AcDbSymbolTableRecord
100
AcDbLayerTableRecord
  2
NON_DDR
 70
     0
 62
   240
  6
CONTINUOUS
  0
ENDTAB
  0
TABLE
  2
STYLE
  5
3
100
AcDbSymbolTable
 70
     8
  0
STYLE
  5
F
100
AcDbSymbolTableRecord
100
AcDbTextStyleTableRecord
  2
STANDARD
 70
     0
 40
0.0
 41
1.0
 50
0.0
 71
     0
 42
0.2
  3
txt.shx
  4

  0
STYLE
  5
21
100
AcDbSymbolTableRecord
100
AcDbTextStyleTableRecord
  2
COMPLEX
 70
     0
 40
0.0
 41
1.0
 50
0.0
 71
     0
 42
0.2
  3
complex
  4

  0
STYLE
  5
22
100
AcDbSymbolTableRecord
100
AcDbTextStyleTableRecord
  2
ITALIC
 70
     0
 40
0.0
 41
1.0
 50
0.0
 71
     0
 42
0.2
  3
italic
  4

  0
STYLE
  5
23
100
AcDbSymbolTableRecord
100
AcDbTextStyleTableRecord
  2
ROMANC
 70
     0
 40
0.0
 41
1.0
 50
0.0
 71
     0
 42
0.2
  3
romanc
  4

  0
STYLE
  5
24
100
AcDbSymbolTableRecord
100
AcDbTextStyleTableRecord
  2
SIMPLEX
 70
     0
 40
0.0
 41
1.0
 50
0.0
 71
     0
 42
0.2
  3
simplex
  4

  0
STYLE
  5
34
100
AcDbSymbolTableRecord
100
AcDbTextStyleTableRecord
  2

 70
     1
 40
0.0
 41
1.0
 50
0.0
 71
     0
 42
0.2
  3
ltypeshp.shx
  4

  0
STYLE
  5
38
100
AcDbSymbolTableRecord
100
AcDbTextStyleTableRecord
  2
ARIAL
 70
     0
 40
0.0
 41
1.0
 50
0.0
 71
     0
 42
0.2
  3

  4

1001
ACAD
1000
Arial
1071
       34
  0
STYLE
  5
39
100
AcDbSymbolTableRecord
100
AcDbTextStyleTableRecord
  2
TIMES_NEW_ROMAN
 70
     0
 40
0.0
 41
1.0
 50
0.0
 71
     0
 42
0.2
  3

  4

1001
ACAD
1000
Times New Roman
1071
       18
  0
ENDTAB
  0
TABLE
  2
VIEW
  5
6
100
AcDbSymbolTable
 70
     0
  0
ENDTAB
  0
TABLE
  2
UCS
  5
7
100
AcDbSymbolTable
 70
     0
  0
ENDTAB
  0
TABLE
  2
APPID
  5
9
100
AcDbSymbolTable
 70
     1
  0
APPID
  5
10
100
AcDbSymbolTableRecord
100
AcDbRegAppTableRecord
  2
ACAD
 70
     0
  0
ENDTAB
  0
TABLE
  2
DIMSTYLE
  5
A
100
AcDbSymbolTable
 70
     1
  0
DIMSTYLE
105
1D
100
AcDbSymbolTableRecord
100
AcDbDimStyleTableRecord
  2
STANDARD
 70
     0
  3

  4

  5

  6

  7

 40
1.0
 41
0.18
 42
0.0625
 43
0.38
 44
0.18
 45
0.0
 46
0.0
 47
0.0
 48
0.0
140
0.18
141
0.09
142
0.0
143
25.4
144
1.0
145
0.0
146
1.0
147
0.09
 71
     0
 72
     0
 73
     1
 74
     1
 75
     0
 76
     0
 77
     0
 78
     0
170
     0
171
     2
172
     0
173
     0
174
     0
175
     0
176
     0
177
     0
178
     0
270
     2
271
     4
272
     4
273
     2
274
     2
340
F
275
     0
280
     0
281
     0
282
     0
283
     1
284
     0
285
     0
286
     0
287
     3
288
     0
  0
ENDTAB
  0
TABLE
  2
BLOCK_RECORD
  5
1
100
AcDbSymbolTable
 70
   114
  0
BLOCK_RECORD
  5
18
100
AcDbSymbolTableRecord
100
AcDbBlockTableRecord
  2
*MODEL_SPACE
  0
BLOCK_RECORD
  5
15
100
AcDbSymbolTableRecord
100
AcDbBlockTableRecord
  2
*PAPER_SPACE
  0
BLOCK_RECORD
  5
DF3414A0433263D2
100
AcDbSymbolTableRecord
100
AcDbBlockTableRecord
  2
IO_YGR_REG_ASYNC
  0
BLOCK_RECORD
  5
DF3414A0433263D3
100
AcDbSymbolTableRecord
100
AcDbBlockTableRecord
  2
IO_YGR_REGISTER
  0
BLOCK_RECORD
  5
DF3414A04339CFA4
100
AcDbSymbolTableRecord
100
AcDbBlockTableRecord
  2
IO_YGR_DELAY_CHAIN
  0
BLOCK_RECORD
  5
DF3414A0433D859C
100
AcDbSymbolTableRecord
100
AcDbBlockTableRecord
  2
IO_YGR_OE
  0
BLOCK_RECORD
  5
DF3414A0433D85CA
100
AcDbSymbolTableRecord
100
AcDbBlockTableRecord
  2
IO_YGR_CLKOUT
  0
BLOCK_RECORD
  5
DF3414A0433D85D0
100
AcDbSymbolTableRecord
100
AcDbBlockTableRecord
  2
IO_YGR_DDR_CLKOUT
  0
BLOCK_RECORD
  5
DF3414A0433D85D4
100
AcDbSymbolTableRecord
100
AcDbBlockTableRecord
  2
IO_YGR_REG_0_BYPASS
  0
BLOCK_RECORD
  5
DF3414A0433D85D8
100
AcDbSymbolTableRecord
100
AcDbBlockTableRecord
  2
IO_YGR_CEOUT
  0
BLOCK_RECORD
  5
DF3414A0433D85DE
100
AcDbSymbolTableRecord
100
AcDbBlockTableRecord
  2
IO_YGR_REG_0_EN
  0
BLOCK_RECORD
  5
DF3414A0433D85E2
100
AcDbSymbolTableRecord
100
AcDbBlockTableRecord
  2
IO_YGR_REG_1_EN
  0
BLOCK_RECORD
  5
DF3414A0433D85E9
100
AcDbSymbolTableRecord
100
AcDbBlockTableRecord
  2
IO_YGR_REG_0_ACLR
  0
BLOCK_RECORD
  5
DF3414A0433D85ED
100
AcDbSymbolTableRecord
100
AcDbBlockTableRecord
  2
IO_YGR_REG_1_ACLR
  0
BLOCK_RECORD
  5
DF3414A0433D85F4
100
AcDbSymbolTableRecord
100
AcDbBlockTableRecord
  2
IO_YGR_REG_2_ACLR
  0
BLOCK_RECORD
  5
DF3414A0433D8602
100
AcDbSymbolTableRecord
100
AcDbBlockTableRecord
  2
IO_YGR_REG_3_ON_ACLR
  0
BLOCK_RECORD
  5
DF3414A0433D8606
100
AcDbSymbolTableRecord
100
AcDbBlockTableRecord
  2
IO_YGR_REG_3_ACLR
  0
BLOCK_RECORD
  5
DF3414A0433D8615
100
AcDbSymbolTableRecord
100
AcDbBlockTableRecord
  2
IO_YGR_REG_4_ACLR
  0
BLOCK_RECORD
  5
DF3414A0433D8619
100
AcDbSymbolTableRecord
100
AcDbBlockTableRecord
  2
IO_YGR_REG_56_ACLR
  0
BLOCK_RECORD
  5
DF3414A0433D8621
100
AcDbSymbolTableRecord
100
AcDbBlockTableRecord
  2
IO_YGR_REG_0_SCLR
  0
BLOCK_RECORD
  5
DF3414A0433D8628
100
AcDbSymbolTableRecord
100
AcDbBlockTableRecord
  2
IO_YGR_REG_24_OR_5_SCLR
  0
BLOCK_RECORD
  5
DF3414A0433D862C
100
AcDbSymbolTableRecord
100
AcDbBlockTableRecord
  2
IO_YGR_REG_2_SCLR
  0
BLOCK_RECORD
  5
DF3414A0433D8630
100
AcDbSymbolTableRecord
100
AcDbBlockTableRecord
  2
IO_YGR_REG_4_SCLR
  0
BLOCK_RECORD
  5
DF3414A0433D8634
100
AcDbSymbolTableRecord
100
AcDbBlockTableRecord
  2
IO_YGR_REG_5_SCLR
  0
BLOCK_RECORD
  5
DF3414A0433D8638
100
AcDbSymbolTableRecord
100
AcDbBlockTableRecord
  2
IO_YGR_REG_3_SCLR
  0
BLOCK_RECORD
  5
DF3414A0433D863C
100
AcDbSymbolTableRecord
100
AcDbBlockTableRecord
  2
IO_YGR_REG_2_EN
  0
BLOCK_RECORD
  5
DF3414A0433D8640
100
AcDbSymbolTableRecord
100
AcDbBlockTableRecord
  2
IO_YGR_REG_3_EN
  0
BLOCK_RECORD
  5
DF3414A0433D8644
100
AcDbSymbolTableRecord
100
AcDbBlockTableRecord
  2
IO_YGR_DIN_0
  0
BLOCK_RECORD
  5
DF3414A0433D864A
100
AcDbSymbolTableRecord
100
AcDbBlockTableRecord
  2
IO_YGR_DIN_1
  0
BLOCK_RECORD
  5
DF3414A0433D8650
100
AcDbSymbolTableRecord
100
AcDbBlockTableRecord
  2
IO_YGR_REG_2_BYPASS
  0
BLOCK_RECORD
  5
DF3414A0433D86D6
100
AcDbSymbolTableRecord
100
AcDbBlockTableRecord
  2
IO_YGR_REG_2_USED
  0
BLOCK_RECORD
  5
DF3414A0433D86DD
100
AcDbSymbolTableRecord
100
AcDbBlockTableRecord
  2
IO_YGR_BUFFER
  0
BLOCK_RECORD
  5
DF3414A0433D86E1
100
AcDbSymbolTableRecord
100
AcDbBlockTableRecord
  2
IO_YGR_PAD
  0
BLOCK_RECORD
  5
DF3414A0433D86E9
100
AcDbSymbolTableRecord
100
AcDbBlockTableRecord
  2
IO_YGR_REGOUT_4_USED
  0
BLOCK_RECORD
  5
DF3414A0433D86FC
100
AcDbSymbolTableRecord
100
AcDbBlockTableRecord
  2
IO_YGR_REGOUT_5_USED
  0
BLOCK_RECORD
  5
DF3414A0433D8700
100
AcDbSymbolTableRecord
100
AcDbBlockTableRecord
  2
IO_YGR_REG_4_CE_IN
  0
BLOCK_RECORD
  5
DF3414A0433D8706
100
AcDbSymbolTableRecord
100
AcDbBlockTableRecord
  2
IO_YGR_REG_5_CE_IN
  0
BLOCK_RECORD
  5
DF3414A0433D870D
100
AcDbSymbolTableRecord
100
AcDbBlockTableRecord
  2
IO_YGR_CLK_IN
  0
BLOCK_RECORD
  5
DF3414A0433D8713
100
AcDbSymbolTableRecord
100
AcDbBlockTableRecord
  2
IO_YGR_REG_5_CLK_IN
  0
BLOCK_RECORD
  5
DF3414A0433D8717
100
AcDbSymbolTableRecord
100
AcDbBlockTableRecord
  2
IO_YGR_DATAIN_1
  0
BLOCK_RECORD
  5
DF3414A0433D871D
100
AcDbSymbolTableRecord
100
AcDbBlockTableRecord
  2
IO_YGR_DATAIN_0
  0
BLOCK_RECORD
  5
DF3414A0433D8723
100
AcDbSymbolTableRecord
100
AcDbBlockTableRecord
  2
IO_YGR_DELAY_DATAIN0_USED
  0
BLOCK_RECORD
  5
DF3414A0433D8727
100
AcDbSymbolTableRecord
100
AcDbBlockTableRecord
  2
IO_YGR_DELAY_DATAIN1_USED
  0
BLOCK_RECORD
  5
DF3414A0433D872B
100
AcDbSymbolTableRecord
100
AcDbBlockTableRecord
  2
IO_YGR_DELAY_DATAIN0_OR_1_USED
  0
BLOCK_RECORD
  5
DF3414A0433D8824
100
AcDbSymbolTableRecord
100
AcDbBlockTableRecord
  2
IO_YGR_REG_1_USED
  0
BLOCK_RECORD
  5
DF3414A0433D8828
100
AcDbSymbolTableRecord
100
AcDbBlockTableRecord
  2
IO_YGR_ACLR
  0
BLOCK_RECORD
  5
DF3414A0433D882E
100
AcDbSymbolTableRecord
100
AcDbBlockTableRecord
  2
IO_YGR_SCLR
  0
BLOCK_RECORD
  5
DF3414A0433D8834
100
AcDbSymbolTableRecord
100
AcDbBlockTableRecord
  2
IO_YGR_REG_0_USED
  0
BLOCK_RECORD
  5
DF3414A0433D8843
100
AcDbSymbolTableRecord
100
AcDbBlockTableRecord
  2
IO_YGR_CE_MUX
  0
BLOCK_RECORD
  5
DF3414A0433D8847
100
AcDbSymbolTableRecord
100
AcDbBlockTableRecord
  2
IO_YGR_CE_PATH_USED
  0
BLOCK_RECORD
  5
DF3414A0433D8851
100
AcDbSymbolTableRecord
100
AcDbBlockTableRecord
  2
IO_YGR_CE_PATH_GND
  0
BLOCK_RECORD
  5
DF3414A0433D8855
100
AcDbSymbolTableRecord
100
AcDbBlockTableRecord
  2
IO_YGR_CE_PATH_VCC
  0
BLOCK_RECORD
  5
DF3414A0433D8859
100
AcDbSymbolTableRecord
100
AcDbBlockTableRecord
  2
IO_YGR_CE_PATH_NOT_INVERTED
  0
BLOCK_RECORD
  5
DF3414A0433D885D
100
AcDbSymbolTableRecord
100
AcDbBlockTableRecord
  2
IO_YGR_CE_PATH_INVERTED
  0
BLOCK_RECORD
  5
DF3414A0433D8861
100
AcDbSymbolTableRecord
100
AcDbBlockTableRecord
  2
IO_YGR
  0
BLOCK_RECORD
  5
DF3414A0433D88EB
100
AcDbSymbolTableRecord
100
AcDbBlockTableRecord
  2
IO_YGR_LATCH
  0
BLOCK_RECORD
  5
DF3414A0528C98B3
100
AcDbSymbolTableRecord
100
AcDbBlockTableRecord
  2
IO_YGR_REGOUT_TO_DATAIN_0
  0
BLOCK_RECORD
  5
DF3414A0528C98BA
100
AcDbSymbolTableRecord
100
AcDbBlockTableRecord
  2
IO_YGR_REGOUT_TO_DATAIN_1
  0
BLOCK_RECORD
  5
DF3414A3E914C0E5
100
AcDbSymbolTableRecord
100
AcDbBlockTableRecord
  2
IO_YGR_CLK_IN_WIRE1
  0
BLOCK_RECORD
  5
DF3414A3E914C0E9
100
AcDbSymbolTableRecord
100
AcDbBlockTableRecord
  2
IO_YGR_CLK_IN_WIRE2
  0
BLOCK_RECORD
  5
DF3414A78E6AFC7F
100
AcDbSymbolTableRecord
100
AcDbBlockTableRecord
  2
IO_YGR_REG_4_CE_IN_WIRE1
  0
BLOCK_RECORD
  5
DF3414A78E6AFC83
100
AcDbSymbolTableRecord
100
AcDbBlockTableRecord
  2
IO_YGR_REG_4_CE_IN_WIRE2
  0
BLOCK_RECORD
  5
DF3414AD06ACD5AA
100
AcDbSymbolTableRecord
100
AcDbBlockTableRecord
  2
IO_YGR_REGOUT_4_USED_WIRE1
  0
BLOCK_RECORD
  5
DF3414AD06ACD5AE
100
AcDbSymbolTableRecord
100
AcDbBlockTableRecord
  2
IO_YGR_REGOUT_4_USED_WIRE2
  0
BLOCK_RECORD
  5
DF3414B9AB7E00E5
100
AcDbSymbolTableRecord
100
AcDbBlockTableRecord
  2
IO_YGR_REGOUT_5_USED_WIRE
  0
BLOCK_RECORD
  5
DF34159D60D12E8F
100
AcDbSymbolTableRecord
100
AcDbBlockTableRecord
  2
IO_YGR_DATAIN_0_MUX
  0
BLOCK_RECORD
  5
DF3417648E3B4377
100
AcDbSymbolTableRecord
100
AcDbBlockTableRecord
  2
IO_YGR_DATAIN_1_MUX
  0
BLOCK_RECORD
  5
DF341A28D93901F1
100
AcDbSymbolTableRecord
100
AcDbBlockTableRecord
  2
IO_YGR_REG_4_ACLR_WIRE
  0
BLOCK_RECORD
  5
DF341FB16F347DBF
100
AcDbSymbolTableRecord
100
AcDbBlockTableRecord
  2
IO_YGR_REG_4_SCLR_WIRE
  0
BLOCK_RECORD
  5
DF342AC29B2B7709
100
AcDbSymbolTableRecord
100
AcDbBlockTableRecord
  2
IO_YGR_OE_WIRE1
  0
BLOCK_RECORD
  5
DF342AC29B2B770D
100
AcDbSymbolTableRecord
100
AcDbBlockTableRecord
  2
IO_YGR_OE_WIRE2
  0
BLOCK_RECORD
  5
DF3440E4F31965F9
100
AcDbSymbolTableRecord
100
AcDbBlockTableRecord
  2
IO_YGR_REG_0_USED_OR_GATE
  0
BLOCK_RECORD
  5
DF346D29A2B4C5DC
100
AcDbSymbolTableRecord
100
AcDbBlockTableRecord
  2
IO_YGR_CE_PATH_USED_MUX
  0
BLOCK_RECORD
  5
DF34C5B3021A9DEF
100
AcDbSymbolTableRecord
100
AcDbBlockTableRecord
  2
IO_YGR_BUFFER_MUX
  0
BLOCK_RECORD
  5
DF3576C5C0F7B634
100
AcDbSymbolTableRecord
100
AcDbBlockTableRecord
  2
IO_YGR_CLKOUT_WIRE1
  0
BLOCK_RECORD
  5
DF3576C5C0F7B638
100
AcDbSymbolTableRecord
100
AcDbBlockTableRecord
  2
IO_YGR_CLKOUT_WIRE2
  0
BLOCK_RECORD
  5
DF3576C5C0F7B63C
100
AcDbSymbolTableRecord
100
AcDbBlockTableRecord
  2
IO_YGR_CLKOUT_WIRE3
  0
BLOCK_RECORD
  5
DF3576C5C0F7B640
100
AcDbSymbolTableRecord
100
AcDbBlockTableRecord
  2
IO_YGR_CLKOUT_WIRE4
  0
BLOCK_RECORD
  5
DF3576C5C0F7B644
100
AcDbSymbolTableRecord
100
AcDbBlockTableRecord
  2
IO_YGR_CLKOUT_WIRE5
  0
BLOCK_RECORD
  5
DF36D8EB3EB1E7E8
100
AcDbSymbolTableRecord
100
AcDbBlockTableRecord
  2
IO_YGR_DDR_CLKOUT2
  0
BLOCK_RECORD
  5
DF399D3639244AB3
100
AcDbSymbolTableRecord
100
AcDbBlockTableRecord
  2
IO_YGR_CEOUT_WIRE1
  0
BLOCK_RECORD
  5
DF399D3639244AB9
100
AcDbSymbolTableRecord
100
AcDbBlockTableRecord
  2
IO_YGR_CEOUT_WIRE2
  0
BLOCK_RECORD
  5
DF399D3639244ABD
100
AcDbSymbolTableRecord
100
AcDbBlockTableRecord
  2
IO_YGR_CEOUT_WIRE3
  0
BLOCK_RECORD
  5
DF399D3639244AC3
100
AcDbSymbolTableRecord
100
AcDbBlockTableRecord
  2
IO_YGR_CEOUT_WIRE4
  0
BLOCK_RECORD
  5
DF60594FF273AA4E
100
AcDbSymbolTableRecord
100
AcDbBlockTableRecord
  2
IO_YGR_SCLR_WIRE1
  0
BLOCK_RECORD
  5
DF8C9DFFA1A9CE81
100
AcDbSymbolTableRecord
100
AcDbBlockTableRecord
  2
IO_YGR_SCLR_WIRE2
  0
BLOCK_RECORD
  5
DFE5275F001614F2
100
AcDbSymbolTableRecord
100
AcDbBlockTableRecord
  2
IO_YGR_ACLR_WIRE1
  0
BLOCK_RECORD
  5
E0963A1DBCEEA3FE
100
AcDbSymbolTableRecord
100
AcDbBlockTableRecord
  2
IO_YGR_ACLR_WIRE2
  0
BLOCK_RECORD
  5
E0963A1DBCEEA402
100
AcDbSymbolTableRecord
100
AcDbBlockTableRecord
  2
IO_YGR_ACLR_POINT1
  0
BLOCK_RECORD
  5
E1F85F9B369F26FF
100
AcDbSymbolTableRecord
100
AcDbBlockTableRecord
  2
IO_YGR_DIN_0_WIRE1
  0
BLOCK_RECORD
  5
E4BCAA9538E37011
100
AcDbSymbolTableRecord
100
AcDbBlockTableRecord
  2
IO_YGR_DIN_0_WIRE2
  0
BLOCK_RECORD
  5
E4BCAA9538E37031
100
AcDbSymbolTableRecord
100
AcDbBlockTableRecord
  2
IO_YGR_REG_2_USED_WIRE
  0
BLOCK_RECORD
  5
EA45408A26E1D12E
100
AcDbSymbolTableRecord
100
AcDbBlockTableRecord
  2
IO_YGR_DIN_1_WIRE1
  0
BLOCK_RECORD
  5
EA45408A26E1D132
100
AcDbSymbolTableRecord
100
AcDbBlockTableRecord
  2
IO_YGR_DIN_1_WIRE2
  0
BLOCK_RECORD
  5
F555BB614BA90954
100
AcDbSymbolTableRecord
100
AcDbBlockTableRecord
  2
IO_YGR_DELAY_DATAIN0_OR_REG
  0
BLOCK_RECORD
  5
F555BB614BA90E19
100
AcDbSymbolTableRecord
100
AcDbBlockTableRecord
  2
IO_YGR_DQS_CLK_WIRE
  0
BLOCK_RECORD
  5
F555BB614BA90ECA
100
AcDbSymbolTableRecord
100
AcDbBlockTableRecord
  2
IO_YGR_BYPASS_DELAY_CHAIN_WIRE
  0
BLOCK_RECORD
  5
F555BB614BA90ECB
100
AcDbSymbolTableRecord
100
AcDbBlockTableRecord
  2
IO_YGR_COMBOUT
  0
BLOCK_RECORD
  5
FDAC06942700644D
100
AcDbSymbolTableRecord
100
AcDbBlockTableRecord
  2
IO_YGR_REG_1_USED_SEL_OE
  0
BLOCK_RECORD
  5
FDAC069427006451
100
AcDbSymbolTableRecord
100
AcDbBlockTableRecord
  2
IO_YGR_REG_1_USED_SEL_GND
  0
BLOCK_RECORD
  5
FDAC06942712F46F
100
AcDbSymbolTableRecord
100
AcDbBlockTableRecord
  2
IO_YGR_DQS_LOGIC
  0
BLOCK_RECORD
  5
FDAC06942712F473
100
AcDbSymbolTableRecord
100
AcDbBlockTableRecord
  2
IO_YGR_DQS_BUS_OUT
  0
BLOCK_RECORD
  5
FDAC06942712F47A
100
AcDbSymbolTableRecord
100
AcDbBlockTableRecord
  2
IO_YGR_DQS_UPDATE_ENABLE
  0
BLOCK_RECORD
  5
FDAC06942712F480
100
AcDbSymbolTableRecord
100
AcDbBlockTableRecord
  2
IO_YGR_DQS_UPDATE_ENABLE_WIRE
  0
BLOCK_RECORD
  5
FDAC06942712F484
100
AcDbSymbolTableRecord
100
AcDbBlockTableRecord
  2
IO_YGR_PHASE_IN_PORT
  0
BLOCK_RECORD
  5
FDAC06942712F48A
100
AcDbSymbolTableRecord
100
AcDbBlockTableRecord
  2
IO_YGR_PHASE_IN_WIRE
  0
BLOCK_RECORD
  5
FDAC06942712F48E
100
AcDbSymbolTableRecord
100
AcDbBlockTableRecord
  2
IO_YGR_DQS_SETTING_PORT
  0
BLOCK_RECORD
  5
FDAC06942712F494
100
AcDbSymbolTableRecord
100
AcDbBlockTableRecord
  2
IO_YGR_DQS_SETTING_WIRE
  0
BLOCK_RECORD
  5
FDAC06942716B3E1
100
AcDbSymbolTableRecord
100
AcDbBlockTableRecord
  2
IO_YGR_ON_CHIP_TERMINATION
  0
BLOCK_RECORD
  5
FDAC06942716B3E5
100
AcDbSymbolTableRecord
100
AcDbBlockTableRecord
  2
IO_YGR_CONTROL_IN_PORT
  0
BLOCK_RECORD
  5
FDAC0694277026EC
100
AcDbSymbolTableRecord
100
AcDbBlockTableRecord
  2
IO_YGR_DQS_CLK_TO_REG_5_WIRE
  0
BLOCK_RECORD
  5
FDAC0694277026F0
100
AcDbSymbolTableRecord
100
AcDbBlockTableRecord
  2
IO_YGR_DQS_CLK_WIRE2
  0
BLOCK_RECORD
  5
FDAC0694277026F4
100
AcDbSymbolTableRecord
100
AcDbBlockTableRecord
  2
IO_YGR_DQS_CLK_TO_LATCH
  0
BLOCK_RECORD
  5
FDAC0694277026F8
100
AcDbSymbolTableRecord
100
AcDbBlockTableRecord
  2
IO_YGR_DQS_CLK_TO_REG_4_WIRE
  0
BLOCK_RECORD
  5
FDAC069427702966
100
AcDbSymbolTableRecord
100
AcDbBlockTableRecord
  2
IO_YGR_BYPASS_LOGIC_DELAY_WIRE
  0
BLOCK_RECORD
  5
FDAC06942770296C
100
AcDbSymbolTableRecord
100
AcDbBlockTableRecord
  2
IO_YGR_BYPASS_IN_REG_DELAY_WIRE
  0
ENDTAB
  0
ENDSEC
  0
SECTION
  2
BLOCKS
  0
BLOCK
  5
19
100
AcDbEntity
  8
DETAIL_HIGH
100
AcDbBlockBegin
  2
*MODEL_SPACE
 70
     0
 10
0.0
 20
0.0
 30
0.0
  3
*MODEL_SPACE
  1

  0
ENDBLK
  5
1A
100
AcDbEntity
  8
DETAIL_HIGH
100
AcDbBlockEnd
  0
BLOCK
  5
16
100
AcDbEntity
 67
     1
  8
DETAIL_HIGH
100
AcDbBlockBegin
  2
*PAPER_SPACE
 70
     0
 10
0.0
 20
0.0
 30
0.0
  3
*PAPER_SPACE
  1

  0
ENDBLK
  5
17
100
AcDbEntity
 67
     1
  8
DETAIL_HIGH
100
AcDbBlockEnd
  0
BLOCK
  5
BE6829408664C7C0
100
AcDbEntity
  8
DETAIL_MEDIUM
  6
CONTINUOUS
100
AcDbBlockBegin
  2
IO_YGR_REG_ASYNC
 70
     0
 10
430.0
 20
-150.0
 30
0.0
  3
IO_YGR_REG_ASYNC
  1

  0
POLYLINE
  5
BE6829408664C799
100
AcDbEntity
  8
DETAIL_MEDIUM
  6
CONTINUOUS
100
AcDb2dPolyline
 66
     1
 10
0.0
 20
0.0
 30
0.0
 70
     1
  0
VERTEX
  5
DF3414A0433D88F6
100
AcDbEntity
  8
DETAIL_MEDIUM
  6
CONTINUOUS
100
AcDbVertex
100
AcDb2dVertex
 10
430.0
 20
-130.0
 30
0.0
  0
VERTEX
  5
DF3414A0433D88F7
100
AcDbEntity
  8
DETAIL_MEDIUM
  6
CONTINUOUS
100
AcDbVertex
100
AcDb2dVertex
 10
450.0
 20
-130.0
 30
0.0
  0
VERTEX
  5
DF3414A0433D88F8
100
AcDbEntity
  8
DETAIL_MEDIUM
  6
CONTINUOUS
100
AcDbVertex
100
AcDb2dVertex
 10
450.0
 20
-150.0
 30
0.0
  0
VERTEX
  5
DF3414A0433D88F9
100
AcDbEntity
  8
DETAIL_MEDIUM
  6
CONTINUOUS
100
AcDbVertex
100
AcDb2dVertex
 10
430.0
 20
-150.0
 30
0.0
  0
SEQEND
  5
DF3414A0433D88FA
100
AcDbEntity
  8
DETAIL_MEDIUM
  6
CONTINUOUS
  0
TEXT
  5
BE6829408664C7B1
100
AcDbEntity
  8
DETAIL_HIGH
100
AcDbText
 10
437.5
 20
-142.5
 30
0.0
 40
10.0
  1
A
100
AcDbText
  0
ENDBLK
  5
BE6829408664C7C2
100
AcDbEntity
  8
DETAIL_MEDIUM
  6
CONTINUOUS
100
AcDbBlockEnd
  0
BLOCK
  5
BE6829408664C7D6
100
AcDbEntity
  8
DETAIL_MEDIUM
  6
CONTINUOUS
100
AcDbBlockBegin
  2
IO_YGR_REGISTER
 70
     2
 10
400.0
 20
-150.0
 30
0.0
  3
IO_YGR_REGISTER
  1

  0
TEXT
  5
BE6829408664C7CC
100
AcDbEntity
  8
DETAIL_HIGH
100
AcDbText
 10
407.5
 20
-42.5
 30
0.0
 40
10.0
  1
D
100
AcDbText
  0
INSERT
  5
BE6829408664C7CD
100
AcDbEntity
  8
DETAIL_MEDIUM
  6
CONTINUOUS
100
AcDbBlockReference
  2
IO_YGR_REG_ASYNC
 10
430.0
 20
-40.0
 30
0.0
  0
TEXT
  5
BE6829408664C7CE
100
AcDbEntity
  8
DETAIL_HIGH
100
AcDbText
 10
467.5
 20
-42.5
 30
0.0
 40
10.0
  1
Q
100
AcDbText
  0
LINE
  5
BE6829408664C7CF
100
AcDbEntity
  8
DETAIL_MEDIUM
100
AcDbLine
 39
2.0
 10
410.0
 20
-80.0
 30
0.0
 11
400.0
 21
-90.0
 31
0.0
  0
LINE
  5
BE6829408664C7D0
100
AcDbEntity
  8
DETAIL_MEDIUM
100
AcDbLine
 39
2.0
 10
400.0
 20
-70.0
 30
0.0
 11
410.0
 21
-80.0
 31
0.0
  0
TEXT
  5
BE6829408664C7D1
100
AcDbEntity
  8
DETAIL_HIGH
100
AcDbText
 10
405.0
 20
-122.5
 30
0.0
 40
10.0
  1
en
100
AcDbText
  0
INSERT
  5
BE6829408664C7D2
100
AcDbEntity
  8
DETAIL_MEDIUM
  6
CONTINUOUS
100
AcDbBlockReference
  2
IO_YGR_REG_ASYNC
 10
430.0
 20
-150.0
 30
0.0
  0
POLYLINE
  5
BE6829408664C7D3
100
AcDbEntity
  8
DETAIL_MEDIUM
  6
CONTINUOUS
100
AcDb2dPolyline
 66
     1
 10
0.0
 20
0.0
 30
0.0
 70
     1
  0
VERTEX
  5
DF3414A0433D88FB
100
AcDbEntity
  8
DETAIL_MEDIUM
  6
CONTINUOUS
100
AcDbVertex
100
AcDb2dVertex
 10
400.0
 20
-20.0
 30
0.0
  0
VERTEX
  5
DF3414A0433D88FC
100
AcDbEntity
  8
DETAIL_MEDIUM
  6
CONTINUOUS
100
AcDbVertex
100
AcDb2dVertex
 10
480.0
 20
-20.0
 30
0.0
  0
VERTEX
  5
DF3414A0433D88FD
100
AcDbEntity
  8
DETAIL_MEDIUM
  6
CONTINUOUS
100
AcDbVertex
100
AcDb2dVertex
 10
480.0
 20
-150.0
 30
0.0
  0
VERTEX
  5
DF3414A0433D88FE
100
AcDbEntity
  8
DETAIL_MEDIUM
  6
CONTINUOUS
100
AcDbVertex
100
AcDb2dVertex
 10
400.0
 20
-150.0
 30
0.0
  0
SEQEND
  5
DF3414A0433D88FF
100
AcDbEntity
  8
DETAIL_MEDIUM
  6
CONTINUOUS
  0
ATTDEF
  5
BE6829408664C7D4
100
AcDbEntity
  8
DETAIL_MEDIUM
  6
CONTINUOUS
100
AcDbText
 10
430.0
 20
-90.0
 30
0.0
 40
10.0
  1
0
  7
SIMPLEX
100
AcDbAttributeDefinition
  3

  2
index
 70
     0
  0
ENDBLK
  5
BE6829408664C7D7
100
AcDbEntity
  8
DETAIL_MEDIUM
  6
CONTINUOUS
100
AcDbBlockEnd
  0
BLOCK
  5
DF3414A0435DC5D6
100
AcDbEntity
  8
DETAIL_MEDIUM
  6
CONTINUOUS
100
AcDbBlockBegin
  2
IO_YGR_DELAY_CHAIN
 70
     2
 10
890.0
 20
-370.0
 30
0.0
  1

  0
POLYLINE
  5
DF3414A0435DC5C6
100
AcDbEntity
  8
DETAIL_MEDIUM
  6
CONTINUOUS
100
AcDb2dPolyline
 66
     1
 10
0.0
 20
0.0
 30
0.0
 70
     1
  0
VERTEX
  5
DF3414A0435DC5C7
100
AcDbEntity
  8
DETAIL_MEDIUM
  6
CONTINUOUS
100
AcDbVertex
100
AcDb2dVertex
 10
970.0
 20
-360.0
 30
0.0
  0
VERTEX
  5
DF3414A0435DC5C8
100
AcDbEntity
  8
DETAIL_MEDIUM
  6
CONTINUOUS
100
AcDbVertex
100
AcDb2dVertex
 10
890.0
 20
-360.0
 30
0.0
  0
VERTEX
  5
DF3414A0435DC5C9
100
AcDbEntity
  8
DETAIL_MEDIUM
  6
CONTINUOUS
100
AcDbVertex
100
AcDb2dVertex
 10
890.0
 20
-320.0
 30
0.0
  0
VERTEX
  5
DF3414A0435DC5CA
100
AcDbEntity
  8
DETAIL_MEDIUM
  6
CONTINUOUS
100
AcDbVertex
100
AcDb2dVertex
 10
970.0
 20
-320.0
 30
0.0
  0
SEQEND
  5
DF3414A0435DC5CB
100
AcDbEntity
  8
DETAIL_MEDIUM
  6
CONTINUOUS
  0
LINE
  5
DF3414A0435DC5CC
100
AcDbEntity
  8
DETAIL_HIGH
  6
CONTINUOUS
100
AcDbLine
 10
940.0
 20
-330.0
 30
0.0
 11
940.0
 21
-350.0
 31
0.0
  0
LINE
  5
DF3414A0435DC5CD
100
AcDbEntity
  8
DETAIL_HIGH
  6
CONTINUOUS
100
AcDbLine
 10
930.0
 20
-330.0
 30
0.0
 11
950.0
 21
-330.0
 31
0.0
  0
POLYLINE
  5
DF3414A0435DC5CE
100
AcDbEntity
  8
DETAIL_HIGH
  6
CONTINUOUS
100
AcDb2dPolyline
 66
     1
 10
0.0
 20
0.0
 30
0.0
  0
VERTEX
  5
DF3414A0435DC5CF
100
AcDbEntity
  8
DETAIL_HIGH
  6
CONTINUOUS
100
AcDbVertex
100
AcDb2dVertex
 10
910.0
 20
-350.0
 30
0.0
  0
VERTEX
  5
DF3414A0435DC5D0
100
AcDbEntity
  8
DETAIL_HIGH
  6
CONTINUOUS
100
AcDbVertex
100
AcDb2dVertex
 10
920.0
 20
-340.0
 30
0.0
  0
VERTEX
  5
DF3414A0435DC5D1
100
AcDbEntity
  8
DETAIL_HIGH
  6
CONTINUOUS
100
AcDbVertex
100
AcDb2dVertex
 10
930.0
 20
-350.0
 30
0.0
  0
VERTEX
  5
DF3414A0435DC5D2
100
AcDbEntity
  8
DETAIL_HIGH
  6
CONTINUOUS
100
AcDbVertex
100
AcDb2dVertex
 10
910.0
 20
-350.0
 30
0.0
  0
SEQEND
  5
DF3414A0435DC5D3
100
AcDbEntity
  8
DETAIL_HIGH
  6
CONTINUOUS
  0
ATTDEF
  5
DF3414A0435DC5D4
100
AcDbEntity
  8
DETAIL_MEDIUM
  6
CONTINUOUS
100
AcDbText
 10
960.0
 20
-360.0
 30
0.0
 40
10.0
  1

  7
SIMPLEX
100
AcDbAttributeDefinition
  3

  2
index
 70
     0
  0
ATTDEF
  5
DF3414A0435DC5D5
100
AcDbEntity
  8
DETAIL_MEDIUM
  6
CONTINUOUS
100
AcDbText
 10
900.0
 20
-370.0
 30
0.0
 40
10.0
  1

  7
SIMPLEX
100
AcDbAttributeDefinition
  3

  2
name
 70
     0
  0
ENDBLK
  5
DF3414A0435DC5D7
100
AcDbEntity
  8
DETAIL_MEDIUM
  6
CONTINUOUS
100
AcDbBlockEnd
  0
BLOCK
  5
DF342AC29B2B7700
100
AcDbEntity
  8
PORTS
  6
CONTINUOUS
100
AcDbBlockBegin
  2
IO_YGR_OE
 70
     2
 10
0.0
 20
0.0
 30
0.0
  1

  0
POLYLINE
  5
DF342AC29B2B76F5
100
AcDbEntity
  8
PORTS
  6
CONTINUOUS
100
AcDb2dPolyline
 66
     1
 10
0.0
 20
0.0
 30
0.0
 70
     1
  0
VERTEX
  5
DF342AC29B2B76F6
100
AcDbEntity
  8
PORTS
  6
CONTINUOUS
100
AcDbVertex
100
AcDb2dVertex
 10
90.0
 20
-90.0
 30
0.0
  0
VERTEX
  5
DF342AC29B2B76F7
100
AcDbEntity
  8
PORTS
  6
CONTINUOUS
100
AcDbVertex
100
AcDb2dVertex
 10
82.0
 20
-96.0
 30
0.0
  0
VERTEX
  5
DF342AC29B2B76F8
100
AcDbEntity
  8
PORTS
  6
CONTINUOUS
100
AcDbVertex
100
AcDb2dVertex
 10
10.0
 20
-96.0
 30
0.0
  0
VERTEX
  5
DF342AC29B2B76F9
100
AcDbEntity
  8
PORTS
  6
CONTINUOUS
100
AcDbVertex
100
AcDb2dVertex
 10
10.0
 20
-84.0
 30
0.0
  0
VERTEX
  5
DF342AC29B2B76FA
100
AcDbEntity
  8
PORTS
  6
CONTINUOUS
100
AcDbVertex
100
AcDb2dVertex
 10
82.0
 20
-84.0
 30
0.0
  0
VERTEX
  5
DF342AC29B2B76FB
100
AcDbEntity
  8
PORTS
  6
CONTINUOUS
100
AcDbVertex
100
AcDb2dVertex
 10
90.0
 20
-90.0
 30
0.0
  0
SEQEND
  5
DF342AC29B2B76FC
100
AcDbEntity
  8
PORTS
  6
CONTINUOUS
  0
POINT
  5
DF342AC29B2B76FD
100
AcDbEntity
  8
PORTS
  6
CONTINUOUS
100
AcDbPoint
 10
90.0
 20
-90.0
 30
0.0
  0
ATTDEF
  5
DF342AC29B2B76FE
100
AcDbEntity
  8
PORTS
  6
CONTINUOUS
100
AcDbText
 10
12.0
 20
-78.0
 30
0.0
 40
10.0
  1

  7
SIMPLEX
100
AcDbAttributeDefinition
  3

  2
SIDE
 70
     0
  0
ENDBLK
  5
DF342AC29B2B7701
100
AcDbEntity
  8
PORTS
  6
CONTINUOUS
100
AcDbBlockEnd
  0
BLOCK
  5
DF3576C5C0F7B629
100
AcDbEntity
  8
PORTS
  6
CONTINUOUS
100
AcDbBlockBegin
  2
IO_YGR_CLKOUT
 70
     2
 10
0.0
 20
0.0
 30
0.0
  1

  0
POLYLINE
  5
DF3576C5C0F7B61B
100
AcDbEntity
  8
PORTS
  6
CONTINUOUS
100
AcDb2dPolyline
 66
     1
 10
0.0
 20
0.0
 30
0.0
 70
     1
  0
VERTEX
  5
DF3576C5C0F7B61C
100
AcDbEntity
  8
PORTS
  6
CONTINUOUS
100
AcDbVertex
100
AcDb2dVertex
 10
90.0
 20
-130.0
 30
0.0
  0
VERTEX
  5
DF3576C5C0F7B61D
100
AcDbEntity
  8
PORTS
  6
CONTINUOUS
100
AcDbVertex
100
AcDb2dVertex
 10
82.0
 20
-136.0
 30
0.0
  0
VERTEX
  5
DF3576C5C0F7B61E
100
AcDbEntity
  8
PORTS
  6
CONTINUOUS
100
AcDbVertex
100
AcDb2dVertex
 10
10.0
 20
-136.0
 30
0.0
  0
VERTEX
  5
DF3576C5C0F7B61F
100
AcDbEntity
  8
PORTS
  6
CONTINUOUS
100
AcDbVertex
100
AcDb2dVertex
 10
10.0
 20
-124.0
 30
0.0
  0
VERTEX
  5
DF3576C5C0F7B620
100
AcDbEntity
  8
PORTS
  6
CONTINUOUS
100
AcDbVertex
100
AcDb2dVertex
 10
82.0
 20
-124.0
 30
0.0
  0
VERTEX
  5
DF3576C5C0F7B621
100
AcDbEntity
  8
PORTS
  6
CONTINUOUS
100
AcDbVertex
100
AcDb2dVertex
 10
90.0
 20
-130.0
 30
0.0
  0
SEQEND
  5
DF3576C5C0F7B622
100
AcDbEntity
  8
PORTS
  6
CONTINUOUS
  0
POINT
  5
DF3576C5C0F7B624
100
AcDbEntity
  8
PORTS
  6
CONTINUOUS
100
AcDbPoint
 10
90.0
 20
-130.0
 30
0.0
  0
ATTDEF
  5
DF3576C5C0F7B623
100
AcDbEntity
  8
PORTS
  6
CONTINUOUS
100
AcDbText
 10
12.0
 20
-118.0
 30
0.0
 40
10.0
  1

  7
SIMPLEX
100
AcDbAttributeDefinition
  3

  2
SIDE
 70
     0
  0
ENDBLK
  5
DF3576C5C0F7B62A
100
AcDbEntity
  8
PORTS
  6
CONTINUOUS
100
AcDbBlockEnd
  0
BLOCK
  5
F555BB614BA90729
100
AcDbEntity
  8
DETAIL_MEDIUM
  6
CONTINUOUS
100
AcDbBlockBegin
  2
IO_YGR_DDR_CLKOUT
 70
     0
 10
0.0
 20
0.0
 30
0.0
  1

  0
LINE
  5
F555BB614BA90727
100
AcDbEntity
  8
DETAIL_MEDIUM
  6
CONTINUOUS
100
AcDbLine
 10
372.0
 20
-329.0
 30
0.0
 11
400.0
 21
-329.0
 31
0.0
  0
CIRCLE
  5
F555BB614BA90726
100
AcDbEntity
  8
DETAIL_MEDIUM
  6
CONTINUOUS
100
AcDbCircle
 10
406.0
 20
-329.0
 30
0.0
 40
5.656854
  0
ENDBLK
  5
F555BB614BA9072A
100
AcDbEntity
  8
DETAIL_MEDIUM
  6
CONTINUOUS
100
AcDbBlockEnd
  0
BLOCK
  5
DF3414A0433D85D3
100
AcDbEntity
  8
DETAIL_MEDIUM
  6
CONTINUOUS
100
AcDbBlockBegin
  2
IO_YGR_REG_0_BYPASS
 70
     0
 10
360.0
 20
-40.0
 30
0.0
  1

  0
LINE
  5
DF3414A04332639C
100
AcDbEntity
  8
DETAIL_MEDIUM
  6
CONTINUOUS
100
AcDbLine
 10
360.0
 20
-40.0
 30
0.0
 11
360.0
 21
-10.0
 31
0.0
  0
LINE
  5
DF3414A04332639D
100
AcDbEntity
  8
DETAIL_MEDIUM
  6
CONTINUOUS
100
AcDbLine
 10
360.0
 20
-10.0
 30
0.0
 11
670.0
 21
-10.0
 31
0.0
  0
ENDBLK
  5
DF3414A0433D85D5
100
AcDbEntity
  8
DETAIL_MEDIUM
  6
CONTINUOUS
100
AcDbBlockEnd
  0
BLOCK
  5
DF399D3639244AAD
100
AcDbEntity
  8
PORTS
  6
CONTINUOUS
100
AcDbBlockBegin
  2
IO_YGR_CEOUT
 70
     2
 10
0.0
 20
0.0
 30
0.0
  1

  0
POLYLINE
  5
DF399D3639244AA0
100
AcDbEntity
  8
PORTS
  6
CONTINUOUS
100
AcDb2dPolyline
 66
     1
 10
0.0
 20
0.0
 30
0.0
 70
     1
  0
VERTEX
  5
DF399D3639244AA1
100
AcDbEntity
  8
PORTS
  6
CONTINUOUS
100
AcDbVertex
100
AcDb2dVertex
 10
90.0
 20
-170.0
 30
0.0
  0
VERTEX
  5
DF399D3639244AA2
100
AcDbEntity
  8
PORTS
  6
CONTINUOUS
100
AcDbVertex
100
AcDb2dVertex
 10
82.0
 20
-176.0
 30
0.0
  0
VERTEX
  5
DF399D3639244AA3
100
AcDbEntity
  8
PORTS
  6
CONTINUOUS
100
AcDbVertex
100
AcDb2dVertex
 10
10.0
 20
-176.0
 30
0.0
  0
VERTEX
  5
DF399D3639244AA4
100
AcDbEntity
  8
PORTS
  6
CONTINUOUS
100
AcDbVertex
100
AcDb2dVertex
 10
10.0
 20
-164.0
 30
0.0
  0
VERTEX
  5
DF399D3639244AA5
100
AcDbEntity
  8
PORTS
  6
CONTINUOUS
100
AcDbVertex
100
AcDb2dVertex
 10
82.0
 20
-164.0
 30
0.0
  0
VERTEX
  5
DF399D3639244AA6
100
AcDbEntity
  8
PORTS
  6
CONTINUOUS
100
AcDbVertex
100
AcDb2dVertex
 10
90.0
 20
-170.0
 30
0.0
  0
SEQEND
  5
DF399D3639244AA7
100
AcDbEntity
  8
PORTS
  6
CONTINUOUS
  0
POINT
  5
DF399D3639244AA8
100
AcDbEntity
  8
PORTS
  6
CONTINUOUS
100
AcDbPoint
 10
90.0
 20
-170.0
 30
0.0
  0
ATTDEF
  5
DF399D3639244A9F
100
AcDbEntity
  8
PORTS
  6
CONTINUOUS
100
AcDbText
 10
12.0
 20
-158.0
 30
0.0
 40
10.0
  1

  7
SIMPLEX
100
AcDbAttributeDefinition
  3

  2
SIDE
 70
     0
  0
ENDBLK
  5
DF399D3639244AAE
100
AcDbEntity
  8
PORTS
  6
CONTINUOUS
100
AcDbBlockEnd
  0
BLOCK
  5
DF3F25CC2F0B0FB2
100
AcDbEntity
  8
DETAIL_MEDIUM
  6
CONTINUOUS
100
AcDbBlockBegin
  2
IO_YGR_REG_0_EN
 70
     0
 10
0.0
 20
0.0
 30
0.0
  1

  0
LINE
  5
DF3F25CC2F0B0FB0
100
AcDbEntity
  8
DETAIL_MEDIUM
  6
CONTINUOUS
100
AcDbLine
 10
320.0
 20
-170.0
 30
0.0
 11
400.0
 21
-170.0
 31
0.0
  0
ENDBLK
  5
DF3F25CC2F0B0FB3
100
AcDbEntity
  8
DETAIL_MEDIUM
  6
CONTINUOUS
100
AcDbBlockEnd
  0
BLOCK
  5
DF3414A0433D85E1
100
AcDbEntity
  8
DETAIL_MEDIUM
  6
CONTINUOUS
100
AcDbBlockBegin
  2
IO_YGR_REG_1_EN
 70
     0
 10
320.0
 20
-310.0
 30
0.0
  1

  0
LINE
  5
DF3414A0433262C5
100
AcDbEntity
  8
DETAIL_MEDIUM
  6
CONTINUOUS
100
AcDbLine
 10
320.0
 20
-120.0
 30
0.0
 11
320.0
 21
-310.0
 31
0.0
  0
LINE
  5
DF3414A0433D85B7
100
AcDbEntity
  8
DETAIL_MEDIUM
  6
CONTINUOUS
100
AcDbLine
 10
320.0
 20
-310.0
 30
0.0
 11
400.0
 21
-310.0
 31
0.0
  0
ENDBLK
  5
DF3414A0433D85E3
100
AcDbEntity
  8
DETAIL_MEDIUM
  6
CONTINUOUS
100
AcDbBlockEnd
  0
BLOCK
  5
DF3414A0433D85E8
100
AcDbEntity
  8
DETAIL_MEDIUM
  6
CONTINUOUS
100
AcDbBlockBegin
  2
IO_YGR_REG_0_ACLR
 70
     0
 10
340.0
 20
-360.0
 30
0.0
  1

  0
LINE
  5
DF2FDC573EC57D70
100
AcDbEntity
  8
DETAIL_MEDIUM
  6
CONTINUOUS
100
AcDbLine
 10
440.0
 20
-150.0
 30
0.0
 11
440.0
 21
-170.0
 31
0.0
  0
LINE
  5
DF3414A04332628A
100
AcDbEntity
  8
DETAIL_MEDIUM
  6
CONTINUOUS
100
AcDbLine
 10
440.0
 20
-170.0
 30
0.0
 11
340.0
 21
-170.0
 31
0.0
  0
LINE
  5
DF3414A0433D85E5
100
AcDbEntity
  8
DETAIL_MEDIUM
  6
CONTINUOUS
100
AcDbLine
 10
340.0
 20
-170.0
 30
0.0
 11
340.0
 21
-360.0
 31
0.0
  0
ENDBLK
  5
DF3414A0433D85EA
100
AcDbEntity
  8
DETAIL_MEDIUM
  6
CONTINUOUS
100
AcDbBlockEnd
  0
BLOCK
  5
DF3414A0433D85EC
100
AcDbEntity
  8
DETAIL_MEDIUM
  6
CONTINUOUS
100
AcDbBlockBegin
  2
IO_YGR_REG_1_ACLR
 70
     0
 10
340.0
 20
-360.0
 30
0.0
  1

  0
LINE
  5
DF2FFF304F6E29FC
100
AcDbEntity
  8
DETAIL_MEDIUM
  6
CONTINUOUS
100
AcDbLine
 10
440.0
 20
-340.0
 30
0.0
 11
440.0
 21
-360.0
 31
0.0
  0
LINE
  5
DF2FBBA349845139
100
AcDbEntity
  8
DETAIL_MEDIUM
  6
CONTINUOUS
100
AcDbLine
 10
440.0
 20
-360.0
 30
0.0
 11
340.0
 21
-360.0
 31
0.0
  0
ENDBLK
  5
DF3414A0433D85EE
100
AcDbEntity
  8
DETAIL_MEDIUM
  6
CONTINUOUS
100
AcDbBlockEnd
  0
BLOCK
  5
E0963A1DBCEEA3FA
100
AcDbEntity
  8
DETAIL_MEDIUM
  6
CONTINUOUS
100
AcDbBlockBegin
  2
IO_YGR_REG_2_ACLR
 70
     0
 10
0.0
 20
0.0
 30
0.0
  1

  0
LINE
  5
E0963A1DBCEEA3F8
100
AcDbEntity
  8
DETAIL_MEDIUM
  6
CONTINUOUS
100
AcDbLine
 10
440.0
 20
-630.0
 30
0.0
 11
340.0
 21
-630.0
 31
0.0
  0
LINE
  5
E0963A1DBCEEA3F9
100
AcDbEntity
  8
DETAIL_MEDIUM
  6
CONTINUOUS
100
AcDbLine
 10
440.0
 20
-610.0
 30
0.0
 11
440.0
 21
-630.0
 31
0.0
  0
ENDBLK
  5
E0963A1DBCEEA3FB
100
AcDbEntity
  8
DETAIL_MEDIUM
  6
CONTINUOUS
100
AcDbBlockEnd
  0
BLOCK
  5
F555BB614BA90D4C
100
AcDbEntity
  8
DETAIL_MEDIUM
  6
CONTINUOUS
100
AcDbBlockBegin
  2
IO_YGR_REG_3_ON_ACLR
 70
     0
 10
0.0
 20
0.0
 30
0.0
  1

  0
LINE
  5
F555BB614BA90D49
100
AcDbEntity
  8
DETAIL_MEDIUM
  6
CONTINUOUS
100
AcDbLine
 10
352.0
 20
-639.0
 30
0.0
 11
352.0
 21
-903.0
 31
0.0
  0
LINE
  5
F555BB614BA90D4A
100
AcDbEntity
  8
DETAIL_MEDIUM
  6
CONTINUOUS
100
AcDbLine
 10
352.0
 20
-903.0
 30
0.0
 11
452.0
 21
-903.0
 31
0.0
  0
ENDBLK
  5
F555BB614BA90D4D
100
AcDbEntity
  8
DETAIL_MEDIUM
  6
CONTINUOUS
100
AcDbBlockEnd
  0
BLOCK
  5
F555BB614BA90D52
100
AcDbEntity
  8
DETAIL_MEDIUM
  6
CONTINUOUS
100
AcDbBlockBegin
  2
IO_YGR_REG_3_ACLR
 70
     0
 10
0.0
 20
0.0
 30
0.0
  1

  0
LINE
  5
F555BB614BA90D50
100
AcDbEntity
  8
DETAIL_MEDIUM
  6
CONTINUOUS
100
AcDbLine
 10
452.0
 20
-903.0
 30
0.0
 11
452.0
 21
-809.0
 31
0.0
  0
ENDBLK
  5
F555BB614BA90D53
100
AcDbEntity
  8
DETAIL_MEDIUM
  6
CONTINUOUS
100
AcDbBlockEnd
  0
BLOCK
  5
FDAC0694270062EC
100
AcDbEntity
  8
DETAIL_MEDIUM
  6
CONTINUOUS
100
AcDbBlockBegin
  2
IO_YGR_REG_4_ACLR
 70
     0
 10
0.0
 20
0.0
 30
0.0
  1

  0
LINE
  5
60251C70257B87F
100
AcDbEntity
  8
DETAIL_MEDIUM
  6
CONTINUOUS
100
AcDbLine
 10
452.0
 20
-903.0
 30
0.0
 11
1188.0
 21
-903.0
 31
0.0
  0
LINE
  5
FDAC069427006295
100
AcDbEntity
  8
DETAIL_MEDIUM
  6
CONTINUOUS
100
AcDbLine
 10
1188.0
 20
-903.0
 30
0.0
 11
1258.0
 21
-903.0
 31
0.0
  0
ENDBLK
  5
FDAC0694270062ED
100
AcDbEntity
  8
DETAIL_MEDIUM
  6
CONTINUOUS
100
AcDbBlockEnd
  0
BLOCK
  5
DF3414A0433D8618
100
AcDbEntity
  8
DETAIL_MEDIUM
  6
CONTINUOUS
100
AcDbBlockBegin
  2
IO_YGR_REG_56_ACLR
 70
     0
 10
1150.0
 20
-820.0
 30
0.0
  1

  0
LINE
  5
DF3414A0433D85F9
100
AcDbEntity
  8
DETAIL_MEDIUM
  6
CONTINUOUS
100
AcDbLine
 10
1150.0
 20
-750.0
 30
0.0
 11
1150.0
 21
-820.0
 31
0.0
  0
LINE
  5
DF3414A0433D8612
100
AcDbEntity
  8
DETAIL_MEDIUM
  6
CONTINUOUS
100
AcDbLine
 10
1220.0
 20
-820.0
 30
0.0
 11
1310.0
 21
-820.0
 31
0.0
  0
LINE
  5
DF3414A0433D85F7
100
AcDbEntity
  8
DETAIL_MEDIUM
  6
CONTINUOUS
100
AcDbLine
 10
1310.0
 20
-820.0
 30
0.0
 11
1310.0
 21
-750.0
 31
0.0
  0
ENDBLK
  5
DF3414A0433D861A
100
AcDbEntity
  8
DETAIL_MEDIUM
  6
CONTINUOUS
100
AcDbBlockEnd
  0
BLOCK
  5
DF3414A0433D8620
100
AcDbEntity
  8
DETAIL_MEDIUM
  6
CONTINUOUS
100
AcDbBlockBegin
  2
IO_YGR_REG_0_SCLR
 70
     0
 10
120.0
 20
-310.0
 30
0.0
  1

  0
LINE
  5
DF3414A0433263A0
100
AcDbEntity
  8
DETAIL_MEDIUM
  6
CONTINUOUS
100
AcDbLine
 10
440.0
 20
10.0
 30
0.0
 11
120.0
 21
10.0
 31
0.0
  0
LINE
  5
DF3414A04332639F
100
AcDbEntity
  8
DETAIL_MEDIUM
  6
CONTINUOUS
100
AcDbLine
 10
440.0
 20
-20.0
 30
0.0
 11
440.0
 21
10.0
 31
0.0
  0
LINE
  5
DF3414A0433D861C
100
AcDbEntity
  8
DETAIL_MEDIUM
  6
CONTINUOUS
100
AcDbLine
 10
120.0
 20
10.0
 30
0.0
 11
120.0
 21
-310.0
 31
0.0
  0
ENDBLK
  5
DF3414A0433D8622
100
AcDbEntity
  8
DETAIL_MEDIUM
  6
CONTINUOUS
100
AcDbBlockEnd
  0
BLOCK
  5
DF8C9DFFA1A9CE7D
100
AcDbEntity
  8
DETAIL_MEDIUM
  6
CONTINUOUS
100
AcDbBlockBegin
  2
IO_YGR_REG_24_OR_5_SCLR
 70
     0
 10
0.0
 20
0.0
 30
0.0
  1

  0
LINE
  5
DF8C9DFFA1A9CE7C
100
AcDbEntity
  8
DETAIL_MEDIUM
  6
CONTINUOUS
100
AcDbLine
 10
120.0
 20
-430.0
 30
0.0
 11
440.0
 21
-430.0
 31
0.0
  0
ENDBLK
  5
DF8C9DFFA1A9CE7E
100
AcDbEntity
  8
DETAIL_MEDIUM
  6
CONTINUOUS
100
AcDbBlockEnd
  0
BLOCK
  5
DF3414A0433D862B
100
AcDbEntity
  8
DETAIL_MEDIUM
  6
CONTINUOUS
100
AcDbBlockBegin
  2
IO_YGR_REG_2_SCLR
 70
     0
 10
440.0
 20
-430.0
 30
0.0
  1

  0
LINE
  5
DF3414A0433263A7
100
AcDbEntity
  8
DETAIL_MEDIUM
  6
CONTINUOUS
100
AcDbLine
 10
440.0
 20
-380.0
 30
0.0
 11
440.0
 21
-430.0
 31
0.0
  0
ENDBLK
  5
DF3414A0433D862D
100
AcDbEntity
  8
DETAIL_MEDIUM
  6
CONTINUOUS
100
AcDbBlockEnd
  0
BLOCK
  5
F555BB614BA9096E
100
AcDbEntity
  8
DETAIL_MEDIUM
  6
CONTINUOUS
100
AcDbBlockBegin
  2
IO_YGR_REG_4_SCLR
 70
     0
 10
0.0
 20
0.0
 30
0.0
  1

  0
LINE
  5
F555BB614BA90962
100
AcDbEntity
  8
DETAIL_MEDIUM
  6
CONTINUOUS
100
AcDbLine
 10
452.0
 20
-439.0
 30
0.0
 11
1187.0
 21
-439.0
 31
0.0
  0
ENDBLK
  5
F555BB614BA9096F
100
AcDbEntity
  8
DETAIL_MEDIUM
  6
CONTINUOUS
100
AcDbBlockEnd
  0
BLOCK
  5
F555BB614BA90968
100
AcDbEntity
  8
DETAIL_MEDIUM
  6
CONTINUOUS
100
AcDbBlockBegin
  2
IO_YGR_REG_5_SCLR
 70
     0
 10
0.0
 20
0.0
 30
0.0
  1

  0
LINE
  5
B77622254148C84
100
AcDbEntity
  8
DETAIL_MEDIUM
  6
CONTINUOUS
100
AcDbLine
 10
1188.0
 20
-683.0
 30
0.0
 11
1188.0
 21
-703.0
 31
0.0
  0
LINE
  5
B77622254148C83
100
AcDbEntity
  8
DETAIL_MEDIUM
  6
CONTINUOUS
100
AcDbLine
 10
1278.0
 20
-683.0
 30
0.0
 11
1188.0
 21
-683.0
 31
0.0
  0
LINE
  5
F555BB614BA90966
100
AcDbEntity
  8
DETAIL_MEDIUM
  6
CONTINUOUS
100
AcDbLine
 10
1278.0
 20
-439.0
 30
0.0
 11
1278.0
 21
-683.0
 31
0.0
  0
LINE
  5
F555BB614BA90965
100
AcDbEntity
  8
DETAIL_MEDIUM
  6
CONTINUOUS
100
AcDbLine
 10
1187.0
 20
-439.0
 30
0.0
 11
1278.0
 21
-439.0
 31
0.0
  0
ENDBLK
  5
F555BB614BA90969
100
AcDbEntity
  8
DETAIL_MEDIUM
  6
CONTINUOUS
100
AcDbBlockEnd
  0
BLOCK
  5
DF3414A0433D8637
100
AcDbEntity
  8
DETAIL_MEDIUM
  6
CONTINUOUS
100
AcDbBlockBegin
  2
IO_YGR_REG_3_SCLR
 70
     0
 10
120.0
 20
-620.0
 30
0.0
  1

  0
LINE
  5
DF3414A0433263AD
100
AcDbEntity
  8
DETAIL_MEDIUM
  6
CONTINUOUS
100
AcDbLine
 10
120.0
 20
-600.0
 30
0.0
 11
440.0
 21
-600.0
 31
0.0
  0
LINE
  5
DF3414A0433263AE
100
AcDbEntity
  8
DETAIL_MEDIUM
  6
CONTINUOUS
100
AcDbLine
 10
440.0
 20
-600.0
 30
0.0
 11
440.0
 21
-620.0
 31
0.0
  0
LINE
  5
DF3414A0433D861E
100
AcDbEntity
  8
DETAIL_MEDIUM
  6
CONTINUOUS
100
AcDbLine
 10
120.0
 20
-380.0
 30
0.0
 11
120.0
 21
-600.0
 31
0.0
  0
ENDBLK
  5
DF3414A0433D8639
100
AcDbEntity
  8
DETAIL_MEDIUM
  6
CONTINUOUS
100
AcDbBlockEnd
  0
BLOCK
  5
DF4A36F81AD89932
100
AcDbEntity
  8
DETAIL_MEDIUM
  6
CONTINUOUS
100
AcDbBlockBegin
  2
IO_YGR_REG_2_EN
 70
     0
 10
0.0
 20
0.0
 30
0.0
  1

  0
LINE
  5
DF4A36F81AD89930
100
AcDbEntity
  8
DETAIL_MEDIUM
  6
CONTINUOUS
100
AcDbLine
 10
320.0
 20
-580.0
 30
0.0
 11
400.0
 21
-580.0
 31
0.0
  0
ENDBLK
  5
DF4A36F81AD89933
100
AcDbEntity
  8
DETAIL_MEDIUM
  6
CONTINUOUS
100
AcDbBlockEnd
  0
BLOCK
  5
DF3414A0433D863F
100
AcDbEntity
  8
DETAIL_MEDIUM
  6
CONTINUOUS
100
AcDbBlockBegin
  2
IO_YGR_REG_3_EN
 70
     0
 10
320.0
 20
-720.0
 30
0.0
  1

  0
LINE
  5
DF3414A0433D85C1
100
AcDbEntity
  8
DETAIL_MEDIUM
  6
CONTINUOUS
100
AcDbLine
 10
320.0
 20
-720.0
 30
0.0
 11
400.0
 21
-720.0
 31
0.0
  0
LINE
  5
DF3414A0433262E9
100
AcDbEntity
  8
DETAIL_MEDIUM
  6
CONTINUOUS
100
AcDbLine
 10
320.0
 20
-720.0
 30
0.0
 11
320.0
 21
-530.0
 31
0.0
  0
ENDBLK
  5
DF3414A0433D8641
100
AcDbEntity
  8
DETAIL_MEDIUM
  6
CONTINUOUS
100
AcDbBlockEnd
  0
BLOCK
  5
E1F85F9B369F26F9
100
AcDbEntity
  8
PORTS
  6
CONTINUOUS
100
AcDbBlockBegin
  2
IO_YGR_DIN_0
 70
     2
 10
0.0
 20
0.0
 30
0.0
  1

  0
POLYLINE
  5
E1F85F9B369F26EF
100
AcDbEntity
  8
PORTS
  6
CONTINUOUS
100
AcDb2dPolyline
 66
     1
 10
0.0
 20
0.0
 30
0.0
 70
     1
  0
VERTEX
  5
E1F85F9B369F26F0
100
AcDbEntity
  8
PORTS
  6
CONTINUOUS
100
AcDbVertex
100
AcDb2dVertex
 10
90.0
 20
-500.0
 30
0.0
  0
VERTEX
  5
E1F85F9B369F26F1
100
AcDbEntity
  8
PORTS
  6
CONTINUOUS
100
AcDbVertex
100
AcDb2dVertex
 10
82.0
 20
-506.0
 30
0.0
  0
VERTEX
  5
E1F85F9B369F26F2
100
AcDbEntity
  8
PORTS
  6
CONTINUOUS
100
AcDbVertex
100
AcDb2dVertex
 10
10.0
 20
-506.0
 30
0.0
  0
VERTEX
  5
E1F85F9B369F26F3
100
AcDbEntity
  8
PORTS
  6
CONTINUOUS
100
AcDbVertex
100
AcDb2dVertex
 10
10.0
 20
-494.0
 30
0.0
  0
VERTEX
  5
E1F85F9B369F26F4
100
AcDbEntity
  8
PORTS
  6
CONTINUOUS
100
AcDbVertex
100
AcDb2dVertex
 10
82.0
 20
-494.0
 30
0.0
  0
VERTEX
  5
E1F85F9B369F26F5
100
AcDbEntity
  8
PORTS
  6
CONTINUOUS
100
AcDbVertex
100
AcDb2dVertex
 10
90.0
 20
-500.0
 30
0.0
  0
SEQEND
  5
E1F85F9B369F26F6
100
AcDbEntity
  8
PORTS
  6
CONTINUOUS
  0
POINT
  5
E1F85F9B369F26F7
100
AcDbEntity
  8
PORTS
  6
CONTINUOUS
100
AcDbPoint
 10
90.0
 20
-500.0
 30
0.0
  0
ATTDEF
  5
E1F85F9B369F26F8
100
AcDbEntity
  8
PORTS
  6
CONTINUOUS
100
AcDbText
 10
12.0
 20
-488.0
 30
0.0
 40
10.0
  1

  7
SIMPLEX
100
AcDbAttributeDefinition
  3

  2
SIDE
 70
     0
  0
ENDBLK
  5
E1F85F9B369F26FA
100
AcDbEntity
  8
PORTS
  6
CONTINUOUS
100
AcDbBlockEnd
  0
BLOCK
  5
EA45408A26E1D126
100
AcDbEntity
  8
PORTS
  6
CONTINUOUS
100
AcDbBlockBegin
  2
IO_YGR_DIN_1
 70
     2
 10
0.0
 20
0.0
 30
0.0
  1

  0
POLYLINE
  5
EA45408A26E1D117
100
AcDbEntity
  8
PORTS
  6
CONTINUOUS
100
AcDb2dPolyline
 66
     1
 10
0.0
 20
0.0
 30
0.0
 70
     1
  0
VERTEX
  5
EA45408A26E1D118
100
AcDbEntity
  8
PORTS
  6
CONTINUOUS
100
AcDbVertex
100
AcDb2dVertex
 10
90.0
 20
-690.0
 30
0.0
  0
VERTEX
  5
EA45408A26E1D119
100
AcDbEntity
  8
PORTS
  6
CONTINUOUS
100
AcDbVertex
100
AcDb2dVertex
 10
82.0
 20
-696.0
 30
0.0
  0
VERTEX
  5
EA45408A26E1D11A
100
AcDbEntity
  8
PORTS
  6
CONTINUOUS
100
AcDbVertex
100
AcDb2dVertex
 10
10.0
 20
-696.0
 30
0.0
  0
VERTEX
  5
EA45408A26E1D11B
100
AcDbEntity
  8
PORTS
  6
CONTINUOUS
100
AcDbVertex
100
AcDb2dVertex
 10
10.0
 20
-684.0
 30
0.0
  0
VERTEX
  5
EA45408A26E1D11C
100
AcDbEntity
  8
PORTS
  6
CONTINUOUS
100
AcDbVertex
100
AcDb2dVertex
 10
82.0
 20
-684.0
 30
0.0
  0
VERTEX
  5
EA45408A26E1D11D
100
AcDbEntity
  8
PORTS
  6
CONTINUOUS
100
AcDbVertex
100
AcDb2dVertex
 10
90.0
 20
-690.0
 30
0.0
  0
SEQEND
  5
EA45408A26E1D11E
100
AcDbEntity
  8
PORTS
  6
CONTINUOUS
  0
POINT
  5
EA45408A26E1D11F
100
AcDbEntity
  8
PORTS
  6
CONTINUOUS
100
AcDbPoint
 10
90.0
 20
-690.0
 30
0.0
  0
ATTDEF
  5
EA45408A26E1D120
100
AcDbEntity
  8
PORTS
  6
CONTINUOUS
100
AcDbText
 10
12.0
 20
-678.0
 30
0.0
 40
10.0
  1

 50
0.000019
  7
SIMPLEX
100
AcDbAttributeDefinition
  3

  2
SIDE
 70
     0
  0
ENDBLK
  5
EA45408A26E1D127
100
AcDbEntity
  8
PORTS
  6
CONTINUOUS
100
AcDbBlockEnd
  0
BLOCK
  5
DF3414A0434EEDE7
100
AcDbEntity
  8
DETAIL_MEDIUM
  6
CONTINUOUS
100
AcDbBlockBegin
  2
IO_YGR_REG_2_BYPASS
 70
     0
 10
180.0
 20
-500.0
 30
0.0
  1

  0
LINE
  5
DF3414A0434EEDC5
100
AcDbEntity
  8
DETAIL_MEDIUM
  6
CONTINUOUS
100
AcDbLine
 10
180.0
 20
-460.0
 30
0.0
 11
640.0
 21
-460.0
 31
0.0
  0
LINE
  5
DF3414A043423309
100
AcDbEntity
  8
DETAIL_MEDIUM
  6
CONTINUOUS
100
AcDbLine
 10
180.0
 20
-500.0
 30
0.0
 11
180.0
 21
-460.0
 31
0.0
  0
ENDBLK
  5
DF3414A0434EEDE8
100
AcDbEntity
  8
DETAIL_MEDIUM
  6
CONTINUOUS
100
AcDbBlockEnd
  0
BLOCK
  5
FDAC069427702BE6
100
AcDbEntity
  8
DETAIL_MEDIUM
  6
CONTINUOUS
100
AcDbBlockBegin
  2
IO_YGR_REG_2_USED
 70
     0
 10
0.0
 20
0.0
 30
0.0
  1

  0
LINE
  5
FDAC069427702A93
100
AcDbEntity
  8
DETAIL_MEDIUM
  6
CONTINUOUS
100
AcDbLine
 10
628.0
 20
-499.0
 30
0.0
 11
648.0
 21
-499.0
 31
0.0
  0
LINE
  5
FDAC069427702BD8
100
AcDbEntity
  8
DETAIL_MEDIUM
  6
CONTINUOUS
100
AcDbLine
 10
548.0
 20
-499.0
 30
0.0
 11
528.0
 21
-499.0
 31
0.0
  0
LINE
  5
FDAC069427702BD9
100
AcDbEntity
  8
DETAIL_MEDIUM
  6
CONTINUOUS
100
AcDbLine
 10
528.0
 20
-499.0
 30
0.0
 11
528.0
 21
-539.0
 31
0.0
  0
LINE
  5
FDAC069427702BDA
100
AcDbEntity
  8
DETAIL_MEDIUM
  6
CONTINUOUS
100
AcDbLine
 10
528.0
 20
-539.0
 30
0.0
 11
578.0
 21
-539.0
 31
0.0
  0
LINE
  5
FDAC069427702BDB
100
AcDbEntity
  8
DETAIL_MEDIUM
  6
CONTINUOUS
100
AcDbLine
 10
578.0
 20
-539.0
 30
0.0
 11
578.0
 21
-589.0
 31
0.0
  0
LINE
  5
FDAC069427702BDC
100
AcDbEntity
  8
DETAIL_MEDIUM
  6
CONTINUOUS
100
AcDbLine
 10
558.0
 20
-589.0
 30
0.0
 11
578.0
 21
-589.0
 31
0.0
  0
POLYLINE
  5
FDAC069427702BDD
100
AcDbEntity
  8
DETAIL_MEDIUM
100
AcDb2dPolyline
 66
     1
 10
0.0
 20
0.0
 30
0.0
 39
2.0
 70
     1
  0
VERTEX
  5
FDAC069427702BDE
100
AcDbEntity
  8
DETAIL_MEDIUM
100
AcDbVertex
100
AcDb2dVertex
 10
528.0
 20
-559.0
 30
0.0
  0
VERTEX
  5
FDAC069427702BDF
100
AcDbEntity
  8
DETAIL_MEDIUM
100
AcDbVertex
100
AcDb2dVertex
 10
558.0
 20
-569.0
 30
0.0
  0
VERTEX
  5
FDAC069427702BE0
100
AcDbEntity
  8
DETAIL_MEDIUM
100
AcDbVertex
100
AcDb2dVertex
 10
558.0
 20
-609.0
 30
0.0
  0
VERTEX
  5
FDAC069427702BE1
100
AcDbEntity
  8
DETAIL_MEDIUM
100
AcDbVertex
100
AcDb2dVertex
 10
528.0
 20
-619.0
 30
0.0
  0
VERTEX
  5
FDAC069427702BE2
100
AcDbEntity
  8
DETAIL_MEDIUM
100
AcDbVertex
100
AcDb2dVertex
 10
528.0
 20
-559.0
 30
0.0
  0
SEQEND
  5
FDAC069427702BE3
100
AcDbEntity
  8
DETAIL_MEDIUM
  0
TEXT
  5
FDAC069427702BE4
100
AcDbEntity
  8
DETAIL_MEDIUM
  6
CONTINUOUS
100
AcDbText
 10
536.0
 20
-607.0
 30
0.0
 40
10.0
  1
0
  7
SIMPLEX
100
AcDbText
  0
TEXT
  5
FDAC069427702BE5
100
AcDbEntity
  8
DETAIL_MEDIUM
  6
CONTINUOUS
100
AcDbText
 10
536.0
 20
-578.0
 30
0.0
 40
10.0
  1
1
  7
SIMPLEX
100
AcDbText
  0
ENDBLK
  5
FDAC069427702BE7
100
AcDbEntity
  8
DETAIL_MEDIUM
  6
CONTINUOUS
100
AcDbBlockEnd
  0
BLOCK
  5
F555BB614BA905C8
100
AcDbEntity
  8
DETAIL_MEDIUM
  6
CONTINUOUS
100
AcDbBlockBegin
  2
IO_YGR_BUFFER
 70
     0
 10
0.0
 20
0.0
 30
0.0
  1

  0
POLYLINE
  5
F555BB614BA905BF
100
AcDbEntity
  8
DETAIL_MEDIUM
  6
CONTINUOUS
100
AcDb2dPolyline
 66
     1
 10
0.0
 20
0.0
 30
0.0
 70
     1
  0
VERTEX
  5
F555BB614BA905C0
100
AcDbEntity
  8
DETAIL_MEDIUM
  6
CONTINUOUS
100
AcDbVertex
100
AcDb2dVertex
 10
700.0
 20
-610.0
 30
0.0
  0
VERTEX
  5
F555BB614BA905C1
100
AcDbEntity
  8
DETAIL_MEDIUM
  6
CONTINUOUS
100
AcDbVertex
100
AcDb2dVertex
 10
700.0
 20
-570.0
 30
0.0
  0
VERTEX
  5
F555BB614BA905C2
100
AcDbEntity
  8
DETAIL_MEDIUM
  6
CONTINUOUS
100
AcDbVertex
100
AcDb2dVertex
 10
740.0
 20
-590.0
 30
0.0
  0
VERTEX
  5
F555BB614BA905C3
100
AcDbEntity
  8
DETAIL_MEDIUM
  6
CONTINUOUS
100
AcDbVertex
100
AcDb2dVertex
 10
700.0
 20
-610.0
 30
0.0
  0
SEQEND
  5
F555BB614BA905C4
100
AcDbEntity
  8
DETAIL_MEDIUM
  6
CONTINUOUS
  0
CIRCLE
  5
F555BB614BA905C5
100
AcDbEntity
  8
DETAIL_MEDIUM
  6
CONTINUOUS
100
AcDbCircle
 10
720.0
 20
-573.0
 30
0.0
 40
6.324555
  0
LINE
  5
F555BB614BA905C6
100
AcDbEntity
  8
DETAIL_MEDIUM
  6
CONTINUOUS
100
AcDbLine
 10
740.0
 20
-590.0
 30
0.0
 11
770.0
 21
-590.0
 31
0.0
  0
ENDBLK
  5
F555BB614BA905C9
100
AcDbEntity
  8
DETAIL_MEDIUM
  6
CONTINUOUS
100
AcDbBlockEnd
  0
BLOCK
  5
DF3414A0433D86E0
100
AcDbEntity
  8
DETAIL_MEDIUM
  6
CONTINUOUS
100
AcDbBlockBegin
  2
IO_YGR_PAD
 70
     0
 10
770.0
 20
-570.0
 30
0.0
  1

  0
POLYLINE
  5
DF2FC23470F1A7DB
100
AcDbEntity
  8
DETAIL_MEDIUM
  6
CONTINUOUS
100
AcDb2dPolyline
 66
     1
 10
0.0
 20
0.0
 30
0.0
 70
     1
  0
VERTEX
  5
DF3414A0433D890F
100
AcDbEntity
  8
DETAIL_MEDIUM
  6
CONTINUOUS
100
AcDbVertex
100
AcDb2dVertex
 10
770.0
 20
-510.0
 30
0.0
  0
VERTEX
  5
DF3414A0433D8910
100
AcDbEntity
  8
DETAIL_MEDIUM
  6
CONTINUOUS
100
AcDbVertex
100
AcDb2dVertex
 10
830.0
 20
-510.0
 30
0.0
  0
VERTEX
  5
DF3414A0433D8911
100
AcDbEntity
  8
DETAIL_MEDIUM
  6
CONTINUOUS
100
AcDbVertex
100
AcDb2dVertex
 10
830.0
 20
-570.0
 30
0.0
  0
VERTEX
  5
DF3414A0433D8912
100
AcDbEntity
  8
DETAIL_MEDIUM
  6
CONTINUOUS
100
AcDbVertex
100
AcDb2dVertex
 10
770.0
 20
-570.0
 30
0.0
  0
SEQEND
  5
DF3414A0433D8913
100
AcDbEntity
  8
DETAIL_MEDIUM
  6
CONTINUOUS
  0
POLYLINE
  5
DF2FC23470F1A7DE
100
AcDbEntity
  8
DETAIL_MEDIUM
  6
CONTINUOUS
100
AcDb2dPolyline
 66
     1
 10
0.0
 20
0.0
 30
0.0
  0
VERTEX
  5
DF3414A0433D8914
100
AcDbEntity
  8
DETAIL_MEDIUM
  6
CONTINUOUS
100
AcDbVertex
100
AcDb2dVertex
 10
770.0
 20
-540.0
 30
0.0
  0
VERTEX
  5
DF3414A0433D8915
100
AcDbEntity
  8
DETAIL_MEDIUM
  6
CONTINUOUS
100
AcDbVertex
100
AcDb2dVertex
 10
800.0
 20
-510.0
 30
0.0
  0
VERTEX
  5
DF3414A0433D8916
100
AcDbEntity
  8
DETAIL_MEDIUM
  6
CONTINUOUS
100
AcDbVertex
100
AcDb2dVertex
 10
830.0
 20
-540.0
 30
0.0
  0
VERTEX
  5
DF3414A0433D8917
100
AcDbEntity
  8
DETAIL_MEDIUM
  6
CONTINUOUS
100
AcDbVertex
100
AcDb2dVertex
 10
800.0
 20
-570.0
 30
0.0
  0
VERTEX
  5
DF3414A0433D8918
100
AcDbEntity
  8
DETAIL_MEDIUM
  6
CONTINUOUS
100
AcDbVertex
100
AcDb2dVertex
 10
770.0
 20
-540.0
 30
0.0
  0
SEQEND
  5
DF3414A0433D8919
100
AcDbEntity
  8
DETAIL_MEDIUM
  6
CONTINUOUS
  0
ENDBLK
  5
DF3414A0433D86E2
100
AcDbEntity
  8
DETAIL_MEDIUM
  6
CONTINUOUS
100
AcDbBlockEnd
  0
BLOCK
  5
DF3414AD06ACD5A3
100
AcDbEntity
  8
DETAIL_MEDIUM
  6
CONTINUOUS
100
AcDbBlockBegin
  2
IO_YGR_REGOUT_4_USED
 70
     0
 10
0.0
 20
0.0
 30
0.0
  1

  0
LINE
  5
DF3414AD06ACD5A2
100
AcDbEntity
  8
DETAIL_MEDIUM
  6
CONTINUOUS
100
AcDbLine
 10
1190.0
 20
-500.0
 30
0.0
 11
1299.0
 21
-500.0
 31
0.0
  0
ENDBLK
  5
DF3414AD06ACD5A4
100
AcDbEntity
  8
DETAIL_MEDIUM
  6
CONTINUOUS
100
AcDbBlockEnd
  0
BLOCK
  5
DF3414B9AB7E00E1
100
AcDbEntity
  8
DETAIL_MEDIUM
  6
CONTINUOUS
100
AcDbBlockBegin
  2
IO_YGR_REGOUT_5_USED
 70
     0
 10
0.0
 20
0.0
 30
0.0
  1

  0
LINE
  5
DF3414B9AB7E00E0
100
AcDbEntity
  8
DETAIL_MEDIUM
  6
CONTINUOUS
100
AcDbLine
 10
1350.0
 20
-690.0
 30
0.0
 11
1440.0
 21
-690.0
 31
0.0
  0
LINE
  5
DF3414B9AB7E00DF
100
AcDbEntity
  8
DETAIL_MEDIUM
  6
CONTINUOUS
100
AcDbLine
 10
1190.0
 20
-690.0
 30
0.0
 11
1270.0
 21
-690.0
 31
0.0
  0
ENDBLK
  5
DF3414B9AB7E00E2
100
AcDbEntity
  8
DETAIL_MEDIUM
  6
CONTINUOUS
100
AcDbBlockEnd
  0
BLOCK
  5
DF3414A78E6AFC76
100
AcDbEntity
  8
PORTS
  6
CONTINUOUS
100
AcDbBlockBegin
  2
IO_YGR_REG_4_CE_IN
 70
     2
 10
0.0
 20
0.0
 30
0.0
  1

  0
POLYLINE
  5
DF3414A78E6AFC69
100
AcDbEntity
  8
PORTS
  6
CONTINUOUS
100
AcDb2dPolyline
 66
     1
 10
0.0
 20
0.0
 30
0.0
 70
     1
  0
VERTEX
  5
DF3414A78E6AFC6A
100
AcDbEntity
  8
PORTS
  6
CONTINUOUS
100
AcDbVertex
100
AcDb2dVertex
 10
810.0
 20
-840.0
 30
0.0
  0
VERTEX
  5
DF3414A78E6AFC6B
100
AcDbEntity
  8
PORTS
  6
CONTINUOUS
100
AcDbVertex
100
AcDb2dVertex
 10
802.0
 20
-846.0
 30
0.0
  0
VERTEX
  5
DF3414A78E6AFC6C
100
AcDbEntity
  8
PORTS
  6
CONTINUOUS
100
AcDbVertex
100
AcDb2dVertex
 10
730.0
 20
-846.0
 30
0.0
  0
VERTEX
  5
DF3414A78E6AFC6D
100
AcDbEntity
  8
PORTS
  6
CONTINUOUS
100
AcDbVertex
100
AcDb2dVertex
 10
730.0
 20
-834.0
 30
0.0
  0
VERTEX
  5
DF3414A78E6AFC6E
100
AcDbEntity
  8
PORTS
  6
CONTINUOUS
100
AcDbVertex
100
AcDb2dVertex
 10
802.0
 20
-834.0
 30
0.0
  0
VERTEX
  5
DF3414A78E6AFC6F
100
AcDbEntity
  8
PORTS
  6
CONTINUOUS
100
AcDbVertex
100
AcDb2dVertex
 10
810.0
 20
-840.0
 30
0.0
  0
SEQEND
  5
DF3414A78E6AFC70
100
AcDbEntity
  8
PORTS
  6
CONTINUOUS
  0
POINT
  5
DF3414A78E6AFC71
100
AcDbEntity
  8
PORTS
  6
CONTINUOUS
100
AcDbPoint
 10
810.0
 20
-840.0
 30
0.0
  0
ATTDEF
  5
DF3414A78E6AFC72
100
AcDbEntity
  8
PORTS
  6
CONTINUOUS
100
AcDbText
 10
732.0
 20
-828.0
 30
0.0
 40
10.0
  1

 50
0.000019
  7
SIMPLEX
100
AcDbAttributeDefinition
  3

  2
SIDE
 70
     0
  0
ENDBLK
  5
DF3414A78E6AFC77
100
AcDbEntity
  8
PORTS
  6
CONTINUOUS
100
AcDbBlockEnd
  0
BLOCK
  5
FDAC0694273489D0
100
AcDbEntity
  8
DETAIL_MEDIUM
  6
CONTINUOUS
100
AcDbBlockBegin
  2
IO_YGR_REG_5_CE_IN
 70
     0
 10
0.0
 20
0.0
 30
0.0
  1

  0
POINT
  5
FDAC0694273489CE
100
AcDbEntity
  8
DETAIL_MEDIUM
  6
CONTINUOUS
100
AcDbPoint
 10
1024.0
 20
-863.0
 30
0.0
  0
LINE
  5
FDAC0694273489CB
100
AcDbEntity
  8
DETAIL_MEDIUM
  6
CONTINUOUS
100
AcDbLine
 10
1024.0
 20
-863.0
 30
0.0
 11
1288.0
 21
-863.0
 31
0.0
  0
LINE
  5
FDAC0694273489CA
100
AcDbEntity
  8
DETAIL_MEDIUM
  6
CONTINUOUS
100
AcDbLine
 10
1288.0
 20
-863.0
 30
0.0
 11
1288.0
 21
-793.0
 31
0.0
  0
LINE
  5
FDAC0694273489C9
100
AcDbEntity
  8
DETAIL_MEDIUM
  6
CONTINUOUS
100
AcDbLine
 10
1288.0
 20
-793.0
 30
0.0
 11
1304.0
 21
-793.0
 31
0.0
  0
POINT
  5
FDAC0694273489CF
100
AcDbEntity
  8
DETAIL_MEDIUM
  6
CONTINUOUS
100
AcDbPoint
 10
1124.0
 20
-603.0
 30
0.0
  0
LINE
  5
FDAC0694273489CD
100
AcDbEntity
  8
DETAIL_MEDIUM
  6
CONTINUOUS
100
AcDbLine
 10
1124.0
 20
-603.0
 30
0.0
 11
1124.0
 21
-793.0
 31
0.0
  0
LINE
  5
FDAC0694273489CC
100
AcDbEntity
  8
DETAIL_MEDIUM
  6
CONTINUOUS
100
AcDbLine
 10
1124.0
 20
-793.0
 30
0.0
 11
1144.0
 21
-793.0
 31
0.0
  0
ENDBLK
  5
FDAC0694273489D1
100
AcDbEntity
  8
DETAIL_MEDIUM
  6
CONTINUOUS
100
AcDbBlockEnd
  0
BLOCK
  5
F555BB614BA90E09
100
AcDbEntity
  8
PORTS
  6
CONTINUOUS
100
AcDbBlockBegin
  2
IO_YGR_CLK_IN
 70
     2
 10
0.0
 20
0.0
 30
0.0
  1

  0
POLYLINE
  5
B77621EAE3D5B1D
100
AcDbEntity
  8
PORTS
  6
CONTINUOUS
100
AcDb2dPolyline
 66
     1
 10
0.0
 20
0.0
 30
0.0
 70
     1
  0
VERTEX
  5
B77621EAE3D5B1E
100
AcDbEntity
  8
PORTS
  6
CONTINUOUS
100
AcDbVertex
100
AcDb2dVertex
 10
848.0
 20
-763.0
 30
0.0
  0
VERTEX
  5
B77621EAE3D5B1F
100
AcDbEntity
  8
PORTS
  6
CONTINUOUS
100
AcDbVertex
100
AcDb2dVertex
 10
840.0
 20
-769.0
 30
0.0
  0
VERTEX
  5
B77621EAE3D5B20
100
AcDbEntity
  8
PORTS
  6
CONTINUOUS
100
AcDbVertex
100
AcDb2dVertex
 10
768.0
 20
-769.0
 30
0.0
  0
VERTEX
  5
B77621EAE3D5B21
100
AcDbEntity
  8
PORTS
  6
CONTINUOUS
100
AcDbVertex
100
AcDb2dVertex
 10
768.0
 20
-757.0
 30
0.0
  0
VERTEX
  5
B77621EAE3D5B22
100
AcDbEntity
  8
PORTS
  6
CONTINUOUS
100
AcDbVertex
100
AcDb2dVertex
 10
840.0
 20
-757.0
 30
0.0
  0
VERTEX
  5
B77621EAE3D5B23
100
AcDbEntity
  8
PORTS
  6
CONTINUOUS
100
AcDbVertex
100
AcDb2dVertex
 10
848.0
 20
-763.0
 30
0.0
  0
SEQEND
  5
B77621EAE3D5B24
100
AcDbEntity
  8
PORTS
  6
CONTINUOUS
  0
POINT
  5
B77621EAE3D5B25
100
AcDbEntity
  8
PORTS
  6
CONTINUOUS
100
AcDbPoint
 10
848.0
 20
-763.0
 30
0.0
  0
ATTDEF
  5
B77621EAE3D5B26
100
AcDbEntity
  8
PORTS
  6
CONTINUOUS
100
AcDbText
 10
770.0
 20
-751.0
 30
0.0
 40
10.0
  1

 50
0.000019
  7
SIMPLEX
100
AcDbAttributeDefinition
  3

  2
SIDE
 70
     0
  0
ENDBLK
  5
F555BB614BA90E0A
100
AcDbEntity
  8
PORTS
  6
CONTINUOUS
100
AcDbBlockEnd
  0
BLOCK
  5
FDAC06942768AE95
100
AcDbEntity
  8
DETAIL_MEDIUM
  6
CONTINUOUS
100
AcDbBlockBegin
  2
IO_YGR_REG_5_CLK_IN
 70
     0
 10
0.0
 20
0.0
 30
0.0
  1

  0
LINE
  5
FDAC06942768AE8F
100
AcDbEntity
  8
DETAIL_MEDIUM
  6
CONTINUOUS
100
AcDbLine
 10
1104.0
 20
-753.0
 30
0.0
 11
1132.0
 21
-753.0
 31
0.0
  0
CIRCLE
  5
FDAC06942768AE90
100
AcDbEntity
  8
DETAIL_MEDIUM
  6
CONTINUOUS
100
AcDbCircle
 10
1138.0
 20
-753.0
 30
0.0
 40
5.656854
  0
POINT
  5
FDAC0694271A7770
100
AcDbEntity
  8
DETAIL_MEDIUM
  6
CONTINUOUS
100
AcDbPoint
 10
1104.0
 20
-753.0
 30
0.0
  0
LINE
  5
FDAC06942768AE91
100
AcDbEntity
  8
DETAIL_MEDIUM
  6
CONTINUOUS
100
AcDbLine
 10
1104.0
 20
-753.0
 30
0.0
 11
1104.0
 21
-839.0
 31
0.0
  0
LINE
  5
FDAC06942768AE92
100
AcDbEntity
  8
DETAIL_MEDIUM
  6
CONTINUOUS
100
AcDbLine
 10
1104.0
 20
-839.0
 30
0.0
 11
1274.0
 21
-839.0
 31
0.0
  0
LINE
  5
FDAC06942768AE93
100
AcDbEntity
  8
DETAIL_MEDIUM
  6
CONTINUOUS
100
AcDbLine
 10
1274.0
 20
-839.0
 30
0.0
 11
1274.0
 21
-753.0
 31
0.0
  0
LINE
  5
FDAC06942768AE94
100
AcDbEntity
  8
DETAIL_MEDIUM
  6
CONTINUOUS
100
AcDbLine
 10
1274.0
 20
-753.0
 30
0.0
 11
1304.0
 21
-753.0
 31
0.0
  0
ENDBLK
  5
FDAC06942768AE96
100
AcDbEntity
  8
DETAIL_MEDIUM
  6
CONTINUOUS
100
AcDbBlockEnd
  0
BLOCK
  5
DF3416351A9F3588
100
AcDbEntity
  8
PORTS
  6
CONTINUOUS
100
AcDbBlockBegin
  2
IO_YGR_DATAIN_1
 70
     2
 10
0.0
 20
0.0
 30
0.0
  1

  0
POLYLINE
  5
DF3416351A9F357E
100
AcDbEntity
  8
PORTS
  6
CONTINUOUS
100
AcDb2dPolyline
 66
     1
 10
0.0
 20
0.0
 30
0.0
 70
     1
  0
VERTEX
  5
DF3416351A9F357F
100
AcDbEntity
  8
PORTS
  6
CONTINUOUS
100
AcDbVertex
100
AcDb2dVertex
 10
1581.0
 20
-637.0
 30
0.0
  0
VERTEX
  5
DF3416351A9F3580
100
AcDbEntity
  8
PORTS
  6
CONTINUOUS
100
AcDbVertex
100
AcDb2dVertex
 10
1573.0
 20
-643.0
 30
0.0
  0
VERTEX
  5
DF3416351A9F3581
100
AcDbEntity
  8
PORTS
  6
CONTINUOUS
100
AcDbVertex
100
AcDb2dVertex
 10
1501.0
 20
-643.0
 30
0.0
  0
VERTEX
  5
DF3416351A9F3582
100
AcDbEntity
  8
PORTS
  6
CONTINUOUS
100
AcDbVertex
100
AcDb2dVertex
 10
1501.0
 20
-631.0
 30
0.0
  0
VERTEX
  5
DF3416351A9F3583
100
AcDbEntity
  8
PORTS
  6
CONTINUOUS
100
AcDbVertex
100
AcDb2dVertex
 10
1573.0
 20
-631.0
 30
0.0
  0
VERTEX
  5
DF3416351A9F3584
100
AcDbEntity
  8
PORTS
  6
CONTINUOUS
100
AcDbVertex
100
AcDb2dVertex
 10
1581.0
 20
-637.0
 30
0.0
  0
SEQEND
  5
DF3416351A9F3585
100
AcDbEntity
  8
PORTS
  6
CONTINUOUS
  0
ATTDEF
  5
DF3416351A9F3586
100
AcDbEntity
  8
PORTS
  6
CONTINUOUS
100
AcDbText
 10
1503.0
 20
-625.0
 30
0.0
 40
10.0
  1

 50
0.000019
  7
SIMPLEX
100
AcDbAttributeDefinition
  3

  2
SIDE
 70
     0
  0
POINT
  5
DF3416351A9F3587
100
AcDbEntity
  8
PORTS
  6
CONTINUOUS
100
AcDbPoint
 10
1501.0
 20
-637.0
 30
0.0
  0
ENDBLK
  5
DF3416351A9F3589
100
AcDbEntity
  8
PORTS
  6
CONTINUOUS
100
AcDbBlockEnd
  0
BLOCK
  5
DF3415383A47D4A4
100
AcDbEntity
  8
PORTS
  6
CONTINUOUS
100
AcDbBlockBegin
  2
IO_YGR_DATAIN_0
 70
     2
 10
0.0
 20
0.0
 30
0.0
  1

  0
POLYLINE
  5
DF3415383A47D49A
100
AcDbEntity
  8
PORTS
  6
CONTINUOUS
100
AcDb2dPolyline
 66
     1
 10
0.0
 20
0.0
 30
0.0
 70
     1
  0
VERTEX
  5
DF3415383A47D49B
100
AcDbEntity
  8
PORTS
  6
CONTINUOUS
100
AcDbVertex
100
AcDb2dVertex
 10
1580.0
 20
-480.0
 30
0.0
  0
VERTEX
  5
DF3415383A47D49C
100
AcDbEntity
  8
PORTS
  6
CONTINUOUS
100
AcDbVertex
100
AcDb2dVertex
 10
1572.0
 20
-486.0
 30
0.0
  0
VERTEX
  5
DF3415383A47D49D
100
AcDbEntity
  8
PORTS
  6
CONTINUOUS
100
AcDbVertex
100
AcDb2dVertex
 10
1500.0
 20
-486.0
 30
0.0
  0
VERTEX
  5
DF3415383A47D49E
100
AcDbEntity
  8
PORTS
  6
CONTINUOUS
100
AcDbVertex
100
AcDb2dVertex
 10
1500.0
 20
-474.0
 30
0.0
  0
VERTEX
  5
DF3415383A47D49F
100
AcDbEntity
  8
PORTS
  6
CONTINUOUS
100
AcDbVertex
100
AcDb2dVertex
 10
1572.0
 20
-474.0
 30
0.0
  0
VERTEX
  5
DF3415383A47D4A0
100
AcDbEntity
  8
PORTS
  6
CONTINUOUS
100
AcDbVertex
100
AcDb2dVertex
 10
1580.0
 20
-480.0
 30
0.0
  0
SEQEND
  5
DF3415383A47D4A1
100
AcDbEntity
  8
PORTS
  6
CONTINUOUS
  0
POINT
  5
DF3415383A47D4A2
100
AcDbEntity
  8
PORTS
  6
CONTINUOUS
100
AcDbPoint
 10
1500.0
 20
-480.0
 30
0.0
  0
ATTDEF
  5
DF3415383A47D4A3
100
AcDbEntity
  8
PORTS
  6
CONTINUOUS
100
AcDbText
 10
1502.0
 20
-468.0
 30
0.0
 40
10.0
  1

 50
0.000019
  7
SIMPLEX
100
AcDbAttributeDefinition
  3

  2
SIDE
 70
     0
  0
ENDBLK
  5
DF3415383A47D4A5
100
AcDbEntity
  8
PORTS
  6
CONTINUOUS
100
AcDbBlockEnd
  0
BLOCK
  5
F555BB614BA90950
100
AcDbEntity
  8
DETAIL_MEDIUM
  6
CONTINUOUS
100
AcDbBlockBegin
  2
IO_YGR_DELAY_DATAIN0_USED
 70
     0
 10
0.0
 20
0.0
 30
0.0
  1

  0
LINE
  5
F555BB614BA90936
100
AcDbEntity
  8
DETAIL_MEDIUM
  6
CONTINUOUS
100
AcDbLine
 10
979.0
 20
-496.0
 30
0.0
 11
1478.0
 21
-496.0
 31
0.0
  0
LINE
  5
F555BB614BA90935
100
AcDbEntity
  8
DETAIL_MEDIUM
  6
CONTINUOUS
100
AcDbLine
 10
979.0
 20
-533.0
 30
0.0
 11
979.0
 21
-496.0
 31
0.0
  0
ENDBLK
  5
F555BB614BA90951
100
AcDbEntity
  8
DETAIL_MEDIUM
  6
CONTINUOUS
100
AcDbBlockEnd
  0
BLOCK
  5
F555BB614BA9094D
100
AcDbEntity
  8
DETAIL_MEDIUM
  6
CONTINUOUS
100
AcDbBlockBegin
  2
IO_YGR_DELAY_DATAIN1_USED
 70
     0
 10
0.0
 20
0.0
 30
0.0
  1

  0
LINE
  5
F555BB614BA9094B
100
AcDbEntity
  8
DETAIL_MEDIUM
  6
CONTINUOUS
100
AcDbLine
 10
1414.0
 20
-613.0
 30
0.0
 11
1478.0
 21
-613.0
 31
0.0
  0
LINE
  5
F555BB614BA90947
100
AcDbEntity
  8
DETAIL_MEDIUM
  6
CONTINUOUS
100
AcDbLine
 10
1414.0
 20
-459.0
 30
0.0
 11
1414.0
 21
-613.0
 31
0.0
  0
LINE
  5
F555BB614BA90945
100
AcDbEntity
  8
DETAIL_MEDIUM
  6
CONTINUOUS
100
AcDbLine
 10
1414.0
 20
-459.0
 30
0.0
 11
964.0
 21
-459.0
 31
0.0
  0
LINE
  5
F555BB614BA9093D
100
AcDbEntity
  8
DETAIL_MEDIUM
  6
CONTINUOUS
100
AcDbLine
 10
861.0
 20
-459.0
 30
0.0
 11
884.0
 21
-459.0
 31
0.0
  0
LINE
  5
F555BB614BA90949
100
AcDbEntity
  8
DETAIL_MEDIUM
  6
CONTINUOUS
100
AcDbLine
 10
861.0
 20
-459.0
 30
0.0
 11
861.0
 21
-623.0
 31
0.0
  0
ENDBLK
  5
F555BB614BA9094E
100
AcDbEntity
  8
DETAIL_MEDIUM
  6
CONTINUOUS
100
AcDbBlockEnd
  0
BLOCK
  5
F555BB614BA90957
100
AcDbEntity
  8
DETAIL_MEDIUM
  6
CONTINUOUS
100
AcDbBlockBegin
  2
IO_YGR_DELAY_DATAIN0_OR_1_USED
 70
     0
 10
0.0
 20
0.0
 30
0.0
  1

  0
LINE
  5
F555BB614BA90939
100
AcDbEntity
  8
DETAIL_MEDIUM
  6
CONTINUOUS
100
AcDbLine
 10
842.0
 20
-623.0
 30
0.0
 11
861.0
 21
-623.0
 31
0.0
  0
ENDBLK
  5
F555BB614BA90958
100
AcDbEntity
  8
DETAIL_MEDIUM
  6
CONTINUOUS
100
AcDbBlockEnd
  0
BLOCK
  5
FDAC069427006454
100
AcDbEntity
  8
DETAIL_MEDIUM
  6
CONTINUOUS
100
AcDbBlockBegin
  2
IO_YGR_REG_1_USED
 70
     0
 10
0.0
 20
0.0
 30
0.0
  1

  0
LINE
  5
1C23F8880AC3407D
100
AcDbEntity
  8
DETAIL_MEDIUM
  6
CONTINUOUS
100
AcDbLine
 10
408.0
 20
-279.0
 30
0.0
 11
388.0
 21
-279.0
 31
0.0
  0
LINE
  5
1C23F8880AC3407C
100
AcDbEntity
  8
DETAIL_MEDIUM
  6
CONTINUOUS
100
AcDbLine
 10
388.0
 20
-239.0
 30
0.0
 11
388.0
 21
-279.0
 31
0.0
  0
LINE
  5
1C23F8880AC3407B
100
AcDbEntity
  8
DETAIL_MEDIUM
  6
CONTINUOUS
100
AcDbLine
 10
508.0
 20
-239.0
 30
0.0
 11
388.0
 21
-239.0
 31
0.0
  0
LINE
  5
1C23F8880AC3407A
100
AcDbEntity
  8
DETAIL_MEDIUM
  6
CONTINUOUS
100
AcDbLine
 10
508.0
 20
-179.0
 30
0.0
 11
508.0
 21
-239.0
 31
0.0
  0
LINE
  5
1C23F8880AC34068
100
AcDbEntity
  8
DETAIL_MEDIUM
  6
CONTINUOUS
100
AcDbLine
 10
568.0
 20
-159.0
 30
0.0
 11
588.0
 21
-159.0
 31
0.0
  0
POLYLINE
  5
1C23F8880AC34069
100
AcDbEntity
  8
DETAIL_MEDIUM
100
AcDb2dPolyline
 66
     1
 10
0.0
 20
0.0
 30
-1.0
 39
2.0
 70
     1
  0
VERTEX
  5
1C23F8880AC3406A
100
AcDbEntity
  8
DETAIL_MEDIUM
100
AcDbVertex
100
AcDb2dVertex
 10
568.0
 20
-149.0
 30
-1.0
  0
VERTEX
  5
1C23F8880AC3406B
100
AcDbEntity
  8
DETAIL_MEDIUM
100
AcDbVertex
100
AcDb2dVertex
 10
538.0
 20
-159.0
 30
-1.0
  0
VERTEX
  5
1C23F8880AC3406C
100
AcDbEntity
  8
DETAIL_MEDIUM
100
AcDbVertex
100
AcDb2dVertex
 10
538.0
 20
-199.0
 30
-1.0
  0
VERTEX
  5
1C23F8880AC3406D
100
AcDbEntity
  8
DETAIL_MEDIUM
100
AcDbVertex
100
AcDb2dVertex
 10
568.0
 20
-209.0
 30
-1.0
  0
VERTEX
  5
1C23F8880AC3406E
100
AcDbEntity
  8
DETAIL_MEDIUM
100
AcDbVertex
100
AcDb2dVertex
 10
568.0
 20
-149.0
 30
-1.0
  0
SEQEND
  5
1C23F8880AC3406F
100
AcDbEntity
  8
DETAIL_MEDIUM
  0
INSERT
  5
FDAC06942700644F
100
AcDbEntity
  8
DETAIL_MEDIUM
  6
CONTINUOUS
100
AcDbBlockReference
  2
IO_YGR_REG_1_USED_SEL_OE
 10
0.0
 20
0.0
 30
0.0
  0
INSERT
  5
FDAC069427006453
100
AcDbEntity
  8
DETAIL_MEDIUM
  6
CONTINUOUS
100
AcDbBlockReference
  2
IO_YGR_REG_1_USED_SEL_GND
 10
0.0
 20
0.0
 30
0.0
  0
POLYLINE
  5
1C23F8880AC34070
100
AcDbEntity
  8
DETAIL_MEDIUM
  6
CONTINUOUS
100
AcDb2dPolyline
 66
     1
 10
0.0
 20
0.0
 30
0.0
  0
VERTEX
  5
1C23F8880AC34071
100
AcDbEntity
  8
DETAIL_MEDIUM
  6
CONTINUOUS
100
AcDbVertex
100
AcDb2dVertex
 10
568.0
 20
-199.0
 30
0.0
  0
VERTEX
  5
1C23F8880AC34072
100
AcDbEntity
  8
DETAIL_MEDIUM
  6
CONTINUOUS
100
AcDbVertex
100
AcDb2dVertex
 10
588.0
 20
-199.0
 30
0.0
  0
VERTEX
  5
1C23F8880AC34073
100
AcDbEntity
  8
DETAIL_MEDIUM
  6
CONTINUOUS
100
AcDbVertex
100
AcDb2dVertex
 10
588.0
 20
-219.0
 30
0.0
  0
VERTEX
  5
1C23F8880AC34074
100
AcDbEntity
  8
DETAIL_MEDIUM
  6
CONTINUOUS
100
AcDbVertex
100
AcDb2dVertex
 10
578.0
 20
-219.0
 30
0.0
  0
VERTEX
  5
1C23F8880AC34075
100
AcDbEntity
  8
DETAIL_MEDIUM
  6
CONTINUOUS
100
AcDbVertex
100
AcDb2dVertex
 10
588.0
 20
-229.0
 30
0.0
  0
VERTEX
  5
1C23F8880AC34076
100
AcDbEntity
  8
DETAIL_MEDIUM
  6
CONTINUOUS
100
AcDbVertex
100
AcDb2dVertex
 10
598.0
 20
-219.0
 30
0.0
  0
VERTEX
  5
1C23F8880AC34077
100
AcDbEntity
  8
DETAIL_MEDIUM
  6
CONTINUOUS
100
AcDbVertex
100
AcDb2dVertex
 10
588.0
 20
-219.0
 30
0.0
  0
SEQEND
  5
1C23F8880AC34078
100
AcDbEntity
  8
DETAIL_MEDIUM
  6
CONTINUOUS
  0
LINE
  5
1C23F8880AC34079
100
AcDbEntity
  8
DETAIL_MEDIUM
100
AcDbLine
 10
538.0
 20
-179.0
 30
-1.0
 11
508.0
 21
-179.0
 31
-1.0
  0
LINE
  5
1C23F8880AC34067
100
AcDbEntity
  8
DETAIL_MEDIUM
  6
CONTINUOUS
100
AcDbLine
 10
588.0
 20
-159.0
 30
0.0
 11
588.0
 21
-89.0
 31
0.0
  0
LINE
  5
1C23F8880AC3407F
100
AcDbEntity
  8
DETAIL_MEDIUM
  6
CONTINUOUS
100
AcDbLine
 10
608.0
 20
-279.0
 30
0.0
 11
608.0
 21
-109.0
 31
0.0
  0
LINE
  5
FDAC069427006446
100
AcDbEntity
  8
DETAIL_MEDIUM
  6
CONTINUOUS
100
AcDbLine
 10
608.0
 20
-109.0
 30
0.0
 11
626.0
 21
-109.0
 31
0.0
  0
LINE
  5
1C23F8880AC3407E
100
AcDbEntity
  8
DETAIL_MEDIUM
  6
CONTINUOUS
100
AcDbLine
 10
488.0
 20
-279.0
 30
0.0
 11
608.0
 21
-279.0
 31
0.0
  0
ENDBLK
  5
FDAC069427006455
100
AcDbEntity
  8
DETAIL_MEDIUM
  6
CONTINUOUS
100
AcDbBlockEnd
  0
BLOCK
  5
DFE5275F001614EC
100
AcDbEntity
  8
PORTS
  6
CONTINUOUS
100
AcDbBlockBegin
  2
IO_YGR_ACLR
 70
     2
 10
0.0
 20
0.0
 30
0.0
  1

  0
POLYLINE
  5
DFE5275F001614E1
100
AcDbEntity
  8
PORTS
  6
CONTINUOUS
100
AcDb2dPolyline
 66
     1
 10
0.0
 20
0.0
 30
0.0
 70
     1
  0
VERTEX
  5
DFE5275F001614E2
100
AcDbEntity
  8
PORTS
  6
CONTINUOUS
100
AcDbVertex
100
AcDb2dVertex
 10
90.0
 20
-410.0
 30
0.0
  0
VERTEX
  5
DFE5275F001614E3
100
AcDbEntity
  8
PORTS
  6
CONTINUOUS
100
AcDbVertex
100
AcDb2dVertex
 10
82.0
 20
-416.0
 30
0.0
  0
VERTEX
  5
DFE5275F001614E4
100
AcDbEntity
  8
PORTS
  6
CONTINUOUS
100
AcDbVertex
100
AcDb2dVertex
 10
10.0
 20
-416.0
 30
0.0
  0
VERTEX
  5
DFE5275F001614E5
100
AcDbEntity
  8
PORTS
  6
CONTINUOUS
100
AcDbVertex
100
AcDb2dVertex
 10
10.0
 20
-404.0
 30
0.0
  0
VERTEX
  5
DFE5275F001614E6
100
AcDbEntity
  8
PORTS
  6
CONTINUOUS
100
AcDbVertex
100
AcDb2dVertex
 10
82.0
 20
-404.0
 30
0.0
  0
VERTEX
  5
DFE5275F001614E7
100
AcDbEntity
  8
PORTS
  6
CONTINUOUS
100
AcDbVertex
100
AcDb2dVertex
 10
90.0
 20
-410.0
 30
0.0
  0
SEQEND
  5
DFE5275F001614E8
100
AcDbEntity
  8
PORTS
  6
CONTINUOUS
  0
POINT
  5
DFE5275F001614E9
100
AcDbEntity
  8
PORTS
  6
CONTINUOUS
100
AcDbPoint
 10
90.0
 20
-410.0
 30
0.0
  0
ATTDEF
  5
DFE5275F001614EA
100
AcDbEntity
  8
PORTS
  6
CONTINUOUS
100
AcDbText
 10
12.0
 20
-398.0
 30
0.0
 40
10.0
  1

  7
SIMPLEX
100
AcDbAttributeDefinition
  3

  2
SIDE
 70
     0
  0
ENDBLK
  5
DFE5275F001614ED
100
AcDbEntity
  8
PORTS
  6
CONTINUOUS
100
AcDbBlockEnd
  0
BLOCK
  5
DF60594FF273AA48
100
AcDbEntity
  8
PORTS
  6
CONTINUOUS
100
AcDbBlockBegin
  2
IO_YGR_SCLR
 70
     2
 10
0.0
 20
0.0
 30
0.0
  1

  0
POLYLINE
  5
DF60594FF273AA3D
100
AcDbEntity
  8
PORTS
  6
CONTINUOUS
100
AcDb2dPolyline
 66
     1
 10
0.0
 20
0.0
 30
0.0
 70
     1
  0
VERTEX
  5
DF60594FF273AA3E
100
AcDbEntity
  8
PORTS
  6
CONTINUOUS
100
AcDbVertex
100
AcDb2dVertex
 10
90.0
 20
-360.0
 30
0.0
  0
VERTEX
  5
DF60594FF273AA3F
100
AcDbEntity
  8
PORTS
  6
CONTINUOUS
100
AcDbVertex
100
AcDb2dVertex
 10
82.0
 20
-366.0
 30
0.0
  0
VERTEX
  5
DF60594FF273AA40
100
AcDbEntity
  8
PORTS
  6
CONTINUOUS
100
AcDbVertex
100
AcDb2dVertex
 10
10.0
 20
-366.0
 30
0.0
  0
VERTEX
  5
DF60594FF273AA41
100
AcDbEntity
  8
PORTS
  6
CONTINUOUS
100
AcDbVertex
100
AcDb2dVertex
 10
10.0
 20
-354.0
 30
0.0
  0
VERTEX
  5
DF60594FF273AA42
100
AcDbEntity
  8
PORTS
  6
CONTINUOUS
100
AcDbVertex
100
AcDb2dVertex
 10
82.0
 20
-354.0
 30
0.0
  0
VERTEX
  5
DF60594FF273AA43
100
AcDbEntity
  8
PORTS
  6
CONTINUOUS
100
AcDbVertex
100
AcDb2dVertex
 10
90.0
 20
-360.0
 30
0.0
  0
SEQEND
  5
DF60594FF273AA44
100
AcDbEntity
  8
PORTS
  6
CONTINUOUS
  0
ATTDEF
  5
DF60594FF273AA46
100
AcDbEntity
  8
PORTS
  6
CONTINUOUS
100
AcDbText
 10
12.0
 20
-348.0
 30
0.0
 40
10.0
  1

  7
SIMPLEX
100
AcDbAttributeDefinition
  3

  2
SIDE
 70
     0
  0
POINT
  5
DF60594FF273AA45
100
AcDbEntity
  8
PORTS
  6
CONTINUOUS
100
AcDbPoint
 10
90.0
 20
-360.0
 30
0.0
  0
ENDBLK
  5
DF60594FF273AA49
100
AcDbEntity
  8
PORTS
  6
CONTINUOUS
100
AcDbBlockEnd
  0
BLOCK
  5
FDAC06942700645C
100
AcDbEntity
  8
DETAIL_MEDIUM
  6
CONTINUOUS
100
AcDbBlockBegin
  2
IO_YGR_REG_0_USED
 70
     0
 10
0.0
 20
0.0
 30
0.0
  1

  0
LINE
  5
FDAC06942700645A
100
AcDbEntity
  8
DETAIL_MEDIUM
  6
CONTINUOUS
100
AcDbLine
 10
656.0
 20
-99.0
 30
0.0
 11
678.0
 21
-99.0
 31
0.0
  0
LINE
  5
FDAC069427006458
100
AcDbEntity
  8
DETAIL_MEDIUM
  6
CONTINUOUS
100
AcDbLine
 10
488.0
 20
-89.0
 30
0.0
 11
626.0
 21
-89.0
 31
0.0
  0
ENDBLK
  5
FDAC06942700645D
100
AcDbEntity
  8
DETAIL_MEDIUM
  6
CONTINUOUS
100
AcDbBlockEnd
  0
BLOCK
  5
DF3414A0433D8842
100
AcDbEntity
  8
DETAIL_MEDIUM
  6
CONTINUOUS
100
AcDbBlockBegin
  2
IO_YGR_CE_MUX
 70
     0
 10
670.0
 20
-60.0
 30
0.0
  1

  0
LINE
  5
DF3414A0433D883F
100
AcDbEntity
  8
DETAIL_MEDIUM
  6
CONTINUOUS
100
AcDbLine
 10
700.0
 20
-30.0
 30
0.0
 11
760.0
 21
-30.0
 31
0.0
  0
POLYLINE
  5
DF2FCAEAB67126A9
100
AcDbEntity
  8
DETAIL_MEDIUM
100
AcDb2dPolyline
 66
     1
 10
0.0
 20
0.0
 30
0.0
 39
2.0
 70
     1
  0
VERTEX
  5
DF2FCAEAB67126AA
100
AcDbEntity
  8
DETAIL_MEDIUM
100
AcDbVertex
100
AcDb2dVertex
 10
670.0
 20
0.0
 30
0.0
  0
VERTEX
  5
DF2FCAEAB67126AB
100
AcDbEntity
  8
DETAIL_MEDIUM
100
AcDbVertex
100
AcDb2dVertex
 10
700.0
 20
-10.0
 30
0.0
  0
VERTEX
  5
DF2FCAEAB67126AC
100
AcDbEntity
  8
DETAIL_MEDIUM
100
AcDbVertex
100
AcDb2dVertex
 10
700.0
 20
-50.0
 30
0.0
  0
VERTEX
  5
DF2FCAEAB67126AD
100
AcDbEntity
  8
DETAIL_MEDIUM
100
AcDbVertex
100
AcDb2dVertex
 10
670.0
 20
-60.0
 30
0.0
  0
VERTEX
  5
DF2FCAEAB67126AE
100
AcDbEntity
  8
DETAIL_MEDIUM
100
AcDbVertex
100
AcDb2dVertex
 10
670.0
 20
0.0
 30
0.0
  0
SEQEND
  5
DF2FCAEAB67126AF
100
AcDbEntity
  8
DETAIL_MEDIUM
  0
ENDBLK
  5
DF3414A0433D8844
100
AcDbEntity
  8
DETAIL_MEDIUM
  6
CONTINUOUS
100
AcDbBlockEnd
  0
BLOCK
  5
F555BB614BA9097F
100
AcDbEntity
  8
DETAIL_MEDIUM
  6
CONTINUOUS
100
AcDbBlockBegin
  2
IO_YGR_CE_PATH_USED
 70
     0
 10
0.0
 20
0.0
 30
0.0
  1

  0
LINE
  5
F555BB614BA9097C
100
AcDbEntity
  8
DETAIL_MEDIUM
  6
CONTINUOUS
100
AcDbLine
 10
822.0
 20
-79.0
 30
0.0
 11
882.0
 21
-79.0
 31
0.0
  0
LINE
  5
F555BB614BA9097D
100
AcDbEntity
  8
DETAIL_MEDIUM
  6
CONTINUOUS
100
AcDbLine
 10
965.0
 20
-77.0
 30
0.0
 11
1005.0
 21
-77.0
 31
0.0
  0
LINE
  5
F555BB614BA9097E
100
AcDbEntity
  8
DETAIL_MEDIUM
  6
CONTINUOUS
100
AcDbLine
 10
1005.0
 20
-77.0
 30
0.0
 11
1005.0
 21
-147.0
 31
0.0
  0
LINE
  5
F555BB614BA9097B
100
AcDbEntity
  8
DETAIL_MEDIUM
  6
CONTINUOUS
100
AcDbLine
 10
732.0
 20
-149.0
 30
0.0
 11
1005.0
 21
-149.0
 31
0.0
  0
LINE
  5
F555BB614BA9097A
100
AcDbEntity
  8
DETAIL_MEDIUM
  6
CONTINUOUS
100
AcDbLine
 10
732.0
 20
-149.0
 30
0.0
 11
732.0
 21
-599.0
 31
0.0
  0
ENDBLK
  5
F555BB614BA90980
100
AcDbEntity
  8
DETAIL_MEDIUM
  6
CONTINUOUS
100
AcDbBlockEnd
  0
BLOCK
  5
FDAC06942712FAF6
100
AcDbEntity
  8
DETAIL_MEDIUM
  6
CONTINUOUS
100
AcDbBlockBegin
  2
IO_YGR_CE_PATH_GND
 70
     0
 10
0.0
 20
0.0
 30
0.0
  1

  0
POLYLINE
  5
1C23F8880AE86D80
100
AcDbEntity
  8
DETAIL_MEDIUM
  6
CONTINUOUS
100
AcDb2dPolyline
 66
     1
 10
0.0
 20
0.0
 30
0.0
  0
VERTEX
  5
1C23F8880AE86D81
100
AcDbEntity
  8
DETAIL_MEDIUM
  6
CONTINUOUS
100
AcDbVertex
100
AcDb2dVertex
 10
788.0
 20
-99.0
 30
0.0
  0
VERTEX
  5
1C23F8880AE86D82
100
AcDbEntity
  8
DETAIL_MEDIUM
  6
CONTINUOUS
100
AcDbVertex
100
AcDb2dVertex
 10
768.0
 20
-99.0
 30
0.0
  0
VERTEX
  5
1C23F8880AE86D83
100
AcDbEntity
  8
DETAIL_MEDIUM
  6
CONTINUOUS
100
AcDbVertex
100
AcDb2dVertex
 10
768.0
 20
-119.0
 30
0.0
  0
VERTEX
  5
1C23F8880AE86D84
100
AcDbEntity
  8
DETAIL_MEDIUM
  6
CONTINUOUS
100
AcDbVertex
100
AcDb2dVertex
 10
758.0
 20
-119.0
 30
0.0
  0
VERTEX
  5
1C23F8880AE86D85
100
AcDbEntity
  8
DETAIL_MEDIUM
  6
CONTINUOUS
100
AcDbVertex
100
AcDb2dVertex
 10
768.0
 20
-129.0
 30
0.0
  0
VERTEX
  5
1C23F8880AE86D86
100
AcDbEntity
  8
DETAIL_MEDIUM
  6
CONTINUOUS
100
AcDbVertex
100
AcDb2dVertex
 10
778.0
 20
-119.0
 30
0.0
  0
VERTEX
  5
1C23F8880AE86D87
100
AcDbEntity
  8
DETAIL_MEDIUM
  6
CONTINUOUS
100
AcDbVertex
100
AcDb2dVertex
 10
768.0
 20
-119.0
 30
0.0
  0
SEQEND
  5
1C23F8880AE86D88
100
AcDbEntity
  8
DETAIL_MEDIUM
  6
CONTINUOUS
  0
ENDBLK
  5
FDAC06942712FAF7
100
AcDbEntity
  8
DETAIL_MEDIUM
  6
CONTINUOUS
100
AcDbBlockEnd
  0
BLOCK
  5
DF3414A0433D8854
100
AcDbEntity
  8
DETAIL_MEDIUM
  6
CONTINUOUS
100
AcDbBlockBegin
  2
IO_YGR_CE_PATH_VCC
 70
     0
 10
750.0
 20
10.0
 30
0.0
  1

  0
POLYLINE
  5
DF3414A04339CF9B
100
AcDbEntity
  8
DETAIL_MEDIUM
  6
CONTINUOUS
100
AcDb2dPolyline
 66
     1
 10
0.0
 20
0.0
 30
0.0
  0
VERTEX
  5
DF3414A0433D8933
100
AcDbEntity
  8
DETAIL_MEDIUM
  6
CONTINUOUS
100
AcDbVertex
100
AcDb2dVertex
 10
780.0
 20
10.0
 30
0.0
  0
VERTEX
  5
DF3414A0433D8934
100
AcDbEntity
  8
DETAIL_MEDIUM
  6
CONTINUOUS
100
AcDbVertex
100
AcDb2dVertex
 10
760.0
 20
10.0
 30
0.0
  0
VERTEX
  5
DF3414A0433D8935
100
AcDbEntity
  8
DETAIL_MEDIUM
  6
CONTINUOUS
100
AcDbVertex
100
AcDb2dVertex
 10
760.0
 20
30.0
 30
0.0
  0
VERTEX
  5
DF3414A0433D8936
100
AcDbEntity
  8
DETAIL_MEDIUM
  6
CONTINUOUS
100
AcDbVertex
100
AcDb2dVertex
 10
750.0
 20
30.0
 30
0.0
  0
VERTEX
  5
DF3414A0433D8937
100
AcDbEntity
  8
DETAIL_MEDIUM
  6
CONTINUOUS
100
AcDbVertex
100
AcDb2dVertex
 10
760.0
 20
40.0
 30
0.0
  0
VERTEX
  5
DF3414A0433D8938
100
AcDbEntity
  8
DETAIL_MEDIUM
  6
CONTINUOUS
100
AcDbVertex
100
AcDb2dVertex
 10
770.0
 20
30.0
 30
0.0
  0
VERTEX
  5
DF3414A0433D8939
100
AcDbEntity
  8
DETAIL_MEDIUM
  6
CONTINUOUS
100
AcDbVertex
100
AcDb2dVertex
 10
760.0
 20
30.0
 30
0.0
  0
SEQEND
  5
DF3414A0433D893A
100
AcDbEntity
  8
DETAIL_MEDIUM
  6
CONTINUOUS
  0
ENDBLK
  5
DF3414A0433D8856
100
AcDbEntity
  8
DETAIL_MEDIUM
  6
CONTINUOUS
100
AcDbBlockEnd
  0
BLOCK
  5
DF3414A0433D8858
100
AcDbEntity
  8
DETAIL_MEDIUM
  6
CONTINUOUS
100
AcDbBlockBegin
  2
IO_YGR_CE_PATH_NOT_INVERTED
 70
     0
 10
760.0
 20
-30.0
 30
0.0
  1

  0
LINE
  5
DF3414A0433D8840
100
AcDbEntity
  8
DETAIL_MEDIUM
  6
CONTINUOUS
100
AcDbLine
 10
760.0
 20
-30.0
 30
0.0
 11
780.0
 21
-30.0
 31
0.0
  0
ENDBLK
  5
DF3414A0433D885A
100
AcDbEntity
  8
DETAIL_MEDIUM
  6
CONTINUOUS
100
AcDbBlockEnd
  0
BLOCK
  5
F555BB614BA90730
100
AcDbEntity
  8
DETAIL_MEDIUM
  6
CONTINUOUS
100
AcDbBlockBegin
  2
IO_YGR_CE_PATH_INVERTED
 70
     0
 10
0.0
 20
0.0
 30
0.0
  1

  0
LINE
  5
F555BB614BA9072D
100
AcDbEntity
  8
DETAIL_MEDIUM
  6
CONTINUOUS
100
AcDbLine
 10
772.0
 20
-89.0
 30
0.0
 11
772.0
 21
-69.0
 31
0.0
  0
LINE
  5
F555BB614BA9072E
100
AcDbEntity
  8
DETAIL_MEDIUM
  6
CONTINUOUS
100
AcDbLine
 10
772.0
 20
-69.0
 30
0.0
 11
780.0
 21
-69.0
 31
0.0
  0
CIRCLE
  5
F555BB614BA90711
100
AcDbEntity
  8
DETAIL_MEDIUM
  6
CONTINUOUS
100
AcDbCircle
 10
786.0
 20
-69.0
 30
0.0
 40
5.656854
  0
ENDBLK
  5
F555BB614BA90731
100
AcDbEntity
  8
DETAIL_MEDIUM
  6
CONTINUOUS
100
AcDbBlockEnd
  0
BLOCK
  5
FDAC069427702BE9
100
AcDbEntity
  8
DETAIL_MEDIUM
  6
CONTINUOUS
100
AcDbBlockBegin
  2
IO_YGR
 70
     0
 10
0.0
 20
0.0
 30
0.0
  1

  0
INSERT
  5
FDAC069427702A45
100
AcDbEntity
  8
DETAIL_MEDIUM
  6
CONTINUOUS
100
AcDbBlockReference
 66
     1
  2
IO_YGR_REGISTER
 10
408.0
 20
-199.0
 30
-1.0
  0
ATTRIB
  5
FDAC069427702A46
100
AcDbEntity
  8
DETAIL_MEDIUM
  6
CONTINUOUS
100
AcDbText
 10
438.0
 20
-139.0
 30
-1.0
 40
10.0
  1
0
  7
SIMPLEX
100
AcDbAttribute
  2
index
 70
     0
  0
SEQEND
  5
FDAC069427702A47
100
AcDbEntity
  8
DETAIL_MEDIUM
  6
CONTINUOUS
  0
INSERT
  5
FDAC069427702A48
100
AcDbEntity
  8
DETAIL_MEDIUM
  6
CONTINUOUS
100
AcDbBlockReference
 66
     1
  2
IO_YGR_REGISTER
 10
408.0
 20
-389.0
 30
-1.0
  0
ATTRIB
  5
FDAC069427702A49
100
AcDbEntity
  8
DETAIL_MEDIUM
  6
CONTINUOUS
100
AcDbText
 10
438.0
 20
-329.0
 30
-1.0
 40
10.0
  1
1
  7
SIMPLEX
100
AcDbAttribute
  2
index
 70
     0
  0
SEQEND
  5
FDAC069427702A4A
100
AcDbEntity
  8
DETAIL_MEDIUM
  6
CONTINUOUS
  0
INSERT
  5
FDAC069427702A4B
100
AcDbEntity
  8
DETAIL_MEDIUM
  6
CONTINUOUS
100
AcDbBlockReference
 66
     1
  2
IO_YGR_REGISTER
 10
408.0
 20
-609.0
 30
-1.0
  0
ATTRIB
  5
FDAC069427702A4C
100
AcDbEntity
  8
DETAIL_MEDIUM
  6
CONTINUOUS
100
AcDbText
 10
438.0
 20
-549.0
 30
-1.0
 40
10.0
  1
2
  7
SIMPLEX
100
AcDbAttribute
  2
index
 70
     0
  0
SEQEND
  5
FDAC069427702A4D
100
AcDbEntity
  8
DETAIL_MEDIUM
  6
CONTINUOUS
  0
INSERT
  5
FDAC069427702A4E
100
AcDbEntity
  8
DETAIL_MEDIUM
  6
CONTINUOUS
100
AcDbBlockReference
  2
IO_YGR_REG_1_EN
 10
328.0
 20
-359.0
 30
0.0
  0
INSERT
  5
FDAC069427702A4F
100
AcDbEntity
  8
DETAIL_MEDIUM
  6
CONTINUOUS
100
AcDbBlockReference
  2
IO_YGR_REG_0_ACLR
 10
348.0
 20
-409.0
 30
0.0
  0
INSERT
  5
FDAC069427702A50
100
AcDbEntity
  8
DETAIL_MEDIUM
  6
CONTINUOUS
100
AcDbBlockReference
  2
IO_YGR_REG_1_ACLR
 10
348.0
 20
-409.0
 30
0.0
  0
INSERT
  5
FDAC069427702A51
100
AcDbEntity
  8
DETAIL_MEDIUM
  6
CONTINUOUS
100
AcDbBlockReference
  2
IO_YGR_REG_0_SCLR
 10
128.0
 20
-359.0
 30
0.0
  0
INSERT
  5
FDAC069427702A52
100
AcDbEntity
  8
DETAIL_MEDIUM
  6
CONTINUOUS
100
AcDbBlockReference
  2
IO_YGR_REG_2_SCLR
 10
448.0
 20
-479.0
 30
0.0
  0
INSERT
  5
FDAC069427702A53
100
AcDbEntity
  8
DETAIL_MEDIUM
  6
CONTINUOUS
100
AcDbBlockReference
  2
IO_YGR_REG_3_SCLR
 10
128.0
 20
-669.0
 30
0.0
  0
INSERT
  5
FDAC069427702A54
100
AcDbEntity
  8
PORTS
  6
CONTINUOUS
100
AcDbBlockReference
 66
     1
  2
IO_YGR_OE
 10
8.0
 20
1.0
 30
0.0
  0
ATTRIB
  5
FDAC069427702A55
100
AcDbEntity
  8
PORTS
  6
CONTINUOUS
100
AcDbText
 10
20.0
 20
-77.0
 30
0.0
 40
10.0
  1
LEFT
  7
SIMPLEX
100
AcDbAttribute
  2
SIDE
 70
     0
  0
SEQEND
  5
FDAC069427702A56
100
AcDbEntity
  8
PORTS
  6
CONTINUOUS
  0
INSERT
  5
FDAC069427702A57
100
AcDbEntity
  8
DETAIL_MEDIUM
  6
CONTINUOUS
100
AcDbBlockReference
  2
IO_YGR_OE_WIRE1
 10
8.0
 20
1.0
 30
0.0
  0
INSERT
  5
FDAC069427702A58
100
AcDbEntity
  8
DETAIL_MEDIUM
  6
CONTINUOUS
100
AcDbBlockReference
  2
IO_YGR_OE_WIRE2
 10
8.0
 20
1.0
 30
0.0
  0
INSERT
  5
FDAC069427702A59
100
AcDbEntity
  8
PORTS
  6
CONTINUOUS
100
AcDbBlockReference
 66
     1
  2
IO_YGR_CLKOUT
 10
8.0
 20
1.0
 30
0.0
  0
ATTRIB
  5
FDAC069427702A5A
100
AcDbEntity
  8
PORTS
  6
CONTINUOUS
100
AcDbText
 10
20.0
 20
-117.0
 30
0.0
 40
10.0
  1
LEFT
  7
SIMPLEX
100
AcDbAttribute
  2
SIDE
 70
     0
  0
SEQEND
  5
FDAC069427702A5B
100
AcDbEntity
  8
PORTS
  6
CONTINUOUS
  0
INSERT
  5
FDAC069427702A5C
100
AcDbEntity
  8
DETAIL_MEDIUM
  6
CONTINUOUS
100
AcDbBlockReference
  2
IO_YGR_CLKOUT_WIRE1
 10
8.0
 20
1.0
 30
0.0
  0
INSERT
  5
FDAC069427702A5D
100
AcDbEntity
  8
DETAIL_MEDIUM
  6
CONTINUOUS
100
AcDbBlockReference
  2
IO_YGR_CLKOUT_WIRE2
 10
8.0
 20
1.0
 30
0.0
  0
INSERT
  5
FDAC069427702A5E
100
AcDbEntity
  8
DETAIL_MEDIUM
  6
CONTINUOUS
100
AcDbBlockReference
  2
IO_YGR_CLKOUT_WIRE3
 10
8.0
 20
1.0
 30
0.0
  0
INSERT
  5
FDAC069427702A5F
100
AcDbEntity
  8
DETAIL_MEDIUM
  6
CONTINUOUS
100
AcDbBlockReference
  2
IO_YGR_CLKOUT_WIRE4
 10
8.0
 20
1.0
 30
0.0
  0
INSERT
  5
FDAC069427702A60
100
AcDbEntity
  8
PORTS
  6
CONTINUOUS
100
AcDbBlockReference
 66
     1
  2
IO_YGR_CEOUT
 10
8.0
 20
1.0
 30
0.0
  0
ATTRIB
  5
FDAC069427702A61
100
AcDbEntity
  8
PORTS
  6
CONTINUOUS
100
AcDbText
 10
20.0
 20
-157.0
 30
0.0
 40
10.0
  1
LEFT
  7
SIMPLEX
100
AcDbAttribute
  2
SIDE
 70
     0
  0
SEQEND
  5
FDAC069427702A62
100
AcDbEntity
  8
PORTS
  6
CONTINUOUS
  0
INSERT
  5
FDAC069427702A63
100
AcDbEntity
  8
DETAIL_MEDIUM
  6
CONTINUOUS
100
AcDbBlockReference
  2
IO_YGR_CEOUT_WIRE1
 10
8.0
 20
1.0
 30
0.0
  0
INSERT
  5
FDAC069427702A64
100
AcDbEntity
  8
DETAIL_MEDIUM
  6
CONTINUOUS
100
AcDbBlockReference
  2
IO_YGR_CEOUT_WIRE2
 10
8.0
 20
1.0
 30
0.0
  0
INSERT
  5
FDAC069427702A65
100
AcDbEntity
  8
DETAIL_MEDIUM
  6
CONTINUOUS
100
AcDbBlockReference
  2
IO_YGR_CEOUT_WIRE3
 10
8.0
 20
1.0
 30
0.0
  0
INSERT
  5
FDAC069427702A66
100
AcDbEntity
  8
DETAIL_MEDIUM
  6
CONTINUOUS
100
AcDbBlockReference
  2
IO_YGR_CEOUT_WIRE4
 10
8.0
 20
1.0
 30
0.0
  0
INSERT
  5
FDAC069427702A67
100
AcDbEntity
  8
DETAIL_MEDIUM
  6
CONTINUOUS
100
AcDbBlockReference
  2
IO_YGR_REG_0_EN
 10
8.0
 20
1.0
 30
0.0
  0
INSERT
  5
FDAC069427702A68
100
AcDbEntity
  8
DETAIL_MEDIUM
  6
CONTINUOUS
100
AcDbBlockReference
  2
IO_YGR_REG_2_EN
 10
8.0
 20
1.0
 30
0.0
  0
INSERT
  5
FDAC069427702A69
100
AcDbEntity
  8
PORTS
  6
CONTINUOUS
100
AcDbBlockReference
 66
     1
  2
IO_YGR_SCLR
 10
8.0
 20
1.0
 30
0.0
  0
ATTRIB
  5
FDAC069427702A6A
100
AcDbEntity
  8
PORTS
  6
CONTINUOUS
100
AcDbText
 10
20.0
 20
-347.0
 30
0.0
 40
10.0
  1
LEFT
  7
SIMPLEX
100
AcDbAttribute
  2
SIDE
 70
     0
  0
SEQEND
  5
FDAC069427702A6B
100
AcDbEntity
  8
PORTS
  6
CONTINUOUS
  0
INSERT
  5
FDAC069427702A6C
100
AcDbEntity
  8
DETAIL_MEDIUM
  6
CONTINUOUS
100
AcDbBlockReference
  2
IO_YGR_SCLR_WIRE1
 10
8.0
 20
1.0
 30
0.0
  0
INSERT
  5
FDAC069427702A6D
100
AcDbEntity
  8
DETAIL_MEDIUM
  6
CONTINUOUS
100
AcDbBlockReference
  2
IO_YGR_REG_24_OR_5_SCLR
 10
8.0
 20
1.0
 30
0.0
  0
INSERT
  5
FDAC069427702A6E
100
AcDbEntity
  8
DETAIL_MEDIUM
  6
CONTINUOUS
100
AcDbBlockReference
  2
IO_YGR_SCLR_WIRE2
 10
8.0
 20
1.0
 30
0.0
  0
INSERT
  5
FDAC069427702A6F
100
AcDbEntity
  8
PORTS
  6
CONTINUOUS
100
AcDbBlockReference
 66
     1
  2
IO_YGR_ACLR
 10
8.0
 20
1.0
 30
0.0
  0
ATTRIB
  5
FDAC069427702A70
100
AcDbEntity
  8
PORTS
  6
CONTINUOUS
100
AcDbText
 10
20.0
 20
-397.0
 30
0.0
 40
10.0
  1
LEFT
  7
SIMPLEX
100
AcDbAttribute
  2
SIDE
 70
     0
  0
SEQEND
  5
FDAC069427702A71
100
AcDbEntity
  8
PORTS
  6
CONTINUOUS
  0
INSERT
  5
FDAC069427702A72
100
AcDbEntity
  8
DETAIL_MEDIUM
  6
CONTINUOUS
100
AcDbBlockReference
  2
IO_YGR_ACLR_WIRE1
 10
8.0
 20
1.0
 30
0.0
  0
INSERT
  5
FDAC069427702A73
100
AcDbEntity
  8
DETAIL_MEDIUM
  6
CONTINUOUS
100
AcDbBlockReference
  2
IO_YGR_REG_2_ACLR
 10
8.0
 20
1.0
 30
0.0
  0
INSERT
  5
FDAC069427702A74
100
AcDbEntity
  8
DETAIL_MEDIUM
  6
CONTINUOUS
100
AcDbBlockReference
  2
IO_YGR_ACLR_WIRE2
 10
8.0
 20
1.0
 30
0.0
  0
INSERT
  5
FDAC069427702A75
100
AcDbEntity
  8
PORTS
  6
CONTINUOUS
100
AcDbBlockReference
 66
     1
  2
IO_YGR_DIN_0
 10
8.0
 20
1.0
 30
0.0
  0
ATTRIB
  5
FDAC069427702A76
100
AcDbEntity
  8
PORTS
  6
CONTINUOUS
100
AcDbText
 10
20.0
 20
-487.0
 30
0.0
 40
10.0
  1
LEFT
  7
SIMPLEX
100
AcDbAttribute
  2
SIDE
 70
     0
  0
SEQEND
  5
FDAC069427702A77
100
AcDbEntity
  8
PORTS
  6
CONTINUOUS
  0
INSERT
  5
FDAC069427702A78
100
AcDbEntity
  8
DETAIL_MEDIUM
  6
CONTINUOUS
100
AcDbBlockReference
  2
IO_YGR_DIN_0_WIRE1
 10
8.0
 20
1.0
 30
0.0
  0
INSERT
  5
FDAC069427702A79
100
AcDbEntity
  8
DETAIL_MEDIUM
  6
CONTINUOUS
100
AcDbBlockReference
  2
IO_YGR_DIN_0_WIRE2
 10
8.0
 20
1.0
 30
0.0
  0
INSERT
  5
FDAC069427702A7A
100
AcDbEntity
  8
DETAIL_MEDIUM
  6
CONTINUOUS
100
AcDbBlockReference
  2
IO_YGR_REG_2_USED_WIRE
 10
8.0
 20
1.0
 30
0.0
  0
INSERT
  5
FDAC069427702A7B
100
AcDbEntity
  8
PORTS
  6
CONTINUOUS
100
AcDbBlockReference
 66
     1
  2
IO_YGR_DIN_1
 10
8.0
 20
1.0
 30
0.0
  0
ATTRIB
  5
FDAC069427702A7C
100
AcDbEntity
  8
PORTS
  6
CONTINUOUS
100
AcDbText
 10
20.0
 20
-677.0
 30
0.0
 40
10.0
  1
LEFT
 50
0.000019
  7
SIMPLEX
100
AcDbAttribute
  2
SIDE
 70
     0
  0
SEQEND
  5
FDAC069427702A7D
100
AcDbEntity
  8
PORTS
  6
CONTINUOUS
  0
INSERT
  5
FDAC069427702A7E
100
AcDbEntity
  8
DETAIL_MEDIUM
  6
CONTINUOUS
100
AcDbBlockReference
  2
IO_YGR_DIN_1_WIRE1
 10
8.0
 20
1.0
 30
0.0
  0
INSERT
  5
FDAC069427702A7F
100
AcDbEntity
  8
DETAIL_MEDIUM
  6
CONTINUOUS
100
AcDbBlockReference
  2
IO_YGR_DIN_1_WIRE2
 10
8.0
 20
1.0
 30
0.0
  0
INSERT
  5
FDAC069427702A80
100
AcDbEntity
  8
DETAIL_MEDIUM
  6
CONTINUOUS
100
AcDbBlockReference
  2
IO_YGR_DDR_CLKOUT
 10
-4.0
 20
10.0
 30
0.0
  0
INSERT
  5
FDAC069427702A81
100
AcDbEntity
  8
DETAIL_MEDIUM
  6
CONTINUOUS
100
AcDbBlockReference
 66
     1
  2
IO_YGR_REGISTER
 10
408.0
 20
-799.0
 30
-1.0
  0
ATTRIB
  5
FDAC069427702A82
100
AcDbEntity
  8
DETAIL_MEDIUM
  6
CONTINUOUS
100
AcDbText
 10
438.0
 20
-739.0
 30
-1.0
 40
10.0
  1
3
  7
SIMPLEX
100
AcDbAttribute
  2
index
 70
     0
  0
SEQEND
  5
FDAC069427702A83
100
AcDbEntity
  8
DETAIL_MEDIUM
  6
CONTINUOUS
  0
INSERT
  5
FDAC069427702A84
100
AcDbEntity
  8
DETAIL_MEDIUM
  6
CONTINUOUS
100
AcDbBlockReference
  2
IO_YGR_REG_3_EN
 10
328.0
 20
-769.0
 30
0.0
  0
INSERT
  5
FDAC069427702A85
100
AcDbEntity
  8
DETAIL_MEDIUM
  6
CONTINUOUS
100
AcDbBlockReference
  2
IO_YGR_REG_3_ON_ACLR
 10
-4.0
 20
10.0
 30
0.0
  0
INSERT
  5
FDAC069427702A86
100
AcDbEntity
  8
DETAIL_MEDIUM
  6
CONTINUOUS
100
AcDbBlockReference
  2
IO_YGR_REG_3_ACLR
 10
-4.0
 20
10.0
 30
0.0
  0
INSERT
  5
FDAC069427702A87
100
AcDbEntity
  8
DETAIL_MEDIUM
  6
CONTINUOUS
100
AcDbBlockReference
  2
IO_YGR_ON_CHIP_TERMINATION
 10
0.0
 20
0.0
 30
0.0
  0
INSERT
  5
FDAC069427702A88
100
AcDbEntity
  8
PORTS
  6
CONTINUOUS
100
AcDbBlockReference
 66
     1
  2
IO_YGR_CONTROL_IN_PORT
 10
0.0
 20
0.0
 30
0.0
  0
ATTRIB
  5
FDAC069427702A89
100
AcDbEntity
  8
PORTS
  6
CONTINUOUS
100
AcDbText
 10
20.0
 20
-796.0
 30
0.0
 40
10.0
  1
LEFT
  7
SIMPLEX
100
AcDbAttribute
  2
SIDE
 70
     0
  0
SEQEND
  5
FDAC069427702A8A
100
AcDbEntity
  8
PORTS
  6
CONTINUOUS
  0
INSERT
  5
FDAC069427702A8B
100
AcDbEntity
  8
DETAIL_MEDIUM
  6
CONTINUOUS
100
AcDbBlockReference
  2
IO_YGR_ACLR_POINT1
 10
0.0
 20
0.0
 30
0.0
  0
INSERT
  5
FDAC069427702A8C
100
AcDbEntity
  8
DETAIL_MEDIUM
  6
CONTINUOUS
100
AcDbBlockReference
  2
IO_YGR_DDR_CLKOUT2
 10
0.0
 20
0.0
 30
0.0
  0
INSERT
  5
FDAC069427702A8D
100
AcDbEntity
  8
DETAIL_MEDIUM
  6
CONTINUOUS
100
AcDbBlockReference
  2
IO_YGR_CLKOUT_WIRE5
 10
0.0
 20
0.0
 30
0.0
  0
INSERT
  5
FDAC069427702A91
100
AcDbEntity
  8
DETAIL_MEDIUM
  6
CONTINUOUS
100
AcDbBlockReference
  2
IO_YGR_REG_1_USED
 10
0.0
 20
0.0
 30
0.0
  0
INSERT
  5
FDAC069427702A8F
100
AcDbEntity
  8
DETAIL_MEDIUM
  6
CONTINUOUS
100
AcDbBlockReference
  2
IO_YGR_REG_4_ACLR
 10
-4.0
 20
10.0
 30
0.0
  0
INSERT
  5
FDAC069427702A90
100
AcDbEntity
  8
DETAIL_MEDIUM
  6
CONTINUOUS
100
AcDbBlockReference
  2
IO_YGR_REG_2_BYPASS
 10
188.0
 20
-499.0
 30
0.0
  0
INSERT
  5
FDAC069427702A92
100
AcDbEntity
  8
DETAIL_MEDIUM
  6
CONTINUOUS
100
AcDbBlockReference
  2
IO_YGR_REG_4_SCLR
 10
-4.0
 20
10.0
 30
0.0
  0
INSERT
  5
FDAC069427702A94
100
AcDbEntity
  8
DETAIL_MEDIUM
  6
CONTINUOUS
100
AcDbBlockReference
  2
IO_YGR_PAD
 10
778.0
 20
-643.0
 30
0.0
  0
INSERT
  5
FDAC069427702A95
100
AcDbEntity
  8
DETAIL_MEDIUM
  6
CONTINUOUS
100
AcDbBlockReference
 66
     1
  2
IO_YGR_DELAY_CHAIN
 10
548.0
 20
-529.0
 30
0.0
  0
ATTRIB
  5
FDAC069427702A96
100
AcDbEntity
  8
DETAIL_MEDIUM
  6
CONTINUOUS
100
AcDbText
 10
618.0
 20
-519.0
 30
0.0
 40
10.0
  1
0
  7
SIMPLEX
100
AcDbAttribute
  2
index
 70
     0
  0
ATTRIB
  5
FDAC069427702A97
100
AcDbEntity
  8
DETAIL_MEDIUM
  6
CONTINUOUS
100
AcDbText
 10
558.0
 20
-529.0
 30
0.0
 40
10.0
  1
Output Pin Delay
  7
SIMPLEX
100
AcDbAttribute
  2
name
 70
     0
  0
SEQEND
  5
FDAC069427702A98
100
AcDbEntity
  8
DETAIL_MEDIUM
  6
CONTINUOUS
  0
INSERT
  5
FDAC069427702A99
100
AcDbEntity
  8
DETAIL_MEDIUM
  6
CONTINUOUS
100
AcDbBlockReference
  2
IO_YGR_BUFFER
 10
8.0
 20
-23.0
 30
0.0
  0
INSERT
  5
FDAC069427702A9A
100
AcDbEntity
  8
DETAIL_MEDIUM
  6
CONTINUOUS
100
AcDbBlockReference
  2
IO_YGR_DELAY_DATAIN0_OR_1_USED
 10
-4.0
 20
10.0
 30
0.0
  0
INSERT
  5
FDAC069427702A9B
100
AcDbEntity
  8
DETAIL_MEDIUM
  6
CONTINUOUS
100
AcDbBlockReference
  2
IO_YGR_BUFFER_MUX
 10
-4.0
 20
10.0
 30
0.0
  0
INSERT
  5
FDAC069427702A9C
100
AcDbEntity
  8
DETAIL_MEDIUM
100
AcDbBlockReference
  2
IO_YGR_REG_0_USED_OR_GATE
 10
8.0
 20
1.0
 30
0.0
  0
INSERT
  5
FDAC069427702A9D
100
AcDbEntity
  8
DETAIL_MEDIUM
  6
CONTINUOUS
100
AcDbBlockReference
 66
     1
  2
IO_YGR_REGISTER
 10
1144.0
 20
-633.0
 30
-1.0
  0
ATTRIB
  5
FDAC069427702A9E
100
AcDbEntity
  8
DETAIL_MEDIUM
  6
CONTINUOUS
100
AcDbText
 10
1174.0
 20
-573.0
 30
-1.0
 40
10.0
  1
4
  7
SIMPLEX
100
AcDbAttribute
  2
index
 70
     0
  0
SEQEND
  5
FDAC069427702A9F
100
AcDbEntity
  8
DETAIL_MEDIUM
  6
CONTINUOUS
  0
INSERT
  5
FDAC069427702AA0
100
AcDbEntity
  8
DETAIL_MEDIUM
  6
CONTINUOUS
100
AcDbBlockReference
 66
     1
  2
IO_YGR_DELAY_CHAIN
 10
990.0
 20
-552.0
 30
0.0
  0
ATTRIB
  5
FDAC069427702AA1
100
AcDbEntity
  8
DETAIL_MEDIUM
  6
CONTINUOUS
100
AcDbText
 10
1060.0
 20
-542.0
 30
0.0
 40
10.0
  1
1
  7
SIMPLEX
100
AcDbAttribute
  2
index
 70
     0
  0
ATTRIB
  5
FDAC069427702AA2
100
AcDbEntity
  8
DETAIL_MEDIUM
  6
CONTINUOUS
100
AcDbText
 10
1000.0
 20
-552.0
 30
0.0
 40
10.0
  1
Input Pin to Input Register Delay
  7
SIMPLEX
100
AcDbAttribute
  2
name
 70
     0
  0
SEQEND
  5
FDAC069427702AA3
100
AcDbEntity
  8
DETAIL_MEDIUM
  6
CONTINUOUS
  0
INSERT
  5
FDAC069427702AA4
100
AcDbEntity
  8
DETAIL_MEDIUM
  6
CONTINUOUS
100
AcDbBlockReference
 66
     1
  2
IO_YGR_DELAY_CHAIN
 10
880.0
 20
-640.0
 30
0.0
  0
ATTRIB
  5
FDAC069427702AA5
100
AcDbEntity
  8
DETAIL_MEDIUM
  6
CONTINUOUS
100
AcDbText
 10
950.0
 20
-630.0
 30
0.0
 40
10.0
  1
2
  7
SIMPLEX
100
AcDbAttribute
  2
index
 70
     0
  0
ATTRIB
  5
FDAC069427702AA6
100
AcDbEntity
  8
DETAIL_MEDIUM
  6
CONTINUOUS
100
AcDbText
 10
890.0
 20
-640.0
 30
0.0
 40
10.0
  1
Input Pin to Logic Array Delay 0
  7
SIMPLEX
100
AcDbAttribute
  2
name
 70
     0
  0
SEQEND
  5
FDAC069427702AA7
100
AcDbEntity
  8
DETAIL_MEDIUM
  6
CONTINUOUS
  0
INSERT
  5
FDAC069427702AA8
100
AcDbEntity
  8
DETAIL_MEDIUM
  6
CONTINUOUS
100
AcDbBlockReference
 66
     1
  2
IO_YGR_DELAY_CHAIN
 10
880.0
 20
-485.0
 30
0.0
  0
ATTRIB
  5
FDAC069427702AA9
100
AcDbEntity
  8
DETAIL_MEDIUM
  6
CONTINUOUS
100
AcDbText
 10
950.0
 20
-475.0
 30
0.0
 40
10.0
  1
3
  7
SIMPLEX
100
AcDbAttribute
  2
index
 70
     0
  0
ATTRIB
  5
FDAC069427702AAA
100
AcDbEntity
  8
DETAIL_MEDIUM
  6
CONTINUOUS
100
AcDbText
 10
890.0
 20
-485.0
 30
0.0
 40
10.0
  1
Input Pin to Logic Array Delay 1
  7
SIMPLEX
100
AcDbAttribute
  2
name
 70
     0
  0
SEQEND
  5
FDAC069427702AAB
100
AcDbEntity
  8
DETAIL_MEDIUM
  6
CONTINUOUS
  0
INSERT
  5
FDAC069427702AAC
100
AcDbEntity
  8
DETAIL_MEDIUM
  6
CONTINUOUS
100
AcDbBlockReference
  2
IO_YGR_REGOUT_TO_DATAIN_0
 10
34.0
 20
-23.0
 30
0.0
  0
INSERT
  5
FDAC069427702AAD
100
AcDbEntity
  8
DETAIL_MEDIUM
  6
CONTINUOUS
100
AcDbBlockReference
  2
IO_YGR_REGOUT_TO_DATAIN_1
 10
34.0
 20
-23.0
 30
0.0
  0
INSERT
  5
FDAC069427702AAE
100
AcDbEntity
  8
DETAIL_MEDIUM
  6
CONTINUOUS
100
AcDbBlockReference
  2
IO_YGR_REG_4_CE_IN_WIRE2
 10
34.0
 20
-23.0
 30
0.0
  0
INSERT
  5
FDAC069427702AAF
100
AcDbEntity
  8
DETAIL_MEDIUM
  6
CONTINUOUS
100
AcDbBlockReference
  2
IO_YGR_REGOUT_4_USED
 10
34.0
 20
-23.0
 30
0.0
  0
INSERT
  5
FDAC069427702AB0
100
AcDbEntity
  8
DETAIL_MEDIUM
  6
CONTINUOUS
100
AcDbBlockReference
  2
IO_YGR_REGOUT_4_USED_WIRE1
 10
34.0
 20
-23.0
 30
0.0
  0
INSERT
  5
FDAC069427702AB1
100
AcDbEntity
  8
PORTS
  6
CONTINUOUS
100
AcDbBlockReference
 66
     1
  2
IO_YGR_DATAIN_0
 10
35.0
 20
-23.0
 30
0.0
  0
ATTRIB
  5
FDAC069427702AB2
100
AcDbEntity
  8
PORTS
  6
CONTINUOUS
100
AcDbText
 10
1537.0
 20
-491.0
 30
0.0
 40
10.0
  1
RIGHT
 50
0.000019
  7
SIMPLEX
100
AcDbAttribute
  2
SIDE
 70
     0
  0
SEQEND
  5
FDAC069427702AB3
100
AcDbEntity
  8
PORTS
  6
CONTINUOUS
  0
INSERT
  5
FDAC069427702AB4
100
AcDbEntity
  8
DETAIL_MEDIUM
100
AcDbBlockReference
  2
IO_YGR_DATAIN_0_MUX
 10
34.0
 20
-23.0
 30
0.0
  0
INSERT
  5
FDAC069427702AB5
100
AcDbEntity
  8
PORTS
  6
CONTINUOUS
100
AcDbBlockReference
 66
     1
  2
IO_YGR_DATAIN_1
 10
35.0
 20
-23.0
 30
0.0
  0
ATTRIB
  5
FDAC069427702AB6
100
AcDbEntity
  8
PORTS
  6
CONTINUOUS
100
AcDbText
 10
1538.0
 20
-648.0
 30
0.0
 40
10.0
  1
RIGHT
 50
0.000019
  7
SIMPLEX
100
AcDbAttribute
  2
SIDE
 70
     0
  0
SEQEND
  5
FDAC069427702AB7
100
AcDbEntity
  8
PORTS
  6
CONTINUOUS
  0
INSERT
  5
FDAC069427702AB8
100
AcDbEntity
  8
DETAIL_MEDIUM
  6
CONTINUOUS
100
AcDbBlockReference
  2
IO_YGR_REGOUT_4_USED_WIRE2
 10
-4.0
 20
-14.0
 30
0.0
  0
INSERT
  5
FDAC069427702AB9
100
AcDbEntity
  8
DETAIL_MEDIUM
  6
CONTINUOUS
100
AcDbBlockReference
  2
IO_YGR_DELAY_DATAIN1_USED
 10
-4.0
 20
10.0
 30
0.0
  0
INSERT
  5
FDAC069427702ABA
100
AcDbEntity
  8
DETAIL_MEDIUM
  6
CONTINUOUS
100
AcDbBlockReference
  2
IO_YGR_DELAY_DATAIN0_USED
 10
-4.0
 20
10.0
 30
0.0
  0
INSERT
  5
FDAC069427702ABB
100
AcDbEntity
  8
DETAIL_MEDIUM
  6
CONTINUOUS
100
AcDbBlockReference
  2
IO_YGR_DELAY_DATAIN0_OR_REG
 10
-4.0
 20
10.0
 30
0.0
  0
INSERT
  5
FDAC069427702ABC
100
AcDbEntity
  8
DETAIL_MEDIUM
  6
CONTINUOUS
100
AcDbBlockReference
  2
IO_YGR_REG_5_SCLR
 10
-4.0
 20
10.0
 30
0.0
  0
INSERT
  5
FDAC069427702ABD
100
AcDbEntity
  8
DETAIL_MEDIUM
  6
CONTINUOUS
100
AcDbBlockReference
  2
IO_YGR_REG_4_SCLR_WIRE
 10
-4.0
 20
10.0
 30
0.0
  0
INSERT
  5
FDAC069427702ABE
100
AcDbEntity
  8
DETAIL_MEDIUM
  6
CONTINUOUS
100
AcDbBlockReference
  2
IO_YGR_BYPASS_DELAY_CHAIN_WIRE
 10
-4.0
 20
10.0
 30
0.0
  0
INSERT
  5
FDAC069427702ABF
100
AcDbEntity
  8
PORTS
  6
CONTINUOUS
100
AcDbBlockReference
 66
     1
  2
IO_YGR_COMBOUT
 10
-4.0
 20
10.0
 30
0.0
  0
ATTRIB
  5
FDAC069427702AC0
100
AcDbEntity
  8
PORTS
  6
CONTINUOUS
100
AcDbText
 10
1536.0
 20
-399.0
 30
0.0
 40
10.0
  1
RIGHT
 50
0.000019
  7
SIMPLEX
100
AcDbAttribute
  2
SIDE
 70
     0
  0
SEQEND
  5
FDAC069427702AC1
100
AcDbEntity
  8
PORTS
  6
CONTINUOUS
  0
INSERT
  5
FDAC069427702AC2
100
AcDbEntity
  8
DETAIL_MEDIUM
  6
CONTINUOUS
100
AcDbBlockReference
  2
IO_YGR_CE_PATH_VCC
 10
758.0
 20
-39.0
 30
0.0
  0
INSERT
  5
FDAC069427702AC3
100
AcDbEntity
  8
DETAIL_MEDIUM
  6
CONTINUOUS
100
AcDbBlockReference
  2
IO_YGR_CE_MUX
 10
678.0
 20
-109.0
 30
0.0
  0
INSERT
  5
FDAC069427702AC4
100
AcDbEntity
  8
DETAIL_MEDIUM
  6
CONTINUOUS
100
AcDbBlockReference
  2
IO_YGR_CE_PATH_NOT_INVERTED
 10
768.0
 20
-79.0
 30
0.0
  0
INSERT
  5
FDAC069427702AC5
100
AcDbEntity
  8
DETAIL_MEDIUM
  6
CONTINUOUS
100
AcDbBlockReference
 66
     1
  2
IO_YGR_DELAY_CHAIN
 10
881.0
 20
-97.0
 30
0.0
  0
ATTRIB
  5
FDAC069427702AC6
100
AcDbEntity
  8
DETAIL_MEDIUM
  6
CONTINUOUS
100
AcDbText
 10
951.0
 20
-87.0
 30
0.0
 40
10.0
  1
9
  7
SIMPLEX
100
AcDbAttribute
  2
index
 70
     0
  0
ATTRIB
  5
FDAC069427702AC7
100
AcDbEntity
  8
DETAIL_MEDIUM
  6
CONTINUOUS
100
AcDbText
 10
891.0
 20
-97.0
 30
0.0
 40
10.0
  1
Output Enable Register Tco Delay
  7
SIMPLEX
100
AcDbAttribute
  2
name
 70
     0
  0
SEQEND
  5
FDAC069427702AC8
100
AcDbEntity
  8
DETAIL_MEDIUM
  6
CONTINUOUS
  0
INSERT
  5
FDAC069427702AC9
100
AcDbEntity
  8
DETAIL_MEDIUM
  6
CONTINUOUS
100
AcDbBlockReference
  2
IO_YGR_CE_PATH_USED_MUX
 10
8.0
 20
1.0
 30
0.0
  0
INSERT
  5
FDAC069427702ACA
100
AcDbEntity
  8
DETAIL_MEDIUM
  6
CONTINUOUS
100
AcDbBlockReference
  2
IO_YGR_CE_PATH_INVERTED
 10
-4.0
 20
10.0
 30
0.0
  0
INSERT
  5
FDAC069427702ACB
100
AcDbEntity
  8
DETAIL_MEDIUM
  6
CONTINUOUS
100
AcDbBlockReference
  2
IO_YGR_REG_0_USED
 10
0.0
 20
0.0
 30
0.0
  0
INSERT
  5
FDAC069427702ACC
100
AcDbEntity
  8
DETAIL_MEDIUM
  6
CONTINUOUS
100
AcDbBlockReference
 66
     1
  2
IO_YGR_DELAY_CHAIN
 10
1304.0
 20
-346.0
 30
0.0
  0
ATTRIB
  5
FDAC069427702ACD
100
AcDbEntity
  8
DETAIL_MEDIUM
  6
CONTINUOUS
100
AcDbText
 10
1374.0
 20
-336.0
 30
0.0
 40
10.0
  1
C
  7
SIMPLEX
100
AcDbAttribute
  2
index
 70
     0
  0
ATTRIB
  5
FDAC069427702ACE
100
AcDbEntity
  8
DETAIL_MEDIUM
  6
CONTINUOUS
100
AcDbText
 10
1314.0
 20
-346.0
 30
0.0
 40
10.0
  1
DQS Coarse Delay
  7
SIMPLEX
100
AcDbAttribute
  2
name
 70
     0
  0
SEQEND
  5
FDAC069427702ACF
100
AcDbEntity
  8
DETAIL_MEDIUM
  6
CONTINUOUS
  0
INSERT
  5
FDAC069427702AD0
100
AcDbEntity
  8
PORTS
  6
CONTINUOUS
100
AcDbBlockReference
 66
     1
  2
IO_YGR_DQS_BUS_OUT
 10
0.0
 20
0.0
 30
0.0
  0
ATTRIB
  5
FDAC069427702AD1
100
AcDbEntity
  8
PORTS
  6
CONTINUOUS
100
AcDbText
 10
1535.0
 20
-306.0
 30
0.0
 40
10.0
  1
RIGHT
 50
0.000019
  7
SIMPLEX
100
AcDbAttribute
  2
SIDE
 70
     0
  0
SEQEND
  5
FDAC069427702AD2
100
AcDbEntity
  8
PORTS
  6
CONTINUOUS
  0
INSERT
  5
FDAC069427702AD3
100
AcDbEntity
  8
PORTS
  6
CONTINUOUS
100
AcDbBlockReference
 66
     1
  2
IO_YGR_DQS_UPDATE_ENABLE
 10
0.0
 20
0.0
 30
0.0
  0
ATTRIB
  5
FDAC069427702AD4
100
AcDbEntity
  8
PORTS
  6
CONTINUOUS
100
AcDbText
 10
1077.0
 20
-6.0
 30
0.0
 40
10.0
  1
TOP
  7
SIMPLEX
100
AcDbAttribute
  2
SIDE
 70
     0
  0
SEQEND
  5
FDAC069427702AD5
100
AcDbEntity
  8
PORTS
  6
CONTINUOUS
  0
INSERT
  5
FDAC069427702AD6
100
AcDbEntity
  8
DETAIL_MEDIUM
  6
CONTINUOUS
100
AcDbBlockReference
  2
IO_YGR_DQS_UPDATE_ENABLE_WIRE
 10
0.0
 20
0.0
 30
0.0
  0
INSERT
  5
FDAC069427702AD7
100
AcDbEntity
  8
PORTS
  6
CONTINUOUS
100
AcDbBlockReference
 66
     1
  2
IO_YGR_PHASE_IN_PORT
 10
0.0
 20
0.0
 30
0.0
  0
ATTRIB
  5
FDAC069427702AD8
100
AcDbEntity
  8
PORTS
  6
CONTINUOUS
100
AcDbText
 10
1115.0
 20
-6.0
 30
0.0
 40
10.0
  1
TOP
  7
SIMPLEX
100
AcDbAttribute
  2
SIDE
 70
     0
  0
SEQEND
  5
FDAC069427702AD9
100
AcDbEntity
  8
PORTS
  6
CONTINUOUS
  0
INSERT
  5
FDAC069427702ADA
100
AcDbEntity
  8
DETAIL_MEDIUM
  6
CONTINUOUS
100
AcDbBlockReference
  2
IO_YGR_PHASE_IN_WIRE
 10
0.0
 20
0.0
 30
0.0
  0
INSERT
  5
FDAC069427702ADB
100
AcDbEntity
  8
PORTS
  6
CONTINUOUS
100
AcDbBlockReference
 66
     1
  2
IO_YGR_DQS_SETTING_PORT
 10
1346.0
 20
-207.0
 30
0.0
  0
ATTRIB
  5
FDAC069427702ADC
100
AcDbEntity
  8
PORTS
  6
CONTINUOUS
100
AcDbText
 10
1154.0
 20
-6.0
 30
0.0
 40
10.0
  1
TOP
  7
SIMPLEX
100
AcDbAttribute
  2
SIDE
 70
     0
  0
SEQEND
  5
FDAC069427702ADD
100
AcDbEntity
  8
PORTS
  6
CONTINUOUS
  0
INSERT
  5
FDAC069427702ADE
100
AcDbEntity
  8
DETAIL_MEDIUM
  6
CONTINUOUS
100
AcDbBlockReference
  2
IO_YGR_DQS_SETTING_WIRE
 10
0.0
 20
0.0
 30
0.0
  0
INSERT
  5
FDAC069427702ADF
100
AcDbEntity
  8
DETAIL_MEDIUM
  6
CONTINUOUS
100
AcDbBlockReference
  2
IO_YGR_CE_PATH_USED
 10
-4.0
 20
10.0
 30
0.0
  0
INSERT
  5
FDAC069427702AE0
100
AcDbEntity
  8
DETAIL_MEDIUM
  6
CONTINUOUS
100
AcDbBlockReference
  2
IO_YGR_CE_PATH_GND
 10
0.0
 20
0.0
 30
0.0
  0
INSERT
  5
FDAC069427702AE1
100
AcDbEntity
  8
DETAIL_MEDIUM
  6
CONTINUOUS
100
AcDbBlockReference
  2
IO_YGR_DQS_LOGIC
 10
0.0
 20
0.0
 30
0.0
  0
INSERT
  5
FDAC069427702AE2
100
AcDbEntity
  8
DETAIL_MEDIUM
  6
CONTINUOUS
100
AcDbBlockReference
  2
IO_YGR_REGOUT_5_USED
 10
34.0
 20
-23.0
 30
0.0
  0
INSERT
  5
FDAC069427702AE3
100
AcDbEntity
  8
DETAIL_MEDIUM
  6
CONTINUOUS
100
AcDbBlockReference
  2
IO_YGR_REGOUT_5_USED_WIRE
 10
34.0
 20
-23.0
 30
0.0
  0
INSERT
  5
FDAC069427702AE4
100
AcDbEntity
  8
DETAIL_MEDIUM
  6
CONTINUOUS
100
AcDbBlockReference
  2
IO_YGR_BYPASS_LOGIC_DELAY_WIRE
 10
0.0
 20
0.0
 30
0.0
  0
INSERT
  5
FDAC069427702AE5
100
AcDbEntity
  8
DETAIL_MEDIUM
  6
CONTINUOUS
100
AcDbBlockReference
  2
IO_YGR_BYPASS_IN_REG_DELAY_WIRE
 10
0.0
 20
0.0
 30
0.0
  0
INSERT
  5
FDAC069427702AE6
100
AcDbEntity
  8
DETAIL_MEDIUM
  6
CONTINUOUS
100
AcDbBlockReference
  2
IO_YGR_REG_0_BYPASS
 10
368.0
 20
-89.0
 30
0.0
  0
INSERT
  5
FDAC069427702AE7
100
AcDbEntity
  8
DETAIL_MEDIUM
100
AcDbBlockReference
  2
IO_YGR_DATAIN_1_MUX
 10
34.0
 20
-23.0
 30
0.0
  0
INSERT
  5
FDAC069427702BE8
100
AcDbEntity
  8
DETAIL_MEDIUM
  6
CONTINUOUS
100
AcDbBlockReference
  2
IO_YGR_REG_2_USED
 10
0.0
 20
0.0
 30
0.0
  0
LINE
  5
FDAC069427702AE8
100
AcDbEntity
  8
DETAIL_MEDIUM
100
AcDbLine
 39
2.0
 10
1144.0
 20
-743.0
 30
0.0
 11
1154.0
 21
-753.0
 31
0.0
  0
LINE
  5
FDAC069427702AE9
100
AcDbEntity
  8
DETAIL_MEDIUM
100
AcDbLine
 39
2.0
 10
1154.0
 20
-753.0
 30
0.0
 11
1144.0
 21
-763.0
 31
0.0
  0
INSERT
  5
FDAC069427702AEA
100
AcDbEntity
  8
DETAIL_MEDIUM
  6
CONTINUOUS
100
AcDbBlockReference
 66
     1
  2
IO_YGR_REGISTER
 10
1144.0
 20
-823.0
 30
-1.0
  0
ATTRIB
  5
FDAC069427702AEB
100
AcDbEntity
  8
DETAIL_MEDIUM
  6
CONTINUOUS
100
AcDbText
 10
1174.0
 20
-763.0
 30
-1.0
 40
10.0
  1
5
  7
SIMPLEX
100
AcDbAttribute
  2
index
 70
     0
  0
SEQEND
  5
FDAC069427702AEC
100
AcDbEntity
  8
DETAIL_MEDIUM
  6
CONTINUOUS
  0
INSERT
  5
FDAC069427702AED
100
AcDbEntity
  8
DETAIL_MEDIUM
  6
CONTINUOUS
100
AcDbBlockReference
  2
IO_YGR_REG_56_ACLR
 10
1184.0
 20
-893.0
 30
0.0
  0
INSERT
  5
FDAC069427702AEE
100
AcDbEntity
  8
DETAIL_MEDIUM
  6
CONTINUOUS
100
AcDbBlockReference
  2
IO_YGR_CLK_IN_WIRE1
 10
34.0
 20
-43.0
 30
0.0
  0
INSERT
  5
FDAC069427702AEF
100
AcDbEntity
  8
DETAIL_MEDIUM
  6
CONTINUOUS
100
AcDbBlockReference
 66
     1
  2
IO_YGR_DELAY_CHAIN
 10
880.0
 20
-783.0
 30
0.0
  0
ATTRIB
  5
FDAC069427702AF0
100
AcDbEntity
  8
DETAIL_MEDIUM
  6
CONTINUOUS
100
AcDbText
 10
950.0
 20
-773.0
 30
0.0
 40
10.0
  1
B
  7
SIMPLEX
100
AcDbAttribute
  2
index
 70
     0
  0
ATTRIB
  5
FDAC069427702AF1
100
AcDbEntity
  8
DETAIL_MEDIUM
  6
CONTINUOUS
100
AcDbText
 10
890.0
 20
-783.0
 30
0.0
 40
10.0
  1
NDQS Local Clock Delay
  7
SIMPLEX
100
AcDbAttribute
  2
name
 70
     0
  0
SEQEND
  5
FDAC069427702AF2
100
AcDbEntity
  8
DETAIL_MEDIUM
  6
CONTINUOUS
  0
INSERT
  5
FDAC069427702AF3
100
AcDbEntity
  8
DETAIL_MEDIUM
  6
CONTINUOUS
100
AcDbBlockReference
 66
     1
  2
IO_YGR_LATCH
 10
0.0
 20
0.0
 30
0.0
  0
ATTRIB
  5
FDAC069427702AF4
100
AcDbEntity
  8
DETAIL_MEDIUM
  6
CONTINUOUS
100
AcDbText
 10
1322.0
 20
-764.0
 30
0.0
 40
14.866069
  1
5
 50
358.97697
  7
SIMPLEX
100
AcDbAttribute
  2
index
 70
     0
  0
SEQEND
  5
FDAC069427702AF5
100
AcDbEntity
  8
DETAIL_MEDIUM
  6
CONTINUOUS
  0
INSERT
  5
FDAC069427702AF6
100
AcDbEntity
  8
DETAIL_MEDIUM
  6
CONTINUOUS
100
AcDbBlockReference
  2
IO_YGR_REG_4_ACLR_WIRE
 10
34.0
 20
-23.0
 30
0.0
  0
INSERT
  5
FDAC069427702AF7
100
AcDbEntity
  8
DETAIL_MEDIUM
  6
CONTINUOUS
100
AcDbBlockReference
  2
IO_YGR_REG_4_CE_IN_WIRE1
 10
34.0
 20
-23.0
 30
0.0
  0
INSERT
  5
FDAC069427702AF8
100
AcDbEntity
  8
DETAIL_MEDIUM
  6
CONTINUOUS
100
AcDbBlockReference
  2
IO_YGR_CLK_IN_WIRE2
 10
22.0
 20
-14.0
 30
0.0
  0
INSERT
  5
FDAC069427702AF9
100
AcDbEntity
  8
PORTS
  6
CONTINUOUS
100
AcDbBlockReference
 66
     1
  2
IO_YGR_REG_4_CE_IN
 10
34.0
 20
-23.0
 30
0.0
  0
ATTRIB
  5
FDAC069427702AFA
100
AcDbEntity
  8
PORTS
  6
CONTINUOUS
100
AcDbText
 10
766.0
 20
-851.0
 30
0.0
 40
10.0
  1
LEFT
 50
0.000019
  7
SIMPLEX
100
AcDbAttribute
  2
SIDE
 70
     0
  0
SEQEND
  5
FDAC069427702AFB
100
AcDbEntity
  8
PORTS
  6
CONTINUOUS
  0
INSERT
  5
FDAC069427702AFC
100
AcDbEntity
  8
PORTS
  6
CONTINUOUS
100
AcDbBlockReference
 66
     1
  2
IO_YGR_CLK_IN
 10
-4.0
 20
10.0
 30
0.0
  0
ATTRIB
  5
FDAC069427702AFD
100
AcDbEntity
  8
PORTS
  6
CONTINUOUS
100
AcDbText
 10
766.0
 20
-741.0
 30
0.0
 40
10.0
  1
LEFT
 50
0.000019
  7
SIMPLEX
100
AcDbAttribute
  2
SIDE
 70
     0
  0
SEQEND
  5
FDAC069427702AFE
100
AcDbEntity
  8
PORTS
  6
CONTINUOUS
  0
INSERT
  5
FDAC069427702AFF
100
AcDbEntity
  8
DETAIL_MEDIUM
  6
CONTINUOUS
100
AcDbBlockReference
  2
IO_YGR_REG_5_CE_IN
 10
0.0
 20
0.0
 30
0.0
  0
INSERT
  5
FDAC069427702B00
100
AcDbEntity
  8
DETAIL_MEDIUM
  6
CONTINUOUS
100
AcDbBlockReference
  2
IO_YGR_REG_5_CLK_IN
 10
0.0
 20
0.0
 30
0.0
  0
INSERT
  5
FDAC069427702B01
100
AcDbEntity
  8
DETAIL_MEDIUM
  6
CONTINUOUS
100
AcDbBlockReference
 66
     1
  2
IO_YGR_DELAY_CHAIN
 10
880.0
 20
-837.0
 30
0.0
  0
ATTRIB
  5
FDAC069427702B02
100
AcDbEntity
  8
DETAIL_MEDIUM
  6
CONTINUOUS
100
AcDbText
 10
950.0
 20
-827.0
 30
0.0
 40
10.0
  1
D
  7
SIMPLEX
100
AcDbAttribute
  2
index
 70
     0
  0
ATTRIB
  5
FDAC069427702B03
100
AcDbEntity
  8
DETAIL_MEDIUM
  6
CONTINUOUS
100
AcDbText
 10
890.0
 20
-837.0
 30
0.0
 40
10.0
  1
DQS Local Clock Delay
  7
SIMPLEX
100
AcDbAttribute
  2
name
 70
     0
  0
SEQEND
  5
FDAC069427702B04
100
AcDbEntity
  8
DETAIL_MEDIUM
  6
CONTINUOUS
  0
INSERT
  5
FDAC069427702B05
100
AcDbEntity
  8
DETAIL_MEDIUM
  6
CONTINUOUS
100
AcDbBlockReference
  2
IO_YGR_DQS_CLK_WIRE
 10
0.0
 20
0.0
 30
0.0
  0
INSERT
  5
FDAC069427702B06
100
AcDbEntity
  8
DETAIL_MEDIUM
  6
CONTINUOUS
100
AcDbBlockReference
  2
IO_YGR_DQS_CLK_TO_REG_5_WIRE
 10
0.0
 20
0.0
 30
0.0
  0
INSERT
  5
FDAC069427702B07
100
AcDbEntity
  8
DETAIL_MEDIUM
  6
CONTINUOUS
100
AcDbBlockReference
  2
IO_YGR_DQS_CLK_WIRE2
 10
0.0
 20
0.0
 30
0.0
  0
INSERT
  5
FDAC069427702B08
100
AcDbEntity
  8
DETAIL_MEDIUM
  6
CONTINUOUS
100
AcDbBlockReference
  2
IO_YGR_DQS_CLK_TO_LATCH
 10
0.0
 20
0.0
 30
0.0
  0
INSERT
  5
FDAC069427702B09
100
AcDbEntity
  8
DETAIL_MEDIUM
  6
CONTINUOUS
100
AcDbBlockReference
  2
IO_YGR_DQS_CLK_TO_REG_4_WIRE
 10
0.0
 20
0.0
 30
0.0
  0
ENDBLK
  5
FDAC069427702BEA
100
AcDbEntity
  8
DETAIL_MEDIUM
  6
CONTINUOUS
100
AcDbBlockEnd
  0
BLOCK
  5
FDAC069427006512
100
AcDbEntity
  8
DETAIL_MEDIUM
  6
CONTINUOUS
100
AcDbBlockBegin
  2
IO_YGR_LATCH
 70
     2
 10
0.0
 20
0.0
 30
0.0
  1

  0
POLYLINE
  5
1C23F887904AB5D5
100
AcDbEntity
  8
DETAIL_MEDIUM
  6
CONTINUOUS
100
AcDb2dPolyline
 66
     1
 10
0.0
 20
0.0
 30
-1.0
 70
     1
  0
VERTEX
  5
1C23F887904AB5D6
100
AcDbEntity
  8
DETAIL_MEDIUM
  6
CONTINUOUS
100
AcDbVertex
100
AcDb2dVertex
 10
1304.0
 20
-693.0
 30
-1.0
  0
VERTEX
  5
1C23F887904AB5D7
100
AcDbEntity
  8
DETAIL_MEDIUM
  6
CONTINUOUS
100
AcDbVertex
100
AcDb2dVertex
 10
1384.0
 20
-693.0
 30
-1.0
  0
VERTEX
  5
1C23F887904AB5D8
100
AcDbEntity
  8
DETAIL_MEDIUM
  6
CONTINUOUS
100
AcDbVertex
100
AcDb2dVertex
 10
1384.0
 20
-823.0
 30
-1.0
  0
VERTEX
  5
1C23F887904AB5D9
100
AcDbEntity
  8
DETAIL_MEDIUM
  6
CONTINUOUS
100
AcDbVertex
100
AcDb2dVertex
 10
1304.0
 20
-823.0
 30
-1.0
  0
SEQEND
  5
1C23F887904AB5DA
100
AcDbEntity
  8
DETAIL_MEDIUM
  6
CONTINUOUS
  0
TEXT
  5
1C23F887904AB5D1
100
AcDbEntity
  8
DETAIL_HIGH
100
AcDbText
 10
1311.5
 20
-715.5
 30
-1.0
 40
10.0
  1
D
100
AcDbText
  0
TEXT
  5
1C23F887904AB5D2
100
AcDbEntity
  8
DETAIL_HIGH
100
AcDbText
 10
1371.5
 20
-715.5
 30
-1.0
 40
10.0
  1
Q
100
AcDbText
  0
ATTDEF
  5
1C23F887904AB5DB
100
AcDbEntity
  8
DETAIL_MEDIUM
  6
CONTINUOUS
100
AcDbText
 10
1322.0
 20
-764.0
 30
0.0
 40
14.866069
  1
0
 50
358.97697
  7
SIMPLEX
100
AcDbAttributeDefinition
  3

  2
index
 70
     0
  0
TEXT
  5
FDAC06942700650B
100
AcDbEntity
  8
DETAIL_HIGH
100
AcDbText
 10
1309.0
 20
-755.5
 30
-1.0
 40
10.0
  1
pass
100
AcDbText
  0
TEXT
  5
1C23F887904AB5D3
100
AcDbEntity
  8
DETAIL_HIGH
100
AcDbText
 10
1309.0
 20
-795.5
 30
-1.0
 40
10.0
  1
en
100
AcDbText
  0
INSERT
  5
1C23F887904AB5D4
100
AcDbEntity
  8
DETAIL_MEDIUM
  6
CONTINUOUS
100
AcDbBlockReference
  2
IO_YGR_REG_ASYNC
 10
1334.0
 20
-823.0
 30
-1.0
  0
ENDBLK
  5
FDAC069427006513
100
AcDbEntity
  8
DETAIL_MEDIUM
  6
CONTINUOUS
100
AcDbBlockEnd
  0
BLOCK
  5
DF3414A0528C98B2
100
AcDbEntity
  8
DETAIL_MEDIUM
  6
CONTINUOUS
100
AcDbBlockBegin
  2
IO_YGR_REGOUT_TO_DATAIN_0
 70
     0
 10
0.0
 20
0.0
 30
0.0
  1

  0
LINE
  5
DF3414A0528C98AD
100
AcDbEntity
  8
DETAIL_MEDIUM
  6
CONTINUOUS
100
AcDbLine
 10
1299.0
 20
-500.0
 30
0.0
 11
1440.0
 21
-500.0
 31
0.0
  0
ENDBLK
  5
DF3414A0528C98B4
100
AcDbEntity
  8
DETAIL_MEDIUM
  6
CONTINUOUS
100
AcDbBlockEnd
  0
BLOCK
  5
DF3414A0528C98B9
100
AcDbEntity
  8
DETAIL_MEDIUM
  6
CONTINUOUS
100
AcDbBlockBegin
  2
IO_YGR_REGOUT_TO_DATAIN_1
 70
     0
 10
0.0
 20
0.0
 30
0.0
  1

  0
LINE
  5
DF3414A0528C98B6
100
AcDbEntity
  8
DETAIL_MEDIUM
  6
CONTINUOUS
100
AcDbLine
 10
1299.0
 20
-501.0
 30
0.0
 11
1299.0
 21
-630.0
 31
0.0
  0
LINE
  5
DF3414A0528C98B7
100
AcDbEntity
  8
DETAIL_MEDIUM
  6
CONTINUOUS
100
AcDbLine
 10
1299.0
 20
-630.0
 30
0.0
 11
1440.0
 21
-630.0
 31
0.0
  0
ENDBLK
  5
DF3414A0528C98BB
100
AcDbEntity
  8
DETAIL_MEDIUM
  6
CONTINUOUS
100
AcDbBlockEnd
  0
BLOCK
  5
DF3414A3E914C0E4
100
AcDbEntity
  8
DETAIL_MEDIUM
  6
CONTINUOUS
100
AcDbBlockBegin
  2
IO_YGR_CLK_IN_WIRE1
 70
     0
 10
0.0
 20
0.0
 30
0.0
  1

  0
LINE
  5
DF3414A3E914C0D2
100
AcDbEntity
  8
DETAIL_MEDIUM
  6
CONTINUOUS
100
AcDbLine
 10
810.0
 20
-710.0
 30
0.0
 11
1070.0
 21
-710.0
 31
0.0
  0
ENDBLK
  5
DF3414A3E914C0E6
100
AcDbEntity
  8
DETAIL_MEDIUM
  6
CONTINUOUS
100
AcDbBlockEnd
  0
BLOCK
  5
F555BB614BA9071A
100
AcDbEntity
  8
DETAIL_MEDIUM
  6
CONTINUOUS
100
AcDbBlockBegin
  2
IO_YGR_CLK_IN_WIRE2
 70
     0
 10
0.0
 20
0.0
 30
0.0
  1

  0
LINE
  5
B77621EAE3D4D47
100
AcDbEntity
  8
DETAIL_MEDIUM
  6
CONTINUOUS
100
AcDbLine
 10
1082.0
 20
-549.0
 30
0.0
 11
1122.0
 21
-549.0
 31
0.0
  0
LINE
  5
F555BB614BA90718
100
AcDbEntity
  8
DETAIL_MEDIUM
  6
CONTINUOUS
100
AcDbLine
 10
1082.0
 20
-739.0
 30
0.0
 11
1082.0
 21
-549.0
 31
0.0
  0
ENDBLK
  5
F555BB614BA9071B
100
AcDbEntity
  8
DETAIL_MEDIUM
  6
CONTINUOUS
100
AcDbBlockEnd
  0
BLOCK
  5
DF3414A78E6AFC7E
100
AcDbEntity
  8
DETAIL_MEDIUM
  6
CONTINUOUS
100
AcDbBlockBegin
  2
IO_YGR_REG_4_CE_IN_WIRE1
 70
     0
 10
0.0
 20
0.0
 30
0.0
  1

  0
LINE
  5
DF3414A78E6AFC73
100
AcDbEntity
  8
DETAIL_MEDIUM
  6
CONTINUOUS
100
AcDbLine
 10
810.0
 20
-840.0
 30
0.0
 11
990.0
 21
-840.0
 31
0.0
  0
LINE
  5
DF3414A78E6AFC74
100
AcDbEntity
  8
DETAIL_MEDIUM
  6
CONTINUOUS
100
AcDbLine
 10
990.0
 20
-580.0
 30
0.0
 11
990.0
 21
-840.0
 31
0.0
  0
LINE
  5
DF3414A78E6AFC7B
100
AcDbEntity
  8
DETAIL_MEDIUM
  6
CONTINUOUS
100
AcDbLine
 10
990.0
 20
-580.0
 30
0.0
 11
1090.0
 21
-580.0
 31
0.0
  0
ENDBLK
  5
DF3414A78E6AFC80
100
AcDbEntity
  8
DETAIL_MEDIUM
  6
CONTINUOUS
100
AcDbBlockEnd
  0
BLOCK
  5
DF3414A78E6AFC82
100
AcDbEntity
  8
DETAIL_MEDIUM
  6
CONTINUOUS
100
AcDbBlockBegin
  2
IO_YGR_REG_4_CE_IN_WIRE2
 70
     0
 10
0.0
 20
0.0
 30
0.0
  1

  0
LINE
  5
DF3414A78E6AFC7C
100
AcDbEntity
  8
DETAIL_MEDIUM
  6
CONTINUOUS
100
AcDbLine
 10
1090.0
 20
-580.0
 30
0.0
 11
1110.0
 21
-580.0
 31
0.0
  0
ENDBLK
  5
DF3414A78E6AFC84
100
AcDbEntity
  8
DETAIL_MEDIUM
  6
CONTINUOUS
100
AcDbBlockEnd
  0
BLOCK
  5
DF3414AD06ACD5A9
100
AcDbEntity
  8
DETAIL_MEDIUM
  6
CONTINUOUS
100
AcDbBlockBegin
  2
IO_YGR_REGOUT_4_USED_WIRE1
 70
     0
 10
0.0
 20
0.0
 30
0.0
  1

  0
LINE
  5
DF3414AD06ACD5A7
100
AcDbEntity
  8
DETAIL_MEDIUM
  6
CONTINUOUS
100
AcDbLine
 10
1049.0
 20
-500.0
 30
0.0
 11
1110.0
 21
-500.0
 31
0.0
  0
ENDBLK
  5
DF3414AD06ACD5AB
100
AcDbEntity
  8
DETAIL_MEDIUM
  6
CONTINUOUS
100
AcDbBlockEnd
  0
BLOCK
  5
F555BB614BA90932
100
AcDbEntity
  8
DETAIL_MEDIUM
  6
CONTINUOUS
100
AcDbBlockBegin
  2
IO_YGR_REGOUT_4_USED_WIRE2
 70
     0
 10
0.0
 20
0.0
 30
0.0
  1

  0
LINE
  5
F555BB614BA9092E
100
AcDbEntity
  8
DETAIL_MEDIUM
  6
CONTINUOUS
100
AcDbLine
 10
979.0
 20
-509.0
 30
0.0
 11
994.0
 21
-509.0
 31
0.0
  0
LINE
  5
F555BB614BA9092D
100
AcDbEntity
  8
DETAIL_MEDIUM
  6
CONTINUOUS
100
AcDbLine
 10
1074.0
 20
-509.0
 30
0.0
 11
1088.0
 21
-509.0
 31
0.0
  0
ENDBLK
  5
F555BB614BA90933
100
AcDbEntity
  8
DETAIL_MEDIUM
  6
CONTINUOUS
100
AcDbBlockEnd
  0
BLOCK
  5
DF3414B9AB7E00E4
100
AcDbEntity
  8
DETAIL_MEDIUM
  6
CONTINUOUS
100
AcDbBlockBegin
  2
IO_YGR_REGOUT_5_USED_WIRE
 70
     0
 10
0.0
 20
0.0
 30
0.0
  1

  0
LINE
  5
DF3414B9AB7E00DE
100
AcDbEntity
  8
DETAIL_MEDIUM
  6
CONTINUOUS
100
AcDbLine
 10
1050.0
 20
-690.0
 30
0.0
 11
1110.0
 21
-690.0
 31
0.0
  0
LINE
  5
DF3414B9AB7E00DD
100
AcDbEntity
  8
DETAIL_MEDIUM
  6
CONTINUOUS
100
AcDbLine
 10
1050.0
 20
-500.0
 30
0.0
 11
1050.0
 21
-690.0
 31
0.0
  0
ENDBLK
  5
DF3414B9AB7E00E6
100
AcDbEntity
  8
DETAIL_MEDIUM
  6
CONTINUOUS
100
AcDbBlockEnd
  0
BLOCK
  5
DF34159D60D12E8E
100
AcDbEntity
  8
DETAIL_MEDIUM
100
AcDbBlockBegin
  2
IO_YGR_DATAIN_0_MUX
 70
     0
 10
0.0
 20
0.0
 30
0.0
  1

  0
POLYLINE
  5
DF34159D60D12E86
100
AcDbEntity
  8
DETAIL_MEDIUM
100
AcDb2dPolyline
 66
     1
 10
0.0
 20
0.0
 30
0.0
 39
2.0
 70
     1
  0
VERTEX
  5
DF34159D60D12E87
100
AcDbEntity
  8
DETAIL_MEDIUM
100
AcDbVertex
100
AcDb2dVertex
 10
1440.0
 20
-450.0
 30
0.0
  0
VERTEX
  5
DF34159D60D12E88
100
AcDbEntity
  8
DETAIL_MEDIUM
100
AcDbVertex
100
AcDb2dVertex
 10
1470.0
 20
-460.0
 30
0.0
  0
VERTEX
  5
DF34159D60D12E89
100
AcDbEntity
  8
DETAIL_MEDIUM
100
AcDbVertex
100
AcDb2dVertex
 10
1470.0
 20
-500.0
 30
0.0
  0
VERTEX
  5
DF34159D60D12E8A
100
AcDbEntity
  8
DETAIL_MEDIUM
100
AcDbVertex
100
AcDb2dVertex
 10
1440.0
 20
-510.0
 30
0.0
  0
VERTEX
  5
DF34159D60D12E8B
100
AcDbEntity
  8
DETAIL_MEDIUM
100
AcDbVertex
100
AcDb2dVertex
 10
1440.0
 20
-450.0
 30
0.0
  0
SEQEND
  5
DF34159D60D12E8C
100
AcDbEntity
  8
DETAIL_MEDIUM
  0
LINE
  5
DF34159D60D12E8D
100
AcDbEntity
  8
DETAIL_MEDIUM
100
AcDbLine
 10
1470.0
 20
-480.0
 30
0.0
 11
1500.0
 21
-480.0
 31
0.0
  0
ENDBLK
  5
DF34159D60D12E90
100
AcDbEntity
  8
DETAIL_MEDIUM
100
AcDbBlockEnd
  0
BLOCK
  5
DF3417648E3B4376
100
AcDbEntity
  8
DETAIL_MEDIUM
100
AcDbBlockBegin
  2
IO_YGR_DATAIN_1_MUX
 70
     0
 10
0.0
 20
0.0
 30
0.0
  1

  0
POLYLINE
  5
DF3417648E3B436E
100
AcDbEntity
  8
DETAIL_MEDIUM
100
AcDb2dPolyline
 66
     1
 10
0.0
 20
0.0
 30
0.0
 39
2.0
 70
     1
  0
VERTEX
  5
DF3417648E3B436F
100
AcDbEntity
  8
DETAIL_MEDIUM
100
AcDbVertex
100
AcDb2dVertex
 10
1440.0
 20
-569.0
 30
0.0
  0
VERTEX
  5
DF3417648E3B4370
100
AcDbEntity
  8
DETAIL_MEDIUM
100
AcDbVertex
100
AcDb2dVertex
 10
1470.0
 20
-584.0
 30
0.0
  0
VERTEX
  5
DF3417648E3B4371
100
AcDbEntity
  8
DETAIL_MEDIUM
100
AcDbVertex
100
AcDb2dVertex
 10
1470.0
 20
-689.0
 30
0.0
  0
VERTEX
  5
DF3417648E3B4372
100
AcDbEntity
  8
DETAIL_MEDIUM
100
AcDbVertex
100
AcDb2dVertex
 10
1440.0
 20
-699.0
 30
0.0
  0
VERTEX
  5
DF3417648E3B4373
100
AcDbEntity
  8
DETAIL_MEDIUM
100
AcDbVertex
100
AcDb2dVertex
 10
1440.0
 20
-569.0
 30
0.0
  0
SEQEND
  5
DF3417648E3B4374
100
AcDbEntity
  8
DETAIL_MEDIUM
  0
LINE
  5
DF3417648E3B4375
100
AcDbEntity
  8
DETAIL_MEDIUM
100
AcDbLine
 10
1471.0
 20
-637.0
 30
0.0
 11
1501.0
 21
-637.0
 31
0.0
  0
ENDBLK
  5
DF3417648E3B4378
100
AcDbEntity
  8
DETAIL_MEDIUM
100
AcDbBlockEnd
  0
BLOCK
  5
DF341A28D93901F0
100
AcDbEntity
  8
DETAIL_MEDIUM
  6
CONTINUOUS
100
AcDbBlockBegin
  2
IO_YGR_REG_4_ACLR_WIRE
 70
     0
 10
0.0
 20
0.0
 30
0.0
  1

  0
LINE
  5
DF341A28D93901EA
100
AcDbEntity
  8
DETAIL_MEDIUM
  6
CONTINUOUS
100
AcDbLine
 10
1220.0
 20
-630.0
 30
0.0
 11
1220.0
 21
-870.0
 31
0.0
  0
LINE
  5
DF341A28D93901E9
100
AcDbEntity
  8
DETAIL_MEDIUM
  6
CONTINUOUS
100
AcDbLine
 10
1150.0
 20
-630.0
 30
0.0
 11
1220.0
 21
-630.0
 31
0.0
  0
LINE
  5
DF341A28D93901E8
100
AcDbEntity
  8
DETAIL_MEDIUM
  6
CONTINUOUS
100
AcDbLine
 10
1150.0
 20
-610.0
 30
0.0
 11
1150.0
 21
-630.0
 31
0.0
  0
ENDBLK
  5
DF341A28D93901F2
100
AcDbEntity
  8
DETAIL_MEDIUM
  6
CONTINUOUS
100
AcDbBlockEnd
  0
BLOCK
  5
F555BB614BA9096B
100
AcDbEntity
  8
DETAIL_MEDIUM
  6
CONTINUOUS
100
AcDbBlockBegin
  2
IO_YGR_REG_4_SCLR_WIRE
 70
     0
 10
0.0
 20
0.0
 30
0.0
  1

  0
LINE
  5
F555BB614BA90963
100
AcDbEntity
  8
DETAIL_MEDIUM
  6
CONTINUOUS
100
AcDbLine
 10
1187.0
 20
-439.0
 30
0.0
 11
1187.0
 21
-513.0
 31
0.0
  0
ENDBLK
  5
F555BB614BA9096C
100
AcDbEntity
  8
DETAIL_MEDIUM
  6
CONTINUOUS
100
AcDbBlockEnd
  0
BLOCK
  5
DF342AC29B2B7708
100
AcDbEntity
  8
DETAIL_MEDIUM
  6
CONTINUOUS
100
AcDbBlockBegin
  2
IO_YGR_OE_WIRE1
 70
     0
 10
0.0
 20
0.0
 30
0.0
  1

  0
LINE
  5
DF342AC29B2B7705
100
AcDbEntity
  8
DETAIL_MEDIUM
  6
CONTINUOUS
100
AcDbLine
 10
90.0
 20
-90.0
 30
0.0
 11
360.0
 21
-90.0
 31
0.0
  0
ENDBLK
  5
DF342AC29B2B770A
100
AcDbEntity
  8
DETAIL_MEDIUM
  6
CONTINUOUS
100
AcDbBlockEnd
  0
BLOCK
  5
DF342AC29B2B770C
100
AcDbEntity
  8
DETAIL_MEDIUM
  6
CONTINUOUS
100
AcDbBlockBegin
  2
IO_YGR_OE_WIRE2
 70
     0
 10
0.0
 20
0.0
 30
0.0
  1

  0
LINE
  5
DF342AC29B2B7706
100
AcDbEntity
  8
DETAIL_MEDIUM
  6
CONTINUOUS
100
AcDbLine
 10
360.0
 20
-90.0
 30
0.0
 11
400.0
 21
-90.0
 31
0.0
  0
ENDBLK
  5
DF342AC29B2B770E
100
AcDbEntity
  8
DETAIL_MEDIUM
  6
CONTINUOUS
100
AcDbBlockEnd
  0
BLOCK
  5
DF3440E4F31965F8
100
AcDbEntity
  8
DETAIL_MEDIUM
100
AcDbBlockBegin
  2
IO_YGR_REG_0_USED_OR_GATE
 70
     0
 10
0.0
 20
0.0
 30
0.0
  1

  0
POLYLINE
  5
DF3440E4F31965E5
100
AcDbEntity
  8
DETAIL_MEDIUM
100
AcDb2dPolyline
 66
     1
 10
0.0
 20
0.0
 30
0.0
 70
     1
  0
VERTEX
  5
DF3440E4F31965E6
100
AcDbEntity
  8
DETAIL_MEDIUM
100
AcDbVertex
100
AcDb2dVertex
 10
648.0
 20
-100.0
 30
0.0
  0
VERTEX
  5
DF3440E4F31965E7
100
AcDbEntity
  8
DETAIL_MEDIUM
100
AcDbVertex
100
AcDb2dVertex
 10
640.0
 20
-90.0
 30
0.0
  0
VERTEX
  5
DF3440E4F31965E8
100
AcDbEntity
  8
DETAIL_MEDIUM
100
AcDbVertex
100
AcDb2dVertex
 10
628.0
 20
-82.0
 30
0.0
  0
VERTEX
  5
DF3440E4F31965E9
100
AcDbEntity
  8
DETAIL_MEDIUM
100
AcDbVertex
100
AcDb2dVertex
 10
618.0
 20
-80.0
 30
0.0
  0
VERTEX
  5
DF3440E4F31965EA
100
AcDbEntity
  8
DETAIL_MEDIUM
100
AcDbVertex
100
AcDb2dVertex
 10
608.0
 20
-80.0
 30
0.0
  0
VERTEX
  5
DF3440E4F31965EB
100
AcDbEntity
  8
DETAIL_MEDIUM
100
AcDbVertex
100
AcDb2dVertex
 10
618.0
 20
-90.0
 30
0.0
  0
VERTEX
  5
DF3440E4F31965EC
100
AcDbEntity
  8
DETAIL_MEDIUM
100
AcDbVertex
100
AcDb2dVertex
 10
620.0
 20
-100.0
 30
0.0
  0
VERTEX
  5
DF3440E4F31965ED
100
AcDbEntity
  8
DETAIL_MEDIUM
100
AcDbVertex
100
AcDb2dVertex
 10
618.0
 20
-110.0
 30
0.0
  0
VERTEX
  5
DF3440E4F31965EE
100
AcDbEntity
  8
DETAIL_MEDIUM
100
AcDbVertex
100
AcDb2dVertex
 10
608.0
 20
-120.0
 30
0.0
  0
VERTEX
  5
DF3440E4F31965EF
100
AcDbEntity
  8
DETAIL_MEDIUM
100
AcDbVertex
100
AcDb2dVertex
 10
618.0
 20
-120.0
 30
0.0
  0
VERTEX
  5
DF3440E4F31965F0
100
AcDbEntity
  8
DETAIL_MEDIUM
100
AcDbVertex
100
AcDb2dVertex
 10
628.0
 20
-118.0
 30
0.0
  0
VERTEX
  5
DF3440E4F31965F1
100
AcDbEntity
  8
DETAIL_MEDIUM
100
AcDbVertex
100
AcDb2dVertex
 10
640.0
 20
-110.0
 30
0.0
  0
VERTEX
  5
DF3440E4F31965F2
100
AcDbEntity
  8
DETAIL_MEDIUM
100
AcDbVertex
100
AcDb2dVertex
 10
648.0
 20
-100.0
 30
0.0
  0
SEQEND
  5
DF3440E4F31965F3
100
AcDbEntity
  8
DETAIL_MEDIUM
  0
ENDBLK
  5
DF3440E4F31965FA
100
AcDbEntity
  8
DETAIL_MEDIUM
100
AcDbBlockEnd
  0
BLOCK
  5
DF346D29A2B4C5DB
100
AcDbEntity
  8
DETAIL_MEDIUM
  6
CONTINUOUS
100
AcDbBlockBegin
  2
IO_YGR_CE_PATH_USED_MUX
 70
     0
 10
0.0
 20
0.0
 30
0.0
  1

  0
POLYLINE
  5
DF346D29A2B4C5CB
100
AcDbEntity
  8
DETAIL_MEDIUM
  6
CONTINUOUS
100
AcDb2dPolyline
 66
     1
 10
0.0
 20
0.0
 30
0.0
 39
2.0
 70
     1
  0
VERTEX
  5
DF346D29A2B4C5CC
100
AcDbEntity
  8
DETAIL_MEDIUM
  6
CONTINUOUS
100
AcDbVertex
100
AcDb2dVertex
 10
780.0
 20
-30.0
 30
0.0
  0
VERTEX
  5
DF346D29A2B4C5CD
100
AcDbEntity
  8
DETAIL_MEDIUM
  6
CONTINUOUS
100
AcDbVertex
100
AcDb2dVertex
 10
810.0
 20
-40.0
 30
0.0
  0
VERTEX
  5
DF346D29A2B4C5CE
100
AcDbEntity
  8
DETAIL_MEDIUM
  6
CONTINUOUS
100
AcDbVertex
100
AcDb2dVertex
 10
810.0
 20
-100.0
 30
0.0
  0
VERTEX
  5
DF346D29A2B4C5CF
100
AcDbEntity
  8
DETAIL_MEDIUM
  6
CONTINUOUS
100
AcDbVertex
100
AcDb2dVertex
 10
780.0
 20
-110.0
 30
0.0
  0
VERTEX
  5
DF346D29A2B4C5D0
100
AcDbEntity
  8
DETAIL_MEDIUM
  6
CONTINUOUS
100
AcDbVertex
100
AcDb2dVertex
 10
780.0
 20
-30.0
 30
0.0
  0
SEQEND
  5
DF346D29A2B4C5D1
100
AcDbEntity
  8
DETAIL_MEDIUM
  6
CONTINUOUS
  0
ENDBLK
  5
DF346D29A2B4C5DD
100
AcDbEntity
  8
DETAIL_MEDIUM
  6
CONTINUOUS
100
AcDbBlockEnd
  0
BLOCK
  5
F555BB614BA90D44
100
AcDbEntity
  8
DETAIL_MEDIUM
  6
CONTINUOUS
100
AcDbBlockBegin
  2
IO_YGR_BUFFER_MUX
 70
     0
 10
0.0
 20
0.0
 30
0.0
  1

  0
POLYLINE
  5
F555BB614BA90D38
100
AcDbEntity
  8
DETAIL_MEDIUM
100
AcDb2dPolyline
 66
     1
 10
0.0
 20
0.0
 30
0.0
 39
2.0
 70
     1
  0
VERTEX
  5
F555BB614BA90D39
100
AcDbEntity
  8
DETAIL_MEDIUM
100
AcDbVertex
100
AcDb2dVertex
 10
652.0
 20
-458.0
 30
0.0
  0
VERTEX
  5
F555BB614BA90D3A
100
AcDbEntity
  8
DETAIL_MEDIUM
100
AcDbVertex
100
AcDb2dVertex
 10
682.0
 20
-468.0
 30
0.0
  0
VERTEX
  5
F555BB614BA90D3B
100
AcDbEntity
  8
DETAIL_MEDIUM
100
AcDbVertex
100
AcDb2dVertex
 10
682.0
 20
-508.0
 30
0.0
  0
VERTEX
  5
F555BB614BA90D3C
100
AcDbEntity
  8
DETAIL_MEDIUM
100
AcDbVertex
100
AcDb2dVertex
 10
652.0
 20
-518.0
 30
0.0
  0
VERTEX
  5
F555BB614BA90D3D
100
AcDbEntity
  8
DETAIL_MEDIUM
100
AcDbVertex
100
AcDb2dVertex
 10
652.0
 20
-458.0
 30
0.0
  0
SEQEND
  5
F555BB614BA90D3E
100
AcDbEntity
  8
DETAIL_MEDIUM
  0
LINE
  5
F555BB614BA90D3F
100
AcDbEntity
  8
DETAIL_MEDIUM
  6
CONTINUOUS
100
AcDbLine
 10
682.0
 20
-488.0
 30
0.0
 11
692.0
 21
-488.0
 31
0.0
  0
LINE
  5
F555BB614BA90D42
100
AcDbEntity
  8
DETAIL_MEDIUM
  6
CONTINUOUS
100
AcDbLine
 10
692.0
 20
-488.0
 30
0.0
 11
692.0
 21
-623.0
 31
0.0
  0
LINE
  5
F555BB614BA90D41
100
AcDbEntity
  8
DETAIL_MEDIUM
  6
CONTINUOUS
100
AcDbLine
 10
692.0
 20
-623.0
 30
0.0
 11
712.0
 21
-623.0
 31
0.0
  0
ENDBLK
  5
F555BB614BA90D45
100
AcDbEntity
  8
DETAIL_MEDIUM
  6
CONTINUOUS
100
AcDbBlockEnd
  0
BLOCK
  5
DF3576C5C0F7B633
100
AcDbEntity
  8
DETAIL_MEDIUM
  6
CONTINUOUS
100
AcDbBlockBegin
  2
IO_YGR_CLKOUT_WIRE1
 70
     0
 10
0.0
 20
0.0
 30
0.0
  1

  0
LINE
  5
DF3576C5C0F7B62E
100
AcDbEntity
  8
DETAIL_MEDIUM
  6
CONTINUOUS
100
AcDbLine
 10
90.0
 20
-131.0
 30
0.0
 11
360.0
 21
-131.0
 31
0.0
  0
ENDBLK
  5
DF3576C5C0F7B635
100
AcDbEntity
  8
DETAIL_MEDIUM
  6
CONTINUOUS
100
AcDbBlockEnd
  0
BLOCK
  5
DF3576C5C0F7B637
100
AcDbEntity
  8
DETAIL_MEDIUM
  6
CONTINUOUS
100
AcDbBlockBegin
  2
IO_YGR_CLKOUT_WIRE2
 70
     0
 10
0.0
 20
0.0
 30
0.0
  1

  0
LINE
  5
DF3576C5C0F7B62F
100
AcDbEntity
  8
DETAIL_MEDIUM
  6
CONTINUOUS
100
AcDbLine
 10
360.0
 20
-131.0
 30
0.0
 11
399.0
 21
-131.0
 31
0.0
  0
ENDBLK
  5
DF3576C5C0F7B639
100
AcDbEntity
  8
DETAIL_MEDIUM
  6
CONTINUOUS
100
AcDbBlockEnd
  0
BLOCK
  5
DF3576C5C0F7B63B
100
AcDbEntity
  8
DETAIL_MEDIUM
  6
CONTINUOUS
100
AcDbBlockBegin
  2
IO_YGR_CLKOUT_WIRE3
 70
     0
 10
0.0
 20
0.0
 30
0.0
  1

  0
LINE
  5
DF3576C5C0F7B631
100
AcDbEntity
  8
DETAIL_MEDIUM
  6
CONTINUOUS
100
AcDbLine
 10
360.0
 20
-320.0
 30
0.0
 11
360.0
 21
-131.0
 31
0.0
  0
ENDBLK
  5
DF3576C5C0F7B63D
100
AcDbEntity
  8
DETAIL_MEDIUM
  6
CONTINUOUS
100
AcDbBlockEnd
  0
BLOCK
  5
DF3576C5C0F7B63F
100
AcDbEntity
  8
DETAIL_MEDIUM
  6
CONTINUOUS
100
AcDbBlockBegin
  2
IO_YGR_CLKOUT_WIRE4
 70
     0
 10
0.0
 20
0.0
 30
0.0
  1

  0
LINE
  5
DF3576C5C0F7B627
100
AcDbEntity
  8
DETAIL_MEDIUM
  6
CONTINUOUS
100
AcDbLine
 10
360.0
 20
-320.0
 30
0.0
 11
360.0
 21
-540.0
 31
0.0
  0
ENDBLK
  5
DF3576C5C0F7B641
100
AcDbEntity
  8
DETAIL_MEDIUM
  6
CONTINUOUS
100
AcDbBlockEnd
  0
BLOCK
  5
FDAC069427702898
100
AcDbEntity
  8
DETAIL_MEDIUM
  6
CONTINUOUS
100
AcDbBlockBegin
  2
IO_YGR_CLKOUT_WIRE5
 70
     0
 10
0.0
 20
0.0
 30
0.0
  1

  0
TEXT
  5
FDAC069427702896
100
AcDbEntity
  8
DETAIL_MEDIUM
  6
CONTINUOUS
100
AcDbText
 10
518.0
 20
-653.0
 30
0.0
 40
10.0
  1
OUTCLK
  7
SIMPLEX
100
AcDbText
  0
LINE
  5
FDAC069427702894
100
AcDbEntity
  8
DETAIL_MEDIUM
  6
CONTINUOUS
100
AcDbLine
 10
543.0
 20
-614.0
 30
0.0
 11
543.0
 21
-636.0
 31
0.0
  0
LINE
  5
1C2296628DE89ADF
100
AcDbEntity
  8
DETAIL_MEDIUM
  6
CONTINUOUS
100
AcDbLine
 10
368.0
 20
-539.0
 30
0.0
 11
408.0
 21
-539.0
 31
0.0
  0
ENDBLK
  5
FDAC069427702899
100
AcDbEntity
  8
DETAIL_MEDIUM
  6
CONTINUOUS
100
AcDbBlockEnd
  0
BLOCK
  5
FDAC0694277027C6
100
AcDbEntity
  8
DETAIL_MEDIUM
  6
CONTINUOUS
100
AcDbBlockBegin
  2
IO_YGR_DDR_CLKOUT2
 70
     0
 10
0.0
 20
0.0
 30
0.0
  1

  0
LINE
  5
FDAC0694277027C4
100
AcDbEntity
  8
DETAIL_MEDIUM
  6
CONTINUOUS
100
AcDbLine
 10
368.0
 20
-729.0
 30
0.0
 11
408.0
 21
-729.0
 31
0.0
  0
LINE
  5
60251C703374864
100
AcDbEntity
  8
DETAIL_MEDIUM
  6
CONTINUOUS
100
AcDbLine
 10
368.0
 20
-539.0
 30
0.0
 11
368.0
 21
-729.0
 31
0.0
  0
ENDBLK
  5
FDAC0694277027C7
100
AcDbEntity
  8
DETAIL_MEDIUM
  6
CONTINUOUS
100
AcDbBlockEnd
  0
BLOCK
  5
DF399D3639244AB2
100
AcDbEntity
  8
DETAIL_MEDIUM
  6
CONTINUOUS
100
AcDbBlockBegin
  2
IO_YGR_CEOUT_WIRE1
 70
     0
 10
0.0
 20
0.0
 30
0.0
  1

  0
LINE
  5
DF399D3639244AA9
100
AcDbEntity
  8
DETAIL_MEDIUM
  6
CONTINUOUS
100
AcDbLine
 10
90.0
 20
-170.0
 30
0.0
 11
200.0
 21
-170.0
 31
0.0
  0
ENDBLK
  5
DF399D3639244AB4
100
AcDbEntity
  8
DETAIL_MEDIUM
  6
CONTINUOUS
100
AcDbBlockEnd
  0
BLOCK
  5
DF399D3639244AB8
100
AcDbEntity
  8
DETAIL_MEDIUM
  6
CONTINUOUS
100
AcDbBlockBegin
  2
IO_YGR_CEOUT_WIRE2
 70
     0
 10
0.0
 20
0.0
 30
0.0
  1

  0
LINE
  5
DF399D3639244AB6
100
AcDbEntity
  8
DETAIL_MEDIUM
  6
CONTINUOUS
100
AcDbLine
 10
200.0
 20
-170.0
 30
0.0
 11
320.0
 21
-170.0
 31
0.0
  0
ENDBLK
  5
DF399D3639244ABA
100
AcDbEntity
  8
DETAIL_MEDIUM
  6
CONTINUOUS
100
AcDbBlockEnd
  0
BLOCK
  5
DF399D3639244ABC
100
AcDbEntity
  8
DETAIL_MEDIUM
  6
CONTINUOUS
100
AcDbBlockBegin
  2
IO_YGR_CEOUT_WIRE3
 70
     0
 10
0.0
 20
0.0
 30
0.0
  1

  0
LINE
  5
DF399D3639244AAB
100
AcDbEntity
  8
DETAIL_MEDIUM
  6
CONTINUOUS
100
AcDbLine
 10
200.0
 20
-170.0
 30
0.0
 11
200.0
 21
-580.0
 31
0.0
  0
ENDBLK
  5
DF399D3639244ABE
100
AcDbEntity
  8
DETAIL_MEDIUM
  6
CONTINUOUS
100
AcDbBlockEnd
  0
BLOCK
  5
DF399D3639244AC2
100
AcDbEntity
  8
DETAIL_MEDIUM
  6
CONTINUOUS
100
AcDbBlockBegin
  2
IO_YGR_CEOUT_WIRE4
 70
     0
 10
0.0
 20
0.0
 30
0.0
  1

  0
LINE
  5
DF399D3639244AC0
100
AcDbEntity
  8
DETAIL_MEDIUM
  6
CONTINUOUS
100
AcDbLine
 10
200.0
 20
-580.0
 30
0.0
 11
320.0
 21
-580.0
 31
0.0
  0
ENDBLK
  5
DF399D3639244AC4
100
AcDbEntity
  8
DETAIL_MEDIUM
  6
CONTINUOUS
100
AcDbBlockEnd
  0
BLOCK
  5
DF60594FF273AA4D
100
AcDbEntity
  8
DETAIL_MEDIUM
  6
CONTINUOUS
100
AcDbBlockBegin
  2
IO_YGR_SCLR_WIRE1
 70
     0
 10
0.0
 20
0.0
 30
0.0
  1

  0
LINE
  5
DF60594FF273AA47
100
AcDbEntity
  8
DETAIL_MEDIUM
  6
CONTINUOUS
100
AcDbLine
 10
90.0
 20
-360.0
 30
0.0
 11
120.0
 21
-360.0
 31
0.0
  0
ENDBLK
  5
DF60594FF273AA4F
100
AcDbEntity
  8
DETAIL_MEDIUM
  6
CONTINUOUS
100
AcDbBlockEnd
  0
BLOCK
  5
DF8C9DFFA1A9CE80
100
AcDbEntity
  8
DETAIL_MEDIUM
  6
CONTINUOUS
100
AcDbBlockBegin
  2
IO_YGR_SCLR_WIRE2
 70
     0
 10
0.0
 20
0.0
 30
0.0
  1

  0
LINE
  5
DF8C9DFFA1A9CE7B
100
AcDbEntity
  8
DETAIL_MEDIUM
  6
CONTINUOUS
100
AcDbLine
 10
120.0
 20
-360.0
 30
0.0
 11
120.0
 21
-430.0
 31
0.0
  0
ENDBLK
  5
DF8C9DFFA1A9CE82
100
AcDbEntity
  8
DETAIL_MEDIUM
  6
CONTINUOUS
100
AcDbBlockEnd
  0
BLOCK
  5
DFE5275F001614F1
100
AcDbEntity
  8
DETAIL_MEDIUM
  6
CONTINUOUS
100
AcDbBlockBegin
  2
IO_YGR_ACLR_WIRE1
 70
     0
 10
0.0
 20
0.0
 30
0.0
  1

  0
LINE
  5
DFE5275F001614EB
100
AcDbEntity
  8
DETAIL_MEDIUM
  6
CONTINUOUS
100
AcDbLine
 10
90.0
 20
-410.0
 30
0.0
 11
340.0
 21
-410.0
 31
0.0
  0
ENDBLK
  5
DFE5275F001614F3
100
AcDbEntity
  8
DETAIL_MEDIUM
  6
CONTINUOUS
100
AcDbBlockEnd
  0
BLOCK
  5
E0963A1DBCEEA3FD
100
AcDbEntity
  8
DETAIL_MEDIUM
  6
CONTINUOUS
100
AcDbBlockBegin
  2
IO_YGR_ACLR_WIRE2
 70
     0
 10
0.0
 20
0.0
 30
0.0
  1

  0
LINE
  5
E0963A1DBCEEA3F7
100
AcDbEntity
  8
DETAIL_MEDIUM
  6
CONTINUOUS
100
AcDbLine
 10
340.0
 20
-410.0
 30
0.0
 11
340.0
 21
-630.0
 31
0.0
  0
ENDBLK
  5
E0963A1DBCEEA3FF
100
AcDbEntity
  8
DETAIL_MEDIUM
  6
CONTINUOUS
100
AcDbBlockEnd
  0
BLOCK
  5
FDAC0694271A7771
100
AcDbEntity
  8
DETAIL_MEDIUM
  6
CONTINUOUS
100
AcDbBlockBegin
  2
IO_YGR_ACLR_POINT1
 70
     0
 10
0.0
 20
0.0
 30
0.0
  1

  0
POINT
  5
FDAC0694271A776F
100
AcDbEntity
  8
DETAIL_MEDIUM
  6
CONTINUOUS
100
AcDbPoint
 10
348.0
 20
-409.0
 30
0.0
  0
ENDBLK
  5
FDAC0694271A7772
100
AcDbEntity
  8
DETAIL_MEDIUM
  6
CONTINUOUS
100
AcDbBlockEnd
  0
BLOCK
  5
E1F85F9B369F26FE
100
AcDbEntity
  8
DETAIL_MEDIUM
  6
CONTINUOUS
100
AcDbBlockBegin
  2
IO_YGR_DIN_0_WIRE1
 70
     0
 10
0.0
 20
0.0
 30
0.0
  1

  0
LINE
  5
E1F85F9B369F26EE
100
AcDbEntity
  8
DETAIL_MEDIUM
  6
CONTINUOUS
100
AcDbLine
 10
90.0
 20
-500.0
 30
0.0
 11
180.0
 21
-500.0
 31
0.0
  0
ENDBLK
  5
E1F85F9B369F2700
100
AcDbEntity
  8
DETAIL_MEDIUM
  6
CONTINUOUS
100
AcDbBlockEnd
  0
BLOCK
  5
E4BCAA9538E37010
100
AcDbEntity
  8
DETAIL_MEDIUM
  6
CONTINUOUS
100
AcDbBlockBegin
  2
IO_YGR_DIN_0_WIRE2
 70
     0
 10
0.0
 20
0.0
 30
0.0
  1

  0
LINE
  5
E4BCAA9538E3700E
100
AcDbEntity
  8
DETAIL_MEDIUM
  6
CONTINUOUS
100
AcDbLine
 10
180.0
 20
-500.0
 30
0.0
 11
400.0
 21
-500.0
 31
0.0
  0
ENDBLK
  5
E4BCAA9538E37012
100
AcDbEntity
  8
DETAIL_MEDIUM
  6
CONTINUOUS
100
AcDbBlockEnd
  0
BLOCK
  5
E4BCAA9538E37030
100
AcDbEntity
  8
DETAIL_MEDIUM
  6
CONTINUOUS
100
AcDbBlockBegin
  2
IO_YGR_REG_2_USED_WIRE
 70
     0
 10
0.0
 20
0.0
 30
0.0
  1

  0
LINE
  5
E4BCAA9538E3701D
100
AcDbEntity
  8
DETAIL_MEDIUM
  6
CONTINUOUS
100
AcDbLine
 10
500.0
 20
-570.0
 30
0.0
 11
520.0
 21
-570.0
 31
0.0
  0
LINE
  5
E4BCAA9538E3701E
100
AcDbEntity
  8
DETAIL_MEDIUM
  6
CONTINUOUS
100
AcDbLine
 10
500.0
 20
-500.0
 30
0.0
 11
500.0
 21
-570.0
 31
0.0
  0
LINE
  5
E4BCAA9538E3701F
100
AcDbEntity
  8
DETAIL_MEDIUM
  6
CONTINUOUS
100
AcDbLine
 10
480.0
 20
-500.0
 30
0.0
 11
500.0
 21
-500.0
 31
0.0
  0
ENDBLK
  5
E4BCAA9538E37032
100
AcDbEntity
  8
DETAIL_MEDIUM
  6
CONTINUOUS
100
AcDbBlockEnd
  0
BLOCK
  5
EA45408A26E1D12D
100
AcDbEntity
  8
DETAIL_MEDIUM
  6
CONTINUOUS
100
AcDbBlockBegin
  2
IO_YGR_DIN_1_WIRE1
 70
     0
 10
0.0
 20
0.0
 30
0.0
  1

  0
LINE
  5
EA45408A26E1D12B
100
AcDbEntity
  8
DETAIL_MEDIUM
  6
CONTINUOUS
100
AcDbLine
 10
91.0
 20
-690.0
 30
0.0
 11
400.0
 21
-690.0
 31
0.0
  0
ENDBLK
  5
EA45408A26E1D12F
100
AcDbEntity
  8
DETAIL_MEDIUM
  6
CONTINUOUS
100
AcDbBlockEnd
  0
BLOCK
  5
EA45408A26E1D131
100
AcDbEntity
  8
DETAIL_MEDIUM
  6
CONTINUOUS
100
AcDbBlockBegin
  2
IO_YGR_DIN_1_WIRE2
 70
     0
 10
0.0
 20
0.0
 30
0.0
  1

  0
LINE
  5
EA45408A26E1D123
100
AcDbEntity
  8
DETAIL_MEDIUM
  6
CONTINUOUS
100
AcDbLine
 10
480.0
 20
-690.0
 30
0.0
 11
500.0
 21
-690.0
 31
0.0
  0
LINE
  5
EA45408A26E1D124
100
AcDbEntity
  8
DETAIL_MEDIUM
  6
CONTINUOUS
100
AcDbLine
 10
500.0
 20
-690.0
 30
0.0
 11
500.0
 21
-610.0
 31
0.0
  0
LINE
  5
EA45408A26E1D125
100
AcDbEntity
  8
DETAIL_MEDIUM
  6
CONTINUOUS
100
AcDbLine
 10
500.0
 20
-610.0
 30
0.0
 11
520.0
 21
-610.0
 31
0.0
  0
ENDBLK
  5
EA45408A26E1D133
100
AcDbEntity
  8
DETAIL_MEDIUM
  6
CONTINUOUS
100
AcDbBlockEnd
  0
BLOCK
  5
F555BB614BA90953
100
AcDbEntity
  8
DETAIL_MEDIUM
  6
CONTINUOUS
100
AcDbBlockBegin
  2
IO_YGR_DELAY_DATAIN0_OR_REG
 70
     0
 10
0.0
 20
0.0
 30
0.0
  1

  0
LINE
  5
F555BB614BA90931
100
AcDbEntity
  8
DETAIL_MEDIUM
  6
CONTINUOUS
100
AcDbLine
 10
979.0
 20
-623.0
 30
0.0
 11
979.0
 21
-533.0
 31
0.0
  0
LINE
  5
F555BB614BA90930
100
AcDbEntity
  8
DETAIL_MEDIUM
  6
CONTINUOUS
100
AcDbLine
 10
979.0
 20
-623.0
 30
0.0
 11
964.0
 21
-623.0
 31
0.0
  0
LINE
  5
F555BB614BA9093F
100
AcDbEntity
  8
DETAIL_MEDIUM
  6
CONTINUOUS
100
AcDbLine
 10
861.0
 20
-623.0
 30
0.0
 11
884.0
 21
-623.0
 31
0.0
  0
ENDBLK
  5
F555BB614BA90955
100
AcDbEntity
  8
DETAIL_MEDIUM
  6
CONTINUOUS
100
AcDbBlockEnd
  0
BLOCK
  5
FDAC0694277026E8
100
AcDbEntity
  8
DETAIL_MEDIUM
  6
CONTINUOUS
100
AcDbBlockBegin
  2
IO_YGR_DQS_CLK_WIRE
 70
     0
 10
0.0
 20
0.0
 30
0.0
  1

  0
LINE
  5
FDAC0694277026E5
100
AcDbEntity
  8
DETAIL_MEDIUM
  6
CONTINUOUS
100
AcDbLine
 10
844.0
 20
-753.0
 30
0.0
 11
857.0
 21
-753.0
 31
0.0
  0
ENDBLK
  5
FDAC0694277026E9
100
AcDbEntity
  8
DETAIL_MEDIUM
  6
CONTINUOUS
100
AcDbBlockEnd
  0
BLOCK
  5
FDAC069427006237
100
AcDbEntity
  8
DETAIL_MEDIUM
  6
CONTINUOUS
100
AcDbBlockBegin
  2
IO_YGR_BYPASS_DELAY_CHAIN_WIRE
 70
     0
 10
0.0
 20
0.0
 30
0.0
  1

  0
LINE
  5
F81D29C794C8A3CB
100
AcDbEntity
  8
DETAIL_MEDIUM
  6
CONTINUOUS
100
AcDbLine
 10
841.0
 20
-623.0
 30
0.0
 11
861.0
 21
-623.0
 31
0.0
  0
LINE
  5
F81D29C794C8A3CC
100
AcDbEntity
  8
DETAIL_MEDIUM
  6
CONTINUOUS
100
AcDbLine
 10
861.0
 20
-623.0
 30
0.0
 11
861.0
 21
-422.0
 31
0.0
  0
LINE
  5
FDAC069427006235
100
AcDbEntity
  8
DETAIL_MEDIUM
  6
CONTINUOUS
100
AcDbLine
 10
861.0
 20
-422.0
 30
0.0
 11
1538.0
 21
-422.0
 31
0.0
  0
ENDBLK
  5
FDAC069427006238
100
AcDbEntity
  8
DETAIL_MEDIUM
  6
CONTINUOUS
100
AcDbBlockEnd
  0
BLOCK
  5
FDAC06942700623A
100
AcDbEntity
  8
PORTS
  6
CONTINUOUS
100
AcDbBlockBegin
  2
IO_YGR_COMBOUT
 70
     2
 10
0.0
 20
0.0
 30
0.0
  1

  0
ATTDEF
  5
FDAC069427006232
100
AcDbEntity
  8
PORTS
  6
CONTINUOUS
100
AcDbText
 10
1540.0
 20
-409.0
 30
0.0
 40
10.0
  1

 50
0.000019
  7
SIMPLEX
100
AcDbAttributeDefinition
  3

  2
SIDE
 70
     0
  0
POLYLINE
  5
FDAC069427006229
100
AcDbEntity
  8
PORTS
  6
CONTINUOUS
100
AcDb2dPolyline
 66
     1
 10
0.0
 20
0.0
 30
0.0
 70
     1
  0
VERTEX
  5
FDAC06942700622A
100
AcDbEntity
  8
PORTS
  6
CONTINUOUS
100
AcDbVertex
100
AcDb2dVertex
 10
1618.0
 20
-421.0
 30
0.0
  0
VERTEX
  5
FDAC06942700622B
100
AcDbEntity
  8
PORTS
  6
CONTINUOUS
100
AcDbVertex
100
AcDb2dVertex
 10
1610.0
 20
-427.0
 30
0.0
  0
VERTEX
  5
FDAC06942700622C
100
AcDbEntity
  8
PORTS
  6
CONTINUOUS
100
AcDbVertex
100
AcDb2dVertex
 10
1538.0
 20
-427.0
 30
0.0
  0
VERTEX
  5
FDAC06942700622D
100
AcDbEntity
  8
PORTS
  6
CONTINUOUS
100
AcDbVertex
100
AcDb2dVertex
 10
1538.0
 20
-415.0
 30
0.0
  0
VERTEX
  5
FDAC06942700622E
100
AcDbEntity
  8
PORTS
  6
CONTINUOUS
100
AcDbVertex
100
AcDb2dVertex
 10
1610.0
 20
-415.0
 30
0.0
  0
VERTEX
  5
FDAC06942700622F
100
AcDbEntity
  8
PORTS
  6
CONTINUOUS
100
AcDbVertex
100
AcDb2dVertex
 10
1618.0
 20
-421.0
 30
0.0
  0
SEQEND
  5
FDAC069427006230
100
AcDbEntity
  8
PORTS
  6
CONTINUOUS
  0
POINT
  5
FDAC069427006231
100
AcDbEntity
  8
PORTS
  6
CONTINUOUS
100
AcDbPoint
 10
1538.0
 20
-421.0
 30
0.0
  0
ENDBLK
  5
FDAC06942700623B
100
AcDbEntity
  8
PORTS
  6
CONTINUOUS
100
AcDbBlockEnd
  0
BLOCK
  5
FDAC06942700644C
100
AcDbEntity
  8
DETAIL_MEDIUM
  6
CONTINUOUS
100
AcDbBlockBegin
  2
IO_YGR_REG_1_USED_SEL_OE
 70
     0
 10
0.0
 20
0.0
 30
0.0
  1

  0
LINE
  5
FDAC069427006448
100
AcDbEntity
  8
DETAIL_MEDIUM
  6
CONTINUOUS
100
AcDbLine
 10
538.0
 20
-179.0
 30
-1.0
 11
568.0
 21
-159.0
 31
0.0
  0
ENDBLK
  5
FDAC06942700644E
100
AcDbEntity
  8
DETAIL_MEDIUM
  6
CONTINUOUS
100
AcDbBlockEnd
  0
BLOCK
  5
FDAC069427006450
100
AcDbEntity
  8
DETAIL_MEDIUM
  6
CONTINUOUS
100
AcDbBlockBegin
  2
IO_YGR_REG_1_USED_SEL_GND
 70
     0
 10
0.0
 20
0.0
 30
0.0
  1

  0
LINE
  5
FDAC06942700644A
100
AcDbEntity
  8
DETAIL_MEDIUM
  6
CONTINUOUS
100
AcDbLine
 10
538.0
 20
-179.0
 30
-1.0
 11
568.0
 21
-199.0
 31
0.0
  0
ENDBLK
  5
FDAC069427006452
100
AcDbEntity
  8
DETAIL_MEDIUM
  6
CONTINUOUS
100
AcDbBlockEnd
  0
BLOCK
  5
FDAC06942712FCC0
100
AcDbEntity
  8
DETAIL_MEDIUM
  6
CONTINUOUS
100
AcDbBlockBegin
  2
IO_YGR_DQS_LOGIC
 70
     0
 10
0.0
 20
0.0
 30
0.0
  1

  0
LINE
  5
FDAC06942712FC97
100
AcDbEntity
  8
DETAIL_MEDIUM
  6
CONTINUOUS
100
AcDbLine
 10
857.0
 20
-613.0
 30
0.0
 11
838.0
 21
-613.0
 31
0.0
  0
LINE
  5
FDAC06942712FC98
100
AcDbEntity
  8
DETAIL_MEDIUM
  6
CONTINUOUS
100
AcDbLine
 10
857.0
 20
-318.0
 30
0.0
 11
857.0
 21
-613.0
 31
0.0
  0
LINE
  5
FDAC06942712FC99
100
AcDbEntity
  8
DETAIL_MEDIUM
  6
CONTINUOUS
100
AcDbLine
 10
857.0
 20
-318.0
 30
0.0
 11
1067.862915
 21
-318.0
 31
0.0
  0
TEXT
  5
FDAC06942712FC9A
100
AcDbEntity
  8
DETAIL_MEDIUM
  6
CONTINUOUS
100
AcDbText
 10
1109.769553
 20
-210.887302
 30
0.0
 40
10.0
  1
DQS
  7
SIMPLEX
100
AcDbText
  0
TEXT
  5
FDAC06942712FC9B
100
AcDbEntity
  8
DETAIL_MEDIUM
  6
CONTINUOUS
100
AcDbText
 10
1104.870058
 20
-231.343146
 30
0.0
 40
10.0
  1
LOGIC
  7
SIMPLEX
100
AcDbText
  0
POLYLINE
  5
FDAC06942712FC9C
100
AcDbEntity
  8
DETAIL_MEDIUM
  6
CONTINUOUS
100
AcDb2dPolyline
 66
     1
 10
0.0
 20
0.0
 30
0.0
 70
     1
  0
VERTEX
  5
FDAC06942712FC9D
100
AcDbEntity
  8
DETAIL_MEDIUM
  6
CONTINUOUS
100
AcDbVertex
100
AcDb2dVertex
 10
1181.0
 20
-345.769553
 30
0.0
  0
VERTEX
  5
FDAC06942712FC9E
100
AcDbEntity
  8
DETAIL_MEDIUM
  6
CONTINUOUS
100
AcDbVertex
100
AcDb2dVertex
 10
1067.862915
 20
-345.769553
 30
0.0
  0
VERTEX
  5
FDAC06942712FC9F
100
AcDbEntity
  8
DETAIL_MEDIUM
  6
CONTINUOUS
100
AcDbVertex
100
AcDb2dVertex
 10
1067.862915
 20
-289.20101
 30
0.0
  0
VERTEX
  5
FDAC06942712FCA0
100
AcDbEntity
  8
DETAIL_MEDIUM
  6
CONTINUOUS
100
AcDbVertex
100
AcDb2dVertex
 10
1181.0
 20
-289.20101
 30
0.0
  0
SEQEND
  5
FDAC06942712FCA1
100
AcDbEntity
  8
DETAIL_MEDIUM
  6
CONTINUOUS
  0
TEXT
  5
FDAC06942712FCA2
100
AcDbEntity
  8
DETAIL_MEDIUM
  6
CONTINUOUS
100
AcDbText
 10
1089.0
 20
-331.0
 30
0.0
 40
10.0
  1
Delay Chain
  7
SIMPLEX
100
AcDbText
  0
TEXT
  5
FDAC06942712FCA3
100
AcDbEntity
  8
DETAIL_MEDIUM
  6
CONTINUOUS
100
AcDbText
 10
1111.0
 20
-313.0
 30
0.0
 40
10.0
  1
DQS
  7
SIMPLEX
100
AcDbText
  0
LINE
  5
FDAC06942712FCA4
100
AcDbEntity
  8
DETAIL_MEDIUM
  6
CONTINUOUS
100
AcDbLine
 10
975.0
 20
-318.0
 30
0.0
 11
975.0
 21
-217.0
 31
0.0
  0
LINE
  5
FDAC06942712FCA5
100
AcDbEntity
  8
DETAIL_MEDIUM
  6
CONTINUOUS
100
AcDbLine
 10
1274.0
 20
-217.0
 30
0.0
 11
1274.0
 21
-318.0
 31
0.0
  0
LINE
  5
FDAC06942712FCA6
100
AcDbEntity
  8
DETAIL_MEDIUM
  6
CONTINUOUS
100
AcDbLine
 10
1058.0
 20
-207.0
 30
0.0
 11
1058.0
 21
-227.0
 31
0.0
  0
LINE
  5
FDAC06942712FCA7
100
AcDbEntity
  8
DETAIL_MEDIUM
  6
CONTINUOUS
100
AcDbLine
 10
1058.0
 20
-227.0
 30
0.0
 11
1068.0
 21
-217.0
 31
0.0
  0
LINE
  5
FDAC06942712FCA8
100
AcDbEntity
  8
DETAIL_MEDIUM
  6
CONTINUOUS
100
AcDbLine
 10
1068.0
 20
-217.0
 30
0.0
 11
1058.0
 21
-207.0
 31
0.0
  0
LINE
  5
FDAC06942712FCA9
100
AcDbEntity
  8
DETAIL_MEDIUM
  6
CONTINUOUS
100
AcDbLine
 10
1191.0
 20
-227.0
 30
0.0
 11
1191.0
 21
-207.0
 31
0.0
  0
LINE
  5
FDAC06942712FCAA
100
AcDbEntity
  8
DETAIL_MEDIUM
  6
CONTINUOUS
100
AcDbLine
 10
1191.0
 20
-207.0
 30
0.0
 11
1181.0
 21
-217.0
 31
0.0
  0
LINE
  5
FDAC06942712FCAB
100
AcDbEntity
  8
DETAIL_MEDIUM
  6
CONTINUOUS
100
AcDbLine
 10
1181.0
 20
-217.0
 30
0.0
 11
1191.0
 21
-227.0
 31
0.0
  0
LINE
  5
FDAC06942712FCAC
100
AcDbEntity
  8
DETAIL_MEDIUM
  6
CONTINUOUS
100
AcDbLine
 10
975.0
 20
-217.0
 30
0.0
 11
1058.0
 21
-217.0
 31
0.0
  0
LINE
  5
FDAC06942712FCAD
100
AcDbEntity
  8
DETAIL_MEDIUM
  6
CONTINUOUS
100
AcDbLine
 10
1107.0
 20
-279.0
 30
0.0
 11
1087.0
 21
-279.0
 31
0.0
  0
LINE
  5
FDAC06942712FCAE
100
AcDbEntity
  8
DETAIL_MEDIUM
  6
CONTINUOUS
100
AcDbLine
 10
1087.0
 20
-279.0
 30
0.0
 11
1097.0
 21
-289.0
 31
0.0
  0
LINE
  5
FDAC06942712FCAF
100
AcDbEntity
  8
DETAIL_MEDIUM
  6
CONTINUOUS
100
AcDbLine
 10
1097.0
 20
-289.0
 30
0.0
 11
1107.0
 21
-279.0
 31
0.0
  0
LINE
  5
FDAC06942712FCB0
100
AcDbEntity
  8
DETAIL_MEDIUM
  6
CONTINUOUS
100
AcDbLine
 10
1097.0
 20
-242.0
 30
0.0
 11
1097.0
 21
-279.0
 31
0.0
  0
LINE
  5
FDAC06942712FCB1
100
AcDbEntity
  8
DETAIL_MEDIUM
  6
CONTINUOUS
100
AcDbLine
 10
1157.0
 20
-279.0
 30
0.0
 11
1137.0
 21
-279.0
 31
0.0
  0
LINE
  5
FDAC06942712FCB2
100
AcDbEntity
  8
DETAIL_MEDIUM
  6
CONTINUOUS
100
AcDbLine
 10
1137.0
 20
-279.0
 30
0.0
 11
1147.0
 21
-289.0
 31
0.0
  0
LINE
  5
FDAC06942712FCB3
100
AcDbEntity
  8
DETAIL_MEDIUM
  6
CONTINUOUS
100
AcDbLine
 10
1147.0
 20
-289.0
 30
0.0
 11
1157.0
 21
-279.0
 31
0.0
  0
LINE
  5
FDAC06942712FCB4
100
AcDbEntity
  8
DETAIL_MEDIUM
  6
CONTINUOUS
100
AcDbLine
 10
1147.0
 20
-242.0
 30
0.0
 11
1147.0
 21
-279.0
 31
0.0
  0
LINE
  5
FDAC06942712FCB5
100
AcDbEntity
  8
DETAIL_MEDIUM
  6
CONTINUOUS
100
AcDbLine
 10
1274.0
 20
-217.0
 30
0.0
 11
1191.0
 21
-217.0
 31
0.0
  0
POINT
  5
FDAC06942712FCB6
100
AcDbEntity
  8
DETAIL_MEDIUM
  6
CONTINUOUS
100
AcDbPoint
 10
975.0
 20
-318.0
 30
0.0
  0
POINT
  5
FDAC06942712FCB7
100
AcDbEntity
  8
DETAIL_MEDIUM
  6
CONTINUOUS
100
AcDbPoint
 10
1274.0
 20
-318.0
 30
0.0
  0
POLYLINE
  5
FDAC06942712FCB9
100
AcDbEntity
  8
DETAIL_MEDIUM
  6
CONTINUOUS
100
AcDb2dPolyline
 66
     1
 10
0.0
 20
0.0
 30
0.0
 70
     1
  0
VERTEX
  5
FDAC06942712FCBA
100
AcDbEntity
  8
DETAIL_MEDIUM
  6
CONTINUOUS
100
AcDbVertex
100
AcDb2dVertex
 10
1181.137085
 20
-242.0
 30
0.0
  0
VERTEX
  5
FDAC06942712FCBB
100
AcDbEntity
  8
DETAIL_MEDIUM
  6
CONTINUOUS
100
AcDbVertex
100
AcDb2dVertex
 10
1068.0
 20
-242.0
 30
0.0
  0
VERTEX
  5
FDAC06942712FCBC
100
AcDbEntity
  8
DETAIL_MEDIUM
  6
CONTINUOUS
100
AcDbVertex
100
AcDb2dVertex
 10
1068.0
 20
-185.431458
 30
0.0
  0
VERTEX
  5
FDAC06942712FCBD
100
AcDbEntity
  8
DETAIL_MEDIUM
  6
CONTINUOUS
100
AcDbVertex
100
AcDb2dVertex
 10
1181.137085
 20
-185.431458
 30
0.0
  0
SEQEND
  5
FDAC06942712FCBE
100
AcDbEntity
  8
DETAIL_MEDIUM
  6
CONTINUOUS
  0
LINE
  5
FDAC06942712FCB8
100
AcDbEntity
  8
DETAIL_MEDIUM
  6
CONTINUOUS
100
AcDbLine
 10
1181.0
 20
-318.0
 30
0.0
 11
1304.0
 21
-318.0
 31
0.0
  0
LINE
  5
FDAC06942712FCBF
100
AcDbEntity
  8
DETAIL_MEDIUM
  6
CONTINUOUS
100
AcDbLine
 10
1384.0
 20
-318.0
 30
0.0
 11
1533.0
 21
-318.0
 31
0.0
  0
ENDBLK
  5
FDAC06942712FCC1
100
AcDbEntity
  8
DETAIL_MEDIUM
  6
CONTINUOUS
100
AcDbBlockEnd
  0
BLOCK
  5
FDAC06942712F472
100
AcDbEntity
  8
PORTS
  6
CONTINUOUS
100
AcDbBlockBegin
  2
IO_YGR_DQS_BUS_OUT
 70
     2
 10
0.0
 20
0.0
 30
0.0
  1

  0
ATTDEF
  5
FDAC06942712F44A
100
AcDbEntity
  8
PORTS
  6
CONTINUOUS
100
AcDbText
 10
1535.0
 20
-306.0
 30
0.0
 40
10.0
  1

 50
0.000019
  7
SIMPLEX
100
AcDbAttributeDefinition
  3

  2
SIDE
 70
     0
  0
POINT
  5
FDAC06942712F44B
100
AcDbEntity
  8
PORTS
  6
CONTINUOUS
100
AcDbPoint
 10
1533.0
 20
-318.0
 30
0.0
  0
POLYLINE
  5
FDAC06942712F44C
100
AcDbEntity
  8
PORTS
  6
CONTINUOUS
100
AcDb2dPolyline
 66
     1
 10
0.0
 20
0.0
 30
0.0
 70
     1
  0
VERTEX
  5
FDAC06942712F44D
100
AcDbEntity
  8
PORTS
  6
CONTINUOUS
100
AcDbVertex
100
AcDb2dVertex
 10
1613.0
 20
-318.0
 30
0.0
  0
VERTEX
  5
FDAC06942712F44E
100
AcDbEntity
  8
PORTS
  6
CONTINUOUS
100
AcDbVertex
100
AcDb2dVertex
 10
1605.0
 20
-324.0
 30
0.0
  0
VERTEX
  5
FDAC06942712F44F
100
AcDbEntity
  8
PORTS
  6
CONTINUOUS
100
AcDbVertex
100
AcDb2dVertex
 10
1533.0
 20
-324.0
 30
0.0
  0
VERTEX
  5
FDAC06942712F450
100
AcDbEntity
  8
PORTS
  6
CONTINUOUS
100
AcDbVertex
100
AcDb2dVertex
 10
1533.0
 20
-312.0
 30
0.0
  0
VERTEX
  5
FDAC06942712F451
100
AcDbEntity
  8
PORTS
  6
CONTINUOUS
100
AcDbVertex
100
AcDb2dVertex
 10
1605.0
 20
-312.0
 30
0.0
  0
VERTEX
  5
FDAC06942712F452
100
AcDbEntity
  8
PORTS
  6
CONTINUOUS
100
AcDbVertex
100
AcDb2dVertex
 10
1613.0
 20
-318.0
 30
0.0
  0
SEQEND
  5
FDAC06942712F453
100
AcDbEntity
  8
PORTS
  6
CONTINUOUS
  0
ENDBLK
  5
FDAC06942712F474
100
AcDbEntity
  8
PORTS
  6
CONTINUOUS
100
AcDbBlockEnd
  0
BLOCK
  5
FDAC06942712F479
100
AcDbEntity
  8
PORTS
  6
CONTINUOUS
100
AcDbBlockBegin
  2
IO_YGR_DQS_UPDATE_ENABLE
 70
     2
 10
0.0
 20
0.0
 30
0.0
  1

  0
ATTDEF
  5
FDAC0694270F3DCC
100
AcDbEntity
  8
PORTS
  6
CONTINUOUS
100
AcDbText
 10
1077.0
 20
-6.0
 30
0.0
 40
10.0
  1

  7
SIMPLEX
100
AcDbAttributeDefinition
  3

  2
SIDE
 70
     0
  0
POLYLINE
  5
FDAC0694270F3DCD
100
AcDbEntity
  8
PORTS
  6
CONTINUOUS
100
AcDb2dPolyline
 66
     1
 10
0.0
 20
0.0
 30
0.0
 70
     1
  0
VERTEX
  5
FDAC0694270F3DCE
100
AcDbEntity
  8
PORTS
  6
CONTINUOUS
100
AcDbVertex
100
AcDb2dVertex
 10
1085.0
 20
-98.0
 30
0.0
  0
VERTEX
  5
FDAC0694270F3DCF
100
AcDbEntity
  8
PORTS
  6
CONTINUOUS
100
AcDbVertex
100
AcDb2dVertex
 10
1079.0
 20
-90.0
 30
0.0
  0
VERTEX
  5
FDAC0694270F3DD0
100
AcDbEntity
  8
PORTS
  6
CONTINUOUS
100
AcDbVertex
100
AcDb2dVertex
 10
1079.0
 20
-18.0
 30
0.0
  0
VERTEX
  5
FDAC0694270F3DD1
100
AcDbEntity
  8
PORTS
  6
CONTINUOUS
100
AcDbVertex
100
AcDb2dVertex
 10
1091.0
 20
-18.0
 30
0.0
  0
VERTEX
  5
FDAC0694270F3DD2
100
AcDbEntity
  8
PORTS
  6
CONTINUOUS
100
AcDbVertex
100
AcDb2dVertex
 10
1091.0
 20
-90.0
 30
0.0
  0
VERTEX
  5
FDAC0694270F3DD3
100
AcDbEntity
  8
PORTS
  6
CONTINUOUS
100
AcDbVertex
100
AcDb2dVertex
 10
1085.0
 20
-98.0
 30
0.0
  0
SEQEND
  5
FDAC0694270F3DD4
100
AcDbEntity
  8
PORTS
  6
CONTINUOUS
  0
POINT
  5
FDAC0694270F3DD5
100
AcDbEntity
  8
PORTS
  6
CONTINUOUS
100
AcDbPoint
 10
1085.0
 20
-98.0
 30
0.0
  0
ENDBLK
  5
FDAC06942712F47B
100
AcDbEntity
  8
PORTS
  6
CONTINUOUS
100
AcDbBlockEnd
  0
BLOCK
  5
FDAC06942712F47F
100
AcDbEntity
  8
DETAIL_MEDIUM
  6
CONTINUOUS
100
AcDbBlockBegin
  2
IO_YGR_DQS_UPDATE_ENABLE_WIRE
 70
     0
 10
0.0
 20
0.0
 30
0.0
  1

  0
LINE
  5
FDAC0694270F3DEA
100
AcDbEntity
  8
DETAIL_MEDIUM
  6
CONTINUOUS
100
AcDbLine
 10
1085.0
 20
-98.0
 30
0.0
 11
1085.0
 21
-185.431458
 31
0.0
  0
ENDBLK
  5
FDAC06942712F481
100
AcDbEntity
  8
DETAIL_MEDIUM
  6
CONTINUOUS
100
AcDbBlockEnd
  0
BLOCK
  5
FDAC06942712F483
100
AcDbEntity
  8
PORTS
  6
CONTINUOUS
100
AcDbBlockBegin
  2
IO_YGR_PHASE_IN_PORT
 70
     2
 10
0.0
 20
0.0
 30
0.0
  1

  0
ATTDEF
  5
FDAC0694270F3DD6
100
AcDbEntity
  8
PORTS
  6
CONTINUOUS
100
AcDbText
 10
1115.0
 20
-6.0
 30
0.0
 40
10.0
  1

  7
SIMPLEX
100
AcDbAttributeDefinition
  3

  2
SIDE
 70
     0
  0
POLYLINE
  5
FDAC0694270F3DD7
100
AcDbEntity
  8
PORTS
  6
CONTINUOUS
100
AcDb2dPolyline
 66
     1
 10
0.0
 20
0.0
 30
0.0
 70
     1
  0
VERTEX
  5
FDAC0694270F3DD8
100
AcDbEntity
  8
PORTS
  6
CONTINUOUS
100
AcDbVertex
100
AcDb2dVertex
 10
1123.0
 20
-98.0
 30
0.0
  0
VERTEX
  5
FDAC0694270F3DD9
100
AcDbEntity
  8
PORTS
  6
CONTINUOUS
100
AcDbVertex
100
AcDb2dVertex
 10
1117.0
 20
-90.0
 30
0.0
  0
VERTEX
  5
FDAC0694270F3DDA
100
AcDbEntity
  8
PORTS
  6
CONTINUOUS
100
AcDbVertex
100
AcDb2dVertex
 10
1117.0
 20
-18.0
 30
0.0
  0
VERTEX
  5
FDAC0694270F3DDB
100
AcDbEntity
  8
PORTS
  6
CONTINUOUS
100
AcDbVertex
100
AcDb2dVertex
 10
1129.0
 20
-18.0
 30
0.0
  0
VERTEX
  5
FDAC0694270F3DDC
100
AcDbEntity
  8
PORTS
  6
CONTINUOUS
100
AcDbVertex
100
AcDb2dVertex
 10
1129.0
 20
-90.0
 30
0.0
  0
VERTEX
  5
FDAC0694270F3DDD
100
AcDbEntity
  8
PORTS
  6
CONTINUOUS
100
AcDbVertex
100
AcDb2dVertex
 10
1123.0
 20
-98.0
 30
0.0
  0
SEQEND
  5
FDAC0694270F3DDE
100
AcDbEntity
  8
PORTS
  6
CONTINUOUS
  0
POINT
  5
FDAC0694270F3DDF
100
AcDbEntity
  8
PORTS
  6
CONTINUOUS
100
AcDbPoint
 10
1123.0
 20
-98.0
 30
0.0
  0
ENDBLK
  5
FDAC06942712F485
100
AcDbEntity
  8
PORTS
  6
CONTINUOUS
100
AcDbBlockEnd
  0
BLOCK
  5
FDAC06942712F489
100
AcDbEntity
  8
DETAIL_MEDIUM
  6
CONTINUOUS
100
AcDbBlockBegin
  2
IO_YGR_PHASE_IN_WIRE
 70
     0
 10
0.0
 20
0.0
 30
0.0
  1

  0
LINE
  5
FDAC0694270F3DEC
100
AcDbEntity
  8
DETAIL_MEDIUM
  6
CONTINUOUS
100
AcDbLine
 10
1123.0
 20
-98.0
 30
0.0
 11
1123.0
 21
-185.431458
 31
0.0
  0
ENDBLK
  5
FDAC06942712F48B
100
AcDbEntity
  8
DETAIL_MEDIUM
  6
CONTINUOUS
100
AcDbBlockEnd
  0
BLOCK
  5
FDAC06942712F48D
100
AcDbEntity
  8
PORTS
  6
CONTINUOUS
100
AcDbBlockBegin
  2
IO_YGR_DQS_SETTING_PORT
 70
     2
 10
1346.0
 20
-207.0
 30
0.0
  1

  0
POLYLINE
  5
FDAC0694270F3DE0
100
AcDbEntity
  8
PORTS
  6
CONTINUOUS
100
AcDb2dPolyline
 66
     1
 10
0.0
 20
0.0
 30
0.0
 70
     1
  0
VERTEX
  5
FDAC0694270F3DE1
100
AcDbEntity
  8
PORTS
  6
CONTINUOUS
100
AcDbVertex
100
AcDb2dVertex
 10
1162.0
 20
-98.0
 30
0.0
  0
VERTEX
  5
FDAC0694270F3DE2
100
AcDbEntity
  8
PORTS
  6
CONTINUOUS
100
AcDbVertex
100
AcDb2dVertex
 10
1156.0
 20
-90.0
 30
0.0
  0
VERTEX
  5
FDAC0694270F3DE3
100
AcDbEntity
  8
PORTS
  6
CONTINUOUS
100
AcDbVertex
100
AcDb2dVertex
 10
1156.0
 20
-18.0
 30
0.0
  0
VERTEX
  5
FDAC0694270F3DE4
100
AcDbEntity
  8
PORTS
  6
CONTINUOUS
100
AcDbVertex
100
AcDb2dVertex
 10
1168.0
 20
-18.0
 30
0.0
  0
VERTEX
  5
FDAC0694270F3DE5
100
AcDbEntity
  8
PORTS
  6
CONTINUOUS
100
AcDbVertex
100
AcDb2dVertex
 10
1168.0
 20
-90.0
 30
0.0
  0
VERTEX
  5
FDAC0694270F3DE6
100
AcDbEntity
  8
PORTS
  6
CONTINUOUS
100
AcDbVertex
100
AcDb2dVertex
 10
1162.0
 20
-98.0
 30
0.0
  0
SEQEND
  5
FDAC0694270F3DE7
100
AcDbEntity
  8
PORTS
  6
CONTINUOUS
  0
POINT
  5
FDAC0694270F3DE8
100
AcDbEntity
  8
PORTS
  6
CONTINUOUS
100
AcDbPoint
 10
1162.0
 20
-98.0
 30
0.0
  0
ATTDEF
  5
FDAC0694270F3DE9
100
AcDbEntity
  8
PORTS
  6
CONTINUOUS
100
AcDbText
 10
1154.0
 20
-6.0
 30
0.0
 40
10.0
  1

  7
SIMPLEX
100
AcDbAttributeDefinition
  3

  2
SIDE
 70
     0
  0
ENDBLK
  5
FDAC06942712F48F
100
AcDbEntity
  8
PORTS
  6
CONTINUOUS
100
AcDbBlockEnd
  0
BLOCK
  5
FDAC06942712F493
100
AcDbEntity
  8
DETAIL_MEDIUM
  6
CONTINUOUS
100
AcDbBlockBegin
  2
IO_YGR_DQS_SETTING_WIRE
 70
     0
 10
0.0
 20
0.0
 30
0.0
  1

  0
LINE
  5
FDAC0694270F3DEE
100
AcDbEntity
  8
DETAIL_MEDIUM
  6
CONTINUOUS
100
AcDbLine
 10
1162.0
 20
-98.0
 30
0.0
 11
1162.0
 21
-185.431458
 31
0.0
  0
ENDBLK
  5
FDAC06942712F495
100
AcDbEntity
  8
DETAIL_MEDIUM
  6
CONTINUOUS
100
AcDbBlockEnd
  0
BLOCK
  5
FDAC06942716B7B2
100
AcDbEntity
  8
DETAIL_MEDIUM
  6
CONTINUOUS
100
AcDbBlockBegin
  2
IO_YGR_ON_CHIP_TERMINATION
 70
     0
 10
0.0
 20
0.0
 30
0.0
  1

  0
LINE
  5
FDAC06942716B7B0
100
AcDbEntity
  8
DETAIL_MEDIUM
  6
CONTINUOUS
100
AcDbLine
 10
98.0
 20
-808.0
 30
0.0
 11
176.431458
 21
-808.0
 31
0.0
  0
POLYLINE
  5
FDAC06942716B57B
100
AcDbEntity
  8
DETAIL_MEDIUM
  6
CONTINUOUS
100
AcDb2dPolyline
 66
     1
 10
0.0
 20
0.0
 30
0.0
 70
     1
  0
VERTEX
  5
FDAC06942716B57C
100
AcDbEntity
  8
DETAIL_MEDIUM
  6
CONTINUOUS
100
AcDbVertex
100
AcDb2dVertex
 10
289.568542
 20
-835.0
 30
0.0
  0
VERTEX
  5
FDAC06942716B57D
100
AcDbEntity
  8
DETAIL_MEDIUM
  6
CONTINUOUS
100
AcDbVertex
100
AcDb2dVertex
 10
176.431458
 20
-835.0
 30
0.0
  0
VERTEX
  5
FDAC06942716B57E
100
AcDbEntity
  8
DETAIL_MEDIUM
  6
CONTINUOUS
100
AcDbVertex
100
AcDb2dVertex
 10
176.431458
 20
-778.431458
 30
0.0
  0
VERTEX
  5
FDAC06942716B57F
100
AcDbEntity
  8
DETAIL_MEDIUM
  6
CONTINUOUS
100
AcDbVertex
100
AcDb2dVertex
 10
289.568542
 20
-778.431458
 30
0.0
  0
SEQEND
  5
FDAC06942716B580
100
AcDbEntity
  8
DETAIL_MEDIUM
  6
CONTINUOUS
  0
TEXT
  5
FDAC06942716B581
100
AcDbEntity
  8
DETAIL_MEDIUM
  6
CONTINUOUS
100
AcDbText
 10
208.431458
 20
-801.0
 30
0.0
 40
10.0
  1
On-Chip
  7
SIMPLEX
100
AcDbText
  0
TEXT
  5
FDAC06942716B582
100
AcDbEntity
  8
DETAIL_MEDIUM
  6
CONTINUOUS
100
AcDbText
 10
198.0
 20
-824.0
 30
0.0
 40
10.0
  1
Termination
  7
SIMPLEX
100
AcDbText
  0
ENDBLK
  5
FDAC06942716B7B3
100
AcDbEntity
  8
DETAIL_MEDIUM
  6
CONTINUOUS
100
AcDbBlockEnd
  0
BLOCK
  5
FDAC06942716B7B5
100
AcDbEntity
  8
PORTS
  6
CONTINUOUS
100
AcDbBlockBegin
  2
IO_YGR_CONTROL_IN_PORT
 70
     2
 10
0.0
 20
0.0
 30
0.0
  1

  0
ATTDEF
  5
FDAC06942716B7A6
100
AcDbEntity
  8
PORTS
  6
CONTINUOUS
100
AcDbText
 10
20.0
 20
-796.0
 30
0.0
 40
10.0
  1

  7
SIMPLEX
100
AcDbAttributeDefinition
  3

  2
SIDE
 70
     0
  0
POLYLINE
  5
FDAC06942716B7A7
100
AcDbEntity
  8
PORTS
  6
CONTINUOUS
100
AcDb2dPolyline
 66
     1
 10
0.0
 20
0.0
 30
0.0
 70
     1
  0
VERTEX
  5
FDAC06942716B7A8
100
AcDbEntity
  8
PORTS
  6
CONTINUOUS
100
AcDbVertex
100
AcDb2dVertex
 10
98.0
 20
-808.0
 30
0.0
  0
VERTEX
  5
FDAC06942716B7A9
100
AcDbEntity
  8
PORTS
  6
CONTINUOUS
100
AcDbVertex
100
AcDb2dVertex
 10
90.0
 20
-814.0
 30
0.0
  0
VERTEX
  5
FDAC06942716B7AA
100
AcDbEntity
  8
PORTS
  6
CONTINUOUS
100
AcDbVertex
100
AcDb2dVertex
 10
18.0
 20
-814.0
 30
0.0
  0
VERTEX
  5
FDAC06942716B7AB
100
AcDbEntity
  8
PORTS
  6
CONTINUOUS
100
AcDbVertex
100
AcDb2dVertex
 10
18.0
 20
-802.0
 30
0.0
  0
VERTEX
  5
FDAC06942716B7AC
100
AcDbEntity
  8
PORTS
  6
CONTINUOUS
100
AcDbVertex
100
AcDb2dVertex
 10
90.0
 20
-802.0
 30
0.0
  0
VERTEX
  5
FDAC06942716B7AD
100
AcDbEntity
  8
PORTS
  6
CONTINUOUS
100
AcDbVertex
100
AcDb2dVertex
 10
98.0
 20
-808.0
 30
0.0
  0
SEQEND
  5
FDAC06942716B7AE
100
AcDbEntity
  8
PORTS
  6
CONTINUOUS
  0
POINT
  5
FDAC06942716B7AF
100
AcDbEntity
  8
PORTS
  6
CONTINUOUS
100
AcDbPoint
 10
98.0
 20
-808.0
 30
0.0
  0
ENDBLK
  5
FDAC06942716B7B6
100
AcDbEntity
  8
PORTS
  6
CONTINUOUS
100
AcDbBlockEnd
  0
BLOCK
  5
FDAC0694277026EB
100
AcDbEntity
  8
DETAIL_MEDIUM
  6
CONTINUOUS
100
AcDbBlockBegin
  2
IO_YGR_DQS_CLK_TO_REG_5_WIRE
 70
     0
 10
0.0
 20
0.0
 30
0.0
  1

  0
LINE
  5
FDAC0694277026E6
100
AcDbEntity
  8
DETAIL_MEDIUM
  6
CONTINUOUS
100
AcDbLine
 10
857.0
 20
-753.0
 30
0.0
 11
880.0
 21
-753.0
 31
0.0
  0
LINE
  5
FDAC0694277026E3
100
AcDbEntity
  8
DETAIL_MEDIUM
  6
CONTINUOUS
100
AcDbLine
 10
1132.0
 20
-753.0
 30
0.0
 11
960.0
 21
-753.0
 31
0.0
  0
CIRCLE
  5
FDAC0694277026DF
100
AcDbEntity
  8
DETAIL_MEDIUM
  6
CONTINUOUS
100
AcDbCircle
 10
1138.0
 20
-753.0
 30
0.0
 40
5.656854
  0
ENDBLK
  5
FDAC0694277026ED
100
AcDbEntity
  8
DETAIL_MEDIUM
  6
CONTINUOUS
100
AcDbBlockEnd
  0
BLOCK
  5
FDAC0694277026EF
100
AcDbEntity
  8
DETAIL_MEDIUM
  6
CONTINUOUS
100
AcDbBlockBegin
  2
IO_YGR_DQS_CLK_WIRE2
 70
     0
 10
0.0
 20
0.0
 30
0.0
  1

  0
LINE
  5
FDAC0694276C7107
100
AcDbEntity
  8
DETAIL_MEDIUM
  6
CONTINUOUS
100
AcDbLine
 10
857.0
 20
-753.0
 30
0.0
 11
857.0
 21
-810.0
 31
0.0
  0
LINE
  5
FDAC0694276C7106
100
AcDbEntity
  8
DETAIL_MEDIUM
  6
CONTINUOUS
100
AcDbLine
 10
857.0
 20
-810.0
 30
0.0
 11
880.0
 21
-810.0
 31
0.0
  0
LINE
  5
FDAC0694276C7105
100
AcDbEntity
  8
DETAIL_MEDIUM
  6
CONTINUOUS
100
AcDbLine
 10
960.0
 20
-810.0
 30
0.0
 11
1104.0
 21
-810.0
 31
0.0
  0
ENDBLK
  5
FDAC0694277026F1
100
AcDbEntity
  8
DETAIL_MEDIUM
  6
CONTINUOUS
100
AcDbBlockEnd
  0
BLOCK
  5
FDAC0694277026F3
100
AcDbEntity
  8
DETAIL_MEDIUM
  6
CONTINUOUS
100
AcDbBlockBegin
  2
IO_YGR_DQS_CLK_TO_LATCH
 70
     0
 10
0.0
 20
0.0
 30
0.0
  1

  0
POINT
  5
FDAC0694276C7108
100
AcDbEntity
  8
DETAIL_MEDIUM
  6
CONTINUOUS
100
AcDbPoint
 10
1104.0
 20
-810.0
 30
0.0
  0
LINE
  5
FDAC0694276C7109
100
AcDbEntity
  8
DETAIL_MEDIUM
  6
CONTINUOUS
100
AcDbLine
 10
1104.0
 20
-839.0
 30
0.0
 11
1274.0
 21
-839.0
 31
0.0
  0
LINE
  5
FDAC0694276C710A
100
AcDbEntity
  8
DETAIL_MEDIUM
  6
CONTINUOUS
100
AcDbLine
 10
1104.0
 20
-810.0
 30
0.0
 11
1104.0
 21
-839.0
 31
0.0
  0
LINE
  5
FDAC0694276C710D
100
AcDbEntity
  8
DETAIL_MEDIUM
  6
CONTINUOUS
100
AcDbLine
 10
1274.0
 20
-839.0
 30
0.0
 11
1274.0
 21
-753.0
 31
0.0
  0
LINE
  5
FDAC0694276C710E
100
AcDbEntity
  8
DETAIL_MEDIUM
  6
CONTINUOUS
100
AcDbLine
 10
1274.0
 20
-753.0
 30
0.0
 11
1304.0
 21
-753.0
 31
0.0
  0
ENDBLK
  5
FDAC0694277026F5
100
AcDbEntity
  8
DETAIL_MEDIUM
  6
CONTINUOUS
100
AcDbBlockEnd
  0
BLOCK
  5
FDAC0694277026F7
100
AcDbEntity
  8
DETAIL_MEDIUM
  6
CONTINUOUS
100
AcDbBlockBegin
  2
IO_YGR_DQS_CLK_TO_REG_4_WIRE
 70
     0
 10
0.0
 20
0.0
 30
0.0
  1

  0
LINE
  5
FDAC0694276C710B
100
AcDbEntity
  8
DETAIL_MEDIUM
  6
CONTINUOUS
100
AcDbLine
 10
1104.0
 20
-810.0
 30
0.0
 11
1104.0
 21
-563.0
 31
0.0
  0
LINE
  5
FDAC0694276C710C
100
AcDbEntity
  8
DETAIL_MEDIUM
  6
CONTINUOUS
100
AcDbLine
 10
1104.0
 20
-563.0
 30
0.0
 11
1144.0
 21
-563.0
 31
0.0
  0
ENDBLK
  5
FDAC0694277026F9
100
AcDbEntity
  8
DETAIL_MEDIUM
  6
CONTINUOUS
100
AcDbBlockEnd
  0
BLOCK
  5
FDAC069427702965
100
AcDbEntity
  8
DETAIL_MEDIUM
  6
CONTINUOUS
100
AcDbBlockBegin
  2
IO_YGR_BYPASS_LOGIC_DELAY_WIRE
 70
     0
 10
0.0
 20
0.0
 30
0.0
  1

  0
LINE
  5
FDAC069427702963
100
AcDbEntity
  8
DETAIL_MEDIUM
  6
CONTINUOUS
100
AcDbLine
 10
880.0
 20
-613.0
 30
0.0
 11
960.0
 21
-613.0
 31
0.0
  0
ENDBLK
  5
FDAC069427702967
100
AcDbEntity
  8
DETAIL_MEDIUM
  6
CONTINUOUS
100
AcDbBlockEnd
  0
BLOCK
  5
FDAC06942770296B
100
AcDbEntity
  8
DETAIL_MEDIUM
  6
CONTINUOUS
100
AcDbBlockBegin
  2
IO_YGR_BYPASS_IN_REG_DELAY_WIRE
 70
     0
 10
0.0
 20
0.0
 30
0.0
  1

  0
LINE
  5
FDAC069427702969
100
AcDbEntity
  8
DETAIL_MEDIUM
  6
CONTINUOUS
100
AcDbLine
 10
990.0
 20
-523.0
 30
0.0
 11
1070.0
 21
-523.0
 31
0.0
  0
ENDBLK
  5
FDAC06942770296D
100
AcDbEntity
  8
DETAIL_MEDIUM
  6
CONTINUOUS
100
AcDbBlockEnd
  0
ENDSEC
  0
SECTION
  2
ENTITIES
  0
TEXT
  5
1555386
100
AcDbEntity
  8
COMMENT
100
AcDbText
 10
-13.0
 20
113.5
 30
0.0
 40
10.0
  1
Comments:
100
AcDbText
  0
TEXT
  5
DF2FB97E2E1C5501
100
AcDbEntity
  8
COMMENT
  6
CONTINUOUS
100
AcDbText
 10
-14.0
 20
94.0
 30
0.0
 40
10.0
  1
All ports are on PORTS layer. They don't have FILLCLR since it is assigned in software.
  7
SIMPLEX
100
AcDbText
  0
TEXT
  5
DF2FB97E2E1C5502
100
AcDbEntity
  8
COMMENT
  6
CONTINUOUS
100
AcDbText
 10
-14.0
 20
76.857143
 30
0.0
 40
10.0
  1
Text is drawn starting at the only point contained by the port block on PORTS layer. SIDE determines 
  7
SIMPLEX
100
AcDbText
  0
TEXT
  5
DF2FB97E2E1C5503
100
AcDbEntity
  8
COMMENT
  6
CONTINUOUS
100
AcDbText
 10
-14.0
 20
59.714286
 30
0.0
 40
10.0
  1
the direction of the text. Port association is based on the name of the block.
  7
SIMPLEX
100
AcDbText
  0
TEXT
  5
DF2FCAEAB6712686
100
AcDbEntity
  8
COMMENT
100
AcDbText
 10
-167.0
 20
-94.5
 30
0.0
 40
10.0
  1
output_enable
100
AcDbText
  0
TEXT
  5
DF2FCAEAB6712687
100
AcDbEntity
  8
COMMENT
100
AcDbText
 10
-110.0
 20
-132.5
 30
0.0
 40
10.0
  1
out_clk
100
AcDbText
  0
TEXT
  5
DF2FCAEAB6712688
100
AcDbEntity
  8
COMMENT
100
AcDbText
 10
-252.0
 20
-176.5
 30
0.0
 40
10.0
  1
out_clk_ena/oe_clk_ena
100
AcDbText
  0
TEXT
  5
DF2FCAEAB6712689
100
AcDbEntity
  8
COMMENT
100
AcDbText
 10
-103.0
 20
-363.5
 30
0.0
 40
10.0
  1
sreset
100
AcDbText
  0
TEXT
  5
DF2FCAEAB671268A
100
AcDbEntity
  8
COMMENT
100
AcDbText
 10
-104.0
 20
-412.5
 30
0.0
 40
10.0
  1
areset
100
AcDbText
  0
TEXT
  5
DF2FCAEAB671268B
100
AcDbEntity
  8
COMMENT
100
AcDbText
 10
-108.0
 20
-504.5
 30
0.0
 40
10.0
  1
data_in
100
AcDbText
  0
TEXT
  5
DF2FCAEAB671268C
100
AcDbEntity
  8
COMMENT
100
AcDbText
 10
-148.0
 20
-692.5
 30
0.0
 40
10.0
  1
ddio_data_in
100
AcDbText
  0
TEXT
  5
DF2FCAEAB671268D
100
AcDbEntity
  8
COMMENT
100
AcDbText
 10
1654.0
 20
-666.5
 30
0.0
 40
10.0
  1
comb_out/reg_out/ddio_regout
100
AcDbText
  0
TEXT
  5
DF2FCAEAB671268E
100
AcDbEntity
  8
COMMENT
100
AcDbText
 10
1652.0
 20
-508.5
 30
0.0
 40
10.0
  1
comb_out/reg_out
100
AcDbText
  0
TEXT
  5
DF2FCAEAB671269D
100
AcDbEntity
  8
COMMENT
100
AcDbText
 10
638.0
 20
-868.5
 30
0.0
 40
10.0
  1
in_clk_ena
100
AcDbText
  0
TEXT
  5
DF3414A0433262FC
100
AcDbEntity
  8
COMMENT
100
AcDbText
 10
676.0
 20
-756.5
 30
0.0
 40
10.0
  1
in_clk
100
AcDbText
  0
TEXT
  5
FDAC069427006522
100
AcDbEntity
  8
COMMENT
100
AcDbText
 10
1651.0
 20
-414.5
 30
0.0
 40
10.0
  1
comb_out
100
AcDbText
  0
TEXT
  5
FDAC06942712F478
100
AcDbEntity
  8
COMMENT
100
AcDbText
 10
1649.0
 20
-321.5
 30
0.0
 40
10.0
  1
dqs_bus_out
100
AcDbText
  0
INSERT
  5
FDAC069427702BEB
100
AcDbEntity
  8
DETAIL_MEDIUM
  6
CONTINUOUS
100
AcDbBlockReference
  2
IO_YGR
 10
0.0
 20
0.0
 30
0.0
  0
ENDSEC
  0
SECTION
  2
OBJECTS
  0
DICTIONARY
  5
C
100
AcDbDictionary
  3
ACAD_GROUP
350
D
  3
ACAD_MLINESTYLE
350
1B
  3
ACAD_IMAGE_VARS
350
FDAC069427006523
  3
ACAD_IMAGE_DICT
350
FDAC069427006525
  0
IMAGEDEF_REACTOR
  5
FDAC069427006527
100
AcDbRasterImageDefReactor
 90
        2
330
0
  0
DICTIONARY
  5
D
102
{ACAD_REACTORS
330
C
102
}
100
AcDbDictionary
  0
DICTIONARY
  5
1B
102
{ACAD_REACTORS
330
C
102
}
100
AcDbDictionary
  3
STANDARD
350
1C
  0
RASTERVARIABLES
  5
FDAC069427006523
102
{ACAD_REACTORS
330
C
102
}
100
AcDbRasterVariables
 90
        0
 70
     1
 71
     1
 72
     0
  0
DICTIONARY
  5
FDAC069427006525
102
{ACAD_REACTORS
330
C
102
}
100
AcDbDictionary
  3
SC_3_
350
FDAC069427006526
  0
MLINESTYLE
  5
1C
102
{ACAD_REACTORS
330
1B
102
}
100
AcDbMlineStyle
  2
STANDARD
 70
     0
  3

 62
   256
 51
90.0
 52
90.0
 71
     2
 49
0.5
 62
   256
  6
BYLAYER
 49
-0.5
 62
   256
  6
BYLAYER
  0
IMAGEDEF
  5
FDAC069427006526
102
{ACAD_REACTORS
330
FDAC069427006527
330
FDAC069427006525
102
}
100
AcDbRasterImageDef
 90
        0
  1
C:\Documents and Settings\jmkuo\Local Settings\Temporary Internet Files\Content.IE5\LNC0CMSM\sc[3].png
 10
850.0
 20
668.0
 11
1.0
 21
1.0
280
     1
281
     0
  0
ENDSEC
  0
EOF
