  0
SECTION
  2
HEADER
  9
$ACADVER
  1
AC1014
  9
$ACADMAINTVER
 70
     0
  9
$DWGCODEPAGE
  3
ANSI_1252
  9
$INSBASE
 10
0.0
 20
0.0
 30
0.0
  9
$EXTMIN
 10
-130.0
 20
-838.0
 30
0.0
  9
$EXTMAX
 10
1150.0
 20
140.0
 30
0.0
  9
$LIMMIN
 10
0.0
 20
0.0
  9
$LIMMAX
 10
12.0
 20
9.0
  9
$ORTHOMODE
 70
     0
  9
$REGENMODE
 70
     1
  9
$FILLMODE
 70
     1
  9
$QTEXTMODE
 70
     0
  9
$MIRRTEXT
 70
     1
  9
$DRAGMODE
 70
     2
  9
$LTSCALE
 40
1.0
  9
$OSMODE
 70
     0
  9
$ATTMODE
 70
     1
  9
$TEXTSIZE
 40
0.2
  9
$TRACEWID
 40
0.05
  9
$TEXTSTYLE
  7
SIMPLEX
  9
$CLAYER
  8
DETAIL_MEDIUM
  9
$CELTYPE
  6
CONTINUOUS
  9
$CECOLOR
 62
   256
  9
$CELTSCALE
 40
1.0
  9
$DELOBJ
 70
     1
  9
$DISPSILH
 70
     0
  9
$DIMSCALE
 40
1.0
  9
$DIMASZ
 40
0.18
  9
$DIMEXO
 40
0.0625
  9
$DIMDLI
 40
0.38
  9
$DIMRND
 40
0.0
  9
$DIMDLE
 40
0.0
  9
$DIMEXE
 40
0.18
  9
$DIMTP
 40
0.0
  9
$DIMTM
 40
0.0
  9
$DIMTXT
 40
0.18
  9
$DIMCEN
 40
0.09
  9
$DIMTSZ
 40
0.0
  9
$DIMTOL
 70
     0
  9
$DIMLIM
 70
     0
  9
$DIMTIH
 70
     1
  9
$DIMTOH
 70
     1
  9
$DIMSE1
 70
     0
  9
$DIMSE2
 70
     0
  9
$DIMTAD
 70
     0
  9
$DIMZIN
 70
     0
  9
$DIMBLK
  1

  9
$DIMASO
 70
     1
  9
$DIMSHO
 70
     1
  9
$DIMPOST
  1

  9
$DIMAPOST
  1

  9
$DIMALT
 70
     0
  9
$DIMALTD
 70
     2
  9
$DIMALTF
 40
25.4
  9
$DIMLFAC
 40
1.0
  9
$DIMTOFL
 70
     0
  9
$DIMTVP
 40
0.0
  9
$DIMTIX
 70
     0
  9
$DIMSOXD
 70
     0
  9
$DIMSAH
 70
     0
  9
$DIMBLK1
  1

  9
$DIMBLK2
  1

  9
$DIMSTYLE
  2
STANDARD
  9
$DIMCLRD
 70
     0
  9
$DIMCLRE
 70
     0
  9
$DIMCLRT
 70
     0
  9
$DIMTFAC
 40
1.0
  9
$DIMGAP
 40
0.09
  9
$DIMJUST
 70
     0
  9
$DIMSD1
 70
     0
  9
$DIMSD2
 70
     0
  9
$DIMTOLJ
 70
     1
  9
$DIMTZIN
 70
     0
  9
$DIMALTZ
 70
     0
  9
$DIMALTTZ
 70
     0
  9
$DIMFIT
 70
     3
  9
$DIMUPT
 70
     0
  9
$DIMUNIT
 70
     2
  9
$DIMDEC
 70
     4
  9
$DIMTDEC
 70
     4
  9
$DIMALTU
 70
     2
  9
$DIMALTTD
 70
     2
  9
$DIMTXSTY
  7
STANDARD
  9
$DIMAUNIT
 70
     0
  9
$LUNITS
 70
     2
  9
$LUPREC
 70
     4
  9
$SKETCHINC
 40
0.1
  9
$FILLETRAD
 40
0.5
  9
$AUNITS
 70
     0
  9
$AUPREC
 70
     0
  9
$MENU
  1
.
  9
$ELEVATION
 40
0.0
  9
$PELEVATION
 40
0.0
  9
$THICKNESS
 40
0.0
  9
$LIMCHECK
 70
     0
  9
$BLIPMODE
 70
     0
  9
$CHAMFERA
 40
0.5
  9
$CHAMFERB
 40
0.5
  9
$CHAMFERC
 40
1.0
  9
$CHAMFERD
 40
0.0
  9
$SKPOLY
 70
     0
  9
$TDCREATE
 40
2452695.7451618058
  9
$TDUPDATE
 40
2453916.4540509144
  9
$TDINDWG
 40
13.350509259259
  9
$TDUSRTIMER
 40
13.350509259259
  9
$USRTIMER
 70
     1
  9
$ANGBASE
 50
0.0
  9
$ANGDIR
 70
     0
  9
$PDMODE
 70
    35
  9
$PDSIZE
 40
5.0
  9
$PLINEWID
 40
0.0
  9
$COORDS
 70
     1
  9
$SPLFRAME
 70
     0
  9
$SPLINETYPE
 70
     6
  9
$SPLINESEGS
 70
     8
  9
$ATTDIA
 70
     0
  9
$ATTREQ
 70
     1
  9
$HANDLING
 70
     1
  9
$HANDSEED
  5
DF368DA4B229D124
  9
$SURFTAB1
 70
     6
  9
$SURFTAB2
 70
     6
  9
$SURFTYPE
 70
     6
  9
$SURFU
 70
     6
  9
$SURFV
 70
     6
  9
$UCSNAME
  2

  9
$UCSORG
 10
0.0
 20
0.0
 30
0.0
  9
$UCSXDIR
 10
1.0
 20
0.0
 30
0.0
  9
$UCSYDIR
 10
0.0
 20
1.0
 30
0.0
  9
$PUCSNAME
  2

  9
$PUCSORG
 10
0.0
 20
0.0
 30
0.0
  9
$PUCSXDIR
 10
1.0
 20
0.0
 30
0.0
  9
$PUCSYDIR
 10
0.0
 20
1.0
 30
0.0
  9
$USERI1
 70
     0
  9
$USERI2
 70
     0
  9
$USERI3
 70
     0
  9
$USERI4
 70
     0
  9
$USERI5
 70
     0
  9
$USERR1
 40
0.0
  9
$USERR2
 40
0.0
  9
$USERR3
 40
0.0
  9
$USERR4
 40
0.0
  9
$USERR5
 40
0.0
  9
$WORLDVIEW
 70
     1
  9
$SHADEDGE
 70
     3
  9
$SHADEDIF
 70
    70
  9
$TILEMODE
 70
     1
  9
$MAXACTVP
 70
    48
  9
$PINSBASE
 10
0.0
 20
0.0
 30
0.0
  9
$PLIMCHECK
 70
     0
  9
$PEXTMIN
 10
1.000000E+020
 20
1.000000E+020
 30
1.000000E+020
  9
$PEXTMAX
 10
-1.000000E+020
 20
-1.000000E+020
 30
-1.000000E+020
  9
$PLIMMIN
 10
0.0
 20
0.0
  9
$PLIMMAX
 10
12.0
 20
9.0
  9
$UNITMODE
 70
     0
  9
$VISRETAIN
 70
     1
  9
$PLINEGEN
 70
     0
  9
$PSLTSCALE
 70
     1
  9
$TREEDEPTH
 70
  3020
  9
$PICKSTYLE
 70
     1
  9
$CMLSTYLE
  2
STANDARD
  9
$CMLJUST
 70
     0
  9
$CMLSCALE
 40
1.0
  9
$PROXYGRAPHICS
 70
     1
  9
$MEASUREMENT
 70
     0
  0
ENDSEC
  0
SECTION
  2
CLASSES
  0
CLASS
  1
LWPOLYLINE
  2
AcDbPolyline
  3
"AutoCAD"
 90
        0
280
     0
281
     1
  0
ENDSEC
  0
SECTION
  2
TABLES
  0
TABLE
  2
VPORT
  5
8
100
AcDbSymbolTable
 70
     1
  0
VPORT
  5
37
100
AcDbSymbolTableRecord
100
AcDbViewportTableRecord
  2
*ACTIVE
 70
     0
 10
0.0
 20
0.0
 11
1.0
 21
1.0
 12
495.547942
 22
-391.39881
 13
0.0
 23
0.0
 14
10.0
 24
10.0
 15
10.0
 25
10.0
 16
0.0
 26
0.0
 36
1.0
 17
0.0
 27
0.0
 37
0.0
 40
1045.409195
 41
1.418935
 42
50.0
 43
0.0
 44
0.0
 50
0.0
 51
0.0
 71
     0
 72
   100
 73
     1
 74
     1
 75
     1
 76
     1
 77
     0
 78
     0
  0
ENDTAB
  0
TABLE
  2
LTYPE
  5
5
100
AcDbSymbolTable
 70
     2
  0
LTYPE
  5
12
100
AcDbSymbolTableRecord
100
AcDbLinetypeTableRecord
  2
BYBLOCK
 70
     0
  3

 72
    65
 73
     0
 40
0.0
  0
LTYPE
  5
13
100
AcDbSymbolTableRecord
100
AcDbLinetypeTableRecord
  2
BYLAYER
 70
     0
  3

 72
    65
 73
     0
 40
0.0
  0
LTYPE
  5
14
100
AcDbSymbolTableRecord
100
AcDbLinetypeTableRecord
  2
CONTINUOUS
 70
     0
  3
Solid line
 72
    65
 73
     0
 40
0.0
  0
LTYPE
  5
2A422EFD12C
100
AcDbSymbolTableRecord
100
AcDbLinetypeTableRecord
  2
DETAIL_1
 70
     0
  3
Solid line
 72
    65
 73
     2
 40
6.0
 49
5.0
 74
     0
 49
-1.0
 74
     0
  0
ENDTAB
  0
TABLE
  2
LAYER
  5
2
100
AcDbSymbolTable
 70
     6
  0
LAYER
  5
E
100
AcDbSymbolTableRecord
100
AcDbLayerTableRecord
  2
DETAIL_HIGH
 70
     0
 62
   101
  6
CONTINUOUS
  0
LAYER
  5
541
100
AcDbSymbolTableRecord
100
AcDbLayerTableRecord
  2
COMMENT
 70
     0
 62
   254
  6
CONTINUOUS
  0
LAYER
  5
1DAE4
100
AcDbSymbolTableRecord
100
AcDbLayerTableRecord
  2
DETAIL_MEDIUM
 70
     0
 62
   182
  6
CONTINUOUS
  0
LAYER
  5
15543B5
100
AcDbSymbolTableRecord
100
AcDbLayerTableRecord
  2
DETAIL_LOWEST
 70
     0
 62
   143
  6
CONTINUOUS
  0
LAYER
  5
DF2FB97E2E1C53EE
100
AcDbSymbolTableRecord
100
AcDbLayerTableRecord
  2
PORTS
 70
     0
 62
   188
  6
CONTINUOUS
  0
LAYER
  5
DF2FCAEAB671269E
100
AcDbSymbolTableRecord
100
AcDbLayerTableRecord
  2
NON_DDR
 70
     0
 62
   240
  6
CONTINUOUS
  0
ENDTAB
  0
TABLE
  2
STYLE
  5
3
100
AcDbSymbolTable
 70
     8
  0
STYLE
  5
F
100
AcDbSymbolTableRecord
100
AcDbTextStyleTableRecord
  2
STANDARD
 70
     0
 40
0.0
 41
1.0
 50
0.0
 71
     0
 42
0.2
  3
txt.shx
  4

  0
STYLE
  5
21
100
AcDbSymbolTableRecord
100
AcDbTextStyleTableRecord
  2
COMPLEX
 70
     0
 40
0.0
 41
1.0
 50
0.0
 71
     0
 42
0.2
  3
complex
  4

  0
STYLE
  5
22
100
AcDbSymbolTableRecord
100
AcDbTextStyleTableRecord
  2
ITALIC
 70
     0
 40
0.0
 41
1.0
 50
0.0
 71
     0
 42
0.2
  3
italic
  4

  0
STYLE
  5
23
100
AcDbSymbolTableRecord
100
AcDbTextStyleTableRecord
  2
ROMANC
 70
     0
 40
0.0
 41
1.0
 50
0.0
 71
     0
 42
0.2
  3
romanc
  4

  0
STYLE
  5
24
100
AcDbSymbolTableRecord
100
AcDbTextStyleTableRecord
  2
SIMPLEX
 70
     0
 40
0.0
 41
1.0
 50
0.0
 71
     0
 42
0.2
  3
simplex
  4

  0
STYLE
  5
34
100
AcDbSymbolTableRecord
100
AcDbTextStyleTableRecord
  2

 70
     1
 40
0.0
 41
1.0
 50
0.0
 71
     0
 42
0.2
  3
ltypeshp.shx
  4

  0
STYLE
  5
38
100
AcDbSymbolTableRecord
100
AcDbTextStyleTableRecord
  2
ARIAL
 70
     0
 40
0.0
 41
1.0
 50
0.0
 71
     0
 42
0.2
  3

  4

1001
ACAD
1000
Arial
1071
       34
  0
STYLE
  5
39
100
AcDbSymbolTableRecord
100
AcDbTextStyleTableRecord
  2
TIMES_NEW_ROMAN
 70
     0
 40
0.0
 41
1.0
 50
0.0
 71
     0
 42
0.2
  3

  4

1001
ACAD
1000
Times New Roman
1071
       18
  0
ENDTAB
  0
TABLE
  2
VIEW
  5
6
100
AcDbSymbolTable
 70
     0
  0
ENDTAB
  0
TABLE
  2
UCS
  5
7
100
AcDbSymbolTable
 70
     0
  0
ENDTAB
  0
TABLE
  2
APPID
  5
9
100
AcDbSymbolTable
 70
     1
  0
APPID
  5
10
100
AcDbSymbolTableRecord
100
AcDbRegAppTableRecord
  2
ACAD
 70
     0
  0
ENDTAB
  0
TABLE
  2
DIMSTYLE
  5
A
100
AcDbSymbolTable
 70
     1
  0
DIMSTYLE
105
1D
100
AcDbSymbolTableRecord
100
AcDbDimStyleTableRecord
  2
STANDARD
 70
     0
  3

  4

  5

  6

  7

 40
1.0
 41
0.18
 42
0.0625
 43
0.38
 44
0.18
 45
0.0
 46
0.0
 47
0.0
 48
0.0
140
0.18
141
0.09
142
0.0
143
25.4
144
1.0
145
0.0
146
1.0
147
0.09
 71
     0
 72
     0
 73
     1
 74
     1
 75
     0
 76
     0
 77
     0
 78
     0
170
     0
171
     2
172
     0
173
     0
174
     0
175
     0
176
     0
177
     0
178
     0
270
     2
271
     4
272
     4
273
     2
274
     2
340
F
275
     0
280
     0
281
     0
282
     0
283
     1
284
     0
285
     0
286
     0
287
     3
288
     0
  0
ENDTAB
  0
TABLE
  2
BLOCK_RECORD
  5
1
100
AcDbSymbolTable
 70
    23
  0
BLOCK_RECORD
  5
18
100
AcDbSymbolTableRecord
100
AcDbBlockTableRecord
  2
*MODEL_SPACE
  0
BLOCK_RECORD
  5
15
100
AcDbSymbolTableRecord
100
AcDbBlockTableRecord
  2
*PAPER_SPACE
  0
BLOCK_RECORD
  5
DF368DA4B229CFC7
100
AcDbSymbolTableRecord
100
AcDbBlockTableRecord
  2
TITAN_PLL_ARESET_PORT
  0
BLOCK_RECORD
  5
DF368DA4B229CFD8
100
AcDbSymbolTableRecord
100
AcDbBlockTableRecord
  2
TITAN_PLL_PFD_ENA_PORT
  0
BLOCK_RECORD
  5
DF368DA4B229CFDE
100
AcDbSymbolTableRecord
100
AcDbBlockTableRecord
  2
TITAN_PLL_FBIN_PORT
  0
BLOCK_RECORD
  5
DF368DA4B229CFE4
100
AcDbSymbolTableRecord
100
AcDbBlockTableRecord
  2
TITAN_PLL_PHASE_UP_DOWN_PORT
  0
BLOCK_RECORD
  5
DF368DA4B229CFEA
100
AcDbSymbolTableRecord
100
AcDbBlockTableRecord
  2
TITAN_PLL_PHASE_STEP_PORT
  0
BLOCK_RECORD
  5
DF368DA4B229CFF0
100
AcDbSymbolTableRecord
100
AcDbBlockTableRecord
  2
TITAN_PLL_SCAN_DATA_PORT
  0
BLOCK_RECORD
  5
DF368DA4B229CFF6
100
AcDbSymbolTableRecord
100
AcDbBlockTableRecord
  2
TITAN_PLL_SCAN_CLOCK_PORT
  0
BLOCK_RECORD
  5
DF368DA4B229CFFC
100
AcDbSymbolTableRecord
100
AcDbBlockTableRecord
  2
TITAN_PLL_SCAN_CLOCK_ENA_PORT
  0
BLOCK_RECORD
  5
DF368DA4B229D002
100
AcDbSymbolTableRecord
100
AcDbBlockTableRecord
  2
TITAN_PLL_CONFIG_UPDATE_PORT
  0
BLOCK_RECORD
  5
DF368DA4B229D008
100
AcDbSymbolTableRecord
100
AcDbBlockTableRecord
  2
TITAN_PLL_CLOCK_SWITCH_PORT
  0
BLOCK_RECORD
  5
DF368DA4B229D00E
100
AcDbSymbolTableRecord
100
AcDbBlockTableRecord
  2
TITAN_PLL_CLKIN_PORT
  0
BLOCK_RECORD
  5
DF368DA4B229D019
100
AcDbSymbolTableRecord
100
AcDbBlockTableRecord
  2
TITAN_PLL_PHASE_COUNT_SEL_PORT
  0
BLOCK_RECORD
  5
DF368DA4B229D030
100
AcDbSymbolTableRecord
100
AcDbBlockTableRecord
  2
TITAN_PLL_CLKBAD_PORT
  0
BLOCK_RECORD
  5
DF368DA4B229D03B
100
AcDbSymbolTableRecord
100
AcDbBlockTableRecord
  2
TITAN_PLL_CLKOUT_PORT
  0
BLOCK_RECORD
  5
DF368DA4B229D066
100
AcDbSymbolTableRecord
100
AcDbBlockTableRecord
  2
TITAN_PLL_PHASE_DONE_PORT
  0
BLOCK_RECORD
  5
DF368DA4B229D06C
100
AcDbSymbolTableRecord
100
AcDbBlockTableRecord
  2
TITAN_PLL_SCAN_DATA_OUT_PORT
  0
BLOCK_RECORD
  5
DF368DA4B229D072
100
AcDbSymbolTableRecord
100
AcDbBlockTableRecord
  2
TITAN_PLL_SCAN_DONE_PORT
  0
BLOCK_RECORD
  5
DF368DA4B229D078
100
AcDbSymbolTableRecord
100
AcDbBlockTableRecord
  2
TITAN_PLL_ACTIVE_CLOCK_PORT
  0
BLOCK_RECORD
  5
DF368DA4B229D07E
100
AcDbSymbolTableRecord
100
AcDbBlockTableRecord
  2
TITAN_PLL_LOCKED_PORT
  0
BLOCK_RECORD
  5
DF368DA4B229D084
100
AcDbSymbolTableRecord
100
AcDbBlockTableRecord
  2
TITAN_PLL_VCO_OVER_RANGE_PORT
  0
BLOCK_RECORD
  5
DF368DA4B229D08A
100
AcDbSymbolTableRecord
100
AcDbBlockTableRecord
  2
TITAN_PLL_VCO_UNDER_RANGE_PORT
  0
BLOCK_RECORD
  5
DF368DA4B229D090
100
AcDbSymbolTableRecord
100
AcDbBlockTableRecord
  2
TITAN_PLL_FBOUT_PORT
  0
BLOCK_RECORD
  5
DF368DA4B229D096
100
AcDbSymbolTableRecord
100
AcDbBlockTableRecord
  2
TITAN_PLL
  0
ENDTAB
  0
ENDSEC
  0
SECTION
  2
BLOCKS
  0
BLOCK
  5
19
100
AcDbEntity
  8
DETAIL_HIGH
100
AcDbBlockBegin
  2
*MODEL_SPACE
 70
     0
 10
0.0
 20
0.0
 30
0.0
  3
*MODEL_SPACE
  1

  0
ENDBLK
  5
1A
100
AcDbEntity
  8
DETAIL_HIGH
100
AcDbBlockEnd
  0
BLOCK
  5
16
100
AcDbEntity
 67
     1
  8
DETAIL_HIGH
100
AcDbBlockBegin
  2
*PAPER_SPACE
 70
     0
 10
0.0
 20
0.0
 30
0.0
  3
*PAPER_SPACE
  1

  0
ENDBLK
  5
17
100
AcDbEntity
 67
     1
  8
DETAIL_HIGH
100
AcDbBlockEnd
  0
BLOCK
  5
DF368DA4B229CFC6
100
AcDbEntity
  8
DETAIL_MEDIUM
  6
CONTINUOUS
100
AcDbBlockBegin
  2
TITAN_PLL_ARESET_PORT
 70
     2
 10
0.0
 20
0.0
 30
0.0
  1

  0
ATTDEF
  5
DF3415280D142FF1
100
AcDbEntity
  8
PORTS
  6
CONTINUOUS
100
AcDbText
 10
212.0
 20
2.0
 30
0.0
 40
10.0
  1

  7
SIMPLEX
100
AcDbAttributeDefinition
  3

  2
SIDE
 70
     0
  0
POLYLINE
  5
DF3415280D142FE7
100
AcDbEntity
  8
PORTS
  6
CONTINUOUS
100
AcDb2dPolyline
 66
     1
 10
0.0
 20
0.0
 30
0.0
 70
     1
  0
VERTEX
  5
DF3415280D142FE8
100
AcDbEntity
  8
PORTS
  6
CONTINUOUS
100
AcDbVertex
100
AcDb2dVertex
 10
220.0
 20
-90.0
 30
0.0
  0
VERTEX
  5
DF3415280D142FE9
100
AcDbEntity
  8
PORTS
  6
CONTINUOUS
100
AcDbVertex
100
AcDb2dVertex
 10
214.0
 20
-82.0
 30
0.0
  0
VERTEX
  5
DF3415280D142FEA
100
AcDbEntity
  8
PORTS
  6
CONTINUOUS
100
AcDbVertex
100
AcDb2dVertex
 10
214.0
 20
-10.0
 30
0.0
  0
VERTEX
  5
DF3415280D142FEB
100
AcDbEntity
  8
PORTS
  6
CONTINUOUS
100
AcDbVertex
100
AcDb2dVertex
 10
226.0
 20
-10.0
 30
0.0
  0
VERTEX
  5
DF3415280D142FEC
100
AcDbEntity
  8
PORTS
  6
CONTINUOUS
100
AcDbVertex
100
AcDb2dVertex
 10
226.0
 20
-82.0
 30
0.0
  0
VERTEX
  5
DF3415280D142FED
100
AcDbEntity
  8
PORTS
  6
CONTINUOUS
100
AcDbVertex
100
AcDb2dVertex
 10
220.0
 20
-90.0
 30
0.0
  0
SEQEND
  5
DF3415280D142FEE
100
AcDbEntity
  8
PORTS
  6
CONTINUOUS
  0
POINT
  5
DF3415280D142FEF
100
AcDbEntity
  8
PORTS
  6
CONTINUOUS
100
AcDbPoint
 10
220.0
 20
-90.0
 30
0.0
  0
LINE
  5
DF3415280D142FF0
100
AcDbEntity
  8
DETAIL_MEDIUM
  6
CONTINUOUS
100
AcDbLine
 10
220.0
 20
-90.0
 30
0.0
 11
220.0
 21
-190.0
 31
0.0
  0
ENDBLK
  5
DF368DA4B229CFC8
100
AcDbEntity
  8
DETAIL_MEDIUM
  6
CONTINUOUS
100
AcDbBlockEnd
  0
BLOCK
  5
DF368DA4B229CFD7
100
AcDbEntity
  8
DETAIL_MEDIUM
  6
CONTINUOUS
100
AcDbBlockBegin
  2
TITAN_PLL_PFD_ENA_PORT
 70
     2
 10
0.0
 20
0.0
 30
0.0
  1

  0
ATTDEF
  5
DF3415280D637623
100
AcDbEntity
  8
PORTS
  6
CONTINUOUS
100
AcDbText
 10
242.0
 20
2.0
 30
0.0
 40
10.0
  1

  7
SIMPLEX
100
AcDbAttributeDefinition
  3

  2
SIDE
 70
     0
  0
POLYLINE
  5
DF3415280D637624
100
AcDbEntity
  8
PORTS
  6
CONTINUOUS
100
AcDb2dPolyline
 66
     1
 10
0.0
 20
0.0
 30
0.0
 70
     1
  0
VERTEX
  5
DF3415280D637625
100
AcDbEntity
  8
PORTS
  6
CONTINUOUS
100
AcDbVertex
100
AcDb2dVertex
 10
250.0
 20
-90.0
 30
0.0
  0
VERTEX
  5
DF3415280D637626
100
AcDbEntity
  8
PORTS
  6
CONTINUOUS
100
AcDbVertex
100
AcDb2dVertex
 10
244.0
 20
-82.0
 30
0.0
  0
VERTEX
  5
DF3415280D637627
100
AcDbEntity
  8
PORTS
  6
CONTINUOUS
100
AcDbVertex
100
AcDb2dVertex
 10
244.0
 20
-10.0
 30
0.0
  0
VERTEX
  5
DF3415280D637628
100
AcDbEntity
  8
PORTS
  6
CONTINUOUS
100
AcDbVertex
100
AcDb2dVertex
 10
256.0
 20
-10.0
 30
0.0
  0
VERTEX
  5
DF3415280D637629
100
AcDbEntity
  8
PORTS
  6
CONTINUOUS
100
AcDbVertex
100
AcDb2dVertex
 10
256.0
 20
-82.0
 30
0.0
  0
VERTEX
  5
DF3415280D63762A
100
AcDbEntity
  8
PORTS
  6
CONTINUOUS
100
AcDbVertex
100
AcDb2dVertex
 10
250.0
 20
-90.0
 30
0.0
  0
SEQEND
  5
DF3415280D63762B
100
AcDbEntity
  8
PORTS
  6
CONTINUOUS
  0
POINT
  5
DF3415280D63762C
100
AcDbEntity
  8
PORTS
  6
CONTINUOUS
100
AcDbPoint
 10
250.0
 20
-90.0
 30
0.0
  0
LINE
  5
DF3415280D63762D
100
AcDbEntity
  8
DETAIL_MEDIUM
  6
CONTINUOUS
100
AcDbLine
 10
250.0
 20
-90.0
 30
0.0
 11
250.0
 21
-190.0
 31
0.0
  0
ENDBLK
  5
DF368DA4B229CFD9
100
AcDbEntity
  8
DETAIL_MEDIUM
  6
CONTINUOUS
100
AcDbBlockEnd
  0
BLOCK
  5
DF368DA4B229CFDD
100
AcDbEntity
  8
DETAIL_MEDIUM
  6
CONTINUOUS
100
AcDbBlockBegin
  2
TITAN_PLL_FBIN_PORT
 70
     2
 10
0.0
 20
0.0
 30
0.0
  1

  0
ATTDEF
  5
DF3415280E02029E
100
AcDbEntity
  8
PORTS
  6
CONTINUOUS
100
AcDbText
 10
272.0
 20
2.0
 30
0.0
 40
10.0
  1

  7
SIMPLEX
100
AcDbAttributeDefinition
  3

  2
SIDE
 70
     0
  0
POLYLINE
  5
DF3415280E020295
100
AcDbEntity
  8
PORTS
  6
CONTINUOUS
100
AcDb2dPolyline
 66
     1
 10
0.0
 20
0.0
 30
0.0
 70
     1
  0
VERTEX
  5
DF3415280E020296
100
AcDbEntity
  8
PORTS
  6
CONTINUOUS
100
AcDbVertex
100
AcDb2dVertex
 10
280.0
 20
-90.0
 30
0.0
  0
VERTEX
  5
DF3415280E020297
100
AcDbEntity
  8
PORTS
  6
CONTINUOUS
100
AcDbVertex
100
AcDb2dVertex
 10
274.0
 20
-82.0
 30
0.0
  0
VERTEX
  5
DF3415280E020298
100
AcDbEntity
  8
PORTS
  6
CONTINUOUS
100
AcDbVertex
100
AcDb2dVertex
 10
274.0
 20
-10.0
 30
0.0
  0
VERTEX
  5
DF3415280E020299
100
AcDbEntity
  8
PORTS
  6
CONTINUOUS
100
AcDbVertex
100
AcDb2dVertex
 10
286.0
 20
-10.0
 30
0.0
  0
VERTEX
  5
DF3415280E02029A
100
AcDbEntity
  8
PORTS
  6
CONTINUOUS
100
AcDbVertex
100
AcDb2dVertex
 10
286.0
 20
-82.0
 30
0.0
  0
VERTEX
  5
DF3415280E02029B
100
AcDbEntity
  8
PORTS
  6
CONTINUOUS
100
AcDbVertex
100
AcDb2dVertex
 10
280.0
 20
-90.0
 30
0.0
  0
SEQEND
  5
DF3415280E02029C
100
AcDbEntity
  8
PORTS
  6
CONTINUOUS
  0
POINT
  5
DF3415280E02029D
100
AcDbEntity
  8
PORTS
  6
CONTINUOUS
100
AcDbPoint
 10
280.0
 20
-90.0
 30
0.0
  0
LINE
  5
DF3415280E02029F
100
AcDbEntity
  8
DETAIL_MEDIUM
  6
CONTINUOUS
100
AcDbLine
 10
280.0
 20
-90.0
 30
0.0
 11
280.0
 21
-190.0
 31
0.0
  0
ENDBLK
  5
DF368DA4B229CFDF
100
AcDbEntity
  8
DETAIL_MEDIUM
  6
CONTINUOUS
100
AcDbBlockEnd
  0
BLOCK
  5
DF368DA4B229CFE3
100
AcDbEntity
  8
DETAIL_MEDIUM
  6
CONTINUOUS
100
AcDbBlockBegin
  2
TITAN_PLL_PHASE_UP_DOWN_PORT
 70
     2
 10
0.0
 20
0.0
 30
0.0
  1

  0
ATTDEF
  5
DF3415280F3E2378
100
AcDbEntity
  8
PORTS
  6
CONTINUOUS
100
AcDbText
 10
302.0
 20
2.0
 30
0.0
 40
10.0
  1

  7
SIMPLEX
100
AcDbAttributeDefinition
  3

  2
SIDE
 70
     0
  0
POLYLINE
  5
DF3415280F3E2370
100
AcDbEntity
  8
PORTS
  6
CONTINUOUS
100
AcDb2dPolyline
 66
     1
 10
0.0
 20
0.0
 30
0.0
 70
     1
  0
VERTEX
  5
DF3415280F3E2371
100
AcDbEntity
  8
PORTS
  6
CONTINUOUS
100
AcDbVertex
100
AcDb2dVertex
 10
310.0
 20
-90.0
 30
0.0
  0
VERTEX
  5
DF3415280F3E2372
100
AcDbEntity
  8
PORTS
  6
CONTINUOUS
100
AcDbVertex
100
AcDb2dVertex
 10
304.0
 20
-82.0
 30
0.0
  0
VERTEX
  5
DF3415280F3E2373
100
AcDbEntity
  8
PORTS
  6
CONTINUOUS
100
AcDbVertex
100
AcDb2dVertex
 10
304.0
 20
-10.0
 30
0.0
  0
VERTEX
  5
DF3415280F3E2374
100
AcDbEntity
  8
PORTS
  6
CONTINUOUS
100
AcDbVertex
100
AcDb2dVertex
 10
316.0
 20
-10.0
 30
0.0
  0
VERTEX
  5
DF3415280F3E2375
100
AcDbEntity
  8
PORTS
  6
CONTINUOUS
100
AcDbVertex
100
AcDb2dVertex
 10
316.0
 20
-82.0
 30
0.0
  0
VERTEX
  5
DF3415280F3E2376
100
AcDbEntity
  8
PORTS
  6
CONTINUOUS
100
AcDbVertex
100
AcDb2dVertex
 10
310.0
 20
-90.0
 30
0.0
  0
SEQEND
  5
DF3415280F3E2377
100
AcDbEntity
  8
PORTS
  6
CONTINUOUS
  0
POINT
  5
DF3415280F3E236F
100
AcDbEntity
  8
PORTS
  6
CONTINUOUS
100
AcDbPoint
 10
310.0
 20
-90.0
 30
0.0
  0
LINE
  5
DF3415280F3E236E
100
AcDbEntity
  8
DETAIL_MEDIUM
  6
CONTINUOUS
100
AcDbLine
 10
310.0
 20
-90.0
 30
0.0
 11
310.0
 21
-190.0
 31
0.0
  0
ENDBLK
  5
DF368DA4B229CFE5
100
AcDbEntity
  8
DETAIL_MEDIUM
  6
CONTINUOUS
100
AcDbBlockEnd
  0
BLOCK
  5
DF368DA4B229CFE9
100
AcDbEntity
  8
DETAIL_MEDIUM
  6
CONTINUOUS
100
AcDbBlockBegin
  2
TITAN_PLL_PHASE_STEP_PORT
 70
     2
 10
0.0
 20
0.0
 30
0.0
  1

  0
ATTDEF
  5
DF34152811B66525
100
AcDbEntity
  8
PORTS
  6
CONTINUOUS
100
AcDbText
 10
332.0
 20
2.0
 30
0.0
 40
10.0
  1

  7
SIMPLEX
100
AcDbAttributeDefinition
  3

  2
SIDE
 70
     0
  0
POLYLINE
  5
DF34152811B6651D
100
AcDbEntity
  8
PORTS
  6
CONTINUOUS
100
AcDb2dPolyline
 66
     1
 10
0.0
 20
0.0
 30
0.0
 70
     1
  0
VERTEX
  5
DF34152811B6651E
100
AcDbEntity
  8
PORTS
  6
CONTINUOUS
100
AcDbVertex
100
AcDb2dVertex
 10
340.0
 20
-90.0
 30
0.0
  0
VERTEX
  5
DF34152811B6651F
100
AcDbEntity
  8
PORTS
  6
CONTINUOUS
100
AcDbVertex
100
AcDb2dVertex
 10
334.0
 20
-82.0
 30
0.0
  0
VERTEX
  5
DF34152811B66520
100
AcDbEntity
  8
PORTS
  6
CONTINUOUS
100
AcDbVertex
100
AcDb2dVertex
 10
334.0
 20
-10.0
 30
0.0
  0
VERTEX
  5
DF34152811B66521
100
AcDbEntity
  8
PORTS
  6
CONTINUOUS
100
AcDbVertex
100
AcDb2dVertex
 10
346.0
 20
-10.0
 30
0.0
  0
VERTEX
  5
DF34152811B66522
100
AcDbEntity
  8
PORTS
  6
CONTINUOUS
100
AcDbVertex
100
AcDb2dVertex
 10
346.0
 20
-82.0
 30
0.0
  0
VERTEX
  5
DF34152811B66523
100
AcDbEntity
  8
PORTS
  6
CONTINUOUS
100
AcDbVertex
100
AcDb2dVertex
 10
340.0
 20
-90.0
 30
0.0
  0
SEQEND
  5
DF34152811B66524
100
AcDbEntity
  8
PORTS
  6
CONTINUOUS
  0
POINT
  5
DF34152811B6651C
100
AcDbEntity
  8
PORTS
  6
CONTINUOUS
100
AcDbPoint
 10
340.0
 20
-90.0
 30
0.0
  0
LINE
  5
DF34152811B6651B
100
AcDbEntity
  8
DETAIL_MEDIUM
  6
CONTINUOUS
100
AcDbLine
 10
340.0
 20
-90.0
 30
0.0
 11
340.0
 21
-190.0
 31
0.0
  0
ENDBLK
  5
DF368DA4B229CFEB
100
AcDbEntity
  8
DETAIL_MEDIUM
  6
CONTINUOUS
100
AcDbBlockEnd
  0
BLOCK
  5
DF368DA4B229CFEF
100
AcDbEntity
  8
DETAIL_MEDIUM
  6
CONTINUOUS
100
AcDbBlockBegin
  2
TITAN_PLL_SCAN_DATA_PORT
 70
     2
 10
0.0
 20
0.0
 30
0.0
  1

  0
ATTDEF
  5
DF34152816A6E879
100
AcDbEntity
  8
PORTS
  6
CONTINUOUS
100
AcDbText
 10
382.0
 20
2.0
 30
0.0
 40
10.0
  1

  7
SIMPLEX
100
AcDbAttributeDefinition
  3

  2
SIDE
 70
     0
  0
POLYLINE
  5
DF34152816A6E86F
100
AcDbEntity
  8
PORTS
  6
CONTINUOUS
100
AcDb2dPolyline
 66
     1
 10
0.0
 20
0.0
 30
0.0
 70
     1
  0
VERTEX
  5
DF34152816A6E870
100
AcDbEntity
  8
PORTS
  6
CONTINUOUS
100
AcDbVertex
100
AcDb2dVertex
 10
390.0
 20
-90.0
 30
0.0
  0
VERTEX
  5
DF34152816A6E871
100
AcDbEntity
  8
PORTS
  6
CONTINUOUS
100
AcDbVertex
100
AcDb2dVertex
 10
384.0
 20
-82.0
 30
0.0
  0
VERTEX
  5
DF34152816A6E872
100
AcDbEntity
  8
PORTS
  6
CONTINUOUS
100
AcDbVertex
100
AcDb2dVertex
 10
384.0
 20
-10.0
 30
0.0
  0
VERTEX
  5
DF34152816A6E873
100
AcDbEntity
  8
PORTS
  6
CONTINUOUS
100
AcDbVertex
100
AcDb2dVertex
 10
396.0
 20
-10.0
 30
0.0
  0
VERTEX
  5
DF34152816A6E874
100
AcDbEntity
  8
PORTS
  6
CONTINUOUS
100
AcDbVertex
100
AcDb2dVertex
 10
396.0
 20
-82.0
 30
0.0
  0
VERTEX
  5
DF34152816A6E875
100
AcDbEntity
  8
PORTS
  6
CONTINUOUS
100
AcDbVertex
100
AcDb2dVertex
 10
390.0
 20
-90.0
 30
0.0
  0
SEQEND
  5
DF34152816A6E876
100
AcDbEntity
  8
PORTS
  6
CONTINUOUS
  0
POINT
  5
DF34152816A6E877
100
AcDbEntity
  8
PORTS
  6
CONTINUOUS
100
AcDbPoint
 10
390.0
 20
-90.0
 30
0.0
  0
LINE
  5
DF34152816A6E878
100
AcDbEntity
  8
DETAIL_MEDIUM
  6
CONTINUOUS
100
AcDbLine
 10
390.0
 20
-90.0
 30
0.0
 11
390.0
 21
-190.0
 31
0.0
  0
ENDBLK
  5
DF368DA4B229CFF1
100
AcDbEntity
  8
DETAIL_MEDIUM
  6
CONTINUOUS
100
AcDbBlockEnd
  0
BLOCK
  5
DF368DA4B229CFF5
100
AcDbEntity
  8
DETAIL_MEDIUM
  6
CONTINUOUS
100
AcDbBlockBegin
  2
TITAN_PLL_SCAN_CLOCK_PORT
 70
     2
 10
0.0
 20
0.0
 30
0.0
  1

  0
ATTDEF
  5
DF3415282088E724
100
AcDbEntity
  8
PORTS
  6
CONTINUOUS
100
AcDbText
 10
412.0
 20
2.0
 30
0.0
 40
10.0
  1

  7
SIMPLEX
100
AcDbAttributeDefinition
  3

  2
SIDE
 70
     0
  0
POLYLINE
  5
DF3415282088E71B
100
AcDbEntity
  8
PORTS
  6
CONTINUOUS
100
AcDb2dPolyline
 66
     1
 10
0.0
 20
0.0
 30
0.0
 70
     1
  0
VERTEX
  5
DF3415282088E71C
100
AcDbEntity
  8
PORTS
  6
CONTINUOUS
100
AcDbVertex
100
AcDb2dVertex
 10
420.0
 20
-90.0
 30
0.0
  0
VERTEX
  5
DF3415282088E71D
100
AcDbEntity
  8
PORTS
  6
CONTINUOUS
100
AcDbVertex
100
AcDb2dVertex
 10
414.0
 20
-82.0
 30
0.0
  0
VERTEX
  5
DF3415282088E71E
100
AcDbEntity
  8
PORTS
  6
CONTINUOUS
100
AcDbVertex
100
AcDb2dVertex
 10
414.0
 20
-10.0
 30
0.0
  0
VERTEX
  5
DF3415282088E71F
100
AcDbEntity
  8
PORTS
  6
CONTINUOUS
100
AcDbVertex
100
AcDb2dVertex
 10
426.0
 20
-10.0
 30
0.0
  0
VERTEX
  5
DF3415282088E720
100
AcDbEntity
  8
PORTS
  6
CONTINUOUS
100
AcDbVertex
100
AcDb2dVertex
 10
426.0
 20
-82.0
 30
0.0
  0
VERTEX
  5
DF3415282088E721
100
AcDbEntity
  8
PORTS
  6
CONTINUOUS
100
AcDbVertex
100
AcDb2dVertex
 10
420.0
 20
-90.0
 30
0.0
  0
SEQEND
  5
DF3415282088E722
100
AcDbEntity
  8
PORTS
  6
CONTINUOUS
  0
POINT
  5
DF3415282088E723
100
AcDbEntity
  8
PORTS
  6
CONTINUOUS
100
AcDbPoint
 10
420.0
 20
-90.0
 30
0.0
  0
LINE
  5
DF3415282088E725
100
AcDbEntity
  8
DETAIL_MEDIUM
  6
CONTINUOUS
100
AcDbLine
 10
420.0
 20
-90.0
 30
0.0
 11
420.0
 21
-190.0
 31
0.0
  0
ENDBLK
  5
DF368DA4B229CFF7
100
AcDbEntity
  8
DETAIL_MEDIUM
  6
CONTINUOUS
100
AcDbBlockEnd
  0
BLOCK
  5
DF368DA4B229CFFB
100
AcDbEntity
  8
DETAIL_MEDIUM
  6
CONTINUOUS
100
AcDbBlockBegin
  2
TITAN_PLL_SCAN_CLOCK_ENA_PORT
 70
     2
 10
0.0
 20
0.0
 30
0.0
  1

  0
ATTDEF
  5
DF368DA4B229CFD5
100
AcDbEntity
  8
PORTS
  6
CONTINUOUS
100
AcDbText
 10
442.0
 20
2.0
 30
0.0
 40
10.0
  1

  7
SIMPLEX
100
AcDbAttributeDefinition
  3

  2
SIDE
 70
     0
  0
POLYLINE
  5
DF368DA4B229CFCD
100
AcDbEntity
  8
PORTS
  6
CONTINUOUS
100
AcDb2dPolyline
 66
     1
 10
0.0
 20
0.0
 30
0.0
 70
     1
  0
VERTEX
  5
DF368DA4B229CFCE
100
AcDbEntity
  8
PORTS
  6
CONTINUOUS
100
AcDbVertex
100
AcDb2dVertex
 10
450.0
 20
-90.0
 30
0.0
  0
VERTEX
  5
DF368DA4B229CFCF
100
AcDbEntity
  8
PORTS
  6
CONTINUOUS
100
AcDbVertex
100
AcDb2dVertex
 10
444.0
 20
-82.0
 30
0.0
  0
VERTEX
  5
DF368DA4B229CFD0
100
AcDbEntity
  8
PORTS
  6
CONTINUOUS
100
AcDbVertex
100
AcDb2dVertex
 10
444.0
 20
-10.0
 30
0.0
  0
VERTEX
  5
DF368DA4B229CFD1
100
AcDbEntity
  8
PORTS
  6
CONTINUOUS
100
AcDbVertex
100
AcDb2dVertex
 10
456.0
 20
-10.0
 30
0.0
  0
VERTEX
  5
DF368DA4B229CFD2
100
AcDbEntity
  8
PORTS
  6
CONTINUOUS
100
AcDbVertex
100
AcDb2dVertex
 10
456.0
 20
-82.0
 30
0.0
  0
VERTEX
  5
DF368DA4B229CFD3
100
AcDbEntity
  8
PORTS
  6
CONTINUOUS
100
AcDbVertex
100
AcDb2dVertex
 10
450.0
 20
-90.0
 30
0.0
  0
SEQEND
  5
DF368DA4B229CFD4
100
AcDbEntity
  8
PORTS
  6
CONTINUOUS
  0
POINT
  5
DF368DA4B229CFCC
100
AcDbEntity
  8
PORTS
  6
CONTINUOUS
100
AcDbPoint
 10
450.0
 20
-90.0
 30
0.0
  0
LINE
  5
DF368DA4B229CFD6
100
AcDbEntity
  8
DETAIL_MEDIUM
  6
CONTINUOUS
100
AcDbLine
 10
450.0
 20
-90.0
 30
0.0
 11
450.0
 21
-190.0
 31
0.0
  0
ENDBLK
  5
DF368DA4B229CFFD
100
AcDbEntity
  8
DETAIL_MEDIUM
  6
CONTINUOUS
100
AcDbBlockEnd
  0
BLOCK
  5
DF368DA4B229D001
100
AcDbEntity
  8
DETAIL_MEDIUM
  6
CONTINUOUS
100
AcDbBlockBegin
  2
TITAN_PLL_CONFIG_UPDATE_PORT
 70
     2
 10
0.0
 20
0.0
 30
0.0
  1

  0
ATTDEF
  5
DF341528344CE476
100
AcDbEntity
  8
PORTS
  6
CONTINUOUS
100
AcDbText
 10
472.0
 20
2.0
 30
0.0
 40
10.0
  1

  7
SIMPLEX
100
AcDbAttributeDefinition
  3

  2
SIDE
 70
     0
  0
POLYLINE
  5
DF341528344CE46D
100
AcDbEntity
  8
PORTS
  6
CONTINUOUS
100
AcDb2dPolyline
 66
     1
 10
0.0
 20
0.0
 30
0.0
 70
     1
  0
VERTEX
  5
DF341528344CE46E
100
AcDbEntity
  8
PORTS
  6
CONTINUOUS
100
AcDbVertex
100
AcDb2dVertex
 10
480.0
 20
-90.0
 30
0.0
  0
VERTEX
  5
DF341528344CE46F
100
AcDbEntity
  8
PORTS
  6
CONTINUOUS
100
AcDbVertex
100
AcDb2dVertex
 10
474.0
 20
-82.0
 30
0.0
  0
VERTEX
  5
DF341528344CE470
100
AcDbEntity
  8
PORTS
  6
CONTINUOUS
100
AcDbVertex
100
AcDb2dVertex
 10
474.0
 20
-10.0
 30
0.0
  0
VERTEX
  5
DF341528344CE471
100
AcDbEntity
  8
PORTS
  6
CONTINUOUS
100
AcDbVertex
100
AcDb2dVertex
 10
486.0
 20
-10.0
 30
0.0
  0
VERTEX
  5
DF341528344CE472
100
AcDbEntity
  8
PORTS
  6
CONTINUOUS
100
AcDbVertex
100
AcDb2dVertex
 10
486.0
 20
-82.0
 30
0.0
  0
VERTEX
  5
DF341528344CE473
100
AcDbEntity
  8
PORTS
  6
CONTINUOUS
100
AcDbVertex
100
AcDb2dVertex
 10
480.0
 20
-90.0
 30
0.0
  0
SEQEND
  5
DF341528344CE474
100
AcDbEntity
  8
PORTS
  6
CONTINUOUS
  0
POINT
  5
DF341528344CE475
100
AcDbEntity
  8
PORTS
  6
CONTINUOUS
100
AcDbPoint
 10
480.0
 20
-90.0
 30
0.0
  0
LINE
  5
DF341528344CE477
100
AcDbEntity
  8
DETAIL_MEDIUM
  6
CONTINUOUS
100
AcDbLine
 10
480.0
 20
-90.0
 30
0.0
 11
480.0
 21
-190.0
 31
0.0
  0
ENDBLK
  5
DF368DA4B229D003
100
AcDbEntity
  8
DETAIL_MEDIUM
  6
CONTINUOUS
100
AcDbBlockEnd
  0
BLOCK
  5
DF368DA4B229D007
100
AcDbEntity
  8
DETAIL_MEDIUM
  6
CONTINUOUS
100
AcDbBlockBegin
  2
TITAN_PLL_CLOCK_SWITCH_PORT
 70
     2
 10
0.0
 20
0.0
 30
0.0
  1

  0
ATTDEF
  5
DF3415285BD4DF14
100
AcDbEntity
  8
PORTS
  6
CONTINUOUS
100
AcDbText
 10
502.0
 20
2.0
 30
0.0
 40
10.0
  1

  7
SIMPLEX
100
AcDbAttributeDefinition
  3

  2
SIDE
 70
     0
  0
POLYLINE
  5
DF3415285BD4DF0B
100
AcDbEntity
  8
PORTS
  6
CONTINUOUS
100
AcDb2dPolyline
 66
     1
 10
0.0
 20
0.0
 30
0.0
 70
     1
  0
VERTEX
  5
DF3415285BD4DF0C
100
AcDbEntity
  8
PORTS
  6
CONTINUOUS
100
AcDbVertex
100
AcDb2dVertex
 10
510.0
 20
-90.0
 30
0.0
  0
VERTEX
  5
DF3415285BD4DF0D
100
AcDbEntity
  8
PORTS
  6
CONTINUOUS
100
AcDbVertex
100
AcDb2dVertex
 10
504.0
 20
-82.0
 30
0.0
  0
VERTEX
  5
DF3415285BD4DF0E
100
AcDbEntity
  8
PORTS
  6
CONTINUOUS
100
AcDbVertex
100
AcDb2dVertex
 10
504.0
 20
-10.0
 30
0.0
  0
VERTEX
  5
DF3415285BD4DF0F
100
AcDbEntity
  8
PORTS
  6
CONTINUOUS
100
AcDbVertex
100
AcDb2dVertex
 10
516.0
 20
-10.0
 30
0.0
  0
VERTEX
  5
DF3415285BD4DF10
100
AcDbEntity
  8
PORTS
  6
CONTINUOUS
100
AcDbVertex
100
AcDb2dVertex
 10
516.0
 20
-82.0
 30
0.0
  0
VERTEX
  5
DF3415285BD4DF11
100
AcDbEntity
  8
PORTS
  6
CONTINUOUS
100
AcDbVertex
100
AcDb2dVertex
 10
510.0
 20
-90.0
 30
0.0
  0
SEQEND
  5
DF3415285BD4DF12
100
AcDbEntity
  8
PORTS
  6
CONTINUOUS
  0
POINT
  5
DF3415285BD4DF13
100
AcDbEntity
  8
PORTS
  6
CONTINUOUS
100
AcDbPoint
 10
510.0
 20
-90.0
 30
0.0
  0
LINE
  5
DF3415285BD4DF15
100
AcDbEntity
  8
DETAIL_MEDIUM
  6
CONTINUOUS
100
AcDbLine
 10
510.0
 20
-90.0
 30
0.0
 11
510.0
 21
-190.0
 31
0.0
  0
ENDBLK
  5
DF368DA4B229D009
100
AcDbEntity
  8
DETAIL_MEDIUM
  6
CONTINUOUS
100
AcDbBlockEnd
  0
BLOCK
  5
DF368DA4B229D00D
100
AcDbEntity
  8
DETAIL_MEDIUM
  6
CONTINUOUS
100
AcDbBlockBegin
  2
TITAN_PLL_CLKIN_PORT
 70
     2
 10
0.0
 20
0.0
 30
0.0
  1

  0
ATTDEF
  5
DF3415280CEC8CC5
100
AcDbEntity
  8
PORTS
  6
CONTINUOUS
100
AcDbText
 10
12.0
 20
-288.0
 30
0.0
 40
10.0
  1

  7
SIMPLEX
100
AcDbAttributeDefinition
  3

  2
SIDE
 70
     0
  0
ATTDEF
  5
DF3415280CEC8CD0
100
AcDbEntity
  8
PORTS
  6
CONTINUOUS
100
AcDbText
 10
62.0
 20
-288.0
 30
0.0
 40
10.0
  1
0
 50
0.000019
  7
SIMPLEX
100
AcDbAttributeDefinition
  3

  2
INDEX
 70
     0
  0
POLYLINE
  5
DF3415280CEC8CC6
100
AcDbEntity
  8
PORTS
  6
CONTINUOUS
100
AcDb2dPolyline
 66
     1
 10
0.0
 20
0.0
 30
0.0
 70
     1
  0
VERTEX
  5
DF3415280CEC8CC7
100
AcDbEntity
  8
PORTS
  6
CONTINUOUS
100
AcDbVertex
100
AcDb2dVertex
 10
90.0
 20
-300.0
 30
0.0
  0
VERTEX
  5
DF3415280CEC8CC8
100
AcDbEntity
  8
PORTS
  6
CONTINUOUS
100
AcDbVertex
100
AcDb2dVertex
 10
82.0
 20
-306.0
 30
0.0
  0
VERTEX
  5
DF3415280CEC8CC9
100
AcDbEntity
  8
PORTS
  6
CONTINUOUS
100
AcDbVertex
100
AcDb2dVertex
 10
10.0
 20
-306.0
 30
0.0
  0
VERTEX
  5
DF3415280CEC8CCA
100
AcDbEntity
  8
PORTS
  6
CONTINUOUS
100
AcDbVertex
100
AcDb2dVertex
 10
10.0
 20
-294.0
 30
0.0
  0
VERTEX
  5
DF3415280CEC8CCB
100
AcDbEntity
  8
PORTS
  6
CONTINUOUS
100
AcDbVertex
100
AcDb2dVertex
 10
82.0
 20
-294.0
 30
0.0
  0
VERTEX
  5
DF3415280CEC8CCC
100
AcDbEntity
  8
PORTS
  6
CONTINUOUS
100
AcDbVertex
100
AcDb2dVertex
 10
90.0
 20
-300.0
 30
0.0
  0
SEQEND
  5
DF3415280CEC8CCD
100
AcDbEntity
  8
PORTS
  6
CONTINUOUS
  0
POINT
  5
DF3415280CEC8CCE
100
AcDbEntity
  8
PORTS
  6
CONTINUOUS
100
AcDbPoint
 10
90.0
 20
-300.0
 30
0.0
  0
LINE
  5
DF3415280CEC8CCF
100
AcDbEntity
  8
DETAIL_MEDIUM
  6
CONTINUOUS
100
AcDbLine
 10
90.0
 20
-300.0
 30
0.0
 11
190.0
 21
-300.0
 31
0.0
  0
ENDBLK
  5
DF368DA4B229D00F
100
AcDbEntity
  8
DETAIL_MEDIUM
  6
CONTINUOUS
100
AcDbBlockEnd
  0
BLOCK
  5
DF368DA4B229D018
100
AcDbEntity
  8
DETAIL_MEDIUM
  6
CONTINUOUS
100
AcDbBlockBegin
  2
TITAN_PLL_PHASE_COUNT_SEL_PORT
 70
     2
 10
0.0
 20
0.0
 30
0.0
  1

  0
ATTDEF
  5
DF3415280CCF2E73
100
AcDbEntity
  8
PORTS
  6
CONTINUOUS
100
AcDbText
 10
12.0
 20
-368.0
 30
0.0
 40
10.0
  1

  7
SIMPLEX
100
AcDbAttributeDefinition
  3

  2
SIDE
 70
     0
  0
ATTDEF
  5
DF3415280CCF2E74
100
AcDbEntity
  8
PORTS
  6
CONTINUOUS
100
AcDbText
 10
62.0
 20
-368.0
 30
0.0
 40
10.0
  1
0
 50
0.000019
  7
SIMPLEX
100
AcDbAttributeDefinition
  3

  2
INDEX
 70
     0
  0
POLYLINE
  5
DF3415280CCF2E6B
100
AcDbEntity
  8
PORTS
  6
CONTINUOUS
100
AcDb2dPolyline
 66
     1
 10
0.0
 20
0.0
 30
0.0
 70
     1
  0
VERTEX
  5
DF3415280CCF2E6C
100
AcDbEntity
  8
PORTS
  6
CONTINUOUS
100
AcDbVertex
100
AcDb2dVertex
 10
90.0
 20
-380.0
 30
0.0
  0
VERTEX
  5
DF3415280CCF2E6D
100
AcDbEntity
  8
PORTS
  6
CONTINUOUS
100
AcDbVertex
100
AcDb2dVertex
 10
82.0
 20
-386.0
 30
0.0
  0
VERTEX
  5
DF3415280CCF2E6E
100
AcDbEntity
  8
PORTS
  6
CONTINUOUS
100
AcDbVertex
100
AcDb2dVertex
 10
10.0
 20
-386.0
 30
0.0
  0
VERTEX
  5
DF3415280CCF2E6F
100
AcDbEntity
  8
PORTS
  6
CONTINUOUS
100
AcDbVertex
100
AcDb2dVertex
 10
10.0
 20
-374.0
 30
0.0
  0
VERTEX
  5
DF3415280CCF2E70
100
AcDbEntity
  8
PORTS
  6
CONTINUOUS
100
AcDbVertex
100
AcDb2dVertex
 10
82.0
 20
-374.0
 30
0.0
  0
VERTEX
  5
DF3415280CCF2E71
100
AcDbEntity
  8
PORTS
  6
CONTINUOUS
100
AcDbVertex
100
AcDb2dVertex
 10
90.0
 20
-380.0
 30
0.0
  0
SEQEND
  5
DF3415280CCF2E72
100
AcDbEntity
  8
PORTS
  6
CONTINUOUS
  0
POINT
  5
DF3415280CCF2E75
100
AcDbEntity
  8
PORTS
  6
CONTINUOUS
100
AcDbPoint
 10
90.0
 20
-380.0
 30
0.0
  0
LINE
  5
DF3415280CCF2E76
100
AcDbEntity
  8
DETAIL_MEDIUM
  6
CONTINUOUS
100
AcDbLine
 10
90.0
 20
-380.0
 30
0.0
 11
190.0
 21
-380.0
 31
0.0
  0
ENDBLK
  5
DF368DA4B229D01A
100
AcDbEntity
  8
DETAIL_MEDIUM
  6
CONTINUOUS
100
AcDbBlockEnd
  0
BLOCK
  5
DF368DA4B229D02F
100
AcDbEntity
  8
DETAIL_MEDIUM
  6
CONTINUOUS
100
AcDbBlockBegin
  2
TITAN_PLL_CLKBAD_PORT
 70
     2
 10
0.0
 20
0.0
 30
0.0
  1

  0
LINE
  5
DF341528AAE459BC
100
AcDbEntity
  8
DETAIL_MEDIUM
  6
CONTINUOUS
100
AcDbLine
 10
540.0
 20
-220.0
 30
0.0
 11
640.0
 21
-220.0
 31
0.0
  0
POINT
  5
DF341528AAE459C5
100
AcDbEntity
  8
PORTS
  6
CONTINUOUS
100
AcDbPoint
 10
640.0
 20
-220.0
 30
0.0
  0
POLYLINE
  5
DF341528AAE459BD
100
AcDbEntity
  8
PORTS
  6
CONTINUOUS
100
AcDb2dPolyline
 66
     1
 10
0.0
 20
0.0
 30
0.0
 70
     1
  0
VERTEX
  5
DF341528AAE459BE
100
AcDbEntity
  8
PORTS
  6
CONTINUOUS
100
AcDbVertex
100
AcDb2dVertex
 10
720.0
 20
-220.0
 30
0.0
  0
VERTEX
  5
DF341528AAE459BF
100
AcDbEntity
  8
PORTS
  6
CONTINUOUS
100
AcDbVertex
100
AcDb2dVertex
 10
712.0
 20
-226.0
 30
0.0
  0
VERTEX
  5
DF341528AAE459C0
100
AcDbEntity
  8
PORTS
  6
CONTINUOUS
100
AcDbVertex
100
AcDb2dVertex
 10
640.0
 20
-226.0
 30
0.0
  0
VERTEX
  5
DF341528AAE459C1
100
AcDbEntity
  8
PORTS
  6
CONTINUOUS
100
AcDbVertex
100
AcDb2dVertex
 10
640.0
 20
-214.0
 30
0.0
  0
VERTEX
  5
DF341528AAE459C2
100
AcDbEntity
  8
PORTS
  6
CONTINUOUS
100
AcDbVertex
100
AcDb2dVertex
 10
712.0
 20
-214.0
 30
0.0
  0
VERTEX
  5
DF341528AAE459C3
100
AcDbEntity
  8
PORTS
  6
CONTINUOUS
100
AcDbVertex
100
AcDb2dVertex
 10
720.0
 20
-220.0
 30
0.0
  0
SEQEND
  5
DF341528AAE459C4
100
AcDbEntity
  8
PORTS
  6
CONTINUOUS
  0
ATTDEF
  5
DF341528AAE459C7
100
AcDbEntity
  8
PORTS
  6
CONTINUOUS
100
AcDbText
 10
692.0
 20
-208.0
 30
0.0
 40
10.0
  1
0
 50
0.000019
  7
SIMPLEX
100
AcDbAttributeDefinition
  3

  2
INDEX
 70
     0
  0
ATTDEF
  5
DF341528AAE459C6
100
AcDbEntity
  8
PORTS
  6
CONTINUOUS
100
AcDbText
 10
642.0
 20
-208.0
 30
0.0
 40
10.0
  1

 50
0.000019
  7
SIMPLEX
100
AcDbAttributeDefinition
  3

  2
SIDE
 70
     0
  0
ENDBLK
  5
DF368DA4B229D031
100
AcDbEntity
  8
DETAIL_MEDIUM
  6
CONTINUOUS
100
AcDbBlockEnd
  0
BLOCK
  5
DF368DA4B229D03A
100
AcDbEntity
  8
DETAIL_MEDIUM
  6
CONTINUOUS
100
AcDbBlockBegin
  2
TITAN_PLL_CLKOUT_PORT
 70
     2
 10
0.0
 20
0.0
 30
0.0
  1

  0
LINE
  5
DF34152A8541B3F5
100
AcDbEntity
  8
DETAIL_MEDIUM
  6
CONTINUOUS
100
AcDbLine
 10
540.0
 20
-300.0
 30
0.0
 11
640.0
 21
-300.0
 31
0.0
  0
ATTDEF
  5
DF34152A8541B3F3
100
AcDbEntity
  8
PORTS
  6
CONTINUOUS
100
AcDbText
 10
642.0
 20
-288.0
 30
0.0
 40
10.0
  1

 50
0.000019
  7
SIMPLEX
100
AcDbAttributeDefinition
  3

  2
SIDE
 70
     0
  0
ATTDEF
  5
DF34152A8541B3F6
100
AcDbEntity
  8
PORTS
  6
CONTINUOUS
100
AcDbText
 10
692.0
 20
-288.0
 30
0.0
 40
10.0
  1
0
 50
0.000019
  7
SIMPLEX
100
AcDbAttributeDefinition
  3

  2
INDEX
 70
     0
  0
POLYLINE
  5
DF34152A8541B3EB
100
AcDbEntity
  8
PORTS
  6
CONTINUOUS
100
AcDb2dPolyline
 66
     1
 10
0.0
 20
0.0
 30
0.0
 70
     1
  0
VERTEX
  5
DF34152A8541B3EC
100
AcDbEntity
  8
PORTS
  6
CONTINUOUS
100
AcDbVertex
100
AcDb2dVertex
 10
720.0
 20
-300.0
 30
0.0
  0
VERTEX
  5
DF34152A8541B3ED
100
AcDbEntity
  8
PORTS
  6
CONTINUOUS
100
AcDbVertex
100
AcDb2dVertex
 10
712.0
 20
-306.0
 30
0.0
  0
VERTEX
  5
DF34152A8541B3EE
100
AcDbEntity
  8
PORTS
  6
CONTINUOUS
100
AcDbVertex
100
AcDb2dVertex
 10
640.0
 20
-306.0
 30
0.0
  0
VERTEX
  5
DF34152A8541B3EF
100
AcDbEntity
  8
PORTS
  6
CONTINUOUS
100
AcDbVertex
100
AcDb2dVertex
 10
640.0
 20
-294.0
 30
0.0
  0
VERTEX
  5
DF34152A8541B3F0
100
AcDbEntity
  8
PORTS
  6
CONTINUOUS
100
AcDbVertex
100
AcDb2dVertex
 10
712.0
 20
-294.0
 30
0.0
  0
VERTEX
  5
DF34152A8541B3F1
100
AcDbEntity
  8
PORTS
  6
CONTINUOUS
100
AcDbVertex
100
AcDb2dVertex
 10
720.0
 20
-300.0
 30
0.0
  0
SEQEND
  5
DF34152A8541B3F2
100
AcDbEntity
  8
PORTS
  6
CONTINUOUS
  0
POINT
  5
DF34152A8541B3F4
100
AcDbEntity
  8
PORTS
  6
CONTINUOUS
100
AcDbPoint
 10
640.0
 20
-300.0
 30
0.0
  0
ENDBLK
  5
DF368DA4B229D03C
100
AcDbEntity
  8
DETAIL_MEDIUM
  6
CONTINUOUS
100
AcDbBlockEnd
  0
BLOCK
  5
DF368DA4B229D065
100
AcDbEntity
  8
DETAIL_MEDIUM
  6
CONTINUOUS
100
AcDbBlockBegin
  2
TITAN_PLL_PHASE_DONE_PORT
 70
     2
 10
0.0
 20
0.0
 30
0.0
  1

  0
LINE
  5
DF368DA4B229CFC5
100
AcDbEntity
  8
DETAIL_MEDIUM
  6
CONTINUOUS
100
AcDbLine
 10
220.0
 20
-630.0
 30
0.0
 11
220.0
 21
-730.0
 31
0.0
  0
POLYLINE
  5
DF368DA4B229CFBB
100
AcDbEntity
  8
PORTS
  6
CONTINUOUS
100
AcDb2dPolyline
 66
     1
 10
0.0
 20
0.0
 30
0.0
 70
     1
  0
VERTEX
  5
DF368DA4B229CFBC
100
AcDbEntity
  8
PORTS
  6
CONTINUOUS
100
AcDbVertex
100
AcDb2dVertex
 10
220.0
 20
-810.0
 30
0.0
  0
VERTEX
  5
DF368DA4B229CFBD
100
AcDbEntity
  8
PORTS
  6
CONTINUOUS
100
AcDbVertex
100
AcDb2dVertex
 10
214.0
 20
-802.0
 30
0.0
  0
VERTEX
  5
DF368DA4B229CFBE
100
AcDbEntity
  8
PORTS
  6
CONTINUOUS
100
AcDbVertex
100
AcDb2dVertex
 10
214.0
 20
-730.0
 30
0.0
  0
VERTEX
  5
DF368DA4B229CFBF
100
AcDbEntity
  8
PORTS
  6
CONTINUOUS
100
AcDbVertex
100
AcDb2dVertex
 10
226.0
 20
-730.0
 30
0.0
  0
VERTEX
  5
DF368DA4B229CFC0
100
AcDbEntity
  8
PORTS
  6
CONTINUOUS
100
AcDbVertex
100
AcDb2dVertex
 10
226.0
 20
-802.0
 30
0.0
  0
VERTEX
  5
DF368DA4B229CFC1
100
AcDbEntity
  8
PORTS
  6
CONTINUOUS
100
AcDbVertex
100
AcDb2dVertex
 10
220.0
 20
-810.0
 30
0.0
  0
SEQEND
  5
DF368DA4B229CFC2
100
AcDbEntity
  8
PORTS
  6
CONTINUOUS
  0
POINT
  5
DF368DA4B229CFC3
100
AcDbEntity
  8
PORTS
  6
CONTINUOUS
100
AcDbPoint
 10
220.0
 20
-730.0
 30
0.0
  0
ATTDEF
  5
DF368DA4B229CFC4
100
AcDbEntity
  8
PORTS
  6
CONTINUOUS
100
AcDbText
 10
212.0
 20
-838.0
 30
0.0
 40
10.0
  1

  7
SIMPLEX
100
AcDbAttributeDefinition
  3

  2
SIDE
 70
     0
  0
ENDBLK
  5
DF368DA4B229D067
100
AcDbEntity
  8
DETAIL_MEDIUM
  6
CONTINUOUS
100
AcDbBlockEnd
  0
BLOCK
  5
DF368DA4B229D06B
100
AcDbEntity
  8
DETAIL_MEDIUM
  6
CONTINUOUS
100
AcDbBlockBegin
  2
TITAN_PLL_SCAN_DATA_OUT_PORT
 70
     2
 10
0.0
 20
0.0
 30
0.0
  1

  0
POLYLINE
  5
DF3551665F775D9F
100
AcDbEntity
  8
PORTS
  6
CONTINUOUS
100
AcDb2dPolyline
 66
     1
 10
0.0
 20
0.0
 30
0.0
 70
     1
  0
VERTEX
  5
DF3551665F775DA0
100
AcDbEntity
  8
PORTS
  6
CONTINUOUS
100
AcDbVertex
100
AcDb2dVertex
 10
260.0
 20
-810.0
 30
0.0
  0
VERTEX
  5
DF3551665F775DA1
100
AcDbEntity
  8
PORTS
  6
CONTINUOUS
100
AcDbVertex
100
AcDb2dVertex
 10
254.0
 20
-802.0
 30
0.0
  0
VERTEX
  5
DF3551665F775DA2
100
AcDbEntity
  8
PORTS
  6
CONTINUOUS
100
AcDbVertex
100
AcDb2dVertex
 10
254.0
 20
-730.0
 30
0.0
  0
VERTEX
  5
DF3551665F775DA3
100
AcDbEntity
  8
PORTS
  6
CONTINUOUS
100
AcDbVertex
100
AcDb2dVertex
 10
266.0
 20
-730.0
 30
0.0
  0
VERTEX
  5
DF3551665F775DA4
100
AcDbEntity
  8
PORTS
  6
CONTINUOUS
100
AcDbVertex
100
AcDb2dVertex
 10
266.0
 20
-802.0
 30
0.0
  0
VERTEX
  5
DF3551665F775DA5
100
AcDbEntity
  8
PORTS
  6
CONTINUOUS
100
AcDbVertex
100
AcDb2dVertex
 10
260.0
 20
-810.0
 30
0.0
  0
SEQEND
  5
DF3551665F775DA6
100
AcDbEntity
  8
PORTS
  6
CONTINUOUS
  0
POINT
  5
DF3551665F775DA7
100
AcDbEntity
  8
PORTS
  6
CONTINUOUS
100
AcDbPoint
 10
260.0
 20
-730.0
 30
0.0
  0
LINE
  5
DF3551665F775DA8
100
AcDbEntity
  8
DETAIL_MEDIUM
  6
CONTINUOUS
100
AcDbLine
 10
260.0
 20
-630.0
 30
0.0
 11
260.0
 21
-730.0
 31
0.0
  0
ATTDEF
  5
DF3551665F775D9E
100
AcDbEntity
  8
PORTS
  6
CONTINUOUS
100
AcDbText
 10
252.0
 20
-838.0
 30
0.0
 40
10.0
  1

  7
SIMPLEX
100
AcDbAttributeDefinition
  3

  2
SIDE
 70
     0
  0
ENDBLK
  5
DF368DA4B229D06D
100
AcDbEntity
  8
DETAIL_MEDIUM
  6
CONTINUOUS
100
AcDbBlockEnd
  0
BLOCK
  5
DF368DA4B229D071
100
AcDbEntity
  8
DETAIL_MEDIUM
  6
CONTINUOUS
100
AcDbBlockBegin
  2
TITAN_PLL_SCAN_DONE_PORT
 70
     2
 10
0.0
 20
0.0
 30
0.0
  1

  0
POLYLINE
  5
DF34B347361F988E
100
AcDbEntity
  8
PORTS
  6
CONTINUOUS
100
AcDb2dPolyline
 66
     1
 10
0.0
 20
0.0
 30
0.0
 70
     1
  0
VERTEX
  5
DF34B347361F988F
100
AcDbEntity
  8
PORTS
  6
CONTINUOUS
100
AcDbVertex
100
AcDb2dVertex
 10
300.0
 20
-810.0
 30
0.0
  0
VERTEX
  5
DF34B347361F9890
100
AcDbEntity
  8
PORTS
  6
CONTINUOUS
100
AcDbVertex
100
AcDb2dVertex
 10
294.0
 20
-802.0
 30
0.0
  0
VERTEX
  5
DF34B347361F9891
100
AcDbEntity
  8
PORTS
  6
CONTINUOUS
100
AcDbVertex
100
AcDb2dVertex
 10
294.0
 20
-730.0
 30
0.0
  0
VERTEX
  5
DF34B347361F9892
100
AcDbEntity
  8
PORTS
  6
CONTINUOUS
100
AcDbVertex
100
AcDb2dVertex
 10
306.0
 20
-730.0
 30
0.0
  0
VERTEX
  5
DF34B347361F9893
100
AcDbEntity
  8
PORTS
  6
CONTINUOUS
100
AcDbVertex
100
AcDb2dVertex
 10
306.0
 20
-802.0
 30
0.0
  0
VERTEX
  5
DF34B347361F9894
100
AcDbEntity
  8
PORTS
  6
CONTINUOUS
100
AcDbVertex
100
AcDb2dVertex
 10
300.0
 20
-810.0
 30
0.0
  0
SEQEND
  5
DF34B347361F9895
100
AcDbEntity
  8
PORTS
  6
CONTINUOUS
  0
POINT
  5
DF34B347361F9896
100
AcDbEntity
  8
PORTS
  6
CONTINUOUS
100
AcDbPoint
 10
300.0
 20
-730.0
 30
0.0
  0
LINE
  5
DF34B347361F9897
100
AcDbEntity
  8
DETAIL_MEDIUM
  6
CONTINUOUS
100
AcDbLine
 10
300.0
 20
-630.0
 30
0.0
 11
300.0
 21
-730.0
 31
0.0
  0
ATTDEF
  5
DF34B347361F988D
100
AcDbEntity
  8
PORTS
  6
CONTINUOUS
100
AcDbText
 10
292.0
 20
-838.0
 30
0.0
 40
10.0
  1

  7
SIMPLEX
100
AcDbAttributeDefinition
  3

  2
SIDE
 70
     0
  0
ENDBLK
  5
DF368DA4B229D073
100
AcDbEntity
  8
DETAIL_MEDIUM
  6
CONTINUOUS
100
AcDbBlockEnd
  0
BLOCK
  5
DF368DA4B229D077
100
AcDbEntity
  8
DETAIL_MEDIUM
  6
CONTINUOUS
100
AcDbBlockBegin
  2
TITAN_PLL_ACTIVE_CLOCK_PORT
 70
     2
 10
0.0
 20
0.0
 30
0.0
  1

  0
POLYLINE
  5
DF346437A173B5FE
100
AcDbEntity
  8
PORTS
  6
CONTINUOUS
100
AcDb2dPolyline
 66
     1
 10
0.0
 20
0.0
 30
0.0
 70
     1
  0
VERTEX
  5
DF346437A173B5FF
100
AcDbEntity
  8
PORTS
  6
CONTINUOUS
100
AcDbVertex
100
AcDb2dVertex
 10
340.0
 20
-810.0
 30
0.0
  0
VERTEX
  5
DF346437A173B600
100
AcDbEntity
  8
PORTS
  6
CONTINUOUS
100
AcDbVertex
100
AcDb2dVertex
 10
334.0
 20
-802.0
 30
0.0
  0
VERTEX
  5
DF346437A173B601
100
AcDbEntity
  8
PORTS
  6
CONTINUOUS
100
AcDbVertex
100
AcDb2dVertex
 10
334.0
 20
-730.0
 30
0.0
  0
VERTEX
  5
DF346437A173B602
100
AcDbEntity
  8
PORTS
  6
CONTINUOUS
100
AcDbVertex
100
AcDb2dVertex
 10
346.0
 20
-730.0
 30
0.0
  0
VERTEX
  5
DF346437A173B603
100
AcDbEntity
  8
PORTS
  6
CONTINUOUS
100
AcDbVertex
100
AcDb2dVertex
 10
346.0
 20
-802.0
 30
0.0
  0
VERTEX
  5
DF346437A173B604
100
AcDbEntity
  8
PORTS
  6
CONTINUOUS
100
AcDbVertex
100
AcDb2dVertex
 10
340.0
 20
-810.0
 30
0.0
  0
SEQEND
  5
DF346437A173B605
100
AcDbEntity
  8
PORTS
  6
CONTINUOUS
  0
LINE
  5
DF346437A173B5FC
100
AcDbEntity
  8
DETAIL_MEDIUM
  6
CONTINUOUS
100
AcDbLine
 10
340.0
 20
-630.0
 30
0.0
 11
340.0
 21
-730.0
 31
0.0
  0
POINT
  5
DF346437A173B5FD
100
AcDbEntity
  8
PORTS
  6
CONTINUOUS
100
AcDbPoint
 10
340.0
 20
-730.0
 30
0.0
  0
ATTDEF
  5
DF346437A173B606
100
AcDbEntity
  8
PORTS
  6
CONTINUOUS
100
AcDbText
 10
332.0
 20
-838.0
 30
0.0
 40
10.0
  1

  7
SIMPLEX
100
AcDbAttributeDefinition
  3

  2
SIDE
 70
     0
  0
ENDBLK
  5
DF368DA4B229D079
100
AcDbEntity
  8
DETAIL_MEDIUM
  6
CONTINUOUS
100
AcDbBlockEnd
  0
BLOCK
  5
DF368DA4B229D07D
100
AcDbEntity
  8
DETAIL_MEDIUM
  6
CONTINUOUS
100
AcDbBlockBegin
  2
TITAN_PLL_LOCKED_PORT
 70
     2
 10
0.0
 20
0.0
 30
0.0
  1

  0
POLYLINE
  5
DF3428EBF1F1582F
100
AcDbEntity
  8
PORTS
  6
CONTINUOUS
100
AcDb2dPolyline
 66
     1
 10
0.0
 20
0.0
 30
0.0
 70
     1
  0
VERTEX
  5
DF3428EBF1F15830
100
AcDbEntity
  8
PORTS
  6
CONTINUOUS
100
AcDbVertex
100
AcDb2dVertex
 10
390.0
 20
-810.0
 30
0.0
  0
VERTEX
  5
DF3428EBF1F15831
100
AcDbEntity
  8
PORTS
  6
CONTINUOUS
100
AcDbVertex
100
AcDb2dVertex
 10
384.0
 20
-802.0
 30
0.0
  0
VERTEX
  5
DF3428EBF1F15832
100
AcDbEntity
  8
PORTS
  6
CONTINUOUS
100
AcDbVertex
100
AcDb2dVertex
 10
384.0
 20
-730.0
 30
0.0
  0
VERTEX
  5
DF3428EBF1F15833
100
AcDbEntity
  8
PORTS
  6
CONTINUOUS
100
AcDbVertex
100
AcDb2dVertex
 10
396.0
 20
-730.0
 30
0.0
  0
VERTEX
  5
DF3428EBF1F15834
100
AcDbEntity
  8
PORTS
  6
CONTINUOUS
100
AcDbVertex
100
AcDb2dVertex
 10
396.0
 20
-802.0
 30
0.0
  0
VERTEX
  5
DF3428EBF1F15835
100
AcDbEntity
  8
PORTS
  6
CONTINUOUS
100
AcDbVertex
100
AcDb2dVertex
 10
390.0
 20
-810.0
 30
0.0
  0
SEQEND
  5
DF3428EBF1F15836
100
AcDbEntity
  8
PORTS
  6
CONTINUOUS
  0
POINT
  5
DF3428EBF1F1582E
100
AcDbEntity
  8
PORTS
  6
CONTINUOUS
100
AcDbPoint
 10
390.0
 20
-730.0
 30
0.0
  0
LINE
  5
DF3428EBF1F1582D
100
AcDbEntity
  8
DETAIL_MEDIUM
  6
CONTINUOUS
100
AcDbLine
 10
390.0
 20
-630.0
 30
0.0
 11
390.0
 21
-730.0
 31
0.0
  0
ATTDEF
  5
DF3428EBF1F15837
100
AcDbEntity
  8
PORTS
  6
CONTINUOUS
100
AcDbText
 10
382.0
 20
-838.0
 30
0.0
 40
10.0
  1

  7
SIMPLEX
100
AcDbAttributeDefinition
  3

  2
SIDE
 70
     0
  0
ENDBLK
  5
DF368DA4B229D07F
100
AcDbEntity
  8
DETAIL_MEDIUM
  6
CONTINUOUS
100
AcDbBlockEnd
  0
BLOCK
  5
DF368DA4B229D083
100
AcDbEntity
  8
DETAIL_MEDIUM
  6
CONTINUOUS
100
AcDbBlockBegin
  2
TITAN_PLL_VCO_OVER_RANGE_PORT
 70
     2
 10
0.0
 20
0.0
 30
0.0
  1

  0
LINE
  5
DF341F09FF5C95DD
100
AcDbEntity
  8
DETAIL_MEDIUM
  6
CONTINUOUS
100
AcDbLine
 10
430.0
 20
-630.0
 30
0.0
 11
430.0
 21
-730.0
 31
0.0
  0
POINT
  5
DF341F09FF5C95DE
100
AcDbEntity
  8
PORTS
  6
CONTINUOUS
100
AcDbPoint
 10
430.0
 20
-730.0
 30
0.0
  0
POLYLINE
  5
DF341F09FF5C95DF
100
AcDbEntity
  8
PORTS
  6
CONTINUOUS
100
AcDb2dPolyline
 66
     1
 10
0.0
 20
0.0
 30
0.0
 70
     1
  0
VERTEX
  5
DF341F09FF5C95E0
100
AcDbEntity
  8
PORTS
  6
CONTINUOUS
100
AcDbVertex
100
AcDb2dVertex
 10
430.0
 20
-810.0
 30
0.0
  0
VERTEX
  5
DF341F09FF5C95E1
100
AcDbEntity
  8
PORTS
  6
CONTINUOUS
100
AcDbVertex
100
AcDb2dVertex
 10
424.0
 20
-802.0
 30
0.0
  0
VERTEX
  5
DF341F09FF5C95E2
100
AcDbEntity
  8
PORTS
  6
CONTINUOUS
100
AcDbVertex
100
AcDb2dVertex
 10
424.0
 20
-730.0
 30
0.0
  0
VERTEX
  5
DF341F09FF5C95E3
100
AcDbEntity
  8
PORTS
  6
CONTINUOUS
100
AcDbVertex
100
AcDb2dVertex
 10
436.0
 20
-730.0
 30
0.0
  0
VERTEX
  5
DF341F09FF5C95E4
100
AcDbEntity
  8
PORTS
  6
CONTINUOUS
100
AcDbVertex
100
AcDb2dVertex
 10
436.0
 20
-802.0
 30
0.0
  0
VERTEX
  5
DF341F09FF5C95E5
100
AcDbEntity
  8
PORTS
  6
CONTINUOUS
100
AcDbVertex
100
AcDb2dVertex
 10
430.0
 20
-810.0
 30
0.0
  0
SEQEND
  5
DF341F09FF5C95E6
100
AcDbEntity
  8
PORTS
  6
CONTINUOUS
  0
ATTDEF
  5
DF341F09FF5C95E7
100
AcDbEntity
  8
PORTS
  6
CONTINUOUS
100
AcDbText
 10
422.0
 20
-838.0
 30
0.0
 40
10.0
  1

  7
SIMPLEX
100
AcDbAttributeDefinition
  3

  2
SIDE
 70
     0
  0
ENDBLK
  5
DF368DA4B229D085
100
AcDbEntity
  8
DETAIL_MEDIUM
  6
CONTINUOUS
100
AcDbBlockEnd
  0
BLOCK
  5
DF368DA4B229D089
100
AcDbEntity
  8
DETAIL_MEDIUM
  6
CONTINUOUS
100
AcDbBlockBegin
  2
TITAN_PLL_VCO_UNDER_RANGE_PORT
 70
     2
 10
0.0
 20
0.0
 30
0.0
  1

  0
LINE
  5
DF341A19061234CA
100
AcDbEntity
  8
DETAIL_MEDIUM
  6
CONTINUOUS
100
AcDbLine
 10
470.0
 20
-630.0
 30
0.0
 11
470.0
 21
-730.0
 31
0.0
  0
POINT
  5
DF341A19061234C8
100
AcDbEntity
  8
PORTS
  6
CONTINUOUS
100
AcDbPoint
 10
470.0
 20
-730.0
 30
0.0
  0
POLYLINE
  5
DF341A19061234C0
100
AcDbEntity
  8
PORTS
  6
CONTINUOUS
100
AcDb2dPolyline
 66
     1
 10
0.0
 20
0.0
 30
0.0
 70
     1
  0
VERTEX
  5
DF341A19061234C1
100
AcDbEntity
  8
PORTS
  6
CONTINUOUS
100
AcDbVertex
100
AcDb2dVertex
 10
470.0
 20
-810.0
 30
0.0
  0
VERTEX
  5
DF341A19061234C2
100
AcDbEntity
  8
PORTS
  6
CONTINUOUS
100
AcDbVertex
100
AcDb2dVertex
 10
464.0
 20
-802.0
 30
0.0
  0
VERTEX
  5
DF341A19061234C3
100
AcDbEntity
  8
PORTS
  6
CONTINUOUS
100
AcDbVertex
100
AcDb2dVertex
 10
464.0
 20
-730.0
 30
0.0
  0
VERTEX
  5
DF341A19061234C4
100
AcDbEntity
  8
PORTS
  6
CONTINUOUS
100
AcDbVertex
100
AcDb2dVertex
 10
476.0
 20
-730.0
 30
0.0
  0
VERTEX
  5
DF341A19061234C5
100
AcDbEntity
  8
PORTS
  6
CONTINUOUS
100
AcDbVertex
100
AcDb2dVertex
 10
476.0
 20
-802.0
 30
0.0
  0
VERTEX
  5
DF341A19061234C6
100
AcDbEntity
  8
PORTS
  6
CONTINUOUS
100
AcDbVertex
100
AcDb2dVertex
 10
470.0
 20
-810.0
 30
0.0
  0
SEQEND
  5
DF341A19061234C7
100
AcDbEntity
  8
PORTS
  6
CONTINUOUS
  0
ATTDEF
  5
DF341A19061234C9
100
AcDbEntity
  8
PORTS
  6
CONTINUOUS
100
AcDbText
 10
462.0
 20
-838.0
 30
0.0
 40
10.0
  1

  7
SIMPLEX
100
AcDbAttributeDefinition
  3

  2
SIDE
 70
     0
  0
ENDBLK
  5
DF368DA4B229D08B
100
AcDbEntity
  8
DETAIL_MEDIUM
  6
CONTINUOUS
100
AcDbBlockEnd
  0
BLOCK
  5
DF368DA4B229D08F
100
AcDbEntity
  8
DETAIL_MEDIUM
  6
CONTINUOUS
100
AcDbBlockBegin
  2
TITAN_PLL_FBOUT_PORT
 70
     2
 10
0.0
 20
0.0
 30
0.0
  1

  0
POLYLINE
  5
DF3417A0896B9066
100
AcDbEntity
  8
PORTS
  6
CONTINUOUS
100
AcDb2dPolyline
 66
     1
 10
0.0
 20
0.0
 30
0.0
 70
     1
  0
VERTEX
  5
DF3417A0896B9067
100
AcDbEntity
  8
PORTS
  6
CONTINUOUS
100
AcDbVertex
100
AcDb2dVertex
 10
510.0
 20
-810.0
 30
0.0
  0
VERTEX
  5
DF3417A0896B9068
100
AcDbEntity
  8
PORTS
  6
CONTINUOUS
100
AcDbVertex
100
AcDb2dVertex
 10
504.0
 20
-802.0
 30
0.0
  0
VERTEX
  5
DF3417A0896B9069
100
AcDbEntity
  8
PORTS
  6
CONTINUOUS
100
AcDbVertex
100
AcDb2dVertex
 10
504.0
 20
-730.0
 30
0.0
  0
VERTEX
  5
DF3417A0896B906A
100
AcDbEntity
  8
PORTS
  6
CONTINUOUS
100
AcDbVertex
100
AcDb2dVertex
 10
516.0
 20
-730.0
 30
0.0
  0
VERTEX
  5
DF3417A0896B906B
100
AcDbEntity
  8
PORTS
  6
CONTINUOUS
100
AcDbVertex
100
AcDb2dVertex
 10
516.0
 20
-802.0
 30
0.0
  0
VERTEX
  5
DF3417A0896B906C
100
AcDbEntity
  8
PORTS
  6
CONTINUOUS
100
AcDbVertex
100
AcDb2dVertex
 10
510.0
 20
-810.0
 30
0.0
  0
SEQEND
  5
DF3417A0896B906D
100
AcDbEntity
  8
PORTS
  6
CONTINUOUS
  0
POINT
  5
DF3417A0896B906E
100
AcDbEntity
  8
PORTS
  6
CONTINUOUS
100
AcDbPoint
 10
510.0
 20
-730.0
 30
0.0
  0
LINE
  5
DF3417A0896B9070
100
AcDbEntity
  8
DETAIL_MEDIUM
  6
CONTINUOUS
100
AcDbLine
 10
510.0
 20
-630.0
 30
0.0
 11
510.0
 21
-730.0
 31
0.0
  0
ATTDEF
  5
DF3417A0896B906F
100
AcDbEntity
  8
PORTS
  6
CONTINUOUS
100
AcDbText
 10
502.0
 20
-838.0
 30
0.0
 40
10.0
  1

  7
SIMPLEX
100
AcDbAttributeDefinition
  3

  2
SIDE
 70
     0
  0
ENDBLK
  5
DF368DA4B229D091
100
AcDbEntity
  8
DETAIL_MEDIUM
  6
CONTINUOUS
100
AcDbBlockEnd
  0
BLOCK
  5
DF368DA4B229D121
100
AcDbEntity
  8
DETAIL_MEDIUM
  6
CONTINUOUS
100
AcDbBlockBegin
  2
TITAN_PLL
 70
     0
 10
0.0
 20
0.0
 30
0.0
  1

  0
POLYLINE
  5
DF368DA4B229D09D
100
AcDbEntity
  8
DETAIL_MEDIUM
  6
CONTINUOUS
100
AcDb2dPolyline
 66
     1
 10
0.0
 20
0.0
 30
0.0
 70
     1
  0
VERTEX
  5
DF368DA4B229D09E
100
AcDbEntity
  8
DETAIL_MEDIUM
  6
CONTINUOUS
100
AcDbVertex
100
AcDb2dVertex
 10
540.0
 20
-630.0
 30
0.0
  0
VERTEX
  5
DF368DA4B229D09F
100
AcDbEntity
  8
DETAIL_MEDIUM
  6
CONTINUOUS
100
AcDbVertex
100
AcDb2dVertex
 10
190.0
 20
-630.0
 30
0.0
  0
VERTEX
  5
DF368DA4B229D0A0
100
AcDbEntity
  8
DETAIL_MEDIUM
  6
CONTINUOUS
100
AcDbVertex
100
AcDb2dVertex
 10
190.0
 20
-190.0
 30
0.0
  0
VERTEX
  5
DF368DA4B229D0A1
100
AcDbEntity
  8
DETAIL_MEDIUM
  6
CONTINUOUS
100
AcDbVertex
100
AcDb2dVertex
 10
540.0
 20
-190.0
 30
0.0
  0
SEQEND
  5
DF368DA4B229D0A2
100
AcDbEntity
  8
DETAIL_MEDIUM
  6
CONTINUOUS
  0
INSERT
  5
DF368DA4B229D0A3
100
AcDbEntity
  8
DETAIL_MEDIUM
  6
CONTINUOUS
100
AcDbBlockReference
 66
     1
  2
TITAN_PLL_ARESET_PORT
 10
0.0
 20
0.0
 30
0.0
  0
ATTRIB
  5
DF368DA4B229D0A4
100
AcDbEntity
  8
PORTS
  6
CONTINUOUS
100
AcDbText
 10
212.0
 20
2.0
 30
0.0
 40
10.0
  1
TOP
  7
SIMPLEX
100
AcDbAttribute
  2
SIDE
 70
     0
  0
SEQEND
  5
DF368DA4B229D0A5
100
AcDbEntity
  8
DETAIL_MEDIUM
  6
CONTINUOUS
  0
INSERT
  5
DF368DA4B229D0A6
100
AcDbEntity
  8
DETAIL_MEDIUM
  6
CONTINUOUS
100
AcDbBlockReference
 66
     1
  2
TITAN_PLL_PFD_ENA_PORT
 10
0.0
 20
0.0
 30
0.0
  0
ATTRIB
  5
DF368DA4B229D0A7
100
AcDbEntity
  8
PORTS
  6
CONTINUOUS
100
AcDbText
 10
242.0
 20
2.0
 30
0.0
 40
10.0
  1
TOP
  7
SIMPLEX
100
AcDbAttribute
  2
SIDE
 70
     0
  0
SEQEND
  5
DF368DA4B229D0A8
100
AcDbEntity
  8
DETAIL_MEDIUM
  6
CONTINUOUS
  0
INSERT
  5
DF368DA4B229D0A9
100
AcDbEntity
  8
DETAIL_MEDIUM
  6
CONTINUOUS
100
AcDbBlockReference
 66
     1
  2
TITAN_PLL_FBIN_PORT
 10
0.0
 20
0.0
 30
0.0
  0
ATTRIB
  5
DF368DA4B229D0AA
100
AcDbEntity
  8
PORTS
  6
CONTINUOUS
100
AcDbText
 10
272.0
 20
2.0
 30
0.0
 40
10.0
  1
TOP
  7
SIMPLEX
100
AcDbAttribute
  2
SIDE
 70
     0
  0
SEQEND
  5
DF368DA4B229D0AB
100
AcDbEntity
  8
DETAIL_MEDIUM
  6
CONTINUOUS
  0
INSERT
  5
DF368DA4B229D0AC
100
AcDbEntity
  8
DETAIL_MEDIUM
  6
CONTINUOUS
100
AcDbBlockReference
 66
     1
  2
TITAN_PLL_PHASE_UP_DOWN_PORT
 10
0.0
 20
0.0
 30
0.0
  0
ATTRIB
  5
DF368DA4B229D0AD
100
AcDbEntity
  8
PORTS
  6
CONTINUOUS
100
AcDbText
 10
302.0
 20
2.0
 30
0.0
 40
10.0
  1
TOP
  7
SIMPLEX
100
AcDbAttribute
  2
SIDE
 70
     0
  0
SEQEND
  5
DF368DA4B229D0AE
100
AcDbEntity
  8
DETAIL_MEDIUM
  6
CONTINUOUS
  0
INSERT
  5
DF368DA4B229D0AF
100
AcDbEntity
  8
DETAIL_MEDIUM
  6
CONTINUOUS
100
AcDbBlockReference
 66
     1
  2
TITAN_PLL_PHASE_STEP_PORT
 10
0.0
 20
0.0
 30
0.0
  0
ATTRIB
  5
DF368DA4B229D0B0
100
AcDbEntity
  8
PORTS
  6
CONTINUOUS
100
AcDbText
 10
332.0
 20
2.0
 30
0.0
 40
10.0
  1
TOP
  7
SIMPLEX
100
AcDbAttribute
  2
SIDE
 70
     0
  0
SEQEND
  5
DF368DA4B229D0B1
100
AcDbEntity
  8
DETAIL_MEDIUM
  6
CONTINUOUS
  0
INSERT
  5
DF368DA4B229D0B2
100
AcDbEntity
  8
DETAIL_MEDIUM
  6
CONTINUOUS
100
AcDbBlockReference
 66
     1
  2
TITAN_PLL_SCAN_DATA_PORT
 10
0.0
 20
0.0
 30
0.0
  0
ATTRIB
  5
DF368DA4B229D0B3
100
AcDbEntity
  8
PORTS
  6
CONTINUOUS
100
AcDbText
 10
382.0
 20
2.0
 30
0.0
 40
10.0
  1
TOP
  7
SIMPLEX
100
AcDbAttribute
  2
SIDE
 70
     0
  0
SEQEND
  5
DF368DA4B229D0B4
100
AcDbEntity
  8
DETAIL_MEDIUM
  6
CONTINUOUS
  0
INSERT
  5
DF368DA4B229D0B5
100
AcDbEntity
  8
DETAIL_MEDIUM
  6
CONTINUOUS
100
AcDbBlockReference
 66
     1
  2
TITAN_PLL_SCAN_CLOCK_PORT
 10
0.0
 20
0.0
 30
0.0
  0
ATTRIB
  5
DF368DA4B229D0B6
100
AcDbEntity
  8
PORTS
  6
CONTINUOUS
100
AcDbText
 10
412.0
 20
2.0
 30
0.0
 40
10.0
  1
TOP
  7
SIMPLEX
100
AcDbAttribute
  2
SIDE
 70
     0
  0
SEQEND
  5
DF368DA4B229D0B7
100
AcDbEntity
  8
DETAIL_MEDIUM
  6
CONTINUOUS
  0
INSERT
  5
DF368DA4B229D0B8
100
AcDbEntity
  8
DETAIL_MEDIUM
  6
CONTINUOUS
100
AcDbBlockReference
 66
     1
  2
TITAN_PLL_SCAN_CLOCK_ENA_PORT
 10
0.0
 20
0.0
 30
0.0
  0
ATTRIB
  5
DF368DA4B229D0B9
100
AcDbEntity
  8
PORTS
  6
CONTINUOUS
100
AcDbText
 10
442.0
 20
2.0
 30
0.0
 40
10.0
  1
TOP
  7
SIMPLEX
100
AcDbAttribute
  2
SIDE
 70
     0
  0
SEQEND
  5
DF368DA4B229D0BA
100
AcDbEntity
  8
DETAIL_MEDIUM
  6
CONTINUOUS
  0
INSERT
  5
DF368DA4B229D0BB
100
AcDbEntity
  8
DETAIL_MEDIUM
  6
CONTINUOUS
100
AcDbBlockReference
 66
     1
  2
TITAN_PLL_CONFIG_UPDATE_PORT
 10
0.0
 20
0.0
 30
0.0
  0
ATTRIB
  5
DF368DA4B229D0BC
100
AcDbEntity
  8
PORTS
  6
CONTINUOUS
100
AcDbText
 10
472.0
 20
2.0
 30
0.0
 40
10.0
  1
TOP
  7
SIMPLEX
100
AcDbAttribute
  2
SIDE
 70
     0
  0
SEQEND
  5
DF368DA4B229D0BD
100
AcDbEntity
  8
DETAIL_MEDIUM
  6
CONTINUOUS
  0
INSERT
  5
DF368DA4B229D0BE
100
AcDbEntity
  8
DETAIL_MEDIUM
  6
CONTINUOUS
100
AcDbBlockReference
 66
     1
  2
TITAN_PLL_CLOCK_SWITCH_PORT
 10
0.0
 20
0.0
 30
0.0
  0
ATTRIB
  5
DF368DA4B229D0BF
100
AcDbEntity
  8
PORTS
  6
CONTINUOUS
100
AcDbText
 10
502.0
 20
2.0
 30
0.0
 40
10.0
  1
TOP
  7
SIMPLEX
100
AcDbAttribute
  2
SIDE
 70
     0
  0
SEQEND
  5
DF368DA4B229D0C0
100
AcDbEntity
  8
DETAIL_MEDIUM
  6
CONTINUOUS
  0
INSERT
  5
DF368DA4B229D0C1
100
AcDbEntity
  8
DETAIL_MEDIUM
  6
CONTINUOUS
100
AcDbBlockReference
 66
     1
  2
TITAN_PLL_CLKIN_PORT
 10
0.0
 20
0.0
 30
0.0
  0
ATTRIB
  5
DF368DA4B229D0C2
100
AcDbEntity
  8
PORTS
  6
CONTINUOUS
100
AcDbText
 10
12.0
 20
-288.0
 30
0.0
 40
10.0
  1
LEFT
  7
SIMPLEX
100
AcDbAttribute
  2
SIDE
 70
     0
  0
ATTRIB
  5
DF368DA4B229D0C3
100
AcDbEntity
  8
PORTS
  6
CONTINUOUS
100
AcDbText
 10
62.0
 20
-288.0
 30
0.0
 40
10.0
  1
0
 50
0.000019
  7
SIMPLEX
100
AcDbAttribute
  2
INDEX
 70
     0
  0
SEQEND
  5
DF368DA4B229D0C4
100
AcDbEntity
  8
DETAIL_MEDIUM
  6
CONTINUOUS
  0
INSERT
  5
DF368DA4B229D0C5
100
AcDbEntity
  8
DETAIL_MEDIUM
  6
CONTINUOUS
100
AcDbBlockReference
 66
     1
  2
TITAN_PLL_CLKIN_PORT
 10
0.0
 20
-30.0
 30
0.0
  0
ATTRIB
  5
DF368DA4B229D0C6
100
AcDbEntity
  8
PORTS
  6
CONTINUOUS
100
AcDbText
 10
12.0
 20
-318.0
 30
0.0
 40
10.0
  1
LEFT
  7
SIMPLEX
100
AcDbAttribute
  2
SIDE
 70
     0
  0
ATTRIB
  5
DF368DA4B229D0C7
100
AcDbEntity
  8
PORTS
  6
CONTINUOUS
100
AcDbText
 10
62.0
 20
-318.0
 30
0.0
 40
10.0
  1
1
 50
0.000019
  7
SIMPLEX
100
AcDbAttribute
  2
INDEX
 70
     0
  0
SEQEND
  5
DF368DA4B229D0C8
100
AcDbEntity
  8
DETAIL_MEDIUM
  6
CONTINUOUS
  0
INSERT
  5
DF368DA4B229D0C9
100
AcDbEntity
  8
DETAIL_MEDIUM
  6
CONTINUOUS
100
AcDbBlockReference
 66
     1
  2
TITAN_PLL_PHASE_COUNT_SEL_PORT
 10
0.0
 20
0.0
 30
0.0
  0
ATTRIB
  5
DF368DA4B229D0CA
100
AcDbEntity
  8
PORTS
  6
CONTINUOUS
100
AcDbText
 10
12.0
 20
-368.0
 30
0.0
 40
10.0
  1
LEFT
  7
SIMPLEX
100
AcDbAttribute
  2
SIDE
 70
     0
  0
ATTRIB
  5
DF368DA4B229D0CB
100
AcDbEntity
  8
PORTS
  6
CONTINUOUS
100
AcDbText
 10
62.0
 20
-368.0
 30
0.0
 40
10.0
  1
0
 50
0.000019
  7
SIMPLEX
100
AcDbAttribute
  2
INDEX
 70
     0
  0
SEQEND
  5
DF368DA4B229D0CC
100
AcDbEntity
  8
DETAIL_MEDIUM
  6
CONTINUOUS
  0
INSERT
  5
DF368DA4B229D0CD
100
AcDbEntity
  8
DETAIL_MEDIUM
  6
CONTINUOUS
100
AcDbBlockReference
 66
     1
  2
TITAN_PLL_PHASE_COUNT_SEL_PORT
 10
0.0
 20
-30.0
 30
0.0
  0
ATTRIB
  5
DF368DA4B229D0CE
100
AcDbEntity
  8
PORTS
  6
CONTINUOUS
100
AcDbText
 10
12.0
 20
-398.0
 30
0.0
 40
10.0
  1
LEFT
  7
SIMPLEX
100
AcDbAttribute
  2
SIDE
 70
     0
  0
ATTRIB
  5
DF368DA4B229D0CF
100
AcDbEntity
  8
PORTS
  6
CONTINUOUS
100
AcDbText
 10
62.0
 20
-398.0
 30
0.0
 40
10.0
  1
1
 50
0.000019
  7
SIMPLEX
100
AcDbAttribute
  2
INDEX
 70
     0
  0
SEQEND
  5
DF368DA4B229D0D0
100
AcDbEntity
  8
DETAIL_MEDIUM
  6
CONTINUOUS
  0
INSERT
  5
DF368DA4B229D0D1
100
AcDbEntity
  8
DETAIL_MEDIUM
  6
CONTINUOUS
100
AcDbBlockReference
 66
     1
  2
TITAN_PLL_PHASE_COUNT_SEL_PORT
 10
0.0
 20
-60.0
 30
0.0
  0
ATTRIB
  5
DF368DA4B229D0D2
100
AcDbEntity
  8
PORTS
  6
CONTINUOUS
100
AcDbText
 10
12.0
 20
-428.0
 30
0.0
 40
10.0
  1
LEFT
  7
SIMPLEX
100
AcDbAttribute
  2
SIDE
 70
     0
  0
ATTRIB
  5
DF368DA4B229D0D3
100
AcDbEntity
  8
PORTS
  6
CONTINUOUS
100
AcDbText
 10
62.0
 20
-428.0
 30
0.0
 40
10.0
  1
2
 50
0.000019
  7
SIMPLEX
100
AcDbAttribute
  2
INDEX
 70
     0
  0
SEQEND
  5
DF368DA4B229D0D4
100
AcDbEntity
  8
DETAIL_MEDIUM
  6
CONTINUOUS
  0
INSERT
  5
DF368DA4B229D0D9
100
AcDbEntity
  8
DETAIL_MEDIUM
  6
CONTINUOUS
100
AcDbBlockReference
 66
     1
  2
TITAN_PLL_CLKBAD_PORT
 10
0.0
 20
0.0
 30
0.0
  0
ATTRIB
  5
DF368DA4B229D0DA
100
AcDbEntity
  8
PORTS
  6
CONTINUOUS
100
AcDbText
 10
692.0
 20
-208.0
 30
0.0
 40
10.0
  1
0
 50
0.000019
  7
SIMPLEX
100
AcDbAttribute
  2
INDEX
 70
     0
  0
ATTRIB
  5
DF368DA4B229D0DB
100
AcDbEntity
  8
PORTS
  6
CONTINUOUS
100
AcDbText
 10
642.0
 20
-208.0
 30
0.0
 40
10.0
  1
RIGHT
 50
0.000019
  7
SIMPLEX
100
AcDbAttribute
  2
SIDE
 70
     0
  0
SEQEND
  5
DF368DA4B229D0DC
100
AcDbEntity
  8
DETAIL_MEDIUM
  6
CONTINUOUS
  0
INSERT
  5
DF368DA4B229D0DD
100
AcDbEntity
  8
DETAIL_MEDIUM
  6
CONTINUOUS
100
AcDbBlockReference
 66
     1
  2
TITAN_PLL_CLKBAD_PORT
 10
0.0
 20
-30.0
 30
0.0
  0
ATTRIB
  5
DF368DA4B229D0DE
100
AcDbEntity
  8
PORTS
  6
CONTINUOUS
100
AcDbText
 10
692.0
 20
-238.0
 30
0.0
 40
10.0
  1
1
 50
0.000019
  7
SIMPLEX
100
AcDbAttribute
  2
INDEX
 70
     0
  0
ATTRIB
  5
DF368DA4B229D0DF
100
AcDbEntity
  8
PORTS
  6
CONTINUOUS
100
AcDbText
 10
642.0
 20
-238.0
 30
0.0
 40
10.0
  1
RIGHT
 50
0.000019
  7
SIMPLEX
100
AcDbAttribute
  2
SIDE
 70
     0
  0
SEQEND
  5
DF368DA4B229D0E0
100
AcDbEntity
  8
DETAIL_MEDIUM
  6
CONTINUOUS
  0
INSERT
  5
DF368DA4B229D0E1
100
AcDbEntity
  8
DETAIL_MEDIUM
  6
CONTINUOUS
100
AcDbBlockReference
 66
     1
  2
TITAN_PLL_CLKOUT_PORT
 10
0.0
 20
0.0
 30
0.0
  0
ATTRIB
  5
DF368DA4B229D0E2
100
AcDbEntity
  8
PORTS
  6
CONTINUOUS
100
AcDbText
 10
642.0
 20
-288.0
 30
0.0
 40
10.0
  1
RIGHT
 50
0.000019
  7
SIMPLEX
100
AcDbAttribute
  2
SIDE
 70
     0
  0
ATTRIB
  5
DF368DA4B229D0E3
100
AcDbEntity
  8
PORTS
  6
CONTINUOUS
100
AcDbText
 10
692.0
 20
-288.0
 30
0.0
 40
10.0
  1
0
 50
0.000019
  7
SIMPLEX
100
AcDbAttribute
  2
INDEX
 70
     0
  0
SEQEND
  5
DF368DA4B229D0E4
100
AcDbEntity
  8
DETAIL_MEDIUM
  6
CONTINUOUS
  0
INSERT
  5
DF368DA4B229D0E5
100
AcDbEntity
  8
DETAIL_MEDIUM
  6
CONTINUOUS
100
AcDbBlockReference
 66
     1
  2
TITAN_PLL_CLKOUT_PORT
 10
0.0
 20
-30.0
 30
0.0
  0
ATTRIB
  5
DF368DA4B229D0E6
100
AcDbEntity
  8
PORTS
  6
CONTINUOUS
100
AcDbText
 10
642.0
 20
-318.0
 30
0.0
 40
10.0
  1
RIGHT
 50
0.000019
  7
SIMPLEX
100
AcDbAttribute
  2
SIDE
 70
     0
  0
ATTRIB
  5
DF368DA4B229D0E7
100
AcDbEntity
  8
PORTS
  6
CONTINUOUS
100
AcDbText
 10
692.0
 20
-318.0
 30
0.0
 40
10.0
  1
1
 50
0.000019
  7
SIMPLEX
100
AcDbAttribute
  2
INDEX
 70
     0
  0
SEQEND
  5
DF368DA4B229D0E8
100
AcDbEntity
  8
DETAIL_MEDIUM
  6
CONTINUOUS
  0
INSERT
  5
DF368DA4B229D0E9
100
AcDbEntity
  8
DETAIL_MEDIUM
  6
CONTINUOUS
100
AcDbBlockReference
 66
     1
  2
TITAN_PLL_CLKOUT_PORT
 10
0.0
 20
-60.0
 30
0.0
  0
ATTRIB
  5
DF368DA4B229D0EA
100
AcDbEntity
  8
PORTS
  6
CONTINUOUS
100
AcDbText
 10
642.0
 20
-348.0
 30
0.0
 40
10.0
  1
RIGHT
 50
0.000019
  7
SIMPLEX
100
AcDbAttribute
  2
SIDE
 70
     0
  0
ATTRIB
  5
DF368DA4B229D0EB
100
AcDbEntity
  8
PORTS
  6
CONTINUOUS
100
AcDbText
 10
692.0
 20
-348.0
 30
0.0
 40
10.0
  1
2
 50
0.000019
  7
SIMPLEX
100
AcDbAttribute
  2
INDEX
 70
     0
  0
SEQEND
  5
DF368DA4B229D0EC
100
AcDbEntity
  8
DETAIL_MEDIUM
  6
CONTINUOUS
  0
INSERT
  5
DF368DA4B229D0ED
100
AcDbEntity
  8
DETAIL_MEDIUM
  6
CONTINUOUS
100
AcDbBlockReference
 66
     1
  2
TITAN_PLL_CLKOUT_PORT
 10
0.0
 20
-90.0
 30
0.0
  0
ATTRIB
  5
DF368DA4B229D0EE
100
AcDbEntity
  8
PORTS
  6
CONTINUOUS
100
AcDbText
 10
642.0
 20
-378.0
 30
0.0
 40
10.0
  1
RIGHT
 50
0.000019
  7
SIMPLEX
100
AcDbAttribute
  2
SIDE
 70
     0
  0
ATTRIB
  5
DF368DA4B229D0EF
100
AcDbEntity
  8
PORTS
  6
CONTINUOUS
100
AcDbText
 10
692.0
 20
-378.0
 30
0.0
 40
10.0
  1
3
 50
0.000019
  7
SIMPLEX
100
AcDbAttribute
  2
INDEX
 70
     0
  0
SEQEND
  5
DF368DA4B229D0F0
100
AcDbEntity
  8
DETAIL_MEDIUM
  6
CONTINUOUS
  0
INSERT
  5
DF368DA4B229D0F1
100
AcDbEntity
  8
DETAIL_MEDIUM
  6
CONTINUOUS
100
AcDbBlockReference
 66
     1
  2
TITAN_PLL_CLKOUT_PORT
 10
0.0
 20
-120.0
 30
0.0
  0
ATTRIB
  5
DF368DA4B229D0F2
100
AcDbEntity
  8
PORTS
  6
CONTINUOUS
100
AcDbText
 10
642.0
 20
-408.0
 30
0.0
 40
10.0
  1
RIGHT
 50
0.000019
  7
SIMPLEX
100
AcDbAttribute
  2
SIDE
 70
     0
  0
ATTRIB
  5
DF368DA4B229D0F3
100
AcDbEntity
  8
PORTS
  6
CONTINUOUS
100
AcDbText
 10
692.0
 20
-408.0
 30
0.0
 40
10.0
  1
4
 50
0.000019
  7
SIMPLEX
100
AcDbAttribute
  2
INDEX
 70
     0
  0
SEQEND
  5
DF368DA4B229D0F4
100
AcDbEntity
  8
DETAIL_MEDIUM
  6
CONTINUOUS
  0
INSERT
  5
DF368DA4B229D109
100
AcDbEntity
  8
DETAIL_MEDIUM
  6
CONTINUOUS
100
AcDbBlockReference
 66
     1
  2
TITAN_PLL_PHASE_DONE_PORT
 10
0.0
 20
0.0
 30
0.0
  0
ATTRIB
  5
DF368DA4B229D10A
100
AcDbEntity
  8
PORTS
  6
CONTINUOUS
100
AcDbText
 10
212.0
 20
-838.0
 30
0.0
 40
10.0
  1
BOTTOM
  7
SIMPLEX
100
AcDbAttribute
  2
SIDE
 70
     0
  0
SEQEND
  5
DF368DA4B229D10B
100
AcDbEntity
  8
DETAIL_MEDIUM
  6
CONTINUOUS
  0
INSERT
  5
DF368DA4B229D10C
100
AcDbEntity
  8
DETAIL_MEDIUM
  6
CONTINUOUS
100
AcDbBlockReference
 66
     1
  2
TITAN_PLL_SCAN_DATA_OUT_PORT
 10
0.0
 20
0.0
 30
0.0
  0
ATTRIB
  5
DF368DA4B229D10D
100
AcDbEntity
  8
PORTS
  6
CONTINUOUS
100
AcDbText
 10
252.0
 20
-838.0
 30
0.0
 40
10.0
  1
BOTTOM
  7
SIMPLEX
100
AcDbAttribute
  2
SIDE
 70
     0
  0
SEQEND
  5
DF368DA4B229D10E
100
AcDbEntity
  8
DETAIL_MEDIUM
  6
CONTINUOUS
  0
INSERT
  5
DF368DA4B229D10F
100
AcDbEntity
  8
DETAIL_MEDIUM
  6
CONTINUOUS
100
AcDbBlockReference
 66
     1
  2
TITAN_PLL_SCAN_DONE_PORT
 10
0.0
 20
0.0
 30
0.0
  0
ATTRIB
  5
DF368DA4B229D110
100
AcDbEntity
  8
PORTS
  6
CONTINUOUS
100
AcDbText
 10
292.0
 20
-838.0
 30
0.0
 40
10.0
  1
BOTTOM
  7
SIMPLEX
100
AcDbAttribute
  2
SIDE
 70
     0
  0
SEQEND
  5
DF368DA4B229D111
100
AcDbEntity
  8
DETAIL_MEDIUM
  6
CONTINUOUS
  0
INSERT
  5
DF368DA4B229D112
100
AcDbEntity
  8
DETAIL_MEDIUM
  6
CONTINUOUS
100
AcDbBlockReference
 66
     1
  2
TITAN_PLL_ACTIVE_CLOCK_PORT
 10
0.0
 20
0.0
 30
0.0
  0
ATTRIB
  5
DF368DA4B229D113
100
AcDbEntity
  8
PORTS
  6
CONTINUOUS
100
AcDbText
 10
332.0
 20
-838.0
 30
0.0
 40
10.0
  1
BOTTOM
  7
SIMPLEX
100
AcDbAttribute
  2
SIDE
 70
     0
  0
SEQEND
  5
DF368DA4B229D114
100
AcDbEntity
  8
DETAIL_MEDIUM
  6
CONTINUOUS
  0
INSERT
  5
DF368DA4B229D115
100
AcDbEntity
  8
DETAIL_MEDIUM
  6
CONTINUOUS
100
AcDbBlockReference
 66
     1
  2
TITAN_PLL_LOCKED_PORT
 10
0.0
 20
0.0
 30
0.0
  0
ATTRIB
  5
DF368DA4B229D116
100
AcDbEntity
  8
PORTS
  6
CONTINUOUS
100
AcDbText
 10
382.0
 20
-838.0
 30
0.0
 40
10.0
  1
BOTTOM
  7
SIMPLEX
100
AcDbAttribute
  2
SIDE
 70
     0
  0
SEQEND
  5
DF368DA4B229D117
100
AcDbEntity
  8
DETAIL_MEDIUM
  6
CONTINUOUS
  0
INSERT
  5
DF368DA4B229D118
100
AcDbEntity
  8
DETAIL_MEDIUM
  6
CONTINUOUS
100
AcDbBlockReference
 66
     1
  2
TITAN_PLL_VCO_OVER_RANGE_PORT
 10
0.0
 20
0.0
 30
0.0
  0
ATTRIB
  5
DF368DA4B229D119
100
AcDbEntity
  8
PORTS
  6
CONTINUOUS
100
AcDbText
 10
422.0
 20
-838.0
 30
0.0
 40
10.0
  1
BOTTOM
  7
SIMPLEX
100
AcDbAttribute
  2
SIDE
 70
     0
  0
SEQEND
  5
DF368DA4B229D11A
100
AcDbEntity
  8
DETAIL_MEDIUM
  6
CONTINUOUS
  0
INSERT
  5
DF368DA4B229D11B
100
AcDbEntity
  8
DETAIL_MEDIUM
  6
CONTINUOUS
100
AcDbBlockReference
 66
     1
  2
TITAN_PLL_VCO_UNDER_RANGE_PORT
 10
0.0
 20
0.0
 30
0.0
  0
ATTRIB
  5
DF368DA4B229D11C
100
AcDbEntity
  8
PORTS
  6
CONTINUOUS
100
AcDbText
 10
462.0
 20
-838.0
 30
0.0
 40
10.0
  1
BOTTOM
  7
SIMPLEX
100
AcDbAttribute
  2
SIDE
 70
     0
  0
SEQEND
  5
DF368DA4B229D11D
100
AcDbEntity
  8
DETAIL_MEDIUM
  6
CONTINUOUS
  0
INSERT
  5
DF368DA4B229D11E
100
AcDbEntity
  8
DETAIL_MEDIUM
  6
CONTINUOUS
100
AcDbBlockReference
 66
     1
  2
TITAN_PLL_FBOUT_PORT
 10
0.0
 20
0.0
 30
0.0
  0
ATTRIB
  5
DF368DA4B229D11F
100
AcDbEntity
  8
PORTS
  6
CONTINUOUS
100
AcDbText
 10
502.0
 20
-838.0
 30
0.0
 40
10.0
  1
BOTTOM
  7
SIMPLEX
100
AcDbAttribute
  2
SIDE
 70
     0
  0
SEQEND
  5
DF368DA4B229D120
100
AcDbEntity
  8
DETAIL_MEDIUM
  6
CONTINUOUS
  0
ENDBLK
  5
DF368DA4B229D122
100
AcDbEntity
  8
DETAIL_MEDIUM
  6
CONTINUOUS
100
AcDbBlockEnd
  0
ENDSEC
  0
SECTION
  2
ENTITIES
  0
TEXT
  5
1555386
100
AcDbEntity
  8
COMMENT
100
AcDbText
 10
27.0
 20
113.5
 30
0.0
 40
10.0
  1
Comments:
100
AcDbText
  0
TEXT
  5
DF2FB97E2E1C5501
100
AcDbEntity
  8
COMMENT
  6
CONTINUOUS
100
AcDbText
 10
26.0
 20
94.0
 30
0.0
 40
10.0
  1
All ports are on PORTS layer. They don't have FILLCLR since it is assigned in software.
  7
SIMPLEX
100
AcDbText
  0
TEXT
  5
DF2FB97E2E1C5502
100
AcDbEntity
  8
COMMENT
  6
CONTINUOUS
100
AcDbText
 10
26.0
 20
76.857143
 30
0.0
 40
10.0
  1
Text is drawn starting at the only point contained by the port block on PORTS layer. SIDE determines 
  7
SIMPLEX
100
AcDbText
  0
TEXT
  5
DF2FB97E2E1C5503
100
AcDbEntity
  8
COMMENT
  6
CONTINUOUS
100
AcDbText
 10
26.0
 20
59.714286
 30
0.0
 40
10.0
  1
the direction of the text. Port association is based on the name of the block.
  7
SIMPLEX
100
AcDbText
  0
LINE
  5
DF3414A04332ADC8
100
AcDbEntity
  8
COMMENT
  6
CONTINUOUS
100
AcDbLine
 10
-130.0
 20
0.0
 30
0.0
 11
1150.0
 21
0.0
 31
0.0
  0
LINE
  5
DF3414A04332ADCA
100
AcDbEntity
  8
COMMENT
  6
CONTINUOUS
100
AcDbLine
 10
0.0
 20
140.0
 30
0.0
 11
0.0
 21
-820.0
 31
0.0
  0
TEXT
  5
DF3414A0D7EA00A9
100
AcDbEntity
  8
COMMENT
  6
CONTINUOUS
100
AcDbText
 10
26.0
 20
39.714286
 30
0.0
 40
10.0
  1
Point 0,0 must be in top left corner of the drawing.
  7
SIMPLEX
100
AcDbText
  0
INSERT
  5
DF368DA4B229D123
100
AcDbEntity
  8
DETAIL_MEDIUM
  6
CONTINUOUS
100
AcDbBlockReference
  2
TITAN_PLL
 10
0.0
 20
0.0
 30
0.0
  0
ENDSEC
  0
SECTION
  2
OBJECTS
  0
DICTIONARY
  5
C
100
AcDbDictionary
  3
ACAD_GROUP
350
D
  3
ACAD_MLINESTYLE
350
1B
  0
DICTIONARY
  5
D
102
{ACAD_REACTORS
330
C
102
}
100
AcDbDictionary
  0
DICTIONARY
  5
1B
102
{ACAD_REACTORS
330
C
102
}
100
AcDbDictionary
  3
STANDARD
350
1C
  0
MLINESTYLE
  5
1C
102
{ACAD_REACTORS
330
1B
102
}
100
AcDbMlineStyle
  2
STANDARD
 70
     0
  3

 62
   256
 51
90.0
 52
90.0
 71
     2
 49
0.5
 62
   256
  6
BYLAYER
 49
-0.5
 62
   256
  6
BYLAYER
  0
ENDSEC
  0
EOF
