  0
SECTION
  2
HEADER
  9
$ACADVER
  1
AC1014
  9
$ACADMAINTVER
 70
     0
  9
$DWGCODEPAGE
  3
ANSI_1252
  9
$INSBASE
 10
0.0
 20
0.0
 30
0.0
  9
$EXTMIN
 10
5.195496
 20
-628.5
 30
0.0
  9
$EXTMAX
 10
1555.0
 20
-5.0
 30
2.0
  9
$LIMMIN
 10
0.0
 20
0.0
  9
$LIMMAX
 10
12.0
 20
9.0
  9
$ORTHOMODE
 70
     0
  9
$REGENMODE
 70
     1
  9
$FILLMODE
 70
     1
  9
$QTEXTMODE
 70
     0
  9
$MIRRTEXT
 70
     1
  9
$DRAGMODE
 70
     2
  9
$LTSCALE
 40
1.0
  9
$OSMODE
 70
     0
  9
$ATTMODE
 70
     1
  9
$TEXTSIZE
 40
0.2
  9
$TRACEWID
 40
0.05
  9
$TEXTSTYLE
  7
SIMPLEX
  9
$CLAYER
  8
SIMPLE
  9
$CELTYPE
  6
CONTINUOUS
  9
$CECOLOR
 62
   256
  9
$CELTSCALE
 40
1.0
  9
$DELOBJ
 70
     1
  9
$DISPSILH
 70
     0
  9
$DIMSCALE
 40
1.0
  9
$DIMASZ
 40
0.18
  9
$DIMEXO
 40
0.0625
  9
$DIMDLI
 40
0.38
  9
$DIMRND
 40
0.0
  9
$DIMDLE
 40
0.0
  9
$DIMEXE
 40
0.18
  9
$DIMTP
 40
0.0
  9
$DIMTM
 40
0.0
  9
$DIMTXT
 40
0.18
  9
$DIMCEN
 40
0.09
  9
$DIMTSZ
 40
0.0
  9
$DIMTOL
 70
     0
  9
$DIMLIM
 70
     0
  9
$DIMTIH
 70
     1
  9
$DIMTOH
 70
     1
  9
$DIMSE1
 70
     0
  9
$DIMSE2
 70
     0
  9
$DIMTAD
 70
     0
  9
$DIMZIN
 70
     0
  9
$DIMBLK
  1

  9
$DIMASO
 70
     1
  9
$DIMSHO
 70
     1
  9
$DIMPOST
  1

  9
$DIMAPOST
  1

  9
$DIMALT
 70
     0
  9
$DIMALTD
 70
     2
  9
$DIMALTF
 40
25.4
  9
$DIMLFAC
 40
1.0
  9
$DIMTOFL
 70
     0
  9
$DIMTVP
 40
0.0
  9
$DIMTIX
 70
     0
  9
$DIMSOXD
 70
     0
  9
$DIMSAH
 70
     0
  9
$DIMBLK1
  1

  9
$DIMBLK2
  1

  9
$DIMSTYLE
  2
STANDARD
  9
$DIMCLRD
 70
     0
  9
$DIMCLRE
 70
     0
  9
$DIMCLRT
 70
     0
  9
$DIMTFAC
 40
1.0
  9
$DIMGAP
 40
0.09
  9
$DIMJUST
 70
     0
  9
$DIMSD1
 70
     0
  9
$DIMSD2
 70
     0
  9
$DIMTOLJ
 70
     1
  9
$DIMTZIN
 70
     0
  9
$DIMALTZ
 70
     0
  9
$DIMALTTZ
 70
     0
  9
$DIMFIT
 70
     3
  9
$DIMUPT
 70
     0
  9
$DIMUNIT
 70
     2
  9
$DIMDEC
 70
     4
  9
$DIMTDEC
 70
     4
  9
$DIMALTU
 70
     2
  9
$DIMALTTD
 70
     2
  9
$DIMTXSTY
  7
STANDARD
  9
$DIMAUNIT
 70
     0
  9
$LUNITS
 70
     2
  9
$LUPREC
 70
     4
  9
$SKETCHINC
 40
0.1
  9
$FILLETRAD
 40
0.5
  9
$AUNITS
 70
     0
  9
$AUPREC
 70
     0
  9
$MENU
  1
.
  9
$ELEVATION
 40
0.0
  9
$PELEVATION
 40
0.0
  9
$THICKNESS
 40
0.0
  9
$LIMCHECK
 70
     0
  9
$BLIPMODE
 70
     0
  9
$CHAMFERA
 40
0.5
  9
$CHAMFERB
 40
0.5
  9
$CHAMFERC
 40
1.0
  9
$CHAMFERD
 40
0.0
  9
$SKPOLY
 70
     0
  9
$TDCREATE
 40
2454246.5493517709
  9
$TDUPDATE
 40
2454287.7211226737
  9
$TDINDWG
 40
0.097256944444
  9
$TDUSRTIMER
 40
0.097256944444
  9
$USRTIMER
 70
     1
  9
$ANGBASE
 50
0.0
  9
$ANGDIR
 70
     0
  9
$PDMODE
 70
    35
  9
$PDSIZE
 40
5.0
  9
$PLINEWID
 40
0.0
  9
$COORDS
 70
     1
  9
$SPLFRAME
 70
     0
  9
$SPLINETYPE
 70
     6
  9
$SPLINESEGS
 70
     8
  9
$ATTDIA
 70
     0
  9
$ATTREQ
 70
     1
  9
$HANDLING
 70
     1
  9
$HANDSEED
  5
FFFFFEF39A143E8D
  9
$SURFTAB1
 70
     6
  9
$SURFTAB2
 70
     6
  9
$SURFTYPE
 70
     6
  9
$SURFU
 70
     6
  9
$SURFV
 70
     6
  9
$UCSNAME
  2

  9
$UCSORG
 10
0.0
 20
0.0
 30
0.0
  9
$UCSXDIR
 10
1.0
 20
0.0
 30
0.0
  9
$UCSYDIR
 10
0.0
 20
1.0
 30
0.0
  9
$PUCSNAME
  2

  9
$PUCSORG
 10
0.0
 20
0.0
 30
0.0
  9
$PUCSXDIR
 10
1.0
 20
0.0
 30
0.0
  9
$PUCSYDIR
 10
0.0
 20
1.0
 30
0.0
  9
$USERI1
 70
     0
  9
$USERI2
 70
     0
  9
$USERI3
 70
     0
  9
$USERI4
 70
     0
  9
$USERI5
 70
     0
  9
$USERR1
 40
0.0
  9
$USERR2
 40
0.0
  9
$USERR3
 40
0.0
  9
$USERR4
 40
0.0
  9
$USERR5
 40
0.0
  9
$WORLDVIEW
 70
     1
  9
$SHADEDGE
 70
     3
  9
$SHADEDIF
 70
    70
  9
$TILEMODE
 70
     1
  9
$MAXACTVP
 70
    48
  9
$PINSBASE
 10
0.0
 20
0.0
 30
0.0
  9
$PLIMCHECK
 70
     0
  9
$PEXTMIN
 10
1.000000E+020
 20
1.000000E+020
 30
1.000000E+020
  9
$PEXTMAX
 10
-1.000000E+020
 20
-1.000000E+020
 30
-1.000000E+020
  9
$PLIMMIN
 10
0.0
 20
0.0
  9
$PLIMMAX
 10
12.0
 20
9.0
  9
$UNITMODE
 70
     0
  9
$VISRETAIN
 70
     1
  9
$PLINEGEN
 70
     0
  9
$PSLTSCALE
 70
     1
  9
$TREEDEPTH
 70
  3020
  9
$PICKSTYLE
 70
     1
  9
$CMLSTYLE
  2
STANDARD
  9
$CMLJUST
 70
     0
  9
$CMLSCALE
 40
1.0
  9
$PROXYGRAPHICS
 70
     1
  9
$MEASUREMENT
 70
     0
  0
ENDSEC
  0
SECTION
  2
CLASSES
  0
CLASS
  1
LWPOLYLINE
  2
AcDbPolyline
  3
"AutoCAD"
 90
        0
280
     0
281
     1
  0
CLASS
  1
ACDBDICTIONARYWDFLT
  2
AcDbDictionaryWithDefault
  3
ObjectDBX Classes
 90
        0
280
     0
281
     0
  0
CLASS
  1
ACDBPLACEHOLDER
  2
AcDbPlaceHolder
  3
ObjectDBX Classes
 90
        0
280
     0
281
     0
  0
CLASS
  1
LAYOUT
  2
AcDbLayout
  3
ObjectDBX Classes
 90
        0
280
     0
281
     0
  0
CLASS
  1
DICTIONARYVAR
  2
AcDbDictionaryVar
  3
ObjectDBX Classes
 90
        0
280
     0
281
     0
  0
CLASS
  1
TABLESTYLE
  2
AcDbTableStyle
  3
ObjectDBX Classes
 90
     4095
280
     0
281
     0
  0
CLASS
  1
MATERIAL
  2
AcDbMaterial
  3
ObjectDBX Classes
 90
     1024
280
     0
281
     0
  0
CLASS
  1
VISUALSTYLE
  2
AcDbVisualStyle
  3
ObjectDBX Classes
 90
     4095
280
     0
281
     0
  0
CLASS
  1
XRECORD
  2
AcDbXrecord
  3
"<Built In>"
 90
        0
280
     0
281
     0
  0
CLASS
  1
IMAGE
  2
AcDbRasterImage
  3
ISM
 90
      127
280
     0
281
     1
  0
CLASS
  1
RASTERVARIABLES
  2
AcDbRasterVariables
  3
ISM
 90
        0
280
     0
281
     0
  0
CLASS
  1
IMAGEDEF
  2
AcDbRasterImageDef
  3
ISM
 90
        0
280
     0
281
     0
  0
CLASS
  1
IMAGEDEF_REACTOR
  2
AcDbRasterImageDefReactor
  3
ISM
 90
        1
280
     0
281
     0
  0
ENDSEC
  0
SECTION
  2
TABLES
  0
TABLE
  2
VPORT
  5
8
100
AcDbSymbolTable
 70
     1
  0
VPORT
  5
37
100
AcDbSymbolTableRecord
100
AcDbViewportTableRecord
  2
*ACTIVE
 70
     0
 10
0.0
 20
0.0
 11
1.0
 21
1.0
 12
611.39554
 22
-286.073679
 13
0.0
 23
0.0
 14
5.0
 24
5.0
 15
5.0
 25
5.0
 16
0.0
 26
0.0
 36
1.0
 17
0.0
 27
0.0
 37
0.0
 40
1249.071371
 41
1.797633
 42
50.0
 43
0.0
 44
0.0
 50
0.0
 51
0.0
 71
     0
 72
   100
 73
     1
 74
     1
 75
     1
 76
     1
 77
     0
 78
     0
  0
ENDTAB
  0
TABLE
  2
LTYPE
  5
5
100
AcDbSymbolTable
 70
     3
  0
LTYPE
  5
12
100
AcDbSymbolTableRecord
100
AcDbLinetypeTableRecord
  2
BYBLOCK
 70
     0
  3

 72
    65
 73
     0
 40
0.0
  0
LTYPE
  5
13
100
AcDbSymbolTableRecord
100
AcDbLinetypeTableRecord
  2
BYLAYER
 70
     0
  3

 72
    65
 73
     0
 40
0.0
  0
LTYPE
  5
14
100
AcDbSymbolTableRecord
100
AcDbLinetypeTableRecord
  2
CONTINUOUS
 70
     0
  3
Solid line
 72
    65
 73
     0
 40
0.0
  0
LTYPE
  5
EABC2558047DBBEB
100
AcDbSymbolTableRecord
100
AcDbLinetypeTableRecord
  2
ASDF
 70
     0
  3
Solid line
 72
    65
 73
     4
 40
15.0
 49
5.0
 74
     0
 49
-5.0
 74
     0
 49
0.0
 74
     0
 49
-5.0
 74
     0
  0
LTYPE
  5
FFFFFD057F0FD4BD
100
AcDbSymbolTableRecord
100
AcDbLinetypeTableRecord
  2
$$DXE_RECOVER-1
 70
     0
  3

 72
    65
 73
     0
 40
0.0
  0
ENDTAB
  0
TABLE
  2
LAYER
  5
2
100
AcDbSymbolTable
 70
     5
  0
LAYER
  5
541
100
AcDbSymbolTableRecord
100
AcDbLayerTableRecord
  2
SIMPLE
 70
     0
 62
   162
  6
CONTINUOUS
  0
LAYER
  5
EABC2557EAE3CBBD
100
AcDbSymbolTableRecord
100
AcDbLayerTableRecord
  2
COMMENT
 70
     0
 62
    -2
  6
CONTINUOUS
  0
LAYER
  5
EABC2557F58DF72F
100
AcDbSymbolTableRecord
100
AcDbLayerTableRecord
  2
DETAIL_MEDIUM
 70
     0
 62
   182
  6
CONTINUOUS
  0
LAYER
  5
EABC255822623822
100
AcDbSymbolTableRecord
100
AcDbLayerTableRecord
  2
PORTS
 70
     0
 62
   248
  6
CONTINUOUS
  0
LAYER
  5
FFFFEF063DC894C9
100
AcDbSymbolTableRecord
100
AcDbLayerTableRecord
  2
0
 70
     0
 62
     7
  6
CONTINUOUS
  0
ENDTAB
  0
TABLE
  2
STYLE
  5
3
100
AcDbSymbolTable
 70
     8
  0
STYLE
  5
F
100
AcDbSymbolTableRecord
100
AcDbTextStyleTableRecord
  2
STANDARD
 70
     0
 40
0.0
 41
1.0
 50
0.0
 71
     0
 42
100.0
  3
txt.shx
  4

  0
STYLE
  5
21
100
AcDbSymbolTableRecord
100
AcDbTextStyleTableRecord
  2
COMPLEX
 70
     0
 40
0.0
 41
1.0
 50
0.0
 71
     0
 42
0.2
  3
complex
  4

  0
STYLE
  5
22
100
AcDbSymbolTableRecord
100
AcDbTextStyleTableRecord
  2
ITALIC
 70
     0
 40
0.0
 41
1.0
 50
0.0
 71
     0
 42
0.2
  3
italic
  4

  0
STYLE
  5
23
100
AcDbSymbolTableRecord
100
AcDbTextStyleTableRecord
  2
ROMANC
 70
     0
 40
0.0
 41
1.0
 50
0.0
 71
     0
 42
0.2
  3
romanc
  4

  0
STYLE
  5
24
100
AcDbSymbolTableRecord
100
AcDbTextStyleTableRecord
  2
SIMPLEX
 70
     0
 40
0.0
 41
1.0
 50
0.0
 71
     0
 42
10.0
  3
simplex
  4

  0
STYLE
  5
34
100
AcDbSymbolTableRecord
100
AcDbTextStyleTableRecord
  2

 70
     1
 40
0.0
 41
1.0
 50
0.0
 71
     0
 42
0.2
  3
ltypeshp.shx
  4

  0
STYLE
  5
38
100
AcDbSymbolTableRecord
100
AcDbTextStyleTableRecord
  2
ARIAL
 70
     0
 40
0.0
 41
1.0
 50
0.0
 71
     0
 42
0.2
  3

  4

1001
ACAD
1000
Arial
1071
       34
  0
STYLE
  5
39
100
AcDbSymbolTableRecord
100
AcDbTextStyleTableRecord
  2
TIMES_NEW_ROMAN
 70
     0
 40
0.0
 41
1.0
 50
0.0
 71
     0
 42
0.2
  3

  4

1001
ACAD
1000
Times New Roman
1071
       18
  0
ENDTAB
  0
TABLE
  2
VIEW
  5
6
100
AcDbSymbolTable
 70
     0
  0
ENDTAB
  0
TABLE
  2
UCS
  5
7
100
AcDbSymbolTable
 70
     0
  0
ENDTAB
  0
TABLE
  2
APPID
  5
9
100
AcDbSymbolTable
 70
     1
  0
APPID
  5
10
100
AcDbSymbolTableRecord
100
AcDbRegAppTableRecord
  2
ACAD
 70
     0
  0
ENDTAB
  0
TABLE
  2
DIMSTYLE
  5
A
100
AcDbSymbolTable
 70
     2
  0
DIMSTYLE
105
1D
100
AcDbSymbolTableRecord
100
AcDbDimStyleTableRecord
  2
STANDARD
 70
     0
  3

  4

  5

  6

  7

 40
1.0
 41
100.0
 42
50.0
 43
0.38
 44
50.0
 45
0.0
 46
0.0
 47
0.0
 48
0.0
140
100.0
141
0.09
142
0.0
143
25.4
144
1.0
145
0.0
146
1.0
147
0.09
 71
     0
 72
     0
 73
     1
 74
     1
 75
     0
 76
     0
 77
     0
 78
     0
170
     0
171
     2
172
     0
173
     0
174
     0
175
     0
176
     0
177
     0
178
     0
270
     2
271
     4
272
     4
273
     2
274
     2
340
F
275
     0
280
     0
281
     0
282
     0
283
     1
284
     0
285
     0
286
     0
287
     3
288
     0
  0
DIMSTYLE
105
FFFFFCF4754F1934
100
AcDbSymbolTableRecord
100
AcDbDimStyleTableRecord
  2
$$DXE_RECOVER0
 70
     0
  3

  4

  5

  6

  7

 40
1.0
 41
0.18
 42
0.0625
 43
0.38
 44
0.18
 45
0.0
 46
0.0
 47
0.0
 48
0.0
140
0.18
141
0.09
142
0.0
143
25.4
144
1.0
145
0.0
146
1.0
147
0.09
 71
     0
 72
     0
 73
     1
 74
     1
 75
     0
 76
     0
 77
     0
 78
     0
170
     0
171
     2
172
     0
173
     0
174
     0
175
     0
176
     0
177
     0
178
     0
270
     2
271
     4
272
     4
273
     2
274
     2
340
F
275
     0
280
     0
281
     0
282
     0
283
     1
284
     0
285
     0
286
     0
287
     3
288
     0
  0
ENDTAB
  0
TABLE
  2
BLOCK_RECORD
  5
1
100
AcDbSymbolTable
 70
    93
  0
BLOCK_RECORD
  5
18
100
AcDbSymbolTableRecord
100
AcDbBlockTableRecord
  2
*MODEL_SPACE
  0
BLOCK_RECORD
  5
15
100
AcDbSymbolTableRecord
100
AcDbBlockTableRecord
  2
*PAPER_SPACE
  0
BLOCK_RECORD
  5
EABC2557E039A7C4
100
AcDbSymbolTableRecord
100
AcDbBlockTableRecord
  2
*D0
  0
BLOCK_RECORD
  5
EABC2557E039A7E1
100
AcDbSymbolTableRecord
100
AcDbBlockTableRecord
  2
*D1
  0
BLOCK_RECORD
  5
EABC2557E039A7F0
100
AcDbSymbolTableRecord
100
AcDbBlockTableRecord
  2
*D2
  0
BLOCK_RECORD
  5
EABC2557E039A7FF
100
AcDbSymbolTableRecord
100
AcDbBlockTableRecord
  2
*D3
  0
BLOCK_RECORD
  5
EABC2557E039A81C
100
AcDbSymbolTableRecord
100
AcDbBlockTableRecord
  2
*D4
  0
BLOCK_RECORD
  5
EABC2557E039A82C
100
AcDbSymbolTableRecord
100
AcDbBlockTableRecord
  2
*D5
  0
BLOCK_RECORD
  5
EABC2557E039A83C
100
AcDbSymbolTableRecord
100
AcDbBlockTableRecord
  2
*D6
  0
BLOCK_RECORD
  5
EABC2557E039A84D
100
AcDbSymbolTableRecord
100
AcDbBlockTableRecord
  2
*D7
  0
BLOCK_RECORD
  5
EABC2557E039A85C
100
AcDbSymbolTableRecord
100
AcDbBlockTableRecord
  2
*D8
  0
BLOCK_RECORD
  5
EABC2557E039A86B
100
AcDbSymbolTableRecord
100
AcDbBlockTableRecord
  2
*D9
  0
BLOCK_RECORD
  5
EABC2557E039A87B
100
AcDbSymbolTableRecord
100
AcDbBlockTableRecord
  2
*D10
  0
BLOCK_RECORD
  5
EABC2557E039A88B
100
AcDbSymbolTableRecord
100
AcDbBlockTableRecord
  2
*D11
  0
BLOCK_RECORD
  5
EABC2557E039A8B5
100
AcDbSymbolTableRecord
100
AcDbBlockTableRecord
  2
*D12
  0
BLOCK_RECORD
  5
EABC2557E039A8C5
100
AcDbSymbolTableRecord
100
AcDbBlockTableRecord
  2
*D13
  0
BLOCK_RECORD
  5
EABC2557E039A8D5
100
AcDbSymbolTableRecord
100
AcDbBlockTableRecord
  2
*D14
  0
BLOCK_RECORD
  5
EABC2557E039A8E5
100
AcDbSymbolTableRecord
100
AcDbBlockTableRecord
  2
*D15
  0
BLOCK_RECORD
  5
EABC2557E039A8F5
100
AcDbSymbolTableRecord
100
AcDbBlockTableRecord
  2
*D16
  0
BLOCK_RECORD
  5
EABC2557E039A906
100
AcDbSymbolTableRecord
100
AcDbBlockTableRecord
  2
*D17
  0
BLOCK_RECORD
  5
EABC2557E039A916
100
AcDbSymbolTableRecord
100
AcDbBlockTableRecord
  2
*D18
  0
BLOCK_RECORD
  5
EABC2557E039A926
100
AcDbSymbolTableRecord
100
AcDbBlockTableRecord
  2
*D19
  0
BLOCK_RECORD
  5
EABC2557E039A936
100
AcDbSymbolTableRecord
100
AcDbBlockTableRecord
  2
*D20
  0
BLOCK_RECORD
  5
EABC2557E039A946
100
AcDbSymbolTableRecord
100
AcDbBlockTableRecord
  2
*D21
  0
BLOCK_RECORD
  5
EABC2557E039A956
100
AcDbSymbolTableRecord
100
AcDbBlockTableRecord
  2
*D22
  0
BLOCK_RECORD
  5
EABC2557E039A974
100
AcDbSymbolTableRecord
100
AcDbBlockTableRecord
  2
*D23
  0
BLOCK_RECORD
  5
EABC2557E039A984
100
AcDbSymbolTableRecord
100
AcDbBlockTableRecord
  2
*D24
  0
BLOCK_RECORD
  5
EABC2557E039A994
100
AcDbSymbolTableRecord
100
AcDbBlockTableRecord
  2
*D25
  0
BLOCK_RECORD
  5
EABC2557E58EBC78
100
AcDbSymbolTableRecord
100
AcDbBlockTableRecord
  2
*D26
  0
BLOCK_RECORD
  5
EABC2557E58EBC87
100
AcDbSymbolTableRecord
100
AcDbBlockTableRecord
  2
*D27
  0
BLOCK_RECORD
  5
EABC2557E58EBC96
100
AcDbSymbolTableRecord
100
AcDbBlockTableRecord
  2
*D28
  0
BLOCK_RECORD
  5
EABC2557E58EBCA5
100
AcDbSymbolTableRecord
100
AcDbBlockTableRecord
  2
*D29
  0
BLOCK_RECORD
  5
EABC2557E58EBCB4
100
AcDbSymbolTableRecord
100
AcDbBlockTableRecord
  2
*D30
  0
BLOCK_RECORD
  5
EABC2557E58EBCC3
100
AcDbSymbolTableRecord
100
AcDbBlockTableRecord
  2
*D31
  0
BLOCK_RECORD
  5
EABC2557E58EBCD2
100
AcDbSymbolTableRecord
100
AcDbBlockTableRecord
  2
*D32
  0
BLOCK_RECORD
  5
EABC2557E58EBCE1
100
AcDbSymbolTableRecord
100
AcDbBlockTableRecord
  2
*D33
  0
BLOCK_RECORD
  5
EABC2557E58EBCF0
100
AcDbSymbolTableRecord
100
AcDbBlockTableRecord
  2
*D34
  0
BLOCK_RECORD
  5
EABC2557E58EBCFF
100
AcDbSymbolTableRecord
100
AcDbBlockTableRecord
  2
*D35
  0
BLOCK_RECORD
  5
EABC2558047DB823
100
AcDbSymbolTableRecord
100
AcDbBlockTableRecord
  2
*D36
  0
BLOCK_RECORD
  5
EABC2558047DB833
100
AcDbSymbolTableRecord
100
AcDbBlockTableRecord
  2
*D37
  0
BLOCK_RECORD
  5
FFFB13BBE2AEA042
100
AcDbSymbolTableRecord
100
AcDbBlockTableRecord
  2
YGR_DSP_MULT_DATAA_PORT
  0
BLOCK_RECORD
  5
FFFB13BBE2AEA048
100
AcDbSymbolTableRecord
100
AcDbBlockTableRecord
  2
YGR_DSP_MULT_DATAB_PORT
  0
BLOCK_RECORD
  5
FFFB13BBE2AEA04E
100
AcDbSymbolTableRecord
100
AcDbBlockTableRecord
  2
YGR_DSP_MULT_SIGNA_PORT
  0
BLOCK_RECORD
  5
FFFB13BBE2AEA054
100
AcDbSymbolTableRecord
100
AcDbBlockTableRecord
  2
YGR_DSP_MULT_SIGNB_PORT
  0
BLOCK_RECORD
  5
FFFB13BBE2AEA05A
100
AcDbSymbolTableRecord
100
AcDbBlockTableRecord
  2
YGR_DSP_MULT_CLK_PORT
  0
BLOCK_RECORD
  5
FFFB13BBE2AEA060
100
AcDbSymbolTableRecord
100
AcDbBlockTableRecord
  2
YGR_DSP_MULT_ENA_PORT
  0
BLOCK_RECORD
  5
FFFB13BBE2AEA066
100
AcDbSymbolTableRecord
100
AcDbBlockTableRecord
  2
YGR_DSP_MULT_CLR_PORT
  0
BLOCK_RECORD
  5
FFFB13BBE2AEA06C
100
AcDbSymbolTableRecord
100
AcDbBlockTableRecord
  2
YGR_DSP_MULT_DATAA_WIRE
  0
BLOCK_RECORD
  5
FFFB13BBE2AEA070
100
AcDbSymbolTableRecord
100
AcDbBlockTableRecord
  2
YGR_DSP_MULT_SIGNA_WIRE
  0
BLOCK_RECORD
  5
FFFB13BBE2AEA074
100
AcDbSymbolTableRecord
100
AcDbBlockTableRecord
  2
YGR_DSP_MULT_SIGNB_WIRE
  0
BLOCK_RECORD
  5
FFFB13BBE2AEA07F
100
AcDbSymbolTableRecord
100
AcDbBlockTableRecord
  2
YGR_DSP_MULT_DATAB_WIRE
  0
BLOCK_RECORD
  5
FFFB13BBE2AEA083
100
AcDbSymbolTableRecord
100
AcDbBlockTableRecord
  2
YGR_DSP_MULT_DATAA_TO_MULT_WIRE
  0
BLOCK_RECORD
  5
FFFB13BBE2AEA097
100
AcDbSymbolTableRecord
100
AcDbBlockTableRecord
  2
YGR_DSP_MULT_DATAB_TO_MULT_WIRE
  0
BLOCK_RECORD
  5
FFFB13BBE2AEA09B
100
AcDbSymbolTableRecord
100
AcDbBlockTableRecord
  2
YGR_DSP_MULT_CLK_WIRE
  0
BLOCK_RECORD
  5
FFFB13BBE2AEA09F
100
AcDbSymbolTableRecord
100
AcDbBlockTableRecord
  2
YGR_DSP_MULT_ENA_WIRE
  0
BLOCK_RECORD
  5
FFFB13BBE2AEA0A3
100
AcDbSymbolTableRecord
100
AcDbBlockTableRecord
  2
YGR_DSP_MULT_CLR_WIRE
  0
BLOCK_RECORD
  5
FFFB13BBE2AEA109
100
AcDbSymbolTableRecord
100
AcDbBlockTableRecord
  2
YGR_DSP_MULT_BLOCK
  0
BLOCK_RECORD
  5
FFFB13BBE2AEA10D
100
AcDbSymbolTableRecord
100
AcDbBlockTableRecord
  2
YGR_DSP_MULT_DATAOUT_PORT
  0
BLOCK_RECORD
  5
FFFB13BBE2AEA113
100
AcDbSymbolTableRecord
100
AcDbBlockTableRecord
  2
YGR_DSP_MULT_DATAOUT_WIRE
  0
BLOCK_RECORD
  5
FFFB13BBE2AEA139
100
AcDbSymbolTableRecord
100
AcDbBlockTableRecord
  2
YGR_DSP_MULT_DATAA_EXT_WIRE
  0
BLOCK_RECORD
  5
FFFB13BBE2AEA13D
100
AcDbSymbolTableRecord
100
AcDbBlockTableRecord
  2
YGR_DSP_MULT_DATAB_EXT_WIRE
  0
BLOCK_RECORD
  5
FFFB13BBE2AEA14D
100
AcDbSymbolTableRecord
100
AcDbBlockTableRecord
  2
YGR_DSP_MULT
  0
BLOCK_RECORD
  5
FFFEF45C57A5D114
100
AcDbSymbolTableRecord
100
AcDbBlockTableRecord
  2
YGR_DSP_MULT_WIRE
  0
BLOCK_RECORD
  5
FFFEF45C57A5D18D
100
AcDbSymbolTableRecord
100
AcDbBlockTableRecord
  2
YGR_DSP
  0
BLOCK_RECORD
  5
FFFEF45C57AAC334
100
AcDbSymbolTableRecord
100
AcDbBlockTableRecord
  2
YGR_DSP_MULT_REG_TEXT
  0
BLOCK_RECORD
  5
FFFEF45C57AAC338
100
AcDbSymbolTableRecord
100
AcDbBlockTableRecord
  2
YGR_DSP_MULT_REG_CLK_TEXT
  0
BLOCK_RECORD
  5
FFFEF45C57AAC33C
100
AcDbSymbolTableRecord
100
AcDbBlockTableRecord
  2
YGR_DSP_MULT_REG_ENA_TEXT
  0
BLOCK_RECORD
  5
FFFEF45C57AAC340
100
AcDbSymbolTableRecord
100
AcDbBlockTableRecord
  2
YGR_DSP_MULT_REG_CLR_TEXT
  0
BLOCK_RECORD
  5
FFFEF45C57AAC344
100
AcDbSymbolTableRecord
100
AcDbBlockTableRecord
  2
YGR_DSP_MULT_BYPASS_REG
  0
BLOCK_RECORD
  5
FFFEF45C57AAC34C
100
AcDbSymbolTableRecord
100
AcDbBlockTableRecord
  2
YGR_DSP_MULT_REG
  0
BLOCK_RECORD
  5
FFFEF45C57AFB591
100
AcDbSymbolTableRecord
100
AcDbBlockTableRecord
  2
YGR_DSP_MULT_CIRCLE
  0
BLOCK_RECORD
  5
FFFEF45C8D4B8D99
100
AcDbSymbolTableRecord
100
AcDbBlockTableRecord
  2
YGR_DSP_MULT_BOUNDARY
  0
BLOCK_RECORD
  5
FFFEF469C1156186
100
AcDbSymbolTableRecord
100
AcDbBlockTableRecord
  2
YGR_DSP_OUT_DATAA_PORT
  0
BLOCK_RECORD
  5
FFFEF469C15B3AA9
100
AcDbSymbolTableRecord
100
AcDbBlockTableRecord
  2
YGR_DSP_OUT_CLK_PORT
  0
BLOCK_RECORD
  5
FFFEF469C15B3AAF
100
AcDbSymbolTableRecord
100
AcDbBlockTableRecord
  2
YGR_DSP_OUT_CLK_WIRE
  0
BLOCK_RECORD
  5
FFFEF469C15B3AB3
100
AcDbSymbolTableRecord
100
AcDbBlockTableRecord
  2
YGR_DSP_OUT_ENA_PORT
  0
BLOCK_RECORD
  5
FFFEF469C15B3AB9
100
AcDbSymbolTableRecord
100
AcDbBlockTableRecord
  2
YGR_DSP_OUT_ENA_WIRE
  0
BLOCK_RECORD
  5
FFFEF469C15B3ABD
100
AcDbSymbolTableRecord
100
AcDbBlockTableRecord
  2
YGR_DSP_OUT_CLR_PORT
  0
BLOCK_RECORD
  5
FFFEF469C15B3AC3
100
AcDbSymbolTableRecord
100
AcDbBlockTableRecord
  2
YGR_DSP_OUT_CLR_WIRE
  0
BLOCK_RECORD
  5
FFFEF469C1A14EDE
100
AcDbSymbolTableRecord
100
AcDbBlockTableRecord
  2
YGR_DSP_OUT_REG_TEXT
  0
BLOCK_RECORD
  5
FFFEF469C1A14EE2
100
AcDbSymbolTableRecord
100
AcDbBlockTableRecord
  2
YGR_DSP_OUT_REG_CLK_TEXT
  0
BLOCK_RECORD
  5
FFFEF469C1A14EE6
100
AcDbSymbolTableRecord
100
AcDbBlockTableRecord
  2
YGR_DSP_OUT_REG_ENA_TEXT
  0
BLOCK_RECORD
  5
FFFEF469C1A14EEA
100
AcDbSymbolTableRecord
100
AcDbBlockTableRecord
  2
YGR_DSP_OUT_REG_CLR_TEXT
  0
BLOCK_RECORD
  5
FFFEF469C1A14EEE
100
AcDbSymbolTableRecord
100
AcDbBlockTableRecord
  2
YGR_DSP_OUT_BYPASS_REG
  0
BLOCK_RECORD
  5
FFFEF469C1A14EF2
100
AcDbSymbolTableRecord
100
AcDbBlockTableRecord
  2
YGR_DSP_OUT_REG
  0
BLOCK_RECORD
  5
FFFEF469C1A14F7B
100
AcDbSymbolTableRecord
100
AcDbBlockTableRecord
  2
YGR_DSP_OUT_DATAA_WIRE
  0
BLOCK_RECORD
  5
FFFEF469C1A1505C
100
AcDbSymbolTableRecord
100
AcDbBlockTableRecord
  2
YGR_DSP_OUT_DATA_OUT_PORT
  0
BLOCK_RECORD
  5
FFFEF469C1A150C1
100
AcDbSymbolTableRecord
100
AcDbBlockTableRecord
  2
YGR_DSP_OUT_DATA_OUT_WIRE
  0
BLOCK_RECORD
  5
FFFEF469C1A151AB
100
AcDbSymbolTableRecord
100
AcDbBlockTableRecord
  2
YGR_DSP_OUT_BLOCK
  0
BLOCK_RECORD
  5
FFFFEF063DC89544
100
AcDbSymbolTableRecord
100
AcDbBlockTableRecord
  2
YGR_DSP_OUT_MODE_STR
  0
BLOCK_RECORD
  5
FFFFF3AAFAF56BD3
100
AcDbSymbolTableRecord
100
AcDbBlockTableRecord
  2
YGR_DSP_OUT_REG_BLOCK
  0
BLOCK_RECORD
  5
FFFFFCF4754F17AC
100
AcDbSymbolTableRecord
100
AcDbBlockTableRecord
  2
YGR_DSP_MULT_REG_BLOCK
  0
BLOCK_RECORD
  5
FFFFFD057F0FD366
100
AcDbSymbolTableRecord
100
AcDbBlockTableRecord
  2
YGR_DSP_OUT_DATAA_TEXT
  0
BLOCK_RECORD
  5
FFFFFD1688D092CE
100
AcDbSymbolTableRecord
100
AcDbBlockTableRecord
  2
YGR_DSP_MULT_TO_OUT_TEXT0
  0
BLOCK_RECORD
  5
FFFFFD1688D092F2
100
AcDbSymbolTableRecord
100
AcDbBlockTableRecord
  2
YGR_DSP_MULT_TO_OUT_TEXT
  0
ENDTAB
  0
ENDSEC
  0
SECTION
  2
BLOCKS
  0
BLOCK
  5
19
100
AcDbEntity
  8
SIMPLE
100
AcDbBlockBegin
  2
*MODEL_SPACE
 70
     0
 10
0.0
 20
0.0
 30
0.0
  3
*MODEL_SPACE
  1

  0
ENDBLK
  5
1A
100
AcDbEntity
  8
SIMPLE
100
AcDbBlockEnd
  0
BLOCK
  5
16
100
AcDbEntity
 67
     1
  8
SIMPLE
100
AcDbBlockBegin
  2
*PAPER_SPACE
 70
     0
 10
0.0
 20
0.0
 30
0.0
  3
*PAPER_SPACE
  1

  0
ENDBLK
  5
17
100
AcDbEntity
 67
     1
  8
SIMPLE
100
AcDbBlockEnd
  0
BLOCK
  5
EABC2557E039A7C3
100
AcDbEntity
  8
SIMPLE
 62
     5
100
AcDbBlockBegin
  2
*D0
 70
     1
 10
0.0
 20
0.0
 30
0.0
  1

  0
POINT
  5
EABC2557E039A7BC
100
AcDbEntity
  8
SIMPLE
 62
     0
100
AcDbPoint
 10
12000.0
 20
21200.0
 30
0.0
  0
POINT
  5
EABC2557E039A7BD
100
AcDbEntity
  8
SIMPLE
 62
     0
100
AcDbPoint
 10
16300.0
 20
20900.0
 30
0.0
  0
LINE
  5
EABC2557E039A7B7
100
AcDbEntity
  8
SIMPLE
 62
     0
100
AcDbLine
 10
12000.0
 20
21200.0625
 30
0.0
 11
12000.0
 21
21700.18
 31
0.0
  0
LINE
  5
EABC2557E039A7B8
100
AcDbEntity
  8
SIMPLE
 62
     0
100
AcDbLine
 10
16300.0
 20
20900.0625
 30
0.0
 11
16300.0
 21
21700.18
 31
0.0
  0
TEXT
  5
EABC2557E039A7BE
100
AcDbEntity
  8
SIMPLE
 62
     0
100
AcDbText
 10
14149.297143
 20
21699.91
 30
0.0
 40
0.18
  1
asdfasdfas
  7
SIMPLEX
 72
     1
 11
14150.0
 21
21699.91
 31
0.0
100
AcDbText
  0
SOLID
  5
EABC2557E039A7B9
100
AcDbEntity
  8
SIMPLE
 62
     0
100
AcDbTrace
 10
12000.18
 20
21699.97
 30
0.0
 11
12000.18
 21
21700.03
 31
0.0
 12
12000.0
 22
21700.0
 32
0.0
 13
12000.0
 23
21700.0
 33
0.0
  0
SOLID
  5
EABC2557E039A7BA
100
AcDbEntity
  8
SIMPLE
 62
     0
100
AcDbTrace
 10
16299.82
 20
21700.03
 30
0.0
 11
16299.82
 21
21699.97
 31
0.0
 12
16300.0
 22
21700.0
 32
0.0
 13
16300.0
 23
21700.0
 33
0.0
  0
LINE
  5
EABC2557E039A7BF
100
AcDbEntity
  8
SIMPLE
 62
     0
100
AcDbLine
 10
12000.18
 20
21700.0
 30
0.0
 11
14149.207143
 21
21700.0
 31
0.0
  0
LINE
  5
EABC2557E039A7C0
100
AcDbEntity
  8
SIMPLE
 62
     0
100
AcDbLine
 10
14150.792857
 20
21700.0
 30
0.0
 11
16299.82
 21
21700.0
 31
0.0
  0
ENDBLK
  5
EABC2557E039A7C5
100
AcDbEntity
  8
SIMPLE
 62
     5
100
AcDbBlockEnd
  0
BLOCK
  5
EABC2557E039A7E0
100
AcDbEntity
  8
SIMPLE
 62
     5
100
AcDbBlockBegin
  2
*D1
 70
     1
 10
0.0
 20
0.0
 30
0.0
  1

  0
POINT
  5
EABC2557E039A7D9
100
AcDbEntity
  8
SIMPLE
 62
     0
100
AcDbPoint
 10
16000.0
 20
19100.0
 30
0.0
  0
POINT
  5
EABC2557E039A7DA
100
AcDbEntity
  8
SIMPLE
 62
     0
100
AcDbPoint
 10
18100.0
 20
19300.0
 30
0.0
  0
LINE
  5
EABC2557E039A7D4
100
AcDbEntity
  8
SIMPLE
 62
     0
100
AcDbLine
 10
16000.0
 20
19100.0625
 30
0.0
 11
16000.0
 21
19600.18
 31
0.0
  0
LINE
  5
EABC2557E039A7D5
100
AcDbEntity
  8
SIMPLE
 62
     0
100
AcDbLine
 10
18100.0
 20
19300.0625
 30
0.0
 11
18100.0
 21
19600.18
 31
0.0
  0
TEXT
  5
EABC2557E039A7DB
100
AcDbEntity
  8
SIMPLE
 62
     0
100
AcDbText
 10
17049.314286
 20
19599.91
 30
0.0
 40
0.18
  1
2100.0000
  7
SIMPLEX
 72
     1
 11
17050.0
 21
19599.91
 31
0.0
100
AcDbText
  0
SOLID
  5
EABC2557E039A7D6
100
AcDbEntity
  8
SIMPLE
 62
     0
100
AcDbTrace
 10
16000.18
 20
19599.97
 30
0.0
 11
16000.18
 21
19600.03
 31
0.0
 12
16000.0
 22
19600.0
 32
0.0
 13
16000.0
 23
19600.0
 33
0.0
  0
SOLID
  5
EABC2557E039A7D7
100
AcDbEntity
  8
SIMPLE
 62
     0
100
AcDbTrace
 10
18099.82
 20
19600.03
 30
0.0
 11
18099.82
 21
19599.97
 31
0.0
 12
18100.0
 22
19600.0
 32
0.0
 13
18100.0
 23
19600.0
 33
0.0
  0
LINE
  5
EABC2557E039A7DC
100
AcDbEntity
  8
SIMPLE
 62
     0
100
AcDbLine
 10
16000.18
 20
19600.0
 30
0.0
 11
17049.224286
 21
19600.0
 31
0.0
  0
LINE
  5
EABC2557E039A7DD
100
AcDbEntity
  8
SIMPLE
 62
     0
100
AcDbLine
 10
17050.775714
 20
19600.0
 30
0.0
 11
18099.82
 21
19600.0
 31
0.0
  0
ENDBLK
  5
EABC2557E039A7E2
100
AcDbEntity
  8
SIMPLE
 62
     5
100
AcDbBlockEnd
  0
BLOCK
  5
EABC2557E039A7EF
100
AcDbEntity
  8
SIMPLE
 62
     5
100
AcDbBlockBegin
  2
*D2
 70
     1
 10
0.0
 20
0.0
 30
0.0
  1

  0
POINT
  5
EABC2557E039A7E8
100
AcDbEntity
  8
SIMPLE
 62
     0
100
AcDbPoint
 10
16000.0
 20
19100.0
 30
0.0
  0
POINT
  5
EABC2557E039A7E9
100
AcDbEntity
  8
SIMPLE
 62
     0
100
AcDbPoint
 10
18100.0
 20
19300.0
 30
0.0
  0
LINE
  5
EABC2557E039A7E3
100
AcDbEntity
  8
SIMPLE
 62
     0
100
AcDbLine
 10
16000.0
 20
19100.0625
 30
0.0
 11
16000.0
 21
19600.18
 31
0.0
  0
LINE
  5
EABC2557E039A7E4
100
AcDbEntity
  8
SIMPLE
 62
     0
100
AcDbLine
 10
18100.0
 20
19300.0625
 30
0.0
 11
18100.0
 21
19600.18
 31
0.0
  0
TEXT
  5
EABC2557E039A7EA
100
AcDbEntity
  8
SIMPLE
 62
     0
100
AcDbText
 10
17049.314286
 20
19599.91
 30
0.0
 40
0.18
  1
2100.0000
  7
SIMPLEX
 72
     1
 11
17050.0
 21
19599.91
 31
0.0
100
AcDbText
  0
SOLID
  5
EABC2557E039A7E5
100
AcDbEntity
  8
SIMPLE
 62
     0
100
AcDbTrace
 10
16000.18
 20
19599.97
 30
0.0
 11
16000.18
 21
19600.03
 31
0.0
 12
16000.0
 22
19600.0
 32
0.0
 13
16000.0
 23
19600.0
 33
0.0
  0
SOLID
  5
EABC2557E039A7E6
100
AcDbEntity
  8
SIMPLE
 62
     0
100
AcDbTrace
 10
18099.82
 20
19600.03
 30
0.0
 11
18099.82
 21
19599.97
 31
0.0
 12
18100.0
 22
19600.0
 32
0.0
 13
18100.0
 23
19600.0
 33
0.0
  0
LINE
  5
EABC2557E039A7EB
100
AcDbEntity
  8
SIMPLE
 62
     0
100
AcDbLine
 10
16000.18
 20
19600.0
 30
0.0
 11
17049.224286
 21
19600.0
 31
0.0
  0
LINE
  5
EABC2557E039A7EC
100
AcDbEntity
  8
SIMPLE
 62
     0
100
AcDbLine
 10
17050.775714
 20
19600.0
 30
0.0
 11
18099.82
 21
19600.0
 31
0.0
  0
ENDBLK
  5
EABC2557E039A7F1
100
AcDbEntity
  8
SIMPLE
 62
     5
100
AcDbBlockEnd
  0
BLOCK
  5
EABC2557E039A7FE
100
AcDbEntity
  8
SIMPLE
 62
     5
100
AcDbBlockBegin
  2
*D3
 70
     1
 10
0.0
 20
0.0
 30
0.0
  1

  0
POINT
  5
EABC2557E039A7F7
100
AcDbEntity
  8
SIMPLE
 62
     0
100
AcDbPoint
 10
16000.0
 20
19100.0
 30
0.0
  0
POINT
  5
EABC2557E039A7F8
100
AcDbEntity
  8
SIMPLE
 62
     0
100
AcDbPoint
 10
18100.0
 20
19300.0
 30
0.0
  0
LINE
  5
EABC2557E039A7F2
100
AcDbEntity
  8
SIMPLE
 62
     0
100
AcDbLine
 10
16000.0
 20
19100.0625
 30
0.0
 11
16000.0
 21
19600.18
 31
0.0
  0
LINE
  5
EABC2557E039A7F3
100
AcDbEntity
  8
SIMPLE
 62
     0
100
AcDbLine
 10
18100.0
 20
19300.0625
 30
0.0
 11
18100.0
 21
19600.18
 31
0.0
  0
TEXT
  5
EABC2557E039A7F9
100
AcDbEntity
  8
SIMPLE
 62
     0
100
AcDbText
 10
17049.515714
 20
19599.91
 30
0.0
 40
0.18
  1
asdfe4r
  7
SIMPLEX
 72
     1
 11
17050.0
 21
19599.91
 31
0.0
100
AcDbText
  0
SOLID
  5
EABC2557E039A7F4
100
AcDbEntity
  8
SIMPLE
 62
     0
100
AcDbTrace
 10
16000.18
 20
19599.97
 30
0.0
 11
16000.18
 21
19600.03
 31
0.0
 12
16000.0
 22
19600.0
 32
0.0
 13
16000.0
 23
19600.0
 33
0.0
  0
SOLID
  5
EABC2557E039A7F5
100
AcDbEntity
  8
SIMPLE
 62
     0
100
AcDbTrace
 10
18099.82
 20
19600.03
 30
0.0
 11
18099.82
 21
19599.97
 31
0.0
 12
18100.0
 22
19600.0
 32
0.0
 13
18100.0
 23
19600.0
 33
0.0
  0
LINE
  5
EABC2557E039A7FA
100
AcDbEntity
  8
SIMPLE
 62
     0
100
AcDbLine
 10
16000.18
 20
19600.0
 30
0.0
 11
17049.425714
 21
19600.0
 31
0.0
  0
LINE
  5
EABC2557E039A7FB
100
AcDbEntity
  8
SIMPLE
 62
     0
100
AcDbLine
 10
17050.574286
 20
19600.0
 30
0.0
 11
18099.82
 21
19600.0
 31
0.0
  0
ENDBLK
  5
EABC2557E039A800
100
AcDbEntity
  8
SIMPLE
 62
     5
100
AcDbBlockEnd
  0
BLOCK
  5
EABC2557E039A81B
100
AcDbEntity
  8
SIMPLE
 62
     5
100
AcDbBlockBegin
  2
*D4
 70
     1
 10
0.0
 20
0.0
 30
0.0
  1

  0
POINT
  5
EABC2557E039A814
100
AcDbEntity
  8
SIMPLE
 62
     0
100
AcDbPoint
 10
16600.0
 20
19600.0
 30
0.0
  0
POINT
  5
EABC2557E039A815
100
AcDbEntity
  8
SIMPLE
 62
     0
100
AcDbPoint
 10
17400.0
 20
19300.0
 30
0.0
  0
LINE
  5
EABC2557E039A80F
100
AcDbEntity
  8
SIMPLE
 62
     0
100
AcDbLine
 10
16600.0
 20
19599.9375
 30
0.0
 11
16600.0
 21
19399.82
 31
0.0
  0
LINE
  5
EABC2557E039A810
100
AcDbEntity
  8
SIMPLE
 62
     0
100
AcDbLine
 10
17400.0
 20
19300.0625
 30
0.0
 11
17400.0
 21
19400.18
 31
0.0
  0
TEXT
  5
EABC2557E039A816
100
AcDbEntity
  8
SIMPLE
 62
     0
100
AcDbText
 10
16999.382857
 20
19399.91
 30
0.0
 40
0.18
  1
800.0000
  7
SIMPLEX
 72
     1
 11
17000.0
 21
19399.91
 31
0.0
100
AcDbText
  0
SOLID
  5
EABC2557E039A811
100
AcDbEntity
  8
SIMPLE
 62
     0
100
AcDbTrace
 10
16600.18
 20
19399.97
 30
0.0
 11
16600.18
 21
19400.03
 31
0.0
 12
16600.0
 22
19400.0
 32
0.0
 13
16600.0
 23
19400.0
 33
0.0
  0
SOLID
  5
EABC2557E039A812
100
AcDbEntity
  8
SIMPLE
 62
     0
100
AcDbTrace
 10
17399.82
 20
19400.03
 30
0.0
 11
17399.82
 21
19399.97
 31
0.0
 12
17400.0
 22
19400.0
 32
0.0
 13
17400.0
 23
19400.0
 33
0.0
  0
LINE
  5
EABC2557E039A817
100
AcDbEntity
  8
SIMPLE
 62
     0
100
AcDbLine
 10
16600.18
 20
19400.0
 30
0.0
 11
16999.292857
 21
19400.0
 31
0.0
  0
LINE
  5
EABC2557E039A818
100
AcDbEntity
  8
SIMPLE
 62
     0
100
AcDbLine
 10
17000.707143
 20
19400.0
 30
0.0
 11
17399.82
 21
19400.0
 31
0.0
  0
ENDBLK
  5
EABC2557E039A81D
100
AcDbEntity
  8
SIMPLE
 62
     5
100
AcDbBlockEnd
  0
BLOCK
  5
EABC2557E039A82B
100
AcDbEntity
  8
SIMPLE
  6
CONTINUOUS
 62
     5
100
AcDbBlockBegin
  2
*D5
 70
     1
 10
0.0
 20
0.0
 30
0.0
  1

  0
POINT
  5
EABC2557E039A824
100
AcDbEntity
  8
SIMPLE
  6
CONTINUOUS
 62
     0
100
AcDbPoint
 10
16800.0
 20
19500.0
 30
0.0
  0
POINT
  5
EABC2557E039A825
100
AcDbEntity
  8
SIMPLE
  6
CONTINUOUS
 62
     0
100
AcDbPoint
 10
16900.0
 20
19500.0
 30
0.0
  0
LINE
  5
EABC2557E039A81F
100
AcDbEntity
  8
SIMPLE
  6
CONTINUOUS
 62
     0
100
AcDbLine
 10
16800.0
 20
19499.9375
 30
0.0
 11
16800.0
 21
19399.82
 31
0.0
  0
LINE
  5
EABC2557E039A820
100
AcDbEntity
  8
SIMPLE
  6
CONTINUOUS
 62
     0
100
AcDbLine
 10
16900.0
 20
19499.9375
 30
0.0
 11
16900.0
 21
19399.82
 31
0.0
  0
TEXT
  5
EABC2557E039A826
100
AcDbEntity
  8
SIMPLE
  6
CONTINUOUS
 62
     0
100
AcDbText
 10
16999.4
 20
19399.91
 30
0.0
 40
0.18
  1
100.0000
  7
SIMPLEX
 72
     1
 11
17000.0
 21
19399.91
 31
0.0
100
AcDbText
  0
SOLID
  5
EABC2557E039A821
100
AcDbEntity
  8
SIMPLE
  6
CONTINUOUS
 62
     0
100
AcDbTrace
 10
16800.18
 20
19399.97
 30
0.0
 11
16800.18
 21
19400.03
 31
0.0
 12
16800.0
 22
19400.0
 32
0.0
 13
16800.0
 23
19400.0
 33
0.0
  0
SOLID
  5
EABC2557E039A822
100
AcDbEntity
  8
SIMPLE
  6
CONTINUOUS
 62
     0
100
AcDbTrace
 10
16899.82
 20
19400.03
 30
0.0
 11
16899.82
 21
19399.97
 31
0.0
 12
16900.0
 22
19400.0
 32
0.0
 13
16900.0
 23
19400.0
 33
0.0
  0
LINE
  5
EABC2557E039A827
100
AcDbEntity
  8
SIMPLE
  6
CONTINUOUS
 62
     0
100
AcDbLine
 10
16800.18
 20
19400.0
 30
0.0
 11
16899.82
 21
19400.0
 31
0.0
  0
ENDBLK
  5
EABC2557E039A82D
100
AcDbEntity
  8
SIMPLE
  6
CONTINUOUS
 62
     5
100
AcDbBlockEnd
  0
BLOCK
  5
EABC2557E039A83B
100
AcDbEntity
  8
SIMPLE
  6
CONTINUOUS
 62
     5
100
AcDbBlockBegin
  2
*D6
 70
     1
 10
0.0
 20
0.0
 30
0.0
  1

  0
POINT
  5
EABC2557E039A834
100
AcDbEntity
  8
SIMPLE
  6
CONTINUOUS
 62
     0
100
AcDbPoint
 10
17000.0
 20
19400.0
 30
0.0
  0
POINT
  5
EABC2557E039A835
100
AcDbEntity
  8
SIMPLE
  6
CONTINUOUS
 62
     0
100
AcDbPoint
 10
17200.0
 20
19300.0
 30
0.0
  0
LINE
  5
EABC2557E039A82F
100
AcDbEntity
  8
SIMPLE
  6
CONTINUOUS
 62
     0
100
AcDbLine
 10
17000.0
 20
19350.0
 30
0.0
 11
17000.0
 21
19250.0
 31
0.0
  0
LINE
  5
EABC2557E039A830
100
AcDbEntity
  8
SIMPLE
  6
CONTINUOUS
 62
     0
100
AcDbLine
 10
17200.0
 20
19250.0
 30
0.0
 11
17200.0
 21
19250.0
 31
0.0
  0
TEXT
  5
EABC2557E039A836
100
AcDbEntity
  8
SIMPLE
  6
CONTINUOUS
 62
     0
100
AcDbText
 10
16757.142857
 20
19250.0
 30
0.0
 40
100.0
  1
200.0000
  7
SIMPLEX
 72
     1
 11
17100.0
 21
19250.0
 31
0.0
100
AcDbText
  0
SOLID
  5
EABC2557E039A831
100
AcDbEntity
  8
SIMPLE
  6
CONTINUOUS
 62
     0
100
AcDbTrace
 10
17020.0
 20
19296.666667
 30
0.0
 11
17020.0
 21
19303.333333
 31
0.0
 12
17000.0
 22
19300.0
 32
0.0
 13
17000.0
 23
19300.0
 33
0.0
  0
SOLID
  5
EABC2557E039A832
100
AcDbEntity
  8
SIMPLE
  6
CONTINUOUS
 62
     0
100
AcDbTrace
 10
17180.0
 20
19303.333333
 30
0.0
 11
17180.0
 21
19296.666667
 31
0.0
 12
17200.0
 22
19300.0
 32
0.0
 13
17200.0
 23
19300.0
 33
0.0
  0
LINE
  5
EABC2557E039A837
100
AcDbEntity
  8
SIMPLE
  6
CONTINUOUS
 62
     0
100
AcDbLine
 10
17020.0
 20
19300.0
 30
0.0
 11
17180.0
 21
19300.0
 31
0.0
  0
ENDBLK
  5
EABC2557E039A83D
100
AcDbEntity
  8
SIMPLE
  6
CONTINUOUS
 62
     5
100
AcDbBlockEnd
  0
BLOCK
  5
EABC2557E039A84C
100
AcDbEntity
  8
SIMPLE
  6
CONTINUOUS
 62
     5
100
AcDbBlockBegin
  2
*D7
 70
     1
 10
0.0
 20
0.0
 30
0.0
  1

  0
POINT
  5
EABC2557E039A845
100
AcDbEntity
  8
SIMPLE
  6
CONTINUOUS
 62
     0
100
AcDbPoint
 10
15099.0
 20
19600.0
 30
0.0
  0
POINT
  5
EABC2557E039A846
100
AcDbEntity
  8
SIMPLE
  6
CONTINUOUS
 62
     0
100
AcDbPoint
 10
23099.0
 20
19600.0
 30
0.0
  0
LINE
  5
EABC2557E039A840
100
AcDbEntity
  8
SIMPLE
  6
CONTINUOUS
 62
     0
100
AcDbLine
 10
15099.0
 20
19650.0
 30
0.0
 11
15099.0
 21
20850.0
 31
0.0
  0
LINE
  5
EABC2557E039A841
100
AcDbEntity
  8
SIMPLE
  6
CONTINUOUS
 62
     0
100
AcDbLine
 10
23099.0
 20
19650.0
 30
0.0
 11
23099.0
 21
20850.0
 31
0.0
  0
TEXT
  5
EABC2557E039A847
100
AcDbEntity
  8
SIMPLE
  6
CONTINUOUS
 62
     0
100
AcDbText
 10
18708.52381
 20
20750.0
 30
0.0
 40
100.0
  1
8000.0000
  7
SIMPLEX
 72
     1
 11
19099.0
 21
20750.0
 31
0.0
100
AcDbText
  0
SOLID
  5
EABC2557E039A842
100
AcDbEntity
  8
SIMPLE
  6
CONTINUOUS
 62
     0
100
AcDbTrace
 10
15119.0
 20
20796.666667
 30
0.0
 11
15119.0
 21
20803.333333
 31
0.0
 12
15099.0
 22
20800.0
 32
0.0
 13
15099.0
 23
20800.0
 33
0.0
  0
SOLID
  5
EABC2557E039A843
100
AcDbEntity
  8
SIMPLE
  6
CONTINUOUS
 62
     0
100
AcDbTrace
 10
23079.0
 20
20803.333333
 30
0.0
 11
23079.0
 21
20796.666667
 31
0.0
 12
23099.0
 22
20800.0
 32
0.0
 13
23099.0
 23
20800.0
 33
0.0
  0
LINE
  5
EABC2557E039A848
100
AcDbEntity
  8
SIMPLE
  6
CONTINUOUS
 62
     0
100
AcDbLine
 10
15119.0
 20
20800.0
 30
0.0
 11
18708.43381
 21
20800.0
 31
0.0
  0
LINE
  5
EABC2557E039A849
100
AcDbEntity
  8
SIMPLE
  6
CONTINUOUS
 62
     0
100
AcDbLine
 10
19489.56619
 20
20800.0
 30
0.0
 11
23079.0
 21
20800.0
 31
0.0
  0
ENDBLK
  5
EABC2557E039A84E
100
AcDbEntity
  8
SIMPLE
  6
CONTINUOUS
 62
     5
100
AcDbBlockEnd
  0
BLOCK
  5
EABC2557E039A85B
100
AcDbEntity
  8
SIMPLE
  6
CONTINUOUS
 62
     5
100
AcDbBlockBegin
  2
*D8
 70
     1
 10
0.0
 20
0.0
 30
0.0
  1

  0
POINT
  5
EABC2557E039A854
100
AcDbEntity
  8
SIMPLE
  6
CONTINUOUS
 62
     0
100
AcDbPoint
 10
15099.0
 20
19600.0
 30
0.0
  0
POINT
  5
EABC2557E039A855
100
AcDbEntity
  8
SIMPLE
  6
CONTINUOUS
 62
     0
100
AcDbPoint
 10
23099.0
 20
19600.0
 30
0.0
  0
LINE
  5
EABC2557E039A84F
100
AcDbEntity
  8
SIMPLE
  6
CONTINUOUS
 62
     0
100
AcDbLine
 10
15099.0
 20
19650.0
 30
0.0
 11
15099.0
 21
20850.0
 31
0.0
  0
LINE
  5
EABC2557E039A850
100
AcDbEntity
  8
SIMPLE
  6
CONTINUOUS
 62
     0
100
AcDbLine
 10
23099.0
 20
19650.0
 30
0.0
 11
23099.0
 21
20850.0
 31
0.0
  0
TEXT
  5
EABC2557E039A856
100
AcDbEntity
  8
SIMPLE
  6
CONTINUOUS
 62
     0
100
AcDbText
 10
18708.52381
 20
20750.0
 30
0.0
 40
100.0
  1
8000.0000
  7
SIMPLEX
 72
     1
 11
19099.0
 21
20750.0
 31
0.0
100
AcDbText
  0
SOLID
  5
EABC2557E039A851
100
AcDbEntity
  8
SIMPLE
  6
CONTINUOUS
 62
     0
100
AcDbTrace
 10
15199.0
 20
20783.333333
 30
0.0
 11
15199.0
 21
20816.666667
 31
0.0
 12
15099.0
 22
20800.0
 32
0.0
 13
15099.0
 23
20800.0
 33
0.0
  0
SOLID
  5
EABC2557E039A852
100
AcDbEntity
  8
SIMPLE
  6
CONTINUOUS
 62
     0
100
AcDbTrace
 10
22999.0
 20
20816.666667
 30
0.0
 11
22999.0
 21
20783.333333
 31
0.0
 12
23099.0
 22
20800.0
 32
0.0
 13
23099.0
 23
20800.0
 33
0.0
  0
LINE
  5
EABC2557E039A857
100
AcDbEntity
  8
SIMPLE
  6
CONTINUOUS
 62
     0
100
AcDbLine
 10
15199.0
 20
20800.0
 30
0.0
 11
18708.43381
 21
20800.0
 31
0.0
  0
LINE
  5
EABC2557E039A858
100
AcDbEntity
  8
SIMPLE
  6
CONTINUOUS
 62
     0
100
AcDbLine
 10
19489.56619
 20
20800.0
 30
0.0
 11
22999.0
 21
20800.0
 31
0.0
  0
ENDBLK
  5
EABC2557E039A85D
100
AcDbEntity
  8
SIMPLE
  6
CONTINUOUS
 62
     5
100
AcDbBlockEnd
  0
BLOCK
  5
EABC2557E039A86A
100
AcDbEntity
  8
SIMPLE
  6
CONTINUOUS
 62
     5
100
AcDbBlockBegin
  2
*D9
 70
     1
 10
0.0
 20
0.0
 30
0.0
  1

  0
POINT
  5
EABC2557E039A863
100
AcDbEntity
  8
SIMPLE
  6
CONTINUOUS
 62
     0
100
AcDbPoint
 10
15099.0
 20
19600.0
 30
0.0
  0
POINT
  5
EABC2557E039A864
100
AcDbEntity
  8
SIMPLE
  6
CONTINUOUS
 62
     0
100
AcDbPoint
 10
23099.0
 20
19600.0
 30
0.0
  0
LINE
  5
EABC2557E039A85E
100
AcDbEntity
  8
SIMPLE
  6
CONTINUOUS
 62
     0
100
AcDbLine
 10
15099.0
 20
19650.0
 30
0.0
 11
15099.0
 21
20850.0
 31
0.0
  0
LINE
  5
EABC2557E039A85F
100
AcDbEntity
  8
SIMPLE
  6
CONTINUOUS
 62
     0
100
AcDbLine
 10
23099.0
 20
19650.0
 30
0.0
 11
23099.0
 21
20850.0
 31
0.0
  0
TEXT
  5
EABC2557E039A865
100
AcDbEntity
  8
SIMPLE
  6
CONTINUOUS
 62
     0
100
AcDbText
 10
18708.52381
 20
20750.0
 30
0.0
 40
100.0
  1
8000.0000
  7
SIMPLEX
 72
     1
 11
19099.0
 21
20750.0
 31
0.0
100
AcDbText
  0
SOLID
  5
EABC2557E039A860
100
AcDbEntity
  8
SIMPLE
  6
CONTINUOUS
 62
     0
100
AcDbTrace
 10
15199.0
 20
20783.333333
 30
0.0
 11
15199.0
 21
20816.666667
 31
0.0
 12
15099.0
 22
20800.0
 32
0.0
 13
15099.0
 23
20800.0
 33
0.0
  0
SOLID
  5
EABC2557E039A861
100
AcDbEntity
  8
SIMPLE
  6
CONTINUOUS
 62
     0
100
AcDbTrace
 10
22999.0
 20
20816.666667
 30
0.0
 11
22999.0
 21
20783.333333
 31
0.0
 12
23099.0
 22
20800.0
 32
0.0
 13
23099.0
 23
20800.0
 33
0.0
  0
LINE
  5
EABC2557E039A866
100
AcDbEntity
  8
SIMPLE
  6
CONTINUOUS
 62
     0
100
AcDbLine
 10
15199.0
 20
20800.0
 30
0.0
 11
18708.43381
 21
20800.0
 31
0.0
  0
LINE
  5
EABC2557E039A867
100
AcDbEntity
  8
SIMPLE
  6
CONTINUOUS
 62
     0
100
AcDbLine
 10
19489.56619
 20
20800.0
 30
0.0
 11
22999.0
 21
20800.0
 31
0.0
  0
ENDBLK
  5
EABC2557E039A86C
100
AcDbEntity
  8
SIMPLE
  6
CONTINUOUS
 62
     5
100
AcDbBlockEnd
  0
BLOCK
  5
EABC2557E039A87A
100
AcDbEntity
  8
SIMPLE
  6
CONTINUOUS
 62
     5
100
AcDbBlockBegin
  2
*D10
 70
     1
 10
0.0
 20
0.0
 30
0.0
  1

  0
POINT
  5
EABC2557E039A873
100
AcDbEntity
  8
SIMPLE
  6
CONTINUOUS
 62
     0
100
AcDbPoint
 10
15100.0
 20
18800.0
 30
0.0
  0
POINT
  5
EABC2557E039A874
100
AcDbEntity
  8
SIMPLE
  6
CONTINUOUS
 62
     0
100
AcDbPoint
 10
16000.0
 20
18000.0
 30
0.0
  0
LINE
  5
EABC2557E039A86E
100
AcDbEntity
  8
SIMPLE
  6
CONTINUOUS
 62
     0
100
AcDbLine
 10
15100.0
 20
18850.0
 30
0.0
 11
15100.0
 21
20250.0
 31
0.0
  0
LINE
  5
EABC2557E039A86F
100
AcDbEntity
  8
SIMPLE
  6
CONTINUOUS
 62
     0
100
AcDbLine
 10
16000.0
 20
18050.0
 30
0.0
 11
16000.0
 21
20250.0
 31
0.0
  0
TEXT
  5
EABC2557E039A875
100
AcDbEntity
  8
SIMPLE
  6
CONTINUOUS
 62
     0
100
AcDbText
 10
15207.142857
 20
20150.0
 30
0.0
 40
100.0
  1
900.0000
  7
SIMPLEX
 72
     1
 11
15550.0
 21
20150.0
 31
0.0
100
AcDbText
  0
SOLID
  5
EABC2557E039A870
100
AcDbEntity
  8
SIMPLE
  6
CONTINUOUS
 62
     0
100
AcDbTrace
 10
15200.0
 20
20183.333333
 30
0.0
 11
15200.0
 21
20216.666667
 31
0.0
 12
15100.0
 22
20200.0
 32
0.0
 13
15100.0
 23
20200.0
 33
0.0
  0
SOLID
  5
EABC2557E039A871
100
AcDbEntity
  8
SIMPLE
  6
CONTINUOUS
 62
     0
100
AcDbTrace
 10
15900.0
 20
20216.666667
 30
0.0
 11
15900.0
 21
20183.333333
 31
0.0
 12
16000.0
 22
20200.0
 32
0.0
 13
16000.0
 23
20200.0
 33
0.0
  0
LINE
  5
EABC2557E039A876
100
AcDbEntity
  8
SIMPLE
  6
CONTINUOUS
 62
     0
100
AcDbLine
 10
15200.0
 20
20200.0
 30
0.0
 11
15207.052857
 21
20200.0
 31
0.0
  0
LINE
  5
EABC2557E039A877
100
AcDbEntity
  8
SIMPLE
  6
CONTINUOUS
 62
     0
100
AcDbLine
 10
15892.947143
 20
20200.0
 30
0.0
 11
15900.0
 21
20200.0
 31
0.0
  0
ENDBLK
  5
EABC2557E039A87C
100
AcDbEntity
  8
SIMPLE
  6
CONTINUOUS
 62
     5
100
AcDbBlockEnd
  0
BLOCK
  5
EABC2557E039A88A
100
AcDbEntity
  8
SIMPLE
  6
CONTINUOUS
 62
     5
100
AcDbBlockBegin
  2
*D11
 70
     1
 10
0.0
 20
0.0
 30
0.0
  1

  0
POINT
  5
EABC2557E039A883
100
AcDbEntity
  8
SIMPLE
  6
CONTINUOUS
 62
     0
100
AcDbPoint
 10
16200.0
 20
15900.0
 30
0.0
  0
POINT
  5
EABC2557E039A884
100
AcDbEntity
  8
SIMPLE
  6
CONTINUOUS
 62
     0
100
AcDbPoint
 10
17600.0
 20
15900.0
 30
0.0
  0
LINE
  5
EABC2557E039A87E
100
AcDbEntity
  8
SIMPLE
  6
CONTINUOUS
 62
     0
100
AcDbLine
 10
16200.0
 20
15950.0
 30
0.0
 11
16200.0
 21
20250.0
 31
0.0
  0
LINE
  5
EABC2557E039A87F
100
AcDbEntity
  8
SIMPLE
  6
CONTINUOUS
 62
     0
100
AcDbLine
 10
17600.0
 20
15950.0
 30
0.0
 11
17600.0
 21
20250.0
 31
0.0
  0
TEXT
  5
EABC2557E039A885
100
AcDbEntity
  8
SIMPLE
  6
CONTINUOUS
 62
     0
100
AcDbText
 10
16519.047619
 20
20150.0
 30
0.0
 40
100.0
  1
1400.0000
  7
SIMPLEX
 72
     1
 11
16900.0
 21
20150.0
 31
0.0
100
AcDbText
  0
SOLID
  5
EABC2557E039A880
100
AcDbEntity
  8
SIMPLE
  6
CONTINUOUS
 62
     0
100
AcDbTrace
 10
16300.0
 20
20183.333333
 30
0.0
 11
16300.0
 21
20216.666667
 31
0.0
 12
16200.0
 22
20200.0
 32
0.0
 13
16200.0
 23
20200.0
 33
0.0
  0
SOLID
  5
EABC2557E039A881
100
AcDbEntity
  8
SIMPLE
  6
CONTINUOUS
 62
     0
100
AcDbTrace
 10
17500.0
 20
20216.666667
 30
0.0
 11
17500.0
 21
20183.333333
 31
0.0
 12
17600.0
 22
20200.0
 32
0.0
 13
17600.0
 23
20200.0
 33
0.0
  0
LINE
  5
EABC2557E039A886
100
AcDbEntity
  8
SIMPLE
  6
CONTINUOUS
 62
     0
100
AcDbLine
 10
16300.0
 20
20200.0
 30
0.0
 11
16518.957619
 21
20200.0
 31
0.0
  0
LINE
  5
EABC2557E039A887
100
AcDbEntity
  8
SIMPLE
  6
CONTINUOUS
 62
     0
100
AcDbLine
 10
17281.042381
 20
20200.0
 30
0.0
 11
17500.0
 21
20200.0
 31
0.0
  0
ENDBLK
  5
EABC2557E039A88C
100
AcDbEntity
  8
SIMPLE
  6
CONTINUOUS
 62
     5
100
AcDbBlockEnd
  0
BLOCK
  5
EABC2557E039A8B4
100
AcDbEntity
  8
SIMPLE
  6
CONTINUOUS
 62
     5
100
AcDbBlockBegin
  2
*D12
 70
     1
 10
0.0
 20
0.0
 30
0.0
  1

  0
POINT
  5
EABC2557E039A8AD
100
AcDbEntity
  8
SIMPLE
  6
CONTINUOUS
 62
     0
100
AcDbPoint
 10
16200.0
 20
15900.0
 30
0.0
  0
POINT
  5
EABC2557E039A8AE
100
AcDbEntity
  8
SIMPLE
  6
CONTINUOUS
 62
     0
100
AcDbPoint
 10
17400.0
 20
15900.0
 30
0.0
  0
LINE
  5
EABC2557E039A8A8
100
AcDbEntity
  8
SIMPLE
  6
CONTINUOUS
 62
     0
100
AcDbLine
 10
16200.0
 20
15950.0
 30
0.0
 11
16200.0
 21
20250.0
 31
0.0
  0
LINE
  5
EABC2557E039A8A9
100
AcDbEntity
  8
SIMPLE
  6
CONTINUOUS
 62
     0
100
AcDbLine
 10
17400.0
 20
15950.0
 30
0.0
 11
17400.0
 21
20250.0
 31
0.0
  0
TEXT
  5
EABC2557E039A8AF
100
AcDbEntity
  8
SIMPLE
  6
CONTINUOUS
 62
     0
100
AcDbText
 10
16419.047619
 20
20150.0
 30
0.0
 40
100.0
  1
1200.0000
  7
SIMPLEX
 72
     1
 11
16800.0
 21
20150.0
 31
0.0
100
AcDbText
  0
SOLID
  5
EABC2557E039A8AA
100
AcDbEntity
  8
SIMPLE
  6
CONTINUOUS
 62
     0
100
AcDbTrace
 10
16300.0
 20
20183.333333
 30
0.0
 11
16300.0
 21
20216.666667
 31
0.0
 12
16200.0
 22
20200.0
 32
0.0
 13
16200.0
 23
20200.0
 33
0.0
  0
SOLID
  5
EABC2557E039A8AB
100
AcDbEntity
  8
SIMPLE
  6
CONTINUOUS
 62
     0
100
AcDbTrace
 10
17300.0
 20
20216.666667
 30
0.0
 11
17300.0
 21
20183.333333
 31
0.0
 12
17400.0
 22
20200.0
 32
0.0
 13
17400.0
 23
20200.0
 33
0.0
  0
LINE
  5
EABC2557E039A8B0
100
AcDbEntity
  8
SIMPLE
  6
CONTINUOUS
 62
     0
100
AcDbLine
 10
16300.0
 20
20200.0
 30
0.0
 11
16418.957619
 21
20200.0
 31
0.0
  0
LINE
  5
EABC2557E039A8B1
100
AcDbEntity
  8
SIMPLE
  6
CONTINUOUS
 62
     0
100
AcDbLine
 10
17181.042381
 20
20200.0
 30
0.0
 11
17300.0
 21
20200.0
 31
0.0
  0
ENDBLK
  5
EABC2557E039A8B6
100
AcDbEntity
  8
SIMPLE
  6
CONTINUOUS
 62
     5
100
AcDbBlockEnd
  0
BLOCK
  5
EABC2557E039A8C4
100
AcDbEntity
  8
SIMPLE
  6
CONTINUOUS
 62
     5
100
AcDbBlockBegin
  2
*D13
 70
     1
 10
0.0
 20
0.0
 30
0.0
  1

  0
POINT
  5
EABC2557E039A8BD
100
AcDbEntity
  8
SIMPLE
  6
CONTINUOUS
 62
     0
100
AcDbPoint
 10
17600.0
 20
14000.0
 30
0.0
  0
POINT
  5
EABC2557E039A8BE
100
AcDbEntity
  8
SIMPLE
  6
CONTINUOUS
 62
     0
100
AcDbPoint
 10
17600.0
 20
20200.0
 30
0.0
  0
LINE
  5
EABC2557E039A8B8
100
AcDbEntity
  8
SIMPLE
  6
CONTINUOUS
 62
     0
100
AcDbLine
 10
17600.0
 20
14050.0
 30
0.0
 11
17600.0
 21
20250.0
 31
0.0
  0
LINE
  5
EABC2557E039A8B9
100
AcDbEntity
  8
SIMPLE
  6
CONTINUOUS
 62
     0
100
AcDbLine
 10
17600.0
 20
20150.0
 30
0.0
 11
17600.0
 21
20150.0
 31
0.0
  0
TEXT
  5
EABC2557E039A8BF
100
AcDbEntity
  8
SIMPLE
  6
CONTINUOUS
 62
     0
100
AcDbText
 10
17600.18
 20
20150.0
 30
0.0
 40
100.0
  1
3.7963E-013
  7
SIMPLEX
 72
     1
 11
18088.275238
 21
20150.0
 31
0.0
100
AcDbText
  0
SOLID
  5
EABC2557E039A8BA
100
AcDbEntity
  8
SIMPLE
  6
CONTINUOUS
 62
     0
100
AcDbTrace
 10
17700.0
 20
20183.333333
 30
0.0
 11
17700.0
 21
20216.666667
 31
0.0
 12
17600.0
 22
20200.0
 32
0.0
 13
17600.0
 23
20200.0
 33
0.0
  0
SOLID
  5
EABC2557E039A8BB
100
AcDbEntity
  8
SIMPLE
  6
CONTINUOUS
 62
     0
100
AcDbTrace
 10
17500.0
 20
20216.666667
 30
0.0
 11
17500.0
 21
20183.333333
 31
0.0
 12
17600.0
 22
20200.0
 32
0.0
 13
17600.0
 23
20200.0
 33
0.0
  0
LINE
  5
EABC2557E039A8C0
100
AcDbEntity
  8
SIMPLE
  6
CONTINUOUS
 62
     0
100
AcDbLine
 10
17600.0
 20
20200.0
 30
0.0
 11
17600.0
 21
20200.0
 31
0.0
  0
LINE
  5
EABC2557E039A8C1
100
AcDbEntity
  8
SIMPLE
  6
CONTINUOUS
 62
     0
100
AcDbLine
 10
17600.0
 20
20200.0
 30
0.0
 11
17600.0
 21
20200.0
 31
0.0
  0
ENDBLK
  5
EABC2557E039A8C6
100
AcDbEntity
  8
SIMPLE
  6
CONTINUOUS
 62
     5
100
AcDbBlockEnd
  0
BLOCK
  5
EABC2557E039A8D4
100
AcDbEntity
  8
SIMPLE
  6
CONTINUOUS
 62
     5
100
AcDbBlockBegin
  2
*D14
 70
     1
 10
0.0
 20
0.0
 30
0.0
  1

  0
POINT
  5
EABC2557E039A8CD
100
AcDbEntity
  8
SIMPLE
  6
CONTINUOUS
 62
     0
100
AcDbPoint
 10
17600.0
 20
14500.0
 30
0.0
  0
POINT
  5
EABC2557E039A8CE
100
AcDbEntity
  8
SIMPLE
  6
CONTINUOUS
 62
     0
100
AcDbPoint
 10
18000.0
 20
20200.0
 30
0.0
  0
LINE
  5
EABC2557E039A8C8
100
AcDbEntity
  8
SIMPLE
  6
CONTINUOUS
 62
     0
100
AcDbLine
 10
17600.0
 20
14550.0
 30
0.0
 11
17600.0
 21
20250.0
 31
0.0
  0
LINE
  5
EABC2557E039A8C9
100
AcDbEntity
  8
SIMPLE
  6
CONTINUOUS
 62
     0
100
AcDbLine
 10
18000.0
 20
20150.0
 30
0.0
 11
18000.0
 21
20150.0
 31
0.0
  0
TEXT
  5
EABC2557E039A8CF
100
AcDbEntity
  8
SIMPLE
  6
CONTINUOUS
 62
     0
100
AcDbText
 10
18200.18
 20
20150.0
 30
0.0
 40
100.0
  1
400.0000
  7
SIMPLEX
 72
     1
 11
18543.037143
 21
20150.0
 31
0.0
100
AcDbText
  0
SOLID
  5
EABC2557E039A8CA
100
AcDbEntity
  8
SIMPLE
  6
CONTINUOUS
 62
     0
100
AcDbTrace
 10
17500.0
 20
20216.666667
 30
0.0
 11
17500.0
 21
20183.333333
 31
0.0
 12
17600.0
 22
20200.0
 32
0.0
 13
17600.0
 23
20200.0
 33
0.0
  0
SOLID
  5
EABC2557E039A8CB
100
AcDbEntity
  8
SIMPLE
  6
CONTINUOUS
 62
     0
100
AcDbTrace
 10
18100.0
 20
20183.333333
 30
0.0
 11
18100.0
 21
20216.666667
 31
0.0
 12
18000.0
 22
20200.0
 32
0.0
 13
18000.0
 23
20200.0
 33
0.0
  0
LINE
  5
EABC2557E039A8D0
100
AcDbEntity
  8
SIMPLE
  6
CONTINUOUS
 62
     0
100
AcDbLine
 10
17500.0
 20
20200.0
 30
0.0
 11
17400.0
 21
20200.0
 31
0.0
  0
LINE
  5
EABC2557E039A8D1
100
AcDbEntity
  8
SIMPLE
  6
CONTINUOUS
 62
     0
100
AcDbLine
 10
18100.0
 20
20200.0
 30
0.0
 11
18200.0
 21
20200.0
 31
0.0
  0
ENDBLK
  5
EABC2557E039A8D6
100
AcDbEntity
  8
SIMPLE
  6
CONTINUOUS
 62
     5
100
AcDbBlockEnd
  0
BLOCK
  5
EABC2557E039A8E4
100
AcDbEntity
  8
SIMPLE
  6
CONTINUOUS
 62
     5
100
AcDbBlockBegin
  2
*D15
 70
     1
 10
0.0
 20
0.0
 30
0.0
  1

  0
POINT
  5
EABC2557E039A8DD
100
AcDbEntity
  8
SIMPLE
  6
CONTINUOUS
 62
     0
100
AcDbPoint
 10
17600.0
 20
14000.0
 30
0.0
  0
POINT
  5
EABC2557E039A8DE
100
AcDbEntity
  8
SIMPLE
  6
CONTINUOUS
 62
     0
100
AcDbPoint
 10
18000.0
 20
14000.0
 30
0.0
  0
LINE
  5
EABC2557E039A8D8
100
AcDbEntity
  8
SIMPLE
  6
CONTINUOUS
 62
     0
100
AcDbLine
 10
17600.0
 20
14050.0
 30
0.0
 11
17600.0
 21
20250.0
 31
0.0
  0
LINE
  5
EABC2557E039A8D9
100
AcDbEntity
  8
SIMPLE
  6
CONTINUOUS
 62
     0
100
AcDbLine
 10
18000.0
 20
14050.0
 30
0.0
 11
18000.0
 21
20250.0
 31
0.0
  0
TEXT
  5
EABC2557E039A8DF
100
AcDbEntity
  8
SIMPLE
  6
CONTINUOUS
 62
     0
100
AcDbText
 10
18200.18
 20
20150.0
 30
0.0
 40
100.0
  1
400.0000
  7
SIMPLEX
 72
     1
 11
18543.037143
 21
20150.0
 31
0.0
100
AcDbText
  0
SOLID
  5
EABC2557E039A8DA
100
AcDbEntity
  8
SIMPLE
  6
CONTINUOUS
 62
     0
100
AcDbTrace
 10
17500.0
 20
20216.666667
 30
0.0
 11
17500.0
 21
20183.333333
 31
0.0
 12
17600.0
 22
20200.0
 32
0.0
 13
17600.0
 23
20200.0
 33
0.0
  0
SOLID
  5
EABC2557E039A8DB
100
AcDbEntity
  8
SIMPLE
  6
CONTINUOUS
 62
     0
100
AcDbTrace
 10
18100.0
 20
20183.333333
 30
0.0
 11
18100.0
 21
20216.666667
 31
0.0
 12
18000.0
 22
20200.0
 32
0.0
 13
18000.0
 23
20200.0
 33
0.0
  0
LINE
  5
EABC2557E039A8E0
100
AcDbEntity
  8
SIMPLE
  6
CONTINUOUS
 62
     0
100
AcDbLine
 10
17500.0
 20
20200.0
 30
0.0
 11
17400.0
 21
20200.0
 31
0.0
  0
LINE
  5
EABC2557E039A8E1
100
AcDbEntity
  8
SIMPLE
  6
CONTINUOUS
 62
     0
100
AcDbLine
 10
18100.0
 20
20200.0
 30
0.0
 11
18200.0
 21
20200.0
 31
0.0
  0
ENDBLK
  5
EABC2557E039A8E6
100
AcDbEntity
  8
SIMPLE
  6
CONTINUOUS
 62
     5
100
AcDbBlockEnd
  0
BLOCK
  5
EABC2557E039A8F4
100
AcDbEntity
  8
SIMPLE
  6
CONTINUOUS
 62
     5
100
AcDbBlockBegin
  2
*D16
 70
     1
 10
0.0
 20
0.0
 30
0.0
  1

  0
POINT
  5
EABC2557E039A8ED
100
AcDbEntity
  8
SIMPLE
  6
CONTINUOUS
 62
     0
100
AcDbPoint
 10
21800.0
 20
15900.0
 30
0.0
  0
POINT
  5
EABC2557E039A8EE
100
AcDbEntity
  8
SIMPLE
  6
CONTINUOUS
 62
     0
100
AcDbPoint
 10
21100.0
 20
20200.0
 30
0.0
  0
LINE
  5
EABC2557E039A8E8
100
AcDbEntity
  8
SIMPLE
  6
CONTINUOUS
 62
     0
100
AcDbLine
 10
21800.0
 20
15950.0
 30
0.0
 11
21800.0
 21
20250.0
 31
0.0
  0
LINE
  5
EABC2557E039A8E9
100
AcDbEntity
  8
SIMPLE
  6
CONTINUOUS
 62
     0
100
AcDbLine
 10
21100.0
 20
20150.0
 30
0.0
 11
21100.0
 21
20150.0
 31
0.0
  0
TEXT
  5
EABC2557E039A8EF
100
AcDbEntity
  8
SIMPLE
  6
CONTINUOUS
 62
     0
100
AcDbText
 10
20214.105714
 20
20150.0
 30
0.0
 40
100.0
  1
700.0000
  7
SIMPLEX
 72
     1
 11
20556.962857
 21
20150.0
 31
0.0
100
AcDbText
  0
SOLID
  5
EABC2557E039A8EA
100
AcDbEntity
  8
SIMPLE
  6
CONTINUOUS
 62
     0
100
AcDbTrace
 10
21900.0
 20
20183.333333
 30
0.0
 11
21900.0
 21
20216.666667
 31
0.0
 12
21800.0
 22
20200.0
 32
0.0
 13
21800.0
 23
20200.0
 33
0.0
  0
SOLID
  5
EABC2557E039A8EB
100
AcDbEntity
  8
SIMPLE
  6
CONTINUOUS
 62
     0
100
AcDbTrace
 10
21000.0
 20
20216.666667
 30
0.0
 11
21000.0
 21
20183.333333
 31
0.0
 12
21100.0
 22
20200.0
 32
0.0
 13
21100.0
 23
20200.0
 33
0.0
  0
LINE
  5
EABC2557E039A8F0
100
AcDbEntity
  8
SIMPLE
  6
CONTINUOUS
 62
     0
100
AcDbLine
 10
21900.0
 20
20200.0
 30
0.0
 11
22000.0
 21
20200.0
 31
0.0
  0
LINE
  5
EABC2557E039A8F1
100
AcDbEntity
  8
SIMPLE
  6
CONTINUOUS
 62
     0
100
AcDbLine
 10
21000.0
 20
20200.0
 30
0.0
 11
20900.0
 21
20200.0
 31
0.0
  0
ENDBLK
  5
EABC2557E039A8F6
100
AcDbEntity
  8
SIMPLE
  6
CONTINUOUS
 62
     5
100
AcDbBlockEnd
  0
BLOCK
  5
EABC2557E039A905
100
AcDbEntity
  8
SIMPLE
  6
CONTINUOUS
 62
     5
100
AcDbBlockBegin
  2
*D17
 70
     1
 10
0.0
 20
0.0
 30
0.0
  1

  0
POINT
  5
EABC2557E039A8FE
100
AcDbEntity
  8
SIMPLE
  6
CONTINUOUS
 62
     0
100
AcDbPoint
 10
21800.0
 20
15900.0
 30
0.0
  0
POINT
  5
EABC2557E039A8FF
100
AcDbEntity
  8
SIMPLE
  6
CONTINUOUS
 62
     0
100
AcDbPoint
 10
21000.0
 20
15900.0
 30
0.0
  0
LINE
  5
EABC2557E039A8F9
100
AcDbEntity
  8
SIMPLE
  6
CONTINUOUS
 62
     0
100
AcDbLine
 10
21800.0
 20
15950.0
 30
0.0
 11
21800.0
 21
20250.0
 31
0.0
  0
LINE
  5
EABC2557E039A8FA
100
AcDbEntity
  8
SIMPLE
  6
CONTINUOUS
 62
     0
100
AcDbLine
 10
21000.0
 20
15950.0
 30
0.0
 11
21000.0
 21
20250.0
 31
0.0
  0
TEXT
  5
EABC2557E039A900
100
AcDbEntity
  8
SIMPLE
  6
CONTINUOUS
 62
     0
100
AcDbText
 10
21057.142857
 20
20150.0
 30
0.0
 40
100.0
  1
800.0000
  7
SIMPLEX
 72
     1
 11
21400.0
 21
20150.0
 31
0.0
100
AcDbText
  0
SOLID
  5
EABC2557E039A8FB
100
AcDbEntity
  8
SIMPLE
  6
CONTINUOUS
 62
     0
100
AcDbTrace
 10
21700.0
 20
20216.666667
 30
0.0
 11
21700.0
 21
20183.333333
 31
0.0
 12
21800.0
 22
20200.0
 32
0.0
 13
21800.0
 23
20200.0
 33
0.0
  0
SOLID
  5
EABC2557E039A8FC
100
AcDbEntity
  8
SIMPLE
  6
CONTINUOUS
 62
     0
100
AcDbTrace
 10
21100.0
 20
20183.333333
 30
0.0
 11
21100.0
 21
20216.666667
 31
0.0
 12
21000.0
 22
20200.0
 32
0.0
 13
21000.0
 23
20200.0
 33
0.0
  0
LINE
  5
EABC2557E039A901
100
AcDbEntity
  8
SIMPLE
  6
CONTINUOUS
 62
     0
100
AcDbLine
 10
21700.0
 20
20200.0
 30
0.0
 11
21100.0
 21
20200.0
 31
0.0
  0
ENDBLK
  5
EABC2557E039A907
100
AcDbEntity
  8
SIMPLE
  6
CONTINUOUS
 62
     5
100
AcDbBlockEnd
  0
BLOCK
  5
EABC2557E039A915
100
AcDbEntity
  8
SIMPLE
  6
CONTINUOUS
 62
     5
100
AcDbBlockBegin
  2
*D18
 70
     1
 10
0.0
 20
0.0
 30
0.0
  1

  0
POINT
  5
EABC2557E039A90E
100
AcDbEntity
  8
SIMPLE
  6
CONTINUOUS
 62
     0
100
AcDbPoint
 10
15900.0
 20
15500.0
 30
0.0
  0
POINT
  5
EABC2557E039A90F
100
AcDbEntity
  8
SIMPLE
  6
CONTINUOUS
 62
     0
100
AcDbPoint
 10
14200.0
 20
15500.0
 30
0.0
  0
LINE
  5
EABC2557E039A909
100
AcDbEntity
  8
SIMPLE
  6
CONTINUOUS
 62
     0
100
AcDbLine
 10
15900.0
 20
15550.0
 30
0.0
 11
15900.0
 21
22550.0
 31
0.0
  0
LINE
  5
EABC2557E039A90A
100
AcDbEntity
  8
SIMPLE
  6
CONTINUOUS
 62
     0
100
AcDbLine
 10
14200.0
 20
15550.0
 30
0.0
 11
14200.0
 21
22550.0
 31
0.0
  0
TEXT
  5
EABC2557E039A910
100
AcDbEntity
  8
SIMPLE
  6
CONTINUOUS
 62
     0
100
AcDbText
 10
14669.047619
 20
22450.0
 30
0.0
 40
100.0
  1
1700.0000
  7
SIMPLEX
 72
     1
 11
15050.0
 21
22450.0
 31
0.0
100
AcDbText
  0
SOLID
  5
EABC2557E039A90B
100
AcDbEntity
  8
SIMPLE
  6
CONTINUOUS
 62
     0
100
AcDbTrace
 10
15800.0
 20
22516.666667
 30
0.0
 11
15800.0
 21
22483.333333
 31
0.0
 12
15900.0
 22
22500.0
 32
0.0
 13
15900.0
 23
22500.0
 33
0.0
  0
SOLID
  5
EABC2557E039A90C
100
AcDbEntity
  8
SIMPLE
  6
CONTINUOUS
 62
     0
100
AcDbTrace
 10
14300.0
 20
22483.333333
 30
0.0
 11
14300.0
 21
22516.666667
 31
0.0
 12
14200.0
 22
22500.0
 32
0.0
 13
14200.0
 23
22500.0
 33
0.0
  0
LINE
  5
EABC2557E039A911
100
AcDbEntity
  8
SIMPLE
  6
CONTINUOUS
 62
     0
100
AcDbLine
 10
15800.0
 20
22500.0
 30
0.0
 11
15431.042381
 21
22500.0
 31
0.0
  0
LINE
  5
EABC2557E039A912
100
AcDbEntity
  8
SIMPLE
  6
CONTINUOUS
 62
     0
100
AcDbLine
 10
14668.957619
 20
22500.0
 30
0.0
 11
14300.0
 21
22500.0
 31
0.0
  0
ENDBLK
  5
EABC2557E039A917
100
AcDbEntity
  8
SIMPLE
  6
CONTINUOUS
 62
     5
100
AcDbBlockEnd
  0
BLOCK
  5
EABC2557E039A925
100
AcDbEntity
  8
SIMPLE
  6
CONTINUOUS
 62
     5
100
AcDbBlockBegin
  2
*D19
 70
     1
 10
0.0
 20
0.0
 30
0.0
  1

  0
POINT
  5
EABC2557E039A91E
100
AcDbEntity
  8
SIMPLE
  6
CONTINUOUS
 62
     0
100
AcDbPoint
 10
16000.0
 20
18000.0
 30
0.0
  0
POINT
  5
EABC2557E039A91F
100
AcDbEntity
  8
SIMPLE
  6
CONTINUOUS
 62
     0
100
AcDbPoint
 10
14200.0
 20
18100.0
 30
0.0
  0
LINE
  5
EABC2557E039A919
100
AcDbEntity
  8
SIMPLE
  6
CONTINUOUS
 62
     0
100
AcDbLine
 10
16000.0
 20
18050.0
 30
0.0
 11
16000.0
 21
19550.0
 31
0.0
  0
LINE
  5
EABC2557E039A91A
100
AcDbEntity
  8
SIMPLE
  6
CONTINUOUS
 62
     0
100
AcDbLine
 10
14200.0
 20
18150.0
 30
0.0
 11
14200.0
 21
19550.0
 31
0.0
  0
TEXT
  5
EABC2557E039A920
100
AcDbEntity
  8
SIMPLE
  6
CONTINUOUS
 62
     0
100
AcDbText
 10
14719.047619
 20
19450.0
 30
0.0
 40
100.0
  1
1800.0000
  7
SIMPLEX
 72
     1
 11
15100.0
 21
19450.0
 31
0.0
100
AcDbText
  0
SOLID
  5
EABC2557E039A91B
100
AcDbEntity
  8
SIMPLE
  6
CONTINUOUS
 62
     0
100
AcDbTrace
 10
15900.0
 20
19516.666667
 30
0.0
 11
15900.0
 21
19483.333333
 31
0.0
 12
16000.0
 22
19500.0
 32
0.0
 13
16000.0
 23
19500.0
 33
0.0
  0
SOLID
  5
EABC2557E039A91C
100
AcDbEntity
  8
SIMPLE
  6
CONTINUOUS
 62
     0
100
AcDbTrace
 10
14300.0
 20
19483.333333
 30
0.0
 11
14300.0
 21
19516.666667
 31
0.0
 12
14200.0
 22
19500.0
 32
0.0
 13
14200.0
 23
19500.0
 33
0.0
  0
LINE
  5
EABC2557E039A921
100
AcDbEntity
  8
SIMPLE
  6
CONTINUOUS
 62
     0
100
AcDbLine
 10
15900.0
 20
19500.0
 30
0.0
 11
15481.042381
 21
19500.0
 31
0.0
  0
LINE
  5
EABC2557E039A922
100
AcDbEntity
  8
SIMPLE
  6
CONTINUOUS
 62
     0
100
AcDbLine
 10
14718.957619
 20
19500.0
 30
0.0
 11
14300.0
 21
19500.0
 31
0.0
  0
ENDBLK
  5
EABC2557E039A927
100
AcDbEntity
  8
SIMPLE
  6
CONTINUOUS
 62
     5
100
AcDbBlockEnd
  0
BLOCK
  5
EABC2557E039A935
100
AcDbEntity
  8
SIMPLE
  6
CONTINUOUS
 62
     5
100
AcDbBlockBegin
  2
*D20
 70
     1
 10
0.0
 20
0.0
 30
0.0
  1

  0
POINT
  5
EABC2557E039A92E
100
AcDbEntity
  8
SIMPLE
  6
CONTINUOUS
 62
     0
100
AcDbPoint
 10
18900.0
 20
14500.0
 30
0.0
  0
POINT
  5
EABC2557E039A92F
100
AcDbEntity
  8
SIMPLE
  6
CONTINUOUS
 62
     0
100
AcDbPoint
 10
20700.0
 20
14500.0
 30
0.0
  0
LINE
  5
EABC2557E039A929
100
AcDbEntity
  8
SIMPLE
  6
CONTINUOUS
 62
     0
100
AcDbLine
 10
18900.0
 20
14550.0
 30
0.0
 11
18900.0
 21
15350.0
 31
0.0
  0
LINE
  5
EABC2557E039A92A
100
AcDbEntity
  8
SIMPLE
  6
CONTINUOUS
 62
     0
100
AcDbLine
 10
20700.0
 20
14550.0
 30
0.0
 11
20700.0
 21
15350.0
 31
0.0
  0
TEXT
  5
EABC2557E039A930
100
AcDbEntity
  8
SIMPLE
  6
CONTINUOUS
 62
     0
100
AcDbText
 10
19419.047619
 20
15250.0
 30
0.0
 40
100.0
  1
1800.0000
  7
SIMPLEX
 72
     1
 11
19800.0
 21
15250.0
 31
0.0
100
AcDbText
  0
SOLID
  5
EABC2557E039A92B
100
AcDbEntity
  8
SIMPLE
  6
CONTINUOUS
 62
     0
100
AcDbTrace
 10
19000.0
 20
15283.333333
 30
0.0
 11
19000.0
 21
15316.666667
 31
0.0
 12
18900.0
 22
15300.0
 32
0.0
 13
18900.0
 23
15300.0
 33
0.0
  0
SOLID
  5
EABC2557E039A92C
100
AcDbEntity
  8
SIMPLE
  6
CONTINUOUS
 62
     0
100
AcDbTrace
 10
20600.0
 20
15316.666667
 30
0.0
 11
20600.0
 21
15283.333333
 31
0.0
 12
20700.0
 22
15300.0
 32
0.0
 13
20700.0
 23
15300.0
 33
0.0
  0
LINE
  5
EABC2557E039A931
100
AcDbEntity
  8
SIMPLE
  6
CONTINUOUS
 62
     0
100
AcDbLine
 10
19000.0
 20
15300.0
 30
0.0
 11
19418.957619
 21
15300.0
 31
0.0
  0
LINE
  5
EABC2557E039A932
100
AcDbEntity
  8
SIMPLE
  6
CONTINUOUS
 62
     0
100
AcDbLine
 10
20181.042381
 20
15300.0
 30
0.0
 11
20600.0
 21
15300.0
 31
0.0
  0
ENDBLK
  5
EABC2557E039A937
100
AcDbEntity
  8
SIMPLE
  6
CONTINUOUS
 62
     5
100
AcDbBlockEnd
  0
BLOCK
  5
EABC2557E039A945
100
AcDbEntity
  8
SIMPLE
  6
CONTINUOUS
 62
     5
100
AcDbBlockBegin
  2
*D21
 70
     1
 10
0.0
 20
0.0
 30
0.0
  1

  0
POINT
  5
EABC2557E039A93E
100
AcDbEntity
  8
SIMPLE
  6
CONTINUOUS
 62
     0
100
AcDbPoint
 10
20700.0
 20
13700.0
 30
0.0
  0
POINT
  5
EABC2557E039A93F
100
AcDbEntity
  8
SIMPLE
  6
CONTINUOUS
 62
     0
100
AcDbPoint
 10
20700.0
 20
14500.0
 30
0.0
  0
LINE
  5
EABC2557E039A939
100
AcDbEntity
  8
SIMPLE
  6
CONTINUOUS
 62
     0
100
AcDbLine
 10
20650.0
 20
13700.0
 30
0.0
 11
20150.0
 21
13700.0
 31
0.0
  0
LINE
  5
EABC2557E039A93A
100
AcDbEntity
  8
SIMPLE
  6
CONTINUOUS
 62
     0
100
AcDbLine
 10
20650.0
 20
14500.0
 30
0.0
 11
20150.0
 21
14500.0
 31
0.0
  0
TEXT
  5
EABC2557E039A940
100
AcDbEntity
  8
SIMPLE
  6
CONTINUOUS
 62
     0
100
AcDbText
 10
19857.142857
 20
14050.0
 30
0.0
 40
100.0
  1
800.0000
  7
SIMPLEX
 72
     1
 11
20200.0
 21
14050.0
 31
0.0
100
AcDbText
  0
SOLID
  5
EABC2557E039A93B
100
AcDbEntity
  8
SIMPLE
  6
CONTINUOUS
 62
     0
100
AcDbTrace
 10
20216.666667
 20
13800.0
 30
0.0
 11
20183.333333
 21
13800.0
 31
0.0
 12
20200.0
 22
13700.0
 32
0.0
 13
20200.0
 23
13700.0
 33
0.0
  0
SOLID
  5
EABC2557E039A93C
100
AcDbEntity
  8
SIMPLE
  6
CONTINUOUS
 62
     0
100
AcDbTrace
 10
20183.333333
 20
14400.0
 30
0.0
 11
20216.666667
 21
14400.0
 31
0.0
 12
20200.0
 22
14500.0
 32
0.0
 13
20200.0
 23
14500.0
 33
0.0
  0
LINE
  5
EABC2557E039A941
100
AcDbEntity
  8
SIMPLE
  6
CONTINUOUS
 62
     0
100
AcDbLine
 10
20200.0
 20
13800.0
 30
0.0
 11
20200.0
 21
14016.576667
 31
0.0
  0
LINE
  5
EABC2557E039A942
100
AcDbEntity
  8
SIMPLE
  6
CONTINUOUS
 62
     0
100
AcDbLine
 10
20200.0
 20
14150.09
 30
0.0
 11
20200.0
 21
14400.0
 31
0.0
  0
ENDBLK
  5
EABC2557E039A947
100
AcDbEntity
  8
SIMPLE
  6
CONTINUOUS
 62
     5
100
AcDbBlockEnd
  0
BLOCK
  5
EABC2557E039A955
100
AcDbEntity
  8
SIMPLE
  6
CONTINUOUS
 62
     5
100
AcDbBlockBegin
  2
*D22
 70
     1
 10
0.0
 20
0.0
 30
0.0
  1

  0
POINT
  5
EABC2557E039A94E
100
AcDbEntity
  8
SIMPLE
  6
CONTINUOUS
 62
     0
100
AcDbPoint
 10
18600.0
 20
14000.0
 30
0.0
  0
POINT
  5
EABC2557E039A94F
100
AcDbEntity
  8
SIMPLE
  6
CONTINUOUS
 62
     0
100
AcDbPoint
 10
18200.0
 20
14000.0
 30
0.0
  0
LINE
  5
EABC2557E039A949
100
AcDbEntity
  8
SIMPLE
  6
CONTINUOUS
 62
     0
100
AcDbLine
 10
18600.0
 20
13950.0
 30
0.0
 11
18600.0
 21
13550.0
 31
0.0
  0
LINE
  5
EABC2557E039A94A
100
AcDbEntity
  8
SIMPLE
  6
CONTINUOUS
 62
     0
100
AcDbLine
 10
18200.0
 20
13950.0
 30
0.0
 11
18200.0
 21
13550.0
 31
0.0
  0
TEXT
  5
EABC2557E039A950
100
AcDbEntity
  8
SIMPLE
  6
CONTINUOUS
 62
     0
100
AcDbText
 10
17314.105714
 20
13550.0
 30
0.0
 40
100.0
  1
400.0000
  7
SIMPLEX
 72
     1
 11
17656.962857
 21
13550.0
 31
0.0
100
AcDbText
  0
SOLID
  5
EABC2557E039A94B
100
AcDbEntity
  8
SIMPLE
  6
CONTINUOUS
 62
     0
100
AcDbTrace
 10
18700.0
 20
13583.333333
 30
0.0
 11
18700.0
 21
13616.666667
 31
0.0
 12
18600.0
 22
13600.0
 32
0.0
 13
18600.0
 23
13600.0
 33
0.0
  0
SOLID
  5
EABC2557E039A94C
100
AcDbEntity
  8
SIMPLE
  6
CONTINUOUS
 62
     0
100
AcDbTrace
 10
18100.0
 20
13616.666667
 30
0.0
 11
18100.0
 21
13583.333333
 31
0.0
 12
18200.0
 22
13600.0
 32
0.0
 13
18200.0
 23
13600.0
 33
0.0
  0
LINE
  5
EABC2557E039A951
100
AcDbEntity
  8
SIMPLE
  6
CONTINUOUS
 62
     0
100
AcDbLine
 10
18700.0
 20
13600.0
 30
0.0
 11
18800.0
 21
13600.0
 31
0.0
  0
LINE
  5
EABC2557E039A952
100
AcDbEntity
  8
SIMPLE
  6
CONTINUOUS
 62
     0
100
AcDbLine
 10
18100.0
 20
13600.0
 30
0.0
 11
18000.0
 21
13600.0
 31
0.0
  0
ENDBLK
  5
EABC2557E039A957
100
AcDbEntity
  8
SIMPLE
  6
CONTINUOUS
 62
     5
100
AcDbBlockEnd
  0
BLOCK
  5
EABC2557E039A973
100
AcDbEntity
  8
SIMPLE
  6
CONTINUOUS
 62
     5
100
AcDbBlockBegin
  2
*D23
 70
     1
 10
0.0
 20
0.0
 30
0.0
  1

  0
POINT
  5
EABC2557E039A96C
100
AcDbEntity
  8
SIMPLE
  6
CONTINUOUS
 62
     0
100
AcDbPoint
 10
22000.0
 20
18000.0
 30
0.0
  0
POINT
  5
EABC2557E039A96D
100
AcDbEntity
  8
SIMPLE
  6
CONTINUOUS
 62
     0
100
AcDbPoint
 10
21900.0
 20
16200.0
 30
0.0
  0
LINE
  5
EABC2557E039A967
100
AcDbEntity
  8
SIMPLE
  6
CONTINUOUS
 62
     0
100
AcDbLine
 10
22050.0
 20
18000.0
 30
0.0
 11
25750.0
 21
18000.0
 31
0.0
  0
LINE
  5
EABC2557E039A968
100
AcDbEntity
  8
SIMPLE
  6
CONTINUOUS
 62
     0
100
AcDbLine
 10
21950.0
 20
16200.0
 30
0.0
 11
25750.0
 21
16200.0
 31
0.0
  0
TEXT
  5
EABC2557E039A96E
100
AcDbEntity
  8
SIMPLE
  6
CONTINUOUS
 62
     0
100
AcDbText
 10
25319.047619
 20
17050.0
 30
0.0
 40
100.0
  1
1800.0000
  7
SIMPLEX
 72
     1
 11
25700.0
 21
17050.0
 31
0.0
100
AcDbText
  0
SOLID
  5
EABC2557E039A969
100
AcDbEntity
  8
SIMPLE
  6
CONTINUOUS
 62
     0
100
AcDbTrace
 10
25683.333333
 20
17900.0
 30
0.0
 11
25716.666667
 21
17900.0
 31
0.0
 12
25700.0
 22
18000.0
 32
0.0
 13
25700.0
 23
18000.0
 33
0.0
  0
SOLID
  5
EABC2557E039A96A
100
AcDbEntity
  8
SIMPLE
  6
CONTINUOUS
 62
     0
100
AcDbTrace
 10
25716.666667
 20
16300.0
 30
0.0
 11
25683.333333
 21
16300.0
 31
0.0
 12
25700.0
 22
16200.0
 32
0.0
 13
25700.0
 23
16200.0
 33
0.0
  0
LINE
  5
EABC2557E039A96F
100
AcDbEntity
  8
SIMPLE
  6
CONTINUOUS
 62
     0
100
AcDbLine
 10
25700.0
 20
17900.0
 30
0.0
 11
25700.0
 21
17150.09
 31
0.0
  0
LINE
  5
EABC2557E039A970
100
AcDbEntity
  8
SIMPLE
  6
CONTINUOUS
 62
     0
100
AcDbLine
 10
25700.0
 20
17016.576667
 30
0.0
 11
25700.0
 21
16300.0
 31
0.0
  0
ENDBLK
  5
EABC2557E039A975
100
AcDbEntity
  8
SIMPLE
  6
CONTINUOUS
 62
     5
100
AcDbBlockEnd
  0
BLOCK
  5
EABC2557E039A983
100
AcDbEntity
  8
SIMPLE
  6
CONTINUOUS
 62
     5
100
AcDbBlockBegin
  2
*D24
 70
     1
 10
0.0
 20
0.0
 30
0.0
  1

  0
POINT
  5
EABC2557E039A97C
100
AcDbEntity
  8
SIMPLE
  6
CONTINUOUS
 62
     0
100
AcDbPoint
 10
26500.0
 20
17000.0
 30
0.0
  0
POINT
  5
EABC2557E039A97D
100
AcDbEntity
  8
SIMPLE
  6
CONTINUOUS
 62
     0
100
AcDbPoint
 10
26500.0
 20
1000.0
 30
0.0
  0
LINE
  5
EABC2557E039A977
100
AcDbEntity
  8
SIMPLE
  6
CONTINUOUS
 62
     0
100
AcDbLine
 10
26550.0
 20
17000.0
 30
0.0
 11
28550.0
 21
17000.0
 31
0.0
  0
LINE
  5
EABC2557E039A978
100
AcDbEntity
  8
SIMPLE
  6
CONTINUOUS
 62
     0
100
AcDbLine
 10
26550.0
 20
1000.0
 30
0.0
 11
28550.0
 21
1000.0
 31
0.0
  0
TEXT
  5
EABC2557E039A97E
100
AcDbEntity
  8
SIMPLE
  6
CONTINUOUS
 62
     0
100
AcDbText
 10
28071.428571
 20
8950.0
 30
0.0
 40
100.0
  1
16000.0000
  7
SIMPLEX
 72
     1
 11
28500.0
 21
8950.0
 31
0.0
100
AcDbText
  0
SOLID
  5
EABC2557E039A979
100
AcDbEntity
  8
SIMPLE
  6
CONTINUOUS
 62
     0
100
AcDbTrace
 10
28483.333333
 20
16900.0
 30
0.0
 11
28516.666667
 21
16900.0
 31
0.0
 12
28500.0
 22
17000.0
 32
0.0
 13
28500.0
 23
17000.0
 33
0.0
  0
SOLID
  5
EABC2557E039A97A
100
AcDbEntity
  8
SIMPLE
  6
CONTINUOUS
 62
     0
100
AcDbTrace
 10
28516.666667
 20
1100.0
 30
0.0
 11
28483.333333
 21
1100.0
 31
0.0
 12
28500.0
 22
1000.0
 32
0.0
 13
28500.0
 23
1000.0
 33
0.0
  0
LINE
  5
EABC2557E039A97F
100
AcDbEntity
  8
SIMPLE
  6
CONTINUOUS
 62
     0
100
AcDbLine
 10
28500.0
 20
16900.0
 30
0.0
 11
28500.0
 21
9050.09
 31
0.0
  0
LINE
  5
EABC2557E039A980
100
AcDbEntity
  8
SIMPLE
  6
CONTINUOUS
 62
     0
100
AcDbLine
 10
28500.0
 20
8916.576667
 30
0.0
 11
28500.0
 21
1100.0
 31
0.0
  0
ENDBLK
  5
EABC2557E039A985
100
AcDbEntity
  8
SIMPLE
  6
CONTINUOUS
 62
     5
100
AcDbBlockEnd
  0
BLOCK
  5
EABC2557E039A993
100
AcDbEntity
  8
SIMPLE
  6
CONTINUOUS
 62
     5
100
AcDbBlockBegin
  2
*D25
 70
     1
 10
0.0
 20
0.0
 30
0.0
  1

  0
POINT
  5
EABC2557E039A98C
100
AcDbEntity
  8
SIMPLE
  6
CONTINUOUS
 62
     0
100
AcDbPoint
 10
24700.0
 20
17100.0
 30
0.0
  0
POINT
  5
EABC2557E039A98D
100
AcDbEntity
  8
SIMPLE
  6
CONTINUOUS
 62
     0
100
AcDbPoint
 10
24700.0
 20
1100.0
 30
0.0
  0
LINE
  5
EABC2557E039A987
100
AcDbEntity
  8
SIMPLE
  6
CONTINUOUS
 62
     0
100
AcDbLine
 10
24750.0
 20
17100.0
 30
0.0
 11
27050.0
 21
17100.0
 31
0.0
  0
LINE
  5
EABC2557E039A988
100
AcDbEntity
  8
SIMPLE
  6
CONTINUOUS
 62
     0
100
AcDbLine
 10
24750.0
 20
1100.0
 30
0.0
 11
27050.0
 21
1100.0
 31
0.0
  0
TEXT
  5
EABC2557E039A98E
100
AcDbEntity
  8
SIMPLE
  6
CONTINUOUS
 62
     0
100
AcDbText
 10
26571.428571
 20
9050.0
 30
0.0
 40
100.0
  1
16000.0000
  7
SIMPLEX
 72
     1
 11
27000.0
 21
9050.0
 31
0.0
100
AcDbText
  0
SOLID
  5
EABC2557E039A989
100
AcDbEntity
  8
SIMPLE
  6
CONTINUOUS
 62
     0
100
AcDbTrace
 10
26983.333333
 20
17000.0
 30
0.0
 11
27016.666667
 21
17000.0
 31
0.0
 12
27000.0
 22
17100.0
 32
0.0
 13
27000.0
 23
17100.0
 33
0.0
  0
SOLID
  5
EABC2557E039A98A
100
AcDbEntity
  8
SIMPLE
  6
CONTINUOUS
 62
     0
100
AcDbTrace
 10
27016.666667
 20
1200.0
 30
0.0
 11
26983.333333
 21
1200.0
 31
0.0
 12
27000.0
 22
1100.0
 32
0.0
 13
27000.0
 23
1100.0
 33
0.0
  0
LINE
  5
EABC2557E039A98F
100
AcDbEntity
  8
SIMPLE
  6
CONTINUOUS
 62
     0
100
AcDbLine
 10
27000.0
 20
17000.0
 30
0.0
 11
27000.0
 21
9150.09
 31
0.0
  0
LINE
  5
EABC2557E039A990
100
AcDbEntity
  8
SIMPLE
  6
CONTINUOUS
 62
     0
100
AcDbLine
 10
27000.0
 20
9016.576667
 30
0.0
 11
27000.0
 21
1200.0
 31
0.0
  0
ENDBLK
  5
EABC2557E039A995
100
AcDbEntity
  8
SIMPLE
  6
CONTINUOUS
 62
     5
100
AcDbBlockEnd
  0
BLOCK
  5
EABC2557E58EBC77
100
AcDbEntity
  8
SIMPLE
  6
CONTINUOUS
100
AcDbBlockBegin
  2
*D26
 70
     1
 10
0.0
 20
0.0
 30
0.0
  1

  0
POINT
  5
EABC2557E58EBC70
100
AcDbEntity
  8
SIMPLE
  6
CONTINUOUS
 62
     0
100
AcDbPoint
 10
15099.0
 20
19600.0
 30
0.0
  0
POINT
  5
EABC2557E58EBC71
100
AcDbEntity
  8
SIMPLE
  6
CONTINUOUS
 62
     0
100
AcDbPoint
 10
23099.0
 20
19600.0
 30
0.0
  0
LINE
  5
EABC2557E58EBC6B
100
AcDbEntity
  8
SIMPLE
  6
CONTINUOUS
 62
     0
100
AcDbLine
 10
15099.0
 20
19650.0
 30
0.0
 11
15099.0
 21
20850.0
 31
0.0
  0
LINE
  5
EABC2557E58EBC6C
100
AcDbEntity
  8
SIMPLE
  6
CONTINUOUS
 62
     0
100
AcDbLine
 10
23099.0
 20
19650.0
 30
0.0
 11
23099.0
 21
20850.0
 31
0.0
  0
TEXT
  5
EABC2557E58EBC72
100
AcDbEntity
  8
SIMPLE
  6
CONTINUOUS
 62
     0
100
AcDbText
 10
18708.52381
 20
20750.0
 30
0.0
 40
100.0
  1
8000.0000
  7
SIMPLEX
 72
     1
 11
19099.0
 21
20750.0
 31
0.0
100
AcDbText
  0
SOLID
  5
EABC2557E58EBC6D
100
AcDbEntity
  8
SIMPLE
  6
CONTINUOUS
 62
     0
100
AcDbTrace
 10
15199.0
 20
20783.333333
 30
0.0
 11
15199.0
 21
20816.666667
 31
0.0
 12
15099.0
 22
20800.0
 32
0.0
 13
15099.0
 23
20800.0
 33
0.0
  0
SOLID
  5
EABC2557E58EBC6E
100
AcDbEntity
  8
SIMPLE
  6
CONTINUOUS
 62
     0
100
AcDbTrace
 10
22999.0
 20
20816.666667
 30
0.0
 11
22999.0
 21
20783.333333
 31
0.0
 12
23099.0
 22
20800.0
 32
0.0
 13
23099.0
 23
20800.0
 33
0.0
  0
LINE
  5
EABC2557E58EBC73
100
AcDbEntity
  8
SIMPLE
  6
CONTINUOUS
 62
     0
100
AcDbLine
 10
15199.0
 20
20800.0
 30
0.0
 11
18708.43381
 21
20800.0
 31
0.0
  0
LINE
  5
EABC2557E58EBC74
100
AcDbEntity
  8
SIMPLE
  6
CONTINUOUS
 62
     0
100
AcDbLine
 10
19489.56619
 20
20800.0
 30
0.0
 11
22999.0
 21
20800.0
 31
0.0
  0
ENDBLK
  5
EABC2557E58EBC79
100
AcDbEntity
  8
SIMPLE
  6
CONTINUOUS
100
AcDbBlockEnd
  0
BLOCK
  5
EABC2557E58EBC86
100
AcDbEntity
  8
SIMPLE
  6
CONTINUOUS
100
AcDbBlockBegin
  2
*D27
 70
     1
 10
0.0
 20
0.0
 30
0.0
  1

  0
POINT
  5
EABC2557E58EBC7F
100
AcDbEntity
  8
SIMPLE
  6
CONTINUOUS
 62
     0
100
AcDbPoint
 10
15100.0
 20
18800.0
 30
0.0
  0
POINT
  5
EABC2557E58EBC80
100
AcDbEntity
  8
SIMPLE
  6
CONTINUOUS
 62
     0
100
AcDbPoint
 10
16000.0
 20
18000.0
 30
0.0
  0
LINE
  5
EABC2557E58EBC7A
100
AcDbEntity
  8
SIMPLE
  6
CONTINUOUS
 62
     0
100
AcDbLine
 10
15100.0
 20
18850.0
 30
0.0
 11
15100.0
 21
20250.0
 31
0.0
  0
LINE
  5
EABC2557E58EBC7B
100
AcDbEntity
  8
SIMPLE
  6
CONTINUOUS
 62
     0
100
AcDbLine
 10
16000.0
 20
18050.0
 30
0.0
 11
16000.0
 21
20250.0
 31
0.0
  0
TEXT
  5
EABC2557E58EBC81
100
AcDbEntity
  8
SIMPLE
  6
CONTINUOUS
 62
     0
100
AcDbText
 10
15207.142857
 20
20150.0
 30
0.0
 40
100.0
  1
900.0000
  7
SIMPLEX
 72
     1
 11
15550.0
 21
20150.0
 31
0.0
100
AcDbText
  0
SOLID
  5
EABC2557E58EBC7C
100
AcDbEntity
  8
SIMPLE
  6
CONTINUOUS
 62
     0
100
AcDbTrace
 10
15200.0
 20
20183.333333
 30
0.0
 11
15200.0
 21
20216.666667
 31
0.0
 12
15100.0
 22
20200.0
 32
0.0
 13
15100.0
 23
20200.0
 33
0.0
  0
SOLID
  5
EABC2557E58EBC7D
100
AcDbEntity
  8
SIMPLE
  6
CONTINUOUS
 62
     0
100
AcDbTrace
 10
15900.0
 20
20216.666667
 30
0.0
 11
15900.0
 21
20183.333333
 31
0.0
 12
16000.0
 22
20200.0
 32
0.0
 13
16000.0
 23
20200.0
 33
0.0
  0
LINE
  5
EABC2557E58EBC82
100
AcDbEntity
  8
SIMPLE
  6
CONTINUOUS
 62
     0
100
AcDbLine
 10
15200.0
 20
20200.0
 30
0.0
 11
15207.052857
 21
20200.0
 31
0.0
  0
LINE
  5
EABC2557E58EBC83
100
AcDbEntity
  8
SIMPLE
  6
CONTINUOUS
 62
     0
100
AcDbLine
 10
15892.947143
 20
20200.0
 30
0.0
 11
15900.0
 21
20200.0
 31
0.0
  0
ENDBLK
  5
EABC2557E58EBC88
100
AcDbEntity
  8
SIMPLE
  6
CONTINUOUS
100
AcDbBlockEnd
  0
BLOCK
  5
EABC2557E58EBC95
100
AcDbEntity
  8
SIMPLE
  6
CONTINUOUS
100
AcDbBlockBegin
  2
*D28
 70
     1
 10
0.0
 20
0.0
 30
0.0
  1

  0
POINT
  5
EABC2557E58EBC8E
100
AcDbEntity
  8
SIMPLE
  6
CONTINUOUS
 62
     0
100
AcDbPoint
 10
16200.0
 20
15900.0
 30
0.0
  0
POINT
  5
EABC2557E58EBC8F
100
AcDbEntity
  8
SIMPLE
  6
CONTINUOUS
 62
     0
100
AcDbPoint
 10
17400.0
 20
15900.0
 30
0.0
  0
LINE
  5
EABC2557E58EBC89
100
AcDbEntity
  8
SIMPLE
  6
CONTINUOUS
 62
     0
100
AcDbLine
 10
16200.0
 20
15950.0
 30
0.0
 11
16200.0
 21
20250.0
 31
0.0
  0
LINE
  5
EABC2557E58EBC8A
100
AcDbEntity
  8
SIMPLE
  6
CONTINUOUS
 62
     0
100
AcDbLine
 10
17400.0
 20
15950.0
 30
0.0
 11
17400.0
 21
20250.0
 31
0.0
  0
TEXT
  5
EABC2557E58EBC90
100
AcDbEntity
  8
SIMPLE
  6
CONTINUOUS
 62
     0
100
AcDbText
 10
16419.047619
 20
20150.0
 30
0.0
 40
100.0
  1
1200.0000
  7
SIMPLEX
 72
     1
 11
16800.0
 21
20150.0
 31
0.0
100
AcDbText
  0
SOLID
  5
EABC2557E58EBC8B
100
AcDbEntity
  8
SIMPLE
  6
CONTINUOUS
 62
     0
100
AcDbTrace
 10
16300.0
 20
20183.333333
 30
0.0
 11
16300.0
 21
20216.666667
 31
0.0
 12
16200.0
 22
20200.0
 32
0.0
 13
16200.0
 23
20200.0
 33
0.0
  0
SOLID
  5
EABC2557E58EBC8C
100
AcDbEntity
  8
SIMPLE
  6
CONTINUOUS
 62
     0
100
AcDbTrace
 10
17300.0
 20
20216.666667
 30
0.0
 11
17300.0
 21
20183.333333
 31
0.0
 12
17400.0
 22
20200.0
 32
0.0
 13
17400.0
 23
20200.0
 33
0.0
  0
LINE
  5
EABC2557E58EBC91
100
AcDbEntity
  8
SIMPLE
  6
CONTINUOUS
 62
     0
100
AcDbLine
 10
16300.0
 20
20200.0
 30
0.0
 11
16418.957619
 21
20200.0
 31
0.0
  0
LINE
  5
EABC2557E58EBC92
100
AcDbEntity
  8
SIMPLE
  6
CONTINUOUS
 62
     0
100
AcDbLine
 10
17181.042381
 20
20200.0
 30
0.0
 11
17300.0
 21
20200.0
 31
0.0
  0
ENDBLK
  5
EABC2557E58EBC97
100
AcDbEntity
  8
SIMPLE
  6
CONTINUOUS
100
AcDbBlockEnd
  0
BLOCK
  5
EABC2557E58EBCA4
100
AcDbEntity
  8
SIMPLE
  6
CONTINUOUS
100
AcDbBlockBegin
  2
*D29
 70
     1
 10
0.0
 20
0.0
 30
0.0
  1

  0
POINT
  5
EABC2557E58EBC9D
100
AcDbEntity
  8
SIMPLE
  6
CONTINUOUS
 62
     0
100
AcDbPoint
 10
17600.0
 20
14000.0
 30
0.0
  0
POINT
  5
EABC2557E58EBC9E
100
AcDbEntity
  8
SIMPLE
  6
CONTINUOUS
 62
     0
100
AcDbPoint
 10
18000.0
 20
14000.0
 30
0.0
  0
LINE
  5
EABC2557E58EBC98
100
AcDbEntity
  8
SIMPLE
  6
CONTINUOUS
 62
     0
100
AcDbLine
 10
17600.0
 20
14050.0
 30
0.0
 11
17600.0
 21
20250.0
 31
0.0
  0
LINE
  5
EABC2557E58EBC99
100
AcDbEntity
  8
SIMPLE
  6
CONTINUOUS
 62
     0
100
AcDbLine
 10
18000.0
 20
14050.0
 30
0.0
 11
18000.0
 21
20250.0
 31
0.0
  0
TEXT
  5
EABC2557E58EBC9F
100
AcDbEntity
  8
SIMPLE
  6
CONTINUOUS
 62
     0
100
AcDbText
 10
18200.18
 20
20150.0
 30
0.0
 40
100.0
  1
400.0000
  7
SIMPLEX
 72
     1
 11
18543.037143
 21
20150.0
 31
0.0
100
AcDbText
  0
SOLID
  5
EABC2557E58EBC9A
100
AcDbEntity
  8
SIMPLE
  6
CONTINUOUS
 62
     0
100
AcDbTrace
 10
17500.0
 20
20216.666667
 30
0.0
 11
17500.0
 21
20183.333333
 31
0.0
 12
17600.0
 22
20200.0
 32
0.0
 13
17600.0
 23
20200.0
 33
0.0
  0
SOLID
  5
EABC2557E58EBC9B
100
AcDbEntity
  8
SIMPLE
  6
CONTINUOUS
 62
     0
100
AcDbTrace
 10
18100.0
 20
20183.333333
 30
0.0
 11
18100.0
 21
20216.666667
 31
0.0
 12
18000.0
 22
20200.0
 32
0.0
 13
18000.0
 23
20200.0
 33
0.0
  0
LINE
  5
EABC2557E58EBCA0
100
AcDbEntity
  8
SIMPLE
  6
CONTINUOUS
 62
     0
100
AcDbLine
 10
17500.0
 20
20200.0
 30
0.0
 11
17400.0
 21
20200.0
 31
0.0
  0
LINE
  5
EABC2557E58EBCA1
100
AcDbEntity
  8
SIMPLE
  6
CONTINUOUS
 62
     0
100
AcDbLine
 10
18100.0
 20
20200.0
 30
0.0
 11
18200.0
 21
20200.0
 31
0.0
  0
ENDBLK
  5
EABC2557E58EBCA6
100
AcDbEntity
  8
SIMPLE
  6
CONTINUOUS
100
AcDbBlockEnd
  0
BLOCK
  5
EABC2557E58EBCB3
100
AcDbEntity
  8
SIMPLE
  6
CONTINUOUS
100
AcDbBlockBegin
  2
*D30
 70
     1
 10
0.0
 20
0.0
 30
0.0
  1

  0
POINT
  5
EABC2557E58EBCAC
100
AcDbEntity
  8
SIMPLE
  6
CONTINUOUS
 62
     0
100
AcDbPoint
 10
21800.0
 20
15900.0
 30
0.0
  0
POINT
  5
EABC2557E58EBCAD
100
AcDbEntity
  8
SIMPLE
  6
CONTINUOUS
 62
     0
100
AcDbPoint
 10
21000.0
 20
15900.0
 30
0.0
  0
LINE
  5
EABC2557E58EBCA7
100
AcDbEntity
  8
SIMPLE
  6
CONTINUOUS
 62
     0
100
AcDbLine
 10
21800.0
 20
15950.0
 30
0.0
 11
21800.0
 21
20250.0
 31
0.0
  0
LINE
  5
EABC2557E58EBCA8
100
AcDbEntity
  8
SIMPLE
  6
CONTINUOUS
 62
     0
100
AcDbLine
 10
21000.0
 20
15950.0
 30
0.0
 11
21000.0
 21
20250.0
 31
0.0
  0
TEXT
  5
EABC2557E58EBCAE
100
AcDbEntity
  8
SIMPLE
  6
CONTINUOUS
 62
     0
100
AcDbText
 10
21057.142857
 20
20150.0
 30
0.0
 40
100.0
  1
800.0000
  7
SIMPLEX
 72
     1
 11
21400.0
 21
20150.0
 31
0.0
100
AcDbText
  0
SOLID
  5
EABC2557E58EBCA9
100
AcDbEntity
  8
SIMPLE
  6
CONTINUOUS
 62
     0
100
AcDbTrace
 10
21700.0
 20
20216.666667
 30
0.0
 11
21700.0
 21
20183.333333
 31
0.0
 12
21800.0
 22
20200.0
 32
0.0
 13
21800.0
 23
20200.0
 33
0.0
  0
SOLID
  5
EABC2557E58EBCAA
100
AcDbEntity
  8
SIMPLE
  6
CONTINUOUS
 62
     0
100
AcDbTrace
 10
21100.0
 20
20183.333333
 30
0.0
 11
21100.0
 21
20216.666667
 31
0.0
 12
21000.0
 22
20200.0
 32
0.0
 13
21000.0
 23
20200.0
 33
0.0
  0
LINE
  5
EABC2557E58EBCAF
100
AcDbEntity
  8
SIMPLE
  6
CONTINUOUS
 62
     0
100
AcDbLine
 10
21700.0
 20
20200.0
 30
0.0
 11
21100.0
 21
20200.0
 31
0.0
  0
ENDBLK
  5
EABC2557E58EBCB5
100
AcDbEntity
  8
SIMPLE
  6
CONTINUOUS
100
AcDbBlockEnd
  0
BLOCK
  5
EABC2557E58EBCC2
100
AcDbEntity
  8
SIMPLE
  6
CONTINUOUS
100
AcDbBlockBegin
  2
*D31
 70
     1
 10
0.0
 20
0.0
 30
0.0
  1

  0
POINT
  5
EABC2557E58EBCBB
100
AcDbEntity
  8
SIMPLE
  6
CONTINUOUS
 62
     0
100
AcDbPoint
 10
16000.0
 20
18000.0
 30
0.0
  0
POINT
  5
EABC2557E58EBCBC
100
AcDbEntity
  8
SIMPLE
  6
CONTINUOUS
 62
     0
100
AcDbPoint
 10
14200.0
 20
18100.0
 30
0.0
  0
LINE
  5
EABC2557E58EBCB6
100
AcDbEntity
  8
SIMPLE
  6
CONTINUOUS
 62
     0
100
AcDbLine
 10
16000.0
 20
18050.0
 30
0.0
 11
16000.0
 21
19550.0
 31
0.0
  0
LINE
  5
EABC2557E58EBCB7
100
AcDbEntity
  8
SIMPLE
  6
CONTINUOUS
 62
     0
100
AcDbLine
 10
14200.0
 20
18150.0
 30
0.0
 11
14200.0
 21
19550.0
 31
0.0
  0
TEXT
  5
EABC2557E58EBCBD
100
AcDbEntity
  8
SIMPLE
  6
CONTINUOUS
 62
     0
100
AcDbText
 10
14719.047619
 20
19450.0
 30
0.0
 40
100.0
  1
1800.0000
  7
SIMPLEX
 72
     1
 11
15100.0
 21
19450.0
 31
0.0
100
AcDbText
  0
SOLID
  5
EABC2557E58EBCB8
100
AcDbEntity
  8
SIMPLE
  6
CONTINUOUS
 62
     0
100
AcDbTrace
 10
15900.0
 20
19516.666667
 30
0.0
 11
15900.0
 21
19483.333333
 31
0.0
 12
16000.0
 22
19500.0
 32
0.0
 13
16000.0
 23
19500.0
 33
0.0
  0
SOLID
  5
EABC2557E58EBCB9
100
AcDbEntity
  8
SIMPLE
  6
CONTINUOUS
 62
     0
100
AcDbTrace
 10
14300.0
 20
19483.333333
 30
0.0
 11
14300.0
 21
19516.666667
 31
0.0
 12
14200.0
 22
19500.0
 32
0.0
 13
14200.0
 23
19500.0
 33
0.0
  0
LINE
  5
EABC2557E58EBCBE
100
AcDbEntity
  8
SIMPLE
  6
CONTINUOUS
 62
     0
100
AcDbLine
 10
15900.0
 20
19500.0
 30
0.0
 11
15481.042381
 21
19500.0
 31
0.0
  0
LINE
  5
EABC2557E58EBCBF
100
AcDbEntity
  8
SIMPLE
  6
CONTINUOUS
 62
     0
100
AcDbLine
 10
14718.957619
 20
19500.0
 30
0.0
 11
14300.0
 21
19500.0
 31
0.0
  0
ENDBLK
  5
EABC2557E58EBCC4
100
AcDbEntity
  8
SIMPLE
  6
CONTINUOUS
100
AcDbBlockEnd
  0
BLOCK
  5
EABC2557E58EBCD1
100
AcDbEntity
  8
SIMPLE
  6
CONTINUOUS
100
AcDbBlockBegin
  2
*D32
 70
     1
 10
0.0
 20
0.0
 30
0.0
  1

  0
POINT
  5
EABC2557E58EBCCA
100
AcDbEntity
  8
SIMPLE
  6
CONTINUOUS
 62
     0
100
AcDbPoint
 10
18900.0
 20
14500.0
 30
0.0
  0
POINT
  5
EABC2557E58EBCCB
100
AcDbEntity
  8
SIMPLE
  6
CONTINUOUS
 62
     0
100
AcDbPoint
 10
20700.0
 20
14500.0
 30
0.0
  0
LINE
  5
EABC2557E58EBCC5
100
AcDbEntity
  8
SIMPLE
  6
CONTINUOUS
 62
     0
100
AcDbLine
 10
18900.0
 20
14550.0
 30
0.0
 11
18900.0
 21
15350.0
 31
0.0
  0
LINE
  5
EABC2557E58EBCC6
100
AcDbEntity
  8
SIMPLE
  6
CONTINUOUS
 62
     0
100
AcDbLine
 10
20700.0
 20
14550.0
 30
0.0
 11
20700.0
 21
15350.0
 31
0.0
  0
TEXT
  5
EABC2557E58EBCCC
100
AcDbEntity
  8
SIMPLE
  6
CONTINUOUS
 62
     0
100
AcDbText
 10
19419.047619
 20
15250.0
 30
0.0
 40
100.0
  1
1800.0000
  7
SIMPLEX
 72
     1
 11
19800.0
 21
15250.0
 31
0.0
100
AcDbText
  0
SOLID
  5
EABC2557E58EBCC7
100
AcDbEntity
  8
SIMPLE
  6
CONTINUOUS
 62
     0
100
AcDbTrace
 10
19000.0
 20
15283.333333
 30
0.0
 11
19000.0
 21
15316.666667
 31
0.0
 12
18900.0
 22
15300.0
 32
0.0
 13
18900.0
 23
15300.0
 33
0.0
  0
SOLID
  5
EABC2557E58EBCC8
100
AcDbEntity
  8
SIMPLE
  6
CONTINUOUS
 62
     0
100
AcDbTrace
 10
20600.0
 20
15316.666667
 30
0.0
 11
20600.0
 21
15283.333333
 31
0.0
 12
20700.0
 22
15300.0
 32
0.0
 13
20700.0
 23
15300.0
 33
0.0
  0
LINE
  5
EABC2557E58EBCCD
100
AcDbEntity
  8
SIMPLE
  6
CONTINUOUS
 62
     0
100
AcDbLine
 10
19000.0
 20
15300.0
 30
0.0
 11
19418.957619
 21
15300.0
 31
0.0
  0
LINE
  5
EABC2557E58EBCCE
100
AcDbEntity
  8
SIMPLE
  6
CONTINUOUS
 62
     0
100
AcDbLine
 10
20181.042381
 20
15300.0
 30
0.0
 11
20600.0
 21
15300.0
 31
0.0
  0
ENDBLK
  5
EABC2557E58EBCD3
100
AcDbEntity
  8
SIMPLE
  6
CONTINUOUS
100
AcDbBlockEnd
  0
BLOCK
  5
EABC2557E58EBCE0
100
AcDbEntity
  8
SIMPLE
  6
CONTINUOUS
100
AcDbBlockBegin
  2
*D33
 70
     1
 10
0.0
 20
0.0
 30
0.0
  1

  0
POINT
  5
EABC2557E58EBCD9
100
AcDbEntity
  8
SIMPLE
  6
CONTINUOUS
 62
     0
100
AcDbPoint
 10
18600.0
 20
14000.0
 30
0.0
  0
POINT
  5
EABC2557E58EBCDA
100
AcDbEntity
  8
SIMPLE
  6
CONTINUOUS
 62
     0
100
AcDbPoint
 10
18200.0
 20
14000.0
 30
0.0
  0
LINE
  5
EABC2557E58EBCD4
100
AcDbEntity
  8
SIMPLE
  6
CONTINUOUS
 62
     0
100
AcDbLine
 10
18600.0
 20
13950.0
 30
0.0
 11
18600.0
 21
13550.0
 31
0.0
  0
LINE
  5
EABC2557E58EBCD5
100
AcDbEntity
  8
SIMPLE
  6
CONTINUOUS
 62
     0
100
AcDbLine
 10
18200.0
 20
13950.0
 30
0.0
 11
18200.0
 21
13550.0
 31
0.0
  0
TEXT
  5
EABC2557E58EBCDB
100
AcDbEntity
  8
SIMPLE
  6
CONTINUOUS
 62
     0
100
AcDbText
 10
17314.105714
 20
13550.0
 30
0.0
 40
100.0
  1
400.0000
  7
SIMPLEX
 72
     1
 11
17656.962857
 21
13550.0
 31
0.0
100
AcDbText
  0
SOLID
  5
EABC2557E58EBCD6
100
AcDbEntity
  8
SIMPLE
  6
CONTINUOUS
 62
     0
100
AcDbTrace
 10
18700.0
 20
13583.333333
 30
0.0
 11
18700.0
 21
13616.666667
 31
0.0
 12
18600.0
 22
13600.0
 32
0.0
 13
18600.0
 23
13600.0
 33
0.0
  0
SOLID
  5
EABC2557E58EBCD7
100
AcDbEntity
  8
SIMPLE
  6
CONTINUOUS
 62
     0
100
AcDbTrace
 10
18100.0
 20
13616.666667
 30
0.0
 11
18100.0
 21
13583.333333
 31
0.0
 12
18200.0
 22
13600.0
 32
0.0
 13
18200.0
 23
13600.0
 33
0.0
  0
LINE
  5
EABC2557E58EBCDC
100
AcDbEntity
  8
SIMPLE
  6
CONTINUOUS
 62
     0
100
AcDbLine
 10
18700.0
 20
13600.0
 30
0.0
 11
18800.0
 21
13600.0
 31
0.0
  0
LINE
  5
EABC2557E58EBCDD
100
AcDbEntity
  8
SIMPLE
  6
CONTINUOUS
 62
     0
100
AcDbLine
 10
18100.0
 20
13600.0
 30
0.0
 11
18000.0
 21
13600.0
 31
0.0
  0
ENDBLK
  5
EABC2557E58EBCE2
100
AcDbEntity
  8
SIMPLE
  6
CONTINUOUS
100
AcDbBlockEnd
  0
BLOCK
  5
EABC2557E58EBCEF
100
AcDbEntity
  8
SIMPLE
  6
CONTINUOUS
100
AcDbBlockBegin
  2
*D34
 70
     1
 10
0.0
 20
0.0
 30
0.0
  1

  0
POINT
  5
EABC2557E58EBCE8
100
AcDbEntity
  8
SIMPLE
  6
CONTINUOUS
 62
     0
100
AcDbPoint
 10
22000.0
 20
18000.0
 30
0.0
  0
POINT
  5
EABC2557E58EBCE9
100
AcDbEntity
  8
SIMPLE
  6
CONTINUOUS
 62
     0
100
AcDbPoint
 10
21900.0
 20
16200.0
 30
0.0
  0
LINE
  5
EABC2557E58EBCE3
100
AcDbEntity
  8
SIMPLE
  6
CONTINUOUS
 62
     0
100
AcDbLine
 10
22050.0
 20
18000.0
 30
0.0
 11
25750.0
 21
18000.0
 31
0.0
  0
LINE
  5
EABC2557E58EBCE4
100
AcDbEntity
  8
SIMPLE
  6
CONTINUOUS
 62
     0
100
AcDbLine
 10
21950.0
 20
16200.0
 30
0.0
 11
25750.0
 21
16200.0
 31
0.0
  0
TEXT
  5
EABC2557E58EBCEA
100
AcDbEntity
  8
SIMPLE
  6
CONTINUOUS
 62
     0
100
AcDbText
 10
25319.047619
 20
17050.0
 30
0.0
 40
100.0
  1
1800.0000
  7
SIMPLEX
 72
     1
 11
25700.0
 21
17050.0
 31
0.0
100
AcDbText
  0
SOLID
  5
EABC2557E58EBCE5
100
AcDbEntity
  8
SIMPLE
  6
CONTINUOUS
 62
     0
100
AcDbTrace
 10
25683.333333
 20
17900.0
 30
0.0
 11
25716.666667
 21
17900.0
 31
0.0
 12
25700.0
 22
18000.0
 32
0.0
 13
25700.0
 23
18000.0
 33
0.0
  0
SOLID
  5
EABC2557E58EBCE6
100
AcDbEntity
  8
SIMPLE
  6
CONTINUOUS
 62
     0
100
AcDbTrace
 10
25716.666667
 20
16300.0
 30
0.0
 11
25683.333333
 21
16300.0
 31
0.0
 12
25700.0
 22
16200.0
 32
0.0
 13
25700.0
 23
16200.0
 33
0.0
  0
LINE
  5
EABC2557E58EBCEB
100
AcDbEntity
  8
SIMPLE
  6
CONTINUOUS
 62
     0
100
AcDbLine
 10
25700.0
 20
17900.0
 30
0.0
 11
25700.0
 21
17150.09
 31
0.0
  0
LINE
  5
EABC2557E58EBCEC
100
AcDbEntity
  8
SIMPLE
  6
CONTINUOUS
 62
     0
100
AcDbLine
 10
25700.0
 20
17016.576667
 30
0.0
 11
25700.0
 21
16300.0
 31
0.0
  0
ENDBLK
  5
EABC2557E58EBCF1
100
AcDbEntity
  8
SIMPLE
  6
CONTINUOUS
100
AcDbBlockEnd
  0
BLOCK
  5
EABC2557E58EBCFE
100
AcDbEntity
  8
SIMPLE
  6
CONTINUOUS
100
AcDbBlockBegin
  2
*D35
 70
     1
 10
0.0
 20
0.0
 30
0.0
  1

  0
POINT
  5
EABC2557E58EBCF7
100
AcDbEntity
  8
SIMPLE
  6
CONTINUOUS
 62
     0
100
AcDbPoint
 10
24700.0
 20
17100.0
 30
0.0
  0
POINT
  5
EABC2557E58EBCF8
100
AcDbEntity
  8
SIMPLE
  6
CONTINUOUS
 62
     0
100
AcDbPoint
 10
24700.0
 20
1100.0
 30
0.0
  0
LINE
  5
EABC2557E58EBCF2
100
AcDbEntity
  8
SIMPLE
  6
CONTINUOUS
 62
     0
100
AcDbLine
 10
24750.0
 20
17100.0
 30
0.0
 11
27050.0
 21
17100.0
 31
0.0
  0
LINE
  5
EABC2557E58EBCF3
100
AcDbEntity
  8
SIMPLE
  6
CONTINUOUS
 62
     0
100
AcDbLine
 10
24750.0
 20
1100.0
 30
0.0
 11
27050.0
 21
1100.0
 31
0.0
  0
TEXT
  5
EABC2557E58EBCF9
100
AcDbEntity
  8
SIMPLE
  6
CONTINUOUS
 62
     0
100
AcDbText
 10
26571.428571
 20
9050.0
 30
0.0
 40
100.0
  1
16000.0000
  7
SIMPLEX
 72
     1
 11
27000.0
 21
9050.0
 31
0.0
100
AcDbText
  0
SOLID
  5
EABC2557E58EBCF4
100
AcDbEntity
  8
SIMPLE
  6
CONTINUOUS
 62
     0
100
AcDbTrace
 10
26983.333333
 20
17000.0
 30
0.0
 11
27016.666667
 21
17000.0
 31
0.0
 12
27000.0
 22
17100.0
 32
0.0
 13
27000.0
 23
17100.0
 33
0.0
  0
SOLID
  5
EABC2557E58EBCF5
100
AcDbEntity
  8
SIMPLE
  6
CONTINUOUS
 62
     0
100
AcDbTrace
 10
27016.666667
 20
1200.0
 30
0.0
 11
26983.333333
 21
1200.0
 31
0.0
 12
27000.0
 22
1100.0
 32
0.0
 13
27000.0
 23
1100.0
 33
0.0
  0
LINE
  5
EABC2557E58EBCFA
100
AcDbEntity
  8
SIMPLE
  6
CONTINUOUS
 62
     0
100
AcDbLine
 10
27000.0
 20
17000.0
 30
0.0
 11
27000.0
 21
9150.09
 31
0.0
  0
LINE
  5
EABC2557E58EBCFB
100
AcDbEntity
  8
SIMPLE
  6
CONTINUOUS
 62
     0
100
AcDbLine
 10
27000.0
 20
9016.576667
 30
0.0
 11
27000.0
 21
1200.0
 31
0.0
  0
ENDBLK
  5
EABC2557E58EBD00
100
AcDbEntity
  8
SIMPLE
  6
CONTINUOUS
100
AcDbBlockEnd
  0
BLOCK
  5
EABC2558047DB822
100
AcDbEntity
  8
COMMENT
  6
CONTINUOUS
 62
     1
100
AcDbBlockBegin
  2
*D36
 70
     1
 10
0.0
 20
0.0
 30
0.0
  1

  0
POINT
  5
EABC2558047DB81A
100
AcDbEntity
  8
SIMPLE
  6
CONTINUOUS
 62
     0
100
AcDbPoint
 10
4950.0
 20
-4100.0
 30
0.0
  0
POINT
  5
EABC2558047DB81C
100
AcDbEntity
  8
SIMPLE
  6
CONTINUOUS
 62
     0
100
AcDbPoint
 10
5000.0
 20
-3550.0
 30
0.0
  0
LINE
  5
EABC2558047DB815
100
AcDbEntity
  8
SIMPLE
  6
CONTINUOUS
 62
     0
100
AcDbLine
 10
5000.0
 20
-4100.0
 30
0.0
 11
5050.0
 21
-4100.0
 31
0.0
  0
LINE
  5
EABC2558047DB816
100
AcDbEntity
  8
SIMPLE
  6
CONTINUOUS
 62
     0
100
AcDbLine
 10
5050.0
 20
-3550.0
 30
0.0
 11
5050.0
 21
-3550.0
 31
0.0
  0
TEXT
  5
EABC2558047DB81D
100
AcDbEntity
  8
SIMPLE
  6
CONTINUOUS
 62
     0
100
AcDbText
 10
5000.09
 20
-3399.91
 30
0.0
 40
100.0
  1
550.0000
  7
SIMPLEX
 72
     1
 11
5342.947143
 21
-3399.91
 31
0.0
100
AcDbText
  0
SOLID
  5
EABC2558047DB817
100
AcDbEntity
  8
SIMPLE
  6
CONTINUOUS
 62
     0
100
AcDbTrace
 10
4983.333333
 20
-4200.0
 30
0.0
 11
5016.666667
 21
-4200.0
 31
0.0
 12
5000.0
 22
-4100.0
 32
0.0
 13
5000.0
 23
-4100.0
 33
0.0
  0
SOLID
  5
EABC2558047DB818
100
AcDbEntity
  8
SIMPLE
  6
CONTINUOUS
 62
     0
100
AcDbTrace
 10
5016.666667
 20
-3450.0
 30
0.0
 11
4983.333333
 21
-3450.0
 31
0.0
 12
5000.0
 22
-3550.0
 32
0.0
 13
5000.0
 23
-3550.0
 33
0.0
  0
LINE
  5
EABC2558047DB81E
100
AcDbEntity
  8
SIMPLE
  6
CONTINUOUS
 62
     0
100
AcDbLine
 10
5000.0
 20
-4200.0
 30
0.0
 11
5000.0
 21
-4300.0
 31
0.0
  0
LINE
  5
EABC2558047DB81F
100
AcDbEntity
  8
SIMPLE
  6
CONTINUOUS
 62
     0
100
AcDbLine
 10
5000.0
 20
-3450.0
 30
0.0
 11
5000.0
 21
-3350.0
 31
0.0
  0
ENDBLK
  5
EABC2558047DB824
100
AcDbEntity
  8
COMMENT
  6
CONTINUOUS
 62
     1
100
AcDbBlockEnd
  0
BLOCK
  5
EABC2558047DB832
100
AcDbEntity
  8
COMMENT
  6
CONTINUOUS
 62
     1
100
AcDbBlockBegin
  2
*D37
 70
     1
 10
0.0
 20
0.0
 30
0.0
  1

  0
POINT
  5
EABC2558047DB82B
100
AcDbEntity
  8
SIMPLE
  6
CONTINUOUS
 62
     0
100
AcDbPoint
 10
5000.0
 20
-4100.0
 30
0.0
  0
POINT
  5
EABC2558047DB82C
100
AcDbEntity
  8
SIMPLE
  6
CONTINUOUS
 62
     0
100
AcDbPoint
 10
5000.0
 20
-4650.0
 30
0.0
  0
LINE
  5
EABC2558047DB826
100
AcDbEntity
  8
SIMPLE
  6
CONTINUOUS
 62
     0
100
AcDbLine
 10
5050.0
 20
-4100.0
 30
0.0
 11
5050.0
 21
-4100.0
 31
0.0
  0
LINE
  5
EABC2558047DB827
100
AcDbEntity
  8
SIMPLE
  6
CONTINUOUS
 62
     0
100
AcDbLine
 10
4950.0
 20
-4650.0
 30
0.0
 11
4950.0
 21
-4650.0
 31
0.0
  0
TEXT
  5
EABC2558047DB82D
100
AcDbEntity
  8
SIMPLE
  6
CONTINUOUS
 62
     0
100
AcDbText
 10
4314.195714
 20
-4900.09
 30
0.0
 40
100.0
  1
550.0000
  7
SIMPLEX
 72
     1
 11
4657.052857
 21
-4900.09
 31
0.0
100
AcDbText
  0
SOLID
  5
EABC2558047DB828
100
AcDbEntity
  8
SIMPLE
  6
CONTINUOUS
 62
     0
100
AcDbTrace
 10
5016.666667
 20
-4000.0
 30
0.0
 11
4983.333333
 21
-4000.0
 31
0.0
 12
5000.0
 22
-4100.0
 32
0.0
 13
5000.0
 23
-4100.0
 33
0.0
  0
SOLID
  5
EABC2558047DB829
100
AcDbEntity
  8
SIMPLE
  6
CONTINUOUS
 62
     0
100
AcDbTrace
 10
4983.333333
 20
-4750.0
 30
0.0
 11
5016.666667
 21
-4750.0
 31
0.0
 12
5000.0
 22
-4650.0
 32
0.0
 13
5000.0
 23
-4650.0
 33
0.0
  0
LINE
  5
EABC2558047DB82E
100
AcDbEntity
  8
SIMPLE
  6
CONTINUOUS
 62
     0
100
AcDbLine
 10
5000.0
 20
-4000.0
 30
0.0
 11
5000.0
 21
-3900.0
 31
0.0
  0
LINE
  5
EABC2558047DB82F
100
AcDbEntity
  8
SIMPLE
  6
CONTINUOUS
 62
     0
100
AcDbLine
 10
5000.0
 20
-4750.0
 30
0.0
 11
5000.0
 21
-4850.0
 31
0.0
  0
ENDBLK
  5
EABC2558047DB834
100
AcDbEntity
  8
COMMENT
  6
CONTINUOUS
 62
     1
100
AcDbBlockEnd
  0
BLOCK
  5
FFFFEA6043900663
100
AcDbEntity
  8
PORTS
  6
CONTINUOUS
 62
    50
100
AcDbBlockBegin
  2
YGR_DSP_MULT_DATAA_PORT
 70
     2
 10
0.0
 20
0.0
 30
0.0
  1

  0
POINT
  5
E0642F7A3C40
100
AcDbEntity
  8
PORTS
  6
CONTINUOUS
100
AcDbPoint
 10
205.262726
 20
-1315.0
 30
0.0
  0
POLYLINE
  5
E0642F7A3C38
100
AcDbEntity
  8
PORTS
  6
CONTINUOUS
100
AcDb2dPolyline
 66
     1
 10
0.0
 20
0.0
 30
0.0
 70
     1
  0
VERTEX
  5
E0642F7A3C39
100
AcDbEntity
  8
PORTS
  6
CONTINUOUS
100
AcDbVertex
100
AcDb2dVertex
 10
205.262726
 20
-1315.0
 30
0.0
  0
VERTEX
  5
E0642F7A3C3A
100
AcDbEntity
  8
PORTS
  6
CONTINUOUS
100
AcDbVertex
100
AcDb2dVertex
 10
197.582726
 20
-1320.76
 30
0.0
  0
VERTEX
  5
E0642F7A3C3B
100
AcDbEntity
  8
PORTS
  6
CONTINUOUS
100
AcDbVertex
100
AcDb2dVertex
 10
128.462726
 20
-1320.76
 30
0.0
  0
VERTEX
  5
E0642F7A3C3C
100
AcDbEntity
  8
PORTS
  6
CONTINUOUS
100
AcDbVertex
100
AcDb2dVertex
 10
128.462726
 20
-1309.24
 30
0.0
  0
VERTEX
  5
E0642F7A3C3D
100
AcDbEntity
  8
PORTS
  6
CONTINUOUS
100
AcDbVertex
100
AcDb2dVertex
 10
197.582726
 20
-1309.24
 30
0.0
  0
VERTEX
  5
E0642F7A3C3E
100
AcDbEntity
  8
PORTS
  6
CONTINUOUS
100
AcDbVertex
100
AcDb2dVertex
 10
205.262726
 20
-1315.0
 30
0.0
  0
SEQEND
  5
E0642F7A3C3F
100
AcDbEntity
  8
PORTS
  6
CONTINUOUS
  0
ATTDEF
  5
E0642F7A3C37
100
AcDbEntity
  8
PORTS
  6
CONTINUOUS
 62
   249
100
AcDbText
 10
152.462726
 20
-1305.4
 30
0.0
 40
6.788225
  1

  7
SIMPLEX
100
AcDbAttributeDefinition
  3

  2
SIDE
 70
     0
  0
ENDBLK
  5
FFFFEA6043900664
100
AcDbEntity
  8
PORTS
  6
CONTINUOUS
 62
    50
100
AcDbBlockEnd
  0
BLOCK
  5
FFFFEA604FE36278
100
AcDbEntity
  8
PORTS
  6
CONTINUOUS
 62
    50
100
AcDbBlockBegin
  2
YGR_DSP_MULT_DATAB_PORT
 70
     2
 10
0.0
 20
0.0
 30
0.0
  1

  0
POINT
  5
FFFFEA604FE3626E
100
AcDbEntity
  8
PORTS
  6
CONTINUOUS
100
AcDbPoint
 10
205.262726
 20
-1395.0
 30
0.0
  0
POLYLINE
  5
FFFFEA604FE3626F
100
AcDbEntity
  8
PORTS
  6
CONTINUOUS
100
AcDb2dPolyline
 66
     1
 10
0.0
 20
0.0
 30
0.0
 70
     1
  0
VERTEX
  5
FFFFEA604FE36270
100
AcDbEntity
  8
PORTS
  6
CONTINUOUS
100
AcDbVertex
100
AcDb2dVertex
 10
205.262726
 20
-1395.0
 30
0.0
  0
VERTEX
  5
FFFFEA604FE36271
100
AcDbEntity
  8
PORTS
  6
CONTINUOUS
100
AcDbVertex
100
AcDb2dVertex
 10
197.582726
 20
-1400.76
 30
0.0
  0
VERTEX
  5
FFFFEA604FE36272
100
AcDbEntity
  8
PORTS
  6
CONTINUOUS
100
AcDbVertex
100
AcDb2dVertex
 10
128.462726
 20
-1400.76
 30
0.0
  0
VERTEX
  5
FFFFEA604FE36273
100
AcDbEntity
  8
PORTS
  6
CONTINUOUS
100
AcDbVertex
100
AcDb2dVertex
 10
128.462726
 20
-1389.24
 30
0.0
  0
VERTEX
  5
FFFFEA604FE36274
100
AcDbEntity
  8
PORTS
  6
CONTINUOUS
100
AcDbVertex
100
AcDb2dVertex
 10
197.582726
 20
-1389.24
 30
0.0
  0
VERTEX
  5
FFFFEA604FE36275
100
AcDbEntity
  8
PORTS
  6
CONTINUOUS
100
AcDbVertex
100
AcDb2dVertex
 10
205.262726
 20
-1395.0
 30
0.0
  0
SEQEND
  5
FFFFEA604FE36276
100
AcDbEntity
  8
PORTS
  6
CONTINUOUS
  0
ATTDEF
  5
FFFFEA604FE36277
100
AcDbEntity
  8
PORTS
  6
CONTINUOUS
 62
   249
100
AcDbText
 10
152.462726
 20
-1385.4
 30
0.0
 40
6.788225
  1

  7
SIMPLEX
100
AcDbAttributeDefinition
  3

  2
SIDE
 70
     0
  0
ENDBLK
  5
FFFFEA604FE36279
100
AcDbEntity
  8
PORTS
  6
CONTINUOUS
 62
    50
100
AcDbBlockEnd
  0
BLOCK
  5
FFFFEA604348C1A9
100
AcDbEntity
  8
PORTS
  6
CONTINUOUS
 62
    50
100
AcDbBlockBegin
  2
YGR_DSP_MULT_SIGNA_PORT
 70
     2
 10
0.0
 20
0.0
 30
0.0
  1

  0
POLYLINE
  5
3C400946D317
100
AcDbEntity
  8
PORTS
  6
CONTINUOUS
100
AcDb2dPolyline
 66
     1
 10
0.0
 20
0.0
 30
0.0
 70
     1
  0
VERTEX
  5
3C400946D318
100
AcDbEntity
  8
PORTS
  6
CONTINUOUS
100
AcDbVertex
100
AcDb2dVertex
 10
270.0
 20
-1205.0
 30
0.0
  0
VERTEX
  5
3C400946D319
100
AcDbEntity
  8
PORTS
  6
CONTINUOUS
100
AcDbVertex
100
AcDb2dVertex
 10
264.24
 20
-1197.32
 30
0.0
  0
VERTEX
  5
3C400946D31A
100
AcDbEntity
  8
PORTS
  6
CONTINUOUS
100
AcDbVertex
100
AcDb2dVertex
 10
264.24
 20
-1128.2
 30
0.0
  0
VERTEX
  5
3C400946D31B
100
AcDbEntity
  8
PORTS
  6
CONTINUOUS
100
AcDbVertex
100
AcDb2dVertex
 10
275.76
 20
-1128.2
 30
0.0
  0
VERTEX
  5
3C400946D31C
100
AcDbEntity
  8
PORTS
  6
CONTINUOUS
100
AcDbVertex
100
AcDb2dVertex
 10
275.76
 20
-1197.32
 30
0.0
  0
VERTEX
  5
3C400946D31D
100
AcDbEntity
  8
PORTS
  6
CONTINUOUS
100
AcDbVertex
100
AcDb2dVertex
 10
270.0
 20
-1205.0
 30
0.0
  0
SEQEND
  5
3C400946D31E
100
AcDbEntity
  8
PORTS
  6
CONTINUOUS
  0
POINT
  5
3C400946D31F
100
AcDbEntity
  8
PORTS
  6
CONTINUOUS
100
AcDbPoint
 10
270.0
 20
-1205.0
 30
0.0
  0
ATTDEF
  5
3C400946D316
100
AcDbEntity
  8
PORTS
  6
CONTINUOUS
 62
   249
100
AcDbText
 10
279.610075
 20
-1152.2
 30
0.0
 40
6.788225
  1

 50
270.0
  7
SIMPLEX
100
AcDbAttributeDefinition
  3

  2
SIDE
 70
     0
  0
ENDBLK
  5
FFFFEA604348C1AA
100
AcDbEntity
  8
PORTS
  6
CONTINUOUS
 62
    50
100
AcDbBlockEnd
  0
BLOCK
  5
FFFFEA604348C1A4
100
AcDbEntity
  8
PORTS
  6
CONTINUOUS
 62
    50
100
AcDbBlockBegin
  2
YGR_DSP_MULT_SIGNB_PORT
 70
     2
 10
0.0
 20
0.0
 30
0.0
  1

  0
POINT
  5
E0642ED7E34D
100
AcDbEntity
  8
PORTS
  6
CONTINUOUS
100
AcDbPoint
 10
365.0
 20
-1205.0
 30
0.0
  0
POLYLINE
  5
E0642ED7E345
100
AcDbEntity
  8
PORTS
  6
CONTINUOUS
100
AcDb2dPolyline
 66
     1
 10
0.0
 20
0.0
 30
0.0
 70
     1
  0
VERTEX
  5
E0642ED7E346
100
AcDbEntity
  8
PORTS
  6
CONTINUOUS
100
AcDbVertex
100
AcDb2dVertex
 10
365.0
 20
-1205.0
 30
0.0
  0
VERTEX
  5
E0642ED7E347
100
AcDbEntity
  8
PORTS
  6
CONTINUOUS
100
AcDbVertex
100
AcDb2dVertex
 10
359.24
 20
-1197.32
 30
0.0
  0
VERTEX
  5
E0642ED7E348
100
AcDbEntity
  8
PORTS
  6
CONTINUOUS
100
AcDbVertex
100
AcDb2dVertex
 10
359.24
 20
-1128.2
 30
0.0
  0
VERTEX
  5
E0642ED7E349
100
AcDbEntity
  8
PORTS
  6
CONTINUOUS
100
AcDbVertex
100
AcDb2dVertex
 10
370.76
 20
-1128.2
 30
0.0
  0
VERTEX
  5
E0642ED7E34A
100
AcDbEntity
  8
PORTS
  6
CONTINUOUS
100
AcDbVertex
100
AcDb2dVertex
 10
370.76
 20
-1197.32
 30
0.0
  0
VERTEX
  5
E0642ED7E34B
100
AcDbEntity
  8
PORTS
  6
CONTINUOUS
100
AcDbVertex
100
AcDb2dVertex
 10
365.0
 20
-1205.0
 30
0.0
  0
SEQEND
  5
E0642ED7E34C
100
AcDbEntity
  8
PORTS
  6
CONTINUOUS
  0
ATTDEF
  5
E0642ED7E34E
100
AcDbEntity
  8
PORTS
  6
CONTINUOUS
 62
   249
100
AcDbText
 10
374.6
 20
-1152.2
 30
0.0
 40
6.788225
  1

 50
270.0
  7
SIMPLEX
100
AcDbAttributeDefinition
  3

  2
SIDE
 70
     0
  0
ENDBLK
  5
FFFFEA604348C1A5
100
AcDbEntity
  8
PORTS
  6
CONTINUOUS
 62
    50
100
AcDbBlockEnd
  0
BLOCK
  5
FFFFEA604348C1B6
100
AcDbEntity
  8
PORTS
  6
CONTINUOUS
 62
    50
100
AcDbBlockBegin
  2
YGR_DSP_MULT_CLK_PORT
 70
     2
 10
0.0
 20
0.0
 30
0.0
  1

  0
POINT
  5
E0642E9C751E
100
AcDbEntity
  8
PORTS
  6
CONTINUOUS
100
AcDbPoint
 10
465.0
 20
-1205.0
 30
0.0
  0
POLYLINE
  5
E0642E9C7516
100
AcDbEntity
  8
PORTS
  6
CONTINUOUS
100
AcDb2dPolyline
 66
     1
 10
0.0
 20
0.0
 30
0.0
 70
     1
  0
VERTEX
  5
E0642E9C7517
100
AcDbEntity
  8
PORTS
  6
CONTINUOUS
100
AcDbVertex
100
AcDb2dVertex
 10
465.0
 20
-1205.0
 30
0.0
  0
VERTEX
  5
E0642E9C7518
100
AcDbEntity
  8
PORTS
  6
CONTINUOUS
100
AcDbVertex
100
AcDb2dVertex
 10
459.24
 20
-1197.32
 30
0.0
  0
VERTEX
  5
E0642E9C7519
100
AcDbEntity
  8
PORTS
  6
CONTINUOUS
100
AcDbVertex
100
AcDb2dVertex
 10
459.24
 20
-1128.2
 30
0.0
  0
VERTEX
  5
E0642E9C751A
100
AcDbEntity
  8
PORTS
  6
CONTINUOUS
100
AcDbVertex
100
AcDb2dVertex
 10
470.76
 20
-1128.2
 30
0.0
  0
VERTEX
  5
E0642E9C751B
100
AcDbEntity
  8
PORTS
  6
CONTINUOUS
100
AcDbVertex
100
AcDb2dVertex
 10
470.76
 20
-1197.32
 30
0.0
  0
VERTEX
  5
E0642E9C751C
100
AcDbEntity
  8
PORTS
  6
CONTINUOUS
100
AcDbVertex
100
AcDb2dVertex
 10
465.0
 20
-1205.0
 30
0.0
  0
SEQEND
  5
E0642E9C751D
100
AcDbEntity
  8
PORTS
  6
CONTINUOUS
  0
ATTDEF
  5
E0642E9C7515
100
AcDbEntity
  8
PORTS
  6
CONTINUOUS
 62
   249
100
AcDbText
 10
474.6
 20
-1152.2
 30
0.0
 40
6.788225
  1

 50
270.0
  7
SIMPLEX
100
AcDbAttributeDefinition
  3

  2
SIDE
 70
     0
  0
ENDBLK
  5
FFFFEA604348C1B7
100
AcDbEntity
  8
PORTS
  6
CONTINUOUS
 62
    50
100
AcDbBlockEnd
  0
BLOCK
  5
FFFFEA604348C1C2
100
AcDbEntity
  8
PORTS
  6
CONTINUOUS
 62
    50
100
AcDbBlockBegin
  2
YGR_DSP_MULT_ENA_PORT
 70
     2
 10
0.0
 20
0.0
 30
0.0
  1

  0
ATTDEF
  5
E0642E4D379B
100
AcDbEntity
  8
PORTS
  6
CONTINUOUS
 62
   249
100
AcDbText
 10
499.6
 20
-1152.2
 30
0.0
 40
6.788225
  1

 50
270.0
  7
SIMPLEX
100
AcDbAttributeDefinition
  3

  2
SIDE
 70
     0
  0
POLYLINE
  5
E0642E4D379C
100
AcDbEntity
  8
PORTS
  6
CONTINUOUS
100
AcDb2dPolyline
 66
     1
 10
0.0
 20
0.0
 30
0.0
 70
     1
  0
VERTEX
  5
E0642E4D379D
100
AcDbEntity
  8
PORTS
  6
CONTINUOUS
100
AcDbVertex
100
AcDb2dVertex
 10
490.0
 20
-1205.0
 30
0.0
  0
VERTEX
  5
E0642E4D379E
100
AcDbEntity
  8
PORTS
  6
CONTINUOUS
100
AcDbVertex
100
AcDb2dVertex
 10
484.24
 20
-1197.32
 30
0.0
  0
VERTEX
  5
E0642E4D379F
100
AcDbEntity
  8
PORTS
  6
CONTINUOUS
100
AcDbVertex
100
AcDb2dVertex
 10
484.24
 20
-1128.2
 30
0.0
  0
VERTEX
  5
E0642E4D37A0
100
AcDbEntity
  8
PORTS
  6
CONTINUOUS
100
AcDbVertex
100
AcDb2dVertex
 10
495.76
 20
-1128.2
 30
0.0
  0
VERTEX
  5
E0642E4D37A1
100
AcDbEntity
  8
PORTS
  6
CONTINUOUS
100
AcDbVertex
100
AcDb2dVertex
 10
495.76
 20
-1197.32
 30
0.0
  0
VERTEX
  5
E0642E4D37A2
100
AcDbEntity
  8
PORTS
  6
CONTINUOUS
100
AcDbVertex
100
AcDb2dVertex
 10
490.0
 20
-1205.0
 30
0.0
  0
SEQEND
  5
E0642E4D37A3
100
AcDbEntity
  8
PORTS
  6
CONTINUOUS
  0
POINT
  5
E0642E4D37A4
100
AcDbEntity
  8
PORTS
  6
CONTINUOUS
100
AcDbPoint
 10
490.0
 20
-1205.0
 30
0.0
  0
ENDBLK
  5
FFFFEA604348C1C3
100
AcDbEntity
  8
PORTS
  6
CONTINUOUS
 62
    50
100
AcDbBlockEnd
  0
BLOCK
  5
FFFFEA604348C1CE
100
AcDbEntity
  8
PORTS
  6
CONTINUOUS
 62
    50
100
AcDbBlockBegin
  2
YGR_DSP_MULT_CLR_PORT
 70
     2
 10
0.0
 20
0.0
 30
0.0
  1

  0
ATTDEF
  5
E0642DAEBC7B
100
AcDbEntity
  8
PORTS
  6
CONTINUOUS
 62
   249
100
AcDbText
 10
524.6
 20
-1152.2
 30
0.0
 40
6.788225
  1

 50
270.0
  7
SIMPLEX
100
AcDbAttributeDefinition
  3

  2
SIDE
 70
     0
  0
POLYLINE
  5
E0642DAEBC7C
100
AcDbEntity
  8
PORTS
  6
CONTINUOUS
100
AcDb2dPolyline
 66
     1
 10
0.0
 20
0.0
 30
0.0
 70
     1
  0
VERTEX
  5
E0642DAEBC7D
100
AcDbEntity
  8
PORTS
  6
CONTINUOUS
100
AcDbVertex
100
AcDb2dVertex
 10
515.0
 20
-1205.0
 30
0.0
  0
VERTEX
  5
E0642DAEBC7E
100
AcDbEntity
  8
PORTS
  6
CONTINUOUS
100
AcDbVertex
100
AcDb2dVertex
 10
509.24
 20
-1197.32
 30
0.0
  0
VERTEX
  5
E0642DAEBC7F
100
AcDbEntity
  8
PORTS
  6
CONTINUOUS
100
AcDbVertex
100
AcDb2dVertex
 10
509.24
 20
-1128.2
 30
0.0
  0
VERTEX
  5
E0642DAEBC80
100
AcDbEntity
  8
PORTS
  6
CONTINUOUS
100
AcDbVertex
100
AcDb2dVertex
 10
520.76
 20
-1128.2
 30
0.0
  0
VERTEX
  5
E0642DAEBC81
100
AcDbEntity
  8
PORTS
  6
CONTINUOUS
100
AcDbVertex
100
AcDb2dVertex
 10
520.76
 20
-1197.32
 30
0.0
  0
VERTEX
  5
E0642DAEBC82
100
AcDbEntity
  8
PORTS
  6
CONTINUOUS
100
AcDbVertex
100
AcDb2dVertex
 10
515.0
 20
-1205.0
 30
0.0
  0
SEQEND
  5
E0642DAEBC83
100
AcDbEntity
  8
PORTS
  6
CONTINUOUS
  0
POINT
  5
E0642DAEBC84
100
AcDbEntity
  8
PORTS
  6
CONTINUOUS
100
AcDbPoint
 10
515.0
 20
-1205.0
 30
0.0
  0
ENDBLK
  5
FFFFEA604348C1CF
100
AcDbEntity
  8
PORTS
  6
CONTINUOUS
 62
    50
100
AcDbBlockEnd
  0
BLOCK
  5
FFFFEA604390065F
100
AcDbEntity
  8
SIMPLE
  6
CONTINUOUS
100
AcDbBlockBegin
  2
YGR_DSP_MULT_DATAA_WIRE
 70
     0
 10
0.0
 20
0.0
 30
0.0
  1

  0
LINE
  5
FFFFEA604390065D
100
AcDbEntity
  8
SIMPLE
  6
CONTINUOUS
100
AcDbLine
 10
290.0
 20
-1315.0
 30
0.0
 11
355.0
 21
-1315.0
 31
0.0
  0
LINE
  5
FFFFEA604390065B
100
AcDbEntity
  8
SIMPLE
  6
CONTINUOUS
100
AcDbLine
 10
230.0
 20
-1315.0
 30
0.0
 11
250.0
 21
-1315.0
 31
0.0
  0
LINE
  5
FFFFEA6043900658
100
AcDbEntity
  8
SIMPLE
  6
CONTINUOUS
100
AcDbLine
 10
205.0
 20
-1315.0
 30
0.0
 11
230.0
 21
-1315.0
 31
0.0
  0
ENDBLK
  5
FFFFEA6043900660
100
AcDbEntity
  8
SIMPLE
  6
CONTINUOUS
100
AcDbBlockEnd
  0
BLOCK
  5
FFFFEA604348C192
100
AcDbEntity
  8
SIMPLE
  6
CONTINUOUS
100
AcDbBlockBegin
  2
YGR_DSP_MULT_SIGNA_WIRE
 70
     0
 10
0.0
 20
0.0
 30
0.0
  1

  0
LINE
  5
FFFFEA604348C187
100
AcDbEntity
  8
SIMPLE
  6
CONTINUOUS
100
AcDbLine
 10
270.0
 20
-1220.0
 30
0.0
 11
270.0
 21
-1205.0
 31
0.0
  0
LINE
  5
FFFFEA604348C186
100
AcDbEntity
  8
SIMPLE
  6
CONTINUOUS
100
AcDbLine
 10
270.0
 20
-1240.0
 30
0.0
 11
270.0
 21
-1220.0
 31
0.0
  0
LINE
  5
FFFFEA604348C18C
100
AcDbEntity
  8
SIMPLE
  6
CONTINUOUS
100
AcDbLine
 10
270.0
 20
-1240.0
 30
0.0
 11
285.0
 21
-1240.0
 31
0.0
  0
LINE
  5
FFFFEA604348C18F
100
AcDbEntity
  8
SIMPLE
  6
CONTINUOUS
100
AcDbLine
 10
324.968
 20
-1240.0
 30
0.0
 11
340.0
 21
-1240.0
 31
0.0
  0
LINE
  5
FFFFEA604348C190
100
AcDbEntity
  8
SIMPLE
  6
CONTINUOUS
100
AcDbLine
 10
340.0
 20
-1240.0
 30
0.0
 11
340.0
 21
-1295.0
 31
0.0
  0
ENDBLK
  5
FFFFEA604348C193
100
AcDbEntity
  8
SIMPLE
  6
CONTINUOUS
100
AcDbBlockEnd
  0
BLOCK
  5
FFFFEA604348C1A0
100
AcDbEntity
  8
SIMPLE
  6
CONTINUOUS
100
AcDbBlockBegin
  2
YGR_DSP_MULT_SIGNB_WIRE
 70
     0
 10
0.0
 20
0.0
 30
0.0
  1

  0
LINE
  5
FFFFEA604348C19B
100
AcDbEntity
  8
SIMPLE
  6
CONTINUOUS
100
AcDbLine
 10
365.0
 20
-1220.0
 30
0.0
 11
365.0
 21
-1205.0
 31
0.0
  0
LINE
  5
FFFFEA604348C19A
100
AcDbEntity
  8
SIMPLE
  6
CONTINUOUS
100
AcDbLine
 10
365.0
 20
-1240.0
 30
0.0
 11
365.0
 21
-1220.0
 31
0.0
  0
LINE
  5
FFFFEA604348C199
100
AcDbEntity
  8
SIMPLE
  6
CONTINUOUS
100
AcDbLine
 10
380.032
 20
-1240.0
 30
0.0
 11
365.0
 21
-1240.0
 31
0.0
  0
LINE
  5
FFFFEA604348C19D
100
AcDbEntity
  8
SIMPLE
  6
CONTINUOUS
100
AcDbLine
 10
419.968
 20
-1240.0
 30
0.0
 11
435.0
 21
-1240.0
 31
0.0
  0
LINE
  5
FFFFEA604348C19E
100
AcDbEntity
  8
SIMPLE
  6
CONTINUOUS
100
AcDbLine
 10
435.0
 20
-1240.0
 30
0.0
 11
435.0
 21
-1295.0
 31
0.0
  0
ENDBLK
  5
FFFFEA604348C1A1
100
AcDbEntity
  8
SIMPLE
  6
CONTINUOUS
100
AcDbBlockEnd
  0
BLOCK
  5
FFFFEA60493790E5
100
AcDbEntity
  8
SIMPLE
  6
CONTINUOUS
100
AcDbBlockBegin
  2
YGR_DSP_MULT_DATAB_WIRE
 70
     0
 10
0.0
 20
0.0
 30
0.0
  1

  0
LINE
  5
FFFFEA60493790E3
100
AcDbEntity
  8
SIMPLE
  6
CONTINUOUS
100
AcDbLine
 10
289.968
 20
-1395.0
 30
0.0
 11
320.0
 21
-1395.0
 31
0.0
  0
LINE
  5
FFFFEA60493790E0
100
AcDbEntity
  8
SIMPLE
  6
CONTINUOUS
100
AcDbLine
 10
250.032
 20
-1395.0
 30
0.0
 11
230.0
 21
-1395.0
 31
0.0
  0
LINE
  5
FFFFEA60493790E1
100
AcDbEntity
  8
SIMPLE
  6
CONTINUOUS
100
AcDbLine
 10
230.0
 20
-1395.0
 30
0.0
 11
205.262726
 21
-1395.0
 31
0.0
  0
ENDBLK
  5
FFFFEA60493790E6
100
AcDbEntity
  8
SIMPLE
  6
CONTINUOUS
100
AcDbBlockEnd
  0
BLOCK
  5
FFFFEA6045E176AD
100
AcDbEntity
  8
SIMPLE
  6
CONTINUOUS
100
AcDbBlockBegin
  2
YGR_DSP_MULT_DATAA_TO_MULT_WIRE
 70
     0
 10
0.0
 20
0.0
 30
0.0
  1

  0
LINE
  5
FFFFEA6045E176AB
100
AcDbEntity
  8
SIMPLE
  6
CONTINUOUS
100
AcDbLine
 10
380.0
 20
-1340.0
 30
0.0
 11
425.0
 21
-1340.0
 31
0.0
  0
LINE
  5
FFFFEA6045E176AA
100
AcDbEntity
  8
SIMPLE
  6
CONTINUOUS
100
AcDbLine
 10
380.0
 20
-1315.0
 30
0.0
 11
380.0
 21
-1340.0
 31
0.0
  0
LINE
  5
FFFFEA6045E176A9
100
AcDbEntity
  8
SIMPLE
  6
CONTINUOUS
100
AcDbLine
 10
355.0
 20
-1315.0
 30
0.0
 11
380.0
 21
-1315.0
 31
0.0
  0
ENDBLK
  5
FFFFEA6045E176AE
100
AcDbEntity
  8
SIMPLE
  6
CONTINUOUS
100
AcDbBlockEnd
  0
BLOCK
  5
FFFFEA60E193731D
100
AcDbEntity
  8
SIMPLE
  6
CONTINUOUS
100
AcDbBlockBegin
  2
YGR_DSP_MULT_DATAB_TO_MULT_WIRE
 70
     0
 10
0.0
 20
0.0
 30
0.0
  1

  0
LINE
  5
FFFFEA609238AD88
100
AcDbEntity
  8
SIMPLE
  6
CONTINUOUS
100
AcDbLine
 10
380.0
 20
-1370.0
 30
0.0
 11
426.362986
 21
-1370.0
 31
0.0
  0
LINE
  5
FFFFEA609238AD87
100
AcDbEntity
  8
SIMPLE
  6
CONTINUOUS
100
AcDbLine
 10
380.0
 20
-1395.0
 30
0.0
 11
380.0
 21
-1370.0
 31
0.0
  0
LINE
  5
FFFFEA609238AD86
100
AcDbEntity
  8
SIMPLE
  6
CONTINUOUS
100
AcDbLine
 10
320.0
 20
-1395.0
 30
0.0
 11
380.0
 21
-1395.0
 31
0.0
  0
ENDBLK
  5
FFFFEA60E193731E
100
AcDbEntity
  8
SIMPLE
  6
CONTINUOUS
100
AcDbBlockEnd
  0
BLOCK
  5
FFFFEA604348C1B3
100
AcDbEntity
  8
SIMPLE
  6
CONTINUOUS
100
AcDbBlockBegin
  2
YGR_DSP_MULT_CLK_WIRE
 70
     0
 10
0.0
 20
0.0
 30
0.0
  1

  0
LINE
  5
FFFFEA604348C1B1
100
AcDbEntity
  8
SIMPLE
  6
CONTINUOUS
100
AcDbLine
 10
465.0
 20
-1220.0
 30
0.0
 11
465.0
 21
-1205.0
 31
0.0
  0
ENDBLK
  5
FFFFEA604348C1B4
100
AcDbEntity
  8
SIMPLE
  6
CONTINUOUS
100
AcDbBlockEnd
  0
BLOCK
  5
FFFFEA604348C1BE
100
AcDbEntity
  8
SIMPLE
  6
CONTINUOUS
100
AcDbBlockBegin
  2
YGR_DSP_MULT_ENA_WIRE
 70
     0
 10
0.0
 20
0.0
 30
0.0
  1

  0
LINE
  5
FFFFEA604348C1BC
100
AcDbEntity
  8
SIMPLE
  6
CONTINUOUS
100
AcDbLine
 10
490.0
 20
-1220.0
 30
0.0
 11
490.0
 21
-1205.0
 31
0.0
  0
ENDBLK
  5
FFFFEA604348C1BF
100
AcDbEntity
  8
SIMPLE
  6
CONTINUOUS
100
AcDbBlockEnd
  0
BLOCK
  5
FFFFEA604348C1CA
100
AcDbEntity
  8
SIMPLE
  6
CONTINUOUS
100
AcDbBlockBegin
  2
YGR_DSP_MULT_CLR_WIRE
 70
     0
 10
0.0
 20
0.0
 30
0.0
  1

  0
LINE
  5
FFFFEA604348C1C8
100
AcDbEntity
  8
SIMPLE
  6
CONTINUOUS
100
AcDbLine
 10
515.0
 20
-1220.0
 30
0.0
 11
515.0
 21
-1205.0
 31
0.0
  0
ENDBLK
  5
FFFFEA604348C1CB
100
AcDbEntity
  8
SIMPLE
  6
CONTINUOUS
100
AcDbBlockEnd
  0
BLOCK
  5
FFFFEA609238AD8E
100
AcDbEntity
  8
SIMPLE
  6
CONTINUOUS
100
AcDbBlockBegin
  2
YGR_DSP_MULT_BLOCK
 70
     2
 10
0.0
 20
0.0
 30
0.0
  1

  0
INSERT
  5
FFFFEA609238AD8D
100
AcDbEntity
  8
SIMPLE
  6
CONTINUOUS
100
AcDbBlockReference
  2
YGR_DSP_MULT_CIRCLE
 10
0.0
 20
0.0
 30
0.0
  0
INSERT
  5
E06497A434F7
100
AcDbEntity
  8
SIMPLE
  6
CONTINUOUS
100
AcDbBlockReference
  2
YGR_DSP_MULT_WIRE
 10
-1.946955
 20
-1123.835416
 30
0.0
  0
ATTDEF
  5
E06497A434F8
100
AcDbEntity
  8
SIMPLE
  6
CONTINUOUS
100
AcDbText
 10
429.68475
 20
-1328.141917
 30
0.0
 40
9.6
  1

  7
SIMPLEX
100
AcDbAttributeDefinition
  3

  2
index
 70
     0
  0
ENDBLK
  5
FFFFEA609238AD8F
100
AcDbEntity
  8
SIMPLE
  6
CONTINUOUS
100
AcDbBlockEnd
  0
BLOCK
  5
FFFFEA60E1937318
100
AcDbEntity
  8
PORTS
  6
CONTINUOUS
 62
    50
100
AcDbBlockBegin
  2
YGR_DSP_MULT_DATAOUT_PORT
 70
     2
 10
0.0
 20
0.0
 30
0.0
  1

  0
POINT
  5
E0656B811514
100
AcDbEntity
  8
PORTS
  6
CONTINUOUS
100
AcDbPoint
 10
601.406402
 20
-1355.0
 30
0.0
  0
POLYLINE
  5
E0656B811515
100
AcDbEntity
  8
PORTS
  6
CONTINUOUS
100
AcDb2dPolyline
 66
     1
 10
0.0
 20
0.0
 30
0.0
 70
     1
  0
VERTEX
  5
E0656B811516
100
AcDbEntity
  8
PORTS
  6
CONTINUOUS
100
AcDbVertex
100
AcDb2dVertex
 10
678.206402
 20
-1355.0
 30
0.0
  0
VERTEX
  5
E0656B811517
100
AcDbEntity
  8
PORTS
  6
CONTINUOUS
100
AcDbVertex
100
AcDb2dVertex
 10
670.526402
 20
-1360.76
 30
0.0
  0
VERTEX
  5
E0656B811518
100
AcDbEntity
  8
PORTS
  6
CONTINUOUS
100
AcDbVertex
100
AcDb2dVertex
 10
601.406402
 20
-1360.76
 30
0.0
  0
VERTEX
  5
E0656B811519
100
AcDbEntity
  8
PORTS
  6
CONTINUOUS
100
AcDbVertex
100
AcDb2dVertex
 10
601.406402
 20
-1349.24
 30
0.0
  0
VERTEX
  5
E0656B81151A
100
AcDbEntity
  8
PORTS
  6
CONTINUOUS
100
AcDbVertex
100
AcDb2dVertex
 10
670.526402
 20
-1349.24
 30
0.0
  0
VERTEX
  5
E0656B81151B
100
AcDbEntity
  8
PORTS
  6
CONTINUOUS
100
AcDbVertex
100
AcDb2dVertex
 10
678.206402
 20
-1355.0
 30
0.0
  0
SEQEND
  5
E0656B81151C
100
AcDbEntity
  8
PORTS
  6
CONTINUOUS
  0
ATTDEF
  5
E0656B81151D
100
AcDbEntity
  8
PORTS
  6
CONTINUOUS
 62
   249
100
AcDbText
 10
627.182629
 20
-1348.589488
 30
0.0
 40
6.788225
  1

  7
SIMPLEX
100
AcDbAttributeDefinition
  3

  2
SIDE
 70
     0
  0
ENDBLK
  5
FFFFEA60E1937319
100
AcDbEntity
  8
PORTS
  6
CONTINUOUS
 62
    50
100
AcDbBlockEnd
  0
BLOCK
  5
FFFFEA60E1937314
100
AcDbEntity
  8
SIMPLE
  6
CONTINUOUS
100
AcDbBlockBegin
  2
YGR_DSP_MULT_DATAOUT_WIRE
 70
     0
 10
0.0
 20
0.0
 30
0.0
  1

  0
LINE
  5
FFFFEA60E1937312
100
AcDbEntity
  8
SIMPLE
  6
CONTINUOUS
100
AcDbLine
 10
584.967742
 20
-1355.0
 30
0.0
 11
601.406402
 21
-1355.0
 31
0.0
  0
LINE
  5
FFFFEA60E1937311
100
AcDbEntity
  8
SIMPLE
  6
CONTINUOUS
100
AcDbLine
 10
554.968
 20
-1355.0
 30
0.0
 11
584.967742
 21
-1355.0
 31
0.0
  0
ENDBLK
  5
FFFFEA60E1937315
100
AcDbEntity
  8
SIMPLE
  6
CONTINUOUS
100
AcDbBlockEnd
  0
BLOCK
  5
FFFFFD1688D09731
100
AcDbEntity
  8
SIMPLE
  6
CONTINUOUS
100
AcDbBlockBegin
  2
YGR_DSP_MULT_DATAA_EXT_WIRE
 70
     0
 10
0.0
 20
0.0
 30
0.0
  1

  0
LINE
  5
FFFFFD1688D0972F
100
AcDbEntity
  8
SIMPLE
  6
CONTINUOUS
100
AcDbLine
 10
123.462726
 20
-195.0
 30
0.0
 11
15.0
 21
-195.0
 31
0.0
  0
LINE
  5
FCC99F73924
100
AcDbEntity
  8
SIMPLE
  6
CONTINUOUS
100
AcDbLine
 10
14.804505
 20
-199.804506
 30
0.0
 11
14.804505
 21
-190.195495
 31
0.0
  0
LINE
  5
FCC99F73925
100
AcDbEntity
  8
SIMPLE
  6
CONTINUOUS
100
AcDbLine
 10
14.804505
 20
-190.195495
 30
0.0
 11
5.195496
 21
-190.195495
 31
0.0
  0
LINE
  5
FCC99F73926
100
AcDbEntity
  8
SIMPLE
  6
CONTINUOUS
100
AcDbLine
 10
5.195496
 20
-190.195495
 30
0.0
 11
5.195496
 21
-199.804506
 31
0.0
  0
LINE
  5
FCC99F73927
100
AcDbEntity
  8
SIMPLE
  6
CONTINUOUS
100
AcDbLine
 10
5.195496
 20
-199.804506
 30
0.0
 11
14.804505
 21
-199.804506
 31
0.0
  0
LINE
  5
FCC99F73928
100
AcDbEntity
  8
SIMPLE
  6
CONTINUOUS
100
AcDbLine
 10
14.804505
 20
-199.804506
 30
0.0
 11
5.195496
 21
-190.195495
 31
0.0
  0
LINE
  5
FCC99F73929
100
AcDbEntity
  8
SIMPLE
  6
CONTINUOUS
100
AcDbLine
 10
14.804505
 20
-190.195495
 30
0.0
 11
5.195496
 21
-199.804506
 31
0.0
  0
ENDBLK
  5
FFFFFD1688D09732
100
AcDbEntity
  8
SIMPLE
  6
CONTINUOUS
100
AcDbBlockEnd
  0
BLOCK
  5
FFFFEA6077A9F52C
100
AcDbEntity
  8
SIMPLE
  6
CONTINUOUS
100
AcDbBlockBegin
  2
YGR_DSP_MULT_DATAB_EXT_WIRE
 70
     0
 10
0.0
 20
0.0
 30
0.0
  1

  0
LINE
  5
FFFFEA6077A9F52A
100
AcDbEntity
  8
SIMPLE
  6
CONTINUOUS
100
AcDbLine
 10
128.462726
 20
-1395.0
 30
0.0
 11
20.0
 21
-1395.0
 31
0.0
  0
LINE
  5
FFFFEA6077A9F522
100
AcDbEntity
  8
SIMPLE
  6
CONTINUOUS
100
AcDbLine
 10
19.804505
 20
-1399.804505
 30
0.0
 11
19.804505
 21
-1390.195495
 31
0.0
  0
LINE
  5
FFFFEA6077A9F523
100
AcDbEntity
  8
SIMPLE
  6
CONTINUOUS
100
AcDbLine
 10
19.804505
 20
-1390.195495
 30
0.0
 11
10.195496
 21
-1390.195495
 31
0.0
  0
LINE
  5
FFFFEA6077A9F524
100
AcDbEntity
  8
SIMPLE
  6
CONTINUOUS
100
AcDbLine
 10
10.195496
 20
-1390.195495
 30
0.0
 11
10.195496
 21
-1399.804505
 31
0.0
  0
LINE
  5
FFFFEA6077A9F525
100
AcDbEntity
  8
SIMPLE
  6
CONTINUOUS
100
AcDbLine
 10
10.195496
 20
-1399.804505
 30
0.0
 11
19.804505
 21
-1399.804505
 31
0.0
  0
LINE
  5
FFFFEA6077A9F526
100
AcDbEntity
  8
SIMPLE
  6
CONTINUOUS
100
AcDbLine
 10
19.804505
 20
-1399.804505
 30
0.0
 11
10.195496
 21
-1390.195495
 31
0.0
  0
LINE
  5
FFFFEA6077A9F527
100
AcDbEntity
  8
SIMPLE
  6
CONTINUOUS
100
AcDbLine
 10
19.804505
 20
-1390.195495
 30
0.0
 11
10.195496
 21
-1399.804505
 31
0.0
  0
ENDBLK
  5
FFFFEA6077A9F52D
100
AcDbEntity
  8
SIMPLE
  6
CONTINUOUS
100
AcDbBlockEnd
  0
BLOCK
  5
FFFFFD1688D09734
100
AcDbEntity
  8
SIMPLE
  6
CONTINUOUS
100
AcDbBlockBegin
  2
YGR_DSP_MULT
 70
     2
 10
0.0
 20
0.0
 30
0.0
  1

  0
INSERT
  5
FCC300DBB32
100
AcDbEntity
  8
PORTS
  6
CONTINUOUS
 62
    50
100
AcDbBlockReference
 66
     1
  2
YGR_DSP_MULT_DATAOUT_PORT
 10
-5.0
 20
1120.0
 30
0.0
  0
ATTRIB
  5
FCC300DBB33
100
AcDbEntity
  8
PORTS
  6
CONTINUOUS
 62
   249
100
AcDbText
 10
622.182629
 20
-228.589488
 30
0.0
 40
6.788225
  1
RIGHT
  7
SIMPLEX
100
AcDbAttribute
  2
SIDE
 70
     0
  0
SEQEND
  5
FCC300DBB34
100
AcDbEntity
  8
PORTS
  6
CONTINUOUS
 62
    50
  0
INSERT
  5
FCC300DBB39
100
AcDbEntity
  8
SIMPLE
  6
CONTINUOUS
100
AcDbBlockReference
  2
YGR_DSP_MULT_DATAOUT_WIRE
 10
-5.0
 20
1120.0
 30
0.0
  0
INSERT
  5
FCC300DBB4F
100
AcDbEntity
  8
SIMPLE
  6
CONTINUOUS
100
AcDbBlockReference
  2
YGR_DSP_MULT_SIGNB_WIRE
 10
-5.0
 20
1120.0
 30
0.0
  0
INSERT
  5
FCC300DBB40
100
AcDbEntity
  8
SIMPLE
  6
CONTINUOUS
100
AcDbBlockReference
  2
YGR_DSP_MULT_CLR_WIRE
 10
-5.0
 20
1120.0
 30
0.0
  0
INSERT
  5
FCC300DBB41
100
AcDbEntity
  8
SIMPLE
  6
CONTINUOUS
100
AcDbBlockReference
  2
YGR_DSP_MULT_ENA_WIRE
 10
-5.0
 20
1120.0
 30
0.0
  0
INSERT
  5
FCC300DBB42
100
AcDbEntity
  8
SIMPLE
  6
CONTINUOUS
100
AcDbBlockReference
  2
YGR_DSP_MULT_CLK_WIRE
 10
-5.0
 20
1120.0
 30
0.0
  0
INSERT
  5
FCC300DBB43
100
AcDbEntity
  8
PORTS
  6
CONTINUOUS
 62
    50
100
AcDbBlockReference
 66
     1
  2
YGR_DSP_MULT_CLK_PORT
 10
-5.0
 20
1120.0
 30
0.0
  0
ATTRIB
  5
FCC300DBB44
100
AcDbEntity
  8
PORTS
  6
CONTINUOUS
 62
   249
100
AcDbText
 10
469.6
 20
-32.2
 30
0.0
 40
6.788225
  1
TOP
 50
270.0
  7
SIMPLEX
100
AcDbAttribute
  2
SIDE
 70
     0
  0
SEQEND
  5
FCC300DBB45
100
AcDbEntity
  8
PORTS
  6
CONTINUOUS
 62
    50
  0
INSERT
  5
FCC300DBB46
100
AcDbEntity
  8
PORTS
  6
CONTINUOUS
 62
    50
100
AcDbBlockReference
 66
     1
  2
YGR_DSP_MULT_ENA_PORT
 10
-5.0
 20
1120.0
 30
0.0
  0
ATTRIB
  5
FCC300DBB47
100
AcDbEntity
  8
PORTS
  6
CONTINUOUS
 62
   249
100
AcDbText
 10
494.6
 20
-32.2
 30
0.0
 40
6.788225
  1
TOP
 50
270.0
  7
SIMPLEX
100
AcDbAttribute
  2
SIDE
 70
     0
  0
SEQEND
  5
FCC300DBB48
100
AcDbEntity
  8
PORTS
  6
CONTINUOUS
 62
    50
  0
INSERT
  5
FCC300DBB49
100
AcDbEntity
  8
PORTS
  6
CONTINUOUS
 62
    50
100
AcDbBlockReference
 66
     1
  2
YGR_DSP_MULT_CLR_PORT
 10
-5.0
 20
1120.0
 30
0.0
  0
ATTRIB
  5
FCC300DBB4A
100
AcDbEntity
  8
PORTS
  6
CONTINUOUS
 62
   249
100
AcDbText
 10
519.6
 20
-32.2
 30
0.0
 40
6.788225
  1
TOP
 50
270.0
  7
SIMPLEX
100
AcDbAttribute
  2
SIDE
 70
     0
  0
SEQEND
  5
FCC300DBB4B
100
AcDbEntity
  8
PORTS
  6
CONTINUOUS
 62
    50
  0
INSERT
  5
FCC300DBB4C
100
AcDbEntity
  8
PORTS
  6
CONTINUOUS
 62
    50
100
AcDbBlockReference
 66
     1
  2
YGR_DSP_MULT_SIGNB_PORT
 10
-5.0
 20
1120.0
 30
0.0
  0
ATTRIB
  5
FCC300DBB4D
100
AcDbEntity
  8
PORTS
  6
CONTINUOUS
 62
   249
100
AcDbText
 10
369.6
 20
-32.2
 30
0.0
 40
6.788225
  1
TOP
 50
270.0
  7
SIMPLEX
100
AcDbAttribute
  2
SIDE
 70
     0
  0
SEQEND
  5
FCC300DBB4E
100
AcDbEntity
  8
PORTS
  6
CONTINUOUS
 62
    50
  0
INSERT
  5
FCC300DBB51
100
AcDbEntity
  8
PORTS
  6
CONTINUOUS
 62
    50
100
AcDbBlockReference
 66
     1
  2
YGR_DSP_MULT_SIGNA_PORT
 10
-5.0
 20
1120.0
 30
0.0
  0
ATTRIB
  5
FCC300DBB52
100
AcDbEntity
  8
PORTS
  6
CONTINUOUS
 62
   249
100
AcDbText
 10
274.610075
 20
-32.2
 30
0.0
 40
6.788225
  1
TOP
 50
270.0
  7
SIMPLEX
100
AcDbAttribute
  2
SIDE
 70
     0
  0
SEQEND
  5
FCC300DBB53
100
AcDbEntity
  8
PORTS
  6
CONTINUOUS
 62
    50
  0
INSERT
  5
FCC300DBB3E
100
AcDbEntity
  8
SIMPLE
  6
CONTINUOUS
100
AcDbBlockReference
  2
YGR_DSP_MULT_BOUNDARY
 10
-5.0
 20
1120.0
 30
0.0
  0
ATTDEF
  5
FCC300DBB3F
100
AcDbEntity
  8
SIMPLE
  6
CONTINUOUS
100
AcDbText
 10
506.981658
 20
-130.443631
 30
0.0
 40
19.2
  1

  7
SIMPLEX
100
AcDbAttributeDefinition
  3

  2
index
 70
     0
  0
INSERT
  5
FCC300DBB50
100
AcDbEntity
  8
SIMPLE
  6
CONTINUOUS
100
AcDbBlockReference
  2
YGR_DSP_MULT_SIGNA_WIRE
 10
-5.0
 20
1120.0
 30
0.0
  0
INSERT
  5
FCC300DBB54
100
AcDbEntity
  8
PORTS
  6
CONTINUOUS
 62
    50
100
AcDbBlockReference
 66
     1
  2
YGR_DSP_MULT_DATAA_PORT
 10
-5.0
 20
1120.0
 30
0.0
  0
ATTRIB
  5
FCC300DBB55
100
AcDbEntity
  8
PORTS
  6
CONTINUOUS
 62
   249
100
AcDbText
 10
147.462726
 20
-185.4
 30
0.0
 40
6.788225
  1
LEFT
  7
SIMPLEX
100
AcDbAttribute
  2
SIDE
 70
     0
  0
SEQEND
  5
FCC300DBB56
100
AcDbEntity
  8
PORTS
  6
CONTINUOUS
 62
    50
  0
INSERT
  5
FFFFFD1688D09733
100
AcDbEntity
  8
SIMPLE
  6
CONTINUOUS
100
AcDbBlockReference
  2
YGR_DSP_MULT_DATAA_EXT_WIRE
 10
0.0
 20
0.0
 30
0.0
  0
INSERT
  5
FCC300DBB5C
100
AcDbEntity
  8
SIMPLE
  6
CONTINUOUS
100
AcDbBlockReference
  2
YGR_DSP_MULT_DATAB_EXT_WIRE
 10
-5.0
 20
1120.0
 30
0.0
  0
INSERT
  5
FCC300DBB57
100
AcDbEntity
  8
PORTS
  6
CONTINUOUS
 62
    50
100
AcDbBlockReference
 66
     1
  2
YGR_DSP_MULT_DATAB_PORT
 10
-5.0
 20
1120.0
 30
0.0
  0
ATTRIB
  5
FCC300DBB58
100
AcDbEntity
  8
PORTS
  6
CONTINUOUS
 62
   249
100
AcDbText
 10
147.462726
 20
-265.4
 30
0.0
 40
6.788225
  1
LEFT
  7
SIMPLEX
100
AcDbAttribute
  2
SIDE
 70
     0
  0
SEQEND
  5
FCC300DBB59
100
AcDbEntity
  8
PORTS
  6
CONTINUOUS
 62
    50
  0
INSERT
  5
FCC300DBB3D
100
AcDbEntity
  8
SIMPLE
  6
CONTINUOUS
100
AcDbBlockReference
  2
YGR_DSP_MULT_DATAB_WIRE
 10
-5.0
 20
1120.0
 30
0.0
  0
INSERT
  5
FCC300DBB3C
100
AcDbEntity
  8
SIMPLE
  6
CONTINUOUS
100
AcDbBlockReference
  2
YGR_DSP_MULT_DATAA_WIRE
 10
-5.0
 20
1120.0
 30
0.0
  0
INSERT
  5
FCC300DBB3B
100
AcDbEntity
  8
SIMPLE
  6
CONTINUOUS
100
AcDbBlockReference
  2
YGR_DSP_MULT_DATAA_TO_MULT_WIRE
 10
-5.0
 20
1120.0
 30
0.0
  0
INSERT
  5
FCC300DBB3A
100
AcDbEntity
  8
SIMPLE
  6
CONTINUOUS
100
AcDbBlockReference
  2
YGR_DSP_MULT_DATAB_TO_MULT_WIRE
 10
-5.0
 20
1120.0
 30
0.0
  0
ENDBLK
  5
FFFFFD1688D09735
100
AcDbEntity
  8
SIMPLE
  6
CONTINUOUS
100
AcDbBlockEnd
  0
BLOCK
  5
FFFEF45C57A5D113
100
AcDbEntity
  8
SIMPLE
  6
CONTINUOUS
100
AcDbBlockBegin
  2
YGR_DSP_MULT_WIRE
 70
     0
 10
0.0
 20
0.0
 30
0.0
  1

  0
LINE
  5
FFFB13BBE3A6C901
100
AcDbEntity
  8
SIMPLE
  6
CONTINUOUS
100
AcDbLine
 10
437.217379
 20
-219.782931
 30
0.0
 11
456.206613
 21
-239.000951
 31
0.0
  0
LINE
  5
FFFB13BBE3A6C902
100
AcDbEntity
  8
SIMPLE
  6
CONTINUOUS
100
AcDbLine
 10
456.206613
 20
-219.782931
 30
0.0
 11
436.988593
 21
-239.000951
 31
0.0
  0
ENDBLK
  5
FFFEF45C57A5D115
100
AcDbEntity
  8
SIMPLE
  6
CONTINUOUS
100
AcDbBlockEnd
  0
BLOCK
  5
FFFFFEF39A143E8A
100
AcDbEntity
  8
SIMPLE
  6
CONTINUOUS
100
AcDbBlockBegin
  2
YGR_DSP
 70
     0
 10
0.0
 20
0.0
 30
0.0
  1

  0
INSERT
  5
FFFFFEF39A143E54
100
AcDbEntity
  8
PORTS
  6
CONTINUOUS
100
AcDbBlockReference
 66
     1
  2
YGR_DSP_OUT_CLK_PORT
 10
0.0
 20
0.0
 30
0.0
  0
ATTRIB
  5
FFFFFEF39A143E55
100
AcDbEntity
  8
PORTS
  6
CONTINUOUS
100
AcDbText
 10
915.0
 20
-30.0
 30
0.0
 40
7.071068
  1
TOP
 50
270.0
  7
SIMPLEX
100
AcDbAttribute
  2
SIDE
 70
     0
  0
SEQEND
  5
FFFFFEF39A143E56
100
AcDbEntity
  8
PORTS
  6
CONTINUOUS
  0
INSERT
  5
FFFFFEF39A143E57
100
AcDbEntity
  8
PORTS
  6
CONTINUOUS
100
AcDbBlockReference
 66
     1
  2
YGR_DSP_OUT_ENA_PORT
 10
0.0
 20
0.0
 30
0.0
  0
ATTRIB
  5
FFFFFEF39A143E58
100
AcDbEntity
  8
PORTS
  6
CONTINUOUS
100
AcDbText
 10
945.0
 20
-30.0
 30
0.0
 40
7.071068
  1
TOP
 50
270.0
  7
SIMPLEX
100
AcDbAttribute
  2
SIDE
 70
     0
  0
SEQEND
  5
FFFFFEF39A143E59
100
AcDbEntity
  8
PORTS
  6
CONTINUOUS
  0
INSERT
  5
FFFFFEF39A143E5A
100
AcDbEntity
  8
PORTS
  6
CONTINUOUS
100
AcDbBlockReference
 66
     1
  2
YGR_DSP_OUT_CLR_PORT
 10
0.0
 20
0.0
 30
0.0
  0
ATTRIB
  5
FFFFFEF39A143E5B
100
AcDbEntity
  8
PORTS
  6
CONTINUOUS
100
AcDbText
 10
975.0
 20
-30.0
 30
0.0
 40
7.071068
  1
TOP
 50
270.0
  7
SIMPLEX
100
AcDbAttribute
  2
SIDE
 70
     0
  0
SEQEND
  5
FFFFFEF39A143E5C
100
AcDbEntity
  8
PORTS
  6
CONTINUOUS
  0
INSERT
  5
FFFFFEF39A143E5D
100
AcDbEntity
  8
PORTS
  6
CONTINUOUS
100
AcDbBlockReference
 66
     1
  2
YGR_DSP_OUT_DATAA_PORT
 10
0.0
 20
390.0
 30
0.0
  0
ATTRIB
  5
FFFFFEF39A143E5E
100
AcDbEntity
  8
PORTS
  6
CONTINUOUS
100
AcDbText
 10
785.0
 20
-225.0
 30
0.0
 40
7.071068
  1
LEFT
  7
SIMPLEX
100
AcDbAttribute
  2
SIDE
 70
     0
  0
SEQEND
  5
FFFFFEF39A143E5F
100
AcDbEntity
  8
PORTS
  6
CONTINUOUS
  0
INSERT
  5
FFFFFEF39A143E60
100
AcDbEntity
  8
PORTS
  6
CONTINUOUS
100
AcDbBlockReference
 66
     1
  2
YGR_DSP_OUT_DATA_OUT_PORT
 10
-782.751804
 20
540.0
 30
0.0
  0
ATTRIB
  5
FFFFFEF39A143E61
100
AcDbEntity
  8
PORTS
  6
CONTINUOUS
100
AcDbText
 10
1120.0
 20
-220.0
 30
0.0
 40
7.071068
  1
RIGHT
  7
SIMPLEX
100
AcDbAttribute
  2
SIDE
 70
     0
  0
SEQEND
  5
FFFFFEF39A143E62
100
AcDbEntity
  8
PORTS
  6
CONTINUOUS
  0
INSERT
  5
FFFFFEF39A143E63
100
AcDbEntity
  8
DETAIL_MEDIUM
100
AcDbBlockReference
 66
     1
  2
YGR_DSP_OUT_MODE_STR
 10
0.0
 20
1042.0
 30
0.0
  0
ATTRIB
  5
FFFFFEF39A143E64
100
AcDbEntity
  8
DETAIL_MEDIUM
100
AcDbText
 10
1000.0
 20
-408.0
 30
0.0
 40
20.0
  1
10
  7
SIMPLEX
100
AcDbAttribute
  2
font
 70
     0
  0
SEQEND
  5
FFFFFEF39A143E65
100
AcDbEntity
  8
DETAIL_MEDIUM
  0
INSERT
  5
FFFFFEF39A143E66
100
AcDbEntity
  8
SIMPLE
  6
CONTINUOUS
100
AcDbBlockReference
 66
     1
  2
YGR_DSP_OUT_REG
 10
69.968
 20
-10.0
 30
0.0
  0
ATTRIB
  5
FFFFFEF39A143E67
100
AcDbEntity
  8
SIMPLE
  6
CONTINUOUS
100
AcDbText
 10
970.351868
 20
-259.245981
 30
0.0
 40
7.68
  1
1C
  7
SIMPLEX
100
AcDbAttribute
  2
index
 70
     0
  0
SEQEND
  5
FFFFFEF39A143E68
100
AcDbEntity
  8
SIMPLE
  6
CONTINUOUS
  0
INSERT
  5
FFFFFEF39A143E69
100
AcDbEntity
  8
SIMPLE
  6
CONTINUOUS
100
AcDbBlockReference
 66
     1
  2
YGR_DSP_MULT_BLOCK
 10
-5.0
 20
1120.0
 30
0.0
  0
ATTRIB
  5
FFFFFEF39A143E6A
100
AcDbEntity
  8
SIMPLE
  6
CONTINUOUS
100
AcDbText
 10
424.68475
 20
-208.141917
 30
0.0
 40
9.6
  1
3
  7
SIMPLEX
100
AcDbAttribute
  2
index
 70
     0
  0
SEQEND
  5
FFFFFEF39A143E6B
100
AcDbEntity
  8
SIMPLE
  6
CONTINUOUS
  0
INSERT
  5
FFFFFEF39A143E6C
100
AcDbEntity
  8
SIMPLE
  6
CONTINUOUS
100
AcDbBlockReference
 66
     1
  2
YGR_DSP_MULT_REG
 10
0.0
 20
1125.0
 30
0.0
  0
ATTRIB
  5
FFFFFEF39A143E6D
100
AcDbEntity
  8
SIMPLE
  6
CONTINUOUS
100
AcDbText
 10
255.383868
 20
-219.245981
 30
0.0
 40
7.68
  1
15
  7
SIMPLEX
100
AcDbAttribute
  2
index
 70
     0
  0
SEQEND
  5
FFFFFEF39A143E6E
100
AcDbEntity
  8
SIMPLE
  6
CONTINUOUS
  0
INSERT
  5
FFFFFEF39A143E6F
100
AcDbEntity
  8
SIMPLE
  6
CONTINUOUS
100
AcDbBlockReference
 66
     1
  2
YGR_DSP_MULT_REG
 10
0.0
 20
1045.0
 30
0.0
  0
ATTRIB
  5
FFFFFEF39A143E70
100
AcDbEntity
  8
SIMPLE
  6
CONTINUOUS
100
AcDbText
 10
255.383868
 20
-299.245981
 30
0.0
 40
7.68
  1
16
  7
SIMPLEX
100
AcDbAttribute
  2
index
 70
     0
  0
SEQEND
  5
FFFFFEF39A143E71
100
AcDbEntity
  8
SIMPLE
  6
CONTINUOUS
  0
INSERT
  5
FFFFFEF39A143E72
100
AcDbEntity
  8
SIMPLE
  6
CONTINUOUS
100
AcDbBlockReference
 66
     1
  2
YGR_DSP_MULT_REG
 10
35.0
 20
1200.0
 30
0.0
  0
ATTRIB
  5
FFFFFEF39A143E73
100
AcDbEntity
  8
SIMPLE
  6
CONTINUOUS
100
AcDbText
 10
290.383868
 20
-144.245981
 30
0.0
 40
7.68
  1
17
  7
SIMPLEX
100
AcDbAttribute
  2
index
 70
     0
  0
SEQEND
  5
FFFFFEF39A143E74
100
AcDbEntity
  8
SIMPLE
  6
CONTINUOUS
  0
INSERT
  5
FFFFFEF39A143E75
100
AcDbEntity
  8
SIMPLE
  6
CONTINUOUS
100
AcDbBlockReference
 66
     1
  2
YGR_DSP_MULT_REG
 10
130.032
 20
1200.0
 30
0.0
  0
ATTRIB
  5
FFFFFEF39A143E76
100
AcDbEntity
  8
SIMPLE
  6
CONTINUOUS
100
AcDbText
 10
385.415868
 20
-144.245981
 30
0.0
 40
7.68
  1
18
  7
SIMPLEX
100
AcDbAttribute
  2
index
 70
     0
  0
SEQEND
  5
FFFFFEF39A143E77
100
AcDbEntity
  8
SIMPLE
  6
CONTINUOUS
  0
INSERT
  5
FFFFFEF39A143E78
100
AcDbEntity
  8
SIMPLE
  6
CONTINUOUS
100
AcDbBlockReference
 66
     1
  2
YGR_DSP_MULT_REG
 10
265.032
 20
1085.0
 30
0.0
  0
ATTRIB
  5
FFFFFEF39A143E79
100
AcDbEntity
  8
SIMPLE
  6
CONTINUOUS
100
AcDbText
 10
520.415868
 20
-259.245981
 30
0.0
 40
7.68
  1
1B
  7
SIMPLEX
100
AcDbAttribute
  2
index
 70
     0
  0
SEQEND
  5
FFFFFEF39A143E7A
100
AcDbEntity
  8
SIMPLE
  6
CONTINUOUS
  0
INSERT
  5
FFFFFEF39A143E7B
100
AcDbEntity
  8
DETAIL_MEDIUM
100
AcDbBlockReference
 66
     1
  2
YGR_DSP_OUT_DATAA_TEXT
 10
-5.0
 20
390.0
 30
0.0
  0
ATTRIB
  5
FFFFFEF39A143E7C
100
AcDbEntity
  8
DETAIL_MEDIUM
100
AcDbText
 10
725.0
 20
-214.967135
 30
0.0
 40
10.0
  1
10
  7
SIMPLEX
100
AcDbAttribute
  2
font
 70
     0
  0
SEQEND
  5
FFFFFEF39A143E7D
100
AcDbEntity
  8
DETAIL_MEDIUM
  0
INSERT
  5
FFFFFEF39A143E7E
100
AcDbEntity
  8
SIMPLE
  6
CONTINUOUS
100
AcDbBlockReference
 66
     1
  2
YGR_DSP_MULT
 10
0.0
 20
0.0
 30
0.0
  0
ATTRIB
  5
FFFFFEF39A143E7F
100
AcDbEntity
  8
SIMPLE
  6
CONTINUOUS
100
AcDbText
 10
506.981658
 20
-130.443631
 30
0.0
 40
19.2
  1
3
  7
SIMPLEX
100
AcDbAttribute
  2
index
 70
     0
  0
SEQEND
  5
FFFFFEF39A143E80
100
AcDbEntity
  8
SIMPLE
  6
CONTINUOUS
  0
INSERT
  5
FFFFFEF39A143E81
100
AcDbEntity
  8
SIMPLE
  6
CONTINUOUS
100
AcDbBlockReference
  2
YGR_DSP_OUT_CLK_WIRE
 10
0.0
 20
0.0
 30
0.0
  0
INSERT
  5
FFFFFEF39A143E82
100
AcDbEntity
  8
SIMPLE
  6
CONTINUOUS
100
AcDbBlockReference
  2
YGR_DSP_OUT_ENA_WIRE
 10
0.0
 20
0.0
 30
0.0
  0
INSERT
  5
FFFFFEF39A143E83
100
AcDbEntity
  8
SIMPLE
  6
CONTINUOUS
100
AcDbBlockReference
  2
YGR_DSP_OUT_CLR_WIRE
 10
0.0
 20
0.0
 30
0.0
  0
INSERT
  5
FFFFFEF39A143E84
100
AcDbEntity
  8
SIMPLE
  6
CONTINUOUS
100
AcDbBlockReference
  2
YGR_DSP_OUT_BLOCK
 10
0.0
 20
0.0
 30
0.0
  0
INSERT
  5
FFFFFEF39A143E85
100
AcDbEntity
  8
SIMPLE
  6
CONTINUOUS
100
AcDbBlockReference
  2
YGR_DSP_OUT_DATA_OUT_WIRE
 10
0.0
 20
0.0
 30
0.0
  0
INSERT
  5
FFFFFEF39A143E86
100
AcDbEntity
  8
SIMPLE
  6
CONTINUOUS
100
AcDbBlockReference
  2
YGR_DSP_OUT_DATAA_WIRE
 10
0.0
 20
0.0
 30
0.0
  0
INSERT
  5
FFFFFEF39A143E87
100
AcDbEntity
  8
DETAIL_MEDIUM
100
AcDbBlockReference
 66
     1
  2
YGR_DSP_MULT_TO_OUT_TEXT
 10
0.0
 20
0.0
 30
0.0
  0
ATTRIB
  5
FFFFFEF39A143E88
100
AcDbEntity
  8
DETAIL_MEDIUM
100
AcDbText
 10
668.616573
 20
-250.173289
 30
0.0
 40
10.0
  1
3
  7
ARIAL
100
AcDbAttribute
  2
index
 70
     0
  0
SEQEND
  5
FFFFFEF39A143E89
100
AcDbEntity
  8
DETAIL_MEDIUM
  0
ENDBLK
  5
FFFFFEF39A143E8B
100
AcDbEntity
  8
SIMPLE
  6
CONTINUOUS
100
AcDbBlockEnd
  0
BLOCK
  5
FFFEF45C616AE2B5
100
AcDbEntity
  8
DETAIL_MEDIUM
100
AcDbBlockBegin
  2
YGR_DSP_MULT_REG_TEXT
 70
     0
 10
0.0
 20
0.0
 30
0.0
  1

  0
TEXT
  5
FFFEF45C616AE2B4
100
AcDbEntity
  8
DETAIL_MEDIUM
100
AcDbText
 10
283.408398
 20
-192.950393
 30
0.0
 40
4.992
  1
Q
100
AcDbText
  0
TEXT
  5
FFFEF45C616AE2B3
100
AcDbEntity
  8
DETAIL_MEDIUM
100
AcDbText
 10
257.036377
 20
-192.950393
 30
0.0
 40
4.992
  1
D
100
AcDbText
  0
ENDBLK
  5
FFFEF45C616AE2B6
100
AcDbEntity
  8
DETAIL_MEDIUM
100
AcDbBlockEnd
  0
BLOCK
  5
FFFEF45C57AAC337
100
AcDbEntity
  8
DETAIL_MEDIUM
100
AcDbBlockBegin
  2
YGR_DSP_MULT_REG_CLK_TEXT
 70
     0
 10
0.0
 20
0.0
 30
0.0
  1

  0
LINE
  5
FFFEF45C57A6718A
100
AcDbEntity
  8
DETAIL_MEDIUM
100
AcDbLine
 39
2.0
 10
258.284377
 20
-206.678393
 30
0.0
 11
253.292377
 21
-211.670393
 31
0.0
  0
LINE
  5
FFFEF45C57A6718B
100
AcDbEntity
  8
DETAIL_MEDIUM
100
AcDbLine
 39
2.0
 10
253.292377
 20
-201.686393
 30
0.0
 11
258.284377
 21
-206.678393
 31
0.0
  0
ENDBLK
  5
FFFEF45C57AAC339
100
AcDbEntity
  8
DETAIL_MEDIUM
100
AcDbBlockEnd
  0
BLOCK
  5
FFFEF45C57AAC33B
100
AcDbEntity
  8
DETAIL_MEDIUM
100
AcDbBlockBegin
  2
YGR_DSP_MULT_REG_ENA_TEXT
 70
     0
 10
0.0
 20
0.0
 30
0.0
  1

  0
TEXT
  5
FFFEF45C57A71247
100
AcDbEntity
  8
DETAIL_MEDIUM
100
AcDbText
 10
255.788377
 20
-222.902393
 30
0.0
 40
4.992
  1
en
100
AcDbText
  0
ENDBLK
  5
FFFEF45C57AAC33D
100
AcDbEntity
  8
DETAIL_MEDIUM
100
AcDbBlockEnd
  0
BLOCK
  5
FFFEF45C5C8AD2F0
100
AcDbEntity
  8
DETAIL_MEDIUM
  6
CONTINUOUS
100
AcDbBlockBegin
  2
YGR_DSP_MULT_REG_CLR_TEXT
 70
     0
 10
0.0
 20
0.0
 30
0.0
  1

  0
POLYLINE
  5
FFFEF45C5C8AD2EA
100
AcDbEntity
  8
DETAIL_MEDIUM
  6
CONTINUOUS
100
AcDb2dPolyline
 66
     1
 10
0.0
 20
0.0
 30
0.0
 70
     1
  0
VERTEX
  5
FFFEF45C5C8AD2EB
100
AcDbEntity
  8
DETAIL_MEDIUM
  6
CONTINUOUS
100
AcDbVertex
100
AcDb2dVertex
 10
266.03089
 20
-233.664049
 30
0.0
  0
VERTEX
  5
FFFEF45C5C8AD2EC
100
AcDbEntity
  8
DETAIL_MEDIUM
  6
CONTINUOUS
100
AcDbVertex
100
AcDb2dVertex
 10
279.664856
 20
-233.664049
 30
0.0
  0
VERTEX
  5
FFFEF45C5C8AD2ED
100
AcDbEntity
  8
DETAIL_MEDIUM
  6
CONTINUOUS
100
AcDbVertex
100
AcDb2dVertex
 10
279.664856
 20
-246.614393
 30
0.0
  0
VERTEX
  5
FFFEF45C5C8AD2EE
100
AcDbEntity
  8
DETAIL_MEDIUM
  6
CONTINUOUS
100
AcDbVertex
100
AcDb2dVertex
 10
266.03089
 20
-246.614393
 30
0.0
  0
SEQEND
  5
FFFEF45C5C8AD2EF
100
AcDbEntity
  8
DETAIL_MEDIUM
  6
CONTINUOUS
  0
TEXT
  5
FFFEF45C5C8AD2E9
100
AcDbEntity
  8
DETAIL_MEDIUM
100
AcDbText
 10
269.77489
 20
-242.870393
 30
0.0
 40
4.992
  1
C
100
AcDbText
  0
ENDBLK
  5
FFFEF45C5C8AD2F1
100
AcDbEntity
  8
DETAIL_MEDIUM
  6
CONTINUOUS
100
AcDbBlockEnd
  0
BLOCK
  5
FFFFEA61809BC340
100
AcDbEntity
  8
SIMPLE
  6
CONTINUOUS
100
AcDbBlockBegin
  2
YGR_DSP_MULT_BYPASS_REG
 70
     0
 10
0.0
 20
0.0
 30
0.0
  1

  0
LINE
  5
FFFFEA61809BC33E
100
AcDbEntity
  8
SIMPLE
  6
CONTINUOUS
100
AcDbLine
 10
290.0
 20
-1315.0
 30
0.0
 11
250.0
 21
-1315.0
 31
0.0
  0
ENDBLK
  5
FFFFEA61809BC341
100
AcDbEntity
  8
SIMPLE
  6
CONTINUOUS
100
AcDbBlockEnd
  0
BLOCK
  5
FFFFFCF4754F17AF
100
AcDbEntity
  8
SIMPLE
  6
CONTINUOUS
100
AcDbBlockBegin
  2
YGR_DSP_MULT_REG
 70
     2
 10
0.0
 20
0.0
 30
0.0
  1

  0
INSERT
  5
FFFFFCF4754F17AE
100
AcDbEntity
  8
DETAIL_MEDIUM
  6
CONTINUOUS
100
AcDbBlockReference
  2
YGR_DSP_MULT_REG_BLOCK
 10
0.0
 20
0.0
 30
0.0
  0
INSERT
  5
FFFFFCF4754F17AA
100
AcDbEntity
  8
DETAIL_MEDIUM
  6
CONTINUOUS
100
AcDbBlockReference
  2
YGR_DSP_MULT_REG_CLR_TEXT
 10
-8.260377
 20
-1129.448368
 30
0.0
  0
ATTDEF
  5
FFFFFCF4754F17A7
100
AcDbEntity
  8
SIMPLE
  6
CONTINUOUS
100
AcDbText
 10
255.383868
 20
-1344.245981
 30
0.0
 40
7.68
  1

  7
SIMPLEX
100
AcDbAttributeDefinition
  3

  2
index
 70
     0
  0
INSERT
  5
FFFFFCF4754F17A9
100
AcDbEntity
  8
DETAIL_MEDIUM
100
AcDbBlockReference
  2
YGR_DSP_MULT_REG_ENA_TEXT
 10
-8.260377
 20
-1129.448368
 30
0.0
  0
INSERT
  5
FFFFFCF4754F179F
100
AcDbEntity
  8
SIMPLE
  6
CONTINUOUS
100
AcDbBlockReference
  2
YGR_DSP_MULT_BYPASS_REG
 10
-5.0
 20
-5.0
 30
0.0
  0
INSERT
  5
FFFFFCF4754F17A0
100
AcDbEntity
  8
DETAIL_MEDIUM
100
AcDbBlockReference
  2
YGR_DSP_MULT_REG_TEXT
 10
-8.260377
 20
-1129.448368
 30
0.0
  0
INSERT
  5
FFFFFCF4754F17A8
100
AcDbEntity
  8
DETAIL_MEDIUM
100
AcDbBlockReference
  2
YGR_DSP_MULT_REG_CLK_TEXT
 10
-8.260377
 20
-1129.448368
 30
0.0
  0
ENDBLK
  5
FFFFFCF4754F17B0
100
AcDbEntity
  8
SIMPLE
  6
CONTINUOUS
100
AcDbBlockEnd
  0
BLOCK
  5
FFFFEA609238AD8B
100
AcDbEntity
  8
SIMPLE
  6
CONTINUOUS
100
AcDbBlockBegin
  2
YGR_DSP_MULT_CIRCLE
 70
     0
 10
0.0
 20
0.0
 30
0.0
  1

  0
LINE
  5
FFFFEA609238AD89
100
AcDbEntity
  8
SIMPLE
  6
CONTINUOUS
100
AcDbLine
 10
515.032
 20
-1355.0
 30
0.0
 11
467.848294
 21
-1355.0
 31
0.0
  0
CIRCLE
  5
E06497A434FC
100
AcDbEntity
  8
SIMPLE
  6
CONTINUOUS
100
AcDbCircle
 10
444.175322
 20
-1354.195805
 30
0.0
 40
23.793739
  0
ENDBLK
  5
FFFFEA609238AD8C
100
AcDbEntity
  8
SIMPLE
  6
CONTINUOUS
100
AcDbBlockEnd
  0
BLOCK
  5
FFFFEA604348C181
100
AcDbEntity
  8
SIMPLE
  6
CONTINUOUS
100
AcDbBlockBegin
  2
YGR_DSP_MULT_BOUNDARY
 70
     0
 10
0.0
 20
0.0
 30
0.0
  1

  0
LINE
  5
FFFFEA604348C17D
100
AcDbEntity
  8
SIMPLE
  6
CONTINUOUS
100
AcDbLine
 10
584.967742
 20
-1460.0
 30
0.0
 11
584.967742
 21
-1220.0
 31
0.0
  0
LINE
  5
FFFFEA604348C178
100
AcDbEntity
  8
SIMPLE
  6
CONTINUOUS
100
AcDbLine
 10
230.0
 20
-1220.0
 30
0.0
 11
585.0
 21
-1220.0
 31
0.0
  0
LINE
  5
FFFFEA604348C17F
100
AcDbEntity
  8
SIMPLE
  6
CONTINUOUS
100
AcDbLine
 10
230.0
 20
-1460.0
 30
0.0
 11
230.0
 21
-1220.0
 31
0.0
  0
LINE
  5
FFFFEA604348C17B
100
AcDbEntity
  8
SIMPLE
  6
CONTINUOUS
100
AcDbLine
 10
230.0
 20
-1460.0
 30
0.0
 11
584.967742
 21
-1460.0
 31
0.0
  0
ENDBLK
  5
FFFFEA604348C182
100
AcDbEntity
  8
SIMPLE
  6
CONTINUOUS
100
AcDbBlockEnd
  0
BLOCK
  5
FFFFEA61809C8677
100
AcDbEntity
  8
PORTS
  6
CONTINUOUS
100
AcDbBlockBegin
  2
YGR_DSP_OUT_DATAA_PORT
 70
     2
 10
0.0
 20
0.0
 30
0.0
  1

  0
POINT
  5
E0593FDDD283
100
AcDbEntity
  8
PORTS
  6
CONTINUOUS
100
AcDbPoint
 10
840.0
 20
-625.0
 30
0.0
  0
POLYLINE
  5
E0593FDDD284
100
AcDbEntity
  8
PORTS
  6
CONTINUOUS
100
AcDb2dPolyline
 66
     1
 10
0.0
 20
0.0
 30
0.0
 70
     1
  0
VERTEX
  5
E0593FDDD285
100
AcDbEntity
  8
PORTS
  6
CONTINUOUS
100
AcDbVertex
100
AcDb2dVertex
 10
840.0
 20
-625.0
 30
0.0
  0
VERTEX
  5
E0593FDDD286
100
AcDbEntity
  8
PORTS
  6
CONTINUOUS
100
AcDbVertex
100
AcDb2dVertex
 10
832.0
 20
-631.0
 30
0.0
  0
VERTEX
  5
E0593FDDD287
100
AcDbEntity
  8
PORTS
  6
CONTINUOUS
100
AcDbVertex
100
AcDb2dVertex
 10
760.0
 20
-631.0
 30
0.0
  0
VERTEX
  5
E0593FDDD288
100
AcDbEntity
  8
PORTS
  6
CONTINUOUS
100
AcDbVertex
100
AcDb2dVertex
 10
760.0
 20
-619.0
 30
0.0
  0
VERTEX
  5
E0593FDDD289
100
AcDbEntity
  8
PORTS
  6
CONTINUOUS
100
AcDbVertex
100
AcDb2dVertex
 10
832.0
 20
-619.0
 30
0.0
  0
VERTEX
  5
E0593FDDD28A
100
AcDbEntity
  8
PORTS
  6
CONTINUOUS
100
AcDbVertex
100
AcDb2dVertex
 10
840.0
 20
-625.0
 30
0.0
  0
SEQEND
  5
E0593FDDD28B
100
AcDbEntity
  8
PORTS
  6
CONTINUOUS
  0
ATTDEF
  5
E0593FDDD28C
100
AcDbEntity
  8
PORTS
  6
CONTINUOUS
100
AcDbText
 10
785.0
 20
-615.0
 30
0.0
 40
7.071068
  1

  7
SIMPLEX
100
AcDbAttributeDefinition
  3

  2
SIDE
 70
     0
  0
ENDBLK
  5
FFFFEA61809C8678
100
AcDbEntity
  8
PORTS
  6
CONTINUOUS
100
AcDbBlockEnd
  0
BLOCK
  5
FFFFEA61809BC5BB
100
AcDbEntity
  8
PORTS
  6
CONTINUOUS
100
AcDbBlockBegin
  2
YGR_DSP_OUT_CLK_PORT
 70
     2
 10
0.0
 20
0.0
 30
0.0
  1

  0
POLYLINE
  5
E0593FDC50CD
100
AcDbEntity
  8
PORTS
  6
CONTINUOUS
100
AcDb2dPolyline
 66
     1
 10
0.0
 20
0.0
 30
0.0
 70
     1
  0
VERTEX
  5
E0593FDC50CE
100
AcDbEntity
  8
PORTS
  6
CONTINUOUS
100
AcDbVertex
100
AcDb2dVertex
 10
905.0
 20
-85.0
 30
0.0
  0
VERTEX
  5
E0593FDC50CF
100
AcDbEntity
  8
PORTS
  6
CONTINUOUS
100
AcDbVertex
100
AcDb2dVertex
 10
899.0
 20
-77.0
 30
0.0
  0
VERTEX
  5
E0593FDC50D0
100
AcDbEntity
  8
PORTS
  6
CONTINUOUS
100
AcDbVertex
100
AcDb2dVertex
 10
899.0
 20
-5.0
 30
0.0
  0
VERTEX
  5
E0593FDC50D1
100
AcDbEntity
  8
PORTS
  6
CONTINUOUS
100
AcDbVertex
100
AcDb2dVertex
 10
911.0
 20
-5.0
 30
0.0
  0
VERTEX
  5
E0593FDC50D2
100
AcDbEntity
  8
PORTS
  6
CONTINUOUS
100
AcDbVertex
100
AcDb2dVertex
 10
911.0
 20
-77.0
 30
0.0
  0
VERTEX
  5
E0593FDC50D3
100
AcDbEntity
  8
PORTS
  6
CONTINUOUS
100
AcDbVertex
100
AcDb2dVertex
 10
905.0
 20
-85.0
 30
0.0
  0
SEQEND
  5
E0593FDC50D4
100
AcDbEntity
  8
PORTS
  6
CONTINUOUS
  0
ATTDEF
  5
E0593FDC50CC
100
AcDbEntity
  8
PORTS
  6
CONTINUOUS
100
AcDbText
 10
915.0
 20
-30.0
 30
0.0
 40
7.071068
  1

 50
270.0
  7
SIMPLEX
100
AcDbAttributeDefinition
  3

  2
SIDE
 70
     0
  0
POINT
  5
E0593FDC50D5
100
AcDbEntity
  8
PORTS
  6
CONTINUOUS
100
AcDbPoint
 10
905.0
 20
-85.0
 30
0.0
  0
ENDBLK
  5
FFFFEA61809BC5BC
100
AcDbEntity
  8
PORTS
  6
CONTINUOUS
100
AcDbBlockEnd
  0
BLOCK
  5
FFFFFEF39A143C8A
100
AcDbEntity
  8
SIMPLE
  6
CONTINUOUS
100
AcDbBlockBegin
  2
YGR_DSP_OUT_CLK_WIRE
 70
     0
 10
0.0
 20
0.0
 30
0.0
  1

  0
LINE
  5
FFFFFEF39A143C84
100
AcDbEntity
  8
SIMPLE
  6
CONTINUOUS
100
AcDbLine
 10
905.0
 20
-85.0
 30
0.0
 11
905.0
 21
-100.0
 31
0.0
  0
ENDBLK
  5
FFFFFEF39A143C8B
100
AcDbEntity
  8
SIMPLE
  6
CONTINUOUS
100
AcDbBlockEnd
  0
BLOCK
  5
FFFFEA61809BC5D1
100
AcDbEntity
  8
PORTS
  6
CONTINUOUS
100
AcDbBlockBegin
  2
YGR_DSP_OUT_ENA_PORT
 70
     2
 10
0.0
 20
0.0
 30
0.0
  1

  0
POINT
  5
E0593FDC50F7
100
AcDbEntity
  8
PORTS
  6
CONTINUOUS
100
AcDbPoint
 10
935.0
 20
-85.0
 30
0.0
  0
POLYLINE
  5
E0593FDC50EF
100
AcDbEntity
  8
PORTS
  6
CONTINUOUS
100
AcDb2dPolyline
 66
     1
 10
0.0
 20
0.0
 30
0.0
 70
     1
  0
VERTEX
  5
E0593FDC50F0
100
AcDbEntity
  8
PORTS
  6
CONTINUOUS
100
AcDbVertex
100
AcDb2dVertex
 10
935.0
 20
-85.0
 30
0.0
  0
VERTEX
  5
E0593FDC50F1
100
AcDbEntity
  8
PORTS
  6
CONTINUOUS
100
AcDbVertex
100
AcDb2dVertex
 10
929.0
 20
-77.0
 30
0.0
  0
VERTEX
  5
E0593FDC50F2
100
AcDbEntity
  8
PORTS
  6
CONTINUOUS
100
AcDbVertex
100
AcDb2dVertex
 10
929.0
 20
-5.0
 30
0.0
  0
VERTEX
  5
E0593FDC50F3
100
AcDbEntity
  8
PORTS
  6
CONTINUOUS
100
AcDbVertex
100
AcDb2dVertex
 10
941.0
 20
-5.0
 30
0.0
  0
VERTEX
  5
E0593FDC50F4
100
AcDbEntity
  8
PORTS
  6
CONTINUOUS
100
AcDbVertex
100
AcDb2dVertex
 10
941.0
 20
-77.0
 30
0.0
  0
VERTEX
  5
E0593FDC50F5
100
AcDbEntity
  8
PORTS
  6
CONTINUOUS
100
AcDbVertex
100
AcDb2dVertex
 10
935.0
 20
-85.0
 30
0.0
  0
SEQEND
  5
E0593FDC50F6
100
AcDbEntity
  8
PORTS
  6
CONTINUOUS
  0
ATTDEF
  5
E0593FDC50EE
100
AcDbEntity
  8
PORTS
  6
CONTINUOUS
100
AcDbText
 10
945.0
 20
-30.0
 30
0.0
 40
7.071068
  1

 50
270.0
  7
SIMPLEX
100
AcDbAttributeDefinition
  3

  2
SIDE
 70
     0
  0
ENDBLK
  5
FFFFEA61809BC5D2
100
AcDbEntity
  8
PORTS
  6
CONTINUOUS
100
AcDbBlockEnd
  0
BLOCK
  5
FFFFFEF39A143C8D
100
AcDbEntity
  8
SIMPLE
  6
CONTINUOUS
100
AcDbBlockBegin
  2
YGR_DSP_OUT_ENA_WIRE
 70
     0
 10
0.0
 20
0.0
 30
0.0
  1

  0
LINE
  5
FFFFFEF39A143C86
100
AcDbEntity
  8
SIMPLE
  6
CONTINUOUS
100
AcDbLine
 10
935.0
 20
-85.0
 30
0.0
 11
935.0
 21
-100.0
 31
0.0
  0
ENDBLK
  5
FFFFFEF39A143C8E
100
AcDbEntity
  8
SIMPLE
  6
CONTINUOUS
100
AcDbBlockEnd
  0
BLOCK
  5
FFFFEA61809BC5DD
100
AcDbEntity
  8
PORTS
  6
CONTINUOUS
100
AcDbBlockBegin
  2
YGR_DSP_OUT_CLR_PORT
 70
     2
 10
0.0
 20
0.0
 30
0.0
  1

  0
POINT
  5
E0593FDC5105
100
AcDbEntity
  8
PORTS
  6
CONTINUOUS
100
AcDbPoint
 10
965.0
 20
-85.0
 30
0.0
  0
POLYLINE
  5
E0593FDC50FD
100
AcDbEntity
  8
PORTS
  6
CONTINUOUS
100
AcDb2dPolyline
 66
     1
 10
0.0
 20
0.0
 30
0.0
 70
     1
  0
VERTEX
  5
E0593FDC50FE
100
AcDbEntity
  8
PORTS
  6
CONTINUOUS
100
AcDbVertex
100
AcDb2dVertex
 10
965.0
 20
-85.0
 30
0.0
  0
VERTEX
  5
E0593FDC50FF
100
AcDbEntity
  8
PORTS
  6
CONTINUOUS
100
AcDbVertex
100
AcDb2dVertex
 10
959.0
 20
-77.0
 30
0.0
  0
VERTEX
  5
E0593FDC5100
100
AcDbEntity
  8
PORTS
  6
CONTINUOUS
100
AcDbVertex
100
AcDb2dVertex
 10
959.0
 20
-5.0
 30
0.0
  0
VERTEX
  5
E0593FDC5101
100
AcDbEntity
  8
PORTS
  6
CONTINUOUS
100
AcDbVertex
100
AcDb2dVertex
 10
971.0
 20
-5.0
 30
0.0
  0
VERTEX
  5
E0593FDC5102
100
AcDbEntity
  8
PORTS
  6
CONTINUOUS
100
AcDbVertex
100
AcDb2dVertex
 10
971.0
 20
-77.0
 30
0.0
  0
VERTEX
  5
E0593FDC5103
100
AcDbEntity
  8
PORTS
  6
CONTINUOUS
100
AcDbVertex
100
AcDb2dVertex
 10
965.0
 20
-85.0
 30
0.0
  0
SEQEND
  5
E0593FDC5104
100
AcDbEntity
  8
PORTS
  6
CONTINUOUS
  0
ATTDEF
  5
E0593FDC50FC
100
AcDbEntity
  8
PORTS
  6
CONTINUOUS
100
AcDbText
 10
975.0
 20
-30.0
 30
0.0
 40
7.071068
  1

 50
270.0
  7
SIMPLEX
100
AcDbAttributeDefinition
  3

  2
SIDE
 70
     0
  0
ENDBLK
  5
FFFFEA61809BC5DE
100
AcDbEntity
  8
PORTS
  6
CONTINUOUS
100
AcDbBlockEnd
  0
BLOCK
  5
FFFFFEF39A143C90
100
AcDbEntity
  8
SIMPLE
  6
CONTINUOUS
100
AcDbBlockBegin
  2
YGR_DSP_OUT_CLR_WIRE
 70
     0
 10
0.0
 20
0.0
 30
0.0
  1

  0
LINE
  5
FFFFFEF39A143C88
100
AcDbEntity
  8
SIMPLE
  6
CONTINUOUS
100
AcDbLine
 10
965.0
 20
-85.0
 30
0.0
 11
965.0
 21
-100.0
 31
0.0
  0
ENDBLK
  5
FFFFFEF39A143C91
100
AcDbEntity
  8
SIMPLE
  6
CONTINUOUS
100
AcDbBlockEnd
  0
BLOCK
  5
FFFEF469C1A14EDD
100
AcDbEntity
  8
DETAIL_MEDIUM
100
AcDbBlockBegin
  2
YGR_DSP_OUT_REG_TEXT
 70
     0
 10
0.0
 20
0.0
 30
0.0
  1

  0
TEXT
  5
FFFEF469C1A1387A
100
AcDbEntity
  8
DETAIL_MEDIUM
100
AcDbText
 10
927.572785
 20
-216.833206
 30
0.0
 40
4.992
  1
Q
100
AcDbText
  0
TEXT
  5
FFFEF469C1A1387B
100
AcDbEntity
  8
DETAIL_MEDIUM
100
AcDbText
 10
901.200764
 20
-216.833206
 30
0.0
 40
4.992
  1
D
100
AcDbText
  0
ENDBLK
  5
FFFEF469C1A14EDF
100
AcDbEntity
  8
DETAIL_MEDIUM
100
AcDbBlockEnd
  0
BLOCK
  5
FFFEF469C1A14EE1
100
AcDbEntity
  8
DETAIL_MEDIUM
100
AcDbBlockBegin
  2
YGR_DSP_OUT_REG_CLK_TEXT
 70
     0
 10
0.0
 20
0.0
 30
0.0
  1

  0
LINE
  5
FFFEF469C1A1387E
100
AcDbEntity
  8
DETAIL_MEDIUM
100
AcDbLine
 39
2.0
 10
902.448764
 20
-230.561206
 30
0.0
 11
897.456764
 21
-235.553206
 31
0.0
  0
LINE
  5
FFFEF469C1A1387F
100
AcDbEntity
  8
DETAIL_MEDIUM
100
AcDbLine
 39
2.0
 10
897.456764
 20
-225.569206
 30
0.0
 11
902.448764
 21
-230.561206
 31
0.0
  0
ENDBLK
  5
FFFEF469C1A14EE3
100
AcDbEntity
  8
DETAIL_MEDIUM
100
AcDbBlockEnd
  0
BLOCK
  5
FFFEF469C1A14EE5
100
AcDbEntity
  8
DETAIL_MEDIUM
100
AcDbBlockBegin
  2
YGR_DSP_OUT_REG_ENA_TEXT
 70
     0
 10
0.0
 20
0.0
 30
0.0
  1

  0
TEXT
  5
FFFEF469C1A1387D
100
AcDbEntity
  8
DETAIL_MEDIUM
100
AcDbText
 10
899.952764
 20
-246.785206
 30
0.0
 40
4.992
  1
en
100
AcDbText
  0
ENDBLK
  5
FFFEF469C1A14EE7
100
AcDbEntity
  8
DETAIL_MEDIUM
100
AcDbBlockEnd
  0
BLOCK
  5
FFFEF469C1A14EE9
100
AcDbEntity
  8
DETAIL_MEDIUM
  6
CONTINUOUS
100
AcDbBlockBegin
  2
YGR_DSP_OUT_REG_CLR_TEXT
 70
     0
 10
0.0
 20
0.0
 30
0.0
  1

  0
TEXT
  5
FFFEF469C1A13878
100
AcDbEntity
  8
DETAIL_MEDIUM
100
AcDbText
 10
913.939277
 20
-266.753206
 30
0.0
 40
4.992
  1
C
100
AcDbText
  0
POLYLINE
  5
FFFEF469C1A14EC5
100
AcDbEntity
  8
DETAIL_MEDIUM
  6
CONTINUOUS
100
AcDb2dPolyline
 66
     1
 10
0.0
 20
0.0
 30
0.0
 70
     1
  0
VERTEX
  5
FFFEF469C1A14EC6
100
AcDbEntity
  8
DETAIL_MEDIUM
  6
CONTINUOUS
100
AcDbVertex
100
AcDb2dVertex
 10
910.047983
 20
-257.12157
 30
0.0
  0
VERTEX
  5
FFFEF469C1A14EC7
100
AcDbEntity
  8
DETAIL_MEDIUM
  6
CONTINUOUS
100
AcDbVertex
100
AcDb2dVertex
 10
923.290954
 20
-257.12157
 30
0.0
  0
VERTEX
  5
FFFEF469C1A14EC8
100
AcDbEntity
  8
DETAIL_MEDIUM
  6
CONTINUOUS
100
AcDbVertex
100
AcDb2dVertex
 10
923.290954
 20
-270.479685
 30
0.0
  0
VERTEX
  5
FFFEF469C1A14EC9
100
AcDbEntity
  8
DETAIL_MEDIUM
  6
CONTINUOUS
100
AcDbVertex
100
AcDb2dVertex
 10
910.047983
 20
-270.479685
 30
0.0
  0
SEQEND
  5
FFFEF469C1A14ECA
100
AcDbEntity
  8
DETAIL_MEDIUM
  6
CONTINUOUS
  0
ENDBLK
  5
FFFEF469C1A14EEB
100
AcDbEntity
  8
DETAIL_MEDIUM
  6
CONTINUOUS
100
AcDbBlockEnd
  0
BLOCK
  5
FFFFEA61809BC5FB
100
AcDbEntity
  8
SIMPLE
  6
CONTINUOUS
100
AcDbBlockBegin
  2
YGR_DSP_OUT_BYPASS_REG
 70
     0
 10
0.0
 20
0.0
 30
0.0
  1

  0
LINE
  5
FFFFEA61809BC5F9
100
AcDbEntity
  8
SIMPLE
  6
CONTINUOUS
100
AcDbLine
 10
890.032
 20
-225.0
 30
0.0
 11
930.0
 21
-225.0
 31
0.0
  0
ENDBLK
  5
FFFFEA61809BC5FC
100
AcDbEntity
  8
SIMPLE
  6
CONTINUOUS
100
AcDbBlockEnd
  0
BLOCK
  5
FFFFF3AAFAF56BD6
100
AcDbEntity
  8
SIMPLE
  6
CONTINUOUS
100
AcDbBlockBegin
  2
YGR_DSP_OUT_REG
 70
     2
 10
0.0
 20
0.0
 30
0.0
  1

  0
INSERT
  5
FFFFF3AAFAF56BD5
100
AcDbEntity
  8
DETAIL_MEDIUM
  6
CONTINUOUS
100
AcDbBlockReference
  2
YGR_DSP_OUT_REG_BLOCK
 10
0.0
 20
0.0
 30
0.0
  0
INSERT
  5
FFFFF3AAFAF56BD1
100
AcDbEntity
  8
DETAIL_MEDIUM
  6
CONTINUOUS
100
AcDbBlockReference
  2
YGR_DSP_OUT_REG_CLR_TEXT
 10
-7.424764
 20
-10.565555
 30
0.0
  0
ATTDEF
  5
FFFFF3AAFAF56BCF
100
AcDbEntity
  8
SIMPLE
  6
CONTINUOUS
100
AcDbText
 10
900.383868
 20
-249.245981
 30
0.0
 40
7.68
  1

  7
SIMPLEX
100
AcDbAttributeDefinition
  3

  2
index
 70
     0
  0
INSERT
  5
FFFFF3AAFAF56BD0
100
AcDbEntity
  8
DETAIL_MEDIUM
100
AcDbBlockReference
  2
YGR_DSP_OUT_REG_ENA_TEXT
 10
-7.424764
 20
-10.565555
 30
0.0
  0
INSERT
  5
FFFFF3AAFAF56BCE
100
AcDbEntity
  8
DETAIL_MEDIUM
100
AcDbBlockReference
  2
YGR_DSP_OUT_REG_CLK_TEXT
 10
-7.424764
 20
-10.565555
 30
0.0
  0
INSERT
  5
FFFFF3AAFAF56BC6
100
AcDbEntity
  8
DETAIL_MEDIUM
100
AcDbBlockReference
  2
YGR_DSP_OUT_REG_TEXT
 10
-7.424764
 20
-10.565555
 30
0.0
  0
INSERT
  5
FFFFF3AAFAF56BC7
100
AcDbEntity
  8
SIMPLE
  6
CONTINUOUS
100
AcDbBlockReference
  2
YGR_DSP_OUT_BYPASS_REG
 10
0.0
 20
0.0
 30
0.0
  0
ENDBLK
  5
FFFFF3AAFAF56BD7
100
AcDbEntity
  8
SIMPLE
  6
CONTINUOUS
100
AcDbBlockEnd
  0
BLOCK
  5
FFFFFEF39A143DCC
100
AcDbEntity
  8
SIMPLE
  6
CONTINUOUS
100
AcDbBlockBegin
  2
YGR_DSP_OUT_DATAA_WIRE
 70
     0
 10
0.0
 20
0.0
 30
0.0
  1

  0
LINE
  5
FFFFFEF39A143DC9
100
AcDbEntity
  8
SIMPLE
  6
CONTINUOUS
100
AcDbLine
 10
960.0
 20
-235.0
 30
0.0
 11
875.0
 21
-235.0
 31
0.0
  0
LINE
  5
FFFFFEF39A143DCA
100
AcDbEntity
  8
SIMPLE
  6
CONTINUOUS
100
AcDbLine
 10
875.0
 20
-235.0
 30
0.0
 11
840.0
 21
-235.0
 31
0.0
  0
ENDBLK
  5
FFFFFEF39A143DCD
100
AcDbEntity
  8
SIMPLE
  6
CONTINUOUS
100
AcDbBlockEnd
  0
BLOCK
  5
FFFFEB89C1E8A3FF
100
AcDbEntity
  8
PORTS
  6
CONTINUOUS
100
AcDbBlockBegin
  2
YGR_DSP_OUT_DATA_OUT_PORT
 70
     2
 10
0.0
 20
0.0
 30
0.0
  1

  0
POINT
  5
E2A9C22FF7AA
100
AcDbEntity
  8
PORTS
  6
CONTINUOUS
100
AcDbPoint
 10
1887.751804
 20
-775.0
 30
0.0
  0
POLYLINE
  5
E2A9C22FF7A2
100
AcDbEntity
  8
PORTS
  6
CONTINUOUS
100
AcDb2dPolyline
 66
     1
 10
0.0
 20
0.0
 30
0.0
 70
     1
  0
VERTEX
  5
E2A9C22FF7A3
100
AcDbEntity
  8
PORTS
  6
CONTINUOUS
100
AcDbVertex
100
AcDb2dVertex
 10
1967.751804
 20
-775.0
 30
0.0
  0
VERTEX
  5
E2A9C22FF7A4
100
AcDbEntity
  8
PORTS
  6
CONTINUOUS
100
AcDbVertex
100
AcDb2dVertex
 10
1959.751804
 20
-781.0
 30
0.0
  0
VERTEX
  5
E2A9C22FF7A5
100
AcDbEntity
  8
PORTS
  6
CONTINUOUS
100
AcDbVertex
100
AcDb2dVertex
 10
1887.751804
 20
-781.0
 30
0.0
  0
VERTEX
  5
E2A9C22FF7A6
100
AcDbEntity
  8
PORTS
  6
CONTINUOUS
100
AcDbVertex
100
AcDb2dVertex
 10
1887.751804
 20
-769.0
 30
0.0
  0
VERTEX
  5
E2A9C22FF7A7
100
AcDbEntity
  8
PORTS
  6
CONTINUOUS
100
AcDbVertex
100
AcDb2dVertex
 10
1959.751804
 20
-769.0
 30
0.0
  0
VERTEX
  5
E2A9C22FF7A8
100
AcDbEntity
  8
PORTS
  6
CONTINUOUS
100
AcDbVertex
100
AcDb2dVertex
 10
1967.751804
 20
-775.0
 30
0.0
  0
SEQEND
  5
E2A9C22FF7A9
100
AcDbEntity
  8
PORTS
  6
CONTINUOUS
  0
ATTDEF
  5
E2A9C22FF7A1
100
AcDbEntity
  8
PORTS
  6
CONTINUOUS
100
AcDbText
 10
1902.751804
 20
-760.0
 30
0.0
 40
7.071068
  1

  7
SIMPLEX
100
AcDbAttributeDefinition
  3

  2
SIDE
 70
     0
  0
ENDBLK
  5
FFFFEB89C1E8A400
100
AcDbEntity
  8
PORTS
  6
CONTINUOUS
100
AcDbBlockEnd
  0
BLOCK
  5
FFFFFEF39A143DC5
100
AcDbEntity
  8
SIMPLE
  6
CONTINUOUS
100
AcDbBlockBegin
  2
YGR_DSP_OUT_DATA_OUT_WIRE
 70
     0
 10
0.0
 20
0.0
 30
0.0
  1

  0
LINE
  5
FFFFFEF39A143DC3
100
AcDbEntity
  8
SIMPLE
  6
CONTINUOUS
100
AcDbLine
 10
1070.0
 20
-235.0
 30
0.0
 11
1105.0
 21
-235.0
 31
0.0
  0
LINE
  5
FFFFFEF39A143DC2
100
AcDbEntity
  8
SIMPLE
  6
CONTINUOUS
100
AcDbLine
 10
999.968
 20
-235.0
 30
0.0
 11
1070.0
 21
-235.0
 31
0.0
  0
ENDBLK
  5
FFFFFEF39A143DC6
100
AcDbEntity
  8
SIMPLE
  6
CONTINUOUS
100
AcDbBlockEnd
  0
BLOCK
  5
FFFFFEF39A143D2A
100
AcDbEntity
  8
SIMPLE
  6
CONTINUOUS
100
AcDbBlockBegin
  2
YGR_DSP_OUT_BLOCK
 70
     0
 10
0.0
 20
0.0
 30
0.0
  1

  0
LINE
  5
FFFFFEF39A143D28
100
AcDbEntity
  8
SIMPLE
  6
CONTINUOUS
100
AcDbLine
 10
1070.0
 20
-100.0
 30
0.0
 11
875.0
 21
-100.0
 31
0.0
  0
LINE
  5
FFFFFEF39A143D26
100
AcDbEntity
  8
SIMPLE
  6
CONTINUOUS
100
AcDbLine
 10
1070.0
 20
-340.0
 30
0.0
 11
1070.0
 21
-100.0
 31
0.0
  0
LINE
  5
FFFFFEF39A143D24
100
AcDbEntity
  8
SIMPLE
  6
CONTINUOUS
100
AcDbLine
 10
875.0
 20
-100.0
 30
0.0
 11
875.0
 21
-340.0
 31
0.0
  0
LINE
  5
FFFFFEF39A143D25
100
AcDbEntity
  8
SIMPLE
  6
CONTINUOUS
100
AcDbLine
 10
875.0
 20
-340.0
 30
0.0
 11
1070.0
 21
-340.0
 31
0.0
  0
ENDBLK
  5
FFFFFEF39A143D2B
100
AcDbEntity
  8
SIMPLE
  6
CONTINUOUS
100
AcDbBlockEnd
  0
BLOCK
  5
FFFFEF063DC89543
100
AcDbEntity
  8
DETAIL_MEDIUM
100
AcDbBlockBegin
  2
YGR_DSP_OUT_MODE_STR
 70
     2
 10
0.0
 20
0.0
 30
0.0
  1

  0
TEXT
  5
FFFFEF063DC89541
100
AcDbEntity
  8
DETAIL_MEDIUM
100
AcDbText
 10
887.0
 20
-1417.0
 30
0.0
 40
30.0
  1
mode
  7
SIMPLEX
100
AcDbText
  0
ATTDEF
  5
FFFFEF063DC89542
100
AcDbEntity
  8
DETAIL_MEDIUM
100
AcDbText
 10
1000.0
 20
-1450.0
 30
0.0
 40
20.0
  1
60
  7
SIMPLEX
100
AcDbAttributeDefinition
  3

  2
font
 70
     0
  0
ENDBLK
  5
FFFFEF063DC89545
100
AcDbEntity
  8
DETAIL_MEDIUM
100
AcDbBlockEnd
  0
BLOCK
  5
FFFFF3AAFAF56BD2
100
AcDbEntity
  8
DETAIL_MEDIUM
  6
CONTINUOUS
100
AcDbBlockBegin
  2
YGR_DSP_OUT_REG_BLOCK
 70
     0
 10
0.0
 20
0.0
 30
0.0
  1

  0
POLYLINE
  5
FFFFF3AAFAF56BC8
100
AcDbEntity
  8
DETAIL_MEDIUM
  6
CONTINUOUS
100
AcDb2dPolyline
 66
     1
 10
0.0
 20
0.0
 30
0.0
 70
     1
  0
VERTEX
  5
FFFFF3AAFAF56BC9
100
AcDbEntity
  8
DETAIL_MEDIUM
  6
CONTINUOUS
100
AcDbVertex
100
AcDb2dVertex
 10
890.032
 20
-216.166761
 30
0.0
  0
VERTEX
  5
FFFFF3AAFAF56BCA
100
AcDbEntity
  8
DETAIL_MEDIUM
  6
CONTINUOUS
100
AcDbVertex
100
AcDb2dVertex
 10
929.968
 20
-216.166761
 30
0.0
  0
VERTEX
  5
FFFFF3AAFAF56BCB
100
AcDbEntity
  8
DETAIL_MEDIUM
  6
CONTINUOUS
100
AcDbVertex
100
AcDb2dVertex
 10
929.968
 20
-281.062761
 30
0.0
  0
VERTEX
  5
FFFFF3AAFAF56BCC
100
AcDbEntity
  8
DETAIL_MEDIUM
  6
CONTINUOUS
100
AcDbVertex
100
AcDb2dVertex
 10
890.032
 20
-281.062761
 30
0.0
  0
SEQEND
  5
FFFFF3AAFAF56BCD
100
AcDbEntity
  8
DETAIL_MEDIUM
  6
CONTINUOUS
  0
ENDBLK
  5
FFFFF3AAFAF56BD4
100
AcDbEntity
  8
DETAIL_MEDIUM
  6
CONTINUOUS
100
AcDbBlockEnd
  0
BLOCK
  5
FFFFFCF4754F17AB
100
AcDbEntity
  8
DETAIL_MEDIUM
  6
CONTINUOUS
100
AcDbBlockBegin
  2
YGR_DSP_MULT_REG_BLOCK
 70
     0
 10
0.0
 20
0.0
 30
0.0
  1

  0
POLYLINE
  5
FFFFFCF4754F17A1
100
AcDbEntity
  8
DETAIL_MEDIUM
  6
CONTINUOUS
100
AcDb2dPolyline
 66
     1
 10
0.0
 20
0.0
 30
0.0
 70
     1
  0
VERTEX
  5
FFFFFCF4754F17A2
100
AcDbEntity
  8
DETAIL_MEDIUM
  6
CONTINUOUS
100
AcDbVertex
100
AcDb2dVertex
 10
245.032
 20
-1311.166761
 30
0.0
  0
VERTEX
  5
FFFFFCF4754F17A3
100
AcDbEntity
  8
DETAIL_MEDIUM
  6
CONTINUOUS
100
AcDbVertex
100
AcDb2dVertex
 10
284.968
 20
-1311.166761
 30
0.0
  0
VERTEX
  5
FFFFFCF4754F17A4
100
AcDbEntity
  8
DETAIL_MEDIUM
  6
CONTINUOUS
100
AcDbVertex
100
AcDb2dVertex
 10
284.968
 20
-1376.062761
 30
0.0
  0
VERTEX
  5
FFFFFCF4754F17A5
100
AcDbEntity
  8
DETAIL_MEDIUM
  6
CONTINUOUS
100
AcDbVertex
100
AcDb2dVertex
 10
245.032
 20
-1376.062761
 30
0.0
  0
SEQEND
  5
FFFFFCF4754F17A6
100
AcDbEntity
  8
DETAIL_MEDIUM
  6
CONTINUOUS
  0
ENDBLK
  5
FFFFFCF4754F17AD
100
AcDbEntity
  8
DETAIL_MEDIUM
  6
CONTINUOUS
100
AcDbBlockEnd
  0
BLOCK
  5
FFFFFD057F0FD365
100
AcDbEntity
  8
DETAIL_MEDIUM
100
AcDbBlockBegin
  2
YGR_DSP_OUT_DATAA_TEXT
 70
     2
 10
0.0
 20
0.0
 30
0.0
  1

  0
TEXT
  5
FFFFFD057F0FD35E
100
AcDbEntity
  8
DETAIL_MEDIUM
100
AcDbText
 10
740.0
 20
-628.5
 30
0.0
 40
10.0
  1
A
  7
ARIAL
100
AcDbText
  0
ATTDEF
  5
FFFFFD057F0FD35D
100
AcDbEntity
  8
DETAIL_MEDIUM
100
AcDbText
 10
730.0
 20
-604.967135
 30
0.0
 40
10.0
  1

  7
SIMPLEX
100
AcDbAttributeDefinition
  3

  2
font
 70
     0
  0
ENDBLK
  5
FFFFFD057F0FD367
100
AcDbEntity
  8
DETAIL_MEDIUM
100
AcDbBlockEnd
  0
BLOCK
  5
FFFFFD1688D092CD
100
AcDbEntity
  8
DETAIL_MEDIUM
100
AcDbBlockBegin
  2
YGR_DSP_MULT_TO_OUT_TEXT0
 70
     2
 10
0.0
 20
0.0
 30
0.0
  1

  0
TEXT
  5
FFFFFD1688D092B6
100
AcDbEntity
  8
DETAIL_MEDIUM
100
AcDbText
 10
606.5
 20
-219.516432
 30
0.0
 40
15.0
  1
A
  7
ARIAL
100
AcDbText
  0
ATTDEF
  5
FFFFFD1688D092C2
100
AcDbEntity
  8
DETAIL_MEDIUM
100
AcDbText
 10
608.5
 20
-199.483567
 30
0.0
 40
5.0
  1

  7
SIMPLEX
100
AcDbAttributeDefinition
  3

  2
font
 70
     0
  0
ENDBLK
  5
FFFFFD1688D092CF
100
AcDbEntity
  8
DETAIL_MEDIUM
100
AcDbBlockEnd
  0
BLOCK
  5
FFFFFEF39A143DD0
100
AcDbEntity
  8
DETAIL_MEDIUM
100
AcDbBlockBegin
  2
YGR_DSP_MULT_TO_OUT_TEXT
 70
     2
 10
0.0
 20
0.0
 30
0.0
  1

  0
INSERT
  5
D0AB572C5A
100
AcDbEntity
  8
DETAIL_MEDIUM
100
AcDbBlockReference
 66
     1
  2
YGR_DSP_MULT_TO_OUT_TEXT0
 10
73.5
 20
-20.483568
 30
0.0
  0
ATTRIB
  5
D0AB572C5B
100
AcDbEntity
  8
DETAIL_MEDIUM
100
AcDbText
 10
682.0
 20
-219.967135
 30
0.0
 40
5.0
  1
10
  7
SIMPLEX
100
AcDbAttribute
  2
font
 70
     0
  0
SEQEND
  5
D0AB572C5C
100
AcDbEntity
  8
DETAIL_MEDIUM
  0
ATTDEF
  5
D0AB572C59
100
AcDbEntity
  8
DETAIL_MEDIUM
100
AcDbText
 10
668.616573
 20
-250.173289
 30
0.0
 40
10.0
  1
0
  7
ARIAL
100
AcDbAttributeDefinition
  3

  2
index
 70
     0
  0
ENDBLK
  5
FFFFFEF39A143DD1
100
AcDbEntity
  8
DETAIL_MEDIUM
100
AcDbBlockEnd
  0
ENDSEC
  0
SECTION
  2
ENTITIES
  0
POINT
  5
EABC25582255E283
100
AcDbEntity
  8
COMMENT
  6
CONTINUOUS
 62
     1
100
AcDbPoint
 10
0.0
 20
-550.0
 30
0.0
  0
POINT
  5
EABC25582255E284
100
AcDbEntity
  8
COMMENT
  6
CONTINUOUS
 62
     1
100
AcDbPoint
 10
0.0
 20
-250.0
 30
0.0
  0
POINT
  5
EABC25582255E285
100
AcDbEntity
  8
COMMENT
  6
CONTINUOUS
 62
     1
100
AcDbPoint
 10
0.0
 20
-285.0
 30
0.0
  0
POINT
  5
EABC25582255E286
100
AcDbEntity
  8
COMMENT
  6
CONTINUOUS
 62
     1
100
AcDbPoint
 10
0.0
 20
-345.0
 30
0.0
  0
POINT
  5
EABC25582255E287
100
AcDbEntity
  8
COMMENT
  6
CONTINUOUS
 62
     1
100
AcDbPoint
 10
0.0
 20
-490.0
 30
0.0
  0
POINT
  5
EABC25582255E288
100
AcDbEntity
  8
COMMENT
  6
CONTINUOUS
 62
     1
100
AcDbPoint
 10
1800.0
 20
-20.0
 30
0.0
  0
POINT
  5
EABC25582255E289
100
AcDbEntity
  8
COMMENT
  6
CONTINUOUS
 62
     1
100
AcDbPoint
 10
1800.0
 20
-540.0
 30
0.0
  0
TEXT
  5
EABC25582255E306
100
AcDbEntity
  8
COMMENT
  6
CONTINUOUS
100
AcDbText
 10
8910.0
 20
-4245.0
 30
0.0
 40
10.0
  1
F0
  7
SIMPLEX
100
AcDbText
  0
TEXT
  5
EABC25582255E30D
100
AcDbEntity
  8
COMMENT
  6
CONTINUOUS
100
AcDbText
 10
8905.0
 20
-4525.0
 30
0.0
 40
10.0
  1
C0
  7
SIMPLEX
100
AcDbText
  0
TEXT
  5
EABC25582255E30E
100
AcDbEntity
  8
COMMENT
  6
CONTINUOUS
100
AcDbText
 10
8630.0
 20
-4715.0
 30
0.0
 40
10.0
  1
LAB_WIDE
  7
SIMPLEX
100
AcDbText
  0
TEXT
  5
EABC25582255E30F
100
AcDbEntity
  8
COMMENT
  6
CONTINUOUS
100
AcDbText
 10
8650.0
 20
-4415.0
 30
0.0
 40
10.0
  1
A_EXT
  7
SIMPLEX
100
AcDbText
  0
TEXT
  5
EABC25582255E310
100
AcDbEntity
  8
COMMENT
  6
CONTINUOUS
100
AcDbText
 10
8650.0
 20
-4455.0
 30
0.0
 40
10.0
  1
B_EXT
  7
SIMPLEX
100
AcDbText
  0
TEXT
  5
EABC25582255E311
100
AcDbEntity
  8
COMMENT
  6
CONTINUOUS
100
AcDbText
 10
8630.0
 20
-4510.0
 30
0.0
 40
10.0
  1
DC0_EXT
  7
SIMPLEX
100
AcDbText
  0
TEXT
  5
EABC25582255E312
100
AcDbEntity
  8
COMMENT
  6
CONTINUOUS
100
AcDbText
 10
8635.0
 20
-4655.0
 30
0.0
 40
10.0
  1
DC1_EXT
  7
SIMPLEX
100
AcDbText
  0
TEXT
  5
EABC25582255E328
100
AcDbEntity
  8
COMMENT
  6
CONTINUOUS
100
AcDbText
 10
8905.0
 20
-4640.0
 30
0.0
 40
10.0
  1
D0
  7
SIMPLEX
100
AcDbText
  0
TEXT
  5
EABC25582255E338
100
AcDbEntity
  8
COMMENT
  6
CONTINUOUS
100
AcDbText
 10
8910.0
 20
-4320.0
 30
0.0
 40
10.0
  1
E0
  7
SIMPLEX
100
AcDbText
  0
TEXT
  5
EABC25582255E33A
100
AcDbEntity
  8
COMMENT
  6
CONTINUOUS
100
AcDbText
 10
8640.0
 20
-4230.0
 30
0.0
 40
10.0
  1
F0_EXT
  7
SIMPLEX
100
AcDbText
  0
TEXT
  5
EABC25582255E33C
100
AcDbEntity
  8
COMMENT
  6
CONTINUOUS
100
AcDbText
 10
8640.0
 20
-4195.0
 30
0.0
 40
10.0
  1
E0_EXT
  7
SIMPLEX
100
AcDbText
  0
POINT
  5
EABC25582255E341
100
AcDbEntity
  8
COMMENT
  6
CONTINUOUS
 62
     1
100
AcDbPoint
 10
820.0
 20
0.0
 30
0.0
  0
POINT
  5
EABC25582255E342
100
AcDbEntity
  8
COMMENT
  6
CONTINUOUS
 62
     1
100
AcDbPoint
 10
940.0
 20
0.0
 30
0.0
  0
POINT
  5
EABC25582255E43C
100
AcDbEntity
  8
COMMENT
  6
CONTINUOUS
 62
     1
100
AcDbPoint
 10
1800.0
 20
-570.0
 30
0.0
  0
POINT
  5
EABC25582255E43D
100
AcDbEntity
  8
COMMENT
  6
CONTINUOUS
 62
     1
100
AcDbPoint
 10
1800.0
 20
-730.0
 30
0.0
  0
POINT
  5
EABC25582255E43E
100
AcDbEntity
  8
COMMENT
  6
CONTINUOUS
 62
     1
100
AcDbPoint
 10
1800.0
 20
-1090.0
 30
0.0
  0
TEXT
  5
EABC25582255E497
100
AcDbEntity
  8
COMMENT
  6
CONTINUOUS
100
AcDbText
 10
8910.0
 20
-4795.0
 30
0.0
 40
10.0
  1
F1
  7
SIMPLEX
100
AcDbText
  0
TEXT
  5
EABC25582255E49E
100
AcDbEntity
  8
COMMENT
  6
CONTINUOUS
100
AcDbText
 10
8905.0
 20
-5075.0
 30
0.0
 40
10.0
  1
C1
  7
SIMPLEX
100
AcDbText
  0
TEXT
  5
EABC25582255E4AD
100
AcDbEntity
  8
COMMENT
  6
CONTINUOUS
100
AcDbText
 10
8905.0
 20
-5190.0
 30
0.0
 40
10.0
  1
D1
  7
SIMPLEX
100
AcDbText
  0
TEXT
  5
EABC25582255E4BC
100
AcDbEntity
  8
COMMENT
  6
CONTINUOUS
100
AcDbText
 10
8910.0
 20
-4870.0
 30
0.0
 40
10.0
  1
E1
  7
SIMPLEX
100
AcDbText
  0
TEXT
  5
EABC25582255E4BE
100
AcDbEntity
  8
COMMENT
  6
CONTINUOUS
100
AcDbText
 10
8645.0
 20
-4775.0
 30
0.0
 40
10.0
  1
F1_EXT
  7
SIMPLEX
100
AcDbText
  0
TEXT
  5
EABC25582255E4C0
100
AcDbEntity
  8
COMMENT
  6
CONTINUOUS
100
AcDbText
 10
8645.0
 20
-5245.0
 30
0.0
 40
10.0
  1
E1_EXT
  7
SIMPLEX
100
AcDbText
  0
TEXT
  5
EABC25582255E4CD
100
AcDbEntity
  8
COMMENT
  6
CONTINUOUS
100
AcDbText
 10
8640.0
 20
-5175.0
 30
0.0
 40
10.0
  1
DC0_EXT
  7
SIMPLEX
100
AcDbText
  0
POINT
  5
EABC25582255E4CE
100
AcDbEntity
  8
COMMENT
  6
CONTINUOUS
 62
     1
100
AcDbPoint
 10
1175.0
 20
0.0
 30
0.0
  0
POINT
  5
EABC25582255E4EA
100
AcDbEntity
  8
COMMENT
  6
CONTINUOUS
 62
     1
100
AcDbPoint
 10
820.0
 20
-1100.0
 30
0.0
  0
POINT
  5
EABC25582255E4EB
100
AcDbEntity
  8
COMMENT
  6
CONTINUOUS
 62
     1
100
AcDbPoint
 10
940.0
 20
-1100.0
 30
0.0
  0
POINT
  5
EABC25582255E4EC
100
AcDbEntity
  8
COMMENT
  6
CONTINUOUS
 62
     1
100
AcDbPoint
 10
1175.0
 20
-1100.0
 30
0.0
  0
POINT
  5
EABC25582255E501
100
AcDbEntity
  8
COMMENT
  6
CONTINUOUS
 62
     1
100
AcDbPoint
 10
1800.0
 20
-180.0
 30
0.0
  0
POINT
  5
EABC25582255E521
100
AcDbEntity
  8
COMMENT
  6
CONTINUOUS
 62
     1
100
AcDbPoint
 10
0.0
 20
-615.0
 30
0.0
  0
POINT
  5
EABC25582255E522
100
AcDbEntity
  8
COMMENT
  6
CONTINUOUS
 62
     1
100
AcDbPoint
 10
0.0
 20
-1080.0
 30
0.0
  0
POINT
  5
EABC25582255E616
100
AcDbEntity
  8
COMMENT
  6
CONTINUOUS
 62
     1
100
AcDbPoint
 10
0.0
 20
-65.0
 30
0.0
  0
POINT
  5
EABC25582255E617
100
AcDbEntity
  8
COMMENT
  6
CONTINUOUS
 62
     1
100
AcDbPoint
 10
0.0
 20
-30.0
 30
0.0
  0
TEXT
  5
EABC25582255FDCB
100
AcDbEntity
  8
COMMENT
  6
CONTINUOUS
100
AcDbText
 10
9155.0
 20
-4320.0
 30
0.0
 40
40.0
  1
F0
  7
SIMPLEX
100
AcDbText
  0
TEXT
  5
EABC25582255FDCC
100
AcDbEntity
  8
COMMENT
  6
CONTINUOUS
100
AcDbText
 10
9155.0
 20
-4450.0
 30
0.0
 40
30.0
  1
F2h
  7
SIMPLEX
100
AcDbText
  0
TEXT
  5
EABC25582255FDCD
100
AcDbEntity
  8
COMMENT
  6
CONTINUOUS
100
AcDbText
 10
9155.0
 20
-4575.0
 30
0.0
 40
30.0
  1
F2l
  7
SIMPLEX
100
AcDbText
  0
TEXT
  5
EABC25582255FDCE
100
AcDbEntity
  8
COMMENT
  6
CONTINUOUS
100
AcDbText
 10
9160.0
 20
-4870.0
 30
0.0
 40
40.0
  1
F1
  7
SIMPLEX
100
AcDbText
  0
TEXT
  5
EABC25582255FDCF
100
AcDbEntity
  8
COMMENT
  6
CONTINUOUS
100
AcDbText
 10
9155.0
 20
-5000.0
 30
0.0
 40
30.0
  1
F3h
  7
SIMPLEX
100
AcDbText
  0
TEXT
  5
EABC25582255FDD0
100
AcDbEntity
  8
COMMENT
  6
CONTINUOUS
100
AcDbText
 10
9155.0
 20
-5120.0
 30
0.0
 40
30.0
  1
F3l
  7
SIMPLEX
100
AcDbText
  0
POLYLINE
  5
EABC25582255FDD7
100
AcDbEntity
  8
COMMENT
  6
CONTINUOUS
 62
    50
100
AcDb2dPolyline
 66
     1
 10
0.0
 20
0.0
 30
0.0
 70
     1
  0
VERTEX
  5
EABC25582255FE4E
100
AcDbEntity
  8
COMMENT
  6
CONTINUOUS
 62
    50
100
AcDbVertex
100
AcDb2dVertex
 10
255.0
 20
-40.0
 30
0.0
  0
VERTEX
  5
EABC25582255FE4F
100
AcDbEntity
  8
COMMENT
  6
CONTINUOUS
 62
    50
100
AcDbVertex
100
AcDb2dVertex
 10
755.0
 20
-40.0
 30
0.0
  0
VERTEX
  5
EABC25582255FE50
100
AcDbEntity
  8
COMMENT
  6
CONTINUOUS
 62
    50
100
AcDbVertex
100
AcDb2dVertex
 10
755.0
 20
-1065.0
 30
0.0
  0
VERTEX
  5
EABC25582255FE51
100
AcDbEntity
  8
COMMENT
  6
CONTINUOUS
 62
    50
100
AcDbVertex
100
AcDb2dVertex
 10
255.0
 20
-1065.0
 30
0.0
  0
SEQEND
  5
EABC25582255FE52
100
AcDbEntity
  8
COMMENT
  6
CONTINUOUS
 62
    50
  0
POLYLINE
  5
EABC25582255FDD8
100
AcDbEntity
  8
COMMENT
  6
CONTINUOUS
 62
    50
100
AcDb2dPolyline
 66
     1
 10
0.0
 20
0.0
 30
0.0
 70
     1
  0
VERTEX
  5
EABC25582255FE53
100
AcDbEntity
  8
COMMENT
  6
CONTINUOUS
 62
    50
100
AcDbVertex
100
AcDb2dVertex
 10
755.0
 20
-115.0
 30
0.0
  0
VERTEX
  5
EABC25582255FE54
100
AcDbEntity
  8
COMMENT
  6
CONTINUOUS
 62
    50
100
AcDbVertex
100
AcDb2dVertex
 10
1010.0
 20
-115.0
 30
0.0
  0
VERTEX
  5
EABC25582255FE55
100
AcDbEntity
  8
COMMENT
  6
CONTINUOUS
 62
    50
100
AcDbVertex
100
AcDb2dVertex
 10
1010.0
 20
-445.0
 30
0.0
  0
VERTEX
  5
EABC25582255FE56
100
AcDbEntity
  8
COMMENT
  6
CONTINUOUS
 62
    50
100
AcDbVertex
100
AcDb2dVertex
 10
755.0
 20
-445.0
 30
0.0
  0
SEQEND
  5
EABC25582255FE57
100
AcDbEntity
  8
COMMENT
  6
CONTINUOUS
 62
    50
  0
POLYLINE
  5
EABC25582255FDD9
100
AcDbEntity
  8
COMMENT
  6
CONTINUOUS
 62
    50
100
AcDb2dPolyline
 66
     1
 10
0.0
 20
0.0
 30
0.0
 70
     1
  0
VERTEX
  5
EABC25582255FE58
100
AcDbEntity
  8
COMMENT
  6
CONTINUOUS
 62
    50
100
AcDbVertex
100
AcDb2dVertex
 10
755.0
 20
-665.0
 30
0.0
  0
VERTEX
  5
EABC25582255FE59
100
AcDbEntity
  8
COMMENT
  6
CONTINUOUS
 62
    50
100
AcDbVertex
100
AcDb2dVertex
 10
1010.0
 20
-665.0
 30
0.0
  0
VERTEX
  5
EABC25582255FE5A
100
AcDbEntity
  8
COMMENT
  6
CONTINUOUS
 62
    50
100
AcDbVertex
100
AcDb2dVertex
 10
1010.0
 20
-995.0
 30
0.0
  0
VERTEX
  5
EABC25582255FE5B
100
AcDbEntity
  8
COMMENT
  6
CONTINUOUS
 62
    50
100
AcDbVertex
100
AcDb2dVertex
 10
755.0
 20
-995.0
 30
0.0
  0
SEQEND
  5
EABC25582255FE5C
100
AcDbEntity
  8
COMMENT
  6
CONTINUOUS
 62
    50
  0
POLYLINE
  5
EABC25582255FDDA
100
AcDbEntity
  8
COMMENT
  6
CONTINUOUS
 62
    50
100
AcDb2dPolyline
 66
     1
 10
0.0
 20
0.0
 30
0.0
 70
     1
  0
VERTEX
  5
EABC25582255FE5D
100
AcDbEntity
  8
COMMENT
  6
CONTINUOUS
 62
    50
100
AcDbVertex
100
AcDb2dVertex
 10
1365.0
 20
-40.0
 30
0.0
  0
VERTEX
  5
EABC25582255FE5E
100
AcDbEntity
  8
COMMENT
  6
CONTINUOUS
 62
    50
100
AcDbVertex
100
AcDb2dVertex
 10
1745.0
 20
-40.0
 30
0.0
  0
VERTEX
  5
EABC25582255FE5F
100
AcDbEntity
  8
COMMENT
  6
CONTINUOUS
 62
    50
100
AcDbVertex
100
AcDb2dVertex
 10
1745.0
 20
-510.0
 30
0.0
  0
VERTEX
  5
EABC25582255FE60
100
AcDbEntity
  8
COMMENT
  6
CONTINUOUS
 62
    50
100
AcDbVertex
100
AcDb2dVertex
 10
1365.0
 20
-510.0
 30
0.0
  0
SEQEND
  5
EABC25582255FE61
100
AcDbEntity
  8
COMMENT
  6
CONTINUOUS
 62
    50
  0
POLYLINE
  5
EABC25582255FDDB
100
AcDbEntity
  8
COMMENT
  6
CONTINUOUS
 62
    50
100
AcDb2dPolyline
 66
     1
 10
0.0
 20
0.0
 30
0.0
 70
     1
  0
VERTEX
  5
EABC25582255FE62
100
AcDbEntity
  8
COMMENT
  6
CONTINUOUS
 62
    50
100
AcDbVertex
100
AcDb2dVertex
 10
1365.0
 20
-590.0
 30
0.0
  0
VERTEX
  5
EABC25582255FE63
100
AcDbEntity
  8
COMMENT
  6
CONTINUOUS
 62
    50
100
AcDbVertex
100
AcDb2dVertex
 10
1745.0
 20
-590.0
 30
0.0
  0
VERTEX
  5
EABC25582255FE64
100
AcDbEntity
  8
COMMENT
  6
CONTINUOUS
 62
    50
100
AcDbVertex
100
AcDb2dVertex
 10
1745.0
 20
-1060.0
 30
0.0
  0
VERTEX
  5
EABC25582255FE65
100
AcDbEntity
  8
COMMENT
  6
CONTINUOUS
 62
    50
100
AcDbVertex
100
AcDb2dVertex
 10
1365.0
 20
-1060.0
 30
0.0
  0
SEQEND
  5
EABC25582255FE66
100
AcDbEntity
  8
COMMENT
  6
CONTINUOUS
 62
    50
  0
POLYLINE
  5
EABC25582255FDDD
100
AcDbEntity
  8
COMMENT
  6
CONTINUOUS
 62
    50
100
AcDb2dPolyline
 66
     1
 10
0.0
 20
0.0
 30
0.0
 70
     1
  0
VERTEX
  5
EABC25582255FE67
100
AcDbEntity
  8
COMMENT
  6
CONTINUOUS
 62
    50
100
AcDbVertex
100
AcDb2dVertex
 10
0.0
 20
0.0
 30
0.0
  0
VERTEX
  5
EABC25582255FE68
100
AcDbEntity
  8
COMMENT
  6
CONTINUOUS
 62
    50
100
AcDbVertex
100
AcDb2dVertex
 10
1800.0
 20
0.0
 30
0.0
  0
VERTEX
  5
EABC25582255FE69
100
AcDbEntity
  8
COMMENT
  6
CONTINUOUS
 62
    50
100
AcDbVertex
100
AcDb2dVertex
 10
1800.0
 20
-1100.0
 30
0.0
  0
VERTEX
  5
EABC25582255FE6A
100
AcDbEntity
  8
COMMENT
  6
CONTINUOUS
 62
    50
100
AcDbVertex
100
AcDb2dVertex
 10
0.0
 20
-1100.0
 30
0.0
  0
SEQEND
  5
EABC25582255FE6B
100
AcDbEntity
  8
COMMENT
  6
CONTINUOUS
 62
    50
  0
LINE
  5
FFFFFEF39A143E17
100
AcDbEntity
  8
SIMPLE
  6
CONTINUOUS
100
AcDbLine
 10
1555.0
 20
-250.0
 30
0.0
 11
1555.0
 21
-250.0
 31
0.0
  0
INSERT
  5
FFFFFEF39A143E8C
100
AcDbEntity
  8
SIMPLE
  6
CONTINUOUS
100
AcDbBlockReference
  2
YGR_DSP
 10
0.0
 20
0.0
 30
0.0
  0
ENDSEC
  0
SECTION
  2
OBJECTS
  0
DICTIONARY
  5
C
100
AcDbDictionary
  3
ACAD_GROUP
350
D
  3
ACAD_MLINESTYLE
350
1B
  0
DICTIONARY
  5
D
102
{ACAD_REACTORS
330
C
102
}
100
AcDbDictionary
  0
DICTIONARY
  5
1B
102
{ACAD_REACTORS
330
C
102
}
100
AcDbDictionary
  3
STANDARD
350
1C
  3
ARIAL
350
FFFFEF01F4CEED42
  0
MLINESTYLE
  5
1C
102
{ACAD_REACTORS
330
1B
102
}
100
AcDbMlineStyle
  2
STANDARD
 70
     0
  3

 62
   256
 51
90.0
 52
90.0
 71
     2
 49
0.5
 62
   256
  6
BYLAYER
 49
-0.5
 62
   256
  6
BYLAYER
  0
MLINESTYLE
  5
FFFFEF01F4CEED42
102
{ACAD_REACTORS
330
1B
102
}
100
AcDbMlineStyle
  2
ARIAL
 70
     0
  3

 62
   256
 51
90.0
 52
90.0
 71
     2
 49
0.5
 62
   256
  6
BYLAYER
 49
-0.5
 62
   256
  6
BYLAYER
  0
ENDSEC
  0
EOF
