  0
SECTION
  2
HEADER
  9
$ACADVER
  1
AC1014
  9
$ACADMAINTVER
 70
     0
  9
$DWGCODEPAGE
  3
ANSI_1252
  9
$INSBASE
 10
0.0
 20
0.0
 30
0.0
  9
$EXTMIN
 10
-130.0
 20
-838.0
 30
0.0
  9
$EXTMAX
 10
1150.0
 20
140.0
 30
0.0
  9
$LIMMIN
 10
0.0
 20
0.0
  9
$LIMMAX
 10
12.0
 20
9.0
  9
$ORTHOMODE
 70
     0
  9
$REGENMODE
 70
     1
  9
$FILLMODE
 70
     1
  9
$QTEXTMODE
 70
     0
  9
$MIRRTEXT
 70
     1
  9
$DRAGMODE
 70
     2
  9
$LTSCALE
 40
1.0
  9
$OSMODE
 70
     0
  9
$ATTMODE
 70
     1
  9
$TEXTSIZE
 40
0.2
  9
$TRACEWID
 40
0.05
  9
$TEXTSTYLE
  7
SIMPLEX
  9
$CLAYER
  8
DETAIL_MEDIUM
  9
$CELTYPE
  6
CONTINUOUS
  9
$CECOLOR
 62
   256
  9
$CELTSCALE
 40
1.0
  9
$DELOBJ
 70
     1
  9
$DISPSILH
 70
     0
  9
$DIMSCALE
 40
1.0
  9
$DIMASZ
 40
0.18
  9
$DIMEXO
 40
0.0625
  9
$DIMDLI
 40
0.38
  9
$DIMRND
 40
0.0
  9
$DIMDLE
 40
0.0
  9
$DIMEXE
 40
0.18
  9
$DIMTP
 40
0.0
  9
$DIMTM
 40
0.0
  9
$DIMTXT
 40
0.18
  9
$DIMCEN
 40
0.09
  9
$DIMTSZ
 40
0.0
  9
$DIMTOL
 70
     0
  9
$DIMLIM
 70
     0
  9
$DIMTIH
 70
     1
  9
$DIMTOH
 70
     1
  9
$DIMSE1
 70
     0
  9
$DIMSE2
 70
     0
  9
$DIMTAD
 70
     0
  9
$DIMZIN
 70
     0
  9
$DIMBLK
  1

  9
$DIMASO
 70
     1
  9
$DIMSHO
 70
     1
  9
$DIMPOST
  1

  9
$DIMAPOST
  1

  9
$DIMALT
 70
     0
  9
$DIMALTD
 70
     2
  9
$DIMALTF
 40
25.4
  9
$DIMLFAC
 40
1.0
  9
$DIMTOFL
 70
     0
  9
$DIMTVP
 40
0.0
  9
$DIMTIX
 70
     0
  9
$DIMSOXD
 70
     0
  9
$DIMSAH
 70
     0
  9
$DIMBLK1
  1

  9
$DIMBLK2
  1

  9
$DIMSTYLE
  2
STANDARD
  9
$DIMCLRD
 70
     0
  9
$DIMCLRE
 70
     0
  9
$DIMCLRT
 70
     0
  9
$DIMTFAC
 40
1.0
  9
$DIMGAP
 40
0.09
  9
$DIMJUST
 70
     0
  9
$DIMSD1
 70
     0
  9
$DIMSD2
 70
     0
  9
$DIMTOLJ
 70
     1
  9
$DIMTZIN
 70
     0
  9
$DIMALTZ
 70
     0
  9
$DIMALTTZ
 70
     0
  9
$DIMFIT
 70
     3
  9
$DIMUPT
 70
     0
  9
$DIMUNIT
 70
     2
  9
$DIMDEC
 70
     4
  9
$DIMTDEC
 70
     4
  9
$DIMALTU
 70
     2
  9
$DIMALTTD
 70
     2
  9
$DIMTXSTY
  7
STANDARD
  9
$DIMAUNIT
 70
     0
  9
$LUNITS
 70
     2
  9
$LUPREC
 70
     4
  9
$SKETCHINC
 40
0.1
  9
$FILLETRAD
 40
0.5
  9
$AUNITS
 70
     0
  9
$AUPREC
 70
     0
  9
$MENU
  1
.
  9
$ELEVATION
 40
0.0
  9
$PELEVATION
 40
0.0
  9
$THICKNESS
 40
0.0
  9
$LIMCHECK
 70
     0
  9
$BLIPMODE
 70
     0
  9
$CHAMFERA
 40
0.5
  9
$CHAMFERB
 40
0.5
  9
$CHAMFERC
 40
1.0
  9
$CHAMFERD
 40
0.0
  9
$SKPOLY
 70
     0
  9
$TDCREATE
 40
2452695.7451618058
  9
$TDUPDATE
 40
2453312.5725810071
  9
$TDINDWG
 40
13.285659722222
  9
$TDUSRTIMER
 40
13.285659722222
  9
$USRTIMER
 70
     1
  9
$ANGBASE
 50
0.0
  9
$ANGDIR
 70
     0
  9
$PDMODE
 70
    35
  9
$PDSIZE
 40
5.0
  9
$PLINEWID
 40
0.0
  9
$COORDS
 70
     1
  9
$SPLFRAME
 70
     0
  9
$SPLINETYPE
 70
     6
  9
$SPLINESEGS
 70
     8
  9
$ATTDIA
 70
     0
  9
$ATTREQ
 70
     1
  9
$HANDLING
 70
     1
  9
$HANDSEED
  5
DF3415280D1684FA
  9
$SURFTAB1
 70
     6
  9
$SURFTAB2
 70
     6
  9
$SURFTYPE
 70
     6
  9
$SURFU
 70
     6
  9
$SURFV
 70
     6
  9
$UCSNAME
  2

  9
$UCSORG
 10
0.0
 20
0.0
 30
0.0
  9
$UCSXDIR
 10
1.0
 20
0.0
 30
0.0
  9
$UCSYDIR
 10
0.0
 20
1.0
 30
0.0
  9
$PUCSNAME
  2

  9
$PUCSORG
 10
0.0
 20
0.0
 30
0.0
  9
$PUCSXDIR
 10
1.0
 20
0.0
 30
0.0
  9
$PUCSYDIR
 10
0.0
 20
1.0
 30
0.0
  9
$USERI1
 70
     0
  9
$USERI2
 70
     0
  9
$USERI3
 70
     0
  9
$USERI4
 70
     0
  9
$USERI5
 70
     0
  9
$USERR1
 40
0.0
  9
$USERR2
 40
0.0
  9
$USERR3
 40
0.0
  9
$USERR4
 40
0.0
  9
$USERR5
 40
0.0
  9
$WORLDVIEW
 70
     1
  9
$SHADEDGE
 70
     3
  9
$SHADEDIF
 70
    70
  9
$TILEMODE
 70
     1
  9
$MAXACTVP
 70
    48
  9
$PINSBASE
 10
0.0
 20
0.0
 30
0.0
  9
$PLIMCHECK
 70
     0
  9
$PEXTMIN
 10
1.000000E+020
 20
1.000000E+020
 30
1.000000E+020
  9
$PEXTMAX
 10
-1.000000E+020
 20
-1.000000E+020
 30
-1.000000E+020
  9
$PLIMMIN
 10
0.0
 20
0.0
  9
$PLIMMAX
 10
12.0
 20
9.0
  9
$UNITMODE
 70
     0
  9
$VISRETAIN
 70
     1
  9
$PLINEGEN
 70
     0
  9
$PSLTSCALE
 70
     1
  9
$TREEDEPTH
 70
  3020
  9
$PICKSTYLE
 70
     1
  9
$CMLSTYLE
  2
STANDARD
  9
$CMLJUST
 70
     0
  9
$CMLSCALE
 40
1.0
  9
$PROXYGRAPHICS
 70
     1
  9
$MEASUREMENT
 70
     0
  0
ENDSEC
  0
SECTION
  2
CLASSES
  0
CLASS
  1
LWPOLYLINE
  2
AcDbPolyline
  3
"AutoCAD"
 90
        0
280
     0
281
     1
  0
ENDSEC
  0
SECTION
  2
TABLES
  0
TABLE
  2
VPORT
  5
8
100
AcDbSymbolTable
 70
     1
  0
VPORT
  5
37
100
AcDbSymbolTableRecord
100
AcDbViewportTableRecord
  2
*ACTIVE
 70
     0
 10
0.0
 20
0.0
 11
1.0
 21
1.0
 12
514.718997
 22
-590.081681
 13
0.0
 23
0.0
 14
10.0
 24
10.0
 15
10.0
 25
10.0
 16
0.0
 26
0.0
 36
1.0
 17
0.0
 27
0.0
 37
0.0
 40
1497.535429
 41
1.797633
 42
50.0
 43
0.0
 44
0.0
 50
0.0
 51
0.0
 71
     0
 72
   100
 73
     1
 74
     1
 75
     1
 76
     1
 77
     0
 78
     0
  0
ENDTAB
  0
TABLE
  2
LTYPE
  5
5
100
AcDbSymbolTable
 70
     2
  0
LTYPE
  5
12
100
AcDbSymbolTableRecord
100
AcDbLinetypeTableRecord
  2
BYBLOCK
 70
     0
  3

 72
    65
 73
     0
 40
0.0
  0
LTYPE
  5
13
100
AcDbSymbolTableRecord
100
AcDbLinetypeTableRecord
  2
BYLAYER
 70
     0
  3

 72
    65
 73
     0
 40
0.0
  0
LTYPE
  5
14
100
AcDbSymbolTableRecord
100
AcDbLinetypeTableRecord
  2
CONTINUOUS
 70
     0
  3
Solid line
 72
    65
 73
     0
 40
0.0
  0
LTYPE
  5
2A422EFD12C
100
AcDbSymbolTableRecord
100
AcDbLinetypeTableRecord
  2
DETAIL_1
 70
     0
  3
Solid line
 72
    65
 73
     2
 40
6.0
 49
5.0
 74
     0
 49
-1.0
 74
     0
  0
ENDTAB
  0
TABLE
  2
LAYER
  5
2
100
AcDbSymbolTable
 70
     6
  0
LAYER
  5
E
100
AcDbSymbolTableRecord
100
AcDbLayerTableRecord
  2
DETAIL_HIGH
 70
     0
 62
   101
  6
CONTINUOUS
  0
LAYER
  5
541
100
AcDbSymbolTableRecord
100
AcDbLayerTableRecord
  2
COMMENT
 70
     0
 62
   254
  6
CONTINUOUS
  0
LAYER
  5
1DAE4
100
AcDbSymbolTableRecord
100
AcDbLayerTableRecord
  2
DETAIL_MEDIUM
 70
     0
 62
   182
  6
CONTINUOUS
  0
LAYER
  5
15543B5
100
AcDbSymbolTableRecord
100
AcDbLayerTableRecord
  2
DETAIL_LOWEST
 70
     0
 62
   143
  6
CONTINUOUS
  0
LAYER
  5
DF2FB97E2E1C53EE
100
AcDbSymbolTableRecord
100
AcDbLayerTableRecord
  2
PORTS
 70
     0
 62
   188
  6
CONTINUOUS
  0
LAYER
  5
DF2FCAEAB671269E
100
AcDbSymbolTableRecord
100
AcDbLayerTableRecord
  2
NON_DDR
 70
     0
 62
   240
  6
CONTINUOUS
  0
ENDTAB
  0
TABLE
  2
STYLE
  5
3
100
AcDbSymbolTable
 70
     8
  0
STYLE
  5
F
100
AcDbSymbolTableRecord
100
AcDbTextStyleTableRecord
  2
STANDARD
 70
     0
 40
0.0
 41
1.0
 50
0.0
 71
     0
 42
0.2
  3
txt.shx
  4

  0
STYLE
  5
21
100
AcDbSymbolTableRecord
100
AcDbTextStyleTableRecord
  2
COMPLEX
 70
     0
 40
0.0
 41
1.0
 50
0.0
 71
     0
 42
0.2
  3
complex
  4

  0
STYLE
  5
22
100
AcDbSymbolTableRecord
100
AcDbTextStyleTableRecord
  2
ITALIC
 70
     0
 40
0.0
 41
1.0
 50
0.0
 71
     0
 42
0.2
  3
italic
  4

  0
STYLE
  5
23
100
AcDbSymbolTableRecord
100
AcDbTextStyleTableRecord
  2
ROMANC
 70
     0
 40
0.0
 41
1.0
 50
0.0
 71
     0
 42
0.2
  3
romanc
  4

  0
STYLE
  5
24
100
AcDbSymbolTableRecord
100
AcDbTextStyleTableRecord
  2
SIMPLEX
 70
     0
 40
0.0
 41
1.0
 50
0.0
 71
     0
 42
0.2
  3
simplex
  4

  0
STYLE
  5
34
100
AcDbSymbolTableRecord
100
AcDbTextStyleTableRecord
  2

 70
     1
 40
0.0
 41
1.0
 50
0.0
 71
     0
 42
0.2
  3
ltypeshp.shx
  4

  0
STYLE
  5
38
100
AcDbSymbolTableRecord
100
AcDbTextStyleTableRecord
  2
ARIAL
 70
     0
 40
0.0
 41
1.0
 50
0.0
 71
     0
 42
0.2
  3

  4

1001
ACAD
1000
Arial
1071
       34
  0
STYLE
  5
39
100
AcDbSymbolTableRecord
100
AcDbTextStyleTableRecord
  2
TIMES_NEW_ROMAN
 70
     0
 40
0.0
 41
1.0
 50
0.0
 71
     0
 42
0.2
  3

  4

1001
ACAD
1000
Times New Roman
1071
       18
  0
ENDTAB
  0
TABLE
  2
VIEW
  5
6
100
AcDbSymbolTable
 70
     0
  0
ENDTAB
  0
TABLE
  2
UCS
  5
7
100
AcDbSymbolTable
 70
     0
  0
ENDTAB
  0
TABLE
  2
APPID
  5
9
100
AcDbSymbolTable
 70
     1
  0
APPID
  5
10
100
AcDbSymbolTableRecord
100
AcDbRegAppTableRecord
  2
ACAD
 70
     0
  0
ENDTAB
  0
TABLE
  2
DIMSTYLE
  5
A
100
AcDbSymbolTable
 70
     1
  0
DIMSTYLE
105
1D
100
AcDbSymbolTableRecord
100
AcDbDimStyleTableRecord
  2
STANDARD
 70
     0
  3

  4

  5

  6

  7

 40
1.0
 41
0.18
 42
0.0625
 43
0.38
 44
0.18
 45
0.0
 46
0.0
 47
0.0
 48
0.0
140
0.18
141
0.09
142
0.0
143
25.4
144
1.0
145
0.0
146
1.0
147
0.09
 71
     0
 72
     0
 73
     1
 74
     1
 75
     0
 76
     0
 77
     0
 78
     0
170
     0
171
     2
172
     0
173
     0
174
     0
175
     0
176
     0
177
     0
178
     0
270
     2
271
     4
272
     4
273
     2
274
     2
340
F
275
     0
280
     0
281
     0
282
     0
283
     1
284
     0
285
     0
286
     0
287
     3
288
     0
  0
ENDTAB
  0
TABLE
  2
BLOCK_RECORD
  5
1
100
AcDbSymbolTable
 70
    13
  0
BLOCK_RECORD
  5
18
100
AcDbSymbolTableRecord
100
AcDbBlockTableRecord
  2
*MODEL_SPACE
  0
BLOCK_RECORD
  5
15
100
AcDbSymbolTableRecord
100
AcDbBlockTableRecord
  2
*PAPER_SPACE
  0
BLOCK_RECORD
  5
DF3415280CC4E9BC
100
AcDbSymbolTableRecord
100
AcDbBlockTableRecord
  2
PLL_YGR_PLL_ENA
  0
BLOCK_RECORD
  5
DF3415280CC4E9C2
100
AcDbSymbolTableRecord
100
AcDbBlockTableRecord
  2
PLL_YGR_ARESET
  0
BLOCK_RECORD
  5
DF3415280CC4E9C8
100
AcDbSymbolTableRecord
100
AcDbBlockTableRecord
  2
PLL_YGR_PFDENA
  0
BLOCK_RECORD
  5
DF3415280CC4E9E0
100
AcDbSymbolTableRecord
100
AcDbBlockTableRecord
  2
PLL_YGR_CLKSWITCH
  0
BLOCK_RECORD
  5
DF3415280CC4EA6E
100
AcDbSymbolTableRecord
100
AcDbBlockTableRecord
  2
PLL_YGR_C
  0
BLOCK_RECORD
  5
DF3415280CC4EB9E
100
AcDbSymbolTableRecord
100
AcDbBlockTableRecord
  2
PLL_YGR_LOCKED
  0
BLOCK_RECORD
  5
DF3415280CC56466
100
AcDbSymbolTableRecord
100
AcDbBlockTableRecord
  2
PLL_YGR_INCLK
  0
BLOCK_RECORD
  5
DF3415280CC7D3A4
100
AcDbSymbolTableRecord
100
AcDbBlockTableRecord
  2
PLL_ARM_TEST_UP_OUT
  0
BLOCK_RECORD
  5
DF3415280CC7D3BA
100
AcDbSymbolTableRecord
100
AcDbBlockTableRecord
  2
PLL_ARM_TEST_DOWN_OUT
  0
BLOCK_RECORD
  5
DF3415280CD95107
100
AcDbSymbolTableRecord
100
AcDbBlockTableRecord
  2
PLL_CYCII_TEST_CLEAR_LOCK
  0
BLOCK_RECORD
  5
DF3415280CEDB83F
100
AcDbSymbolTableRecord
100
AcDbBlockTableRecord
  2
PLL_CYCII_SBDIN
  0
BLOCK_RECORD
  5
DF3415280D1684F1
100
AcDbSymbolTableRecord
100
AcDbBlockTableRecord
  2
PLL_CYCII_SBDOUT
  0
BLOCK_RECORD
  5
DF3415280D1684F7
100
AcDbSymbolTableRecord
100
AcDbBlockTableRecord
  2
PLL_CYCII
  0
ENDTAB
  0
ENDSEC
  0
SECTION
  2
BLOCKS
  0
BLOCK
  5
19
100
AcDbEntity
  8
DETAIL_HIGH
100
AcDbBlockBegin
  2
*MODEL_SPACE
 70
     0
 10
0.0
 20
0.0
 30
0.0
  3
*MODEL_SPACE
  1

  0
ENDBLK
  5
1A
100
AcDbEntity
  8
DETAIL_HIGH
100
AcDbBlockEnd
  0
BLOCK
  5
16
100
AcDbEntity
 67
     1
  8
DETAIL_HIGH
100
AcDbBlockBegin
  2
*PAPER_SPACE
 70
     0
 10
0.0
 20
0.0
 30
0.0
  3
*PAPER_SPACE
  1

  0
ENDBLK
  5
17
100
AcDbEntity
 67
     1
  8
DETAIL_HIGH
100
AcDbBlockEnd
  0
BLOCK
  5
DF3415280CC4E9BB
100
AcDbEntity
  8
DETAIL_MEDIUM
  6
CONTINUOUS
100
AcDbBlockBegin
  2
PLL_YGR_PLL_ENA
 70
     2
 10
210.0
 20
-230.0
 30
0.0
  1

  0
POLYLINE
  5
DF3415280CC4E657
100
AcDbEntity
  8
PORTS
  6
CONTINUOUS
100
AcDb2dPolyline
 66
     1
 10
0.0
 20
0.0
 30
0.0
 70
     1
  0
VERTEX
  5
DF3415280CC4E658
100
AcDbEntity
  8
PORTS
  6
CONTINUOUS
100
AcDbVertex
100
AcDb2dVertex
 10
220.0
 20
-130.0
 30
0.0
  0
VERTEX
  5
DF3415280CC4E659
100
AcDbEntity
  8
PORTS
  6
CONTINUOUS
100
AcDbVertex
100
AcDb2dVertex
 10
214.0
 20
-122.0
 30
0.0
  0
VERTEX
  5
DF3415280CC4E65A
100
AcDbEntity
  8
PORTS
  6
CONTINUOUS
100
AcDbVertex
100
AcDb2dVertex
 10
214.0
 20
-50.0
 30
0.0
  0
VERTEX
  5
DF3415280CC4E65B
100
AcDbEntity
  8
PORTS
  6
CONTINUOUS
100
AcDbVertex
100
AcDb2dVertex
 10
226.0
 20
-50.0
 30
0.0
  0
VERTEX
  5
DF3415280CC4E65C
100
AcDbEntity
  8
PORTS
  6
CONTINUOUS
100
AcDbVertex
100
AcDb2dVertex
 10
226.0
 20
-122.0
 30
0.0
  0
VERTEX
  5
DF3415280CC4E65D
100
AcDbEntity
  8
PORTS
  6
CONTINUOUS
100
AcDbVertex
100
AcDb2dVertex
 10
220.0
 20
-130.0
 30
0.0
  0
SEQEND
  5
DF3415280CC4E65E
100
AcDbEntity
  8
PORTS
  6
CONTINUOUS
  0
POINT
  5
DF3415280CC4E65F
100
AcDbEntity
  8
PORTS
  6
CONTINUOUS
100
AcDbPoint
 10
220.0
 20
-130.0
 30
0.0
  0
LINE
  5
DF3415280CC4E6EE
100
AcDbEntity
  8
DETAIL_MEDIUM
  6
CONTINUOUS
100
AcDbLine
 10
220.0
 20
-130.0
 30
0.0
 11
220.0
 21
-230.0
 31
0.0
  0
ATTDEF
  5
DF3415280CC4E669
100
AcDbEntity
  8
PORTS
  6
CONTINUOUS
100
AcDbText
 10
212.0
 20
-38.0
 30
0.0
 40
10.0
  1

  7
SIMPLEX
100
AcDbAttributeDefinition
  3

  2
SIDE
 70
     0
  0
ENDBLK
  5
DF3415280CC4E9BD
100
AcDbEntity
  8
DETAIL_MEDIUM
  6
CONTINUOUS
100
AcDbBlockEnd
  0
BLOCK
  5
DF3415280CC4E9C1
100
AcDbEntity
  8
DETAIL_MEDIUM
  6
CONTINUOUS
100
AcDbBlockBegin
  2
PLL_YGR_ARESET
 70
     2
 10
240.0
 20
-230.0
 30
0.0
  1

  0
ATTDEF
  5
DF3415280CC4E6F9
100
AcDbEntity
  8
PORTS
  6
CONTINUOUS
100
AcDbText
 10
242.0
 20
-38.0
 30
0.0
 40
10.0
  1

  7
SIMPLEX
100
AcDbAttributeDefinition
  3

  2
SIDE
 70
     0
  0
POLYLINE
  5
DF3415280CC4E6F0
100
AcDbEntity
  8
PORTS
  6
CONTINUOUS
100
AcDb2dPolyline
 66
     1
 10
0.0
 20
0.0
 30
0.0
 70
     1
  0
VERTEX
  5
DF3415280CC4E6F1
100
AcDbEntity
  8
PORTS
  6
CONTINUOUS
100
AcDbVertex
100
AcDb2dVertex
 10
250.0
 20
-130.0
 30
0.0
  0
VERTEX
  5
DF3415280CC4E6F2
100
AcDbEntity
  8
PORTS
  6
CONTINUOUS
100
AcDbVertex
100
AcDb2dVertex
 10
244.0
 20
-122.0
 30
0.0
  0
VERTEX
  5
DF3415280CC4E6F3
100
AcDbEntity
  8
PORTS
  6
CONTINUOUS
100
AcDbVertex
100
AcDb2dVertex
 10
244.0
 20
-50.0
 30
0.0
  0
VERTEX
  5
DF3415280CC4E6F4
100
AcDbEntity
  8
PORTS
  6
CONTINUOUS
100
AcDbVertex
100
AcDb2dVertex
 10
256.0
 20
-50.0
 30
0.0
  0
VERTEX
  5
DF3415280CC4E6F5
100
AcDbEntity
  8
PORTS
  6
CONTINUOUS
100
AcDbVertex
100
AcDb2dVertex
 10
256.0
 20
-122.0
 30
0.0
  0
VERTEX
  5
DF3415280CC4E6F6
100
AcDbEntity
  8
PORTS
  6
CONTINUOUS
100
AcDbVertex
100
AcDb2dVertex
 10
250.0
 20
-130.0
 30
0.0
  0
SEQEND
  5
DF3415280CC4E6F7
100
AcDbEntity
  8
PORTS
  6
CONTINUOUS
  0
POINT
  5
DF3415280CC4E6F8
100
AcDbEntity
  8
PORTS
  6
CONTINUOUS
100
AcDbPoint
 10
250.0
 20
-130.0
 30
0.0
  0
LINE
  5
DF3415280CC4E6FA
100
AcDbEntity
  8
DETAIL_MEDIUM
  6
CONTINUOUS
100
AcDbLine
 10
250.0
 20
-130.0
 30
0.0
 11
250.0
 21
-230.0
 31
0.0
  0
ENDBLK
  5
DF3415280CC4E9C3
100
AcDbEntity
  8
DETAIL_MEDIUM
  6
CONTINUOUS
100
AcDbBlockEnd
  0
BLOCK
  5
DF3415280CC4E9C7
100
AcDbEntity
  8
DETAIL_MEDIUM
  6
CONTINUOUS
100
AcDbBlockBegin
  2
PLL_YGR_PFDENA
 70
     2
 10
270.0
 20
-230.0
 30
0.0
  1

  0
POLYLINE
  5
DF3415280CC4E6FB
100
AcDbEntity
  8
PORTS
  6
CONTINUOUS
100
AcDb2dPolyline
 66
     1
 10
0.0
 20
0.0
 30
0.0
 70
     1
  0
VERTEX
  5
DF3415280CC4E6FC
100
AcDbEntity
  8
PORTS
  6
CONTINUOUS
100
AcDbVertex
100
AcDb2dVertex
 10
280.0
 20
-130.0
 30
0.0
  0
VERTEX
  5
DF3415280CC4E6FD
100
AcDbEntity
  8
PORTS
  6
CONTINUOUS
100
AcDbVertex
100
AcDb2dVertex
 10
274.0
 20
-122.0
 30
0.0
  0
VERTEX
  5
DF3415280CC4E6FE
100
AcDbEntity
  8
PORTS
  6
CONTINUOUS
100
AcDbVertex
100
AcDb2dVertex
 10
274.0
 20
-50.0
 30
0.0
  0
VERTEX
  5
DF3415280CC4E6FF
100
AcDbEntity
  8
PORTS
  6
CONTINUOUS
100
AcDbVertex
100
AcDb2dVertex
 10
286.0
 20
-50.0
 30
0.0
  0
VERTEX
  5
DF3415280CC4E700
100
AcDbEntity
  8
PORTS
  6
CONTINUOUS
100
AcDbVertex
100
AcDb2dVertex
 10
286.0
 20
-122.0
 30
0.0
  0
VERTEX
  5
DF3415280CC4E701
100
AcDbEntity
  8
PORTS
  6
CONTINUOUS
100
AcDbVertex
100
AcDb2dVertex
 10
280.0
 20
-130.0
 30
0.0
  0
SEQEND
  5
DF3415280CC4E702
100
AcDbEntity
  8
PORTS
  6
CONTINUOUS
  0
POINT
  5
DF3415280CC4E703
100
AcDbEntity
  8
PORTS
  6
CONTINUOUS
100
AcDbPoint
 10
280.0
 20
-130.0
 30
0.0
  0
ATTDEF
  5
DF3415280CC4E704
100
AcDbEntity
  8
PORTS
  6
CONTINUOUS
100
AcDbText
 10
272.0
 20
-38.0
 30
0.0
 40
10.0
  1

  7
SIMPLEX
100
AcDbAttributeDefinition
  3

  2
SIDE
 70
     0
  0
LINE
  5
DF3415280CC4E705
100
AcDbEntity
  8
DETAIL_MEDIUM
  6
CONTINUOUS
100
AcDbLine
 10
280.0
 20
-130.0
 30
0.0
 11
280.0
 21
-230.0
 31
0.0
  0
ENDBLK
  5
DF3415280CC4E9C9
100
AcDbEntity
  8
DETAIL_MEDIUM
  6
CONTINUOUS
100
AcDbBlockEnd
  0
BLOCK
  5
DF3415280CC4E9DF
100
AcDbEntity
  8
DETAIL_MEDIUM
  6
CONTINUOUS
100
AcDbBlockBegin
  2
PLL_YGR_CLKSWITCH
 70
     2
 10
390.0
 20
-230.0
 30
0.0
  1

  0
POLYLINE
  5
DF3415280CC4E727
100
AcDbEntity
  8
PORTS
  6
CONTINUOUS
100
AcDb2dPolyline
 66
     1
 10
0.0
 20
0.0
 30
0.0
 70
     1
  0
VERTEX
  5
DF3415280CC4E728
100
AcDbEntity
  8
PORTS
  6
CONTINUOUS
100
AcDbVertex
100
AcDb2dVertex
 10
400.0
 20
-130.0
 30
0.0
  0
VERTEX
  5
DF3415280CC4E729
100
AcDbEntity
  8
PORTS
  6
CONTINUOUS
100
AcDbVertex
100
AcDb2dVertex
 10
394.0
 20
-122.0
 30
0.0
  0
VERTEX
  5
DF3415280CC4E72A
100
AcDbEntity
  8
PORTS
  6
CONTINUOUS
100
AcDbVertex
100
AcDb2dVertex
 10
394.0
 20
-50.0
 30
0.0
  0
VERTEX
  5
DF3415280CC4E72B
100
AcDbEntity
  8
PORTS
  6
CONTINUOUS
100
AcDbVertex
100
AcDb2dVertex
 10
406.0
 20
-50.0
 30
0.0
  0
VERTEX
  5
DF3415280CC4E72C
100
AcDbEntity
  8
PORTS
  6
CONTINUOUS
100
AcDbVertex
100
AcDb2dVertex
 10
406.0
 20
-122.0
 30
0.0
  0
VERTEX
  5
DF3415280CC4E72D
100
AcDbEntity
  8
PORTS
  6
CONTINUOUS
100
AcDbVertex
100
AcDb2dVertex
 10
400.0
 20
-130.0
 30
0.0
  0
SEQEND
  5
DF3415280CC4E72E
100
AcDbEntity
  8
PORTS
  6
CONTINUOUS
  0
POINT
  5
DF3415280CC4E72F
100
AcDbEntity
  8
PORTS
  6
CONTINUOUS
100
AcDbPoint
 10
400.0
 20
-130.0
 30
0.0
  0
ATTDEF
  5
DF3415280CC4E730
100
AcDbEntity
  8
PORTS
  6
CONTINUOUS
100
AcDbText
 10
392.0
 20
-38.0
 30
0.0
 40
10.0
  1

  7
SIMPLEX
100
AcDbAttributeDefinition
  3

  2
SIDE
 70
     0
  0
LINE
  5
DF3415280CC4E731
100
AcDbEntity
  8
DETAIL_MEDIUM
  6
CONTINUOUS
100
AcDbLine
 10
400.0
 20
-130.0
 30
0.0
 11
400.0
 21
-230.0
 31
0.0
  0
ENDBLK
  5
DF3415280CC4E9E1
100
AcDbEntity
  8
DETAIL_MEDIUM
  6
CONTINUOUS
100
AcDbBlockEnd
  0
BLOCK
  5
DF3415280CC4EA6D
100
AcDbEntity
  8
DETAIL_MEDIUM
  6
CONTINUOUS
100
AcDbBlockBegin
  2
PLL_YGR_C
 70
     2
 10
660.0
 20
-270.0
 30
0.0
  1

  0
POLYLINE
  5
DF3415280CC4E989
100
AcDbEntity
  8
PORTS
  6
CONTINUOUS
100
AcDb2dPolyline
 66
     1
 10
0.0
 20
0.0
 30
0.0
 70
     1
  0
VERTEX
  5
DF3415280CC4E98A
100
AcDbEntity
  8
PORTS
  6
CONTINUOUS
100
AcDbVertex
100
AcDb2dVertex
 10
840.0
 20
-260.0
 30
0.0
  0
VERTEX
  5
DF3415280CC4E98B
100
AcDbEntity
  8
PORTS
  6
CONTINUOUS
100
AcDbVertex
100
AcDb2dVertex
 10
832.0
 20
-266.0
 30
0.0
  0
VERTEX
  5
DF3415280CC4E98C
100
AcDbEntity
  8
PORTS
  6
CONTINUOUS
100
AcDbVertex
100
AcDb2dVertex
 10
760.0
 20
-266.0
 30
0.0
  0
VERTEX
  5
DF3415280CC4E98D
100
AcDbEntity
  8
PORTS
  6
CONTINUOUS
100
AcDbVertex
100
AcDb2dVertex
 10
760.0
 20
-254.0
 30
0.0
  0
VERTEX
  5
DF3415280CC4E98E
100
AcDbEntity
  8
PORTS
  6
CONTINUOUS
100
AcDbVertex
100
AcDb2dVertex
 10
832.0
 20
-254.0
 30
0.0
  0
VERTEX
  5
DF3415280CC4E98F
100
AcDbEntity
  8
PORTS
  6
CONTINUOUS
100
AcDbVertex
100
AcDb2dVertex
 10
840.0
 20
-260.0
 30
0.0
  0
SEQEND
  5
DF3415280CC4E990
100
AcDbEntity
  8
PORTS
  6
CONTINUOUS
  0
ATTDEF
  5
DF3415280CC4E991
100
AcDbEntity
  8
PORTS
  6
CONTINUOUS
100
AcDbText
 10
762.0
 20
-248.0
 30
0.0
 40
10.0
  1

 50
0.000019
  7
SIMPLEX
100
AcDbAttributeDefinition
  3

  2
SIDE
 70
     0
  0
POINT
  5
DF3415280CC4E992
100
AcDbEntity
  8
PORTS
  6
CONTINUOUS
100
AcDbPoint
 10
760.0
 20
-260.0
 30
0.0
  0
LINE
  5
DF3415280CC4E993
100
AcDbEntity
  8
DETAIL_MEDIUM
  6
CONTINUOUS
100
AcDbLine
 10
660.0
 20
-260.0
 30
0.0
 11
760.0
 21
-260.0
 31
0.0
  0
ATTDEF
  5
DF3415280CC4EA6C
100
AcDbEntity
  8
PORTS
  6
CONTINUOUS
100
AcDbText
 10
812.0
 20
-248.0
 30
0.0
 40
10.0
  1
0
 50
0.000019
  7
SIMPLEX
100
AcDbAttributeDefinition
  3

  2
INDEX
 70
     0
  0
ENDBLK
  5
DF3415280CC4EA6F
100
AcDbEntity
  8
DETAIL_MEDIUM
  6
CONTINUOUS
100
AcDbBlockEnd
  0
BLOCK
  5
DF3415280CC7D3B4
100
AcDbEntity
  8
DETAIL_MEDIUM
  6
CONTINUOUS
100
AcDbBlockBegin
  2
PLL_YGR_LOCKED
 70
     2
 10
0.0
 20
0.0
 30
0.0
  1

  0
LINE
  5
DF3415280CC7D374
100
AcDbEntity
  8
DETAIL_MEDIUM
  6
CONTINUOUS
100
AcDbLine
 10
310.0
 20
-630.0
 30
0.0
 11
310.0
 21
-730.0
 31
0.0
  0
POINT
  5
DF3415280CC7D373
100
AcDbEntity
  8
PORTS
  6
CONTINUOUS
100
AcDbPoint
 10
310.0
 20
-730.0
 30
0.0
  0
POLYLINE
  5
DF3415280CC7D36B
100
AcDbEntity
  8
PORTS
  6
CONTINUOUS
100
AcDb2dPolyline
 66
     1
 10
0.0
 20
0.0
 30
0.0
 70
     1
  0
VERTEX
  5
DF3415280CC7D36C
100
AcDbEntity
  8
PORTS
  6
CONTINUOUS
100
AcDbVertex
100
AcDb2dVertex
 10
310.0
 20
-810.0
 30
0.0
  0
VERTEX
  5
DF3415280CC7D36D
100
AcDbEntity
  8
PORTS
  6
CONTINUOUS
100
AcDbVertex
100
AcDb2dVertex
 10
304.0
 20
-802.0
 30
0.0
  0
VERTEX
  5
DF3415280CC7D36E
100
AcDbEntity
  8
PORTS
  6
CONTINUOUS
100
AcDbVertex
100
AcDb2dVertex
 10
304.0
 20
-730.0
 30
0.0
  0
VERTEX
  5
DF3415280CC7D36F
100
AcDbEntity
  8
PORTS
  6
CONTINUOUS
100
AcDbVertex
100
AcDb2dVertex
 10
316.0
 20
-730.0
 30
0.0
  0
VERTEX
  5
DF3415280CC7D370
100
AcDbEntity
  8
PORTS
  6
CONTINUOUS
100
AcDbVertex
100
AcDb2dVertex
 10
316.0
 20
-802.0
 30
0.0
  0
VERTEX
  5
DF3415280CC7D371
100
AcDbEntity
  8
PORTS
  6
CONTINUOUS
100
AcDbVertex
100
AcDb2dVertex
 10
310.0
 20
-810.0
 30
0.0
  0
SEQEND
  5
DF3415280CC7D372
100
AcDbEntity
  8
PORTS
  6
CONTINUOUS
  0
ATTDEF
  5
DF3415280CC7D375
100
AcDbEntity
  8
PORTS
  6
CONTINUOUS
100
AcDbText
 10
302.0
 20
-838.0
 30
0.0
 40
10.0
  1

  7
SIMPLEX
100
AcDbAttributeDefinition
  3

  2
SIDE
 70
     0
  0
ENDBLK
  5
DF3415280CC7D3B5
100
AcDbEntity
  8
DETAIL_MEDIUM
  6
CONTINUOUS
100
AcDbBlockEnd
  0
BLOCK
  5
DF3415280CC56465
100
AcDbEntity
  8
DETAIL_MEDIUM
  6
CONTINUOUS
100
AcDbBlockBegin
  2
PLL_YGR_INCLK
 70
     2
 10
10.0
 20
-230.0
 30
0.0
  1

  0
ATTDEF
  5
DF3415280CC4F11D
100
AcDbEntity
  8
PORTS
  6
CONTINUOUS
100
AcDbText
 10
12.0
 20
-208.0
 30
0.0
 40
10.0
  1

  7
SIMPLEX
100
AcDbAttributeDefinition
  3

  2
SIDE
 70
     0
  0
POLYLINE
  5
DF3415280CC4F11E
100
AcDbEntity
  8
PORTS
  6
CONTINUOUS
100
AcDb2dPolyline
 66
     1
 10
0.0
 20
0.0
 30
0.0
 70
     1
  0
VERTEX
  5
DF3415280CC4F11F
100
AcDbEntity
  8
PORTS
  6
CONTINUOUS
100
AcDbVertex
100
AcDb2dVertex
 10
90.0
 20
-220.0
 30
0.0
  0
VERTEX
  5
DF3415280CC4F120
100
AcDbEntity
  8
PORTS
  6
CONTINUOUS
100
AcDbVertex
100
AcDb2dVertex
 10
82.0
 20
-226.0
 30
0.0
  0
VERTEX
  5
DF3415280CC4F121
100
AcDbEntity
  8
PORTS
  6
CONTINUOUS
100
AcDbVertex
100
AcDb2dVertex
 10
10.0
 20
-226.0
 30
0.0
  0
VERTEX
  5
DF3415280CC4F122
100
AcDbEntity
  8
PORTS
  6
CONTINUOUS
100
AcDbVertex
100
AcDb2dVertex
 10
10.0
 20
-214.0
 30
0.0
  0
VERTEX
  5
DF3415280CC4F123
100
AcDbEntity
  8
PORTS
  6
CONTINUOUS
100
AcDbVertex
100
AcDb2dVertex
 10
82.0
 20
-214.0
 30
0.0
  0
VERTEX
  5
DF3415280CC4F124
100
AcDbEntity
  8
PORTS
  6
CONTINUOUS
100
AcDbVertex
100
AcDb2dVertex
 10
90.0
 20
-220.0
 30
0.0
  0
SEQEND
  5
DF3415280CC4F125
100
AcDbEntity
  8
PORTS
  6
CONTINUOUS
  0
POINT
  5
DF3415280CC4F126
100
AcDbEntity
  8
PORTS
  6
CONTINUOUS
100
AcDbPoint
 10
90.0
 20
-220.0
 30
0.0
  0
LINE
  5
DF3415280CC4F127
100
AcDbEntity
  8
DETAIL_MEDIUM
  6
CONTINUOUS
100
AcDbLine
 10
90.0
 20
-220.0
 30
0.0
 11
190.0
 21
-220.0
 31
0.0
  0
ATTDEF
  5
DF3415280CC56462
100
AcDbEntity
  8
PORTS
  6
CONTINUOUS
100
AcDbText
 10
62.0
 20
-208.0
 30
0.0
 40
10.0
  1
0
 50
0.000019
  7
SIMPLEX
100
AcDbAttributeDefinition
  3

  2
INDEX
 70
     0
  0
ENDBLK
  5
DF3415280CC56467
100
AcDbEntity
  8
DETAIL_MEDIUM
  6
CONTINUOUS
100
AcDbBlockEnd
  0
BLOCK
  5
DF3415280CC7D3A3
100
AcDbEntity
  8
DETAIL_MEDIUM
  6
CONTINUOUS
100
AcDbBlockBegin
  2
PLL_ARM_TEST_UP_OUT
 70
     2
 10
0.0
 20
0.0
 30
0.0
  1

  0
LINE
  5
DF3415280CC7D3A1
100
AcDbEntity
  8
DETAIL_MEDIUM
  6
CONTINUOUS
100
AcDbLine
 10
460.0
 20
-660.0
 30
0.0
 11
460.0
 21
-760.0
 31
0.0
  0
POINT
  5
DF3415280CC7D3A0
100
AcDbEntity
  8
PORTS
  6
CONTINUOUS
100
AcDbPoint
 10
460.0
 20
-760.0
 30
0.0
  0
POLYLINE
  5
DF3415280CC7D398
100
AcDbEntity
  8
PORTS
  6
CONTINUOUS
100
AcDb2dPolyline
 66
     1
 10
0.0
 20
0.0
 30
0.0
 70
     1
  0
VERTEX
  5
DF3415280CC7D399
100
AcDbEntity
  8
PORTS
  6
CONTINUOUS
100
AcDbVertex
100
AcDb2dVertex
 10
460.0
 20
-840.0
 30
0.0
  0
VERTEX
  5
DF3415280CC7D39A
100
AcDbEntity
  8
PORTS
  6
CONTINUOUS
100
AcDbVertex
100
AcDb2dVertex
 10
454.0
 20
-832.0
 30
0.0
  0
VERTEX
  5
DF3415280CC7D39B
100
AcDbEntity
  8
PORTS
  6
CONTINUOUS
100
AcDbVertex
100
AcDb2dVertex
 10
454.0
 20
-760.0
 30
0.0
  0
VERTEX
  5
DF3415280CC7D39C
100
AcDbEntity
  8
PORTS
  6
CONTINUOUS
100
AcDbVertex
100
AcDb2dVertex
 10
466.0
 20
-760.0
 30
0.0
  0
VERTEX
  5
DF3415280CC7D39D
100
AcDbEntity
  8
PORTS
  6
CONTINUOUS
100
AcDbVertex
100
AcDb2dVertex
 10
466.0
 20
-832.0
 30
0.0
  0
VERTEX
  5
DF3415280CC7D39E
100
AcDbEntity
  8
PORTS
  6
CONTINUOUS
100
AcDbVertex
100
AcDb2dVertex
 10
460.0
 20
-840.0
 30
0.0
  0
SEQEND
  5
DF3415280CC7D39F
100
AcDbEntity
  8
PORTS
  6
CONTINUOUS
  0
ATTDEF
  5
DF3415280CC7D3A2
100
AcDbEntity
  8
PORTS
  6
CONTINUOUS
100
AcDbText
 10
452.0
 20
-868.0
 30
0.0
 40
10.0
  1

  7
SIMPLEX
100
AcDbAttributeDefinition
  3

  2
SIDE
 70
     0
  0
ENDBLK
  5
DF3415280CC7D3A5
100
AcDbEntity
  8
DETAIL_MEDIUM
  6
CONTINUOUS
100
AcDbBlockEnd
  0
BLOCK
  5
DF3415280CC7D3B9
100
AcDbEntity
  8
DETAIL_MEDIUM
  6
CONTINUOUS
100
AcDbBlockBegin
  2
PLL_ARM_TEST_DOWN_OUT
 70
     2
 10
0.0
 20
0.0
 30
0.0
  1

  0
LINE
  5
DF3415280CC7D3A9
100
AcDbEntity
  8
DETAIL_MEDIUM
  6
CONTINUOUS
100
AcDbLine
 10
560.0
 20
-650.0
 30
0.0
 11
560.0
 21
-750.0
 31
0.0
  0
POINT
  5
DF3415280CC7D3AA
100
AcDbEntity
  8
PORTS
  6
CONTINUOUS
100
AcDbPoint
 10
560.0
 20
-750.0
 30
0.0
  0
POLYLINE
  5
DF3415280CC7D3AB
100
AcDbEntity
  8
PORTS
  6
CONTINUOUS
100
AcDb2dPolyline
 66
     1
 10
0.0
 20
0.0
 30
0.0
 70
     1
  0
VERTEX
  5
DF3415280CC7D3AC
100
AcDbEntity
  8
PORTS
  6
CONTINUOUS
100
AcDbVertex
100
AcDb2dVertex
 10
560.0
 20
-830.0
 30
0.0
  0
VERTEX
  5
DF3415280CC7D3AD
100
AcDbEntity
  8
PORTS
  6
CONTINUOUS
100
AcDbVertex
100
AcDb2dVertex
 10
554.0
 20
-822.0
 30
0.0
  0
VERTEX
  5
DF3415280CC7D3AE
100
AcDbEntity
  8
PORTS
  6
CONTINUOUS
100
AcDbVertex
100
AcDb2dVertex
 10
554.0
 20
-750.0
 30
0.0
  0
VERTEX
  5
DF3415280CC7D3AF
100
AcDbEntity
  8
PORTS
  6
CONTINUOUS
100
AcDbVertex
100
AcDb2dVertex
 10
566.0
 20
-750.0
 30
0.0
  0
VERTEX
  5
DF3415280CC7D3B0
100
AcDbEntity
  8
PORTS
  6
CONTINUOUS
100
AcDbVertex
100
AcDb2dVertex
 10
566.0
 20
-822.0
 30
0.0
  0
VERTEX
  5
DF3415280CC7D3B1
100
AcDbEntity
  8
PORTS
  6
CONTINUOUS
100
AcDbVertex
100
AcDb2dVertex
 10
560.0
 20
-830.0
 30
0.0
  0
SEQEND
  5
DF3415280CC7D3B2
100
AcDbEntity
  8
PORTS
  6
CONTINUOUS
  0
ATTDEF
  5
DF3415280CC7D3B3
100
AcDbEntity
  8
PORTS
  6
CONTINUOUS
100
AcDbText
 10
552.0
 20
-858.0
 30
0.0
 40
10.0
  1

  7
SIMPLEX
100
AcDbAttributeDefinition
  3

  2
SIDE
 70
     0
  0
ENDBLK
  5
DF3415280CC7D3BB
100
AcDbEntity
  8
DETAIL_MEDIUM
  6
CONTINUOUS
100
AcDbBlockEnd
  0
BLOCK
  5
DF3415280CD95106
100
AcDbEntity
  8
DETAIL_MEDIUM
  6
CONTINUOUS
100
AcDbBlockBegin
  2
PLL_CYCII_TEST_CLEAR_LOCK
 70
     2
 10
0.0
 20
0.0
 30
0.0
  1

  0
POLYLINE
  5
DF3415280CD950FB
100
AcDbEntity
  8
PORTS
  6
CONTINUOUS
100
AcDb2dPolyline
 66
     1
 10
0.0
 20
0.0
 30
0.0
 70
     1
  0
VERTEX
  5
DF3415280CD950FC
100
AcDbEntity
  8
PORTS
  6
CONTINUOUS
100
AcDbVertex
100
AcDb2dVertex
 10
420.0
 20
-90.0
 30
0.0
  0
VERTEX
  5
DF3415280CD950FD
100
AcDbEntity
  8
PORTS
  6
CONTINUOUS
100
AcDbVertex
100
AcDb2dVertex
 10
414.0
 20
-82.0
 30
0.0
  0
VERTEX
  5
DF3415280CD950FE
100
AcDbEntity
  8
PORTS
  6
CONTINUOUS
100
AcDbVertex
100
AcDb2dVertex
 10
414.0
 20
-10.0
 30
0.0
  0
VERTEX
  5
DF3415280CD950FF
100
AcDbEntity
  8
PORTS
  6
CONTINUOUS
100
AcDbVertex
100
AcDb2dVertex
 10
426.0
 20
-10.0
 30
0.0
  0
VERTEX
  5
DF3415280CD95100
100
AcDbEntity
  8
PORTS
  6
CONTINUOUS
100
AcDbVertex
100
AcDb2dVertex
 10
426.0
 20
-82.0
 30
0.0
  0
VERTEX
  5
DF3415280CD95101
100
AcDbEntity
  8
PORTS
  6
CONTINUOUS
100
AcDbVertex
100
AcDb2dVertex
 10
420.0
 20
-90.0
 30
0.0
  0
SEQEND
  5
DF3415280CD95102
100
AcDbEntity
  8
PORTS
  6
CONTINUOUS
  0
POINT
  5
DF3415280CD95103
100
AcDbEntity
  8
PORTS
  6
CONTINUOUS
100
AcDbPoint
 10
420.0
 20
-90.0
 30
0.0
  0
LINE
  5
DF3415280CD95105
100
AcDbEntity
  8
DETAIL_MEDIUM
  6
CONTINUOUS
100
AcDbLine
 10
420.0
 20
-90.0
 30
0.0
 11
420.0
 21
-190.0
 31
0.0
  0
ATTDEF
  5
DF3415280CD95104
100
AcDbEntity
  8
PORTS
  6
CONTINUOUS
100
AcDbText
 10
412.0
 20
2.0
 30
0.0
 40
10.0
  1

  7
SIMPLEX
100
AcDbAttributeDefinition
  3

  2
SIDE
 70
     0
  0
ENDBLK
  5
DF3415280CD95108
100
AcDbEntity
  8
DETAIL_MEDIUM
  6
CONTINUOUS
100
AcDbBlockEnd
  0
BLOCK
  5
DF3415280CEDB83E
100
AcDbEntity
  8
DETAIL_MEDIUM
  6
CONTINUOUS
100
AcDbBlockBegin
  2
PLL_CYCII_SBDIN
 70
     2
 10
0.0
 20
0.0
 30
0.0
  1

  0
POLYLINE
  5
DF3415280CEDB833
100
AcDbEntity
  8
PORTS
  6
CONTINUOUS
100
AcDb2dPolyline
 66
     1
 10
0.0
 20
0.0
 30
0.0
 70
     1
  0
VERTEX
  5
DF3415280CEDB834
100
AcDbEntity
  8
PORTS
  6
CONTINUOUS
100
AcDbVertex
100
AcDb2dVertex
 10
510.0
 20
-90.0
 30
0.0
  0
VERTEX
  5
DF3415280CEDB835
100
AcDbEntity
  8
PORTS
  6
CONTINUOUS
100
AcDbVertex
100
AcDb2dVertex
 10
504.0
 20
-82.0
 30
0.0
  0
VERTEX
  5
DF3415280CEDB836
100
AcDbEntity
  8
PORTS
  6
CONTINUOUS
100
AcDbVertex
100
AcDb2dVertex
 10
504.0
 20
-10.0
 30
0.0
  0
VERTEX
  5
DF3415280CEDB837
100
AcDbEntity
  8
PORTS
  6
CONTINUOUS
100
AcDbVertex
100
AcDb2dVertex
 10
516.0
 20
-10.0
 30
0.0
  0
VERTEX
  5
DF3415280CEDB838
100
AcDbEntity
  8
PORTS
  6
CONTINUOUS
100
AcDbVertex
100
AcDb2dVertex
 10
516.0
 20
-82.0
 30
0.0
  0
VERTEX
  5
DF3415280CEDB839
100
AcDbEntity
  8
PORTS
  6
CONTINUOUS
100
AcDbVertex
100
AcDb2dVertex
 10
510.0
 20
-90.0
 30
0.0
  0
SEQEND
  5
DF3415280CEDB83A
100
AcDbEntity
  8
PORTS
  6
CONTINUOUS
  0
POINT
  5
DF3415280CEDB83B
100
AcDbEntity
  8
PORTS
  6
CONTINUOUS
100
AcDbPoint
 10
510.0
 20
-90.0
 30
0.0
  0
LINE
  5
DF3415280CEDB83D
100
AcDbEntity
  8
DETAIL_MEDIUM
  6
CONTINUOUS
100
AcDbLine
 10
510.0
 20
-90.0
 30
0.0
 11
510.0
 21
-190.0
 31
0.0
  0
ATTDEF
  5
DF3415280CEDB83C
100
AcDbEntity
  8
PORTS
  6
CONTINUOUS
100
AcDbText
 10
502.0
 20
2.0
 30
0.0
 40
10.0
  1

  7
SIMPLEX
100
AcDbAttributeDefinition
  3

  2
SIDE
 70
     0
  0
ENDBLK
  5
DF3415280CEDB840
100
AcDbEntity
  8
DETAIL_MEDIUM
  6
CONTINUOUS
100
AcDbBlockEnd
  0
BLOCK
  5
DF3415280D1684F0
100
AcDbEntity
  8
DETAIL_MEDIUM
  6
CONTINUOUS
100
AcDbBlockBegin
  2
PLL_CYCII_SBDOUT
 70
     2
 10
0.0
 20
0.0
 30
0.0
  1

  0
ATTDEF
  5
DF3415280D1684EE
100
AcDbEntity
  8
PORTS
  6
CONTINUOUS
100
AcDbText
 10
352.0
 20
-838.0
 30
0.0
 40
10.0
  1

  7
SIMPLEX
100
AcDbAttributeDefinition
  3

  2
SIDE
 70
     0
  0
POLYLINE
  5
DF3415280D1684E5
100
AcDbEntity
  8
PORTS
  6
CONTINUOUS
100
AcDb2dPolyline
 66
     1
 10
0.0
 20
0.0
 30
0.0
 70
     1
  0
VERTEX
  5
DF3415280D1684E6
100
AcDbEntity
  8
PORTS
  6
CONTINUOUS
100
AcDbVertex
100
AcDb2dVertex
 10
360.0
 20
-810.0
 30
0.0
  0
VERTEX
  5
DF3415280D1684E7
100
AcDbEntity
  8
PORTS
  6
CONTINUOUS
100
AcDbVertex
100
AcDb2dVertex
 10
354.0
 20
-802.0
 30
0.0
  0
VERTEX
  5
DF3415280D1684E8
100
AcDbEntity
  8
PORTS
  6
CONTINUOUS
100
AcDbVertex
100
AcDb2dVertex
 10
354.0
 20
-730.0
 30
0.0
  0
VERTEX
  5
DF3415280D1684E9
100
AcDbEntity
  8
PORTS
  6
CONTINUOUS
100
AcDbVertex
100
AcDb2dVertex
 10
366.0
 20
-730.0
 30
0.0
  0
VERTEX
  5
DF3415280D1684EA
100
AcDbEntity
  8
PORTS
  6
CONTINUOUS
100
AcDbVertex
100
AcDb2dVertex
 10
366.0
 20
-802.0
 30
0.0
  0
VERTEX
  5
DF3415280D1684EB
100
AcDbEntity
  8
PORTS
  6
CONTINUOUS
100
AcDbVertex
100
AcDb2dVertex
 10
360.0
 20
-810.0
 30
0.0
  0
SEQEND
  5
DF3415280D1684EC
100
AcDbEntity
  8
PORTS
  6
CONTINUOUS
  0
POINT
  5
DF3415280D1684ED
100
AcDbEntity
  8
PORTS
  6
CONTINUOUS
100
AcDbPoint
 10
360.0
 20
-730.0
 30
0.0
  0
LINE
  5
DF3415280D1684EF
100
AcDbEntity
  8
DETAIL_MEDIUM
  6
CONTINUOUS
100
AcDbLine
 10
360.0
 20
-630.0
 30
0.0
 11
360.0
 21
-730.0
 31
0.0
  0
ENDBLK
  5
DF3415280D1684F2
100
AcDbEntity
  8
DETAIL_MEDIUM
  6
CONTINUOUS
100
AcDbBlockEnd
  0
BLOCK
  5
DF3415280D1684F6
100
AcDbEntity
  8
DETAIL_MEDIUM
  6
CONTINUOUS
100
AcDbBlockBegin
  2
PLL_CYCII
 70
     0
 10
0.0
 20
0.0
 30
0.0
  1

  0
INSERT
  5
DF3415280CCF1CEE
100
AcDbEntity
  8
DETAIL_MEDIUM
  6
CONTINUOUS
100
AcDbBlockReference
 66
     1
  2
PLL_YGR_PLL_ENA
 10
210.0
 20
-190.0
 30
0.0
  0
ATTRIB
  5
DF3415280CCF1CEF
100
AcDbEntity
  8
PORTS
  6
CONTINUOUS
100
AcDbText
 10
212.0
 20
2.0
 30
0.0
 40
10.0
  1
TOP
  7
SIMPLEX
100
AcDbAttribute
  2
SIDE
 70
     0
  0
SEQEND
  5
DF3415280CCF1CF0
100
AcDbEntity
  8
DETAIL_MEDIUM
  6
CONTINUOUS
  0
INSERT
  5
DF3415280CCF1CF1
100
AcDbEntity
  8
DETAIL_MEDIUM
  6
CONTINUOUS
100
AcDbBlockReference
 66
     1
  2
PLL_YGR_ARESET
 10
270.0
 20
-190.0
 30
0.0
  0
ATTRIB
  5
DF3415280CCF1CF2
100
AcDbEntity
  8
PORTS
  6
CONTINUOUS
100
AcDbText
 10
272.0
 20
2.0
 30
0.0
 40
10.0
  1
TOP
  7
SIMPLEX
100
AcDbAttribute
  2
SIDE
 70
     0
  0
SEQEND
  5
DF3415280CCF1CF3
100
AcDbEntity
  8
DETAIL_MEDIUM
  6
CONTINUOUS
  0
INSERT
  5
DF3415280CCF1CF4
100
AcDbEntity
  8
DETAIL_MEDIUM
  6
CONTINUOUS
100
AcDbBlockReference
 66
     1
  2
PLL_YGR_PFDENA
 10
330.0
 20
-190.0
 30
0.0
  0
ATTRIB
  5
DF3415280CCF1CF5
100
AcDbEntity
  8
PORTS
  6
CONTINUOUS
100
AcDbText
 10
332.0
 20
2.0
 30
0.0
 40
10.0
  1
TOP
  7
SIMPLEX
100
AcDbAttribute
  2
SIDE
 70
     0
  0
SEQEND
  5
DF3415280CCF1CF6
100
AcDbEntity
  8
DETAIL_MEDIUM
  6
CONTINUOUS
  0
INSERT
  5
DF3415280CCF1CFA
100
AcDbEntity
  8
DETAIL_MEDIUM
  6
CONTINUOUS
100
AcDbBlockReference
 66
     1
  2
PLL_YGR_CLKSWITCH
 10
440.0
 20
-190.0
 30
0.0
  0
ATTRIB
  5
DF3415280CCF1CFB
100
AcDbEntity
  8
PORTS
  6
CONTINUOUS
100
AcDbText
 10
442.0
 20
2.0
 30
0.0
 40
10.0
  1
TOP
  7
SIMPLEX
100
AcDbAttribute
  2
SIDE
 70
     0
  0
SEQEND
  5
DF3415280CCF1CFC
100
AcDbEntity
  8
DETAIL_MEDIUM
  6
CONTINUOUS
  0
INSERT
  5
DF3415280CCF1D00
100
AcDbEntity
  8
DETAIL_MEDIUM
  6
CONTINUOUS
100
AcDbBlockReference
 66
     1
  2
PLL_YGR_C
 10
540.0
 20
-410.0
 30
0.0
  0
ATTRIB
  5
DF3415280CCF1D01
100
AcDbEntity
  8
PORTS
  6
CONTINUOUS
100
AcDbText
 10
642.0
 20
-388.0
 30
0.0
 40
10.0
  1
RIGHT
 50
0.000019
  7
SIMPLEX
100
AcDbAttribute
  2
SIDE
 70
     0
  0
ATTRIB
  5
DF3415280CCF1D02
100
AcDbEntity
  8
PORTS
  6
CONTINUOUS
100
AcDbText
 10
692.0
 20
-388.0
 30
0.0
 40
10.0
  1
1
 50
0.000019
  7
SIMPLEX
100
AcDbAttribute
  2
INDEX
 70
     0
  0
SEQEND
  5
DF3415280CCF1D03
100
AcDbEntity
  8
DETAIL_MEDIUM
  6
CONTINUOUS
  0
INSERT
  5
DF3415280CCF1D04
100
AcDbEntity
  8
DETAIL_MEDIUM
  6
CONTINUOUS
100
AcDbBlockReference
 66
     1
  2
PLL_YGR_C
 10
540.0
 20
-510.0
 30
0.0
  0
ATTRIB
  5
DF3415280CCF1D05
100
AcDbEntity
  8
PORTS
  6
CONTINUOUS
100
AcDbText
 10
642.0
 20
-488.0
 30
0.0
 40
10.0
  1
RIGHT
 50
0.000019
  7
SIMPLEX
100
AcDbAttribute
  2
SIDE
 70
     0
  0
ATTRIB
  5
DF3415280CCF1D06
100
AcDbEntity
  8
PORTS
  6
CONTINUOUS
100
AcDbText
 10
692.0
 20
-488.0
 30
0.0
 40
10.0
  1
2
 50
0.000019
  7
SIMPLEX
100
AcDbAttribute
  2
INDEX
 70
     0
  0
SEQEND
  5
DF3415280CCF1D07
100
AcDbEntity
  8
DETAIL_MEDIUM
  6
CONTINUOUS
  0
POLYLINE
  5
DF3415280CCF1D1A
100
AcDbEntity
  8
DETAIL_MEDIUM
  6
CONTINUOUS
100
AcDb2dPolyline
 66
     1
 10
0.0
 20
0.0
 30
0.0
 70
     1
  0
VERTEX
  5
DF3415280CCF1D1B
100
AcDbEntity
  8
DETAIL_MEDIUM
  6
CONTINUOUS
100
AcDbVertex
100
AcDb2dVertex
 10
540.0
 20
-630.0
 30
0.0
  0
VERTEX
  5
DF3415280CCF1D1C
100
AcDbEntity
  8
DETAIL_MEDIUM
  6
CONTINUOUS
100
AcDbVertex
100
AcDb2dVertex
 10
190.0
 20
-630.0
 30
0.0
  0
VERTEX
  5
DF3415280CCF1D1D
100
AcDbEntity
  8
DETAIL_MEDIUM
  6
CONTINUOUS
100
AcDbVertex
100
AcDb2dVertex
 10
190.0
 20
-190.0
 30
0.0
  0
VERTEX
  5
DF3415280CCF1D1E
100
AcDbEntity
  8
DETAIL_MEDIUM
  6
CONTINUOUS
100
AcDbVertex
100
AcDb2dVertex
 10
540.0
 20
-190.0
 30
0.0
  0
SEQEND
  5
DF3415280CCF1D1F
100
AcDbEntity
  8
DETAIL_MEDIUM
  6
CONTINUOUS
  0
INSERT
  5
DF3415280CCF1D26
100
AcDbEntity
  8
DETAIL_MEDIUM
  6
CONTINUOUS
100
AcDbBlockReference
 66
     1
  2
PLL_YGR_INCLK
 10
10.0
 20
-370.0
 30
0.0
  0
ATTRIB
  5
DF3415280CCF1D27
100
AcDbEntity
  8
PORTS
  6
CONTINUOUS
100
AcDbText
 10
12.0
 20
-348.0
 30
0.0
 40
10.0
  1
LEFT
  7
SIMPLEX
100
AcDbAttribute
  2
SIDE
 70
     0
  0
ATTRIB
  5
DF3415280CCF1D28
100
AcDbEntity
  8
PORTS
  6
CONTINUOUS
100
AcDbText
 10
62.0
 20
-348.0
 30
0.0
 40
10.0
  1
0
 50
0.000019
  7
SIMPLEX
100
AcDbAttribute
  2
INDEX
 70
     0
  0
SEQEND
  5
DF3415280CCF1D29
100
AcDbEntity
  8
DETAIL_MEDIUM
  6
CONTINUOUS
  0
INSERT
  5
DF3415280CCF1D32
100
AcDbEntity
  8
DETAIL_MEDIUM
  6
CONTINUOUS
100
AcDbBlockReference
 66
     1
  2
PLL_YGR_C
 10
540.0
 20
-320.0
 30
0.0
  0
ATTRIB
  5
DF3415280CCF1D33
100
AcDbEntity
  8
PORTS
  6
CONTINUOUS
100
AcDbText
 10
642.0
 20
-298.0
 30
0.0
 40
10.0
  1
RIGHT
 50
0.000019
  7
SIMPLEX
100
AcDbAttribute
  2
SIDE
 70
     0
  0
ATTRIB
  5
DF3415280CCF1D34
100
AcDbEntity
  8
PORTS
  6
CONTINUOUS
100
AcDbText
 10
692.0
 20
-298.0
 30
0.0
 40
10.0
  1
0
 50
0.000019
  7
SIMPLEX
100
AcDbAttribute
  2
INDEX
 70
     0
  0
SEQEND
  5
DF3415280CCF1D35
100
AcDbEntity
  8
DETAIL_MEDIUM
  6
CONTINUOUS
  0
INSERT
  5
DF3415280CCF1D3F
100
AcDbEntity
  8
DETAIL_MEDIUM
  6
CONTINUOUS
100
AcDbBlockReference
 66
     1
  2
PLL_YGR_INCLK
 10
10.0
 20
-470.0
 30
0.0
  0
ATTRIB
  5
DF3415280CCF1D40
100
AcDbEntity
  8
PORTS
  6
CONTINUOUS
100
AcDbText
 10
12.0
 20
-448.0
 30
0.0
 40
10.0
  1
LEFT
  7
SIMPLEX
100
AcDbAttribute
  2
SIDE
 70
     0
  0
ATTRIB
  5
DF3415280CCF1D41
100
AcDbEntity
  8
PORTS
  6
CONTINUOUS
100
AcDbText
 10
62.0
 20
-448.0
 30
0.0
 40
10.0
  1
1
 50
0.000019
  7
SIMPLEX
100
AcDbAttribute
  2
INDEX
 70
     0
  0
SEQEND
  5
DF3415280CCF1D42
100
AcDbEntity
  8
DETAIL_MEDIUM
  6
CONTINUOUS
  0
INSERT
  5
DF3415280CCF1D49
100
AcDbEntity
  8
DETAIL_MEDIUM
  6
CONTINUOUS
100
AcDbBlockReference
 66
     1
  2
PLL_ARM_TEST_UP_OUT
 10
-50.0
 20
30.0
 30
0.0
  0
ATTRIB
  5
DF3415280CCF1D4A
100
AcDbEntity
  8
PORTS
  6
CONTINUOUS
100
AcDbText
 10
402.0
 20
-838.0
 30
0.0
 40
10.0
  1
BOTTOM
  7
SIMPLEX
100
AcDbAttribute
  2
SIDE
 70
     0
  0
SEQEND
  5
DF3415280CCF1D4B
100
AcDbEntity
  8
DETAIL_MEDIUM
  6
CONTINUOUS
  0
INSERT
  5
DF3415280CCF1D4C
100
AcDbEntity
  8
DETAIL_MEDIUM
  6
CONTINUOUS
100
AcDbBlockReference
 66
     1
  2
PLL_YGR_LOCKED
 10
-60.0
 20
0.0
 30
0.0
  0
ATTRIB
  5
DF3415280CCF1D4D
100
AcDbEntity
  8
PORTS
  6
CONTINUOUS
100
AcDbText
 10
242.0
 20
-838.0
 30
0.0
 40
10.0
  1
BOTTOM
  7
SIMPLEX
100
AcDbAttribute
  2
SIDE
 70
     0
  0
SEQEND
  5
DF3415280CCF1D4E
100
AcDbEntity
  8
DETAIL_MEDIUM
  6
CONTINUOUS
  0
INSERT
  5
DF3415280CCF1D4F
100
AcDbEntity
  8
DETAIL_MEDIUM
  6
CONTINUOUS
100
AcDbBlockReference
 66
     1
  2
PLL_ARM_TEST_DOWN_OUT
 10
-80.0
 20
20.0
 30
0.0
  0
ATTRIB
  5
DF3415280CCF1D50
100
AcDbEntity
  8
PORTS
  6
CONTINUOUS
100
AcDbText
 10
472.0
 20
-838.0
 30
0.0
 40
10.0
  1
BOTTOM
  7
SIMPLEX
100
AcDbAttribute
  2
SIDE
 70
     0
  0
SEQEND
  5
DF3415280CCF1D51
100
AcDbEntity
  8
DETAIL_MEDIUM
  6
CONTINUOUS
  0
INSERT
  5
DF3415280CD95109
100
AcDbEntity
  8
DETAIL_MEDIUM
  6
CONTINUOUS
100
AcDbBlockReference
 66
     1
  2
PLL_CYCII_TEST_CLEAR_LOCK
 10
-30.0
 20
0.0
 30
0.0
  0
ATTRIB
  5
DF3415280CD9510A
100
AcDbEntity
  8
PORTS
  6
CONTINUOUS
100
AcDbText
 10
382.0
 20
2.0
 30
0.0
 40
10.0
  1
TOP
  7
SIMPLEX
100
AcDbAttribute
  2
SIDE
 70
     0
  0
SEQEND
  5
DF3415280CD9510B
100
AcDbEntity
  8
DETAIL_MEDIUM
  6
CONTINUOUS
  0
INSERT
  5
DF3415280CEDB841
100
AcDbEntity
  8
DETAIL_MEDIUM
  6
CONTINUOUS
100
AcDbBlockReference
 66
     1
  2
PLL_CYCII_SBDIN
 10
0.0
 20
0.0
 30
0.0
  0
ATTRIB
  5
DF3415280CEDB842
100
AcDbEntity
  8
PORTS
  6
CONTINUOUS
100
AcDbText
 10
502.0
 20
2.0
 30
0.0
 40
10.0
  1
TOP
  7
SIMPLEX
100
AcDbAttribute
  2
SIDE
 70
     0
  0
SEQEND
  5
DF3415280CEDB843
100
AcDbEntity
  8
DETAIL_MEDIUM
  6
CONTINUOUS
  0
INSERT
  5
DF3415280D1684F3
100
AcDbEntity
  8
DETAIL_MEDIUM
  6
CONTINUOUS
100
AcDbBlockReference
 66
     1
  2
PLL_CYCII_SBDOUT
 10
-40.0
 20
0.0
 30
0.0
  0
ATTRIB
  5
DF3415280D1684F4
100
AcDbEntity
  8
PORTS
  6
CONTINUOUS
100
AcDbText
 10
312.0
 20
-838.0
 30
0.0
 40
10.0
  1
BOTTOM
  7
SIMPLEX
100
AcDbAttribute
  2
SIDE
 70
     0
  0
SEQEND
  5
DF3415280D1684F5
100
AcDbEntity
  8
DETAIL_MEDIUM
  6
CONTINUOUS
  0
ENDBLK
  5
DF3415280D1684F8
100
AcDbEntity
  8
DETAIL_MEDIUM
  6
CONTINUOUS
100
AcDbBlockEnd
  0
ENDSEC
  0
SECTION
  2
ENTITIES
  0
TEXT
  5
1555386
100
AcDbEntity
  8
COMMENT
100
AcDbText
 10
27.0
 20
113.5
 30
0.0
 40
10.0
  1
Comments:
100
AcDbText
  0
TEXT
  5
DF2FB97E2E1C5501
100
AcDbEntity
  8
COMMENT
  6
CONTINUOUS
100
AcDbText
 10
26.0
 20
94.0
 30
0.0
 40
10.0
  1
All ports are on PORTS layer. They don't have FILLCLR since it is assigned in software.
  7
SIMPLEX
100
AcDbText
  0
TEXT
  5
DF2FB97E2E1C5502
100
AcDbEntity
  8
COMMENT
  6
CONTINUOUS
100
AcDbText
 10
26.0
 20
76.857143
 30
0.0
 40
10.0
  1
Text is drawn starting at the only point contained by the port block on PORTS layer. SIDE determines 
  7
SIMPLEX
100
AcDbText
  0
TEXT
  5
DF2FB97E2E1C5503
100
AcDbEntity
  8
COMMENT
  6
CONTINUOUS
100
AcDbText
 10
26.0
 20
59.714286
 30
0.0
 40
10.0
  1
the direction of the text. Port association is based on the name of the block.
  7
SIMPLEX
100
AcDbText
  0
LINE
  5
DF3414A04332ADC8
100
AcDbEntity
  8
COMMENT
  6
CONTINUOUS
100
AcDbLine
 10
-130.0
 20
0.0
 30
0.0
 11
1150.0
 21
0.0
 31
0.0
  0
LINE
  5
DF3414A04332ADCA
100
AcDbEntity
  8
COMMENT
  6
CONTINUOUS
100
AcDbLine
 10
0.0
 20
140.0
 30
0.0
 11
0.0
 21
-820.0
 31
0.0
  0
TEXT
  5
DF3414A0D7EA00A9
100
AcDbEntity
  8
COMMENT
  6
CONTINUOUS
100
AcDbText
 10
26.0
 20
39.714286
 30
0.0
 40
10.0
  1
Point 0,0 must be in top left corner of the drawing.
  7
SIMPLEX
100
AcDbText
  0
INSERT
  5
DF3415280D1684F9
100
AcDbEntity
  8
DETAIL_MEDIUM
  6
CONTINUOUS
100
AcDbBlockReference
  2
PLL_CYCII
 10
0.0
 20
0.0
 30
0.0
  0
ENDSEC
  0
SECTION
  2
OBJECTS
  0
DICTIONARY
  5
C
100
AcDbDictionary
  3
ACAD_GROUP
350
D
  3
ACAD_MLINESTYLE
350
1B
  0
DICTIONARY
  5
D
102
{ACAD_REACTORS
330
C
102
}
100
AcDbDictionary
  0
DICTIONARY
  5
1B
102
{ACAD_REACTORS
330
C
102
}
100
AcDbDictionary
  3
STANDARD
350
1C
  0
MLINESTYLE
  5
1C
102
{ACAD_REACTORS
330
1B
102
}
100
AcDbMlineStyle
  2
STANDARD
 70
     0
  3

 62
   256
 51
90.0
 52
90.0
 71
     2
 49
0.5
 62
   256
  6
BYLAYER
 49
-0.5
 62
   256
  6
BYLAYER
  0
ENDSEC
  0
EOF
