  0
SECTION
  2
HEADER
  9
$ACADVER
  1
AC1014
  9
$ACADMAINTVER
 70
     0
  9
$DWGCODEPAGE
  3
ANSI_1252
  9
$INSBASE
 10
0.0
 20
0.0
 30
0.0
  9
$EXTMIN
 10
-2500.0
 20
-17800.0
 30
0.0
  9
$EXTMAX
 10
8000.0
 20
400.0
 30
0.0
  9
$LIMMIN
 10
0.0
 20
0.0
  9
$LIMMAX
 10
12.0
 20
9.0
  9
$ORTHOMODE
 70
     0
  9
$REGENMODE
 70
     1
  9
$FILLMODE
 70
     1
  9
$QTEXTMODE
 70
     0
  9
$MIRRTEXT
 70
     1
  9
$DRAGMODE
 70
     2
  9
$LTSCALE
 40
1.0
  9
$OSMODE
 70
     0
  9
$ATTMODE
 70
     1
  9
$TEXTSIZE
 40
0.2
  9
$TRACEWID
 40
0.05
  9
$TEXTSTYLE
  7
SIMPLEX
  9
$CLAYER
  8
SIMPLE
  9
$CELTYPE
  6
CONTINUOUS
  9
$CECOLOR
 62
   256
  9
$CELTSCALE
 40
1.0
  9
$DELOBJ
 70
     1
  9
$DISPSILH
 70
     0
  9
$DIMSCALE
 40
1.0
  9
$DIMASZ
 40
0.18
  9
$DIMEXO
 40
0.0625
  9
$DIMDLI
 40
0.38
  9
$DIMRND
 40
0.0
  9
$DIMDLE
 40
0.0
  9
$DIMEXE
 40
0.18
  9
$DIMTP
 40
0.0
  9
$DIMTM
 40
0.0
  9
$DIMTXT
 40
0.18
  9
$DIMCEN
 40
0.09
  9
$DIMTSZ
 40
0.0
  9
$DIMTOL
 70
     0
  9
$DIMLIM
 70
     0
  9
$DIMTIH
 70
     1
  9
$DIMTOH
 70
     1
  9
$DIMSE1
 70
     0
  9
$DIMSE2
 70
     0
  9
$DIMTAD
 70
     0
  9
$DIMZIN
 70
     0
  9
$DIMBLK
  1

  9
$DIMASO
 70
     1
  9
$DIMSHO
 70
     1
  9
$DIMPOST
  1

  9
$DIMAPOST
  1

  9
$DIMALT
 70
     0
  9
$DIMALTD
 70
     2
  9
$DIMALTF
 40
25.4
  9
$DIMLFAC
 40
1.0
  9
$DIMTOFL
 70
     0
  9
$DIMTVP
 40
0.0
  9
$DIMTIX
 70
     0
  9
$DIMSOXD
 70
     0
  9
$DIMSAH
 70
     0
  9
$DIMBLK1
  1

  9
$DIMBLK2
  1

  9
$DIMSTYLE
  2
STANDARD
  9
$DIMCLRD
 70
     0
  9
$DIMCLRE
 70
     0
  9
$DIMCLRT
 70
     0
  9
$DIMTFAC
 40
1.0
  9
$DIMGAP
 40
0.09
  9
$DIMJUST
 70
     0
  9
$DIMSD1
 70
     0
  9
$DIMSD2
 70
     0
  9
$DIMTOLJ
 70
     1
  9
$DIMTZIN
 70
     0
  9
$DIMALTZ
 70
     0
  9
$DIMALTTZ
 70
     0
  9
$DIMFIT
 70
     3
  9
$DIMUPT
 70
     0
  9
$DIMUNIT
 70
     2
  9
$DIMDEC
 70
     4
  9
$DIMTDEC
 70
     4
  9
$DIMALTU
 70
     2
  9
$DIMALTTD
 70
     2
  9
$DIMTXSTY
  7
STANDARD
  9
$DIMAUNIT
 70
     0
  9
$LUNITS
 70
     2
  9
$LUPREC
 70
     4
  9
$SKETCHINC
 40
0.1
  9
$FILLETRAD
 40
0.5
  9
$AUNITS
 70
     0
  9
$AUPREC
 70
     0
  9
$MENU
  1
.
  9
$ELEVATION
 40
0.0
  9
$PELEVATION
 40
0.0
  9
$THICKNESS
 40
0.0
  9
$LIMCHECK
 70
     0
  9
$BLIPMODE
 70
     0
  9
$CHAMFERA
 40
0.5
  9
$CHAMFERB
 40
0.5
  9
$CHAMFERC
 40
1.0
  9
$CHAMFERD
 40
0.0
  9
$SKPOLY
 70
     0
  9
$TDCREATE
 40
2453042.5955553357
  9
$TDUPDATE
 40
2453244.7291203588
  9
$TDINDWG
 40
0.215752314815
  9
$TDUSRTIMER
 40
0.215752314815
  9
$USRTIMER
 70
     1
  9
$ANGBASE
 50
0.0
  9
$ANGDIR
 70
     0
  9
$PDMODE
 70
    66
  9
$PDSIZE
 40
100.0
  9
$PLINEWID
 40
0.0
  9
$COORDS
 70
     1
  9
$SPLFRAME
 70
     0
  9
$SPLINETYPE
 70
     6
  9
$SPLINESEGS
 70
     8
  9
$ATTDIA
 70
     0
  9
$ATTREQ
 70
     1
  9
$HANDLING
 70
     1
  9
$HANDSEED
  5
DF3414A1AD4037C3
  9
$SURFTAB1
 70
     6
  9
$SURFTAB2
 70
     6
  9
$SURFTYPE
 70
     6
  9
$SURFU
 70
     6
  9
$SURFV
 70
     6
  9
$UCSNAME
  2

  9
$UCSORG
 10
0.0
 20
0.0
 30
0.0
  9
$UCSXDIR
 10
1.0
 20
0.0
 30
0.0
  9
$UCSYDIR
 10
0.0
 20
1.0
 30
0.0
  9
$PUCSNAME
  2

  9
$PUCSORG
 10
0.0
 20
0.0
 30
0.0
  9
$PUCSXDIR
 10
1.0
 20
0.0
 30
0.0
  9
$PUCSYDIR
 10
0.0
 20
1.0
 30
0.0
  9
$USERI1
 70
     0
  9
$USERI2
 70
     0
  9
$USERI3
 70
     0
  9
$USERI4
 70
     0
  9
$USERI5
 70
     0
  9
$USERR1
 40
0.0
  9
$USERR2
 40
0.0
  9
$USERR3
 40
0.0
  9
$USERR4
 40
0.0
  9
$USERR5
 40
0.0
  9
$WORLDVIEW
 70
     1
  9
$SHADEDGE
 70
     3
  9
$SHADEDIF
 70
    70
  9
$TILEMODE
 70
     1
  9
$MAXACTVP
 70
    48
  9
$PINSBASE
 10
0.0
 20
0.0
 30
0.0
  9
$PLIMCHECK
 70
     0
  9
$PEXTMIN
 10
1.000000E+020
 20
1.000000E+020
 30
1.000000E+020
  9
$PEXTMAX
 10
-1.000000E+020
 20
-1.000000E+020
 30
-1.000000E+020
  9
$PLIMMIN
 10
0.0
 20
0.0
  9
$PLIMMAX
 10
12.0
 20
9.0
  9
$UNITMODE
 70
     0
  9
$VISRETAIN
 70
     1
  9
$PLINEGEN
 70
     0
  9
$PSLTSCALE
 70
     1
  9
$TREEDEPTH
 70
  3020
  9
$PICKSTYLE
 70
     1
  9
$CMLSTYLE
  2
STANDARD
  9
$CMLJUST
 70
     0
  9
$CMLSCALE
 40
1.0
  9
$PROXYGRAPHICS
 70
     1
  9
$MEASUREMENT
 70
     0
  0
ENDSEC
  0
SECTION
  2
CLASSES
  0
CLASS
  1
LWPOLYLINE
  2
AcDbPolyline
  3
"AutoCAD"
 90
        0
280
     0
281
     1
  0
ENDSEC
  0
SECTION
  2
TABLES
  0
TABLE
  2
VPORT
  5
8
100
AcDbSymbolTable
 70
     1
  0
VPORT
  5
37
100
AcDbSymbolTableRecord
100
AcDbViewportTableRecord
  2
*ACTIVE
 70
     0
 10
0.0
 20
0.0
 11
1.0
 21
1.0
 12
-3773.328844
 22
-4696.006633
 13
0.0
 23
0.0
 14
50.0
 24
50.0
 15
50.0
 25
50.0
 16
0.0
 26
0.0
 36
1.0
 17
0.0
 27
0.0
 37
0.0
 40
21834.451099
 41
1.376866
 42
50.0
 43
0.0
 44
0.0
 50
0.0
 51
0.0
 71
     0
 72
   100
 73
     1
 74
     1
 75
     1
 76
     1
 77
     0
 78
     0
  0
ENDTAB
  0
TABLE
  2
LTYPE
  5
5
100
AcDbSymbolTable
 70
     1
  0
LTYPE
  5
12
100
AcDbSymbolTableRecord
100
AcDbLinetypeTableRecord
  2
BYBLOCK
 70
     0
  3

 72
    65
 73
     0
 40
0.0
  0
LTYPE
  5
13
100
AcDbSymbolTableRecord
100
AcDbLinetypeTableRecord
  2
BYLAYER
 70
     0
  3

 72
    65
 73
     0
 40
0.0
  0
LTYPE
  5
14
100
AcDbSymbolTableRecord
100
AcDbLinetypeTableRecord
  2
CONTINUOUS
 70
     0
  3
Solid line
 72
    65
 73
     0
 40
0.0
  0
ENDTAB
  0
TABLE
  2
LAYER
  5
2
100
AcDbSymbolTable
 70
     3
  0
LAYER
  5
541
100
AcDbSymbolTableRecord
100
AcDbLayerTableRecord
  2
COMMENT
 70
     0
 62
     2
  6
CONTINUOUS
  0
LAYER
  5
15543B5
100
AcDbSymbolTableRecord
100
AcDbLayerTableRecord
  2
SIMPLE
 70
     0
 62
   144
  6
CONTINUOUS
  0
LAYER
  5
DF3414A1AD4031E1
100
AcDbSymbolTableRecord
100
AcDbLayerTableRecord
  2
0
 70
     0
 62
     7
  6
CONTINUOUS
  0
ENDTAB
  0
TABLE
  2
STYLE
  5
3
100
AcDbSymbolTable
 70
     8
  0
STYLE
  5
F
100
AcDbSymbolTableRecord
100
AcDbTextStyleTableRecord
  2
STANDARD
 70
     0
 40
0.0
 41
1.0
 50
0.0
 71
     0
 42
0.2
  3
txt.shx
  4

  0
STYLE
  5
21
100
AcDbSymbolTableRecord
100
AcDbTextStyleTableRecord
  2
COMPLEX
 70
     0
 40
0.0
 41
1.0
 50
0.0
 71
     0
 42
0.2
  3
complex
  4

  0
STYLE
  5
22
100
AcDbSymbolTableRecord
100
AcDbTextStyleTableRecord
  2
ITALIC
 70
     0
 40
0.0
 41
1.0
 50
0.0
 71
     0
 42
0.2
  3
italic
  4

  0
STYLE
  5
23
100
AcDbSymbolTableRecord
100
AcDbTextStyleTableRecord
  2
ROMANC
 70
     0
 40
0.0
 41
1.0
 50
0.0
 71
     0
 42
0.2
  3
romanc
  4

  0
STYLE
  5
24
100
AcDbSymbolTableRecord
100
AcDbTextStyleTableRecord
  2
SIMPLEX
 70
     0
 40
0.0
 41
1.0
 50
0.0
 71
     0
 42
0.2
  3
simplex
  4

  0
STYLE
  5
34
100
AcDbSymbolTableRecord
100
AcDbTextStyleTableRecord
  2

 70
     1
 40
0.0
 41
1.0
 50
0.0
 71
     0
 42
0.2
  3
ltypeshp.shx
  4

  0
STYLE
  5
38
100
AcDbSymbolTableRecord
100
AcDbTextStyleTableRecord
  2
ARIAL
 70
     0
 40
0.0
 41
1.0
 50
0.0
 71
     0
 42
0.2
  3

  4

1001
ACAD
1000
Arial
1071
       34
  0
STYLE
  5
39
100
AcDbSymbolTableRecord
100
AcDbTextStyleTableRecord
  2
TIMES_NEW_ROMAN
 70
     0
 40
0.0
 41
1.0
 50
0.0
 71
     0
 42
0.2
  3

  4

1001
ACAD
1000
Times New Roman
1071
       18
  0
ENDTAB
  0
TABLE
  2
VIEW
  5
6
100
AcDbSymbolTable
 70
     0
  0
ENDTAB
  0
TABLE
  2
UCS
  5
7
100
AcDbSymbolTable
 70
     0
  0
ENDTAB
  0
TABLE
  2
APPID
  5
9
100
AcDbSymbolTable
 70
     1
  0
APPID
  5
10
100
AcDbSymbolTableRecord
100
AcDbRegAppTableRecord
  2
ACAD
 70
     0
  0
ENDTAB
  0
TABLE
  2
DIMSTYLE
  5
A
100
AcDbSymbolTable
 70
     1
  0
DIMSTYLE
105
1D
100
AcDbSymbolTableRecord
100
AcDbDimStyleTableRecord
  2
STANDARD
 70
     0
  3

  4

  5

  6

  7

 40
1.0
 41
0.18
 42
0.0625
 43
0.38
 44
0.18
 45
0.0
 46
0.0
 47
0.0
 48
0.0
140
0.18
141
0.09
142
0.0
143
25.4
144
1.0
145
0.0
146
1.0
147
0.09
 71
     0
 72
     0
 73
     1
 74
     1
 75
     0
 76
     0
 77
     0
 78
     0
170
     0
171
     2
172
     0
173
     0
174
     0
175
     0
176
     0
177
     0
178
     0
270
     2
271
     4
272
     4
273
     2
274
     2
340
F
275
     0
280
     0
281
     0
282
     0
283
     1
284
     0
285
     0
286
     0
287
     3
288
     0
  0
ENDTAB
  0
TABLE
  2
BLOCK_RECORD
  5
1
100
AcDbSymbolTable
 70
    14
  0
BLOCK_RECORD
  5
18
100
AcDbSymbolTableRecord
100
AcDbBlockTableRecord
  2
*MODEL_SPACE
  0
BLOCK_RECORD
  5
15
100
AcDbSymbolTableRecord
100
AcDbBlockTableRecord
  2
*PAPER_SPACE
  0
BLOCK_RECORD
  5
DF3414A1AD3E4F0F
100
AcDbSymbolTableRecord
100
AcDbBlockTableRecord
  2
H4
  0
BLOCK_RECORD
  5
DF3414A1AD3E4F13
100
AcDbSymbolTableRecord
100
AcDbBlockTableRecord
  2
H8
  0
BLOCK_RECORD
  5
DF3414A1AD3E4F17
100
AcDbSymbolTableRecord
100
AcDbBlockTableRecord
  2
H24
  0
BLOCK_RECORD
  5
DF3414A1AD3E4F1B
100
AcDbSymbolTableRecord
100
AcDbBlockTableRecord
  2
H_GLOBAL
  0
BLOCK_RECORD
  5
DF3414A1AD3E4F1F
100
AcDbSymbolTableRecord
100
AcDbBlockTableRecord
  2
V4
  0
BLOCK_RECORD
  5
DF3414A1AD3E4F23
100
AcDbSymbolTableRecord
100
AcDbBlockTableRecord
  2
V8
  0
BLOCK_RECORD
  5
DF3414A1AD3E4F27
100
AcDbSymbolTableRecord
100
AcDbBlockTableRecord
  2
V16
  0
BLOCK_RECORD
  5
DF3414A1AD3E4F2B
100
AcDbSymbolTableRecord
100
AcDbBlockTableRecord
  2
V_GLOBAL
  0
BLOCK_RECORD
  5
DF3414A1AD3E4F2F
100
AcDbSymbolTableRecord
100
AcDbBlockTableRecord
  2
V_CHANNEL
  0
BLOCK_RECORD
  5
DF3414A1AD3E4F3C
100
AcDbSymbolTableRecord
100
AcDbBlockTableRecord
  2
H_CHANNEL
  0
BLOCK_RECORD
  5
DF3414A1AD3E4F43
100
AcDbSymbolTableRecord
100
AcDbBlockTableRecord
  2
GLOBAL_ROUTING
  0
BLOCK_RECORD
  5
DF3414A1AD4031ED
100
AcDbSymbolTableRecord
100
AcDbBlockTableRecord
  2
H24_V16_INTERCONNECT_DRIVER
  0
BLOCK_RECORD
  5
DF3414A1AD403284
100
AcDbSymbolTableRecord
100
AcDbBlockTableRecord
  2
GLOBAL_ROUTING_CLOCK_MUX
  0
BLOCK_RECORD
  5
DF3414A1AD4032CC
100
AcDbSymbolTableRecord
100
AcDbBlockTableRecord
  2
GLOBAL_ROUTING_CLOCK_BUFFER
  0
ENDTAB
  0
ENDSEC
  0
SECTION
  2
BLOCKS
  0
BLOCK
  5
19
100
AcDbEntity
  8
COMMENT
100
AcDbBlockBegin
  2
*MODEL_SPACE
 70
     0
 10
0.0
 20
0.0
 30
0.0
  3
*MODEL_SPACE
  1

  0
ENDBLK
  5
1A
100
AcDbEntity
  8
COMMENT
100
AcDbBlockEnd
  0
BLOCK
  5
16
100
AcDbEntity
 67
     1
  8
COMMENT
100
AcDbBlockBegin
  2
*PAPER_SPACE
 70
     0
 10
0.0
 20
0.0
 30
0.0
  3
*PAPER_SPACE
  1

  0
ENDBLK
  5
17
100
AcDbEntity
 67
     1
  8
COMMENT
100
AcDbBlockEnd
  0
BLOCK
  5
DF3414A1AD4031BE
100
AcDbEntity
  8
SIMPLE
  6
CONTINUOUS
100
AcDbBlockBegin
  2
H4
 70
     0
 10
0.0
 20
0.0
 30
0.0
  1

  0
LINE
  5
DF3414A1AD3E50FA
100
AcDbEntity
  8
SIMPLE
  6
CONTINUOUS
100
AcDbLine
 10
-1800.0
 20
-500.0
 30
0.0
 11
8000.0
 21
-500.0
 31
0.0
  0
POINT
  5
DF3414A1AD4031B5
100
AcDbEntity
  8
SIMPLE
  6
CONTINUOUS
100
AcDbPoint
 10
4000.0
 20
-500.0
 30
0.0
  0
ENDBLK
  5
DF3414A1AD4031BF
100
AcDbEntity
  8
SIMPLE
  6
CONTINUOUS
100
AcDbBlockEnd
  0
BLOCK
  5
DF3414A1AD4031C1
100
AcDbEntity
  8
SIMPLE
  6
CONTINUOUS
100
AcDbBlockBegin
  2
H8
 70
     0
 10
0.0
 20
0.0
 30
0.0
  1

  0
LINE
  5
DF3414A1AD3E52E4
100
AcDbEntity
  8
SIMPLE
  6
CONTINUOUS
100
AcDbLine
 10
-1800.0
 20
-1200.0
 30
0.0
 11
8000.0
 21
-1200.0
 31
0.0
  0
POINT
  5
DF3414A1AD4031B3
100
AcDbEntity
  8
SIMPLE
  6
CONTINUOUS
100
AcDbPoint
 10
4000.0
 20
-1200.0
 30
0.0
  0
ENDBLK
  5
DF3414A1AD4031C2
100
AcDbEntity
  8
SIMPLE
  6
CONTINUOUS
100
AcDbBlockEnd
  0
BLOCK
  5
DF3414A1AD4031C4
100
AcDbEntity
  8
SIMPLE
  6
CONTINUOUS
100
AcDbBlockBegin
  2
H24
 70
     0
 10
0.0
 20
0.0
 30
0.0
  1

  0
LINE
  5
DF3414A1AD3E56B4
100
AcDbEntity
  8
SIMPLE
  6
CONTINUOUS
100
AcDbLine
 10
-1800.0
 20
-1500.0
 30
0.0
 11
8000.0
 21
-1500.0
 31
0.0
  0
POINT
  5
DF3414A1AD4031B2
100
AcDbEntity
  8
SIMPLE
  6
CONTINUOUS
100
AcDbPoint
 10
4000.0
 20
-1500.0
 30
0.0
  0
ENDBLK
  5
DF3414A1AD4031C5
100
AcDbEntity
  8
SIMPLE
  6
CONTINUOUS
100
AcDbBlockEnd
  0
BLOCK
  5
DF3414A1AD4031C7
100
AcDbEntity
  8
SIMPLE
  6
CONTINUOUS
100
AcDbBlockBegin
  2
H_GLOBAL
 70
     0
 10
0.0
 20
0.0
 30
0.0
  1

  0
LINE
  5
DF3414A1AD3E5E50
100
AcDbEntity
  8
SIMPLE
  6
CONTINUOUS
100
AcDbLine
 10
-1800.0
 20
-1700.0
 30
0.0
 11
8000.0
 21
-1700.0
 31
0.0
  0
POINT
  5
DF3414A1AD4031B1
100
AcDbEntity
  8
SIMPLE
  6
CONTINUOUS
100
AcDbPoint
 10
4000.0
 20
-1700.0
 30
0.0
  0
ENDBLK
  5
DF3414A1AD4031C8
100
AcDbEntity
  8
SIMPLE
  6
CONTINUOUS
100
AcDbBlockEnd
  0
BLOCK
  5
DF3414A1AD4031CA
100
AcDbEntity
  8
SIMPLE
  6
CONTINUOUS
100
AcDbBlockBegin
  2
V4
 70
     0
 10
0.0
 20
0.0
 30
0.0
  1

  0
LINE
  5
DF3414A1AD3E8B74
100
AcDbEntity
  8
SIMPLE
  6
CONTINUOUS
100
AcDbLine
 10
7500.0
 20
0.0
 30
0.0
 11
7500.0
 21
-17800.0
 31
0.0
  0
POINT
  5
DF3414A1AD4031BD
100
AcDbEntity
  8
SIMPLE
  6
CONTINUOUS
100
AcDbPoint
 10
7500.0
 20
-8000.0
 30
0.0
  0
ENDBLK
  5
DF3414A1AD4031CB
100
AcDbEntity
  8
SIMPLE
  6
CONTINUOUS
100
AcDbBlockEnd
  0
BLOCK
  5
DF3414A1AD4031CD
100
AcDbEntity
  8
SIMPLE
  6
CONTINUOUS
100
AcDbBlockBegin
  2
V8
 70
     0
 10
0.0
 20
0.0
 30
0.0
  1

  0
LINE
  5
DF3414A1AD3EC7C8
100
AcDbEntity
  8
SIMPLE
  6
CONTINUOUS
100
AcDbLine
 10
6800.0
 20
0.0
 30
0.0
 11
6800.0
 21
-17800.0
 31
0.0
  0
POINT
  5
DF3414A1AD4031BB
100
AcDbEntity
  8
SIMPLE
  6
CONTINUOUS
100
AcDbPoint
 10
6800.0
 20
-8000.0
 30
0.0
  0
ENDBLK
  5
DF3414A1AD4031CE
100
AcDbEntity
  8
SIMPLE
  6
CONTINUOUS
100
AcDbBlockEnd
  0
BLOCK
  5
DF3414A1AD4031D0
100
AcDbEntity
  8
SIMPLE
  6
CONTINUOUS
100
AcDbBlockBegin
  2
V16
 70
     0
 10
0.0
 20
0.0
 30
0.0
  1

  0
LINE
  5
DF3414A1AD3F406C
100
AcDbEntity
  8
SIMPLE
  6
CONTINUOUS
100
AcDbLine
 10
6500.0
 20
0.0
 30
0.0
 11
6500.0
 21
-17800.0
 31
0.0
  0
POINT
  5
DF3414A1AD4031BA
100
AcDbEntity
  8
SIMPLE
  6
CONTINUOUS
100
AcDbPoint
 10
6500.0
 20
-8000.0
 30
0.0
  0
ENDBLK
  5
DF3414A1AD4031D1
100
AcDbEntity
  8
SIMPLE
  6
CONTINUOUS
100
AcDbBlockEnd
  0
BLOCK
  5
DF3414A1AD4031D3
100
AcDbEntity
  8
SIMPLE
  6
CONTINUOUS
100
AcDbBlockBegin
  2
V_GLOBAL
 70
     0
 10
0.0
 20
0.0
 30
0.0
  1

  0
LINE
  5
DF3414A1AD4031B0
100
AcDbEntity
  8
SIMPLE
  6
CONTINUOUS
100
AcDbLine
 10
6300.0
 20
0.0
 30
0.0
 11
6300.0
 21
-17800.0
 31
0.0
  0
POINT
  5
DF3414A1AD4031B9
100
AcDbEntity
  8
SIMPLE
  6
CONTINUOUS
100
AcDbPoint
 10
6300.0
 20
-8000.0
 30
0.0
  0
ENDBLK
  5
DF3414A1AD4031D4
100
AcDbEntity
  8
SIMPLE
  6
CONTINUOUS
100
AcDbBlockEnd
  0
BLOCK
  5
DF3414A1AD4031D9
100
AcDbEntity
  8
SIMPLE
  6
CONTINUOUS
100
AcDbBlockBegin
  2
V_CHANNEL
 70
     0
 10
0.0
 20
0.0
 30
0.0
  1

  0
POINT
  5
DF3414A1AD4031BC
100
AcDbEntity
  8
SIMPLE
  6
CONTINUOUS
100
AcDbPoint
 10
7100.0
 20
-8000.0
 30
0.0
  0
LINE
  5
DF3414A1AD3E6D44
100
AcDbEntity
  8
SIMPLE
  6
CONTINUOUS
100
AcDbLine
 10
7100.0
 20
0.0
 30
0.0
 11
7100.0
 21
-17800.0
 31
0.0
  0
INSERT
  5
DF3414A1AD4031CC
100
AcDbEntity
  8
SIMPLE
  6
CONTINUOUS
100
AcDbBlockReference
  2
V4
 10
0.0
 20
0.0
 30
0.0
  0
INSERT
  5
DF3414A1AD4031CF
100
AcDbEntity
  8
SIMPLE
  6
CONTINUOUS
100
AcDbBlockReference
  2
V8
 10
0.0
 20
0.0
 30
0.0
  0
INSERT
  5
DF3414A1AD4031D2
100
AcDbEntity
  8
SIMPLE
  6
CONTINUOUS
100
AcDbBlockReference
  2
V16
 10
0.0
 20
0.0
 30
0.0
  0
INSERT
  5
DF3414A1AD4031D5
100
AcDbEntity
  8
SIMPLE
  6
CONTINUOUS
100
AcDbBlockReference
  2
V_GLOBAL
 10
0.0
 20
0.0
 30
0.0
  0
ENDBLK
  5
DF3414A1AD4031DA
100
AcDbEntity
  8
SIMPLE
  6
CONTINUOUS
100
AcDbBlockEnd
  0
BLOCK
  5
DF3414A1AD4031D6
100
AcDbEntity
  8
SIMPLE
  6
CONTINUOUS
100
AcDbBlockBegin
  2
H_CHANNEL
 70
     0
 10
0.0
 20
0.0
 30
0.0
  1

  0
LINE
  5
DF3414A1AD3E4FFF
100
AcDbEntity
  8
SIMPLE
  6
CONTINUOUS
100
AcDbLine
 10
-1800.0
 20
-900.0
 30
0.0
 11
8000.0
 21
-900.0
 31
0.0
  0
INSERT
  5
DF3414A1AD4031C0
100
AcDbEntity
  8
SIMPLE
  6
CONTINUOUS
100
AcDbBlockReference
  2
H4
 10
0.0
 20
0.0
 30
0.0
  0
INSERT
  5
DF3414A1AD4031C3
100
AcDbEntity
  8
SIMPLE
  6
CONTINUOUS
100
AcDbBlockReference
  2
H8
 10
0.0
 20
0.0
 30
0.0
  0
INSERT
  5
DF3414A1AD4031C6
100
AcDbEntity
  8
SIMPLE
  6
CONTINUOUS
100
AcDbBlockReference
  2
H24
 10
0.0
 20
0.0
 30
0.0
  0
INSERT
  5
DF3414A1AD4031C9
100
AcDbEntity
  8
SIMPLE
  6
CONTINUOUS
100
AcDbBlockReference
  2
H_GLOBAL
 10
0.0
 20
0.0
 30
0.0
  0
POINT
  5
DF3414A1AD4031B4
100
AcDbEntity
  8
SIMPLE
  6
CONTINUOUS
100
AcDbPoint
 10
4000.0
 20
-900.0
 30
0.0
  0
ENDBLK
  5
DF3414A1AD4031D7
100
AcDbEntity
  8
SIMPLE
  6
CONTINUOUS
100
AcDbBlockEnd
  0
BLOCK
  5
DF3414A1AD4037C0
100
AcDbEntity
  8
SIMPLE
  6
CONTINUOUS
100
AcDbBlockBegin
  2
GLOBAL_ROUTING
 70
     0
 10
0.0
 20
0.0
 30
0.0
  1

  0
TEXT
  5
DF3414A1AD403632
100
AcDbEntity
  8
COMMENT
  6
CONTINUOUS
100
AcDbText
 10
-2500.0
 20
-500.0
 30
0.0
 40
100.0
  1
Len 4
  7
SIMPLEX
100
AcDbText
  0
TEXT
  5
DF3414A1AD403633
100
AcDbEntity
  8
COMMENT
  6
CONTINUOUS
100
AcDbText
 10
-2500.0
 20
-1300.0
 30
0.0
 40
100.0
  1
Len 8
  7
SIMPLEX
100
AcDbText
  0
TEXT
  5
DF3414A1AD40364D
100
AcDbEntity
  8
COMMENT
  6
CONTINUOUS
100
AcDbText
 10
-2500.0
 20
-1500.0
 30
0.0
 40
100.0
  1
Len 16
  7
SIMPLEX
100
AcDbText
  0
TEXT
  5
DF3414A1AD40364E
100
AcDbEntity
  8
COMMENT
  6
CONTINUOUS
100
AcDbText
 10
-2500.0
 20
-1700.0
 30
0.0
 40
100.0
  1
Globals
  7
SIMPLEX
100
AcDbText
  0
LINE
  5
DF3414A1AD403740
100
AcDbEntity
  8
COMMENT
  6
CONTINUOUS
100
AcDbLine
 10
-130.0
 20
0.0
 30
0.0
 11
1150.0
 21
0.0
 31
0.0
  0
POLYLINE
  5
DF3414A1AD403741
100
AcDbEntity
  8
COMMENT
  6
CONTINUOUS
100
AcDb2dPolyline
 66
     1
 10
0.0
 20
0.0
 30
0.0
 70
     1
  0
VERTEX
  5
DF3414A1AD403742
100
AcDbEntity
  8
COMMENT
  6
CONTINUOUS
100
AcDbVertex
100
AcDb2dVertex
 10
0.0
 20
0.0
 30
0.0
  0
VERTEX
  5
DF3414A1AD403743
100
AcDbEntity
  8
COMMENT
  6
CONTINUOUS
100
AcDbVertex
100
AcDb2dVertex
 10
8000.0
 20
0.0
 30
0.0
  0
VERTEX
  5
DF3414A1AD403744
100
AcDbEntity
  8
COMMENT
  6
CONTINUOUS
100
AcDbVertex
100
AcDb2dVertex
 10
8000.0
 20
-16000.0
 30
0.0
  0
VERTEX
  5
DF3414A1AD403745
100
AcDbEntity
  8
COMMENT
  6
CONTINUOUS
100
AcDbVertex
100
AcDb2dVertex
 10
0.0
 20
-16000.0
 30
0.0
  0
SEQEND
  5
DF3414A1AD403746
100
AcDbEntity
  8
COMMENT
  6
CONTINUOUS
  0
POLYLINE
  5
DF3414A1AD403747
100
AcDbEntity
  8
COMMENT
  6
CONTINUOUS
100
AcDb2dPolyline
 66
     1
 10
0.0
 20
0.0
 30
0.0
 70
     1
  0
VERTEX
  5
DF3414A1AD403748
100
AcDbEntity
  8
COMMENT
  6
CONTINUOUS
100
AcDbVertex
100
AcDb2dVertex
 10
0.0
 20
0.0
 30
0.0
  0
VERTEX
  5
DF3414A1AD403749
100
AcDbEntity
  8
COMMENT
  6
CONTINUOUS
100
AcDbVertex
100
AcDb2dVertex
 10
8000.0
 20
0.0
 30
0.0
  0
VERTEX
  5
DF3414A1AD40374A
100
AcDbEntity
  8
COMMENT
  6
CONTINUOUS
100
AcDbVertex
100
AcDb2dVertex
 10
8000.0
 20
-1800.0
 30
0.0
  0
VERTEX
  5
DF3414A1AD40374B
100
AcDbEntity
  8
COMMENT
  6
CONTINUOUS
100
AcDbVertex
100
AcDb2dVertex
 10
0.0
 20
-1800.0
 30
0.0
  0
SEQEND
  5
DF3414A1AD40374C
100
AcDbEntity
  8
COMMENT
  6
CONTINUOUS
  0
POLYLINE
  5
DF3414A1AD40374D
100
AcDbEntity
  8
COMMENT
  6
CONTINUOUS
100
AcDb2dPolyline
 66
     1
 10
0.0
 20
0.0
 30
0.0
 70
     1
  0
VERTEX
  5
DF3414A1AD40374E
100
AcDbEntity
  8
COMMENT
  6
CONTINUOUS
100
AcDbVertex
100
AcDb2dVertex
 10
6200.0
 20
0.0
 30
0.0
  0
VERTEX
  5
DF3414A1AD40374F
100
AcDbEntity
  8
COMMENT
  6
CONTINUOUS
100
AcDbVertex
100
AcDb2dVertex
 10
8000.0
 20
0.0
 30
0.0
  0
VERTEX
  5
DF3414A1AD403750
100
AcDbEntity
  8
COMMENT
  6
CONTINUOUS
100
AcDbVertex
100
AcDb2dVertex
 10
8000.0
 20
-16000.0
 30
0.0
  0
VERTEX
  5
DF3414A1AD403751
100
AcDbEntity
  8
COMMENT
  6
CONTINUOUS
100
AcDbVertex
100
AcDb2dVertex
 10
6200.0
 20
-16000.0
 30
0.0
  0
SEQEND
  5
DF3414A1AD403752
100
AcDbEntity
  8
COMMENT
  6
CONTINUOUS
  0
POLYLINE
  5
DF3414A1AD403753
100
AcDbEntity
  8
COMMENT
  6
CONTINUOUS
100
AcDb2dPolyline
 66
     1
 10
0.0
 20
0.0
 30
0.0
 70
     1
  0
VERTEX
  5
DF3414A1AD403754
100
AcDbEntity
  8
COMMENT
  6
CONTINUOUS
100
AcDbVertex
100
AcDb2dVertex
 10
-1800.0
 20
0.0
 30
0.0
  0
VERTEX
  5
DF3414A1AD403755
100
AcDbEntity
  8
COMMENT
  6
CONTINUOUS
100
AcDbVertex
100
AcDb2dVertex
 10
0.0
 20
0.0
 30
0.0
  0
VERTEX
  5
DF3414A1AD403756
100
AcDbEntity
  8
COMMENT
  6
CONTINUOUS
100
AcDbVertex
100
AcDb2dVertex
 10
0.0
 20
-16000.0
 30
0.0
  0
VERTEX
  5
DF3414A1AD403757
100
AcDbEntity
  8
COMMENT
  6
CONTINUOUS
100
AcDbVertex
100
AcDb2dVertex
 10
-1800.0
 20
-16000.0
 30
0.0
  0
SEQEND
  5
DF3414A1AD403758
100
AcDbEntity
  8
COMMENT
  6
CONTINUOUS
  0
TEXT
  5
DF3414A1AD403759
100
AcDbEntity
  8
COMMENT
  6
CONTINUOUS
100
AcDbText
 10
7400.0
 20
100.0
 30
0.0
 40
100.0
  1
Len 4
  7
SIMPLEX
100
AcDbText
  0
TEXT
  5
DF3414A1AD40375A
100
AcDbEntity
  8
COMMENT
  6
CONTINUOUS
100
AcDbText
 10
6600.0
 20
100.0
 30
0.0
 40
100.0
  1
Len 8
  7
SIMPLEX
100
AcDbText
  0
TEXT
  5
DF3414A1AD40375B
100
AcDbEntity
  8
COMMENT
  6
CONTINUOUS
100
AcDbText
 10
5800.0
 20
100.0
 30
0.0
 40
100.0
  1
Globals
  7
SIMPLEX
100
AcDbText
  0
TEXT
  5
DF3414A1AD40375C
100
AcDbEntity
  8
COMMENT
  6
CONTINUOUS
100
AcDbText
 10
6300.0
 20
300.0
 30
0.0
 40
100.0
  1
Len 16
  7
SIMPLEX
100
AcDbText
  0
INSERT
  5
DF3414A1AD40375D
100
AcDbEntity
  8
SIMPLE
  6
CONTINUOUS
100
AcDbBlockReference
  2
H_CHANNEL
 10
0.0
 20
0.0
 30
0.0
  0
INSERT
  5
DF3414A1AD40375E
100
AcDbEntity
  8
SIMPLE
  6
CONTINUOUS
100
AcDbBlockReference
  2
V_CHANNEL
 10
0.0
 20
0.0
 30
0.0
  0
INSERT
  5
DF3414A1AD40375F
100
AcDbEntity
  8
SIMPLE
  6
CONTINUOUS
100
AcDbBlockReference
  2
H24_V16_INTERCONNECT_DRIVER
 10
0.0
 20
0.0
 30
0.0
  0
INSERT
  5
DF3414A1AD403760
100
AcDbEntity
  8
SIMPLE
  6
CONTINUOUS
 62
    12
100
AcDbBlockReference
  2
GLOBAL_ROUTING_CLOCK_MUX
 10
0.0
 20
0.0
 30
0.0
  0
INSERT
  5
DF3414A1AD4037BF
100
AcDbEntity
  8
SIMPLE
  6
CONTINUOUS
 62
    12
100
AcDbBlockReference
  2
GLOBAL_ROUTING_CLOCK_BUFFER
 10
0.0
 20
0.0
 30
0.0
  0
ENDBLK
  5
DF3414A1AD4037C1
100
AcDbEntity
  8
SIMPLE
  6
CONTINUOUS
100
AcDbBlockEnd
  0
BLOCK
  5
DF3414A1AD403255
100
AcDbEntity
  8
SIMPLE
  6
CONTINUOUS
100
AcDbBlockBegin
  2
H24_V16_INTERCONNECT_DRIVER
 70
     0
 10
0.0
 20
0.0
 30
0.0
  1

  0
LINE
  5
DF3414A1AD403251
100
AcDbEntity
  8
SIMPLE
  6
CONTINUOUS
100
AcDbLine
 10
6800.0
 20
-1100.0
 30
0.0
 11
6800.0
 21
-450.0
 31
0.0
  0
LINE
  5
DF3414A1AD403253
100
AcDbEntity
  8
SIMPLE
  6
CONTINUOUS
100
AcDbLine
 10
6900.0
 20
-1200.0
 30
0.0
 11
7550.0
 21
-1200.0
 31
0.0
  0
LINE
  5
DF3414A1AD40324D
100
AcDbEntity
  8
SIMPLE
  6
CONTINUOUS
100
AcDbLine
 10
6700.0
 20
-1200.0
 30
0.0
 11
6450.0
 21
-1200.0
 31
0.0
  0
POLYLINE
  5
DF3414A1AD403246
100
AcDbEntity
  8
SIMPLE
  6
CONTINUOUS
100
AcDb2dPolyline
 66
     1
 10
0.0
 20
0.0
 30
0.0
 70
     1
  0
VERTEX
  5
DF3414A1AD403247
100
AcDbEntity
  8
SIMPLE
  6
CONTINUOUS
100
AcDbVertex
100
AcDb2dVertex
 10
6700.0
 20
-1100.0
 30
0.0
  0
VERTEX
  5
DF3414A1AD403248
100
AcDbEntity
  8
SIMPLE
  6
CONTINUOUS
100
AcDbVertex
100
AcDb2dVertex
 10
6900.0
 20
-1100.0
 30
0.0
  0
VERTEX
  5
DF3414A1AD403249
100
AcDbEntity
  8
SIMPLE
  6
CONTINUOUS
100
AcDbVertex
100
AcDb2dVertex
 10
6900.0
 20
-1300.0
 30
0.0
  0
VERTEX
  5
DF3414A1AD40324A
100
AcDbEntity
  8
SIMPLE
  6
CONTINUOUS
100
AcDbVertex
100
AcDb2dVertex
 10
6700.0
 20
-1300.0
 30
0.0
  0
SEQEND
  5
DF3414A1AD40324B
100
AcDbEntity
  8
SIMPLE
  6
CONTINUOUS
  0
POINT
  5
DF3414A1AD40324E
100
AcDbEntity
  8
SIMPLE
  6
CONTINUOUS
100
AcDbPoint
 10
6800.0
 20
-1200.0
 30
0.0
  0
LINE
  5
DF3414A1AD40324C
100
AcDbEntity
  8
SIMPLE
  6
CONTINUOUS
100
AcDbLine
 10
6800.0
 20
-1300.0
 30
0.0
 11
6800.0
 21
-1550.0
 31
0.0
  0
ENDBLK
  5
DF3414A1AD403256
100
AcDbEntity
  8
SIMPLE
  6
CONTINUOUS
100
AcDbBlockEnd
  0
BLOCK
  5
DF3414A1AD4035F7
100
AcDbEntity
  8
SIMPLE
  6
CONTINUOUS
 62
    12
100
AcDbBlockBegin
  2
GLOBAL_ROUTING_CLOCK_MUX
 70
     0
 10
0.0
 20
0.0
 30
0.0
  1

  0
LINE
  5
DF3414A1AD4035EF
100
AcDbEntity
  8
SIMPLE
  6
CONTINUOUS
 62
    12
100
AcDbLine
 10
2200.0
 20
-2600.0
 30
0.0
 11
2200.0
 21
-2300.0
 31
0.0
  0
LINE
  5
DF3414A1AD4035F0
100
AcDbEntity
  8
SIMPLE
  6
CONTINUOUS
 62
    12
100
AcDbLine
 10
2350.0
 20
-2300.0
 30
0.0
 11
2200.0
 21
-2300.0
 31
0.0
  0
POINT
  5
DF3414A1AD4035F1
100
AcDbEntity
  8
SIMPLE
  6
CONTINUOUS
 62
    12
100
AcDbPoint
 10
2500.0
 20
-2300.0
 30
0.0
  0
LINE
  5
DF3414A1AD4035F2
100
AcDbEntity
  8
SIMPLE
  6
CONTINUOUS
 62
    12
100
AcDbLine
 10
800.0
 20
-2600.0
 30
0.0
 11
2200.0
 21
-2600.0
 31
0.0
  0
POLYLINE
  5
DF3414A1AD4035F3
100
AcDbEntity
  8
SIMPLE
  6
CONTINUOUS
 62
    12
100
AcDb2dPolyline
 66
     1
 10
0.0
 20
0.0
 30
0.0
 70
     1
  0
VERTEX
  5
DF3414A1AD4035FD
100
AcDbEntity
  8
SIMPLE
  6
CONTINUOUS
 62
    12
100
AcDbVertex
100
AcDb2dVertex
 10
2350.0
 20
-2000.0
 30
0.0
  0
VERTEX
  5
DF3414A1AD4035FE
100
AcDbEntity
  8
SIMPLE
  6
CONTINUOUS
 62
    12
100
AcDbVertex
100
AcDb2dVertex
 10
2650.0
 20
-2150.0
 30
0.0
  0
VERTEX
  5
DF3414A1AD4035FF
100
AcDbEntity
  8
SIMPLE
  6
CONTINUOUS
 62
    12
100
AcDbVertex
100
AcDb2dVertex
 10
2650.0
 20
-2450.0
 30
0.0
  0
VERTEX
  5
DF3414A1AD403600
100
AcDbEntity
  8
SIMPLE
  6
CONTINUOUS
 62
    12
100
AcDbVertex
100
AcDb2dVertex
 10
2350.0
 20
-2600.0
 30
0.0
  0
VERTEX
  5
DF3414A1AD403601
100
AcDbEntity
  8
SIMPLE
  6
CONTINUOUS
 62
    12
100
AcDbVertex
100
AcDb2dVertex
 10
2350.0
 20
-2000.0
 30
0.0
  0
SEQEND
  5
DF3414A1AD403602
100
AcDbEntity
  8
SIMPLE
  6
CONTINUOUS
 62
    12
  0
POLYLINE
  5
DF3414A1AD4035F4
100
AcDbEntity
  8
SIMPLE
  6
CONTINUOUS
 62
    12
100
AcDb2dPolyline
 66
     1
 10
0.0
 20
0.0
 30
0.0
 70
     1
  0
VERTEX
  5
DF3414A1AD403603
100
AcDbEntity
  8
SIMPLE
  6
CONTINUOUS
 62
    12
100
AcDbVertex
100
AcDb2dVertex
 10
2800.0
 20
-2250.0
 30
0.0
  0
VERTEX
  5
DF3414A1AD403604
100
AcDbEntity
  8
SIMPLE
  6
CONTINUOUS
 62
    12
100
AcDbVertex
100
AcDb2dVertex
 10
2800.0
 20
-2050.0
 30
0.0
  0
VERTEX
  5
DF3414A1AD403605
100
AcDbEntity
  8
SIMPLE
  6
CONTINUOUS
 62
    12
100
AcDbVertex
100
AcDb2dVertex
 10
2850.0
 20
-2000.0
 30
0.0
  0
VERTEX
  5
DF3414A1AD403606
100
AcDbEntity
  8
SIMPLE
  6
CONTINUOUS
 62
    12
100
AcDbVertex
100
AcDb2dVertex
 10
2900.0
 20
-2050.0
 30
0.0
  0
VERTEX
  5
DF3414A1AD403607
100
AcDbEntity
  8
SIMPLE
  6
CONTINUOUS
 62
    12
100
AcDbVertex
100
AcDb2dVertex
 10
2900.0
 20
-2250.0
 30
0.0
  0
VERTEX
  5
DF3414A1AD403608
100
AcDbEntity
  8
SIMPLE
  6
CONTINUOUS
 62
    12
100
AcDbVertex
100
AcDb2dVertex
 10
2800.0
 20
-2250.0
 30
0.0
  0
SEQEND
  5
DF3414A1AD403609
100
AcDbEntity
  8
SIMPLE
  6
CONTINUOUS
 62
    12
  0
LINE
  5
DF3414A1AD4035F5
100
AcDbEntity
  8
SIMPLE
  6
CONTINUOUS
 62
    12
100
AcDbLine
 10
2850.0
 20
-2250.0
 30
0.0
 11
2850.0
 21
-2300.0
 31
0.0
  0
LINE
  5
DF3414A1AD4035F6
100
AcDbEntity
  8
SIMPLE
  6
CONTINUOUS
 62
    12
100
AcDbLine
 10
2850.0
 20
-2300.0
 30
0.0
 11
2650.0
 21
-2300.0
 31
0.0
  0
ENDBLK
  5
DF3414A1AD4035F8
100
AcDbEntity
  8
SIMPLE
  6
CONTINUOUS
 62
    12
100
AcDbBlockEnd
  0
BLOCK
  5
DF3414A1AD4037BD
100
AcDbEntity
  8
SIMPLE
  6
CONTINUOUS
 62
    12
100
AcDbBlockBegin
  2
GLOBAL_ROUTING_CLOCK_BUFFER
 70
     0
 10
0.0
 20
0.0
 30
0.0
  1

  0
POLYLINE
  5
DF3414A1AD4037AA
100
AcDbEntity
  8
SIMPLE
  6
CONTINUOUS
 62
    12
100
AcDb2dPolyline
 66
     1
 10
0.0
 20
0.0
 30
0.0
 70
     1
  0
VERTEX
  5
DF3414A1AD4037AB
100
AcDbEntity
  8
SIMPLE
  6
CONTINUOUS
 62
    12
100
AcDbVertex
100
AcDb2dVertex
 10
4050.0
 20
-2450.0
 30
0.0
  0
VERTEX
  5
DF3414A1AD4037AC
100
AcDbEntity
  8
SIMPLE
  6
CONTINUOUS
 62
    12
100
AcDbVertex
100
AcDb2dVertex
 10
4050.0
 20
-2750.0
 30
0.0
  0
VERTEX
  5
DF3414A1AD4037AD
100
AcDbEntity
  8
SIMPLE
  6
CONTINUOUS
 62
    12
100
AcDbVertex
100
AcDb2dVertex
 10
3750.0
 20
-2600.0
 30
0.0
  0
VERTEX
  5
DF3414A1AD4037AE
100
AcDbEntity
  8
SIMPLE
  6
CONTINUOUS
 62
    12
100
AcDbVertex
100
AcDb2dVertex
 10
4050.0
 20
-2450.0
 30
0.0
  0
SEQEND
  5
DF3414A1AD4037AF
100
AcDbEntity
  8
SIMPLE
  6
CONTINUOUS
 62
    12
  0
POINT
  5
DF3414A1AD4037B0
100
AcDbEntity
  8
SIMPLE
  6
CONTINUOUS
 62
    12
100
AcDbPoint
 10
3950.0
 20
-2600.0
 30
0.0
  0
LINE
  5
DF3414A1AD4037B1
100
AcDbEntity
  8
SIMPLE
  6
CONTINUOUS
 62
    12
100
AcDbLine
 10
5150.0
 20
-2600.0
 30
0.0
 11
4050.0
 21
-2600.0
 31
0.0
  0
POLYLINE
  5
DF3414A1AD4037B2
100
AcDbEntity
  8
SIMPLE
  6
CONTINUOUS
 62
    12
100
AcDb2dPolyline
 66
     1
 10
0.0
 20
0.0
 30
0.0
 70
     1
  0
VERTEX
  5
DF3414A1AD4037B3
100
AcDbEntity
  8
SIMPLE
  6
CONTINUOUS
 62
    12
100
AcDbVertex
100
AcDb2dVertex
 10
3600.0
 20
-2550.0
 30
0.0
  0
VERTEX
  5
DF3414A1AD4037B4
100
AcDbEntity
  8
SIMPLE
  6
CONTINUOUS
 62
    12
100
AcDbVertex
100
AcDb2dVertex
 10
3600.0
 20
-2350.0
 30
0.0
  0
VERTEX
  5
DF3414A1AD4037B5
100
AcDbEntity
  8
SIMPLE
  6
CONTINUOUS
 62
    12
100
AcDbVertex
100
AcDb2dVertex
 10
3550.0
 20
-2300.0
 30
0.0
  0
VERTEX
  5
DF3414A1AD4037B6
100
AcDbEntity
  8
SIMPLE
  6
CONTINUOUS
 62
    12
100
AcDbVertex
100
AcDb2dVertex
 10
3500.0
 20
-2350.0
 30
0.0
  0
VERTEX
  5
DF3414A1AD4037B7
100
AcDbEntity
  8
SIMPLE
  6
CONTINUOUS
 62
    12
100
AcDbVertex
100
AcDb2dVertex
 10
3500.0
 20
-2550.0
 30
0.0
  0
VERTEX
  5
DF3414A1AD4037B8
100
AcDbEntity
  8
SIMPLE
  6
CONTINUOUS
 62
    12
100
AcDbVertex
100
AcDb2dVertex
 10
3600.0
 20
-2550.0
 30
0.0
  0
SEQEND
  5
DF3414A1AD4037B9
100
AcDbEntity
  8
SIMPLE
  6
CONTINUOUS
 62
    12
  0
LINE
  5
DF3414A1AD4037BA
100
AcDbEntity
  8
SIMPLE
  6
CONTINUOUS
 62
    12
100
AcDbLine
 10
3550.0
 20
-2550.0
 30
0.0
 11
3550.0
 21
-2600.0
 31
0.0
  0
LINE
  5
DF3414A1AD4037BB
100
AcDbEntity
  8
SIMPLE
  6
CONTINUOUS
 62
    12
100
AcDbLine
 10
3550.0
 20
-2600.0
 30
0.0
 11
3750.0
 21
-2600.0
 31
0.0
  0
LINE
  5
DF3414A1AD4037BC
100
AcDbEntity
  8
SIMPLE
  6
CONTINUOUS
 62
    12
100
AcDbLine
 10
5150.0
 20
-2600.0
 30
0.0
 11
5150.0
 21
-14100.0
 31
0.0
  0
ENDBLK
  5
DF3414A1AD4037BE
100
AcDbEntity
  8
SIMPLE
  6
CONTINUOUS
 62
    12
100
AcDbBlockEnd
  0
ENDSEC
  0
SECTION
  2
ENTITIES
  0
POLYLINE
  5
DF3414A1AD3E4EF2
100
AcDbEntity
  8
COMMENT
  6
CONTINUOUS
100
AcDb2dPolyline
 66
     1
 10
0.0
 20
0.0
 30
0.0
 70
     1
  0
VERTEX
  5
DF3414A1AD3E4F79
100
AcDbEntity
  8
COMMENT
  6
CONTINUOUS
100
AcDbVertex
100
AcDb2dVertex
 10
0.0
 20
-16000.0
 30
0.0
  0
VERTEX
  5
DF3414A1AD3E4F7A
100
AcDbEntity
  8
COMMENT
  6
CONTINUOUS
100
AcDbVertex
100
AcDb2dVertex
 10
8000.0
 20
-16000.0
 30
0.0
  0
VERTEX
  5
DF3414A1AD3E4F7B
100
AcDbEntity
  8
COMMENT
  6
CONTINUOUS
100
AcDbVertex
100
AcDb2dVertex
 10
8000.0
 20
-17800.0
 30
0.0
  0
VERTEX
  5
DF3414A1AD3E4F7C
100
AcDbEntity
  8
COMMENT
  6
CONTINUOUS
100
AcDbVertex
100
AcDb2dVertex
 10
0.0
 20
-17800.0
 30
0.0
  0
SEQEND
  5
DF3414A1AD3E4F7D
100
AcDbEntity
  8
COMMENT
  6
CONTINUOUS
  0
INSERT
  5
DF3414A1AD4037C2
100
AcDbEntity
  8
SIMPLE
  6
CONTINUOUS
100
AcDbBlockReference
  2
GLOBAL_ROUTING
 10
0.0
 20
0.0
 30
0.0
  0
ENDSEC
  0
SECTION
  2
OBJECTS
  0
DICTIONARY
  5
C
100
AcDbDictionary
  3
ACAD_GROUP
350
D
  3
ACAD_MLINESTYLE
350
1B
  0
DICTIONARY
  5
D
102
{ACAD_REACTORS
330
C
102
}
100
AcDbDictionary
  0
DICTIONARY
  5
1B
102
{ACAD_REACTORS
330
C
102
}
100
AcDbDictionary
  3
STANDARD
350
1C
  0
MLINESTYLE
  5
1C
102
{ACAD_REACTORS
330
1B
102
}
100
AcDbMlineStyle
  2
STANDARD
 70
     0
  3

 62
   256
 51
90.0
 52
90.0
 71
     2
 49
0.5
 62
   256
  6
BYLAYER
 49
-0.5
 62
   256
  6
BYLAYER
  0
ENDSEC
  0
EOF
