  0
SECTION
  2
HEADER
  9
$ACADVER
  1
AC1014
  9
$ACADMAINTVER
 70
     0
  9
$DWGCODEPAGE
  3
ANSI_1252
  9
$INSBASE
 10
0.0
 20
0.0
 30
0.0
  9
$EXTMIN
 10
-14.0
 20
-711.240686
 30
0.0
  9
$EXTMAX
 10
1484.25899
 20
173.5
 30
2.0
  9
$LIMMIN
 10
0.0
 20
0.0
  9
$LIMMAX
 10
12.0
 20
9.0
  9
$ORTHOMODE
 70
     0
  9
$REGENMODE
 70
     1
  9
$FILLMODE
 70
     1
  9
$QTEXTMODE
 70
     0
  9
$MIRRTEXT
 70
     1
  9
$DRAGMODE
 70
     2
  9
$LTSCALE
 40
1.0
  9
$OSMODE
 70
     0
  9
$ATTMODE
 70
     1
  9
$TEXTSIZE
 40
0.2
  9
$TRACEWID
 40
0.05
  9
$TEXTSTYLE
  7
SIMPLEX
  9
$CLAYER
  8
DETAIL_MEDIUM
  9
$CELTYPE
  6
CONTINUOUS
  9
$CECOLOR
 62
   256
  9
$CELTSCALE
 40
1.0
  9
$DELOBJ
 70
     1
  9
$DISPSILH
 70
     0
  9
$DIMSCALE
 40
1.0
  9
$DIMASZ
 40
0.18
  9
$DIMEXO
 40
0.0625
  9
$DIMDLI
 40
0.38
  9
$DIMRND
 40
0.0
  9
$DIMDLE
 40
0.0
  9
$DIMEXE
 40
0.18
  9
$DIMTP
 40
0.0
  9
$DIMTM
 40
0.0
  9
$DIMTXT
 40
0.18
  9
$DIMCEN
 40
0.09
  9
$DIMTSZ
 40
0.0
  9
$DIMTOL
 70
     0
  9
$DIMLIM
 70
     0
  9
$DIMTIH
 70
     1
  9
$DIMTOH
 70
     1
  9
$DIMSE1
 70
     0
  9
$DIMSE2
 70
     0
  9
$DIMTAD
 70
     0
  9
$DIMZIN
 70
     0
  9
$DIMBLK
  1

  9
$DIMASO
 70
     1
  9
$DIMSHO
 70
     1
  9
$DIMPOST
  1

  9
$DIMAPOST
  1

  9
$DIMALT
 70
     0
  9
$DIMALTD
 70
     2
  9
$DIMALTF
 40
25.4
  9
$DIMLFAC
 40
1.0
  9
$DIMTOFL
 70
     0
  9
$DIMTVP
 40
0.0
  9
$DIMTIX
 70
     0
  9
$DIMSOXD
 70
     0
  9
$DIMSAH
 70
     0
  9
$DIMBLK1
  1

  9
$DIMBLK2
  1

  9
$DIMSTYLE
  2
STANDARD
  9
$DIMCLRD
 70
     0
  9
$DIMCLRE
 70
     0
  9
$DIMCLRT
 70
     0
  9
$DIMTFAC
 40
1.0
  9
$DIMGAP
 40
0.09
  9
$DIMJUST
 70
     0
  9
$DIMSD1
 70
     0
  9
$DIMSD2
 70
     0
  9
$DIMTOLJ
 70
     1
  9
$DIMTZIN
 70
     0
  9
$DIMALTZ
 70
     0
  9
$DIMALTTZ
 70
     0
  9
$DIMFIT
 70
     3
  9
$DIMUPT
 70
     0
  9
$DIMUNIT
 70
     2
  9
$DIMDEC
 70
     4
  9
$DIMTDEC
 70
     4
  9
$DIMALTU
 70
     2
  9
$DIMALTTD
 70
     2
  9
$DIMTXSTY
  7
STANDARD
  9
$DIMAUNIT
 70
     0
  9
$LUNITS
 70
     2
  9
$LUPREC
 70
     4
  9
$SKETCHINC
 40
0.1
  9
$FILLETRAD
 40
0.5
  9
$AUNITS
 70
     0
  9
$AUPREC
 70
     0
  9
$MENU
  1
.
  9
$ELEVATION
 40
0.0
  9
$PELEVATION
 40
0.0
  9
$THICKNESS
 40
0.0
  9
$LIMCHECK
 70
     0
  9
$BLIPMODE
 70
     0
  9
$CHAMFERA
 40
0.5
  9
$CHAMFERB
 40
0.5
  9
$CHAMFERC
 40
1.0
  9
$CHAMFERD
 40
0.0
  9
$SKPOLY
 70
     0
  9
$TDCREATE
 40
2453406.7180554285
  9
$TDUPDATE
 40
2454285.6903587845
  9
$TDINDWG
 40
2.878622685185
  9
$TDUSRTIMER
 40
2.878622685185
  9
$USRTIMER
 70
     1
  9
$ANGBASE
 50
0.0
  9
$ANGDIR
 70
     0
  9
$PDMODE
 70
    35
  9
$PDSIZE
 40
-2.0
  9
$PLINEWID
 40
0.0
  9
$COORDS
 70
     1
  9
$SPLFRAME
 70
     0
  9
$SPLINETYPE
 70
     6
  9
$SPLINESEGS
 70
     8
  9
$ATTDIA
 70
     0
  9
$ATTREQ
 70
     1
  9
$HANDLING
 70
     1
  9
$HANDSEED
  5
FFDAE487BD5A3250
  9
$SURFTAB1
 70
     6
  9
$SURFTAB2
 70
     6
  9
$SURFTYPE
 70
     6
  9
$SURFU
 70
     6
  9
$SURFV
 70
     6
  9
$UCSNAME
  2

  9
$UCSORG
 10
0.0
 20
0.0
 30
0.0
  9
$UCSXDIR
 10
1.0
 20
0.0
 30
0.0
  9
$UCSYDIR
 10
0.0
 20
1.0
 30
0.0
  9
$PUCSNAME
  2

  9
$PUCSORG
 10
0.0
 20
0.0
 30
0.0
  9
$PUCSXDIR
 10
1.0
 20
0.0
 30
0.0
  9
$PUCSYDIR
 10
0.0
 20
1.0
 30
0.0
  9
$USERI1
 70
     0
  9
$USERI2
 70
     0
  9
$USERI3
 70
     0
  9
$USERI4
 70
     0
  9
$USERI5
 70
     0
  9
$USERR1
 40
0.0
  9
$USERR2
 40
0.0
  9
$USERR3
 40
0.0
  9
$USERR4
 40
0.0
  9
$USERR5
 40
0.0
  9
$WORLDVIEW
 70
     1
  9
$SHADEDGE
 70
     3
  9
$SHADEDIF
 70
    70
  9
$TILEMODE
 70
     1
  9
$MAXACTVP
 70
    48
  9
$PINSBASE
 10
0.0
 20
0.0
 30
0.0
  9
$PLIMCHECK
 70
     0
  9
$PEXTMIN
 10
1.000000E+020
 20
1.000000E+020
 30
1.000000E+020
  9
$PEXTMAX
 10
-1.000000E+020
 20
-1.000000E+020
 30
-1.000000E+020
  9
$PLIMMIN
 10
0.0
 20
0.0
  9
$PLIMMAX
 10
12.0
 20
9.0
  9
$UNITMODE
 70
     0
  9
$VISRETAIN
 70
     1
  9
$PLINEGEN
 70
     0
  9
$PSLTSCALE
 70
     1
  9
$TREEDEPTH
 70
  3020
  9
$PICKSTYLE
 70
     1
  9
$CMLSTYLE
  2
STANDARD
  9
$CMLJUST
 70
     0
  9
$CMLSCALE
 40
1.0
  9
$PROXYGRAPHICS
 70
     1
  9
$MEASUREMENT
 70
     0
  0
ENDSEC
  0
SECTION
  2
CLASSES
  0
CLASS
  1
LWPOLYLINE
  2
AcDbPolyline
  3
"AutoCAD"
 90
        0
280
     0
281
     1
  0
ENDSEC
  0
SECTION
  2
TABLES
  0
TABLE
  2
VPORT
  5
8
100
AcDbSymbolTable
 70
     1
  0
VPORT
  5
37
100
AcDbSymbolTableRecord
100
AcDbViewportTableRecord
  2
*ACTIVE
 70
     0
 10
0.0
 20
0.0
 11
1.0
 21
1.0
 12
736.364225
 22
-267.869893
 13
0.0
 23
0.0
 14
1.0
 24
1.0
 15
10.0
 25
10.0
 16
0.0
 26
0.0
 36
1.0
 17
0.0
 27
0.0
 37
0.0
 40
1134.182882
 41
1.797633
 42
50.0
 43
0.0
 44
0.0
 50
0.0
 51
0.0
 71
     0
 72
   100
 73
     1
 74
     1
 75
     0
 76
     1
 77
     0
 78
     0
  0
ENDTAB
  0
TABLE
  2
LTYPE
  5
5
100
AcDbSymbolTable
 70
     2
  0
LTYPE
  5
12
100
AcDbSymbolTableRecord
100
AcDbLinetypeTableRecord
  2
BYBLOCK
 70
     0
  3

 72
    65
 73
     0
 40
0.0
  0
LTYPE
  5
13
100
AcDbSymbolTableRecord
100
AcDbLinetypeTableRecord
  2
BYLAYER
 70
     0
  3

 72
    65
 73
     0
 40
0.0
  0
LTYPE
  5
14
100
AcDbSymbolTableRecord
100
AcDbLinetypeTableRecord
  2
CONTINUOUS
 70
     0
  3
Solid line
 72
    65
 73
     0
 40
0.0
  0
LTYPE
  5
2A422EFD12C
100
AcDbSymbolTableRecord
100
AcDbLinetypeTableRecord
  2
DETAIL_1
 70
     0
  3
Solid line
 72
    65
 73
     2
 40
6.0
 49
5.0
 74
     0
 49
-1.0
 74
     0
  0
ENDTAB
  0
TABLE
  2
LAYER
  5
2
100
AcDbSymbolTable
 70
     5
  0
LAYER
  5
E
100
AcDbSymbolTableRecord
100
AcDbLayerTableRecord
  2
DETAIL_HIGH
 70
     0
 62
   101
  6
CONTINUOUS
  0
LAYER
  5
541
100
AcDbSymbolTableRecord
100
AcDbLayerTableRecord
  2
COMMENT
 70
     0
 62
   254
  6
CONTINUOUS
  0
LAYER
  5
1DAE4
100
AcDbSymbolTableRecord
100
AcDbLayerTableRecord
  2
DETAIL_MEDIUM
 70
     0
 62
   182
  6
CONTINUOUS
  0
LAYER
  5
15543B5
100
AcDbSymbolTableRecord
100
AcDbLayerTableRecord
  2
DETAIL_LOWEST
 70
     0
 62
   143
  6
CONTINUOUS
  0
LAYER
  5
DF2FB97E2E1C53EE
100
AcDbSymbolTableRecord
100
AcDbLayerTableRecord
  2
PORTS
 70
     0
 62
   188
  6
CONTINUOUS
  0
ENDTAB
  0
TABLE
  2
STYLE
  5
3
100
AcDbSymbolTable
 70
     8
  0
STYLE
  5
F
100
AcDbSymbolTableRecord
100
AcDbTextStyleTableRecord
  2
STANDARD
 70
     0
 40
0.0
 41
1.0
 50
0.0
 71
     0
 42
0.2
  3
txt.shx
  4

  0
STYLE
  5
21
100
AcDbSymbolTableRecord
100
AcDbTextStyleTableRecord
  2
COMPLEX
 70
     0
 40
0.0
 41
1.0
 50
0.0
 71
     0
 42
0.2
  3
complex
  4

  0
STYLE
  5
22
100
AcDbSymbolTableRecord
100
AcDbTextStyleTableRecord
  2
ITALIC
 70
     0
 40
0.0
 41
1.0
 50
0.0
 71
     0
 42
0.2
  3
italic
  4

  0
STYLE
  5
23
100
AcDbSymbolTableRecord
100
AcDbTextStyleTableRecord
  2
ROMANC
 70
     0
 40
0.0
 41
1.0
 50
0.0
 71
     0
 42
0.2
  3
romanc
  4

  0
STYLE
  5
24
100
AcDbSymbolTableRecord
100
AcDbTextStyleTableRecord
  2
SIMPLEX
 70
     0
 40
0.0
 41
1.0
 50
0.0
 71
     0
 42
0.2
  3
simplex
  4

  0
STYLE
  5
34
100
AcDbSymbolTableRecord
100
AcDbTextStyleTableRecord
  2

 70
     1
 40
0.0
 41
1.0
 50
0.0
 71
     0
 42
0.2
  3
ltypeshp.shx
  4

  0
STYLE
  5
38
100
AcDbSymbolTableRecord
100
AcDbTextStyleTableRecord
  2
ARIAL
 70
     0
 40
0.0
 41
1.0
 50
0.0
 71
     0
 42
0.2
  3

  4

1001
ACAD
1000
Arial
1071
       34
  0
STYLE
  5
39
100
AcDbSymbolTableRecord
100
AcDbTextStyleTableRecord
  2
TIMES_NEW_ROMAN
 70
     0
 40
0.0
 41
1.0
 50
0.0
 71
     0
 42
0.2
  3

  4

1001
ACAD
1000
Times New Roman
1071
       18
  0
ENDTAB
  0
TABLE
  2
VIEW
  5
6
100
AcDbSymbolTable
 70
     0
  0
ENDTAB
  0
TABLE
  2
UCS
  5
7
100
AcDbSymbolTable
 70
     0
  0
ENDTAB
  0
TABLE
  2
APPID
  5
9
100
AcDbSymbolTable
 70
     1
  0
APPID
  5
10
100
AcDbSymbolTableRecord
100
AcDbRegAppTableRecord
  2
ACAD
 70
     0
  0
ENDTAB
  0
TABLE
  2
DIMSTYLE
  5
A
100
AcDbSymbolTable
 70
     1
  0
DIMSTYLE
105
1D
100
AcDbSymbolTableRecord
100
AcDbDimStyleTableRecord
  2
STANDARD
 70
     0
  3

  4

  5

  6

  7

 40
1.0
 41
0.18
 42
0.0625
 43
0.38
 44
0.18
 45
0.0
 46
0.0
 47
0.0
 48
0.0
140
0.18
141
0.09
142
0.0
143
25.4
144
1.0
145
0.0
146
1.0
147
0.09
 71
     0
 72
     0
 73
     1
 74
     1
 75
     0
 76
     0
 77
     0
 78
     0
170
     0
171
     2
172
     0
173
     0
174
     0
175
     0
176
     0
177
     0
178
     0
270
     2
271
     4
272
     4
273
     2
274
     2
340
F
275
     0
280
     0
281
     0
282
     0
283
     1
284
     0
285
     0
286
     0
287
     3
288
     0
  0
ENDTAB
  0
TABLE
  2
BLOCK_RECORD
  5
1
100
AcDbSymbolTable
 70
    75
  0
BLOCK_RECORD
  5
18
100
AcDbSymbolTableRecord
100
AcDbBlockTableRecord
  2
*MODEL_SPACE
  0
BLOCK_RECORD
  5
15
100
AcDbSymbolTableRecord
100
AcDbBlockTableRecord
  2
*PAPER_SPACE
  0
BLOCK_RECORD
  5
FC351B9CCEF981FE
100
AcDbSymbolTableRecord
100
AcDbBlockTableRecord
  2
LE_CYCII_SUM_LUT
  0
BLOCK_RECORD
  5
FC351B9CCEF98202
100
AcDbSymbolTableRecord
100
AcDbBlockTableRecord
  2
LE_CYCII_CARRY_LUT
  0
BLOCK_RECORD
  5
FC351B9CCEF98206
100
AcDbSymbolTableRecord
100
AcDbBlockTableRecord
  2
LE_CYCII_LUT_INSIDES_DATAA_0
  0
BLOCK_RECORD
  5
FC351B9CCEF9820A
100
AcDbSymbolTableRecord
100
AcDbBlockTableRecord
  2
LE_CYCII_LUT_INSIDES_DATAA_1
  0
BLOCK_RECORD
  5
FC351B9CCEF9820E
100
AcDbSymbolTableRecord
100
AcDbBlockTableRecord
  2
LE_CYCII_LUT_INSIDES_DATAA_2
  0
BLOCK_RECORD
  5
FC351B9CCEF98212
100
AcDbSymbolTableRecord
100
AcDbBlockTableRecord
  2
LE_CYCII_LUT_INSIDES_DATAB_0
  0
BLOCK_RECORD
  5
FC351B9CCEF98216
100
AcDbSymbolTableRecord
100
AcDbBlockTableRecord
  2
LE_CYCII_LUT_INSIDES_DATAB_1
  0
BLOCK_RECORD
  5
FC351B9CCEF9821A
100
AcDbSymbolTableRecord
100
AcDbBlockTableRecord
  2
LE_CYCII_LUT_INSIDES_DATAB_2
  0
BLOCK_RECORD
  5
FC351B9CCEF9821E
100
AcDbSymbolTableRecord
100
AcDbBlockTableRecord
  2
LE_CYCII_LUT_INSIDES_DATAC_0
  0
BLOCK_RECORD
  5
FC351B9CCEF98222
100
AcDbSymbolTableRecord
100
AcDbBlockTableRecord
  2
LE_CYCII_LUT_INSIDES_DATAC_1
  0
BLOCK_RECORD
  5
FC351B9CCEF98226
100
AcDbSymbolTableRecord
100
AcDbBlockTableRecord
  2
LE_CYCII_LUT_INSIDES
  0
BLOCK_RECORD
  5
FC351B9CCEF9822A
100
AcDbSymbolTableRecord
100
AcDbBlockTableRecord
  2
LE_CYCII_LUT
  0
BLOCK_RECORD
  5
FC351B9CCEF9822E
100
AcDbSymbolTableRecord
100
AcDbBlockTableRecord
  2
LE_CYCII_COUT_WIRE
  0
BLOCK_RECORD
  5
FC351B9CCEF98232
100
AcDbSymbolTableRecord
100
AcDbBlockTableRecord
  2
LE_CYCII_COUT_PORT
  0
BLOCK_RECORD
  5
FC351B9CCEF98238
100
AcDbSymbolTableRecord
100
AcDbBlockTableRecord
  2
LE_CYCII_DATAD_WIRE
  0
BLOCK_RECORD
  5
FC351B9CCEF9823C
100
AcDbSymbolTableRecord
100
AcDbBlockTableRecord
  2
LE_CYCII_DATAD_PORT
  0
BLOCK_RECORD
  5
FC351B9CCEF98242
100
AcDbSymbolTableRecord
100
AcDbBlockTableRecord
  2
LE_CYCII_DATAB_WIRE
  0
BLOCK_RECORD
  5
FC351B9CCEF98246
100
AcDbSymbolTableRecord
100
AcDbBlockTableRecord
  2
LE_CYCII_DATAB_PORT
  0
BLOCK_RECORD
  5
FC351B9CCEF9824C
100
AcDbSymbolTableRecord
100
AcDbBlockTableRecord
  2
LE_CYCII_DATAA_WIRE
  0
BLOCK_RECORD
  5
FC351B9CCEF98250
100
AcDbSymbolTableRecord
100
AcDbBlockTableRecord
  2
LE_CYCII_DATAA_PORT
  0
BLOCK_RECORD
  5
FC351B9CCEF98256
100
AcDbSymbolTableRecord
100
AcDbBlockTableRecord
  2
LE_CYCII_DATAC_WIRE_0
  0
BLOCK_RECORD
  5
FC351B9CCEF9825A
100
AcDbSymbolTableRecord
100
AcDbBlockTableRecord
  2
LE_CYCII_DATAC_WIRE_1
  0
BLOCK_RECORD
  5
FC351B9CCEF9825E
100
AcDbSymbolTableRecord
100
AcDbBlockTableRecord
  2
LE_CYCII_DATAC_WIRE_2
  0
BLOCK_RECORD
  5
FC351B9CCEF98262
100
AcDbSymbolTableRecord
100
AcDbBlockTableRecord
  2
LE_CYCII_DATAC_PORT
  0
BLOCK_RECORD
  5
FC351B9CCEF98268
100
AcDbSymbolTableRecord
100
AcDbBlockTableRecord
  2
LE_CYCII_DATAC_MUX
  0
BLOCK_RECORD
  5
FC351B9CCEF9826C
100
AcDbSymbolTableRecord
100
AcDbBlockTableRecord
  2
LE_CYCII_DATAC_MUX_SEL_DATAC
  0
BLOCK_RECORD
  5
FC351B9CCEF98270
100
AcDbSymbolTableRecord
100
AcDbBlockTableRecord
  2
LE_CYCII_DATAC_MUX_SEL_QFBK
  0
BLOCK_RECORD
  5
FC351B9CCEF98274
100
AcDbSymbolTableRecord
100
AcDbBlockTableRecord
  2
LE_CYCII_DATAC_TO_SDATA_WIRE
  0
BLOCK_RECORD
  5
FC351B9CCEF98278
100
AcDbSymbolTableRecord
100
AcDbBlockTableRecord
  2
LE_CYCII_POINT_0
  0
BLOCK_RECORD
  5
FC351B9CCEF9827C
100
AcDbSymbolTableRecord
100
AcDbBlockTableRecord
  2
LE_CYCII_CIN_WIRE
  0
BLOCK_RECORD
  5
FC351B9CCEF98280
100
AcDbSymbolTableRecord
100
AcDbBlockTableRecord
  2
LE_CYCII_CIN_PORT
  0
BLOCK_RECORD
  5
FC351B9CCEF9828B
100
AcDbSymbolTableRecord
100
AcDbBlockTableRecord
  2
LE_CYCII_COMBOUT_WIRE_0
  0
BLOCK_RECORD
  5
FC351B9CCEF9828F
100
AcDbSymbolTableRecord
100
AcDbBlockTableRecord
  2
LE_CYCII_COMBOUT_WIRE_1
  0
BLOCK_RECORD
  5
FC351B9CCEF98293
100
AcDbSymbolTableRecord
100
AcDbBlockTableRecord
  2
LE_CYCII_COMBOUT_WIRE_2
  0
BLOCK_RECORD
  5
FC351B9CCEF98297
100
AcDbSymbolTableRecord
100
AcDbBlockTableRecord
  2
LE_CYCII_COMBOUT_WIRE_3
  0
BLOCK_RECORD
  5
FC351B9CCEF9829B
100
AcDbSymbolTableRecord
100
AcDbBlockTableRecord
  2
LE_CYCII_COMBOUT_PORT
  0
BLOCK_RECORD
  5
FC351B9CCEF982A1
100
AcDbSymbolTableRecord
100
AcDbBlockTableRecord
  2
LE_CYCII_POINT_1
  0
BLOCK_RECORD
  5
FC351B9CCEF982A5
100
AcDbSymbolTableRecord
100
AcDbBlockTableRecord
  2
LE_CYCII_CIN_WIRE_1
  0
BLOCK_RECORD
  5
FC351B9CCEF982A9
100
AcDbSymbolTableRecord
100
AcDbBlockTableRecord
  2
LE_CYCII_CIN_DATAC_MUX
  0
BLOCK_RECORD
  5
FC351B9CCEF982B5
100
AcDbSymbolTableRecord
100
AcDbBlockTableRecord
  2
LE_CYCII_CIN_DATAC_MUX_SEL_CIN
  0
BLOCK_RECORD
  5
FC351B9CCEF982B9
100
AcDbSymbolTableRecord
100
AcDbBlockTableRecord
  2
LE_CYCII_CIN_DATAC_MUX_SEL_C
  0
BLOCK_RECORD
  5
FC351B9CCEF983D8
100
AcDbSymbolTableRecord
100
AcDbBlockTableRecord
  2
LE_CYCII_REG_CASC_OUT_WIRE
  0
BLOCK_RECORD
  5
FC351B9CCEF983DC
100
AcDbSymbolTableRecord
100
AcDbBlockTableRecord
  2
LE_CYCII_QFBK_WIRE
  0
BLOCK_RECORD
  5
FC351B9CCEF983E0
100
AcDbSymbolTableRecord
100
AcDbBlockTableRecord
  2
LE_CYCII_REG_CASC_IN_WIRE
  0
BLOCK_RECORD
  5
FC351B9CCEF983E4
100
AcDbSymbolTableRecord
100
AcDbBlockTableRecord
  2
LE_CYCII_REGCASC_MUX
  0
BLOCK_RECORD
  5
FC351B9CCEF983E8
100
AcDbSymbolTableRecord
100
AcDbBlockTableRecord
  2
LE_CYCII_REGCASC_MUX_SEL_CASC
  0
BLOCK_RECORD
  5
FC351B9CCEF983EC
100
AcDbSymbolTableRecord
100
AcDbBlockTableRecord
  2
LE_CYCII_REGCASC_MUX_SEL_COMB
  0
BLOCK_RECORD
  5
FC351B9CCEF983F0
100
AcDbSymbolTableRecord
100
AcDbBlockTableRecord
  2
LE_CYCII_QFBK_OR_CASCOUT_WIRE
  0
BLOCK_RECORD
  5
FC351B9CCEF983F4
100
AcDbSymbolTableRecord
100
AcDbBlockTableRecord
  2
LE_CYCII_POINT_2
  0
BLOCK_RECORD
  5
FC351B9CCEF983F8
100
AcDbSymbolTableRecord
100
AcDbBlockTableRecord
  2
LE_CYCII_REGOUT_PORT
  0
BLOCK_RECORD
  5
FC351B9CCEF98401
100
AcDbSymbolTableRecord
100
AcDbBlockTableRecord
  2
LE_CYCII_REGOUT_WIRE_0
  0
BLOCK_RECORD
  5
FC351B9CCEF98405
100
AcDbSymbolTableRecord
100
AcDbBlockTableRecord
  2
LE_CYCII_REGOUT_WIRE_1
  0
BLOCK_RECORD
  5
FC351B9CCEF98409
100
AcDbSymbolTableRecord
100
AcDbBlockTableRecord
  2
LE_CYCII_REGISTER_INSIDES
  0
BLOCK_RECORD
  5
FC351B9CCEF9840D
100
AcDbSymbolTableRecord
100
AcDbBlockTableRecord
  2
LE_CYCII_REGISTER
  0
BLOCK_RECORD
  5
FC351B9CCEF98411
100
AcDbSymbolTableRecord
100
AcDbBlockTableRecord
  2
LE_CYCII_ENABLE_PORT
  0
BLOCK_RECORD
  5
FC351B9CCEF98417
100
AcDbSymbolTableRecord
100
AcDbBlockTableRecord
  2
LE_CYCII_ENABLE_WIRE
  0
BLOCK_RECORD
  5
FC351B9CCEF9841B
100
AcDbSymbolTableRecord
100
AcDbBlockTableRecord
  2
LE_CYCII_CLOCK_PORT
  0
BLOCK_RECORD
  5
FC351B9CCEF98421
100
AcDbSymbolTableRecord
100
AcDbBlockTableRecord
  2
LE_CYCII_CLOCK_WIRE
  0
BLOCK_RECORD
  5
FC351B9CCEF98425
100
AcDbSymbolTableRecord
100
AcDbBlockTableRecord
  2
LE_CYCII_DATAIN_PORT
  0
BLOCK_RECORD
  5
FC351B9CCEF9842B
100
AcDbSymbolTableRecord
100
AcDbBlockTableRecord
  2
LE_CYCII_DATAIN_WIRE
  0
BLOCK_RECORD
  5
FC351B9CCEF9842F
100
AcDbSymbolTableRecord
100
AcDbBlockTableRecord
  2
LE_CYCII_SDATA_PORT
  0
BLOCK_RECORD
  5
FC351B9CCEF98435
100
AcDbSymbolTableRecord
100
AcDbBlockTableRecord
  2
LE_CYCII_SDATA_WIRE
  0
BLOCK_RECORD
  5
FC351B9CCEF98439
100
AcDbSymbolTableRecord
100
AcDbBlockTableRecord
  2
LE_CYCII_SLOAD_PORT
  0
BLOCK_RECORD
  5
FC351B9CCEF9843F
100
AcDbSymbolTableRecord
100
AcDbBlockTableRecord
  2
LE_CYCII_SLOAD_WIRE
  0
BLOCK_RECORD
  5
FC351B9CCEF98443
100
AcDbSymbolTableRecord
100
AcDbBlockTableRecord
  2
LE_CYCII_SCLR_PORT
  0
BLOCK_RECORD
  5
FC351B9CCEF98449
100
AcDbSymbolTableRecord
100
AcDbBlockTableRecord
  2
LE_CYCII_SCLR_WIRE
  0
BLOCK_RECORD
  5
FC351B9CCEF9844D
100
AcDbSymbolTableRecord
100
AcDbBlockTableRecord
  2
LE_CYCII_SCLR_NAND_GATE
  0
BLOCK_RECORD
  5
FC351B9CCEF98451
100
AcDbSymbolTableRecord
100
AcDbBlockTableRecord
  2
LE_CYCII_ACLR_PORT
  0
BLOCK_RECORD
  5
FC351B9CCEF98457
100
AcDbSymbolTableRecord
100
AcDbBlockTableRecord
  2
LE_CYCII_ACLR_WIRE
  0
BLOCK_RECORD
  5
FC351B9CCEF9845B
100
AcDbSymbolTableRecord
100
AcDbBlockTableRecord
  2
LE_CYCII_SLOAD_MUX_TEXT
  0
BLOCK_RECORD
  5
FC351B9CCEF9845F
100
AcDbSymbolTableRecord
100
AcDbBlockTableRecord
  2
LE_CYCII_SLOAD_MUX
  0
BLOCK_RECORD
  5
FC351B9CCEF98463
100
AcDbSymbolTableRecord
100
AcDbBlockTableRecord
  2
LE_CYCII
  0
BLOCK_RECORD
  5
FC351DBB54B3460F
100
AcDbSymbolTableRecord
100
AcDbBlockTableRecord
  2
LE_CYCII_SLOAD_MUX_SEL_SDATA
  0
BLOCK_RECORD
  5
FC351DBB54B34613
100
AcDbSymbolTableRecord
100
AcDbBlockTableRecord
  2
LE_CYCII_SLOAD_MUX_SEL_DATAIN
  0
BLOCK_RECORD
  5
FC37183A2D21AF2A
100
AcDbSymbolTableRecord
100
AcDbBlockTableRecord
  2
LE_CYCII_LUT_INSIDES_DATAD_0
  0
ENDTAB
  0
ENDSEC
  0
SECTION
  2
BLOCKS
  0
BLOCK
  5
19
100
AcDbEntity
  8
DETAIL_HIGH
100
AcDbBlockBegin
  2
*MODEL_SPACE
 70
     0
 10
0.0
 20
0.0
 30
0.0
  3
*MODEL_SPACE
  1

  0
ENDBLK
  5
1A
100
AcDbEntity
  8
DETAIL_HIGH
100
AcDbBlockEnd
  0
BLOCK
  5
16
100
AcDbEntity
 67
     1
  8
DETAIL_HIGH
100
AcDbBlockBegin
  2
*PAPER_SPACE
 70
     0
 10
0.0
 20
0.0
 30
0.0
  3
*PAPER_SPACE
  1

  0
ENDBLK
  5
17
100
AcDbEntity
 67
     1
  8
DETAIL_HIGH
100
AcDbBlockEnd
  0
BLOCK
  5
FCC6247CA870AA95
100
AcDbEntity
  8
DETAIL_HIGH
  6
CONTINUOUS
100
AcDbBlockBegin
  2
LE_CYCII_SUM_LUT
 70
     0
 10
0.0
 20
0.0
 30
0.0
  1

  0
POLYLINE
  5
FCC6247CA870AA89
100
AcDbEntity
  8
DETAIL_HIGH
100
AcDb2dPolyline
 66
     1
 10
0.0
 20
0.0
 30
0.0
 39
2.0
 70
     1
  0
VERTEX
  5
FCC6247CA870AA8A
100
AcDbEntity
  8
DETAIL_HIGH
100
AcDbVertex
100
AcDb2dVertex
 10
646.376591
 20
-219.265165
 30
0.0
  0
VERTEX
  5
FCC6247CA870AA8B
100
AcDbEntity
  8
DETAIL_HIGH
100
AcDbVertex
100
AcDb2dVertex
 10
646.376591
 20
-369.232683
 30
0.0
  0
VERTEX
  5
FCC6247CA870AA8C
100
AcDbEntity
  8
DETAIL_HIGH
100
AcDbVertex
100
AcDb2dVertex
 10
705.959645
 20
-369.232683
 30
0.0
  0
VERTEX
  5
FCC6247CA870AA8D
100
AcDbEntity
  8
DETAIL_HIGH
100
AcDbVertex
100
AcDb2dVertex
 10
705.959645
 20
-219.265165
 30
0.0
  0
VERTEX
  5
FCC6247CA870AA8E
100
AcDbEntity
  8
DETAIL_HIGH
100
AcDbVertex
100
AcDb2dVertex
 10
646.376591
 20
-219.265165
 30
0.0
  0
SEQEND
  5
FCC6247CA870AA8F
100
AcDbEntity
  8
DETAIL_HIGH
  0
TEXT
  5
FCC6247CA870AA93
100
AcDbEntity
  8
DETAIL_HIGH
  6
CONTINUOUS
100
AcDbText
 10
652.523855
 20
-357.744393
 30
0.0
 40
10.0
  1
D
  7
SIMPLEX
100
AcDbText
  0
TEXT
  5
FCC6247CA870AA92
100
AcDbEntity
  8
DETAIL_HIGH
  6
CONTINUOUS
100
AcDbText
 10
652.238222
 20
-323.068618
 30
0.0
 40
10.0
  1
C
  7
SIMPLEX
100
AcDbText
  0
TEXT
  5
FCC6247CA870AA91
100
AcDbEntity
  8
DETAIL_HIGH
  6
CONTINUOUS
100
AcDbText
 10
652.238222
 20
-283.068618
 30
0.0
 40
10.0
  1
B
  7
SIMPLEX
100
AcDbText
  0
TEXT
  5
FCC6247CA870AA90
100
AcDbEntity
  8
DETAIL_HIGH
  6
CONTINUOUS
100
AcDbText
 10
652.238222
 20
-243.068618
 30
0.0
 40
10.0
  1
A
  7
SIMPLEX
100
AcDbText
  0
LINE
  5
FCC6247CA870AA94
100
AcDbEntity
  8
DETAIL_HIGH
100
AcDbLine
 10
706.238222
 20
-276.816143
 30
0.0
 11
726.238222
 21
-276.816143
 31
0.0
  0
ENDBLK
  5
FCC6247CA870AA96
100
AcDbEntity
  8
DETAIL_HIGH
  6
CONTINUOUS
100
AcDbBlockEnd
  0
BLOCK
  5
FFDAE487ACCB474E
100
AcDbEntity
  8
DETAIL_HIGH
  6
CONTINUOUS
100
AcDbBlockBegin
  2
LE_CYCII_CARRY_LUT
 70
     0
 10
0.0
 20
0.0
 30
0.0
  1

  0
LINE
  5
FFDAE487ACCB474C
100
AcDbEntity
  8
DETAIL_HIGH
  6
CONTINUOUS
100
AcDbLine
 10
627.0
 20
-507.000005
 30
0.0
 11
627.0
 21
-517.83494
 31
0.0
  0
LINE
  5
FFDAE487ACCB474B
100
AcDbEntity
  8
DETAIL_HIGH
  6
CONTINUOUS
100
AcDbLine
 10
715.025575
 20
-507.000005
 30
0.0
 11
627.0
 21
-507.000005
 31
0.0
  0
LINE
  5
FFDAE487ACCB474A
100
AcDbEntity
  8
DETAIL_HIGH
  6
CONTINUOUS
100
AcDbLine
 10
715.025575
 20
-437.330058
 30
0.0
 11
715.025575
 21
-507.000005
 31
0.0
  0
LINE
  5
FFDAE487ACCB4749
100
AcDbEntity
  8
DETAIL_HIGH
  6
CONTINUOUS
100
AcDbLine
 10
706.238222
 20
-437.330058
 30
0.0
 11
715.025575
 21
-437.330058
 31
0.0
  0
POLYLINE
  5
350FEB1B6D818B7
100
AcDbEntity
  8
DETAIL_HIGH
100
AcDb2dPolyline
 66
     1
 10
0.0
 20
0.0
 30
0.0
 39
2.0
 70
     1
  0
VERTEX
  5
350FEB1B6D818B8
100
AcDbEntity
  8
DETAIL_HIGH
100
AcDbVertex
100
AcDb2dVertex
 10
646.238222
 20
-377.330058
 30
0.0
  0
VERTEX
  5
350FEB1B6D818B9
100
AcDbEntity
  8
DETAIL_HIGH
100
AcDbVertex
100
AcDb2dVertex
 10
706.238222
 20
-377.330058
 30
0.0
  0
VERTEX
  5
350FEB1B6D818BA
100
AcDbEntity
  8
DETAIL_HIGH
100
AcDbVertex
100
AcDb2dVertex
 10
706.238222
 20
-497.330058
 30
0.0
  0
VERTEX
  5
350FEB1B6D818BB
100
AcDbEntity
  8
DETAIL_HIGH
100
AcDbVertex
100
AcDb2dVertex
 10
646.238222
 20
-497.330058
 30
0.0
  0
SEQEND
  5
350FEB1B6D818BC
100
AcDbEntity
  8
DETAIL_HIGH
  0
TEXT
  5
350FEB1B6D818BF
100
AcDbEntity
  8
DETAIL_HIGH
  6
CONTINUOUS
100
AcDbText
 10
652.238222
 20
-483.330058
 30
0.0
 40
10.0
  1
C
  7
SIMPLEX
100
AcDbText
  0
TEXT
  5
350FEB1B6D818BE
100
AcDbEntity
  8
DETAIL_HIGH
  6
CONTINUOUS
100
AcDbText
 10
652.238222
 20
-443.330058
 30
0.0
 40
10.0
  1
B
  7
SIMPLEX
100
AcDbText
  0
TEXT
  5
350FEB1B6D818BD
100
AcDbEntity
  8
DETAIL_HIGH
  6
CONTINUOUS
100
AcDbText
 10
652.238222
 20
-403.330058
 30
0.0
 40
10.0
  1
A
  7
SIMPLEX
100
AcDbText
  0
ENDBLK
  5
FFDAE487ACCB474F
100
AcDbEntity
  8
DETAIL_HIGH
  6
CONTINUOUS
100
AcDbBlockEnd
  0
BLOCK
  5
FFDAE487ACCB4721
100
AcDbEntity
  8
DETAIL_HIGH
  6
CONTINUOUS
100
AcDbBlockBegin
  2
LE_CYCII_LUT_INSIDES_DATAA_0
 70
     0
 10
0.0
 20
0.0
 30
0.0
  1

  0
LINE
  5
FFDAE487ACCB471B
100
AcDbEntity
  8
DETAIL_HIGH
  6
CONTINUOUS
100
AcDbLine
 10
530.111214
 20
-237.066326
 30
0.0
 11
609.005525
 21
-237.066326
 31
0.0
  0
ENDBLK
  5
FFDAE487ACCB4722
100
AcDbEntity
  8
DETAIL_HIGH
  6
CONTINUOUS
100
AcDbBlockEnd
  0
BLOCK
  5
FFDAE487ACCB4724
100
AcDbEntity
  8
DETAIL_HIGH
  6
CONTINUOUS
100
AcDbBlockBegin
  2
LE_CYCII_LUT_INSIDES_DATAA_1
 70
     0
 10
0.0
 20
0.0
 30
0.0
  1

  0
LINE
  5
FFDAE487ACCB471F
100
AcDbEntity
  8
DETAIL_HIGH
  6
CONTINUOUS
100
AcDbLine
 10
609.005525
 20
-237.066326
 30
0.0
 11
646.376591
 21
-237.066326
 31
0.0
  0
ENDBLK
  5
FFDAE487ACCB4725
100
AcDbEntity
  8
DETAIL_HIGH
  6
CONTINUOUS
100
AcDbBlockEnd
  0
BLOCK
  5
FFDAE487ACCB4727
100
AcDbEntity
  8
DETAIL_HIGH
  6
CONTINUOUS
100
AcDbBlockBegin
  2
LE_CYCII_LUT_INSIDES_DATAA_2
 70
     0
 10
0.0
 20
0.0
 30
0.0
  1

  0
LINE
  5
FFDAE487ACCB471C
100
AcDbEntity
  8
DETAIL_HIGH
  6
CONTINUOUS
100
AcDbLine
 10
609.005525
 20
-237.066326
 30
0.0
 11
609.005525
 21
-398.003073
 31
0.0
  0
LINE
  5
FFDAE487ACCB471D
100
AcDbEntity
  8
DETAIL_HIGH
  6
CONTINUOUS
100
AcDbLine
 10
609.005525
 20
-398.003073
 30
0.0
 11
646.238952
 21
-398.003073
 31
0.0
  0
ENDBLK
  5
FFDAE487ACCB4728
100
AcDbEntity
  8
DETAIL_HIGH
  6
CONTINUOUS
100
AcDbBlockEnd
  0
BLOCK
  5
FFDAE487ACCB444B
100
AcDbEntity
  8
DETAIL_HIGH
  6
CONTINUOUS
100
AcDbBlockBegin
  2
LE_CYCII_LUT_INSIDES_DATAB_0
 70
     0
 10
0.0
 20
0.0
 30
0.0
  1

  0
LINE
  5
FFDAE487ACCB4441
100
AcDbEntity
  8
DETAIL_HIGH
  6
CONTINUOUS
100
AcDbLine
 10
530.165768
 20
-317.609892
 30
0.0
 11
555.003064
 21
-317.609892
 31
0.0
  0
ENDBLK
  5
FFDAE487ACCB444C
100
AcDbEntity
  8
DETAIL_HIGH
  6
CONTINUOUS
100
AcDbBlockEnd
  0
BLOCK
  5
FFDAE487ACCB4448
100
AcDbEntity
  8
DETAIL_HIGH
  6
CONTINUOUS
100
AcDbBlockBegin
  2
LE_CYCII_LUT_INSIDES_DATAB_1
 70
     0
 10
0.0
 20
0.0
 30
0.0
  1

  0
LINE
  5
FFDAE487ACCB4442
100
AcDbEntity
  8
DETAIL_HIGH
  6
CONTINUOUS
100
AcDbLine
 10
555.003064
 20
-317.609892
 30
0.0
 11
555.003064
 21
-277.886786
 31
0.0
  0
LINE
  5
FFDAE487ACCB4443
100
AcDbEntity
  8
DETAIL_HIGH
  6
CONTINUOUS
100
AcDbLine
 10
555.003064
 20
-277.886786
 30
0.0
 11
646.00007
 21
-277.886786
 31
0.0
  0
ENDBLK
  5
FFDAE487ACCB4449
100
AcDbEntity
  8
DETAIL_HIGH
  6
CONTINUOUS
100
AcDbBlockEnd
  0
BLOCK
  5
FFDAE487ACCB444E
100
AcDbEntity
  8
DETAIL_HIGH
  6
CONTINUOUS
100
AcDbBlockBegin
  2
LE_CYCII_LUT_INSIDES_DATAB_2
 70
     0
 10
0.0
 20
0.0
 30
0.0
  1

  0
LINE
  5
FFDAE487ACCB4445
100
AcDbEntity
  8
DETAIL_HIGH
  6
CONTINUOUS
100
AcDbLine
 10
555.003064
 20
-317.609892
 30
0.0
 11
555.003064
 21
-437.601243
 31
0.0
  0
LINE
  5
FFDAE487ACCB4446
100
AcDbEntity
  8
DETAIL_HIGH
  6
CONTINUOUS
100
AcDbLine
 10
555.003064
 20
-437.601243
 30
0.0
 11
646.238625
 21
-437.601243
 31
0.0
  0
ENDBLK
  5
FFDAE487ACCB444F
100
AcDbEntity
  8
DETAIL_HIGH
  6
CONTINUOUS
100
AcDbBlockEnd
  0
BLOCK
  5
FFDAE487ACCB4455
100
AcDbEntity
  8
DETAIL_HIGH
  6
CONTINUOUS
100
AcDbBlockBegin
  2
LE_CYCII_LUT_INSIDES_DATAC_0
 70
     0
 10
0.0
 20
0.0
 30
0.0
  1

  0
LINE
  5
FFDAE487ACCB4451
100
AcDbEntity
  8
DETAIL_HIGH
  6
CONTINUOUS
100
AcDbLine
 10
530.368302
 20
-397.940713
 30
0.0
 11
573.000041
 21
-397.940713
 31
0.0
  0
LINE
  5
FFDAE487ACCB4452
100
AcDbEntity
  8
DETAIL_HIGH
  6
CONTINUOUS
100
AcDbLine
 10
573.000041
 20
-397.940713
 30
0.0
 11
573.000041
 21
-317.993745
 31
0.0
  0
LINE
  5
FFDAE487ACCB4453
100
AcDbEntity
  8
DETAIL_HIGH
  6
CONTINUOUS
100
AcDbLine
 10
573.000041
 20
-317.993745
 30
0.0
 11
646.376628
 21
-317.993745
 31
0.0
  0
ENDBLK
  5
FFDAE487ACCB4456
100
AcDbEntity
  8
DETAIL_HIGH
  6
CONTINUOUS
100
AcDbBlockEnd
  0
BLOCK
  5
FFDAE487ACCB4731
100
AcDbEntity
  8
DETAIL_HIGH
  6
CONTINUOUS
100
AcDbBlockBegin
  2
LE_CYCII_LUT_INSIDES_DATAC_1
 70
     0
 10
0.0
 20
0.0
 30
0.0
  1

  0
LINE
  5
FFDAE487ACCB472D
100
AcDbEntity
  8
DETAIL_HIGH
  6
CONTINUOUS
100
AcDbLine
 10
416.238222
 20
-183.006426
 30
0.0
 11
627.002342
 21
-183.006426
 31
0.0
  0
LINE
  5
FFDAE487ACCB472E
100
AcDbEntity
  8
DETAIL_HIGH
  6
CONTINUOUS
100
AcDbLine
 10
627.002342
 20
-183.006426
 30
0.0
 11
627.002342
 21
-478.0
 31
0.0
  0
LINE
  5
FFDAE487ACCB472F
100
AcDbEntity
  8
DETAIL_HIGH
  6
CONTINUOUS
100
AcDbLine
 10
627.002342
 20
-478.0
 30
0.0
 11
646.238222
 21
-478.0
 31
0.0
  0
ENDBLK
  5
FFDAE487ACCB4732
100
AcDbEntity
  8
DETAIL_HIGH
  6
CONTINUOUS
100
AcDbBlockEnd
  0
BLOCK
  5
FFDAE487ACCB4758
100
AcDbEntity
  8
DETAIL_HIGH
  6
CONTINUOUS
100
AcDbBlockBegin
  2
LE_CYCII_LUT_INSIDES
 70
     0
 10
0.0
 20
0.0
 30
0.0
  1

  0
INSERT
  5
FFDAE487ACCB4733
100
AcDbEntity
  8
DETAIL_HIGH
  6
CONTINUOUS
100
AcDbBlockReference
  2
LE_CYCII_LUT_INSIDES_DATAC_1
 10
0.0
 20
0.0
 30
0.0
  0
INSERT
  5
FFDAE487ACCB4726
100
AcDbEntity
  8
DETAIL_HIGH
  6
CONTINUOUS
100
AcDbBlockReference
  2
LE_CYCII_LUT_INSIDES_DATAA_1
 10
0.0
 20
0.0
 30
0.0
  0
INSERT
  5
FFDAE487ACCB4729
100
AcDbEntity
  8
DETAIL_HIGH
  6
CONTINUOUS
100
AcDbBlockReference
  2
LE_CYCII_LUT_INSIDES_DATAA_2
 10
0.0
 20
0.0
 30
0.0
  0
INSERT
  5
FD49450EEECE6748
100
AcDbEntity
  8
DETAIL_HIGH
  6
CONTINUOUS
100
AcDbBlockReference
  2
LE_CYCII_SUM_LUT
 10
0.0
 20
0.0
 30
0.0
  0
INSERT
  5
FFDAE487ACCB4750
100
AcDbEntity
  8
DETAIL_HIGH
  6
CONTINUOUS
100
AcDbBlockReference
  2
LE_CYCII_CARRY_LUT
 10
0.0
 20
0.0
 30
0.0
  0
INSERT
  5
FFDAE487ACCB4450
100
AcDbEntity
  8
DETAIL_HIGH
  6
CONTINUOUS
100
AcDbBlockReference
  2
LE_CYCII_LUT_INSIDES_DATAB_2
 10
0.0
 20
0.0
 30
0.0
  0
INSERT
  5
FFDAE487ACCB4485
100
AcDbEntity
  8
DETAIL_HIGH
  6
CONTINUOUS
100
AcDbBlockReference
  2
LE_CYCII_LUT_INSIDES_DATAD_0
 10
0.0
 20
0.0
 30
0.0
  0
INSERT
  5
FFDAE487ACCB4457
100
AcDbEntity
  8
DETAIL_HIGH
  6
CONTINUOUS
100
AcDbBlockReference
  2
LE_CYCII_LUT_INSIDES_DATAC_0
 10
0.0
 20
0.0
 30
0.0
  0
INSERT
  5
FFDAE487ACCB444A
100
AcDbEntity
  8
DETAIL_HIGH
  6
CONTINUOUS
100
AcDbBlockReference
  2
LE_CYCII_LUT_INSIDES_DATAB_1
 10
0.0
 20
0.0
 30
0.0
  0
INSERT
  5
FFDAE487ACCB4723
100
AcDbEntity
  8
DETAIL_HIGH
  6
CONTINUOUS
100
AcDbBlockReference
  2
LE_CYCII_LUT_INSIDES_DATAA_0
 10
0.0
 20
0.0
 30
0.0
  0
INSERT
  5
FFDAE487ACCB444D
100
AcDbEntity
  8
DETAIL_HIGH
  6
CONTINUOUS
100
AcDbBlockReference
  2
LE_CYCII_LUT_INSIDES_DATAB_0
 10
0.0
 20
0.0
 30
0.0
  0
ENDBLK
  5
FFDAE487ACCB4759
100
AcDbEntity
  8
DETAIL_HIGH
  6
CONTINUOUS
100
AcDbBlockEnd
  0
BLOCK
  5
FFDAE487ACCB4941
100
AcDbEntity
  8
DETAIL_MEDIUM
  6
CONTINUOUS
100
AcDbBlockBegin
  2
LE_CYCII_LUT
 70
     0
 10
0.0
 20
0.0
 30
0.0
  1

  0
INSERT
  5
FD49450EEECE65A2
100
AcDbEntity
  8
DETAIL_HIGH
  6
CONTINUOUS
100
AcDbBlockReference
  2
LE_CYCII_LUT_INSIDES
 10
0.0
 20
0.0
 30
0.0
  0
TEXT
  5
FFDAE487ACCB493F
100
AcDbEntity
  8
DETAIL_HIGH
  6
CONTINUOUS
100
AcDbText
 10
540.857612
 20
-493.85294
 30
0.0
 40
10.0
  1
D
  7
SIMPLEX
100
AcDbText
  0
TEXT
  5
FFDAE487ACCB493E
100
AcDbEntity
  8
DETAIL_HIGH
  6
CONTINUOUS
100
AcDbText
 10
540.857612
 20
-413.85294
 30
0.0
 40
10.0
  1
C
  7
SIMPLEX
100
AcDbText
  0
TEXT
  5
FFDAE487ACCB493D
100
AcDbEntity
  8
DETAIL_HIGH
  6
CONTINUOUS
100
AcDbText
 10
540.857612
 20
-333.85294
 30
0.0
 40
10.0
  1
B
  7
SIMPLEX
100
AcDbText
  0
TEXT
  5
FFDAE487ACCB493C
100
AcDbEntity
  8
DETAIL_HIGH
  6
CONTINUOUS
100
AcDbText
 10
540.857612
 20
-253.85294
 30
0.0
 40
10.0
  1
A
  7
SIMPLEX
100
AcDbText
  0
POLYLINE
  5
FC64CA5DA2BE76AA
100
AcDbEntity
  8
DETAIL_MEDIUM
100
AcDb2dPolyline
 66
     1
 10
0.0
 20
0.0
 30
0.0
 39
2.0
 70
     1
  0
VERTEX
  5
FC64CA5DA2BE76AB
100
AcDbEntity
  8
DETAIL_MEDIUM
100
AcDbVertex
100
AcDb2dVertex
 10
530.236888
 20
-197.85294
 30
0.0
  0
VERTEX
  5
FC64CA5DA2BE76AC
100
AcDbEntity
  8
DETAIL_MEDIUM
100
AcDbVertex
100
AcDb2dVertex
 10
726.238222
 20
-197.85294
 30
0.0
  0
VERTEX
  5
FC64CA5DA2BE76AD
100
AcDbEntity
  8
DETAIL_MEDIUM
100
AcDbVertex
100
AcDb2dVertex
 10
726.238222
 20
-517.85294
 30
0.0
  0
VERTEX
  5
FC64CA5DA2BE76AE
100
AcDbEntity
  8
DETAIL_MEDIUM
100
AcDbVertex
100
AcDb2dVertex
 10
530.236888
 20
-517.85294
 30
0.0
  0
SEQEND
  5
FC64CA5DA2BE76AF
100
AcDbEntity
  8
DETAIL_MEDIUM
  0
ENDBLK
  5
FFDAE487ACCB4942
100
AcDbEntity
  8
DETAIL_MEDIUM
  6
CONTINUOUS
100
AcDbBlockEnd
  0
BLOCK
  5
FFDAE487ACCB6973
100
AcDbEntity
  8
DETAIL_MEDIUM
  6
CONTINUOUS
100
AcDbBlockBegin
  2
LE_CYCII_COUT_WIRE
 70
     0
 10
0.0
 20
0.0
 30
0.0
  1

  0
LINE
  5
FFDAE487ACCB695D
100
AcDbEntity
  8
DETAIL_MEDIUM
  6
CONTINUOUS
100
AcDbLine
 10
406.733217
 20
-688.482788
 30
0.0
 11
430.200229
 21
-688.482788
 31
0.0
  0
LINE
  5
FFDAE487ACCB6961
100
AcDbEntity
  8
DETAIL_MEDIUM
  6
CONTINUOUS
100
AcDbLine
 10
406.733217
 20
-711.240686
 30
0.0
 11
430.221494
 21
-711.240686
 31
0.0
  0
LINE
  5
FFDAE487ACCB6962
100
AcDbEntity
  8
DETAIL_MEDIUM
  6
CONTINUOUS
100
AcDbLine
 10
430.221494
 20
-711.240686
 30
0.0
 11
430.221494
 21
-688.482788
 31
0.0
  0
LINE
  5
FFDAE487ACCB6966
100
AcDbEntity
  8
DETAIL_MEDIUM
  6
CONTINUOUS
100
AcDbLine
 10
406.733217
 20
-688.482788
 30
0.0
 11
406.733217
 21
-711.240686
 31
0.0
  0
LINE
  5
FFDAE487ACCB6968
100
AcDbEntity
  8
DETAIL_MEDIUM
  6
CONTINUOUS
100
AcDbLine
 10
430.221494
 20
-711.240686
 30
0.0
 11
406.733217
 21
-688.482788
 31
0.0
  0
LINE
  5
FFDAE487ACCB696B
100
AcDbEntity
  8
DETAIL_MEDIUM
  6
CONTINUOUS
100
AcDbLine
 10
430.200229
 20
-688.482788
 30
0.0
 11
406.733217
 21
-711.240686
 31
0.0
  0
LINE
  5
FFDAE487ACCB6964
100
AcDbEntity
  8
DETAIL_MEDIUM
  6
CONTINUOUS
100
AcDbLine
 10
418.577113
 20
-658.909318
 30
0.0
 11
418.577113
 21
-688.482788
 31
0.0
  0
LINE
  5
FFDAE487ACCB695A
100
AcDbEntity
  8
DETAIL_MEDIUM
  6
CONTINUOUS
100
AcDbLine
 10
418.794311
 20
-536.0
 30
0.0
 11
418.794311
 21
-578.874975
 31
0.0
  0
LINE
  5
FFDAE487ACCB695B
100
AcDbEntity
  8
DETAIL_MEDIUM
  6
CONTINUOUS
100
AcDbLine
 10
418.794311
 20
-536.0
 30
0.0
 11
627.0
 21
-536.0
 31
0.0
  0
LINE
  5
FFDAE487ACCB695C
100
AcDbEntity
  8
DETAIL_MEDIUM
  6
CONTINUOUS
100
AcDbLine
 10
627.0
 20
-536.0
 30
0.0
 11
627.0
 21
-517.83494
 31
0.0
  0
ENDBLK
  5
FFDAE487ACCB6974
100
AcDbEntity
  8
DETAIL_MEDIUM
  6
CONTINUOUS
100
AcDbBlockEnd
  0
BLOCK
  5
FFDAE487ACCB678C
100
AcDbEntity
  8
PORTS
  6
CONTINUOUS
100
AcDbBlockBegin
  2
LE_CYCII_COUT_PORT
 70
     2
 10
0.0
 20
0.0
 30
0.0
  1

  0
POINT
  5
380ACEAE92EDB70
100
AcDbEntity
  8
PORTS
  6
CONTINUOUS
100
AcDbPoint
 10
418.513636
 20
-578.909318
 30
0.0
  0
POLYLINE
  5
380ACEAE92EDB71
100
AcDbEntity
  8
PORTS
  6
CONTINUOUS
100
AcDb2dPolyline
 66
     1
 10
0.0
 20
0.0
 30
0.0
 70
     1
  0
VERTEX
  5
380ACEAE92EDB72
100
AcDbEntity
  8
PORTS
  6
CONTINUOUS
100
AcDbVertex
100
AcDb2dVertex
 10
418.577113
 20
-658.909318
 30
0.0
  0
VERTEX
  5
380ACEAE92EDB73
100
AcDbEntity
  8
PORTS
  6
CONTINUOUS
100
AcDbVertex
100
AcDb2dVertex
 10
412.577113
 20
-650.909318
 30
0.0
  0
VERTEX
  5
380ACEAE92EDB74
100
AcDbEntity
  8
PORTS
  6
CONTINUOUS
100
AcDbVertex
100
AcDb2dVertex
 10
412.577113
 20
-578.909318
 30
0.0
  0
VERTEX
  5
380ACEAE92EDB75
100
AcDbEntity
  8
PORTS
  6
CONTINUOUS
100
AcDbVertex
100
AcDb2dVertex
 10
424.577113
 20
-578.909318
 30
0.0
  0
VERTEX
  5
380ACEAE92EDB76
100
AcDbEntity
  8
PORTS
  6
CONTINUOUS
100
AcDbVertex
100
AcDb2dVertex
 10
424.577113
 20
-650.909318
 30
0.0
  0
VERTEX
  5
380ACEAE92EDB77
100
AcDbEntity
  8
PORTS
  6
CONTINUOUS
100
AcDbVertex
100
AcDb2dVertex
 10
418.577113
 20
-658.909318
 30
0.0
  0
SEQEND
  5
380ACEAE92EDB78
100
AcDbEntity
  8
PORTS
  6
CONTINUOUS
  0
ATTDEF
  5
380ACEAE92EDB79
100
AcDbEntity
  8
PORTS
  6
CONTINUOUS
100
AcDbText
 10
433.178071
 20
-639.865935
 30
0.0
 40
10.0
  1

  7
SIMPLEX
100
AcDbAttributeDefinition
  3

  2
SIDE
 70
     0
  0
ENDBLK
  5
FFDAE487ACCB678D
100
AcDbEntity
  8
PORTS
  6
CONTINUOUS
100
AcDbBlockEnd
  0
BLOCK
  5
FFDAE487ACCC6B1E
100
AcDbEntity
  8
DETAIL_MEDIUM
  6
CONTINUOUS
100
AcDbBlockBegin
  2
LE_CYCII_DATAD_WIRE
 70
     0
 10
0.0
 20
0.0
 30
0.0
  1

  0
LINE
  5
FFDAE487ACCBDD06
100
AcDbEntity
  8
DETAIL_MEDIUM
  6
CONTINUOUS
100
AcDbLine
 10
376.569623
 20
-478.020835
 30
0.0
 11
530.334612
 21
-478.020835
 31
0.0
  0
LINE
  5
FFDAE487ACCC6B1D
100
AcDbEntity
  8
DETAIL_MEDIUM
  6
CONTINUOUS
100
AcDbLine
 10
296.223321
 20
-477.969834
 30
0.0
 11
49.616702
 21
-477.969834
 31
0.0
  0
LINE
  5
FFDAE487ACCC6B16
100
AcDbEntity
  8
DETAIL_MEDIUM
  6
CONTINUOUS
100
AcDbLine
 10
49.184957
 20
-477.969834
 30
0.0
 11
49.184957
 21
-466.621565
 31
0.0
  0
LINE
  5
FFDAE487ACCC6B17
100
AcDbEntity
  8
DETAIL_MEDIUM
  6
CONTINUOUS
100
AcDbLine
 10
49.184957
 20
-489.318103
 30
0.0
 11
49.184957
 21
-477.969834
 31
0.0
  0
LINE
  5
FFDAE487ACCC6B18
100
AcDbEntity
  8
DETAIL_MEDIUM
  6
CONTINUOUS
100
AcDbLine
 10
49.184957
 20
-489.318103
 30
0.0
 11
26.051947
 21
-489.318103
 31
0.0
  0
LINE
  5
FFDAE487ACCC6B19
100
AcDbEntity
  8
DETAIL_MEDIUM
  6
CONTINUOUS
100
AcDbLine
 10
26.051947
 20
-466.621565
 30
0.0
 11
49.184957
 21
-466.621565
 31
0.0
  0
LINE
  5
FFDAE487ACCC6B1A
100
AcDbEntity
  8
DETAIL_MEDIUM
  6
CONTINUOUS
100
AcDbLine
 10
25.717945
 20
-489.207763
 30
0.0
 11
25.717945
 21
-466.511225
 31
0.0
  0
LINE
  5
FFDAE487ACCC6B1B
100
AcDbEntity
  8
DETAIL_MEDIUM
  6
CONTINUOUS
100
AcDbLine
 10
25.717945
 20
-466.292989
 30
0.0
 11
49.069192
 21
-489.207763
 31
0.0
  0
LINE
  5
FFDAE487ACCC6B1C
100
AcDbEntity
  8
DETAIL_MEDIUM
  6
CONTINUOUS
100
AcDbLine
 10
25.717945
 20
-489.207763
 30
0.0
 11
49.069192
 21
-466.511225
 31
0.0
  0
ENDBLK
  5
FFDAE487ACCC6B1F
100
AcDbEntity
  8
DETAIL_MEDIUM
  6
CONTINUOUS
100
AcDbBlockEnd
  0
BLOCK
  5
FFDAE487ACCBDC6C
100
AcDbEntity
  8
PORTS
  6
CONTINUOUS
100
AcDbBlockBegin
  2
LE_CYCII_DATAD_PORT
 70
     2
 10
0.0
 20
0.0
 30
0.0
  1

  0
ATTDEF
  5
380ACEAE92F2CC9
100
AcDbEntity
  8
PORTS
  6
CONTINUOUS
100
AcDbText
 10
298.238222
 20
-466.146939
 30
0.0
 40
10.0
  1

  7
SIMPLEX
100
AcDbAttributeDefinition
  3

  2
SIDE
 70
     0
  0
POLYLINE
  5
380ACEAE92F2CC1
100
AcDbEntity
  8
PORTS
  6
CONTINUOUS
100
AcDb2dPolyline
 66
     1
 10
0.0
 20
0.0
 30
0.0
 70
     1
  0
VERTEX
  5
380ACEAE92F2CC2
100
AcDbEntity
  8
PORTS
  6
CONTINUOUS
100
AcDbVertex
100
AcDb2dVertex
 10
376.238222
 20
-478.146939
 30
0.0
  0
VERTEX
  5
380ACEAE92F2CC3
100
AcDbEntity
  8
PORTS
  6
CONTINUOUS
100
AcDbVertex
100
AcDb2dVertex
 10
368.238222
 20
-484.146939
 30
0.0
  0
VERTEX
  5
380ACEAE92F2CC4
100
AcDbEntity
  8
PORTS
  6
CONTINUOUS
100
AcDbVertex
100
AcDb2dVertex
 10
296.238222
 20
-484.146939
 30
0.0
  0
VERTEX
  5
380ACEAE92F2CC5
100
AcDbEntity
  8
PORTS
  6
CONTINUOUS
100
AcDbVertex
100
AcDb2dVertex
 10
296.238222
 20
-472.146939
 30
0.0
  0
VERTEX
  5
380ACEAE92F2CC6
100
AcDbEntity
  8
PORTS
  6
CONTINUOUS
100
AcDbVertex
100
AcDb2dVertex
 10
368.238222
 20
-472.146939
 30
0.0
  0
VERTEX
  5
380ACEAE92F2CC7
100
AcDbEntity
  8
PORTS
  6
CONTINUOUS
100
AcDbVertex
100
AcDb2dVertex
 10
376.238222
 20
-478.146939
 30
0.0
  0
SEQEND
  5
380ACEAE92F2CC8
100
AcDbEntity
  8
PORTS
  6
CONTINUOUS
  0
POINT
  5
380ACEAE92F2CC0
100
AcDbEntity
  8
PORTS
  6
CONTINUOUS
100
AcDbPoint
 10
376.238222
 20
-478.146939
 30
0.0
  0
ENDBLK
  5
FFDAE487ACCBDC6D
100
AcDbEntity
  8
PORTS
  6
CONTINUOUS
100
AcDbBlockEnd
  0
BLOCK
  5
FFDAE487ACCBDC69
100
AcDbEntity
  8
DETAIL_MEDIUM
  6
CONTINUOUS
100
AcDbBlockBegin
  2
LE_CYCII_DATAB_WIRE
 70
     0
 10
0.0
 20
0.0
 30
0.0
  1

  0
LINE
  5
FFDAE487ACCBDC60
100
AcDbEntity
  8
DETAIL_MEDIUM
  6
CONTINUOUS
100
AcDbLine
 10
49.184957
 20
-317.78465
 30
0.0
 11
49.184957
 21
-306.436381
 31
0.0
  0
LINE
  5
FFDAE487ACCBDC61
100
AcDbEntity
  8
DETAIL_MEDIUM
  6
CONTINUOUS
100
AcDbLine
 10
49.184957
 20
-329.132919
 30
0.0
 11
49.184957
 21
-317.78465
 31
0.0
  0
LINE
  5
FFDAE487ACCBDC62
100
AcDbEntity
  8
DETAIL_MEDIUM
  6
CONTINUOUS
100
AcDbLine
 10
49.184957
 20
-329.132919
 30
0.0
 11
26.051947
 21
-329.132919
 31
0.0
  0
LINE
  5
FFDAE487ACCBDC63
100
AcDbEntity
  8
DETAIL_MEDIUM
  6
CONTINUOUS
100
AcDbLine
 10
26.051947
 20
-306.436381
 30
0.0
 11
49.184957
 21
-306.436381
 31
0.0
  0
LINE
  5
FFDAE487ACCBDC64
100
AcDbEntity
  8
DETAIL_MEDIUM
  6
CONTINUOUS
100
AcDbLine
 10
25.717945
 20
-329.022579
 30
0.0
 11
25.717945
 21
-306.326041
 31
0.0
  0
LINE
  5
FFDAE487ACCBDC65
100
AcDbEntity
  8
DETAIL_MEDIUM
  6
CONTINUOUS
100
AcDbLine
 10
25.717945
 20
-306.107805
 30
0.0
 11
49.069192
 21
-329.022579
 31
0.0
  0
LINE
  5
FFDAE487ACCBDC66
100
AcDbEntity
  8
DETAIL_MEDIUM
  6
CONTINUOUS
100
AcDbLine
 10
25.717945
 20
-329.022579
 30
0.0
 11
49.069192
 21
-306.326041
 31
0.0
  0
LINE
  5
FFDAE487ACCBDC67
100
AcDbEntity
  8
DETAIL_MEDIUM
  6
CONTINUOUS
100
AcDbLine
 10
296.238222
 20
-317.456666
 30
0.0
 11
49.184957
 21
-317.456666
 31
0.0
  0
LINE
  5
FFDAE487ACCBDC5E
100
AcDbEntity
  8
DETAIL_MEDIUM
  6
CONTINUOUS
100
AcDbLine
 10
375.877769
 20
-317.609892
 30
0.0
 11
530.165768
 21
-317.609892
 31
0.0
  0
ENDBLK
  5
FFDAE487ACCBDC6A
100
AcDbEntity
  8
DETAIL_MEDIUM
  6
CONTINUOUS
100
AcDbBlockEnd
  0
BLOCK
  5
FFDAE487ACCB902B
100
AcDbEntity
  8
PORTS
  6
CONTINUOUS
100
AcDbBlockBegin
  2
LE_CYCII_DATAB_PORT
 70
     2
 10
0.0
 20
0.0
 30
0.0
  1

  0
ATTDEF
  5
380AD728A9D9E18
100
AcDbEntity
  8
PORTS
  6
CONTINUOUS
100
AcDbText
 10
298.238222
 20
-305.85294
 30
0.0
 40
10.0
  1

  7
SIMPLEX
100
AcDbAttributeDefinition
  3

  2
SIDE
 70
     0
  0
POLYLINE
  5
380AD728A9D9E0F
100
AcDbEntity
  8
PORTS
  6
CONTINUOUS
100
AcDb2dPolyline
 66
     1
 10
0.0
 20
0.0
 30
0.0
 70
     1
  0
VERTEX
  5
380AD728A9D9E10
100
AcDbEntity
  8
PORTS
  6
CONTINUOUS
100
AcDbVertex
100
AcDb2dVertex
 10
376.238222
 20
-317.85294
 30
0.0
  0
VERTEX
  5
380AD728A9D9E11
100
AcDbEntity
  8
PORTS
  6
CONTINUOUS
100
AcDbVertex
100
AcDb2dVertex
 10
368.238222
 20
-323.85294
 30
0.0
  0
VERTEX
  5
380AD728A9D9E12
100
AcDbEntity
  8
PORTS
  6
CONTINUOUS
100
AcDbVertex
100
AcDb2dVertex
 10
296.238222
 20
-323.85294
 30
0.0
  0
VERTEX
  5
380AD728A9D9E13
100
AcDbEntity
  8
PORTS
  6
CONTINUOUS
100
AcDbVertex
100
AcDb2dVertex
 10
296.238222
 20
-311.85294
 30
0.0
  0
VERTEX
  5
380AD728A9D9E14
100
AcDbEntity
  8
PORTS
  6
CONTINUOUS
100
AcDbVertex
100
AcDb2dVertex
 10
368.238222
 20
-311.85294
 30
0.0
  0
VERTEX
  5
380AD728A9D9E15
100
AcDbEntity
  8
PORTS
  6
CONTINUOUS
100
AcDbVertex
100
AcDb2dVertex
 10
376.238222
 20
-317.85294
 30
0.0
  0
SEQEND
  5
380AD728A9D9E16
100
AcDbEntity
  8
PORTS
  6
CONTINUOUS
  0
POINT
  5
380AD728A9D9E17
100
AcDbEntity
  8
PORTS
  6
CONTINUOUS
100
AcDbPoint
 10
376.238222
 20
-317.85294
 30
0.0
  0
ENDBLK
  5
FFDAE487ACCB902C
100
AcDbEntity
  8
PORTS
  6
CONTINUOUS
100
AcDbBlockEnd
  0
BLOCK
  5
FFDAE487ACCF4BFB
100
AcDbEntity
  8
DETAIL_MEDIUM
  6
CONTINUOUS
100
AcDbBlockBegin
  2
LE_CYCII_DATAA_WIRE
 70
     0
 10
0.0
 20
0.0
 30
0.0
  1

  0
LINE
  5
FFDAE487ACCF4BF2
100
AcDbEntity
  8
DETAIL_MEDIUM
  6
CONTINUOUS
100
AcDbLine
 10
25.129947
 20
-225.360505
 30
0.0
 11
48.481194
 21
-248.275279
 31
0.0
  0
LINE
  5
FFDAE487ACCF4BED
100
AcDbEntity
  8
DETAIL_MEDIUM
  6
CONTINUOUS
100
AcDbLine
 10
48.596959
 20
-237.03735
 30
0.0
 11
48.596959
 21
-225.689081
 31
0.0
  0
LINE
  5
FFDAE487ACCF4BEE
100
AcDbEntity
  8
DETAIL_MEDIUM
  6
CONTINUOUS
100
AcDbLine
 10
48.596959
 20
-248.385619
 30
0.0
 11
48.596959
 21
-237.03735
 31
0.0
  0
LINE
  5
FFDAE487ACCF4BEF
100
AcDbEntity
  8
DETAIL_MEDIUM
  6
CONTINUOUS
100
AcDbLine
 10
48.596959
 20
-248.385619
 30
0.0
 11
25.463949
 21
-248.385619
 31
0.0
  0
LINE
  5
FFDAE487ACCF4BF0
100
AcDbEntity
  8
DETAIL_MEDIUM
  6
CONTINUOUS
100
AcDbLine
 10
25.463949
 20
-225.689081
 30
0.0
 11
48.596959
 21
-225.689081
 31
0.0
  0
LINE
  5
FFDAE487ACCF4BF1
100
AcDbEntity
  8
DETAIL_MEDIUM
  6
CONTINUOUS
100
AcDbLine
 10
25.129947
 20
-248.275279
 30
0.0
 11
25.129947
 21
-225.578741
 31
0.0
  0
LINE
  5
FFDAE487ACCF4BF3
100
AcDbEntity
  8
DETAIL_MEDIUM
  6
CONTINUOUS
100
AcDbLine
 10
25.129947
 20
-248.275279
 30
0.0
 11
48.481194
 21
-225.578741
 31
0.0
  0
LINE
  5
FFDAE487ACCF4BEB
100
AcDbEntity
  8
DETAIL_MEDIUM
  6
CONTINUOUS
100
AcDbLine
 10
296.238222
 20
-237.136489
 30
0.0
 11
48.596959
 21
-237.136489
 31
0.0
  0
LINE
  5
FFDAE487ACCF4BEC
100
AcDbEntity
  8
DETAIL_MEDIUM
  6
CONTINUOUS
100
AcDbLine
 10
376.238222
 20
-237.136489
 30
0.0
 11
530.111214
 21
-237.136489
 31
0.0
  0
ENDBLK
  5
FFDAE487ACCF4BFC
100
AcDbEntity
  8
DETAIL_MEDIUM
  6
CONTINUOUS
100
AcDbBlockEnd
  0
BLOCK
  5
FFDAE487ACCB9025
100
AcDbEntity
  8
PORTS
  6
CONTINUOUS
100
AcDbBlockBegin
  2
LE_CYCII_DATAA_PORT
 70
     2
 10
0.0
 20
0.0
 30
0.0
  1

  0
POLYLINE
  5
380AD728A9D9DF9
100
AcDbEntity
  8
PORTS
  6
CONTINUOUS
100
AcDb2dPolyline
 66
     1
 10
0.0
 20
0.0
 30
0.0
 70
     1
  0
VERTEX
  5
380AD728A9D9DFA
100
AcDbEntity
  8
PORTS
  6
CONTINUOUS
100
AcDbVertex
100
AcDb2dVertex
 10
375.998471
 20
-237.136489
 30
0.0
  0
VERTEX
  5
380AD728A9D9DFB
100
AcDbEntity
  8
PORTS
  6
CONTINUOUS
100
AcDbVertex
100
AcDb2dVertex
 10
367.998471
 20
-243.136489
 30
0.0
  0
VERTEX
  5
380AD728A9D9DFC
100
AcDbEntity
  8
PORTS
  6
CONTINUOUS
100
AcDbVertex
100
AcDb2dVertex
 10
295.998471
 20
-243.136489
 30
0.0
  0
VERTEX
  5
380AD728A9D9DFD
100
AcDbEntity
  8
PORTS
  6
CONTINUOUS
100
AcDbVertex
100
AcDb2dVertex
 10
295.998471
 20
-231.136489
 30
0.0
  0
VERTEX
  5
380AD728A9D9DFE
100
AcDbEntity
  8
PORTS
  6
CONTINUOUS
100
AcDbVertex
100
AcDb2dVertex
 10
367.998471
 20
-231.136489
 30
0.0
  0
VERTEX
  5
380AD728A9D9DFF
100
AcDbEntity
  8
PORTS
  6
CONTINUOUS
100
AcDbVertex
100
AcDb2dVertex
 10
375.998471
 20
-237.136489
 30
0.0
  0
SEQEND
  5
380AD728A9D9E00
100
AcDbEntity
  8
PORTS
  6
CONTINUOUS
  0
POINT
  5
380AD728A9D9E01
100
AcDbEntity
  8
PORTS
  6
CONTINUOUS
100
AcDbPoint
 10
375.998471
 20
-237.136489
 30
0.0
  0
ATTDEF
  5
380AD728A9D9E02
100
AcDbEntity
  8
PORTS
  6
CONTINUOUS
100
AcDbText
 10
295.998471
 20
-225.136489
 30
0.0
 40
10.0
  1

  7
SIMPLEX
100
AcDbAttributeDefinition
  3

  2
SIDE
 70
     0
  0
ENDBLK
  5
FFDAE487ACCB9026
100
AcDbEntity
  8
PORTS
  6
CONTINUOUS
100
AcDbBlockEnd
  0
BLOCK
  5
FFDAE487ACCB4F53
100
AcDbEntity
  8
DETAIL_MEDIUM
  6
CONTINUOUS
100
AcDbBlockBegin
  2
LE_CYCII_DATAC_WIRE_0
 70
     0
 10
0.0
 20
0.0
 30
0.0
  1

  0
LINE
  5
FFDAE487ACCB4F47
100
AcDbEntity
  8
DETAIL_MEDIUM
  6
CONTINUOUS
100
AcDbLine
 10
49.184957
 20
-405.063389
 30
0.0
 11
49.184957
 21
-393.71512
 31
0.0
  0
LINE
  5
FFDAE487ACCB4F48
100
AcDbEntity
  8
DETAIL_MEDIUM
  6
CONTINUOUS
100
AcDbLine
 10
49.184957
 20
-416.411658
 30
0.0
 11
49.184957
 21
-405.063389
 31
0.0
  0
LINE
  5
FFDAE487ACCB4F49
100
AcDbEntity
  8
DETAIL_MEDIUM
  6
CONTINUOUS
100
AcDbLine
 10
49.184957
 20
-416.411658
 30
0.0
 11
26.051947
 21
-416.411658
 31
0.0
  0
LINE
  5
FFDAE487ACCB4F4A
100
AcDbEntity
  8
DETAIL_MEDIUM
  6
CONTINUOUS
100
AcDbLine
 10
26.051947
 20
-393.71512
 30
0.0
 11
49.184957
 21
-393.71512
 31
0.0
  0
LINE
  5
FFDAE487ACCB4F4B
100
AcDbEntity
  8
DETAIL_MEDIUM
  6
CONTINUOUS
100
AcDbLine
 10
25.717945
 20
-416.301318
 30
0.0
 11
25.717945
 21
-393.60478
 31
0.0
  0
LINE
  5
FFDAE487ACCB4F4C
100
AcDbEntity
  8
DETAIL_MEDIUM
  6
CONTINUOUS
100
AcDbLine
 10
25.717945
 20
-393.386544
 30
0.0
 11
49.069192
 21
-416.301318
 31
0.0
  0
LINE
  5
FFDAE487ACCB4F4D
100
AcDbEntity
  8
DETAIL_MEDIUM
  6
CONTINUOUS
100
AcDbLine
 10
25.717945
 20
-416.301318
 30
0.0
 11
49.069192
 21
-393.60478
 31
0.0
  0
LINE
  5
FFDAE487ACCB4F4E
100
AcDbEntity
  8
DETAIL_MEDIUM
  6
CONTINUOUS
100
AcDbLine
 10
125.905811
 20
-404.647606
 30
0.0
 11
49.18383
 21
-404.647606
 31
0.0
  0
ENDBLK
  5
FFDAE487ACCB4F54
100
AcDbEntity
  8
DETAIL_MEDIUM
  6
CONTINUOUS
100
AcDbBlockEnd
  0
BLOCK
  5
FFDAE487B512BF37
100
AcDbEntity
  8
DETAIL_MEDIUM
  6
CONTINUOUS
100
AcDbBlockBegin
  2
LE_CYCII_DATAC_WIRE_1
 70
     0
 10
0.0
 20
0.0
 30
0.0
  1

  0
LINE
  5
FFDAE487B512BF35
100
AcDbEntity
  8
DETAIL_MEDIUM
  6
CONTINUOUS
100
AcDbLine
 10
125.469339
 20
-404.647606
 30
0.0
 11
199.319982
 21
-404.647606
 31
0.0
  0
ENDBLK
  5
FFDAE487B512BF38
100
AcDbEntity
  8
DETAIL_MEDIUM
  6
CONTINUOUS
100
AcDbBlockEnd
  0
BLOCK
  5
FFDAE487ACCB663F
100
AcDbEntity
  8
DETAIL_MEDIUM
  6
CONTINUOUS
100
AcDbBlockBegin
  2
LE_CYCII_DATAC_WIRE_2
 70
     0
 10
0.0
 20
0.0
 30
0.0
  1

  0
LINE
  5
FFDAE487ACCB663D
100
AcDbEntity
  8
DETAIL_MEDIUM
  6
CONTINUOUS
100
AcDbLine
 10
376.238222
 20
-417.85294
 30
0.0
 11
475.922114
 21
-417.85294
 31
0.0
  0
ENDBLK
  5
FFDAE487ACCB6640
100
AcDbEntity
  8
DETAIL_MEDIUM
  6
CONTINUOUS
100
AcDbBlockEnd
  0
BLOCK
  5
FFDAE487ACCB6780
100
AcDbEntity
  8
PORTS
  6
CONTINUOUS
100
AcDbBlockBegin
  2
LE_CYCII_DATAC_PORT
 70
     2
 10
0.0
 20
0.0
 30
0.0
  1

  0
ATTDEF
  5
FFDAE487ACCB677F
100
AcDbEntity
  8
PORTS
  6
CONTINUOUS
100
AcDbText
 10
298.238222
 20
-405.983702
 30
0.0
 40
10.0
  1

  7
SIMPLEX
100
AcDbAttributeDefinition
  3

  2
SIDE
 70
     0
  0
POLYLINE
  5
FFDAE487ACCB6777
100
AcDbEntity
  8
PORTS
  6
CONTINUOUS
100
AcDb2dPolyline
 66
     1
 10
0.0
 20
0.0
 30
0.0
 70
     1
  0
VERTEX
  5
FFDAE487ACCB6778
100
AcDbEntity
  8
PORTS
  6
CONTINUOUS
100
AcDbVertex
100
AcDb2dVertex
 10
376.238222
 20
-417.983702
 30
0.0
  0
VERTEX
  5
FFDAE487ACCB6779
100
AcDbEntity
  8
PORTS
  6
CONTINUOUS
100
AcDbVertex
100
AcDb2dVertex
 10
368.238222
 20
-423.983702
 30
0.0
  0
VERTEX
  5
FFDAE487ACCB677A
100
AcDbEntity
  8
PORTS
  6
CONTINUOUS
100
AcDbVertex
100
AcDb2dVertex
 10
296.238222
 20
-423.983702
 30
0.0
  0
VERTEX
  5
FFDAE487ACCB677B
100
AcDbEntity
  8
PORTS
  6
CONTINUOUS
100
AcDbVertex
100
AcDb2dVertex
 10
296.238222
 20
-411.983702
 30
0.0
  0
VERTEX
  5
FFDAE487ACCB677C
100
AcDbEntity
  8
PORTS
  6
CONTINUOUS
100
AcDbVertex
100
AcDb2dVertex
 10
368.238222
 20
-411.983702
 30
0.0
  0
VERTEX
  5
FFDAE487ACCB677D
100
AcDbEntity
  8
PORTS
  6
CONTINUOUS
100
AcDbVertex
100
AcDb2dVertex
 10
376.238222
 20
-417.983702
 30
0.0
  0
SEQEND
  5
FFDAE487ACCB677E
100
AcDbEntity
  8
PORTS
  6
CONTINUOUS
  0
POINT
  5
FFDAE487ACCB6776
100
AcDbEntity
  8
PORTS
  6
CONTINUOUS
100
AcDbPoint
 10
376.238222
 20
-417.983702
 30
0.0
  0
ENDBLK
  5
FFDAE487ACCB6781
100
AcDbEntity
  8
PORTS
  6
CONTINUOUS
100
AcDbBlockEnd
  0
BLOCK
  5
FC351B9CCF0866F6
100
AcDbEntity
  8
DETAIL_MEDIUM
  6
CONTINUOUS
100
AcDbBlockBegin
  2
LE_CYCII_DATAC_MUX
 70
     0
 10
0.0
 20
0.0
 30
0.0
  1

  0
POLYLINE
  5
FC351B9CCEFD3B82
100
AcDbEntity
  8
DETAIL_MEDIUM
100
AcDb2dPolyline
 66
     1
 10
0.0
 20
0.0
 30
0.0
 39
2.0
 70
     1
  0
VERTEX
  5
FC351B9CCEFD3B83
100
AcDbEntity
  8
DETAIL_MEDIUM
100
AcDbVertex
100
AcDb2dVertex
 10
25.7754
 20
-333.819754
 30
0.0
  0
VERTEX
  5
FC351B9CCEFD3B84
100
AcDbEntity
  8
DETAIL_MEDIUM
100
AcDbVertex
100
AcDb2dVertex
 10
55.7754
 20
-343.819754
 30
0.0
  0
VERTEX
  5
FC351B9CCEFD3B85
100
AcDbEntity
  8
DETAIL_MEDIUM
100
AcDbVertex
100
AcDb2dVertex
 10
55.7754
 20
-383.819754
 30
0.0
  0
VERTEX
  5
FC351B9CCEFD3B86
100
AcDbEntity
  8
DETAIL_MEDIUM
100
AcDbVertex
100
AcDb2dVertex
 10
25.7754
 20
-393.819754
 30
0.0
  0
VERTEX
  5
FC351B9CCEFD3B87
100
AcDbEntity
  8
DETAIL_MEDIUM
100
AcDbVertex
100
AcDb2dVertex
 10
25.7754
 20
-333.819754
 30
0.0
  0
SEQEND
  5
FC351B9CCEFD3B88
100
AcDbEntity
  8
DETAIL_MEDIUM
  0
LINE
  5
FC351B9CCF0866EA
100
AcDbEntity
  8
DETAIL_MEDIUM
  6
CONTINUOUS
100
AcDbLine
 10
55.531957
 20
-364.76673
 30
0.0
 11
122.458747
 21
-364.76673
 31
0.0
  0
ENDBLK
  5
FC351B9CCF0866F7
100
AcDbEntity
  8
DETAIL_MEDIUM
  6
CONTINUOUS
100
AcDbBlockEnd
  0
BLOCK
  5
FC351B9CCF0866F9
100
AcDbEntity
  8
DETAIL_MEDIUM
  6
CONTINUOUS
100
AcDbBlockBegin
  2
LE_CYCII_DATAC_MUX_SEL_DATAC
 70
     0
 10
0.0
 20
0.0
 30
0.0
  1

  0
LINE
  5
FC351B9CCF0866EC
100
AcDbEntity
  8
DETAIL_MEDIUM
  6
CONTINUOUS
100
AcDbLine
 10
25.728621
 20
-350.64936
 30
0.0
 11
55.531957
 21
-364.76673
 31
0.0
  0
ENDBLK
  5
FC351B9CCF0866FA
100
AcDbEntity
  8
DETAIL_MEDIUM
  6
CONTINUOUS
100
AcDbBlockEnd
  0
BLOCK
  5
FC351B9CCF0866FC
100
AcDbEntity
  8
DETAIL_MEDIUM
  6
CONTINUOUS
100
AcDbBlockBegin
  2
LE_CYCII_DATAC_MUX_SEL_QFBK
 70
     0
 10
0.0
 20
0.0
 30
0.0
  1

  0
LINE
  5
FC351B9CCF0866ED
100
AcDbEntity
  8
DETAIL_MEDIUM
  6
CONTINUOUS
100
AcDbLine
 10
55.531957
 20
-364.76673
 30
0.0
 11
25.728621
 21
-382.021293
 31
0.0
  0
ENDBLK
  5
FC351B9CCF0866FD
100
AcDbEntity
  8
DETAIL_MEDIUM
  6
CONTINUOUS
100
AcDbBlockEnd
  0
BLOCK
  5
FFDAE487AD0219FE
100
AcDbEntity
  8
DETAIL_MEDIUM
  6
CONTINUOUS
100
AcDbBlockBegin
  2
LE_CYCII_DATAC_TO_SDATA_WIRE
 70
     0
 10
0.0
 20
0.0
 30
0.0
  1

  0
LINE
  5
FFDAE487AD0219FC
100
AcDbEntity
  8
DETAIL_MEDIUM
  6
CONTINUOUS
100
AcDbLine
 10
964.681535
 20
-234.332678
 30
0.0
 11
991.571759
 21
-234.332678
 31
0.0
  0
LINE
  5
FFDAE487AD0219FA
100
AcDbEntity
  8
DETAIL_MEDIUM
  6
CONTINUOUS
100
AcDbLine
 10
964.681535
 20
-160.696955
 30
0.0
 11
964.681535
 21
-234.332678
 31
0.0
  0
LINE
  5
FFDAE487AD0219F8
100
AcDbEntity
  8
DETAIL_MEDIUM
  6
CONTINUOUS
100
AcDbLine
 10
125.469339
 20
-160.696955
 30
0.0
 11
964.681535
 21
-160.696955
 31
0.0
  0
LINE
  5
FFDAE487AD0219F7
100
AcDbEntity
  8
DETAIL_MEDIUM
  6
CONTINUOUS
100
AcDbLine
 10
125.469339
 20
-404.647606
 30
0.0
 11
125.469339
 21
-160.696955
 31
0.0
  0
ENDBLK
  5
FFDAE487AD0219FF
100
AcDbEntity
  8
DETAIL_MEDIUM
  6
CONTINUOUS
100
AcDbBlockEnd
  0
BLOCK
  5
FFDAE487BD5A2F1F
100
AcDbEntity
  8
DETAIL_MEDIUM
  6
CONTINUOUS
100
AcDbBlockBegin
  2
LE_CYCII_POINT_0
 70
     0
 10
0.0
 20
0.0
 30
0.0
  1

  0
POINT
  5
FFDAE487BD5A2F1D
100
AcDbEntity
  8
DETAIL_MEDIUM
  6
CONTINUOUS
100
AcDbPoint
 10
125.469339
 20
-404.647606
 30
0.0
  0
ENDBLK
  5
FFDAE487BD5A2F20
100
AcDbEntity
  8
DETAIL_MEDIUM
  6
CONTINUOUS
100
AcDbBlockEnd
  0
BLOCK
  5
FFDAE487ACD34184
100
AcDbEntity
  8
DETAIL_MEDIUM
  6
CONTINUOUS
100
AcDbBlockBegin
  2
LE_CYCII_CIN_WIRE
 70
     0
 10
0.0
 20
0.0
 30
0.0
  1

  0
LINE
  5
FFDAE487ACD3417D
100
AcDbEntity
  8
DETAIL_MEDIUM
  6
CONTINUOUS
100
AcDbLine
 10
427.876753
 20
-23.824896
 30
0.0
 11
427.876753
 21
-12.476627
 31
0.0
  0
LINE
  5
FFDAE487ACD3417E
100
AcDbEntity
  8
DETAIL_MEDIUM
  6
CONTINUOUS
100
AcDbLine
 10
427.876753
 20
-35.173165
 30
0.0
 11
427.876753
 21
-23.824896
 31
0.0
  0
LINE
  5
FFDAE487ACD3417F
100
AcDbEntity
  8
DETAIL_MEDIUM
  6
CONTINUOUS
100
AcDbLine
 10
427.876753
 20
-35.173165
 30
0.0
 11
404.743743
 21
-35.173165
 31
0.0
  0
LINE
  5
FFDAE487ACD34180
100
AcDbEntity
  8
DETAIL_MEDIUM
  6
CONTINUOUS
100
AcDbLine
 10
404.743743
 20
-12.476627
 30
0.0
 11
427.876753
 21
-12.476627
 31
0.0
  0
LINE
  5
FFDAE487ACD34181
100
AcDbEntity
  8
DETAIL_MEDIUM
  6
CONTINUOUS
100
AcDbLine
 10
404.409741
 20
-35.062825
 30
0.0
 11
404.409741
 21
-12.366287
 31
0.0
  0
LINE
  5
FFDAE487ACD34182
100
AcDbEntity
  8
DETAIL_MEDIUM
  6
CONTINUOUS
100
AcDbLine
 10
404.409741
 20
-12.148051
 30
0.0
 11
427.760988
 21
-35.062825
 31
0.0
  0
LINE
  5
FFDAE487ACD34183
100
AcDbEntity
  8
DETAIL_MEDIUM
  6
CONTINUOUS
100
AcDbLine
 10
404.409741
 20
-35.062825
 30
0.0
 11
427.760988
 21
-12.366287
 31
0.0
  0
LINE
  5
FFDAE487ACD34175
100
AcDbEntity
  8
DETAIL_MEDIUM
  6
CONTINUOUS
100
AcDbLine
 10
416.238222
 20
-57.85294
 30
0.0
 11
416.238222
 21
-35.354868
 31
0.0
  0
LINE
  5
FFDAE487ACD34174
100
AcDbEntity
  8
DETAIL_MEDIUM
  6
CONTINUOUS
100
AcDbLine
 10
416.238222
 20
-137.85294
 30
0.0
 11
416.238222
 21
-183.006426
 31
0.0
  0
ENDBLK
  5
FFDAE487ACD34185
100
AcDbEntity
  8
DETAIL_MEDIUM
  6
CONTINUOUS
100
AcDbBlockEnd
  0
BLOCK
  5
FFDAE487ACCC6B82
100
AcDbEntity
  8
PORTS
  6
CONTINUOUS
100
AcDbBlockBegin
  2
LE_CYCII_CIN_PORT
 70
     2
 10
0.0
 20
0.0
 30
0.0
  1

  0
POINT
  5
380AD728A9F548C
100
AcDbEntity
  8
PORTS
  6
CONTINUOUS
100
AcDbPoint
 10
416.238222
 20
-137.85294
 30
0.0
  0
POLYLINE
  5
380AD728A9F5484
100
AcDbEntity
  8
PORTS
  6
CONTINUOUS
100
AcDb2dPolyline
 66
     1
 10
0.0
 20
0.0
 30
0.0
 70
     1
  0
VERTEX
  5
380AD728A9F5485
100
AcDbEntity
  8
PORTS
  6
CONTINUOUS
100
AcDbVertex
100
AcDb2dVertex
 10
416.238222
 20
-137.85294
 30
0.0
  0
VERTEX
  5
380AD728A9F5486
100
AcDbEntity
  8
PORTS
  6
CONTINUOUS
100
AcDbVertex
100
AcDb2dVertex
 10
410.238222
 20
-129.85294
 30
0.0
  0
VERTEX
  5
380AD728A9F5487
100
AcDbEntity
  8
PORTS
  6
CONTINUOUS
100
AcDbVertex
100
AcDb2dVertex
 10
410.238222
 20
-57.85294
 30
0.0
  0
VERTEX
  5
380AD728A9F5488
100
AcDbEntity
  8
PORTS
  6
CONTINUOUS
100
AcDbVertex
100
AcDb2dVertex
 10
422.238222
 20
-57.85294
 30
0.0
  0
VERTEX
  5
380AD728A9F5489
100
AcDbEntity
  8
PORTS
  6
CONTINUOUS
100
AcDbVertex
100
AcDb2dVertex
 10
422.238222
 20
-129.85294
 30
0.0
  0
VERTEX
  5
380AD728A9F548A
100
AcDbEntity
  8
PORTS
  6
CONTINUOUS
100
AcDbVertex
100
AcDb2dVertex
 10
416.238222
 20
-137.85294
 30
0.0
  0
SEQEND
  5
380AD728A9F548B
100
AcDbEntity
  8
PORTS
  6
CONTINUOUS
  0
ATTDEF
  5
380AD728A9F5483
100
AcDbEntity
  8
PORTS
  6
CONTINUOUS
100
AcDbText
 10
376.637918
 20
-69.102511
 30
0.0
 40
10.0
  1

  7
SIMPLEX
100
AcDbAttributeDefinition
  3

  2
SIDE
 70
     0
  0
ENDBLK
  5
FFDAE487ACCC6B83
100
AcDbEntity
  8
PORTS
  6
CONTINUOUS
100
AcDbBlockEnd
  0
BLOCK
  5
FC351B9CCEF9828A
100
AcDbEntity
  8
DETAIL_MEDIUM
  6
CONTINUOUS
100
AcDbBlockBegin
  2
LE_CYCII_COMBOUT_WIRE_0
 70
     0
 10
0.0
 20
0.0
 30
0.0
  1

  0
LINE
  5
FC351B8BE9A2E0A5
100
AcDbEntity
  8
DETAIL_MEDIUM
  6
CONTINUOUS
100
AcDbLine
 10
552.692039
 20
-223.85961
 30
0.0
 11
594.593341
 21
-223.85961
 31
0.0
  0
ENDBLK
  5
FC351B9CCEF9828C
100
AcDbEntity
  8
DETAIL_MEDIUM
  6
CONTINUOUS
100
AcDbBlockEnd
  0
BLOCK
  5
FFDAE487BD5A324A
100
AcDbEntity
  8
DETAIL_MEDIUM
  6
CONTINUOUS
100
AcDbBlockBegin
  2
LE_CYCII_COMBOUT_WIRE_1
 70
     0
 10
0.0
 20
0.0
 30
0.0
  1

  0
LINE
  5
FFDAE487BD5A3249
100
AcDbEntity
  8
DETAIL_MEDIUM
  6
CONTINUOUS
100
AcDbLine
 10
865.268392
 20
-277.381132
 30
0.0
 11
848.602413
 21
-277.381132
 31
0.0
  0
ENDBLK
  5
FFDAE487BD5A324B
100
AcDbEntity
  8
DETAIL_MEDIUM
  6
CONTINUOUS
100
AcDbBlockEnd
  0
BLOCK
  5
FFDAE487B11EEEA9
100
AcDbEntity
  8
DETAIL_MEDIUM
  6
CONTINUOUS
100
AcDbBlockBegin
  2
LE_CYCII_COMBOUT_WIRE_2
 70
     0
 10
0.0
 20
0.0
 30
0.0
  1

  0
LINE
  5
FFDAE487B11EEEA7
100
AcDbEntity
  8
DETAIL_MEDIUM
  6
CONTINUOUS
100
AcDbLine
 10
865.268392
 20
-438.250241
 30
0.0
 11
865.268392
 21
-277.381132
 31
0.0
  0
LINE
  5
FFDAE487B11EEEA5
100
AcDbEntity
  8
DETAIL_MEDIUM
  6
CONTINUOUS
100
AcDbLine
 10
865.268392
 20
-438.250241
 30
0.0
 11
1427.972167
 21
-438.250241
 31
0.0
  0
LINE
  5
FFDAE487B11EEE9F
100
AcDbEntity
  8
DETAIL_MEDIUM
  6
CONTINUOUS
100
AcDbLine
 10
1428.545161
 20
-426.833503
 30
0.0
 11
1451.852858
 21
-426.833503
 31
0.0
  0
LINE
  5
FFDAE487B11EEEA0
100
AcDbEntity
  8
DETAIL_MEDIUM
  6
CONTINUOUS
100
AcDbLine
 10
1451.852858
 20
-426.833503
 30
0.0
 11
1451.852858
 21
-449.61148
 31
0.0
  0
LINE
  5
FFDAE487B11EEEA1
100
AcDbEntity
  8
DETAIL_MEDIUM
  6
CONTINUOUS
100
AcDbLine
 10
1451.852858
 20
-449.61148
 30
0.0
 11
1428.545161
 21
-449.61148
 31
0.0
  0
LINE
  5
FFDAE487B11EEEA2
100
AcDbEntity
  8
DETAIL_MEDIUM
  6
CONTINUOUS
100
AcDbLine
 10
1428.545161
 20
-449.61148
 30
0.0
 11
1428.545161
 21
-426.833503
 31
0.0
  0
LINE
  5
FFDAE487B11EEEA3
100
AcDbEntity
  8
DETAIL_MEDIUM
  6
CONTINUOUS
100
AcDbLine
 10
1428.545161
 20
-426.833503
 30
0.0
 11
1451.852858
 21
-449.61148
 31
0.0
  0
LINE
  5
FFDAE487B11EEEA4
100
AcDbEntity
  8
DETAIL_MEDIUM
  6
CONTINUOUS
100
AcDbLine
 10
1428.545161
 20
-449.61148
 30
0.0
 11
1451.852858
 21
-426.833503
 31
0.0
  0
ENDBLK
  5
FFDAE487B11EEEAA
100
AcDbEntity
  8
DETAIL_MEDIUM
  6
CONTINUOUS
100
AcDbBlockEnd
  0
BLOCK
  5
FFDAE487BD5A30B5
100
AcDbEntity
  8
DETAIL_MEDIUM
  6
CONTINUOUS
100
AcDbBlockBegin
  2
LE_CYCII_COMBOUT_WIRE_3
 70
     0
 10
0.0
 20
0.0
 30
0.0
  1

  0
LINE
  5
FFDAE487BD5A30B4
100
AcDbEntity
  8
DETAIL_MEDIUM
  6
CONTINUOUS
100
AcDbLine
 10
865.268392
 20
-277.381132
 30
0.0
 11
895.943747
 21
-277.381132
 31
0.0
  0
ENDBLK
  5
FFDAE487BD5A30B6
100
AcDbEntity
  8
DETAIL_MEDIUM
  6
CONTINUOUS
100
AcDbBlockEnd
  0
BLOCK
  5
FFDAE487AF4E0BDB
100
AcDbEntity
  8
PORTS
  6
CONTINUOUS
100
AcDbBlockBegin
  2
LE_CYCII_COMBOUT_PORT
 70
     2
 10
0.0
 20
0.0
 30
0.0
  1

  0
POLYLINE
  5
FFDAE487AF4E0BD2
100
AcDbEntity
  8
PORTS
  6
CONTINUOUS
100
AcDb2dPolyline
 66
     1
 10
0.0
 20
0.0
 30
0.0
 70
     1
  0
VERTEX
  5
FFDAE487AF4E0BD3
100
AcDbEntity
  8
PORTS
  6
CONTINUOUS
100
AcDbVertex
100
AcDb2dVertex
 10
848.597034
 20
-276.838725
 30
0.0
  0
VERTEX
  5
FFDAE487AF4E0BD4
100
AcDbEntity
  8
PORTS
  6
CONTINUOUS
100
AcDbVertex
100
AcDb2dVertex
 10
840.597034
 20
-282.838725
 30
0.0
  0
VERTEX
  5
FFDAE487AF4E0BD5
100
AcDbEntity
  8
PORTS
  6
CONTINUOUS
100
AcDbVertex
100
AcDb2dVertex
 10
768.597034
 20
-282.838725
 30
0.0
  0
VERTEX
  5
FFDAE487AF4E0BD6
100
AcDbEntity
  8
PORTS
  6
CONTINUOUS
100
AcDbVertex
100
AcDb2dVertex
 10
768.597034
 20
-270.838725
 30
0.0
  0
VERTEX
  5
FFDAE487AF4E0BD7
100
AcDbEntity
  8
PORTS
  6
CONTINUOUS
100
AcDbVertex
100
AcDb2dVertex
 10
840.597034
 20
-270.838725
 30
0.0
  0
VERTEX
  5
FFDAE487AF4E0BD8
100
AcDbEntity
  8
PORTS
  6
CONTINUOUS
100
AcDbVertex
100
AcDb2dVertex
 10
848.597034
 20
-276.838725
 30
0.0
  0
SEQEND
  5
FFDAE487AF4E0BD9
100
AcDbEntity
  8
PORTS
  6
CONTINUOUS
  0
ATTDEF
  5
FFDAE487AF4E0BD1
100
AcDbEntity
  8
PORTS
  6
CONTINUOUS
100
AcDbText
 10
780.464604
 20
-264.971155
 30
0.0
 40
10.0
  1

  7
SIMPLEX
100
AcDbAttributeDefinition
  3

  2
SIDE
 70
     0
  0
POINT
  5
FFDAE487AF4E0BDA
100
AcDbEntity
  8
PORTS
  6
CONTINUOUS
100
AcDbPoint
 10
768.597034
 20
-276.938613
 30
0.0
  0
ENDBLK
  5
FFDAE487AF4E0BDC
100
AcDbEntity
  8
PORTS
  6
CONTINUOUS
100
AcDbBlockEnd
  0
BLOCK
  5
FFDAE487ACCB4734
100
AcDbEntity
  8
DETAIL_MEDIUM
  6
CONTINUOUS
100
AcDbBlockBegin
  2
LE_CYCII_POINT_1
 70
     0
 10
0.0
 20
0.0
 30
0.0
  1

  0
POINT
  5
380AD728A9D0BB4
100
AcDbEntity
  8
DETAIL_MEDIUM
  6
CONTINUOUS
100
AcDbPoint
 10
416.238222
 20
-183.006426
 30
0.0
  0
ENDBLK
  5
FFDAE487ACCB4735
100
AcDbEntity
  8
DETAIL_MEDIUM
  6
CONTINUOUS
100
AcDbBlockEnd
  0
BLOCK
  5
FFDAE487ACCB4742
100
AcDbEntity
  8
DETAIL_MEDIUM
  6
CONTINUOUS
100
AcDbBlockBegin
  2
LE_CYCII_CIN_WIRE_1
 70
     0
 10
0.0
 20
0.0
 30
0.0
  1

  0
LINE
  5
FFDAE487ACCB4741
100
AcDbEntity
  8
DETAIL_MEDIUM
  6
CONTINUOUS
100
AcDbLine
 10
416.238222
 20
-183.006426
 30
0.0
 11
416.238222
 21
-378.180728
 31
0.0
  0
LINE
  5
FFDAE487ACCB4740
100
AcDbEntity
  8
DETAIL_MEDIUM
  6
CONTINUOUS
100
AcDbLine
 10
415.911538
 20
-378.180728
 30
0.0
 11
475.916322
 21
-378.180728
 31
0.0
  0
ENDBLK
  5
FFDAE487ACCB4743
100
AcDbEntity
  8
DETAIL_MEDIUM
  6
CONTINUOUS
100
AcDbBlockEnd
  0
BLOCK
  5
FFDAE487ACCB440A
100
AcDbEntity
  8
DETAIL_MEDIUM
  6
CONTINUOUS
100
AcDbBlockBegin
  2
LE_CYCII_CIN_DATAC_MUX
 70
     0
 10
0.0
 20
0.0
 30
0.0
  1

  0
LINE
  5
FFDAE487ACCB4408
100
AcDbEntity
  8
DETAIL_MEDIUM
  6
CONTINUOUS
100
AcDbLine
 10
505.981102
 20
-397.732297
 30
0.0
 11
530.301075
 21
-397.732297
 31
0.0
  0
POLYLINE
  5
380AD728A25E2E3
100
AcDbEntity
  8
DETAIL_MEDIUM
100
AcDb2dPolyline
 66
     1
 10
0.0
 20
0.0
 30
0.0
 39
2.0
 70
     1
  0
VERTEX
  5
380AD728A25E2E4
100
AcDbEntity
  8
DETAIL_MEDIUM
100
AcDbVertex
100
AcDb2dVertex
 10
475.962635
 20
-366.831565
 30
0.0
  0
VERTEX
  5
380AD728A25E2E5
100
AcDbEntity
  8
DETAIL_MEDIUM
100
AcDbVertex
100
AcDb2dVertex
 10
505.962635
 20
-376.831565
 30
0.0
  0
VERTEX
  5
380AD728A25E2E6
100
AcDbEntity
  8
DETAIL_MEDIUM
100
AcDbVertex
100
AcDb2dVertex
 10
505.962635
 20
-416.831565
 30
0.0
  0
VERTEX
  5
380AD728A25E2E7
100
AcDbEntity
  8
DETAIL_MEDIUM
100
AcDbVertex
100
AcDb2dVertex
 10
475.962635
 20
-426.831565
 30
0.0
  0
VERTEX
  5
380AD728A25E2E8
100
AcDbEntity
  8
DETAIL_MEDIUM
100
AcDbVertex
100
AcDb2dVertex
 10
475.962635
 20
-366.831565
 30
0.0
  0
SEQEND
  5
380AD728A25E2E9
100
AcDbEntity
  8
DETAIL_MEDIUM
  0
ENDBLK
  5
FFDAE487ACCB440B
100
AcDbEntity
  8
DETAIL_MEDIUM
  6
CONTINUOUS
100
AcDbBlockEnd
  0
BLOCK
  5
FC351B9CCF70A52E
100
AcDbEntity
  8
DETAIL_MEDIUM
  6
CONTINUOUS
100
AcDbBlockBegin
  2
LE_CYCII_CIN_DATAC_MUX_SEL_CIN
 70
     0
 10
0.0
 20
0.0
 30
0.0
  1

  0
LINE
  5
FC351B9CCF70A528
100
AcDbEntity
  8
DETAIL_MEDIUM
  6
CONTINUOUS
100
AcDbLine
 10
302.330753
 20
-324.01138
 30
0.0
 11
332.134089
 21
-343.880271
 31
0.0
  0
ENDBLK
  5
FC351B9CCF70A52F
100
AcDbEntity
  8
DETAIL_MEDIUM
  6
CONTINUOUS
100
AcDbBlockEnd
  0
BLOCK
  5
FC351B9CCF70A531
100
AcDbEntity
  8
DETAIL_MEDIUM
  6
CONTINUOUS
100
AcDbBlockBegin
  2
LE_CYCII_CIN_DATAC_MUX_SEL_C
 70
     0
 10
0.0
 20
0.0
 30
0.0
  1

  0
LINE
  5
FC351B9CCF70A529
100
AcDbEntity
  8
DETAIL_MEDIUM
  6
CONTINUOUS
100
AcDbLine
 10
332.134089
 20
-343.880271
 30
0.0
 11
302.330753
 21
-364.794892
 31
0.0
  0
ENDBLK
  5
FC351B9CCF70A532
100
AcDbEntity
  8
DETAIL_MEDIUM
  6
CONTINUOUS
100
AcDbBlockEnd
  0
BLOCK
  5
FFDAE487ACCB6788
100
AcDbEntity
  8
DETAIL_MEDIUM
  6
CONTINUOUS
100
AcDbBlockBegin
  2
LE_CYCII_REG_CASC_OUT_WIRE
 70
     0
 10
0.0
 20
0.0
 30
0.0
  1

  0
LINE
  5
FFDAE487ACCB6786
100
AcDbEntity
  8
DETAIL_MEDIUM
  6
CONTINUOUS
100
AcDbLine
 10
864.947706
 20
-557.544828
 30
0.0
 11
864.947706
 21
-687.476342
 31
0.0
  0
LINE
  5
380AD728A9D4B34
100
AcDbEntity
  8
DETAIL_MEDIUM
  6
CONTINUOUS
100
AcDbLine
 10
876.661198
 20
-698.824611
 30
0.0
 11
876.661198
 21
-687.476342
 31
0.0
  0
LINE
  5
380AD728A9D4B35
100
AcDbEntity
  8
DETAIL_MEDIUM
  6
CONTINUOUS
100
AcDbLine
 10
876.661198
 20
-710.172881
 30
0.0
 11
876.661198
 21
-698.824611
 31
0.0
  0
LINE
  5
380AD728A9D4B36
100
AcDbEntity
  8
DETAIL_MEDIUM
  6
CONTINUOUS
100
AcDbLine
 10
876.661198
 20
-710.172881
 30
0.0
 11
853.528187
 21
-710.172881
 31
0.0
  0
LINE
  5
380AD728A9D4B37
100
AcDbEntity
  8
DETAIL_MEDIUM
  6
CONTINUOUS
100
AcDbLine
 10
853.528187
 20
-687.476342
 30
0.0
 11
876.661198
 21
-687.476342
 31
0.0
  0
LINE
  5
380AD728A9D4B38
100
AcDbEntity
  8
DETAIL_MEDIUM
  6
CONTINUOUS
100
AcDbLine
 10
853.194186
 20
-710.062541
 30
0.0
 11
853.194186
 21
-687.366002
 31
0.0
  0
LINE
  5
380AD728A9D4B39
100
AcDbEntity
  8
DETAIL_MEDIUM
  6
CONTINUOUS
100
AcDbLine
 10
853.194186
 20
-687.147766
 30
0.0
 11
876.545432
 21
-710.062541
 31
0.0
  0
LINE
  5
380AD728A9D4B3A
100
AcDbEntity
  8
DETAIL_MEDIUM
  6
CONTINUOUS
100
AcDbLine
 10
853.194186
 20
-710.062541
 30
0.0
 11
876.545432
 21
-687.366002
 31
0.0
  0
ENDBLK
  5
FFDAE487ACCB6789
100
AcDbEntity
  8
DETAIL_MEDIUM
  6
CONTINUOUS
100
AcDbBlockEnd
  0
BLOCK
  5
FFDAE487ACCB6639
100
AcDbEntity
  8
DETAIL_MEDIUM
  6
CONTINUOUS
100
AcDbBlockBegin
  2
LE_CYCII_QFBK_WIRE
 70
     0
 10
0.0
 20
0.0
 30
0.0
  1

  0
LINE
  5
FFDAE487ACCB6637
100
AcDbEntity
  8
DETAIL_MEDIUM
  6
CONTINUOUS
100
AcDbLine
 10
126.034845
 20
-557.544828
 30
0.0
 11
864.947706
 21
-557.544828
 31
0.0
  0
LINE
  5
FFDAE487ACCB6635
100
AcDbEntity
  8
DETAIL_MEDIUM
  6
CONTINUOUS
100
AcDbLine
 10
126.034845
 20
-435.954217
 30
0.0
 11
126.034845
 21
-557.544828
 31
0.0
  0
LINE
  5
380AD728A9D488D
100
AcDbEntity
  8
DETAIL_MEDIUM
  6
CONTINUOUS
100
AcDbLine
 10
198.489179
 20
-435.954217
 30
0.0
 11
126.034845
 21
-435.954217
 31
0.0
  0
ENDBLK
  5
FFDAE487ACCB663A
100
AcDbEntity
  8
DETAIL_MEDIUM
  6
CONTINUOUS
100
AcDbBlockEnd
  0
BLOCK
  5
FFDAE487B512BED1
100
AcDbEntity
  8
DETAIL_MEDIUM
  6
CONTINUOUS
100
AcDbBlockBegin
  2
LE_CYCII_REG_CASC_IN_WIRE
 70
     0
 10
0.0
 20
0.0
 30
0.0
  1

  0
LINE
  5
FFDAE487B512BEC7
100
AcDbEntity
  8
DETAIL_MEDIUM
  6
CONTINUOUS
100
AcDbLine
 10
853.915182
 20
-12.230454
 30
0.0
 11
877.222879
 21
-12.230454
 31
0.0
  0
LINE
  5
FFDAE487B512BEC8
100
AcDbEntity
  8
DETAIL_MEDIUM
  6
CONTINUOUS
100
AcDbLine
 10
877.222879
 20
-12.230454
 30
0.0
 11
877.222879
 21
-35.008431
 31
0.0
  0
LINE
  5
FFDAE487B512BEC9
100
AcDbEntity
  8
DETAIL_MEDIUM
  6
CONTINUOUS
100
AcDbLine
 10
877.222879
 20
-35.008431
 30
0.0
 11
853.915182
 21
-35.008431
 31
0.0
  0
LINE
  5
FFDAE487B512BECA
100
AcDbEntity
  8
DETAIL_MEDIUM
  6
CONTINUOUS
100
AcDbLine
 10
853.915182
 20
-35.008431
 30
0.0
 11
853.915182
 21
-12.230454
 31
0.0
  0
LINE
  5
FFDAE487B512BECB
100
AcDbEntity
  8
DETAIL_MEDIUM
  6
CONTINUOUS
100
AcDbLine
 10
853.915182
 20
-12.230454
 30
0.0
 11
877.222879
 21
-35.008431
 31
0.0
  0
LINE
  5
FFDAE487B512BECC
100
AcDbEntity
  8
DETAIL_MEDIUM
  6
CONTINUOUS
100
AcDbLine
 10
853.915182
 20
-35.008431
 30
0.0
 11
877.222879
 21
-12.230454
 31
0.0
  0
LINE
  5
FFDAE487B512BECF
100
AcDbEntity
  8
DETAIL_MEDIUM
  6
CONTINUOUS
100
AcDbLine
 10
865.408776
 20
-244.822827
 30
0.0
 11
865.408776
 21
-35.008431
 31
0.0
  0
LINE
  5
FFDAE487B512BECE
100
AcDbEntity
  8
DETAIL_MEDIUM
  6
CONTINUOUS
100
AcDbLine
 10
865.408776
 20
-244.822827
 30
0.0
 11
895.088864
 21
-244.822827
 31
0.0
  0
ENDBLK
  5
FFDAE487B512BED2
100
AcDbEntity
  8
DETAIL_MEDIUM
  6
CONTINUOUS
100
AcDbBlockEnd
  0
BLOCK
  5
FC351B9CD2B28E67
100
AcDbEntity
  8
DETAIL_MEDIUM
  6
CONTINUOUS
100
AcDbBlockBegin
  2
LE_CYCII_REGCASC_MUX
 70
     0
 10
0.0
 20
0.0
 30
0.0
  1

  0
POLYLINE
  5
FC351B9CCF0866EF
100
AcDbEntity
  8
DETAIL_MEDIUM
100
AcDb2dPolyline
 66
     1
 10
0.0
 20
0.0
 30
0.0
 39
2.0
 70
     1
  0
VERTEX
  5
FC351B9CCF0866F0
100
AcDbEntity
  8
DETAIL_MEDIUM
100
AcDbVertex
100
AcDb2dVertex
 10
722.232307
 20
-176.437225
 30
0.0
  0
VERTEX
  5
FC351B9CCF0866F1
100
AcDbEntity
  8
DETAIL_MEDIUM
100
AcDbVertex
100
AcDb2dVertex
 10
752.232307
 20
-186.437225
 30
0.0
  0
VERTEX
  5
FC351B9CCF0866F2
100
AcDbEntity
  8
DETAIL_MEDIUM
100
AcDbVertex
100
AcDb2dVertex
 10
752.232307
 20
-226.437225
 30
0.0
  0
VERTEX
  5
FC351B9CCF0866F3
100
AcDbEntity
  8
DETAIL_MEDIUM
100
AcDbVertex
100
AcDb2dVertex
 10
722.232307
 20
-236.437225
 30
0.0
  0
VERTEX
  5
FC351B9CCF0866F4
100
AcDbEntity
  8
DETAIL_MEDIUM
100
AcDbVertex
100
AcDb2dVertex
 10
722.232307
 20
-176.437225
 30
0.0
  0
SEQEND
  5
FC351B9CCF0866F5
100
AcDbEntity
  8
DETAIL_MEDIUM
  0
LINE
  5
FC351B9CD2B28E62
100
AcDbEntity
  8
DETAIL_MEDIUM
  6
CONTINUOUS
100
AcDbLine
 10
752.155722
 20
-211.226112
 30
0.0
 11
818.036781
 21
-211.226112
 31
0.0
  0
ENDBLK
  5
FC351B9CD2B28E68
100
AcDbEntity
  8
DETAIL_MEDIUM
  6
CONTINUOUS
100
AcDbBlockEnd
  0
BLOCK
  5
FC351B9CD2B28E6A
100
AcDbEntity
  8
DETAIL_MEDIUM
  6
CONTINUOUS
100
AcDbBlockBegin
  2
LE_CYCII_REGCASC_MUX_SEL_CASC
 70
     0
 10
0.0
 20
0.0
 30
0.0
  1

  0
LINE
  5
FC351B9CD2B28E64
100
AcDbEntity
  8
DETAIL_MEDIUM
  6
CONTINUOUS
100
AcDbLine
 10
722.352386
 20
-190.834356
 30
0.0
 11
752.155722
 21
-211.226112
 31
0.0
  0
ENDBLK
  5
FC351B9CD2B28E6B
100
AcDbEntity
  8
DETAIL_MEDIUM
  6
CONTINUOUS
100
AcDbBlockEnd
  0
BLOCK
  5
FC351B9CD2B28E6D
100
AcDbEntity
  8
DETAIL_MEDIUM
  6
CONTINUOUS
100
AcDbBlockBegin
  2
LE_CYCII_REGCASC_MUX_SEL_COMB
 70
     0
 10
0.0
 20
0.0
 30
0.0
  1

  0
LINE
  5
FC351B9CD2B28E65
100
AcDbEntity
  8
DETAIL_MEDIUM
  6
CONTINUOUS
100
AcDbLine
 10
752.155722
 20
-211.226112
 30
0.0
 11
722.352386
 21
-223.513453
 31
0.0
  0
ENDBLK
  5
FC351B9CD2B28E6E
100
AcDbEntity
  8
DETAIL_MEDIUM
  6
CONTINUOUS
100
AcDbBlockEnd
  0
BLOCK
  5
FFDAE487ACCB66A6
100
AcDbEntity
  8
DETAIL_MEDIUM
  6
CONTINUOUS
100
AcDbBlockBegin
  2
LE_CYCII_QFBK_OR_CASCOUT_WIRE
 70
     0
 10
0.0
 20
0.0
 30
0.0
  1

  0
LINE
  5
380AD728A9D4957
100
AcDbEntity
  8
DETAIL_MEDIUM
  6
CONTINUOUS
100
AcDbLine
 10
1387.862836
 20
-557.711335
 30
0.0
 11
1387.862836
 21
-239.286218
 31
0.0
  0
LINE
  5
FFDAE487ACCB66A4
100
AcDbEntity
  8
DETAIL_MEDIUM
  6
CONTINUOUS
100
AcDbLine
 10
864.947706
 20
-557.544828
 30
0.0
 11
1387.452122
 21
-557.544828
 31
0.0
  0
ENDBLK
  5
FFDAE487ACCB66A7
100
AcDbEntity
  8
DETAIL_MEDIUM
  6
CONTINUOUS
100
AcDbBlockEnd
  0
BLOCK
  5
FC351B9CCEF983F3
100
AcDbEntity
  8
DETAIL_MEDIUM
  6
CONTINUOUS
100
AcDbBlockBegin
  2
LE_CYCII_POINT_2
 70
     0
 10
0.0
 20
0.0
 30
0.0
  1

  0
POINT
  5
FC351B9CCEF5CC0B
100
AcDbEntity
  8
DETAIL_MEDIUM
  6
CONTINUOUS
100
AcDbPoint
 10
1214.154008
 20
-184.716521
 30
0.0
  0
ENDBLK
  5
FC351B9CCEF983F5
100
AcDbEntity
  8
DETAIL_MEDIUM
  6
CONTINUOUS
100
AcDbBlockEnd
  0
BLOCK
  5
FC351DBB54B345A8
100
AcDbEntity
  8
PORTS
  6
CONTINUOUS
100
AcDbBlockBegin
  2
LE_CYCII_REGOUT_PORT
 70
     2
 10
0.0
 20
0.0
 30
0.0
  1

  0
POLYLINE
  5
FC351DBB54B345A0
100
AcDbEntity
  8
PORTS
  6
CONTINUOUS
100
AcDb2dPolyline
 66
     1
 10
0.0
 20
0.0
 30
0.0
 70
     1
  0
VERTEX
  5
FC351DBB54B345A1
100
AcDbEntity
  8
PORTS
  6
CONTINUOUS
100
AcDbVertex
100
AcDb2dVertex
 10
1484.25899
 20
-239.053412
 30
0.0
  0
VERTEX
  5
FC351DBB54B345A2
100
AcDbEntity
  8
PORTS
  6
CONTINUOUS
100
AcDbVertex
100
AcDb2dVertex
 10
1476.25899
 20
-245.053412
 30
0.0
  0
VERTEX
  5
FC351DBB54B345A3
100
AcDbEntity
  8
PORTS
  6
CONTINUOUS
100
AcDbVertex
100
AcDb2dVertex
 10
1404.25899
 20
-245.053412
 30
0.0
  0
VERTEX
  5
FC351DBB54B345A4
100
AcDbEntity
  8
PORTS
  6
CONTINUOUS
100
AcDbVertex
100
AcDb2dVertex
 10
1404.25899
 20
-233.053412
 30
0.0
  0
VERTEX
  5
FC351DBB54B345A5
100
AcDbEntity
  8
PORTS
  6
CONTINUOUS
100
AcDbVertex
100
AcDb2dVertex
 10
1476.25899
 20
-233.053412
 30
0.0
  0
VERTEX
  5
FC351DBB54B345A6
100
AcDbEntity
  8
PORTS
  6
CONTINUOUS
100
AcDbVertex
100
AcDb2dVertex
 10
1484.25899
 20
-239.053412
 30
0.0
  0
SEQEND
  5
FC351DBB54B345A7
100
AcDbEntity
  8
PORTS
  6
CONTINUOUS
  0
POINT
  5
FC351C247067F3A5
100
AcDbEntity
  8
PORTS
  6
CONTINUOUS
100
AcDbPoint
 10
1404.25899
 20
-239.470411
 30
0.0
  0
ATTDEF
  5
FC351DBB54B3459F
100
AcDbEntity
  8
PORTS
  6
CONTINUOUS
100
AcDbText
 10
1416.25899
 20
-227.053412
 30
0.0
 40
10.0
  1

  7
SIMPLEX
100
AcDbAttributeDefinition
  3

  2
SIDE
 70
     0
  0
ENDBLK
  5
FC351DBB54B345A9
100
AcDbEntity
  8
PORTS
  6
CONTINUOUS
100
AcDbBlockEnd
  0
BLOCK
  5
FC351B9CCEF98400
100
AcDbEntity
  8
DETAIL_MEDIUM
  6
CONTINUOUS
100
AcDbBlockBegin
  2
LE_CYCII_REGOUT_WIRE_0
 70
     0
 10
0.0
 20
0.0
 30
0.0
  1

  0
LINE
  5
FC351B9CCEF983FD
100
AcDbEntity
  8
DETAIL_MEDIUM
  6
CONTINUOUS
100
AcDbLine
 10
1189.082717
 20
-185.279038
 30
0.0
 11
1214.180263
 21
-185.279038
 31
0.0
  0
ENDBLK
  5
FC351B9CCEF98402
100
AcDbEntity
  8
DETAIL_MEDIUM
  6
CONTINUOUS
100
AcDbBlockEnd
  0
BLOCK
  5
FC351B9CCEF98404
100
AcDbEntity
  8
DETAIL_MEDIUM
  6
CONTINUOUS
100
AcDbBlockBegin
  2
LE_CYCII_REGOUT_WIRE_1
 70
     0
 10
0.0
 20
0.0
 30
0.0
  1

  0
LINE
  5
FC351B9CCEF983FE
100
AcDbEntity
  8
DETAIL_MEDIUM
  6
CONTINUOUS
100
AcDbLine
 10
1214.180263
 20
-185.279038
 30
0.0
 11
1230.650528
 21
-185.279038
 31
0.0
  0
ENDBLK
  5
FC351B9CCEF98406
100
AcDbEntity
  8
DETAIL_MEDIUM
  6
CONTINUOUS
100
AcDbBlockEnd
  0
BLOCK
  5
FC351B9CCEF98408
100
AcDbEntity
  8
DETAIL_HIGH
100
AcDbBlockBegin
  2
LE_CYCII_REGISTER_INSIDES
 70
     0
 10
0.0
 20
0.0
 30
0.0
  1

  0
TEXT
  5
FC351B9CCEF5CC07
100
AcDbEntity
  8
DETAIL_HIGH
100
AcDbText
 10
1094.830929
 20
-189.162141
 30
0.0
 40
10.0
  1
D
100
AcDbText
  0
TEXT
  5
FC351B9CCEF5CC06
100
AcDbEntity
  8
DETAIL_HIGH
100
AcDbText
 10
1124.676459
 20
-142.540349
 30
0.0
 40
10.0
  1
aclr
100
AcDbText
  0
TEXT
  5
FC351B9CCEF5CC0A
100
AcDbEntity
  8
DETAIL_HIGH
100
AcDbText
 10
1173.946106
 20
-188.948126
 30
0.0
 40
10.0
  1
Q
100
AcDbText
  0
TEXT
  5
FC351B9CCEF5CC08
100
AcDbEntity
  8
DETAIL_HIGH
100
AcDbText
 10
1094.475676
 20
-299.859414
 30
0.0
 40
10.0
  1
en
100
AcDbText
  0
ENDBLK
  5
FC351B9CCEF9840A
100
AcDbEntity
  8
DETAIL_HIGH
100
AcDbBlockEnd
  0
BLOCK
  5
FC351B9CCEF9840C
100
AcDbEntity
  8
DETAIL_MEDIUM
100
AcDbBlockBegin
  2
LE_CYCII_REGISTER
 70
     0
 10
0.0
 20
0.0
 30
0.0
  1

  0
POLYLINE
  5
FC351B945C52D575
100
AcDbEntity
  8
DETAIL_MEDIUM
100
AcDb2dPolyline
 66
     1
 10
0.0
 20
0.0
 30
0.0
 39
2.0
 70
     1
  0
VERTEX
  5
FC351B945C52D576
100
AcDbEntity
  8
DETAIL_MEDIUM
100
AcDbVertex
100
AcDb2dVertex
 10
1089.118362
 20
-129.032805
 30
0.0
  0
VERTEX
  5
FC351B945C52D577
100
AcDbEntity
  8
DETAIL_MEDIUM
100
AcDbVertex
100
AcDb2dVertex
 10
1189.118362
 20
-129.032805
 30
0.0
  0
VERTEX
  5
FC351B945C52D578
100
AcDbEntity
  8
DETAIL_MEDIUM
100
AcDbVertex
100
AcDb2dVertex
 10
1189.118362
 20
-329.032805
 30
0.0
  0
VERTEX
  5
FC351B945C52D579
100
AcDbEntity
  8
DETAIL_MEDIUM
100
AcDbVertex
100
AcDb2dVertex
 10
1089.118362
 20
-329.032805
 30
0.0
  0
SEQEND
  5
FC351B945C52D57A
100
AcDbEntity
  8
DETAIL_MEDIUM
  0
LINE
  5
FC351B945C52D57B
100
AcDbEntity
  8
DETAIL_MEDIUM
100
AcDbLine
 39
2.0
 10
1089.118362
 20
-250.405523
 30
0.0
 11
1099.118362
 21
-260.405523
 31
0.0
  0
LINE
  5
FC351B945C52D57C
100
AcDbEntity
  8
DETAIL_MEDIUM
100
AcDbLine
 39
2.0
 10
1099.118362
 20
-260.405523
 30
0.0
 11
1089.118362
 21
-270.405523
 31
0.0
  0
INSERT
  5
FC351B9CCEF9840B
100
AcDbEntity
  8
DETAIL_HIGH
100
AcDbBlockReference
  2
LE_CYCII_REGISTER_INSIDES
 10
0.0
 20
0.0
 30
0.0
  0
ENDBLK
  5
FC351B9CCEF9840E
100
AcDbEntity
  8
DETAIL_MEDIUM
100
AcDbBlockEnd
  0
BLOCK
  5
FC351B9CCEF98410
100
AcDbEntity
  8
PORTS
  6
CONTINUOUS
100
AcDbBlockBegin
  2
LE_CYCII_ENABLE_PORT
 70
     2
 10
0.0
 20
0.0
 30
0.0
  1

  0
POLYLINE
  5
FC351B945C52D596
100
AcDbEntity
  8
PORTS
  6
CONTINUOUS
100
AcDb2dPolyline
 66
     1
 10
0.0
 20
0.0
 30
0.0
 70
     1
  0
VERTEX
  5
FC351B945C52D597
100
AcDbEntity
  8
PORTS
  6
CONTINUOUS
100
AcDbVertex
100
AcDb2dVertex
 10
897.980398
 20
-296.178787
 30
0.0
  0
VERTEX
  5
FC351B945C52D598
100
AcDbEntity
  8
PORTS
  6
CONTINUOUS
100
AcDbVertex
100
AcDb2dVertex
 10
889.980398
 20
-302.178787
 30
0.0
  0
VERTEX
  5
FC351B945C52D599
100
AcDbEntity
  8
PORTS
  6
CONTINUOUS
100
AcDbVertex
100
AcDb2dVertex
 10
817.980398
 20
-302.178787
 30
0.0
  0
VERTEX
  5
FC351B945C52D59A
100
AcDbEntity
  8
PORTS
  6
CONTINUOUS
100
AcDbVertex
100
AcDb2dVertex
 10
817.980398
 20
-290.178787
 30
0.0
  0
VERTEX
  5
FC351B945C52D59B
100
AcDbEntity
  8
PORTS
  6
CONTINUOUS
100
AcDbVertex
100
AcDb2dVertex
 10
889.980398
 20
-290.178787
 30
0.0
  0
VERTEX
  5
FC351B945C52D59C
100
AcDbEntity
  8
PORTS
  6
CONTINUOUS
100
AcDbVertex
100
AcDb2dVertex
 10
897.980398
 20
-296.178787
 30
0.0
  0
SEQEND
  5
FC351B945C52D59D
100
AcDbEntity
  8
PORTS
  6
CONTINUOUS
  0
POINT
  5
FC351B945C52D59F
100
AcDbEntity
  8
PORTS
  6
CONTINUOUS
100
AcDbPoint
 10
897.796604
 20
-296.215419
 30
0.0
  0
ATTDEF
  5
FC351B945C52D59E
100
AcDbEntity
  8
PORTS
  6
CONTINUOUS
100
AcDbText
 10
829.980398
 20
-284.178787
 30
0.0
 40
10.0
  1

  7
SIMPLEX
100
AcDbAttributeDefinition
  3

  2
SIDE
 70
     0
  0
ENDBLK
  5
FC351B9CCEF98412
100
AcDbEntity
  8
PORTS
  6
CONTINUOUS
100
AcDbBlockEnd
  0
BLOCK
  5
FC351B9CCEF98416
100
AcDbEntity
  8
DETAIL_MEDIUM
  6
CONTINUOUS
100
AcDbBlockBegin
  2
LE_CYCII_ENABLE_WIRE
 70
     0
 10
0.0
 20
0.0
 30
0.0
  1

  0
LINE
  5
FC351B945C52D5A0
100
AcDbEntity
  8
DETAIL_MEDIUM
  6
CONTINUOUS
100
AcDbLine
 10
897.327869
 20
-296.439828
 30
0.0
 11
1089.219524
 21
-296.439828
 31
0.0
  0
ENDBLK
  5
FC351B9CCEF98418
100
AcDbEntity
  8
DETAIL_MEDIUM
  6
CONTINUOUS
100
AcDbBlockEnd
  0
BLOCK
  5
FC351B9CCEF9841A
100
AcDbEntity
  8
PORTS
  6
CONTINUOUS
100
AcDbBlockBegin
  2
LE_CYCII_CLOCK_PORT
 70
     2
 10
0.0
 20
0.0
 30
0.0
  1

  0
POLYLINE
  5
FC351B945C52D58A
100
AcDbEntity
  8
PORTS
  6
CONTINUOUS
100
AcDb2dPolyline
 66
     1
 10
0.0
 20
0.0
 30
0.0
 70
     1
  0
VERTEX
  5
FC351B945C52D58B
100
AcDbEntity
  8
PORTS
  6
CONTINUOUS
100
AcDbVertex
100
AcDb2dVertex
 10
897.980398
 20
-259.578199
 30
0.0
  0
VERTEX
  5
FC351B945C52D58C
100
AcDbEntity
  8
PORTS
  6
CONTINUOUS
100
AcDbVertex
100
AcDb2dVertex
 10
889.980398
 20
-265.578199
 30
0.0
  0
VERTEX
  5
FC351B945C52D58D
100
AcDbEntity
  8
PORTS
  6
CONTINUOUS
100
AcDbVertex
100
AcDb2dVertex
 10
817.980398
 20
-265.578199
 30
0.0
  0
VERTEX
  5
FC351B945C52D58E
100
AcDbEntity
  8
PORTS
  6
CONTINUOUS
100
AcDbVertex
100
AcDb2dVertex
 10
817.980398
 20
-253.578199
 30
0.0
  0
VERTEX
  5
FC351B945C52D58F
100
AcDbEntity
  8
PORTS
  6
CONTINUOUS
100
AcDbVertex
100
AcDb2dVertex
 10
889.980398
 20
-253.578199
 30
0.0
  0
VERTEX
  5
FC351B945C52D590
100
AcDbEntity
  8
PORTS
  6
CONTINUOUS
100
AcDbVertex
100
AcDb2dVertex
 10
897.980398
 20
-259.578199
 30
0.0
  0
SEQEND
  5
FC351B945C52D591
100
AcDbEntity
  8
PORTS
  6
CONTINUOUS
  0
ATTDEF
  5
FC351B945C52D592
100
AcDbEntity
  8
PORTS
  6
CONTINUOUS
100
AcDbText
 10
829.980398
 20
-247.578199
 30
0.0
 40
10.0
  1

  7
SIMPLEX
100
AcDbAttributeDefinition
  3

  2
SIDE
 70
     0
  0
POINT
  5
FC351B945C52D593
100
AcDbEntity
  8
PORTS
  6
CONTINUOUS
100
AcDbPoint
 10
897.796604
 20
-259.61483
 30
0.0
  0
ENDBLK
  5
FC351B9CCEF9841C
100
AcDbEntity
  8
PORTS
  6
CONTINUOUS
100
AcDbBlockEnd
  0
BLOCK
  5
FC351B9CCEF98420
100
AcDbEntity
  8
DETAIL_MEDIUM
  6
CONTINUOUS
100
AcDbBlockBegin
  2
LE_CYCII_CLOCK_WIRE
 70
     0
 10
0.0
 20
0.0
 30
0.0
  1

  0
LINE
  5
FC351B945C52D594
100
AcDbEntity
  8
DETAIL_MEDIUM
  6
CONTINUOUS
100
AcDbLine
 10
897.327869
 20
-259.83924
 30
0.0
 11
1089.219524
 21
-259.83924
 31
0.0
  0
ENDBLK
  5
FC351B9CCEF98422
100
AcDbEntity
  8
DETAIL_MEDIUM
  6
CONTINUOUS
100
AcDbBlockEnd
  0
BLOCK
  5
FFDAE487AD0219F1
100
AcDbEntity
  8
PORTS
  6
CONTINUOUS
100
AcDbBlockBegin
  2
LE_CYCII_DATAIN_PORT
 70
     2
 10
0.0
 20
0.0
 30
0.0
  1

  0
ATTDEF
  5
FFDAE487AD0219E7
100
AcDbEntity
  8
PORTS
  6
CONTINUOUS
100
AcDbText
 10
1003.813389
 20
-255.034194
 30
0.0
 40
10.0
  1

  7
SIMPLEX
100
AcDbAttributeDefinition
  3

  2
SIDE
 70
     0
  0
POLYLINE
  5
FFDAE487AD0219E8
100
AcDbEntity
  8
PORTS
  6
CONTINUOUS
100
AcDb2dPolyline
 66
     1
 10
0.0
 20
0.0
 30
0.0
 70
     1
  0
VERTEX
  5
FFDAE487AD0219E9
100
AcDbEntity
  8
PORTS
  6
CONTINUOUS
100
AcDbVertex
100
AcDb2dVertex
 10
1071.548529
 20
-264.915313
 30
0.0
  0
VERTEX
  5
FFDAE487AD0219EA
100
AcDbEntity
  8
PORTS
  6
CONTINUOUS
100
AcDbVertex
100
AcDb2dVertex
 10
1063.548529
 20
-270.915313
 30
0.0
  0
VERTEX
  5
FFDAE487AD0219EB
100
AcDbEntity
  8
PORTS
  6
CONTINUOUS
100
AcDbVertex
100
AcDb2dVertex
 10
991.548529
 20
-270.915313
 30
0.0
  0
VERTEX
  5
FFDAE487AD0219EC
100
AcDbEntity
  8
PORTS
  6
CONTINUOUS
100
AcDbVertex
100
AcDb2dVertex
 10
991.548529
 20
-258.915313
 30
0.0
  0
VERTEX
  5
FFDAE487AD0219ED
100
AcDbEntity
  8
PORTS
  6
CONTINUOUS
100
AcDbVertex
100
AcDb2dVertex
 10
1063.548529
 20
-258.915313
 30
0.0
  0
VERTEX
  5
FFDAE487AD0219EE
100
AcDbEntity
  8
PORTS
  6
CONTINUOUS
100
AcDbVertex
100
AcDb2dVertex
 10
1071.548529
 20
-264.915313
 30
0.0
  0
SEQEND
  5
FFDAE487AD0219EF
100
AcDbEntity
  8
PORTS
  6
CONTINUOUS
  0
POINT
  5
FFDAE487AD0219F0
100
AcDbEntity
  8
PORTS
  6
CONTINUOUS
100
AcDbPoint
 10
1071.364735
 20
-264.951945
 30
0.0
  0
ENDBLK
  5
FFDAE487AD0219F2
100
AcDbEntity
  8
PORTS
  6
CONTINUOUS
100
AcDbBlockEnd
  0
BLOCK
  5
FC351B9CCEF9842A
100
AcDbEntity
  8
DETAIL_MEDIUM
  6
CONTINUOUS
100
AcDbBlockBegin
  2
LE_CYCII_DATAIN_WIRE
 70
     0
 10
0.0
 20
0.0
 30
0.0
  1

  0
LINE
  5
FC351B8BE9A2E0E7
100
AcDbEntity
  8
DETAIL_MEDIUM
  6
CONTINUOUS
100
AcDbLine
 10
898.051444
 20
-211.256193
 30
0.0
 11
943.44452
 21
-211.256193
 31
0.0
  0
ENDBLK
  5
FC351B9CCEF9842C
100
AcDbEntity
  8
DETAIL_MEDIUM
  6
CONTINUOUS
100
AcDbBlockEnd
  0
BLOCK
  5
FFDAE487ACCB6983
100
AcDbEntity
  8
PORTS
  6
CONTINUOUS
100
AcDbBlockBegin
  2
LE_CYCII_SDATA_PORT
 70
     2
 10
0.0
 20
0.0
 30
0.0
  1

  0
POINT
  5
380AD728A9D4EDF
100
AcDbEntity
  8
PORTS
  6
CONTINUOUS
100
AcDbPoint
 10
1071.126532
 20
-233.764662
 30
0.0
  0
POLYLINE
  5
380AD728A9D4ED6
100
AcDbEntity
  8
PORTS
  6
CONTINUOUS
100
AcDb2dPolyline
 66
     1
 10
0.0
 20
0.0
 30
0.0
 70
     1
  0
VERTEX
  5
380AD728A9D4ED7
100
AcDbEntity
  8
PORTS
  6
CONTINUOUS
100
AcDbVertex
100
AcDb2dVertex
 10
1071.571759
 20
-233.93542
 30
0.0
  0
VERTEX
  5
380AD728A9D4ED8
100
AcDbEntity
  8
PORTS
  6
CONTINUOUS
100
AcDbVertex
100
AcDb2dVertex
 10
1063.571759
 20
-239.93542
 30
0.0
  0
VERTEX
  5
380AD728A9D4ED9
100
AcDbEntity
  8
PORTS
  6
CONTINUOUS
100
AcDbVertex
100
AcDb2dVertex
 10
991.571759
 20
-239.93542
 30
0.0
  0
VERTEX
  5
380AD728A9D4EDA
100
AcDbEntity
  8
PORTS
  6
CONTINUOUS
100
AcDbVertex
100
AcDb2dVertex
 10
991.571759
 20
-227.93542
 30
0.0
  0
VERTEX
  5
380AD728A9D4EDB
100
AcDbEntity
  8
PORTS
  6
CONTINUOUS
100
AcDbVertex
100
AcDb2dVertex
 10
1063.571759
 20
-227.93542
 30
0.0
  0
VERTEX
  5
380AD728A9D4EDC
100
AcDbEntity
  8
PORTS
  6
CONTINUOUS
100
AcDbVertex
100
AcDb2dVertex
 10
1071.571759
 20
-233.93542
 30
0.0
  0
SEQEND
  5
380AD728A9D4EDD
100
AcDbEntity
  8
PORTS
  6
CONTINUOUS
  0
ATTDEF
  5
380AD728A9D4EDE
100
AcDbEntity
  8
PORTS
  6
CONTINUOUS
100
AcDbText
 10
1003.571759
 20
-221.93542
 30
0.0
 40
10.0
  1

  7
SIMPLEX
100
AcDbAttributeDefinition
  3

  2
SIDE
 70
     0
  0
ENDBLK
  5
FFDAE487ACCB6984
100
AcDbEntity
  8
PORTS
  6
CONTINUOUS
100
AcDbBlockEnd
  0
BLOCK
  5
FFDAE487ACCB69A3
100
AcDbEntity
  8
DETAIL_MEDIUM
  6
CONTINUOUS
100
AcDbBlockBegin
  2
LE_CYCII_SDATA_WIRE
 70
     0
 10
0.0
 20
0.0
 30
0.0
  1

  0
LINE
  5
FFDAE487ACCB69A1
100
AcDbEntity
  8
DETAIL_MEDIUM
  6
CONTINUOUS
100
AcDbLine
 10
1071.566585
 20
-233.9393
 30
0.0
 11
1117.061018
 21
-233.948045
 31
0.0
  0
ENDBLK
  5
FFDAE487ACCB69A4
100
AcDbEntity
  8
DETAIL_MEDIUM
  6
CONTINUOUS
100
AcDbBlockEnd
  0
BLOCK
  5
FFDAE487AE13909F
100
AcDbEntity
  8
PORTS
  6
CONTINUOUS
100
AcDbBlockBegin
  2
LE_CYCII_SLOAD_PORT
 70
     2
 10
0.0
 20
0.0
 30
0.0
  1

  0
POINT
  5
FFDAE487AE139095
100
AcDbEntity
  8
PORTS
  6
CONTINUOUS
100
AcDbPoint
 10
1070.603667
 20
-180.102683
 30
0.0
  0
POLYLINE
  5
FFDAE487AE139096
100
AcDbEntity
  8
PORTS
  6
CONTINUOUS
100
AcDb2dPolyline
 66
     1
 10
0.0
 20
0.0
 30
0.0
 70
     1
  0
VERTEX
  5
FFDAE487AE139097
100
AcDbEntity
  8
PORTS
  6
CONTINUOUS
100
AcDbVertex
100
AcDb2dVertex
 10
1071.571759
 20
-180.183368
 30
0.0
  0
VERTEX
  5
FFDAE487AE139098
100
AcDbEntity
  8
PORTS
  6
CONTINUOUS
100
AcDbVertex
100
AcDb2dVertex
 10
1063.571759
 20
-186.183368
 30
0.0
  0
VERTEX
  5
FFDAE487AE139099
100
AcDbEntity
  8
PORTS
  6
CONTINUOUS
100
AcDbVertex
100
AcDb2dVertex
 10
991.571759
 20
-186.183368
 30
0.0
  0
VERTEX
  5
FFDAE487AE13909A
100
AcDbEntity
  8
PORTS
  6
CONTINUOUS
100
AcDbVertex
100
AcDb2dVertex
 10
991.571759
 20
-174.183368
 30
0.0
  0
VERTEX
  5
FFDAE487AE13909B
100
AcDbEntity
  8
PORTS
  6
CONTINUOUS
100
AcDbVertex
100
AcDb2dVertex
 10
1063.571759
 20
-174.183368
 30
0.0
  0
VERTEX
  5
FFDAE487AE13909C
100
AcDbEntity
  8
PORTS
  6
CONTINUOUS
100
AcDbVertex
100
AcDb2dVertex
 10
1071.571759
 20
-180.183368
 30
0.0
  0
SEQEND
  5
FFDAE487AE13909D
100
AcDbEntity
  8
PORTS
  6
CONTINUOUS
  0
ATTDEF
  5
FFDAE487AE13909E
100
AcDbEntity
  8
PORTS
  6
CONTINUOUS
100
AcDbText
 10
1003.330129
 20
-168.713088
 30
0.0
 40
10.0
  1

  7
SIMPLEX
100
AcDbAttributeDefinition
  3

  2
SIDE
 70
     0
  0
ENDBLK
  5
FFDAE487AE1390A0
100
AcDbEntity
  8
PORTS
  6
CONTINUOUS
100
AcDbBlockEnd
  0
BLOCK
  5
FC351BBEB7551D68
100
AcDbEntity
  8
DETAIL_MEDIUM
  6
CONTINUOUS
100
AcDbBlockBegin
  2
LE_CYCII_SLOAD_WIRE
 70
     0
 10
0.0
 20
0.0
 30
0.0
  1

  0
LINE
  5
FC351BBEB7551D66
100
AcDbEntity
  8
DETAIL_MEDIUM
  6
CONTINUOUS
100
AcDbLine
 10
963.872306
 20
-126.757937
 30
0.0
 11
963.900275
 21
-170.23261
 31
0.0
  0
LINE
  5
FC351BBEB7551D64
100
AcDbEntity
  8
DETAIL_MEDIUM
  6
CONTINUOUS
100
AcDbLine
 10
896.655634
 20
-126.757937
 30
0.0
 11
963.872306
 21
-126.757937
 31
0.0
  0
ENDBLK
  5
FC351BBEB7551D69
100
AcDbEntity
  8
DETAIL_MEDIUM
  6
CONTINUOUS
100
AcDbBlockEnd
  0
BLOCK
  5
FC351B9CCEF98442
100
AcDbEntity
  8
PORTS
  6
CONTINUOUS
100
AcDbBlockBegin
  2
LE_CYCII_SCLR_PORT
 70
     2
 10
0.0
 20
0.0
 30
0.0
  1

  0
ATTDEF
  5
FC351B8BE9AFDF29
100
AcDbEntity
  8
PORTS
  6
CONTINUOUS
100
AcDbText
 10
829.980398
 20
-76.45705
 30
0.0
 40
10.0
  1

  7
SIMPLEX
100
AcDbAttributeDefinition
  3

  2
SIDE
 70
     0
  0
POLYLINE
  5
FC351B8BE9AFDF21
100
AcDbEntity
  8
PORTS
  6
CONTINUOUS
100
AcDb2dPolyline
 66
     1
 10
0.0
 20
0.0
 30
0.0
 70
     1
  0
VERTEX
  5
FC351B8BE9AFDF22
100
AcDbEntity
  8
PORTS
  6
CONTINUOUS
100
AcDbVertex
100
AcDb2dVertex
 10
897.980398
 20
-88.45705
 30
0.0
  0
VERTEX
  5
FC351B8BE9AFDF23
100
AcDbEntity
  8
PORTS
  6
CONTINUOUS
100
AcDbVertex
100
AcDb2dVertex
 10
889.980398
 20
-94.45705
 30
0.0
  0
VERTEX
  5
FC351B8BE9AFDF24
100
AcDbEntity
  8
PORTS
  6
CONTINUOUS
100
AcDbVertex
100
AcDb2dVertex
 10
817.980398
 20
-94.45705
 30
0.0
  0
VERTEX
  5
FC351B8BE9AFDF25
100
AcDbEntity
  8
PORTS
  6
CONTINUOUS
100
AcDbVertex
100
AcDb2dVertex
 10
817.980398
 20
-82.45705
 30
0.0
  0
VERTEX
  5
FC351B8BE9AFDF26
100
AcDbEntity
  8
PORTS
  6
CONTINUOUS
100
AcDbVertex
100
AcDb2dVertex
 10
889.980398
 20
-82.45705
 30
0.0
  0
VERTEX
  5
FC351B8BE9AFDF27
100
AcDbEntity
  8
PORTS
  6
CONTINUOUS
100
AcDbVertex
100
AcDb2dVertex
 10
897.980398
 20
-88.45705
 30
0.0
  0
SEQEND
  5
FC351B8BE9AFDF28
100
AcDbEntity
  8
PORTS
  6
CONTINUOUS
  0
POINT
  5
FC351B8BE9AFDF2F
100
AcDbEntity
  8
PORTS
  6
CONTINUOUS
100
AcDbPoint
 10
897.535171
 20
-88.114931
 30
0.0
  0
ENDBLK
  5
FC351B9CCEF98444
100
AcDbEntity
  8
PORTS
  6
CONTINUOUS
100
AcDbBlockEnd
  0
BLOCK
  5
FC351B9CCEF98448
100
AcDbEntity
  8
DETAIL_MEDIUM
  6
CONTINUOUS
100
AcDbBlockBegin
  2
LE_CYCII_SCLR_WIRE
 70
     0
 10
0.0
 20
0.0
 30
0.0
  1

  0
LINE
  5
FC351B8BE9AFDF2B
100
AcDbEntity
  8
DETAIL_MEDIUM
  6
CONTINUOUS
100
AcDbLine
 10
897.433977
 20
-88.214577
 30
0.0
 11
999.392758
 21
-88.214577
 31
0.0
  0
LINE
  5
FC351B8BE9AFDF2C
100
AcDbEntity
  8
DETAIL_MEDIUM
  6
CONTINUOUS
100
AcDbLine
 10
999.392758
 20
-88.214577
 30
0.0
 11
999.392758
 21
-173.964527
 31
0.0
  0
LINE
  5
FC351B8BE9AFDF2D
100
AcDbEntity
  8
DETAIL_MEDIUM
  6
CONTINUOUS
100
AcDbLine
 10
999.392758
 20
-173.964527
 30
0.0
 11
1015.078724
 21
-173.964527
 31
0.0
  0
ENDBLK
  5
FC351B9CCEF9844A
100
AcDbEntity
  8
DETAIL_MEDIUM
  6
CONTINUOUS
100
AcDbBlockEnd
  0
BLOCK
  5
FC351B9CCEF9844C
100
AcDbEntity
  8
DETAIL_MEDIUM
  6
CONTINUOUS
100
AcDbBlockBegin
  2
LE_CYCII_SCLR_NAND_GATE
 70
     0
 10
0.0
 20
0.0
 30
0.0
  1

  0
CIRCLE
  5
FC351B8BE9AFDF0B
100
AcDbEntity
  8
DETAIL_MEDIUM
  6
CONTINUOUS
100
AcDbCircle
 10
1020.091429
 20
-174.477579
 30
0.0
 40
3.90254
  0
POLYLINE
  5
FC351B8BE9AFDF0C
100
AcDbEntity
  8
DETAIL_MEDIUM
100
AcDb2dPolyline
 66
     1
 10
0.0
 20
0.0
 30
0.0
 39
2.0
 70
     1
  0
VERTEX
  5
FC351B8BE9AFDF0D
100
AcDbEntity
  8
DETAIL_MEDIUM
100
AcDbVertex
100
AcDb2dVertex
 10
1024.133618
 20
-165.201899
 30
0.0
  0
VERTEX
  5
FC351B8BE9AFDF0E
100
AcDbEntity
  8
DETAIL_MEDIUM
100
AcDbVertex
100
AcDb2dVertex
 10
1034.133618
 20
-165.201899
 30
0.0
  0
VERTEX
  5
FC351B8BE9AFDF0F
100
AcDbEntity
  8
DETAIL_MEDIUM
100
AcDbVertex
100
AcDb2dVertex
 10
1044.133618
 20
-167.201899
 30
0.0
  0
VERTEX
  5
FC351B8BE9AFDF10
100
AcDbEntity
  8
DETAIL_MEDIUM
100
AcDbVertex
100
AcDb2dVertex
 10
1052.133618
 20
-175.201899
 30
0.0
  0
VERTEX
  5
FC351B8BE9AFDF11
100
AcDbEntity
  8
DETAIL_MEDIUM
100
AcDbVertex
100
AcDb2dVertex
 10
1054.133618
 20
-185.201899
 30
0.0
  0
VERTEX
  5
FC351B8BE9AFDF12
100
AcDbEntity
  8
DETAIL_MEDIUM
100
AcDbVertex
100
AcDb2dVertex
 10
1052.133618
 20
-195.201899
 30
0.0
  0
VERTEX
  5
FC351B8BE9AFDF13
100
AcDbEntity
  8
DETAIL_MEDIUM
100
AcDbVertex
100
AcDb2dVertex
 10
1044.133618
 20
-203.201899
 30
0.0
  0
VERTEX
  5
FC351B8BE9AFDF14
100
AcDbEntity
  8
DETAIL_MEDIUM
100
AcDbVertex
100
AcDb2dVertex
 10
1034.133618
 20
-205.201899
 30
0.0
  0
VERTEX
  5
FC351B8BE9AFDF15
100
AcDbEntity
  8
DETAIL_MEDIUM
100
AcDbVertex
100
AcDb2dVertex
 10
1024.133618
 20
-205.201899
 30
0.0
  0
VERTEX
  5
FC351B8BE9AFDF16
100
AcDbEntity
  8
DETAIL_MEDIUM
100
AcDbVertex
100
AcDb2dVertex
 10
1024.133618
 20
-165.201899
 30
0.0
  0
SEQEND
  5
FC351B8BE9AFDF17
100
AcDbEntity
  8
DETAIL_MEDIUM
  0
LINE
  5
FC351B945C52D57E
100
AcDbEntity
  8
DETAIL_MEDIUM
  6
CONTINUOUS
100
AcDbLine
 10
1054.836561
 20
-184.957445
 30
0.0
 11
1089.345687
 21
-184.957445
 31
0.0
  0
ENDBLK
  5
FC351B9CCEF9844E
100
AcDbEntity
  8
DETAIL_MEDIUM
  6
CONTINUOUS
100
AcDbBlockEnd
  0
BLOCK
  5
FC351B9CCEF98450
100
AcDbEntity
  8
PORTS
  6
CONTINUOUS
100
AcDbBlockBegin
  2
LE_CYCII_ACLR_PORT
 70
     2
 10
0.0
 20
0.0
 30
0.0
  1

  0
POLYLINE
  5
FC351B945C52D5AB
100
AcDbEntity
  8
PORTS
  6
CONTINUOUS
100
AcDb2dPolyline
 66
     1
 10
0.0
 20
0.0
 30
0.0
 70
     1
  0
VERTEX
  5
FC351B945C52D5AC
100
AcDbEntity
  8
PORTS
  6
CONTINUOUS
100
AcDbVertex
100
AcDb2dVertex
 10
897.980398
 20
-45.582075
 30
0.0
  0
VERTEX
  5
FC351B945C52D5AD
100
AcDbEntity
  8
PORTS
  6
CONTINUOUS
100
AcDbVertex
100
AcDb2dVertex
 10
889.980398
 20
-51.582075
 30
0.0
  0
VERTEX
  5
FC351B945C52D5AE
100
AcDbEntity
  8
PORTS
  6
CONTINUOUS
100
AcDbVertex
100
AcDb2dVertex
 10
817.980398
 20
-51.582075
 30
0.0
  0
VERTEX
  5
FC351B945C52D5AF
100
AcDbEntity
  8
PORTS
  6
CONTINUOUS
100
AcDbVertex
100
AcDb2dVertex
 10
817.980398
 20
-39.582075
 30
0.0
  0
VERTEX
  5
FC351B945C52D5B0
100
AcDbEntity
  8
PORTS
  6
CONTINUOUS
100
AcDbVertex
100
AcDb2dVertex
 10
889.980398
 20
-39.582075
 30
0.0
  0
VERTEX
  5
FC351B945C52D5B1
100
AcDbEntity
  8
PORTS
  6
CONTINUOUS
100
AcDbVertex
100
AcDb2dVertex
 10
897.980398
 20
-45.582075
 30
0.0
  0
SEQEND
  5
FC351B945C52D5B2
100
AcDbEntity
  8
PORTS
  6
CONTINUOUS
  0
POINT
  5
FC351B945C52D5B4
100
AcDbEntity
  8
PORTS
  6
CONTINUOUS
100
AcDbPoint
 10
897.535171
 20
-45.239957
 30
0.0
  0
ATTDEF
  5
FC351B945C52D5B3
100
AcDbEntity
  8
PORTS
  6
CONTINUOUS
100
AcDbText
 10
829.980398
 20
-33.582075
 30
0.0
 40
10.0
  1

  7
SIMPLEX
100
AcDbAttributeDefinition
  3

  2
SIDE
 70
     0
  0
ENDBLK
  5
FC351B9CCEF98452
100
AcDbEntity
  8
PORTS
  6
CONTINUOUS
100
AcDbBlockEnd
  0
BLOCK
  5
FC351B9CCEF98456
100
AcDbEntity
  8
DETAIL_MEDIUM
  6
CONTINUOUS
100
AcDbBlockBegin
  2
LE_CYCII_ACLR_WIRE
 70
     0
 10
0.0
 20
0.0
 30
0.0
  1

  0
LINE
  5
FC351B945C52D5B5
100
AcDbEntity
  8
DETAIL_MEDIUM
  6
CONTINUOUS
100
AcDbLine
 10
897.834823
 20
-45.364197
 30
0.0
 11
1139.398705
 21
-45.364197
 31
0.0
  0
LINE
  5
FC351B945C52D5B6
100
AcDbEntity
  8
DETAIL_MEDIUM
  6
CONTINUOUS
100
AcDbLine
 10
1139.398705
 20
-45.364197
 30
0.0
 11
1139.398705
 21
-129.022684
 31
0.0
  0
ENDBLK
  5
FC351B9CCEF98458
100
AcDbEntity
  8
DETAIL_MEDIUM
  6
CONTINUOUS
100
AcDbBlockEnd
  0
BLOCK
  5
FC351B9CCEF9845A
100
AcDbEntity
  8
DETAIL_HIGH
  6
CONTINUOUS
100
AcDbBlockBegin
  2
LE_CYCII_SLOAD_MUX_TEXT
 70
     0
 10
0.0
 20
0.0
 30
0.0
  1

  0
TEXT
  5
FC351B9CCEF981DD
100
AcDbEntity
  8
DETAIL_HIGH
  6
CONTINUOUS
100
AcDbText
 10
951.886003
 20
-213.588473
 30
0.0
 40
10.0
  1
0
100
AcDbText
  0
TEXT
  5
FC351B9CCEF981DC
100
AcDbEntity
  8
DETAIL_HIGH
  6
CONTINUOUS
100
AcDbText
 10
952.561744
 20
-183.064291
 30
0.0
 40
10.0
  1
1
100
AcDbText
  0
ENDBLK
  5
FC351B9CCEF9845C
100
AcDbEntity
  8
DETAIL_HIGH
  6
CONTINUOUS
100
AcDbBlockEnd
  0
BLOCK
  5
FC351BADC32750CE
100
AcDbEntity
  8
DETAIL_MEDIUM
  6
CONTINUOUS
100
AcDbBlockBegin
  2
LE_CYCII_SLOAD_MUX
 70
     0
 10
0.0
 20
0.0
 30
0.0
  1

  0
LINE
  5
FC351BADC32750CC
100
AcDbEntity
  8
DETAIL_MEDIUM
  6
CONTINUOUS
100
AcDbLine
 10
973.469657
 20
-195.379614
 30
0.0
 11
1024.133618
 21
-195.379614
 31
0.0
  0
POLYLINE
  5
FC351BADC32750C3
100
AcDbEntity
  8
DETAIL_MEDIUM
  6
CONTINUOUS
100
AcDb2dPolyline
 66
     1
 10
0.0
 20
0.0
 30
0.0
 70
     1
  0
VERTEX
  5
FC351BADC32750C4
100
AcDbEntity
  8
DETAIL_MEDIUM
  6
CONTINUOUS
100
AcDbVertex
100
AcDb2dVertex
 10
943.469657
 20
-163.422404
 30
0.0
  0
VERTEX
  5
FC351BADC32750C5
100
AcDbEntity
  8
DETAIL_MEDIUM
  6
CONTINUOUS
100
AcDbVertex
100
AcDb2dVertex
 10
973.469657
 20
-173.422404
 30
0.0
  0
VERTEX
  5
FC351BADC32750C6
100
AcDbEntity
  8
DETAIL_MEDIUM
  6
CONTINUOUS
100
AcDbVertex
100
AcDb2dVertex
 10
973.469657
 20
-213.422404
 30
0.0
  0
VERTEX
  5
FC351BADC32750C7
100
AcDbEntity
  8
DETAIL_MEDIUM
  6
CONTINUOUS
100
AcDbVertex
100
AcDb2dVertex
 10
943.469657
 20
-223.422404
 30
0.0
  0
VERTEX
  5
FC351BADC32750C8
100
AcDbEntity
  8
DETAIL_MEDIUM
  6
CONTINUOUS
100
AcDbVertex
100
AcDb2dVertex
 10
943.469657
 20
-163.422404
 30
0.0
  0
SEQEND
  5
FC351BADC32750C9
100
AcDbEntity
  8
DETAIL_MEDIUM
  6
CONTINUOUS
  0
INSERT
  5
FC351BADC3239AF2
100
AcDbEntity
  8
DETAIL_HIGH
  6
CONTINUOUS
100
AcDbBlockReference
  2
LE_CYCII_SLOAD_MUX_TEXT
 10
0.0
 20
0.0
 30
0.0
  0
ENDBLK
  5
FC351BADC32750CF
100
AcDbEntity
  8
DETAIL_MEDIUM
  6
CONTINUOUS
100
AcDbBlockEnd
  0
BLOCK
  5
FFDAE487BD5A324D
100
AcDbEntity
  8
DETAIL_MEDIUM
  6
CONTINUOUS
100
AcDbBlockBegin
  2
LE_CYCII
 70
     0
 10
0.0
 20
0.0
 30
0.0
  1

  0
INSERT
  5
FFDAE487BD5A30C4
100
AcDbEntity
  8
DETAIL_MEDIUM
  6
CONTINUOUS
100
AcDbBlockReference
  2
LE_CYCII_COMBOUT_WIRE_0
 10
173.591361
 20
-53.506987
 30
0.0
  0
INSERT
  5
FFDAE487BD5A30C5
100
AcDbEntity
  8
DETAIL_MEDIUM
  6
CONTINUOUS
100
AcDbBlockReference
  2
LE_CYCII_POINT_2
 10
173.591361
 20
-53.926433
 30
0.0
  0
INSERT
  5
FFDAE487BD5A30C6
100
AcDbEntity
  8
DETAIL_MEDIUM
  6
CONTINUOUS
100
AcDbBlockReference
  2
LE_CYCII_REGOUT_WIRE_0
 10
173.591361
 20
-53.926433
 30
0.0
  0
INSERT
  5
FFDAE487BD5A30C7
100
AcDbEntity
  8
DETAIL_MEDIUM
  6
CONTINUOUS
100
AcDbBlockReference
  2
LE_CYCII_REGOUT_WIRE_1
 10
173.591361
 20
-53.926433
 30
0.0
  0
INSERT
  5
FFDAE487BD5A30C8
100
AcDbEntity
  8
DETAIL_MEDIUM
100
AcDbBlockReference
  2
LE_CYCII_REGISTER
 10
173.591361
 20
-53.926433
 30
0.0
  0
INSERT
  5
FFDAE487BD5A30C9
100
AcDbEntity
  8
PORTS
  6
CONTINUOUS
100
AcDbBlockReference
 66
     1
  2
LE_CYCII_ENABLE_PORT
 10
173.591361
 20
-53.926433
 30
0.0
  0
ATTRIB
  5
FFDAE487BD5A30CA
100
AcDbEntity
  8
PORTS
  6
CONTINUOUS
100
AcDbText
 10
1003.571759
 20
-338.10522
 30
0.0
 40
10.0
  1
LEFT
  7
SIMPLEX
100
AcDbAttribute
  2
SIDE
 70
     0
  0
SEQEND
  5
FFDAE487BD5A30CB
100
AcDbEntity
  8
PORTS
  6
CONTINUOUS
  0
INSERT
  5
FFDAE487BD5A30CC
100
AcDbEntity
  8
DETAIL_MEDIUM
  6
CONTINUOUS
100
AcDbBlockReference
  2
LE_CYCII_ENABLE_WIRE
 10
173.591361
 20
-53.926433
 30
0.0
  0
INSERT
  5
FFDAE487BD5A30CD
100
AcDbEntity
  8
PORTS
  6
CONTINUOUS
100
AcDbBlockReference
 66
     1
  2
LE_CYCII_CLOCK_PORT
 10
173.591361
 20
-53.926433
 30
0.0
  0
ATTRIB
  5
FFDAE487BD5A30CE
100
AcDbEntity
  8
PORTS
  6
CONTINUOUS
100
AcDbText
 10
1003.571759
 20
-301.504632
 30
0.0
 40
10.0
  1
LEFT
  7
SIMPLEX
100
AcDbAttribute
  2
SIDE
 70
     0
  0
SEQEND
  5
FFDAE487BD5A30CF
100
AcDbEntity
  8
PORTS
  6
CONTINUOUS
  0
INSERT
  5
FFDAE487BD5A30D0
100
AcDbEntity
  8
DETAIL_MEDIUM
  6
CONTINUOUS
100
AcDbBlockReference
  2
LE_CYCII_CLOCK_WIRE
 10
173.591361
 20
-53.926433
 30
0.0
  0
INSERT
  5
FFDAE487BD5A30D1
100
AcDbEntity
  8
DETAIL_MEDIUM
  6
CONTINUOUS
100
AcDbBlockReference
  2
LE_CYCII_DATAIN_WIRE
 10
173.591361
 20
-53.926433
 30
0.0
  0
INSERT
  5
FFDAE487BD5A30D2
100
AcDbEntity
  8
PORTS
  6
CONTINUOUS
100
AcDbBlockReference
 66
     1
  2
LE_CYCII_SCLR_PORT
 10
173.591361
 20
-53.926433
 30
0.0
  0
ATTRIB
  5
FFDAE487BD5A30D3
100
AcDbEntity
  8
PORTS
  6
CONTINUOUS
100
AcDbText
 10
1003.571759
 20
-130.383483
 30
0.0
 40
10.0
  1
LEFT
  7
SIMPLEX
100
AcDbAttribute
  2
SIDE
 70
     0
  0
SEQEND
  5
FFDAE487BD5A30D4
100
AcDbEntity
  8
PORTS
  6
CONTINUOUS
  0
INSERT
  5
FFDAE487BD5A30D5
100
AcDbEntity
  8
DETAIL_MEDIUM
  6
CONTINUOUS
100
AcDbBlockReference
  2
LE_CYCII_SCLR_WIRE
 10
173.591361
 20
-53.926433
 30
0.0
  0
INSERT
  5
FFDAE487BD5A30D6
100
AcDbEntity
  8
DETAIL_MEDIUM
  6
CONTINUOUS
100
AcDbBlockReference
  2
LE_CYCII_SCLR_NAND_GATE
 10
173.591361
 20
-53.926433
 30
0.0
  0
INSERT
  5
FFDAE487BD5A30D7
100
AcDbEntity
  8
PORTS
  6
CONTINUOUS
100
AcDbBlockReference
 66
     1
  2
LE_CYCII_ACLR_PORT
 10
173.591361
 20
-53.926433
 30
0.0
  0
ATTRIB
  5
FFDAE487BD5A30D8
100
AcDbEntity
  8
PORTS
  6
CONTINUOUS
100
AcDbText
 10
1003.571759
 20
-87.508508
 30
0.0
 40
10.0
  1
LEFT
  7
SIMPLEX
100
AcDbAttribute
  2
SIDE
 70
     0
  0
SEQEND
  5
FFDAE487BD5A30D9
100
AcDbEntity
  8
PORTS
  6
CONTINUOUS
  0
INSERT
  5
FFDAE487BD5A30DA
100
AcDbEntity
  8
DETAIL_MEDIUM
  6
CONTINUOUS
100
AcDbBlockReference
  2
LE_CYCII_ACLR_WIRE
 10
173.591361
 20
-53.926433
 30
0.0
  0
INSERT
  5
FFDAE487BD5A30DB
100
AcDbEntity
  8
DETAIL_MEDIUM
  6
CONTINUOUS
100
AcDbBlockReference
  2
LE_CYCII_DATAC_MUX
 10
173.591361
 20
-53.926433
 30
0.0
  0
INSERT
  5
FFDAE487BD5A30DC
100
AcDbEntity
  8
DETAIL_MEDIUM
  6
CONTINUOUS
100
AcDbBlockReference
  2
LE_CYCII_DATAC_MUX_SEL_DATAC
 10
173.591361
 20
-53.926433
 30
0.0
  0
INSERT
  5
FFDAE487BD5A30DD
100
AcDbEntity
  8
DETAIL_MEDIUM
  6
CONTINUOUS
100
AcDbBlockReference
  2
LE_CYCII_DATAC_MUX_SEL_QFBK
 10
173.591361
 20
-53.926433
 30
0.0
  0
INSERT
  5
FFDAE487BD5A30DE
100
AcDbEntity
  8
DETAIL_MEDIUM
  6
CONTINUOUS
100
AcDbBlockReference
  2
LE_CYCII_CIN_DATAC_MUX_SEL_CIN
 10
173.591361
 20
-53.926433
 30
0.0
  0
INSERT
  5
FFDAE487BD5A30DF
100
AcDbEntity
  8
DETAIL_MEDIUM
  6
CONTINUOUS
100
AcDbBlockReference
  2
LE_CYCII_CIN_DATAC_MUX_SEL_C
 10
173.591361
 20
-53.926433
 30
0.0
  0
INSERT
  5
FFDAE487BD5A30E0
100
AcDbEntity
  8
DETAIL_MEDIUM
  6
CONTINUOUS
100
AcDbBlockReference
  2
LE_CYCII_REGCASC_MUX
 10
173.591361
 20
-53.926433
 30
0.0
  0
INSERT
  5
FFDAE487BD5A30E1
100
AcDbEntity
  8
DETAIL_MEDIUM
  6
CONTINUOUS
100
AcDbBlockReference
  2
LE_CYCII_REGCASC_MUX_SEL_CASC
 10
173.591361
 20
-53.926433
 30
0.0
  0
INSERT
  5
FFDAE487BD5A30E2
100
AcDbEntity
  8
DETAIL_MEDIUM
  6
CONTINUOUS
100
AcDbBlockReference
  2
LE_CYCII_REGCASC_MUX_SEL_COMB
 10
173.591361
 20
-53.926433
 30
0.0
  0
INSERT
  5
FFDAE487BD5A30E3
100
AcDbEntity
  8
DETAIL_MEDIUM
  6
CONTINUOUS
100
AcDbBlockReference
  2
LE_CYCII_SLOAD_MUX
 10
173.591361
 20
-53.926433
 30
0.0
  0
INSERT
  5
FFDAE487BD5A30E4
100
AcDbEntity
  8
DETAIL_MEDIUM
  6
CONTINUOUS
100
AcDbBlockReference
  2
LE_CYCII_SLOAD_WIRE
 10
173.591361
 20
-53.926433
 30
0.0
  0
INSERT
  5
FFDAE487BD5A30E5
100
AcDbEntity
  8
PORTS
  6
CONTINUOUS
100
AcDbBlockReference
 66
     1
  2
LE_CYCII_REGOUT_PORT
 10
0.0
 20
0.0
 30
0.0
  0
ATTRIB
  5
FFDAE487BD5A30E6
100
AcDbEntity
  8
PORTS
  6
CONTINUOUS
100
AcDbText
 10
1416.25899
 20
-227.053412
 30
0.0
 40
10.0
  1
RIGHT
  7
SIMPLEX
100
AcDbAttribute
  2
SIDE
 70
     0
  0
SEQEND
  5
FFDAE487BD5A30E7
100
AcDbEntity
  8
PORTS
  6
CONTINUOUS
  0
INSERT
  5
FFDAE487BD5A30E8
100
AcDbEntity
  8
DETAIL_MEDIUM
  6
CONTINUOUS
100
AcDbBlockReference
  2
LE_CYCII_CIN_DATAC_MUX
 10
0.0
 20
0.0
 30
0.0
  0
INSERT
  5
FFDAE487BD5A30E9
100
AcDbEntity
  8
DETAIL_MEDIUM
  6
CONTINUOUS
100
AcDbBlockReference
  2
LE_CYCII_POINT_1
 10
0.0
 20
0.0
 30
0.0
  0
INSERT
  5
FFDAE487BD5A30EA
100
AcDbEntity
  8
DETAIL_MEDIUM
  6
CONTINUOUS
100
AcDbBlockReference
  2
LE_CYCII_CIN_WIRE_1
 10
0.0
 20
0.0
 30
0.0
  0
INSERT
  5
FFDAE487BD5A30EB
100
AcDbEntity
  8
DETAIL_MEDIUM
  6
CONTINUOUS
100
AcDbBlockReference
  2
LE_CYCII_LUT
 10
0.0
 20
0.0
 30
0.0
  0
INSERT
  5
FFDAE487BD5A30EC
100
AcDbEntity
  8
DETAIL_MEDIUM
  6
CONTINUOUS
100
AcDbBlockReference
  2
LE_CYCII_DATAC_WIRE_0
 10
0.0
 20
0.0
 30
0.0
  0
INSERT
  5
FFDAE487BD5A30ED
100
AcDbEntity
  8
DETAIL_MEDIUM
  6
CONTINUOUS
100
AcDbBlockReference
  2
LE_CYCII_QFBK_WIRE
 10
0.0
 20
0.0
 30
0.0
  0
INSERT
  5
FFDAE487BD5A30EE
100
AcDbEntity
  8
DETAIL_MEDIUM
  6
CONTINUOUS
100
AcDbBlockReference
  2
LE_CYCII_DATAC_WIRE_2
 10
0.0
 20
0.0
 30
0.0
  0
INSERT
  5
FFDAE487BD5A30EF
100
AcDbEntity
  8
DETAIL_MEDIUM
  6
CONTINUOUS
100
AcDbBlockReference
  2
LE_CYCII_QFBK_OR_CASCOUT_WIRE
 10
0.0
 20
0.0
 30
0.0
  0
INSERT
  5
FFDAE487BD5A30F0
100
AcDbEntity
  8
PORTS
  6
CONTINUOUS
100
AcDbBlockReference
 66
     1
  2
LE_CYCII_DATAC_PORT
 10
0.0
 20
0.0
 30
0.0
  0
ATTRIB
  5
FFDAE487BD5A30F1
100
AcDbEntity
  8
PORTS
  6
CONTINUOUS
100
AcDbText
 10
298.238222
 20
-405.983702
 30
0.0
 40
10.0
  1
LEFT
  7
SIMPLEX
100
AcDbAttribute
  2
SIDE
 70
     0
  0
SEQEND
  5
FFDAE487BD5A30F2
100
AcDbEntity
  8
PORTS
  6
CONTINUOUS
  0
INSERT
  5
FFDAE487BD5A30F3
100
AcDbEntity
  8
DETAIL_MEDIUM
  6
CONTINUOUS
100
AcDbBlockReference
  2
LE_CYCII_REG_CASC_OUT_WIRE
 10
0.0
 20
0.0
 30
0.0
  0
INSERT
  5
FFDAE487BD5A30F4
100
AcDbEntity
  8
PORTS
  6
CONTINUOUS
100
AcDbBlockReference
 66
     1
  2
LE_CYCII_COUT_PORT
 10
0.0
 20
0.0
 30
0.0
  0
ATTRIB
  5
FFDAE487BD5A30F5
100
AcDbEntity
  8
PORTS
  6
CONTINUOUS
100
AcDbText
 10
433.178071
 20
-639.865935
 30
0.0
 40
10.0
  1
BOTTOM
  7
SIMPLEX
100
AcDbAttribute
  2
SIDE
 70
     0
  0
SEQEND
  5
FFDAE487BD5A30F6
100
AcDbEntity
  8
PORTS
  6
CONTINUOUS
  0
INSERT
  5
FFDAE487BD5A30F7
100
AcDbEntity
  8
DETAIL_MEDIUM
  6
CONTINUOUS
100
AcDbBlockReference
  2
LE_CYCII_COUT_WIRE
 10
0.0
 20
0.0
 30
0.0
  0
INSERT
  5
FFDAE487BD5A30F8
100
AcDbEntity
  8
PORTS
  6
CONTINUOUS
100
AcDbBlockReference
 66
     1
  2
LE_CYCII_SDATA_PORT
 10
0.0
 20
0.0
 30
0.0
  0
ATTRIB
  5
FFDAE487BD5A30F9
100
AcDbEntity
  8
PORTS
  6
CONTINUOUS
100
AcDbText
 10
1003.571759
 20
-221.93542
 30
0.0
 40
10.0
  1
LEFT
  7
SIMPLEX
100
AcDbAttribute
  2
SIDE
 70
     0
  0
SEQEND
  5
FFDAE487BD5A30FA
100
AcDbEntity
  8
PORTS
  6
CONTINUOUS
  0
INSERT
  5
FFDAE487BD5A30FB
100
AcDbEntity
  8
DETAIL_MEDIUM
  6
CONTINUOUS
100
AcDbBlockReference
  2
LE_CYCII_SLOAD_MUX_SEL_SDATA
 10
0.0
 20
0.0
 30
0.0
  0
INSERT
  5
FFDAE487BD5A30FC
100
AcDbEntity
  8
DETAIL_MEDIUM
  6
CONTINUOUS
100
AcDbBlockReference
  2
LE_CYCII_SLOAD_MUX_SEL_DATAIN
 10
0.0
 20
0.0
 30
0.0
  0
INSERT
  5
FFDAE487BD5A30FD
100
AcDbEntity
  8
DETAIL_MEDIUM
  6
CONTINUOUS
100
AcDbBlockReference
  2
LE_CYCII_SDATA_WIRE
 10
0.0
 20
0.0
 30
0.0
  0
INSERT
  5
FFDAE487BD5A30FE
100
AcDbEntity
  8
PORTS
  6
CONTINUOUS
100
AcDbBlockReference
 66
     1
  2
LE_CYCII_DATAA_PORT
 10
0.0
 20
0.0
 30
0.0
  0
ATTRIB
  5
FFDAE487BD5A30FF
100
AcDbEntity
  8
PORTS
  6
CONTINUOUS
100
AcDbText
 10
295.998471
 20
-225.136489
 30
0.0
 40
10.0
  1
LEFT
  7
SIMPLEX
100
AcDbAttribute
  2
SIDE
 70
     0
  0
SEQEND
  5
FFDAE487BD5A3100
100
AcDbEntity
  8
PORTS
  6
CONTINUOUS
  0
INSERT
  5
FFDAE487BD5A3101
100
AcDbEntity
  8
PORTS
  6
CONTINUOUS
100
AcDbBlockReference
 66
     1
  2
LE_CYCII_DATAB_PORT
 10
0.0
 20
0.0
 30
0.0
  0
ATTRIB
  5
FFDAE487BD5A3102
100
AcDbEntity
  8
PORTS
  6
CONTINUOUS
100
AcDbText
 10
298.238222
 20
-305.85294
 30
0.0
 40
10.0
  1
LEFT
  7
SIMPLEX
100
AcDbAttribute
  2
SIDE
 70
     0
  0
SEQEND
  5
FFDAE487BD5A3103
100
AcDbEntity
  8
PORTS
  6
CONTINUOUS
  0
INSERT
  5
FFDAE487BD5A3104
100
AcDbEntity
  8
DETAIL_MEDIUM
  6
CONTINUOUS
100
AcDbBlockReference
  2
LE_CYCII_DATAB_WIRE
 10
0.0
 20
0.0
 30
0.0
  0
INSERT
  5
FFDAE487BD5A3105
100
AcDbEntity
  8
PORTS
  6
CONTINUOUS
100
AcDbBlockReference
 66
     1
  2
LE_CYCII_DATAD_PORT
 10
0.0
 20
0.0
 30
0.0
  0
ATTRIB
  5
FFDAE487BD5A3106
100
AcDbEntity
  8
PORTS
  6
CONTINUOUS
100
AcDbText
 10
298.238222
 20
-466.146939
 30
0.0
 40
10.0
  1
LEFT
  7
SIMPLEX
100
AcDbAttribute
  2
SIDE
 70
     0
  0
SEQEND
  5
FFDAE487BD5A3107
100
AcDbEntity
  8
PORTS
  6
CONTINUOUS
  0
INSERT
  5
FFDAE487BD5A3108
100
AcDbEntity
  8
DETAIL_MEDIUM
  6
CONTINUOUS
100
AcDbBlockReference
  2
LE_CYCII_DATAD_WIRE
 10
0.0
 20
0.0
 30
0.0
  0
INSERT
  5
FFDAE487BD5A3109
100
AcDbEntity
  8
PORTS
  6
CONTINUOUS
100
AcDbBlockReference
 66
     1
  2
LE_CYCII_CIN_PORT
 10
0.0
 20
0.0
 30
0.0
  0
ATTRIB
  5
FFDAE487BD5A310A
100
AcDbEntity
  8
PORTS
  6
CONTINUOUS
100
AcDbText
 10
376.637918
 20
-69.102511
 30
0.0
 40
10.0
  1
TOP
  7
SIMPLEX
100
AcDbAttribute
  2
SIDE
 70
     0
  0
SEQEND
  5
FFDAE487BD5A310B
100
AcDbEntity
  8
PORTS
  6
CONTINUOUS
  0
INSERT
  5
FFDAE487BD5A310C
100
AcDbEntity
  8
DETAIL_MEDIUM
  6
CONTINUOUS
100
AcDbBlockReference
  2
LE_CYCII_DATAA_WIRE
 10
0.0
 20
0.0
 30
0.0
  0
INSERT
  5
FFDAE487BD5A310D
100
AcDbEntity
  8
DETAIL_MEDIUM
  6
CONTINUOUS
100
AcDbBlockReference
  2
LE_CYCII_CIN_WIRE
 10
0.0
 20
0.0
 30
0.0
  0
INSERT
  5
FFDAE487BD5A310E
100
AcDbEntity
  8
PORTS
  6
CONTINUOUS
100
AcDbBlockReference
 66
     1
  2
LE_CYCII_DATAIN_PORT
 10
0.0
 20
0.0
 30
0.0
  0
ATTRIB
  5
FFDAE487BD5A310F
100
AcDbEntity
  8
PORTS
  6
CONTINUOUS
100
AcDbText
 10
1003.813389
 20
-255.034194
 30
0.0
 40
10.0
  1
LEFT
  7
SIMPLEX
100
AcDbAttribute
  2
SIDE
 70
     0
  0
SEQEND
  5
FFDAE487BD5A3110
100
AcDbEntity
  8
PORTS
  6
CONTINUOUS
  0
INSERT
  5
FFDAE487BD5A3111
100
AcDbEntity
  8
DETAIL_MEDIUM
  6
CONTINUOUS
100
AcDbBlockReference
  2
LE_CYCII_DATAC_TO_SDATA_WIRE
 10
0.0
 20
0.0
 30
0.0
  0
INSERT
  5
FFDAE487BD5A3112
100
AcDbEntity
  8
PORTS
  6
CONTINUOUS
100
AcDbBlockReference
 66
     1
  2
LE_CYCII_SLOAD_PORT
 10
0.0
 20
0.0
 30
0.0
  0
ATTRIB
  5
FFDAE487BD5A3113
100
AcDbEntity
  8
PORTS
  6
CONTINUOUS
100
AcDbText
 10
1003.330129
 20
-168.713088
 30
0.0
 40
10.0
  1
LEFT
  7
SIMPLEX
100
AcDbAttribute
  2
SIDE
 70
     0
  0
SEQEND
  5
FFDAE487BD5A3114
100
AcDbEntity
  8
PORTS
  6
CONTINUOUS
  0
INSERT
  5
FFDAE487BD5A3115
100
AcDbEntity
  8
PORTS
  6
CONTINUOUS
100
AcDbBlockReference
 66
     1
  2
LE_CYCII_COMBOUT_PORT
 10
0.0
 20
-0.553818
 30
0.0
  0
ATTRIB
  5
FFDAE487BD5A3116
100
AcDbEntity
  8
PORTS
  6
CONTINUOUS
100
AcDbText
 10
780.464604
 20
-265.524973
 30
0.0
 40
10.0
  1
RIGHT
  7
SIMPLEX
100
AcDbAttribute
  2
SIDE
 70
     0
  0
SEQEND
  5
FFDAE487BD5A3117
100
AcDbEntity
  8
PORTS
  6
CONTINUOUS
  0
INSERT
  5
FFDAE487BD5A3118
100
AcDbEntity
  8
DETAIL_MEDIUM
  6
CONTINUOUS
100
AcDbBlockReference
  2
LE_CYCII_COMBOUT_WIRE_2
 10
0.0
 20
0.0
 30
0.0
  0
INSERT
  5
FFDAE487BD5A3119
100
AcDbEntity
  8
DETAIL_MEDIUM
  6
CONTINUOUS
100
AcDbBlockReference
  2
LE_CYCII_REG_CASC_IN_WIRE
 10
0.0
 20
0.0
 30
0.0
  0
INSERT
  5
FFDAE487BD5A311A
100
AcDbEntity
  8
DETAIL_MEDIUM
  6
CONTINUOUS
100
AcDbBlockReference
  2
LE_CYCII_DATAC_WIRE_1
 10
0.0
 20
0.0
 30
0.0
  0
INSERT
  5
FFDAE487BD5A311B
100
AcDbEntity
  8
DETAIL_MEDIUM
  6
CONTINUOUS
100
AcDbBlockReference
  2
LE_CYCII_POINT_0
 10
0.0
 20
0.0
 30
0.0
  0
INSERT
  5
FFDAE487BD5A311C
100
AcDbEntity
  8
DETAIL_MEDIUM
  6
CONTINUOUS
100
AcDbBlockReference
  2
LE_CYCII_COMBOUT_WIRE_3
 10
0.0
 20
0.0
 30
0.0
  0
INSERT
  5
FFDAE487BD5A324C
100
AcDbEntity
  8
DETAIL_MEDIUM
  6
CONTINUOUS
100
AcDbBlockReference
  2
LE_CYCII_COMBOUT_WIRE_1
 10
0.0
 20
0.0
 30
0.0
  0
ENDBLK
  5
FFDAE487BD5A324E
100
AcDbEntity
  8
DETAIL_MEDIUM
  6
CONTINUOUS
100
AcDbBlockEnd
  0
BLOCK
  5
FFDAE487ACCB6995
100
AcDbEntity
  8
DETAIL_MEDIUM
  6
CONTINUOUS
100
AcDbBlockBegin
  2
LE_CYCII_SLOAD_MUX_SEL_SDATA
 70
     0
 10
0.0
 20
0.0
 30
0.0
  1

  0
LINE
  5
FFDAE487ACCB6993
100
AcDbEntity
  8
DETAIL_MEDIUM
  6
CONTINUOUS
100
AcDbLine
 10
1117.061018
 20
-233.888128
 30
0.0
 11
1147.061018
 21
-249.292032
 31
0.0
  0
ENDBLK
  5
FFDAE487ACCB6996
100
AcDbEntity
  8
DETAIL_MEDIUM
  6
CONTINUOUS
100
AcDbBlockEnd
  0
BLOCK
  5
FFDAE487ACCB699B
100
AcDbEntity
  8
DETAIL_MEDIUM
  6
CONTINUOUS
100
AcDbBlockBegin
  2
LE_CYCII_SLOAD_MUX_SEL_DATAIN
 70
     0
 10
0.0
 20
0.0
 30
0.0
  1

  0
LINE
  5
FFDAE487ACCB6999
100
AcDbEntity
  8
DETAIL_MEDIUM
  6
CONTINUOUS
100
AcDbLine
 10
1117.061018
 20
-265.181649
 30
0.0
 11
1147.042832
 21
-249.282694
 31
0.0
  0
ENDBLK
  5
FFDAE487ACCB699C
100
AcDbEntity
  8
DETAIL_MEDIUM
  6
CONTINUOUS
100
AcDbBlockEnd
  0
BLOCK
  5
FFDAE487ACCB4483
100
AcDbEntity
  8
DETAIL_HIGH
  6
CONTINUOUS
100
AcDbBlockBegin
  2
LE_CYCII_LUT_INSIDES_DATAD_0
 70
     0
 10
0.0
 20
0.0
 30
0.0
  1

  0
LINE
  5
FFDAE487ACCB4481
100
AcDbEntity
  8
DETAIL_HIGH
  6
CONTINUOUS
100
AcDbLine
 10
591.008588
 20
-352.984141
 30
0.0
 11
646.377126
 21
-352.984141
 31
0.0
  0
LINE
  5
FFDAE487ACCB4480
100
AcDbEntity
  8
DETAIL_HIGH
  6
CONTINUOUS
100
AcDbLine
 10
591.008588
 20
-478.020835
 30
0.0
 11
591.008588
 21
-352.984141
 31
0.0
  0
LINE
  5
FFDAE487ACCB447F
100
AcDbEntity
  8
DETAIL_HIGH
  6
CONTINUOUS
100
AcDbLine
 10
530.334612
 20
-478.020835
 30
0.0
 11
591.008588
 21
-478.020835
 31
0.0
  0
ENDBLK
  5
FFDAE487ACCB4484
100
AcDbEntity
  8
DETAIL_HIGH
  6
CONTINUOUS
100
AcDbBlockEnd
  0
ENDSEC
  0
SECTION
  2
ENTITIES
  0
TEXT
  5
1555386
100
AcDbEntity
  8
COMMENT
100
AcDbText
 10
-13.0
 20
163.5
 30
0.0
 40
10.0
  1
Comments:
100
AcDbText
  0
TEXT
  5
DF2FB97E2E1C5501
100
AcDbEntity
  8
COMMENT
  6
CONTINUOUS
100
AcDbText
 10
-14.0
 20
144.0
 30
0.0
 40
10.0
  1
All ports are on PORTS layer. They don't have FILLCLR since it is assigned in software.
  7
SIMPLEX
100
AcDbText
  0
TEXT
  5
DF2FB97E2E1C5502
100
AcDbEntity
  8
COMMENT
  6
CONTINUOUS
100
AcDbText
 10
-14.0
 20
126.857143
 30
0.0
 40
10.0
  1
Text is drawn starting at the only point contained by the port block on PORTS layer. SIDE determines 
  7
SIMPLEX
100
AcDbText
  0
TEXT
  5
DF2FB97E2E1C5503
100
AcDbEntity
  8
COMMENT
  6
CONTINUOUS
100
AcDbText
 10
-14.0
 20
109.714286
 30
0.0
 40
10.0
  1
the direction of the text. Port association is based on the name of the block.
  7
SIMPLEX
100
AcDbText
  0
INSERT
  5
FFDAE487BD5A324F
100
AcDbEntity
  8
DETAIL_MEDIUM
  6
CONTINUOUS
100
AcDbBlockReference
  2
LE_CYCII
 10
0.0
 20
0.0
 30
0.0
  0
ENDSEC
  0
SECTION
  2
OBJECTS
  0
DICTIONARY
  5
C
100
AcDbDictionary
  3
ACAD_GROUP
350
D
  3
ACAD_MLINESTYLE
350
1B
  0
DICTIONARY
  5
D
102
{ACAD_REACTORS
330
C
102
}
100
AcDbDictionary
  0
DICTIONARY
  5
1B
102
{ACAD_REACTORS
330
C
102
}
100
AcDbDictionary
  3
STANDARD
350
1C
  0
MLINESTYLE
  5
1C
102
{ACAD_REACTORS
330
1B
102
}
100
AcDbMlineStyle
  2
STANDARD
 70
     0
  3

 62
   256
 51
90.0
 52
90.0
 71
     2
 49
0.5
 62
   256
  6
BYLAYER
 49
-0.5
 62
   256
  6
BYLAYER
  0
ENDSEC
  0
EOF
