  0
SECTION
  2
HEADER
  9
$ACADVER
  1
AC1014
  9
$ACADMAINTVER
 70
     0
  9
$DWGCODEPAGE
  3
ANSI_1252
  9
$INSBASE
 10
0.0
 20
0.0
 30
0.0
  9
$EXTMIN
 10
-130.0
 20
-838.0
 30
0.0
  9
$EXTMAX
 10
1150.0
 20
140.0
 30
0.0
  9
$LIMMIN
 10
0.0
 20
0.0
  9
$LIMMAX
 10
12.0
 20
9.0
  9
$ORTHOMODE
 70
     0
  9
$REGENMODE
 70
     1
  9
$FILLMODE
 70
     1
  9
$QTEXTMODE
 70
     0
  9
$MIRRTEXT
 70
     1
  9
$DRAGMODE
 70
     2
  9
$LTSCALE
 40
1.0
  9
$OSMODE
 70
     0
  9
$ATTMODE
 70
     1
  9
$TEXTSIZE
 40
0.2
  9
$TRACEWID
 40
0.05
  9
$TEXTSTYLE
  7
SIMPLEX
  9
$CLAYER
  8
DETAIL_MEDIUM
  9
$CELTYPE
  6
CONTINUOUS
  9
$CECOLOR
 62
   256
  9
$CELTSCALE
 40
1.0
  9
$DELOBJ
 70
     1
  9
$DISPSILH
 70
     0
  9
$DIMSCALE
 40
1.0
  9
$DIMASZ
 40
0.18
  9
$DIMEXO
 40
0.0625
  9
$DIMDLI
 40
0.38
  9
$DIMRND
 40
0.0
  9
$DIMDLE
 40
0.0
  9
$DIMEXE
 40
0.18
  9
$DIMTP
 40
0.0
  9
$DIMTM
 40
0.0
  9
$DIMTXT
 40
0.18
  9
$DIMCEN
 40
0.09
  9
$DIMTSZ
 40
0.0
  9
$DIMTOL
 70
     0
  9
$DIMLIM
 70
     0
  9
$DIMTIH
 70
     1
  9
$DIMTOH
 70
     1
  9
$DIMSE1
 70
     0
  9
$DIMSE2
 70
     0
  9
$DIMTAD
 70
     0
  9
$DIMZIN
 70
     0
  9
$DIMBLK
  1

  9
$DIMASO
 70
     1
  9
$DIMSHO
 70
     1
  9
$DIMPOST
  1

  9
$DIMAPOST
  1

  9
$DIMALT
 70
     0
  9
$DIMALTD
 70
     2
  9
$DIMALTF
 40
25.4
  9
$DIMLFAC
 40
1.0
  9
$DIMTOFL
 70
     0
  9
$DIMTVP
 40
0.0
  9
$DIMTIX
 70
     0
  9
$DIMSOXD
 70
     0
  9
$DIMSAH
 70
     0
  9
$DIMBLK1
  1

  9
$DIMBLK2
  1

  9
$DIMSTYLE
  2
STANDARD
  9
$DIMCLRD
 70
     0
  9
$DIMCLRE
 70
     0
  9
$DIMCLRT
 70
     0
  9
$DIMTFAC
 40
1.0
  9
$DIMGAP
 40
0.09
  9
$DIMJUST
 70
     0
  9
$DIMSD1
 70
     0
  9
$DIMSD2
 70
     0
  9
$DIMTOLJ
 70
     1
  9
$DIMTZIN
 70
     0
  9
$DIMALTZ
 70
     0
  9
$DIMALTTZ
 70
     0
  9
$DIMFIT
 70
     3
  9
$DIMUPT
 70
     0
  9
$DIMUNIT
 70
     2
  9
$DIMDEC
 70
     4
  9
$DIMTDEC
 70
     4
  9
$DIMALTU
 70
     2
  9
$DIMALTTD
 70
     2
  9
$DIMTXSTY
  7
STANDARD
  9
$DIMAUNIT
 70
     0
  9
$LUNITS
 70
     2
  9
$LUPREC
 70
     4
  9
$SKETCHINC
 40
0.1
  9
$FILLETRAD
 40
0.5
  9
$AUNITS
 70
     0
  9
$AUPREC
 70
     0
  9
$MENU
  1
.
  9
$ELEVATION
 40
0.0
  9
$PELEVATION
 40
0.0
  9
$THICKNESS
 40
0.0
  9
$LIMCHECK
 70
     0
  9
$BLIPMODE
 70
     0
  9
$CHAMFERA
 40
0.5
  9
$CHAMFERB
 40
0.5
  9
$CHAMFERC
 40
1.0
  9
$CHAMFERD
 40
0.0
  9
$SKPOLY
 70
     0
  9
$TDCREATE
 40
2452695.7451618058
  9
$TDUPDATE
 40
2453325.5883796182
  9
$TDINDWG
 40
13.302777777778
  9
$TDUSRTIMER
 40
13.302777777778
  9
$USRTIMER
 70
     1
  9
$ANGBASE
 50
0.0
  9
$ANGDIR
 70
     0
  9
$PDMODE
 70
    35
  9
$PDSIZE
 40
5.0
  9
$PLINEWID
 40
0.0
  9
$COORDS
 70
     1
  9
$SPLFRAME
 70
     0
  9
$SPLINETYPE
 70
     6
  9
$SPLINESEGS
 70
     8
  9
$ATTDIA
 70
     0
  9
$ATTREQ
 70
     1
  9
$HANDLING
 70
     1
  9
$HANDSEED
  5
DF34154DDF40E25B
  9
$SURFTAB1
 70
     6
  9
$SURFTAB2
 70
     6
  9
$SURFTYPE
 70
     6
  9
$SURFU
 70
     6
  9
$SURFV
 70
     6
  9
$UCSNAME
  2

  9
$UCSORG
 10
0.0
 20
0.0
 30
0.0
  9
$UCSXDIR
 10
1.0
 20
0.0
 30
0.0
  9
$UCSYDIR
 10
0.0
 20
1.0
 30
0.0
  9
$PUCSNAME
  2

  9
$PUCSORG
 10
0.0
 20
0.0
 30
0.0
  9
$PUCSXDIR
 10
1.0
 20
0.0
 30
0.0
  9
$PUCSYDIR
 10
0.0
 20
1.0
 30
0.0
  9
$USERI1
 70
     0
  9
$USERI2
 70
     0
  9
$USERI3
 70
     0
  9
$USERI4
 70
     0
  9
$USERI5
 70
     0
  9
$USERR1
 40
0.0
  9
$USERR2
 40
0.0
  9
$USERR3
 40
0.0
  9
$USERR4
 40
0.0
  9
$USERR5
 40
0.0
  9
$WORLDVIEW
 70
     1
  9
$SHADEDGE
 70
     3
  9
$SHADEDIF
 70
    70
  9
$TILEMODE
 70
     1
  9
$MAXACTVP
 70
    48
  9
$PINSBASE
 10
0.0
 20
0.0
 30
0.0
  9
$PLIMCHECK
 70
     0
  9
$PEXTMIN
 10
1.000000E+020
 20
1.000000E+020
 30
1.000000E+020
  9
$PEXTMAX
 10
-1.000000E+020
 20
-1.000000E+020
 30
-1.000000E+020
  9
$PLIMMIN
 10
0.0
 20
0.0
  9
$PLIMMAX
 10
12.0
 20
9.0
  9
$UNITMODE
 70
     0
  9
$VISRETAIN
 70
     1
  9
$PLINEGEN
 70
     0
  9
$PSLTSCALE
 70
     1
  9
$TREEDEPTH
 70
  3020
  9
$PICKSTYLE
 70
     1
  9
$CMLSTYLE
  2
STANDARD
  9
$CMLJUST
 70
     0
  9
$CMLSCALE
 40
1.0
  9
$PROXYGRAPHICS
 70
     1
  9
$MEASUREMENT
 70
     0
  0
ENDSEC
  0
SECTION
  2
CLASSES
  0
CLASS
  1
LWPOLYLINE
  2
AcDbPolyline
  3
"AutoCAD"
 90
        0
280
     0
281
     1
  0
ENDSEC
  0
SECTION
  2
TABLES
  0
TABLE
  2
VPORT
  5
8
100
AcDbSymbolTable
 70
     1
  0
VPORT
  5
37
100
AcDbSymbolTableRecord
100
AcDbViewportTableRecord
  2
*ACTIVE
 70
     0
 10
0.0
 20
0.0
 11
1.0
 21
1.0
 12
380.980539
 22
-437.860539
 13
0.0
 23
0.0
 14
10.0
 24
10.0
 15
10.0
 25
10.0
 16
0.0
 26
0.0
 36
1.0
 17
0.0
 27
0.0
 37
0.0
 40
1497.56264
 41
1.797633
 42
50.0
 43
0.0
 44
0.0
 50
0.0
 51
0.0
 71
     0
 72
   100
 73
     1
 74
     1
 75
     1
 76
     1
 77
     0
 78
     0
  0
ENDTAB
  0
TABLE
  2
LTYPE
  5
5
100
AcDbSymbolTable
 70
     2
  0
LTYPE
  5
12
100
AcDbSymbolTableRecord
100
AcDbLinetypeTableRecord
  2
BYBLOCK
 70
     0
  3

 72
    65
 73
     0
 40
0.0
  0
LTYPE
  5
13
100
AcDbSymbolTableRecord
100
AcDbLinetypeTableRecord
  2
BYLAYER
 70
     0
  3

 72
    65
 73
     0
 40
0.0
  0
LTYPE
  5
14
100
AcDbSymbolTableRecord
100
AcDbLinetypeTableRecord
  2
CONTINUOUS
 70
     0
  3
Solid line
 72
    65
 73
     0
 40
0.0
  0
LTYPE
  5
2A422EFD12C
100
AcDbSymbolTableRecord
100
AcDbLinetypeTableRecord
  2
DETAIL_1
 70
     0
  3
Solid line
 72
    65
 73
     2
 40
6.0
 49
5.0
 74
     0
 49
-1.0
 74
     0
  0
ENDTAB
  0
TABLE
  2
LAYER
  5
2
100
AcDbSymbolTable
 70
     6
  0
LAYER
  5
E
100
AcDbSymbolTableRecord
100
AcDbLayerTableRecord
  2
DETAIL_HIGH
 70
     0
 62
   101
  6
CONTINUOUS
  0
LAYER
  5
541
100
AcDbSymbolTableRecord
100
AcDbLayerTableRecord
  2
COMMENT
 70
     0
 62
   254
  6
CONTINUOUS
  0
LAYER
  5
1DAE4
100
AcDbSymbolTableRecord
100
AcDbLayerTableRecord
  2
DETAIL_MEDIUM
 70
     0
 62
   182
  6
CONTINUOUS
  0
LAYER
  5
15543B5
100
AcDbSymbolTableRecord
100
AcDbLayerTableRecord
  2
DETAIL_LOWEST
 70
     0
 62
   143
  6
CONTINUOUS
  0
LAYER
  5
DF2FB97E2E1C53EE
100
AcDbSymbolTableRecord
100
AcDbLayerTableRecord
  2
PORTS
 70
     0
 62
   188
  6
CONTINUOUS
  0
LAYER
  5
DF2FCAEAB671269E
100
AcDbSymbolTableRecord
100
AcDbLayerTableRecord
  2
NON_DDR
 70
     0
 62
   240
  6
CONTINUOUS
  0
ENDTAB
  0
TABLE
  2
STYLE
  5
3
100
AcDbSymbolTable
 70
     8
  0
STYLE
  5
F
100
AcDbSymbolTableRecord
100
AcDbTextStyleTableRecord
  2
STANDARD
 70
     0
 40
0.0
 41
1.0
 50
0.0
 71
     0
 42
0.2
  3
txt.shx
  4

  0
STYLE
  5
21
100
AcDbSymbolTableRecord
100
AcDbTextStyleTableRecord
  2
COMPLEX
 70
     0
 40
0.0
 41
1.0
 50
0.0
 71
     0
 42
0.2
  3
complex
  4

  0
STYLE
  5
22
100
AcDbSymbolTableRecord
100
AcDbTextStyleTableRecord
  2
ITALIC
 70
     0
 40
0.0
 41
1.0
 50
0.0
 71
     0
 42
0.2
  3
italic
  4

  0
STYLE
  5
23
100
AcDbSymbolTableRecord
100
AcDbTextStyleTableRecord
  2
ROMANC
 70
     0
 40
0.0
 41
1.0
 50
0.0
 71
     0
 42
0.2
  3
romanc
  4

  0
STYLE
  5
24
100
AcDbSymbolTableRecord
100
AcDbTextStyleTableRecord
  2
SIMPLEX
 70
     0
 40
0.0
 41
1.0
 50
0.0
 71
     0
 42
0.2
  3
simplex
  4

  0
STYLE
  5
34
100
AcDbSymbolTableRecord
100
AcDbTextStyleTableRecord
  2

 70
     1
 40
0.0
 41
1.0
 50
0.0
 71
     0
 42
0.2
  3
ltypeshp.shx
  4

  0
STYLE
  5
38
100
AcDbSymbolTableRecord
100
AcDbTextStyleTableRecord
  2
ARIAL
 70
     0
 40
0.0
 41
1.0
 50
0.0
 71
     0
 42
0.2
  3

  4

1001
ACAD
1000
Arial
1071
       34
  0
STYLE
  5
39
100
AcDbSymbolTableRecord
100
AcDbTextStyleTableRecord
  2
TIMES_NEW_ROMAN
 70
     0
 40
0.0
 41
1.0
 50
0.0
 71
     0
 42
0.2
  3

  4

1001
ACAD
1000
Times New Roman
1071
       18
  0
ENDTAB
  0
TABLE
  2
VIEW
  5
6
100
AcDbSymbolTable
 70
     0
  0
ENDTAB
  0
TABLE
  2
UCS
  5
7
100
AcDbSymbolTable
 70
     0
  0
ENDTAB
  0
TABLE
  2
APPID
  5
9
100
AcDbSymbolTable
 70
     1
  0
APPID
  5
10
100
AcDbSymbolTableRecord
100
AcDbRegAppTableRecord
  2
ACAD
 70
     0
  0
ENDTAB
  0
TABLE
  2
DIMSTYLE
  5
A
100
AcDbSymbolTable
 70
     1
  0
DIMSTYLE
105
1D
100
AcDbSymbolTableRecord
100
AcDbDimStyleTableRecord
  2
STANDARD
 70
     0
  3

  4

  5

  6

  7

 40
1.0
 41
0.18
 42
0.0625
 43
0.38
 44
0.18
 45
0.0
 46
0.0
 47
0.0
 48
0.0
140
0.18
141
0.09
142
0.0
143
25.4
144
1.0
145
0.0
146
1.0
147
0.09
 71
     0
 72
     0
 73
     1
 74
     1
 75
     0
 76
     0
 77
     0
 78
     0
170
     0
171
     2
172
     0
173
     0
174
     0
175
     0
176
     0
177
     0
178
     0
270
     2
271
     4
272
     4
273
     2
274
     2
340
F
275
     0
280
     0
281
     0
282
     0
283
     1
284
     0
285
     0
286
     0
287
     3
288
     0
  0
ENDTAB
  0
TABLE
  2
BLOCK_RECORD
  5
1
100
AcDbSymbolTable
 70
    21
  0
BLOCK_RECORD
  5
18
100
AcDbSymbolTableRecord
100
AcDbBlockTableRecord
  2
*MODEL_SPACE
  0
BLOCK_RECORD
  5
15
100
AcDbSymbolTableRecord
100
AcDbBlockTableRecord
  2
*PAPER_SPACE
  0
BLOCK_RECORD
  5
DF34154DDF40E1E0
100
AcDbSymbolTableRecord
100
AcDbBlockTableRecord
  2
COMMON_BLOCK_INPUT_PORT_0
  0
BLOCK_RECORD
  5
DF34154DDF40E1E6
100
AcDbSymbolTableRecord
100
AcDbBlockTableRecord
  2
COMMON_BLOCK_INPUT_PORT_1
  0
BLOCK_RECORD
  5
DF34154DDF40E1EC
100
AcDbSymbolTableRecord
100
AcDbBlockTableRecord
  2
COMMON_BLOCK_INPUT_PORT_2
  0
BLOCK_RECORD
  5
DF34154DDF40E1F2
100
AcDbSymbolTableRecord
100
AcDbBlockTableRecord
  2
COMMON_BLOCK_INPUT_PORT_3
  0
BLOCK_RECORD
  5
DF34154DDF40E1F8
100
AcDbSymbolTableRecord
100
AcDbBlockTableRecord
  2
COMMON_BLOCK_INPUT_PORT_4
  0
BLOCK_RECORD
  5
DF34154DDF40E1FE
100
AcDbSymbolTableRecord
100
AcDbBlockTableRecord
  2
COMMON_BLOCK_INPUT_PORT_5
  0
BLOCK_RECORD
  5
DF34154DDF40E204
100
AcDbSymbolTableRecord
100
AcDbBlockTableRecord
  2
COMMON_BLOCK_INPUT_PORT_6
  0
BLOCK_RECORD
  5
DF34154DDF40E20A
100
AcDbSymbolTableRecord
100
AcDbBlockTableRecord
  2
COMMON_BLOCK_INPUT_PORT_7
  0
BLOCK_RECORD
  5
DF34154DDF40E210
100
AcDbSymbolTableRecord
100
AcDbBlockTableRecord
  2
COMMON_BLOCK_INPUT_PORT_8
  0
BLOCK_RECORD
  5
DF34154DDF40E216
100
AcDbSymbolTableRecord
100
AcDbBlockTableRecord
  2
COMMON_BLOCK_INPUT_PORT_9
  0
BLOCK_RECORD
  5
DF34154DDF40E21C
100
AcDbSymbolTableRecord
100
AcDbBlockTableRecord
  2
COMMON_BLOCK_OUTPUT_PORT_0
  0
BLOCK_RECORD
  5
DF34154DDF40E222
100
AcDbSymbolTableRecord
100
AcDbBlockTableRecord
  2
COMMON_BLOCK_OUTPUT_PORT_1
  0
BLOCK_RECORD
  5
DF34154DDF40E228
100
AcDbSymbolTableRecord
100
AcDbBlockTableRecord
  2
COMMON_BLOCK_OUTPUT_PORT_2
  0
BLOCK_RECORD
  5
DF34154DDF40E22E
100
AcDbSymbolTableRecord
100
AcDbBlockTableRecord
  2
COMMON_BLOCK_OUTPUT_PORT_3
  0
BLOCK_RECORD
  5
DF34154DDF40E234
100
AcDbSymbolTableRecord
100
AcDbBlockTableRecord
  2
COMMON_BLOCK_OUTPUT_PORT_4
  0
BLOCK_RECORD
  5
DF34154DDF40E23A
100
AcDbSymbolTableRecord
100
AcDbBlockTableRecord
  2
COMMON_BLOCK_OUTPUT_PORT_5
  0
BLOCK_RECORD
  5
DF34154DDF40E240
100
AcDbSymbolTableRecord
100
AcDbBlockTableRecord
  2
COMMON_BLOCK_OUTPUT_PORT_6
  0
BLOCK_RECORD
  5
DF34154DDF40E246
100
AcDbSymbolTableRecord
100
AcDbBlockTableRecord
  2
COMMON_BLOCK_OUTPUT_PORT_7
  0
BLOCK_RECORD
  5
DF34154DDF40E24C
100
AcDbSymbolTableRecord
100
AcDbBlockTableRecord
  2
COMMON_BLOCK_OUTPUT_PORT_8
  0
BLOCK_RECORD
  5
DF34154DDF40E252
100
AcDbSymbolTableRecord
100
AcDbBlockTableRecord
  2
COMMON_BLOCK_OUTPUT_PORT_9
  0
BLOCK_RECORD
  5
DF34154DDF40E258
100
AcDbSymbolTableRecord
100
AcDbBlockTableRecord
  2
COMMON_BLOCK
  0
ENDTAB
  0
ENDSEC
  0
SECTION
  2
BLOCKS
  0
BLOCK
  5
19
100
AcDbEntity
  8
DETAIL_HIGH
100
AcDbBlockBegin
  2
*MODEL_SPACE
 70
     0
 10
0.0
 20
0.0
 30
0.0
  3
*MODEL_SPACE
  1

  0
ENDBLK
  5
1A
100
AcDbEntity
  8
DETAIL_HIGH
100
AcDbBlockEnd
  0
BLOCK
  5
16
100
AcDbEntity
 67
     1
  8
DETAIL_HIGH
100
AcDbBlockBegin
  2
*PAPER_SPACE
 70
     0
 10
0.0
 20
0.0
 30
0.0
  3
*PAPER_SPACE
  1

  0
ENDBLK
  5
17
100
AcDbEntity
 67
     1
  8
DETAIL_HIGH
100
AcDbBlockEnd
  0
BLOCK
  5
DF34154DDF40E1DF
100
AcDbEntity
  8
DETAIL_MEDIUM
  6
CONTINUOUS
100
AcDbBlockBegin
  2
COMMON_BLOCK_INPUT_PORT_0
 70
     2
 10
0.0
 20
0.0
 30
0.0
  1

  0
ATTDEF
  5
DF3415280D67A607
100
AcDbEntity
  8
PORTS
  6
CONTINUOUS
100
AcDbText
 10
12.0
 20
-238.0
 30
0.0
 40
10.0
  1

  7
SIMPLEX
100
AcDbAttributeDefinition
  3

  2
SIDE
 70
     0
  0
POLYLINE
  5
DF3415280D67A608
100
AcDbEntity
  8
PORTS
  6
CONTINUOUS
100
AcDb2dPolyline
 66
     1
 10
0.0
 20
0.0
 30
0.0
 70
     1
  0
VERTEX
  5
DF3415280D67A609
100
AcDbEntity
  8
PORTS
  6
CONTINUOUS
100
AcDbVertex
100
AcDb2dVertex
 10
90.0
 20
-250.0
 30
0.0
  0
VERTEX
  5
DF3415280D67A60A
100
AcDbEntity
  8
PORTS
  6
CONTINUOUS
100
AcDbVertex
100
AcDb2dVertex
 10
82.0
 20
-256.0
 30
0.0
  0
VERTEX
  5
DF3415280D67A60B
100
AcDbEntity
  8
PORTS
  6
CONTINUOUS
100
AcDbVertex
100
AcDb2dVertex
 10
10.0
 20
-256.0
 30
0.0
  0
VERTEX
  5
DF3415280D67A60C
100
AcDbEntity
  8
PORTS
  6
CONTINUOUS
100
AcDbVertex
100
AcDb2dVertex
 10
10.0
 20
-244.0
 30
0.0
  0
VERTEX
  5
DF3415280D67A60D
100
AcDbEntity
  8
PORTS
  6
CONTINUOUS
100
AcDbVertex
100
AcDb2dVertex
 10
82.0
 20
-244.0
 30
0.0
  0
VERTEX
  5
DF3415280D67A60E
100
AcDbEntity
  8
PORTS
  6
CONTINUOUS
100
AcDbVertex
100
AcDb2dVertex
 10
90.0
 20
-250.0
 30
0.0
  0
SEQEND
  5
DF3415280D67A60F
100
AcDbEntity
  8
PORTS
  6
CONTINUOUS
  0
POINT
  5
DF3415280D67A610
100
AcDbEntity
  8
PORTS
  6
CONTINUOUS
100
AcDbPoint
 10
90.0
 20
-250.0
 30
0.0
  0
LINE
  5
DF3415280D67A611
100
AcDbEntity
  8
DETAIL_MEDIUM
  6
CONTINUOUS
100
AcDbLine
 10
90.0
 20
-250.0
 30
0.0
 11
190.0
 21
-250.0
 31
0.0
  0
ENDBLK
  5
DF34154DDF40E1E1
100
AcDbEntity
  8
DETAIL_MEDIUM
  6
CONTINUOUS
100
AcDbBlockEnd
  0
BLOCK
  5
DF34154DDF40E1E5
100
AcDbEntity
  8
DETAIL_MEDIUM
  6
CONTINUOUS
100
AcDbBlockBegin
  2
COMMON_BLOCK_INPUT_PORT_1
 70
     2
 10
0.0
 20
0.0
 30
0.0
  1

  0
POLYLINE
  5
DF34154DDF40E1BF
100
AcDbEntity
  8
PORTS
  6
CONTINUOUS
100
AcDb2dPolyline
 66
     1
 10
0.0
 20
0.0
 30
0.0
 70
     1
  0
VERTEX
  5
DF34154DDF40E1C0
100
AcDbEntity
  8
PORTS
  6
CONTINUOUS
100
AcDbVertex
100
AcDb2dVertex
 10
90.0
 20
-320.0
 30
0.0
  0
VERTEX
  5
DF34154DDF40E1C1
100
AcDbEntity
  8
PORTS
  6
CONTINUOUS
100
AcDbVertex
100
AcDb2dVertex
 10
82.0
 20
-326.0
 30
0.0
  0
VERTEX
  5
DF34154DDF40E1C2
100
AcDbEntity
  8
PORTS
  6
CONTINUOUS
100
AcDbVertex
100
AcDb2dVertex
 10
10.0
 20
-326.0
 30
0.0
  0
VERTEX
  5
DF34154DDF40E1C3
100
AcDbEntity
  8
PORTS
  6
CONTINUOUS
100
AcDbVertex
100
AcDb2dVertex
 10
10.0
 20
-314.0
 30
0.0
  0
VERTEX
  5
DF34154DDF40E1C4
100
AcDbEntity
  8
PORTS
  6
CONTINUOUS
100
AcDbVertex
100
AcDb2dVertex
 10
82.0
 20
-314.0
 30
0.0
  0
VERTEX
  5
DF34154DDF40E1C5
100
AcDbEntity
  8
PORTS
  6
CONTINUOUS
100
AcDbVertex
100
AcDb2dVertex
 10
90.0
 20
-320.0
 30
0.0
  0
SEQEND
  5
DF34154DDF40E1C6
100
AcDbEntity
  8
PORTS
  6
CONTINUOUS
  0
ATTDEF
  5
DF34154DDF40E1BE
100
AcDbEntity
  8
PORTS
  6
CONTINUOUS
100
AcDbText
 10
12.0
 20
-308.0
 30
0.0
 40
10.0
  1

  7
SIMPLEX
100
AcDbAttributeDefinition
  3

  2
SIDE
 70
     0
  0
POINT
  5
DF34154DDF40E1C7
100
AcDbEntity
  8
PORTS
  6
CONTINUOUS
100
AcDbPoint
 10
90.0
 20
-320.0
 30
0.0
  0
LINE
  5
DF34154DDF40E1C8
100
AcDbEntity
  8
DETAIL_MEDIUM
  6
CONTINUOUS
100
AcDbLine
 10
90.0
 20
-320.0
 30
0.0
 11
190.0
 21
-320.0
 31
0.0
  0
ENDBLK
  5
DF34154DDF40E1E7
100
AcDbEntity
  8
DETAIL_MEDIUM
  6
CONTINUOUS
100
AcDbBlockEnd
  0
BLOCK
  5
DF34154DDF40E1EB
100
AcDbEntity
  8
DETAIL_MEDIUM
  6
CONTINUOUS
100
AcDbBlockBegin
  2
COMMON_BLOCK_INPUT_PORT_2
 70
     2
 10
0.0
 20
0.0
 30
0.0
  1

  0
ATTDEF
  5
DF34154DDF40E1C9
100
AcDbEntity
  8
PORTS
  6
CONTINUOUS
100
AcDbText
 10
12.0
 20
-388.0
 30
0.0
 40
10.0
  1

  7
SIMPLEX
100
AcDbAttributeDefinition
  3

  2
SIDE
 70
     0
  0
POLYLINE
  5
DF34154DDF40E1CA
100
AcDbEntity
  8
PORTS
  6
CONTINUOUS
100
AcDb2dPolyline
 66
     1
 10
0.0
 20
0.0
 30
0.0
 70
     1
  0
VERTEX
  5
DF34154DDF40E1CB
100
AcDbEntity
  8
PORTS
  6
CONTINUOUS
100
AcDbVertex
100
AcDb2dVertex
 10
90.0
 20
-400.0
 30
0.0
  0
VERTEX
  5
DF34154DDF40E1CC
100
AcDbEntity
  8
PORTS
  6
CONTINUOUS
100
AcDbVertex
100
AcDb2dVertex
 10
82.0
 20
-406.0
 30
0.0
  0
VERTEX
  5
DF34154DDF40E1CD
100
AcDbEntity
  8
PORTS
  6
CONTINUOUS
100
AcDbVertex
100
AcDb2dVertex
 10
10.0
 20
-406.0
 30
0.0
  0
VERTEX
  5
DF34154DDF40E1CE
100
AcDbEntity
  8
PORTS
  6
CONTINUOUS
100
AcDbVertex
100
AcDb2dVertex
 10
10.0
 20
-394.0
 30
0.0
  0
VERTEX
  5
DF34154DDF40E1CF
100
AcDbEntity
  8
PORTS
  6
CONTINUOUS
100
AcDbVertex
100
AcDb2dVertex
 10
82.0
 20
-394.0
 30
0.0
  0
VERTEX
  5
DF34154DDF40E1D0
100
AcDbEntity
  8
PORTS
  6
CONTINUOUS
100
AcDbVertex
100
AcDb2dVertex
 10
90.0
 20
-400.0
 30
0.0
  0
SEQEND
  5
DF34154DDF40E1D1
100
AcDbEntity
  8
PORTS
  6
CONTINUOUS
  0
POINT
  5
DF34154DDF40E1D2
100
AcDbEntity
  8
PORTS
  6
CONTINUOUS
100
AcDbPoint
 10
90.0
 20
-400.0
 30
0.0
  0
LINE
  5
DF34154DDF40E1D3
100
AcDbEntity
  8
DETAIL_MEDIUM
  6
CONTINUOUS
100
AcDbLine
 10
90.0
 20
-400.0
 30
0.0
 11
190.0
 21
-400.0
 31
0.0
  0
ENDBLK
  5
DF34154DDF40E1ED
100
AcDbEntity
  8
DETAIL_MEDIUM
  6
CONTINUOUS
100
AcDbBlockEnd
  0
BLOCK
  5
DF34154DDF40E1F1
100
AcDbEntity
  8
DETAIL_MEDIUM
  6
CONTINUOUS
100
AcDbBlockBegin
  2
COMMON_BLOCK_INPUT_PORT_3
 70
     2
 10
0.0
 20
0.0
 30
0.0
  1

  0
ATTDEF
  5
DF34154DDF40E1D4
100
AcDbEntity
  8
PORTS
  6
CONTINUOUS
100
AcDbText
 10
12.0
 20
-478.0
 30
0.0
 40
10.0
  1

  7
SIMPLEX
100
AcDbAttributeDefinition
  3

  2
SIDE
 70
     0
  0
POLYLINE
  5
DF34154DDF40E1D5
100
AcDbEntity
  8
PORTS
  6
CONTINUOUS
100
AcDb2dPolyline
 66
     1
 10
0.0
 20
0.0
 30
0.0
 70
     1
  0
VERTEX
  5
DF34154DDF40E1D6
100
AcDbEntity
  8
PORTS
  6
CONTINUOUS
100
AcDbVertex
100
AcDb2dVertex
 10
90.0
 20
-490.0
 30
0.0
  0
VERTEX
  5
DF34154DDF40E1D7
100
AcDbEntity
  8
PORTS
  6
CONTINUOUS
100
AcDbVertex
100
AcDb2dVertex
 10
82.0
 20
-496.0
 30
0.0
  0
VERTEX
  5
DF34154DDF40E1D8
100
AcDbEntity
  8
PORTS
  6
CONTINUOUS
100
AcDbVertex
100
AcDb2dVertex
 10
10.0
 20
-496.0
 30
0.0
  0
VERTEX
  5
DF34154DDF40E1D9
100
AcDbEntity
  8
PORTS
  6
CONTINUOUS
100
AcDbVertex
100
AcDb2dVertex
 10
10.0
 20
-484.0
 30
0.0
  0
VERTEX
  5
DF34154DDF40E1DA
100
AcDbEntity
  8
PORTS
  6
CONTINUOUS
100
AcDbVertex
100
AcDb2dVertex
 10
82.0
 20
-484.0
 30
0.0
  0
VERTEX
  5
DF34154DDF40E1DB
100
AcDbEntity
  8
PORTS
  6
CONTINUOUS
100
AcDbVertex
100
AcDb2dVertex
 10
90.0
 20
-490.0
 30
0.0
  0
SEQEND
  5
DF34154DDF40E1DC
100
AcDbEntity
  8
PORTS
  6
CONTINUOUS
  0
LINE
  5
DF34154DDF40E1DE
100
AcDbEntity
  8
DETAIL_MEDIUM
  6
CONTINUOUS
100
AcDbLine
 10
90.0
 20
-490.0
 30
0.0
 11
190.0
 21
-490.0
 31
0.0
  0
POINT
  5
DF34154DDF40E1DD
100
AcDbEntity
  8
PORTS
  6
CONTINUOUS
100
AcDbPoint
 10
90.0
 20
-490.0
 30
0.0
  0
ENDBLK
  5
DF34154DDF40E1F3
100
AcDbEntity
  8
DETAIL_MEDIUM
  6
CONTINUOUS
100
AcDbBlockEnd
  0
BLOCK
  5
DF34154DDF40E1F7
100
AcDbEntity
  8
DETAIL_MEDIUM
  6
CONTINUOUS
100
AcDbBlockBegin
  2
COMMON_BLOCK_INPUT_PORT_4
 70
     2
 10
0.0
 20
0.0
 30
0.0
  1

  0
ATTDEF
  5
DF3415280E09E7C1
100
AcDbEntity
  8
PORTS
  6
CONTINUOUS
100
AcDbText
 10
12.0
 20
-558.0
 30
0.0
 40
10.0
  1

  7
SIMPLEX
100
AcDbAttributeDefinition
  3

  2
SIDE
 70
     0
  0
POLYLINE
  5
DF3415280E09E7C2
100
AcDbEntity
  8
PORTS
  6
CONTINUOUS
100
AcDb2dPolyline
 66
     1
 10
0.0
 20
0.0
 30
0.0
 70
     1
  0
VERTEX
  5
DF3415280E09E7C3
100
AcDbEntity
  8
PORTS
  6
CONTINUOUS
100
AcDbVertex
100
AcDb2dVertex
 10
90.0
 20
-570.0
 30
0.0
  0
VERTEX
  5
DF3415280E09E7C4
100
AcDbEntity
  8
PORTS
  6
CONTINUOUS
100
AcDbVertex
100
AcDb2dVertex
 10
82.0
 20
-576.0
 30
0.0
  0
VERTEX
  5
DF3415280E09E7C5
100
AcDbEntity
  8
PORTS
  6
CONTINUOUS
100
AcDbVertex
100
AcDb2dVertex
 10
10.0
 20
-576.0
 30
0.0
  0
VERTEX
  5
DF3415280E09E7C6
100
AcDbEntity
  8
PORTS
  6
CONTINUOUS
100
AcDbVertex
100
AcDb2dVertex
 10
10.0
 20
-564.0
 30
0.0
  0
VERTEX
  5
DF3415280E09E7C7
100
AcDbEntity
  8
PORTS
  6
CONTINUOUS
100
AcDbVertex
100
AcDb2dVertex
 10
82.0
 20
-564.0
 30
0.0
  0
VERTEX
  5
DF3415280E09E7C8
100
AcDbEntity
  8
PORTS
  6
CONTINUOUS
100
AcDbVertex
100
AcDb2dVertex
 10
90.0
 20
-570.0
 30
0.0
  0
SEQEND
  5
DF3415280E09E7C9
100
AcDbEntity
  8
PORTS
  6
CONTINUOUS
  0
POINT
  5
DF3415280E09E7CA
100
AcDbEntity
  8
PORTS
  6
CONTINUOUS
100
AcDbPoint
 10
90.0
 20
-570.0
 30
0.0
  0
LINE
  5
DF3415280E09E7CB
100
AcDbEntity
  8
DETAIL_MEDIUM
  6
CONTINUOUS
100
AcDbLine
 10
90.0
 20
-570.0
 30
0.0
 11
190.0
 21
-570.0
 31
0.0
  0
ENDBLK
  5
DF34154DDF40E1F9
100
AcDbEntity
  8
DETAIL_MEDIUM
  6
CONTINUOUS
100
AcDbBlockEnd
  0
BLOCK
  5
DF34154DDF40E1FD
100
AcDbEntity
  8
DETAIL_MEDIUM
  6
CONTINUOUS
100
AcDbBlockBegin
  2
COMMON_BLOCK_INPUT_PORT_5
 70
     2
 10
0.0
 20
0.0
 30
0.0
  1

  0
POLYLINE
  5
DF3415293B5B5657
100
AcDbEntity
  8
PORTS
  6
CONTINUOUS
100
AcDb2dPolyline
 66
     1
 10
0.0
 20
0.0
 30
0.0
 70
     1
  0
VERTEX
  5
DF3415293B5B5658
100
AcDbEntity
  8
PORTS
  6
CONTINUOUS
100
AcDbVertex
100
AcDb2dVertex
 10
230.0
 20
-90.0
 30
0.0
  0
VERTEX
  5
DF3415293B5B5659
100
AcDbEntity
  8
PORTS
  6
CONTINUOUS
100
AcDbVertex
100
AcDb2dVertex
 10
224.0
 20
-82.0
 30
0.0
  0
VERTEX
  5
DF3415293B5B565A
100
AcDbEntity
  8
PORTS
  6
CONTINUOUS
100
AcDbVertex
100
AcDb2dVertex
 10
224.0
 20
-10.0
 30
0.0
  0
VERTEX
  5
DF3415293B5B565B
100
AcDbEntity
  8
PORTS
  6
CONTINUOUS
100
AcDbVertex
100
AcDb2dVertex
 10
236.0
 20
-10.0
 30
0.0
  0
VERTEX
  5
DF3415293B5B565C
100
AcDbEntity
  8
PORTS
  6
CONTINUOUS
100
AcDbVertex
100
AcDb2dVertex
 10
236.0
 20
-82.0
 30
0.0
  0
VERTEX
  5
DF3415293B5B565D
100
AcDbEntity
  8
PORTS
  6
CONTINUOUS
100
AcDbVertex
100
AcDb2dVertex
 10
230.0
 20
-90.0
 30
0.0
  0
SEQEND
  5
DF3415293B5B565E
100
AcDbEntity
  8
PORTS
  6
CONTINUOUS
  0
POINT
  5
DF3415293B5B565F
100
AcDbEntity
  8
PORTS
  6
CONTINUOUS
100
AcDbPoint
 10
230.0
 20
-90.0
 30
0.0
  0
LINE
  5
DF3415293B5B5660
100
AcDbEntity
  8
DETAIL_MEDIUM
  6
CONTINUOUS
100
AcDbLine
 10
230.0
 20
-90.0
 30
0.0
 11
230.0
 21
-190.0
 31
0.0
  0
ATTDEF
  5
DF3415293B5B5661
100
AcDbEntity
  8
PORTS
  6
CONTINUOUS
100
AcDbText
 10
222.0
 20
2.0
 30
0.0
 40
10.0
  1

  7
SIMPLEX
100
AcDbAttributeDefinition
  3

  2
SIDE
 70
     0
  0
ENDBLK
  5
DF34154DDF40E1FF
100
AcDbEntity
  8
DETAIL_MEDIUM
  6
CONTINUOUS
100
AcDbBlockEnd
  0
BLOCK
  5
DF34154DDF40E203
100
AcDbEntity
  8
DETAIL_MEDIUM
  6
CONTINUOUS
100
AcDbBlockBegin
  2
COMMON_BLOCK_INPUT_PORT_6
 70
     2
 10
0.0
 20
0.0
 30
0.0
  1

  0
ATTDEF
  5
DF34152A69F1C303
100
AcDbEntity
  8
PORTS
  6
CONTINUOUS
100
AcDbText
 10
292.0
 20
2.0
 30
0.0
 40
10.0
  1

  7
SIMPLEX
100
AcDbAttributeDefinition
  3

  2
SIDE
 70
     0
  0
POLYLINE
  5
DF34152A69F1C304
100
AcDbEntity
  8
PORTS
  6
CONTINUOUS
100
AcDb2dPolyline
 66
     1
 10
0.0
 20
0.0
 30
0.0
 70
     1
  0
VERTEX
  5
DF34152A69F1C305
100
AcDbEntity
  8
PORTS
  6
CONTINUOUS
100
AcDbVertex
100
AcDb2dVertex
 10
300.0
 20
-90.0
 30
0.0
  0
VERTEX
  5
DF34152A69F1C306
100
AcDbEntity
  8
PORTS
  6
CONTINUOUS
100
AcDbVertex
100
AcDb2dVertex
 10
294.0
 20
-82.0
 30
0.0
  0
VERTEX
  5
DF34152A69F1C307
100
AcDbEntity
  8
PORTS
  6
CONTINUOUS
100
AcDbVertex
100
AcDb2dVertex
 10
294.0
 20
-10.0
 30
0.0
  0
VERTEX
  5
DF34152A69F1C308
100
AcDbEntity
  8
PORTS
  6
CONTINUOUS
100
AcDbVertex
100
AcDb2dVertex
 10
306.0
 20
-10.0
 30
0.0
  0
VERTEX
  5
DF34152A69F1C309
100
AcDbEntity
  8
PORTS
  6
CONTINUOUS
100
AcDbVertex
100
AcDb2dVertex
 10
306.0
 20
-82.0
 30
0.0
  0
VERTEX
  5
DF34152A69F1C30A
100
AcDbEntity
  8
PORTS
  6
CONTINUOUS
100
AcDbVertex
100
AcDb2dVertex
 10
300.0
 20
-90.0
 30
0.0
  0
SEQEND
  5
DF34152A69F1C30B
100
AcDbEntity
  8
PORTS
  6
CONTINUOUS
  0
POINT
  5
DF34152A69F1C30C
100
AcDbEntity
  8
PORTS
  6
CONTINUOUS
100
AcDbPoint
 10
300.0
 20
-90.0
 30
0.0
  0
LINE
  5
DF34152A69F1C30D
100
AcDbEntity
  8
DETAIL_MEDIUM
  6
CONTINUOUS
100
AcDbLine
 10
300.0
 20
-90.0
 30
0.0
 11
300.0
 21
-190.0
 31
0.0
  0
ENDBLK
  5
DF34154DDF40E205
100
AcDbEntity
  8
DETAIL_MEDIUM
  6
CONTINUOUS
100
AcDbBlockEnd
  0
BLOCK
  5
DF34154DDF40E209
100
AcDbEntity
  8
DETAIL_MEDIUM
  6
CONTINUOUS
100
AcDbBlockBegin
  2
COMMON_BLOCK_INPUT_PORT_7
 70
     2
 10
0.0
 20
0.0
 30
0.0
  1

  0
ATTDEF
  5
DF34152CC71E9C5E
100
AcDbEntity
  8
PORTS
  6
CONTINUOUS
100
AcDbText
 10
362.0
 20
2.0
 30
0.0
 40
10.0
  1

  7
SIMPLEX
100
AcDbAttributeDefinition
  3

  2
SIDE
 70
     0
  0
POLYLINE
  5
DF34152CC71E9C55
100
AcDbEntity
  8
PORTS
  6
CONTINUOUS
100
AcDb2dPolyline
 66
     1
 10
0.0
 20
0.0
 30
0.0
 70
     1
  0
VERTEX
  5
DF34152CC71E9C56
100
AcDbEntity
  8
PORTS
  6
CONTINUOUS
100
AcDbVertex
100
AcDb2dVertex
 10
370.0
 20
-90.0
 30
0.0
  0
VERTEX
  5
DF34152CC71E9C57
100
AcDbEntity
  8
PORTS
  6
CONTINUOUS
100
AcDbVertex
100
AcDb2dVertex
 10
364.0
 20
-82.0
 30
0.0
  0
VERTEX
  5
DF34152CC71E9C58
100
AcDbEntity
  8
PORTS
  6
CONTINUOUS
100
AcDbVertex
100
AcDb2dVertex
 10
364.0
 20
-10.0
 30
0.0
  0
VERTEX
  5
DF34152CC71E9C59
100
AcDbEntity
  8
PORTS
  6
CONTINUOUS
100
AcDbVertex
100
AcDb2dVertex
 10
376.0
 20
-10.0
 30
0.0
  0
VERTEX
  5
DF34152CC71E9C5A
100
AcDbEntity
  8
PORTS
  6
CONTINUOUS
100
AcDbVertex
100
AcDb2dVertex
 10
376.0
 20
-82.0
 30
0.0
  0
VERTEX
  5
DF34152CC71E9C5B
100
AcDbEntity
  8
PORTS
  6
CONTINUOUS
100
AcDbVertex
100
AcDb2dVertex
 10
370.0
 20
-90.0
 30
0.0
  0
SEQEND
  5
DF34152CC71E9C5C
100
AcDbEntity
  8
PORTS
  6
CONTINUOUS
  0
POINT
  5
DF34152CC71E9C5D
100
AcDbEntity
  8
PORTS
  6
CONTINUOUS
100
AcDbPoint
 10
370.0
 20
-90.0
 30
0.0
  0
LINE
  5
DF34152CC71E9C5F
100
AcDbEntity
  8
DETAIL_MEDIUM
  6
CONTINUOUS
100
AcDbLine
 10
370.0
 20
-90.0
 30
0.0
 11
370.0
 21
-190.0
 31
0.0
  0
ENDBLK
  5
DF34154DDF40E20B
100
AcDbEntity
  8
DETAIL_MEDIUM
  6
CONTINUOUS
100
AcDbBlockEnd
  0
BLOCK
  5
DF34154DDF40E20F
100
AcDbEntity
  8
DETAIL_MEDIUM
  6
CONTINUOUS
100
AcDbBlockBegin
  2
COMMON_BLOCK_INPUT_PORT_8
 70
     2
 10
0.0
 20
0.0
 30
0.0
  1

  0
ATTDEF
  5
DF34153AF6174CDC
100
AcDbEntity
  8
PORTS
  6
CONTINUOUS
100
AcDbText
 10
432.0
 20
2.0
 30
0.0
 40
10.0
  1

  7
SIMPLEX
100
AcDbAttributeDefinition
  3

  2
SIDE
 70
     0
  0
POLYLINE
  5
DF34153AF6174CD2
100
AcDbEntity
  8
PORTS
  6
CONTINUOUS
100
AcDb2dPolyline
 66
     1
 10
0.0
 20
0.0
 30
0.0
 70
     1
  0
VERTEX
  5
DF34153AF6174CD3
100
AcDbEntity
  8
PORTS
  6
CONTINUOUS
100
AcDbVertex
100
AcDb2dVertex
 10
440.0
 20
-90.0
 30
0.0
  0
VERTEX
  5
DF34153AF6174CD4
100
AcDbEntity
  8
PORTS
  6
CONTINUOUS
100
AcDbVertex
100
AcDb2dVertex
 10
434.0
 20
-82.0
 30
0.0
  0
VERTEX
  5
DF34153AF6174CD5
100
AcDbEntity
  8
PORTS
  6
CONTINUOUS
100
AcDbVertex
100
AcDb2dVertex
 10
434.0
 20
-10.0
 30
0.0
  0
VERTEX
  5
DF34153AF6174CD6
100
AcDbEntity
  8
PORTS
  6
CONTINUOUS
100
AcDbVertex
100
AcDb2dVertex
 10
446.0
 20
-10.0
 30
0.0
  0
VERTEX
  5
DF34153AF6174CD7
100
AcDbEntity
  8
PORTS
  6
CONTINUOUS
100
AcDbVertex
100
AcDb2dVertex
 10
446.0
 20
-82.0
 30
0.0
  0
VERTEX
  5
DF34153AF6174CD8
100
AcDbEntity
  8
PORTS
  6
CONTINUOUS
100
AcDbVertex
100
AcDb2dVertex
 10
440.0
 20
-90.0
 30
0.0
  0
SEQEND
  5
DF34153AF6174CD9
100
AcDbEntity
  8
PORTS
  6
CONTINUOUS
  0
POINT
  5
DF34153AF6174CDA
100
AcDbEntity
  8
PORTS
  6
CONTINUOUS
100
AcDbPoint
 10
440.0
 20
-90.0
 30
0.0
  0
LINE
  5
DF34153AF6174CDB
100
AcDbEntity
  8
DETAIL_MEDIUM
  6
CONTINUOUS
100
AcDbLine
 10
440.0
 20
-90.0
 30
0.0
 11
440.0
 21
-190.0
 31
0.0
  0
ENDBLK
  5
DF34154DDF40E211
100
AcDbEntity
  8
DETAIL_MEDIUM
  6
CONTINUOUS
100
AcDbBlockEnd
  0
BLOCK
  5
DF34154DDF40E215
100
AcDbEntity
  8
DETAIL_MEDIUM
  6
CONTINUOUS
100
AcDbBlockBegin
  2
COMMON_BLOCK_INPUT_PORT_9
 70
     2
 10
0.0
 20
0.0
 30
0.0
  1

  0
ATTDEF
  5
DF34154DDF40E187
100
AcDbEntity
  8
PORTS
  6
CONTINUOUS
100
AcDbText
 10
502.0
 20
2.0
 30
0.0
 40
10.0
  1

  7
SIMPLEX
100
AcDbAttributeDefinition
  3

  2
SIDE
 70
     0
  0
POINT
  5
DF34154DDF40E188
100
AcDbEntity
  8
PORTS
  6
CONTINUOUS
100
AcDbPoint
 10
510.0
 20
-90.0
 30
0.0
  0
POLYLINE
  5
DF34154DDF40E189
100
AcDbEntity
  8
PORTS
  6
CONTINUOUS
100
AcDb2dPolyline
 66
     1
 10
0.0
 20
0.0
 30
0.0
 70
     1
  0
VERTEX
  5
DF34154DDF40E18A
100
AcDbEntity
  8
PORTS
  6
CONTINUOUS
100
AcDbVertex
100
AcDb2dVertex
 10
510.0
 20
-90.0
 30
0.0
  0
VERTEX
  5
DF34154DDF40E18B
100
AcDbEntity
  8
PORTS
  6
CONTINUOUS
100
AcDbVertex
100
AcDb2dVertex
 10
504.0
 20
-82.0
 30
0.0
  0
VERTEX
  5
DF34154DDF40E18C
100
AcDbEntity
  8
PORTS
  6
CONTINUOUS
100
AcDbVertex
100
AcDb2dVertex
 10
504.0
 20
-10.0
 30
0.0
  0
VERTEX
  5
DF34154DDF40E18D
100
AcDbEntity
  8
PORTS
  6
CONTINUOUS
100
AcDbVertex
100
AcDb2dVertex
 10
516.0
 20
-10.0
 30
0.0
  0
VERTEX
  5
DF34154DDF40E18E
100
AcDbEntity
  8
PORTS
  6
CONTINUOUS
100
AcDbVertex
100
AcDb2dVertex
 10
516.0
 20
-82.0
 30
0.0
  0
VERTEX
  5
DF34154DDF40E18F
100
AcDbEntity
  8
PORTS
  6
CONTINUOUS
100
AcDbVertex
100
AcDb2dVertex
 10
510.0
 20
-90.0
 30
0.0
  0
SEQEND
  5
DF34154DDF40E190
100
AcDbEntity
  8
PORTS
  6
CONTINUOUS
  0
LINE
  5
DF34154DDF40E191
100
AcDbEntity
  8
DETAIL_MEDIUM
  6
CONTINUOUS
100
AcDbLine
 10
510.0
 20
-90.0
 30
0.0
 11
510.0
 21
-190.0
 31
0.0
  0
ENDBLK
  5
DF34154DDF40E217
100
AcDbEntity
  8
DETAIL_MEDIUM
  6
CONTINUOUS
100
AcDbBlockEnd
  0
BLOCK
  5
DF34154DDF40E21B
100
AcDbEntity
  8
DETAIL_MEDIUM
  6
CONTINUOUS
100
AcDbBlockBegin
  2
COMMON_BLOCK_OUTPUT_PORT_0
 70
     2
 10
0.0
 20
0.0
 30
0.0
  1

  0
LINE
  5
DF341528A4102007
100
AcDbEntity
  8
DETAIL_MEDIUM
  6
CONTINUOUS
100
AcDbLine
 10
540.0
 20
-250.0
 30
0.0
 11
640.0
 21
-250.0
 31
0.0
  0
POINT
  5
DF341528A4102006
100
AcDbEntity
  8
PORTS
  6
CONTINUOUS
100
AcDbPoint
 10
640.0
 20
-250.0
 30
0.0
  0
ATTDEF
  5
DF341528A4102005
100
AcDbEntity
  8
PORTS
  6
CONTINUOUS
100
AcDbText
 10
642.0
 20
-238.0
 30
0.0
 40
10.0
  1

 50
0.000019
  7
SIMPLEX
100
AcDbAttributeDefinition
  3

  2
SIDE
 70
     0
  0
POLYLINE
  5
DF341528A4101FFD
100
AcDbEntity
  8
PORTS
  6
CONTINUOUS
100
AcDb2dPolyline
 66
     1
 10
0.0
 20
0.0
 30
0.0
 70
     1
  0
VERTEX
  5
DF341528A4101FFE
100
AcDbEntity
  8
PORTS
  6
CONTINUOUS
100
AcDbVertex
100
AcDb2dVertex
 10
720.0
 20
-250.0
 30
0.0
  0
VERTEX
  5
DF341528A4101FFF
100
AcDbEntity
  8
PORTS
  6
CONTINUOUS
100
AcDbVertex
100
AcDb2dVertex
 10
712.0
 20
-256.0
 30
0.0
  0
VERTEX
  5
DF341528A4102000
100
AcDbEntity
  8
PORTS
  6
CONTINUOUS
100
AcDbVertex
100
AcDb2dVertex
 10
640.0
 20
-256.0
 30
0.0
  0
VERTEX
  5
DF341528A4102001
100
AcDbEntity
  8
PORTS
  6
CONTINUOUS
100
AcDbVertex
100
AcDb2dVertex
 10
640.0
 20
-244.0
 30
0.0
  0
VERTEX
  5
DF341528A4102002
100
AcDbEntity
  8
PORTS
  6
CONTINUOUS
100
AcDbVertex
100
AcDb2dVertex
 10
712.0
 20
-244.0
 30
0.0
  0
VERTEX
  5
DF341528A4102003
100
AcDbEntity
  8
PORTS
  6
CONTINUOUS
100
AcDbVertex
100
AcDb2dVertex
 10
720.0
 20
-250.0
 30
0.0
  0
SEQEND
  5
DF341528A4102004
100
AcDbEntity
  8
PORTS
  6
CONTINUOUS
  0
ENDBLK
  5
DF34154DDF40E21D
100
AcDbEntity
  8
DETAIL_MEDIUM
  6
CONTINUOUS
100
AcDbBlockEnd
  0
BLOCK
  5
DF34154DDF40E221
100
AcDbEntity
  8
DETAIL_MEDIUM
  6
CONTINUOUS
100
AcDbBlockBegin
  2
COMMON_BLOCK_OUTPUT_PORT_1
 70
     2
 10
0.0
 20
0.0
 30
0.0
  1

  0
POLYLINE
  5
DF34154DDF40E1A8
100
AcDbEntity
  8
PORTS
  6
CONTINUOUS
100
AcDb2dPolyline
 66
     1
 10
0.0
 20
0.0
 30
0.0
 70
     1
  0
VERTEX
  5
DF34154DDF40E1A9
100
AcDbEntity
  8
PORTS
  6
CONTINUOUS
100
AcDbVertex
100
AcDb2dVertex
 10
720.0
 20
-320.0
 30
0.0
  0
VERTEX
  5
DF34154DDF40E1AA
100
AcDbEntity
  8
PORTS
  6
CONTINUOUS
100
AcDbVertex
100
AcDb2dVertex
 10
712.0
 20
-326.0
 30
0.0
  0
VERTEX
  5
DF34154DDF40E1AB
100
AcDbEntity
  8
PORTS
  6
CONTINUOUS
100
AcDbVertex
100
AcDb2dVertex
 10
640.0
 20
-326.0
 30
0.0
  0
VERTEX
  5
DF34154DDF40E1AC
100
AcDbEntity
  8
PORTS
  6
CONTINUOUS
100
AcDbVertex
100
AcDb2dVertex
 10
640.0
 20
-314.0
 30
0.0
  0
VERTEX
  5
DF34154DDF40E1AD
100
AcDbEntity
  8
PORTS
  6
CONTINUOUS
100
AcDbVertex
100
AcDb2dVertex
 10
712.0
 20
-314.0
 30
0.0
  0
VERTEX
  5
DF34154DDF40E1AE
100
AcDbEntity
  8
PORTS
  6
CONTINUOUS
100
AcDbVertex
100
AcDb2dVertex
 10
720.0
 20
-320.0
 30
0.0
  0
SEQEND
  5
DF34154DDF40E1AF
100
AcDbEntity
  8
PORTS
  6
CONTINUOUS
  0
ATTDEF
  5
DF34154DDF40E1B0
100
AcDbEntity
  8
PORTS
  6
CONTINUOUS
100
AcDbText
 10
642.0
 20
-308.0
 30
0.0
 40
10.0
  1

 50
0.000019
  7
SIMPLEX
100
AcDbAttributeDefinition
  3

  2
SIDE
 70
     0
  0
POINT
  5
DF34154DDF40E1B1
100
AcDbEntity
  8
PORTS
  6
CONTINUOUS
100
AcDbPoint
 10
640.0
 20
-320.0
 30
0.0
  0
LINE
  5
DF34154DDF40E1B2
100
AcDbEntity
  8
DETAIL_MEDIUM
  6
CONTINUOUS
100
AcDbLine
 10
540.0
 20
-320.0
 30
0.0
 11
640.0
 21
-320.0
 31
0.0
  0
ENDBLK
  5
DF34154DDF40E223
100
AcDbEntity
  8
DETAIL_MEDIUM
  6
CONTINUOUS
100
AcDbBlockEnd
  0
BLOCK
  5
DF34154DDF40E227
100
AcDbEntity
  8
DETAIL_MEDIUM
  6
CONTINUOUS
100
AcDbBlockBegin
  2
COMMON_BLOCK_OUTPUT_PORT_2
 70
     2
 10
0.0
 20
0.0
 30
0.0
  1

  0
POLYLINE
  5
DF341528586A8529
100
AcDbEntity
  8
PORTS
  6
CONTINUOUS
100
AcDb2dPolyline
 66
     1
 10
0.0
 20
0.0
 30
0.0
 70
     1
  0
VERTEX
  5
DF341528586A852A
100
AcDbEntity
  8
PORTS
  6
CONTINUOUS
100
AcDbVertex
100
AcDb2dVertex
 10
720.0
 20
-400.0
 30
0.0
  0
VERTEX
  5
DF341528586A852B
100
AcDbEntity
  8
PORTS
  6
CONTINUOUS
100
AcDbVertex
100
AcDb2dVertex
 10
712.0
 20
-406.0
 30
0.0
  0
VERTEX
  5
DF341528586A852C
100
AcDbEntity
  8
PORTS
  6
CONTINUOUS
100
AcDbVertex
100
AcDb2dVertex
 10
640.0
 20
-406.0
 30
0.0
  0
VERTEX
  5
DF341528586A852D
100
AcDbEntity
  8
PORTS
  6
CONTINUOUS
100
AcDbVertex
100
AcDb2dVertex
 10
640.0
 20
-394.0
 30
0.0
  0
VERTEX
  5
DF341528586A852E
100
AcDbEntity
  8
PORTS
  6
CONTINUOUS
100
AcDbVertex
100
AcDb2dVertex
 10
712.0
 20
-394.0
 30
0.0
  0
VERTEX
  5
DF341528586A852F
100
AcDbEntity
  8
PORTS
  6
CONTINUOUS
100
AcDbVertex
100
AcDb2dVertex
 10
720.0
 20
-400.0
 30
0.0
  0
SEQEND
  5
DF341528586A8530
100
AcDbEntity
  8
PORTS
  6
CONTINUOUS
  0
ATTDEF
  5
DF341528586A8531
100
AcDbEntity
  8
PORTS
  6
CONTINUOUS
100
AcDbText
 10
642.0
 20
-388.0
 30
0.0
 40
10.0
  1

 50
0.000019
  7
SIMPLEX
100
AcDbAttributeDefinition
  3

  2
SIDE
 70
     0
  0
POINT
  5
DF341528586A8532
100
AcDbEntity
  8
PORTS
  6
CONTINUOUS
100
AcDbPoint
 10
640.0
 20
-400.0
 30
0.0
  0
LINE
  5
DF341528586A8533
100
AcDbEntity
  8
DETAIL_MEDIUM
  6
CONTINUOUS
100
AcDbLine
 10
540.0
 20
-400.0
 30
0.0
 11
640.0
 21
-400.0
 31
0.0
  0
ENDBLK
  5
DF34154DDF40E229
100
AcDbEntity
  8
DETAIL_MEDIUM
  6
CONTINUOUS
100
AcDbBlockEnd
  0
BLOCK
  5
DF34154DDF40E22D
100
AcDbEntity
  8
DETAIL_MEDIUM
  6
CONTINUOUS
100
AcDbBlockBegin
  2
COMMON_BLOCK_OUTPUT_PORT_3
 70
     2
 10
0.0
 20
0.0
 30
0.0
  1

  0
POLYLINE
  5
DF34154DDF40E1B3
100
AcDbEntity
  8
PORTS
  6
CONTINUOUS
100
AcDb2dPolyline
 66
     1
 10
0.0
 20
0.0
 30
0.0
 70
     1
  0
VERTEX
  5
DF34154DDF40E1B4
100
AcDbEntity
  8
PORTS
  6
CONTINUOUS
100
AcDbVertex
100
AcDb2dVertex
 10
720.0
 20
-490.0
 30
0.0
  0
VERTEX
  5
DF34154DDF40E1B5
100
AcDbEntity
  8
PORTS
  6
CONTINUOUS
100
AcDbVertex
100
AcDb2dVertex
 10
712.0
 20
-496.0
 30
0.0
  0
VERTEX
  5
DF34154DDF40E1B6
100
AcDbEntity
  8
PORTS
  6
CONTINUOUS
100
AcDbVertex
100
AcDb2dVertex
 10
640.0
 20
-496.0
 30
0.0
  0
VERTEX
  5
DF34154DDF40E1B7
100
AcDbEntity
  8
PORTS
  6
CONTINUOUS
100
AcDbVertex
100
AcDb2dVertex
 10
640.0
 20
-484.0
 30
0.0
  0
VERTEX
  5
DF34154DDF40E1B8
100
AcDbEntity
  8
PORTS
  6
CONTINUOUS
100
AcDbVertex
100
AcDb2dVertex
 10
712.0
 20
-484.0
 30
0.0
  0
VERTEX
  5
DF34154DDF40E1B9
100
AcDbEntity
  8
PORTS
  6
CONTINUOUS
100
AcDbVertex
100
AcDb2dVertex
 10
720.0
 20
-490.0
 30
0.0
  0
SEQEND
  5
DF34154DDF40E1BA
100
AcDbEntity
  8
PORTS
  6
CONTINUOUS
  0
ATTDEF
  5
DF34154DDF40E1BB
100
AcDbEntity
  8
PORTS
  6
CONTINUOUS
100
AcDbText
 10
642.0
 20
-478.0
 30
0.0
 40
10.0
  1

 50
0.000019
  7
SIMPLEX
100
AcDbAttributeDefinition
  3

  2
SIDE
 70
     0
  0
POINT
  5
DF34154DDF40E1BC
100
AcDbEntity
  8
PORTS
  6
CONTINUOUS
100
AcDbPoint
 10
640.0
 20
-490.0
 30
0.0
  0
LINE
  5
DF34154DDF40E1BD
100
AcDbEntity
  8
DETAIL_MEDIUM
  6
CONTINUOUS
100
AcDbLine
 10
540.0
 20
-490.0
 30
0.0
 11
640.0
 21
-490.0
 31
0.0
  0
ENDBLK
  5
DF34154DDF40E22F
100
AcDbEntity
  8
DETAIL_MEDIUM
  6
CONTINUOUS
100
AcDbBlockEnd
  0
BLOCK
  5
DF34154DDF40E233
100
AcDbEntity
  8
DETAIL_MEDIUM
  6
CONTINUOUS
100
AcDbBlockBegin
  2
COMMON_BLOCK_OUTPUT_PORT_4
 70
     2
 10
0.0
 20
0.0
 30
0.0
  1

  0
POLYLINE
  5
DF3415283297B7BF
100
AcDbEntity
  8
PORTS
  6
CONTINUOUS
100
AcDb2dPolyline
 66
     1
 10
0.0
 20
0.0
 30
0.0
 70
     1
  0
VERTEX
  5
DF3415283297B7C0
100
AcDbEntity
  8
PORTS
  6
CONTINUOUS
100
AcDbVertex
100
AcDb2dVertex
 10
720.0
 20
-570.0
 30
0.0
  0
VERTEX
  5
DF3415283297B7C1
100
AcDbEntity
  8
PORTS
  6
CONTINUOUS
100
AcDbVertex
100
AcDb2dVertex
 10
712.0
 20
-576.0
 30
0.0
  0
VERTEX
  5
DF3415283297B7C2
100
AcDbEntity
  8
PORTS
  6
CONTINUOUS
100
AcDbVertex
100
AcDb2dVertex
 10
640.0
 20
-576.0
 30
0.0
  0
VERTEX
  5
DF3415283297B7C3
100
AcDbEntity
  8
PORTS
  6
CONTINUOUS
100
AcDbVertex
100
AcDb2dVertex
 10
640.0
 20
-564.0
 30
0.0
  0
VERTEX
  5
DF3415283297B7C4
100
AcDbEntity
  8
PORTS
  6
CONTINUOUS
100
AcDbVertex
100
AcDb2dVertex
 10
712.0
 20
-564.0
 30
0.0
  0
VERTEX
  5
DF3415283297B7C5
100
AcDbEntity
  8
PORTS
  6
CONTINUOUS
100
AcDbVertex
100
AcDb2dVertex
 10
720.0
 20
-570.0
 30
0.0
  0
SEQEND
  5
DF3415283297B7C6
100
AcDbEntity
  8
PORTS
  6
CONTINUOUS
  0
ATTDEF
  5
DF3415283297B7C7
100
AcDbEntity
  8
PORTS
  6
CONTINUOUS
100
AcDbText
 10
642.0
 20
-558.0
 30
0.0
 40
10.0
  1

 50
0.000019
  7
SIMPLEX
100
AcDbAttributeDefinition
  3

  2
SIDE
 70
     0
  0
POINT
  5
DF3415283297B7C8
100
AcDbEntity
  8
PORTS
  6
CONTINUOUS
100
AcDbPoint
 10
640.0
 20
-570.0
 30
0.0
  0
LINE
  5
DF3415283297B7C9
100
AcDbEntity
  8
DETAIL_MEDIUM
  6
CONTINUOUS
100
AcDbLine
 10
540.0
 20
-570.0
 30
0.0
 11
640.0
 21
-570.0
 31
0.0
  0
ENDBLK
  5
DF34154DDF40E235
100
AcDbEntity
  8
DETAIL_MEDIUM
  6
CONTINUOUS
100
AcDbBlockEnd
  0
BLOCK
  5
DF34154DDF40E239
100
AcDbEntity
  8
DETAIL_MEDIUM
  6
CONTINUOUS
100
AcDbBlockBegin
  2
COMMON_BLOCK_OUTPUT_PORT_5
 70
     2
 10
0.0
 20
0.0
 30
0.0
  1

  0
ATTDEF
  5
DF34154DDF40E1A7
100
AcDbEntity
  8
PORTS
  6
CONTINUOUS
100
AcDbText
 10
222.0
 20
-838.0
 30
0.0
 40
10.0
  1

  7
SIMPLEX
100
AcDbAttributeDefinition
  3

  2
SIDE
 70
     0
  0
POLYLINE
  5
DF34154DDF40E19F
100
AcDbEntity
  8
PORTS
  6
CONTINUOUS
100
AcDb2dPolyline
 66
     1
 10
0.0
 20
0.0
 30
0.0
 70
     1
  0
VERTEX
  5
DF34154DDF40E1A0
100
AcDbEntity
  8
PORTS
  6
CONTINUOUS
100
AcDbVertex
100
AcDb2dVertex
 10
230.0
 20
-810.0
 30
0.0
  0
VERTEX
  5
DF34154DDF40E1A1
100
AcDbEntity
  8
PORTS
  6
CONTINUOUS
100
AcDbVertex
100
AcDb2dVertex
 10
224.0
 20
-802.0
 30
0.0
  0
VERTEX
  5
DF34154DDF40E1A2
100
AcDbEntity
  8
PORTS
  6
CONTINUOUS
100
AcDbVertex
100
AcDb2dVertex
 10
224.0
 20
-730.0
 30
0.0
  0
VERTEX
  5
DF34154DDF40E1A3
100
AcDbEntity
  8
PORTS
  6
CONTINUOUS
100
AcDbVertex
100
AcDb2dVertex
 10
236.0
 20
-730.0
 30
0.0
  0
VERTEX
  5
DF34154DDF40E1A4
100
AcDbEntity
  8
PORTS
  6
CONTINUOUS
100
AcDbVertex
100
AcDb2dVertex
 10
236.0
 20
-802.0
 30
0.0
  0
VERTEX
  5
DF34154DDF40E1A5
100
AcDbEntity
  8
PORTS
  6
CONTINUOUS
100
AcDbVertex
100
AcDb2dVertex
 10
230.0
 20
-810.0
 30
0.0
  0
SEQEND
  5
DF34154DDF40E1A6
100
AcDbEntity
  8
PORTS
  6
CONTINUOUS
  0
LINE
  5
DF34154DDF40E19D
100
AcDbEntity
  8
DETAIL_MEDIUM
  6
CONTINUOUS
100
AcDbLine
 10
230.0
 20
-630.0
 30
0.0
 11
230.0
 21
-730.0
 31
0.0
  0
POINT
  5
DF34154DDF40E19E
100
AcDbEntity
  8
PORTS
  6
CONTINUOUS
100
AcDbPoint
 10
230.0
 20
-730.0
 30
0.0
  0
ENDBLK
  5
DF34154DDF40E23B
100
AcDbEntity
  8
DETAIL_MEDIUM
  6
CONTINUOUS
100
AcDbBlockEnd
  0
BLOCK
  5
DF34154DDF40E23F
100
AcDbEntity
  8
DETAIL_MEDIUM
  6
CONTINUOUS
100
AcDbBlockBegin
  2
COMMON_BLOCK_OUTPUT_PORT_6
 70
     2
 10
0.0
 20
0.0
 30
0.0
  1

  0
POINT
  5
DF3415280F4BFBE7
100
AcDbEntity
  8
PORTS
  6
CONTINUOUS
100
AcDbPoint
 10
300.0
 20
-730.0
 30
0.0
  0
POLYLINE
  5
DF3415280F4BFBE8
100
AcDbEntity
  8
PORTS
  6
CONTINUOUS
100
AcDb2dPolyline
 66
     1
 10
0.0
 20
0.0
 30
0.0
 70
     1
  0
VERTEX
  5
DF3415280F4BFBE9
100
AcDbEntity
  8
PORTS
  6
CONTINUOUS
100
AcDbVertex
100
AcDb2dVertex
 10
300.0
 20
-810.0
 30
0.0
  0
VERTEX
  5
DF3415280F4BFBEA
100
AcDbEntity
  8
PORTS
  6
CONTINUOUS
100
AcDbVertex
100
AcDb2dVertex
 10
294.0
 20
-802.0
 30
0.0
  0
VERTEX
  5
DF3415280F4BFBEB
100
AcDbEntity
  8
PORTS
  6
CONTINUOUS
100
AcDbVertex
100
AcDb2dVertex
 10
294.0
 20
-730.0
 30
0.0
  0
VERTEX
  5
DF3415280F4BFBEC
100
AcDbEntity
  8
PORTS
  6
CONTINUOUS
100
AcDbVertex
100
AcDb2dVertex
 10
306.0
 20
-730.0
 30
0.0
  0
VERTEX
  5
DF3415280F4BFBED
100
AcDbEntity
  8
PORTS
  6
CONTINUOUS
100
AcDbVertex
100
AcDb2dVertex
 10
306.0
 20
-802.0
 30
0.0
  0
VERTEX
  5
DF3415280F4BFBEE
100
AcDbEntity
  8
PORTS
  6
CONTINUOUS
100
AcDbVertex
100
AcDb2dVertex
 10
300.0
 20
-810.0
 30
0.0
  0
SEQEND
  5
DF3415280F4BFBEF
100
AcDbEntity
  8
PORTS
  6
CONTINUOUS
  0
ATTDEF
  5
DF3415280F4BFBF0
100
AcDbEntity
  8
PORTS
  6
CONTINUOUS
100
AcDbText
 10
292.0
 20
-838.0
 30
0.0
 40
10.0
  1

  7
SIMPLEX
100
AcDbAttributeDefinition
  3

  2
SIDE
 70
     0
  0
LINE
  5
DF3415280F4BFBE6
100
AcDbEntity
  8
DETAIL_MEDIUM
  6
CONTINUOUS
100
AcDbLine
 10
300.0
 20
-630.0
 30
0.0
 11
300.0
 21
-730.0
 31
0.0
  0
ENDBLK
  5
DF34154DDF40E241
100
AcDbEntity
  8
DETAIL_MEDIUM
  6
CONTINUOUS
100
AcDbBlockEnd
  0
BLOCK
  5
DF34154DDF40E245
100
AcDbEntity
  8
DETAIL_MEDIUM
  6
CONTINUOUS
100
AcDbBlockBegin
  2
COMMON_BLOCK_OUTPUT_PORT_7
 70
     2
 10
0.0
 20
0.0
 30
0.0
  1

  0
ATTDEF
  5
DF341528118172F2
100
AcDbEntity
  8
PORTS
  6
CONTINUOUS
100
AcDbText
 10
352.0
 20
-838.0
 30
0.0
 40
10.0
  1

  7
SIMPLEX
100
AcDbAttributeDefinition
  3

  2
SIDE
 70
     0
  0
POLYLINE
  5
DF341528118172F3
100
AcDbEntity
  8
PORTS
  6
CONTINUOUS
100
AcDb2dPolyline
 66
     1
 10
0.0
 20
0.0
 30
0.0
 70
     1
  0
VERTEX
  5
DF341528118172F4
100
AcDbEntity
  8
PORTS
  6
CONTINUOUS
100
AcDbVertex
100
AcDb2dVertex
 10
360.0
 20
-810.0
 30
0.0
  0
VERTEX
  5
DF341528118172F5
100
AcDbEntity
  8
PORTS
  6
CONTINUOUS
100
AcDbVertex
100
AcDb2dVertex
 10
354.0
 20
-802.0
 30
0.0
  0
VERTEX
  5
DF341528118172F6
100
AcDbEntity
  8
PORTS
  6
CONTINUOUS
100
AcDbVertex
100
AcDb2dVertex
 10
354.0
 20
-730.0
 30
0.0
  0
VERTEX
  5
DF341528118172F7
100
AcDbEntity
  8
PORTS
  6
CONTINUOUS
100
AcDbVertex
100
AcDb2dVertex
 10
366.0
 20
-730.0
 30
0.0
  0
VERTEX
  5
DF341528118172F8
100
AcDbEntity
  8
PORTS
  6
CONTINUOUS
100
AcDbVertex
100
AcDb2dVertex
 10
366.0
 20
-802.0
 30
0.0
  0
VERTEX
  5
DF341528118172F9
100
AcDbEntity
  8
PORTS
  6
CONTINUOUS
100
AcDbVertex
100
AcDb2dVertex
 10
360.0
 20
-810.0
 30
0.0
  0
SEQEND
  5
DF341528118172FA
100
AcDbEntity
  8
PORTS
  6
CONTINUOUS
  0
POINT
  5
DF341528118172FB
100
AcDbEntity
  8
PORTS
  6
CONTINUOUS
100
AcDbPoint
 10
360.0
 20
-730.0
 30
0.0
  0
LINE
  5
DF341528118172FC
100
AcDbEntity
  8
DETAIL_MEDIUM
  6
CONTINUOUS
100
AcDbLine
 10
360.0
 20
-630.0
 30
0.0
 11
360.0
 21
-730.0
 31
0.0
  0
ENDBLK
  5
DF34154DDF40E247
100
AcDbEntity
  8
DETAIL_MEDIUM
  6
CONTINUOUS
100
AcDbBlockEnd
  0
BLOCK
  5
DF34154DDF40E24B
100
AcDbEntity
  8
DETAIL_MEDIUM
  6
CONTINUOUS
100
AcDbBlockBegin
  2
COMMON_BLOCK_OUTPUT_PORT_8
 70
     2
 10
0.0
 20
0.0
 30
0.0
  1

  0
POINT
  5
DF341528163B1258
100
AcDbEntity
  8
PORTS
  6
CONTINUOUS
100
AcDbPoint
 10
430.0
 20
-730.0
 30
0.0
  0
POLYLINE
  5
DF341528163B1259
100
AcDbEntity
  8
PORTS
  6
CONTINUOUS
100
AcDb2dPolyline
 66
     1
 10
0.0
 20
0.0
 30
0.0
 70
     1
  0
VERTEX
  5
DF341528163B125A
100
AcDbEntity
  8
PORTS
  6
CONTINUOUS
100
AcDbVertex
100
AcDb2dVertex
 10
430.0
 20
-810.0
 30
0.0
  0
VERTEX
  5
DF341528163B125B
100
AcDbEntity
  8
PORTS
  6
CONTINUOUS
100
AcDbVertex
100
AcDb2dVertex
 10
424.0
 20
-802.0
 30
0.0
  0
VERTEX
  5
DF341528163B125C
100
AcDbEntity
  8
PORTS
  6
CONTINUOUS
100
AcDbVertex
100
AcDb2dVertex
 10
424.0
 20
-730.0
 30
0.0
  0
VERTEX
  5
DF341528163B125D
100
AcDbEntity
  8
PORTS
  6
CONTINUOUS
100
AcDbVertex
100
AcDb2dVertex
 10
436.0
 20
-730.0
 30
0.0
  0
VERTEX
  5
DF341528163B125E
100
AcDbEntity
  8
PORTS
  6
CONTINUOUS
100
AcDbVertex
100
AcDb2dVertex
 10
436.0
 20
-802.0
 30
0.0
  0
VERTEX
  5
DF341528163B125F
100
AcDbEntity
  8
PORTS
  6
CONTINUOUS
100
AcDbVertex
100
AcDb2dVertex
 10
430.0
 20
-810.0
 30
0.0
  0
SEQEND
  5
DF341528163B1260
100
AcDbEntity
  8
PORTS
  6
CONTINUOUS
  0
ATTDEF
  5
DF341528163B1261
100
AcDbEntity
  8
PORTS
  6
CONTINUOUS
100
AcDbText
 10
422.0
 20
-838.0
 30
0.0
 40
10.0
  1

  7
SIMPLEX
100
AcDbAttributeDefinition
  3

  2
SIDE
 70
     0
  0
LINE
  5
DF341528163B1257
100
AcDbEntity
  8
DETAIL_MEDIUM
  6
CONTINUOUS
100
AcDbLine
 10
430.0
 20
-630.0
 30
0.0
 11
430.0
 21
-730.0
 31
0.0
  0
ENDBLK
  5
DF34154DDF40E24D
100
AcDbEntity
  8
DETAIL_MEDIUM
  6
CONTINUOUS
100
AcDbBlockEnd
  0
BLOCK
  5
DF34154DDF40E251
100
AcDbEntity
  8
DETAIL_MEDIUM
  6
CONTINUOUS
100
AcDbBlockBegin
  2
COMMON_BLOCK_OUTPUT_PORT_9
 70
     2
 10
0.0
 20
0.0
 30
0.0
  1

  0
POINT
  5
DF3415281FAE510C
100
AcDbEntity
  8
PORTS
  6
CONTINUOUS
100
AcDbPoint
 10
510.0
 20
-730.0
 30
0.0
  0
POLYLINE
  5
DF3415281FAE510D
100
AcDbEntity
  8
PORTS
  6
CONTINUOUS
100
AcDb2dPolyline
 66
     1
 10
0.0
 20
0.0
 30
0.0
 70
     1
  0
VERTEX
  5
DF3415281FAE510E
100
AcDbEntity
  8
PORTS
  6
CONTINUOUS
100
AcDbVertex
100
AcDb2dVertex
 10
510.0
 20
-810.0
 30
0.0
  0
VERTEX
  5
DF3415281FAE510F
100
AcDbEntity
  8
PORTS
  6
CONTINUOUS
100
AcDbVertex
100
AcDb2dVertex
 10
504.0
 20
-802.0
 30
0.0
  0
VERTEX
  5
DF3415281FAE5110
100
AcDbEntity
  8
PORTS
  6
CONTINUOUS
100
AcDbVertex
100
AcDb2dVertex
 10
504.0
 20
-730.0
 30
0.0
  0
VERTEX
  5
DF3415281FAE5111
100
AcDbEntity
  8
PORTS
  6
CONTINUOUS
100
AcDbVertex
100
AcDb2dVertex
 10
516.0
 20
-730.0
 30
0.0
  0
VERTEX
  5
DF3415281FAE5112
100
AcDbEntity
  8
PORTS
  6
CONTINUOUS
100
AcDbVertex
100
AcDb2dVertex
 10
516.0
 20
-802.0
 30
0.0
  0
VERTEX
  5
DF3415281FAE5113
100
AcDbEntity
  8
PORTS
  6
CONTINUOUS
100
AcDbVertex
100
AcDb2dVertex
 10
510.0
 20
-810.0
 30
0.0
  0
SEQEND
  5
DF3415281FAE5114
100
AcDbEntity
  8
PORTS
  6
CONTINUOUS
  0
ATTDEF
  5
DF3415281FAE5115
100
AcDbEntity
  8
PORTS
  6
CONTINUOUS
100
AcDbText
 10
502.0
 20
-838.0
 30
0.0
 40
10.0
  1

  7
SIMPLEX
100
AcDbAttributeDefinition
  3

  2
SIDE
 70
     0
  0
LINE
  5
DF3415281FAE510B
100
AcDbEntity
  8
DETAIL_MEDIUM
  6
CONTINUOUS
100
AcDbLine
 10
510.0
 20
-630.0
 30
0.0
 11
510.0
 21
-730.0
 31
0.0
  0
ENDBLK
  5
DF34154DDF40E253
100
AcDbEntity
  8
DETAIL_MEDIUM
  6
CONTINUOUS
100
AcDbBlockEnd
  0
BLOCK
  5
DF34154DDF40E257
100
AcDbEntity
  8
DETAIL_MEDIUM
  6
CONTINUOUS
100
AcDbBlockBegin
  2
COMMON_BLOCK
 70
     0
 10
0.0
 20
0.0
 30
0.0
  1

  0
POLYLINE
  5
DF3415280D168512
100
AcDbEntity
  8
DETAIL_MEDIUM
  6
CONTINUOUS
100
AcDb2dPolyline
 66
     1
 10
0.0
 20
0.0
 30
0.0
 70
     1
  0
VERTEX
  5
DF3415280D168513
100
AcDbEntity
  8
DETAIL_MEDIUM
  6
CONTINUOUS
100
AcDbVertex
100
AcDb2dVertex
 10
540.0
 20
-630.0
 30
0.0
  0
VERTEX
  5
DF3415280D168514
100
AcDbEntity
  8
DETAIL_MEDIUM
  6
CONTINUOUS
100
AcDbVertex
100
AcDb2dVertex
 10
190.0
 20
-630.0
 30
0.0
  0
VERTEX
  5
DF3415280D168515
100
AcDbEntity
  8
DETAIL_MEDIUM
  6
CONTINUOUS
100
AcDbVertex
100
AcDb2dVertex
 10
190.0
 20
-190.0
 30
0.0
  0
VERTEX
  5
DF3415280D168516
100
AcDbEntity
  8
DETAIL_MEDIUM
  6
CONTINUOUS
100
AcDbVertex
100
AcDb2dVertex
 10
540.0
 20
-190.0
 30
0.0
  0
SEQEND
  5
DF3415280D168517
100
AcDbEntity
  8
DETAIL_MEDIUM
  6
CONTINUOUS
  0
INSERT
  5
DF34154DDF40E21E
100
AcDbEntity
  8
DETAIL_MEDIUM
  6
CONTINUOUS
100
AcDbBlockReference
 66
     1
  2
COMMON_BLOCK_OUTPUT_PORT_0
 10
0.0
 20
0.0
 30
0.0
  0
ATTRIB
  5
DF34154DDF40E21F
100
AcDbEntity
  8
PORTS
  6
CONTINUOUS
100
AcDbText
 10
642.0
 20
-238.0
 30
0.0
 40
10.0
  1
RIGHT
 50
0.000019
  7
SIMPLEX
100
AcDbAttribute
  2
SIDE
 70
     0
  0
SEQEND
  5
DF34154DDF40E220
100
AcDbEntity
  8
DETAIL_MEDIUM
  6
CONTINUOUS
  0
INSERT
  5
DF34154DDF40E224
100
AcDbEntity
  8
DETAIL_MEDIUM
  6
CONTINUOUS
100
AcDbBlockReference
 66
     1
  2
COMMON_BLOCK_OUTPUT_PORT_1
 10
0.0
 20
0.0
 30
0.0
  0
ATTRIB
  5
DF34154DDF40E225
100
AcDbEntity
  8
PORTS
  6
CONTINUOUS
100
AcDbText
 10
642.0
 20
-308.0
 30
0.0
 40
10.0
  1
RIGHT
 50
0.000019
  7
SIMPLEX
100
AcDbAttribute
  2
SIDE
 70
     0
  0
SEQEND
  5
DF34154DDF40E226
100
AcDbEntity
  8
DETAIL_MEDIUM
  6
CONTINUOUS
  0
INSERT
  5
DF34154DDF40E22A
100
AcDbEntity
  8
DETAIL_MEDIUM
  6
CONTINUOUS
100
AcDbBlockReference
 66
     1
  2
COMMON_BLOCK_OUTPUT_PORT_2
 10
0.0
 20
0.0
 30
0.0
  0
ATTRIB
  5
DF34154DDF40E22B
100
AcDbEntity
  8
PORTS
  6
CONTINUOUS
100
AcDbText
 10
642.0
 20
-388.0
 30
0.0
 40
10.0
  1
RIGHT
 50
0.000019
  7
SIMPLEX
100
AcDbAttribute
  2
SIDE
 70
     0
  0
SEQEND
  5
DF34154DDF40E22C
100
AcDbEntity
  8
DETAIL_MEDIUM
  6
CONTINUOUS
  0
INSERT
  5
DF34154DDF40E230
100
AcDbEntity
  8
DETAIL_MEDIUM
  6
CONTINUOUS
100
AcDbBlockReference
 66
     1
  2
COMMON_BLOCK_OUTPUT_PORT_3
 10
0.0
 20
0.0
 30
0.0
  0
ATTRIB
  5
DF34154DDF40E231
100
AcDbEntity
  8
PORTS
  6
CONTINUOUS
100
AcDbText
 10
642.0
 20
-478.0
 30
0.0
 40
10.0
  1
RIGHT
 50
0.000019
  7
SIMPLEX
100
AcDbAttribute
  2
SIDE
 70
     0
  0
SEQEND
  5
DF34154DDF40E232
100
AcDbEntity
  8
DETAIL_MEDIUM
  6
CONTINUOUS
  0
INSERT
  5
DF34154DDF40E236
100
AcDbEntity
  8
DETAIL_MEDIUM
  6
CONTINUOUS
100
AcDbBlockReference
 66
     1
  2
COMMON_BLOCK_OUTPUT_PORT_4
 10
0.0
 20
0.0
 30
0.0
  0
ATTRIB
  5
DF34154DDF40E237
100
AcDbEntity
  8
PORTS
  6
CONTINUOUS
100
AcDbText
 10
642.0
 20
-558.0
 30
0.0
 40
10.0
  1
RIGHT
 50
0.000019
  7
SIMPLEX
100
AcDbAttribute
  2
SIDE
 70
     0
  0
SEQEND
  5
DF34154DDF40E238
100
AcDbEntity
  8
DETAIL_MEDIUM
  6
CONTINUOUS
  0
INSERT
  5
DF34154DDF40E23C
100
AcDbEntity
  8
DETAIL_MEDIUM
  6
CONTINUOUS
100
AcDbBlockReference
 66
     1
  2
COMMON_BLOCK_OUTPUT_PORT_5
 10
0.0
 20
0.0
 30
0.0
  0
ATTRIB
  5
DF34154DDF40E23D
100
AcDbEntity
  8
PORTS
  6
CONTINUOUS
100
AcDbText
 10
222.0
 20
-838.0
 30
0.0
 40
10.0
  1
BOTTOM
  7
SIMPLEX
100
AcDbAttribute
  2
SIDE
 70
     0
  0
SEQEND
  5
DF34154DDF40E23E
100
AcDbEntity
  8
DETAIL_MEDIUM
  6
CONTINUOUS
  0
INSERT
  5
DF34154DDF40E242
100
AcDbEntity
  8
DETAIL_MEDIUM
  6
CONTINUOUS
100
AcDbBlockReference
 66
     1
  2
COMMON_BLOCK_OUTPUT_PORT_6
 10
0.0
 20
0.0
 30
0.0
  0
ATTRIB
  5
DF34154DDF40E243
100
AcDbEntity
  8
PORTS
  6
CONTINUOUS
100
AcDbText
 10
292.0
 20
-838.0
 30
0.0
 40
10.0
  1
BOTTOM
  7
SIMPLEX
100
AcDbAttribute
  2
SIDE
 70
     0
  0
SEQEND
  5
DF34154DDF40E244
100
AcDbEntity
  8
DETAIL_MEDIUM
  6
CONTINUOUS
  0
INSERT
  5
DF34154DDF40E248
100
AcDbEntity
  8
DETAIL_MEDIUM
  6
CONTINUOUS
100
AcDbBlockReference
 66
     1
  2
COMMON_BLOCK_OUTPUT_PORT_7
 10
0.0
 20
0.0
 30
0.0
  0
ATTRIB
  5
DF34154DDF40E249
100
AcDbEntity
  8
PORTS
  6
CONTINUOUS
100
AcDbText
 10
352.0
 20
-838.0
 30
0.0
 40
10.0
  1
BOTTOM
  7
SIMPLEX
100
AcDbAttribute
  2
SIDE
 70
     0
  0
SEQEND
  5
DF34154DDF40E24A
100
AcDbEntity
  8
DETAIL_MEDIUM
  6
CONTINUOUS
  0
INSERT
  5
DF34154DDF40E24E
100
AcDbEntity
  8
DETAIL_MEDIUM
  6
CONTINUOUS
100
AcDbBlockReference
 66
     1
  2
COMMON_BLOCK_OUTPUT_PORT_8
 10
0.0
 20
0.0
 30
0.0
  0
ATTRIB
  5
DF34154DDF40E24F
100
AcDbEntity
  8
PORTS
  6
CONTINUOUS
100
AcDbText
 10
422.0
 20
-838.0
 30
0.0
 40
10.0
  1
BOTTOM
  7
SIMPLEX
100
AcDbAttribute
  2
SIDE
 70
     0
  0
SEQEND
  5
DF34154DDF40E250
100
AcDbEntity
  8
DETAIL_MEDIUM
  6
CONTINUOUS
  0
INSERT
  5
DF34154DDF40E254
100
AcDbEntity
  8
DETAIL_MEDIUM
  6
CONTINUOUS
100
AcDbBlockReference
 66
     1
  2
COMMON_BLOCK_OUTPUT_PORT_9
 10
0.0
 20
0.0
 30
0.0
  0
ATTRIB
  5
DF34154DDF40E255
100
AcDbEntity
  8
PORTS
  6
CONTINUOUS
100
AcDbText
 10
502.0
 20
-838.0
 30
0.0
 40
10.0
  1
BOTTOM
  7
SIMPLEX
100
AcDbAttribute
  2
SIDE
 70
     0
  0
SEQEND
  5
DF34154DDF40E256
100
AcDbEntity
  8
DETAIL_MEDIUM
  6
CONTINUOUS
  0
INSERT
  5
DF34154DDF40E200
100
AcDbEntity
  8
DETAIL_MEDIUM
  6
CONTINUOUS
100
AcDbBlockReference
 66
     1
  2
COMMON_BLOCK_INPUT_PORT_5
 10
0.0
 20
0.0
 30
0.0
  0
ATTRIB
  5
DF34154DDF40E201
100
AcDbEntity
  8
PORTS
  6
CONTINUOUS
100
AcDbText
 10
222.0
 20
2.0
 30
0.0
 40
10.0
  1
TOP
  7
SIMPLEX
100
AcDbAttribute
  2
SIDE
 70
     0
  0
SEQEND
  5
DF34154DDF40E202
100
AcDbEntity
  8
DETAIL_MEDIUM
  6
CONTINUOUS
  0
INSERT
  5
DF34154DDF40E206
100
AcDbEntity
  8
DETAIL_MEDIUM
  6
CONTINUOUS
100
AcDbBlockReference
 66
     1
  2
COMMON_BLOCK_INPUT_PORT_6
 10
0.0
 20
0.0
 30
0.0
  0
ATTRIB
  5
DF34154DDF40E207
100
AcDbEntity
  8
PORTS
  6
CONTINUOUS
100
AcDbText
 10
292.0
 20
2.0
 30
0.0
 40
10.0
  1
TOP
  7
SIMPLEX
100
AcDbAttribute
  2
SIDE
 70
     0
  0
SEQEND
  5
DF34154DDF40E208
100
AcDbEntity
  8
DETAIL_MEDIUM
  6
CONTINUOUS
  0
INSERT
  5
DF34154DDF40E20C
100
AcDbEntity
  8
DETAIL_MEDIUM
  6
CONTINUOUS
100
AcDbBlockReference
 66
     1
  2
COMMON_BLOCK_INPUT_PORT_7
 10
0.0
 20
0.0
 30
0.0
  0
ATTRIB
  5
DF34154DDF40E20D
100
AcDbEntity
  8
PORTS
  6
CONTINUOUS
100
AcDbText
 10
362.0
 20
2.0
 30
0.0
 40
10.0
  1
TOP
  7
SIMPLEX
100
AcDbAttribute
  2
SIDE
 70
     0
  0
SEQEND
  5
DF34154DDF40E20E
100
AcDbEntity
  8
DETAIL_MEDIUM
  6
CONTINUOUS
  0
INSERT
  5
DF34154DDF40E212
100
AcDbEntity
  8
DETAIL_MEDIUM
  6
CONTINUOUS
100
AcDbBlockReference
 66
     1
  2
COMMON_BLOCK_INPUT_PORT_8
 10
0.0
 20
0.0
 30
0.0
  0
ATTRIB
  5
DF34154DDF40E213
100
AcDbEntity
  8
PORTS
  6
CONTINUOUS
100
AcDbText
 10
432.0
 20
2.0
 30
0.0
 40
10.0
  1
TOP
  7
SIMPLEX
100
AcDbAttribute
  2
SIDE
 70
     0
  0
SEQEND
  5
DF34154DDF40E214
100
AcDbEntity
  8
DETAIL_MEDIUM
  6
CONTINUOUS
  0
INSERT
  5
DF34154DDF40E218
100
AcDbEntity
  8
DETAIL_MEDIUM
  6
CONTINUOUS
100
AcDbBlockReference
 66
     1
  2
COMMON_BLOCK_INPUT_PORT_9
 10
0.0
 20
0.0
 30
0.0
  0
ATTRIB
  5
DF34154DDF40E219
100
AcDbEntity
  8
PORTS
  6
CONTINUOUS
100
AcDbText
 10
502.0
 20
2.0
 30
0.0
 40
10.0
  1
TOP
  7
SIMPLEX
100
AcDbAttribute
  2
SIDE
 70
     0
  0
SEQEND
  5
DF34154DDF40E21A
100
AcDbEntity
  8
DETAIL_MEDIUM
  6
CONTINUOUS
  0
INSERT
  5
DF34154DDF40E1E2
100
AcDbEntity
  8
DETAIL_MEDIUM
  6
CONTINUOUS
100
AcDbBlockReference
 66
     1
  2
COMMON_BLOCK_INPUT_PORT_0
 10
0.0
 20
0.0
 30
0.0
  0
ATTRIB
  5
DF34154DDF40E1E3
100
AcDbEntity
  8
PORTS
  6
CONTINUOUS
100
AcDbText
 10
12.0
 20
-238.0
 30
0.0
 40
10.0
  1
LEFT
  7
SIMPLEX
100
AcDbAttribute
  2
SIDE
 70
     0
  0
SEQEND
  5
DF34154DDF40E1E4
100
AcDbEntity
  8
DETAIL_MEDIUM
  6
CONTINUOUS
  0
INSERT
  5
DF34154DDF40E1E8
100
AcDbEntity
  8
DETAIL_MEDIUM
  6
CONTINUOUS
100
AcDbBlockReference
 66
     1
  2
COMMON_BLOCK_INPUT_PORT_1
 10
0.0
 20
0.0
 30
0.0
  0
ATTRIB
  5
DF34154DDF40E1E9
100
AcDbEntity
  8
PORTS
  6
CONTINUOUS
100
AcDbText
 10
12.0
 20
-308.0
 30
0.0
 40
10.0
  1
LEFT
  7
SIMPLEX
100
AcDbAttribute
  2
SIDE
 70
     0
  0
SEQEND
  5
DF34154DDF40E1EA
100
AcDbEntity
  8
DETAIL_MEDIUM
  6
CONTINUOUS
  0
INSERT
  5
DF34154DDF40E1EE
100
AcDbEntity
  8
DETAIL_MEDIUM
  6
CONTINUOUS
100
AcDbBlockReference
 66
     1
  2
COMMON_BLOCK_INPUT_PORT_2
 10
0.0
 20
0.0
 30
0.0
  0
ATTRIB
  5
DF34154DDF40E1EF
100
AcDbEntity
  8
PORTS
  6
CONTINUOUS
100
AcDbText
 10
12.0
 20
-388.0
 30
0.0
 40
10.0
  1
LEFT
  7
SIMPLEX
100
AcDbAttribute
  2
SIDE
 70
     0
  0
SEQEND
  5
DF34154DDF40E1F0
100
AcDbEntity
  8
DETAIL_MEDIUM
  6
CONTINUOUS
  0
INSERT
  5
DF34154DDF40E1F4
100
AcDbEntity
  8
DETAIL_MEDIUM
  6
CONTINUOUS
100
AcDbBlockReference
 66
     1
  2
COMMON_BLOCK_INPUT_PORT_3
 10
0.0
 20
0.0
 30
0.0
  0
ATTRIB
  5
DF34154DDF40E1F5
100
AcDbEntity
  8
PORTS
  6
CONTINUOUS
100
AcDbText
 10
12.0
 20
-478.0
 30
0.0
 40
10.0
  1
LEFT
  7
SIMPLEX
100
AcDbAttribute
  2
SIDE
 70
     0
  0
SEQEND
  5
DF34154DDF40E1F6
100
AcDbEntity
  8
DETAIL_MEDIUM
  6
CONTINUOUS
  0
INSERT
  5
DF34154DDF40E1FA
100
AcDbEntity
  8
DETAIL_MEDIUM
  6
CONTINUOUS
100
AcDbBlockReference
 66
     1
  2
COMMON_BLOCK_INPUT_PORT_4
 10
0.0
 20
0.0
 30
0.0
  0
ATTRIB
  5
DF34154DDF40E1FB
100
AcDbEntity
  8
PORTS
  6
CONTINUOUS
100
AcDbText
 10
12.0
 20
-558.0
 30
0.0
 40
10.0
  1
LEFT
  7
SIMPLEX
100
AcDbAttribute
  2
SIDE
 70
     0
  0
SEQEND
  5
DF34154DDF40E1FC
100
AcDbEntity
  8
DETAIL_MEDIUM
  6
CONTINUOUS
  0
ENDBLK
  5
DF34154DDF40E259
100
AcDbEntity
  8
DETAIL_MEDIUM
  6
CONTINUOUS
100
AcDbBlockEnd
  0
ENDSEC
  0
SECTION
  2
ENTITIES
  0
TEXT
  5
1555386
100
AcDbEntity
  8
COMMENT
100
AcDbText
 10
27.0
 20
113.5
 30
0.0
 40
10.0
  1
Comments:
100
AcDbText
  0
TEXT
  5
DF2FB97E2E1C5501
100
AcDbEntity
  8
COMMENT
  6
CONTINUOUS
100
AcDbText
 10
26.0
 20
94.0
 30
0.0
 40
10.0
  1
All ports are on PORTS layer. They don't have FILLCLR since it is assigned in software.
  7
SIMPLEX
100
AcDbText
  0
TEXT
  5
DF2FB97E2E1C5502
100
AcDbEntity
  8
COMMENT
  6
CONTINUOUS
100
AcDbText
 10
26.0
 20
76.857143
 30
0.0
 40
10.0
  1
Text is drawn starting at the only point contained by the port block on PORTS layer. SIDE determines 
  7
SIMPLEX
100
AcDbText
  0
TEXT
  5
DF2FB97E2E1C5503
100
AcDbEntity
  8
COMMENT
  6
CONTINUOUS
100
AcDbText
 10
26.0
 20
59.714286
 30
0.0
 40
10.0
  1
the direction of the text. Port association is based on the name of the block.
  7
SIMPLEX
100
AcDbText
  0
LINE
  5
DF3414A04332ADC8
100
AcDbEntity
  8
COMMENT
  6
CONTINUOUS
100
AcDbLine
 10
-130.0
 20
0.0
 30
0.0
 11
1150.0
 21
0.0
 31
0.0
  0
LINE
  5
DF3414A04332ADCA
100
AcDbEntity
  8
COMMENT
  6
CONTINUOUS
100
AcDbLine
 10
0.0
 20
140.0
 30
0.0
 11
0.0
 21
-820.0
 31
0.0
  0
TEXT
  5
DF3414A0D7EA00A9
100
AcDbEntity
  8
COMMENT
  6
CONTINUOUS
100
AcDbText
 10
26.0
 20
39.714286
 30
0.0
 40
10.0
  1
Point 0,0 must be in top left corner of the drawing.
  7
SIMPLEX
100
AcDbText
  0
INSERT
  5
DF34154DDF40E25A
100
AcDbEntity
  8
DETAIL_MEDIUM
  6
CONTINUOUS
100
AcDbBlockReference
  2
COMMON_BLOCK
 10
0.0
 20
0.0
 30
0.0
  0
ENDSEC
  0
SECTION
  2
OBJECTS
  0
DICTIONARY
  5
C
100
AcDbDictionary
  3
ACAD_GROUP
350
D
  3
ACAD_MLINESTYLE
350
1B
  0
DICTIONARY
  5
D
102
{ACAD_REACTORS
330
C
102
}
100
AcDbDictionary
  0
DICTIONARY
  5
1B
102
{ACAD_REACTORS
330
C
102
}
100
AcDbDictionary
  3
STANDARD
350
1C
  0
MLINESTYLE
  5
1C
102
{ACAD_REACTORS
330
1B
102
}
100
AcDbMlineStyle
  2
STANDARD
 70
     0
  3

 62
   256
 51
90.0
 52
90.0
 71
     2
 49
0.5
 62
   256
  6
BYLAYER
 49
-0.5
 62
   256
  6
BYLAYER
  0
ENDSEC
  0
EOF
