  0
SECTION
  2
HEADER
  9
$ACADVER
  1
AC1014
  9
$ACADMAINTVER
 70
     0
  9
$DWGCODEPAGE
  3
ANSI_1252
  9
$INSBASE
 10
0.0
 20
0.0
 30
0.0
  9
$EXTMIN
 10
-14.0
 20
-648.910057
 30
0.0
  9
$EXTMAX
 10
980.910057
 20
173.5
 30
2.0
  9
$LIMMIN
 10
0.0
 20
0.0
  9
$LIMMAX
 10
12.0
 20
9.0
  9
$ORTHOMODE
 70
     0
  9
$REGENMODE
 70
     1
  9
$FILLMODE
 70
     1
  9
$QTEXTMODE
 70
     0
  9
$MIRRTEXT
 70
     1
  9
$DRAGMODE
 70
     2
  9
$LTSCALE
 40
1.0
  9
$OSMODE
 70
     0
  9
$ATTMODE
 70
     1
  9
$TEXTSIZE
 40
0.2
  9
$TRACEWID
 40
0.05
  9
$TEXTSTYLE
  7
SIMPLEX
  9
$CLAYER
  8
DETAIL_MEDIUM
  9
$CELTYPE
  6
CONTINUOUS
  9
$CECOLOR
 62
   256
  9
$CELTSCALE
 40
1.0
  9
$DELOBJ
 70
     1
  9
$DISPSILH
 70
     0
  9
$DIMSCALE
 40
1.0
  9
$DIMASZ
 40
0.18
  9
$DIMEXO
 40
0.0625
  9
$DIMDLI
 40
0.38
  9
$DIMRND
 40
0.0
  9
$DIMDLE
 40
0.0
  9
$DIMEXE
 40
0.18
  9
$DIMTP
 40
0.0
  9
$DIMTM
 40
0.0
  9
$DIMTXT
 40
0.18
  9
$DIMCEN
 40
0.09
  9
$DIMTSZ
 40
0.0
  9
$DIMTOL
 70
     0
  9
$DIMLIM
 70
     0
  9
$DIMTIH
 70
     1
  9
$DIMTOH
 70
     1
  9
$DIMSE1
 70
     0
  9
$DIMSE2
 70
     0
  9
$DIMTAD
 70
     0
  9
$DIMZIN
 70
     0
  9
$DIMBLK
  1

  9
$DIMASO
 70
     1
  9
$DIMSHO
 70
     1
  9
$DIMPOST
  1

  9
$DIMAPOST
  1

  9
$DIMALT
 70
     0
  9
$DIMALTD
 70
     2
  9
$DIMALTF
 40
25.4
  9
$DIMLFAC
 40
1.0
  9
$DIMTOFL
 70
     0
  9
$DIMTVP
 40
0.0
  9
$DIMTIX
 70
     0
  9
$DIMSOXD
 70
     0
  9
$DIMSAH
 70
     0
  9
$DIMBLK1
  1

  9
$DIMBLK2
  1

  9
$DIMSTYLE
  2
STANDARD
  9
$DIMCLRD
 70
     0
  9
$DIMCLRE
 70
     0
  9
$DIMCLRT
 70
     0
  9
$DIMTFAC
 40
1.0
  9
$DIMGAP
 40
0.09
  9
$DIMJUST
 70
     0
  9
$DIMSD1
 70
     0
  9
$DIMSD2
 70
     0
  9
$DIMTOLJ
 70
     1
  9
$DIMTZIN
 70
     0
  9
$DIMALTZ
 70
     0
  9
$DIMALTTZ
 70
     0
  9
$DIMFIT
 70
     3
  9
$DIMUPT
 70
     0
  9
$DIMUNIT
 70
     2
  9
$DIMDEC
 70
     4
  9
$DIMTDEC
 70
     4
  9
$DIMALTU
 70
     2
  9
$DIMALTTD
 70
     2
  9
$DIMTXSTY
  7
STANDARD
  9
$DIMAUNIT
 70
     0
  9
$LUNITS
 70
     2
  9
$LUPREC
 70
     4
  9
$SKETCHINC
 40
0.1
  9
$FILLETRAD
 40
0.5
  9
$AUNITS
 70
     0
  9
$AUPREC
 70
     0
  9
$MENU
  1
.
  9
$ELEVATION
 40
0.0
  9
$PELEVATION
 40
0.0
  9
$THICKNESS
 40
0.0
  9
$LIMCHECK
 70
     0
  9
$BLIPMODE
 70
     0
  9
$CHAMFERA
 40
0.5
  9
$CHAMFERB
 40
0.5
  9
$CHAMFERC
 40
1.0
  9
$CHAMFERD
 40
0.0
  9
$SKPOLY
 70
     0
  9
$TDCREATE
 40
2452695.7451618058
  9
$TDUPDATE
 40
2454188.6761689698
  9
$TDINDWG
 40
4.783368055556
  9
$TDUSRTIMER
 40
4.783368055556
  9
$USRTIMER
 70
     1
  9
$ANGBASE
 50
0.0
  9
$ANGDIR
 70
     0
  9
$PDMODE
 70
    35
  9
$PDSIZE
 40
-2.0
  9
$PLINEWID
 40
0.0
  9
$COORDS
 70
     1
  9
$SPLFRAME
 70
     0
  9
$SPLINETYPE
 70
     6
  9
$SPLINESEGS
 70
     8
  9
$ATTDIA
 70
     0
  9
$ATTREQ
 70
     1
  9
$HANDLING
 70
     1
  9
$HANDSEED
  5
F47394262A40206C
  9
$SURFTAB1
 70
     6
  9
$SURFTAB2
 70
     6
  9
$SURFTYPE
 70
     6
  9
$SURFU
 70
     6
  9
$SURFV
 70
     6
  9
$UCSNAME
  2

  9
$UCSORG
 10
0.0
 20
0.0
 30
0.0
  9
$UCSXDIR
 10
1.0
 20
0.0
 30
0.0
  9
$UCSYDIR
 10
0.0
 20
1.0
 30
0.0
  9
$PUCSNAME
  2

  9
$PUCSORG
 10
0.0
 20
0.0
 30
0.0
  9
$PUCSXDIR
 10
1.0
 20
0.0
 30
0.0
  9
$PUCSYDIR
 10
0.0
 20
1.0
 30
0.0
  9
$USERI1
 70
     0
  9
$USERI2
 70
     0
  9
$USERI3
 70
     0
  9
$USERI4
 70
     0
  9
$USERI5
 70
     0
  9
$USERR1
 40
0.0
  9
$USERR2
 40
0.0
  9
$USERR3
 40
0.0
  9
$USERR4
 40
0.0
  9
$USERR5
 40
0.0
  9
$WORLDVIEW
 70
     1
  9
$SHADEDGE
 70
     3
  9
$SHADEDIF
 70
    70
  9
$TILEMODE
 70
     1
  9
$MAXACTVP
 70
    48
  9
$PINSBASE
 10
0.0
 20
0.0
 30
0.0
  9
$PLIMCHECK
 70
     0
  9
$PEXTMIN
 10
1.000000E+020
 20
1.000000E+020
 30
1.000000E+020
  9
$PEXTMAX
 10
-1.000000E+020
 20
-1.000000E+020
 30
-1.000000E+020
  9
$PLIMMIN
 10
0.0
 20
0.0
  9
$PLIMMAX
 10
12.0
 20
9.0
  9
$UNITMODE
 70
     0
  9
$VISRETAIN
 70
     1
  9
$PLINEGEN
 70
     0
  9
$PSLTSCALE
 70
     1
  9
$TREEDEPTH
 70
  3020
  9
$PICKSTYLE
 70
     1
  9
$CMLSTYLE
  2
STANDARD
  9
$CMLJUST
 70
     0
  9
$CMLSCALE
 40
1.0
  9
$PROXYGRAPHICS
 70
     1
  9
$MEASUREMENT
 70
     0
  0
ENDSEC
  0
SECTION
  2
CLASSES
  0
CLASS
  1
LWPOLYLINE
  2
AcDbPolyline
  3
"AutoCAD"
 90
        0
280
     0
281
     1
  0
ENDSEC
  0
SECTION
  2
TABLES
  0
TABLE
  2
VPORT
  5
8
100
AcDbSymbolTable
 70
     1
  0
VPORT
  5
37
100
AcDbSymbolTableRecord
100
AcDbViewportTableRecord
  2
*ACTIVE
 70
     0
 10
0.0
 20
0.0
 11
1.0
 21
1.0
 12
429.543043
 22
-318.373684
 13
0.0
 23
0.0
 14
10.0
 24
10.0
 15
10.0
 25
10.0
 16
0.0
 26
0.0
 36
1.0
 17
0.0
 27
0.0
 37
0.0
 40
1727.741714
 41
1.418935
 42
50.0
 43
0.0
 44
0.0
 50
0.0
 51
0.0
 71
     0
 72
   100
 73
     1
 74
     1
 75
     0
 76
     1
 77
     0
 78
     0
  0
ENDTAB
  0
TABLE
  2
LTYPE
  5
5
100
AcDbSymbolTable
 70
     2
  0
LTYPE
  5
12
100
AcDbSymbolTableRecord
100
AcDbLinetypeTableRecord
  2
BYBLOCK
 70
     0
  3

 72
    65
 73
     0
 40
0.0
  0
LTYPE
  5
13
100
AcDbSymbolTableRecord
100
AcDbLinetypeTableRecord
  2
BYLAYER
 70
     0
  3

 72
    65
 73
     0
 40
0.0
  0
LTYPE
  5
14
100
AcDbSymbolTableRecord
100
AcDbLinetypeTableRecord
  2
CONTINUOUS
 70
     0
  3
Solid line
 72
    65
 73
     0
 40
0.0
  0
LTYPE
  5
2A422EFD12C
100
AcDbSymbolTableRecord
100
AcDbLinetypeTableRecord
  2
DETAIL_1
 70
     0
  3
Solid line
 72
    65
 73
     2
 40
6.0
 49
5.0
 74
     0
 49
-1.0
 74
     0
  0
ENDTAB
  0
TABLE
  2
LAYER
  5
2
100
AcDbSymbolTable
 70
     5
  0
LAYER
  5
E
100
AcDbSymbolTableRecord
100
AcDbLayerTableRecord
  2
DETAIL_HIGH
 70
     0
 62
   101
  6
CONTINUOUS
  0
LAYER
  5
541
100
AcDbSymbolTableRecord
100
AcDbLayerTableRecord
  2
COMMENT
 70
     0
 62
   254
  6
CONTINUOUS
  0
LAYER
  5
1DAE4
100
AcDbSymbolTableRecord
100
AcDbLayerTableRecord
  2
DETAIL_MEDIUM
 70
     0
 62
   182
  6
CONTINUOUS
  0
LAYER
  5
15543B5
100
AcDbSymbolTableRecord
100
AcDbLayerTableRecord
  2
DETAIL_LOWEST
 70
     0
 62
   143
  6
CONTINUOUS
  0
LAYER
  5
DF2FB97E2E1C53EE
100
AcDbSymbolTableRecord
100
AcDbLayerTableRecord
  2
PORTS
 70
     0
 62
   188
  6
CONTINUOUS
  0
ENDTAB
  0
TABLE
  2
STYLE
  5
3
100
AcDbSymbolTable
 70
     8
  0
STYLE
  5
F
100
AcDbSymbolTableRecord
100
AcDbTextStyleTableRecord
  2
STANDARD
 70
     0
 40
0.0
 41
1.0
 50
0.0
 71
     0
 42
0.2
  3
txt.shx
  4

  0
STYLE
  5
21
100
AcDbSymbolTableRecord
100
AcDbTextStyleTableRecord
  2
COMPLEX
 70
     0
 40
0.0
 41
1.0
 50
0.0
 71
     0
 42
0.2
  3
complex
  4

  0
STYLE
  5
22
100
AcDbSymbolTableRecord
100
AcDbTextStyleTableRecord
  2
ITALIC
 70
     0
 40
0.0
 41
1.0
 50
0.0
 71
     0
 42
0.2
  3
italic
  4

  0
STYLE
  5
23
100
AcDbSymbolTableRecord
100
AcDbTextStyleTableRecord
  2
ROMANC
 70
     0
 40
0.0
 41
1.0
 50
0.0
 71
     0
 42
0.2
  3
romanc
  4

  0
STYLE
  5
24
100
AcDbSymbolTableRecord
100
AcDbTextStyleTableRecord
  2
SIMPLEX
 70
     0
 40
0.0
 41
1.0
 50
0.0
 71
     0
 42
0.2
  3
simplex
  4

  0
STYLE
  5
34
100
AcDbSymbolTableRecord
100
AcDbTextStyleTableRecord
  2

 70
     1
 40
0.0
 41
1.0
 50
0.0
 71
     0
 42
0.2
  3
ltypeshp.shx
  4

  0
STYLE
  5
38
100
AcDbSymbolTableRecord
100
AcDbTextStyleTableRecord
  2
ARIAL
 70
     0
 40
0.0
 41
1.0
 50
0.0
 71
     0
 42
0.2
  3

  4

1001
ACAD
1000
Arial
1071
       34
  0
STYLE
  5
39
100
AcDbSymbolTableRecord
100
AcDbTextStyleTableRecord
  2
TIMES_NEW_ROMAN
 70
     0
 40
0.0
 41
1.0
 50
0.0
 71
     0
 42
0.2
  3

  4

1001
ACAD
1000
Times New Roman
1071
       18
  0
ENDTAB
  0
TABLE
  2
VIEW
  5
6
100
AcDbSymbolTable
 70
     0
  0
ENDTAB
  0
TABLE
  2
UCS
  5
7
100
AcDbSymbolTable
 70
     0
  0
ENDTAB
  0
TABLE
  2
APPID
  5
9
100
AcDbSymbolTable
 70
     1
  0
APPID
  5
10
100
AcDbSymbolTableRecord
100
AcDbRegAppTableRecord
  2
ACAD
 70
     0
  0
ENDTAB
  0
TABLE
  2
DIMSTYLE
  5
A
100
AcDbSymbolTable
 70
     1
  0
DIMSTYLE
105
1D
100
AcDbSymbolTableRecord
100
AcDbDimStyleTableRecord
  2
STANDARD
 70
     0
  3

  4

  5

  6

  7

 40
1.0
 41
0.18
 42
0.0625
 43
0.38
 44
0.18
 45
0.0
 46
0.0
 47
0.0
 48
0.0
140
0.18
141
0.09
142
0.0
143
25.4
144
1.0
145
0.0
146
1.0
147
0.09
 71
     0
 72
     0
 73
     1
 74
     1
 75
     0
 76
     0
 77
     0
 78
     0
170
     0
171
     2
172
     0
173
     0
174
     0
175
     0
176
     0
177
     0
178
     0
270
     2
271
     4
272
     4
273
     2
274
     2
340
F
275
     0
280
     0
281
     0
282
     0
283
     1
284
     0
285
     0
286
     0
287
     3
288
     0
  0
ENDTAB
  0
TABLE
  2
BLOCK_RECORD
  5
1
100
AcDbSymbolTable
 70
    80
  0
BLOCK_RECORD
  5
18
100
AcDbSymbolTableRecord
100
AcDbBlockTableRecord
  2
*MODEL_SPACE
  0
BLOCK_RECORD
  5
15
100
AcDbSymbolTableRecord
100
AcDbBlockTableRecord
  2
*PAPER_SPACE
  0
BLOCK_RECORD
  5
1554389
100
AcDbSymbolTableRecord
100
AcDbBlockTableRecord
  2
LE_LUT
  0
BLOCK_RECORD
  5
439517B1C
100
AcDbSymbolTableRecord
100
AcDbBlockTableRecord
  2
LE_REGISTER_INSIDES
  0
BLOCK_RECORD
  5
439517B20
100
AcDbSymbolTableRecord
100
AcDbBlockTableRecord
  2
LE_LUT_INSIDES
  0
BLOCK_RECORD
  5
439517B27
100
AcDbSymbolTableRecord
100
AcDbBlockTableRecord
  2
LE_REGISTER
  0
BLOCK_RECORD
  5
439517B2B
100
AcDbSymbolTableRecord
100
AcDbBlockTableRecord
  2
LE_REGCASC_MUX
  0
BLOCK_RECORD
  5
439517B2F
100
AcDbSymbolTableRecord
100
AcDbBlockTableRecord
  2
LE_SLOAD_MUX
  0
BLOCK_RECORD
  5
439517B3E
100
AcDbSymbolTableRecord
100
AcDbBlockTableRecord
  2
LE_SCLR_NAND_GATE
  0
BLOCK_RECORD
  5
4395186359
100
AcDbSymbolTableRecord
100
AcDbBlockTableRecord
  2
LE_SCLR
  0
BLOCK_RECORD
  5
439518635D
100
AcDbSymbolTableRecord
100
AcDbBlockTableRecord
  2
LE_SLOAD
  0
BLOCK_RECORD
  5
4395186361
100
AcDbSymbolTableRecord
100
AcDbBlockTableRecord
  2
LE_DATAC_SLOAD
  0
BLOCK_RECORD
  5
4395186368
100
AcDbSymbolTableRecord
100
AcDbBlockTableRecord
  2
LE_ADATA_REG_PORT
  0
BLOCK_RECORD
  5
439518636C
100
AcDbSymbolTableRecord
100
AcDbBlockTableRecord
  2
LE_REGCASC_IN
  0
BLOCK_RECORD
  5
4395186370
100
AcDbSymbolTableRecord
100
AcDbBlockTableRecord
  2
LE_DATAC_TO_LUT
  0
BLOCK_RECORD
  5
4395186374
100
AcDbSymbolTableRecord
100
AcDbBlockTableRecord
  2
LE_DATAC
  0
BLOCK_RECORD
  5
4395186378
100
AcDbSymbolTableRecord
100
AcDbBlockTableRecord
  2
LE_DATAA
  0
BLOCK_RECORD
  5
439518637C
100
AcDbSymbolTableRecord
100
AcDbBlockTableRecord
  2
LE_DATAB
  0
BLOCK_RECORD
  5
4395186380
100
AcDbSymbolTableRecord
100
AcDbBlockTableRecord
  2
LE_DATAD
  0
BLOCK_RECORD
  5
439A6D7287
100
AcDbSymbolTableRecord
100
AcDbBlockTableRecord
  2
LE_INVERTA
  0
BLOCK_RECORD
  5
439A6D728B
100
AcDbSymbolTableRecord
100
AcDbBlockTableRecord
  2
LE_CIN
  0
BLOCK_RECORD
  5
439A6D728F
100
AcDbSymbolTableRecord
100
AcDbBlockTableRecord
  2
LE_DATAC_MUX
  0
BLOCK_RECORD
  5
439A6D729C
100
AcDbSymbolTableRecord
100
AcDbBlockTableRecord
  2
LE_QFBK_PATH
  0
BLOCK_RECORD
  5
439A6D72A0
100
AcDbSymbolTableRecord
100
AcDbBlockTableRecord
  2
LE_REGCASCOUT
  0
BLOCK_RECORD
  5
439A6D72A4
100
AcDbSymbolTableRecord
100
AcDbBlockTableRecord
  2
LE_COUT
  0
BLOCK_RECORD
  5
439A6D72AB
100
AcDbSymbolTableRecord
100
AcDbBlockTableRecord
  2
LE_LUT_SUM_OUT
  0
BLOCK_RECORD
  5
439A6D72AF
100
AcDbSymbolTableRecord
100
AcDbBlockTableRecord
  2
LE_COMBOUT
  0
BLOCK_RECORD
  5
439A6D72CC
100
AcDbSymbolTableRecord
100
AcDbBlockTableRecord
  2
LE_REGOUT
  0
BLOCK_RECORD
  5
439A6D72D0
100
AcDbSymbolTableRecord
100
AcDbBlockTableRecord
  2
LE_CLK
  0
BLOCK_RECORD
  5
439A6D72D7
100
AcDbSymbolTableRecord
100
AcDbBlockTableRecord
  2
LE_ENA
  0
BLOCK_RECORD
  5
439A6D72DB
100
AcDbSymbolTableRecord
100
AcDbBlockTableRecord
  2
LE_DATAC_TO_MUX
  0
BLOCK_RECORD
  5
439A6D72DF
100
AcDbSymbolTableRecord
100
AcDbBlockTableRecord
  2
LE_ALOAD
  0
BLOCK_RECORD
  5
439A6D72E3
100
AcDbSymbolTableRecord
100
AcDbBlockTableRecord
  2
LE_ACLR
  0
BLOCK_RECORD
  5
439D17FADA
100
AcDbSymbolTableRecord
100
AcDbBlockTableRecord
  2
LE_ATOM
  0
BLOCK_RECORD
  5
85E939C053528119
100
AcDbSymbolTableRecord
100
AcDbBlockTableRecord
  2
LE_SUM_LUT
  0
BLOCK_RECORD
  5
85E939C05352811F
100
AcDbSymbolTableRecord
100
AcDbBlockTableRecord
  2
LE_CARRY_LUT
  0
BLOCK_RECORD
  5
DF2FB97E2E1C6FFF
100
AcDbSymbolTableRecord
100
AcDbBlockTableRecord
  2
LE_INVERTA_XOR_GATE
  0
BLOCK_RECORD
  5
DF2FB97E4C8A2F52
100
AcDbSymbolTableRecord
100
AcDbBlockTableRecord
  2
LE_INVERTA_TO_C
  0
BLOCK_RECORD
  5
DF2FB97E4C8A344D
100
AcDbSymbolTableRecord
100
AcDbBlockTableRecord
  2
LE_LUT_INSIDES_DATAC_1
  0
BLOCK_RECORD
  5
DF2FB97E4C8A3451
100
AcDbSymbolTableRecord
100
AcDbBlockTableRecord
  2
LE_LUT_INSIDES_DATAC_0
  0
BLOCK_RECORD
  5
DF2FB97E4C8A3455
100
AcDbSymbolTableRecord
100
AcDbBlockTableRecord
  2
LE_LUT_INSIDES_DATAB_0
  0
BLOCK_RECORD
  5
DF2FB97E4C8A3459
100
AcDbSymbolTableRecord
100
AcDbBlockTableRecord
  2
LE_LUT_INSIDES_DATAB_1
  0
BLOCK_RECORD
  5
DF2FB97E4C8A345D
100
AcDbSymbolTableRecord
100
AcDbBlockTableRecord
  2
LE_LUT_INSIDES_DATAB_2
  0
BLOCK_RECORD
  5
DF2FB97E4C8A3469
100
AcDbSymbolTableRecord
100
AcDbBlockTableRecord
  2
LE_LUT_INSIDES_DATAA_0
  0
BLOCK_RECORD
  5
DF2FB97E4C8A346D
100
AcDbSymbolTableRecord
100
AcDbBlockTableRecord
  2
LE_LUT_INSIDES_DATAA_1
  0
BLOCK_RECORD
  5
DF2FB97E4C8A3471
100
AcDbSymbolTableRecord
100
AcDbBlockTableRecord
  2
LE_LUT_INSIDES_DATAA_2
  0
BLOCK_RECORD
  5
F47394262A34506F
100
AcDbSymbolTableRecord
100
AcDbBlockTableRecord
  2
LE_ATOM_POINT1
  0
BLOCK_RECORD
  5
F47394262A345073
100
AcDbSymbolTableRecord
100
AcDbBlockTableRecord
  2
LE_ATOM_POINT2
  0
BLOCK_RECORD
  5
F47394262A345077
100
AcDbSymbolTableRecord
100
AcDbBlockTableRecord
  2
LE_ATOM_POINT3
  0
BLOCK_RECORD
  5
F47394262A34507B
100
AcDbSymbolTableRecord
100
AcDbBlockTableRecord
  2
LE_ATOM_POINT4
  0
BLOCK_RECORD
  5
F47394262A34511A
100
AcDbSymbolTableRecord
100
AcDbBlockTableRecord
  2
LE_DATAC_MUX_SEL_CARRY_IN
  0
BLOCK_RECORD
  5
F47394262A34511E
100
AcDbSymbolTableRecord
100
AcDbBlockTableRecord
  2
LE_DATAC_MUX_SEL_DATAC
  0
BLOCK_RECORD
  5
F47394262A345122
100
AcDbSymbolTableRecord
100
AcDbBlockTableRecord
  2
LE_DATAC_MUX_SEL_QFBK
  0
BLOCK_RECORD
  5
F47394262A3452AA
100
AcDbSymbolTableRecord
100
AcDbBlockTableRecord
  2
LE_ATOM_POINT5
  0
BLOCK_RECORD
  5
F47394262A3452B4
100
AcDbSymbolTableRecord
100
AcDbBlockTableRecord
  2
LE_REGCASC_MUX_SEL_REGCASC_IN
  0
BLOCK_RECORD
  5
F47394262A3452B8
100
AcDbSymbolTableRecord
100
AcDbBlockTableRecord
  2
LE_REGCASC_MUX_SEL_SUM_OUT
  0
BLOCK_RECORD
  5
F47394262A3453CC
100
AcDbSymbolTableRecord
100
AcDbBlockTableRecord
  2
LE_SLOAD_MUX_TEXT
  0
BLOCK_RECORD
  5
F47394262A34542C
100
AcDbSymbolTableRecord
100
AcDbBlockTableRecord
  2
LE_SLOAD_MUX_SEL_SLOAD
  0
BLOCK_RECORD
  5
F47394262A345430
100
AcDbSymbolTableRecord
100
AcDbBlockTableRecord
  2
LE_SLOAD_MUX_SEL_REGCASC_MUX
  0
BLOCK_RECORD
  5
F47394262A345494
100
AcDbSymbolTableRecord
100
AcDbBlockTableRecord
  2
LE_INVERTA_XOR_GATE_WIRE
  0
BLOCK_RECORD
  5
F47394262A3454A0
100
AcDbSymbolTableRecord
100
AcDbBlockTableRecord
  2
LE_DATAA_WIRE
  0
BLOCK_RECORD
  5
F47394262A3454FF
100
AcDbSymbolTableRecord
100
AcDbBlockTableRecord
  2
LE_DATAB_WIRE
  0
BLOCK_RECORD
  5
F47394262A345509
100
AcDbSymbolTableRecord
100
AcDbBlockTableRecord
  2
LE_DATAC_WIRE
  0
BLOCK_RECORD
  5
F47394262A345513
100
AcDbSymbolTableRecord
100
AcDbBlockTableRecord
  2
LE_DATAD_WIRE
  0
BLOCK_RECORD
  5
F47394262A3458CC
100
AcDbSymbolTableRecord
100
AcDbBlockTableRecord
  2
LE_COUT_WIRE
  0
BLOCK_RECORD
  5
F47394262A3458E6
100
AcDbSymbolTableRecord
100
AcDbBlockTableRecord
  2
LE_INVERTA_WIRE
  0
BLOCK_RECORD
  5
F47394262A346063
100
AcDbSymbolTableRecord
100
AcDbBlockTableRecord
  2
LE_REGCASC_IN_WIRE
  0
BLOCK_RECORD
  5
F47394262A34607B
100
AcDbSymbolTableRecord
100
AcDbBlockTableRecord
  2
LE_SLOAD_WIRE
  0
BLOCK_RECORD
  5
F47394262A346085
100
AcDbSymbolTableRecord
100
AcDbBlockTableRecord
  2
LE_SCLR_WIRE
  0
BLOCK_RECORD
  5
F47394262A34608F
100
AcDbSymbolTableRecord
100
AcDbBlockTableRecord
  2
LE_ACLR_WIRE
  0
BLOCK_RECORD
  5
F47394262A346099
100
AcDbSymbolTableRecord
100
AcDbBlockTableRecord
  2
LE_ALOAD_WIRE
  0
BLOCK_RECORD
  5
F47394262A3460A3
100
AcDbSymbolTableRecord
100
AcDbBlockTableRecord
  2
LE_CLK_WIRE
  0
BLOCK_RECORD
  5
F47394262A3460AD
100
AcDbSymbolTableRecord
100
AcDbBlockTableRecord
  2
LE_ENA_WIRE
  0
BLOCK_RECORD
  5
F47394262A346119
100
AcDbSymbolTableRecord
100
AcDbBlockTableRecord
  2
LE_COMBOUT_WIRE
  0
BLOCK_RECORD
  5
F47394262A346123
100
AcDbSymbolTableRecord
100
AcDbBlockTableRecord
  2
LE_REGCASCOUT_WIRE
  0
BLOCK_RECORD
  5
F47394262A34612D
100
AcDbSymbolTableRecord
100
AcDbBlockTableRecord
  2
LE_REGOUT_WIRE
  0
BLOCK_RECORD
  5
F47394262A346135
100
AcDbSymbolTableRecord
100
AcDbBlockTableRecord
  2
LE_SCLR_NAND_GATE_WIRE
  0
BLOCK_RECORD
  5
F47394262A346A8A
100
AcDbSymbolTableRecord
100
AcDbBlockTableRecord
  2
LE_CIN_WIRE1
  0
BLOCK_RECORD
  5
F47394262A346A8E
100
AcDbSymbolTableRecord
100
AcDbBlockTableRecord
  2
LE_CIN_WIRE2
  0
BLOCK_RECORD
  5
F47394262A377BA1
100
AcDbSymbolTableRecord
100
AcDbBlockTableRecord
  2
LE_INVERTA_TO_C_1
  0
BLOCK_RECORD
  5
F47394262A3A9F43
100
AcDbSymbolTableRecord
100
AcDbBlockTableRecord
  2
LE_INVERTA_WIRE_TO_XOR
  0
BLOCK_RECORD
  5
F47394262A402066
100
AcDbSymbolTableRecord
100
AcDbBlockTableRecord
  2
LE_INVERTA_TO_C_WIRE
  0
ENDTAB
  0
ENDSEC
  0
SECTION
  2
BLOCKS
  0
BLOCK
  5
19
100
AcDbEntity
  8
DETAIL_HIGH
100
AcDbBlockBegin
  2
*MODEL_SPACE
 70
     0
 10
0.0
 20
0.0
 30
0.0
  3
*MODEL_SPACE
  1

  0
ENDBLK
  5
1A
100
AcDbEntity
  8
DETAIL_HIGH
100
AcDbBlockEnd
  0
BLOCK
  5
16
100
AcDbEntity
 67
     1
  8
DETAIL_HIGH
100
AcDbBlockBegin
  2
*PAPER_SPACE
 70
     0
 10
0.0
 20
0.0
 30
0.0
  3
*PAPER_SPACE
  1

  0
ENDBLK
  5
17
100
AcDbEntity
 67
     1
  8
DETAIL_HIGH
100
AcDbBlockEnd
  0
BLOCK
  5
F47394262A377BA7
100
AcDbEntity
  8
DETAIL_MEDIUM
  6
CONTINUOUS
100
AcDbBlockBegin
  2
LE_LUT
 70
     0
 10
0.0
 20
0.0
 30
0.0
  1

  0
INSERT
  5
F47394262A377BA6
100
AcDbEntity
  8
DETAIL_HIGH
  6
CONTINUOUS
100
AcDbBlockReference
  2
LE_LUT_INSIDES
 10
0.0
 20
0.0
 30
0.0
  0
POLYLINE
  5
F47394262A35E809
100
AcDbEntity
  8
DETAIL_MEDIUM
100
AcDb2dPolyline
 66
     1
 10
0.0
 20
0.0
 30
0.0
 39
2.0
 70
     1
  0
VERTEX
  5
F47394262A35E80A
100
AcDbEntity
  8
DETAIL_MEDIUM
100
AcDbVertex
100
AcDb2dVertex
 10
280.910057
 20
-150.910057
 30
0.0
  0
VERTEX
  5
F47394262A35E80B
100
AcDbEntity
  8
DETAIL_MEDIUM
100
AcDbVertex
100
AcDb2dVertex
 10
440.910057
 20
-150.910057
 30
0.0
  0
VERTEX
  5
F47394262A35E80C
100
AcDbEntity
  8
DETAIL_MEDIUM
100
AcDbVertex
100
AcDb2dVertex
 10
440.910057
 20
-470.910057
 30
0.0
  0
VERTEX
  5
F47394262A35E80D
100
AcDbEntity
  8
DETAIL_MEDIUM
100
AcDbVertex
100
AcDb2dVertex
 10
280.910057
 20
-470.910057
 30
0.0
  0
SEQEND
  5
F47394262A35E80E
100
AcDbEntity
  8
DETAIL_MEDIUM
  0
TEXT
  5
F47394262A35E805
100
AcDbEntity
  8
DETAIL_HIGH
  6
CONTINUOUS
100
AcDbText
 10
286.910057
 20
-446.910057
 30
0.0
 40
10.0
  1
D
  7
SIMPLEX
100
AcDbText
  0
TEXT
  5
F47394262A35E806
100
AcDbEntity
  8
DETAIL_HIGH
  6
CONTINUOUS
100
AcDbText
 10
286.910057
 20
-366.910057
 30
0.0
 40
10.0
  1
C
  7
SIMPLEX
100
AcDbText
  0
TEXT
  5
F47394262A35E807
100
AcDbEntity
  8
DETAIL_HIGH
  6
CONTINUOUS
100
AcDbText
 10
286.910057
 20
-286.910057
 30
0.0
 40
10.0
  1
B
  7
SIMPLEX
100
AcDbText
  0
TEXT
  5
F47394262A35E808
100
AcDbEntity
  8
DETAIL_HIGH
  6
CONTINUOUS
100
AcDbText
 10
286.910057
 20
-196.910057
 30
0.0
 40
10.0
  1
A
  7
SIMPLEX
100
AcDbText
  0
ENDBLK
  5
F47394262A377BA8
100
AcDbEntity
  8
DETAIL_MEDIUM
  6
CONTINUOUS
100
AcDbBlockEnd
  0
BLOCK
  5
439517B1B
100
AcDbEntity
  8
DETAIL_HIGH
100
AcDbBlockBegin
  2
LE_REGISTER_INSIDES
 70
     0
 10
700.0
 20
180.0
 30
0.0
  3
LE_REGISTER_INSIDES
  1

  0
TEXT
  5
C03BFEB
100
AcDbEntity
  8
DETAIL_HIGH
100
AcDbText
 10
765.0
 20
367.5
 30
0.0
 40
10.0
  1
ald
100
AcDbText
  0
TEXT
  5
C03BFEC
100
AcDbEntity
  8
DETAIL_HIGH
100
AcDbText
 10
710.0
 20
367.5
 30
0.0
 40
10.0
  1
aclr
100
AcDbText
  0
TEXT
  5
240B3FCD
100
AcDbEntity
  8
DETAIL_HIGH
100
AcDbText
 10
707.5
 20
337.5
 30
0.0
 40
10.0
  1
aD
100
AcDbText
  0
TEXT
  5
3C12BFAE
100
AcDbEntity
  8
DETAIL_HIGH
100
AcDbText
 10
705.0
 20
207.5
 30
0.0
 40
10.0
  1
en
100
AcDbText
  0
TEXT
  5
168707E5B
100
AcDbEntity
  8
DETAIL_HIGH
100
AcDbText
 10
707.5
 20
297.5
 30
0.0
 40
10.0
  1
D
100
AcDbText
  0
TEXT
  5
439517B1A
100
AcDbEntity
  8
DETAIL_HIGH
100
AcDbText
 10
777.5
 20
297.5
 30
0.0
 40
10.0
  1
Q
100
AcDbText
  0
ENDBLK
  5
439517B1D
100
AcDbEntity
  8
DETAIL_HIGH
100
AcDbBlockEnd
  0
BLOCK
  5
F47394262A377BA4
100
AcDbEntity
  8
DETAIL_HIGH
  6
CONTINUOUS
100
AcDbBlockBegin
  2
LE_LUT_INSIDES
 70
     0
 10
0.0
 20
0.0
 30
0.0
  1

  0
INSERT
  5
F47394262A377B95
100
AcDbEntity
  8
DETAIL_HIGH
  6
CONTINUOUS
100
AcDbBlockReference
  2
LE_LUT_INSIDES_DATAC_1
 10
10.910057
 20
-10.910655
 30
0.0
  0
INSERT
  5
F47394262A377BA3
100
AcDbEntity
  8
DETAIL_HIGH
  6
CONTINUOUS
100
AcDbBlockReference
  2
LE_INVERTA_TO_C_1
 10
0.0
 20
0.0
 30
0.0
  0
INSERT
  5
F47394262A377B93
100
AcDbEntity
  8
DETAIL_HIGH
  6
CONTINUOUS
100
AcDbBlockReference
  2
LE_CARRY_LUT
 10
10.910057
 20
-10.910057
 30
0.0
  0
INSERT
  5
F47394262A377B96
100
AcDbEntity
  8
DETAIL_HIGH
100
AcDbBlockReference
  2
LE_LUT_INSIDES_DATAB_2
 10
10.910057
 20
-10.910057
 30
0.0
  0
INSERT
  5
F47394262A377B97
100
AcDbEntity
  8
DETAIL_HIGH
  6
CONTINUOUS
100
AcDbBlockReference
  2
LE_LUT_INSIDES_DATAC_0
 10
10.910057
 20
-10.910057
 30
0.0
  0
INSERT
  5
F47394262A377B98
100
AcDbEntity
  8
DETAIL_HIGH
  6
CONTINUOUS
100
AcDbBlockReference
  2
LE_LUT_INSIDES_DATAA_2
 10
10.910057
 20
-10.910057
 30
0.0
  0
INSERT
  5
F47394262A377B94
100
AcDbEntity
  8
DETAIL_HIGH
  6
CONTINUOUS
100
AcDbBlockReference
  2
LE_SUM_LUT
 10
360.910057
 20
-290.910057
 30
0.0
  0
INSERT
  5
F47394262A377B99
100
AcDbEntity
  8
DETAIL_HIGH
100
AcDbBlockReference
  2
LE_LUT_INSIDES_DATAB_1
 10
10.910057
 20
-10.910057
 30
0.0
  0
INSERT
  5
F47394262A377B9A
100
AcDbEntity
  8
DETAIL_HIGH
100
AcDbBlockReference
  2
LE_LUT_INSIDES_DATAB_0
 10
10.910057
 20
-10.910057
 30
0.0
  0
INSERT
  5
F47394262A377B9B
100
AcDbEntity
  8
DETAIL_HIGH
100
AcDbBlockReference
  2
LE_LUT_INSIDES_DATAA_1
 10
10.910057
 20
-10.910057
 30
0.0
  0
INSERT
  5
F47394262A377B9C
100
AcDbEntity
  8
DETAIL_HIGH
  6
CONTINUOUS
100
AcDbBlockReference
  2
LE_LUT_INSIDES_DATAA_0
 10
10.910057
 20
-10.910057
 30
0.0
  0
ENDBLK
  5
F47394262A377BA5
100
AcDbEntity
  8
DETAIL_HIGH
  6
CONTINUOUS
100
AcDbBlockEnd
  0
BLOCK
  5
DF2FB97E34DF58CA
100
AcDbEntity
  8
DETAIL_MEDIUM
100
AcDbBlockBegin
  2
LE_REGISTER
 70
     0
 10
750.0
 20
-340.0
 30
0.0
  1

  0
POLYLINE
  5
DF2FB97E34DF5852
100
AcDbEntity
  8
DETAIL_MEDIUM
100
AcDb2dPolyline
 66
     1
 10
0.0
 20
0.0
 30
0.0
 39
2.0
 70
     1
  0
VERTEX
  5
DF2FB97E34DF5853
100
AcDbEntity
  8
DETAIL_MEDIUM
100
AcDbVertex
100
AcDb2dVertex
 10
750.0
 20
-140.0
 30
0.0
  0
VERTEX
  5
DF2FB97E34DF5854
100
AcDbEntity
  8
DETAIL_MEDIUM
100
AcDbVertex
100
AcDb2dVertex
 10
850.0
 20
-140.0
 30
0.0
  0
VERTEX
  5
DF2FB97E34DF5855
100
AcDbEntity
  8
DETAIL_MEDIUM
100
AcDbVertex
100
AcDb2dVertex
 10
850.0
 20
-340.0
 30
0.0
  0
VERTEX
  5
DF2FB97E34DF5856
100
AcDbEntity
  8
DETAIL_MEDIUM
100
AcDbVertex
100
AcDb2dVertex
 10
750.0
 20
-340.0
 30
0.0
  0
SEQEND
  5
DF2FB97E34DF5857
100
AcDbEntity
  8
DETAIL_MEDIUM
  0
LINE
  5
DF2FB97E34DF5858
100
AcDbEntity
  8
DETAIL_MEDIUM
100
AcDbLine
 39
2.0
 10
750.0
 20
-270.0
 30
0.0
 11
760.0
 21
-280.0
 31
0.0
  0
LINE
  5
DF2FB97E34DF5859
100
AcDbEntity
  8
DETAIL_MEDIUM
100
AcDbLine
 39
2.0
 10
760.0
 20
-280.0
 30
0.0
 11
750.0
 21
-290.0
 31
0.0
  0
INSERT
  5
DF2FB97E34DF585A
100
AcDbEntity
  8
DETAIL_HIGH
100
AcDbBlockReference
  2
LE_REGISTER_INSIDES
 10
750.0
 20
-340.0
 30
0.0
  0
ENDBLK
  5
DF2FB97E34DF58CB
100
AcDbEntity
  8
DETAIL_MEDIUM
100
AcDbBlockEnd
  0
BLOCK
  5
DF2FB97E2E888A58
100
AcDbEntity
  8
DETAIL_MEDIUM
  6
CONTINUOUS
100
AcDbBlockBegin
  2
LE_REGCASC_MUX
 70
     0
 10
480.0
 20
-230.0
 30
0.0
  1

  0
POLYLINE
  5
37111F3D11B0FBAC
100
AcDbEntity
  8
DETAIL_MEDIUM
100
AcDb2dPolyline
 66
     1
 10
0.0
 20
0.0
 30
0.0
 39
2.0
 70
     1
  0
VERTEX
  5
37111F3D11B0FBAD
100
AcDbEntity
  8
DETAIL_MEDIUM
100
AcDbVertex
100
AcDb2dVertex
 10
500.0
 20
-170.0
 30
0.0
  0
VERTEX
  5
37111F3D11B0FBAE
100
AcDbEntity
  8
DETAIL_MEDIUM
100
AcDbVertex
100
AcDb2dVertex
 10
530.0
 20
-180.0
 30
0.0
  0
VERTEX
  5
37111F3D11B0FBAF
100
AcDbEntity
  8
DETAIL_MEDIUM
100
AcDbVertex
100
AcDb2dVertex
 10
530.0
 20
-220.0
 30
0.0
  0
VERTEX
  5
37111F3D11B0FBB0
100
AcDbEntity
  8
DETAIL_MEDIUM
100
AcDbVertex
100
AcDb2dVertex
 10
500.0
 20
-230.0
 30
0.0
  0
VERTEX
  5
37111F3D11B0FBB1
100
AcDbEntity
  8
DETAIL_MEDIUM
100
AcDbVertex
100
AcDb2dVertex
 10
500.0
 20
-170.0
 30
0.0
  0
SEQEND
  5
37111F3D11B0FBB2
100
AcDbEntity
  8
DETAIL_MEDIUM
  0
LINE
  5
DF2FB97E2E888A56
100
AcDbEntity
  8
DETAIL_MEDIUM
  6
CONTINUOUS
100
AcDbLine
 10
480.0
 20
-220.0
 30
0.0
 11
500.0
 21
-220.0
 31
0.0
  0
LINE
  5
37111F3D11B0FBB3
100
AcDbEntity
  8
DETAIL_MEDIUM
100
AcDbLine
 10
530.0
 20
-200.0
 30
0.0
 11
560.0
 21
-200.0
 31
0.0
  0
ENDBLK
  5
DF2FB97E2E888A59
100
AcDbEntity
  8
DETAIL_MEDIUM
  6
CONTINUOUS
100
AcDbBlockEnd
  0
BLOCK
  5
F47394262A345428
100
AcDbEntity
  8
DETAIL_MEDIUM
  6
CONTINUOUS
100
AcDbBlockBegin
  2
LE_SLOAD_MUX
 70
     0
 10
0.0
 20
0.0
 30
0.0
  1

  0
POLYLINE
  5
F47394262A3453EF
100
AcDbEntity
  8
DETAIL_MEDIUM
  6
CONTINUOUS
100
AcDb2dPolyline
 66
     1
 10
0.0
 20
0.0
 30
0.0
 70
     1
  0
VERTEX
  5
F47394262A3453F0
100
AcDbEntity
  8
DETAIL_MEDIUM
  6
CONTINUOUS
100
AcDbVertex
100
AcDb2dVertex
 10
560.0
 20
-150.0
 30
0.0
  0
VERTEX
  5
F47394262A3453F1
100
AcDbEntity
  8
DETAIL_MEDIUM
  6
CONTINUOUS
100
AcDbVertex
100
AcDb2dVertex
 10
590.0
 20
-160.0
 30
0.0
  0
VERTEX
  5
F47394262A3453F2
100
AcDbEntity
  8
DETAIL_MEDIUM
  6
CONTINUOUS
100
AcDbVertex
100
AcDb2dVertex
 10
590.0
 20
-200.0
 30
0.0
  0
VERTEX
  5
F47394262A3453F3
100
AcDbEntity
  8
DETAIL_MEDIUM
  6
CONTINUOUS
100
AcDbVertex
100
AcDb2dVertex
 10
560.0
 20
-210.0
 30
0.0
  0
VERTEX
  5
F47394262A3453F4
100
AcDbEntity
  8
DETAIL_MEDIUM
  6
CONTINUOUS
100
AcDbVertex
100
AcDb2dVertex
 10
560.0
 20
-150.0
 30
0.0
  0
SEQEND
  5
F47394262A3453F5
100
AcDbEntity
  8
DETAIL_MEDIUM
  6
CONTINUOUS
  0
LINE
  5
F47394262A3453F6
100
AcDbEntity
  8
DETAIL_MEDIUM
  6
CONTINUOUS
100
AcDbLine
 10
590.0
 20
-180.0
 30
0.0
 11
630.0
 21
-180.0
 31
0.0
  0
INSERT
  5
F47394262A345427
100
AcDbEntity
  8
DETAIL_HIGH
  6
CONTINUOUS
100
AcDbBlockReference
  2
LE_SLOAD_MUX_TEXT
 10
0.0
 20
0.0
 30
0.0
  0
ENDBLK
  5
F47394262A345429
100
AcDbEntity
  8
DETAIL_MEDIUM
  6
CONTINUOUS
100
AcDbBlockEnd
  0
BLOCK
  5
F47394262A348E28
100
AcDbEntity
  8
DETAIL_MEDIUM
  6
CONTINUOUS
100
AcDbBlockBegin
  2
LE_SCLR_NAND_GATE
 70
     0
 10
0.0
 20
0.0
 30
0.0
  1

  0
CIRCLE
  5
F47394262A348E21
100
AcDbEntity
  8
DETAIL_MEDIUM
  6
CONTINUOUS
100
AcDbCircle
 10
636.867868
 20
-170.185737
 30
0.0
 40
3.90254
  0
POLYLINE
  5
F47394262A348D2F
100
AcDbEntity
  8
DETAIL_MEDIUM
100
AcDb2dPolyline
 66
     1
 10
0.0
 20
0.0
 30
0.0
 39
2.0
 70
     1
  0
VERTEX
  5
F47394262A348D30
100
AcDbEntity
  8
DETAIL_MEDIUM
100
AcDbVertex
100
AcDb2dVertex
 10
640.910057
 20
-160.910057
 30
0.0
  0
VERTEX
  5
F47394262A348D31
100
AcDbEntity
  8
DETAIL_MEDIUM
100
AcDbVertex
100
AcDb2dVertex
 10
650.910057
 20
-160.910057
 30
0.0
  0
VERTEX
  5
F47394262A348D32
100
AcDbEntity
  8
DETAIL_MEDIUM
100
AcDbVertex
100
AcDb2dVertex
 10
660.910057
 20
-162.910057
 30
0.0
  0
VERTEX
  5
F47394262A348D33
100
AcDbEntity
  8
DETAIL_MEDIUM
100
AcDbVertex
100
AcDb2dVertex
 10
668.910057
 20
-170.910057
 30
0.0
  0
VERTEX
  5
F47394262A348D34
100
AcDbEntity
  8
DETAIL_MEDIUM
100
AcDbVertex
100
AcDb2dVertex
 10
670.910057
 20
-180.910057
 30
0.0
  0
VERTEX
  5
F47394262A348D35
100
AcDbEntity
  8
DETAIL_MEDIUM
100
AcDbVertex
100
AcDb2dVertex
 10
668.910057
 20
-190.910057
 30
0.0
  0
VERTEX
  5
F47394262A348D36
100
AcDbEntity
  8
DETAIL_MEDIUM
100
AcDbVertex
100
AcDb2dVertex
 10
660.910057
 20
-198.910057
 30
0.0
  0
VERTEX
  5
F47394262A348D37
100
AcDbEntity
  8
DETAIL_MEDIUM
100
AcDbVertex
100
AcDb2dVertex
 10
650.910057
 20
-200.910057
 30
0.0
  0
VERTEX
  5
F47394262A348D38
100
AcDbEntity
  8
DETAIL_MEDIUM
100
AcDbVertex
100
AcDb2dVertex
 10
640.910057
 20
-200.910057
 30
0.0
  0
VERTEX
  5
F47394262A348D39
100
AcDbEntity
  8
DETAIL_MEDIUM
100
AcDbVertex
100
AcDb2dVertex
 10
640.910057
 20
-160.910057
 30
0.0
  0
SEQEND
  5
F47394262A348D3A
100
AcDbEntity
  8
DETAIL_MEDIUM
  0
ENDBLK
  5
F47394262A348E29
100
AcDbEntity
  8
DETAIL_MEDIUM
  6
CONTINUOUS
100
AcDbBlockEnd
  0
BLOCK
  5
F47394262A34607F
100
AcDbEntity
  8
PORTS
  6
CONTINUOUS
100
AcDbBlockBegin
  2
LE_SCLR
 70
     2
 10
0.0
 20
0.0
 30
0.0
  1

  0
POINT
  5
9B76ECE264C6A06
100
AcDbEntity
  8
PORTS
  6
CONTINUOUS
100
AcDbPoint
 10
610.0
 20
-80.0
 30
0.0
  0
POLYLINE
  5
9B76ECE264C6A07
100
AcDbEntity
  8
PORTS
  6
CONTINUOUS
100
AcDb2dPolyline
 66
     1
 10
0.0
 20
0.0
 30
0.0
 70
     1
  0
VERTEX
  5
9B76ECE264C6A08
100
AcDbEntity
  8
PORTS
  6
CONTINUOUS
100
AcDbVertex
100
AcDb2dVertex
 10
604.0
 20
0.0
 30
0.0
  0
VERTEX
  5
9B76ECE264C6A09
100
AcDbEntity
  8
PORTS
  6
CONTINUOUS
100
AcDbVertex
100
AcDb2dVertex
 10
604.0
 20
-28.0
 30
0.0
  0
VERTEX
  5
9B76ECE264C6A0A
100
AcDbEntity
  8
PORTS
  6
CONTINUOUS
100
AcDbVertex
100
AcDb2dVertex
 10
600.0
 20
-28.0
 30
0.0
  0
VERTEX
  5
9B76ECE264C6A0B
100
AcDbEntity
  8
PORTS
  6
CONTINUOUS
100
AcDbVertex
100
AcDb2dVertex
 10
600.0
 20
-34.0
 30
0.0
  0
VERTEX
  5
9B76ECE264C6A0C
100
AcDbEntity
  8
PORTS
  6
CONTINUOUS
100
AcDbVertex
100
AcDb2dVertex
 10
604.0
 20
-34.0
 30
0.0
  0
VERTEX
  5
9B76ECE264C6A0D
100
AcDbEntity
  8
PORTS
  6
CONTINUOUS
100
AcDbVertex
100
AcDb2dVertex
 10
604.0
 20
-72.0
 30
0.0
  0
VERTEX
  5
9B76ECE264C6A0E
100
AcDbEntity
  8
PORTS
  6
CONTINUOUS
100
AcDbVertex
100
AcDb2dVertex
 10
610.0
 20
-80.0
 30
0.0
  0
VERTEX
  5
9B76ECE264C6A0F
100
AcDbEntity
  8
PORTS
  6
CONTINUOUS
100
AcDbVertex
100
AcDb2dVertex
 10
616.0
 20
-72.0
 30
0.0
  0
VERTEX
  5
9B76ECE264C6A10
100
AcDbEntity
  8
PORTS
  6
CONTINUOUS
100
AcDbVertex
100
AcDb2dVertex
 10
616.0
 20
-34.0
 30
0.0
  0
VERTEX
  5
9B76ECE264C6A11
100
AcDbEntity
  8
PORTS
  6
CONTINUOUS
100
AcDbVertex
100
AcDb2dVertex
 10
620.0
 20
-34.0
 30
0.0
  0
VERTEX
  5
9B76ECE264C6A12
100
AcDbEntity
  8
PORTS
  6
CONTINUOUS
100
AcDbVertex
100
AcDb2dVertex
 10
620.0
 20
-28.0
 30
0.0
  0
VERTEX
  5
9B76ECE264C6A13
100
AcDbEntity
  8
PORTS
  6
CONTINUOUS
100
AcDbVertex
100
AcDb2dVertex
 10
616.0
 20
-28.0
 30
0.0
  0
VERTEX
  5
9B76ECE264C6A14
100
AcDbEntity
  8
PORTS
  6
CONTINUOUS
100
AcDbVertex
100
AcDb2dVertex
 10
616.0
 20
0.0
 30
0.0
  0
VERTEX
  5
9B76ECE264C6A15
100
AcDbEntity
  8
PORTS
  6
CONTINUOUS
100
AcDbVertex
100
AcDb2dVertex
 10
604.0
 20
0.0
 30
0.0
  0
SEQEND
  5
9B76ECE264C6A16
100
AcDbEntity
  8
PORTS
  6
CONTINUOUS
  0
ATTDEF
  5
9B76ECE264C6A05
100
AcDbEntity
  8
PORTS
  6
CONTINUOUS
100
AcDbText
 10
596.0
 20
42.0
 30
0.0
 40
10.0
  1

  7
SIMPLEX
100
AcDbAttributeDefinition
  3

  2
SIDE
 70
     0
  0
ENDBLK
  5
F47394262A346080
100
AcDbEntity
  8
PORTS
  6
CONTINUOUS
100
AcDbBlockEnd
  0
BLOCK
  5
F47394262A346075
100
AcDbEntity
  8
PORTS
  6
CONTINUOUS
100
AcDbBlockBegin
  2
LE_SLOAD
 70
     2
 10
0.0
 20
0.0
 30
0.0
  1

  0
POINT
  5
9B76ECE264C69D7
100
AcDbEntity
  8
PORTS
  6
CONTINUOUS
100
AcDbPoint
 10
574.0
 20
-80.0
 30
0.0
  0
POLYLINE
  5
9B76ECE264C69D8
100
AcDbEntity
  8
PORTS
  6
CONTINUOUS
100
AcDb2dPolyline
 66
     1
 10
0.0
 20
0.0
 30
0.0
 70
     1
  0
VERTEX
  5
9B76ECE264C69D9
100
AcDbEntity
  8
PORTS
  6
CONTINUOUS
100
AcDbVertex
100
AcDb2dVertex
 10
568.0
 20
0.0
 30
0.0
  0
VERTEX
  5
9B76ECE264C69DA
100
AcDbEntity
  8
PORTS
  6
CONTINUOUS
100
AcDbVertex
100
AcDb2dVertex
 10
568.0
 20
-28.0
 30
0.0
  0
VERTEX
  5
9B76ECE264C69DB
100
AcDbEntity
  8
PORTS
  6
CONTINUOUS
100
AcDbVertex
100
AcDb2dVertex
 10
564.0
 20
-28.0
 30
0.0
  0
VERTEX
  5
9B76ECE264C69DC
100
AcDbEntity
  8
PORTS
  6
CONTINUOUS
100
AcDbVertex
100
AcDb2dVertex
 10
564.0
 20
-34.0
 30
0.0
  0
VERTEX
  5
9B76ECE264C69DD
100
AcDbEntity
  8
PORTS
  6
CONTINUOUS
100
AcDbVertex
100
AcDb2dVertex
 10
568.0
 20
-34.0
 30
0.0
  0
VERTEX
  5
9B76ECE264C69DE
100
AcDbEntity
  8
PORTS
  6
CONTINUOUS
100
AcDbVertex
100
AcDb2dVertex
 10
568.0
 20
-72.0
 30
0.0
  0
VERTEX
  5
9B76ECE264C69DF
100
AcDbEntity
  8
PORTS
  6
CONTINUOUS
100
AcDbVertex
100
AcDb2dVertex
 10
574.0
 20
-80.0
 30
0.0
  0
VERTEX
  5
9B76ECE264C69E0
100
AcDbEntity
  8
PORTS
  6
CONTINUOUS
100
AcDbVertex
100
AcDb2dVertex
 10
580.0
 20
-72.0
 30
0.0
  0
VERTEX
  5
9B76ECE264C69E1
100
AcDbEntity
  8
PORTS
  6
CONTINUOUS
100
AcDbVertex
100
AcDb2dVertex
 10
580.0
 20
-34.0
 30
0.0
  0
VERTEX
  5
9B76ECE264C69E2
100
AcDbEntity
  8
PORTS
  6
CONTINUOUS
100
AcDbVertex
100
AcDb2dVertex
 10
584.0
 20
-34.0
 30
0.0
  0
VERTEX
  5
9B76ECE264C69E3
100
AcDbEntity
  8
PORTS
  6
CONTINUOUS
100
AcDbVertex
100
AcDb2dVertex
 10
584.0
 20
-28.0
 30
0.0
  0
VERTEX
  5
9B76ECE264C69E4
100
AcDbEntity
  8
PORTS
  6
CONTINUOUS
100
AcDbVertex
100
AcDb2dVertex
 10
580.0
 20
-28.0
 30
0.0
  0
VERTEX
  5
9B76ECE264C69E5
100
AcDbEntity
  8
PORTS
  6
CONTINUOUS
100
AcDbVertex
100
AcDb2dVertex
 10
580.0
 20
0.0
 30
0.0
  0
VERTEX
  5
9B76ECE264C69E6
100
AcDbEntity
  8
PORTS
  6
CONTINUOUS
100
AcDbVertex
100
AcDb2dVertex
 10
568.0
 20
0.0
 30
0.0
  0
SEQEND
  5
9B76ECE264C69E7
100
AcDbEntity
  8
PORTS
  6
CONTINUOUS
  0
ATTDEF
  5
9B76ECE264C69D6
100
AcDbEntity
  8
PORTS
  6
CONTINUOUS
100
AcDbText
 10
560.0
 20
42.0
 30
0.0
 40
10.0
  1

  7
SIMPLEX
100
AcDbAttributeDefinition
  3

  2
SIDE
 70
     0
  0
ENDBLK
  5
F47394262A346076
100
AcDbEntity
  8
PORTS
  6
CONTINUOUS
100
AcDbBlockEnd
  0
BLOCK
  5
DF2FB97E34DF6A93
100
AcDbEntity
  8
DETAIL_MEDIUM
100
AcDbBlockBegin
  2
LE_DATAC_SLOAD
 70
     0
 10
540.0
 20
-160.0
 30
0.0
  1

  0
POLYLINE
  5
BE5F72B8D4A671C4
100
AcDbEntity
  8
DETAIL_MEDIUM
100
AcDb2dPolyline
 66
     1
 10
0.0
 20
0.0
 30
0.0
  0
VERTEX
  5
BE5F72B8D4A671C5
100
AcDbEntity
  8
DETAIL_MEDIUM
100
AcDbVertex
100
AcDb2dVertex
 10
560.0
 20
-160.0
 30
0.0
  0
VERTEX
  5
BE5F72B8D4A671C6
100
AcDbEntity
  8
DETAIL_MEDIUM
100
AcDbVertex
100
AcDb2dVertex
 10
540.0
 20
-160.0
 30
0.0
  0
VERTEX
  5
BE5F72B8D4A671C7
100
AcDbEntity
  8
DETAIL_MEDIUM
100
AcDbVertex
100
AcDb2dVertex
 10
540.0
 20
-100.0
 30
0.0
  0
SEQEND
  5
BE5F72B8D4A671C8
100
AcDbEntity
  8
DETAIL_MEDIUM
  0
ENDBLK
  5
DF2FB97E34DF6A94
100
AcDbEntity
  8
DETAIL_MEDIUM
100
AcDbBlockEnd
  0
BLOCK
  5
85E939C05352816E
100
AcDbEntity
  8
DETAIL_MEDIUM
  6
CONTINUOUS
100
AcDbBlockBegin
  2
LE_ADATA_REG_PORT
 70
     0
 10
490.0
 20
340.0
 30
0.0
  3
LE_ADATA_REG_PORT
  1

  0
POLYLINE
  5
85E939C053528152
100
AcDbEntity
  8
DETAIL_MEDIUM
  6
CONTINUOUS
100
AcDb2dPolyline
 66
     1
 10
0.0
 20
0.0
 30
0.0
  0
VERTEX
  5
85E939C05352AB0A
100
AcDbEntity
  8
DETAIL_MEDIUM
  6
CONTINUOUS
100
AcDbVertex
100
AcDb2dVertex
 10
490.0
 20
420.0
 30
0.0
  0
VERTEX
  5
85E939C05352AB0B
100
AcDbEntity
  8
DETAIL_MEDIUM
  6
CONTINUOUS
100
AcDbVertex
100
AcDb2dVertex
 10
680.0
 20
420.0
 30
0.0
  0
VERTEX
  5
85E939C05352AB0C
100
AcDbEntity
  8
DETAIL_MEDIUM
  6
CONTINUOUS
100
AcDbVertex
100
AcDb2dVertex
 10
680.0
 20
340.0
 30
0.0
  0
VERTEX
  5
85E939C05352AB0D
100
AcDbEntity
  8
DETAIL_MEDIUM
  6
CONTINUOUS
100
AcDbVertex
100
AcDb2dVertex
 10
700.0
 20
340.0
 30
0.0
  0
SEQEND
  5
85E939C05352AB0E
100
AcDbEntity
  8
DETAIL_MEDIUM
  6
CONTINUOUS
  0
ENDBLK
  5
85E939C05352816F
100
AcDbEntity
  8
DETAIL_MEDIUM
  6
CONTINUOUS
100
AcDbBlockEnd
  0
BLOCK
  5
F47394262A34605D
100
AcDbEntity
  8
PORTS
  6
CONTINUOUS
100
AcDbBlockBegin
  2
LE_REGCASC_IN
 70
     2
 10
0.0
 20
0.0
 30
0.0
  1

  0
POLYLINE
  5
F47394262A346050
100
AcDbEntity
  8
PORTS
  6
CONTINUOUS
100
AcDb2dPolyline
 66
     1
 10
0.0
 20
0.0
 30
0.0
 70
     1
  0
VERTEX
  5
F47394262A346051
100
AcDbEntity
  8
PORTS
  6
CONTINUOUS
100
AcDbVertex
100
AcDb2dVertex
 10
480.0
 20
-80.0
 30
0.0
  0
VERTEX
  5
F47394262A346052
100
AcDbEntity
  8
PORTS
  6
CONTINUOUS
100
AcDbVertex
100
AcDb2dVertex
 10
474.0
 20
-72.0
 30
0.0
  0
VERTEX
  5
F47394262A346053
100
AcDbEntity
  8
PORTS
  6
CONTINUOUS
100
AcDbVertex
100
AcDb2dVertex
 10
474.0
 20
0.0
 30
0.0
  0
VERTEX
  5
F47394262A346054
100
AcDbEntity
  8
PORTS
  6
CONTINUOUS
100
AcDbVertex
100
AcDb2dVertex
 10
486.0
 20
0.0
 30
0.0
  0
VERTEX
  5
F47394262A346055
100
AcDbEntity
  8
PORTS
  6
CONTINUOUS
100
AcDbVertex
100
AcDb2dVertex
 10
486.0
 20
-72.0
 30
0.0
  0
VERTEX
  5
F47394262A346056
100
AcDbEntity
  8
PORTS
  6
CONTINUOUS
100
AcDbVertex
100
AcDb2dVertex
 10
480.0
 20
-80.0
 30
0.0
  0
SEQEND
  5
F47394262A346057
100
AcDbEntity
  8
PORTS
  6
CONTINUOUS
  0
POINT
  5
F47394262A34604F
100
AcDbEntity
  8
PORTS
  6
CONTINUOUS
100
AcDbPoint
 10
480.0
 20
-80.0
 30
0.0
  0
ATTDEF
  5
F47394262A34604E
100
AcDbEntity
  8
PORTS
  6
CONTINUOUS
100
AcDbText
 10
466.0
 20
42.0
 30
0.0
 40
10.0
  1

  7
SIMPLEX
100
AcDbAttributeDefinition
  3

  2
SIDE
 70
     0
  0
ENDBLK
  5
F47394262A34605E
100
AcDbEntity
  8
PORTS
  6
CONTINUOUS
100
AcDbBlockEnd
  0
BLOCK
  5
DF2FB97E2EF4BA8B
100
AcDbEntity
  8
DETAIL_MEDIUM
  6
CONTINUOUS
100
AcDbBlockBegin
  2
LE_DATAC_TO_LUT
 70
     0
 10
140.0
 20
-340.0
 30
0.0
  1

  0
POLYLINE
  5
DF2FB97E2EF4BA82
100
AcDbEntity
  8
DETAIL_MEDIUM
  6
CONTINUOUS
100
AcDb2dPolyline
 66
     1
 10
0.0
 20
0.0
 30
0.0
  0
VERTEX
  5
DF2FB97E34DF596A
100
AcDbEntity
  8
DETAIL_MEDIUM
  6
CONTINUOUS
100
AcDbVertex
100
AcDb2dVertex
 10
540.0
 20
-100.0
 30
0.0
  0
VERTEX
  5
DF2FB97E34DF596B
100
AcDbEntity
  8
DETAIL_MEDIUM
  6
CONTINUOUS
100
AcDbVertex
100
AcDb2dVertex
 10
140.0
 20
-100.0
 30
0.0
  0
VERTEX
  5
DF2FB97E34DF596C
100
AcDbEntity
  8
DETAIL_MEDIUM
  6
CONTINUOUS
100
AcDbVertex
100
AcDb2dVertex
 10
140.0
 20
-340.0
 30
0.0
  0
SEQEND
  5
DF2FB97E34DF596D
100
AcDbEntity
  8
DETAIL_MEDIUM
  6
CONTINUOUS
  0
ENDBLK
  5
DF2FB97E2EF4BA8C
100
AcDbEntity
  8
DETAIL_MEDIUM
  6
CONTINUOUS
100
AcDbBlockEnd
  0
BLOCK
  5
F47394262A345503
100
AcDbEntity
  8
PORTS
  6
CONTINUOUS
100
AcDbBlockBegin
  2
LE_DATAC
 70
     2
 10
0.0
 20
0.0
 30
0.0
  1

  0
POLYLINE
  5
9B76ECE264C52B6
100
AcDbEntity
  8
PORTS
  6
CONTINUOUS
100
AcDb2dPolyline
 66
     1
 10
0.0
 20
0.0
 30
0.0
 70
     1
  0
VERTEX
  5
9B76ECE264C52B7
100
AcDbEntity
  8
PORTS
  6
CONTINUOUS
100
AcDbVertex
100
AcDb2dVertex
 10
80.0
 20
-340.0
 30
0.0
  0
VERTEX
  5
9B76ECE264C52B8
100
AcDbEntity
  8
PORTS
  6
CONTINUOUS
100
AcDbVertex
100
AcDb2dVertex
 10
72.0
 20
-346.0
 30
0.0
  0
VERTEX
  5
9B76ECE264C52B9
100
AcDbEntity
  8
PORTS
  6
CONTINUOUS
100
AcDbVertex
100
AcDb2dVertex
 10
0.0
 20
-346.0
 30
0.0
  0
VERTEX
  5
9B76ECE264C52BA
100
AcDbEntity
  8
PORTS
  6
CONTINUOUS
100
AcDbVertex
100
AcDb2dVertex
 10
0.0
 20
-334.0
 30
0.0
  0
VERTEX
  5
9B76ECE264C52BB
100
AcDbEntity
  8
PORTS
  6
CONTINUOUS
100
AcDbVertex
100
AcDb2dVertex
 10
72.0
 20
-334.0
 30
0.0
  0
VERTEX
  5
9B76ECE264C52BC
100
AcDbEntity
  8
PORTS
  6
CONTINUOUS
100
AcDbVertex
100
AcDb2dVertex
 10
80.0
 20
-340.0
 30
0.0
  0
SEQEND
  5
9B76ECE264C52BD
100
AcDbEntity
  8
PORTS
  6
CONTINUOUS
  0
POINT
  5
9B76ECE264C52BE
100
AcDbEntity
  8
PORTS
  6
CONTINUOUS
100
AcDbPoint
 10
80.0
 20
-340.0
 30
0.0
  0
ATTDEF
  5
9B76ECE264C52BF
100
AcDbEntity
  8
PORTS
  6
CONTINUOUS
100
AcDbText
 10
2.0
 20
-328.0
 30
0.0
 40
10.0
  1

  7
SIMPLEX
100
AcDbAttributeDefinition
  3

  2
SIDE
 70
     0
  0
ENDBLK
  5
F47394262A345504
100
AcDbEntity
  8
PORTS
  6
CONTINUOUS
100
AcDbBlockEnd
  0
BLOCK
  5
F47394262A34549A
100
AcDbEntity
  8
PORTS
  6
CONTINUOUS
100
AcDbBlockBegin
  2
LE_DATAA
 70
     2
 10
0.0
 20
0.0
 30
0.0
  1

  0
POLYLINE
  5
9B76ECE25E01EC2
100
AcDbEntity
  8
PORTS
  6
CONTINUOUS
100
AcDb2dPolyline
 66
     1
 10
0.0
 20
0.0
 30
0.0
 70
     1
  0
VERTEX
  5
9B76ECE25E01EC3
100
AcDbEntity
  8
PORTS
  6
CONTINUOUS
100
AcDbVertex
100
AcDb2dVertex
 10
80.0
 20
-180.0
 30
0.0
  0
VERTEX
  5
9B76ECE25E01EC4
100
AcDbEntity
  8
PORTS
  6
CONTINUOUS
100
AcDbVertex
100
AcDb2dVertex
 10
72.0
 20
-186.0
 30
0.0
  0
VERTEX
  5
9B76ECE25E01EC5
100
AcDbEntity
  8
PORTS
  6
CONTINUOUS
100
AcDbVertex
100
AcDb2dVertex
 10
0.0
 20
-186.0
 30
0.0
  0
VERTEX
  5
9B76ECE25E01EC6
100
AcDbEntity
  8
PORTS
  6
CONTINUOUS
100
AcDbVertex
100
AcDb2dVertex
 10
0.0
 20
-174.0
 30
0.0
  0
VERTEX
  5
9B76ECE25E01EC7
100
AcDbEntity
  8
PORTS
  6
CONTINUOUS
100
AcDbVertex
100
AcDb2dVertex
 10
72.0
 20
-174.0
 30
0.0
  0
VERTEX
  5
9B76ECE25E01EC8
100
AcDbEntity
  8
PORTS
  6
CONTINUOUS
100
AcDbVertex
100
AcDb2dVertex
 10
80.0
 20
-180.0
 30
0.0
  0
SEQEND
  5
9B76ECE25E01EC9
100
AcDbEntity
  8
PORTS
  6
CONTINUOUS
  0
POINT
  5
9B76ECE25E01EC1
100
AcDbEntity
  8
PORTS
  6
CONTINUOUS
100
AcDbPoint
 10
80.0
 20
-180.0
 30
0.0
  0
ATTDEF
  5
9B76ECE25E01ECA
100
AcDbEntity
  8
PORTS
  6
CONTINUOUS
100
AcDbText
 10
0.0
 20
-168.0
 30
0.0
 40
10.0
  1

  7
SIMPLEX
100
AcDbAttributeDefinition
  3

  2
SIDE
 70
     0
  0
ENDBLK
  5
F47394262A34549B
100
AcDbEntity
  8
PORTS
  6
CONTINUOUS
100
AcDbBlockEnd
  0
BLOCK
  5
F47394262A3454F9
100
AcDbEntity
  8
PORTS
  6
CONTINUOUS
100
AcDbBlockBegin
  2
LE_DATAB
 70
     2
 10
0.0
 20
0.0
 30
0.0
  1

  0
POLYLINE
  5
9B76ECE264C52AE
100
AcDbEntity
  8
PORTS
  6
CONTINUOUS
100
AcDb2dPolyline
 66
     1
 10
0.0
 20
0.0
 30
0.0
 70
     1
  0
VERTEX
  5
9B76ECE264C52AF
100
AcDbEntity
  8
PORTS
  6
CONTINUOUS
100
AcDbVertex
100
AcDb2dVertex
 10
80.0
 20
-260.0
 30
0.0
  0
VERTEX
  5
9B76ECE264C52B0
100
AcDbEntity
  8
PORTS
  6
CONTINUOUS
100
AcDbVertex
100
AcDb2dVertex
 10
72.0
 20
-266.0
 30
0.0
  0
VERTEX
  5
9B76ECE264C52B1
100
AcDbEntity
  8
PORTS
  6
CONTINUOUS
100
AcDbVertex
100
AcDb2dVertex
 10
0.0
 20
-266.0
 30
0.0
  0
VERTEX
  5
9B76ECE264C52B2
100
AcDbEntity
  8
PORTS
  6
CONTINUOUS
100
AcDbVertex
100
AcDb2dVertex
 10
0.0
 20
-254.0
 30
0.0
  0
VERTEX
  5
9B76ECE264C52B3
100
AcDbEntity
  8
PORTS
  6
CONTINUOUS
100
AcDbVertex
100
AcDb2dVertex
 10
72.0
 20
-254.0
 30
0.0
  0
VERTEX
  5
9B76ECE264C52B4
100
AcDbEntity
  8
PORTS
  6
CONTINUOUS
100
AcDbVertex
100
AcDb2dVertex
 10
80.0
 20
-260.0
 30
0.0
  0
SEQEND
  5
9B76ECE264C52B5
100
AcDbEntity
  8
PORTS
  6
CONTINUOUS
  0
POINT
  5
9B76ECE264C52B6
100
AcDbEntity
  8
PORTS
  6
CONTINUOUS
100
AcDbPoint
 10
80.0
 20
-260.0
 30
0.0
  0
ATTDEF
  5
9B76ECE264C52B7
100
AcDbEntity
  8
PORTS
  6
CONTINUOUS
100
AcDbText
 10
2.0
 20
-248.0
 30
0.0
 40
10.0
  1

  7
SIMPLEX
100
AcDbAttributeDefinition
  3

  2
SIDE
 70
     0
  0
ENDBLK
  5
F47394262A3454FA
100
AcDbEntity
  8
PORTS
  6
CONTINUOUS
100
AcDbBlockEnd
  0
BLOCK
  5
F47394262A34550D
100
AcDbEntity
  8
PORTS
  6
CONTINUOUS
100
AcDbBlockBegin
  2
LE_DATAD
 70
     2
 10
0.0
 20
0.0
 30
0.0
  1

  0
POLYLINE
  5
9B76ECE264C52DB
100
AcDbEntity
  8
PORTS
  6
CONTINUOUS
100
AcDb2dPolyline
 66
     1
 10
0.0
 20
0.0
 30
0.0
 70
     1
  0
VERTEX
  5
9B76ECE264C52DC
100
AcDbEntity
  8
PORTS
  6
CONTINUOUS
100
AcDbVertex
100
AcDb2dVertex
 10
80.0
 20
-420.0
 30
0.0
  0
VERTEX
  5
9B76ECE264C52DD
100
AcDbEntity
  8
PORTS
  6
CONTINUOUS
100
AcDbVertex
100
AcDb2dVertex
 10
72.0
 20
-426.0
 30
0.0
  0
VERTEX
  5
9B76ECE264C52DE
100
AcDbEntity
  8
PORTS
  6
CONTINUOUS
100
AcDbVertex
100
AcDb2dVertex
 10
0.0
 20
-426.0
 30
0.0
  0
VERTEX
  5
9B76ECE264C52DF
100
AcDbEntity
  8
PORTS
  6
CONTINUOUS
100
AcDbVertex
100
AcDb2dVertex
 10
0.0
 20
-414.0
 30
0.0
  0
VERTEX
  5
9B76ECE264C52E0
100
AcDbEntity
  8
PORTS
  6
CONTINUOUS
100
AcDbVertex
100
AcDb2dVertex
 10
72.0
 20
-414.0
 30
0.0
  0
VERTEX
  5
9B76ECE264C52E1
100
AcDbEntity
  8
PORTS
  6
CONTINUOUS
100
AcDbVertex
100
AcDb2dVertex
 10
80.0
 20
-420.0
 30
0.0
  0
SEQEND
  5
9B76ECE264C52E2
100
AcDbEntity
  8
PORTS
  6
CONTINUOUS
  0
POINT
  5
9B76ECE264C52E3
100
AcDbEntity
  8
PORTS
  6
CONTINUOUS
100
AcDbPoint
 10
80.0
 20
-420.0
 30
0.0
  0
ATTDEF
  5
9B76ECE264C52E4
100
AcDbEntity
  8
PORTS
  6
CONTINUOUS
100
AcDbText
 10
2.0
 20
-408.0
 30
0.0
 40
10.0
  1

  7
SIMPLEX
100
AcDbAttributeDefinition
  3

  2
SIDE
 70
     0
  0
ENDBLK
  5
F47394262A34550E
100
AcDbEntity
  8
PORTS
  6
CONTINUOUS
100
AcDbBlockEnd
  0
BLOCK
  5
F47394262A3458E0
100
AcDbEntity
  8
PORTS
  6
CONTINUOUS
100
AcDbBlockBegin
  2
LE_INVERTA
 70
     2
 10
0.0
 20
0.0
 30
0.0
  1

  0
POLYLINE
  5
9B76ECE264C5AEA
100
AcDbEntity
  8
PORTS
  6
CONTINUOUS
100
AcDb2dPolyline
 66
     1
 10
0.0
 20
0.0
 30
0.0
 70
     1
  0
VERTEX
  5
9B76ECE264C5AEB
100
AcDbEntity
  8
PORTS
  6
CONTINUOUS
100
AcDbVertex
100
AcDb2dVertex
 10
154.0
 20
0.0
 30
0.0
  0
VERTEX
  5
9B76ECE264C5AEC
100
AcDbEntity
  8
PORTS
  6
CONTINUOUS
100
AcDbVertex
100
AcDb2dVertex
 10
154.0
 20
-28.0
 30
0.0
  0
VERTEX
  5
9B76ECE264C5AED
100
AcDbEntity
  8
PORTS
  6
CONTINUOUS
100
AcDbVertex
100
AcDb2dVertex
 10
150.0
 20
-28.0
 30
0.0
  0
VERTEX
  5
9B76ECE264C5AEE
100
AcDbEntity
  8
PORTS
  6
CONTINUOUS
100
AcDbVertex
100
AcDb2dVertex
 10
150.0
 20
-34.0
 30
0.0
  0
VERTEX
  5
9B76ECE264C5AEF
100
AcDbEntity
  8
PORTS
  6
CONTINUOUS
100
AcDbVertex
100
AcDb2dVertex
 10
154.0
 20
-34.0
 30
0.0
  0
VERTEX
  5
9B76ECE264C5AF0
100
AcDbEntity
  8
PORTS
  6
CONTINUOUS
100
AcDbVertex
100
AcDb2dVertex
 10
154.0
 20
-72.0
 30
0.0
  0
VERTEX
  5
9B76ECE264C5AF1
100
AcDbEntity
  8
PORTS
  6
CONTINUOUS
100
AcDbVertex
100
AcDb2dVertex
 10
160.0
 20
-80.0
 30
0.0
  0
VERTEX
  5
9B76ECE264C5AF2
100
AcDbEntity
  8
PORTS
  6
CONTINUOUS
100
AcDbVertex
100
AcDb2dVertex
 10
166.0
 20
-72.0
 30
0.0
  0
VERTEX
  5
9B76ECE264C5AF3
100
AcDbEntity
  8
PORTS
  6
CONTINUOUS
100
AcDbVertex
100
AcDb2dVertex
 10
166.0
 20
-34.0
 30
0.0
  0
VERTEX
  5
9B76ECE264C5AF4
100
AcDbEntity
  8
PORTS
  6
CONTINUOUS
100
AcDbVertex
100
AcDb2dVertex
 10
170.0
 20
-34.0
 30
0.0
  0
VERTEX
  5
9B76ECE264C5AF5
100
AcDbEntity
  8
PORTS
  6
CONTINUOUS
100
AcDbVertex
100
AcDb2dVertex
 10
170.0
 20
-28.0
 30
0.0
  0
VERTEX
  5
9B76ECE264C5AF6
100
AcDbEntity
  8
PORTS
  6
CONTINUOUS
100
AcDbVertex
100
AcDb2dVertex
 10
166.0
 20
-28.0
 30
0.0
  0
VERTEX
  5
9B76ECE264C5AF7
100
AcDbEntity
  8
PORTS
  6
CONTINUOUS
100
AcDbVertex
100
AcDb2dVertex
 10
166.0
 20
0.0
 30
0.0
  0
VERTEX
  5
9B76ECE264C5AF8
100
AcDbEntity
  8
PORTS
  6
CONTINUOUS
100
AcDbVertex
100
AcDb2dVertex
 10
154.0
 20
0.0
 30
0.0
  0
SEQEND
  5
9B76ECE264C5AF9
100
AcDbEntity
  8
PORTS
  6
CONTINUOUS
  0
POINT
  5
9B76ECE264C5AE9
100
AcDbEntity
  8
PORTS
  6
CONTINUOUS
100
AcDbPoint
 10
160.0
 20
-80.0
 30
0.0
  0
ATTDEF
  5
9B76ECE264C5AE8
100
AcDbEntity
  8
PORTS
  6
CONTINUOUS
100
AcDbText
 10
146.0
 20
42.0
 30
0.0
 40
10.0
  1

  7
SIMPLEX
100
AcDbAttributeDefinition
  3

  2
SIDE
 70
     0
  0
ENDBLK
  5
F47394262A3458E1
100
AcDbEntity
  8
PORTS
  6
CONTINUOUS
100
AcDbBlockEnd
  0
BLOCK
  5
F47394262A3458BC
100
AcDbEntity
  8
PORTS
  6
CONTINUOUS
100
AcDbBlockBegin
  2
LE_CIN
 70
     2
 10
0.0
 20
0.0
 30
0.0
  1

  0
POLYLINE
  5
F47394262A3458AF
100
AcDbEntity
  8
PORTS
  6
CONTINUOUS
100
AcDb2dPolyline
 66
     1
 10
0.0
 20
0.0
 30
0.0
 70
     1
  0
VERTEX
  5
F47394262A3458B0
100
AcDbEntity
  8
PORTS
  6
CONTINUOUS
100
AcDbVertex
100
AcDb2dVertex
 10
120.0
 20
-80.0
 30
0.0
  0
VERTEX
  5
F47394262A3458B1
100
AcDbEntity
  8
PORTS
  6
CONTINUOUS
100
AcDbVertex
100
AcDb2dVertex
 10
114.0
 20
-72.0
 30
0.0
  0
VERTEX
  5
F47394262A3458B2
100
AcDbEntity
  8
PORTS
  6
CONTINUOUS
100
AcDbVertex
100
AcDb2dVertex
 10
114.0
 20
0.0
 30
0.0
  0
VERTEX
  5
F47394262A3458B3
100
AcDbEntity
  8
PORTS
  6
CONTINUOUS
100
AcDbVertex
100
AcDb2dVertex
 10
126.0
 20
0.0
 30
0.0
  0
VERTEX
  5
F47394262A3458B4
100
AcDbEntity
  8
PORTS
  6
CONTINUOUS
100
AcDbVertex
100
AcDb2dVertex
 10
126.0
 20
-72.0
 30
0.0
  0
VERTEX
  5
F47394262A3458B5
100
AcDbEntity
  8
PORTS
  6
CONTINUOUS
100
AcDbVertex
100
AcDb2dVertex
 10
120.0
 20
-80.0
 30
0.0
  0
SEQEND
  5
F47394262A3458B6
100
AcDbEntity
  8
PORTS
  6
CONTINUOUS
  0
POINT
  5
F47394262A3458AE
100
AcDbEntity
  8
PORTS
  6
CONTINUOUS
100
AcDbPoint
 10
120.0
 20
-80.0
 30
0.0
  0
ATTDEF
  5
F47394262A3458AD
100
AcDbEntity
  8
PORTS
  6
CONTINUOUS
100
AcDbText
 10
106.0
 20
42.0
 30
0.0
 40
10.0
  1

  7
SIMPLEX
100
AcDbAttributeDefinition
  3

  2
SIDE
 70
     0
  0
ENDBLK
  5
F47394262A3458BD
100
AcDbEntity
  8
PORTS
  6
CONTINUOUS
100
AcDbBlockEnd
  0
BLOCK
  5
F47394262A348E95
100
AcDbEntity
  8
DETAIL_MEDIUM
  6
CONTINUOUS
100
AcDbBlockBegin
  2
LE_DATAC_MUX
 70
     0
 10
0.0
 20
0.0
 30
0.0
  1

  0
LINE
  5
F47394262A348E93
100
AcDbEntity
  8
DETAIL_MEDIUM
  6
CONTINUOUS
100
AcDbLine
 10
241.642954
 20
-350.910057
 30
0.0
 11
280.910057
 21
-350.910057
 31
0.0
  0
POLYLINE
  5
9B76ECE1F89C3C4
100
AcDbEntity
  8
DETAIL_MEDIUM
  6
CONTINUOUS
100
AcDb2dPolyline
 66
     1
 10
0.0
 20
0.0
 30
0.0
 70
     1
  0
VERTEX
  5
9B76ECE1F89C3C5
100
AcDbEntity
  8
DETAIL_MEDIUM
  6
CONTINUOUS
100
AcDbVertex
100
AcDb2dVertex
 10
211.642954
 20
-300.910057
 30
0.0
  0
VERTEX
  5
9B76ECE1F89C3C6
100
AcDbEntity
  8
DETAIL_MEDIUM
  6
CONTINUOUS
100
AcDbVertex
100
AcDb2dVertex
 10
241.642954
 20
-310.910057
 30
0.0
  0
VERTEX
  5
9B76ECE1F89C3C7
100
AcDbEntity
  8
DETAIL_MEDIUM
  6
CONTINUOUS
100
AcDbVertex
100
AcDb2dVertex
 10
241.642954
 20
-390.910057
 30
0.0
  0
VERTEX
  5
9B76ECE1F89C3C8
100
AcDbEntity
  8
DETAIL_MEDIUM
  6
CONTINUOUS
100
AcDbVertex
100
AcDb2dVertex
 10
211.642954
 20
-400.910057
 30
0.0
  0
VERTEX
  5
9B76ECE1F89C3C9
100
AcDbEntity
  8
DETAIL_MEDIUM
  6
CONTINUOUS
100
AcDbVertex
100
AcDb2dVertex
 10
211.642954
 20
-300.910057
 30
0.0
  0
SEQEND
  5
9B76ECE1F89C3CA
100
AcDbEntity
  8
DETAIL_MEDIUM
  6
CONTINUOUS
  0
ENDBLK
  5
F47394262A348E96
100
AcDbEntity
  8
DETAIL_MEDIUM
  6
CONTINUOUS
100
AcDbBlockEnd
  0
BLOCK
  5
F47394262A351E46
100
AcDbEntity
  8
DETAIL_MEDIUM
  6
CONTINUOUS
100
AcDbBlockBegin
  2
LE_QFBK_PATH
 70
     0
 10
0.0
 20
0.0
 30
0.0
  1

  0
LINE
  5
F47394262A351E3D
100
AcDbEntity
  8
DETAIL_MEDIUM
  6
CONTINUOUS
100
AcDbLine
 10
860.910057
 20
-230.910057
 30
0.0
 11
880.910057
 21
-230.910057
 31
0.0
  0
LINE
  5
F47394262A351E3E
100
AcDbEntity
  8
DETAIL_MEDIUM
  6
CONTINUOUS
100
AcDbLine
 10
880.910057
 20
-230.910057
 30
0.0
 11
880.910057
 21
-490.910057
 31
0.0
  0
LINE
  5
F47394262A351E3F
100
AcDbEntity
  8
DETAIL_MEDIUM
  6
CONTINUOUS
100
AcDbLine
 10
880.910057
 20
-490.910057
 30
0.0
 11
190.199485
 21
-490.910057
 31
0.0
  0
LINE
  5
F47394262A351E43
100
AcDbEntity
  8
DETAIL_MEDIUM
  6
CONTINUOUS
100
AcDbLine
 10
190.199485
 20
-490.910057
 30
0.0
 11
190.199485
 21
-390.803029
 31
0.0
  0
LINE
  5
F47394262A351E44
100
AcDbEntity
  8
DETAIL_MEDIUM
  6
CONTINUOUS
100
AcDbLine
 10
190.199485
 20
-390.803029
 30
0.0
 11
211.642954
 21
-390.803029
 31
0.0
  0
ENDBLK
  5
F47394262A351E47
100
AcDbEntity
  8
DETAIL_MEDIUM
  6
CONTINUOUS
100
AcDbBlockEnd
  0
BLOCK
  5
F47394262A34611D
100
AcDbEntity
  8
PORTS
  6
CONTINUOUS
100
AcDbBlockBegin
  2
LE_REGCASCOUT
 70
     2
 10
0.0
 20
0.0
 30
0.0
  1

  0
POLYLINE
  5
9B76ECE1F8969F8
100
AcDbEntity
  8
PORTS
  6
CONTINUOUS
100
AcDb2dPolyline
 66
     1
 10
0.0
 20
0.0
 30
0.0
 70
     1
  0
VERTEX
  5
9B76ECE1F8969F9
100
AcDbEntity
  8
PORTS
  6
CONTINUOUS
100
AcDbVertex
100
AcDb2dVertex
 10
490.0
 20
-600.0
 30
0.0
  0
VERTEX
  5
9B76ECE1F8969FA
100
AcDbEntity
  8
PORTS
  6
CONTINUOUS
100
AcDbVertex
100
AcDb2dVertex
 10
484.0
 20
-592.0
 30
0.0
  0
VERTEX
  5
9B76ECE1F8969FB
100
AcDbEntity
  8
PORTS
  6
CONTINUOUS
100
AcDbVertex
100
AcDb2dVertex
 10
484.0
 20
-520.0
 30
0.0
  0
VERTEX
  5
9B76ECE1F8969FC
100
AcDbEntity
  8
PORTS
  6
CONTINUOUS
100
AcDbVertex
100
AcDb2dVertex
 10
496.0
 20
-520.0
 30
0.0
  0
VERTEX
  5
9B76ECE1F8969FD
100
AcDbEntity
  8
PORTS
  6
CONTINUOUS
100
AcDbVertex
100
AcDb2dVertex
 10
496.0
 20
-592.0
 30
0.0
  0
VERTEX
  5
9B76ECE1F8969FE
100
AcDbEntity
  8
PORTS
  6
CONTINUOUS
100
AcDbVertex
100
AcDb2dVertex
 10
490.0
 20
-600.0
 30
0.0
  0
SEQEND
  5
9B76ECE1F8969FF
100
AcDbEntity
  8
PORTS
  6
CONTINUOUS
  0
ATTDEF
  5
9B76ECE1F896A01
100
AcDbEntity
  8
PORTS
  6
CONTINUOUS
100
AcDbText
 10
472.0
 20
-638.0
 30
0.0
 40
10.0
  1

  7
SIMPLEX
100
AcDbAttributeDefinition
  3

  2
SIDE
 70
     0
  0
POINT
  5
9B76ECE1F896A00
100
AcDbEntity
  8
PORTS
  6
CONTINUOUS
100
AcDbPoint
 10
490.0
 20
-520.0
 30
0.0
  0
ENDBLK
  5
F47394262A34611E
100
AcDbEntity
  8
PORTS
  6
CONTINUOUS
100
AcDbBlockEnd
  0
BLOCK
  5
F47394262A3458C6
100
AcDbEntity
  8
PORTS
  6
CONTINUOUS
100
AcDbBlockBegin
  2
LE_COUT
 70
     2
 10
0.0
 20
0.0
 30
0.0
  1

  0
POLYLINE
  5
9B76ECE264C5A51
100
AcDbEntity
  8
PORTS
  6
CONTINUOUS
100
AcDb2dPolyline
 66
     1
 10
0.0
 20
0.0
 30
0.0
 70
     1
  0
VERTEX
  5
9B76ECE264C5A52
100
AcDbEntity
  8
PORTS
  6
CONTINUOUS
100
AcDbVertex
100
AcDb2dVertex
 10
120.0
 20
-600.0
 30
0.0
  0
VERTEX
  5
9B76ECE264C5A53
100
AcDbEntity
  8
PORTS
  6
CONTINUOUS
100
AcDbVertex
100
AcDb2dVertex
 10
114.0
 20
-592.0
 30
0.0
  0
VERTEX
  5
9B76ECE264C5A54
100
AcDbEntity
  8
PORTS
  6
CONTINUOUS
100
AcDbVertex
100
AcDb2dVertex
 10
114.0
 20
-520.0
 30
0.0
  0
VERTEX
  5
9B76ECE264C5A55
100
AcDbEntity
  8
PORTS
  6
CONTINUOUS
100
AcDbVertex
100
AcDb2dVertex
 10
126.0
 20
-520.0
 30
0.0
  0
VERTEX
  5
9B76ECE264C5A56
100
AcDbEntity
  8
PORTS
  6
CONTINUOUS
100
AcDbVertex
100
AcDb2dVertex
 10
126.0
 20
-592.0
 30
0.0
  0
VERTEX
  5
9B76ECE264C5A57
100
AcDbEntity
  8
PORTS
  6
CONTINUOUS
100
AcDbVertex
100
AcDb2dVertex
 10
120.0
 20
-600.0
 30
0.0
  0
SEQEND
  5
9B76ECE264C5A58
100
AcDbEntity
  8
PORTS
  6
CONTINUOUS
  0
ATTDEF
  5
9B76ECE264C5A5A
100
AcDbEntity
  8
PORTS
  6
CONTINUOUS
100
AcDbText
 10
102.0
 20
-638.0
 30
0.0
 40
10.0
  1

  7
SIMPLEX
100
AcDbAttributeDefinition
  3

  2
SIDE
 70
     0
  0
POINT
  5
9B76ECE264C5A59
100
AcDbEntity
  8
PORTS
  6
CONTINUOUS
100
AcDbPoint
 10
120.0
 20
-520.0
 30
0.0
  0
ENDBLK
  5
F47394262A3458C7
100
AcDbEntity
  8
PORTS
  6
CONTINUOUS
100
AcDbBlockEnd
  0
BLOCK
  5
DF2FB97E2E888A53
100
AcDbEntity
  8
DETAIL_MEDIUM
  6
CONTINUOUS
100
AcDbBlockBegin
  2
LE_LUT_SUM_OUT
 70
     0
 10
430.0
 20
-220.0
 30
0.0
  1

  0
LINE
  5
DF2FB97E2E888A51
100
AcDbEntity
  8
DETAIL_MEDIUM
  6
CONTINUOUS
100
AcDbLine
 10
430.0
 20
-220.0
 30
0.0
 11
480.0
 21
-220.0
 31
0.0
  0
ENDBLK
  5
DF2FB97E2E888A54
100
AcDbEntity
  8
DETAIL_MEDIUM
  6
CONTINUOUS
100
AcDbBlockEnd
  0
BLOCK
  5
F47394262A346113
100
AcDbEntity
  8
PORTS
  6
CONTINUOUS
100
AcDbBlockBegin
  2
LE_COMBOUT
 70
     2
 10
0.0
 20
0.0
 30
0.0
  1

  0
POLYLINE
  5
9B76ECE264C6B15
100
AcDbEntity
  8
PORTS
  6
CONTINUOUS
100
AcDb2dPolyline
 66
     1
 10
0.0
 20
0.0
 30
0.0
 70
     1
  0
VERTEX
  5
9B76ECE264C6B16
100
AcDbEntity
  8
PORTS
  6
CONTINUOUS
100
AcDbVertex
100
AcDb2dVertex
 10
970.0
 20
-360.0
 30
0.0
  0
VERTEX
  5
9B76ECE264C6B17
100
AcDbEntity
  8
PORTS
  6
CONTINUOUS
100
AcDbVertex
100
AcDb2dVertex
 10
962.0
 20
-366.0
 30
0.0
  0
VERTEX
  5
9B76ECE264C6B18
100
AcDbEntity
  8
PORTS
  6
CONTINUOUS
100
AcDbVertex
100
AcDb2dVertex
 10
890.0
 20
-366.0
 30
0.0
  0
VERTEX
  5
9B76ECE264C6B19
100
AcDbEntity
  8
PORTS
  6
CONTINUOUS
100
AcDbVertex
100
AcDb2dVertex
 10
890.0
 20
-354.0
 30
0.0
  0
VERTEX
  5
9B76ECE264C6B1A
100
AcDbEntity
  8
PORTS
  6
CONTINUOUS
100
AcDbVertex
100
AcDb2dVertex
 10
962.0
 20
-354.0
 30
0.0
  0
VERTEX
  5
9B76ECE264C6B1B
100
AcDbEntity
  8
PORTS
  6
CONTINUOUS
100
AcDbVertex
100
AcDb2dVertex
 10
970.0
 20
-360.0
 30
0.0
  0
SEQEND
  5
9B76ECE264C6B1C
100
AcDbEntity
  8
PORTS
  6
CONTINUOUS
  0
POINT
  5
9B76ECE264C6B1D
100
AcDbEntity
  8
PORTS
  6
CONTINUOUS
100
AcDbPoint
 10
890.0
 20
-360.0
 30
0.0
  0
ATTDEF
  5
9B76ECE264C6B1E
100
AcDbEntity
  8
PORTS
  6
CONTINUOUS
100
AcDbText
 10
902.0
 20
-348.0
 30
0.0
 40
10.0
  1

  7
SIMPLEX
100
AcDbAttributeDefinition
  3

  2
SIDE
 70
     0
  0
ENDBLK
  5
F47394262A346114
100
AcDbEntity
  8
PORTS
  6
CONTINUOUS
100
AcDbBlockEnd
  0
BLOCK
  5
F47394262A346127
100
AcDbEntity
  8
PORTS
  6
CONTINUOUS
100
AcDbBlockBegin
  2
LE_REGOUT
 70
     2
 10
0.0
 20
0.0
 30
0.0
  1

  0
POINT
  5
9B76ECE1F896A0F
100
AcDbEntity
  8
PORTS
  6
CONTINUOUS
100
AcDbPoint
 10
890.0
 20
-220.0
 30
0.0
  0
POLYLINE
  5
9B76ECE1F896A06
100
AcDbEntity
  8
PORTS
  6
CONTINUOUS
100
AcDb2dPolyline
 66
     1
 10
0.0
 20
0.0
 30
0.0
 70
     1
  0
VERTEX
  5
9B76ECE1F896A07
100
AcDbEntity
  8
PORTS
  6
CONTINUOUS
100
AcDbVertex
100
AcDb2dVertex
 10
970.0
 20
-220.0
 30
0.0
  0
VERTEX
  5
9B76ECE1F896A08
100
AcDbEntity
  8
PORTS
  6
CONTINUOUS
100
AcDbVertex
100
AcDb2dVertex
 10
962.0
 20
-226.0
 30
0.0
  0
VERTEX
  5
9B76ECE1F896A09
100
AcDbEntity
  8
PORTS
  6
CONTINUOUS
100
AcDbVertex
100
AcDb2dVertex
 10
890.0
 20
-226.0
 30
0.0
  0
VERTEX
  5
9B76ECE1F896A0A
100
AcDbEntity
  8
PORTS
  6
CONTINUOUS
100
AcDbVertex
100
AcDb2dVertex
 10
890.0
 20
-214.0
 30
0.0
  0
VERTEX
  5
9B76ECE1F896A0B
100
AcDbEntity
  8
PORTS
  6
CONTINUOUS
100
AcDbVertex
100
AcDb2dVertex
 10
962.0
 20
-214.0
 30
0.0
  0
VERTEX
  5
9B76ECE1F896A0C
100
AcDbEntity
  8
PORTS
  6
CONTINUOUS
100
AcDbVertex
100
AcDb2dVertex
 10
970.0
 20
-220.0
 30
0.0
  0
SEQEND
  5
9B76ECE1F896A0D
100
AcDbEntity
  8
PORTS
  6
CONTINUOUS
  0
ATTDEF
  5
9B76ECE1F896A0E
100
AcDbEntity
  8
PORTS
  6
CONTINUOUS
100
AcDbText
 10
902.0
 20
-208.0
 30
0.0
 40
10.0
  1

  7
SIMPLEX
100
AcDbAttributeDefinition
  3

  2
SIDE
 70
     0
  0
ENDBLK
  5
F47394262A346128
100
AcDbEntity
  8
PORTS
  6
CONTINUOUS
100
AcDbBlockEnd
  0
BLOCK
  5
F47394262A34609D
100
AcDbEntity
  8
PORTS
  6
CONTINUOUS
100
AcDbBlockBegin
  2
LE_CLK
 70
     2
 10
0.0
 20
0.0
 30
0.0
  1

  0
POLYLINE
  5
9B76ECE264C69E7
100
AcDbEntity
  8
PORTS
  6
CONTINUOUS
100
AcDb2dPolyline
 66
     1
 10
0.0
 20
0.0
 30
0.0
 70
     1
  0
VERTEX
  5
9B76ECE264C69E8
100
AcDbEntity
  8
PORTS
  6
CONTINUOUS
100
AcDbVertex
100
AcDb2dVertex
 10
630.0
 20
-286.0
 30
0.0
  0
VERTEX
  5
9B76ECE264C69E9
100
AcDbEntity
  8
PORTS
  6
CONTINUOUS
100
AcDbVertex
100
AcDb2dVertex
 10
658.0
 20
-286.0
 30
0.0
  0
VERTEX
  5
9B76ECE264C69EA
100
AcDbEntity
  8
PORTS
  6
CONTINUOUS
100
AcDbVertex
100
AcDb2dVertex
 10
658.0
 20
-290.0
 30
0.0
  0
VERTEX
  5
9B76ECE264C69EB
100
AcDbEntity
  8
PORTS
  6
CONTINUOUS
100
AcDbVertex
100
AcDb2dVertex
 10
664.0
 20
-290.0
 30
0.0
  0
VERTEX
  5
9B76ECE264C69EC
100
AcDbEntity
  8
PORTS
  6
CONTINUOUS
100
AcDbVertex
100
AcDb2dVertex
 10
664.0
 20
-286.0
 30
0.0
  0
VERTEX
  5
9B76ECE264C69ED
100
AcDbEntity
  8
PORTS
  6
CONTINUOUS
100
AcDbVertex
100
AcDb2dVertex
 10
668.0
 20
-286.0
 30
0.0
  0
VERTEX
  5
9B76ECE264C69EE
100
AcDbEntity
  8
PORTS
  6
CONTINUOUS
100
AcDbVertex
100
AcDb2dVertex
 10
668.0
 20
-290.0
 30
0.0
  0
VERTEX
  5
9B76ECE264C69EF
100
AcDbEntity
  8
PORTS
  6
CONTINUOUS
100
AcDbVertex
100
AcDb2dVertex
 10
674.0
 20
-290.0
 30
0.0
  0
VERTEX
  5
9B76ECE264C69F0
100
AcDbEntity
  8
PORTS
  6
CONTINUOUS
100
AcDbVertex
100
AcDb2dVertex
 10
674.0
 20
-286.0
 30
0.0
  0
VERTEX
  5
9B76ECE264C69F1
100
AcDbEntity
  8
PORTS
  6
CONTINUOUS
100
AcDbVertex
100
AcDb2dVertex
 10
702.0
 20
-286.0
 30
0.0
  0
VERTEX
  5
9B76ECE264C69F2
100
AcDbEntity
  8
PORTS
  6
CONTINUOUS
100
AcDbVertex
100
AcDb2dVertex
 10
710.0
 20
-280.0
 30
0.0
  0
VERTEX
  5
9B76ECE264C69F3
100
AcDbEntity
  8
PORTS
  6
CONTINUOUS
100
AcDbVertex
100
AcDb2dVertex
 10
702.0
 20
-274.0
 30
0.0
  0
VERTEX
  5
9B76ECE264C69F4
100
AcDbEntity
  8
PORTS
  6
CONTINUOUS
100
AcDbVertex
100
AcDb2dVertex
 10
674.0
 20
-274.0
 30
0.0
  0
VERTEX
  5
9B76ECE264C69F5
100
AcDbEntity
  8
PORTS
  6
CONTINUOUS
100
AcDbVertex
100
AcDb2dVertex
 10
674.0
 20
-270.0
 30
0.0
  0
VERTEX
  5
9B76ECE264C69F6
100
AcDbEntity
  8
PORTS
  6
CONTINUOUS
100
AcDbVertex
100
AcDb2dVertex
 10
668.0
 20
-270.0
 30
0.0
  0
VERTEX
  5
9B76ECE264C69F7
100
AcDbEntity
  8
PORTS
  6
CONTINUOUS
100
AcDbVertex
100
AcDb2dVertex
 10
668.0
 20
-274.0
 30
0.0
  0
VERTEX
  5
9B76ECE264C69F8
100
AcDbEntity
  8
PORTS
  6
CONTINUOUS
100
AcDbVertex
100
AcDb2dVertex
 10
664.0
 20
-274.0
 30
0.0
  0
VERTEX
  5
9B76ECE264C69F9
100
AcDbEntity
  8
PORTS
  6
CONTINUOUS
100
AcDbVertex
100
AcDb2dVertex
 10
664.0
 20
-270.0
 30
0.0
  0
VERTEX
  5
9B76ECE264C69FA
100
AcDbEntity
  8
PORTS
  6
CONTINUOUS
100
AcDbVertex
100
AcDb2dVertex
 10
658.0
 20
-270.0
 30
0.0
  0
VERTEX
  5
9B76ECE264C69FB
100
AcDbEntity
  8
PORTS
  6
CONTINUOUS
100
AcDbVertex
100
AcDb2dVertex
 10
658.0
 20
-274.0
 30
0.0
  0
VERTEX
  5
9B76ECE264C69FC
100
AcDbEntity
  8
PORTS
  6
CONTINUOUS
100
AcDbVertex
100
AcDb2dVertex
 10
636.0
 20
-274.0
 30
0.0
  0
VERTEX
  5
9B76ECE264C69FD
100
AcDbEntity
  8
PORTS
  6
CONTINUOUS
100
AcDbVertex
100
AcDb2dVertex
 10
630.0
 20
-274.0
 30
0.0
  0
VERTEX
  5
9B76ECE264C69FE
100
AcDbEntity
  8
PORTS
  6
CONTINUOUS
100
AcDbVertex
100
AcDb2dVertex
 10
630.0
 20
-286.0
 30
0.0
  0
SEQEND
  5
9B76ECE264C69FF
100
AcDbEntity
  8
PORTS
  6
CONTINUOUS
  0
POINT
  5
9B76ECE264C69E6
100
AcDbEntity
  8
PORTS
  6
CONTINUOUS
100
AcDbPoint
 10
710.0
 20
-280.0
 30
0.0
  0
ATTDEF
  5
9B76ECE264C6A00
100
AcDbEntity
  8
PORTS
  6
CONTINUOUS
100
AcDbText
 10
632.0
 20
-258.0
 30
0.0
 40
10.0
  1

  7
SIMPLEX
100
AcDbAttributeDefinition
  3

  2
SIDE
 70
     0
  0
ENDBLK
  5
F47394262A34609E
100
AcDbEntity
  8
PORTS
  6
CONTINUOUS
100
AcDbBlockEnd
  0
BLOCK
  5
F47394262A3460A7
100
AcDbEntity
  8
PORTS
  6
CONTINUOUS
100
AcDbBlockBegin
  2
LE_ENA
 70
     2
 10
0.0
 20
0.0
 30
0.0
  1

  0
POLYLINE
  5
9B76ECE264C69F5
100
AcDbEntity
  8
PORTS
  6
CONTINUOUS
100
AcDb2dPolyline
 66
     1
 10
0.0
 20
0.0
 30
0.0
 70
     1
  0
VERTEX
  5
9B76ECE264C69F6
100
AcDbEntity
  8
PORTS
  6
CONTINUOUS
100
AcDbVertex
100
AcDb2dVertex
 10
630.0
 20
-316.0
 30
0.0
  0
VERTEX
  5
9B76ECE264C69F7
100
AcDbEntity
  8
PORTS
  6
CONTINUOUS
100
AcDbVertex
100
AcDb2dVertex
 10
658.0
 20
-316.0
 30
0.0
  0
VERTEX
  5
9B76ECE264C69F8
100
AcDbEntity
  8
PORTS
  6
CONTINUOUS
100
AcDbVertex
100
AcDb2dVertex
 10
658.0
 20
-320.0
 30
0.0
  0
VERTEX
  5
9B76ECE264C69F9
100
AcDbEntity
  8
PORTS
  6
CONTINUOUS
100
AcDbVertex
100
AcDb2dVertex
 10
664.0
 20
-320.0
 30
0.0
  0
VERTEX
  5
9B76ECE264C69FA
100
AcDbEntity
  8
PORTS
  6
CONTINUOUS
100
AcDbVertex
100
AcDb2dVertex
 10
664.0
 20
-316.0
 30
0.0
  0
VERTEX
  5
9B76ECE264C69FB
100
AcDbEntity
  8
PORTS
  6
CONTINUOUS
100
AcDbVertex
100
AcDb2dVertex
 10
668.0
 20
-316.0
 30
0.0
  0
VERTEX
  5
9B76ECE264C69FC
100
AcDbEntity
  8
PORTS
  6
CONTINUOUS
100
AcDbVertex
100
AcDb2dVertex
 10
668.0
 20
-320.0
 30
0.0
  0
VERTEX
  5
9B76ECE264C69FD
100
AcDbEntity
  8
PORTS
  6
CONTINUOUS
100
AcDbVertex
100
AcDb2dVertex
 10
674.0
 20
-320.0
 30
0.0
  0
VERTEX
  5
9B76ECE264C69FE
100
AcDbEntity
  8
PORTS
  6
CONTINUOUS
100
AcDbVertex
100
AcDb2dVertex
 10
674.0
 20
-316.0
 30
0.0
  0
VERTEX
  5
9B76ECE264C69FF
100
AcDbEntity
  8
PORTS
  6
CONTINUOUS
100
AcDbVertex
100
AcDb2dVertex
 10
702.0
 20
-316.0
 30
0.0
  0
VERTEX
  5
9B76ECE264C6A00
100
AcDbEntity
  8
PORTS
  6
CONTINUOUS
100
AcDbVertex
100
AcDb2dVertex
 10
710.0
 20
-310.0
 30
0.0
  0
VERTEX
  5
9B76ECE264C6A01
100
AcDbEntity
  8
PORTS
  6
CONTINUOUS
100
AcDbVertex
100
AcDb2dVertex
 10
702.0
 20
-304.0
 30
0.0
  0
VERTEX
  5
9B76ECE264C6A02
100
AcDbEntity
  8
PORTS
  6
CONTINUOUS
100
AcDbVertex
100
AcDb2dVertex
 10
674.0
 20
-304.0
 30
0.0
  0
VERTEX
  5
9B76ECE264C6A03
100
AcDbEntity
  8
PORTS
  6
CONTINUOUS
100
AcDbVertex
100
AcDb2dVertex
 10
674.0
 20
-300.0
 30
0.0
  0
VERTEX
  5
9B76ECE264C6A04
100
AcDbEntity
  8
PORTS
  6
CONTINUOUS
100
AcDbVertex
100
AcDb2dVertex
 10
668.0
 20
-300.0
 30
0.0
  0
VERTEX
  5
9B76ECE264C6A05
100
AcDbEntity
  8
PORTS
  6
CONTINUOUS
100
AcDbVertex
100
AcDb2dVertex
 10
668.0
 20
-304.0
 30
0.0
  0
VERTEX
  5
9B76ECE264C6A06
100
AcDbEntity
  8
PORTS
  6
CONTINUOUS
100
AcDbVertex
100
AcDb2dVertex
 10
664.0
 20
-304.0
 30
0.0
  0
VERTEX
  5
9B76ECE264C6A07
100
AcDbEntity
  8
PORTS
  6
CONTINUOUS
100
AcDbVertex
100
AcDb2dVertex
 10
664.0
 20
-300.0
 30
0.0
  0
VERTEX
  5
9B76ECE264C6A08
100
AcDbEntity
  8
PORTS
  6
CONTINUOUS
100
AcDbVertex
100
AcDb2dVertex
 10
658.0
 20
-300.0
 30
0.0
  0
VERTEX
  5
9B76ECE264C6A09
100
AcDbEntity
  8
PORTS
  6
CONTINUOUS
100
AcDbVertex
100
AcDb2dVertex
 10
658.0
 20
-304.0
 30
0.0
  0
VERTEX
  5
9B76ECE264C6A0A
100
AcDbEntity
  8
PORTS
  6
CONTINUOUS
100
AcDbVertex
100
AcDb2dVertex
 10
636.0
 20
-304.0
 30
0.0
  0
VERTEX
  5
9B76ECE264C6A0B
100
AcDbEntity
  8
PORTS
  6
CONTINUOUS
100
AcDbVertex
100
AcDb2dVertex
 10
630.0
 20
-304.0
 30
0.0
  0
VERTEX
  5
9B76ECE264C6A0C
100
AcDbEntity
  8
PORTS
  6
CONTINUOUS
100
AcDbVertex
100
AcDb2dVertex
 10
630.0
 20
-316.0
 30
0.0
  0
SEQEND
  5
9B76ECE264C6A0D
100
AcDbEntity
  8
PORTS
  6
CONTINUOUS
  0
ATTDEF
  5
9B76ECE264C6A0E
100
AcDbEntity
  8
PORTS
  6
CONTINUOUS
100
AcDbText
 10
632.0
 20
-338.0
 30
0.0
 40
10.0
  1

  7
SIMPLEX
100
AcDbAttributeDefinition
  3

  2
SIDE
 70
     0
  0
POINT
  5
9B76ECE264C69F4
100
AcDbEntity
  8
PORTS
  6
CONTINUOUS
100
AcDbPoint
 10
710.0
 20
-310.0
 30
0.0
  0
ENDBLK
  5
F47394262A3460A8
100
AcDbEntity
  8
PORTS
  6
CONTINUOUS
100
AcDbBlockEnd
  0
BLOCK
  5
F47394262A351E39
100
AcDbEntity
  8
DETAIL_MEDIUM
  6
CONTINUOUS
100
AcDbBlockBegin
  2
LE_DATAC_TO_MUX
 70
     0
 10
0.0
 20
0.0
 30
0.0
  1

  0
LINE
  5
F47394262A351E37
100
AcDbEntity
  8
DETAIL_MEDIUM
  6
CONTINUOUS
100
AcDbLine
 10
150.910057
 20
-350.910057
 30
0.0
 11
211.642954
 21
-350.910057
 31
0.0
  0
ENDBLK
  5
F47394262A351E3A
100
AcDbEntity
  8
DETAIL_MEDIUM
  6
CONTINUOUS
100
AcDbBlockEnd
  0
BLOCK
  5
F47394262A346093
100
AcDbEntity
  8
PORTS
  6
CONTINUOUS
100
AcDbBlockBegin
  2
LE_ALOAD
 70
     2
 10
0.0
 20
0.0
 30
0.0
  1

  0
POINT
  5
9B76ECE264C6A1E
100
AcDbEntity
  8
PORTS
  6
CONTINUOUS
100
AcDbPoint
 10
830.0
 20
-80.0
 30
0.0
  0
POLYLINE
  5
9B76ECE264C6A1F
100
AcDbEntity
  8
PORTS
  6
CONTINUOUS
100
AcDb2dPolyline
 66
     1
 10
0.0
 20
0.0
 30
0.0
 70
     1
  0
VERTEX
  5
9B76ECE264C6A20
100
AcDbEntity
  8
PORTS
  6
CONTINUOUS
100
AcDbVertex
100
AcDb2dVertex
 10
824.0
 20
0.0
 30
0.0
  0
VERTEX
  5
9B76ECE264C6A21
100
AcDbEntity
  8
PORTS
  6
CONTINUOUS
100
AcDbVertex
100
AcDb2dVertex
 10
824.0
 20
-28.0
 30
0.0
  0
VERTEX
  5
9B76ECE264C6A22
100
AcDbEntity
  8
PORTS
  6
CONTINUOUS
100
AcDbVertex
100
AcDb2dVertex
 10
820.0
 20
-28.0
 30
0.0
  0
VERTEX
  5
9B76ECE264C6A23
100
AcDbEntity
  8
PORTS
  6
CONTINUOUS
100
AcDbVertex
100
AcDb2dVertex
 10
820.0
 20
-34.0
 30
0.0
  0
VERTEX
  5
9B76ECE264C6A24
100
AcDbEntity
  8
PORTS
  6
CONTINUOUS
100
AcDbVertex
100
AcDb2dVertex
 10
824.0
 20
-34.0
 30
0.0
  0
VERTEX
  5
9B76ECE264C6A25
100
AcDbEntity
  8
PORTS
  6
CONTINUOUS
100
AcDbVertex
100
AcDb2dVertex
 10
824.0
 20
-72.0
 30
0.0
  0
VERTEX
  5
9B76ECE264C6A26
100
AcDbEntity
  8
PORTS
  6
CONTINUOUS
100
AcDbVertex
100
AcDb2dVertex
 10
830.0
 20
-80.0
 30
0.0
  0
VERTEX
  5
9B76ECE264C6A27
100
AcDbEntity
  8
PORTS
  6
CONTINUOUS
100
AcDbVertex
100
AcDb2dVertex
 10
836.0
 20
-72.0
 30
0.0
  0
VERTEX
  5
9B76ECE264C6A28
100
AcDbEntity
  8
PORTS
  6
CONTINUOUS
100
AcDbVertex
100
AcDb2dVertex
 10
836.0
 20
-34.0
 30
0.0
  0
VERTEX
  5
9B76ECE264C6A29
100
AcDbEntity
  8
PORTS
  6
CONTINUOUS
100
AcDbVertex
100
AcDb2dVertex
 10
840.0
 20
-34.0
 30
0.0
  0
VERTEX
  5
9B76ECE264C6A2A
100
AcDbEntity
  8
PORTS
  6
CONTINUOUS
100
AcDbVertex
100
AcDb2dVertex
 10
840.0
 20
-28.0
 30
0.0
  0
VERTEX
  5
9B76ECE264C6A2B
100
AcDbEntity
  8
PORTS
  6
CONTINUOUS
100
AcDbVertex
100
AcDb2dVertex
 10
836.0
 20
-28.0
 30
0.0
  0
VERTEX
  5
9B76ECE264C6A2C
100
AcDbEntity
  8
PORTS
  6
CONTINUOUS
100
AcDbVertex
100
AcDb2dVertex
 10
836.0
 20
0.0
 30
0.0
  0
VERTEX
  5
9B76ECE264C6A2D
100
AcDbEntity
  8
PORTS
  6
CONTINUOUS
100
AcDbVertex
100
AcDb2dVertex
 10
824.0
 20
0.0
 30
0.0
  0
SEQEND
  5
9B76ECE264C6A2E
100
AcDbEntity
  8
PORTS
  6
CONTINUOUS
  0
ATTDEF
  5
9B76ECE264C6A1D
100
AcDbEntity
  8
PORTS
  6
CONTINUOUS
100
AcDbText
 10
816.0
 20
42.0
 30
0.0
 40
10.0
  1

  7
SIMPLEX
100
AcDbAttributeDefinition
  3

  2
SIDE
 70
     0
  0
ENDBLK
  5
F47394262A346094
100
AcDbEntity
  8
PORTS
  6
CONTINUOUS
100
AcDbBlockEnd
  0
BLOCK
  5
F47394262A346089
100
AcDbEntity
  8
PORTS
  6
CONTINUOUS
100
AcDbBlockBegin
  2
LE_ACLR
 70
     2
 10
0.0
 20
0.0
 30
0.0
  1

  0
POLYLINE
  5
9B76ECE264C6A11
100
AcDbEntity
  8
PORTS
  6
CONTINUOUS
100
AcDb2dPolyline
 66
     1
 10
0.0
 20
0.0
 30
0.0
 70
     1
  0
VERTEX
  5
9B76ECE264C6A12
100
AcDbEntity
  8
PORTS
  6
CONTINUOUS
100
AcDbVertex
100
AcDb2dVertex
 10
764.0
 20
0.0
 30
0.0
  0
VERTEX
  5
9B76ECE264C6A13
100
AcDbEntity
  8
PORTS
  6
CONTINUOUS
100
AcDbVertex
100
AcDb2dVertex
 10
764.0
 20
-28.0
 30
0.0
  0
VERTEX
  5
9B76ECE264C6A14
100
AcDbEntity
  8
PORTS
  6
CONTINUOUS
100
AcDbVertex
100
AcDb2dVertex
 10
760.0
 20
-28.0
 30
0.0
  0
VERTEX
  5
9B76ECE264C6A15
100
AcDbEntity
  8
PORTS
  6
CONTINUOUS
100
AcDbVertex
100
AcDb2dVertex
 10
760.0
 20
-34.0
 30
0.0
  0
VERTEX
  5
9B76ECE264C6A16
100
AcDbEntity
  8
PORTS
  6
CONTINUOUS
100
AcDbVertex
100
AcDb2dVertex
 10
764.0
 20
-34.0
 30
0.0
  0
VERTEX
  5
9B76ECE264C6A17
100
AcDbEntity
  8
PORTS
  6
CONTINUOUS
100
AcDbVertex
100
AcDb2dVertex
 10
764.0
 20
-38.0
 30
0.0
  0
VERTEX
  5
9B76ECE264C6A18
100
AcDbEntity
  8
PORTS
  6
CONTINUOUS
100
AcDbVertex
100
AcDb2dVertex
 10
760.0
 20
-38.0
 30
0.0
  0
VERTEX
  5
9B76ECE264C6A19
100
AcDbEntity
  8
PORTS
  6
CONTINUOUS
100
AcDbVertex
100
AcDb2dVertex
 10
760.0
 20
-44.0
 30
0.0
  0
VERTEX
  5
9B76ECE264C6A1A
100
AcDbEntity
  8
PORTS
  6
CONTINUOUS
100
AcDbVertex
100
AcDb2dVertex
 10
764.0
 20
-44.0
 30
0.0
  0
VERTEX
  5
9B76ECE264C6A1B
100
AcDbEntity
  8
PORTS
  6
CONTINUOUS
100
AcDbVertex
100
AcDb2dVertex
 10
764.0
 20
-72.0
 30
0.0
  0
VERTEX
  5
9B76ECE264C6A1C
100
AcDbEntity
  8
PORTS
  6
CONTINUOUS
100
AcDbVertex
100
AcDb2dVertex
 10
770.0
 20
-80.0
 30
0.0
  0
VERTEX
  5
9B76ECE264C6A1D
100
AcDbEntity
  8
PORTS
  6
CONTINUOUS
100
AcDbVertex
100
AcDb2dVertex
 10
776.0
 20
-72.0
 30
0.0
  0
VERTEX
  5
9B76ECE264C6A1E
100
AcDbEntity
  8
PORTS
  6
CONTINUOUS
100
AcDbVertex
100
AcDb2dVertex
 10
776.0
 20
-44.0
 30
0.0
  0
VERTEX
  5
9B76ECE264C6A1F
100
AcDbEntity
  8
PORTS
  6
CONTINUOUS
100
AcDbVertex
100
AcDb2dVertex
 10
780.0
 20
-44.0
 30
0.0
  0
VERTEX
  5
9B76ECE264C6A20
100
AcDbEntity
  8
PORTS
  6
CONTINUOUS
100
AcDbVertex
100
AcDb2dVertex
 10
780.0
 20
-38.0
 30
0.0
  0
VERTEX
  5
9B76ECE264C6A21
100
AcDbEntity
  8
PORTS
  6
CONTINUOUS
100
AcDbVertex
100
AcDb2dVertex
 10
776.0
 20
-38.0
 30
0.0
  0
VERTEX
  5
9B76ECE264C6A22
100
AcDbEntity
  8
PORTS
  6
CONTINUOUS
100
AcDbVertex
100
AcDb2dVertex
 10
776.0
 20
-34.0
 30
0.0
  0
VERTEX
  5
9B76ECE264C6A23
100
AcDbEntity
  8
PORTS
  6
CONTINUOUS
100
AcDbVertex
100
AcDb2dVertex
 10
780.0
 20
-34.0
 30
0.0
  0
VERTEX
  5
9B76ECE264C6A24
100
AcDbEntity
  8
PORTS
  6
CONTINUOUS
100
AcDbVertex
100
AcDb2dVertex
 10
780.0
 20
-28.0
 30
0.0
  0
VERTEX
  5
9B76ECE264C6A25
100
AcDbEntity
  8
PORTS
  6
CONTINUOUS
100
AcDbVertex
100
AcDb2dVertex
 10
776.0
 20
-28.0
 30
0.0
  0
VERTEX
  5
9B76ECE264C6A26
100
AcDbEntity
  8
PORTS
  6
CONTINUOUS
100
AcDbVertex
100
AcDb2dVertex
 10
776.0
 20
-6.0
 30
0.0
  0
VERTEX
  5
9B76ECE264C6A27
100
AcDbEntity
  8
PORTS
  6
CONTINUOUS
100
AcDbVertex
100
AcDb2dVertex
 10
776.0
 20
0.0
 30
0.0
  0
VERTEX
  5
9B76ECE264C6A28
100
AcDbEntity
  8
PORTS
  6
CONTINUOUS
100
AcDbVertex
100
AcDb2dVertex
 10
764.0
 20
0.0
 30
0.0
  0
SEQEND
  5
9B76ECE264C6A29
100
AcDbEntity
  8
PORTS
  6
CONTINUOUS
  0
POINT
  5
9B76ECE264C6A10
100
AcDbEntity
  8
PORTS
  6
CONTINUOUS
100
AcDbPoint
 10
770.0
 20
-80.0
 30
0.0
  0
ATTDEF
  5
9B76ECE264C6A0F
100
AcDbEntity
  8
PORTS
  6
CONTINUOUS
100
AcDbText
 10
756.0
 20
42.0
 30
0.0
 40
10.0
  1

  7
SIMPLEX
100
AcDbAttributeDefinition
  3

  2
SIDE
 70
     0
  0
ENDBLK
  5
F47394262A34608A
100
AcDbEntity
  8
PORTS
  6
CONTINUOUS
100
AcDbBlockEnd
  0
BLOCK
  5
F47394262A402069
100
AcDbEntity
  8
DETAIL_MEDIUM
  6
CONTINUOUS
100
AcDbBlockBegin
  2
LE_ATOM
 70
     0
 10
0.0
 20
0.0
 30
0.0
  1

  0
INSERT
  5
F47394262A377BB0
100
AcDbEntity
  8
DETAIL_MEDIUM
  6
CONTINUOUS
100
AcDbBlockReference
  2
LE_ADATA_REG_PORT
 10
550.910057
 20
-190.910057
 30
0.0
  0
INSERT
  5
F47394262A377BB1
100
AcDbEntity
  8
DETAIL_MEDIUM
  6
CONTINUOUS
100
AcDbBlockReference
  2
LE_LUT_SUM_OUT
 10
440.910057
 20
-230.910057
 30
0.0
  0
INSERT
  5
F47394262A377BB2
100
AcDbEntity
  8
DETAIL_MEDIUM
  6
CONTINUOUS
100
AcDbBlockReference
  2
LE_REGCASC_MUX
 10
490.910057
 20
-240.910057
 30
0.0
  0
INSERT
  5
F47394262A377BB3
100
AcDbEntity
  8
DETAIL_MEDIUM
  6
CONTINUOUS
100
AcDbBlockReference
  2
LE_DATAC_TO_LUT
 10
150.910057
 20
-350.910057
 30
0.0
  0
INSERT
  5
F47394262A377BB4
100
AcDbEntity
  8
DETAIL_MEDIUM
100
AcDbBlockReference
  2
LE_REGISTER
 10
760.910057
 20
-350.910057
 30
0.0
  0
INSERT
  5
F47394262A377BB5
100
AcDbEntity
  8
DETAIL_MEDIUM
100
AcDbBlockReference
  2
LE_DATAC_SLOAD
 10
550.910057
 20
-170.910057
 30
0.0
  0
INSERT
  5
F47394262A377BB6
100
AcDbEntity
  8
DETAIL_MEDIUM
  6
CONTINUOUS
100
AcDbBlockReference
  2
LE_ATOM_POINT2
 10
10.910057
 20
-10.910057
 30
0.0
  0
INSERT
  5
F47394262A377BB7
100
AcDbEntity
  8
DETAIL_MEDIUM
  6
CONTINUOUS
100
AcDbBlockReference
  2
LE_ATOM_POINT3
 10
10.910057
 20
-10.910057
 30
0.0
  0
INSERT
  5
F47394262A377BB8
100
AcDbEntity
  8
DETAIL_MEDIUM
  6
CONTINUOUS
100
AcDbBlockReference
  2
LE_ATOM_POINT4
 10
10.910057
 20
-10.910057
 30
0.0
  0
INSERT
  5
F47394262A377BB9
100
AcDbEntity
  8
DETAIL_MEDIUM
  6
CONTINUOUS
100
AcDbBlockReference
  2
LE_DATAC_MUX_SEL_CARRY_IN
 10
31.642954
 20
-10.910057
 30
0.0
  0
INSERT
  5
F47394262A377BBA
100
AcDbEntity
  8
DETAIL_MEDIUM
  6
CONTINUOUS
100
AcDbBlockReference
  2
LE_DATAC_MUX_SEL_DATAC
 10
31.642954
 20
-10.910057
 30
0.0
  0
INSERT
  5
F47394262A377BBB
100
AcDbEntity
  8
DETAIL_MEDIUM
  6
CONTINUOUS
100
AcDbBlockReference
  2
LE_DATAC_MUX_SEL_QFBK
 10
31.642954
 20
-10.910057
 30
0.0
  0
INSERT
  5
F47394262A377BBC
100
AcDbEntity
  8
DETAIL_MEDIUM
  6
CONTINUOUS
100
AcDbBlockReference
  2
LE_ATOM_POINT1
 10
10.910057
 20
-10.910057
 30
0.0
  0
INSERT
  5
F47394262A377BBD
100
AcDbEntity
  8
DETAIL_MEDIUM
  6
CONTINUOUS
100
AcDbBlockReference
  2
LE_ATOM_POINT5
 10
10.910057
 20
-10.910057
 30
0.0
  0
INSERT
  5
F47394262A377BBE
100
AcDbEntity
  8
DETAIL_MEDIUM
  6
CONTINUOUS
100
AcDbBlockReference
  2
LE_REGCASC_MUX_SEL_REGCASC_IN
 10
10.910057
 20
-10.910057
 30
0.0
  0
INSERT
  5
F47394262A377BBF
100
AcDbEntity
  8
DETAIL_MEDIUM
  6
CONTINUOUS
100
AcDbBlockReference
  2
LE_REGCASC_MUX_SEL_SUM_OUT
 10
10.910057
 20
-10.910057
 30
0.0
  0
INSERT
  5
F47394262A377BC0
100
AcDbEntity
  8
DETAIL_MEDIUM
  6
CONTINUOUS
100
AcDbBlockReference
  2
LE_SLOAD_MUX
 10
10.910057
 20
-10.910057
 30
0.0
  0
INSERT
  5
F47394262A377BC1
100
AcDbEntity
  8
DETAIL_MEDIUM
  6
CONTINUOUS
100
AcDbBlockReference
  2
LE_SLOAD_MUX_SEL_SLOAD
 10
10.910057
 20
-10.910057
 30
0.0
  0
INSERT
  5
F47394262A377BC2
100
AcDbEntity
  8
DETAIL_MEDIUM
  6
CONTINUOUS
100
AcDbBlockReference
  2
LE_SLOAD_MUX_SEL_REGCASC_MUX
 10
10.910057
 20
-10.910057
 30
0.0
  0
INSERT
  5
F47394262A377BC3
100
AcDbEntity
  8
DETAIL_MEDIUM
100
AcDbBlockReference
  2
LE_INVERTA_XOR_GATE_WIRE
 10
10.910057
 20
-10.910057
 30
0.0
  0
INSERT
  5
F47394262A377BC4
100
AcDbEntity
  8
DETAIL_MEDIUM
100
AcDbBlockReference
  2
LE_INVERTA_XOR_GATE
 10
10.910057
 20
-10.910057
 30
0.0
  0
INSERT
  5
F47394262A377BC5
100
AcDbEntity
  8
PORTS
  6
CONTINUOUS
100
AcDbBlockReference
 66
     1
  2
LE_DATAA
 10
10.910057
 20
-10.910057
 30
0.0
  0
ATTRIB
  5
F47394262A377BC6
100
AcDbEntity
  8
PORTS
  6
CONTINUOUS
100
AcDbText
 10
10.910057
 20
-178.910057
 30
0.0
 40
10.0
  1
LEFT
  7
SIMPLEX
100
AcDbAttribute
  2
SIDE
 70
     0
  0
SEQEND
  5
F47394262A377BC7
100
AcDbEntity
  8
PORTS
  6
CONTINUOUS
  0
INSERT
  5
F47394262A377BC8
100
AcDbEntity
  8
DETAIL_MEDIUM
  6
CONTINUOUS
100
AcDbBlockReference
  2
LE_DATAA_WIRE
 10
10.910057
 20
-10.910057
 30
0.0
  0
INSERT
  5
F47394262A377BC9
100
AcDbEntity
  8
PORTS
  6
CONTINUOUS
100
AcDbBlockReference
 66
     1
  2
LE_DATAB
 10
10.910057
 20
-10.910057
 30
0.0
  0
ATTRIB
  5
F47394262A377BCA
100
AcDbEntity
  8
PORTS
  6
CONTINUOUS
100
AcDbText
 10
12.910057
 20
-258.910057
 30
0.0
 40
10.0
  1
LEFT
  7
SIMPLEX
100
AcDbAttribute
  2
SIDE
 70
     0
  0
SEQEND
  5
F47394262A377BCB
100
AcDbEntity
  8
PORTS
  6
CONTINUOUS
  0
INSERT
  5
F47394262A377BCC
100
AcDbEntity
  8
DETAIL_MEDIUM
100
AcDbBlockReference
  2
LE_DATAB_WIRE
 10
10.910057
 20
-10.910057
 30
0.0
  0
INSERT
  5
F47394262A377BCD
100
AcDbEntity
  8
PORTS
  6
CONTINUOUS
100
AcDbBlockReference
 66
     1
  2
LE_DATAC
 10
10.910057
 20
-10.910057
 30
0.0
  0
ATTRIB
  5
F47394262A377BCE
100
AcDbEntity
  8
PORTS
  6
CONTINUOUS
100
AcDbText
 10
12.910057
 20
-338.910057
 30
0.0
 40
10.0
  1
LEFT
  7
SIMPLEX
100
AcDbAttribute
  2
SIDE
 70
     0
  0
SEQEND
  5
F47394262A377BCF
100
AcDbEntity
  8
PORTS
  6
CONTINUOUS
  0
INSERT
  5
F47394262A377BD0
100
AcDbEntity
  8
DETAIL_MEDIUM
100
AcDbBlockReference
  2
LE_DATAC_WIRE
 10
10.910057
 20
-10.910057
 30
0.0
  0
INSERT
  5
F47394262A377BD1
100
AcDbEntity
  8
PORTS
  6
CONTINUOUS
100
AcDbBlockReference
 66
     1
  2
LE_DATAD
 10
10.910057
 20
-10.910057
 30
0.0
  0
ATTRIB
  5
F47394262A377BD2
100
AcDbEntity
  8
PORTS
  6
CONTINUOUS
100
AcDbText
 10
12.910057
 20
-418.910057
 30
0.0
 40
10.0
  1
LEFT
  7
SIMPLEX
100
AcDbAttribute
  2
SIDE
 70
     0
  0
SEQEND
  5
F47394262A377BD3
100
AcDbEntity
  8
PORTS
  6
CONTINUOUS
  0
INSERT
  5
F47394262A377BD4
100
AcDbEntity
  8
DETAIL_MEDIUM
100
AcDbBlockReference
  2
LE_DATAD_WIRE
 10
10.910057
 20
-10.910655
 30
0.0
  0
INSERT
  5
F47394262A377BD5
100
AcDbEntity
  8
PORTS
  6
CONTINUOUS
100
AcDbBlockReference
 66
     1
  2
LE_CIN
 10
10.910057
 20
-10.910057
 30
0.0
  0
ATTRIB
  5
F47394262A377BD6
100
AcDbEntity
  8
PORTS
  6
CONTINUOUS
100
AcDbText
 10
116.910057
 20
31.089943
 30
0.0
 40
10.0
  1
TOP
  7
SIMPLEX
100
AcDbAttribute
  2
SIDE
 70
     0
  0
SEQEND
  5
F47394262A377BD7
100
AcDbEntity
  8
PORTS
  6
CONTINUOUS
  0
INSERT
  5
F47394262A377BD8
100
AcDbEntity
  8
PORTS
  6
CONTINUOUS
100
AcDbBlockReference
 66
     1
  2
LE_COUT
 10
10.910057
 20
-10.910057
 30
0.0
  0
ATTRIB
  5
F47394262A377BD9
100
AcDbEntity
  8
PORTS
  6
CONTINUOUS
100
AcDbText
 10
112.910057
 20
-648.910057
 30
0.0
 40
10.0
  1
BOTTOM
  7
SIMPLEX
100
AcDbAttribute
  2
SIDE
 70
     0
  0
SEQEND
  5
F47394262A377BDA
100
AcDbEntity
  8
PORTS
  6
CONTINUOUS
  0
INSERT
  5
F47394262A377BDB
100
AcDbEntity
  8
DETAIL_MEDIUM
100
AcDbBlockReference
  2
LE_COUT_WIRE
 10
10.910057
 20
-10.910057
 30
0.0
  0
INSERT
  5
F47394262A377BDC
100
AcDbEntity
  8
PORTS
  6
CONTINUOUS
100
AcDbBlockReference
 66
     1
  2
LE_INVERTA
 10
10.910057
 20
-10.910057
 30
0.0
  0
ATTRIB
  5
F47394262A377BDD
100
AcDbEntity
  8
PORTS
  6
CONTINUOUS
100
AcDbText
 10
156.910057
 20
31.089943
 30
0.0
 40
10.0
  1
TOP
  7
SIMPLEX
100
AcDbAttribute
  2
SIDE
 70
     0
  0
SEQEND
  5
F47394262A377BDE
100
AcDbEntity
  8
PORTS
  6
CONTINUOUS
  0
INSERT
  5
F47394262A377BE0
100
AcDbEntity
  8
PORTS
  6
CONTINUOUS
100
AcDbBlockReference
 66
     1
  2
LE_REGCASC_IN
 10
10.910057
 20
-10.910057
 30
0.0
  0
ATTRIB
  5
F47394262A377BE1
100
AcDbEntity
  8
PORTS
  6
CONTINUOUS
100
AcDbText
 10
476.910057
 20
31.089943
 30
0.0
 40
10.0
  1
TOP
  7
SIMPLEX
100
AcDbAttribute
  2
SIDE
 70
     0
  0
SEQEND
  5
F47394262A377BE2
100
AcDbEntity
  8
PORTS
  6
CONTINUOUS
  0
INSERT
  5
F47394262A377BE3
100
AcDbEntity
  8
DETAIL_MEDIUM
100
AcDbBlockReference
  2
LE_REGCASC_IN_WIRE
 10
10.910057
 20
-10.910057
 30
0.0
  0
INSERT
  5
F47394262A377BE4
100
AcDbEntity
  8
PORTS
  6
CONTINUOUS
100
AcDbBlockReference
 66
     1
  2
LE_SLOAD
 10
10.910057
 20
-10.910057
 30
0.0
  0
ATTRIB
  5
F47394262A377BE5
100
AcDbEntity
  8
PORTS
  6
CONTINUOUS
100
AcDbText
 10
570.910057
 20
31.089943
 30
0.0
 40
10.0
  1
TOP
  7
SIMPLEX
100
AcDbAttribute
  2
SIDE
 70
     0
  0
SEQEND
  5
F47394262A377BE6
100
AcDbEntity
  8
PORTS
  6
CONTINUOUS
  0
INSERT
  5
F47394262A377BE7
100
AcDbEntity
  8
DETAIL_MEDIUM
100
AcDbBlockReference
  2
LE_SLOAD_WIRE
 10
10.910057
 20
-10.910057
 30
0.0
  0
INSERT
  5
F47394262A377BE8
100
AcDbEntity
  8
PORTS
  6
CONTINUOUS
100
AcDbBlockReference
 66
     1
  2
LE_SCLR
 10
10.910057
 20
-10.910057
 30
0.0
  0
ATTRIB
  5
F47394262A377BE9
100
AcDbEntity
  8
PORTS
  6
CONTINUOUS
100
AcDbText
 10
606.910057
 20
31.089943
 30
0.0
 40
10.0
  1
TOP
  7
SIMPLEX
100
AcDbAttribute
  2
SIDE
 70
     0
  0
SEQEND
  5
F47394262A377BEA
100
AcDbEntity
  8
PORTS
  6
CONTINUOUS
  0
INSERT
  5
F47394262A377BEB
100
AcDbEntity
  8
PORTS
  6
CONTINUOUS
100
AcDbBlockReference
 66
     1
  2
LE_ACLR
 10
10.910057
 20
-10.910057
 30
0.0
  0
ATTRIB
  5
F47394262A377BEC
100
AcDbEntity
  8
PORTS
  6
CONTINUOUS
100
AcDbText
 10
766.910057
 20
31.089943
 30
0.0
 40
10.0
  1
TOP
  7
SIMPLEX
100
AcDbAttribute
  2
SIDE
 70
     0
  0
SEQEND
  5
F47394262A377BED
100
AcDbEntity
  8
PORTS
  6
CONTINUOUS
  0
INSERT
  5
F47394262A377BEE
100
AcDbEntity
  8
DETAIL_MEDIUM
100
AcDbBlockReference
  2
LE_ACLR_WIRE
 10
10.910057
 20
-10.910057
 30
0.0
  0
INSERT
  5
F47394262A377BEF
100
AcDbEntity
  8
PORTS
  6
CONTINUOUS
100
AcDbBlockReference
 66
     1
  2
LE_ALOAD
 10
10.910057
 20
-10.910057
 30
0.0
  0
ATTRIB
  5
F47394262A377BF0
100
AcDbEntity
  8
PORTS
  6
CONTINUOUS
100
AcDbText
 10
826.910057
 20
31.089943
 30
0.0
 40
10.0
  1
TOP
  7
SIMPLEX
100
AcDbAttribute
  2
SIDE
 70
     0
  0
SEQEND
  5
F47394262A377BF1
100
AcDbEntity
  8
PORTS
  6
CONTINUOUS
  0
INSERT
  5
F47394262A377BF2
100
AcDbEntity
  8
DETAIL_MEDIUM
100
AcDbBlockReference
  2
LE_ALOAD_WIRE
 10
10.910057
 20
-10.910057
 30
0.0
  0
INSERT
  5
F47394262A377BF3
100
AcDbEntity
  8
PORTS
  6
CONTINUOUS
100
AcDbBlockReference
 66
     1
  2
LE_CLK
 10
10.910057
 20
-10.910057
 30
0.0
  0
ATTRIB
  5
F47394262A377BF4
100
AcDbEntity
  8
PORTS
  6
CONTINUOUS
100
AcDbText
 10
642.910057
 20
-268.910057
 30
0.0
 40
10.0
  1
LEFT
  7
SIMPLEX
100
AcDbAttribute
  2
SIDE
 70
     0
  0
SEQEND
  5
F47394262A377BF5
100
AcDbEntity
  8
PORTS
  6
CONTINUOUS
  0
INSERT
  5
F47394262A377BF6
100
AcDbEntity
  8
DETAIL_MEDIUM
100
AcDbBlockReference
  2
LE_CLK_WIRE
 10
10.910057
 20
-10.910057
 30
0.0
  0
INSERT
  5
F47394262A377BF7
100
AcDbEntity
  8
PORTS
  6
CONTINUOUS
100
AcDbBlockReference
 66
     1
  2
LE_ENA
 10
10.910057
 20
-10.910057
 30
0.0
  0
ATTRIB
  5
F47394262A377BF8
100
AcDbEntity
  8
PORTS
  6
CONTINUOUS
100
AcDbText
 10
642.910057
 20
-348.910057
 30
0.0
 40
10.0
  1
LEFT
  7
SIMPLEX
100
AcDbAttribute
  2
SIDE
 70
     0
  0
SEQEND
  5
F47394262A377BF9
100
AcDbEntity
  8
PORTS
  6
CONTINUOUS
  0
INSERT
  5
F47394262A377BFA
100
AcDbEntity
  8
DETAIL_MEDIUM
100
AcDbBlockReference
  2
LE_ENA_WIRE
 10
10.910057
 20
-10.910057
 30
0.0
  0
INSERT
  5
F47394262A377BFB
100
AcDbEntity
  8
PORTS
  6
CONTINUOUS
100
AcDbBlockReference
 66
     1
  2
LE_COMBOUT
 10
10.910057
 20
-10.910057
 30
0.0
  0
ATTRIB
  5
F47394262A377BFC
100
AcDbEntity
  8
PORTS
  6
CONTINUOUS
100
AcDbText
 10
912.910057
 20
-358.910057
 30
0.0
 40
10.0
  1
RIGHT
  7
SIMPLEX
100
AcDbAttribute
  2
SIDE
 70
     0
  0
SEQEND
  5
F47394262A377BFD
100
AcDbEntity
  8
PORTS
  6
CONTINUOUS
  0
INSERT
  5
F47394262A377BFE
100
AcDbEntity
  8
DETAIL_MEDIUM
100
AcDbBlockReference
  2
LE_COMBOUT_WIRE
 10
10.910057
 20
-10.910057
 30
0.0
  0
INSERT
  5
F47394262A377BFF
100
AcDbEntity
  8
PORTS
  6
CONTINUOUS
100
AcDbBlockReference
 66
     1
  2
LE_REGCASCOUT
 10
10.910057
 20
-10.910057
 30
0.0
  0
ATTRIB
  5
F47394262A377C00
100
AcDbEntity
  8
PORTS
  6
CONTINUOUS
100
AcDbText
 10
482.910057
 20
-648.910057
 30
0.0
 40
10.0
  1
BOTTOM
  7
SIMPLEX
100
AcDbAttribute
  2
SIDE
 70
     0
  0
SEQEND
  5
F47394262A377C01
100
AcDbEntity
  8
PORTS
  6
CONTINUOUS
  0
INSERT
  5
F47394262A377C02
100
AcDbEntity
  8
DETAIL_MEDIUM
100
AcDbBlockReference
  2
LE_REGCASCOUT_WIRE
 10
10.910057
 20
-10.910057
 30
0.0
  0
INSERT
  5
F47394262A377C03
100
AcDbEntity
  8
PORTS
  6
CONTINUOUS
100
AcDbBlockReference
 66
     1
  2
LE_REGOUT
 10
10.910057
 20
-10.910057
 30
0.0
  0
ATTRIB
  5
F47394262A377C04
100
AcDbEntity
  8
PORTS
  6
CONTINUOUS
100
AcDbText
 10
912.910057
 20
-218.910057
 30
0.0
 40
10.0
  1
RIGHT
  7
SIMPLEX
100
AcDbAttribute
  2
SIDE
 70
     0
  0
SEQEND
  5
F47394262A377C05
100
AcDbEntity
  8
PORTS
  6
CONTINUOUS
  0
INSERT
  5
F47394262A377C06
100
AcDbEntity
  8
DETAIL_MEDIUM
100
AcDbBlockReference
  2
LE_REGOUT_WIRE
 10
10.910057
 20
-10.910057
 30
0.0
  0
INSERT
  5
F47394262A377C07
100
AcDbEntity
  8
DETAIL_MEDIUM
100
AcDbBlockReference
  2
LE_SCLR_NAND_GATE_WIRE
 10
10.910057
 20
-10.910057
 30
0.0
  0
INSERT
  5
F47394262A377C08
100
AcDbEntity
  8
DETAIL_MEDIUM
  6
CONTINUOUS
100
AcDbBlockReference
  2
LE_CIN_WIRE1
 10
11.299702
 20
-10.910057
 30
0.0
  0
INSERT
  5
F47394262A377C09
100
AcDbEntity
  8
DETAIL_MEDIUM
  6
CONTINUOUS
100
AcDbBlockReference
  2
LE_SCLR_WIRE
 10
0.0
 20
0.0
 30
0.0
  0
INSERT
  5
F47394262A377C0A
100
AcDbEntity
  8
DETAIL_MEDIUM
  6
CONTINUOUS
100
AcDbBlockReference
  2
LE_SCLR_NAND_GATE
 10
0.0
 20
0.0
 30
0.0
  0
INSERT
  5
F47394262A377C0B
100
AcDbEntity
  8
DETAIL_MEDIUM
  6
CONTINUOUS
100
AcDbBlockReference
  2
LE_DATAC_MUX
 10
0.0
 20
0.0
 30
0.0
  0
INSERT
  5
F47394262A377C0D
100
AcDbEntity
  8
DETAIL_MEDIUM
  6
CONTINUOUS
100
AcDbBlockReference
  2
LE_CIN_WIRE2
 10
0.0
 20
0.0
 30
0.0
  0
INSERT
  5
F47394262A377C0E
100
AcDbEntity
  8
DETAIL_MEDIUM
  6
CONTINUOUS
100
AcDbBlockReference
  2
LE_DATAC_TO_MUX
 10
0.0
 20
0.0
 30
0.0
  0
INSERT
  5
F47394262A377C0F
100
AcDbEntity
  8
DETAIL_MEDIUM
  6
CONTINUOUS
100
AcDbBlockReference
  2
LE_QFBK_PATH
 10
0.0
 20
0.0
 30
0.0
  0
INSERT
  5
F47394262A377C10
100
AcDbEntity
  8
DETAIL_MEDIUM
  6
CONTINUOUS
100
AcDbBlockReference
  2
LE_LUT
 10
0.0
 20
0.0
 30
0.0
  0
INSERT
  5
F47394262A3A9F41
100
AcDbEntity
  8
DETAIL_MEDIUM
100
AcDbBlockReference
  2
LE_INVERTA_WIRE
 10
0.0
 20
0.0
 30
0.0
  0
INSERT
  5
F47394262A3A9F45
100
AcDbEntity
  8
DETAIL_MEDIUM
100
AcDbBlockReference
  2
LE_INVERTA_WIRE_TO_XOR
 10
0.0
 20
0.0
 30
0.0
  0
INSERT
  5
F47394262A402062
100
AcDbEntity
  8
DETAIL_MEDIUM
  6
CONTINUOUS
100
AcDbBlockReference
  2
LE_INVERTA_TO_C
 10
0.0
 20
0.0
 30
0.0
  0
INSERT
  5
F47394262A402068
100
AcDbEntity
  8
DETAIL_MEDIUM
  6
CONTINUOUS
100
AcDbBlockReference
  2
LE_INVERTA_TO_C_WIRE
 10
0.0
 20
0.0
 30
0.0
  0
ENDBLK
  5
F47394262A40206A
100
AcDbEntity
  8
DETAIL_MEDIUM
  6
CONTINUOUS
100
AcDbBlockEnd
  0
BLOCK
  5
DF2FB97E34DF65A2
100
AcDbEntity
  8
DETAIL_HIGH
  6
CONTINUOUS
100
AcDbBlockBegin
  2
LE_SUM_LUT
 70
     0
 10
350.0
 20
-280.0
 30
0.0
  1

  0
POLYLINE
  5
DF2FB97E34DF5F2B
100
AcDbEntity
  8
DETAIL_HIGH
100
AcDb2dPolyline
 66
     1
 10
0.0
 20
0.0
 30
0.0
 39
2.0
 70
     1
  0
VERTEX
  5
DF2FB97E34DF5F2C
100
AcDbEntity
  8
DETAIL_HIGH
100
AcDbVertex
100
AcDb2dVertex
 10
350.0
 20
-160.0
 30
0.0
  0
VERTEX
  5
DF2FB97E34DF5F2D
100
AcDbEntity
  8
DETAIL_HIGH
100
AcDbVertex
100
AcDb2dVertex
 10
410.0
 20
-160.0
 30
0.0
  0
VERTEX
  5
DF2FB97E34DF5F2E
100
AcDbEntity
  8
DETAIL_HIGH
100
AcDbVertex
100
AcDb2dVertex
 10
410.0
 20
-280.0
 30
0.0
  0
VERTEX
  5
DF2FB97E34DF5F2F
100
AcDbEntity
  8
DETAIL_HIGH
100
AcDbVertex
100
AcDb2dVertex
 10
350.0
 20
-280.0
 30
0.0
  0
SEQEND
  5
DF2FB97E34DF5F30
100
AcDbEntity
  8
DETAIL_HIGH
  0
LINE
  5
DF2FB97E34DF5F31
100
AcDbEntity
  8
DETAIL_HIGH
100
AcDbLine
 10
410.0
 20
-220.0
 30
0.0
 11
430.0
 21
-220.0
 31
0.0
  0
TEXT
  5
DF2FB97E34DF659B
100
AcDbEntity
  8
DETAIL_HIGH
  6
CONTINUOUS
100
AcDbText
 10
356.0
 20
-186.0
 30
0.0
 40
10.0
  1
A
  7
SIMPLEX
100
AcDbText
  0
TEXT
  5
DF2FB97E34DF659E
100
AcDbEntity
  8
DETAIL_HIGH
  6
CONTINUOUS
100
AcDbText
 10
356.0
 20
-226.0
 30
0.0
 40
10.0
  1
B
  7
SIMPLEX
100
AcDbText
  0
TEXT
  5
DF2FB97E34DF65A1
100
AcDbEntity
  8
DETAIL_HIGH
  6
CONTINUOUS
100
AcDbText
 10
356.0
 20
-266.0
 30
0.0
 40
10.0
  1
C
  7
SIMPLEX
100
AcDbText
  0
ENDBLK
  5
DF2FB97E34DF65A3
100
AcDbEntity
  8
DETAIL_HIGH
  6
CONTINUOUS
100
AcDbBlockEnd
  0
BLOCK
  5
F47394262A345488
100
AcDbEntity
  8
DETAIL_HIGH
  6
CONTINUOUS
100
AcDbBlockBegin
  2
LE_CARRY_LUT
 70
     0
 10
0.0
 20
0.0
 30
0.0
  1

  0
POLYLINE
  5
9B76ECE1F8940B3
100
AcDbEntity
  8
DETAIL_HIGH
100
AcDb2dPolyline
 66
     1
 10
0.0
 20
0.0
 30
0.0
 39
2.0
 70
     1
  0
VERTEX
  5
9B76ECE1F8940B4
100
AcDbEntity
  8
DETAIL_HIGH
100
AcDbVertex
100
AcDb2dVertex
 10
350.0
 20
-320.0
 30
0.0
  0
VERTEX
  5
9B76ECE1F8940B5
100
AcDbEntity
  8
DETAIL_HIGH
100
AcDbVertex
100
AcDb2dVertex
 10
410.0
 20
-320.0
 30
0.0
  0
VERTEX
  5
9B76ECE1F8940B6
100
AcDbEntity
  8
DETAIL_HIGH
100
AcDbVertex
100
AcDb2dVertex
 10
410.0
 20
-440.0
 30
0.0
  0
VERTEX
  5
9B76ECE1F8940B7
100
AcDbEntity
  8
DETAIL_HIGH
100
AcDbVertex
100
AcDb2dVertex
 10
350.0
 20
-440.0
 30
0.0
  0
SEQEND
  5
9B76ECE1F8940B8
100
AcDbEntity
  8
DETAIL_HIGH
  0
TEXT
  5
9B76ECE1F8940BB
100
AcDbEntity
  8
DETAIL_HIGH
  6
CONTINUOUS
100
AcDbText
 10
356.0
 20
-426.0
 30
0.0
 40
10.0
  1
C
  7
SIMPLEX
100
AcDbText
  0
TEXT
  5
9B76ECE1F8940BA
100
AcDbEntity
  8
DETAIL_HIGH
  6
CONTINUOUS
100
AcDbText
 10
356.0
 20
-386.0
 30
0.0
 40
10.0
  1
B
  7
SIMPLEX
100
AcDbText
  0
TEXT
  5
9B76ECE1F8940B9
100
AcDbEntity
  8
DETAIL_HIGH
  6
CONTINUOUS
100
AcDbText
 10
356.0
 20
-346.0
 30
0.0
 40
10.0
  1
A
  7
SIMPLEX
100
AcDbText
  0
LINE
  5
9B76ECE07DE7357
100
AcDbEntity
  8
DETAIL_HIGH
100
AcDbLine
 10
410.0
 20
-380.0
 30
0.0
 11
430.0
 21
-380.0
 31
0.0
  0
ENDBLK
  5
F47394262A345489
100
AcDbEntity
  8
DETAIL_HIGH
  6
CONTINUOUS
100
AcDbBlockEnd
  0
BLOCK
  5
F47394262A345497
100
AcDbEntity
  8
DETAIL_MEDIUM
100
AcDbBlockBegin
  2
LE_INVERTA_XOR_GATE
 70
     0
 10
0.0
 20
0.0
 30
0.0
  1

  0
POLYLINE
  5
9B76ECE25E01EC6
100
AcDbEntity
  8
DETAIL_MEDIUM
100
AcDb2dPolyline
 66
     1
 10
0.0
 20
0.0
 30
0.0
 70
     1
  0
VERTEX
  5
9B76ECE25E01EC7
100
AcDbEntity
  8
DETAIL_MEDIUM
100
AcDbVertex
100
AcDb2dVertex
 10
218.0
 20
-170.0
 30
0.0
  0
VERTEX
  5
9B76ECE25E01EC8
100
AcDbEntity
  8
DETAIL_MEDIUM
100
AcDbVertex
100
AcDb2dVertex
 10
210.0
 20
-160.0
 30
0.0
  0
VERTEX
  5
9B76ECE25E01EC9
100
AcDbEntity
  8
DETAIL_MEDIUM
100
AcDbVertex
100
AcDb2dVertex
 10
198.0
 20
-152.0
 30
0.0
  0
VERTEX
  5
9B76ECE25E01ECA
100
AcDbEntity
  8
DETAIL_MEDIUM
100
AcDbVertex
100
AcDb2dVertex
 10
188.0
 20
-150.0
 30
0.0
  0
VERTEX
  5
9B76ECE25E01ECB
100
AcDbEntity
  8
DETAIL_MEDIUM
100
AcDbVertex
100
AcDb2dVertex
 10
178.0
 20
-150.0
 30
0.0
  0
VERTEX
  5
9B76ECE25E01ECC
100
AcDbEntity
  8
DETAIL_MEDIUM
100
AcDbVertex
100
AcDb2dVertex
 10
188.0
 20
-160.0
 30
0.0
  0
VERTEX
  5
9B76ECE25E01ECD
100
AcDbEntity
  8
DETAIL_MEDIUM
100
AcDbVertex
100
AcDb2dVertex
 10
190.0
 20
-170.0
 30
0.0
  0
VERTEX
  5
9B76ECE25E01ECE
100
AcDbEntity
  8
DETAIL_MEDIUM
100
AcDbVertex
100
AcDb2dVertex
 10
188.0
 20
-180.0
 30
0.0
  0
VERTEX
  5
9B76ECE25E01ECF
100
AcDbEntity
  8
DETAIL_MEDIUM
100
AcDbVertex
100
AcDb2dVertex
 10
178.0
 20
-190.0
 30
0.0
  0
VERTEX
  5
9B76ECE25E01ED0
100
AcDbEntity
  8
DETAIL_MEDIUM
100
AcDbVertex
100
AcDb2dVertex
 10
188.0
 20
-190.0
 30
0.0
  0
VERTEX
  5
9B76ECE25E01ED1
100
AcDbEntity
  8
DETAIL_MEDIUM
100
AcDbVertex
100
AcDb2dVertex
 10
198.0
 20
-188.0
 30
0.0
  0
VERTEX
  5
9B76ECE25E01ED2
100
AcDbEntity
  8
DETAIL_MEDIUM
100
AcDbVertex
100
AcDb2dVertex
 10
210.0
 20
-180.0
 30
0.0
  0
VERTEX
  5
9B76ECE25E01ED3
100
AcDbEntity
  8
DETAIL_MEDIUM
100
AcDbVertex
100
AcDb2dVertex
 10
218.0
 20
-170.0
 30
0.0
  0
SEQEND
  5
9B76ECE25E01ED4
100
AcDbEntity
  8
DETAIL_MEDIUM
  0
POLYLINE
  5
9B76ECE25E01ED6
100
AcDbEntity
  8
DETAIL_MEDIUM
100
AcDb2dPolyline
 66
     1
 10
0.0
 20
0.0
 30
0.0
  0
VERTEX
  5
9B76ECE25E01ED7
100
AcDbEntity
  8
DETAIL_MEDIUM
100
AcDbVertex
100
AcDb2dVertex
 10
174.0
 20
-150.0
 30
0.0
  0
VERTEX
  5
9B76ECE25E01ED8
100
AcDbEntity
  8
DETAIL_MEDIUM
100
AcDbVertex
100
AcDb2dVertex
 10
184.0
 20
-160.0
 30
0.0
  0
VERTEX
  5
9B76ECE25E01ED9
100
AcDbEntity
  8
DETAIL_MEDIUM
100
AcDbVertex
100
AcDb2dVertex
 10
186.0
 20
-170.0
 30
0.0
  0
VERTEX
  5
9B76ECE25E01EDA
100
AcDbEntity
  8
DETAIL_MEDIUM
100
AcDbVertex
100
AcDb2dVertex
 10
184.0
 20
-180.0
 30
0.0
  0
VERTEX
  5
9B76ECE25E01EDB
100
AcDbEntity
  8
DETAIL_MEDIUM
100
AcDbVertex
100
AcDb2dVertex
 10
174.0
 20
-190.0
 30
0.0
  0
SEQEND
  5
9B76ECE25E01EDC
100
AcDbEntity
  8
DETAIL_MEDIUM
  0
ENDBLK
  5
F47394262A345498
100
AcDbEntity
  8
DETAIL_MEDIUM
100
AcDbBlockEnd
  0
BLOCK
  5
F47394262A402060
100
AcDbEntity
  8
DETAIL_MEDIUM
  6
CONTINUOUS
100
AcDbBlockBegin
  2
LE_INVERTA_TO_C
 70
     0
 10
0.0
 20
0.0
 30
0.0
  1

  0
LINE
  5
F47394262A40205F
100
AcDbEntity
  8
DETAIL_MEDIUM
  6
CONTINUOUS
100
AcDbLine
 10
170.910057
 20
-170.910057
 30
0.0
 11
170.910057
 21
-310.910057
 31
0.0
  0
ENDBLK
  5
F47394262A402061
100
AcDbEntity
  8
DETAIL_MEDIUM
  6
CONTINUOUS
100
AcDbBlockEnd
  0
BLOCK
  5
DF2FB97E4C8A344C
100
AcDbEntity
  8
DETAIL_HIGH
  6
CONTINUOUS
100
AcDbBlockBegin
  2
LE_LUT_INSIDES_DATAC_1
 70
     0
 10
0.0
 20
0.0
 30
0.0
  1

  0
POLYLINE
  5
DF2FB97E4C8A3444
100
AcDbEntity
  8
DETAIL_HIGH
  6
CONTINUOUS
100
AcDb2dPolyline
 66
     1
 10
0.0
 20
0.0
 30
0.0
  0
VERTEX
  5
DF2FB97E4C8A3445
100
AcDbEntity
  8
DETAIL_HIGH
  6
CONTINUOUS
100
AcDbVertex
100
AcDb2dVertex
 10
350.0
 20
-420.0
 30
0.0
  0
VERTEX
  5
DF2FB97E4C8A3446
100
AcDbEntity
  8
DETAIL_HIGH
  6
CONTINUOUS
100
AcDbVertex
100
AcDb2dVertex
 10
120.0
 20
-420.0
 30
0.0
  0
VERTEX
  5
DF2FB97E4C8A3447
100
AcDbEntity
  8
DETAIL_HIGH
  6
CONTINUOUS
100
AcDbVertex
100
AcDb2dVertex
 10
120.0
 20
-300.0
 30
0.0
  0
SEQEND
  5
DF2FB97E4C8A3448
100
AcDbEntity
  8
DETAIL_HIGH
  6
CONTINUOUS
  0
ENDBLK
  5
DF2FB97E4C8A344E
100
AcDbEntity
  8
DETAIL_HIGH
  6
CONTINUOUS
100
AcDbBlockEnd
  0
BLOCK
  5
DF2FB97E4C8A3450
100
AcDbEntity
  8
DETAIL_HIGH
  6
CONTINUOUS
100
AcDbBlockBegin
  2
LE_LUT_INSIDES_DATAC_0
 70
     0
 10
0.0
 20
0.0
 30
0.0
  1

  0
LINE
  5
DF2FB97E4C8A3435
100
AcDbEntity
  8
DETAIL_HIGH
100
AcDbLine
 10
310.0
 20
-340.0
 30
0.0
 11
270.0
 21
-340.0
 31
0.0
  0
POLYLINE
  5
DF2FB97E4C8A3436
100
AcDbEntity
  8
DETAIL_HIGH
  6
CONTINUOUS
100
AcDb2dPolyline
 66
     1
 10
0.0
 20
0.0
 30
0.0
  0
VERTEX
  5
DF2FB97E4C8A3437
100
AcDbEntity
  8
DETAIL_HIGH
  6
CONTINUOUS
100
AcDbVertex
100
AcDb2dVertex
 10
310.0
 20
-340.0
 30
0.0
  0
VERTEX
  5
DF2FB97E4C8A3438
100
AcDbEntity
  8
DETAIL_HIGH
  6
CONTINUOUS
100
AcDbVertex
100
AcDb2dVertex
 10
310.0
 20
-260.0
 30
0.0
  0
VERTEX
  5
DF2FB97E4C8A3439
100
AcDbEntity
  8
DETAIL_HIGH
  6
CONTINUOUS
100
AcDbVertex
100
AcDb2dVertex
 10
350.0
 20
-260.0
 30
0.0
  0
SEQEND
  5
DF2FB97E4C8A343A
100
AcDbEntity
  8
DETAIL_HIGH
  6
CONTINUOUS
  0
ENDBLK
  5
DF2FB97E4C8A3452
100
AcDbEntity
  8
DETAIL_HIGH
  6
CONTINUOUS
100
AcDbBlockEnd
  0
BLOCK
  5
DF2FB97E4C8A3454
100
AcDbEntity
  8
DETAIL_HIGH
100
AcDbBlockBegin
  2
LE_LUT_INSIDES_DATAB_0
 70
     0
 10
0.0
 20
0.0
 30
0.0
  1

  0
LINE
  5
DF2FB97E4C8A344B
100
AcDbEntity
  8
DETAIL_HIGH
100
AcDbLine
 10
270.0
 20
-260.0
 30
0.0
 11
290.0
 21
-260.0
 31
0.0
  0
ENDBLK
  5
DF2FB97E4C8A3456
100
AcDbEntity
  8
DETAIL_HIGH
100
AcDbBlockEnd
  0
BLOCK
  5
DF2FB97E4C8A3458
100
AcDbEntity
  8
DETAIL_HIGH
100
AcDbBlockBegin
  2
LE_LUT_INSIDES_DATAB_1
 70
     0
 10
0.0
 20
0.0
 30
0.0
  1

  0
LINE
  5
DF2FB97E4C8A3449
100
AcDbEntity
  8
DETAIL_HIGH
100
AcDbLine
 10
290.0
 20
-260.0
 30
0.0
 11
290.0
 21
-220.0
 31
0.0
  0
LINE
  5
DF2FB97E4C8A3432
100
AcDbEntity
  8
DETAIL_HIGH
100
AcDbLine
 10
290.0
 20
-220.0
 30
0.0
 11
350.0
 21
-220.0
 31
0.0
  0
ENDBLK
  5
DF2FB97E4C8A345A
100
AcDbEntity
  8
DETAIL_HIGH
100
AcDbBlockEnd
  0
BLOCK
  5
DF2FB97E4C8A345C
100
AcDbEntity
  8
DETAIL_HIGH
100
AcDbBlockBegin
  2
LE_LUT_INSIDES_DATAB_2
 70
     0
 10
0.0
 20
0.0
 30
0.0
  1

  0
LINE
  5
DF2FB97E4C8A344A
100
AcDbEntity
  8
DETAIL_HIGH
100
AcDbLine
 10
290.0
 20
-260.0
 30
0.0
 11
290.0
 21
-380.0
 31
0.0
  0
LINE
  5
DF2FB97E4C8A3433
100
AcDbEntity
  8
DETAIL_HIGH
100
AcDbLine
 10
290.0
 20
-380.0
 30
0.0
 11
350.0
 21
-380.0
 31
0.0
  0
ENDBLK
  5
DF2FB97E4C8A345E
100
AcDbEntity
  8
DETAIL_HIGH
100
AcDbBlockEnd
  0
BLOCK
  5
DF2FB97E4C8A3468
100
AcDbEntity
  8
DETAIL_HIGH
  6
CONTINUOUS
100
AcDbBlockBegin
  2
LE_LUT_INSIDES_DATAA_0
 70
     0
 10
0.0
 20
0.0
 30
0.0
  1

  0
LINE
  5
DF2FB97E4C8A3463
100
AcDbEntity
  8
DETAIL_HIGH
  6
CONTINUOUS
100
AcDbLine
 10
270.0
 20
-170.0
 30
0.0
 11
330.0
 21
-170.0
 31
0.0
  0
LINE
  5
DF2FB97E4C8A3464
100
AcDbEntity
  8
DETAIL_HIGH
  6
CONTINUOUS
100
AcDbLine
 10
330.0
 20
-170.0
 30
0.0
 11
330.0
 21
-180.0
 31
0.0
  0
ENDBLK
  5
DF2FB97E4C8A346A
100
AcDbEntity
  8
DETAIL_HIGH
  6
CONTINUOUS
100
AcDbBlockEnd
  0
BLOCK
  5
DF2FB97E4C8A346C
100
AcDbEntity
  8
DETAIL_HIGH
100
AcDbBlockBegin
  2
LE_LUT_INSIDES_DATAA_1
 70
     0
 10
0.0
 20
0.0
 30
0.0
  1

  0
LINE
  5
DF2FB97E4C8A3434
100
AcDbEntity
  8
DETAIL_HIGH
100
AcDbLine
 10
350.0
 20
-180.0
 30
0.0
 11
330.0
 21
-180.0
 31
0.0
  0
ENDBLK
  5
DF2FB97E4C8A346E
100
AcDbEntity
  8
DETAIL_HIGH
100
AcDbBlockEnd
  0
BLOCK
  5
DF2FB97E4C8A3470
100
AcDbEntity
  8
DETAIL_HIGH
  6
CONTINUOUS
100
AcDbBlockBegin
  2
LE_LUT_INSIDES_DATAA_2
 70
     0
 10
0.0
 20
0.0
 30
0.0
  1

  0
LINE
  5
DF2FB97E4C8A3465
100
AcDbEntity
  8
DETAIL_HIGH
  6
CONTINUOUS
100
AcDbLine
 10
330.0
 20
-180.0
 30
0.0
 11
330.0
 21
-340.0
 31
0.0
  0
LINE
  5
DF2FB97E4C8A3466
100
AcDbEntity
  8
DETAIL_HIGH
  6
CONTINUOUS
100
AcDbLine
 10
330.0
 20
-340.0
 30
0.0
 11
350.0
 21
-340.0
 31
0.0
  0
ENDBLK
  5
DF2FB97E4C8A3472
100
AcDbEntity
  8
DETAIL_HIGH
  6
CONTINUOUS
100
AcDbBlockEnd
  0
BLOCK
  5
F47394262A3452A6
100
AcDbEntity
  8
DETAIL_MEDIUM
  6
CONTINUOUS
100
AcDbBlockBegin
  2
LE_ATOM_POINT1
 70
     0
 10
0.0
 20
0.0
 30
0.0
  1

  0
POINT
  5
F47394262A3452A4
100
AcDbEntity
  8
DETAIL_MEDIUM
  6
CONTINUOUS
100
AcDbPoint
 10
140.0
 20
-340.0
 30
0.0
  0
ENDBLK
  5
F47394262A3452A7
100
AcDbEntity
  8
DETAIL_MEDIUM
  6
CONTINUOUS
100
AcDbBlockEnd
  0
BLOCK
  5
F47394262A345072
100
AcDbEntity
  8
DETAIL_MEDIUM
  6
CONTINUOUS
100
AcDbBlockBegin
  2
LE_ATOM_POINT2
 70
     0
 10
0.0
 20
0.0
 30
0.0
  1

  0
POINT
  5
F47394262A34506B
100
AcDbEntity
  8
DETAIL_MEDIUM
  6
CONTINUOUS
100
AcDbPoint
 10
480.0
 20
-220.0
 30
0.0
  0
ENDBLK
  5
F47394262A345074
100
AcDbEntity
  8
DETAIL_MEDIUM
  6
CONTINUOUS
100
AcDbBlockEnd
  0
BLOCK
  5
F47394262A345076
100
AcDbEntity
  8
DETAIL_MEDIUM
  6
CONTINUOUS
100
AcDbBlockBegin
  2
LE_ATOM_POINT3
 70
     0
 10
0.0
 20
0.0
 30
0.0
  1

  0
POINT
  5
F47394262A34506C
100
AcDbEntity
  8
DETAIL_MEDIUM
  6
CONTINUOUS
100
AcDbPoint
 10
540.0
 20
-100.0
 30
0.0
  0
ENDBLK
  5
F47394262A345078
100
AcDbEntity
  8
DETAIL_MEDIUM
  6
CONTINUOUS
100
AcDbBlockEnd
  0
BLOCK
  5
F47394262A34507A
100
AcDbEntity
  8
DETAIL_MEDIUM
  6
CONTINUOUS
100
AcDbBlockBegin
  2
LE_ATOM_POINT4
 70
     0
 10
0.0
 20
0.0
 30
0.0
  1

  0
POINT
  5
F47394262A34506A
100
AcDbEntity
  8
DETAIL_MEDIUM
  6
CONTINUOUS
100
AcDbPoint
 10
870.0
 20
-220.0
 30
0.0
  0
ENDBLK
  5
F47394262A34507C
100
AcDbEntity
  8
DETAIL_MEDIUM
  6
CONTINUOUS
100
AcDbBlockEnd
  0
BLOCK
  5
F47394262A345119
100
AcDbEntity
  8
DETAIL_MEDIUM
  6
CONTINUOUS
100
AcDbBlockBegin
  2
LE_DATAC_MUX_SEL_CARRY_IN
 70
     0
 10
0.0
 20
0.0
 30
0.0
  1

  0
LINE
  5
F47394262A345117
100
AcDbEntity
  8
DETAIL_MEDIUM
  6
CONTINUOUS
100
AcDbLine
 10
180.0
 20
-300.0
 30
0.0
 11
210.0
 21
-340.0
 31
0.0
  0
ENDBLK
  5
F47394262A34511B
100
AcDbEntity
  8
DETAIL_MEDIUM
  6
CONTINUOUS
100
AcDbBlockEnd
  0
BLOCK
  5
F47394262A34511D
100
AcDbEntity
  8
DETAIL_MEDIUM
  6
CONTINUOUS
100
AcDbBlockBegin
  2
LE_DATAC_MUX_SEL_DATAC
 70
     0
 10
0.0
 20
0.0
 30
0.0
  1

  0
LINE
  5
F47394262A345113
100
AcDbEntity
  8
DETAIL_MEDIUM
  6
CONTINUOUS
100
AcDbLine
 10
180.0
 20
-340.0
 30
0.0
 11
210.0
 21
-340.0
 31
0.0
  0
ENDBLK
  5
F47394262A34511F
100
AcDbEntity
  8
DETAIL_MEDIUM
  6
CONTINUOUS
100
AcDbBlockEnd
  0
BLOCK
  5
F47394262A345121
100
AcDbEntity
  8
DETAIL_MEDIUM
  6
CONTINUOUS
100
AcDbBlockBegin
  2
LE_DATAC_MUX_SEL_QFBK
 70
     0
 10
0.0
 20
0.0
 30
0.0
  1

  0
LINE
  5
F47394262A345115
100
AcDbEntity
  8
DETAIL_MEDIUM
  6
CONTINUOUS
100
AcDbLine
 10
180.0
 20
-380.0
 30
0.0
 11
210.0
 21
-340.0
 31
0.0
  0
ENDBLK
  5
F47394262A345123
100
AcDbEntity
  8
DETAIL_MEDIUM
  6
CONTINUOUS
100
AcDbBlockEnd
  0
BLOCK
  5
F47394262A3452A9
100
AcDbEntity
  8
DETAIL_MEDIUM
  6
CONTINUOUS
100
AcDbBlockBegin
  2
LE_ATOM_POINT5
 70
     0
 10
0.0
 20
0.0
 30
0.0
  1

  0
POINT
  5
F47394262A3452A5
100
AcDbEntity
  8
DETAIL_MEDIUM
  6
CONTINUOUS
100
AcDbPoint
 10
120.0
 20
-300.0
 30
0.0
  0
ENDBLK
  5
F47394262A3452AB
100
AcDbEntity
  8
DETAIL_MEDIUM
  6
CONTINUOUS
100
AcDbBlockEnd
  0
BLOCK
  5
F47394262A3452B3
100
AcDbEntity
  8
DETAIL_MEDIUM
  6
CONTINUOUS
100
AcDbBlockBegin
  2
LE_REGCASC_MUX_SEL_REGCASC_IN
 70
     0
 10
0.0
 20
0.0
 30
0.0
  1

  0
LINE
  5
F47394262A3452AD
100
AcDbEntity
  8
DETAIL_MEDIUM
  6
CONTINUOUS
100
AcDbLine
 10
500.0
 20
-180.0
 30
0.0
 11
530.0
 21
-200.0
 31
0.0
  0
ENDBLK
  5
F47394262A3452B5
100
AcDbEntity
  8
DETAIL_MEDIUM
  6
CONTINUOUS
100
AcDbBlockEnd
  0
BLOCK
  5
F47394262A3452B7
100
AcDbEntity
  8
DETAIL_MEDIUM
  6
CONTINUOUS
100
AcDbBlockBegin
  2
LE_REGCASC_MUX_SEL_SUM_OUT
 70
     0
 10
0.0
 20
0.0
 30
0.0
  1

  0
LINE
  5
F47394262A3452AE
100
AcDbEntity
  8
DETAIL_MEDIUM
  6
CONTINUOUS
100
AcDbLine
 10
530.0
 20
-200.0
 30
0.0
 11
500.0
 21
-220.0
 31
0.0
  0
ENDBLK
  5
F47394262A3452B9
100
AcDbEntity
  8
DETAIL_MEDIUM
  6
CONTINUOUS
100
AcDbBlockEnd
  0
BLOCK
  5
F47394262A345425
100
AcDbEntity
  8
DETAIL_HIGH
  6
CONTINUOUS
100
AcDbBlockBegin
  2
LE_SLOAD_MUX_TEXT
 70
     0
 10
0.0
 20
0.0
 30
0.0
  1

  0
TEXT
  5
F47394262A345423
100
AcDbEntity
  8
DETAIL_HIGH
  6
CONTINUOUS
100
AcDbText
 10
567.297035
 20
-163.716577
 30
0.0
 40
10.0
  1
1
100
AcDbText
  0
TEXT
  5
F47394262A345424
100
AcDbEntity
  8
DETAIL_HIGH
  6
CONTINUOUS
100
AcDbText
 10
566.621294
 20
-205.743801
 30
0.0
 40
10.0
  1
0
100
AcDbText
  0
ENDBLK
  5
F47394262A345426
100
AcDbEntity
  8
DETAIL_HIGH
  6
CONTINUOUS
100
AcDbBlockEnd
  0
BLOCK
  5
F47394262A34542B
100
AcDbEntity
  8
DETAIL_MEDIUM
  6
CONTINUOUS
100
AcDbBlockBegin
  2
LE_SLOAD_MUX_SEL_SLOAD
 70
     0
 10
0.0
 20
0.0
 30
0.0
  1

  0
LINE
  5
F47394262A3453E5
100
AcDbEntity
  8
DETAIL_MEDIUM
  6
CONTINUOUS
100
AcDbLine
 10
560.0
 20
-160.0
 30
0.0
 11
590.0
 21
-180.0
 31
0.0
  0
ENDBLK
  5
F47394262A34542D
100
AcDbEntity
  8
DETAIL_MEDIUM
  6
CONTINUOUS
100
AcDbBlockEnd
  0
BLOCK
  5
F47394262A34542F
100
AcDbEntity
  8
DETAIL_MEDIUM
  6
CONTINUOUS
100
AcDbBlockBegin
  2
LE_SLOAD_MUX_SEL_REGCASC_MUX
 70
     0
 10
0.0
 20
0.0
 30
0.0
  1

  0
LINE
  5
F47394262A3453E6
100
AcDbEntity
  8
DETAIL_MEDIUM
  6
CONTINUOUS
100
AcDbLine
 10
590.0
 20
-180.0
 30
0.0
 11
560.0
 21
-200.0
 31
0.0
  0
ENDBLK
  5
F47394262A345431
100
AcDbEntity
  8
DETAIL_MEDIUM
  6
CONTINUOUS
100
AcDbBlockEnd
  0
BLOCK
  5
F47394262A345493
100
AcDbEntity
  8
DETAIL_MEDIUM
100
AcDbBlockBegin
  2
LE_INVERTA_XOR_GATE_WIRE
 70
     0
 10
0.0
 20
0.0
 30
0.0
  1

  0
LINE
  5
9B76ECE25E01ED5
100
AcDbEntity
  8
DETAIL_MEDIUM
100
AcDbLine
 10
217.5
 20
-170.0
 30
0.0
 11
270.0
 21
-170.0
 31
0.0
  0
ENDBLK
  5
F47394262A345495
100
AcDbEntity
  8
DETAIL_MEDIUM
100
AcDbBlockEnd
  0
BLOCK
  5
F47394262A34549F
100
AcDbEntity
  8
DETAIL_MEDIUM
  6
CONTINUOUS
100
AcDbBlockBegin
  2
LE_DATAA_WIRE
 70
     0
 10
0.0
 20
0.0
 30
0.0
  1

  0
LINE
  5
9B76ECE25E01ECB
100
AcDbEntity
  8
DETAIL_MEDIUM
  6
CONTINUOUS
100
AcDbLine
 10
80.0
 20
-180.0
 30
0.0
 11
184.0
 21
-180.0
 31
0.0
  0
ENDBLK
  5
F47394262A3454A1
100
AcDbEntity
  8
DETAIL_MEDIUM
  6
CONTINUOUS
100
AcDbBlockEnd
  0
BLOCK
  5
F47394262A3454FE
100
AcDbEntity
  8
DETAIL_MEDIUM
100
AcDbBlockBegin
  2
LE_DATAB_WIRE
 70
     0
 10
0.0
 20
0.0
 30
0.0
  1

  0
LINE
  5
9B76ECE264C52AD
100
AcDbEntity
  8
DETAIL_MEDIUM
100
AcDbLine
 10
80.0
 20
-260.0
 30
0.0
 11
270.0
 21
-260.0
 31
0.0
  0
ENDBLK
  5
F47394262A345500
100
AcDbEntity
  8
DETAIL_MEDIUM
100
AcDbBlockEnd
  0
BLOCK
  5
F47394262A345508
100
AcDbEntity
  8
DETAIL_MEDIUM
100
AcDbBlockBegin
  2
LE_DATAC_WIRE
 70
     0
 10
0.0
 20
0.0
 30
0.0
  1

  0
LINE
  5
9B76ECE264C52C0
100
AcDbEntity
  8
DETAIL_MEDIUM
100
AcDbLine
 10
80.0
 20
-340.0
 30
0.0
 11
140.0
 21
-340.0
 31
0.0
  0
ENDBLK
  5
F47394262A34550A
100
AcDbEntity
  8
DETAIL_MEDIUM
100
AcDbBlockEnd
  0
BLOCK
  5
F47394262A345512
100
AcDbEntity
  8
DETAIL_MEDIUM
100
AcDbBlockBegin
  2
LE_DATAD_WIRE
 70
     0
 10
0.0
 20
0.0
 30
0.0
  1

  0
LINE
  5
9B76ECE264C52DA
100
AcDbEntity
  8
DETAIL_MEDIUM
100
AcDbLine
 10
80.0
 20
-420.0
 30
0.0
 11
270.0
 21
-420.0
 31
0.0
  0
ENDBLK
  5
F47394262A345514
100
AcDbEntity
  8
DETAIL_MEDIUM
100
AcDbBlockEnd
  0
BLOCK
  5
F47394262A3458CB
100
AcDbEntity
  8
DETAIL_MEDIUM
100
AcDbBlockBegin
  2
LE_COUT_WIRE
 70
     0
 10
0.0
 20
0.0
 30
0.0
  1

  0
POLYLINE
  5
9B76ECE264C5A5B
100
AcDbEntity
  8
DETAIL_MEDIUM
100
AcDb2dPolyline
 66
     1
 10
0.0
 20
0.0
 30
0.0
  0
VERTEX
  5
9B76ECE264C5A5C
100
AcDbEntity
  8
DETAIL_MEDIUM
100
AcDbVertex
100
AcDb2dVertex
 10
430.0
 20
-380.0
 30
0.0
  0
VERTEX
  5
9B76ECE264C5A5D
100
AcDbEntity
  8
DETAIL_MEDIUM
100
AcDbVertex
100
AcDb2dVertex
 10
450.0
 20
-380.0
 30
0.0
  0
VERTEX
  5
9B76ECE264C5A5E
100
AcDbEntity
  8
DETAIL_MEDIUM
100
AcDbVertex
100
AcDb2dVertex
 10
450.0
 20
-500.0
 30
0.0
  0
VERTEX
  5
9B76ECE264C5A5F
100
AcDbEntity
  8
DETAIL_MEDIUM
100
AcDbVertex
100
AcDb2dVertex
 10
120.0
 20
-500.0
 30
0.0
  0
VERTEX
  5
9B76ECE264C5A60
100
AcDbEntity
  8
DETAIL_MEDIUM
100
AcDbVertex
100
AcDb2dVertex
 10
120.0
 20
-520.0
 30
0.0
  0
SEQEND
  5
9B76ECE264C5A61
100
AcDbEntity
  8
DETAIL_MEDIUM
  0
ENDBLK
  5
F47394262A3458CD
100
AcDbEntity
  8
DETAIL_MEDIUM
100
AcDbBlockEnd
  0
BLOCK
  5
F47394262A3A9F3F
100
AcDbEntity
  8
DETAIL_MEDIUM
100
AcDbBlockBegin
  2
LE_INVERTA_WIRE
 70
     0
 10
0.0
 20
0.0
 30
0.0
  1

  0
LINE
  5
F47394262A3A9F3D
100
AcDbEntity
  8
DETAIL_MEDIUM
100
AcDbLine
 10
170.910057
 20
-90.910057
 30
0.0
 11
170.910057
 21
-170.910057
 31
0.0
  0
ENDBLK
  5
F47394262A3A9F40
100
AcDbEntity
  8
DETAIL_MEDIUM
100
AcDbBlockEnd
  0
BLOCK
  5
F47394262A346062
100
AcDbEntity
  8
DETAIL_MEDIUM
100
AcDbBlockBegin
  2
LE_REGCASC_IN_WIRE
 70
     0
 10
0.0
 20
0.0
 30
0.0
  1

  0
POLYLINE
  5
F47394262A346058
100
AcDbEntity
  8
DETAIL_MEDIUM
100
AcDb2dPolyline
 66
     1
 10
0.0
 20
0.0
 30
0.0
  0
VERTEX
  5
F47394262A346059
100
AcDbEntity
  8
DETAIL_MEDIUM
100
AcDbVertex
100
AcDb2dVertex
 10
500.0
 20
-180.0
 30
0.0
  0
VERTEX
  5
F47394262A34605A
100
AcDbEntity
  8
DETAIL_MEDIUM
100
AcDbVertex
100
AcDb2dVertex
 10
480.0
 20
-180.0
 30
0.0
  0
VERTEX
  5
F47394262A34605B
100
AcDbEntity
  8
DETAIL_MEDIUM
100
AcDbVertex
100
AcDb2dVertex
 10
480.0
 20
-80.0
 30
0.0
  0
SEQEND
  5
F47394262A34605C
100
AcDbEntity
  8
DETAIL_MEDIUM
  0
ENDBLK
  5
F47394262A346064
100
AcDbEntity
  8
DETAIL_MEDIUM
100
AcDbBlockEnd
  0
BLOCK
  5
F47394262A34607A
100
AcDbEntity
  8
DETAIL_MEDIUM
100
AcDbBlockBegin
  2
LE_SLOAD_WIRE
 70
     0
 10
0.0
 20
0.0
 30
0.0
  1

  0
LINE
  5
9B76ECE264C69E8
100
AcDbEntity
  8
DETAIL_MEDIUM
100
AcDbLine
 10
574.0
 20
-154.666667
 30
0.0
 11
574.0
 21
-80.0
 31
0.0
  0
ENDBLK
  5
F47394262A34607C
100
AcDbEntity
  8
DETAIL_MEDIUM
100
AcDbBlockEnd
  0
BLOCK
  5
F47394262A348E25
100
AcDbEntity
  8
DETAIL_MEDIUM
  6
CONTINUOUS
100
AcDbBlockBegin
  2
LE_SCLR_WIRE
 70
     0
 10
0.0
 20
0.0
 30
0.0
  1

  0
LINE
  5
F47394262A348E1F
100
AcDbEntity
  8
DETAIL_MEDIUM
  6
CONTINUOUS
100
AcDbLine
 10
621.07999
 20
-90.900811
 30
0.0
 11
621.07999
 21
-170.505885
 31
0.0
  0
LINE
  5
F47394262A348E23
100
AcDbEntity
  8
DETAIL_MEDIUM
  6
CONTINUOUS
100
AcDbLine
 10
621.071495
 20
-170.68153
 30
0.0
 11
632.918774
 21
-170.68153
 31
0.0
  0
ENDBLK
  5
F47394262A348E26
100
AcDbEntity
  8
DETAIL_MEDIUM
  6
CONTINUOUS
100
AcDbBlockEnd
  0
BLOCK
  5
F47394262A34608E
100
AcDbEntity
  8
DETAIL_MEDIUM
100
AcDbBlockBegin
  2
LE_ACLR_WIRE
 70
     0
 10
0.0
 20
0.0
 30
0.0
  1

  0
LINE
  5
9B76ECE264C6A0E
100
AcDbEntity
  8
DETAIL_MEDIUM
100
AcDbLine
 10
770.0
 20
-140.0
 30
0.0
 11
770.0
 21
-80.0
 31
0.0
  0
ENDBLK
  5
F47394262A346090
100
AcDbEntity
  8
DETAIL_MEDIUM
100
AcDbBlockEnd
  0
BLOCK
  5
F47394262A346098
100
AcDbEntity
  8
DETAIL_MEDIUM
100
AcDbBlockBegin
  2
LE_ALOAD_WIRE
 70
     0
 10
0.0
 20
0.0
 30
0.0
  1

  0
LINE
  5
9B76ECE264C6A1C
100
AcDbEntity
  8
DETAIL_MEDIUM
100
AcDbLine
 10
830.0
 20
-140.0
 30
0.0
 11
830.0
 21
-80.0
 31
0.0
  0
ENDBLK
  5
F47394262A34609A
100
AcDbEntity
  8
DETAIL_MEDIUM
100
AcDbBlockEnd
  0
BLOCK
  5
F47394262A3460A2
100
AcDbEntity
  8
DETAIL_MEDIUM
100
AcDbBlockBegin
  2
LE_CLK_WIRE
 70
     0
 10
0.0
 20
0.0
 30
0.0
  1

  0
LINE
  5
9B76ECE264C69E5
100
AcDbEntity
  8
DETAIL_MEDIUM
100
AcDbLine
 10
750.0
 20
-280.0
 30
0.0
 11
710.0
 21
-280.0
 31
0.0
  0
ENDBLK
  5
F47394262A3460A4
100
AcDbEntity
  8
DETAIL_MEDIUM
100
AcDbBlockEnd
  0
BLOCK
  5
F47394262A3460AC
100
AcDbEntity
  8
DETAIL_MEDIUM
100
AcDbBlockBegin
  2
LE_ENA_WIRE
 70
     0
 10
0.0
 20
0.0
 30
0.0
  1

  0
LINE
  5
9B76ECE264C6A0F
100
AcDbEntity
  8
DETAIL_MEDIUM
100
AcDbLine
 10
750.0
 20
-310.0
 30
0.0
 11
710.0
 21
-310.0
 31
0.0
  0
ENDBLK
  5
F47394262A3460AE
100
AcDbEntity
  8
DETAIL_MEDIUM
100
AcDbBlockEnd
  0
BLOCK
  5
F47394262A346118
100
AcDbEntity
  8
DETAIL_MEDIUM
100
AcDbBlockBegin
  2
LE_COMBOUT_WIRE
 70
     0
 10
0.0
 20
0.0
 30
0.0
  1

  0
POLYLINE
  5
9B76ECE264C6B10
100
AcDbEntity
  8
DETAIL_MEDIUM
100
AcDb2dPolyline
 66
     1
 10
0.0
 20
0.0
 30
0.0
  0
VERTEX
  5
9B76ECE264C6B11
100
AcDbEntity
  8
DETAIL_MEDIUM
100
AcDbVertex
100
AcDb2dVertex
 10
480.0
 20
-220.0
 30
0.0
  0
VERTEX
  5
9B76ECE264C6B12
100
AcDbEntity
  8
DETAIL_MEDIUM
100
AcDbVertex
100
AcDb2dVertex
 10
480.0
 20
-360.0
 30
0.0
  0
VERTEX
  5
9B76ECE264C6B13
100
AcDbEntity
  8
DETAIL_MEDIUM
100
AcDbVertex
100
AcDb2dVertex
 10
890.0
 20
-360.0
 30
0.0
  0
SEQEND
  5
9B76ECE264C6B14
100
AcDbEntity
  8
DETAIL_MEDIUM
  0
ENDBLK
  5
F47394262A34611A
100
AcDbEntity
  8
DETAIL_MEDIUM
100
AcDbBlockEnd
  0
BLOCK
  5
F47394262A346122
100
AcDbEntity
  8
DETAIL_MEDIUM
100
AcDbBlockBegin
  2
LE_REGCASCOUT_WIRE
 70
     0
 10
0.0
 20
0.0
 30
0.0
  1

  0
POLYLINE
  5
9B76ECE1F896A02
100
AcDbEntity
  8
DETAIL_MEDIUM
100
AcDb2dPolyline
 66
     1
 10
0.0
 20
0.0
 30
0.0
  0
VERTEX
  5
9B76ECE1F896A03
100
AcDbEntity
  8
DETAIL_MEDIUM
100
AcDbVertex
100
AcDb2dVertex
 10
870.0
 20
-220.0
 30
0.0
  0
VERTEX
  5
9B76ECE1F896A04
100
AcDbEntity
  8
DETAIL_MEDIUM
100
AcDbVertex
100
AcDb2dVertex
 10
870.0
 20
-480.0
 30
0.0
  0
VERTEX
  5
9B76ECE1F896A05
100
AcDbEntity
  8
DETAIL_MEDIUM
100
AcDbVertex
100
AcDb2dVertex
 10
490.0
 20
-480.0
 30
0.0
  0
SEQEND
  5
9B76ECE1F896A06
100
AcDbEntity
  8
DETAIL_MEDIUM
  0
LINE
  5
9B76ECE1F8969F7
100
AcDbEntity
  8
DETAIL_MEDIUM
100
AcDbLine
 10
490.0
 20
-480.0
 30
0.0
 11
490.0
 21
-520.0
 31
0.0
  0
ENDBLK
  5
F47394262A346124
100
AcDbEntity
  8
DETAIL_MEDIUM
100
AcDbBlockEnd
  0
BLOCK
  5
F47394262A34612C
100
AcDbEntity
  8
DETAIL_MEDIUM
100
AcDbBlockBegin
  2
LE_REGOUT_WIRE
 70
     0
 10
0.0
 20
0.0
 30
0.0
  1

  0
LINE
  5
9B76ECE1F896A10
100
AcDbEntity
  8
DETAIL_MEDIUM
100
AcDbLine
 10
850.0
 20
-220.0
 30
0.0
 11
890.0
 21
-220.0
 31
0.0
  0
ENDBLK
  5
F47394262A34612E
100
AcDbEntity
  8
DETAIL_MEDIUM
100
AcDbBlockEnd
  0
BLOCK
  5
F47394262A346134
100
AcDbEntity
  8
DETAIL_MEDIUM
100
AcDbBlockBegin
  2
LE_SCLR_NAND_GATE_WIRE
 70
     0
 10
0.0
 20
0.0
 30
0.0
  1

  0
LINE
  5
9B76ECE199EA74E
100
AcDbEntity
  8
DETAIL_MEDIUM
100
AcDbLine
 10
750.0
 20
-220.0
 30
0.0
 11
690.0
 21
-220.0
 31
0.0
  0
LINE
  5
9B76ECE199EA74C
100
AcDbEntity
  8
DETAIL_MEDIUM
100
AcDbLine
 10
690.0
 20
-170.0
 30
0.0
 11
690.0
 21
-220.0
 31
0.0
  0
LINE
  5
9B76ECE199EA74B
100
AcDbEntity
  8
DETAIL_MEDIUM
100
AcDbLine
 10
660.0
 20
-170.0
 30
0.0
 11
690.0
 21
-170.0
 31
0.0
  0
ENDBLK
  5
F47394262A346136
100
AcDbEntity
  8
DETAIL_MEDIUM
100
AcDbBlockEnd
  0
BLOCK
  5
F47394262A346A89
100
AcDbEntity
  8
DETAIL_MEDIUM
  6
CONTINUOUS
100
AcDbBlockBegin
  2
LE_CIN_WIRE1
 70
     0
 10
0.0
 20
0.0
 30
0.0
  1

  0
LINE
  5
F47394262A346A87
100
AcDbEntity
  8
DETAIL_MEDIUM
  6
CONTINUOUS
100
AcDbLine
 10
119.673316
 20
-300.327788
 30
0.0
 11
119.673316
 21
-80.570007
 31
0.0
  0
ENDBLK
  5
F47394262A346A8B
100
AcDbEntity
  8
DETAIL_MEDIUM
  6
CONTINUOUS
100
AcDbBlockEnd
  0
BLOCK
  5
F47394262A351E33
100
AcDbEntity
  8
DETAIL_MEDIUM
  6
CONTINUOUS
100
AcDbBlockBegin
  2
LE_CIN_WIRE2
 70
     0
 10
0.0
 20
0.0
 30
0.0
  1

  0
LINE
  5
F47394262A351E31
100
AcDbEntity
  8
DETAIL_MEDIUM
  6
CONTINUOUS
100
AcDbLine
 10
211.642954
 20
-311.2377
 30
0.0
 11
130.973018
 21
-311.2377
 31
0.0
  0
ENDBLK
  5
F47394262A351E34
100
AcDbEntity
  8
DETAIL_MEDIUM
  6
CONTINUOUS
100
AcDbBlockEnd
  0
BLOCK
  5
F47394262A377BA0
100
AcDbEntity
  8
DETAIL_HIGH
  6
CONTINUOUS
100
AcDbBlockBegin
  2
LE_INVERTA_TO_C_1
 70
     0
 10
0.0
 20
0.0
 30
0.0
  1

  0
LINE
  5
F47394262A377B9E
100
AcDbEntity
  8
DETAIL_HIGH
  6
CONTINUOUS
100
AcDbLine
 10
170.910252
 20
-430.910057
 30
0.0
 11
360.910057
 21
-430.910057
 31
0.0
  0
LINE
  5
F47394262A377B9D
100
AcDbEntity
  8
DETAIL_HIGH
  6
CONTINUOUS
100
AcDbLine
 10
170.910252
 20
-311.2377
 30
0.0
 11
170.910252
 21
-430.910057
 31
0.0
  0
ENDBLK
  5
F47394262A377BA2
100
AcDbEntity
  8
DETAIL_HIGH
  6
CONTINUOUS
100
AcDbBlockEnd
  0
BLOCK
  5
F47394262A3A9F42
100
AcDbEntity
  8
DETAIL_MEDIUM
100
AcDbBlockBegin
  2
LE_INVERTA_WIRE_TO_XOR
 70
     0
 10
0.0
 20
0.0
 30
0.0
  1

  0
LINE
  5
F47394262A3A9F3E
100
AcDbEntity
  8
DETAIL_MEDIUM
100
AcDbLine
 10
170.910057
 20
-170.910057
 30
0.0
 11
194.910057
 21
-170.910057
 31
0.0
  0
ENDBLK
  5
F47394262A3A9F44
100
AcDbEntity
  8
DETAIL_MEDIUM
100
AcDbBlockEnd
  0
BLOCK
  5
F47394262A402065
100
AcDbEntity
  8
DETAIL_MEDIUM
  6
CONTINUOUS
100
AcDbBlockBegin
  2
LE_INVERTA_TO_C_WIRE
 70
     0
 10
0.0
 20
0.0
 30
0.0
  1

  0
LINE
  5
F47394262A402063
100
AcDbEntity
  8
DETAIL_MEDIUM
  6
CONTINUOUS
100
AcDbLine
 10
211.642954
 20
-311.2377
 30
0.0
 11
170.910057
 21
-311.2377
 31
0.0
  0
ENDBLK
  5
F47394262A402067
100
AcDbEntity
  8
DETAIL_MEDIUM
  6
CONTINUOUS
100
AcDbBlockEnd
  0
ENDSEC
  0
SECTION
  2
ENTITIES
  0
TEXT
  5
1555386
100
AcDbEntity
  8
COMMENT
100
AcDbText
 10
-13.0
 20
163.5
 30
0.0
 40
10.0
  1
Comments:
100
AcDbText
  0
TEXT
  5
DF2FB97E2E1C5501
100
AcDbEntity
  8
COMMENT
  6
CONTINUOUS
100
AcDbText
 10
-14.0
 20
144.0
 30
0.0
 40
10.0
  1
All ports are on PORTS layer. They don't have FILLCLR since it is assigned in software.
  7
SIMPLEX
100
AcDbText
  0
TEXT
  5
DF2FB97E2E1C5502
100
AcDbEntity
  8
COMMENT
  6
CONTINUOUS
100
AcDbText
 10
-14.0
 20
126.857143
 30
0.0
 40
10.0
  1
Text is drawn starting at the only point contained by the port block on PORTS layer. SIDE determines 
  7
SIMPLEX
100
AcDbText
  0
TEXT
  5
DF2FB97E2E1C5503
100
AcDbEntity
  8
COMMENT
  6
CONTINUOUS
100
AcDbText
 10
-14.0
 20
109.714286
 30
0.0
 40
10.0
  1
the direction of the text. Port association is based on the name of the block.
  7
SIMPLEX
100
AcDbText
  0
INSERT
  5
F47394262A40206B
100
AcDbEntity
  8
DETAIL_MEDIUM
  6
CONTINUOUS
100
AcDbBlockReference
  2
LE_ATOM
 10
0.0
 20
0.0
 30
0.0
  0
ENDSEC
  0
SECTION
  2
OBJECTS
  0
DICTIONARY
  5
C
100
AcDbDictionary
  3
ACAD_GROUP
350
D
  3
ACAD_MLINESTYLE
350
1B
  0
DICTIONARY
  5
D
102
{ACAD_REACTORS
330
C
102
}
100
AcDbDictionary
  0
DICTIONARY
  5
1B
102
{ACAD_REACTORS
330
C
102
}
100
AcDbDictionary
  3
STANDARD
350
1C
  0
MLINESTYLE
  5
1C
102
{ACAD_REACTORS
330
1B
102
}
100
AcDbMlineStyle
  2
STANDARD
 70
     0
  3

 62
   256
 51
90.0
 52
90.0
 71
     2
 49
0.5
 62
   256
  6
BYLAYER
 49
-0.5
 62
   256
  6
BYLAYER
  0
ENDSEC
  0
EOF
