  0
SECTION
  2
HEADER
  9
$ACADVER
  1
AC1014
  9
$ACADMAINTVER
 70
     0
  9
$DWGCODEPAGE
  3
ANSI_1252
  9
$INSBASE
 10
0.0
 20
0.0
 30
0.0
  9
$EXTMIN
 10
-104.0
 20
-320.457838
 30
0.0
  9
$EXTMAX
 10
1893.005398
 20
920.749901
 30
0.0
  9
$LIMMIN
 10
0.0
 20
0.0
  9
$LIMMAX
 10
12.0
 20
9.0
  9
$ORTHOMODE
 70
     0
  9
$REGENMODE
 70
     1
  9
$FILLMODE
 70
     1
  9
$QTEXTMODE
 70
     0
  9
$MIRRTEXT
 70
     1
  9
$DRAGMODE
 70
     2
  9
$LTSCALE
 40
1.0
  9
$OSMODE
 70
     0
  9
$ATTMODE
 70
     1
  9
$TEXTSIZE
 40
0.2
  9
$TRACEWID
 40
0.05
  9
$TEXTSTYLE
  7
SIMPLEX
  9
$CLAYER
  8
DETAIL_MEDIUM
  9
$CELTYPE
  6
CONTINUOUS
  9
$CECOLOR
 62
   256
  9
$CELTSCALE
 40
1.0
  9
$DELOBJ
 70
     1
  9
$DISPSILH
 70
     0
  9
$DIMSCALE
 40
1.0
  9
$DIMASZ
 40
0.18
  9
$DIMEXO
 40
0.0625
  9
$DIMDLI
 40
0.38
  9
$DIMRND
 40
0.0
  9
$DIMDLE
 40
0.0
  9
$DIMEXE
 40
0.18
  9
$DIMTP
 40
0.0
  9
$DIMTM
 40
0.0
  9
$DIMTXT
 40
0.18
  9
$DIMCEN
 40
0.09
  9
$DIMTSZ
 40
0.0
  9
$DIMTOL
 70
     0
  9
$DIMLIM
 70
     0
  9
$DIMTIH
 70
     1
  9
$DIMTOH
 70
     1
  9
$DIMSE1
 70
     0
  9
$DIMSE2
 70
     0
  9
$DIMTAD
 70
     0
  9
$DIMZIN
 70
     0
  9
$DIMBLK
  1

  9
$DIMASO
 70
     1
  9
$DIMSHO
 70
     1
  9
$DIMPOST
  1

  9
$DIMAPOST
  1

  9
$DIMALT
 70
     0
  9
$DIMALTD
 70
     2
  9
$DIMALTF
 40
25.4
  9
$DIMLFAC
 40
1.0
  9
$DIMTOFL
 70
     0
  9
$DIMTVP
 40
0.0
  9
$DIMTIX
 70
     0
  9
$DIMSOXD
 70
     0
  9
$DIMSAH
 70
     0
  9
$DIMBLK1
  1

  9
$DIMBLK2
  1

  9
$DIMSTYLE
  2
STANDARD
  9
$DIMCLRD
 70
     0
  9
$DIMCLRE
 70
     0
  9
$DIMCLRT
 70
     0
  9
$DIMTFAC
 40
1.0
  9
$DIMGAP
 40
0.09
  9
$DIMJUST
 70
     0
  9
$DIMSD1
 70
     0
  9
$DIMSD2
 70
     0
  9
$DIMTOLJ
 70
     1
  9
$DIMTZIN
 70
     0
  9
$DIMALTZ
 70
     0
  9
$DIMALTTZ
 70
     0
  9
$DIMFIT
 70
     3
  9
$DIMUPT
 70
     0
  9
$DIMUNIT
 70
     2
  9
$DIMDEC
 70
     4
  9
$DIMTDEC
 70
     4
  9
$DIMALTU
 70
     2
  9
$DIMALTTD
 70
     2
  9
$DIMTXSTY
  7
STANDARD
  9
$DIMAUNIT
 70
     0
  9
$LUNITS
 70
     2
  9
$LUPREC
 70
     4
  9
$SKETCHINC
 40
0.1
  9
$FILLETRAD
 40
0.5
  9
$AUNITS
 70
     0
  9
$AUPREC
 70
     0
  9
$MENU
  1
.
  9
$ELEVATION
 40
0.0
  9
$PELEVATION
 40
0.0
  9
$THICKNESS
 40
0.0
  9
$LIMCHECK
 70
     0
  9
$BLIPMODE
 70
     0
  9
$CHAMFERA
 40
0.5
  9
$CHAMFERB
 40
0.5
  9
$CHAMFERC
 40
1.0
  9
$CHAMFERD
 40
0.0
  9
$SKPOLY
 70
     0
  9
$TDCREATE
 40
2452824.5662382985
  9
$TDUPDATE
 40
2453928.605254618
  9
$TDINDWG
 40
0.231076388889
  9
$TDUSRTIMER
 40
0.231076388889
  9
$USRTIMER
 70
     1
  9
$ANGBASE
 50
0.0
  9
$ANGDIR
 70
     0
  9
$PDMODE
 70
    35
  9
$PDSIZE
 40
5.0
  9
$PLINEWID
 40
0.0
  9
$COORDS
 70
     1
  9
$SPLFRAME
 70
     0
  9
$SPLINETYPE
 70
     6
  9
$SPLINESEGS
 70
     8
  9
$ATTDIA
 70
     0
  9
$ATTREQ
 70
     1
  9
$HANDLING
 70
     1
  9
$HANDSEED
  5
DF3414A4D9F7089A
  9
$SURFTAB1
 70
     6
  9
$SURFTAB2
 70
     6
  9
$SURFTYPE
 70
     6
  9
$SURFU
 70
     6
  9
$SURFV
 70
     6
  9
$UCSNAME
  2

  9
$UCSORG
 10
0.0
 20
0.0
 30
0.0
  9
$UCSXDIR
 10
1.0
 20
0.0
 30
0.0
  9
$UCSYDIR
 10
0.0
 20
1.0
 30
0.0
  9
$PUCSNAME
  2

  9
$PUCSORG
 10
0.0
 20
0.0
 30
0.0
  9
$PUCSXDIR
 10
1.0
 20
0.0
 30
0.0
  9
$PUCSYDIR
 10
0.0
 20
1.0
 30
0.0
  9
$USERI1
 70
     0
  9
$USERI2
 70
     0
  9
$USERI3
 70
     0
  9
$USERI4
 70
     0
  9
$USERI5
 70
     0
  9
$USERR1
 40
0.0
  9
$USERR2
 40
0.0
  9
$USERR3
 40
0.0
  9
$USERR4
 40
0.0
  9
$USERR5
 40
0.0
  9
$WORLDVIEW
 70
     1
  9
$SHADEDGE
 70
     3
  9
$SHADEDIF
 70
    70
  9
$TILEMODE
 70
     1
  9
$MAXACTVP
 70
    48
  9
$PINSBASE
 10
0.0
 20
0.0
 30
0.0
  9
$PLIMCHECK
 70
     0
  9
$PEXTMIN
 10
1.000000E+020
 20
1.000000E+020
 30
1.000000E+020
  9
$PEXTMAX
 10
-1.000000E+020
 20
-1.000000E+020
 30
-1.000000E+020
  9
$PLIMMIN
 10
0.0
 20
0.0
  9
$PLIMMAX
 10
12.0
 20
9.0
  9
$UNITMODE
 70
     0
  9
$VISRETAIN
 70
     1
  9
$PLINEGEN
 70
     0
  9
$PSLTSCALE
 70
     1
  9
$TREEDEPTH
 70
  3020
  9
$PICKSTYLE
 70
     1
  9
$CMLSTYLE
  2
STANDARD
  9
$CMLJUST
 70
     0
  9
$CMLSCALE
 40
1.0
  9
$PROXYGRAPHICS
 70
     1
  9
$MEASUREMENT
 70
     0
  0
ENDSEC
  0
SECTION
  2
CLASSES
  0
CLASS
  1
LWPOLYLINE
  2
AcDbPolyline
  3
"AutoCAD"
 90
        0
280
     0
281
     1
  0
ENDSEC
  0
SECTION
  2
TABLES
  0
TABLE
  2
VPORT
  5
8
100
AcDbSymbolTable
 70
     1
  0
VPORT
  5
37
100
AcDbSymbolTableRecord
100
AcDbViewportTableRecord
  2
*ACTIVE
 70
     0
 10
0.0
 20
0.0
 11
1.0
 21
1.0
 12
744.616427
 22
-222.469702
 13
0.0
 23
0.0
 14
1.0
 24
1.0
 15
1.0
 25
1.0
 16
0.0
 26
0.0
 36
1.0
 17
0.0
 27
0.0
 37
0.0
 40
1190.888372
 41
1.418935
 42
50.0
 43
0.0
 44
0.0
 50
0.0
 51
0.0
 71
     0
 72
   100
 73
     1
 74
     1
 75
     0
 76
     0
 77
     0
 78
     0
  0
ENDTAB
  0
TABLE
  2
LTYPE
  5
5
100
AcDbSymbolTable
 70
     2
  0
LTYPE
  5
12
100
AcDbSymbolTableRecord
100
AcDbLinetypeTableRecord
  2
BYBLOCK
 70
     0
  3

 72
    65
 73
     0
 40
0.0
  0
LTYPE
  5
13
100
AcDbSymbolTableRecord
100
AcDbLinetypeTableRecord
  2
BYLAYER
 70
     0
  3

 72
    65
 73
     0
 40
0.0
  0
LTYPE
  5
14
100
AcDbSymbolTableRecord
100
AcDbLinetypeTableRecord
  2
CONTINUOUS
 70
     0
  3
Solid line
 72
    65
 73
     0
 40
0.0
  0
LTYPE
  5
2A422EFD12C
100
AcDbSymbolTableRecord
100
AcDbLinetypeTableRecord
  2
DETAIL_1
 70
     0
  3
Solid line
 72
    65
 73
     2
 40
6.0
 49
5.0
 74
     0
 49
-1.0
 74
     0
  0
ENDTAB
  0
TABLE
  2
LAYER
  5
2
100
AcDbSymbolTable
 70
     6
  0
LAYER
  5
E
100
AcDbSymbolTableRecord
100
AcDbLayerTableRecord
  2
DETAIL_HIGH
 70
     0
 62
   101
  6
CONTINUOUS
  0
LAYER
  5
541
100
AcDbSymbolTableRecord
100
AcDbLayerTableRecord
  2
COMMENT
 70
     0
 62
   254
  6
CONTINUOUS
  0
LAYER
  5
1DAE4
100
AcDbSymbolTableRecord
100
AcDbLayerTableRecord
  2
DETAIL_MEDIUM
 70
     0
 62
   182
  6
CONTINUOUS
  0
LAYER
  5
15543B5
100
AcDbSymbolTableRecord
100
AcDbLayerTableRecord
  2
DETAIL_LOWEST
 70
     0
 62
   143
  6
CONTINUOUS
  0
LAYER
  5
DF2FB97E2E1C53EE
100
AcDbSymbolTableRecord
100
AcDbLayerTableRecord
  2
PORTS
 70
     0
 62
   188
  6
CONTINUOUS
  0
LAYER
  5
DF2FCAEAB671269E
100
AcDbSymbolTableRecord
100
AcDbLayerTableRecord
  2
NON_DDR
 70
     0
 62
   240
  6
CONTINUOUS
  0
ENDTAB
  0
TABLE
  2
STYLE
  5
3
100
AcDbSymbolTable
 70
     8
  0
STYLE
  5
F
100
AcDbSymbolTableRecord
100
AcDbTextStyleTableRecord
  2
STANDARD
 70
     0
 40
0.0
 41
1.0
 50
0.0
 71
     0
 42
0.2
  3
txt.shx
  4

  0
STYLE
  5
21
100
AcDbSymbolTableRecord
100
AcDbTextStyleTableRecord
  2
COMPLEX
 70
     0
 40
0.0
 41
1.0
 50
0.0
 71
     0
 42
0.2
  3
complex
  4

  0
STYLE
  5
22
100
AcDbSymbolTableRecord
100
AcDbTextStyleTableRecord
  2
ITALIC
 70
     0
 40
0.0
 41
1.0
 50
0.0
 71
     0
 42
0.2
  3
italic
  4

  0
STYLE
  5
23
100
AcDbSymbolTableRecord
100
AcDbTextStyleTableRecord
  2
ROMANC
 70
     0
 40
0.0
 41
1.0
 50
0.0
 71
     0
 42
0.2
  3
romanc
  4

  0
STYLE
  5
24
100
AcDbSymbolTableRecord
100
AcDbTextStyleTableRecord
  2
SIMPLEX
 70
     0
 40
0.0
 41
1.0
 50
0.0
 71
     0
 42
0.2
  3
simplex
  4

  0
STYLE
  5
34
100
AcDbSymbolTableRecord
100
AcDbTextStyleTableRecord
  2

 70
     1
 40
0.0
 41
1.0
 50
0.0
 71
     0
 42
0.2
  3
ltypeshp.shx
  4

  0
STYLE
  5
38
100
AcDbSymbolTableRecord
100
AcDbTextStyleTableRecord
  2
ARIAL
 70
     0
 40
0.0
 41
1.0
 50
0.0
 71
     0
 42
0.2
  3

  4

1001
ACAD
1000
Arial
1071
       34
  0
STYLE
  5
39
100
AcDbSymbolTableRecord
100
AcDbTextStyleTableRecord
  2
TIMES_NEW_ROMAN
 70
     0
 40
0.0
 41
1.0
 50
0.0
 71
     0
 42
0.2
  3

  4

1001
ACAD
1000
Times New Roman
1071
       18
  0
ENDTAB
  0
TABLE
  2
VIEW
  5
6
100
AcDbSymbolTable
 70
     0
  0
ENDTAB
  0
TABLE
  2
UCS
  5
7
100
AcDbSymbolTable
 70
     0
  0
ENDTAB
  0
TABLE
  2
APPID
  5
9
100
AcDbSymbolTable
 70
     1
  0
APPID
  5
10
100
AcDbSymbolTableRecord
100
AcDbRegAppTableRecord
  2
ACAD
 70
     0
  0
ENDTAB
  0
TABLE
  2
DIMSTYLE
  5
A
100
AcDbSymbolTable
 70
     1
  0
DIMSTYLE
105
1D
100
AcDbSymbolTableRecord
100
AcDbDimStyleTableRecord
  2
STANDARD
 70
     0
  3

  4

  5

  6

  7

 40
1.0
 41
0.18
 42
0.0625
 43
0.38
 44
0.18
 45
0.0
 46
0.0
 47
0.0
 48
0.0
140
0.18
141
0.09
142
0.0
143
25.4
144
1.0
145
0.0
146
1.0
147
0.09
 71
     0
 72
     0
 73
     1
 74
     1
 75
     0
 76
     0
 77
     0
 78
     0
170
     0
171
     2
172
     0
173
     0
174
     0
175
     0
176
     0
177
     0
178
     0
270
     2
271
     4
272
     4
273
     2
274
     2
340
F
275
     0
280
     0
281
     0
282
     0
283
     1
284
     0
285
     0
286
     0
287
     3
288
     0
  0
ENDTAB
  0
TABLE
  2
BLOCK_RECORD
  5
1
100
AcDbSymbolTable
 70
    12
  0
BLOCK_RECORD
  5
18
100
AcDbSymbolTableRecord
100
AcDbBlockTableRecord
  2
*MODEL_SPACE
  0
BLOCK_RECORD
  5
15
100
AcDbSymbolTableRecord
100
AcDbBlockTableRecord
  2
*PAPER_SPACE
  0
BLOCK_RECORD
  5
DF3414A04332643A
100
AcDbSymbolTableRecord
100
AcDbBlockTableRecord
  2
IO_CYC_OE
  0
BLOCK_RECORD
  5
DF3414A043326444
100
AcDbSymbolTableRecord
100
AcDbBlockTableRecord
  2
IO_CYC_BUFFER
  0
BLOCK_RECORD
  5
DF3414A043326448
100
AcDbSymbolTableRecord
100
AcDbBlockTableRecord
  2
IO_CYC_PAD
  0
BLOCK_RECORD
  5
DF3414A043326456
100
AcDbSymbolTableRecord
100
AcDbBlockTableRecord
  2
IO_CYC_COMBOUT
  0
BLOCK_RECORD
  5
DF3414A04332650D
100
AcDbSymbolTableRecord
100
AcDbBlockTableRecord
  2
IO_CYC_DIN
  0
BLOCK_RECORD
  5
DF3414A0433278CA
100
AcDbSymbolTableRecord
100
AcDbBlockTableRecord
  2
IO_CYC
  0
BLOCK_RECORD
  5
DF3414A0C2C6A723
100
AcDbSymbolTableRecord
100
AcDbBlockTableRecord
  2
IO_CYC_DELAY_CHAIN
  0
BLOCK_RECORD
  5
DF3414A0EBD58B6F
100
AcDbSymbolTableRecord
100
AcDbBlockTableRecord
  2
IO_CYC_OE_WIRE
  0
BLOCK_RECORD
  5
DF3414A2CE5ED7D7
100
AcDbSymbolTableRecord
100
AcDbBlockTableRecord
  2
IO_CYC_DIN_WIRE
  0
BLOCK_RECORD
  5
DF3414A4D9F3528A
100
AcDbSymbolTableRecord
100
AcDbBlockTableRecord
  2
IO_CYC_COMBOUT_WIRE
  0
BLOCK_RECORD
  5
DF3414A4D9F7088E
100
AcDbSymbolTableRecord
100
AcDbBlockTableRecord
  2
IO_CYC_BYPASS_DELAY_CHAIN_WIRE
  0
BLOCK_RECORD
  5
DF3414A4D9F70892
100
AcDbSymbolTableRecord
100
AcDbBlockTableRecord
  2
IO_CYC_COMBOUT_PORT
  0
ENDTAB
  0
ENDSEC
  0
SECTION
  2
BLOCKS
  0
BLOCK
  5
19
100
AcDbEntity
  8
DETAIL_HIGH
100
AcDbBlockBegin
  2
*MODEL_SPACE
 70
     0
 10
0.0
 20
0.0
 30
0.0
  3
*MODEL_SPACE
  1

  0
ENDBLK
  5
1A
100
AcDbEntity
  8
DETAIL_HIGH
100
AcDbBlockEnd
  0
BLOCK
  5
16
100
AcDbEntity
 67
     1
  8
DETAIL_HIGH
100
AcDbBlockBegin
  2
*PAPER_SPACE
 70
     0
 10
0.0
 20
0.0
 30
0.0
  3
*PAPER_SPACE
  1

  0
ENDBLK
  5
17
100
AcDbEntity
 67
     1
  8
DETAIL_HIGH
100
AcDbBlockEnd
  0
BLOCK
  5
DF3414A0EBD58B69
100
AcDbEntity
  8
PORTS
  6
CONTINUOUS
100
AcDbBlockBegin
  2
IO_CYC_OE
 70
     2
 10
0.0
 20
0.0
 30
0.0
  1

  0
ATTDEF
  5
DF3414A0EBD58B67
100
AcDbEntity
  8
PORTS
  6
CONTINUOUS
100
AcDbText
 10
21.0
 20
-12.0
 30
0.0
 40
10.0
  1

  7
SIMPLEX
100
AcDbAttributeDefinition
  3

  2
SIDE
 70
     0
  0
POLYLINE
  5
DF3414A0EBD58B5E
100
AcDbEntity
  8
PORTS
  6
CONTINUOUS
100
AcDb2dPolyline
 66
     1
 10
0.0
 20
0.0
 30
0.0
 70
     1
  0
VERTEX
  5
DF3414A0EBD58B5F
100
AcDbEntity
  8
PORTS
  6
CONTINUOUS
100
AcDbVertex
100
AcDb2dVertex
 10
99.0
 20
-24.0
 30
0.0
  0
VERTEX
  5
DF3414A0EBD58B60
100
AcDbEntity
  8
PORTS
  6
CONTINUOUS
100
AcDbVertex
100
AcDb2dVertex
 10
91.0
 20
-30.0
 30
0.0
  0
VERTEX
  5
DF3414A0EBD58B61
100
AcDbEntity
  8
PORTS
  6
CONTINUOUS
100
AcDbVertex
100
AcDb2dVertex
 10
19.0
 20
-30.0
 30
0.0
  0
VERTEX
  5
DF3414A0EBD58B62
100
AcDbEntity
  8
PORTS
  6
CONTINUOUS
100
AcDbVertex
100
AcDb2dVertex
 10
19.0
 20
-18.0
 30
0.0
  0
VERTEX
  5
DF3414A0EBD58B63
100
AcDbEntity
  8
PORTS
  6
CONTINUOUS
100
AcDbVertex
100
AcDb2dVertex
 10
91.0
 20
-18.0
 30
0.0
  0
VERTEX
  5
DF3414A0EBD58B64
100
AcDbEntity
  8
PORTS
  6
CONTINUOUS
100
AcDbVertex
100
AcDb2dVertex
 10
99.0
 20
-24.0
 30
0.0
  0
SEQEND
  5
DF3414A0EBD58B65
100
AcDbEntity
  8
PORTS
  6
CONTINUOUS
  0
POINT
  5
DF3414A0EBD58B66
100
AcDbEntity
  8
PORTS
  6
CONTINUOUS
100
AcDbPoint
 10
99.0
 20
-24.0
 30
0.0
  0
ENDBLK
  5
DF3414A0EBD58B6A
100
AcDbEntity
  8
PORTS
  6
CONTINUOUS
100
AcDbBlockEnd
  0
BLOCK
  5
DF3414A2CE5ED7D1
100
AcDbEntity
  8
DETAIL_MEDIUM
  6
CONTINUOUS
100
AcDbBlockBegin
  2
IO_CYC_BUFFER
 70
     0
 10
0.0
 20
0.0
 30
0.0
  1

  0
POLYLINE
  5
DF3414A2CE5ED7C9
100
AcDbEntity
  8
DETAIL_MEDIUM
  6
CONTINUOUS
100
AcDb2dPolyline
 66
     1
 10
0.0
 20
0.0
 30
0.0
 70
     1
  0
VERTEX
  5
DF3414A2CE5ED7CA
100
AcDbEntity
  8
DETAIL_MEDIUM
  6
CONTINUOUS
100
AcDbVertex
100
AcDb2dVertex
 10
377.0
 20
-282.0
 30
0.0
  0
VERTEX
  5
DF3414A2CE5ED7CB
100
AcDbEntity
  8
DETAIL_MEDIUM
  6
CONTINUOUS
100
AcDbVertex
100
AcDb2dVertex
 10
377.0
 20
-242.0
 30
0.0
  0
VERTEX
  5
DF3414A2CE5ED7CC
100
AcDbEntity
  8
DETAIL_MEDIUM
  6
CONTINUOUS
100
AcDbVertex
100
AcDb2dVertex
 10
417.0
 20
-262.0
 30
0.0
  0
VERTEX
  5
DF3414A2CE5ED7CD
100
AcDbEntity
  8
DETAIL_MEDIUM
  6
CONTINUOUS
100
AcDbVertex
100
AcDb2dVertex
 10
377.0
 20
-282.0
 30
0.0
  0
SEQEND
  5
DF3414A2CE5ED7CE
100
AcDbEntity
  8
DETAIL_MEDIUM
  6
CONTINUOUS
  0
CIRCLE
  5
DF3414A0EBD58B5C
100
AcDbEntity
  8
DETAIL_MEDIUM
  6
CONTINUOUS
100
AcDbCircle
 10
397.0
 20
-246.0
 30
0.0
 40
5.385165
  0
LINE
  5
DF3414A2CE5ED7CF
100
AcDbEntity
  8
DETAIL_MEDIUM
  6
CONTINUOUS
100
AcDbLine
 10
417.0
 20
-262.0
 30
0.0
 11
447.0
 21
-262.0
 31
0.0
  0
ENDBLK
  5
DF3414A2CE5ED7D2
100
AcDbEntity
  8
DETAIL_MEDIUM
  6
CONTINUOUS
100
AcDbBlockEnd
  0
BLOCK
  5
DF3414A05A903D02
100
AcDbEntity
  8
DETAIL_MEDIUM
  6
CONTINUOUS
100
AcDbBlockBegin
  2
IO_CYC_PAD
 70
     0
 10
0.0
 20
0.0
 30
0.0
  1

  0
POLYLINE
  5
DF3414A05A903CF5
100
AcDbEntity
  8
DETAIL_MEDIUM
  6
CONTINUOUS
100
AcDb2dPolyline
 66
     1
 10
0.0
 20
0.0
 30
0.0
 70
     1
  0
VERTEX
  5
DF3414A05A903CF6
100
AcDbEntity
  8
DETAIL_MEDIUM
  6
CONTINUOUS
100
AcDbVertex
100
AcDb2dVertex
 10
447.0
 20
-247.0
 30
0.0
  0
VERTEX
  5
DF3414A05A903CF7
100
AcDbEntity
  8
DETAIL_MEDIUM
  6
CONTINUOUS
100
AcDbVertex
100
AcDb2dVertex
 10
507.0
 20
-247.0
 30
0.0
  0
VERTEX
  5
DF3414A05A903CF8
100
AcDbEntity
  8
DETAIL_MEDIUM
  6
CONTINUOUS
100
AcDbVertex
100
AcDb2dVertex
 10
507.0
 20
-307.0
 30
0.0
  0
VERTEX
  5
DF3414A05A903CF9
100
AcDbEntity
  8
DETAIL_MEDIUM
  6
CONTINUOUS
100
AcDbVertex
100
AcDb2dVertex
 10
447.0
 20
-307.0
 30
0.0
  0
SEQEND
  5
DF3414A05A903CFA
100
AcDbEntity
  8
DETAIL_MEDIUM
  6
CONTINUOUS
  0
POLYLINE
  5
DF3414A05A903CFB
100
AcDbEntity
  8
DETAIL_MEDIUM
  6
CONTINUOUS
100
AcDb2dPolyline
 66
     1
 10
0.0
 20
0.0
 30
0.0
  0
VERTEX
  5
DF3414A05A903CFC
100
AcDbEntity
  8
DETAIL_MEDIUM
  6
CONTINUOUS
100
AcDbVertex
100
AcDb2dVertex
 10
447.0
 20
-277.0
 30
0.0
  0
VERTEX
  5
DF3414A05A903CFD
100
AcDbEntity
  8
DETAIL_MEDIUM
  6
CONTINUOUS
100
AcDbVertex
100
AcDb2dVertex
 10
477.0
 20
-247.0
 30
0.0
  0
VERTEX
  5
DF3414A05A903CFE
100
AcDbEntity
  8
DETAIL_MEDIUM
  6
CONTINUOUS
100
AcDbVertex
100
AcDb2dVertex
 10
507.0
 20
-277.0
 30
0.0
  0
VERTEX
  5
DF3414A05A903CFF
100
AcDbEntity
  8
DETAIL_MEDIUM
  6
CONTINUOUS
100
AcDbVertex
100
AcDb2dVertex
 10
477.0
 20
-307.0
 30
0.0
  0
VERTEX
  5
DF3414A05A903D00
100
AcDbEntity
  8
DETAIL_MEDIUM
  6
CONTINUOUS
100
AcDbVertex
100
AcDb2dVertex
 10
447.0
 20
-277.0
 30
0.0
  0
SEQEND
  5
DF3414A05A903D01
100
AcDbEntity
  8
DETAIL_MEDIUM
  6
CONTINUOUS
  0
ENDBLK
  5
DF3414A05A903D03
100
AcDbEntity
  8
DETAIL_MEDIUM
  6
CONTINUOUS
100
AcDbBlockEnd
  0
BLOCK
  5
DF3414A4D9F35284
100
AcDbEntity
  8
PORTS
  6
CONTINUOUS
100
AcDbBlockBegin
  2
IO_CYC_COMBOUT
 70
     2
 10
0.0
 20
0.0
 30
0.0
  1

  0
ATTDEF
  5
DF3414A4D9F35282
100
AcDbEntity
  8
PORTS
  6
CONTINUOUS
100
AcDbText
 10
907.422612
 20
-249.76292
 30
0.0
 40
10.0
  1

 50
0.000019
  7
SIMPLEX
100
AcDbAttributeDefinition
  3

  2
SIDE
 70
     0
  0
POLYLINE
  5
DF3414A4D9F3527A
100
AcDbEntity
  8
PORTS
  6
CONTINUOUS
100
AcDb2dPolyline
 66
     1
 10
0.0
 20
0.0
 30
0.0
 70
     1
  0
VERTEX
  5
DF3414A4D9F3527B
100
AcDbEntity
  8
PORTS
  6
CONTINUOUS
100
AcDbVertex
100
AcDb2dVertex
 10
985.422612
 20
-261.76292
 30
0.0
  0
VERTEX
  5
DF3414A4D9F3527C
100
AcDbEntity
  8
PORTS
  6
CONTINUOUS
100
AcDbVertex
100
AcDb2dVertex
 10
977.422612
 20
-267.76292
 30
0.0
  0
VERTEX
  5
DF3414A4D9F3527D
100
AcDbEntity
  8
PORTS
  6
CONTINUOUS
100
AcDbVertex
100
AcDb2dVertex
 10
905.422612
 20
-267.76292
 30
0.0
  0
VERTEX
  5
DF3414A4D9F3527E
100
AcDbEntity
  8
PORTS
  6
CONTINUOUS
100
AcDbVertex
100
AcDb2dVertex
 10
905.422612
 20
-255.76292
 30
0.0
  0
VERTEX
  5
DF3414A4D9F3527F
100
AcDbEntity
  8
PORTS
  6
CONTINUOUS
100
AcDbVertex
100
AcDb2dVertex
 10
977.422612
 20
-255.76292
 30
0.0
  0
VERTEX
  5
DF3414A4D9F35280
100
AcDbEntity
  8
PORTS
  6
CONTINUOUS
100
AcDbVertex
100
AcDb2dVertex
 10
985.422612
 20
-261.76292
 30
0.0
  0
SEQEND
  5
DF3414A4D9F35281
100
AcDbEntity
  8
PORTS
  6
CONTINUOUS
  0
POINT
  5
DF3414A4D9F35283
100
AcDbEntity
  8
PORTS
  6
CONTINUOUS
100
AcDbPoint
 10
905.116796
 20
-262.080973
 30
0.0
  0
ENDBLK
  5
DF3414A4D9F35285
100
AcDbEntity
  8
PORTS
  6
CONTINUOUS
100
AcDbBlockEnd
  0
BLOCK
  5
DF3414A18EA0142D
100
AcDbEntity
  8
PORTS
  6
CONTINUOUS
100
AcDbBlockBegin
  2
IO_CYC_DIN
 70
     2
 10
0.0
 20
0.0
 30
0.0
  1

  0
ATTDEF
  5
DF3414A18EA0142A
100
AcDbEntity
  8
PORTS
  6
CONTINUOUS
100
AcDbText
 10
21.0
 20
-250.0
 30
0.0
 40
10.0
  1

  7
SIMPLEX
100
AcDbAttributeDefinition
  3

  2
SIDE
 70
     0
  0
POLYLINE
  5
DF3414A18EA01421
100
AcDbEntity
  8
PORTS
  6
CONTINUOUS
100
AcDb2dPolyline
 66
     1
 10
0.0
 20
0.0
 30
0.0
 70
     1
  0
VERTEX
  5
DF3414A18EA01422
100
AcDbEntity
  8
PORTS
  6
CONTINUOUS
100
AcDbVertex
100
AcDb2dVertex
 10
99.0
 20
-262.0
 30
0.0
  0
VERTEX
  5
DF3414A18EA01423
100
AcDbEntity
  8
PORTS
  6
CONTINUOUS
100
AcDbVertex
100
AcDb2dVertex
 10
91.0
 20
-268.0
 30
0.0
  0
VERTEX
  5
DF3414A18EA01424
100
AcDbEntity
  8
PORTS
  6
CONTINUOUS
100
AcDbVertex
100
AcDb2dVertex
 10
19.0
 20
-268.0
 30
0.0
  0
VERTEX
  5
DF3414A18EA01425
100
AcDbEntity
  8
PORTS
  6
CONTINUOUS
100
AcDbVertex
100
AcDb2dVertex
 10
19.0
 20
-256.0
 30
0.0
  0
VERTEX
  5
DF3414A18EA01426
100
AcDbEntity
  8
PORTS
  6
CONTINUOUS
100
AcDbVertex
100
AcDb2dVertex
 10
91.0
 20
-256.0
 30
0.0
  0
VERTEX
  5
DF3414A18EA01427
100
AcDbEntity
  8
PORTS
  6
CONTINUOUS
100
AcDbVertex
100
AcDb2dVertex
 10
99.0
 20
-262.0
 30
0.0
  0
SEQEND
  5
DF3414A18EA01428
100
AcDbEntity
  8
PORTS
  6
CONTINUOUS
  0
POINT
  5
DF3414A18EA01429
100
AcDbEntity
  8
PORTS
  6
CONTINUOUS
100
AcDbPoint
 10
99.0
 20
-262.0
 30
0.0
  0
ENDBLK
  5
DF3414A18EA0142E
100
AcDbEntity
  8
PORTS
  6
CONTINUOUS
100
AcDbBlockEnd
  0
BLOCK
  5
DF3414A4D9F70897
100
AcDbEntity
  8
DETAIL_MEDIUM
  6
CONTINUOUS
100
AcDbBlockBegin
  2
IO_CYC
 70
     0
 10
0.0
 20
0.0
 30
0.0
  1

  0
INSERT
  5
DF3414A4D9F35293
100
AcDbEntity
  8
DETAIL_MEDIUM
  6
CONTINUOUS
100
AcDbBlockReference
  2
IO_CYC_PAD
 10
0.0
 20
15.0
 30
0.0
  0
INSERT
  5
DF3414A4D9F35294
100
AcDbEntity
  8
DETAIL_MEDIUM
  6
CONTINUOUS
100
AcDbBlockReference
 66
     1
  2
IO_CYC_DELAY_CHAIN
 10
667.706059
 20
-291.970421
 30
0.0
  0
ATTRIB
  5
DF3414A4D9F35295
100
AcDbEntity
  8
DETAIL_MEDIUM
  6
CONTINUOUS
100
AcDbText
 10
737.706059
 20
-281.970421
 30
0.0
 40
10.0
  1
2
  7
SIMPLEX
100
AcDbAttribute
  2
index
 70
     0
  0
ATTRIB
  5
DF3414A4D9F35296
100
AcDbEntity
  8
DETAIL_MEDIUM
  6
CONTINUOUS
100
AcDbText
 10
677.706059
 20
-291.970421
 30
0.0
 40
10.0
  1
Input Pin to Logic Array Delay
  7
SIMPLEX
100
AcDbAttribute
  2
name
 70
     0
  0
SEQEND
  5
DF3414A4D9F35297
100
AcDbEntity
  8
DETAIL_MEDIUM
  6
CONTINUOUS
  0
INSERT
  5
DF3414A4D9F35298
100
AcDbEntity
  8
PORTS
  6
CONTINUOUS
100
AcDbBlockReference
 66
     1
  2
IO_CYC_OE
 10
0.0
 20
0.0
 30
0.0
  0
ATTRIB
  5
DF3414A4D9F35299
100
AcDbEntity
  8
PORTS
  6
CONTINUOUS
100
AcDbText
 10
21.0
 20
-12.0
 30
0.0
 40
10.0
  1
LEFT
  7
SIMPLEX
100
AcDbAttribute
  2
SIDE
 70
     0
  0
SEQEND
  5
DF3414A4D9F3529A
100
AcDbEntity
  8
PORTS
  6
CONTINUOUS
  0
INSERT
  5
DF3414A4D9F3529B
100
AcDbEntity
  8
DETAIL_MEDIUM
  6
CONTINUOUS
100
AcDbBlockReference
  2
IO_CYC_OE_WIRE
 10
0.0
 20
0.0
 30
0.0
  0
INSERT
  5
DF3414A4D9F3529C
100
AcDbEntity
  8
PORTS
  6
CONTINUOUS
100
AcDbBlockReference
 66
     1
  2
IO_CYC_DIN
 10
0.0
 20
0.0
 30
0.0
  0
ATTRIB
  5
DF3414A4D9F3529D
100
AcDbEntity
  8
PORTS
  6
CONTINUOUS
100
AcDbText
 10
21.0
 20
-250.0
 30
0.0
 40
10.0
  1
LEFT
  7
SIMPLEX
100
AcDbAttribute
  2
SIDE
 70
     0
  0
SEQEND
  5
DF3414A4D9F3529E
100
AcDbEntity
  8
PORTS
  6
CONTINUOUS
  0
INSERT
  5
DF3414A4D9F3529F
100
AcDbEntity
  8
DETAIL_MEDIUM
  6
CONTINUOUS
100
AcDbBlockReference
  2
IO_CYC_BUFFER
 10
0.0
 20
0.0
 30
0.0
  0
INSERT
  5
DF3414A4D9F352A0
100
AcDbEntity
  8
DETAIL_MEDIUM
  6
CONTINUOUS
100
AcDbBlockReference
  2
IO_CYC_DIN_WIRE
 10
0.0
 20
0.0
 30
0.0
  0
INSERT
  5
DF3414A4D9F352A1
100
AcDbEntity
  8
PORTS
  6
CONTINUOUS
100
AcDbBlockReference
 66
     1
  2
IO_CYC_COMBOUT
 10
2.621271
 20
0.528501
 30
0.0
  0
ATTRIB
  5
DF3414A4D9F352A2
100
AcDbEntity
  8
PORTS
  6
CONTINUOUS
100
AcDbText
 10
910.043883
 20
-249.234419
 30
0.0
 40
10.0
  1
RIGHT
 50
0.000019
  7
SIMPLEX
100
AcDbAttribute
  2
SIDE
 70
     0
  0
SEQEND
  5
DF3414A4D9F352A3
100
AcDbEntity
  8
PORTS
  6
CONTINUOUS
  0
INSERT
  5
DF3414A4D9F352A4
100
AcDbEntity
  8
DETAIL_MEDIUM
  6
CONTINUOUS
100
AcDbBlockReference
  2
IO_CYC_COMBOUT_WIRE
 10
2.621271
 20
0.250795
 30
0.0
  0
INSERT
  5
DF3414A4D9F70890
100
AcDbEntity
  8
DETAIL_MEDIUM
  6
CONTINUOUS
100
AcDbBlockReference
  2
IO_CYC_BYPASS_DELAY_CHAIN_WIRE
 10
0.0
 20
0.0
 30
0.0
  0
INSERT
  5
DF3414A4D9F70894
100
AcDbEntity
  8
PORTS
  6
CONTINUOUS
100
AcDbBlockReference
 66
     1
  2
IO_CYC_COMBOUT_PORT
 10
0.0
 20
0.0
 30
0.0
  0
ATTRIB
  5
DF3414A4D9F70895
100
AcDbEntity
  8
PORTS
  6
CONTINUOUS
100
AcDbText
 10
910.564437
 20
-130.649526
 30
0.0
 40
10.0
  1
RIGHT
 50
0.000019
  7
SIMPLEX
100
AcDbAttribute
  2
SIDE
 70
     0
  0
SEQEND
  5
DF3414A4D9F70896
100
AcDbEntity
  8
PORTS
  6
CONTINUOUS
  0
ENDBLK
  5
DF3414A4D9F70898
100
AcDbEntity
  8
DETAIL_MEDIUM
  6
CONTINUOUS
100
AcDbBlockEnd
  0
BLOCK
  5
BE68294105FDAD9E
100
AcDbEntity
  8
DETAIL_MEDIUM
  6
CONTINUOUS
100
AcDbBlockBegin
  2
IO_CYC_DELAY_CHAIN
 70
     2
 10
320.0
 20
-370.0
 30
0.0
  3
IO_CYC_DELAY_CHAIN
  1

  0
POLYLINE
  5
BE68294105FDAD8E
100
AcDbEntity
  8
DETAIL_MEDIUM
  6
CONTINUOUS
100
AcDb2dPolyline
 66
     1
 10
0.0
 20
0.0
 30
0.0
 70
     1
  0
VERTEX
  5
BE68294105FDAD8F
100
AcDbEntity
  8
DETAIL_MEDIUM
  6
CONTINUOUS
100
AcDbVertex
100
AcDb2dVertex
 10
400.0
 20
-360.0
 30
0.0
  0
VERTEX
  5
BE68294105FDAD90
100
AcDbEntity
  8
DETAIL_MEDIUM
  6
CONTINUOUS
100
AcDbVertex
100
AcDb2dVertex
 10
320.0
 20
-360.0
 30
0.0
  0
VERTEX
  5
BE68294105FDAD91
100
AcDbEntity
  8
DETAIL_MEDIUM
  6
CONTINUOUS
100
AcDbVertex
100
AcDb2dVertex
 10
320.0
 20
-320.0
 30
0.0
  0
VERTEX
  5
BE68294105FDAD92
100
AcDbEntity
  8
DETAIL_MEDIUM
  6
CONTINUOUS
100
AcDbVertex
100
AcDb2dVertex
 10
400.0
 20
-320.0
 30
0.0
  0
SEQEND
  5
BE68294105FDAD93
100
AcDbEntity
  8
DETAIL_MEDIUM
  6
CONTINUOUS
  0
LINE
  5
BE68294105FDAD94
100
AcDbEntity
  8
DETAIL_HIGH
  6
CONTINUOUS
100
AcDbLine
 10
370.0
 20
-330.0
 30
0.0
 11
370.0
 21
-350.0
 31
0.0
  0
LINE
  5
BE68294105FDAD95
100
AcDbEntity
  8
DETAIL_HIGH
  6
CONTINUOUS
100
AcDbLine
 10
360.0
 20
-330.0
 30
0.0
 11
380.0
 21
-330.0
 31
0.0
  0
POLYLINE
  5
BE68294105FDAD96
100
AcDbEntity
  8
DETAIL_HIGH
  6
CONTINUOUS
100
AcDb2dPolyline
 66
     1
 10
0.0
 20
0.0
 30
0.0
  0
VERTEX
  5
BE68294105FDAD97
100
AcDbEntity
  8
DETAIL_HIGH
  6
CONTINUOUS
100
AcDbVertex
100
AcDb2dVertex
 10
340.0
 20
-350.0
 30
0.0
  0
VERTEX
  5
BE68294105FDAD98
100
AcDbEntity
  8
DETAIL_HIGH
  6
CONTINUOUS
100
AcDbVertex
100
AcDb2dVertex
 10
350.0
 20
-340.0
 30
0.0
  0
VERTEX
  5
BE68294105FDAD99
100
AcDbEntity
  8
DETAIL_HIGH
  6
CONTINUOUS
100
AcDbVertex
100
AcDb2dVertex
 10
360.0
 20
-350.0
 30
0.0
  0
VERTEX
  5
BE68294105FDAD9A
100
AcDbEntity
  8
DETAIL_HIGH
  6
CONTINUOUS
100
AcDbVertex
100
AcDb2dVertex
 10
340.0
 20
-350.0
 30
0.0
  0
SEQEND
  5
BE68294105FDAD9B
100
AcDbEntity
  8
DETAIL_HIGH
  6
CONTINUOUS
  0
ATTDEF
  5
BE68294105FDAD9C
100
AcDbEntity
  8
DETAIL_MEDIUM
  6
CONTINUOUS
100
AcDbText
 10
390.0
 20
-360.0
 30
0.0
 40
10.0
  1

  7
SIMPLEX
100
AcDbAttributeDefinition
  3

  2
index
 70
     0
  0
ATTDEF
  5
BE68294105FDAD9D
100
AcDbEntity
  8
DETAIL_MEDIUM
  6
CONTINUOUS
100
AcDbText
 10
330.0
 20
-370.0
 30
0.0
 40
10.0
  1

  7
SIMPLEX
100
AcDbAttributeDefinition
  3

  2
name
 70
     0
  0
ENDBLK
  5
BE68294105FDAD9F
100
AcDbEntity
  8
DETAIL_MEDIUM
  6
CONTINUOUS
100
AcDbBlockEnd
  0
BLOCK
  5
DF3414A0EBD58B6E
100
AcDbEntity
  8
DETAIL_MEDIUM
  6
CONTINUOUS
100
AcDbBlockBegin
  2
IO_CYC_OE_WIRE
 70
     0
 10
0.0
 20
0.0
 30
0.0
  1

  0
LINE
  5
DF3414A0EBD58B5D
100
AcDbEntity
  8
DETAIL_MEDIUM
  6
CONTINUOUS
100
AcDbLine
 10
99.0
 20
-24.0
 30
0.0
 11
396.0
 21
-24.0
 31
0.0
  0
LINE
  5
DF3414A0EBD58B68
100
AcDbEntity
  8
DETAIL_MEDIUM
  6
CONTINUOUS
100
AcDbLine
 10
397.0
 20
-24.0
 30
0.0
 11
397.0
 21
-242.0
 31
0.0
  0
ENDBLK
  5
DF3414A0EBD58B70
100
AcDbEntity
  8
DETAIL_MEDIUM
  6
CONTINUOUS
100
AcDbBlockEnd
  0
BLOCK
  5
DF3414A2CE5ED7D6
100
AcDbEntity
  8
DETAIL_MEDIUM
  6
CONTINUOUS
100
AcDbBlockBegin
  2
IO_CYC_DIN_WIRE
 70
     0
 10
0.0
 20
0.0
 30
0.0
  1

  0
LINE
  5
DF3414A2CE5ED7D4
100
AcDbEntity
  8
DETAIL_MEDIUM
  6
CONTINUOUS
100
AcDbLine
 10
99.548261
 20
-262.209613
 30
0.0
 11
377.165116
 21
-262.209613
 31
0.0
  0
ENDBLK
  5
DF3414A2CE5ED7D8
100
AcDbEntity
  8
DETAIL_MEDIUM
  6
CONTINUOUS
100
AcDbBlockEnd
  0
BLOCK
  5
DF3414A4D9F35289
100
AcDbEntity
  8
DETAIL_MEDIUM
  6
CONTINUOUS
100
AcDbBlockBegin
  2
IO_CYC_COMBOUT_WIRE
 70
     0
 10
0.0
 20
0.0
 30
0.0
  1

  0
LINE
  5
DF3414A4D9F35279
100
AcDbEntity
  8
DETAIL_MEDIUM
  6
CONTINUOUS
100
AcDbLine
 10
744.796844
 20
-262.498922
 30
0.0
 11
905.851292
 21
-262.498922
 31
0.0
  0
LINE
  5
DF3414A4D9F35278
100
AcDbEntity
  8
DETAIL_MEDIUM
  6
CONTINUOUS
100
AcDbLine
 10
504.318284
 20
-262.498922
 30
0.0
 11
665.372732
 21
-262.498922
 31
0.0
  0
ENDBLK
  5
DF3414A4D9F3528B
100
AcDbEntity
  8
DETAIL_MEDIUM
  6
CONTINUOUS
100
AcDbBlockEnd
  0
BLOCK
  5
DF3414A4D9F7088D
100
AcDbEntity
  8
DETAIL_MEDIUM
  6
CONTINUOUS
100
AcDbBlockBegin
  2
IO_CYC_BYPASS_DELAY_CHAIN_WIRE
 70
     0
 10
0.0
 20
0.0
 30
0.0
  1

  0
LINE
  5
DF3414A4D9F70887
100
AcDbEntity
  8
DETAIL_MEDIUM
  6
CONTINUOUS
100
AcDbLine
 10
506.355927
 20
-262.208102
 30
0.0
 11
574.004024
 21
-262.208102
 31
0.0
  0
LINE
  5
DF3414A4D9F7088B
100
AcDbEntity
  8
DETAIL_MEDIUM
  6
CONTINUOUS
100
AcDbLine
 10
574.004024
 20
-262.208102
 30
0.0
 11
574.004024
 21
-142.766931
 31
0.0
  0
LINE
  5
DF3414A4D9F70889
100
AcDbEntity
  8
DETAIL_MEDIUM
  6
CONTINUOUS
100
AcDbLine
 10
574.004024
 20
-142.766931
 30
0.0
 11
908.016503
 21
-142.766931
 31
0.0
  0
ENDBLK
  5
DF3414A4D9F7088F
100
AcDbEntity
  8
DETAIL_MEDIUM
  6
CONTINUOUS
100
AcDbBlockEnd
  0
BLOCK
  5
DF3414A4D9F70891
100
AcDbEntity
  8
PORTS
  6
CONTINUOUS
100
AcDbBlockBegin
  2
IO_CYC_COMBOUT_PORT
 70
     2
 10
0.0
 20
0.0
 30
0.0
  1

  0
POLYLINE
  5
DF3414A4D9F7087C
100
AcDbEntity
  8
PORTS
  6
CONTINUOUS
100
AcDb2dPolyline
 66
     1
 10
0.0
 20
0.0
 30
0.0
 70
     1
  0
VERTEX
  5
DF3414A4D9F7087D
100
AcDbEntity
  8
PORTS
  6
CONTINUOUS
100
AcDbVertex
100
AcDb2dVertex
 10
988.564437
 20
-142.649526
 30
0.0
  0
VERTEX
  5
DF3414A4D9F7087E
100
AcDbEntity
  8
PORTS
  6
CONTINUOUS
100
AcDbVertex
100
AcDb2dVertex
 10
980.564437
 20
-148.649526
 30
0.0
  0
VERTEX
  5
DF3414A4D9F7087F
100
AcDbEntity
  8
PORTS
  6
CONTINUOUS
100
AcDbVertex
100
AcDb2dVertex
 10
908.564437
 20
-148.649526
 30
0.0
  0
VERTEX
  5
DF3414A4D9F70880
100
AcDbEntity
  8
PORTS
  6
CONTINUOUS
100
AcDbVertex
100
AcDb2dVertex
 10
908.564437
 20
-136.649526
 30
0.0
  0
VERTEX
  5
DF3414A4D9F70881
100
AcDbEntity
  8
PORTS
  6
CONTINUOUS
100
AcDbVertex
100
AcDb2dVertex
 10
980.564437
 20
-136.649526
 30
0.0
  0
VERTEX
  5
DF3414A4D9F70882
100
AcDbEntity
  8
PORTS
  6
CONTINUOUS
100
AcDbVertex
100
AcDb2dVertex
 10
988.564437
 20
-142.649526
 30
0.0
  0
SEQEND
  5
DF3414A4D9F70883
100
AcDbEntity
  8
PORTS
  6
CONTINUOUS
  0
POINT
  5
DF3414A4D9F70884
100
AcDbEntity
  8
PORTS
  6
CONTINUOUS
100
AcDbPoint
 10
908.564437
 20
-142.649526
 30
0.0
  0
ATTDEF
  5
DF3414A4D9F70885
100
AcDbEntity
  8
PORTS
  6
CONTINUOUS
100
AcDbText
 10
910.564437
 20
-130.649526
 30
0.0
 40
10.0
  1

 50
0.000019
  7
SIMPLEX
100
AcDbAttributeDefinition
  3

  2
SIDE
 70
     0
  0
ENDBLK
  5
DF3414A4D9F70893
100
AcDbEntity
  8
PORTS
  6
CONTINUOUS
100
AcDbBlockEnd
  0
ENDSEC
  0
SECTION
  2
ENTITIES
  0
TEXT
  5
1555386
100
AcDbEntity
  8
COMMENT
100
AcDbText
 10
-103.0
 20
133.5
 30
0.0
 40
10.0
  1
Comments:
100
AcDbText
  0
TEXT
  5
DF2FB97E2E1C5501
100
AcDbEntity
  8
COMMENT
  6
CONTINUOUS
100
AcDbText
 10
-104.0
 20
114.0
 30
0.0
 40
10.0
  1
All ports are on PORTS layer. They don't have FILLCLR since it is assigned in software.
  7
SIMPLEX
100
AcDbText
  0
TEXT
  5
DF2FB97E2E1C5502
100
AcDbEntity
  8
COMMENT
  6
CONTINUOUS
100
AcDbText
 10
-104.0
 20
96.857143
 30
0.0
 40
10.0
  1
Text is drawn starting at the only point contained by the port block on PORTS layer. SIDE determines 
  7
SIMPLEX
100
AcDbText
  0
TEXT
  5
DF2FB97E2E1C5503
100
AcDbEntity
  8
COMMENT
  6
CONTINUOUS
100
AcDbText
 10
-104.0
 20
79.714286
 30
0.0
 40
10.0
  1
the direction of the text. Port association is based on the name of the block.
  7
SIMPLEX
100
AcDbText
  0
TEXT
  5
DF3414A046557ECE
100
AcDbEntity
  8
COMMENT
100
AcDbText
 10
-50.0
 20
-30.5
 30
0.0
 40
10.0
  1
OE
100
AcDbText
  0
TEXT
  5
DF3414A046557ECF
100
AcDbEntity
  8
COMMENT
100
AcDbText
 10
-47.0
 20
-253.5
 30
0.0
 40
10.0
  1
din1
100
AcDbText
  0
TEXT
  5
DF3414A046557ED0
100
AcDbEntity
  8
COMMENT
100
AcDbText
 10
1016.872878
 20
-265.26292
 30
0.0
 40
10.0
  1
datain0
100
AcDbText
  0
INSERT
  5
DF3414A4D9F70899
100
AcDbEntity
  8
DETAIL_MEDIUM
  6
CONTINUOUS
100
AcDbBlockReference
  2
IO_CYC
 10
0.0
 20
0.0
 30
0.0
  0
ENDSEC
  0
SECTION
  2
OBJECTS
  0
DICTIONARY
  5
C
100
AcDbDictionary
  3
ACAD_GROUP
350
D
  3
ACAD_MLINESTYLE
350
1B
  0
DICTIONARY
  5
D
102
{ACAD_REACTORS
330
C
102
}
100
AcDbDictionary
  0
DICTIONARY
  5
1B
102
{ACAD_REACTORS
330
C
102
}
100
AcDbDictionary
  3
STANDARD
350
1C
  0
MLINESTYLE
  5
1C
102
{ACAD_REACTORS
330
1B
102
}
100
AcDbMlineStyle
  2
STANDARD
 70
     0
  3

 62
   256
 51
90.0
 52
90.0
 71
     2
 49
0.5
 62
   256
  6
BYLAYER
 49
-0.5
 62
   256
  6
BYLAYER
  0
ENDSEC
  0
EOF
