  0
SECTION
  2
HEADER
  9
$ACADVER
  1
AC1014
  9
$ACADMAINTVER
 70
     0
  9
$DWGCODEPAGE
  3
ANSI_1252
  9
$INSBASE
 10
0.0
 20
0.0
 30
0.0
  9
$EXTMIN
 10
-250.0
 20
-866.333333
 30
-1.0
  9
$EXTMAX
 10
1829.333333
 20
123.5
 30
2.0
  9
$LIMMIN
 10
0.0
 20
0.0
  9
$LIMMAX
 10
12.0
 20
9.0
  9
$ORTHOMODE
 70
     0
  9
$REGENMODE
 70
     1
  9
$FILLMODE
 70
     1
  9
$QTEXTMODE
 70
     0
  9
$MIRRTEXT
 70
     1
  9
$DRAGMODE
 70
     2
  9
$LTSCALE
 40
1.0
  9
$OSMODE
 70
     0
  9
$ATTMODE
 70
     1
  9
$TEXTSIZE
 40
0.2
  9
$TRACEWID
 40
0.05
  9
$TEXTSTYLE
  7
SIMPLEX
  9
$CLAYER
  8
DETAIL_MEDIUM
  9
$CELTYPE
  6
CONTINUOUS
  9
$CECOLOR
 62
   256
  9
$CELTSCALE
 40
1.0
  9
$DELOBJ
 70
     1
  9
$DISPSILH
 70
     0
  9
$DIMSCALE
 40
1.0
  9
$DIMASZ
 40
0.18
  9
$DIMEXO
 40
0.0625
  9
$DIMDLI
 40
0.38
  9
$DIMRND
 40
0.0
  9
$DIMDLE
 40
0.0
  9
$DIMEXE
 40
0.18
  9
$DIMTP
 40
0.0
  9
$DIMTM
 40
0.0
  9
$DIMTXT
 40
0.18
  9
$DIMCEN
 40
0.09
  9
$DIMTSZ
 40
0.0
  9
$DIMTOL
 70
     0
  9
$DIMLIM
 70
     0
  9
$DIMTIH
 70
     1
  9
$DIMTOH
 70
     1
  9
$DIMSE1
 70
     0
  9
$DIMSE2
 70
     0
  9
$DIMTAD
 70
     0
  9
$DIMZIN
 70
     0
  9
$DIMBLK
  1

  9
$DIMASO
 70
     1
  9
$DIMSHO
 70
     1
  9
$DIMPOST
  1

  9
$DIMAPOST
  1

  9
$DIMALT
 70
     0
  9
$DIMALTD
 70
     2
  9
$DIMALTF
 40
25.4
  9
$DIMLFAC
 40
1.0
  9
$DIMTOFL
 70
     0
  9
$DIMTVP
 40
0.0
  9
$DIMTIX
 70
     0
  9
$DIMSOXD
 70
     0
  9
$DIMSAH
 70
     0
  9
$DIMBLK1
  1

  9
$DIMBLK2
  1

  9
$DIMSTYLE
  2
STANDARD
  9
$DIMCLRD
 70
     0
  9
$DIMCLRE
 70
     0
  9
$DIMCLRT
 70
     0
  9
$DIMTFAC
 40
1.0
  9
$DIMGAP
 40
0.09
  9
$DIMJUST
 70
     0
  9
$DIMSD1
 70
     0
  9
$DIMSD2
 70
     0
  9
$DIMTOLJ
 70
     1
  9
$DIMTZIN
 70
     0
  9
$DIMALTZ
 70
     0
  9
$DIMALTTZ
 70
     0
  9
$DIMFIT
 70
     3
  9
$DIMUPT
 70
     0
  9
$DIMUNIT
 70
     2
  9
$DIMDEC
 70
     4
  9
$DIMTDEC
 70
     4
  9
$DIMALTU
 70
     2
  9
$DIMALTTD
 70
     2
  9
$DIMTXSTY
  7
STANDARD
  9
$DIMAUNIT
 70
     0
  9
$LUNITS
 70
     2
  9
$LUPREC
 70
     4
  9
$SKETCHINC
 40
0.1
  9
$FILLETRAD
 40
0.5
  9
$AUNITS
 70
     0
  9
$AUPREC
 70
     0
  9
$MENU
  1
.
  9
$ELEVATION
 40
0.0
  9
$PELEVATION
 40
0.0
  9
$THICKNESS
 40
0.0
  9
$LIMCHECK
 70
     0
  9
$BLIPMODE
 70
     0
  9
$CHAMFERA
 40
0.5
  9
$CHAMFERB
 40
0.5
  9
$CHAMFERC
 40
1.0
  9
$CHAMFERD
 40
0.0
  9
$SKPOLY
 70
     0
  9
$TDCREATE
 40
2453076.5835298728
  9
$TDUPDATE
 40
2454272.6228472106
  9
$TDINDWG
 40
0.277083333333
  9
$TDUSRTIMER
 40
0.277083333333
  9
$USRTIMER
 70
     1
  9
$ANGBASE
 50
0.0
  9
$ANGDIR
 70
     0
  9
$PDMODE
 70
    35
  9
$PDSIZE
 40
5.0
  9
$PLINEWID
 40
0.0
  9
$COORDS
 70
     1
  9
$SPLFRAME
 70
     0
  9
$SPLINETYPE
 70
     6
  9
$SPLINESEGS
 70
     8
  9
$ATTDIA
 70
     0
  9
$ATTREQ
 70
     1
  9
$HANDLING
 70
     1
  9
$HANDSEED
  5
FD389199B6EF4F47
  9
$SURFTAB1
 70
     6
  9
$SURFTAB2
 70
     6
  9
$SURFTYPE
 70
     6
  9
$SURFU
 70
     6
  9
$SURFV
 70
     6
  9
$UCSNAME
  2

  9
$UCSORG
 10
0.0
 20
0.0
 30
0.0
  9
$UCSXDIR
 10
1.0
 20
0.0
 30
0.0
  9
$UCSYDIR
 10
0.0
 20
1.0
 30
0.0
  9
$PUCSNAME
  2

  9
$PUCSORG
 10
0.0
 20
0.0
 30
0.0
  9
$PUCSXDIR
 10
1.0
 20
0.0
 30
0.0
  9
$PUCSYDIR
 10
0.0
 20
1.0
 30
0.0
  9
$USERI1
 70
     0
  9
$USERI2
 70
     0
  9
$USERI3
 70
     0
  9
$USERI4
 70
     0
  9
$USERI5
 70
     0
  9
$USERR1
 40
0.0
  9
$USERR2
 40
0.0
  9
$USERR3
 40
0.0
  9
$USERR4
 40
0.0
  9
$USERR5
 40
0.0
  9
$WORLDVIEW
 70
     1
  9
$SHADEDGE
 70
     3
  9
$SHADEDIF
 70
    70
  9
$TILEMODE
 70
     1
  9
$MAXACTVP
 70
    48
  9
$PINSBASE
 10
0.0
 20
0.0
 30
0.0
  9
$PLIMCHECK
 70
     0
  9
$PEXTMIN
 10
1.000000E+020
 20
1.000000E+020
 30
1.000000E+020
  9
$PEXTMAX
 10
-1.000000E+020
 20
-1.000000E+020
 30
-1.000000E+020
  9
$PLIMMIN
 10
0.0
 20
0.0
  9
$PLIMMAX
 10
12.0
 20
9.0
  9
$UNITMODE
 70
     0
  9
$VISRETAIN
 70
     1
  9
$PLINEGEN
 70
     0
  9
$PSLTSCALE
 70
     1
  9
$TREEDEPTH
 70
  3020
  9
$PICKSTYLE
 70
     1
  9
$CMLSTYLE
  2
STANDARD
  9
$CMLJUST
 70
     0
  9
$CMLSCALE
 40
1.0
  9
$PROXYGRAPHICS
 70
     1
  9
$MEASUREMENT
 70
     0
  0
ENDSEC
  0
SECTION
  2
CLASSES
  0
CLASS
  1
LWPOLYLINE
  2
AcDbPolyline
  3
"AutoCAD"
 90
        0
280
     0
281
     1
  0
CLASS
  1
IMAGE
  2
AcDbRasterImage
  3
ISM
 90
      127
280
     0
281
     1
  0
CLASS
  1
RASTERVARIABLES
  2
AcDbRasterVariables
  3
ISM
 90
        0
280
     0
281
     0
  0
CLASS
  1
IMAGEDEF
  2
AcDbRasterImageDef
  3
ISM
 90
        0
280
     0
281
     0
  0
CLASS
  1
IMAGEDEF_REACTOR
  2
AcDbRasterImageDefReactor
  3
ISM
 90
        1
280
     0
281
     0
  0
ENDSEC
  0
SECTION
  2
TABLES
  0
TABLE
  2
VPORT
  5
8
100
AcDbSymbolTable
 70
     1
  0
VPORT
  5
37
100
AcDbSymbolTableRecord
100
AcDbViewportTableRecord
  2
*ACTIVE
 70
     0
 10
0.0
 20
0.0
 11
1.0
 21
1.0
 12
651.542323
 22
-554.553119
 13
0.0
 23
0.0
 14
1.0
 24
1.0
 15
1.0
 25
1.0
 16
0.0
 26
0.0
 36
1.0
 17
0.0
 27
0.0
 37
0.0
 40
2032.352334
 41
1.797633
 42
50.0
 43
0.0
 44
0.0
 50
0.0
 51
0.0
 71
     0
 72
   100
 73
     1
 74
     1
 75
     1
 76
     1
 77
     0
 78
     0
  0
ENDTAB
  0
TABLE
  2
LTYPE
  5
5
100
AcDbSymbolTable
 70
     2
  0
LTYPE
  5
12
100
AcDbSymbolTableRecord
100
AcDbLinetypeTableRecord
  2
BYBLOCK
 70
     0
  3

 72
    65
 73
     0
 40
0.0
  0
LTYPE
  5
13
100
AcDbSymbolTableRecord
100
AcDbLinetypeTableRecord
  2
BYLAYER
 70
     0
  3

 72
    65
 73
     0
 40
0.0
  0
LTYPE
  5
14
100
AcDbSymbolTableRecord
100
AcDbLinetypeTableRecord
  2
CONTINUOUS
 70
     0
  3
Solid line
 72
    65
 73
     0
 40
0.0
  0
LTYPE
  5
2A422EFD12C
100
AcDbSymbolTableRecord
100
AcDbLinetypeTableRecord
  2
DETAIL_1
 70
     0
  3
Solid line
 72
    65
 73
     2
 40
6.0
 49
5.0
 74
     0
 49
-1.0
 74
     0
  0
ENDTAB
  0
TABLE
  2
LAYER
  5
2
100
AcDbSymbolTable
 70
     6
  0
LAYER
  5
E
100
AcDbSymbolTableRecord
100
AcDbLayerTableRecord
  2
DETAIL_HIGH
 70
     0
 62
   101
  6
CONTINUOUS
  0
LAYER
  5
541
100
AcDbSymbolTableRecord
100
AcDbLayerTableRecord
  2
COMMENT
 70
     0
 62
   254
  6
CONTINUOUS
  0
LAYER
  5
1DAE4
100
AcDbSymbolTableRecord
100
AcDbLayerTableRecord
  2
DETAIL_MEDIUM
 70
     0
 62
   182
  6
CONTINUOUS
  0
LAYER
  5
15543B5
100
AcDbSymbolTableRecord
100
AcDbLayerTableRecord
  2
DETAIL_LOWEST
 70
     0
 62
   143
  6
CONTINUOUS
  0
LAYER
  5
DF2FB97E2E1C53EE
100
AcDbSymbolTableRecord
100
AcDbLayerTableRecord
  2
PORTS
 70
     0
 62
   188
  6
CONTINUOUS
  0
LAYER
  5
DF2FCAEAB671269E
100
AcDbSymbolTableRecord
100
AcDbLayerTableRecord
  2
NON_DDR
 70
     0
 62
   240
  6
CONTINUOUS
  0
ENDTAB
  0
TABLE
  2
STYLE
  5
3
100
AcDbSymbolTable
 70
     8
  0
STYLE
  5
F
100
AcDbSymbolTableRecord
100
AcDbTextStyleTableRecord
  2
STANDARD
 70
     0
 40
0.0
 41
1.0
 50
0.0
 71
     0
 42
0.2
  3
txt.shx
  4

  0
STYLE
  5
21
100
AcDbSymbolTableRecord
100
AcDbTextStyleTableRecord
  2
COMPLEX
 70
     0
 40
0.0
 41
1.0
 50
0.0
 71
     0
 42
0.2
  3
complex
  4

  0
STYLE
  5
22
100
AcDbSymbolTableRecord
100
AcDbTextStyleTableRecord
  2
ITALIC
 70
     0
 40
0.0
 41
1.0
 50
0.0
 71
     0
 42
0.2
  3
italic
  4

  0
STYLE
  5
23
100
AcDbSymbolTableRecord
100
AcDbTextStyleTableRecord
  2
ROMANC
 70
     0
 40
0.0
 41
1.0
 50
0.0
 71
     0
 42
0.2
  3
romanc
  4

  0
STYLE
  5
24
100
AcDbSymbolTableRecord
100
AcDbTextStyleTableRecord
  2
SIMPLEX
 70
     0
 40
0.0
 41
1.0
 50
0.0
 71
     0
 42
0.2
  3
simplex
  4

  0
STYLE
  5
34
100
AcDbSymbolTableRecord
100
AcDbTextStyleTableRecord
  2

 70
     1
 40
0.0
 41
1.0
 50
0.0
 71
     0
 42
0.2
  3
ltypeshp.shx
  4

  0
STYLE
  5
38
100
AcDbSymbolTableRecord
100
AcDbTextStyleTableRecord
  2
ARIAL
 70
     0
 40
0.0
 41
1.0
 50
0.0
 71
     0
 42
0.2
  3

  4

1001
ACAD
1000
Arial
1071
       34
  0
STYLE
  5
39
100
AcDbSymbolTableRecord
100
AcDbTextStyleTableRecord
  2
TIMES_NEW_ROMAN
 70
     0
 40
0.0
 41
1.0
 50
0.0
 71
     0
 42
0.2
  3

  4

1001
ACAD
1000
Times New Roman
1071
       18
  0
ENDTAB
  0
TABLE
  2
VIEW
  5
6
100
AcDbSymbolTable
 70
     0
  0
ENDTAB
  0
TABLE
  2
UCS
  5
7
100
AcDbSymbolTable
 70
     0
  0
ENDTAB
  0
TABLE
  2
APPID
  5
9
100
AcDbSymbolTable
 70
     1
  0
APPID
  5
10
100
AcDbSymbolTableRecord
100
AcDbRegAppTableRecord
  2
ACAD
 70
     0
  0
ENDTAB
  0
TABLE
  2
DIMSTYLE
  5
A
100
AcDbSymbolTable
 70
     1
  0
DIMSTYLE
105
1D
100
AcDbSymbolTableRecord
100
AcDbDimStyleTableRecord
  2
STANDARD
 70
     0
  3

  4

  5

  6

  7

 40
1.0
 41
0.18
 42
0.0625
 43
0.38
 44
0.18
 45
0.0
 46
0.0
 47
0.0
 48
0.0
140
0.18
141
0.09
142
0.0
143
25.4
144
1.0
145
0.0
146
1.0
147
0.09
 71
     0
 72
     0
 73
     1
 74
     1
 75
     0
 76
     0
 77
     0
 78
     0
170
     0
171
     2
172
     0
173
     0
174
     0
175
     0
176
     0
177
     0
178
     0
270
     2
271
     4
272
     4
273
     2
274
     2
340
F
275
     0
280
     0
281
     0
282
     0
283
     1
284
     0
285
     0
286
     0
287
     3
288
     0
  0
ENDTAB
  0
TABLE
  2
BLOCK_RECORD
  5
1
100
AcDbSymbolTable
 70
   102
  0
BLOCK_RECORD
  5
18
100
AcDbSymbolTableRecord
100
AcDbBlockTableRecord
  2
*MODEL_SPACE
  0
BLOCK_RECORD
  5
15
100
AcDbSymbolTableRecord
100
AcDbBlockTableRecord
  2
*PAPER_SPACE
  0
BLOCK_RECORD
  5
DF3414A0433263D1
100
AcDbSymbolTableRecord
100
AcDbBlockTableRecord
  2
IO_YGR_REG_SYNC
  0
BLOCK_RECORD
  5
DF3414A0433263D2
100
AcDbSymbolTableRecord
100
AcDbBlockTableRecord
  2
IO_YGR_REG_ASYNC
  0
BLOCK_RECORD
  5
DF3414A0433263D3
100
AcDbSymbolTableRecord
100
AcDbBlockTableRecord
  2
IO_YGR_REGISTER
  0
BLOCK_RECORD
  5
DF3414A04339CFA4
100
AcDbSymbolTableRecord
100
AcDbBlockTableRecord
  2
IO_YGR_DELAY_CHAIN
  0
BLOCK_RECORD
  5
DF3414A0433D859C
100
AcDbSymbolTableRecord
100
AcDbBlockTableRecord
  2
IO_YGR_OE
  0
BLOCK_RECORD
  5
DF3414A0433D85CA
100
AcDbSymbolTableRecord
100
AcDbBlockTableRecord
  2
IO_YGR_CLKOUT
  0
BLOCK_RECORD
  5
DF3414A0433D85D0
100
AcDbSymbolTableRecord
100
AcDbBlockTableRecord
  2
IO_YGR_DDR_CLKOUT
  0
BLOCK_RECORD
  5
DF3414A0433D85D4
100
AcDbSymbolTableRecord
100
AcDbBlockTableRecord
  2
IO_YGR_REG_0_BYPASS
  0
BLOCK_RECORD
  5
DF3414A0433D85D8
100
AcDbSymbolTableRecord
100
AcDbBlockTableRecord
  2
IO_YGR_CEOUT
  0
BLOCK_RECORD
  5
DF3414A0433D85DE
100
AcDbSymbolTableRecord
100
AcDbBlockTableRecord
  2
IO_YGR_REG_0_EN
  0
BLOCK_RECORD
  5
DF3414A0433D85E2
100
AcDbSymbolTableRecord
100
AcDbBlockTableRecord
  2
IO_YGR_REG_1_EN
  0
BLOCK_RECORD
  5
DF3414A0433D85E9
100
AcDbSymbolTableRecord
100
AcDbBlockTableRecord
  2
IO_YGR_REG_0_ACLR
  0
BLOCK_RECORD
  5
DF3414A0433D85ED
100
AcDbSymbolTableRecord
100
AcDbBlockTableRecord
  2
IO_YGR_REG_1_ACLR
  0
BLOCK_RECORD
  5
DF3414A0433D85F4
100
AcDbSymbolTableRecord
100
AcDbBlockTableRecord
  2
IO_YGR_REG_2_ACLR
  0
BLOCK_RECORD
  5
DF3414A0433D8602
100
AcDbSymbolTableRecord
100
AcDbBlockTableRecord
  2
IO_YGR_REG_3_ON_ACLR
  0
BLOCK_RECORD
  5
DF3414A0433D8606
100
AcDbSymbolTableRecord
100
AcDbBlockTableRecord
  2
IO_YGR_REG_3_ACLR
  0
BLOCK_RECORD
  5
DF3414A0433D8615
100
AcDbSymbolTableRecord
100
AcDbBlockTableRecord
  2
IO_YGR_REG_4_ACLR
  0
BLOCK_RECORD
  5
DF3414A0433D8619
100
AcDbSymbolTableRecord
100
AcDbBlockTableRecord
  2
IO_YGR_REG_56_ACLR
  0
BLOCK_RECORD
  5
DF3414A0433D8621
100
AcDbSymbolTableRecord
100
AcDbBlockTableRecord
  2
IO_YGR_REG_0_SCLR
  0
BLOCK_RECORD
  5
DF3414A0433D8628
100
AcDbSymbolTableRecord
100
AcDbBlockTableRecord
  2
IO_YGR_REG_24_OR_5_SCLR
  0
BLOCK_RECORD
  5
DF3414A0433D862C
100
AcDbSymbolTableRecord
100
AcDbBlockTableRecord
  2
IO_YGR_REG_2_SCLR
  0
BLOCK_RECORD
  5
DF3414A0433D8630
100
AcDbSymbolTableRecord
100
AcDbBlockTableRecord
  2
IO_YGR_REG_4_SCLR
  0
BLOCK_RECORD
  5
DF3414A0433D8634
100
AcDbSymbolTableRecord
100
AcDbBlockTableRecord
  2
IO_YGR_REG_5_SCLR
  0
BLOCK_RECORD
  5
DF3414A0433D8638
100
AcDbSymbolTableRecord
100
AcDbBlockTableRecord
  2
IO_YGR_REG_3_SCLR
  0
BLOCK_RECORD
  5
DF3414A0433D863C
100
AcDbSymbolTableRecord
100
AcDbBlockTableRecord
  2
IO_YGR_REG_2_EN
  0
BLOCK_RECORD
  5
DF3414A0433D8640
100
AcDbSymbolTableRecord
100
AcDbBlockTableRecord
  2
IO_YGR_REG_3_EN
  0
BLOCK_RECORD
  5
DF3414A0433D8644
100
AcDbSymbolTableRecord
100
AcDbBlockTableRecord
  2
IO_YGR_DIN_0
  0
BLOCK_RECORD
  5
DF3414A0433D864A
100
AcDbSymbolTableRecord
100
AcDbBlockTableRecord
  2
IO_YGR_DIN_1
  0
BLOCK_RECORD
  5
DF3414A0433D8650
100
AcDbSymbolTableRecord
100
AcDbBlockTableRecord
  2
IO_YGR_REG_2_BYPASS
  0
BLOCK_RECORD
  5
DF3414A0433D86D6
100
AcDbSymbolTableRecord
100
AcDbBlockTableRecord
  2
IO_YGR_REG_2_USED
  0
BLOCK_RECORD
  5
DF3414A0433D86DD
100
AcDbSymbolTableRecord
100
AcDbBlockTableRecord
  2
IO_YGR_BUFFER
  0
BLOCK_RECORD
  5
DF3414A0433D86E1
100
AcDbSymbolTableRecord
100
AcDbBlockTableRecord
  2
IO_YGR_PAD
  0
BLOCK_RECORD
  5
DF3414A0433D86E9
100
AcDbSymbolTableRecord
100
AcDbBlockTableRecord
  2
IO_YGR_REGOUT_4_USED
  0
BLOCK_RECORD
  5
DF3414A0433D86FC
100
AcDbSymbolTableRecord
100
AcDbBlockTableRecord
  2
IO_YGR_REGOUT_5_USED
  0
BLOCK_RECORD
  5
DF3414A0433D8700
100
AcDbSymbolTableRecord
100
AcDbBlockTableRecord
  2
IO_YGR_REG_4_CE_IN
  0
BLOCK_RECORD
  5
DF3414A0433D8706
100
AcDbSymbolTableRecord
100
AcDbBlockTableRecord
  2
IO_YGR_REG_5_CE_IN
  0
BLOCK_RECORD
  5
DF3414A0433D870D
100
AcDbSymbolTableRecord
100
AcDbBlockTableRecord
  2
IO_YGR_CLK_IN
  0
BLOCK_RECORD
  5
DF3414A0433D8713
100
AcDbSymbolTableRecord
100
AcDbBlockTableRecord
  2
IO_YGR_REG_5_CLK_IN
  0
BLOCK_RECORD
  5
DF3414A0433D8717
100
AcDbSymbolTableRecord
100
AcDbBlockTableRecord
  2
IO_YGR_DATAIN_1
  0
BLOCK_RECORD
  5
DF3414A0433D871D
100
AcDbSymbolTableRecord
100
AcDbBlockTableRecord
  2
IO_YGR_DATAIN_0
  0
BLOCK_RECORD
  5
DF3414A0433D8723
100
AcDbSymbolTableRecord
100
AcDbBlockTableRecord
  2
IO_YGR_DELAY_DATAIN0_USED
  0
BLOCK_RECORD
  5
DF3414A0433D8727
100
AcDbSymbolTableRecord
100
AcDbBlockTableRecord
  2
IO_YGR_DELAY_DATAIN1_USED
  0
BLOCK_RECORD
  5
DF3414A0433D872B
100
AcDbSymbolTableRecord
100
AcDbBlockTableRecord
  2
IO_YGR_DELAY_DATAIN0_OR_1_USED
  0
BLOCK_RECORD
  5
DF3414A0433D8824
100
AcDbSymbolTableRecord
100
AcDbBlockTableRecord
  2
IO_YGR_REG_1_USED
  0
BLOCK_RECORD
  5
DF3414A0433D8828
100
AcDbSymbolTableRecord
100
AcDbBlockTableRecord
  2
IO_YGR_ACLR
  0
BLOCK_RECORD
  5
DF3414A0433D882E
100
AcDbSymbolTableRecord
100
AcDbBlockTableRecord
  2
IO_YGR_SCLR
  0
BLOCK_RECORD
  5
DF3414A0433D8834
100
AcDbSymbolTableRecord
100
AcDbBlockTableRecord
  2
IO_YGR_REG_0_USED
  0
BLOCK_RECORD
  5
DF3414A0433D8843
100
AcDbSymbolTableRecord
100
AcDbBlockTableRecord
  2
IO_YGR_CE_MUX
  0
BLOCK_RECORD
  5
DF3414A0433D8847
100
AcDbSymbolTableRecord
100
AcDbBlockTableRecord
  2
IO_YGR_CE_PATH_USED
  0
BLOCK_RECORD
  5
DF3414A0433D8851
100
AcDbSymbolTableRecord
100
AcDbBlockTableRecord
  2
IO_YGR_CE_PATH_GND
  0
BLOCK_RECORD
  5
DF3414A0433D8855
100
AcDbSymbolTableRecord
100
AcDbBlockTableRecord
  2
IO_YGR_CE_PATH_VCC
  0
BLOCK_RECORD
  5
DF3414A0433D8859
100
AcDbSymbolTableRecord
100
AcDbBlockTableRecord
  2
IO_YGR_CE_PATH_NOT_INVERTED
  0
BLOCK_RECORD
  5
DF3414A0433D885D
100
AcDbSymbolTableRecord
100
AcDbBlockTableRecord
  2
IO_YGR_CE_PATH_INVERTED
  0
BLOCK_RECORD
  5
DF3414A0433D8861
100
AcDbSymbolTableRecord
100
AcDbBlockTableRecord
  2
IO_YGR
  0
BLOCK_RECORD
  5
DF3414A0433D88EB
100
AcDbSymbolTableRecord
100
AcDbBlockTableRecord
  2
IO_YGR_LATCH
  0
BLOCK_RECORD
  5
DF3414A04541897E
100
AcDbSymbolTableRecord
100
AcDbBlockTableRecord
  2
IO_YGR_REGOUT_TO_DATAIN_1
  0
BLOCK_RECORD
  5
DF3414A04B4D9242
100
AcDbSymbolTableRecord
100
AcDbBlockTableRecord
  2
IO_YGR_REGOUT_TO_DATAIN_0
  0
BLOCK_RECORD
  5
DF3414A0637DB619
100
AcDbSymbolTableRecord
100
AcDbBlockTableRecord
  2
IO_YGR_CLK_IN_WIRE1
  0
BLOCK_RECORD
  5
DF3414A0637DB61D
100
AcDbSymbolTableRecord
100
AcDbBlockTableRecord
  2
IO_YGR_CLK_IN_WIRE2
  0
BLOCK_RECORD
  5
DF3414A083BDE53C
100
AcDbSymbolTableRecord
100
AcDbBlockTableRecord
  2
IO_YGR_DATAIN_0_MUX
  0
BLOCK_RECORD
  5
DF3414A0C0363E98
100
AcDbSymbolTableRecord
100
AcDbBlockTableRecord
  2
IO_YGR_DATAIN_1_MUX
  0
BLOCK_RECORD
  5
DF3414A13D2EF64F
100
AcDbSymbolTableRecord
100
AcDbBlockTableRecord
  2
IO_YGR_REG_4_CE_IN_WIRE1
  0
BLOCK_RECORD
  5
DF3414A13D2EF653
100
AcDbSymbolTableRecord
100
AcDbBlockTableRecord
  2
IO_YGR_REG_4_CE_IN_WIRE2
  0
BLOCK_RECORD
  5
DF3414A22F105A7E
100
AcDbSymbolTableRecord
100
AcDbBlockTableRecord
  2
IO_YGR_REGOUT_4_USED_WIRE1
  0
BLOCK_RECORD
  5
DF3414A22F105A82
100
AcDbSymbolTableRecord
100
AcDbBlockTableRecord
  2
IO_YGR_REGOUT_4_USED_WIRE2
  0
BLOCK_RECORD
  5
DF3414A41AE32EE1
100
AcDbSymbolTableRecord
100
AcDbBlockTableRecord
  2
IO_YGR_REG_4_SCLR_WIRE
  0
BLOCK_RECORD
  5
DF3414A7F288D7A7
100
AcDbSymbolTableRecord
100
AcDbBlockTableRecord
  2
IO_YGR_SCLR_WIRE2
  0
BLOCK_RECORD
  5
DF3414AFA1D42738
100
AcDbSymbolTableRecord
100
AcDbBlockTableRecord
  2
IO_YGR_SCLR_WIRE1
  0
BLOCK_RECORD
  5
DF3414BF006AC86B
100
AcDbSymbolTableRecord
100
AcDbBlockTableRecord
  2
IO_YGR_REG_4_ACLR_WIRE
  0
BLOCK_RECORD
  5
DF3414DDBD980AF0
100
AcDbSymbolTableRecord
100
AcDbBlockTableRecord
  2
IO_YGR_ACLR_WIRE2
  0
BLOCK_RECORD
  5
DF34151B37F28DD0
100
AcDbSymbolTableRecord
100
AcDbBlockTableRecord
  2
IO_YGR_ACLR_WIRE1
  0
BLOCK_RECORD
  5
DF3415962AA39234
100
AcDbSymbolTableRecord
100
AcDbBlockTableRecord
  2
IO_YGR_REGOUT_5_USED_WIRE
  0
BLOCK_RECORD
  5
DF34168C12099C47
100
AcDbSymbolTableRecord
100
AcDbBlockTableRecord
  2
IO_YGR_REG_0_USED_OR_GATE
  0
BLOCK_RECORD
  5
DF341877E09533AD
100
AcDbSymbolTableRecord
100
AcDbBlockTableRecord
  2
IO_YGR_CE_PATH_USED_MUX
  0
BLOCK_RECORD
  5
DF341C4F7DECE1D9
100
AcDbSymbolTableRecord
100
AcDbBlockTableRecord
  2
IO_YGR_OE_WIRE1
  0
BLOCK_RECORD
  5
DF341C4F7DECE1DD
100
AcDbSymbolTableRecord
100
AcDbBlockTableRecord
  2
IO_YGR_OE_WIRE2
  0
BLOCK_RECORD
  5
DF3423FEB88AD5F1
100
AcDbSymbolTableRecord
100
AcDbBlockTableRecord
  2
IO_YGR_BUFFER_MUX
  0
BLOCK_RECORD
  5
DF34335D2DC6BE2B
100
AcDbSymbolTableRecord
100
AcDbBlockTableRecord
  2
IO_YGR_REG_2_USED_WIRE
  0
BLOCK_RECORD
  5
DF34335D2DC6BE2F
100
AcDbSymbolTableRecord
100
AcDbBlockTableRecord
  2
IO_YGR_DIN_0_WIRE2
  0
BLOCK_RECORD
  5
DF34521A184F5B59
100
AcDbSymbolTableRecord
100
AcDbBlockTableRecord
  2
IO_YGR_DIN_0_WIRE1
  0
BLOCK_RECORD
  5
DF348F93ED612EAF
100
AcDbSymbolTableRecord
100
AcDbBlockTableRecord
  2
IO_YGR_DIN_1_WIRE2
  0
BLOCK_RECORD
  5
DF348F93ED612EB3
100
AcDbSymbolTableRecord
100
AcDbBlockTableRecord
  2
IO_YGR_DIN_1_WIRE1
  0
BLOCK_RECORD
  5
DF350A879784D7BA
100
AcDbSymbolTableRecord
100
AcDbBlockTableRecord
  2
IO_YGR_CLKOUT_WIRE1
  0
BLOCK_RECORD
  5
DF350A879784D7BE
100
AcDbSymbolTableRecord
100
AcDbBlockTableRecord
  2
IO_YGR_CLKOUT_WIRE2
  0
BLOCK_RECORD
  5
DF350A879784D7C2
100
AcDbSymbolTableRecord
100
AcDbBlockTableRecord
  2
IO_YGR_CLKOUT_WIRE3
  0
BLOCK_RECORD
  5
DF350A879784D7C6
100
AcDbSymbolTableRecord
100
AcDbBlockTableRecord
  2
IO_YGR_CLKOUT_WIRE4
  0
BLOCK_RECORD
  5
DF350A879784D7CA
100
AcDbSymbolTableRecord
100
AcDbBlockTableRecord
  2
IO_YGR_CLKOUT_WIRE5
  0
BLOCK_RECORD
  5
DF36006EEBCC29D4
100
AcDbSymbolTableRecord
100
AcDbBlockTableRecord
  2
IO_YGR_DDR_CLKOUT2
  0
BLOCK_RECORD
  5
DF43731587B2A5C9
100
AcDbSymbolTableRecord
100
AcDbBlockTableRecord
  2
IO_YGR_CEOUT_WIRE1
  0
BLOCK_RECORD
  5
DF43731587B2A5CD
100
AcDbSymbolTableRecord
100
AcDbBlockTableRecord
  2
IO_YGR_CEOUT_WIRE2
  0
BLOCK_RECORD
  5
DF43731587B2A5D1
100
AcDbSymbolTableRecord
100
AcDbBlockTableRecord
  2
IO_YGR_CEOUT_WIRE3
  0
BLOCK_RECORD
  5
DF43731587B2A5D5
100
AcDbSymbolTableRecord
100
AcDbBlockTableRecord
  2
IO_YGR_CEOUT_WIRE4
  0
BLOCK_RECORD
  5
DF43731587B2A5D9
100
AcDbSymbolTableRecord
100
AcDbBlockTableRecord
  2
IO_YGR_ACLR_POINT1
  0
BLOCK_RECORD
  5
FD389199B6E7D5B9
100
AcDbSymbolTableRecord
100
AcDbBlockTableRecord
  2
IO_YGR_DQS_CLK_PORT
  0
BLOCK_RECORD
  5
FD389199B6E7D5BF
100
AcDbSymbolTableRecord
100
AcDbBlockTableRecord
  2
IO_YGR_DQS_CLK_WIRE
  0
BLOCK_RECORD
  5
FD389199B6E7D5CF
100
AcDbSymbolTableRecord
100
AcDbBlockTableRecord
  2
IO_YGR_DQS_LOGIC
  0
BLOCK_RECORD
  5
FD389199B6E7D6A6
100
AcDbSymbolTableRecord
100
AcDbBlockTableRecord
  2
IO_YGR_BYPASS_DELAY_CHAIN_WIRE
  0
BLOCK_RECORD
  5
FD389199B6E7D6AA
100
AcDbSymbolTableRecord
100
AcDbBlockTableRecord
  2
IO_YGR_COMBOUT
  0
BLOCK_RECORD
  5
FD389199B6E7D83D
100
AcDbSymbolTableRecord
100
AcDbBlockTableRecord
  2
IO_YGR_REG_1_USED_SEL_GND
  0
BLOCK_RECORD
  5
FD389199B6E7D841
100
AcDbSymbolTableRecord
100
AcDbBlockTableRecord
  2
IO_YGR_REG_1_USED_SEL_OE
  0
BLOCK_RECORD
  5
FD389199B6EF4B2F
100
AcDbSymbolTableRecord
100
AcDbBlockTableRecord
  2
IO_YGR_DELAY_CTRL_IN_PORT
  0
BLOCK_RECORD
  5
FD389199B6EF4B35
100
AcDbSymbolTableRecord
100
AcDbBlockTableRecord
  2
IO_YGR_DELAY_CTRL_IN_WIRE
  0
ENDTAB
  0
ENDSEC
  0
SECTION
  2
BLOCKS
  0
BLOCK
  5
19
100
AcDbEntity
  8
DETAIL_HIGH
100
AcDbBlockBegin
  2
*MODEL_SPACE
 70
     0
 10
0.0
 20
0.0
 30
0.0
  3
*MODEL_SPACE
  1

  0
ENDBLK
  5
1A
100
AcDbEntity
  8
DETAIL_HIGH
100
AcDbBlockEnd
  0
BLOCK
  5
16
100
AcDbEntity
 67
     1
  8
DETAIL_HIGH
100
AcDbBlockBegin
  2
*PAPER_SPACE
 70
     0
 10
0.0
 20
0.0
 30
0.0
  3
*PAPER_SPACE
  1

  0
ENDBLK
  5
17
100
AcDbEntity
 67
     1
  8
DETAIL_HIGH
100
AcDbBlockEnd
  0
BLOCK
  5
BE6829408664C7BC
100
AcDbEntity
  8
DETAIL_MEDIUM
  6
CONTINUOUS
100
AcDbBlockBegin
  2
IO_YGR_REG_SYNC
 70
     0
 10
430.0
 20
-40.0
 30
0.0
  3
IO_YGR_REG_SYNC
  1

  0
POLYLINE
  5
BE6829408664C798
100
AcDbEntity
  8
DETAIL_MEDIUM
  6
CONTINUOUS
100
AcDb2dPolyline
 66
     1
 10
0.0
 20
0.0
 30
0.0
 70
     1
  0
VERTEX
  5
DF3414A0433D88F1
100
AcDbEntity
  8
DETAIL_MEDIUM
  6
CONTINUOUS
100
AcDbVertex
100
AcDb2dVertex
 10
430.0
 20
-20.0
 30
0.0
  0
VERTEX
  5
DF3414A0433D88F2
100
AcDbEntity
  8
DETAIL_MEDIUM
  6
CONTINUOUS
100
AcDbVertex
100
AcDb2dVertex
 10
450.0
 20
-20.0
 30
0.0
  0
VERTEX
  5
DF3414A0433D88F3
100
AcDbEntity
  8
DETAIL_MEDIUM
  6
CONTINUOUS
100
AcDbVertex
100
AcDb2dVertex
 10
450.0
 20
-40.0
 30
0.0
  0
VERTEX
  5
DF3414A0433D88F4
100
AcDbEntity
  8
DETAIL_MEDIUM
  6
CONTINUOUS
100
AcDbVertex
100
AcDb2dVertex
 10
430.0
 20
-40.0
 30
0.0
  0
SEQEND
  5
DF3414A0433D88F5
100
AcDbEntity
  8
DETAIL_MEDIUM
  6
CONTINUOUS
  0
TEXT
  5
BE6829408664C7B0
100
AcDbEntity
  8
DETAIL_HIGH
100
AcDbText
 10
437.5
 20
-32.5
 30
0.0
 40
10.0
  1
S
100
AcDbText
  0
ENDBLK
  5
BE6829408664C7BE
100
AcDbEntity
  8
DETAIL_MEDIUM
  6
CONTINUOUS
100
AcDbBlockEnd
  0
BLOCK
  5
BE6829408664C7C0
100
AcDbEntity
  8
DETAIL_MEDIUM
  6
CONTINUOUS
100
AcDbBlockBegin
  2
IO_YGR_REG_ASYNC
 70
     0
 10
430.0
 20
-150.0
 30
0.0
  3
IO_YGR_REG_ASYNC
  1

  0
POLYLINE
  5
BE6829408664C799
100
AcDbEntity
  8
DETAIL_MEDIUM
  6
CONTINUOUS
100
AcDb2dPolyline
 66
     1
 10
0.0
 20
0.0
 30
0.0
 70
     1
  0
VERTEX
  5
DF3414A0433D88F6
100
AcDbEntity
  8
DETAIL_MEDIUM
  6
CONTINUOUS
100
AcDbVertex
100
AcDb2dVertex
 10
430.0
 20
-130.0
 30
0.0
  0
VERTEX
  5
DF3414A0433D88F7
100
AcDbEntity
  8
DETAIL_MEDIUM
  6
CONTINUOUS
100
AcDbVertex
100
AcDb2dVertex
 10
450.0
 20
-130.0
 30
0.0
  0
VERTEX
  5
DF3414A0433D88F8
100
AcDbEntity
  8
DETAIL_MEDIUM
  6
CONTINUOUS
100
AcDbVertex
100
AcDb2dVertex
 10
450.0
 20
-150.0
 30
0.0
  0
VERTEX
  5
DF3414A0433D88F9
100
AcDbEntity
  8
DETAIL_MEDIUM
  6
CONTINUOUS
100
AcDbVertex
100
AcDb2dVertex
 10
430.0
 20
-150.0
 30
0.0
  0
SEQEND
  5
DF3414A0433D88FA
100
AcDbEntity
  8
DETAIL_MEDIUM
  6
CONTINUOUS
  0
TEXT
  5
BE6829408664C7B1
100
AcDbEntity
  8
DETAIL_HIGH
100
AcDbText
 10
437.5
 20
-142.5
 30
0.0
 40
10.0
  1
A
100
AcDbText
  0
ENDBLK
  5
BE6829408664C7C2
100
AcDbEntity
  8
DETAIL_MEDIUM
  6
CONTINUOUS
100
AcDbBlockEnd
  0
BLOCK
  5
BE6829408664C7D6
100
AcDbEntity
  8
DETAIL_MEDIUM
  6
CONTINUOUS
100
AcDbBlockBegin
  2
IO_YGR_REGISTER
 70
     2
 10
400.0
 20
-150.0
 30
0.0
  3
IO_YGR_REGISTER
  1

  0
TEXT
  5
BE6829408664C7CC
100
AcDbEntity
  8
DETAIL_HIGH
100
AcDbText
 10
407.5
 20
-42.5
 30
0.0
 40
10.0
  1
D
100
AcDbText
  0
INSERT
  5
BE6829408664C7CD
100
AcDbEntity
  8
DETAIL_MEDIUM
  6
CONTINUOUS
100
AcDbBlockReference
  2
IO_YGR_REG_SYNC
 10
430.0
 20
-40.0
 30
0.0
  0
TEXT
  5
BE6829408664C7CE
100
AcDbEntity
  8
DETAIL_HIGH
100
AcDbText
 10
467.5
 20
-42.5
 30
0.0
 40
10.0
  1
Q
100
AcDbText
  0
LINE
  5
BE6829408664C7CF
100
AcDbEntity
  8
DETAIL_MEDIUM
100
AcDbLine
 39
2.0
 10
410.0
 20
-80.0
 30
0.0
 11
400.0
 21
-90.0
 31
0.0
  0
LINE
  5
BE6829408664C7D0
100
AcDbEntity
  8
DETAIL_MEDIUM
100
AcDbLine
 39
2.0
 10
400.0
 20
-70.0
 30
0.0
 11
410.0
 21
-80.0
 31
0.0
  0
TEXT
  5
BE6829408664C7D1
100
AcDbEntity
  8
DETAIL_HIGH
100
AcDbText
 10
405.0
 20
-122.5
 30
0.0
 40
10.0
  1
en
100
AcDbText
  0
INSERT
  5
BE6829408664C7D2
100
AcDbEntity
  8
DETAIL_MEDIUM
  6
CONTINUOUS
100
AcDbBlockReference
  2
IO_YGR_REG_ASYNC
 10
430.0
 20
-150.0
 30
0.0
  0
POLYLINE
  5
BE6829408664C7D3
100
AcDbEntity
  8
DETAIL_MEDIUM
  6
CONTINUOUS
100
AcDb2dPolyline
 66
     1
 10
0.0
 20
0.0
 30
0.0
 70
     1
  0
VERTEX
  5
DF3414A0433D88FB
100
AcDbEntity
  8
DETAIL_MEDIUM
  6
CONTINUOUS
100
AcDbVertex
100
AcDb2dVertex
 10
400.0
 20
-20.0
 30
0.0
  0
VERTEX
  5
DF3414A0433D88FC
100
AcDbEntity
  8
DETAIL_MEDIUM
  6
CONTINUOUS
100
AcDbVertex
100
AcDb2dVertex
 10
480.0
 20
-20.0
 30
0.0
  0
VERTEX
  5
DF3414A0433D88FD
100
AcDbEntity
  8
DETAIL_MEDIUM
  6
CONTINUOUS
100
AcDbVertex
100
AcDb2dVertex
 10
480.0
 20
-150.0
 30
0.0
  0
VERTEX
  5
DF3414A0433D88FE
100
AcDbEntity
  8
DETAIL_MEDIUM
  6
CONTINUOUS
100
AcDbVertex
100
AcDb2dVertex
 10
400.0
 20
-150.0
 30
0.0
  0
SEQEND
  5
DF3414A0433D88FF
100
AcDbEntity
  8
DETAIL_MEDIUM
  6
CONTINUOUS
  0
ATTDEF
  5
BE6829408664C7D4
100
AcDbEntity
  8
DETAIL_MEDIUM
  6
CONTINUOUS
100
AcDbText
 10
430.0
 20
-90.0
 30
0.0
 40
10.0
  1
0
  7
SIMPLEX
100
AcDbAttributeDefinition
  3

  2
index
 70
     0
  0
ENDBLK
  5
BE6829408664C7D7
100
AcDbEntity
  8
DETAIL_MEDIUM
  6
CONTINUOUS
100
AcDbBlockEnd
  0
BLOCK
  5
DF3414A0435DC5D6
100
AcDbEntity
  8
DETAIL_MEDIUM
  6
CONTINUOUS
100
AcDbBlockBegin
  2
IO_YGR_DELAY_CHAIN
 70
     2
 10
890.0
 20
-370.0
 30
0.0
  1

  0
POLYLINE
  5
DF3414A0435DC5C6
100
AcDbEntity
  8
DETAIL_MEDIUM
  6
CONTINUOUS
100
AcDb2dPolyline
 66
     1
 10
0.0
 20
0.0
 30
0.0
 70
     1
  0
VERTEX
  5
DF3414A0435DC5C7
100
AcDbEntity
  8
DETAIL_MEDIUM
  6
CONTINUOUS
100
AcDbVertex
100
AcDb2dVertex
 10
970.0
 20
-360.0
 30
0.0
  0
VERTEX
  5
DF3414A0435DC5C8
100
AcDbEntity
  8
DETAIL_MEDIUM
  6
CONTINUOUS
100
AcDbVertex
100
AcDb2dVertex
 10
890.0
 20
-360.0
 30
0.0
  0
VERTEX
  5
DF3414A0435DC5C9
100
AcDbEntity
  8
DETAIL_MEDIUM
  6
CONTINUOUS
100
AcDbVertex
100
AcDb2dVertex
 10
890.0
 20
-320.0
 30
0.0
  0
VERTEX
  5
DF3414A0435DC5CA
100
AcDbEntity
  8
DETAIL_MEDIUM
  6
CONTINUOUS
100
AcDbVertex
100
AcDb2dVertex
 10
970.0
 20
-320.0
 30
0.0
  0
SEQEND
  5
DF3414A0435DC5CB
100
AcDbEntity
  8
DETAIL_MEDIUM
  6
CONTINUOUS
  0
LINE
  5
DF3414A0435DC5CC
100
AcDbEntity
  8
DETAIL_HIGH
  6
CONTINUOUS
100
AcDbLine
 10
940.0
 20
-330.0
 30
0.0
 11
940.0
 21
-350.0
 31
0.0
  0
LINE
  5
DF3414A0435DC5CD
100
AcDbEntity
  8
DETAIL_HIGH
  6
CONTINUOUS
100
AcDbLine
 10
930.0
 20
-330.0
 30
0.0
 11
950.0
 21
-330.0
 31
0.0
  0
POLYLINE
  5
DF3414A0435DC5CE
100
AcDbEntity
  8
DETAIL_HIGH
  6
CONTINUOUS
100
AcDb2dPolyline
 66
     1
 10
0.0
 20
0.0
 30
0.0
  0
VERTEX
  5
DF3414A0435DC5CF
100
AcDbEntity
  8
DETAIL_HIGH
  6
CONTINUOUS
100
AcDbVertex
100
AcDb2dVertex
 10
910.0
 20
-350.0
 30
0.0
  0
VERTEX
  5
DF3414A0435DC5D0
100
AcDbEntity
  8
DETAIL_HIGH
  6
CONTINUOUS
100
AcDbVertex
100
AcDb2dVertex
 10
920.0
 20
-340.0
 30
0.0
  0
VERTEX
  5
DF3414A0435DC5D1
100
AcDbEntity
  8
DETAIL_HIGH
  6
CONTINUOUS
100
AcDbVertex
100
AcDb2dVertex
 10
930.0
 20
-350.0
 30
0.0
  0
VERTEX
  5
DF3414A0435DC5D2
100
AcDbEntity
  8
DETAIL_HIGH
  6
CONTINUOUS
100
AcDbVertex
100
AcDb2dVertex
 10
910.0
 20
-350.0
 30
0.0
  0
SEQEND
  5
DF3414A0435DC5D3
100
AcDbEntity
  8
DETAIL_HIGH
  6
CONTINUOUS
  0
ATTDEF
  5
DF3414A0435DC5D4
100
AcDbEntity
  8
DETAIL_MEDIUM
  6
CONTINUOUS
100
AcDbText
 10
960.0
 20
-360.0
 30
0.0
 40
10.0
  1

  7
SIMPLEX
100
AcDbAttributeDefinition
  3

  2
index
 70
     0
  0
ATTDEF
  5
DF3414A0435DC5D5
100
AcDbEntity
  8
DETAIL_MEDIUM
  6
CONTINUOUS
100
AcDbText
 10
900.0
 20
-370.0
 30
0.0
 40
10.0
  1

  7
SIMPLEX
100
AcDbAttributeDefinition
  3

  2
name
 70
     0
  0
ENDBLK
  5
DF3414A0435DC5D7
100
AcDbEntity
  8
DETAIL_MEDIUM
  6
CONTINUOUS
100
AcDbBlockEnd
  0
BLOCK
  5
DF341C4F7DECE1D0
100
AcDbEntity
  8
PORTS
  6
CONTINUOUS
100
AcDbBlockBegin
  2
IO_YGR_OE
 70
     2
 10
0.0
 20
0.0
 30
0.0
  1

  0
POLYLINE
  5
DF341C4F7DECE1C5
100
AcDbEntity
  8
PORTS
  6
CONTINUOUS
100
AcDb2dPolyline
 66
     1
 10
0.0
 20
0.0
 30
0.0
 70
     1
  0
VERTEX
  5
DF341C4F7DECE1C6
100
AcDbEntity
  8
PORTS
  6
CONTINUOUS
100
AcDbVertex
100
AcDb2dVertex
 10
90.0
 20
-90.0
 30
0.0
  0
VERTEX
  5
DF341C4F7DECE1C7
100
AcDbEntity
  8
PORTS
  6
CONTINUOUS
100
AcDbVertex
100
AcDb2dVertex
 10
82.0
 20
-96.0
 30
0.0
  0
VERTEX
  5
DF341C4F7DECE1C8
100
AcDbEntity
  8
PORTS
  6
CONTINUOUS
100
AcDbVertex
100
AcDb2dVertex
 10
10.0
 20
-96.0
 30
0.0
  0
VERTEX
  5
DF341C4F7DECE1C9
100
AcDbEntity
  8
PORTS
  6
CONTINUOUS
100
AcDbVertex
100
AcDb2dVertex
 10
10.0
 20
-84.0
 30
0.0
  0
VERTEX
  5
DF341C4F7DECE1CA
100
AcDbEntity
  8
PORTS
  6
CONTINUOUS
100
AcDbVertex
100
AcDb2dVertex
 10
82.0
 20
-84.0
 30
0.0
  0
VERTEX
  5
DF341C4F7DECE1CB
100
AcDbEntity
  8
PORTS
  6
CONTINUOUS
100
AcDbVertex
100
AcDb2dVertex
 10
90.0
 20
-90.0
 30
0.0
  0
SEQEND
  5
DF341C4F7DECE1CC
100
AcDbEntity
  8
PORTS
  6
CONTINUOUS
  0
ATTDEF
  5
DF341C4F7DECE1CE
100
AcDbEntity
  8
PORTS
  6
CONTINUOUS
100
AcDbText
 10
12.0
 20
-78.0
 30
0.0
 40
10.0
  1

  7
SIMPLEX
100
AcDbAttributeDefinition
  3

  2
SIDE
 70
     0
  0
POINT
  5
DF341C4F7DECE1CD
100
AcDbEntity
  8
PORTS
  6
CONTINUOUS
100
AcDbPoint
 10
90.0
 20
-90.0
 30
0.0
  0
ENDBLK
  5
DF341C4F7DECE1D1
100
AcDbEntity
  8
PORTS
  6
CONTINUOUS
100
AcDbBlockEnd
  0
BLOCK
  5
DF350A879784D7B1
100
AcDbEntity
  8
PORTS
  6
CONTINUOUS
100
AcDbBlockBegin
  2
IO_YGR_CLKOUT
 70
     2
 10
0.0
 20
0.0
 30
0.0
  1

  0
ATTDEF
  5
DF350A879784D7AB
100
AcDbEntity
  8
PORTS
  6
CONTINUOUS
100
AcDbText
 10
12.0
 20
-118.0
 30
0.0
 40
10.0
  1

  7
SIMPLEX
100
AcDbAttributeDefinition
  3

  2
SIDE
 70
     0
  0
POLYLINE
  5
DF350A879784D7A3
100
AcDbEntity
  8
PORTS
  6
CONTINUOUS
100
AcDb2dPolyline
 66
     1
 10
0.0
 20
0.0
 30
0.0
 70
     1
  0
VERTEX
  5
DF350A879784D7A4
100
AcDbEntity
  8
PORTS
  6
CONTINUOUS
100
AcDbVertex
100
AcDb2dVertex
 10
90.0
 20
-130.0
 30
0.0
  0
VERTEX
  5
DF350A879784D7A5
100
AcDbEntity
  8
PORTS
  6
CONTINUOUS
100
AcDbVertex
100
AcDb2dVertex
 10
82.0
 20
-136.0
 30
0.0
  0
VERTEX
  5
DF350A879784D7A6
100
AcDbEntity
  8
PORTS
  6
CONTINUOUS
100
AcDbVertex
100
AcDb2dVertex
 10
10.0
 20
-136.0
 30
0.0
  0
VERTEX
  5
DF350A879784D7A7
100
AcDbEntity
  8
PORTS
  6
CONTINUOUS
100
AcDbVertex
100
AcDb2dVertex
 10
10.0
 20
-124.0
 30
0.0
  0
VERTEX
  5
DF350A879784D7A8
100
AcDbEntity
  8
PORTS
  6
CONTINUOUS
100
AcDbVertex
100
AcDb2dVertex
 10
82.0
 20
-124.0
 30
0.0
  0
VERTEX
  5
DF350A879784D7A9
100
AcDbEntity
  8
PORTS
  6
CONTINUOUS
100
AcDbVertex
100
AcDb2dVertex
 10
90.0
 20
-130.0
 30
0.0
  0
SEQEND
  5
DF350A879784D7AA
100
AcDbEntity
  8
PORTS
  6
CONTINUOUS
  0
POINT
  5
DF350A879784D7AC
100
AcDbEntity
  8
PORTS
  6
CONTINUOUS
100
AcDbPoint
 10
90.0
 20
-130.0
 30
0.0
  0
ENDBLK
  5
DF350A879784D7B2
100
AcDbEntity
  8
PORTS
  6
CONTINUOUS
100
AcDbBlockEnd
  0
BLOCK
  5
E02438880FE2E6EA
100
AcDbEntity
  8
DETAIL_MEDIUM
  6
CONTINUOUS
100
AcDbBlockBegin
  2
IO_YGR_DDR_CLKOUT
 70
     0
 10
0.0
 20
0.0
 30
0.0
  1

  0
LINE
  5
E02438880FE2E6E8
100
AcDbEntity
  8
DETAIL_MEDIUM
  6
CONTINUOUS
100
AcDbLine
 10
370.0
 20
-332.0
 30
0.0
 11
398.0
 21
-332.0
 31
0.0
  0
CIRCLE
  5
E02438880FE2E6E7
100
AcDbEntity
  8
DETAIL_MEDIUM
  6
CONTINUOUS
100
AcDbCircle
 10
404.0
 20
-333.0
 30
0.0
 40
5.656854
  0
ENDBLK
  5
E02438880FE2E6EB
100
AcDbEntity
  8
DETAIL_MEDIUM
  6
CONTINUOUS
100
AcDbBlockEnd
  0
BLOCK
  5
DF3414A0433D85D3
100
AcDbEntity
  8
DETAIL_MEDIUM
  6
CONTINUOUS
100
AcDbBlockBegin
  2
IO_YGR_REG_0_BYPASS
 70
     0
 10
360.0
 20
-40.0
 30
0.0
  1

  0
LINE
  5
DF3414A04332639C
100
AcDbEntity
  8
DETAIL_MEDIUM
  6
CONTINUOUS
100
AcDbLine
 10
360.0
 20
-40.0
 30
0.0
 11
360.0
 21
-10.0
 31
0.0
  0
LINE
  5
DF3414A04332639D
100
AcDbEntity
  8
DETAIL_MEDIUM
  6
CONTINUOUS
100
AcDbLine
 10
360.0
 20
-10.0
 30
0.0
 11
670.0
 21
-10.0
 31
0.0
  0
ENDBLK
  5
DF3414A0433D85D5
100
AcDbEntity
  8
DETAIL_MEDIUM
  6
CONTINUOUS
100
AcDbBlockEnd
  0
BLOCK
  5
DF37EC3D945ACDE5
100
AcDbEntity
  8
PORTS
  6
CONTINUOUS
100
AcDbBlockBegin
  2
IO_YGR_CEOUT
 70
     2
 10
0.0
 20
0.0
 30
0.0
  1

  0
ATTDEF
  5
DF37EC3D945ACDD7
100
AcDbEntity
  8
PORTS
  6
CONTINUOUS
100
AcDbText
 10
12.0
 20
-158.0
 30
0.0
 40
10.0
  1

  7
SIMPLEX
100
AcDbAttributeDefinition
  3

  2
SIDE
 70
     0
  0
POLYLINE
  5
DF37EC3D945ACDD8
100
AcDbEntity
  8
PORTS
  6
CONTINUOUS
100
AcDb2dPolyline
 66
     1
 10
0.0
 20
0.0
 30
0.0
 70
     1
  0
VERTEX
  5
DF37EC3D945ACDD9
100
AcDbEntity
  8
PORTS
  6
CONTINUOUS
100
AcDbVertex
100
AcDb2dVertex
 10
90.0
 20
-170.0
 30
0.0
  0
VERTEX
  5
DF37EC3D945ACDDA
100
AcDbEntity
  8
PORTS
  6
CONTINUOUS
100
AcDbVertex
100
AcDb2dVertex
 10
82.0
 20
-176.0
 30
0.0
  0
VERTEX
  5
DF37EC3D945ACDDB
100
AcDbEntity
  8
PORTS
  6
CONTINUOUS
100
AcDbVertex
100
AcDb2dVertex
 10
10.0
 20
-176.0
 30
0.0
  0
VERTEX
  5
DF37EC3D945ACDDC
100
AcDbEntity
  8
PORTS
  6
CONTINUOUS
100
AcDbVertex
100
AcDb2dVertex
 10
10.0
 20
-164.0
 30
0.0
  0
VERTEX
  5
DF37EC3D945ACDDD
100
AcDbEntity
  8
PORTS
  6
CONTINUOUS
100
AcDbVertex
100
AcDb2dVertex
 10
82.0
 20
-164.0
 30
0.0
  0
VERTEX
  5
DF37EC3D945ACDDE
100
AcDbEntity
  8
PORTS
  6
CONTINUOUS
100
AcDbVertex
100
AcDb2dVertex
 10
90.0
 20
-170.0
 30
0.0
  0
SEQEND
  5
DF37EC3D945ACDDF
100
AcDbEntity
  8
PORTS
  6
CONTINUOUS
  0
POINT
  5
DF37EC3D945ACDE0
100
AcDbEntity
  8
PORTS
  6
CONTINUOUS
100
AcDbPoint
 10
90.0
 20
-170.0
 30
0.0
  0
ENDBLK
  5
DF37EC3D945ACDE6
100
AcDbEntity
  8
PORTS
  6
CONTINUOUS
100
AcDbBlockEnd
  0
BLOCK
  5
DF3BC3DAE57815FB
100
AcDbEntity
  8
DETAIL_MEDIUM
  6
CONTINUOUS
100
AcDbBlockBegin
  2
IO_YGR_REG_0_EN
 70
     0
 10
0.0
 20
0.0
 30
0.0
  1

  0
LINE
  5
DF3BC3DAE57815F9
100
AcDbEntity
  8
DETAIL_MEDIUM
  6
CONTINUOUS
100
AcDbLine
 10
320.0
 20
-170.0
 30
0.0
 11
400.0
 21
-170.0
 31
0.0
  0
ENDBLK
  5
DF3BC3DAE57815FC
100
AcDbEntity
  8
DETAIL_MEDIUM
  6
CONTINUOUS
100
AcDbBlockEnd
  0
BLOCK
  5
DF3414A0433D85E1
100
AcDbEntity
  8
DETAIL_MEDIUM
  6
CONTINUOUS
100
AcDbBlockBegin
  2
IO_YGR_REG_1_EN
 70
     0
 10
320.0
 20
-310.0
 30
0.0
  1

  0
LINE
  5
DF3414A0433262C5
100
AcDbEntity
  8
DETAIL_MEDIUM
  6
CONTINUOUS
100
AcDbLine
 10
320.0
 20
-120.0
 30
0.0
 11
320.0
 21
-310.0
 31
0.0
  0
LINE
  5
DF3414A0433D85B7
100
AcDbEntity
  8
DETAIL_MEDIUM
  6
CONTINUOUS
100
AcDbLine
 10
320.0
 20
-310.0
 30
0.0
 11
400.0
 21
-310.0
 31
0.0
  0
ENDBLK
  5
DF3414A0433D85E3
100
AcDbEntity
  8
DETAIL_MEDIUM
  6
CONTINUOUS
100
AcDbBlockEnd
  0
BLOCK
  5
DF3414A0433D85E8
100
AcDbEntity
  8
DETAIL_MEDIUM
  6
CONTINUOUS
100
AcDbBlockBegin
  2
IO_YGR_REG_0_ACLR
 70
     0
 10
340.0
 20
-360.0
 30
0.0
  1

  0
LINE
  5
DF2FDC573EC57D70
100
AcDbEntity
  8
DETAIL_MEDIUM
  6
CONTINUOUS
100
AcDbLine
 10
440.0
 20
-150.0
 30
0.0
 11
440.0
 21
-170.0
 31
0.0
  0
LINE
  5
DF3414A04332628A
100
AcDbEntity
  8
DETAIL_MEDIUM
  6
CONTINUOUS
100
AcDbLine
 10
440.0
 20
-170.0
 30
0.0
 11
340.0
 21
-170.0
 31
0.0
  0
LINE
  5
DF3414A0433D85E5
100
AcDbEntity
  8
DETAIL_MEDIUM
  6
CONTINUOUS
100
AcDbLine
 10
340.0
 20
-170.0
 30
0.0
 11
340.0
 21
-360.0
 31
0.0
  0
ENDBLK
  5
DF3414A0433D85EA
100
AcDbEntity
  8
DETAIL_MEDIUM
  6
CONTINUOUS
100
AcDbBlockEnd
  0
BLOCK
  5
DF3414A0433D85EC
100
AcDbEntity
  8
DETAIL_MEDIUM
  6
CONTINUOUS
100
AcDbBlockBegin
  2
IO_YGR_REG_1_ACLR
 70
     0
 10
340.0
 20
-360.0
 30
0.0
  1

  0
LINE
  5
DF2FFF304F6E29FC
100
AcDbEntity
  8
DETAIL_MEDIUM
  6
CONTINUOUS
100
AcDbLine
 10
440.0
 20
-340.0
 30
0.0
 11
440.0
 21
-360.0
 31
0.0
  0
LINE
  5
DF2FBBA349845139
100
AcDbEntity
  8
DETAIL_MEDIUM
  6
CONTINUOUS
100
AcDbLine
 10
440.0
 20
-360.0
 30
0.0
 11
340.0
 21
-360.0
 31
0.0
  0
ENDBLK
  5
DF3414A0433D85EE
100
AcDbEntity
  8
DETAIL_MEDIUM
  6
CONTINUOUS
100
AcDbBlockEnd
  0
BLOCK
  5
DF3414DDBD980AEC
100
AcDbEntity
  8
DETAIL_MEDIUM
  6
CONTINUOUS
100
AcDbBlockBegin
  2
IO_YGR_REG_2_ACLR
 70
     0
 10
0.0
 20
0.0
 30
0.0
  1

  0
LINE
  5
DF3414DDBD980AEA
100
AcDbEntity
  8
DETAIL_MEDIUM
  6
CONTINUOUS
100
AcDbLine
 10
440.0
 20
-630.0
 30
0.0
 11
340.0
 21
-630.0
 31
0.0
  0
LINE
  5
DF3414DDBD980AEB
100
AcDbEntity
  8
DETAIL_MEDIUM
  6
CONTINUOUS
100
AcDbLine
 10
440.0
 20
-610.0
 30
0.0
 11
440.0
 21
-630.0
 31
0.0
  0
ENDBLK
  5
DF3414DDBD980AED
100
AcDbEntity
  8
DETAIL_MEDIUM
  6
CONTINUOUS
100
AcDbBlockEnd
  0
BLOCK
  5
DF3414A0433D8601
100
AcDbEntity
  8
DETAIL_MEDIUM
  6
CONTINUOUS
100
AcDbBlockBegin
  2
IO_YGR_REG_3_ON_ACLR
 70
     0
 10
340.0
 20
-820.0
 30
0.0
  1

  0
LINE
  5
DF3414A0433D85F1
100
AcDbEntity
  8
DETAIL_MEDIUM
  6
CONTINUOUS
100
AcDbLine
 10
340.0
 20
-580.0
 30
0.0
 11
340.0
 21
-820.0
 31
0.0
  0
LINE
  5
DF3414A0433D85FC
100
AcDbEntity
  8
DETAIL_MEDIUM
  6
CONTINUOUS
100
AcDbLine
 10
340.0
 20
-820.0
 30
0.0
 11
440.0
 21
-820.0
 31
0.0
  0
ENDBLK
  5
DF3414A0433D8603
100
AcDbEntity
  8
DETAIL_MEDIUM
  6
CONTINUOUS
100
AcDbBlockEnd
  0
BLOCK
  5
DF3414A0433D8605
100
AcDbEntity
  8
DETAIL_MEDIUM
  6
CONTINUOUS
100
AcDbBlockBegin
  2
IO_YGR_REG_3_ACLR
 70
     0
 10
440.0
 20
-820.0
 30
0.0
  1

  0
LINE
  5
DF30D046B3623544
100
AcDbEntity
  8
DETAIL_MEDIUM
  6
CONTINUOUS
100
AcDbLine
 10
440.0
 20
-750.0
 30
0.0
 11
440.0
 21
-820.0
 31
0.0
  0
ENDBLK
  5
DF3414A0433D8607
100
AcDbEntity
  8
DETAIL_MEDIUM
  6
CONTINUOUS
100
AcDbBlockEnd
  0
BLOCK
  5
DF3414BF006AC867
100
AcDbEntity
  8
DETAIL_MEDIUM
  6
CONTINUOUS
100
AcDbBlockBegin
  2
IO_YGR_REG_4_ACLR
 70
     0
 10
0.0
 20
0.0
 30
0.0
  1

  0
LINE
  5
DF3414BF006AC865
100
AcDbEntity
  8
DETAIL_MEDIUM
  6
CONTINUOUS
100
AcDbLine
 10
1150.0
 20
-870.0
 30
0.0
 11
1220.0
 21
-870.0
 31
0.0
  0
LINE
  5
DF3414BF006AC866
100
AcDbEntity
  8
DETAIL_MEDIUM
  6
CONTINUOUS
100
AcDbLine
 10
440.0
 20
-870.0
 30
0.0
 11
1150.0
 21
-870.0
 31
0.0
  0
ENDBLK
  5
DF3414BF006AC868
100
AcDbEntity
  8
DETAIL_MEDIUM
  6
CONTINUOUS
100
AcDbBlockEnd
  0
BLOCK
  5
DF3414A0433D8618
100
AcDbEntity
  8
DETAIL_MEDIUM
  6
CONTINUOUS
100
AcDbBlockBegin
  2
IO_YGR_REG_56_ACLR
 70
     0
 10
1150.0
 20
-820.0
 30
0.0
  1

  0
LINE
  5
DF3414A0433D85F9
100
AcDbEntity
  8
DETAIL_MEDIUM
  6
CONTINUOUS
100
AcDbLine
 10
1150.0
 20
-750.0
 30
0.0
 11
1150.0
 21
-820.0
 31
0.0
  0
LINE
  5
DF3414A0433D8612
100
AcDbEntity
  8
DETAIL_MEDIUM
  6
CONTINUOUS
100
AcDbLine
 10
1220.0
 20
-820.0
 30
0.0
 11
1310.0
 21
-820.0
 31
0.0
  0
LINE
  5
DF3414A0433D85F7
100
AcDbEntity
  8
DETAIL_MEDIUM
  6
CONTINUOUS
100
AcDbLine
 10
1310.0
 20
-820.0
 30
0.0
 11
1310.0
 21
-750.0
 31
0.0
  0
ENDBLK
  5
DF3414A0433D861A
100
AcDbEntity
  8
DETAIL_MEDIUM
  6
CONTINUOUS
100
AcDbBlockEnd
  0
BLOCK
  5
DF3414A0433D8620
100
AcDbEntity
  8
DETAIL_MEDIUM
  6
CONTINUOUS
100
AcDbBlockBegin
  2
IO_YGR_REG_0_SCLR
 70
     0
 10
120.0
 20
-310.0
 30
0.0
  1

  0
LINE
  5
DF3414A0433263A0
100
AcDbEntity
  8
DETAIL_MEDIUM
  6
CONTINUOUS
100
AcDbLine
 10
440.0
 20
10.0
 30
0.0
 11
120.0
 21
10.0
 31
0.0
  0
LINE
  5
DF3414A04332639F
100
AcDbEntity
  8
DETAIL_MEDIUM
  6
CONTINUOUS
100
AcDbLine
 10
440.0
 20
-20.0
 30
0.0
 11
440.0
 21
10.0
 31
0.0
  0
LINE
  5
DF3414A0433D861C
100
AcDbEntity
  8
DETAIL_MEDIUM
  6
CONTINUOUS
100
AcDbLine
 10
120.0
 20
10.0
 30
0.0
 11
120.0
 21
-310.0
 31
0.0
  0
ENDBLK
  5
DF3414A0433D8622
100
AcDbEntity
  8
DETAIL_MEDIUM
  6
CONTINUOUS
100
AcDbBlockEnd
  0
BLOCK
  5
DF3414A7F288D7A3
100
AcDbEntity
  8
DETAIL_MEDIUM
  6
CONTINUOUS
100
AcDbBlockBegin
  2
IO_YGR_REG_24_OR_5_SCLR
 70
     0
 10
0.0
 20
0.0
 30
0.0
  1

  0
LINE
  5
DF3414A7F288D7A2
100
AcDbEntity
  8
DETAIL_MEDIUM
  6
CONTINUOUS
100
AcDbLine
 10
120.0
 20
-430.0
 30
0.0
 11
440.0
 21
-430.0
 31
0.0
  0
ENDBLK
  5
DF3414A7F288D7A4
100
AcDbEntity
  8
DETAIL_MEDIUM
  6
CONTINUOUS
100
AcDbBlockEnd
  0
BLOCK
  5
DF3414A0433D862B
100
AcDbEntity
  8
DETAIL_MEDIUM
  6
CONTINUOUS
100
AcDbBlockBegin
  2
IO_YGR_REG_2_SCLR
 70
     0
 10
440.0
 20
-430.0
 30
0.0
  1

  0
LINE
  5
DF3414A0433263A7
100
AcDbEntity
  8
DETAIL_MEDIUM
  6
CONTINUOUS
100
AcDbLine
 10
440.0
 20
-380.0
 30
0.0
 11
440.0
 21
-430.0
 31
0.0
  0
ENDBLK
  5
DF3414A0433D862D
100
AcDbEntity
  8
DETAIL_MEDIUM
  6
CONTINUOUS
100
AcDbBlockEnd
  0
BLOCK
  5
DF3414A41AE32EDD
100
AcDbEntity
  8
DETAIL_MEDIUM
  6
CONTINUOUS
100
AcDbBlockBegin
  2
IO_YGR_REG_4_SCLR
 70
     0
 10
0.0
 20
0.0
 30
0.0
  1

  0
LINE
  5
DF3414A41AE32EDB
100
AcDbEntity
  8
DETAIL_MEDIUM
  6
CONTINUOUS
100
AcDbLine
 10
440.0
 20
-430.0
 30
0.0
 11
1150.0
 21
-430.0
 31
0.0
  0
ENDBLK
  5
DF3414A41AE32EDE
100
AcDbEntity
  8
DETAIL_MEDIUM
  6
CONTINUOUS
100
AcDbBlockEnd
  0
BLOCK
  5
DF3414A0433D8633
100
AcDbEntity
  8
DETAIL_MEDIUM
  6
CONTINUOUS
100
AcDbBlockBegin
  2
IO_YGR_REG_5_SCLR
 70
     0
 10
1150.0
 20
-620.0
 30
0.0
  1

  0
LINE
  5
DF3414A0433263B2
100
AcDbEntity
  8
DETAIL_MEDIUM
  6
CONTINUOUS
100
AcDbLine
 10
1150.0
 20
-380.0
 30
0.0
 11
1240.0
 21
-380.0
 31
0.0
  0
LINE
  5
DF3414A0433263B3
100
AcDbEntity
  8
DETAIL_MEDIUM
  6
CONTINUOUS
100
AcDbLine
 10
1240.0
 20
-380.0
 30
0.0
 11
1240.0
 21
-600.0
 31
0.0
  0
LINE
  5
DF3414A0433263B4
100
AcDbEntity
  8
DETAIL_MEDIUM
  6
CONTINUOUS
100
AcDbLine
 10
1240.0
 20
-600.0
 30
0.0
 11
1150.0
 21
-600.0
 31
0.0
  0
LINE
  5
DF3414A0433263B5
100
AcDbEntity
  8
DETAIL_MEDIUM
  6
CONTINUOUS
100
AcDbLine
 10
1150.0
 20
-600.0
 30
0.0
 11
1150.0
 21
-620.0
 31
0.0
  0
ENDBLK
  5
DF3414A0433D8635
100
AcDbEntity
  8
DETAIL_MEDIUM
  6
CONTINUOUS
100
AcDbBlockEnd
  0
BLOCK
  5
DF3414A0433D8637
100
AcDbEntity
  8
DETAIL_MEDIUM
  6
CONTINUOUS
100
AcDbBlockBegin
  2
IO_YGR_REG_3_SCLR
 70
     0
 10
120.0
 20
-620.0
 30
0.0
  1

  0
LINE
  5
DF3414A0433263AD
100
AcDbEntity
  8
DETAIL_MEDIUM
  6
CONTINUOUS
100
AcDbLine
 10
120.0
 20
-600.0
 30
0.0
 11
440.0
 21
-600.0
 31
0.0
  0
LINE
  5
DF3414A0433263AE
100
AcDbEntity
  8
DETAIL_MEDIUM
  6
CONTINUOUS
100
AcDbLine
 10
440.0
 20
-600.0
 30
0.0
 11
440.0
 21
-620.0
 31
0.0
  0
LINE
  5
DF3414A0433D861E
100
AcDbEntity
  8
DETAIL_MEDIUM
  6
CONTINUOUS
100
AcDbLine
 10
120.0
 20
-380.0
 30
0.0
 11
120.0
 21
-600.0
 31
0.0
  0
ENDBLK
  5
DF3414A0433D8639
100
AcDbEntity
  8
DETAIL_MEDIUM
  6
CONTINUOUS
100
AcDbBlockEnd
  0
BLOCK
  5
DF43731587B2A5C5
100
AcDbEntity
  8
DETAIL_MEDIUM
  6
CONTINUOUS
100
AcDbBlockBegin
  2
IO_YGR_REG_2_EN
 70
     0
 10
0.0
 20
0.0
 30
0.0
  1

  0
LINE
  5
DF43731587B2A5C3
100
AcDbEntity
  8
DETAIL_MEDIUM
  6
CONTINUOUS
100
AcDbLine
 10
320.0
 20
-580.0
 30
0.0
 11
400.0
 21
-580.0
 31
0.0
  0
ENDBLK
  5
DF43731587B2A5C6
100
AcDbEntity
  8
DETAIL_MEDIUM
  6
CONTINUOUS
100
AcDbBlockEnd
  0
BLOCK
  5
DF3414A0433D863F
100
AcDbEntity
  8
DETAIL_MEDIUM
  6
CONTINUOUS
100
AcDbBlockBegin
  2
IO_YGR_REG_3_EN
 70
     0
 10
320.0
 20
-720.0
 30
0.0
  1

  0
LINE
  5
DF3414A0433D85C1
100
AcDbEntity
  8
DETAIL_MEDIUM
  6
CONTINUOUS
100
AcDbLine
 10
320.0
 20
-720.0
 30
0.0
 11
400.0
 21
-720.0
 31
0.0
  0
LINE
  5
DF3414A0433262E9
100
AcDbEntity
  8
DETAIL_MEDIUM
  6
CONTINUOUS
100
AcDbLine
 10
320.0
 20
-720.0
 30
0.0
 11
320.0
 21
-530.0
 31
0.0
  0
ENDBLK
  5
DF3414A0433D8641
100
AcDbEntity
  8
DETAIL_MEDIUM
  6
CONTINUOUS
100
AcDbBlockEnd
  0
BLOCK
  5
DF34521A184F5B53
100
AcDbEntity
  8
PORTS
  6
CONTINUOUS
100
AcDbBlockBegin
  2
IO_YGR_DIN_0
 70
     2
 10
0.0
 20
0.0
 30
0.0
  1

  0
ATTDEF
  5
DF34521A184F5B52
100
AcDbEntity
  8
PORTS
  6
CONTINUOUS
100
AcDbText
 10
12.0
 20
-488.0
 30
0.0
 40
10.0
  1

  7
SIMPLEX
100
AcDbAttributeDefinition
  3

  2
SIDE
 70
     0
  0
POLYLINE
  5
DF34521A184F5B49
100
AcDbEntity
  8
PORTS
  6
CONTINUOUS
100
AcDb2dPolyline
 66
     1
 10
0.0
 20
0.0
 30
0.0
 70
     1
  0
VERTEX
  5
DF34521A184F5B4A
100
AcDbEntity
  8
PORTS
  6
CONTINUOUS
100
AcDbVertex
100
AcDb2dVertex
 10
90.0
 20
-500.0
 30
0.0
  0
VERTEX
  5
DF34521A184F5B4B
100
AcDbEntity
  8
PORTS
  6
CONTINUOUS
100
AcDbVertex
100
AcDb2dVertex
 10
82.0
 20
-506.0
 30
0.0
  0
VERTEX
  5
DF34521A184F5B4C
100
AcDbEntity
  8
PORTS
  6
CONTINUOUS
100
AcDbVertex
100
AcDb2dVertex
 10
10.0
 20
-506.0
 30
0.0
  0
VERTEX
  5
DF34521A184F5B4D
100
AcDbEntity
  8
PORTS
  6
CONTINUOUS
100
AcDbVertex
100
AcDb2dVertex
 10
10.0
 20
-494.0
 30
0.0
  0
VERTEX
  5
DF34521A184F5B4E
100
AcDbEntity
  8
PORTS
  6
CONTINUOUS
100
AcDbVertex
100
AcDb2dVertex
 10
82.0
 20
-494.0
 30
0.0
  0
VERTEX
  5
DF34521A184F5B4F
100
AcDbEntity
  8
PORTS
  6
CONTINUOUS
100
AcDbVertex
100
AcDb2dVertex
 10
90.0
 20
-500.0
 30
0.0
  0
SEQEND
  5
DF34521A184F5B50
100
AcDbEntity
  8
PORTS
  6
CONTINUOUS
  0
POINT
  5
DF34521A184F5B51
100
AcDbEntity
  8
PORTS
  6
CONTINUOUS
100
AcDbPoint
 10
90.0
 20
-500.0
 30
0.0
  0
ENDBLK
  5
DF34521A184F5B54
100
AcDbEntity
  8
PORTS
  6
CONTINUOUS
100
AcDbBlockEnd
  0
BLOCK
  5
DF348F93ED612EA9
100
AcDbEntity
  8
PORTS
  6
CONTINUOUS
100
AcDbBlockBegin
  2
IO_YGR_DIN_1
 70
     2
 10
0.0
 20
0.0
 30
0.0
  1

  0
ATTDEF
  5
DF348F93ED612EA3
100
AcDbEntity
  8
PORTS
  6
CONTINUOUS
100
AcDbText
 10
12.0
 20
-678.0
 30
0.0
 40
10.0
  1

 50
0.000019
  7
SIMPLEX
100
AcDbAttributeDefinition
  3

  2
SIDE
 70
     0
  0
POLYLINE
  5
DF348F93ED612E9A
100
AcDbEntity
  8
PORTS
  6
CONTINUOUS
100
AcDb2dPolyline
 66
     1
 10
0.0
 20
0.0
 30
0.0
 70
     1
  0
VERTEX
  5
DF348F93ED612E9B
100
AcDbEntity
  8
PORTS
  6
CONTINUOUS
100
AcDbVertex
100
AcDb2dVertex
 10
90.0
 20
-690.0
 30
0.0
  0
VERTEX
  5
DF348F93ED612E9C
100
AcDbEntity
  8
PORTS
  6
CONTINUOUS
100
AcDbVertex
100
AcDb2dVertex
 10
82.0
 20
-696.0
 30
0.0
  0
VERTEX
  5
DF348F93ED612E9D
100
AcDbEntity
  8
PORTS
  6
CONTINUOUS
100
AcDbVertex
100
AcDb2dVertex
 10
10.0
 20
-696.0
 30
0.0
  0
VERTEX
  5
DF348F93ED612E9E
100
AcDbEntity
  8
PORTS
  6
CONTINUOUS
100
AcDbVertex
100
AcDb2dVertex
 10
10.0
 20
-684.0
 30
0.0
  0
VERTEX
  5
DF348F93ED612E9F
100
AcDbEntity
  8
PORTS
  6
CONTINUOUS
100
AcDbVertex
100
AcDb2dVertex
 10
82.0
 20
-684.0
 30
0.0
  0
VERTEX
  5
DF348F93ED612EA0
100
AcDbEntity
  8
PORTS
  6
CONTINUOUS
100
AcDbVertex
100
AcDb2dVertex
 10
90.0
 20
-690.0
 30
0.0
  0
SEQEND
  5
DF348F93ED612EA1
100
AcDbEntity
  8
PORTS
  6
CONTINUOUS
  0
POINT
  5
DF348F93ED612EA2
100
AcDbEntity
  8
PORTS
  6
CONTINUOUS
100
AcDbPoint
 10
90.0
 20
-690.0
 30
0.0
  0
ENDBLK
  5
DF348F93ED612EAA
100
AcDbEntity
  8
PORTS
  6
CONTINUOUS
100
AcDbBlockEnd
  0
BLOCK
  5
DF3414A0434EEDE7
100
AcDbEntity
  8
DETAIL_MEDIUM
  6
CONTINUOUS
100
AcDbBlockBegin
  2
IO_YGR_REG_2_BYPASS
 70
     0
 10
180.0
 20
-500.0
 30
0.0
  1

  0
LINE
  5
DF3414A0434EEDC5
100
AcDbEntity
  8
DETAIL_MEDIUM
  6
CONTINUOUS
100
AcDbLine
 10
180.0
 20
-460.0
 30
0.0
 11
640.0
 21
-460.0
 31
0.0
  0
LINE
  5
DF3414A043423309
100
AcDbEntity
  8
DETAIL_MEDIUM
  6
CONTINUOUS
100
AcDbLine
 10
180.0
 20
-500.0
 30
0.0
 11
180.0
 21
-460.0
 31
0.0
  0
ENDBLK
  5
DF3414A0434EEDE8
100
AcDbEntity
  8
DETAIL_MEDIUM
  6
CONTINUOUS
100
AcDbBlockEnd
  0
BLOCK
  5
FD389199B6EF4F41
100
AcDbEntity
  8
DETAIL_MEDIUM
  6
CONTINUOUS
100
AcDbBlockBegin
  2
IO_YGR_REG_2_USED
 70
     0
 10
0.0
 20
0.0
 30
0.0
  1

  0
LINE
  5
FD389199B6EF4E30
100
AcDbEntity
  8
DETAIL_MEDIUM
  6
CONTINUOUS
100
AcDbLine
 10
627.0
 20
-493.0
 30
0.0
 11
647.0
 21
-493.0
 31
0.0
  0
LINE
  5
FD389199B6EF4F33
100
AcDbEntity
  8
DETAIL_MEDIUM
  6
CONTINUOUS
100
AcDbLine
 10
547.0
 20
-493.0
 30
0.0
 11
527.0
 21
-493.0
 31
0.0
  0
LINE
  5
FD389199B6EF4F34
100
AcDbEntity
  8
DETAIL_MEDIUM
  6
CONTINUOUS
100
AcDbLine
 10
527.0
 20
-493.0
 30
0.0
 11
527.0
 21
-533.0
 31
0.0
  0
LINE
  5
FD389199B6EF4F35
100
AcDbEntity
  8
DETAIL_MEDIUM
  6
CONTINUOUS
100
AcDbLine
 10
527.0
 20
-533.0
 30
0.0
 11
577.0
 21
-533.0
 31
0.0
  0
LINE
  5
FD389199B6EF4F36
100
AcDbEntity
  8
DETAIL_MEDIUM
  6
CONTINUOUS
100
AcDbLine
 10
577.0
 20
-533.0
 30
0.0
 11
577.0
 21
-583.0
 31
0.0
  0
LINE
  5
FD389199B6EF4F37
100
AcDbEntity
  8
DETAIL_MEDIUM
  6
CONTINUOUS
100
AcDbLine
 10
557.0
 20
-583.0
 30
0.0
 11
577.0
 21
-583.0
 31
0.0
  0
POLYLINE
  5
FD389199B6EF4F38
100
AcDbEntity
  8
DETAIL_MEDIUM
100
AcDb2dPolyline
 66
     1
 10
0.0
 20
0.0
 30
0.0
 39
2.0
 70
     1
  0
VERTEX
  5
FD389199B6EF4F39
100
AcDbEntity
  8
DETAIL_MEDIUM
100
AcDbVertex
100
AcDb2dVertex
 10
527.0
 20
-553.0
 30
0.0
  0
VERTEX
  5
FD389199B6EF4F3A
100
AcDbEntity
  8
DETAIL_MEDIUM
100
AcDbVertex
100
AcDb2dVertex
 10
557.0
 20
-563.0
 30
0.0
  0
VERTEX
  5
FD389199B6EF4F3B
100
AcDbEntity
  8
DETAIL_MEDIUM
100
AcDbVertex
100
AcDb2dVertex
 10
557.0
 20
-603.0
 30
0.0
  0
VERTEX
  5
FD389199B6EF4F3C
100
AcDbEntity
  8
DETAIL_MEDIUM
100
AcDbVertex
100
AcDb2dVertex
 10
527.0
 20
-613.0
 30
0.0
  0
VERTEX
  5
FD389199B6EF4F3D
100
AcDbEntity
  8
DETAIL_MEDIUM
100
AcDbVertex
100
AcDb2dVertex
 10
527.0
 20
-553.0
 30
0.0
  0
SEQEND
  5
FD389199B6EF4F3E
100
AcDbEntity
  8
DETAIL_MEDIUM
  0
TEXT
  5
FD389199B6EF4F3F
100
AcDbEntity
  8
DETAIL_MEDIUM
  6
CONTINUOUS
100
AcDbText
 10
535.0
 20
-601.0
 30
0.0
 40
10.0
  1
0
  7
SIMPLEX
100
AcDbText
  0
TEXT
  5
FD389199B6EF4F40
100
AcDbEntity
  8
DETAIL_MEDIUM
  6
CONTINUOUS
100
AcDbText
 10
535.0
 20
-571.0
 30
0.0
 40
10.0
  1
1
  7
SIMPLEX
100
AcDbText
  0
ENDBLK
  5
FD389199B6EF4F42
100
AcDbEntity
  8
DETAIL_MEDIUM
  6
CONTINUOUS
100
AcDbBlockEnd
  0
BLOCK
  5
DF3423FEB88AD5ED
100
AcDbEntity
  8
DETAIL_MEDIUM
  6
CONTINUOUS
100
AcDbBlockBegin
  2
IO_YGR_BUFFER
 70
     0
 10
0.0
 20
0.0
 30
0.0
  1

  0
POLYLINE
  5
DF3423FEB88AD5E6
100
AcDbEntity
  8
DETAIL_MEDIUM
  6
CONTINUOUS
100
AcDb2dPolyline
 66
     1
 10
0.0
 20
0.0
 30
0.0
 70
     1
  0
VERTEX
  5
DF3423FEB88AD5E7
100
AcDbEntity
  8
DETAIL_MEDIUM
  6
CONTINUOUS
100
AcDbVertex
100
AcDb2dVertex
 10
700.0
 20
-610.0
 30
0.0
  0
VERTEX
  5
DF3423FEB88AD5E8
100
AcDbEntity
  8
DETAIL_MEDIUM
  6
CONTINUOUS
100
AcDbVertex
100
AcDb2dVertex
 10
700.0
 20
-570.0
 30
0.0
  0
VERTEX
  5
DF3423FEB88AD5E9
100
AcDbEntity
  8
DETAIL_MEDIUM
  6
CONTINUOUS
100
AcDbVertex
100
AcDb2dVertex
 10
740.0
 20
-590.0
 30
0.0
  0
VERTEX
  5
DF3423FEB88AD5EA
100
AcDbEntity
  8
DETAIL_MEDIUM
  6
CONTINUOUS
100
AcDbVertex
100
AcDb2dVertex
 10
700.0
 20
-610.0
 30
0.0
  0
SEQEND
  5
DF3423FEB88AD5EB
100
AcDbEntity
  8
DETAIL_MEDIUM
  6
CONTINUOUS
  0
LINE
  5
DF3423FEB88AD5EC
100
AcDbEntity
  8
DETAIL_MEDIUM
  6
CONTINUOUS
100
AcDbLine
 10
740.0
 20
-590.0
 30
0.0
 11
770.0
 21
-590.0
 31
0.0
  0
CIRCLE
  5
DF341877E095339B
100
AcDbEntity
  8
DETAIL_MEDIUM
  6
CONTINUOUS
100
AcDbCircle
 10
720.0
 20
-573.0
 30
0.0
 40
6.324555
  0
ENDBLK
  5
DF3423FEB88AD5EE
100
AcDbEntity
  8
DETAIL_MEDIUM
  6
CONTINUOUS
100
AcDbBlockEnd
  0
BLOCK
  5
E2F4A43F75D305B3
100
AcDbEntity
  8
DETAIL_MEDIUM
  6
CONTINUOUS
100
AcDbBlockBegin
  2
IO_YGR_PAD
 70
     0
 10
0.0
 20
0.0
 30
0.0
  1

  0
POLYLINE
  5
E2F4A43F75D305A0
100
AcDbEntity
  8
DETAIL_MEDIUM
  6
CONTINUOUS
100
AcDb2dPolyline
 66
     1
 10
0.0
 20
0.0
 30
0.0
 70
     1
  0
VERTEX
  5
E2F4A43F75D305A1
100
AcDbEntity
  8
DETAIL_MEDIUM
  6
CONTINUOUS
100
AcDbVertex
100
AcDb2dVertex
 10
780.0
 20
-572.0
 30
0.0
  0
VERTEX
  5
E2F4A43F75D305A2
100
AcDbEntity
  8
DETAIL_MEDIUM
  6
CONTINUOUS
100
AcDbVertex
100
AcDb2dVertex
 10
840.0
 20
-572.0
 30
0.0
  0
VERTEX
  5
E2F4A43F75D305A3
100
AcDbEntity
  8
DETAIL_MEDIUM
  6
CONTINUOUS
100
AcDbVertex
100
AcDb2dVertex
 10
840.0
 20
-632.0
 30
0.0
  0
VERTEX
  5
E2F4A43F75D305A4
100
AcDbEntity
  8
DETAIL_MEDIUM
  6
CONTINUOUS
100
AcDbVertex
100
AcDb2dVertex
 10
780.0
 20
-632.0
 30
0.0
  0
SEQEND
  5
E2F4A43F75D305A5
100
AcDbEntity
  8
DETAIL_MEDIUM
  6
CONTINUOUS
  0
POLYLINE
  5
E2F4A43F75D305A6
100
AcDbEntity
  8
DETAIL_MEDIUM
  6
CONTINUOUS
100
AcDb2dPolyline
 66
     1
 10
0.0
 20
0.0
 30
0.0
  0
VERTEX
  5
E2F4A43F75D305A7
100
AcDbEntity
  8
DETAIL_MEDIUM
  6
CONTINUOUS
100
AcDbVertex
100
AcDb2dVertex
 10
780.0
 20
-602.0
 30
0.0
  0
VERTEX
  5
E2F4A43F75D305A8
100
AcDbEntity
  8
DETAIL_MEDIUM
  6
CONTINUOUS
100
AcDbVertex
100
AcDb2dVertex
 10
810.0
 20
-572.0
 30
0.0
  0
VERTEX
  5
E2F4A43F75D305A9
100
AcDbEntity
  8
DETAIL_MEDIUM
  6
CONTINUOUS
100
AcDbVertex
100
AcDb2dVertex
 10
840.0
 20
-602.0
 30
0.0
  0
VERTEX
  5
E2F4A43F75D305AA
100
AcDbEntity
  8
DETAIL_MEDIUM
  6
CONTINUOUS
100
AcDbVertex
100
AcDb2dVertex
 10
810.0
 20
-632.0
 30
0.0
  0
VERTEX
  5
E2F4A43F75D305AB
100
AcDbEntity
  8
DETAIL_MEDIUM
  6
CONTINUOUS
100
AcDbVertex
100
AcDb2dVertex
 10
780.0
 20
-602.0
 30
0.0
  0
SEQEND
  5
E2F4A43F75D305AC
100
AcDbEntity
  8
DETAIL_MEDIUM
  6
CONTINUOUS
  0
ENDBLK
  5
E2F4A43F75D305B4
100
AcDbEntity
  8
DETAIL_MEDIUM
  6
CONTINUOUS
100
AcDbBlockEnd
  0
BLOCK
  5
DF3414A22F105A73
100
AcDbEntity
  8
DETAIL_MEDIUM
  6
CONTINUOUS
100
AcDbBlockBegin
  2
IO_YGR_REGOUT_4_USED
 70
     0
 10
0.0
 20
0.0
 30
0.0
  1

  0
LINE
  5
DF3414A22F105A72
100
AcDbEntity
  8
DETAIL_MEDIUM
  6
CONTINUOUS
100
AcDbLine
 10
1190.0
 20
-500.0
 30
0.0
 11
1298.0
 21
-500.0
 31
0.0
  0
ENDBLK
  5
DF3414A22F105A74
100
AcDbEntity
  8
DETAIL_MEDIUM
  6
CONTINUOUS
100
AcDbBlockEnd
  0
BLOCK
  5
DF3415962AA39230
100
AcDbEntity
  8
DETAIL_MEDIUM
  6
CONTINUOUS
100
AcDbBlockBegin
  2
IO_YGR_REGOUT_5_USED
 70
     0
 10
0.0
 20
0.0
 30
0.0
  1

  0
LINE
  5
DF3415962AA3922F
100
AcDbEntity
  8
DETAIL_MEDIUM
  6
CONTINUOUS
100
AcDbLine
 10
1350.0
 20
-690.0
 30
0.0
 11
1439.0
 21
-690.0
 31
0.0
  0
LINE
  5
DF3415962AA3922E
100
AcDbEntity
  8
DETAIL_MEDIUM
  6
CONTINUOUS
100
AcDbLine
 10
1190.0
 20
-690.0
 30
0.0
 11
1270.0
 21
-690.0
 31
0.0
  0
ENDBLK
  5
DF3415962AA39231
100
AcDbEntity
  8
DETAIL_MEDIUM
  6
CONTINUOUS
100
AcDbBlockEnd
  0
BLOCK
  5
DF3414A13D2EF645
100
AcDbEntity
  8
PORTS
  6
CONTINUOUS
100
AcDbBlockBegin
  2
IO_YGR_REG_4_CE_IN
 70
     2
 10
0.0
 20
0.0
 30
0.0
  1

  0
ATTDEF
  5
DF3414A13D2EF640
100
AcDbEntity
  8
PORTS
  6
CONTINUOUS
100
AcDbText
 10
732.0
 20
-828.0
 30
0.0
 40
10.0
  1

 50
0.000019
  7
SIMPLEX
100
AcDbAttributeDefinition
  3

  2
SIDE
 70
     0
  0
POLYLINE
  5
DF3414A13D2EF637
100
AcDbEntity
  8
PORTS
  6
CONTINUOUS
100
AcDb2dPolyline
 66
     1
 10
0.0
 20
0.0
 30
0.0
 70
     1
  0
VERTEX
  5
DF3414A13D2EF638
100
AcDbEntity
  8
PORTS
  6
CONTINUOUS
100
AcDbVertex
100
AcDb2dVertex
 10
810.0
 20
-840.0
 30
0.0
  0
VERTEX
  5
DF3414A13D2EF639
100
AcDbEntity
  8
PORTS
  6
CONTINUOUS
100
AcDbVertex
100
AcDb2dVertex
 10
802.0
 20
-846.0
 30
0.0
  0
VERTEX
  5
DF3414A13D2EF63A
100
AcDbEntity
  8
PORTS
  6
CONTINUOUS
100
AcDbVertex
100
AcDb2dVertex
 10
730.0
 20
-846.0
 30
0.0
  0
VERTEX
  5
DF3414A13D2EF63B
100
AcDbEntity
  8
PORTS
  6
CONTINUOUS
100
AcDbVertex
100
AcDb2dVertex
 10
730.0
 20
-834.0
 30
0.0
  0
VERTEX
  5
DF3414A13D2EF63C
100
AcDbEntity
  8
PORTS
  6
CONTINUOUS
100
AcDbVertex
100
AcDb2dVertex
 10
802.0
 20
-834.0
 30
0.0
  0
VERTEX
  5
DF3414A13D2EF63D
100
AcDbEntity
  8
PORTS
  6
CONTINUOUS
100
AcDbVertex
100
AcDb2dVertex
 10
810.0
 20
-840.0
 30
0.0
  0
SEQEND
  5
DF3414A13D2EF63E
100
AcDbEntity
  8
PORTS
  6
CONTINUOUS
  0
POINT
  5
DF3414A13D2EF63F
100
AcDbEntity
  8
PORTS
  6
CONTINUOUS
100
AcDbPoint
 10
810.0
 20
-840.0
 30
0.0
  0
ENDBLK
  5
DF3414A13D2EF646
100
AcDbEntity
  8
PORTS
  6
CONTINUOUS
100
AcDbBlockEnd
  0
BLOCK
  5
FD389199B6EB8EFD
100
AcDbEntity
  8
DETAIL_MEDIUM
  6
CONTINUOUS
100
AcDbBlockBegin
  2
IO_YGR_REG_5_CE_IN
 70
     0
 10
0.0
 20
0.0
 30
0.0
  1

  0
POINT
  5
FD389199B6EB8EF7
100
AcDbEntity
  8
DETAIL_MEDIUM
  6
CONTINUOUS
100
AcDbPoint
 10
1097.0
 20
-573.0
 30
0.0
  0
LINE
  5
1B3D0E932A9996E7
100
AcDbEntity
  8
DETAIL_MEDIUM
  6
CONTINUOUS
100
AcDbLine
 10
1097.0
 20
-573.0
 30
0.0
 11
1097.0
 21
-763.0
 31
0.0
  0
LINE
  5
1B3D0E932A9996E8
100
AcDbEntity
  8
DETAIL_MEDIUM
  6
CONTINUOUS
100
AcDbLine
 10
1097.0
 20
-763.0
 30
0.0
 11
1117.0
 21
-763.0
 31
0.0
  0
POINT
  5
FD389199B6EB8EFC
100
AcDbEntity
  8
DETAIL_MEDIUM
  6
CONTINUOUS
100
AcDbPoint
 10
997.0
 20
-833.0
 30
0.0
  0
LINE
  5
FD389199B6EB8EF8
100
AcDbEntity
  8
DETAIL_MEDIUM
  6
CONTINUOUS
100
AcDbLine
 10
997.0
 20
-833.0
 30
0.0
 11
1262.0
 21
-833.0
 31
0.0
  0
LINE
  5
FD389199B6EB8EF9
100
AcDbEntity
  8
DETAIL_MEDIUM
  6
CONTINUOUS
100
AcDbLine
 10
1262.0
 20
-833.0
 30
0.0
 11
1262.0
 21
-763.0
 31
0.0
  0
LINE
  5
FD389199B6EB8EFA
100
AcDbEntity
  8
DETAIL_MEDIUM
  6
CONTINUOUS
100
AcDbLine
 10
1262.0
 20
-763.0
 30
0.0
 11
1277.0
 21
-763.0
 31
0.0
  0
ENDBLK
  5
FD389199B6EB8EFE
100
AcDbEntity
  8
DETAIL_MEDIUM
  6
CONTINUOUS
100
AcDbBlockEnd
  0
BLOCK
  5
FD389199B6E7D5AD
100
AcDbEntity
  8
PORTS
  6
CONTINUOUS
100
AcDbBlockBegin
  2
IO_YGR_CLK_IN
 70
     2
 10
0.0
 20
0.0
 30
0.0
  1

  0
ATTDEF
  5
FD389199B6E7D599
100
AcDbEntity
  8
PORTS
  6
CONTINUOUS
100
AcDbText
 10
742.0
 20
-729.0
 30
0.0
 40
10.0
  1

 50
0.000019
  7
SIMPLEX
100
AcDbAttributeDefinition
  3

  2
SIDE
 70
     0
  0
POLYLINE
  5
FD389199B6E7D59A
100
AcDbEntity
  8
PORTS
  6
CONTINUOUS
100
AcDb2dPolyline
 66
     1
 10
0.0
 20
0.0
 30
0.0
 70
     1
  0
VERTEX
  5
FD389199B6E7D59B
100
AcDbEntity
  8
PORTS
  6
CONTINUOUS
100
AcDbVertex
100
AcDb2dVertex
 10
820.0
 20
-741.0
 30
0.0
  0
VERTEX
  5
FD389199B6E7D59C
100
AcDbEntity
  8
PORTS
  6
CONTINUOUS
100
AcDbVertex
100
AcDb2dVertex
 10
812.0
 20
-747.0
 30
0.0
  0
VERTEX
  5
FD389199B6E7D59D
100
AcDbEntity
  8
PORTS
  6
CONTINUOUS
100
AcDbVertex
100
AcDb2dVertex
 10
740.0
 20
-747.0
 30
0.0
  0
VERTEX
  5
FD389199B6E7D59E
100
AcDbEntity
  8
PORTS
  6
CONTINUOUS
100
AcDbVertex
100
AcDb2dVertex
 10
740.0
 20
-735.0
 30
0.0
  0
VERTEX
  5
FD389199B6E7D59F
100
AcDbEntity
  8
PORTS
  6
CONTINUOUS
100
AcDbVertex
100
AcDb2dVertex
 10
812.0
 20
-735.0
 30
0.0
  0
VERTEX
  5
FD389199B6E7D5A0
100
AcDbEntity
  8
PORTS
  6
CONTINUOUS
100
AcDbVertex
100
AcDb2dVertex
 10
820.0
 20
-741.0
 30
0.0
  0
SEQEND
  5
FD389199B6E7D5A1
100
AcDbEntity
  8
PORTS
  6
CONTINUOUS
  0
POINT
  5
FD389199B6E7D5A2
100
AcDbEntity
  8
PORTS
  6
CONTINUOUS
100
AcDbPoint
 10
820.0
 20
-741.0
 30
0.0
  0
ENDBLK
  5
FD389199B6E7D5AE
100
AcDbEntity
  8
PORTS
  6
CONTINUOUS
100
AcDbBlockEnd
  0
BLOCK
  5
FD389199B6EB8EF3
100
AcDbEntity
  8
DETAIL_MEDIUM
  6
CONTINUOUS
100
AcDbBlockBegin
  2
IO_YGR_REG_5_CLK_IN
 70
     0
 10
0.0
 20
0.0
 30
0.0
  1

  0
CIRCLE
  5
1B1E51A8A1AF5647
100
AcDbEntity
  8
DETAIL_MEDIUM
  6
CONTINUOUS
100
AcDbCircle
 10
1111.0
 20
-723.0
 30
0.0
 40
5.656854
  0
LINE
  5
1B1E51A8A1AF5648
100
AcDbEntity
  8
DETAIL_MEDIUM
  6
CONTINUOUS
100
AcDbLine
 10
1077.0
 20
-723.0
 30
0.0
 11
1105.0
 21
-723.0
 31
0.0
  0
POINT
  5
FD389199B6EB8EF2
100
AcDbEntity
  8
DETAIL_MEDIUM
  6
CONTINUOUS
100
AcDbPoint
 10
1077.0
 20
-723.0
 30
0.0
  0
LINE
  5
FD389199B6EB8EED
100
AcDbEntity
  8
DETAIL_MEDIUM
  6
CONTINUOUS
100
AcDbLine
 10
1077.0
 20
-723.0
 30
0.0
 11
1077.0
 21
-809.0
 31
0.0
  0
LINE
  5
FD389199B6EB8EEE
100
AcDbEntity
  8
DETAIL_MEDIUM
  6
CONTINUOUS
100
AcDbLine
 10
1077.0
 20
-809.0
 30
0.0
 11
1247.0
 21
-809.0
 31
0.0
  0
LINE
  5
FD389199B6EB8EEF
100
AcDbEntity
  8
DETAIL_MEDIUM
  6
CONTINUOUS
100
AcDbLine
 10
1247.0
 20
-809.0
 30
0.0
 11
1247.0
 21
-723.0
 31
0.0
  0
LINE
  5
FD389199B6EB8EF0
100
AcDbEntity
  8
DETAIL_MEDIUM
  6
CONTINUOUS
100
AcDbLine
 10
1247.0
 20
-723.0
 30
0.0
 11
1277.0
 21
-723.0
 31
0.0
  0
ENDBLK
  5
FD389199B6EB8EF4
100
AcDbEntity
  8
DETAIL_MEDIUM
  6
CONTINUOUS
100
AcDbBlockEnd
  0
BLOCK
  5
DF3414A0C0363E92
100
AcDbEntity
  8
PORTS
  6
CONTINUOUS
100
AcDbBlockBegin
  2
IO_YGR_DATAIN_1
 70
     2
 10
0.0
 20
0.0
 30
0.0
  1

  0
POLYLINE
  5
DF3414A0C0363E80
100
AcDbEntity
  8
PORTS
  6
CONTINUOUS
100
AcDb2dPolyline
 66
     1
 10
0.0
 20
0.0
 30
0.0
 70
     1
  0
VERTEX
  5
DF3414A0C0363E81
100
AcDbEntity
  8
PORTS
  6
CONTINUOUS
100
AcDbVertex
100
AcDb2dVertex
 10
1581.0
 20
-635.0
 30
0.0
  0
VERTEX
  5
DF3414A0C0363E82
100
AcDbEntity
  8
PORTS
  6
CONTINUOUS
100
AcDbVertex
100
AcDb2dVertex
 10
1573.0
 20
-641.0
 30
0.0
  0
VERTEX
  5
DF3414A0C0363E83
100
AcDbEntity
  8
PORTS
  6
CONTINUOUS
100
AcDbVertex
100
AcDb2dVertex
 10
1501.0
 20
-641.0
 30
0.0
  0
VERTEX
  5
DF3414A0C0363E84
100
AcDbEntity
  8
PORTS
  6
CONTINUOUS
100
AcDbVertex
100
AcDb2dVertex
 10
1501.0
 20
-629.0
 30
0.0
  0
VERTEX
  5
DF3414A0C0363E85
100
AcDbEntity
  8
PORTS
  6
CONTINUOUS
100
AcDbVertex
100
AcDb2dVertex
 10
1573.0
 20
-629.0
 30
0.0
  0
VERTEX
  5
DF3414A0C0363E86
100
AcDbEntity
  8
PORTS
  6
CONTINUOUS
100
AcDbVertex
100
AcDb2dVertex
 10
1581.0
 20
-635.0
 30
0.0
  0
SEQEND
  5
DF3414A0C0363E87
100
AcDbEntity
  8
PORTS
  6
CONTINUOUS
  0
ATTDEF
  5
DF3414A0C0363E88
100
AcDbEntity
  8
PORTS
  6
CONTINUOUS
100
AcDbText
 10
1503.0
 20
-623.0
 30
0.0
 40
10.0
  1

 50
0.000019
  7
SIMPLEX
100
AcDbAttributeDefinition
  3

  2
SIDE
 70
     0
  0
POINT
  5
DF3414A0C0363E89
100
AcDbEntity
  8
PORTS
  6
CONTINUOUS
100
AcDbPoint
 10
1501.0
 20
-635.0
 30
0.0
  0
ENDBLK
  5
DF3414A0C0363E93
100
AcDbEntity
  8
PORTS
  6
CONTINUOUS
100
AcDbBlockEnd
  0
BLOCK
  5
FD389199B6E7D6A0
100
AcDbEntity
  8
PORTS
  6
CONTINUOUS
100
AcDbBlockBegin
  2
IO_YGR_DATAIN_0
 70
     2
 10
0.0
 20
0.0
 30
0.0
  1

  0
ATTDEF
  5
1B3D0E92EA11C7F4
100
AcDbEntity
  8
PORTS
  6
CONTINUOUS
100
AcDbText
 10
1512.0
 20
-480.0
 30
0.0
 40
10.0
  1

 50
0.000019
  7
SIMPLEX
100
AcDbAttributeDefinition
  3

  2
SIDE
 70
     0
  0
POLYLINE
  5
1B3D0E92EA11C7F5
100
AcDbEntity
  8
PORTS
  6
CONTINUOUS
100
AcDb2dPolyline
 66
     1
 10
0.0
 20
0.0
 30
0.0
 70
     1
  0
VERTEX
  5
1B3D0E92EA11C7F6
100
AcDbEntity
  8
PORTS
  6
CONTINUOUS
100
AcDbVertex
100
AcDb2dVertex
 10
1590.0
 20
-492.0
 30
0.0
  0
VERTEX
  5
1B3D0E92EA11C7F7
100
AcDbEntity
  8
PORTS
  6
CONTINUOUS
100
AcDbVertex
100
AcDb2dVertex
 10
1582.0
 20
-498.0
 30
0.0
  0
VERTEX
  5
1B3D0E92EA11C7F8
100
AcDbEntity
  8
PORTS
  6
CONTINUOUS
100
AcDbVertex
100
AcDb2dVertex
 10
1510.0
 20
-498.0
 30
0.0
  0
VERTEX
  5
1B3D0E92EA11C7F9
100
AcDbEntity
  8
PORTS
  6
CONTINUOUS
100
AcDbVertex
100
AcDb2dVertex
 10
1510.0
 20
-486.0
 30
0.0
  0
VERTEX
  5
1B3D0E92EA11C7FA
100
AcDbEntity
  8
PORTS
  6
CONTINUOUS
100
AcDbVertex
100
AcDb2dVertex
 10
1582.0
 20
-486.0
 30
0.0
  0
VERTEX
  5
1B3D0E92EA11C7FB
100
AcDbEntity
  8
PORTS
  6
CONTINUOUS
100
AcDbVertex
100
AcDb2dVertex
 10
1590.0
 20
-492.0
 30
0.0
  0
SEQEND
  5
1B3D0E92EA11C7FC
100
AcDbEntity
  8
PORTS
  6
CONTINUOUS
  0
POINT
  5
1B3D0E92EA11C7FD
100
AcDbEntity
  8
PORTS
  6
CONTINUOUS
100
AcDbPoint
 10
1510.0
 20
-492.0
 30
0.0
  0
ENDBLK
  5
FD389199B6E7D6A1
100
AcDbEntity
  8
PORTS
  6
CONTINUOUS
100
AcDbBlockEnd
  0
BLOCK
  5
DF3414A0443F87A1
100
AcDbEntity
  8
DETAIL_MEDIUM
  6
CONTINUOUS
100
AcDbBlockBegin
  2
IO_YGR_DELAY_DATAIN0_USED
 70
     0
 10
0.0
 20
0.0
 30
0.0
  1

  0
LINE
  5
DF3414A0443F8673
100
AcDbEntity
  8
DETAIL_MEDIUM
  6
CONTINUOUS
100
AcDbLine
 10
1270.0
 20
-460.0
 30
0.0
 11
1330.0
 21
-460.0
 31
0.0
  0
LINE
  5
DF3414A0443F8674
100
AcDbEntity
  8
DETAIL_MEDIUM
  6
CONTINUOUS
100
AcDbLine
 10
1410.0
 20
-460.0
 30
0.0
 11
1440.0
 21
-460.0
 31
0.0
  0
ENDBLK
  5
DF3414A0443F87A2
100
AcDbEntity
  8
DETAIL_MEDIUM
  6
CONTINUOUS
100
AcDbBlockEnd
  0
BLOCK
  5
DF3414A0443F87A4
100
AcDbEntity
  8
DETAIL_MEDIUM
  6
CONTINUOUS
100
AcDbBlockBegin
  2
IO_YGR_DELAY_DATAIN1_USED
 70
     0
 10
0.0
 20
0.0
 30
0.0
  1

  0
LINE
  5
DF3414A0443F879E
100
AcDbEntity
  8
DETAIL_MEDIUM
  6
CONTINUOUS
100
AcDbLine
 10
1270.0
 20
-580.0
 30
0.0
 11
1270.0
 21
-460.0
 31
0.0
  0
LINE
  5
DF3414A0443F879F
100
AcDbEntity
  8
DETAIL_MEDIUM
  6
CONTINUOUS
100
AcDbLine
 10
1270.0
 20
-580.0
 30
0.0
 11
1330.0
 21
-580.0
 31
0.0
  0
LINE
  5
DF3414A0443F87A0
100
AcDbEntity
  8
DETAIL_MEDIUM
  6
CONTINUOUS
100
AcDbLine
 10
1410.0
 20
-580.0
 30
0.0
 11
1440.0
 21
-580.0
 31
0.0
  0
ENDBLK
  5
DF3414A0443F87A5
100
AcDbEntity
  8
DETAIL_MEDIUM
  6
CONTINUOUS
100
AcDbBlockEnd
  0
BLOCK
  5
DF3414A0433EBC22
100
AcDbEntity
  8
DETAIL_MEDIUM
  6
CONTINUOUS
100
AcDbBlockBegin
  2
IO_YGR_DELAY_DATAIN0_OR_1_USED
 70
     0
 10
830.0
 20
-590.0
 30
0.0
  1

  0
LINE
  5
DF3414A0433EBC20
100
AcDbEntity
  8
DETAIL_MEDIUM
  6
CONTINUOUS
100
AcDbLine
 10
830.0
 20
-590.0
 30
0.0
 11
850.0
 21
-590.0
 31
0.0
  0
LINE
  5
DF3414A0433EBC1E
100
AcDbEntity
  8
DETAIL_MEDIUM
  6
CONTINUOUS
100
AcDbLine
 10
850.0
 20
-590.0
 30
0.0
 11
850.0
 21
-460.0
 31
0.0
  0
LINE
  5
DF3414A0433EBC1F
100
AcDbEntity
  8
DETAIL_MEDIUM
  6
CONTINUOUS
100
AcDbLine
 10
850.0
 20
-460.0
 30
0.0
 11
1270.0
 21
-460.0
 31
0.0
  0
ENDBLK
  5
DF3414A0433EBC23
100
AcDbEntity
  8
DETAIL_MEDIUM
  6
CONTINUOUS
100
AcDbBlockEnd
  0
BLOCK
  5
FD389199B6E7D844
100
AcDbEntity
  8
DETAIL_MEDIUM
  6
CONTINUOUS
100
AcDbBlockBegin
  2
IO_YGR_REG_1_USED
 70
     0
 10
0.0
 20
0.0
 30
0.0
  1

  0
LINE
  5
1B3D0E932A92285D
100
AcDbEntity
  8
DETAIL_MEDIUM
  6
CONTINUOUS
100
AcDbLine
 10
407.0
 20
-273.0
 30
0.0
 11
387.0
 21
-273.0
 31
0.0
  0
LINE
  5
1B3D0E932A92285C
100
AcDbEntity
  8
DETAIL_MEDIUM
  6
CONTINUOUS
100
AcDbLine
 10
387.0
 20
-233.0
 30
0.0
 11
387.0
 21
-273.0
 31
0.0
  0
LINE
  5
1B3D0E932A92285B
100
AcDbEntity
  8
DETAIL_MEDIUM
  6
CONTINUOUS
100
AcDbLine
 10
507.0
 20
-233.0
 30
0.0
 11
387.0
 21
-233.0
 31
0.0
  0
LINE
  5
1B3D0E932A92285A
100
AcDbEntity
  8
DETAIL_MEDIUM
  6
CONTINUOUS
100
AcDbLine
 10
507.0
 20
-173.0
 30
0.0
 11
507.0
 21
-233.0
 31
0.0
  0
LINE
  5
1B3D0E932A922859
100
AcDbEntity
  8
DETAIL_MEDIUM
100
AcDbLine
 10
537.0
 20
-173.0
 30
-1.0
 11
507.0
 21
-173.0
 31
-1.0
  0
LINE
  5
1B3D0E932A922848
100
AcDbEntity
  8
DETAIL_MEDIUM
  6
CONTINUOUS
100
AcDbLine
 10
567.0
 20
-153.0
 30
0.0
 11
587.0
 21
-153.0
 31
0.0
  0
POLYLINE
  5
1B3D0E932A922849
100
AcDbEntity
  8
DETAIL_MEDIUM
100
AcDb2dPolyline
 66
     1
 10
0.0
 20
0.0
 30
-1.0
 39
2.0
 70
     1
  0
VERTEX
  5
1B3D0E932A92284A
100
AcDbEntity
  8
DETAIL_MEDIUM
100
AcDbVertex
100
AcDb2dVertex
 10
567.0
 20
-143.0
 30
-1.0
  0
VERTEX
  5
1B3D0E932A92284B
100
AcDbEntity
  8
DETAIL_MEDIUM
100
AcDbVertex
100
AcDb2dVertex
 10
537.0
 20
-153.0
 30
-1.0
  0
VERTEX
  5
1B3D0E932A92284C
100
AcDbEntity
  8
DETAIL_MEDIUM
100
AcDbVertex
100
AcDb2dVertex
 10
537.0
 20
-193.0
 30
-1.0
  0
VERTEX
  5
1B3D0E932A92284D
100
AcDbEntity
  8
DETAIL_MEDIUM
100
AcDbVertex
100
AcDb2dVertex
 10
567.0
 20
-203.0
 30
-1.0
  0
VERTEX
  5
1B3D0E932A92284E
100
AcDbEntity
  8
DETAIL_MEDIUM
100
AcDbVertex
100
AcDb2dVertex
 10
567.0
 20
-143.0
 30
-1.0
  0
SEQEND
  5
1B3D0E932A92284F
100
AcDbEntity
  8
DETAIL_MEDIUM
  0
POLYLINE
  5
1B3D0E932A922850
100
AcDbEntity
  8
DETAIL_MEDIUM
  6
CONTINUOUS
100
AcDb2dPolyline
 66
     1
 10
0.0
 20
0.0
 30
0.0
  0
VERTEX
  5
1B3D0E932A922851
100
AcDbEntity
  8
DETAIL_MEDIUM
  6
CONTINUOUS
100
AcDbVertex
100
AcDb2dVertex
 10
567.0
 20
-193.0
 30
0.0
  0
VERTEX
  5
1B3D0E932A922852
100
AcDbEntity
  8
DETAIL_MEDIUM
  6
CONTINUOUS
100
AcDbVertex
100
AcDb2dVertex
 10
587.0
 20
-193.0
 30
0.0
  0
VERTEX
  5
1B3D0E932A922853
100
AcDbEntity
  8
DETAIL_MEDIUM
  6
CONTINUOUS
100
AcDbVertex
100
AcDb2dVertex
 10
587.0
 20
-213.0
 30
0.0
  0
VERTEX
  5
1B3D0E932A922854
100
AcDbEntity
  8
DETAIL_MEDIUM
  6
CONTINUOUS
100
AcDbVertex
100
AcDb2dVertex
 10
577.0
 20
-213.0
 30
0.0
  0
VERTEX
  5
1B3D0E932A922855
100
AcDbEntity
  8
DETAIL_MEDIUM
  6
CONTINUOUS
100
AcDbVertex
100
AcDb2dVertex
 10
587.0
 20
-223.0
 30
0.0
  0
VERTEX
  5
1B3D0E932A922856
100
AcDbEntity
  8
DETAIL_MEDIUM
  6
CONTINUOUS
100
AcDbVertex
100
AcDb2dVertex
 10
597.0
 20
-213.0
 30
0.0
  0
VERTEX
  5
1B3D0E932A922857
100
AcDbEntity
  8
DETAIL_MEDIUM
  6
CONTINUOUS
100
AcDbVertex
100
AcDb2dVertex
 10
587.0
 20
-213.0
 30
0.0
  0
SEQEND
  5
1B3D0E932A922858
100
AcDbEntity
  8
DETAIL_MEDIUM
  6
CONTINUOUS
  0
INSERT
  5
FD389199B6E7D83F
100
AcDbEntity
  8
DETAIL_MEDIUM
  6
CONTINUOUS
100
AcDbBlockReference
  2
IO_YGR_REG_1_USED_SEL_GND
 10
0.0
 20
0.0
 30
0.0
  0
INSERT
  5
FD389199B6E7D843
100
AcDbEntity
  8
DETAIL_MEDIUM
  6
CONTINUOUS
100
AcDbBlockReference
  2
IO_YGR_REG_1_USED_SEL_OE
 10
0.0
 20
0.0
 30
0.0
  0
LINE
  5
1B3D0E932A922847
100
AcDbEntity
  8
DETAIL_MEDIUM
  6
CONTINUOUS
100
AcDbLine
 10
587.0
 20
-153.0
 30
0.0
 11
587.0
 21
-83.0
 31
0.0
  0
LINE
  5
FD389199B6E7D836
100
AcDbEntity
  8
DETAIL_MEDIUM
  6
CONTINUOUS
100
AcDbLine
 10
607.0
 20
-103.0
 30
0.0
 11
625.0
 21
-103.0
 31
0.0
  0
LINE
  5
1B3D0E932A92285F
100
AcDbEntity
  8
DETAIL_MEDIUM
  6
CONTINUOUS
100
AcDbLine
 10
607.0
 20
-273.0
 30
0.0
 11
607.0
 21
-103.0
 31
0.0
  0
LINE
  5
1B3D0E932A92285E
100
AcDbEntity
  8
DETAIL_MEDIUM
  6
CONTINUOUS
100
AcDbLine
 10
487.0
 20
-273.0
 30
0.0
 11
607.0
 21
-273.0
 31
0.0
  0
ENDBLK
  5
FD389199B6E7D845
100
AcDbEntity
  8
DETAIL_MEDIUM
  6
CONTINUOUS
100
AcDbBlockEnd
  0
BLOCK
  5
DF34151B37F28DCA
100
AcDbEntity
  8
PORTS
  6
CONTINUOUS
100
AcDbBlockBegin
  2
IO_YGR_ACLR
 70
     2
 10
0.0
 20
0.0
 30
0.0
  1

  0
POLYLINE
  5
DF34151B37F28DBF
100
AcDbEntity
  8
PORTS
  6
CONTINUOUS
100
AcDb2dPolyline
 66
     1
 10
0.0
 20
0.0
 30
0.0
 70
     1
  0
VERTEX
  5
DF34151B37F28DC0
100
AcDbEntity
  8
PORTS
  6
CONTINUOUS
100
AcDbVertex
100
AcDb2dVertex
 10
90.0
 20
-410.0
 30
0.0
  0
VERTEX
  5
DF34151B37F28DC1
100
AcDbEntity
  8
PORTS
  6
CONTINUOUS
100
AcDbVertex
100
AcDb2dVertex
 10
82.0
 20
-416.0
 30
0.0
  0
VERTEX
  5
DF34151B37F28DC2
100
AcDbEntity
  8
PORTS
  6
CONTINUOUS
100
AcDbVertex
100
AcDb2dVertex
 10
10.0
 20
-416.0
 30
0.0
  0
VERTEX
  5
DF34151B37F28DC3
100
AcDbEntity
  8
PORTS
  6
CONTINUOUS
100
AcDbVertex
100
AcDb2dVertex
 10
10.0
 20
-404.0
 30
0.0
  0
VERTEX
  5
DF34151B37F28DC4
100
AcDbEntity
  8
PORTS
  6
CONTINUOUS
100
AcDbVertex
100
AcDb2dVertex
 10
82.0
 20
-404.0
 30
0.0
  0
VERTEX
  5
DF34151B37F28DC5
100
AcDbEntity
  8
PORTS
  6
CONTINUOUS
100
AcDbVertex
100
AcDb2dVertex
 10
90.0
 20
-410.0
 30
0.0
  0
SEQEND
  5
DF34151B37F28DC6
100
AcDbEntity
  8
PORTS
  6
CONTINUOUS
  0
POINT
  5
DF34151B37F28DC7
100
AcDbEntity
  8
PORTS
  6
CONTINUOUS
100
AcDbPoint
 10
90.0
 20
-410.0
 30
0.0
  0
ATTDEF
  5
DF34151B37F28DC8
100
AcDbEntity
  8
PORTS
  6
CONTINUOUS
100
AcDbText
 10
12.0
 20
-398.0
 30
0.0
 40
10.0
  1

  7
SIMPLEX
100
AcDbAttributeDefinition
  3

  2
SIDE
 70
     0
  0
ENDBLK
  5
DF34151B37F28DCB
100
AcDbEntity
  8
PORTS
  6
CONTINUOUS
100
AcDbBlockEnd
  0
BLOCK
  5
DF3414AFA1D42732
100
AcDbEntity
  8
PORTS
  6
CONTINUOUS
100
AcDbBlockBegin
  2
IO_YGR_SCLR
 70
     2
 10
0.0
 20
0.0
 30
0.0
  1

  0
ATTDEF
  5
DF3414AFA1D42730
100
AcDbEntity
  8
PORTS
  6
CONTINUOUS
100
AcDbText
 10
12.0
 20
-348.0
 30
0.0
 40
10.0
  1

  7
SIMPLEX
100
AcDbAttributeDefinition
  3

  2
SIDE
 70
     0
  0
POLYLINE
  5
DF3414AFA1D42727
100
AcDbEntity
  8
PORTS
  6
CONTINUOUS
100
AcDb2dPolyline
 66
     1
 10
0.0
 20
0.0
 30
0.0
 70
     1
  0
VERTEX
  5
DF3414AFA1D42728
100
AcDbEntity
  8
PORTS
  6
CONTINUOUS
100
AcDbVertex
100
AcDb2dVertex
 10
90.0
 20
-360.0
 30
0.0
  0
VERTEX
  5
DF3414AFA1D42729
100
AcDbEntity
  8
PORTS
  6
CONTINUOUS
100
AcDbVertex
100
AcDb2dVertex
 10
82.0
 20
-366.0
 30
0.0
  0
VERTEX
  5
DF3414AFA1D4272A
100
AcDbEntity
  8
PORTS
  6
CONTINUOUS
100
AcDbVertex
100
AcDb2dVertex
 10
10.0
 20
-366.0
 30
0.0
  0
VERTEX
  5
DF3414AFA1D4272B
100
AcDbEntity
  8
PORTS
  6
CONTINUOUS
100
AcDbVertex
100
AcDb2dVertex
 10
10.0
 20
-354.0
 30
0.0
  0
VERTEX
  5
DF3414AFA1D4272C
100
AcDbEntity
  8
PORTS
  6
CONTINUOUS
100
AcDbVertex
100
AcDb2dVertex
 10
82.0
 20
-354.0
 30
0.0
  0
VERTEX
  5
DF3414AFA1D4272D
100
AcDbEntity
  8
PORTS
  6
CONTINUOUS
100
AcDbVertex
100
AcDb2dVertex
 10
90.0
 20
-360.0
 30
0.0
  0
SEQEND
  5
DF3414AFA1D4272E
100
AcDbEntity
  8
PORTS
  6
CONTINUOUS
  0
POINT
  5
DF3414AFA1D4272F
100
AcDbEntity
  8
PORTS
  6
CONTINUOUS
100
AcDbPoint
 10
90.0
 20
-360.0
 30
0.0
  0
ENDBLK
  5
DF3414AFA1D42733
100
AcDbEntity
  8
PORTS
  6
CONTINUOUS
100
AcDbBlockEnd
  0
BLOCK
  5
FD389199B6E7D84C
100
AcDbEntity
  8
DETAIL_MEDIUM
  6
CONTINUOUS
100
AcDbBlockBegin
  2
IO_YGR_REG_0_USED
 70
     0
 10
0.0
 20
0.0
 30
0.0
  1

  0
LINE
  5
FD389199B6E7D848
100
AcDbEntity
  8
DETAIL_MEDIUM
  6
CONTINUOUS
100
AcDbLine
 10
655.0
 20
-93.0
 30
0.0
 11
677.0
 21
-93.0
 31
0.0
  0
LINE
  5
FD389199B6E7D84A
100
AcDbEntity
  8
DETAIL_MEDIUM
  6
CONTINUOUS
100
AcDbLine
 10
487.0
 20
-83.0
 30
0.0
 11
625.0
 21
-83.0
 31
0.0
  0
ENDBLK
  5
FD389199B6E7D84D
100
AcDbEntity
  8
DETAIL_MEDIUM
  6
CONTINUOUS
100
AcDbBlockEnd
  0
BLOCK
  5
DF3414A0433D8842
100
AcDbEntity
  8
DETAIL_MEDIUM
  6
CONTINUOUS
100
AcDbBlockBegin
  2
IO_YGR_CE_MUX
 70
     0
 10
670.0
 20
-60.0
 30
0.0
  1

  0
LINE
  5
DF3414A0433D883F
100
AcDbEntity
  8
DETAIL_MEDIUM
  6
CONTINUOUS
100
AcDbLine
 10
700.0
 20
-30.0
 30
0.0
 11
760.0
 21
-30.0
 31
0.0
  0
POLYLINE
  5
DF2FCAEAB67126A9
100
AcDbEntity
  8
DETAIL_MEDIUM
100
AcDb2dPolyline
 66
     1
 10
0.0
 20
0.0
 30
0.0
 39
2.0
 70
     1
  0
VERTEX
  5
DF2FCAEAB67126AA
100
AcDbEntity
  8
DETAIL_MEDIUM
100
AcDbVertex
100
AcDb2dVertex
 10
670.0
 20
0.0
 30
0.0
  0
VERTEX
  5
DF2FCAEAB67126AB
100
AcDbEntity
  8
DETAIL_MEDIUM
100
AcDbVertex
100
AcDb2dVertex
 10
700.0
 20
-10.0
 30
0.0
  0
VERTEX
  5
DF2FCAEAB67126AC
100
AcDbEntity
  8
DETAIL_MEDIUM
100
AcDbVertex
100
AcDb2dVertex
 10
700.0
 20
-50.0
 30
0.0
  0
VERTEX
  5
DF2FCAEAB67126AD
100
AcDbEntity
  8
DETAIL_MEDIUM
100
AcDbVertex
100
AcDb2dVertex
 10
670.0
 20
-60.0
 30
0.0
  0
VERTEX
  5
DF2FCAEAB67126AE
100
AcDbEntity
  8
DETAIL_MEDIUM
100
AcDbVertex
100
AcDb2dVertex
 10
670.0
 20
0.0
 30
0.0
  0
SEQEND
  5
DF2FCAEAB67126AF
100
AcDbEntity
  8
DETAIL_MEDIUM
  0
ENDBLK
  5
DF3414A0433D8844
100
AcDbEntity
  8
DETAIL_MEDIUM
  6
CONTINUOUS
100
AcDbBlockEnd
  0
BLOCK
  5
DF341877E09533A9
100
AcDbEntity
  8
DETAIL_MEDIUM
  6
CONTINUOUS
100
AcDbBlockBegin
  2
IO_YGR_CE_PATH_USED
 70
     0
 10
0.0
 20
0.0
 30
0.0
  1

  0
LINE
  5
DF341877E09533A1
100
AcDbEntity
  8
DETAIL_MEDIUM
  6
CONTINUOUS
100
AcDbLine
 10
810.0
 20
-70.0
 30
0.0
 11
870.0
 21
-70.0
 31
0.0
  0
LINE
  5
DF341877E09533A0
100
AcDbEntity
  8
DETAIL_MEDIUM
  6
CONTINUOUS
100
AcDbLine
 10
950.0
 20
-70.0
 30
0.0
 11
990.0
 21
-70.0
 31
0.0
  0
LINE
  5
DF341877E095339F
100
AcDbEntity
  8
DETAIL_MEDIUM
  6
CONTINUOUS
100
AcDbLine
 10
1070.0
 20
-70.0
 30
0.0
 11
1110.0
 21
-70.0
 31
0.0
  0
LINE
  5
DF341877E095339E
100
AcDbEntity
  8
DETAIL_MEDIUM
  6
CONTINUOUS
100
AcDbLine
 10
1110.0
 20
-70.0
 30
0.0
 11
1110.0
 21
-140.0
 31
0.0
  0
LINE
  5
DF341877E095339D
100
AcDbEntity
  8
DETAIL_MEDIUM
  6
CONTINUOUS
100
AcDbLine
 10
1110.0
 20
-140.0
 30
0.0
 11
720.0
 21
-140.0
 31
0.0
  0
LINE
  5
DF341877E095339C
100
AcDbEntity
  8
DETAIL_MEDIUM
  6
CONTINUOUS
100
AcDbLine
 10
720.0
 20
-567.0
 30
0.0
 11
720.0
 21
-140.0
 31
0.0
  0
ENDBLK
  5
DF341877E09533AA
100
AcDbEntity
  8
DETAIL_MEDIUM
  6
CONTINUOUS
100
AcDbBlockEnd
  0
BLOCK
  5
DF3414A0433D8850
100
AcDbEntity
  8
DETAIL_MEDIUM
  6
CONTINUOUS
100
AcDbBlockBegin
  2
IO_YGR_CE_PATH_GND
 70
     0
 10
750.0
 20
-80.0
 30
0.0
  1

  0
POLYLINE
  5
DF3414A04339CF9A
100
AcDbEntity
  8
DETAIL_MEDIUM
  6
CONTINUOUS
100
AcDb2dPolyline
 66
     1
 10
0.0
 20
0.0
 30
0.0
  0
VERTEX
  5
DF3414A0433D892B
100
AcDbEntity
  8
DETAIL_MEDIUM
  6
CONTINUOUS
100
AcDbVertex
100
AcDb2dVertex
 10
780.0
 20
-50.0
 30
0.0
  0
VERTEX
  5
DF3414A0433D892C
100
AcDbEntity
  8
DETAIL_MEDIUM
  6
CONTINUOUS
100
AcDbVertex
100
AcDb2dVertex
 10
760.0
 20
-50.0
 30
0.0
  0
VERTEX
  5
DF3414A0433D892D
100
AcDbEntity
  8
DETAIL_MEDIUM
  6
CONTINUOUS
100
AcDbVertex
100
AcDb2dVertex
 10
760.0
 20
-70.0
 30
0.0
  0
VERTEX
  5
DF3414A0433D892E
100
AcDbEntity
  8
DETAIL_MEDIUM
  6
CONTINUOUS
100
AcDbVertex
100
AcDb2dVertex
 10
750.0
 20
-70.0
 30
0.0
  0
VERTEX
  5
DF3414A0433D892F
100
AcDbEntity
  8
DETAIL_MEDIUM
  6
CONTINUOUS
100
AcDbVertex
100
AcDb2dVertex
 10
760.0
 20
-80.0
 30
0.0
  0
VERTEX
  5
DF3414A0433D8930
100
AcDbEntity
  8
DETAIL_MEDIUM
  6
CONTINUOUS
100
AcDbVertex
100
AcDb2dVertex
 10
770.0
 20
-70.0
 30
0.0
  0
VERTEX
  5
DF3414A0433D8931
100
AcDbEntity
  8
DETAIL_MEDIUM
  6
CONTINUOUS
100
AcDbVertex
100
AcDb2dVertex
 10
760.0
 20
-70.0
 30
0.0
  0
SEQEND
  5
DF3414A0433D8932
100
AcDbEntity
  8
DETAIL_MEDIUM
  6
CONTINUOUS
  0
ENDBLK
  5
DF3414A0433D8852
100
AcDbEntity
  8
DETAIL_MEDIUM
  6
CONTINUOUS
100
AcDbBlockEnd
  0
BLOCK
  5
DF3414A0433D8854
100
AcDbEntity
  8
DETAIL_MEDIUM
  6
CONTINUOUS
100
AcDbBlockBegin
  2
IO_YGR_CE_PATH_VCC
 70
     0
 10
750.0
 20
10.0
 30
0.0
  1

  0
POLYLINE
  5
DF3414A04339CF9B
100
AcDbEntity
  8
DETAIL_MEDIUM
  6
CONTINUOUS
100
AcDb2dPolyline
 66
     1
 10
0.0
 20
0.0
 30
0.0
  0
VERTEX
  5
DF3414A0433D8933
100
AcDbEntity
  8
DETAIL_MEDIUM
  6
CONTINUOUS
100
AcDbVertex
100
AcDb2dVertex
 10
780.0
 20
10.0
 30
0.0
  0
VERTEX
  5
DF3414A0433D8934
100
AcDbEntity
  8
DETAIL_MEDIUM
  6
CONTINUOUS
100
AcDbVertex
100
AcDb2dVertex
 10
760.0
 20
10.0
 30
0.0
  0
VERTEX
  5
DF3414A0433D8935
100
AcDbEntity
  8
DETAIL_MEDIUM
  6
CONTINUOUS
100
AcDbVertex
100
AcDb2dVertex
 10
760.0
 20
30.0
 30
0.0
  0
VERTEX
  5
DF3414A0433D8936
100
AcDbEntity
  8
DETAIL_MEDIUM
  6
CONTINUOUS
100
AcDbVertex
100
AcDb2dVertex
 10
750.0
 20
30.0
 30
0.0
  0
VERTEX
  5
DF3414A0433D8937
100
AcDbEntity
  8
DETAIL_MEDIUM
  6
CONTINUOUS
100
AcDbVertex
100
AcDb2dVertex
 10
760.0
 20
40.0
 30
0.0
  0
VERTEX
  5
DF3414A0433D8938
100
AcDbEntity
  8
DETAIL_MEDIUM
  6
CONTINUOUS
100
AcDbVertex
100
AcDb2dVertex
 10
770.0
 20
30.0
 30
0.0
  0
VERTEX
  5
DF3414A0433D8939
100
AcDbEntity
  8
DETAIL_MEDIUM
  6
CONTINUOUS
100
AcDbVertex
100
AcDb2dVertex
 10
760.0
 20
30.0
 30
0.0
  0
SEQEND
  5
DF3414A0433D893A
100
AcDbEntity
  8
DETAIL_MEDIUM
  6
CONTINUOUS
  0
ENDBLK
  5
DF3414A0433D8856
100
AcDbEntity
  8
DETAIL_MEDIUM
  6
CONTINUOUS
100
AcDbBlockEnd
  0
BLOCK
  5
DF3414A0433D8858
100
AcDbEntity
  8
DETAIL_MEDIUM
  6
CONTINUOUS
100
AcDbBlockBegin
  2
IO_YGR_CE_PATH_NOT_INVERTED
 70
     0
 10
760.0
 20
-30.0
 30
0.0
  1

  0
LINE
  5
DF3414A0433D8840
100
AcDbEntity
  8
DETAIL_MEDIUM
  6
CONTINUOUS
100
AcDbLine
 10
760.0
 20
-30.0
 30
0.0
 11
780.0
 21
-30.0
 31
0.0
  0
ENDBLK
  5
DF3414A0433D885A
100
AcDbEntity
  8
DETAIL_MEDIUM
  6
CONTINUOUS
100
AcDbBlockEnd
  0
BLOCK
  5
E1145C6FDC884587
100
AcDbEntity
  8
DETAIL_MEDIUM
  6
CONTINUOUS
100
AcDbBlockBegin
  2
IO_YGR_CE_PATH_INVERTED
 70
     0
 10
0.0
 20
0.0
 30
0.0
  1

  0
LINE
  5
E1145C6FDC884584
100
AcDbEntity
  8
DETAIL_MEDIUM
  6
CONTINUOUS
100
AcDbLine
 10
770.0
 20
-92.0
 30
0.0
 11
770.0
 21
-72.0
 31
0.0
  0
LINE
  5
E1145C6FDC884585
100
AcDbEntity
  8
DETAIL_MEDIUM
  6
CONTINUOUS
100
AcDbLine
 10
770.0
 20
-72.0
 30
0.0
 11
778.0
 21
-72.0
 31
0.0
  0
CIRCLE
  5
DF52D18ACC27C78E
100
AcDbEntity
  8
DETAIL_MEDIUM
  6
CONTINUOUS
100
AcDbCircle
 10
784.0
 20
-72.0
 30
0.0
 40
5.656854
  0
ENDBLK
  5
E1145C6FDC884588
100
AcDbEntity
  8
DETAIL_MEDIUM
  6
CONTINUOUS
100
AcDbBlockEnd
  0
BLOCK
  5
FD389199B6EF4F44
100
AcDbEntity
  8
DETAIL_MEDIUM
  6
CONTINUOUS
100
AcDbBlockBegin
  2
IO_YGR
 70
     0
 10
0.0
 20
0.0
 30
0.0
  1

  0
INSERT
  5
FD389199B6EF4DA6
100
AcDbEntity
  8
DETAIL_MEDIUM
  6
CONTINUOUS
100
AcDbBlockReference
 66
     1
  2
IO_YGR_REGISTER
 10
407.0
 20
-193.0
 30
-1.0
  0
ATTRIB
  5
FD389199B6EF4DA7
100
AcDbEntity
  8
DETAIL_MEDIUM
  6
CONTINUOUS
100
AcDbText
 10
437.0
 20
-133.0
 30
-1.0
 40
10.0
  1
0
  7
SIMPLEX
100
AcDbAttribute
  2
index
 70
     0
  0
SEQEND
  5
FD389199B6EF4DA8
100
AcDbEntity
  8
DETAIL_MEDIUM
  6
CONTINUOUS
  0
INSERT
  5
FD389199B6EF4DA9
100
AcDbEntity
  8
DETAIL_MEDIUM
  6
CONTINUOUS
100
AcDbBlockReference
 66
     1
  2
IO_YGR_REGISTER
 10
407.0
 20
-383.0
 30
-1.0
  0
ATTRIB
  5
FD389199B6EF4DAA
100
AcDbEntity
  8
DETAIL_MEDIUM
  6
CONTINUOUS
100
AcDbText
 10
437.0
 20
-323.0
 30
-1.0
 40
10.0
  1
1
  7
SIMPLEX
100
AcDbAttribute
  2
index
 70
     0
  0
SEQEND
  5
FD389199B6EF4DAB
100
AcDbEntity
  8
DETAIL_MEDIUM
  6
CONTINUOUS
  0
INSERT
  5
FD389199B6EF4DAC
100
AcDbEntity
  8
DETAIL_MEDIUM
  6
CONTINUOUS
100
AcDbBlockReference
 66
     1
  2
IO_YGR_REGISTER
 10
407.0
 20
-603.0
 30
-1.0
  0
ATTRIB
  5
FD389199B6EF4DAD
100
AcDbEntity
  8
DETAIL_MEDIUM
  6
CONTINUOUS
100
AcDbText
 10
437.0
 20
-543.0
 30
-1.0
 40
10.0
  1
2
  7
SIMPLEX
100
AcDbAttribute
  2
index
 70
     0
  0
SEQEND
  5
FD389199B6EF4DAE
100
AcDbEntity
  8
DETAIL_MEDIUM
  6
CONTINUOUS
  0
INSERT
  5
FD389199B6EF4DAF
100
AcDbEntity
  8
DETAIL_MEDIUM
  6
CONTINUOUS
100
AcDbBlockReference
 66
     1
  2
IO_YGR_REGISTER
 10
407.0
 20
-793.0
 30
-1.0
  0
ATTRIB
  5
FD389199B6EF4DB0
100
AcDbEntity
  8
DETAIL_MEDIUM
  6
CONTINUOUS
100
AcDbText
 10
437.0
 20
-733.0
 30
-1.0
 40
10.0
  1
3
  7
SIMPLEX
100
AcDbAttribute
  2
index
 70
     0
  0
SEQEND
  5
FD389199B6EF4DB1
100
AcDbEntity
  8
DETAIL_MEDIUM
  6
CONTINUOUS
  0
INSERT
  5
FD389199B6EF4DB2
100
AcDbEntity
  8
DETAIL_MEDIUM
  6
CONTINUOUS
100
AcDbBlockReference
  2
IO_YGR_REG_1_EN
 10
327.0
 20
-353.0
 30
0.0
  0
INSERT
  5
FD389199B6EF4DB3
100
AcDbEntity
  8
DETAIL_MEDIUM
  6
CONTINUOUS
100
AcDbBlockReference
  2
IO_YGR_REG_0_ACLR
 10
347.0
 20
-403.0
 30
0.0
  0
INSERT
  5
FD389199B6EF4DB4
100
AcDbEntity
  8
DETAIL_MEDIUM
  6
CONTINUOUS
100
AcDbBlockReference
  2
IO_YGR_REG_1_ACLR
 10
347.0
 20
-403.0
 30
0.0
  0
INSERT
  5
FD389199B6EF4DB5
100
AcDbEntity
  8
DETAIL_MEDIUM
  6
CONTINUOUS
100
AcDbBlockReference
  2
IO_YGR_REG_3_ON_ACLR
 10
347.0
 20
-863.0
 30
0.0
  0
INSERT
  5
FD389199B6EF4DB6
100
AcDbEntity
  8
DETAIL_MEDIUM
  6
CONTINUOUS
100
AcDbBlockReference
  2
IO_YGR_REG_3_ACLR
 10
447.0
 20
-863.0
 30
0.0
  0
INSERT
  5
FD389199B6EF4DB7
100
AcDbEntity
  8
DETAIL_MEDIUM
  6
CONTINUOUS
100
AcDbBlockReference
  2
IO_YGR_REG_0_SCLR
 10
127.0
 20
-353.0
 30
0.0
  0
INSERT
  5
FD389199B6EF4DB8
100
AcDbEntity
  8
DETAIL_MEDIUM
  6
CONTINUOUS
100
AcDbBlockReference
  2
IO_YGR_REG_2_SCLR
 10
447.0
 20
-473.0
 30
0.0
  0
INSERT
  5
FD389199B6EF4DB9
100
AcDbEntity
  8
DETAIL_MEDIUM
  6
CONTINUOUS
100
AcDbBlockReference
  2
IO_YGR_REG_3_SCLR
 10
127.0
 20
-663.0
 30
0.0
  0
INSERT
  5
FD389199B6EF4DBA
100
AcDbEntity
  8
DETAIL_MEDIUM
  6
CONTINUOUS
100
AcDbBlockReference
  2
IO_YGR_REG_3_EN
 10
327.0
 20
-763.0
 30
0.0
  0
INSERT
  5
FD389199B6EF4DBB
100
AcDbEntity
  8
DETAIL_MEDIUM
  6
CONTINUOUS
100
AcDbBlockReference
 66
     1
  2
IO_YGR_DELAY_CHAIN
 10
227.0
 20
-193.0
 30
0.0
  0
ATTRIB
  5
FD389199B6EF4DBC
100
AcDbEntity
  8
DETAIL_MEDIUM
  6
CONTINUOUS
100
AcDbText
 10
297.0
 20
-183.0
 30
0.0
 40
10.0
  1
7
  7
SIMPLEX
100
AcDbAttribute
  2
index
 70
     0
  0
ATTRIB
  5
FD389199B6EF4DBD
100
AcDbEntity
  8
DETAIL_MEDIUM
  6
CONTINUOUS
100
AcDbText
 10
237.0
 20
-193.0
 30
0.0
 40
10.0
  1
Output Enable Clock Enable Delay
  7
SIMPLEX
100
AcDbAttribute
  2
name
 70
     0
  0
SEQEND
  5
FD389199B6EF4DBE
100
AcDbEntity
  8
DETAIL_MEDIUM
  6
CONTINUOUS
  0
INSERT
  5
FD389199B6EF4DBF
100
AcDbEntity
  8
DETAIL_MEDIUM
  6
CONTINUOUS
100
AcDbBlockReference
 66
     1
  2
IO_YGR_DELAY_CHAIN
 10
227.0
 20
-523.0
 30
0.0
  0
ATTRIB
  5
FD389199B6EF4DC0
100
AcDbEntity
  8
DETAIL_MEDIUM
  6
CONTINUOUS
100
AcDbText
 10
297.0
 20
-513.0
 30
0.0
 40
10.0
  1
A
  7
SIMPLEX
100
AcDbAttribute
  2
index
 70
     0
  0
ATTRIB
  5
FD389199B6EF4DC1
100
AcDbEntity
  8
DETAIL_MEDIUM
  6
CONTINUOUS
100
AcDbText
 10
237.0
 20
-523.0
 30
0.0
 40
10.0
  1
Logic Array to Output Register Delay
  7
SIMPLEX
100
AcDbAttribute
  2
name
 70
     0
  0
SEQEND
  5
FD389199B6EF4DC2
100
AcDbEntity
  8
DETAIL_MEDIUM
  6
CONTINUOUS
  0
INSERT
  5
FD389199B6EF4DC3
100
AcDbEntity
  8
DETAIL_MEDIUM
  6
CONTINUOUS
100
AcDbBlockReference
 66
     1
  2
IO_YGR_DELAY_CHAIN
 10
227.0
 20
-603.0
 30
0.0
  0
ATTRIB
  5
FD389199B6EF4DC4
100
AcDbEntity
  8
DETAIL_MEDIUM
  6
CONTINUOUS
100
AcDbText
 10
297.0
 20
-593.0
 30
0.0
 40
10.0
  1
6
  7
SIMPLEX
100
AcDbAttribute
  2
index
 70
     0
  0
ATTRIB
  5
FD389199B6EF4DC5
100
AcDbEntity
  8
DETAIL_MEDIUM
  6
CONTINUOUS
100
AcDbText
 10
237.0
 20
-603.0
 30
0.0
 40
10.0
  1
Output Clock Enable Delay
  7
SIMPLEX
100
AcDbAttribute
  2
name
 70
     0
  0
SEQEND
  5
FD389199B6EF4DC6
100
AcDbEntity
  8
DETAIL_MEDIUM
  6
CONTINUOUS
  0
INSERT
  5
FD389199B6EF4DC7
100
AcDbEntity
  8
DETAIL_MEDIUM
  6
CONTINUOUS
100
AcDbBlockReference
 66
     1
  2
IO_YGR_DELAY_CHAIN
 10
227.0
 20
-713.0
 30
0.0
  0
ATTRIB
  5
FD389199B6EF4DC8
100
AcDbEntity
  8
DETAIL_MEDIUM
  6
CONTINUOUS
100
AcDbText
 10
297.0
 20
-703.0
 30
0.0
 40
10.0
  1
5
  7
SIMPLEX
100
AcDbAttribute
  2
index
 70
     0
  0
ATTRIB
  5
FD389199B6EF4DC9
100
AcDbEntity
  8
DETAIL_MEDIUM
  6
CONTINUOUS
100
AcDbText
 10
237.0
 20
-713.0
 30
0.0
 40
10.0
  1
Logic Array to Output Register Delay
  7
SIMPLEX
100
AcDbAttribute
  2
name
 70
     0
  0
SEQEND
  5
FD389199B6EF4DCA
100
AcDbEntity
  8
DETAIL_MEDIUM
  6
CONTINUOUS
  0
INSERT
  5
FD389199B6EF4DCB
100
AcDbEntity
  8
DETAIL_MEDIUM
  6
CONTINUOUS
100
AcDbBlockReference
  2
IO_YGR_REG_24_OR_5_SCLR
 10
7.0
 20
7.0
 30
0.0
  0
INSERT
  5
FD389199B6EF4DCC
100
AcDbEntity
  8
DETAIL_MEDIUM
  6
CONTINUOUS
100
AcDbBlockReference
  2
IO_YGR_SCLR_WIRE2
 10
7.0
 20
7.0
 30
0.0
  0
INSERT
  5
FD389199B6EF4DCD
100
AcDbEntity
  8
PORTS
  6
CONTINUOUS
100
AcDbBlockReference
 66
     1
  2
IO_YGR_SCLR
 10
7.0
 20
7.0
 30
0.0
  0
ATTRIB
  5
FD389199B6EF4DCE
100
AcDbEntity
  8
PORTS
  6
CONTINUOUS
100
AcDbText
 10
19.0
 20
-341.0
 30
0.0
 40
10.0
  1
LEFT
  7
SIMPLEX
100
AcDbAttribute
  2
SIDE
 70
     0
  0
SEQEND
  5
FD389199B6EF4DCF
100
AcDbEntity
  8
PORTS
  6
CONTINUOUS
  0
INSERT
  5
FD389199B6EF4DD0
100
AcDbEntity
  8
DETAIL_MEDIUM
  6
CONTINUOUS
100
AcDbBlockReference
  2
IO_YGR_SCLR_WIRE1
 10
7.0
 20
7.0
 30
0.0
  0
INSERT
  5
FD389199B6EF4DD1
100
AcDbEntity
  8
DETAIL_MEDIUM
  6
CONTINUOUS
100
AcDbBlockReference
  2
IO_YGR_REG_2_ACLR
 10
7.0
 20
7.0
 30
0.0
  0
INSERT
  5
FD389199B6EF4DD2
100
AcDbEntity
  8
DETAIL_MEDIUM
  6
CONTINUOUS
100
AcDbBlockReference
  2
IO_YGR_ACLR_WIRE2
 10
7.0
 20
7.0
 30
0.0
  0
INSERT
  5
FD389199B6EF4DD3
100
AcDbEntity
  8
PORTS
  6
CONTINUOUS
100
AcDbBlockReference
 66
     1
  2
IO_YGR_ACLR
 10
7.0
 20
7.0
 30
0.0
  0
ATTRIB
  5
FD389199B6EF4DD4
100
AcDbEntity
  8
PORTS
  6
CONTINUOUS
100
AcDbText
 10
19.0
 20
-391.0
 30
0.0
 40
10.0
  1
LEFT
  7
SIMPLEX
100
AcDbAttribute
  2
SIDE
 70
     0
  0
SEQEND
  5
FD389199B6EF4DD5
100
AcDbEntity
  8
PORTS
  6
CONTINUOUS
  0
INSERT
  5
FD389199B6EF4DD6
100
AcDbEntity
  8
DETAIL_MEDIUM
  6
CONTINUOUS
100
AcDbBlockReference
  2
IO_YGR_ACLR_WIRE1
 10
7.0
 20
7.0
 30
0.0
  0
INSERT
  5
FD389199B6EF4DD7
100
AcDbEntity
  8
PORTS
  6
CONTINUOUS
100
AcDbBlockReference
 66
     1
  2
IO_YGR_OE
 10
7.0
 20
7.0
 30
0.0
  0
ATTRIB
  5
FD389199B6EF4DD8
100
AcDbEntity
  8
PORTS
  6
CONTINUOUS
100
AcDbText
 10
19.0
 20
-71.0
 30
0.0
 40
10.0
  1
LEFT
  7
SIMPLEX
100
AcDbAttribute
  2
SIDE
 70
     0
  0
SEQEND
  5
FD389199B6EF4DD9
100
AcDbEntity
  8
PORTS
  6
CONTINUOUS
  0
INSERT
  5
FD389199B6EF4DDA
100
AcDbEntity
  8
DETAIL_MEDIUM
  6
CONTINUOUS
100
AcDbBlockReference
  2
IO_YGR_OE_WIRE1
 10
7.0
 20
7.0
 30
0.0
  0
INSERT
  5
FD389199B6EF4DDB
100
AcDbEntity
  8
DETAIL_MEDIUM
  6
CONTINUOUS
100
AcDbBlockReference
  2
IO_YGR_OE_WIRE2
 10
7.0
 20
7.0
 30
0.0
  0
INSERT
  5
FD389199B6EF4DDC
100
AcDbEntity
  8
DETAIL_MEDIUM
  6
CONTINUOUS
100
AcDbBlockReference
  2
IO_YGR_REG_2_USED_WIRE
 10
7.0
 20
7.0
 30
0.0
  0
INSERT
  5
FD389199B6EF4DDD
100
AcDbEntity
  8
DETAIL_MEDIUM
  6
CONTINUOUS
100
AcDbBlockReference
  2
IO_YGR_DIN_0_WIRE2
 10
7.0
 20
7.0
 30
0.0
  0
INSERT
  5
FD389199B6EF4DDE
100
AcDbEntity
  8
PORTS
  6
CONTINUOUS
100
AcDbBlockReference
 66
     1
  2
IO_YGR_DIN_0
 10
7.0
 20
7.0
 30
0.0
  0
ATTRIB
  5
FD389199B6EF4DDF
100
AcDbEntity
  8
PORTS
  6
CONTINUOUS
100
AcDbText
 10
19.0
 20
-481.0
 30
0.0
 40
10.0
  1
LEFT
  7
SIMPLEX
100
AcDbAttribute
  2
SIDE
 70
     0
  0
SEQEND
  5
FD389199B6EF4DE0
100
AcDbEntity
  8
PORTS
  6
CONTINUOUS
  0
INSERT
  5
FD389199B6EF4DE1
100
AcDbEntity
  8
DETAIL_MEDIUM
  6
CONTINUOUS
100
AcDbBlockReference
  2
IO_YGR_DIN_0_WIRE1
 10
7.0
 20
7.0
 30
0.0
  0
INSERT
  5
FD389199B6EF4DE2
100
AcDbEntity
  8
PORTS
  6
CONTINUOUS
100
AcDbBlockReference
 66
     1
  2
IO_YGR_DIN_1
 10
7.0
 20
7.0
 30
0.0
  0
ATTRIB
  5
FD389199B6EF4DE3
100
AcDbEntity
  8
PORTS
  6
CONTINUOUS
100
AcDbText
 10
19.0
 20
-671.0
 30
0.0
 40
10.0
  1
LEFT
 50
0.000019
  7
SIMPLEX
100
AcDbAttribute
  2
SIDE
 70
     0
  0
SEQEND
  5
FD389199B6EF4DE4
100
AcDbEntity
  8
PORTS
  6
CONTINUOUS
  0
INSERT
  5
FD389199B6EF4DE5
100
AcDbEntity
  8
DETAIL_MEDIUM
  6
CONTINUOUS
100
AcDbBlockReference
  2
IO_YGR_DIN_1_WIRE2
 10
7.0
 20
7.0
 30
0.0
  0
INSERT
  5
FD389199B6EF4DE6
100
AcDbEntity
  8
DETAIL_MEDIUM
  6
CONTINUOUS
100
AcDbBlockReference
  2
IO_YGR_DIN_1_WIRE1
 10
7.0
 20
7.0
 30
0.0
  0
INSERT
  5
FD389199B6EF4DE7
100
AcDbEntity
  8
PORTS
  6
CONTINUOUS
100
AcDbBlockReference
 66
     1
  2
IO_YGR_CLKOUT
 10
7.0
 20
7.0
 30
0.0
  0
ATTRIB
  5
FD389199B6EF4DE8
100
AcDbEntity
  8
PORTS
  6
CONTINUOUS
100
AcDbText
 10
19.0
 20
-111.0
 30
0.0
 40
10.0
  1
LEFT
  7
SIMPLEX
100
AcDbAttribute
  2
SIDE
 70
     0
  0
SEQEND
  5
FD389199B6EF4DE9
100
AcDbEntity
  8
PORTS
  6
CONTINUOUS
  0
INSERT
  5
FD389199B6EF4DEA
100
AcDbEntity
  8
DETAIL_MEDIUM
  6
CONTINUOUS
100
AcDbBlockReference
  2
IO_YGR_CLKOUT_WIRE1
 10
7.0
 20
7.0
 30
0.0
  0
INSERT
  5
FD389199B6EF4DEB
100
AcDbEntity
  8
DETAIL_MEDIUM
  6
CONTINUOUS
100
AcDbBlockReference
  2
IO_YGR_CLKOUT_WIRE2
 10
7.0
 20
7.0
 30
0.0
  0
INSERT
  5
FD389199B6EF4DEC
100
AcDbEntity
  8
DETAIL_MEDIUM
  6
CONTINUOUS
100
AcDbBlockReference
  2
IO_YGR_CLKOUT_WIRE3
 10
7.0
 20
7.0
 30
0.0
  0
INSERT
  5
FD389199B6EF4DED
100
AcDbEntity
  8
DETAIL_MEDIUM
  6
CONTINUOUS
100
AcDbBlockReference
  2
IO_YGR_CLKOUT_WIRE4
 10
7.0
 20
7.0
 30
0.0
  0
INSERT
  5
FD389199B6EF4DEE
100
AcDbEntity
  8
PORTS
  6
CONTINUOUS
100
AcDbBlockReference
 66
     1
  2
IO_YGR_CEOUT
 10
7.0
 20
7.0
 30
0.0
  0
ATTRIB
  5
FD389199B6EF4DEF
100
AcDbEntity
  8
PORTS
  6
CONTINUOUS
100
AcDbText
 10
19.0
 20
-151.0
 30
0.0
 40
10.0
  1
LEFT
  7
SIMPLEX
100
AcDbAttribute
  2
SIDE
 70
     0
  0
SEQEND
  5
FD389199B6EF4DF0
100
AcDbEntity
  8
PORTS
  6
CONTINUOUS
  0
INSERT
  5
FD389199B6EF4DF1
100
AcDbEntity
  8
DETAIL_MEDIUM
  6
CONTINUOUS
100
AcDbBlockReference
  2
IO_YGR_REG_0_EN
 10
7.0
 20
7.0
 30
0.0
  0
INSERT
  5
FD389199B6EF4DF2
100
AcDbEntity
  8
DETAIL_MEDIUM
  6
CONTINUOUS
100
AcDbBlockReference
  2
IO_YGR_REG_2_EN
 10
7.0
 20
7.0
 30
0.0
  0
INSERT
  5
FD389199B6EF4DF3
100
AcDbEntity
  8
DETAIL_MEDIUM
  6
CONTINUOUS
100
AcDbBlockReference
  2
IO_YGR_CEOUT_WIRE1
 10
7.0
 20
7.0
 30
0.0
  0
INSERT
  5
FD389199B6EF4DF4
100
AcDbEntity
  8
DETAIL_MEDIUM
  6
CONTINUOUS
100
AcDbBlockReference
  2
IO_YGR_CEOUT_WIRE2
 10
7.0
 20
7.0
 30
0.0
  0
INSERT
  5
FD389199B6EF4DF5
100
AcDbEntity
  8
DETAIL_MEDIUM
  6
CONTINUOUS
100
AcDbBlockReference
  2
IO_YGR_CEOUT_WIRE3
 10
7.0
 20
7.0
 30
0.0
  0
INSERT
  5
FD389199B6EF4DF6
100
AcDbEntity
  8
DETAIL_MEDIUM
  6
CONTINUOUS
100
AcDbBlockReference
  2
IO_YGR_CEOUT_WIRE4
 10
7.0
 20
7.0
 30
0.0
  0
INSERT
  5
FD389199B6EF4DF7
100
AcDbEntity
  8
DETAIL_MEDIUM
  6
CONTINUOUS
100
AcDbBlockReference
  2
IO_YGR_ACLR_POINT1
 10
7.0
 20
7.0
 30
0.0
  0
INSERT
  5
FD389199B6EF4DF8
100
AcDbEntity
  8
DETAIL_MEDIUM
  6
CONTINUOUS
100
AcDbBlockReference
  2
IO_YGR_DDR_CLKOUT
 10
-3.0
 20
19.0
 30
0.0
  0
INSERT
  5
FD389199B6EF4DF9
100
AcDbEntity
  8
DETAIL_MEDIUM
  6
CONTINUOUS
100
AcDbBlockReference
  2
IO_YGR_DDR_CLKOUT2
 10
0.0
 20
0.0
 30
0.0
  0
INSERT
  5
FD389199B6EF4DFA
100
AcDbEntity
  8
DETAIL_MEDIUM
  6
CONTINUOUS
100
AcDbBlockReference
  2
IO_YGR_CLKOUT_WIRE5
 10
0.0
 20
0.0
 30
0.0
  0
INSERT
  5
FD389199B6EF4DFC
100
AcDbEntity
  8
DETAIL_MEDIUM
  6
CONTINUOUS
100
AcDbBlockReference
  2
IO_YGR_REG_4_ACLR
 10
7.0
 20
7.0
 30
0.0
  0
INSERT
  5
FD389199B6EF4E67
100
AcDbEntity
  8
DETAIL_MEDIUM
  6
CONTINUOUS
100
AcDbBlockReference
  2
IO_YGR_REG_2_BYPASS
 10
187.0
 20
-493.0
 30
0.0
  0
INSERT
  5
FD389199B6EF4DFD
100
AcDbEntity
  8
DETAIL_MEDIUM
  6
CONTINUOUS
100
AcDbBlockReference
  2
IO_YGR_REG_0_BYPASS
 10
367.0
 20
-83.0
 30
0.0
  0
INSERT
  5
FD389199B6EF4DFE
100
AcDbEntity
  8
DETAIL_MEDIUM
  6
CONTINUOUS
100
AcDbBlockReference
 66
     1
  2
IO_YGR_REGISTER
 10
1117.0
 20
-603.0
 30
-1.0
  0
ATTRIB
  5
FD389199B6EF4DFF
100
AcDbEntity
  8
DETAIL_MEDIUM
  6
CONTINUOUS
100
AcDbText
 10
1147.0
 20
-543.0
 30
-1.0
 40
10.0
  1
4
  7
SIMPLEX
100
AcDbAttribute
  2
index
 70
     0
  0
SEQEND
  5
FD389199B6EF4E00
100
AcDbEntity
  8
DETAIL_MEDIUM
  6
CONTINUOUS
  0
INSERT
  5
FD389199B6EF4E01
100
AcDbEntity
  8
DETAIL_MEDIUM
  6
CONTINUOUS
100
AcDbBlockReference
  2
IO_YGR_CE_MUX
 10
677.0
 20
-103.0
 30
0.0
  0
INSERT
  5
FD389199B6EF4E02
100
AcDbEntity
  8
DETAIL_MEDIUM
  6
CONTINUOUS
100
AcDbBlockReference
  2
IO_YGR_CE_PATH_GND
 10
757.0
 20
-123.0
 30
0.0
  0
INSERT
  5
FD389199B6EF4E03
100
AcDbEntity
  8
DETAIL_MEDIUM
  6
CONTINUOUS
100
AcDbBlockReference
  2
IO_YGR_CE_PATH_NOT_INVERTED
 10
767.0
 20
-73.0
 30
0.0
  0
INSERT
  5
FD389199B6EF4E04
100
AcDbEntity
  8
DETAIL_MEDIUM
  6
CONTINUOUS
100
AcDbBlockReference
  2
IO_YGR_DELAY_DATAIN0_OR_1_USED
 10
837.0
 20
-583.0
 30
0.0
  0
INSERT
  5
FD389199B6EF4E05
100
AcDbEntity
  8
DETAIL_MEDIUM
  6
CONTINUOUS
100
AcDbBlockReference
 66
     1
  2
IO_YGR_DELAY_CHAIN
 10
877.0
 20
-614.0
 30
0.0
  0
ATTRIB
  5
FD389199B6EF4E06
100
AcDbEntity
  8
DETAIL_MEDIUM
  6
CONTINUOUS
100
AcDbText
 10
947.0
 20
-604.0
 30
0.0
 40
10.0
  1
1
  7
SIMPLEX
100
AcDbAttribute
  2
index
 70
     0
  0
ATTRIB
  5
FD389199B6EF4E07
100
AcDbEntity
  8
DETAIL_MEDIUM
  6
CONTINUOUS
100
AcDbText
 10
887.0
 20
-614.0
 30
0.0
 40
10.0
  1
Input Pin to Input Register Delay
  7
SIMPLEX
100
AcDbAttribute
  2
name
 70
     0
  0
SEQEND
  5
FD389199B6EF4E08
100
AcDbEntity
  8
DETAIL_MEDIUM
  6
CONTINUOUS
  0
INSERT
  5
FD389199B6EF4E09
100
AcDbEntity
  8
DETAIL_MEDIUM
  6
CONTINUOUS
100
AcDbBlockReference
 66
     1
  2
IO_YGR_DELAY_CHAIN
 10
547.0
 20
-523.0
 30
0.0
  0
ATTRIB
  5
FD389199B6EF4E0A
100
AcDbEntity
  8
DETAIL_MEDIUM
  6
CONTINUOUS
100
AcDbText
 10
617.0
 20
-513.0
 30
0.0
 40
10.0
  1
0
  7
SIMPLEX
100
AcDbAttribute
  2
index
 70
     0
  0
ATTRIB
  5
FD389199B6EF4E0B
100
AcDbEntity
  8
DETAIL_MEDIUM
  6
CONTINUOUS
100
AcDbText
 10
557.0
 20
-523.0
 30
0.0
 40
10.0
  1
Output Pin Delay
  7
SIMPLEX
100
AcDbAttribute
  2
name
 70
     0
  0
SEQEND
  5
FD389199B6EF4E0C
100
AcDbEntity
  8
DETAIL_MEDIUM
  6
CONTINUOUS
  0
INSERT
  5
FD389199B6EF4E0D
100
AcDbEntity
  8
DETAIL_MEDIUM
  6
CONTINUOUS
100
AcDbBlockReference
 66
     1
  2
IO_YGR_DELAY_CHAIN
 10
877.0
 20
-93.0
 30
0.0
  0
ATTRIB
  5
FD389199B6EF4E0E
100
AcDbEntity
  8
DETAIL_MEDIUM
  6
CONTINUOUS
100
AcDbText
 10
947.0
 20
-83.0
 30
0.0
 40
10.0
  1
8
  7
SIMPLEX
100
AcDbAttribute
  2
index
 70
     0
  0
ATTRIB
  5
FD389199B6EF4E0F
100
AcDbEntity
  8
DETAIL_MEDIUM
  6
CONTINUOUS
100
AcDbText
 10
887.0
 20
-93.0
 30
0.0
 40
10.0
  1
Output Tzx Delay
  7
SIMPLEX
100
AcDbAttribute
  2
name
 70
     0
  0
SEQEND
  5
FD389199B6EF4E10
100
AcDbEntity
  8
DETAIL_MEDIUM
  6
CONTINUOUS
  0
INSERT
  5
FD389199B6EF4E11
100
AcDbEntity
  8
DETAIL_MEDIUM
  6
CONTINUOUS
100
AcDbBlockReference
 66
     1
  2
IO_YGR_DELAY_CHAIN
 10
997.0
 20
-93.0
 30
0.0
  0
ATTRIB
  5
FD389199B6EF4E12
100
AcDbEntity
  8
DETAIL_MEDIUM
  6
CONTINUOUS
100
AcDbText
 10
1067.0
 20
-83.0
 30
0.0
 40
10.0
  1
9
  7
SIMPLEX
100
AcDbAttribute
  2
index
 70
     0
  0
ATTRIB
  5
FD389199B6EF4E13
100
AcDbEntity
  8
DETAIL_MEDIUM
  6
CONTINUOUS
100
AcDbText
 10
1007.0
 20
-93.0
 30
0.0
 40
10.0
  1
Output Enable Register Tco Delay
  7
SIMPLEX
100
AcDbAttribute
  2
name
 70
     0
  0
SEQEND
  5
FD389199B6EF4E14
100
AcDbEntity
  8
DETAIL_MEDIUM
  6
CONTINUOUS
  0
INSERT
  5
FD389199B6EF4E15
100
AcDbEntity
  8
DETAIL_MEDIUM
  6
CONTINUOUS
100
AcDbBlockReference
 66
     1
  2
IO_YGR_DELAY_CHAIN
 10
1337.0
 20
-483.0
 30
0.0
  0
ATTRIB
  5
FD389199B6EF4E16
100
AcDbEntity
  8
DETAIL_MEDIUM
  6
CONTINUOUS
100
AcDbText
 10
1407.0
 20
-473.0
 30
0.0
 40
10.0
  1
3
  7
SIMPLEX
100
AcDbAttribute
  2
index
 70
     0
  0
ATTRIB
  5
FD389199B6EF4E17
100
AcDbEntity
  8
DETAIL_MEDIUM
  6
CONTINUOUS
100
AcDbText
 10
1347.0
 20
-483.0
 30
0.0
 40
10.0
  1
Input Pin to Logic Array Delay 1
  7
SIMPLEX
100
AcDbAttribute
  2
name
 70
     0
  0
SEQEND
  5
FD389199B6EF4E18
100
AcDbEntity
  8
DETAIL_MEDIUM
  6
CONTINUOUS
  0
INSERT
  5
FD389199B6EF4E19
100
AcDbEntity
  8
DETAIL_MEDIUM
  6
CONTINUOUS
100
AcDbBlockReference
 66
     1
  2
IO_YGR_DELAY_CHAIN
 10
1337.0
 20
-603.0
 30
0.0
  0
ATTRIB
  5
FD389199B6EF4E1A
100
AcDbEntity
  8
DETAIL_MEDIUM
  6
CONTINUOUS
100
AcDbText
 10
1407.0
 20
-593.0
 30
0.0
 40
10.0
  1
2
  7
SIMPLEX
100
AcDbAttribute
  2
index
 70
     0
  0
ATTRIB
  5
FD389199B6EF4E1B
100
AcDbEntity
  8
DETAIL_MEDIUM
  6
CONTINUOUS
100
AcDbText
 10
1347.0
 20
-603.0
 30
0.0
 40
10.0
  1
Input Pin to Logic Array Delay 0
  7
SIMPLEX
100
AcDbAttribute
  2
name
 70
     0
  0
SEQEND
  5
FD389199B6EF4E1C
100
AcDbEntity
  8
DETAIL_MEDIUM
  6
CONTINUOUS
  0
INSERT
  5
FD389199B6EF4E1D
100
AcDbEntity
  8
DETAIL_MEDIUM
  6
CONTINUOUS
100
AcDbBlockReference
  2
IO_YGR_DELAY_DATAIN0_USED
 10
7.0
 20
7.0
 30
0.0
  0
INSERT
  5
FD389199B6EF4E1E
100
AcDbEntity
  8
DETAIL_MEDIUM
  6
CONTINUOUS
100
AcDbBlockReference
  2
IO_YGR_DELAY_DATAIN1_USED
 10
7.0
 20
7.0
 30
0.0
  0
INSERT
  5
FD389199B6EF4E1F
100
AcDbEntity
  8
DETAIL_MEDIUM
  6
CONTINUOUS
100
AcDbBlockReference
  2
IO_YGR_REGOUT_TO_DATAIN_1
 10
7.0
 20
7.0
 30
0.0
  0
INSERT
  5
FD389199B6EF4E20
100
AcDbEntity
  8
DETAIL_MEDIUM
  6
CONTINUOUS
100
AcDbBlockReference
  2
IO_YGR_REGOUT_TO_DATAIN_0
 10
7.0
 20
7.0
 30
0.0
  0
INSERT
  5
FD389199B6EF4E21
100
AcDbEntity
  8
DETAIL_MEDIUM
100
AcDbBlockReference
  2
IO_YGR_DATAIN_0_MUX
 10
7.0
 20
7.0
 30
0.0
  0
INSERT
  5
FD389199B6EF4E22
100
AcDbEntity
  8
PORTS
  6
CONTINUOUS
100
AcDbBlockReference
 66
     1
  2
IO_YGR_DATAIN_1
 10
7.0
 20
7.0
 30
0.0
  0
ATTRIB
  5
FD389199B6EF4E23
100
AcDbEntity
  8
PORTS
  6
CONTINUOUS
100
AcDbText
 10
1510.0
 20
-616.0
 30
0.0
 40
10.0
  1
RIGHT
 50
0.000019
  7
SIMPLEX
100
AcDbAttribute
  2
SIDE
 70
     0
  0
SEQEND
  5
FD389199B6EF4E24
100
AcDbEntity
  8
PORTS
  6
CONTINUOUS
  0
INSERT
  5
FD389199B6EF4E25
100
AcDbEntity
  8
DETAIL_MEDIUM
  6
CONTINUOUS
100
AcDbBlockReference
  2
IO_YGR_REG_4_CE_IN_WIRE2
 10
7.0
 20
7.0
 30
0.0
  0
INSERT
  5
FD389199B6EF4E26
100
AcDbEntity
  8
DETAIL_MEDIUM
  6
CONTINUOUS
100
AcDbBlockReference
  2
IO_YGR_REGOUT_4_USED
 10
7.0
 20
7.0
 30
0.0
  0
INSERT
  5
FD389199B6EF4E27
100
AcDbEntity
  8
DETAIL_MEDIUM
  6
CONTINUOUS
100
AcDbBlockReference
  2
IO_YGR_REGOUT_4_USED_WIRE1
 10
7.0
 20
7.0
 30
0.0
  0
INSERT
  5
FD389199B6EF4E28
100
AcDbEntity
  8
DETAIL_MEDIUM
  6
CONTINUOUS
100
AcDbBlockReference
  2
IO_YGR_REGOUT_4_USED_WIRE2
 10
7.0
 20
7.0
 30
0.0
  0
INSERT
  5
FD389199B6EF4E29
100
AcDbEntity
  8
DETAIL_MEDIUM
  6
CONTINUOUS
100
AcDbBlockReference
  2
IO_YGR_REG_4_SCLR
 10
7.0
 20
7.0
 30
0.0
  0
INSERT
  5
FD389199B6EF4E2A
100
AcDbEntity
  8
DETAIL_MEDIUM
  6
CONTINUOUS
100
AcDbBlockReference
  2
IO_YGR_REG_4_SCLR_WIRE
 10
7.0
 20
7.0
 30
0.0
  0
INSERT
  5
FD389199B6EF4E2B
100
AcDbEntity
  8
DETAIL_MEDIUM
100
AcDbBlockReference
  2
IO_YGR_REG_0_USED_OR_GATE
 10
7.0
 20
7.0
 30
0.0
  0
INSERT
  5
FD389199B6EF4E2C
100
AcDbEntity
  8
DETAIL_MEDIUM
  6
CONTINUOUS
100
AcDbBlockReference
  2
IO_YGR_CE_PATH_USED
 10
7.0
 20
7.0
 30
0.0
  0
INSERT
  5
FD389199B6EF4E2D
100
AcDbEntity
  8
DETAIL_MEDIUM
  6
CONTINUOUS
100
AcDbBlockReference
  2
IO_YGR_CE_PATH_USED_MUX
 10
7.0
 20
7.0
 30
0.0
  0
INSERT
  5
FD389199B6EF4E2E
100
AcDbEntity
  8
DETAIL_MEDIUM
  6
CONTINUOUS
100
AcDbBlockReference
  2
IO_YGR_BUFFER
 10
7.0
 20
7.0
 30
0.0
  0
INSERT
  5
FD389199B6EF4E2F
100
AcDbEntity
  8
DETAIL_MEDIUM
  6
CONTINUOUS
100
AcDbBlockReference
  2
IO_YGR_BUFFER_MUX
 10
7.0
 20
7.0
 30
0.0
  0
INSERT
  5
FD389199B6EF4E31
100
AcDbEntity
  8
DETAIL_MEDIUM
  6
CONTINUOUS
100
AcDbBlockReference
  2
IO_YGR_CE_PATH_VCC
 10
757.0
 20
-33.0
 30
0.0
  0
INSERT
  5
FD389199B6EF4E32
100
AcDbEntity
  8
DETAIL_MEDIUM
  6
CONTINUOUS
100
AcDbBlockReference
  2
IO_YGR_CE_PATH_INVERTED
 10
-3.0
 20
19.0
 30
0.0
  0
INSERT
  5
FD389199B6EF4E33
100
AcDbEntity
  8
DETAIL_MEDIUM
  6
CONTINUOUS
100
AcDbBlockReference
  2
IO_YGR_PAD
 10
-3.0
 20
19.0
 30
0.0
  0
INSERT
  5
FD389199B6EF4E34
100
AcDbEntity
  8
PORTS
  6
CONTINUOUS
100
AcDbBlockReference
 66
     1
  2
IO_YGR_DATAIN_0
 10
-3.0
 20
19.0
 30
0.0
  0
ATTRIB
  5
FD389199B6EF4E35
100
AcDbEntity
  8
PORTS
  6
CONTINUOUS
100
AcDbText
 10
1509.0
 20
-461.0
 30
0.0
 40
10.0
  1
RIGHT
 50
0.000019
  7
SIMPLEX
100
AcDbAttribute
  2
SIDE
 70
     0
  0
SEQEND
  5
FD389199B6EF4E36
100
AcDbEntity
  8
PORTS
  6
CONTINUOUS
  0
INSERT
  5
FD389199B6EF4E37
100
AcDbEntity
  8
DETAIL_MEDIUM
  6
CONTINUOUS
100
AcDbBlockReference
  2
IO_YGR_BYPASS_DELAY_CHAIN_WIRE
 10
-3.0
 20
19.0
 30
0.0
  0
INSERT
  5
FD389199B6EF4E38
100
AcDbEntity
  8
PORTS
  6
CONTINUOUS
100
AcDbBlockReference
 66
     1
  2
IO_YGR_COMBOUT
 10
-3.0
 20
19.0
 30
0.0
  0
ATTRIB
  5
FD389199B6EF4E39
100
AcDbEntity
  8
PORTS
  6
CONTINUOUS
100
AcDbText
 10
1509.0
 20
-370.0
 30
0.0
 40
10.0
  1
RIGHT
 50
0.000019
  7
SIMPLEX
100
AcDbAttribute
  2
SIDE
 70
     0
  0
SEQEND
  5
FD389199B6EF4E3A
100
AcDbEntity
  8
PORTS
  6
CONTINUOUS
  0
INSERT
  5
FD389199B6EF4E3B
100
AcDbEntity
  8
DETAIL_MEDIUM
  6
CONTINUOUS
100
AcDbBlockReference
  2
IO_YGR_REG_1_USED
 10
0.0
 20
0.0
 30
0.0
  0
INSERT
  5
FD389199B6EF4E3C
100
AcDbEntity
  8
DETAIL_MEDIUM
  6
CONTINUOUS
100
AcDbBlockReference
  2
IO_YGR_REG_0_USED
 10
0.0
 20
0.0
 30
0.0
  0
INSERT
  5
FD389199B6EF4E3D
100
AcDbEntity
  8
DETAIL_MEDIUM
  6
CONTINUOUS
100
AcDbBlockReference
  2
IO_YGR_DQS_LOGIC
 10
0.0
 20
0.0
 30
0.0
  0
INSERT
  5
FD389199B6EF4E3E
100
AcDbEntity
  8
PORTS
  6
CONTINUOUS
100
AcDbBlockReference
 66
     1
  2
IO_YGR_DELAY_CTRL_IN_PORT
 10
0.0
 20
0.0
 30
0.0
  0
ATTRIB
  5
FD389199B6EF4E3F
100
AcDbEntity
  8
PORTS
  6
CONTINUOUS
100
AcDbText
 10
1152.0
 20
-175.0
 30
0.0
 40
10.0
  1
TOP
  7
SIMPLEX
100
AcDbAttribute
  2
SIDE
 70
     0
  0
SEQEND
  5
FD389199B6EF4E40
100
AcDbEntity
  8
PORTS
  6
CONTINUOUS
  0
INSERT
  5
FD389199B6EF4E41
100
AcDbEntity
  8
DETAIL_MEDIUM
  6
CONTINUOUS
100
AcDbBlockReference
  2
IO_YGR_DELAY_CTRL_IN_WIRE
 10
0.0
 20
0.0
 30
0.0
  0
INSERT
  5
FD389199B6EF4E42
100
AcDbEntity
  8
DETAIL_MEDIUM
  6
CONTINUOUS
100
AcDbBlockReference
  2
IO_YGR_REG_5_SCLR
 10
1157.0
 20
-663.0
 30
0.0
  0
INSERT
  5
FD389199B6EF4F43
100
AcDbEntity
  8
DETAIL_MEDIUM
  6
CONTINUOUS
100
AcDbBlockReference
  2
IO_YGR_REG_2_USED
 10
0.0
 20
0.0
 30
0.0
  0
INSERT
  5
FD389199B6EF4E43
100
AcDbEntity
  8
DETAIL_MEDIUM
  6
CONTINUOUS
100
AcDbBlockReference
  2
IO_YGR_REGOUT_5_USED
 10
7.0
 20
7.0
 30
0.0
  0
INSERT
  5
FD389199B6EF4E44
100
AcDbEntity
  8
DETAIL_MEDIUM
  6
CONTINUOUS
100
AcDbBlockReference
  2
IO_YGR_REGOUT_5_USED_WIRE
 10
7.0
 20
7.0
 30
0.0
  0
INSERT
  5
FD389199B6EF4E45
100
AcDbEntity
  8
DETAIL_MEDIUM
100
AcDbBlockReference
  2
IO_YGR_DATAIN_1_MUX
 10
7.0
 20
7.0
 30
0.0
  0
LINE
  5
FD389199B6EF4E46
100
AcDbEntity
  8
DETAIL_MEDIUM
100
AcDbLine
 39
2.0
 10
1117.0
 20
-713.0
 30
0.0
 11
1127.0
 21
-723.0
 31
0.0
  0
LINE
  5
FD389199B6EF4E47
100
AcDbEntity
  8
DETAIL_MEDIUM
100
AcDbLine
 39
2.0
 10
1127.0
 20
-723.0
 30
0.0
 11
1117.0
 21
-733.0
 31
0.0
  0
INSERT
  5
FD389199B6EF4E48
100
AcDbEntity
  8
DETAIL_MEDIUM
  6
CONTINUOUS
100
AcDbBlockReference
 66
     1
  2
IO_YGR_REGISTER
 10
1117.0
 20
-793.0
 30
-1.0
  0
ATTRIB
  5
FD389199B6EF4E49
100
AcDbEntity
  8
DETAIL_MEDIUM
  6
CONTINUOUS
100
AcDbText
 10
1147.0
 20
-733.0
 30
-1.0
 40
10.0
  1
5
  7
SIMPLEX
100
AcDbAttribute
  2
index
 70
     0
  0
SEQEND
  5
FD389199B6EF4E4A
100
AcDbEntity
  8
DETAIL_MEDIUM
  6
CONTINUOUS
  0
INSERT
  5
FD389199B6EF4E4B
100
AcDbEntity
  8
DETAIL_MEDIUM
  6
CONTINUOUS
100
AcDbBlockReference
  2
IO_YGR_REG_56_ACLR
 10
1157.0
 20
-863.0
 30
0.0
  0
INSERT
  5
FD389199B6EF4E4C
100
AcDbEntity
  8
DETAIL_MEDIUM
  6
CONTINUOUS
100
AcDbBlockReference
 66
     1
  2
IO_YGR_DELAY_CHAIN
 10
877.0
 20
-863.0
 30
0.0
  0
ATTRIB
  5
FD389199B6EF4E4D
100
AcDbEntity
  8
DETAIL_MEDIUM
  6
CONTINUOUS
100
AcDbText
 10
947.0
 20
-853.0
 30
0.0
 40
10.0
  1
4
  7
SIMPLEX
100
AcDbAttribute
  2
index
 70
     0
  0
ATTRIB
  5
FD389199B6EF4E4E
100
AcDbEntity
  8
DETAIL_MEDIUM
  6
CONTINUOUS
100
AcDbText
 10
887.0
 20
-863.0
 30
0.0
 40
10.0
  1
Input Clock Enable Delay
  7
SIMPLEX
100
AcDbAttribute
  2
name
 70
     0
  0
SEQEND
  5
FD389199B6EF4E4F
100
AcDbEntity
  8
DETAIL_MEDIUM
  6
CONTINUOUS
  0
INSERT
  5
FD389199B6EF4E50
100
AcDbEntity
  8
DETAIL_MEDIUM
  6
CONTINUOUS
100
AcDbBlockReference
  2
IO_YGR_CLK_IN_WIRE1
 10
7.0
 20
-13.0
 30
0.0
  0
INSERT
  5
FD389199B6EF4E51
100
AcDbEntity
  8
PORTS
  6
CONTINUOUS
100
AcDbBlockReference
 66
     1
  2
IO_YGR_REG_4_CE_IN
 10
7.0
 20
7.0
 30
0.0
  0
ATTRIB
  5
FD389199B6EF4E52
100
AcDbEntity
  8
PORTS
  6
CONTINUOUS
100
AcDbText
 10
739.0
 20
-821.0
 30
0.0
 40
10.0
  1
LEFT
 50
0.000019
  7
SIMPLEX
100
AcDbAttribute
  2
SIDE
 70
     0
  0
SEQEND
  5
FD389199B6EF4E53
100
AcDbEntity
  8
PORTS
  6
CONTINUOUS
  0
INSERT
  5
FD389199B6EF4E54
100
AcDbEntity
  8
PORTS
  6
CONTINUOUS
100
AcDbBlockReference
 66
     1
  2
IO_YGR_CLK_IN
 10
-3.0
 20
18.0
 30
0.0
  0
ATTRIB
  5
FD389199B6EF4E55
100
AcDbEntity
  8
PORTS
  6
CONTINUOUS
100
AcDbText
 10
739.0
 20
-711.0
 30
0.0
 40
10.0
  1
LEFT
 50
0.000019
  7
SIMPLEX
100
AcDbAttribute
  2
SIDE
 70
     0
  0
SEQEND
  5
FD389199B6EF4E56
100
AcDbEntity
  8
PORTS
  6
CONTINUOUS
  0
INSERT
  5
FD389199B6EF4E57
100
AcDbEntity
  8
PORTS
  6
CONTINUOUS
100
AcDbBlockReference
 66
     1
  2
IO_YGR_DQS_CLK_PORT
 10
-3.0
 20
19.0
 30
0.0
  0
ATTRIB
  5
FD389199B6EF4E58
100
AcDbEntity
  8
PORTS
  6
CONTINUOUS
100
AcDbText
 10
739.0
 20
-711.0
 30
0.0
 40
10.0
  1
LEFT
 50
0.000019
  7
SIMPLEX
100
AcDbAttribute
  2
SIDE
 70
     0
  0
SEQEND
  5
FD389199B6EF4E59
100
AcDbEntity
  8
PORTS
  6
CONTINUOUS
  0
INSERT
  5
FD389199B6EF4E5A
100
AcDbEntity
  8
DETAIL_MEDIUM
  6
CONTINUOUS
100
AcDbBlockReference
  2
IO_YGR_DQS_CLK_WIRE
 10
-3.0
 20
19.0
 30
0.0
  0
INSERT
  5
FD389199B6EF4E5B
100
AcDbEntity
  8
DETAIL_MEDIUM
  6
CONTINUOUS
100
AcDbBlockReference
 66
     1
  2
IO_YGR_DELAY_CHAIN
 10
877.0
 20
-752.0
 30
0.0
  0
ATTRIB
  5
FD389199B6EF4E5C
100
AcDbEntity
  8
DETAIL_MEDIUM
  6
CONTINUOUS
100
AcDbText
 10
947.0
 20
-742.0
 30
0.0
 40
10.0
  1
B
  7
SIMPLEX
100
AcDbAttribute
  2
index
 70
     0
  0
ATTRIB
  5
FD389199B6EF4E5D
100
AcDbEntity
  8
DETAIL_MEDIUM
  6
CONTINUOUS
100
AcDbText
 10
887.0
 20
-752.0
 30
0.0
 40
10.0
  1
DQS local clock Delay
  7
SIMPLEX
100
AcDbAttribute
  2
name
 70
     0
  0
SEQEND
  5
FD389199B6EF4E5E
100
AcDbEntity
  8
DETAIL_MEDIUM
  6
CONTINUOUS
  0
INSERT
  5
FD389199B6EF4E5F
100
AcDbEntity
  8
DETAIL_MEDIUM
  6
CONTINUOUS
100
AcDbBlockReference
 66
     1
  2
IO_YGR_LATCH
 10
0.0
 20
0.0
 30
0.0
  0
ATTRIB
  5
FD389199B6EF4E60
100
AcDbEntity
  8
DETAIL_MEDIUM
  6
CONTINUOUS
100
AcDbText
 10
1297.0
 20
-729.0
 30
0.0
 40
10.0
  1
5
  7
SIMPLEX
100
AcDbAttribute
  2
index
 70
     0
  0
SEQEND
  5
FD389199B6EF4E61
100
AcDbEntity
  8
DETAIL_MEDIUM
  6
CONTINUOUS
  0
INSERT
  5
FD389199B6EF4E62
100
AcDbEntity
  8
DETAIL_MEDIUM
  6
CONTINUOUS
100
AcDbBlockReference
  2
IO_YGR_REG_5_CLK_IN
 10
0.0
 20
0.0
 30
0.0
  0
INSERT
  5
FD389199B6EF4E63
100
AcDbEntity
  8
DETAIL_MEDIUM
  6
CONTINUOUS
100
AcDbBlockReference
  2
IO_YGR_REG_4_CE_IN_WIRE1
 10
7.0
 20
7.0
 30
0.0
  0
INSERT
  5
FD389199B6EF4E64
100
AcDbEntity
  8
DETAIL_MEDIUM
  6
CONTINUOUS
100
AcDbBlockReference
  2
IO_YGR_REG_4_ACLR_WIRE
 10
7.0
 20
7.0
 30
0.0
  0
INSERT
  5
FD389199B6EF4E65
100
AcDbEntity
  8
DETAIL_MEDIUM
  6
CONTINUOUS
100
AcDbBlockReference
  2
IO_YGR_CLK_IN_WIRE2
 10
-3.0
 20
19.0
 30
0.0
  0
INSERT
  5
FD389199B6EF4E66
100
AcDbEntity
  8
DETAIL_MEDIUM
  6
CONTINUOUS
100
AcDbBlockReference
  2
IO_YGR_REG_5_CE_IN
 10
0.0
 20
0.0
 30
0.0
  0
ENDBLK
  5
FD389199B6EF4F45
100
AcDbEntity
  8
DETAIL_MEDIUM
  6
CONTINUOUS
100
AcDbBlockEnd
  0
BLOCK
  5
FD389199B6EB8EE7
100
AcDbEntity
  8
DETAIL_MEDIUM
  6
CONTINUOUS
100
AcDbBlockBegin
  2
IO_YGR_LATCH
 70
     2
 10
0.0
 20
0.0
 30
0.0
  1

  0
TEXT
  5
1B3D0E931A721435
100
AcDbEntity
  8
DETAIL_HIGH
100
AcDbText
 10
1284.5
 20
-685.5
 30
-1.0
 40
10.0
  1
D
100
AcDbText
  0
TEXT
  5
1B3D0E931A721436
100
AcDbEntity
  8
DETAIL_HIGH
100
AcDbText
 10
1344.5
 20
-685.5
 30
-1.0
 40
10.0
  1
Q
100
AcDbText
  0
TEXT
  5
1B3D0E931A721437
100
AcDbEntity
  8
DETAIL_HIGH
100
AcDbText
 10
1282.0
 20
-765.5
 30
-1.0
 40
10.0
  1
en
100
AcDbText
  0
INSERT
  5
1B3D0E931A721438
100
AcDbEntity
  8
DETAIL_MEDIUM
  6
CONTINUOUS
100
AcDbBlockReference
  2
IO_YGR_REG_ASYNC
 10
1307.0
 20
-793.0
 30
-1.0
  0
POLYLINE
  5
1B3D0E931A721439
100
AcDbEntity
  8
DETAIL_MEDIUM
  6
CONTINUOUS
100
AcDb2dPolyline
 66
     1
 10
0.0
 20
0.0
 30
-1.0
 70
     1
  0
VERTEX
  5
1B3D0E931A72143A
100
AcDbEntity
  8
DETAIL_MEDIUM
  6
CONTINUOUS
100
AcDbVertex
100
AcDb2dVertex
 10
1277.0
 20
-663.0
 30
-1.0
  0
VERTEX
  5
1B3D0E931A72143B
100
AcDbEntity
  8
DETAIL_MEDIUM
  6
CONTINUOUS
100
AcDbVertex
100
AcDb2dVertex
 10
1357.0
 20
-663.0
 30
-1.0
  0
VERTEX
  5
1B3D0E931A72143C
100
AcDbEntity
  8
DETAIL_MEDIUM
  6
CONTINUOUS
100
AcDbVertex
100
AcDb2dVertex
 10
1357.0
 20
-793.0
 30
-1.0
  0
VERTEX
  5
1B3D0E931A72143D
100
AcDbEntity
  8
DETAIL_MEDIUM
  6
CONTINUOUS
100
AcDbVertex
100
AcDb2dVertex
 10
1277.0
 20
-793.0
 30
-1.0
  0
SEQEND
  5
1B3D0E931A72143E
100
AcDbEntity
  8
DETAIL_MEDIUM
  6
CONTINUOUS
  0
ATTDEF
  5
1B3D0E931A72143F
100
AcDbEntity
  8
DETAIL_MEDIUM
  6
CONTINUOUS
100
AcDbText
 10
1297.0
 20
-729.0
 30
0.0
 40
10.0
  1
0
  7
SIMPLEX
100
AcDbAttributeDefinition
  3

  2
index
 70
     0
  0
TEXT
  5
FD389199B6E7D914
100
AcDbEntity
  8
DETAIL_HIGH
100
AcDbText
 10
1282.0
 20
-725.5
 30
-1.0
 40
10.0
  1
pass
100
AcDbText
  0
ENDBLK
  5
FD389199B6EB8EE8
100
AcDbEntity
  8
DETAIL_MEDIUM
  6
CONTINUOUS
100
AcDbBlockEnd
  0
BLOCK
  5
DF3414A04541897D
100
AcDbEntity
  8
DETAIL_MEDIUM
  6
CONTINUOUS
100
AcDbBlockBegin
  2
IO_YGR_REGOUT_TO_DATAIN_1
 70
     0
 10
0.0
 20
0.0
 30
0.0
  1

  0
LINE
  5
DF3414A045418978
100
AcDbEntity
  8
DETAIL_MEDIUM
  6
CONTINUOUS
100
AcDbLine
 10
1298.0
 20
-629.0
 30
0.0
 11
1439.0
 21
-629.0
 31
0.0
  0
LINE
  5
DF3414A045418977
100
AcDbEntity
  8
DETAIL_MEDIUM
  6
CONTINUOUS
100
AcDbLine
 10
1298.0
 20
-500.0
 30
0.0
 11
1298.0
 21
-629.0
 31
0.0
  0
ENDBLK
  5
DF3414A04541897F
100
AcDbEntity
  8
DETAIL_MEDIUM
  6
CONTINUOUS
100
AcDbBlockEnd
  0
BLOCK
  5
DF3414A04B4D9241
100
AcDbEntity
  8
DETAIL_MEDIUM
  6
CONTINUOUS
100
AcDbBlockBegin
  2
IO_YGR_REGOUT_TO_DATAIN_0
 70
     0
 10
0.0
 20
0.0
 30
0.0
  1

  0
LINE
  5
DF3414A04B4D923A
100
AcDbEntity
  8
DETAIL_MEDIUM
  6
CONTINUOUS
100
AcDbLine
 10
1298.0
 20
-500.0
 30
0.0
 11
1440.0
 21
-500.0
 31
0.0
  0
ENDBLK
  5
DF3414A04B4D9243
100
AcDbEntity
  8
DETAIL_MEDIUM
  6
CONTINUOUS
100
AcDbBlockEnd
  0
BLOCK
  5
DF3414A0637DB618
100
AcDbEntity
  8
DETAIL_MEDIUM
  6
CONTINUOUS
100
AcDbBlockBegin
  2
IO_YGR_CLK_IN_WIRE1
 70
     0
 10
0.0
 20
0.0
 30
0.0
  1

  0
LINE
  5
DF3414A0637DB606
100
AcDbEntity
  8
DETAIL_MEDIUM
  6
CONTINUOUS
100
AcDbLine
 10
810.0
 20
-710.0
 30
0.0
 11
1070.0
 21
-710.0
 31
0.0
  0
ENDBLK
  5
DF3414A0637DB61A
100
AcDbEntity
  8
DETAIL_MEDIUM
  6
CONTINUOUS
100
AcDbBlockEnd
  0
BLOCK
  5
DF718E7534D1D910
100
AcDbEntity
  8
DETAIL_MEDIUM
  6
CONTINUOUS
100
AcDbBlockBegin
  2
IO_YGR_CLK_IN_WIRE2
 70
     0
 10
0.0
 20
0.0
 30
0.0
  1

  0
LINE
  5
DF718E7534D1D90D
100
AcDbEntity
  8
DETAIL_MEDIUM
  6
CONTINUOUS
100
AcDbLine
 10
1080.0
 20
-552.0
 30
0.0
 11
1120.0
 21
-552.0
 31
0.0
  0
LINE
  5
DF718E7534D1D90E
100
AcDbEntity
  8
DETAIL_MEDIUM
  6
CONTINUOUS
100
AcDbLine
 10
1080.0
 20
-742.0
 30
0.0
 11
1080.0
 21
-552.0
 31
0.0
  0
ENDBLK
  5
DF718E7534D1D911
100
AcDbEntity
  8
DETAIL_MEDIUM
  6
CONTINUOUS
100
AcDbBlockEnd
  0
BLOCK
  5
DF3414A083BDE53B
100
AcDbEntity
  8
DETAIL_MEDIUM
100
AcDbBlockBegin
  2
IO_YGR_DATAIN_0_MUX
 70
     0
 10
0.0
 20
0.0
 30
0.0
  1

  0
POLYLINE
  5
DF3414A083BDE524
100
AcDbEntity
  8
DETAIL_MEDIUM
100
AcDb2dPolyline
 66
     1
 10
0.0
 20
0.0
 30
0.0
 39
2.0
 70
     1
  0
VERTEX
  5
DF3414A083BDE525
100
AcDbEntity
  8
DETAIL_MEDIUM
100
AcDbVertex
100
AcDb2dVertex
 10
1440.0
 20
-450.0
 30
0.0
  0
VERTEX
  5
DF3414A083BDE526
100
AcDbEntity
  8
DETAIL_MEDIUM
100
AcDbVertex
100
AcDb2dVertex
 10
1470.0
 20
-460.0
 30
0.0
  0
VERTEX
  5
DF3414A083BDE527
100
AcDbEntity
  8
DETAIL_MEDIUM
100
AcDbVertex
100
AcDb2dVertex
 10
1470.0
 20
-500.0
 30
0.0
  0
VERTEX
  5
DF3414A083BDE528
100
AcDbEntity
  8
DETAIL_MEDIUM
100
AcDbVertex
100
AcDb2dVertex
 10
1440.0
 20
-510.0
 30
0.0
  0
VERTEX
  5
DF3414A083BDE529
100
AcDbEntity
  8
DETAIL_MEDIUM
100
AcDbVertex
100
AcDb2dVertex
 10
1440.0
 20
-450.0
 30
0.0
  0
SEQEND
  5
DF3414A083BDE52A
100
AcDbEntity
  8
DETAIL_MEDIUM
  0
LINE
  5
DF3414A083BDE52B
100
AcDbEntity
  8
DETAIL_MEDIUM
100
AcDbLine
 10
1470.0
 20
-480.0
 30
0.0
 11
1500.0
 21
-480.0
 31
0.0
  0
ENDBLK
  5
DF3414A083BDE53D
100
AcDbEntity
  8
DETAIL_MEDIUM
100
AcDbBlockEnd
  0
BLOCK
  5
DF3414A0C0363E97
100
AcDbEntity
  8
DETAIL_MEDIUM
100
AcDbBlockBegin
  2
IO_YGR_DATAIN_1_MUX
 70
     0
 10
0.0
 20
0.0
 30
0.0
  1

  0
POLYLINE
  5
DF3414A0C0363E8B
100
AcDbEntity
  8
DETAIL_MEDIUM
100
AcDb2dPolyline
 66
     1
 10
0.0
 20
0.0
 30
0.0
 39
2.0
 70
     1
  0
VERTEX
  5
DF3414A0C0363E8C
100
AcDbEntity
  8
DETAIL_MEDIUM
100
AcDbVertex
100
AcDb2dVertex
 10
1440.0
 20
-562.0
 30
0.0
  0
VERTEX
  5
DF3414A0C0363E8D
100
AcDbEntity
  8
DETAIL_MEDIUM
100
AcDbVertex
100
AcDb2dVertex
 10
1470.0
 20
-579.0
 30
0.0
  0
VERTEX
  5
DF3414A0C0363E8E
100
AcDbEntity
  8
DETAIL_MEDIUM
100
AcDbVertex
100
AcDb2dVertex
 10
1470.0
 20
-690.0
 30
0.0
  0
VERTEX
  5
DF3414A0C0363E8F
100
AcDbEntity
  8
DETAIL_MEDIUM
100
AcDbVertex
100
AcDb2dVertex
 10
1440.0
 20
-700.0
 30
0.0
  0
VERTEX
  5
DF3414A0C0363E90
100
AcDbEntity
  8
DETAIL_MEDIUM
100
AcDbVertex
100
AcDb2dVertex
 10
1440.0
 20
-562.0
 30
0.0
  0
SEQEND
  5
DF3414A0C0363E91
100
AcDbEntity
  8
DETAIL_MEDIUM
  0
LINE
  5
DF3414A0C0363E8A
100
AcDbEntity
  8
DETAIL_MEDIUM
100
AcDbLine
 10
1471.0
 20
-635.0
 30
0.0
 11
1501.0
 21
-635.0
 31
0.0
  0
ENDBLK
  5
DF3414A0C0363E99
100
AcDbEntity
  8
DETAIL_MEDIUM
100
AcDbBlockEnd
  0
BLOCK
  5
DF3414A13D2EF64E
100
AcDbEntity
  8
DETAIL_MEDIUM
  6
CONTINUOUS
100
AcDbBlockBegin
  2
IO_YGR_REG_4_CE_IN_WIRE1
 70
     0
 10
0.0
 20
0.0
 30
0.0
  1

  0
LINE
  5
DF3414A13D2EF641
100
AcDbEntity
  8
DETAIL_MEDIUM
  6
CONTINUOUS
100
AcDbLine
 10
810.0
 20
-840.0
 30
0.0
 11
870.0
 21
-840.0
 31
0.0
  0
LINE
  5
DF3414A13D2EF642
100
AcDbEntity
  8
DETAIL_MEDIUM
  6
CONTINUOUS
100
AcDbLine
 10
990.0
 20
-840.0
 30
0.0
 11
950.0
 21
-840.0
 31
0.0
  0
LINE
  5
DF3414A13D2EF643
100
AcDbEntity
  8
DETAIL_MEDIUM
  6
CONTINUOUS
100
AcDbLine
 10
990.0
 20
-580.0
 30
0.0
 11
990.0
 21
-840.0
 31
0.0
  0
LINE
  5
DF3414A13D2EF64B
100
AcDbEntity
  8
DETAIL_MEDIUM
  6
CONTINUOUS
100
AcDbLine
 10
990.0
 20
-580.0
 30
0.0
 11
1090.0
 21
-580.0
 31
0.0
  0
ENDBLK
  5
DF3414A13D2EF650
100
AcDbEntity
  8
DETAIL_MEDIUM
  6
CONTINUOUS
100
AcDbBlockEnd
  0
BLOCK
  5
DF3414A13D2EF652
100
AcDbEntity
  8
DETAIL_MEDIUM
  6
CONTINUOUS
100
AcDbBlockBegin
  2
IO_YGR_REG_4_CE_IN_WIRE2
 70
     0
 10
0.0
 20
0.0
 30
0.0
  1

  0
LINE
  5
DF3414A13D2EF64C
100
AcDbEntity
  8
DETAIL_MEDIUM
  6
CONTINUOUS
100
AcDbLine
 10
1090.0
 20
-580.0
 30
0.0
 11
1109.0
 21
-580.0
 31
0.0
  0
ENDBLK
  5
DF3414A13D2EF654
100
AcDbEntity
  8
DETAIL_MEDIUM
  6
CONTINUOUS
100
AcDbBlockEnd
  0
BLOCK
  5
DF3414A22F105A7D
100
AcDbEntity
  8
DETAIL_MEDIUM
  6
CONTINUOUS
100
AcDbBlockBegin
  2
IO_YGR_REGOUT_4_USED_WIRE1
 70
     0
 10
0.0
 20
0.0
 30
0.0
  1

  0
LINE
  5
DF3414A22F105A7B
100
AcDbEntity
  8
DETAIL_MEDIUM
  6
CONTINUOUS
100
AcDbLine
 10
1050.0
 20
-500.0
 30
0.0
 11
1110.0
 21
-500.0
 31
0.0
  0
ENDBLK
  5
DF3414A22F105A7F
100
AcDbEntity
  8
DETAIL_MEDIUM
  6
CONTINUOUS
100
AcDbBlockEnd
  0
BLOCK
  5
DF3414A22F105A81
100
AcDbEntity
  8
DETAIL_MEDIUM
  6
CONTINUOUS
100
AcDbBlockBegin
  2
IO_YGR_REGOUT_4_USED_WIRE2
 70
     0
 10
0.0
 20
0.0
 30
0.0
  1

  0
LINE
  5
DF3414A22F105A76
100
AcDbEntity
  8
DETAIL_MEDIUM
  6
CONTINUOUS
100
AcDbLine
 10
970.0
 20
-500.0
 30
0.0
 11
1050.0
 21
-500.0
 31
0.0
  0
LINE
  5
DF3414A22F105A70
100
AcDbEntity
  8
DETAIL_MEDIUM
  6
CONTINUOUS
100
AcDbLine
 10
970.0
 20
-500.0
 30
0.0
 11
970.0
 21
-590.0
 31
0.0
  0
LINE
  5
DF3414A22F105A6F
100
AcDbEntity
  8
DETAIL_MEDIUM
  6
CONTINUOUS
100
AcDbLine
 10
970.0
 20
-590.0
 30
0.0
 11
950.0
 21
-590.0
 31
0.0
  0
LINE
  5
DF3414A22F105A6E
100
AcDbEntity
  8
DETAIL_MEDIUM
  6
CONTINUOUS
100
AcDbLine
 10
831.0
 20
-590.0
 30
0.0
 11
870.0
 21
-590.0
 31
0.0
  0
ENDBLK
  5
DF3414A22F105A83
100
AcDbEntity
  8
DETAIL_MEDIUM
  6
CONTINUOUS
100
AcDbBlockEnd
  0
BLOCK
  5
DF3414A41AE32EE0
100
AcDbEntity
  8
DETAIL_MEDIUM
  6
CONTINUOUS
100
AcDbBlockBegin
  2
IO_YGR_REG_4_SCLR_WIRE
 70
     0
 10
0.0
 20
0.0
 30
0.0
  1

  0
LINE
  5
DF3414A41AE32EDC
100
AcDbEntity
  8
DETAIL_MEDIUM
  6
CONTINUOUS
100
AcDbLine
 10
1150.0
 20
-480.0
 30
0.0
 11
1150.0
 21
-430.0
 31
0.0
  0
ENDBLK
  5
DF3414A41AE32EE2
100
AcDbEntity
  8
DETAIL_MEDIUM
  6
CONTINUOUS
100
AcDbBlockEnd
  0
BLOCK
  5
DF3414A7F288D7A6
100
AcDbEntity
  8
DETAIL_MEDIUM
  6
CONTINUOUS
100
AcDbBlockBegin
  2
IO_YGR_SCLR_WIRE2
 70
     0
 10
0.0
 20
0.0
 30
0.0
  1

  0
LINE
  5
DF3414A7F288D7A1
100
AcDbEntity
  8
DETAIL_MEDIUM
  6
CONTINUOUS
100
AcDbLine
 10
120.0
 20
-360.0
 30
0.0
 11
120.0
 21
-430.0
 31
0.0
  0
ENDBLK
  5
DF3414A7F288D7A8
100
AcDbEntity
  8
DETAIL_MEDIUM
  6
CONTINUOUS
100
AcDbBlockEnd
  0
BLOCK
  5
DF3414AFA1D42737
100
AcDbEntity
  8
DETAIL_MEDIUM
  6
CONTINUOUS
100
AcDbBlockBegin
  2
IO_YGR_SCLR_WIRE1
 70
     0
 10
0.0
 20
0.0
 30
0.0
  1

  0
LINE
  5
DF3414AFA1D42731
100
AcDbEntity
  8
DETAIL_MEDIUM
  6
CONTINUOUS
100
AcDbLine
 10
90.0
 20
-360.0
 30
0.0
 11
120.0
 21
-360.0
 31
0.0
  0
ENDBLK
  5
DF3414AFA1D42739
100
AcDbEntity
  8
DETAIL_MEDIUM
  6
CONTINUOUS
100
AcDbBlockEnd
  0
BLOCK
  5
DF3414BF006AC86A
100
AcDbEntity
  8
DETAIL_MEDIUM
  6
CONTINUOUS
100
AcDbBlockBegin
  2
IO_YGR_REG_4_ACLR_WIRE
 70
     0
 10
0.0
 20
0.0
 30
0.0
  1

  0
LINE
  5
DF3414BF006AC864
100
AcDbEntity
  8
DETAIL_MEDIUM
  6
CONTINUOUS
100
AcDbLine
 10
1220.0
 20
-630.0
 30
0.0
 11
1220.0
 21
-870.0
 31
0.0
  0
LINE
  5
DF3414BF006AC863
100
AcDbEntity
  8
DETAIL_MEDIUM
  6
CONTINUOUS
100
AcDbLine
 10
1150.0
 20
-630.0
 30
0.0
 11
1220.0
 21
-630.0
 31
0.0
  0
LINE
  5
DF3414BF006AC862
100
AcDbEntity
  8
DETAIL_MEDIUM
  6
CONTINUOUS
100
AcDbLine
 10
1150.0
 20
-610.0
 30
0.0
 11
1150.0
 21
-630.0
 31
0.0
  0
ENDBLK
  5
DF3414BF006AC86C
100
AcDbEntity
  8
DETAIL_MEDIUM
  6
CONTINUOUS
100
AcDbBlockEnd
  0
BLOCK
  5
DF3414DDBD980AEF
100
AcDbEntity
  8
DETAIL_MEDIUM
  6
CONTINUOUS
100
AcDbBlockBegin
  2
IO_YGR_ACLR_WIRE2
 70
     0
 10
0.0
 20
0.0
 30
0.0
  1

  0
LINE
  5
DF3414DDBD980AE9
100
AcDbEntity
  8
DETAIL_MEDIUM
  6
CONTINUOUS
100
AcDbLine
 10
340.0
 20
-410.0
 30
0.0
 11
340.0
 21
-630.0
 31
0.0
  0
ENDBLK
  5
DF3414DDBD980AF1
100
AcDbEntity
  8
DETAIL_MEDIUM
  6
CONTINUOUS
100
AcDbBlockEnd
  0
BLOCK
  5
DF34151B37F28DCF
100
AcDbEntity
  8
DETAIL_MEDIUM
  6
CONTINUOUS
100
AcDbBlockBegin
  2
IO_YGR_ACLR_WIRE1
 70
     0
 10
0.0
 20
0.0
 30
0.0
  1

  0
LINE
  5
DF34151B37F28DC9
100
AcDbEntity
  8
DETAIL_MEDIUM
  6
CONTINUOUS
100
AcDbLine
 10
90.0
 20
-410.0
 30
0.0
 11
340.0
 21
-410.0
 31
0.0
  0
ENDBLK
  5
DF34151B37F28DD1
100
AcDbEntity
  8
DETAIL_MEDIUM
  6
CONTINUOUS
100
AcDbBlockEnd
  0
BLOCK
  5
DF3415962AA39233
100
AcDbEntity
  8
DETAIL_MEDIUM
  6
CONTINUOUS
100
AcDbBlockBegin
  2
IO_YGR_REGOUT_5_USED_WIRE
 70
     0
 10
0.0
 20
0.0
 30
0.0
  1

  0
LINE
  5
DF3415962AA3922C
100
AcDbEntity
  8
DETAIL_MEDIUM
  6
CONTINUOUS
100
AcDbLine
 10
1050.0
 20
-500.0
 30
0.0
 11
1050.0
 21
-690.0
 31
0.0
  0
LINE
  5
DF3415962AA3922D
100
AcDbEntity
  8
DETAIL_MEDIUM
  6
CONTINUOUS
100
AcDbLine
 10
1050.0
 20
-690.0
 30
0.0
 11
1110.0
 21
-690.0
 31
0.0
  0
ENDBLK
  5
DF3415962AA39235
100
AcDbEntity
  8
DETAIL_MEDIUM
  6
CONTINUOUS
100
AcDbBlockEnd
  0
BLOCK
  5
DF34168C12099C46
100
AcDbEntity
  8
DETAIL_MEDIUM
100
AcDbBlockBegin
  2
IO_YGR_REG_0_USED_OR_GATE
 70
     0
 10
0.0
 20
0.0
 30
0.0
  1

  0
POLYLINE
  5
DF34168C12099C33
100
AcDbEntity
  8
DETAIL_MEDIUM
100
AcDb2dPolyline
 66
     1
 10
0.0
 20
0.0
 30
0.0
 70
     1
  0
VERTEX
  5
DF34168C12099C34
100
AcDbEntity
  8
DETAIL_MEDIUM
100
AcDbVertex
100
AcDb2dVertex
 10
648.0
 20
-100.0
 30
0.0
  0
VERTEX
  5
DF34168C12099C35
100
AcDbEntity
  8
DETAIL_MEDIUM
100
AcDbVertex
100
AcDb2dVertex
 10
640.0
 20
-90.0
 30
0.0
  0
VERTEX
  5
DF34168C12099C36
100
AcDbEntity
  8
DETAIL_MEDIUM
100
AcDbVertex
100
AcDb2dVertex
 10
628.0
 20
-82.0
 30
0.0
  0
VERTEX
  5
DF34168C12099C37
100
AcDbEntity
  8
DETAIL_MEDIUM
100
AcDbVertex
100
AcDb2dVertex
 10
618.0
 20
-80.0
 30
0.0
  0
VERTEX
  5
DF34168C12099C38
100
AcDbEntity
  8
DETAIL_MEDIUM
100
AcDbVertex
100
AcDb2dVertex
 10
608.0
 20
-80.0
 30
0.0
  0
VERTEX
  5
DF34168C12099C39
100
AcDbEntity
  8
DETAIL_MEDIUM
100
AcDbVertex
100
AcDb2dVertex
 10
618.0
 20
-90.0
 30
0.0
  0
VERTEX
  5
DF34168C12099C3A
100
AcDbEntity
  8
DETAIL_MEDIUM
100
AcDbVertex
100
AcDb2dVertex
 10
620.0
 20
-100.0
 30
0.0
  0
VERTEX
  5
DF34168C12099C3B
100
AcDbEntity
  8
DETAIL_MEDIUM
100
AcDbVertex
100
AcDb2dVertex
 10
618.0
 20
-110.0
 30
0.0
  0
VERTEX
  5
DF34168C12099C3C
100
AcDbEntity
  8
DETAIL_MEDIUM
100
AcDbVertex
100
AcDb2dVertex
 10
608.0
 20
-120.0
 30
0.0
  0
VERTEX
  5
DF34168C12099C3D
100
AcDbEntity
  8
DETAIL_MEDIUM
100
AcDbVertex
100
AcDb2dVertex
 10
618.0
 20
-120.0
 30
0.0
  0
VERTEX
  5
DF34168C12099C3E
100
AcDbEntity
  8
DETAIL_MEDIUM
100
AcDbVertex
100
AcDb2dVertex
 10
628.0
 20
-118.0
 30
0.0
  0
VERTEX
  5
DF34168C12099C3F
100
AcDbEntity
  8
DETAIL_MEDIUM
100
AcDbVertex
100
AcDb2dVertex
 10
640.0
 20
-110.0
 30
0.0
  0
VERTEX
  5
DF34168C12099C40
100
AcDbEntity
  8
DETAIL_MEDIUM
100
AcDbVertex
100
AcDb2dVertex
 10
648.0
 20
-100.0
 30
0.0
  0
SEQEND
  5
DF34168C12099C41
100
AcDbEntity
  8
DETAIL_MEDIUM
  0
ENDBLK
  5
DF34168C12099C48
100
AcDbEntity
  8
DETAIL_MEDIUM
100
AcDbBlockEnd
  0
BLOCK
  5
DF341877E09533AC
100
AcDbEntity
  8
DETAIL_MEDIUM
  6
CONTINUOUS
100
AcDbBlockBegin
  2
IO_YGR_CE_PATH_USED_MUX
 70
     0
 10
0.0
 20
0.0
 30
0.0
  1

  0
POLYLINE
  5
DF341877E09533A2
100
AcDbEntity
  8
DETAIL_MEDIUM
  6
CONTINUOUS
100
AcDb2dPolyline
 66
     1
 10
0.0
 20
0.0
 30
0.0
 39
2.0
 70
     1
  0
VERTEX
  5
DF341877E09533A3
100
AcDbEntity
  8
DETAIL_MEDIUM
  6
CONTINUOUS
100
AcDbVertex
100
AcDb2dVertex
 10
780.0
 20
-30.0
 30
0.0
  0
VERTEX
  5
DF341877E09533A4
100
AcDbEntity
  8
DETAIL_MEDIUM
  6
CONTINUOUS
100
AcDbVertex
100
AcDb2dVertex
 10
810.0
 20
-40.0
 30
0.0
  0
VERTEX
  5
DF341877E09533A5
100
AcDbEntity
  8
DETAIL_MEDIUM
  6
CONTINUOUS
100
AcDbVertex
100
AcDb2dVertex
 10
810.0
 20
-100.0
 30
0.0
  0
VERTEX
  5
DF341877E09533A6
100
AcDbEntity
  8
DETAIL_MEDIUM
  6
CONTINUOUS
100
AcDbVertex
100
AcDb2dVertex
 10
780.0
 20
-110.0
 30
0.0
  0
VERTEX
  5
DF341877E09533A7
100
AcDbEntity
  8
DETAIL_MEDIUM
  6
CONTINUOUS
100
AcDbVertex
100
AcDb2dVertex
 10
780.0
 20
-30.0
 30
0.0
  0
SEQEND
  5
DF341877E09533A8
100
AcDbEntity
  8
DETAIL_MEDIUM
  6
CONTINUOUS
  0
ENDBLK
  5
DF341877E09533AE
100
AcDbEntity
  8
DETAIL_MEDIUM
  6
CONTINUOUS
100
AcDbBlockEnd
  0
BLOCK
  5
DF341C4F7DECE1D8
100
AcDbEntity
  8
DETAIL_MEDIUM
  6
CONTINUOUS
100
AcDbBlockBegin
  2
IO_YGR_OE_WIRE1
 70
     0
 10
0.0
 20
0.0
 30
0.0
  1

  0
LINE
  5
DF341C4F7DECE1D5
100
AcDbEntity
  8
DETAIL_MEDIUM
  6
CONTINUOUS
100
AcDbLine
 10
90.0
 20
-90.0
 30
0.0
 11
360.0
 21
-90.0
 31
0.0
  0
ENDBLK
  5
DF341C4F7DECE1DA
100
AcDbEntity
  8
DETAIL_MEDIUM
  6
CONTINUOUS
100
AcDbBlockEnd
  0
BLOCK
  5
DF341C4F7DECE1DC
100
AcDbEntity
  8
DETAIL_MEDIUM
  6
CONTINUOUS
100
AcDbBlockBegin
  2
IO_YGR_OE_WIRE2
 70
     0
 10
0.0
 20
0.0
 30
0.0
  1

  0
LINE
  5
DF341C4F7DECE1D6
100
AcDbEntity
  8
DETAIL_MEDIUM
  6
CONTINUOUS
100
AcDbLine
 10
360.0
 20
-90.0
 30
0.0
 11
400.0
 21
-90.0
 31
0.0
  0
ENDBLK
  5
DF341C4F7DECE1DE
100
AcDbEntity
  8
DETAIL_MEDIUM
  6
CONTINUOUS
100
AcDbBlockEnd
  0
BLOCK
  5
DF3423FEB88AD5F0
100
AcDbEntity
  8
DETAIL_MEDIUM
  6
CONTINUOUS
100
AcDbBlockBegin
  2
IO_YGR_BUFFER_MUX
 70
     0
 10
0.0
 20
0.0
 30
0.0
  1

  0
LINE
  5
DF3423FEB88AD5E5
100
AcDbEntity
  8
DETAIL_MEDIUM
  6
CONTINUOUS
100
AcDbLine
 10
680.0
 20
-590.0
 30
0.0
 11
700.0
 21
-590.0
 31
0.0
  0
LINE
  5
DF3423FEB88AD5E4
100
AcDbEntity
  8
DETAIL_MEDIUM
  6
CONTINUOUS
100
AcDbLine
 10
680.0
 20
-480.0
 30
0.0
 11
680.0
 21
-590.0
 31
0.0
  0
LINE
  5
DF3423FEB88AD5E3
100
AcDbEntity
  8
DETAIL_MEDIUM
  6
CONTINUOUS
100
AcDbLine
 10
670.0
 20
-480.0
 30
0.0
 11
680.0
 21
-480.0
 31
0.0
  0
POLYLINE
  5
DF3423FEB88AD5DC
100
AcDbEntity
  8
DETAIL_MEDIUM
100
AcDb2dPolyline
 66
     1
 10
0.0
 20
0.0
 30
0.0
 39
2.0
 70
     1
  0
VERTEX
  5
DF3423FEB88AD5DD
100
AcDbEntity
  8
DETAIL_MEDIUM
100
AcDbVertex
100
AcDb2dVertex
 10
640.0
 20
-450.0
 30
0.0
  0
VERTEX
  5
DF3423FEB88AD5DE
100
AcDbEntity
  8
DETAIL_MEDIUM
100
AcDbVertex
100
AcDb2dVertex
 10
670.0
 20
-460.0
 30
0.0
  0
VERTEX
  5
DF3423FEB88AD5DF
100
AcDbEntity
  8
DETAIL_MEDIUM
100
AcDbVertex
100
AcDb2dVertex
 10
670.0
 20
-500.0
 30
0.0
  0
VERTEX
  5
DF3423FEB88AD5E0
100
AcDbEntity
  8
DETAIL_MEDIUM
100
AcDbVertex
100
AcDb2dVertex
 10
640.0
 20
-510.0
 30
0.0
  0
VERTEX
  5
DF3423FEB88AD5E1
100
AcDbEntity
  8
DETAIL_MEDIUM
100
AcDbVertex
100
AcDb2dVertex
 10
640.0
 20
-450.0
 30
0.0
  0
SEQEND
  5
DF3423FEB88AD5E2
100
AcDbEntity
  8
DETAIL_MEDIUM
  0
ENDBLK
  5
DF3423FEB88AD5F2
100
AcDbEntity
  8
DETAIL_MEDIUM
  6
CONTINUOUS
100
AcDbBlockEnd
  0
BLOCK
  5
DF34335D2DC6BE2A
100
AcDbEntity
  8
DETAIL_MEDIUM
  6
CONTINUOUS
100
AcDbBlockBegin
  2
IO_YGR_REG_2_USED_WIRE
 70
     0
 10
0.0
 20
0.0
 30
0.0
  1

  0
LINE
  5
DF34335D2DC6BE19
100
AcDbEntity
  8
DETAIL_MEDIUM
  6
CONTINUOUS
100
AcDbLine
 10
500.0
 20
-570.0
 30
0.0
 11
520.0
 21
-570.0
 31
0.0
  0
LINE
  5
DF34335D2DC6BE17
100
AcDbEntity
  8
DETAIL_MEDIUM
  6
CONTINUOUS
100
AcDbLine
 10
500.0
 20
-500.0
 30
0.0
 11
500.0
 21
-570.0
 31
0.0
  0
LINE
  5
DF34335D2DC6BE18
100
AcDbEntity
  8
DETAIL_MEDIUM
  6
CONTINUOUS
100
AcDbLine
 10
480.0
 20
-500.0
 30
0.0
 11
500.0
 21
-500.0
 31
0.0
  0
ENDBLK
  5
DF34335D2DC6BE2C
100
AcDbEntity
  8
DETAIL_MEDIUM
  6
CONTINUOUS
100
AcDbBlockEnd
  0
BLOCK
  5
DF34335D2DC6BE2E
100
AcDbEntity
  8
DETAIL_MEDIUM
  6
CONTINUOUS
100
AcDbBlockBegin
  2
IO_YGR_DIN_0_WIRE2
 70
     0
 10
0.0
 20
0.0
 30
0.0
  1

  0
LINE
  5
DF34335D2DC6BE15
100
AcDbEntity
  8
DETAIL_MEDIUM
  6
CONTINUOUS
100
AcDbLine
 10
180.0
 20
-500.0
 30
0.0
 11
220.0
 21
-500.0
 31
0.0
  0
LINE
  5
DF34335D2DC6BE16
100
AcDbEntity
  8
DETAIL_MEDIUM
  6
CONTINUOUS
100
AcDbLine
 10
300.0
 20
-500.0
 30
0.0
 11
400.0
 21
-500.0
 31
0.0
  0
ENDBLK
  5
DF34335D2DC6BE30
100
AcDbEntity
  8
DETAIL_MEDIUM
  6
CONTINUOUS
100
AcDbBlockEnd
  0
BLOCK
  5
DF34521A184F5B58
100
AcDbEntity
  8
DETAIL_MEDIUM
  6
CONTINUOUS
100
AcDbBlockBegin
  2
IO_YGR_DIN_0_WIRE1
 70
     0
 10
0.0
 20
0.0
 30
0.0
  1

  0
LINE
  5
DF34521A184F5B48
100
AcDbEntity
  8
DETAIL_MEDIUM
  6
CONTINUOUS
100
AcDbLine
 10
90.0
 20
-500.0
 30
0.0
 11
180.0
 21
-500.0
 31
0.0
  0
ENDBLK
  5
DF34521A184F5B5A
100
AcDbEntity
  8
DETAIL_MEDIUM
  6
CONTINUOUS
100
AcDbBlockEnd
  0
BLOCK
  5
DF348F93ED612EAE
100
AcDbEntity
  8
DETAIL_MEDIUM
  6
CONTINUOUS
100
AcDbBlockBegin
  2
IO_YGR_DIN_1_WIRE2
 70
     0
 10
0.0
 20
0.0
 30
0.0
  1

  0
LINE
  5
DF348F93ED612EA8
100
AcDbEntity
  8
DETAIL_MEDIUM
  6
CONTINUOUS
100
AcDbLine
 10
480.0
 20
-690.0
 30
0.0
 11
500.0
 21
-690.0
 31
0.0
  0
LINE
  5
DF348F93ED612EA6
100
AcDbEntity
  8
DETAIL_MEDIUM
  6
CONTINUOUS
100
AcDbLine
 10
500.0
 20
-690.0
 30
0.0
 11
500.0
 21
-610.0
 31
0.0
  0
LINE
  5
DF348F93ED612EA7
100
AcDbEntity
  8
DETAIL_MEDIUM
  6
CONTINUOUS
100
AcDbLine
 10
500.0
 20
-610.0
 30
0.0
 11
520.0
 21
-610.0
 31
0.0
  0
ENDBLK
  5
DF348F93ED612EB0
100
AcDbEntity
  8
DETAIL_MEDIUM
  6
CONTINUOUS
100
AcDbBlockEnd
  0
BLOCK
  5
DF348F93ED612EB2
100
AcDbEntity
  8
DETAIL_MEDIUM
  6
CONTINUOUS
100
AcDbBlockBegin
  2
IO_YGR_DIN_1_WIRE1
 70
     0
 10
0.0
 20
0.0
 30
0.0
  1

  0
LINE
  5
DF348F93ED612EA4
100
AcDbEntity
  8
DETAIL_MEDIUM
  6
CONTINUOUS
100
AcDbLine
 10
90.0
 20
-690.0
 30
0.0
 11
220.0
 21
-690.0
 31
0.0
  0
LINE
  5
DF348F93ED612EA5
100
AcDbEntity
  8
DETAIL_MEDIUM
  6
CONTINUOUS
100
AcDbLine
 10
300.0
 20
-690.0
 30
0.0
 11
400.0
 21
-690.0
 31
0.0
  0
ENDBLK
  5
DF348F93ED612EB4
100
AcDbEntity
  8
DETAIL_MEDIUM
  6
CONTINUOUS
100
AcDbBlockEnd
  0
BLOCK
  5
DF350A879784D7B9
100
AcDbEntity
  8
DETAIL_MEDIUM
  6
CONTINUOUS
100
AcDbBlockBegin
  2
IO_YGR_CLKOUT_WIRE1
 70
     0
 10
0.0
 20
0.0
 30
0.0
  1

  0
LINE
  5
DF350A879784D7B6
100
AcDbEntity
  8
DETAIL_MEDIUM
  6
CONTINUOUS
100
AcDbLine
 10
91.0
 20
-130.0
 30
0.0
 11
360.0
 21
-130.0
 31
0.0
  0
ENDBLK
  5
DF350A879784D7BB
100
AcDbEntity
  8
DETAIL_MEDIUM
  6
CONTINUOUS
100
AcDbBlockEnd
  0
BLOCK
  5
DF350A879784D7BD
100
AcDbEntity
  8
DETAIL_MEDIUM
  6
CONTINUOUS
100
AcDbBlockBegin
  2
IO_YGR_CLKOUT_WIRE2
 70
     0
 10
0.0
 20
0.0
 30
0.0
  1

  0
LINE
  5
DF350A879784D7B7
100
AcDbEntity
  8
DETAIL_MEDIUM
  6
CONTINUOUS
100
AcDbLine
 10
360.0
 20
-130.0
 30
0.0
 11
400.0
 21
-130.0
 31
0.0
  0
ENDBLK
  5
DF350A879784D7BF
100
AcDbEntity
  8
DETAIL_MEDIUM
  6
CONTINUOUS
100
AcDbBlockEnd
  0
BLOCK
  5
DF350A879784D7C1
100
AcDbEntity
  8
DETAIL_MEDIUM
  6
CONTINUOUS
100
AcDbBlockBegin
  2
IO_YGR_CLKOUT_WIRE3
 70
     0
 10
0.0
 20
0.0
 30
0.0
  1

  0
LINE
  5
DF350A879784D7AE
100
AcDbEntity
  8
DETAIL_MEDIUM
  6
CONTINUOUS
100
AcDbLine
 10
360.0
 20
-130.0
 30
0.0
 11
360.0
 21
-320.0
 31
0.0
  0
ENDBLK
  5
DF350A879784D7C3
100
AcDbEntity
  8
DETAIL_MEDIUM
  6
CONTINUOUS
100
AcDbBlockEnd
  0
BLOCK
  5
DF350A879784D7C5
100
AcDbEntity
  8
DETAIL_MEDIUM
  6
CONTINUOUS
100
AcDbBlockBegin
  2
IO_YGR_CLKOUT_WIRE4
 70
     0
 10
0.0
 20
0.0
 30
0.0
  1

  0
LINE
  5
DF350A879784D7AF
100
AcDbEntity
  8
DETAIL_MEDIUM
  6
CONTINUOUS
100
AcDbLine
 10
360.0
 20
-320.0
 30
0.0
 11
360.0
 21
-540.0
 31
0.0
  0
ENDBLK
  5
DF350A879784D7C7
100
AcDbEntity
  8
DETAIL_MEDIUM
  6
CONTINUOUS
100
AcDbBlockEnd
  0
BLOCK
  5
FD389199B6EF4CD0
100
AcDbEntity
  8
DETAIL_MEDIUM
  6
CONTINUOUS
100
AcDbBlockBegin
  2
IO_YGR_CLKOUT_WIRE5
 70
     0
 10
0.0
 20
0.0
 30
0.0
  1

  0
LINE
  5
1B3C18ABD659C1CF
100
AcDbEntity
  8
DETAIL_MEDIUM
  6
CONTINUOUS
100
AcDbLine
 10
367.0
 20
-533.0
 30
0.0
 11
407.0
 21
-533.0
 31
0.0
  0
LINE
  5
FD389199B6EF4CCD
100
AcDbEntity
  8
DETAIL_MEDIUM
  6
CONTINUOUS
100
AcDbLine
 10
542.0
 20
-608.0
 30
0.0
 11
542.0
 21
-626.0
 31
0.0
  0
TEXT
  5
FD389199B6EF4CCF
100
AcDbEntity
  8
DETAIL_MEDIUM
  6
CONTINUOUS
100
AcDbText
 10
518.0
 20
-642.0
 30
0.0
 40
10.0
  1
OUTCLK
  7
SIMPLEX
100
AcDbText
  0
ENDBLK
  5
FD389199B6EF4CD1
100
AcDbEntity
  8
DETAIL_MEDIUM
  6
CONTINUOUS
100
AcDbBlockEnd
  0
BLOCK
  5
FD389199B6EF4C02
100
AcDbEntity
  8
DETAIL_MEDIUM
  6
CONTINUOUS
100
AcDbBlockBegin
  2
IO_YGR_DDR_CLKOUT2
 70
     0
 10
0.0
 20
0.0
 30
0.0
  1

  0
LINE
  5
FD389199B6EF4C00
100
AcDbEntity
  8
DETAIL_MEDIUM
  6
CONTINUOUS
100
AcDbLine
 10
367.0
 20
-723.0
 30
0.0
 11
407.0
 21
-723.0
 31
0.0
  0
LINE
  5
1AC406B7F0070FA8
100
AcDbEntity
  8
DETAIL_MEDIUM
  6
CONTINUOUS
100
AcDbLine
 10
367.0
 20
-533.0
 30
0.0
 11
367.0
 21
-723.0
 31
0.0
  0
ENDBLK
  5
FD389199B6EF4C03
100
AcDbEntity
  8
DETAIL_MEDIUM
  6
CONTINUOUS
100
AcDbBlockEnd
  0
BLOCK
  5
DF43731587B2A5C8
100
AcDbEntity
  8
DETAIL_MEDIUM
  6
CONTINUOUS
100
AcDbBlockBegin
  2
IO_YGR_CEOUT_WIRE1
 70
     0
 10
0.0
 20
0.0
 30
0.0
  1

  0
LINE
  5
DF37EC3D945ACDE1
100
AcDbEntity
  8
DETAIL_MEDIUM
  6
CONTINUOUS
100
AcDbLine
 10
90.0
 20
-170.0
 30
0.0
 11
200.0
 21
-170.0
 31
0.0
  0
ENDBLK
  5
DF43731587B2A5CA
100
AcDbEntity
  8
DETAIL_MEDIUM
  6
CONTINUOUS
100
AcDbBlockEnd
  0
BLOCK
  5
DF43731587B2A5CC
100
AcDbEntity
  8
DETAIL_MEDIUM
  6
CONTINUOUS
100
AcDbBlockBegin
  2
IO_YGR_CEOUT_WIRE2
 70
     0
 10
0.0
 20
0.0
 30
0.0
  1

  0
LINE
  5
DF37EC3D945ACDE2
100
AcDbEntity
  8
DETAIL_MEDIUM
  6
CONTINUOUS
100
AcDbLine
 10
220.0
 20
-170.0
 30
0.0
 11
200.0
 21
-170.0
 31
0.0
  0
LINE
  5
DF3BC3DAE57815F8
100
AcDbEntity
  8
DETAIL_MEDIUM
  6
CONTINUOUS
100
AcDbLine
 10
300.0
 20
-170.0
 30
0.0
 11
320.0
 21
-170.0
 31
0.0
  0
ENDBLK
  5
DF43731587B2A5CE
100
AcDbEntity
  8
DETAIL_MEDIUM
  6
CONTINUOUS
100
AcDbBlockEnd
  0
BLOCK
  5
DF43731587B2A5D0
100
AcDbEntity
  8
DETAIL_MEDIUM
  6
CONTINUOUS
100
AcDbBlockBegin
  2
IO_YGR_CEOUT_WIRE3
 70
     0
 10
0.0
 20
0.0
 30
0.0
  1

  0
LINE
  5
DF37EC3D945ACDE3
100
AcDbEntity
  8
DETAIL_MEDIUM
  6
CONTINUOUS
100
AcDbLine
 10
200.0
 20
-170.0
 30
0.0
 11
200.0
 21
-580.0
 31
0.0
  0
ENDBLK
  5
DF43731587B2A5D2
100
AcDbEntity
  8
DETAIL_MEDIUM
  6
CONTINUOUS
100
AcDbBlockEnd
  0
BLOCK
  5
DF43731587B2A5D4
100
AcDbEntity
  8
DETAIL_MEDIUM
  6
CONTINUOUS
100
AcDbBlockBegin
  2
IO_YGR_CEOUT_WIRE4
 70
     0
 10
0.0
 20
0.0
 30
0.0
  1

  0
LINE
  5
DF37EC3D945ACDE4
100
AcDbEntity
  8
DETAIL_MEDIUM
  6
CONTINUOUS
100
AcDbLine
 10
200.0
 20
-580.0
 30
0.0
 11
220.0
 21
-580.0
 31
0.0
  0
LINE
  5
DF43731587B2A5C2
100
AcDbEntity
  8
DETAIL_MEDIUM
  6
CONTINUOUS
100
AcDbLine
 10
300.0
 20
-580.0
 30
0.0
 11
320.0
 21
-580.0
 31
0.0
  0
ENDBLK
  5
DF43731587B2A5D6
100
AcDbEntity
  8
DETAIL_MEDIUM
  6
CONTINUOUS
100
AcDbBlockEnd
  0
BLOCK
  5
DF43731587B2A5D8
100
AcDbEntity
  8
DETAIL_MEDIUM
  6
CONTINUOUS
100
AcDbBlockBegin
  2
IO_YGR_ACLR_POINT1
 70
     0
 10
0.0
 20
0.0
 30
0.0
  1

  0
POINT
  5
DF3414A0535D9DFD
100
AcDbEntity
  8
DETAIL_MEDIUM
  6
CONTINUOUS
100
AcDbPoint
 10
340.0
 20
-410.0
 30
0.0
  0
ENDBLK
  5
DF43731587B2A5DA
100
AcDbEntity
  8
DETAIL_MEDIUM
  6
CONTINUOUS
100
AcDbBlockEnd
  0
BLOCK
  5
FD389199B6E7D5B8
100
AcDbEntity
  8
PORTS
  6
CONTINUOUS
100
AcDbBlockBegin
  2
IO_YGR_DQS_CLK_PORT
 70
     2
 10
0.0
 20
0.0
 30
0.0
  1

  0
ATTDEF
  5
FD389199B6E7D5AC
100
AcDbEntity
  8
PORTS
  6
CONTINUOUS
100
AcDbText
 10
742.0
 20
-730.0
 30
0.0
 40
10.0
  1

 50
0.000019
  7
SIMPLEX
100
AcDbAttributeDefinition
  3

  2
SIDE
 70
     0
  0
POLYLINE
  5
FD389199B6E7D5A3
100
AcDbEntity
  8
PORTS
  6
CONTINUOUS
100
AcDb2dPolyline
 66
     1
 10
0.0
 20
0.0
 30
0.0
 70
     1
  0
VERTEX
  5
FD389199B6E7D5A4
100
AcDbEntity
  8
PORTS
  6
CONTINUOUS
100
AcDbVertex
100
AcDb2dVertex
 10
820.0
 20
-742.0
 30
0.0
  0
VERTEX
  5
FD389199B6E7D5A5
100
AcDbEntity
  8
PORTS
  6
CONTINUOUS
100
AcDbVertex
100
AcDb2dVertex
 10
812.0
 20
-748.0
 30
0.0
  0
VERTEX
  5
FD389199B6E7D5A6
100
AcDbEntity
  8
PORTS
  6
CONTINUOUS
100
AcDbVertex
100
AcDb2dVertex
 10
740.0
 20
-748.0
 30
0.0
  0
VERTEX
  5
FD389199B6E7D5A7
100
AcDbEntity
  8
PORTS
  6
CONTINUOUS
100
AcDbVertex
100
AcDb2dVertex
 10
740.0
 20
-736.0
 30
0.0
  0
VERTEX
  5
FD389199B6E7D5A8
100
AcDbEntity
  8
PORTS
  6
CONTINUOUS
100
AcDbVertex
100
AcDb2dVertex
 10
812.0
 20
-736.0
 30
0.0
  0
VERTEX
  5
FD389199B6E7D5A9
100
AcDbEntity
  8
PORTS
  6
CONTINUOUS
100
AcDbVertex
100
AcDb2dVertex
 10
820.0
 20
-742.0
 30
0.0
  0
SEQEND
  5
FD389199B6E7D5AA
100
AcDbEntity
  8
PORTS
  6
CONTINUOUS
  0
POINT
  5
FD389199B6E7D5AB
100
AcDbEntity
  8
PORTS
  6
CONTINUOUS
100
AcDbPoint
 10
820.0
 20
-742.0
 30
0.0
  0
ENDBLK
  5
FD389199B6E7D5BA
100
AcDbEntity
  8
PORTS
  6
CONTINUOUS
100
AcDbBlockEnd
  0
BLOCK
  5
FD389199B6E7D5BE
100
AcDbEntity
  8
DETAIL_MEDIUM
  6
CONTINUOUS
100
AcDbBlockBegin
  2
IO_YGR_DQS_CLK_WIRE
 70
     0
 10
0.0
 20
0.0
 30
0.0
  1

  0
LINE
  5
FD389199B6E7D5B6
100
AcDbEntity
  8
DETAIL_MEDIUM
  6
CONTINUOUS
100
AcDbLine
 10
880.0
 20
-742.0
 30
0.0
 11
820.0
 21
-742.0
 31
0.0
  0
LINE
  5
FD389199B6E7D5B4
100
AcDbEntity
  8
DETAIL_MEDIUM
  6
CONTINUOUS
100
AcDbLine
 10
1080.0
 20
-742.0
 30
0.0
 11
960.0
 21
-742.0
 31
0.0
  0
ENDBLK
  5
FD389199B6E7D5C0
100
AcDbEntity
  8
DETAIL_MEDIUM
  6
CONTINUOUS
100
AcDbBlockEnd
  0
BLOCK
  5
FD389199B6EF49E2
100
AcDbEntity
  8
DETAIL_MEDIUM
  6
CONTINUOUS
100
AcDbBlockBegin
  2
IO_YGR_DQS_LOGIC
 70
     0
 10
0.0
 20
0.0
 30
0.0
  1

  0
LINE
  5
FD389199B6EF49CF
100
AcDbEntity
  8
DETAIL_MEDIUM
  6
CONTINUOUS
100
AcDbLine
 10
837.0
 20
-583.0
 30
0.0
 11
857.0
 21
-583.0
 31
0.0
  0
LINE
  5
FD389199B6EF49DC
100
AcDbEntity
  8
DETAIL_MEDIUM
  6
CONTINUOUS
100
AcDbLine
 10
857.0
 20
-583.0
 30
0.0
 11
857.0
 21
-382.0
 31
0.0
  0
LINE
  5
FD389199B6EF49DE
100
AcDbEntity
  8
DETAIL_MEDIUM
  6
CONTINUOUS
100
AcDbLine
 10
857.0
 20
-382.0
 30
0.0
 11
1120.0
 21
-382.0
 31
0.0
  0
POLYLINE
  5
FD389199B6EF49D1
100
AcDbEntity
  8
DETAIL_MEDIUM
  6
CONTINUOUS
100
AcDb2dPolyline
 66
     1
 10
0.0
 20
0.0
 30
0.0
 70
     1
  0
VERTEX
  5
FD389199B6EF49D2
100
AcDbEntity
  8
DETAIL_MEDIUM
  6
CONTINUOUS
100
AcDbVertex
100
AcDb2dVertex
 10
1200.0
 20
-401.0
 30
0.0
  0
VERTEX
  5
FD389199B6EF49D3
100
AcDbEntity
  8
DETAIL_MEDIUM
  6
CONTINUOUS
100
AcDbVertex
100
AcDb2dVertex
 10
1120.0
 20
-401.0
 30
0.0
  0
VERTEX
  5
FD389199B6EF49D4
100
AcDbEntity
  8
DETAIL_MEDIUM
  6
CONTINUOUS
100
AcDbVertex
100
AcDb2dVertex
 10
1120.0
 20
-361.0
 30
0.0
  0
VERTEX
  5
FD389199B6EF49D5
100
AcDbEntity
  8
DETAIL_MEDIUM
  6
CONTINUOUS
100
AcDbVertex
100
AcDb2dVertex
 10
1200.0
 20
-361.0
 30
0.0
  0
SEQEND
  5
FD389199B6EF49D6
100
AcDbEntity
  8
DETAIL_MEDIUM
  6
CONTINUOUS
  0
TEXT
  5
FD389199B6EF49D7
100
AcDbEntity
  8
DETAIL_MEDIUM
  6
CONTINUOUS
100
AcDbText
 10
1146.0
 20
-377.0
 30
0.0
 40
10.0
  1
DQS
  7
SIMPLEX
100
AcDbText
  0
TEXT
  5
FD389199B6EF49D8
100
AcDbEntity
  8
DETAIL_MEDIUM
  6
CONTINUOUS
100
AcDbText
 10
1139.0
 20
-395.0
 30
0.0
 40
10.0
  1
LOGIC
  7
SIMPLEX
100
AcDbText
  0
LINE
  5
FD389199B6EF49E0
100
AcDbEntity
  8
DETAIL_MEDIUM
  6
CONTINUOUS
100
AcDbLine
 10
1200.0
 20
-382.0
 30
0.0
 11
1507.0
 21
-382.0
 31
0.0
  0
ENDBLK
  5
FD389199B6EF49E3
100
AcDbEntity
  8
DETAIL_MEDIUM
  6
CONTINUOUS
100
AcDbBlockEnd
  0
BLOCK
  5
FD389199B6E7D6A5
100
AcDbEntity
  8
DETAIL_MEDIUM
  6
CONTINUOUS
100
AcDbBlockBegin
  2
IO_YGR_BYPASS_DELAY_CHAIN_WIRE
 70
     0
 10
0.0
 20
0.0
 30
0.0
  1

  0
LINE
  5
FD389199B6E7D691
100
AcDbEntity
  8
DETAIL_MEDIUM
  6
CONTINUOUS
100
AcDbLine
 10
840.0
 20
-602.0
 30
0.0
 11
860.0
 21
-602.0
 31
0.0
  0
LINE
  5
FD389199B6E7D692
100
AcDbEntity
  8
DETAIL_MEDIUM
  6
CONTINUOUS
100
AcDbLine
 10
860.0
 20
-602.0
 30
0.0
 11
860.0
 21
-401.0
 31
0.0
  0
LINE
  5
FD389199B6E7D693
100
AcDbEntity
  8
DETAIL_MEDIUM
  6
CONTINUOUS
100
AcDbLine
 10
860.0
 20
-401.0
 30
0.0
 11
1510.0
 21
-401.0
 31
0.0
  0
ENDBLK
  5
FD389199B6E7D6A7
100
AcDbEntity
  8
DETAIL_MEDIUM
  6
CONTINUOUS
100
AcDbBlockEnd
  0
BLOCK
  5
FD389199B6E7D6A9
100
AcDbEntity
  8
PORTS
  6
CONTINUOUS
100
AcDbBlockBegin
  2
IO_YGR_COMBOUT
 70
     2
 10
0.0
 20
0.0
 30
0.0
  1

  0
POLYLINE
  5
FD389199B6E7D696
100
AcDbEntity
  8
PORTS
  6
CONTINUOUS
100
AcDb2dPolyline
 66
     1
 10
0.0
 20
0.0
 30
0.0
 70
     1
  0
VERTEX
  5
FD389199B6E7D697
100
AcDbEntity
  8
PORTS
  6
CONTINUOUS
100
AcDbVertex
100
AcDb2dVertex
 10
1590.0
 20
-401.0
 30
0.0
  0
VERTEX
  5
FD389199B6E7D698
100
AcDbEntity
  8
PORTS
  6
CONTINUOUS
100
AcDbVertex
100
AcDb2dVertex
 10
1582.0
 20
-407.0
 30
0.0
  0
VERTEX
  5
FD389199B6E7D699
100
AcDbEntity
  8
PORTS
  6
CONTINUOUS
100
AcDbVertex
100
AcDb2dVertex
 10
1510.0
 20
-407.0
 30
0.0
  0
VERTEX
  5
FD389199B6E7D69A
100
AcDbEntity
  8
PORTS
  6
CONTINUOUS
100
AcDbVertex
100
AcDb2dVertex
 10
1510.0
 20
-395.0
 30
0.0
  0
VERTEX
  5
FD389199B6E7D69B
100
AcDbEntity
  8
PORTS
  6
CONTINUOUS
100
AcDbVertex
100
AcDb2dVertex
 10
1582.0
 20
-395.0
 30
0.0
  0
VERTEX
  5
FD389199B6E7D69C
100
AcDbEntity
  8
PORTS
  6
CONTINUOUS
100
AcDbVertex
100
AcDb2dVertex
 10
1590.0
 20
-401.0
 30
0.0
  0
SEQEND
  5
FD389199B6E7D69D
100
AcDbEntity
  8
PORTS
  6
CONTINUOUS
  0
POINT
  5
FD389199B6E7D69E
100
AcDbEntity
  8
PORTS
  6
CONTINUOUS
100
AcDbPoint
 10
1510.0
 20
-401.0
 30
0.0
  0
ATTDEF
  5
FD389199B6E7D69F
100
AcDbEntity
  8
PORTS
  6
CONTINUOUS
100
AcDbText
 10
1512.0
 20
-389.0
 30
0.0
 40
10.0
  1

 50
0.000019
  7
SIMPLEX
100
AcDbAttributeDefinition
  3

  2
SIDE
 70
     0
  0
ENDBLK
  5
FD389199B6E7D6AB
100
AcDbEntity
  8
PORTS
  6
CONTINUOUS
100
AcDbBlockEnd
  0
BLOCK
  5
FD389199B6E7D83C
100
AcDbEntity
  8
DETAIL_MEDIUM
  6
CONTINUOUS
100
AcDbBlockBegin
  2
IO_YGR_REG_1_USED_SEL_GND
 70
     0
 10
0.0
 20
0.0
 30
0.0
  1

  0
LINE
  5
FD389199B6E7D83A
100
AcDbEntity
  8
DETAIL_MEDIUM
  6
CONTINUOUS
100
AcDbLine
 10
537.0
 20
-173.0
 30
-1.0
 11
567.0
 21
-193.0
 31
0.0
  0
ENDBLK
  5
FD389199B6E7D83E
100
AcDbEntity
  8
DETAIL_MEDIUM
  6
CONTINUOUS
100
AcDbBlockEnd
  0
BLOCK
  5
FD389199B6E7D840
100
AcDbEntity
  8
DETAIL_MEDIUM
  6
CONTINUOUS
100
AcDbBlockBegin
  2
IO_YGR_REG_1_USED_SEL_OE
 70
     0
 10
0.0
 20
0.0
 30
0.0
  1

  0
LINE
  5
FD389199B6E7D838
100
AcDbEntity
  8
DETAIL_MEDIUM
  6
CONTINUOUS
100
AcDbLine
 10
537.0
 20
-173.0
 30
-1.0
 11
567.0
 21
-153.0
 31
0.0
  0
ENDBLK
  5
FD389199B6E7D842
100
AcDbEntity
  8
DETAIL_MEDIUM
  6
CONTINUOUS
100
AcDbBlockEnd
  0
BLOCK
  5
FD389199B6EF4B2E
100
AcDbEntity
  8
PORTS
  6
CONTINUOUS
100
AcDbBlockBegin
  2
IO_YGR_DELAY_CTRL_IN_PORT
 70
     2
 10
0.0
 20
0.0
 30
0.0
  1

  0
ATTDEF
  5
FD389199B6EF4B2B
100
AcDbEntity
  8
PORTS
  6
CONTINUOUS
100
AcDbText
 10
1152.0
 20
-175.0
 30
0.0
 40
10.0
  1

  7
SIMPLEX
100
AcDbAttributeDefinition
  3

  2
SIDE
 70
     0
  0
POLYLINE
  5
FD389199B6EF4B23
100
AcDbEntity
  8
PORTS
  6
CONTINUOUS
100
AcDb2dPolyline
 66
     1
 10
0.0
 20
0.0
 30
0.0
 70
     1
  0
VERTEX
  5
FD389199B6EF4B24
100
AcDbEntity
  8
PORTS
  6
CONTINUOUS
100
AcDbVertex
100
AcDb2dVertex
 10
1160.0
 20
-267.0
 30
0.0
  0
VERTEX
  5
FD389199B6EF4B25
100
AcDbEntity
  8
PORTS
  6
CONTINUOUS
100
AcDbVertex
100
AcDb2dVertex
 10
1154.0
 20
-259.0
 30
0.0
  0
VERTEX
  5
FD389199B6EF4B26
100
AcDbEntity
  8
PORTS
  6
CONTINUOUS
100
AcDbVertex
100
AcDb2dVertex
 10
1154.0
 20
-187.0
 30
0.0
  0
VERTEX
  5
FD389199B6EF4B27
100
AcDbEntity
  8
PORTS
  6
CONTINUOUS
100
AcDbVertex
100
AcDb2dVertex
 10
1166.0
 20
-187.0
 30
0.0
  0
VERTEX
  5
FD389199B6EF4B28
100
AcDbEntity
  8
PORTS
  6
CONTINUOUS
100
AcDbVertex
100
AcDb2dVertex
 10
1166.0
 20
-259.0
 30
0.0
  0
VERTEX
  5
FD389199B6EF4B29
100
AcDbEntity
  8
PORTS
  6
CONTINUOUS
100
AcDbVertex
100
AcDb2dVertex
 10
1160.0
 20
-267.0
 30
0.0
  0
SEQEND
  5
FD389199B6EF4B2A
100
AcDbEntity
  8
PORTS
  6
CONTINUOUS
  0
POINT
  5
FD389199B6EF4B22
100
AcDbEntity
  8
PORTS
  6
CONTINUOUS
100
AcDbPoint
 10
1160.0
 20
-267.0
 30
0.0
  0
ENDBLK
  5
FD389199B6EF4B30
100
AcDbEntity
  8
PORTS
  6
CONTINUOUS
100
AcDbBlockEnd
  0
BLOCK
  5
FD389199B6EF4B34
100
AcDbEntity
  8
DETAIL_MEDIUM
  6
CONTINUOUS
100
AcDbBlockBegin
  2
IO_YGR_DELAY_CTRL_IN_WIRE
 70
     0
 10
0.0
 20
0.0
 30
0.0
  1

  0
LINE
  5
FD389199B6EF4B2C
100
AcDbEntity
  8
DETAIL_MEDIUM
  6
CONTINUOUS
100
AcDbLine
 10
1160.0
 20
-268.0
 30
0.0
 11
1160.0
 21
-361.0
 31
0.0
  0
ENDBLK
  5
FD389199B6EF4B36
100
AcDbEntity
  8
DETAIL_MEDIUM
  6
CONTINUOUS
100
AcDbBlockEnd
  0
ENDSEC
  0
SECTION
  2
ENTITIES
  0
TEXT
  5
1555386
100
AcDbEntity
  8
COMMENT
100
AcDbText
 10
-13.0
 20
113.5
 30
0.0
 40
10.0
  1
Comments:
100
AcDbText
  0
TEXT
  5
DF2FB97E2E1C5501
100
AcDbEntity
  8
COMMENT
  6
CONTINUOUS
100
AcDbText
 10
-14.0
 20
94.0
 30
0.0
 40
10.0
  1
All ports are on PORTS layer. They don't have FILLCLR since it is assigned in software.
  7
SIMPLEX
100
AcDbText
  0
TEXT
  5
DF2FB97E2E1C5502
100
AcDbEntity
  8
COMMENT
  6
CONTINUOUS
100
AcDbText
 10
-14.0
 20
76.857143
 30
0.0
 40
10.0
  1
Text is drawn starting at the only point contained by the port block on PORTS layer. SIDE determines 
  7
SIMPLEX
100
AcDbText
  0
TEXT
  5
DF2FB97E2E1C5503
100
AcDbEntity
  8
COMMENT
  6
CONTINUOUS
100
AcDbText
 10
-14.0
 20
59.714286
 30
0.0
 40
10.0
  1
the direction of the text. Port association is based on the name of the block.
  7
SIMPLEX
100
AcDbText
  0
TEXT
  5
DF2FCAEAB6712686
100
AcDbEntity
  8
COMMENT
100
AcDbText
 10
-147.0
 20
-88.5
 30
0.0
 40
10.0
  1
output_enable
100
AcDbText
  0
TEXT
  5
DF2FCAEAB6712687
100
AcDbEntity
  8
COMMENT
100
AcDbText
 10
-90.0
 20
-128.5
 30
0.0
 40
10.0
  1
out_clk
100
AcDbText
  0
TEXT
  5
DF2FCAEAB6712688
100
AcDbEntity
  8
COMMENT
100
AcDbText
 10
-250.0
 20
-164.5
 30
0.0
 40
10.0
  1
out_clk_ena / oe_clk_ena
100
AcDbText
  0
TEXT
  5
DF2FCAEAB6712689
100
AcDbEntity
  8
COMMENT
100
AcDbText
 10
-86.0
 20
-357.5
 30
0.0
 40
10.0
  1
sreset
100
AcDbText
  0
TEXT
  5
DF2FCAEAB671268A
100
AcDbEntity
  8
COMMENT
100
AcDbText
 10
-83.0
 20
-404.5
 30
0.0
 40
10.0
  1
areset
100
AcDbText
  0
TEXT
  5
DF2FCAEAB671268B
100
AcDbEntity
  8
COMMENT
100
AcDbText
 10
-89.0
 20
-502.5
 30
0.0
 40
10.0
  1
data_in
100
AcDbText
  0
TEXT
  5
DF2FCAEAB671268C
100
AcDbEntity
  8
COMMENT
100
AcDbText
 10
-124.0
 20
-688.5
 30
0.0
 40
10.0
  1
ddio_data_in
100
AcDbText
  0
TEXT
  5
DF2FCAEAB671268D
100
AcDbEntity
  8
COMMENT
100
AcDbText
 10
1626.0
 20
-629.5
 30
0.0
 40
10.0
  1
ddio_regout / reg_out
100
AcDbText
  0
TEXT
  5
DF2FCAEAB671268E
100
AcDbEntity
  8
COMMENT
100
AcDbText
 10
1624.0
 20
-482.5
 30
0.0
 40
10.0
  1
comb_out / reg_out
100
AcDbText
  0
TEXT
  5
DF3414A0437E0591
100
AcDbEntity
  8
COMMENT
100
AcDbText
 10
612.0
 20
-840.5
 30
0.0
 40
10.0
  1
in_clk_ena
100
AcDbText
  0
TEXT
  5
DF3414A0437E0592
100
AcDbEntity
  8
COMMENT
100
AcDbText
 10
648.0
 20
-726.5
 30
0.0
 40
10.0
  1
in_clk
100
AcDbText
  0
TEXT
  5
FD389199B6E7D912
100
AcDbEntity
  8
COMMENT
100
AcDbText
 10
1626.0
 20
-387.5
 30
0.0
 40
10.0
  1
comb_out
100
AcDbText
  0
INSERT
  5
FD389199B6EF4F46
100
AcDbEntity
  8
DETAIL_MEDIUM
  6
CONTINUOUS
100
AcDbBlockReference
  2
IO_YGR
 10
0.0
 20
0.0
 30
0.0
  0
ENDSEC
  0
SECTION
  2
OBJECTS
  0
DICTIONARY
  5
C
100
AcDbDictionary
  3
ACAD_GROUP
350
D
  3
ACAD_MLINESTYLE
350
1B
  3
ACAD_IMAGE_DICT
350
FAE4982DDDE83E3C
  3
ACAD_IMAGE_VARS
350
FAE4982DDDE83E3A
  0
IMAGEDEF_REACTOR
  5
FAE4982DDDE83E3E
100
AcDbRasterImageDefReactor
 90
        2
330
0
  0
DICTIONARY
  5
D
102
{ACAD_REACTORS
330
C
102
}
100
AcDbDictionary
  0
DICTIONARY
  5
1B
102
{ACAD_REACTORS
330
C
102
}
100
AcDbDictionary
  3
STANDARD
350
1C
  0
DICTIONARY
  5
FAE4982DDDE83E3C
102
{ACAD_REACTORS
330
C
102
}
100
AcDbDictionary
  3
SC_3_
350
FAE4982DDDE83E3D
  0
RASTERVARIABLES
  5
FAE4982DDDE83E3A
102
{ACAD_REACTORS
330
C
102
}
100
AcDbRasterVariables
 90
        0
 70
     1
 71
     1
 72
     0
  0
MLINESTYLE
  5
1C
102
{ACAD_REACTORS
330
1B
102
}
100
AcDbMlineStyle
  2
STANDARD
 70
     0
  3

 62
   256
 51
90.0
 52
90.0
 71
     2
 49
0.5
 62
   256
  6
BYLAYER
 49
-0.5
 62
   256
  6
BYLAYER
  0
IMAGEDEF
  5
FAE4982DDDE83E3D
102
{ACAD_REACTORS
330
FAE4982DDDE83E3E
330
FAE4982DDDE83E3C
102
}
100
AcDbRasterImageDef
 90
        0
  1
C:\Documents and Settings\jmkuo\Local Settings\Temporary Internet Files\Content.IE5\LNC0CMSM\sc[3].png
 10
850.0
 20
668.0
 11
1.0
 21
1.0
280
     1
281
     0
  0
ENDSEC
  0
EOF
