  0
SECTION
  2
HEADER
  9
$ACADVER
  1
AC1012
  9
$DWGCODEPAGE
  3
ansi_1252
  9
$INSBASE
 10
0.0
 20
0.0
 30
0.0
  9
$EXTMIN
 10
0.0
 20
-16000.0
 30
0.0
  9
$EXTMAX
 10
104000.0
 20
192000.0
 30
0.0
  9
$LIMMIN
 10
0.0
 20
0.0
  9
$LIMMAX
 10
12.0
 20
9.0
  9
$ORTHOMODE
 70
     0
  9
$REGENMODE
 70
     1
  9
$FILLMODE
 70
     1
  9
$QTEXTMODE
 70
     0
  9
$MIRRTEXT
 70
     1
  9
$DRAGMODE
 70
     2
  9
$LTSCALE
 40
1.0
  9
$OSMODE
 70
     0
  9
$ATTMODE
 70
     1
  9
$TEXTSIZE
 40
0.2
  9
$TRACEWID
 40
0.05
  9
$TEXTSTYLE
  7
SIMPLEX
  9
$CLAYER
  8
SIMPLE
  9
$CELTYPE
  6
CONTINUOUS
  9
$CECOLOR
 62
   256
  9
$CELTSCALE
 40
1.0
  9
$DELOBJ
 70
     1
  9
$DISPSILH
 70
     0
  9
$DIMSCALE
 40
1.0
  9
$DIMASZ
 40
0.18
  9
$DIMEXO
 40
0.0625
  9
$DIMDLI
 40
0.38
  9
$DIMRND
 40
0.0
  9
$DIMDLE
 40
0.0
  9
$DIMEXE
 40
0.18
  9
$DIMTP
 40
0.0
  9
$DIMTM
 40
0.0
  9
$DIMTXT
 40
0.18
  9
$DIMCEN
 40
0.09
  9
$DIMTSZ
 40
0.0
  9
$DIMTOL
 70
     0
  9
$DIMLIM
 70
     0
  9
$DIMTIH
 70
     1
  9
$DIMTOH
 70
     1
  9
$DIMSE1
 70
     0
  9
$DIMSE2
 70
     0
  9
$DIMTAD
 70
     0
  9
$DIMZIN
 70
     0
  9
$DIMBLK
  1

  9
$DIMASO
 70
     1
  9
$DIMSHO
 70
     1
  9
$DIMPOST
  1

  9
$DIMAPOST
  1

  9
$DIMALT
 70
     0
  9
$DIMALTD
 70
     2
  9
$DIMALTF
 40
25.4
  9
$DIMLFAC
 40
1.0
  9
$DIMTOFL
 70
     0
  9
$DIMTVP
 40
0.0
  9
$DIMTIX
 70
     0
  9
$DIMSOXD
 70
     0
  9
$DIMSAH
 70
     0
  9
$DIMBLK1
  1

  9
$DIMBLK2
  1

  9
$DIMSTYLE
  2
STANDARD
  9
$DIMCLRD
 70
     0
  9
$DIMCLRE
 70
     0
  9
$DIMCLRT
 70
     0
  9
$DIMTFAC
 40
1.0
  9
$DIMGAP
 40
0.09
  9
$DIMJUST
 70
     0
  9
$DIMSD1
 70
     0
  9
$DIMSD2
 70
     0
  9
$DIMTOLJ
 70
     1
  9
$DIMTZIN
 70
     0
  9
$DIMALTZ
 70
     0
  9
$DIMALTTZ
 70
     0
  9
$DIMFIT
 70
     3
  9
$DIMUPT
 70
     0
  9
$DIMUNIT
 70
     2
  9
$DIMDEC
 70
     4
  9
$DIMTDEC
 70
     4
  9
$DIMALTU
 70
     2
  9
$DIMALTTD
 70
     2
  9
$DIMTXSTY
  7
STANDARD
  9
$DIMAUNIT
 70
     0
  9
$LUNITS
 70
     2
  9
$LUPREC
 70
     4
  9
$SKETCHINC
 40
0.1
  9
$FILLETRAD
 40
0.5
  9
$AUNITS
 70
     0
  9
$AUPREC
 70
     0
  9
$MENU
  1
.
  9
$ELEVATION
 40
0.0
  9
$PELEVATION
 40
0.0
  9
$THICKNESS
 40
0.0
  9
$LIMCHECK
 70
     0
  9
$BLIPMODE
 70
     0
  9
$CHAMFERA
 40
0.5
  9
$CHAMFERB
 40
0.5
  9
$CHAMFERC
 40
1.0
  9
$CHAMFERD
 40
0.0
  9
$SKPOLY
 70
     0
  9
$TDCREATE
 40
2452695.7451618058
  9
$TDUPDATE
 40
2453097.8279166552
  9
$TDINDWG
 40
28.732013888889
  9
$TDUSRTIMER
 40
28.732013888889
  9
$USRTIMER
 70
     1
  9
$ANGBASE
 50
0.0
  9
$ANGDIR
 70
     0
  9
$PDMODE
 70
    67
  9
$PDSIZE
 40
100.0
  9
$PLINEWID
 40
0.0
  9
$COORDS
 70
     1
  9
$SPLFRAME
 70
     0
  9
$SPLINETYPE
 70
     6
  9
$SPLINESEGS
 70
     8
  9
$ATTDIA
 70
     0
  9
$ATTREQ
 70
     1
  9
$HANDLING
 70
     1
  9
$HANDSEED
  5
DF3414A0F7FB1580
  9
$SURFTAB1
 70
     6
  9
$SURFTAB2
 70
     6
  9
$SURFTYPE
 70
     6
  9
$SURFU
 70
     6
  9
$SURFV
 70
     6
  9
$UCSNAME
  2

  9
$UCSORG
 10
0.0
 20
0.0
 30
0.0
  9
$UCSXDIR
 10
1.0
 20
0.0
 30
0.0
  9
$UCSYDIR
 10
0.0
 20
1.0
 30
0.0
  9
$PUCSNAME
  2

  9
$PUCSORG
 10
0.0
 20
0.0
 30
0.0
  9
$PUCSXDIR
 10
1.0
 20
0.0
 30
0.0
  9
$PUCSYDIR
 10
0.0
 20
1.0
 30
0.0
  9
$USERI1
 70
     0
  9
$USERI2
 70
     0
  9
$USERI3
 70
     0
  9
$USERI4
 70
     0
  9
$USERI5
 70
     0
  9
$USERR1
 40
0.0
  9
$USERR2
 40
0.0
  9
$USERR3
 40
0.0
  9
$USERR4
 40
0.0
  9
$USERR5
 40
0.0
  9
$WORLDVIEW
 70
     1
  9
$SHADEDGE
 70
     3
  9
$SHADEDIF
 70
    70
  9
$TILEMODE
 70
     1
  9
$MAXACTVP
 70
    48
  9
$PINSBASE
 10
0.0
 20
0.0
 30
0.0
  9
$PLIMCHECK
 70
     0
  9
$PEXTMIN
 10
1.000000E+020
 20
1.000000E+020
 30
1.000000E+020
  9
$PEXTMAX
 10
-1.000000E+020
 20
-1.000000E+020
 30
-1.000000E+020
  9
$PLIMMIN
 10
0.0
 20
0.0
  9
$PLIMMAX
 10
12.0
 20
9.0
  9
$UNITMODE
 70
     0
  9
$VISRETAIN
 70
     1
  9
$PLINEGEN
 70
     0
  9
$PSLTSCALE
 70
     1
  9
$TREEDEPTH
 70
  3020
  9
$PICKSTYLE
 70
     1
  9
$CMLSTYLE
  2
STANDARD
  9
$CMLJUST
 70
     0
  9
$CMLSCALE
 40
1.0
  9
$SAVEIMAGES
 70
     1
  0
ENDSEC
  0
SECTION
  2
CLASSES
  0
CLASS
  1
LWPOLYLINE
  2
AcDbPolyline
  3
"AutoCAD"
 90
        0
280
     0
281
     1
  0
ENDSEC
  0
SECTION
  2
TABLES
  0
TABLE
  2
VPORT
  5
8
100
AcDbSymbolTable
 70
     1
  0
VPORT
  5
37
100
AcDbSymbolTableRecord
100
AcDbViewportTableRecord
  2
*ACTIVE
 70
    64
 10
0.0
 20
0.0
 11
1.0
 21
1.0
 12
118782.706495
 22
57240.406052
 13
0.0
 23
0.0
 14
25.0
 24
25.0
 15
25.0
 25
25.0
 16
0.0
 26
0.0
 36
1.0
 17
0.0
 27
0.0
 37
0.0
 40
278669.791163
 41
1.405152
 42
50.0
 43
0.0
 44
0.0
 50
0.0
 51
0.0
 71
     0
 72
   100
 73
     1
 74
     1
 75
     1
 76
     1
 77
     0
 78
     0
  0
ENDTAB
  0
TABLE
  2
LTYPE
  5
5
100
AcDbSymbolTable
 70
     2
  0
LTYPE
  5
12
100
AcDbSymbolTableRecord
100
AcDbLinetypeTableRecord
  2
BYBLOCK
 70
     0
  3

 72
    65
 73
     0
 40
0.0
  0
LTYPE
  5
13
100
AcDbSymbolTableRecord
100
AcDbLinetypeTableRecord
  2
BYLAYER
 70
     0
  3

 72
    65
 73
     0
 40
0.0
  0
LTYPE
  5
14
100
AcDbSymbolTableRecord
100
AcDbLinetypeTableRecord
  2
CONTINUOUS
 70
     0
  3
Solid line
 72
    65
 73
     0
 40
0.0
  0
LTYPE
  5
2A422EFD12C
100
AcDbSymbolTableRecord
100
AcDbLinetypeTableRecord
  2
DETAIL_1
 70
     0
  3
Solid line
 72
    65
 73
     2
 40
6.0
 49
5.0
 74
     0
 49
-1.0
 74
     0
  0
ENDTAB
  0
TABLE
  2
LAYER
  5
2
100
AcDbSymbolTable
 70
     2
  0
LAYER
  5
541
100
AcDbSymbolTableRecord
100
AcDbLayerTableRecord
  2
COMMENT
 70
     0
 62
    -2
  6
CONTINUOUS
  0
LAYER
  5
1DAE4
100
AcDbSymbolTableRecord
100
AcDbLayerTableRecord
  2
SIMPLE
 70
     0
 62
   182
  6
CONTINUOUS
  0
ENDTAB
  0
TABLE
  2
STYLE
  5
3
100
AcDbSymbolTable
 70
     8
  0
STYLE
  5
F
100
AcDbSymbolTableRecord
100
AcDbTextStyleTableRecord
  2
STANDARD
 70
     0
 40
0.0
 41
1.0
 50
0.0
 71
     0
 42
0.2
  3
txt.shx
  4

  0
STYLE
  5
21
100
AcDbSymbolTableRecord
100
AcDbTextStyleTableRecord
  2
COMPLEX
 70
     0
 40
0.0
 41
1.0
 50
0.0
 71
     0
 42
0.2
  3
complex
  4

  0
STYLE
  5
22
100
AcDbSymbolTableRecord
100
AcDbTextStyleTableRecord
  2
ITALIC
 70
     0
 40
0.0
 41
1.0
 50
0.0
 71
     0
 42
0.2
  3
italic
  4

  0
STYLE
  5
23
100
AcDbSymbolTableRecord
100
AcDbTextStyleTableRecord
  2
ROMANC
 70
     0
 40
0.0
 41
1.0
 50
0.0
 71
     0
 42
0.2
  3
romanc
  4

  0
STYLE
  5
24
100
AcDbSymbolTableRecord
100
AcDbTextStyleTableRecord
  2
SIMPLEX
 70
     0
 40
0.0
 41
1.0
 50
0.0
 71
     0
 42
0.2
  3
simplex
  4

  0
STYLE
  5
34
100
AcDbSymbolTableRecord
100
AcDbTextStyleTableRecord
  2

 70
     1
 40
0.0
 41
1.0
 50
0.0
 71
     0
 42
0.2
  3
ltypeshp.shx
  4

  0
STYLE
  5
38
100
AcDbSymbolTableRecord
100
AcDbTextStyleTableRecord
  2
ARIAL
 70
     0
 40
0.0
 41
1.0
 50
0.0
 71
     0
 42
0.2
  3

  4

1001
ACAD
1000
Arial
1071
       34
  0
STYLE
  5
39
100
AcDbSymbolTableRecord
100
AcDbTextStyleTableRecord
  2
TIMES_NEW_ROMAN
 70
     0
 40
0.0
 41
1.0
 50
0.0
 71
     0
 42
0.2
  3

  4

1001
ACAD
1000
Times New Roman
1071
       18
  0
ENDTAB
  0
TABLE
  2
VIEW
  5
6
100
AcDbSymbolTable
 70
     0
  0
ENDTAB
  0
TABLE
  2
UCS
  5
7
100
AcDbSymbolTable
 70
     0
  0
ENDTAB
  0
TABLE
  2
APPID
  5
9
100
AcDbSymbolTable
 70
     1
  0
APPID
  5
10
100
AcDbSymbolTableRecord
100
AcDbRegAppTableRecord
  2
ACAD
 70
     0
  0
ENDTAB
  0
TABLE
  2
DIMSTYLE
  5
A
100
AcDbSymbolTable
 70
     1
  0
DIMSTYLE
105
1D
100
AcDbSymbolTableRecord
100
AcDbDimStyleTableRecord
  2
STANDARD
 70
     0
  3

  4

  5

  6

  7

 40
1.0
 41
0.18
 42
0.0625
 43
0.38
 44
0.18
 45
0.0
 46
0.0
 47
0.0
 48
0.0
140
0.18
141
0.09
142
0.0
143
25.4
144
1.0
145
0.0
146
1.0
147
0.09
 71
     0
 72
     0
 73
     1
 74
     1
 75
     0
 76
     0
 77
     0
 78
     0
170
     0
171
     2
172
     0
173
     0
174
     0
175
     0
176
     0
177
     0
178
     0
270
     2
271
     4
272
     4
273
     2
274
     2
340
F
275
     0
280
     0
281
     0
282
     0
283
     1
284
     0
285
     0
286
     0
287
     3
288
     0
  0
ENDTAB
  0
TABLE
  2
BLOCK_RECORD
  5
1
100
AcDbSymbolTable
 70
     4
  0
BLOCK_RECORD
  5
18
100
AcDbSymbolTableRecord
100
AcDbBlockTableRecord
  2
*MODEL_SPACE
  0
BLOCK_RECORD
  5
15
100
AcDbSymbolTableRecord
100
AcDbBlockTableRecord
  2
*PAPER_SPACE
  0
BLOCK_RECORD
  5
DF3414A0F7FAF543
100
AcDbSymbolTableRecord
100
AcDbBlockTableRecord
  2
MEGARAM_YGR_INPUT
  0
BLOCK_RECORD
  5
DF3414A0F7FAF547
100
AcDbSymbolTableRecord
100
AcDbBlockTableRecord
  2
MEGARAM_YGR_OUTPUT
  0
BLOCK_RECORD
  5
DF3414A0F7FAF54B
100
AcDbSymbolTableRecord
100
AcDbBlockTableRecord
  2
MEGARAM_YGR_CORE
  0
BLOCK_RECORD
  5
DF3414A0F7FAF909
100
AcDbSymbolTableRecord
100
AcDbBlockTableRecord
  2
MEGARAM_YGR
  0
ENDTAB
  0
ENDSEC
  0
SECTION
  2
BLOCKS
  0
BLOCK
  5
19
100
AcDbEntity
  8
COMMENT
100
AcDbBlockBegin
  2
*MODEL_SPACE
 70
     0
 10
0.0
 20
0.0
 30
0.0
  3
*MODEL_SPACE
  1

  0
ENDBLK
  5
1A
100
AcDbEntity
  8
COMMENT
100
AcDbBlockEnd
  0
BLOCK
  5
16
100
AcDbEntity
 67
     1
  8
COMMENT
100
AcDbBlockBegin
  2
*PAPER_SPACE
 70
     0
 10
0.0
 20
0.0
 30
0.0
  3
*PAPER_SPACE
  1

  0
ENDBLK
  5
17
100
AcDbEntity
 67
     1
  8
COMMENT
100
AcDbBlockEnd
  0
BLOCK
  5
DF3414A0F7FB06E8
100
AcDbEntity
  8
SIMPLE
  6
CONTINUOUS
100
AcDbBlockBegin
  2
MEGARAM_YGR_INPUT
 70
    64
 10
0.0
 20
0.0
 30
0.0
  1

  0
POLYLINE
  5
DF3414A0F7FB06E4
100
AcDbEntity
  8
SIMPLE
  6
CONTINUOUS
100
AcDb2dPolyline
 66
     1
 10
0.0
 20
0.0
 30
0.0
 70
     1
  0
VERTEX
  5
DF3414A0F7FB1535
100
AcDbEntity
  8
SIMPLE
  6
CONTINUOUS
100
AcDbVertex
100
AcDb2dVertex
 10
41600.0
 20
89600.0
 30
0.0
  0
VERTEX
  5
DF3414A0F7FB1536
100
AcDbEntity
  8
SIMPLE
  6
CONTINUOUS
100
AcDbVertex
100
AcDb2dVertex
 10
43800.0
 20
89600.0
 30
0.0
  0
VERTEX
  5
DF3414A0F7FB1537
100
AcDbEntity
  8
SIMPLE
  6
CONTINUOUS
100
AcDbVertex
100
AcDb2dVertex
 10
46400.0
 20
87000.0
 30
0.0
  0
VERTEX
  5
DF3414A0F7FB1538
100
AcDbEntity
  8
SIMPLE
  6
CONTINUOUS
100
AcDbVertex
100
AcDb2dVertex
 10
43800.0
 20
84400.0
 30
0.0
  0
VERTEX
  5
DF3414A0F7FB1539
100
AcDbEntity
  8
SIMPLE
  6
CONTINUOUS
100
AcDbVertex
100
AcDb2dVertex
 10
41600.0
 20
84400.0
 30
0.0
  0
VERTEX
  5
DF3414A0F7FB153A
100
AcDbEntity
  8
SIMPLE
  6
CONTINUOUS
100
AcDbVertex
100
AcDb2dVertex
 10
41600.0
 20
89600.0
 30
0.0
  0
SEQEND
  5
DF3414A0F7FB153B
100
AcDbEntity
  8
SIMPLE
  6
CONTINUOUS
  0
POINT
  5
DF3414A0F7FB06E5
100
AcDbEntity
  8
SIMPLE
  6
CONTINUOUS
100
AcDbPoint
 10
41600.0
 20
87000.0
 30
0.0
  0
ENDBLK
  5
DF3414A0F7FB06E9
100
AcDbEntity
  8
SIMPLE
  6
CONTINUOUS
100
AcDbBlockEnd
  0
BLOCK
  5
DF3414A0F7FB06EB
100
AcDbEntity
  8
SIMPLE
  6
CONTINUOUS
100
AcDbBlockBegin
  2
MEGARAM_YGR_OUTPUT
 70
    64
 10
0.0
 20
0.0
 30
0.0
  1

  0
POLYLINE
  5
DF3414A0F7FB06E6
100
AcDbEntity
  8
SIMPLE
  6
CONTINUOUS
100
AcDb2dPolyline
 66
     1
 10
0.0
 20
0.0
 30
0.0
 70
     1
  0
VERTEX
  5
DF3414A0F7FB153C
100
AcDbEntity
  8
SIMPLE
  6
CONTINUOUS
100
AcDbVertex
100
AcDb2dVertex
 10
58000.0
 20
89600.0
 30
0.0
  0
VERTEX
  5
DF3414A0F7FB153D
100
AcDbEntity
  8
SIMPLE
  6
CONTINUOUS
100
AcDbVertex
100
AcDb2dVertex
 10
60200.0
 20
89600.0
 30
0.0
  0
VERTEX
  5
DF3414A0F7FB153E
100
AcDbEntity
  8
SIMPLE
  6
CONTINUOUS
100
AcDbVertex
100
AcDb2dVertex
 10
62800.0
 20
87000.0
 30
0.0
  0
VERTEX
  5
DF3414A0F7FB153F
100
AcDbEntity
  8
SIMPLE
  6
CONTINUOUS
100
AcDbVertex
100
AcDb2dVertex
 10
60200.0
 20
84400.0
 30
0.0
  0
VERTEX
  5
DF3414A0F7FB1540
100
AcDbEntity
  8
SIMPLE
  6
CONTINUOUS
100
AcDbVertex
100
AcDb2dVertex
 10
58000.0
 20
84400.0
 30
0.0
  0
VERTEX
  5
DF3414A0F7FB1541
100
AcDbEntity
  8
SIMPLE
  6
CONTINUOUS
100
AcDbVertex
100
AcDb2dVertex
 10
58000.0
 20
89600.0
 30
0.0
  0
SEQEND
  5
DF3414A0F7FB1542
100
AcDbEntity
  8
SIMPLE
  6
CONTINUOUS
  0
POINT
  5
DF3414A0F7FB06E7
100
AcDbEntity
  8
SIMPLE
  6
CONTINUOUS
100
AcDbPoint
 10
58000.0
 20
87000.0
 30
0.0
  0
ENDBLK
  5
DF3414A0F7FB06EC
100
AcDbEntity
  8
SIMPLE
  6
CONTINUOUS
100
AcDbBlockEnd
  0
BLOCK
  5
DF3414A0F7FB1520
100
AcDbEntity
  8
SIMPLE
  6
CONTINUOUS
100
AcDbBlockBegin
  2
MEGARAM_YGR_CORE
 70
    64
 10
0.0
 20
0.0
 30
0.0
  1

  0
POLYLINE
  5
DF3414A0F7FB151F
100
AcDbEntity
  8
SIMPLE
  6
CONTINUOUS
100
AcDb2dPolyline
 66
     1
 10
0.0
 20
0.0
 30
0.0
 70
     1
  0
VERTEX
  5
DF3414A0F7FB1543
100
AcDbEntity
  8
SIMPLE
  6
CONTINUOUS
100
AcDbVertex
100
AcDb2dVertex
 10
18850.0
 20
156500.0
 30
0.0
  0
VERTEX
  5
DF3414A0F7FB1544
100
AcDbEntity
  8
SIMPLE
  6
CONTINUOUS
100
AcDbVertex
100
AcDb2dVertex
 10
84700.0
 20
156500.0
 30
0.0
  0
VERTEX
  5
DF3414A0F7FB1545
100
AcDbEntity
  8
SIMPLE
  6
CONTINUOUS
100
AcDbVertex
100
AcDb2dVertex
 10
84700.0
 20
18200.0
 30
0.0
  0
VERTEX
  5
DF3414A0F7FB1546
100
AcDbEntity
  8
SIMPLE
  6
CONTINUOUS
100
AcDbVertex
100
AcDb2dVertex
 10
18850.0
 20
18200.0
 30
0.0
  0
SEQEND
  5
DF3414A0F7FB1547
100
AcDbEntity
  8
SIMPLE
  6
CONTINUOUS
  0
INSERT
  5
DF3414A0F7FB151D
100
AcDbEntity
  8
SIMPLE
  6
CONTINUOUS
100
AcDbBlockReference
  2
MEGARAM_YGR_INPUT
 10
-27600.0
 20
0.0
 30
0.0
  0
INSERT
  5
DF3414A0F7FB151E
100
AcDbEntity
  8
SIMPLE
  6
CONTINUOUS
100
AcDbBlockReference
  2
MEGARAM_YGR_OUTPUT
 10
26700.0
 20
0.0
 30
0.0
  0
ENDBLK
  5
DF3414A0F7FB1521
100
AcDbEntity
  8
SIMPLE
  6
CONTINUOUS
100
AcDbBlockEnd
  0
BLOCK
  5
DF3414A0F7FB157D
100
AcDbEntity
  8
SIMPLE
  6
CONTINUOUS
100
AcDbBlockBegin
  2
MEGARAM_YGR
 70
    64
 10
0.0
 20
0.0
 30
0.0
  1

  0
POLYLINE
  5
DF3414A0F7FB1565
100
AcDbEntity
  8
SIMPLE
  6
CONTINUOUS
100
AcDb2dPolyline
 66
     1
 10
0.0
 20
0.0
 30
0.0
 70
     1
  0
VERTEX
  5
DF3414A0F7FB1569
100
AcDbEntity
  8
SIMPLE
  6
CONTINUOUS
100
AcDbVertex
100
AcDb2dVertex
 10
0.0
 20
192000.0
 30
0.0
  0
VERTEX
  5
DF3414A0F7FB156A
100
AcDbEntity
  8
SIMPLE
  6
CONTINUOUS
100
AcDbVertex
100
AcDb2dVertex
 10
104000.0
 20
192000.0
 30
0.0
  0
VERTEX
  5
DF3414A0F7FB156B
100
AcDbEntity
  8
SIMPLE
  6
CONTINUOUS
100
AcDbVertex
100
AcDb2dVertex
 10
104000.0
 20
-16000.0
 30
0.0
  0
VERTEX
  5
DF3414A0F7FB156C
100
AcDbEntity
  8
SIMPLE
  6
CONTINUOUS
100
AcDbVertex
100
AcDb2dVertex
 10
0.0
 20
-16000.0
 30
0.0
  0
SEQEND
  5
DF3414A0F7FB156D
100
AcDbEntity
  8
SIMPLE
  6
CONTINUOUS
  0
INSERT
  5
DF3414A0F7FB157C
100
AcDbEntity
  8
SIMPLE
  6
CONTINUOUS
100
AcDbBlockReference
  2
MEGARAM_YGR_CORE
 10
0.0
 20
0.0
 30
0.0
  0
ENDBLK
  5
DF3414A0F7FB157E
100
AcDbEntity
  8
SIMPLE
  6
CONTINUOUS
100
AcDbBlockEnd
  0
ENDSEC
  0
SECTION
  2
ENTITIES
  0
POLYLINE
  5
DF3414A0F7FAF85B
100
AcDbEntity
  8
COMMENT
  6
CONTINUOUS
100
AcDb2dPolyline
 66
     1
 10
0.0
 20
0.0
 30
0.0
 70
     1
  0
VERTEX
  5
DF3414A0F7FAF934
100
AcDbEntity
  8
COMMENT
  6
CONTINUOUS
100
AcDbVertex
100
AcDb2dVertex
 10
2850.0
 20
-3500.0
 30
0.0
  0
VERTEX
  5
DF3414A0F7FAF935
100
AcDbEntity
  8
COMMENT
  6
CONTINUOUS
100
AcDbVertex
100
AcDb2dVertex
 10
4700.0
 20
-3500.0
 30
0.0
  0
VERTEX
  5
DF3414A0F7FAF936
100
AcDbEntity
  8
COMMENT
  6
CONTINUOUS
100
AcDbVertex
100
AcDb2dVertex
 10
4700.0
 20
-13800.0
 30
0.0
  0
VERTEX
  5
DF3414A0F7FAF937
100
AcDbEntity
  8
COMMENT
  6
CONTINUOUS
100
AcDbVertex
100
AcDb2dVertex
 10
2850.0
 20
-13800.0
 30
0.0
  0
SEQEND
  5
DF3414A0F7FAF938
100
AcDbEntity
  8
COMMENT
  6
CONTINUOUS
  0
POLYLINE
  5
DF3414A0F7FAF85C
100
AcDbEntity
  8
COMMENT
  6
CONTINUOUS
100
AcDb2dPolyline
 66
     1
 10
0.0
 20
0.0
 30
0.0
 70
     1
  0
VERTEX
  5
DF3414A0F7FAF939
100
AcDbEntity
  8
COMMENT
  6
CONTINUOUS
100
AcDbVertex
100
AcDb2dVertex
 10
10850.0
 20
-3500.0
 30
0.0
  0
VERTEX
  5
DF3414A0F7FAF93A
100
AcDbEntity
  8
COMMENT
  6
CONTINUOUS
100
AcDbVertex
100
AcDb2dVertex
 10
12700.0
 20
-3500.0
 30
0.0
  0
VERTEX
  5
DF3414A0F7FAF93B
100
AcDbEntity
  8
COMMENT
  6
CONTINUOUS
100
AcDbVertex
100
AcDb2dVertex
 10
12700.0
 20
-13800.0
 30
0.0
  0
VERTEX
  5
DF3414A0F7FAF93C
100
AcDbEntity
  8
COMMENT
  6
CONTINUOUS
100
AcDbVertex
100
AcDb2dVertex
 10
10850.0
 20
-13800.0
 30
0.0
  0
SEQEND
  5
DF3414A0F7FAF93D
100
AcDbEntity
  8
COMMENT
  6
CONTINUOUS
  0
POLYLINE
  5
DF3414A0F7FAF85D
100
AcDbEntity
  8
COMMENT
  6
CONTINUOUS
100
AcDb2dPolyline
 66
     1
 10
0.0
 20
0.0
 30
0.0
 70
     1
  0
VERTEX
  5
DF3414A0F7FAF93E
100
AcDbEntity
  8
COMMENT
  6
CONTINUOUS
100
AcDbVertex
100
AcDb2dVertex
 10
18850.0
 20
-3500.0
 30
0.0
  0
VERTEX
  5
DF3414A0F7FAF93F
100
AcDbEntity
  8
COMMENT
  6
CONTINUOUS
100
AcDbVertex
100
AcDb2dVertex
 10
20700.0
 20
-3500.0
 30
0.0
  0
VERTEX
  5
DF3414A0F7FAF940
100
AcDbEntity
  8
COMMENT
  6
CONTINUOUS
100
AcDbVertex
100
AcDb2dVertex
 10
20700.0
 20
-13800.0
 30
0.0
  0
VERTEX
  5
DF3414A0F7FAF941
100
AcDbEntity
  8
COMMENT
  6
CONTINUOUS
100
AcDbVertex
100
AcDb2dVertex
 10
18850.0
 20
-13800.0
 30
0.0
  0
SEQEND
  5
DF3414A0F7FAF942
100
AcDbEntity
  8
COMMENT
  6
CONTINUOUS
  0
POLYLINE
  5
DF3414A0F7FAF85E
100
AcDbEntity
  8
COMMENT
  6
CONTINUOUS
100
AcDb2dPolyline
 66
     1
 10
0.0
 20
0.0
 30
0.0
 70
     1
  0
VERTEX
  5
DF3414A0F7FAF943
100
AcDbEntity
  8
COMMENT
  6
CONTINUOUS
100
AcDbVertex
100
AcDb2dVertex
 10
26850.0
 20
-3500.0
 30
0.0
  0
VERTEX
  5
DF3414A0F7FAF944
100
AcDbEntity
  8
COMMENT
  6
CONTINUOUS
100
AcDbVertex
100
AcDb2dVertex
 10
28700.0
 20
-3500.0
 30
0.0
  0
VERTEX
  5
DF3414A0F7FAF945
100
AcDbEntity
  8
COMMENT
  6
CONTINUOUS
100
AcDbVertex
100
AcDb2dVertex
 10
28700.0
 20
-13800.0
 30
0.0
  0
VERTEX
  5
DF3414A0F7FAF946
100
AcDbEntity
  8
COMMENT
  6
CONTINUOUS
100
AcDbVertex
100
AcDb2dVertex
 10
26850.0
 20
-13800.0
 30
0.0
  0
SEQEND
  5
DF3414A0F7FAF947
100
AcDbEntity
  8
COMMENT
  6
CONTINUOUS
  0
POLYLINE
  5
DF3414A0F7FAF85F
100
AcDbEntity
  8
COMMENT
  6
CONTINUOUS
100
AcDb2dPolyline
 66
     1
 10
0.0
 20
0.0
 30
0.0
 70
     1
  0
VERTEX
  5
DF3414A0F7FAF948
100
AcDbEntity
  8
COMMENT
  6
CONTINUOUS
100
AcDbVertex
100
AcDb2dVertex
 10
34850.0
 20
-3500.0
 30
0.0
  0
VERTEX
  5
DF3414A0F7FAF949
100
AcDbEntity
  8
COMMENT
  6
CONTINUOUS
100
AcDbVertex
100
AcDb2dVertex
 10
36700.0
 20
-3500.0
 30
0.0
  0
VERTEX
  5
DF3414A0F7FAF94A
100
AcDbEntity
  8
COMMENT
  6
CONTINUOUS
100
AcDbVertex
100
AcDb2dVertex
 10
36700.0
 20
-13800.0
 30
0.0
  0
VERTEX
  5
DF3414A0F7FAF94B
100
AcDbEntity
  8
COMMENT
  6
CONTINUOUS
100
AcDbVertex
100
AcDb2dVertex
 10
34850.0
 20
-13800.0
 30
0.0
  0
SEQEND
  5
DF3414A0F7FAF94C
100
AcDbEntity
  8
COMMENT
  6
CONTINUOUS
  0
POLYLINE
  5
DF3414A0F7FAF860
100
AcDbEntity
  8
COMMENT
  6
CONTINUOUS
100
AcDb2dPolyline
 66
     1
 10
0.0
 20
0.0
 30
0.0
 70
     1
  0
VERTEX
  5
DF3414A0F7FAF94D
100
AcDbEntity
  8
COMMENT
  6
CONTINUOUS
100
AcDbVertex
100
AcDb2dVertex
 10
42850.0
 20
-3500.0
 30
0.0
  0
VERTEX
  5
DF3414A0F7FAF94E
100
AcDbEntity
  8
COMMENT
  6
CONTINUOUS
100
AcDbVertex
100
AcDb2dVertex
 10
44700.0
 20
-3500.0
 30
0.0
  0
VERTEX
  5
DF3414A0F7FAF94F
100
AcDbEntity
  8
COMMENT
  6
CONTINUOUS
100
AcDbVertex
100
AcDb2dVertex
 10
44700.0
 20
-13800.0
 30
0.0
  0
VERTEX
  5
DF3414A0F7FAF950
100
AcDbEntity
  8
COMMENT
  6
CONTINUOUS
100
AcDbVertex
100
AcDb2dVertex
 10
42850.0
 20
-13800.0
 30
0.0
  0
SEQEND
  5
DF3414A0F7FAF951
100
AcDbEntity
  8
COMMENT
  6
CONTINUOUS
  0
POLYLINE
  5
DF3414A0F7FAF861
100
AcDbEntity
  8
COMMENT
  6
CONTINUOUS
100
AcDb2dPolyline
 66
     1
 10
0.0
 20
0.0
 30
0.0
 70
     1
  0
VERTEX
  5
DF3414A0F7FAF952
100
AcDbEntity
  8
COMMENT
  6
CONTINUOUS
100
AcDbVertex
100
AcDb2dVertex
 10
50850.0
 20
-3500.0
 30
0.0
  0
VERTEX
  5
DF3414A0F7FAF953
100
AcDbEntity
  8
COMMENT
  6
CONTINUOUS
100
AcDbVertex
100
AcDb2dVertex
 10
52700.0
 20
-3500.0
 30
0.0
  0
VERTEX
  5
DF3414A0F7FAF954
100
AcDbEntity
  8
COMMENT
  6
CONTINUOUS
100
AcDbVertex
100
AcDb2dVertex
 10
52700.0
 20
-13800.0
 30
0.0
  0
VERTEX
  5
DF3414A0F7FAF955
100
AcDbEntity
  8
COMMENT
  6
CONTINUOUS
100
AcDbVertex
100
AcDb2dVertex
 10
50850.0
 20
-13800.0
 30
0.0
  0
SEQEND
  5
DF3414A0F7FAF956
100
AcDbEntity
  8
COMMENT
  6
CONTINUOUS
  0
POLYLINE
  5
DF3414A0F7FAF862
100
AcDbEntity
  8
COMMENT
  6
CONTINUOUS
100
AcDb2dPolyline
 66
     1
 10
0.0
 20
0.0
 30
0.0
 70
     1
  0
VERTEX
  5
DF3414A0F7FAF957
100
AcDbEntity
  8
COMMENT
  6
CONTINUOUS
100
AcDbVertex
100
AcDb2dVertex
 10
58850.0
 20
-3500.0
 30
0.0
  0
VERTEX
  5
DF3414A0F7FAF958
100
AcDbEntity
  8
COMMENT
  6
CONTINUOUS
100
AcDbVertex
100
AcDb2dVertex
 10
60700.0
 20
-3500.0
 30
0.0
  0
VERTEX
  5
DF3414A0F7FAF959
100
AcDbEntity
  8
COMMENT
  6
CONTINUOUS
100
AcDbVertex
100
AcDb2dVertex
 10
60700.0
 20
-13800.0
 30
0.0
  0
VERTEX
  5
DF3414A0F7FAF95A
100
AcDbEntity
  8
COMMENT
  6
CONTINUOUS
100
AcDbVertex
100
AcDb2dVertex
 10
58850.0
 20
-13800.0
 30
0.0
  0
SEQEND
  5
DF3414A0F7FAF95B
100
AcDbEntity
  8
COMMENT
  6
CONTINUOUS
  0
POLYLINE
  5
DF3414A0F7FAF863
100
AcDbEntity
  8
COMMENT
  6
CONTINUOUS
100
AcDb2dPolyline
 66
     1
 10
0.0
 20
0.0
 30
0.0
 70
     1
  0
VERTEX
  5
DF3414A0F7FAF95C
100
AcDbEntity
  8
COMMENT
  6
CONTINUOUS
100
AcDbVertex
100
AcDb2dVertex
 10
66850.0
 20
-3500.0
 30
0.0
  0
VERTEX
  5
DF3414A0F7FAF95D
100
AcDbEntity
  8
COMMENT
  6
CONTINUOUS
100
AcDbVertex
100
AcDb2dVertex
 10
68700.0
 20
-3500.0
 30
0.0
  0
VERTEX
  5
DF3414A0F7FAF95E
100
AcDbEntity
  8
COMMENT
  6
CONTINUOUS
100
AcDbVertex
100
AcDb2dVertex
 10
68700.0
 20
-13800.0
 30
0.0
  0
VERTEX
  5
DF3414A0F7FAF95F
100
AcDbEntity
  8
COMMENT
  6
CONTINUOUS
100
AcDbVertex
100
AcDb2dVertex
 10
66850.0
 20
-13800.0
 30
0.0
  0
SEQEND
  5
DF3414A0F7FAF960
100
AcDbEntity
  8
COMMENT
  6
CONTINUOUS
  0
POLYLINE
  5
DF3414A0F7FAF864
100
AcDbEntity
  8
COMMENT
  6
CONTINUOUS
100
AcDb2dPolyline
 66
     1
 10
0.0
 20
0.0
 30
0.0
 70
     1
  0
VERTEX
  5
DF3414A0F7FAF961
100
AcDbEntity
  8
COMMENT
  6
CONTINUOUS
100
AcDbVertex
100
AcDb2dVertex
 10
74850.0
 20
-3500.0
 30
0.0
  0
VERTEX
  5
DF3414A0F7FAF962
100
AcDbEntity
  8
COMMENT
  6
CONTINUOUS
100
AcDbVertex
100
AcDb2dVertex
 10
76700.0
 20
-3500.0
 30
0.0
  0
VERTEX
  5
DF3414A0F7FAF963
100
AcDbEntity
  8
COMMENT
  6
CONTINUOUS
100
AcDbVertex
100
AcDb2dVertex
 10
76700.0
 20
-13800.0
 30
0.0
  0
VERTEX
  5
DF3414A0F7FAF964
100
AcDbEntity
  8
COMMENT
  6
CONTINUOUS
100
AcDbVertex
100
AcDb2dVertex
 10
74850.0
 20
-13800.0
 30
0.0
  0
SEQEND
  5
DF3414A0F7FAF965
100
AcDbEntity
  8
COMMENT
  6
CONTINUOUS
  0
POLYLINE
  5
DF3414A0F7FAF865
100
AcDbEntity
  8
COMMENT
  6
CONTINUOUS
100
AcDb2dPolyline
 66
     1
 10
0.0
 20
0.0
 30
0.0
 70
     1
  0
VERTEX
  5
DF3414A0F7FAF966
100
AcDbEntity
  8
COMMENT
  6
CONTINUOUS
100
AcDbVertex
100
AcDb2dVertex
 10
82850.0
 20
-3500.0
 30
0.0
  0
VERTEX
  5
DF3414A0F7FAF967
100
AcDbEntity
  8
COMMENT
  6
CONTINUOUS
100
AcDbVertex
100
AcDb2dVertex
 10
84700.0
 20
-3500.0
 30
0.0
  0
VERTEX
  5
DF3414A0F7FAF968
100
AcDbEntity
  8
COMMENT
  6
CONTINUOUS
100
AcDbVertex
100
AcDb2dVertex
 10
84700.0
 20
-13800.0
 30
0.0
  0
VERTEX
  5
DF3414A0F7FAF969
100
AcDbEntity
  8
COMMENT
  6
CONTINUOUS
100
AcDbVertex
100
AcDb2dVertex
 10
82850.0
 20
-13800.0
 30
0.0
  0
SEQEND
  5
DF3414A0F7FAF96A
100
AcDbEntity
  8
COMMENT
  6
CONTINUOUS
  0
POLYLINE
  5
DF3414A0F7FAF866
100
AcDbEntity
  8
COMMENT
  6
CONTINUOUS
100
AcDb2dPolyline
 66
     1
 10
0.0
 20
0.0
 30
0.0
 70
     1
  0
VERTEX
  5
DF3414A0F7FAF96B
100
AcDbEntity
  8
COMMENT
  6
CONTINUOUS
100
AcDbVertex
100
AcDb2dVertex
 10
90850.0
 20
-3500.0
 30
0.0
  0
VERTEX
  5
DF3414A0F7FAF96C
100
AcDbEntity
  8
COMMENT
  6
CONTINUOUS
100
AcDbVertex
100
AcDb2dVertex
 10
92700.0
 20
-3500.0
 30
0.0
  0
VERTEX
  5
DF3414A0F7FAF96D
100
AcDbEntity
  8
COMMENT
  6
CONTINUOUS
100
AcDbVertex
100
AcDb2dVertex
 10
92700.0
 20
-13800.0
 30
0.0
  0
VERTEX
  5
DF3414A0F7FAF96E
100
AcDbEntity
  8
COMMENT
  6
CONTINUOUS
100
AcDbVertex
100
AcDb2dVertex
 10
90850.0
 20
-13800.0
 30
0.0
  0
SEQEND
  5
DF3414A0F7FAF96F
100
AcDbEntity
  8
COMMENT
  6
CONTINUOUS
  0
POLYLINE
  5
DF3414A0F7FAF867
100
AcDbEntity
  8
COMMENT
  6
CONTINUOUS
100
AcDb2dPolyline
 66
     1
 10
0.0
 20
0.0
 30
0.0
 70
     1
  0
VERTEX
  5
DF3414A0F7FAF970
100
AcDbEntity
  8
COMMENT
  6
CONTINUOUS
100
AcDbVertex
100
AcDb2dVertex
 10
98850.0
 20
-3500.0
 30
0.0
  0
VERTEX
  5
DF3414A0F7FAF971
100
AcDbEntity
  8
COMMENT
  6
CONTINUOUS
100
AcDbVertex
100
AcDb2dVertex
 10
100700.0
 20
-3500.0
 30
0.0
  0
VERTEX
  5
DF3414A0F7FAF972
100
AcDbEntity
  8
COMMENT
  6
CONTINUOUS
100
AcDbVertex
100
AcDb2dVertex
 10
100700.0
 20
-13800.0
 30
0.0
  0
VERTEX
  5
DF3414A0F7FAF973
100
AcDbEntity
  8
COMMENT
  6
CONTINUOUS
100
AcDbVertex
100
AcDb2dVertex
 10
98850.0
 20
-13800.0
 30
0.0
  0
SEQEND
  5
DF3414A0F7FAF974
100
AcDbEntity
  8
COMMENT
  6
CONTINUOUS
  0
POLYLINE
  5
DF3414A0F7FAF868
100
AcDbEntity
  8
COMMENT
  6
CONTINUOUS
100
AcDb2dPolyline
 66
     1
 10
0.0
 20
0.0
 30
0.0
 70
     1
  0
VERTEX
  5
DF3414A0F7FAF975
100
AcDbEntity
  8
COMMENT
  6
CONTINUOUS
100
AcDbVertex
100
AcDb2dVertex
 10
2850.0
 20
12500.0
 30
0.0
  0
VERTEX
  5
DF3414A0F7FAF976
100
AcDbEntity
  8
COMMENT
  6
CONTINUOUS
100
AcDbVertex
100
AcDb2dVertex
 10
4700.0
 20
12500.0
 30
0.0
  0
VERTEX
  5
DF3414A0F7FAF977
100
AcDbEntity
  8
COMMENT
  6
CONTINUOUS
100
AcDbVertex
100
AcDb2dVertex
 10
4700.0
 20
2200.0
 30
0.0
  0
VERTEX
  5
DF3414A0F7FAF978
100
AcDbEntity
  8
COMMENT
  6
CONTINUOUS
100
AcDbVertex
100
AcDb2dVertex
 10
2850.0
 20
2200.0
 30
0.0
  0
SEQEND
  5
DF3414A0F7FAF979
100
AcDbEntity
  8
COMMENT
  6
CONTINUOUS
  0
POLYLINE
  5
DF3414A0F7FAF869
100
AcDbEntity
  8
COMMENT
  6
CONTINUOUS
100
AcDb2dPolyline
 66
     1
 10
0.0
 20
0.0
 30
0.0
 70
     1
  0
VERTEX
  5
DF3414A0F7FAF97A
100
AcDbEntity
  8
COMMENT
  6
CONTINUOUS
100
AcDbVertex
100
AcDb2dVertex
 10
10850.0
 20
12500.0
 30
0.0
  0
VERTEX
  5
DF3414A0F7FAF97B
100
AcDbEntity
  8
COMMENT
  6
CONTINUOUS
100
AcDbVertex
100
AcDb2dVertex
 10
12700.0
 20
12500.0
 30
0.0
  0
VERTEX
  5
DF3414A0F7FAF97C
100
AcDbEntity
  8
COMMENT
  6
CONTINUOUS
100
AcDbVertex
100
AcDb2dVertex
 10
12700.0
 20
2200.0
 30
0.0
  0
VERTEX
  5
DF3414A0F7FAF97D
100
AcDbEntity
  8
COMMENT
  6
CONTINUOUS
100
AcDbVertex
100
AcDb2dVertex
 10
10850.0
 20
2200.0
 30
0.0
  0
SEQEND
  5
DF3414A0F7FAF97E
100
AcDbEntity
  8
COMMENT
  6
CONTINUOUS
  0
POLYLINE
  5
DF3414A0F7FAF86A
100
AcDbEntity
  8
COMMENT
  6
CONTINUOUS
100
AcDb2dPolyline
 66
     1
 10
0.0
 20
0.0
 30
0.0
 70
     1
  0
VERTEX
  5
DF3414A0F7FAF97F
100
AcDbEntity
  8
COMMENT
  6
CONTINUOUS
100
AcDbVertex
100
AcDb2dVertex
 10
18850.0
 20
12500.0
 30
0.0
  0
VERTEX
  5
DF3414A0F7FAF980
100
AcDbEntity
  8
COMMENT
  6
CONTINUOUS
100
AcDbVertex
100
AcDb2dVertex
 10
20700.0
 20
12500.0
 30
0.0
  0
VERTEX
  5
DF3414A0F7FAF981
100
AcDbEntity
  8
COMMENT
  6
CONTINUOUS
100
AcDbVertex
100
AcDb2dVertex
 10
20700.0
 20
2200.0
 30
0.0
  0
VERTEX
  5
DF3414A0F7FAF982
100
AcDbEntity
  8
COMMENT
  6
CONTINUOUS
100
AcDbVertex
100
AcDb2dVertex
 10
18850.0
 20
2200.0
 30
0.0
  0
SEQEND
  5
DF3414A0F7FAF983
100
AcDbEntity
  8
COMMENT
  6
CONTINUOUS
  0
POLYLINE
  5
DF3414A0F7FAF86B
100
AcDbEntity
  8
COMMENT
  6
CONTINUOUS
100
AcDb2dPolyline
 66
     1
 10
0.0
 20
0.0
 30
0.0
 70
     1
  0
VERTEX
  5
DF3414A0F7FAF984
100
AcDbEntity
  8
COMMENT
  6
CONTINUOUS
100
AcDbVertex
100
AcDb2dVertex
 10
26850.0
 20
12500.0
 30
0.0
  0
VERTEX
  5
DF3414A0F7FAF985
100
AcDbEntity
  8
COMMENT
  6
CONTINUOUS
100
AcDbVertex
100
AcDb2dVertex
 10
28700.0
 20
12500.0
 30
0.0
  0
VERTEX
  5
DF3414A0F7FAF986
100
AcDbEntity
  8
COMMENT
  6
CONTINUOUS
100
AcDbVertex
100
AcDb2dVertex
 10
28700.0
 20
2200.0
 30
0.0
  0
VERTEX
  5
DF3414A0F7FAF987
100
AcDbEntity
  8
COMMENT
  6
CONTINUOUS
100
AcDbVertex
100
AcDb2dVertex
 10
26850.0
 20
2200.0
 30
0.0
  0
SEQEND
  5
DF3414A0F7FAF988
100
AcDbEntity
  8
COMMENT
  6
CONTINUOUS
  0
POLYLINE
  5
DF3414A0F7FAF86C
100
AcDbEntity
  8
COMMENT
  6
CONTINUOUS
100
AcDb2dPolyline
 66
     1
 10
0.0
 20
0.0
 30
0.0
 70
     1
  0
VERTEX
  5
DF3414A0F7FAF989
100
AcDbEntity
  8
COMMENT
  6
CONTINUOUS
100
AcDbVertex
100
AcDb2dVertex
 10
34850.0
 20
12500.0
 30
0.0
  0
VERTEX
  5
DF3414A0F7FAF98A
100
AcDbEntity
  8
COMMENT
  6
CONTINUOUS
100
AcDbVertex
100
AcDb2dVertex
 10
36700.0
 20
12500.0
 30
0.0
  0
VERTEX
  5
DF3414A0F7FAF98B
100
AcDbEntity
  8
COMMENT
  6
CONTINUOUS
100
AcDbVertex
100
AcDb2dVertex
 10
36700.0
 20
2200.0
 30
0.0
  0
VERTEX
  5
DF3414A0F7FAF98C
100
AcDbEntity
  8
COMMENT
  6
CONTINUOUS
100
AcDbVertex
100
AcDb2dVertex
 10
34850.0
 20
2200.0
 30
0.0
  0
SEQEND
  5
DF3414A0F7FAF98D
100
AcDbEntity
  8
COMMENT
  6
CONTINUOUS
  0
POLYLINE
  5
DF3414A0F7FAF86D
100
AcDbEntity
  8
COMMENT
  6
CONTINUOUS
100
AcDb2dPolyline
 66
     1
 10
0.0
 20
0.0
 30
0.0
 70
     1
  0
VERTEX
  5
DF3414A0F7FAF98E
100
AcDbEntity
  8
COMMENT
  6
CONTINUOUS
100
AcDbVertex
100
AcDb2dVertex
 10
42850.0
 20
12500.0
 30
0.0
  0
VERTEX
  5
DF3414A0F7FAF98F
100
AcDbEntity
  8
COMMENT
  6
CONTINUOUS
100
AcDbVertex
100
AcDb2dVertex
 10
44700.0
 20
12500.0
 30
0.0
  0
VERTEX
  5
DF3414A0F7FAF990
100
AcDbEntity
  8
COMMENT
  6
CONTINUOUS
100
AcDbVertex
100
AcDb2dVertex
 10
44700.0
 20
2200.0
 30
0.0
  0
VERTEX
  5
DF3414A0F7FAF991
100
AcDbEntity
  8
COMMENT
  6
CONTINUOUS
100
AcDbVertex
100
AcDb2dVertex
 10
42850.0
 20
2200.0
 30
0.0
  0
SEQEND
  5
DF3414A0F7FAF992
100
AcDbEntity
  8
COMMENT
  6
CONTINUOUS
  0
POLYLINE
  5
DF3414A0F7FAF86E
100
AcDbEntity
  8
COMMENT
  6
CONTINUOUS
100
AcDb2dPolyline
 66
     1
 10
0.0
 20
0.0
 30
0.0
 70
     1
  0
VERTEX
  5
DF3414A0F7FAF993
100
AcDbEntity
  8
COMMENT
  6
CONTINUOUS
100
AcDbVertex
100
AcDb2dVertex
 10
50850.0
 20
12500.0
 30
0.0
  0
VERTEX
  5
DF3414A0F7FAF994
100
AcDbEntity
  8
COMMENT
  6
CONTINUOUS
100
AcDbVertex
100
AcDb2dVertex
 10
52700.0
 20
12500.0
 30
0.0
  0
VERTEX
  5
DF3414A0F7FAF995
100
AcDbEntity
  8
COMMENT
  6
CONTINUOUS
100
AcDbVertex
100
AcDb2dVertex
 10
52700.0
 20
2200.0
 30
0.0
  0
VERTEX
  5
DF3414A0F7FAF996
100
AcDbEntity
  8
COMMENT
  6
CONTINUOUS
100
AcDbVertex
100
AcDb2dVertex
 10
50850.0
 20
2200.0
 30
0.0
  0
SEQEND
  5
DF3414A0F7FAF997
100
AcDbEntity
  8
COMMENT
  6
CONTINUOUS
  0
POLYLINE
  5
DF3414A0F7FAF86F
100
AcDbEntity
  8
COMMENT
  6
CONTINUOUS
100
AcDb2dPolyline
 66
     1
 10
0.0
 20
0.0
 30
0.0
 70
     1
  0
VERTEX
  5
DF3414A0F7FAF998
100
AcDbEntity
  8
COMMENT
  6
CONTINUOUS
100
AcDbVertex
100
AcDb2dVertex
 10
58850.0
 20
12500.0
 30
0.0
  0
VERTEX
  5
DF3414A0F7FAF999
100
AcDbEntity
  8
COMMENT
  6
CONTINUOUS
100
AcDbVertex
100
AcDb2dVertex
 10
60700.0
 20
12500.0
 30
0.0
  0
VERTEX
  5
DF3414A0F7FAF99A
100
AcDbEntity
  8
COMMENT
  6
CONTINUOUS
100
AcDbVertex
100
AcDb2dVertex
 10
60700.0
 20
2200.0
 30
0.0
  0
VERTEX
  5
DF3414A0F7FAF99B
100
AcDbEntity
  8
COMMENT
  6
CONTINUOUS
100
AcDbVertex
100
AcDb2dVertex
 10
58850.0
 20
2200.0
 30
0.0
  0
SEQEND
  5
DF3414A0F7FAF99C
100
AcDbEntity
  8
COMMENT
  6
CONTINUOUS
  0
POLYLINE
  5
DF3414A0F7FAF870
100
AcDbEntity
  8
COMMENT
  6
CONTINUOUS
100
AcDb2dPolyline
 66
     1
 10
0.0
 20
0.0
 30
0.0
 70
     1
  0
VERTEX
  5
DF3414A0F7FAF99D
100
AcDbEntity
  8
COMMENT
  6
CONTINUOUS
100
AcDbVertex
100
AcDb2dVertex
 10
66850.0
 20
12500.0
 30
0.0
  0
VERTEX
  5
DF3414A0F7FAF99E
100
AcDbEntity
  8
COMMENT
  6
CONTINUOUS
100
AcDbVertex
100
AcDb2dVertex
 10
68700.0
 20
12500.0
 30
0.0
  0
VERTEX
  5
DF3414A0F7FAF99F
100
AcDbEntity
  8
COMMENT
  6
CONTINUOUS
100
AcDbVertex
100
AcDb2dVertex
 10
68700.0
 20
2200.0
 30
0.0
  0
VERTEX
  5
DF3414A0F7FAF9A0
100
AcDbEntity
  8
COMMENT
  6
CONTINUOUS
100
AcDbVertex
100
AcDb2dVertex
 10
66850.0
 20
2200.0
 30
0.0
  0
SEQEND
  5
DF3414A0F7FAF9A1
100
AcDbEntity
  8
COMMENT
  6
CONTINUOUS
  0
POLYLINE
  5
DF3414A0F7FAF871
100
AcDbEntity
  8
COMMENT
  6
CONTINUOUS
100
AcDb2dPolyline
 66
     1
 10
0.0
 20
0.0
 30
0.0
 70
     1
  0
VERTEX
  5
DF3414A0F7FAF9A2
100
AcDbEntity
  8
COMMENT
  6
CONTINUOUS
100
AcDbVertex
100
AcDb2dVertex
 10
74850.0
 20
12500.0
 30
0.0
  0
VERTEX
  5
DF3414A0F7FAF9A3
100
AcDbEntity
  8
COMMENT
  6
CONTINUOUS
100
AcDbVertex
100
AcDb2dVertex
 10
76700.0
 20
12500.0
 30
0.0
  0
VERTEX
  5
DF3414A0F7FAF9A4
100
AcDbEntity
  8
COMMENT
  6
CONTINUOUS
100
AcDbVertex
100
AcDb2dVertex
 10
76700.0
 20
2200.0
 30
0.0
  0
VERTEX
  5
DF3414A0F7FAF9A5
100
AcDbEntity
  8
COMMENT
  6
CONTINUOUS
100
AcDbVertex
100
AcDb2dVertex
 10
74850.0
 20
2200.0
 30
0.0
  0
SEQEND
  5
DF3414A0F7FAF9A6
100
AcDbEntity
  8
COMMENT
  6
CONTINUOUS
  0
POLYLINE
  5
DF3414A0F7FAF872
100
AcDbEntity
  8
COMMENT
  6
CONTINUOUS
100
AcDb2dPolyline
 66
     1
 10
0.0
 20
0.0
 30
0.0
 70
     1
  0
VERTEX
  5
DF3414A0F7FAF9A7
100
AcDbEntity
  8
COMMENT
  6
CONTINUOUS
100
AcDbVertex
100
AcDb2dVertex
 10
82850.0
 20
12500.0
 30
0.0
  0
VERTEX
  5
DF3414A0F7FAF9A8
100
AcDbEntity
  8
COMMENT
  6
CONTINUOUS
100
AcDbVertex
100
AcDb2dVertex
 10
84700.0
 20
12500.0
 30
0.0
  0
VERTEX
  5
DF3414A0F7FAF9A9
100
AcDbEntity
  8
COMMENT
  6
CONTINUOUS
100
AcDbVertex
100
AcDb2dVertex
 10
84700.0
 20
2200.0
 30
0.0
  0
VERTEX
  5
DF3414A0F7FAF9AA
100
AcDbEntity
  8
COMMENT
  6
CONTINUOUS
100
AcDbVertex
100
AcDb2dVertex
 10
82850.0
 20
2200.0
 30
0.0
  0
SEQEND
  5
DF3414A0F7FAF9AB
100
AcDbEntity
  8
COMMENT
  6
CONTINUOUS
  0
POLYLINE
  5
DF3414A0F7FAF873
100
AcDbEntity
  8
COMMENT
  6
CONTINUOUS
100
AcDb2dPolyline
 66
     1
 10
0.0
 20
0.0
 30
0.0
 70
     1
  0
VERTEX
  5
DF3414A0F7FAF9AC
100
AcDbEntity
  8
COMMENT
  6
CONTINUOUS
100
AcDbVertex
100
AcDb2dVertex
 10
90850.0
 20
12500.0
 30
0.0
  0
VERTEX
  5
DF3414A0F7FAF9AD
100
AcDbEntity
  8
COMMENT
  6
CONTINUOUS
100
AcDbVertex
100
AcDb2dVertex
 10
92700.0
 20
12500.0
 30
0.0
  0
VERTEX
  5
DF3414A0F7FAF9AE
100
AcDbEntity
  8
COMMENT
  6
CONTINUOUS
100
AcDbVertex
100
AcDb2dVertex
 10
92700.0
 20
2200.0
 30
0.0
  0
VERTEX
  5
DF3414A0F7FAF9AF
100
AcDbEntity
  8
COMMENT
  6
CONTINUOUS
100
AcDbVertex
100
AcDb2dVertex
 10
90850.0
 20
2200.0
 30
0.0
  0
SEQEND
  5
DF3414A0F7FAF9B0
100
AcDbEntity
  8
COMMENT
  6
CONTINUOUS
  0
POLYLINE
  5
DF3414A0F7FAF874
100
AcDbEntity
  8
COMMENT
  6
CONTINUOUS
100
AcDb2dPolyline
 66
     1
 10
0.0
 20
0.0
 30
0.0
 70
     1
  0
VERTEX
  5
DF3414A0F7FAF9B1
100
AcDbEntity
  8
COMMENT
  6
CONTINUOUS
100
AcDbVertex
100
AcDb2dVertex
 10
98850.0
 20
12500.0
 30
0.0
  0
VERTEX
  5
DF3414A0F7FAF9B2
100
AcDbEntity
  8
COMMENT
  6
CONTINUOUS
100
AcDbVertex
100
AcDb2dVertex
 10
100700.0
 20
12500.0
 30
0.0
  0
VERTEX
  5
DF3414A0F7FAF9B3
100
AcDbEntity
  8
COMMENT
  6
CONTINUOUS
100
AcDbVertex
100
AcDb2dVertex
 10
100700.0
 20
2200.0
 30
0.0
  0
VERTEX
  5
DF3414A0F7FAF9B4
100
AcDbEntity
  8
COMMENT
  6
CONTINUOUS
100
AcDbVertex
100
AcDb2dVertex
 10
98850.0
 20
2200.0
 30
0.0
  0
SEQEND
  5
DF3414A0F7FAF9B5
100
AcDbEntity
  8
COMMENT
  6
CONTINUOUS
  0
POLYLINE
  5
DF3414A0F7FAF875
100
AcDbEntity
  8
COMMENT
  6
CONTINUOUS
100
AcDb2dPolyline
 66
     1
 10
0.0
 20
0.0
 30
0.0
 70
     1
  0
VERTEX
  5
DF3414A0F7FAF9B6
100
AcDbEntity
  8
COMMENT
  6
CONTINUOUS
100
AcDbVertex
100
AcDb2dVertex
 10
2850.0
 20
28500.0
 30
0.0
  0
VERTEX
  5
DF3414A0F7FAF9B7
100
AcDbEntity
  8
COMMENT
  6
CONTINUOUS
100
AcDbVertex
100
AcDb2dVertex
 10
4700.0
 20
28500.0
 30
0.0
  0
VERTEX
  5
DF3414A0F7FAF9B8
100
AcDbEntity
  8
COMMENT
  6
CONTINUOUS
100
AcDbVertex
100
AcDb2dVertex
 10
4700.0
 20
18200.0
 30
0.0
  0
VERTEX
  5
DF3414A0F7FAF9B9
100
AcDbEntity
  8
COMMENT
  6
CONTINUOUS
100
AcDbVertex
100
AcDb2dVertex
 10
2850.0
 20
18200.0
 30
0.0
  0
SEQEND
  5
DF3414A0F7FAF9BA
100
AcDbEntity
  8
COMMENT
  6
CONTINUOUS
  0
POLYLINE
  5
DF3414A0F7FAF876
100
AcDbEntity
  8
COMMENT
  6
CONTINUOUS
100
AcDb2dPolyline
 66
     1
 10
0.0
 20
0.0
 30
0.0
 70
     1
  0
VERTEX
  5
DF3414A0F7FAF9BB
100
AcDbEntity
  8
COMMENT
  6
CONTINUOUS
100
AcDbVertex
100
AcDb2dVertex
 10
10850.0
 20
28500.0
 30
0.0
  0
VERTEX
  5
DF3414A0F7FAF9BC
100
AcDbEntity
  8
COMMENT
  6
CONTINUOUS
100
AcDbVertex
100
AcDb2dVertex
 10
12700.0
 20
28500.0
 30
0.0
  0
VERTEX
  5
DF3414A0F7FAF9BD
100
AcDbEntity
  8
COMMENT
  6
CONTINUOUS
100
AcDbVertex
100
AcDb2dVertex
 10
12700.0
 20
18200.0
 30
0.0
  0
VERTEX
  5
DF3414A0F7FAF9BE
100
AcDbEntity
  8
COMMENT
  6
CONTINUOUS
100
AcDbVertex
100
AcDb2dVertex
 10
10850.0
 20
18200.0
 30
0.0
  0
SEQEND
  5
DF3414A0F7FAF9BF
100
AcDbEntity
  8
COMMENT
  6
CONTINUOUS
  0
POLYLINE
  5
DF3414A0F7FAF877
100
AcDbEntity
  8
COMMENT
  6
CONTINUOUS
100
AcDb2dPolyline
 66
     1
 10
0.0
 20
0.0
 30
0.0
 70
     1
  0
VERTEX
  5
DF3414A0F7FAF9C0
100
AcDbEntity
  8
COMMENT
  6
CONTINUOUS
100
AcDbVertex
100
AcDb2dVertex
 10
18850.0
 20
28500.0
 30
0.0
  0
VERTEX
  5
DF3414A0F7FAF9C1
100
AcDbEntity
  8
COMMENT
  6
CONTINUOUS
100
AcDbVertex
100
AcDb2dVertex
 10
20700.0
 20
28500.0
 30
0.0
  0
VERTEX
  5
DF3414A0F7FAF9C2
100
AcDbEntity
  8
COMMENT
  6
CONTINUOUS
100
AcDbVertex
100
AcDb2dVertex
 10
20700.0
 20
18200.0
 30
0.0
  0
VERTEX
  5
DF3414A0F7FAF9C3
100
AcDbEntity
  8
COMMENT
  6
CONTINUOUS
100
AcDbVertex
100
AcDb2dVertex
 10
18850.0
 20
18200.0
 30
0.0
  0
SEQEND
  5
DF3414A0F7FAF9C4
100
AcDbEntity
  8
COMMENT
  6
CONTINUOUS
  0
POLYLINE
  5
DF3414A0F7FAF878
100
AcDbEntity
  8
COMMENT
  6
CONTINUOUS
100
AcDb2dPolyline
 66
     1
 10
0.0
 20
0.0
 30
0.0
 70
     1
  0
VERTEX
  5
DF3414A0F7FAF9C5
100
AcDbEntity
  8
COMMENT
  6
CONTINUOUS
100
AcDbVertex
100
AcDb2dVertex
 10
26850.0
 20
28500.0
 30
0.0
  0
VERTEX
  5
DF3414A0F7FAF9C6
100
AcDbEntity
  8
COMMENT
  6
CONTINUOUS
100
AcDbVertex
100
AcDb2dVertex
 10
28700.0
 20
28500.0
 30
0.0
  0
VERTEX
  5
DF3414A0F7FAF9C7
100
AcDbEntity
  8
COMMENT
  6
CONTINUOUS
100
AcDbVertex
100
AcDb2dVertex
 10
28700.0
 20
18200.0
 30
0.0
  0
VERTEX
  5
DF3414A0F7FAF9C8
100
AcDbEntity
  8
COMMENT
  6
CONTINUOUS
100
AcDbVertex
100
AcDb2dVertex
 10
26850.0
 20
18200.0
 30
0.0
  0
SEQEND
  5
DF3414A0F7FAF9C9
100
AcDbEntity
  8
COMMENT
  6
CONTINUOUS
  0
POLYLINE
  5
DF3414A0F7FAF879
100
AcDbEntity
  8
COMMENT
  6
CONTINUOUS
100
AcDb2dPolyline
 66
     1
 10
0.0
 20
0.0
 30
0.0
 70
     1
  0
VERTEX
  5
DF3414A0F7FAF9CA
100
AcDbEntity
  8
COMMENT
  6
CONTINUOUS
100
AcDbVertex
100
AcDb2dVertex
 10
34850.0
 20
28500.0
 30
0.0
  0
VERTEX
  5
DF3414A0F7FAF9CB
100
AcDbEntity
  8
COMMENT
  6
CONTINUOUS
100
AcDbVertex
100
AcDb2dVertex
 10
36700.0
 20
28500.0
 30
0.0
  0
VERTEX
  5
DF3414A0F7FAF9CC
100
AcDbEntity
  8
COMMENT
  6
CONTINUOUS
100
AcDbVertex
100
AcDb2dVertex
 10
36700.0
 20
18200.0
 30
0.0
  0
VERTEX
  5
DF3414A0F7FAF9CD
100
AcDbEntity
  8
COMMENT
  6
CONTINUOUS
100
AcDbVertex
100
AcDb2dVertex
 10
34850.0
 20
18200.0
 30
0.0
  0
SEQEND
  5
DF3414A0F7FAF9CE
100
AcDbEntity
  8
COMMENT
  6
CONTINUOUS
  0
POLYLINE
  5
DF3414A0F7FAF87A
100
AcDbEntity
  8
COMMENT
  6
CONTINUOUS
100
AcDb2dPolyline
 66
     1
 10
0.0
 20
0.0
 30
0.0
 70
     1
  0
VERTEX
  5
DF3414A0F7FAF9CF
100
AcDbEntity
  8
COMMENT
  6
CONTINUOUS
100
AcDbVertex
100
AcDb2dVertex
 10
42850.0
 20
28500.0
 30
0.0
  0
VERTEX
  5
DF3414A0F7FAF9D0
100
AcDbEntity
  8
COMMENT
  6
CONTINUOUS
100
AcDbVertex
100
AcDb2dVertex
 10
44700.0
 20
28500.0
 30
0.0
  0
VERTEX
  5
DF3414A0F7FAF9D1
100
AcDbEntity
  8
COMMENT
  6
CONTINUOUS
100
AcDbVertex
100
AcDb2dVertex
 10
44700.0
 20
18200.0
 30
0.0
  0
VERTEX
  5
DF3414A0F7FAF9D2
100
AcDbEntity
  8
COMMENT
  6
CONTINUOUS
100
AcDbVertex
100
AcDb2dVertex
 10
42850.0
 20
18200.0
 30
0.0
  0
SEQEND
  5
DF3414A0F7FAF9D3
100
AcDbEntity
  8
COMMENT
  6
CONTINUOUS
  0
POLYLINE
  5
DF3414A0F7FAF87B
100
AcDbEntity
  8
COMMENT
  6
CONTINUOUS
100
AcDb2dPolyline
 66
     1
 10
0.0
 20
0.0
 30
0.0
 70
     1
  0
VERTEX
  5
DF3414A0F7FAF9D4
100
AcDbEntity
  8
COMMENT
  6
CONTINUOUS
100
AcDbVertex
100
AcDb2dVertex
 10
50850.0
 20
28500.0
 30
0.0
  0
VERTEX
  5
DF3414A0F7FAF9D5
100
AcDbEntity
  8
COMMENT
  6
CONTINUOUS
100
AcDbVertex
100
AcDb2dVertex
 10
52700.0
 20
28500.0
 30
0.0
  0
VERTEX
  5
DF3414A0F7FAF9D6
100
AcDbEntity
  8
COMMENT
  6
CONTINUOUS
100
AcDbVertex
100
AcDb2dVertex
 10
52700.0
 20
18200.0
 30
0.0
  0
VERTEX
  5
DF3414A0F7FAF9D7
100
AcDbEntity
  8
COMMENT
  6
CONTINUOUS
100
AcDbVertex
100
AcDb2dVertex
 10
50850.0
 20
18200.0
 30
0.0
  0
SEQEND
  5
DF3414A0F7FAF9D8
100
AcDbEntity
  8
COMMENT
  6
CONTINUOUS
  0
POLYLINE
  5
DF3414A0F7FAF87C
100
AcDbEntity
  8
COMMENT
  6
CONTINUOUS
100
AcDb2dPolyline
 66
     1
 10
0.0
 20
0.0
 30
0.0
 70
     1
  0
VERTEX
  5
DF3414A0F7FAF9D9
100
AcDbEntity
  8
COMMENT
  6
CONTINUOUS
100
AcDbVertex
100
AcDb2dVertex
 10
58850.0
 20
28500.0
 30
0.0
  0
VERTEX
  5
DF3414A0F7FAF9DA
100
AcDbEntity
  8
COMMENT
  6
CONTINUOUS
100
AcDbVertex
100
AcDb2dVertex
 10
60700.0
 20
28500.0
 30
0.0
  0
VERTEX
  5
DF3414A0F7FAF9DB
100
AcDbEntity
  8
COMMENT
  6
CONTINUOUS
100
AcDbVertex
100
AcDb2dVertex
 10
60700.0
 20
18200.0
 30
0.0
  0
VERTEX
  5
DF3414A0F7FAF9DC
100
AcDbEntity
  8
COMMENT
  6
CONTINUOUS
100
AcDbVertex
100
AcDb2dVertex
 10
58850.0
 20
18200.0
 30
0.0
  0
SEQEND
  5
DF3414A0F7FAF9DD
100
AcDbEntity
  8
COMMENT
  6
CONTINUOUS
  0
POLYLINE
  5
DF3414A0F7FAF87D
100
AcDbEntity
  8
COMMENT
  6
CONTINUOUS
100
AcDb2dPolyline
 66
     1
 10
0.0
 20
0.0
 30
0.0
 70
     1
  0
VERTEX
  5
DF3414A0F7FAF9DE
100
AcDbEntity
  8
COMMENT
  6
CONTINUOUS
100
AcDbVertex
100
AcDb2dVertex
 10
66850.0
 20
28500.0
 30
0.0
  0
VERTEX
  5
DF3414A0F7FAF9DF
100
AcDbEntity
  8
COMMENT
  6
CONTINUOUS
100
AcDbVertex
100
AcDb2dVertex
 10
68700.0
 20
28500.0
 30
0.0
  0
VERTEX
  5
DF3414A0F7FAF9E0
100
AcDbEntity
  8
COMMENT
  6
CONTINUOUS
100
AcDbVertex
100
AcDb2dVertex
 10
68700.0
 20
18200.0
 30
0.0
  0
VERTEX
  5
DF3414A0F7FAF9E1
100
AcDbEntity
  8
COMMENT
  6
CONTINUOUS
100
AcDbVertex
100
AcDb2dVertex
 10
66850.0
 20
18200.0
 30
0.0
  0
SEQEND
  5
DF3414A0F7FAF9E2
100
AcDbEntity
  8
COMMENT
  6
CONTINUOUS
  0
POLYLINE
  5
DF3414A0F7FAF87E
100
AcDbEntity
  8
COMMENT
  6
CONTINUOUS
100
AcDb2dPolyline
 66
     1
 10
0.0
 20
0.0
 30
0.0
 70
     1
  0
VERTEX
  5
DF3414A0F7FAF9E3
100
AcDbEntity
  8
COMMENT
  6
CONTINUOUS
100
AcDbVertex
100
AcDb2dVertex
 10
74850.0
 20
28500.0
 30
0.0
  0
VERTEX
  5
DF3414A0F7FAF9E4
100
AcDbEntity
  8
COMMENT
  6
CONTINUOUS
100
AcDbVertex
100
AcDb2dVertex
 10
76700.0
 20
28500.0
 30
0.0
  0
VERTEX
  5
DF3414A0F7FAF9E5
100
AcDbEntity
  8
COMMENT
  6
CONTINUOUS
100
AcDbVertex
100
AcDb2dVertex
 10
76700.0
 20
18200.0
 30
0.0
  0
VERTEX
  5
DF3414A0F7FAF9E6
100
AcDbEntity
  8
COMMENT
  6
CONTINUOUS
100
AcDbVertex
100
AcDb2dVertex
 10
74850.0
 20
18200.0
 30
0.0
  0
SEQEND
  5
DF3414A0F7FAF9E7
100
AcDbEntity
  8
COMMENT
  6
CONTINUOUS
  0
POLYLINE
  5
DF3414A0F7FAF87F
100
AcDbEntity
  8
COMMENT
  6
CONTINUOUS
100
AcDb2dPolyline
 66
     1
 10
0.0
 20
0.0
 30
0.0
 70
     1
  0
VERTEX
  5
DF3414A0F7FAF9E8
100
AcDbEntity
  8
COMMENT
  6
CONTINUOUS
100
AcDbVertex
100
AcDb2dVertex
 10
82850.0
 20
28500.0
 30
0.0
  0
VERTEX
  5
DF3414A0F7FAF9E9
100
AcDbEntity
  8
COMMENT
  6
CONTINUOUS
100
AcDbVertex
100
AcDb2dVertex
 10
84700.0
 20
28500.0
 30
0.0
  0
VERTEX
  5
DF3414A0F7FAF9EA
100
AcDbEntity
  8
COMMENT
  6
CONTINUOUS
100
AcDbVertex
100
AcDb2dVertex
 10
84700.0
 20
18200.0
 30
0.0
  0
VERTEX
  5
DF3414A0F7FAF9EB
100
AcDbEntity
  8
COMMENT
  6
CONTINUOUS
100
AcDbVertex
100
AcDb2dVertex
 10
82850.0
 20
18200.0
 30
0.0
  0
SEQEND
  5
DF3414A0F7FAF9EC
100
AcDbEntity
  8
COMMENT
  6
CONTINUOUS
  0
POLYLINE
  5
DF3414A0F7FAF880
100
AcDbEntity
  8
COMMENT
  6
CONTINUOUS
100
AcDb2dPolyline
 66
     1
 10
0.0
 20
0.0
 30
0.0
 70
     1
  0
VERTEX
  5
DF3414A0F7FAF9ED
100
AcDbEntity
  8
COMMENT
  6
CONTINUOUS
100
AcDbVertex
100
AcDb2dVertex
 10
90850.0
 20
28500.0
 30
0.0
  0
VERTEX
  5
DF3414A0F7FAF9EE
100
AcDbEntity
  8
COMMENT
  6
CONTINUOUS
100
AcDbVertex
100
AcDb2dVertex
 10
92700.0
 20
28500.0
 30
0.0
  0
VERTEX
  5
DF3414A0F7FAF9EF
100
AcDbEntity
  8
COMMENT
  6
CONTINUOUS
100
AcDbVertex
100
AcDb2dVertex
 10
92700.0
 20
18200.0
 30
0.0
  0
VERTEX
  5
DF3414A0F7FAF9F0
100
AcDbEntity
  8
COMMENT
  6
CONTINUOUS
100
AcDbVertex
100
AcDb2dVertex
 10
90850.0
 20
18200.0
 30
0.0
  0
SEQEND
  5
DF3414A0F7FAF9F1
100
AcDbEntity
  8
COMMENT
  6
CONTINUOUS
  0
POLYLINE
  5
DF3414A0F7FAF881
100
AcDbEntity
  8
COMMENT
  6
CONTINUOUS
100
AcDb2dPolyline
 66
     1
 10
0.0
 20
0.0
 30
0.0
 70
     1
  0
VERTEX
  5
DF3414A0F7FAF9F2
100
AcDbEntity
  8
COMMENT
  6
CONTINUOUS
100
AcDbVertex
100
AcDb2dVertex
 10
98850.0
 20
28500.0
 30
0.0
  0
VERTEX
  5
DF3414A0F7FAF9F3
100
AcDbEntity
  8
COMMENT
  6
CONTINUOUS
100
AcDbVertex
100
AcDb2dVertex
 10
100700.0
 20
28500.0
 30
0.0
  0
VERTEX
  5
DF3414A0F7FAF9F4
100
AcDbEntity
  8
COMMENT
  6
CONTINUOUS
100
AcDbVertex
100
AcDb2dVertex
 10
100700.0
 20
18200.0
 30
0.0
  0
VERTEX
  5
DF3414A0F7FAF9F5
100
AcDbEntity
  8
COMMENT
  6
CONTINUOUS
100
AcDbVertex
100
AcDb2dVertex
 10
98850.0
 20
18200.0
 30
0.0
  0
SEQEND
  5
DF3414A0F7FAF9F6
100
AcDbEntity
  8
COMMENT
  6
CONTINUOUS
  0
POLYLINE
  5
DF3414A0F7FAF882
100
AcDbEntity
  8
COMMENT
  6
CONTINUOUS
100
AcDb2dPolyline
 66
     1
 10
0.0
 20
0.0
 30
0.0
 70
     1
  0
VERTEX
  5
DF3414A0F7FAF9F7
100
AcDbEntity
  8
COMMENT
  6
CONTINUOUS
100
AcDbVertex
100
AcDb2dVertex
 10
2850.0
 20
44500.0
 30
0.0
  0
VERTEX
  5
DF3414A0F7FAF9F8
100
AcDbEntity
  8
COMMENT
  6
CONTINUOUS
100
AcDbVertex
100
AcDb2dVertex
 10
4700.0
 20
44500.0
 30
0.0
  0
VERTEX
  5
DF3414A0F7FAF9F9
100
AcDbEntity
  8
COMMENT
  6
CONTINUOUS
100
AcDbVertex
100
AcDb2dVertex
 10
4700.0
 20
34200.0
 30
0.0
  0
VERTEX
  5
DF3414A0F7FAF9FA
100
AcDbEntity
  8
COMMENT
  6
CONTINUOUS
100
AcDbVertex
100
AcDb2dVertex
 10
2850.0
 20
34200.0
 30
0.0
  0
SEQEND
  5
DF3414A0F7FAF9FB
100
AcDbEntity
  8
COMMENT
  6
CONTINUOUS
  0
POLYLINE
  5
DF3414A0F7FAF883
100
AcDbEntity
  8
COMMENT
  6
CONTINUOUS
100
AcDb2dPolyline
 66
     1
 10
0.0
 20
0.0
 30
0.0
 70
     1
  0
VERTEX
  5
DF3414A0F7FAF9FC
100
AcDbEntity
  8
COMMENT
  6
CONTINUOUS
100
AcDbVertex
100
AcDb2dVertex
 10
10850.0
 20
44500.0
 30
0.0
  0
VERTEX
  5
DF3414A0F7FAF9FD
100
AcDbEntity
  8
COMMENT
  6
CONTINUOUS
100
AcDbVertex
100
AcDb2dVertex
 10
12700.0
 20
44500.0
 30
0.0
  0
VERTEX
  5
DF3414A0F7FAF9FE
100
AcDbEntity
  8
COMMENT
  6
CONTINUOUS
100
AcDbVertex
100
AcDb2dVertex
 10
12700.0
 20
34200.0
 30
0.0
  0
VERTEX
  5
DF3414A0F7FAF9FF
100
AcDbEntity
  8
COMMENT
  6
CONTINUOUS
100
AcDbVertex
100
AcDb2dVertex
 10
10850.0
 20
34200.0
 30
0.0
  0
SEQEND
  5
DF3414A0F7FAFA00
100
AcDbEntity
  8
COMMENT
  6
CONTINUOUS
  0
POLYLINE
  5
DF3414A0F7FAF884
100
AcDbEntity
  8
COMMENT
  6
CONTINUOUS
100
AcDb2dPolyline
 66
     1
 10
0.0
 20
0.0
 30
0.0
 70
     1
  0
VERTEX
  5
DF3414A0F7FAFA01
100
AcDbEntity
  8
COMMENT
  6
CONTINUOUS
100
AcDbVertex
100
AcDb2dVertex
 10
18850.0
 20
44500.0
 30
0.0
  0
VERTEX
  5
DF3414A0F7FAFA02
100
AcDbEntity
  8
COMMENT
  6
CONTINUOUS
100
AcDbVertex
100
AcDb2dVertex
 10
20700.0
 20
44500.0
 30
0.0
  0
VERTEX
  5
DF3414A0F7FAFA03
100
AcDbEntity
  8
COMMENT
  6
CONTINUOUS
100
AcDbVertex
100
AcDb2dVertex
 10
20700.0
 20
34200.0
 30
0.0
  0
VERTEX
  5
DF3414A0F7FAFA04
100
AcDbEntity
  8
COMMENT
  6
CONTINUOUS
100
AcDbVertex
100
AcDb2dVertex
 10
18850.0
 20
34200.0
 30
0.0
  0
SEQEND
  5
DF3414A0F7FAFA05
100
AcDbEntity
  8
COMMENT
  6
CONTINUOUS
  0
POLYLINE
  5
DF3414A0F7FAF885
100
AcDbEntity
  8
COMMENT
  6
CONTINUOUS
100
AcDb2dPolyline
 66
     1
 10
0.0
 20
0.0
 30
0.0
 70
     1
  0
VERTEX
  5
DF3414A0F7FAFA06
100
AcDbEntity
  8
COMMENT
  6
CONTINUOUS
100
AcDbVertex
100
AcDb2dVertex
 10
26850.0
 20
44500.0
 30
0.0
  0
VERTEX
  5
DF3414A0F7FAFA07
100
AcDbEntity
  8
COMMENT
  6
CONTINUOUS
100
AcDbVertex
100
AcDb2dVertex
 10
28700.0
 20
44500.0
 30
0.0
  0
VERTEX
  5
DF3414A0F7FAFA08
100
AcDbEntity
  8
COMMENT
  6
CONTINUOUS
100
AcDbVertex
100
AcDb2dVertex
 10
28700.0
 20
34200.0
 30
0.0
  0
VERTEX
  5
DF3414A0F7FAFA09
100
AcDbEntity
  8
COMMENT
  6
CONTINUOUS
100
AcDbVertex
100
AcDb2dVertex
 10
26850.0
 20
34200.0
 30
0.0
  0
SEQEND
  5
DF3414A0F7FAFA0A
100
AcDbEntity
  8
COMMENT
  6
CONTINUOUS
  0
POLYLINE
  5
DF3414A0F7FAF886
100
AcDbEntity
  8
COMMENT
  6
CONTINUOUS
100
AcDb2dPolyline
 66
     1
 10
0.0
 20
0.0
 30
0.0
 70
     1
  0
VERTEX
  5
DF3414A0F7FAFA0B
100
AcDbEntity
  8
COMMENT
  6
CONTINUOUS
100
AcDbVertex
100
AcDb2dVertex
 10
34850.0
 20
44500.0
 30
0.0
  0
VERTEX
  5
DF3414A0F7FAFA0C
100
AcDbEntity
  8
COMMENT
  6
CONTINUOUS
100
AcDbVertex
100
AcDb2dVertex
 10
36700.0
 20
44500.0
 30
0.0
  0
VERTEX
  5
DF3414A0F7FAFA0D
100
AcDbEntity
  8
COMMENT
  6
CONTINUOUS
100
AcDbVertex
100
AcDb2dVertex
 10
36700.0
 20
34200.0
 30
0.0
  0
VERTEX
  5
DF3414A0F7FAFA0E
100
AcDbEntity
  8
COMMENT
  6
CONTINUOUS
100
AcDbVertex
100
AcDb2dVertex
 10
34850.0
 20
34200.0
 30
0.0
  0
SEQEND
  5
DF3414A0F7FAFA0F
100
AcDbEntity
  8
COMMENT
  6
CONTINUOUS
  0
POLYLINE
  5
DF3414A0F7FAF887
100
AcDbEntity
  8
COMMENT
  6
CONTINUOUS
100
AcDb2dPolyline
 66
     1
 10
0.0
 20
0.0
 30
0.0
 70
     1
  0
VERTEX
  5
DF3414A0F7FAFA10
100
AcDbEntity
  8
COMMENT
  6
CONTINUOUS
100
AcDbVertex
100
AcDb2dVertex
 10
42850.0
 20
44500.0
 30
0.0
  0
VERTEX
  5
DF3414A0F7FAFA11
100
AcDbEntity
  8
COMMENT
  6
CONTINUOUS
100
AcDbVertex
100
AcDb2dVertex
 10
44700.0
 20
44500.0
 30
0.0
  0
VERTEX
  5
DF3414A0F7FAFA12
100
AcDbEntity
  8
COMMENT
  6
CONTINUOUS
100
AcDbVertex
100
AcDb2dVertex
 10
44700.0
 20
34200.0
 30
0.0
  0
VERTEX
  5
DF3414A0F7FAFA13
100
AcDbEntity
  8
COMMENT
  6
CONTINUOUS
100
AcDbVertex
100
AcDb2dVertex
 10
42850.0
 20
34200.0
 30
0.0
  0
SEQEND
  5
DF3414A0F7FAFA14
100
AcDbEntity
  8
COMMENT
  6
CONTINUOUS
  0
POLYLINE
  5
DF3414A0F7FAF888
100
AcDbEntity
  8
COMMENT
  6
CONTINUOUS
100
AcDb2dPolyline
 66
     1
 10
0.0
 20
0.0
 30
0.0
 70
     1
  0
VERTEX
  5
DF3414A0F7FAFA15
100
AcDbEntity
  8
COMMENT
  6
CONTINUOUS
100
AcDbVertex
100
AcDb2dVertex
 10
50850.0
 20
44500.0
 30
0.0
  0
VERTEX
  5
DF3414A0F7FAFA16
100
AcDbEntity
  8
COMMENT
  6
CONTINUOUS
100
AcDbVertex
100
AcDb2dVertex
 10
52700.0
 20
44500.0
 30
0.0
  0
VERTEX
  5
DF3414A0F7FAFA17
100
AcDbEntity
  8
COMMENT
  6
CONTINUOUS
100
AcDbVertex
100
AcDb2dVertex
 10
52700.0
 20
34200.0
 30
0.0
  0
VERTEX
  5
DF3414A0F7FAFA18
100
AcDbEntity
  8
COMMENT
  6
CONTINUOUS
100
AcDbVertex
100
AcDb2dVertex
 10
50850.0
 20
34200.0
 30
0.0
  0
SEQEND
  5
DF3414A0F7FAFA19
100
AcDbEntity
  8
COMMENT
  6
CONTINUOUS
  0
POLYLINE
  5
DF3414A0F7FAF889
100
AcDbEntity
  8
COMMENT
  6
CONTINUOUS
100
AcDb2dPolyline
 66
     1
 10
0.0
 20
0.0
 30
0.0
 70
     1
  0
VERTEX
  5
DF3414A0F7FAFA1A
100
AcDbEntity
  8
COMMENT
  6
CONTINUOUS
100
AcDbVertex
100
AcDb2dVertex
 10
58850.0
 20
44500.0
 30
0.0
  0
VERTEX
  5
DF3414A0F7FAFA1B
100
AcDbEntity
  8
COMMENT
  6
CONTINUOUS
100
AcDbVertex
100
AcDb2dVertex
 10
60700.0
 20
44500.0
 30
0.0
  0
VERTEX
  5
DF3414A0F7FAFA1C
100
AcDbEntity
  8
COMMENT
  6
CONTINUOUS
100
AcDbVertex
100
AcDb2dVertex
 10
60700.0
 20
34200.0
 30
0.0
  0
VERTEX
  5
DF3414A0F7FAFA1D
100
AcDbEntity
  8
COMMENT
  6
CONTINUOUS
100
AcDbVertex
100
AcDb2dVertex
 10
58850.0
 20
34200.0
 30
0.0
  0
SEQEND
  5
DF3414A0F7FAFA1E
100
AcDbEntity
  8
COMMENT
  6
CONTINUOUS
  0
POLYLINE
  5
DF3414A0F7FAF88A
100
AcDbEntity
  8
COMMENT
  6
CONTINUOUS
100
AcDb2dPolyline
 66
     1
 10
0.0
 20
0.0
 30
0.0
 70
     1
  0
VERTEX
  5
DF3414A0F7FAFA1F
100
AcDbEntity
  8
COMMENT
  6
CONTINUOUS
100
AcDbVertex
100
AcDb2dVertex
 10
66850.0
 20
44500.0
 30
0.0
  0
VERTEX
  5
DF3414A0F7FAFA20
100
AcDbEntity
  8
COMMENT
  6
CONTINUOUS
100
AcDbVertex
100
AcDb2dVertex
 10
68700.0
 20
44500.0
 30
0.0
  0
VERTEX
  5
DF3414A0F7FAFA21
100
AcDbEntity
  8
COMMENT
  6
CONTINUOUS
100
AcDbVertex
100
AcDb2dVertex
 10
68700.0
 20
34200.0
 30
0.0
  0
VERTEX
  5
DF3414A0F7FAFA22
100
AcDbEntity
  8
COMMENT
  6
CONTINUOUS
100
AcDbVertex
100
AcDb2dVertex
 10
66850.0
 20
34200.0
 30
0.0
  0
SEQEND
  5
DF3414A0F7FAFA23
100
AcDbEntity
  8
COMMENT
  6
CONTINUOUS
  0
POLYLINE
  5
DF3414A0F7FAF88B
100
AcDbEntity
  8
COMMENT
  6
CONTINUOUS
100
AcDb2dPolyline
 66
     1
 10
0.0
 20
0.0
 30
0.0
 70
     1
  0
VERTEX
  5
DF3414A0F7FAFA24
100
AcDbEntity
  8
COMMENT
  6
CONTINUOUS
100
AcDbVertex
100
AcDb2dVertex
 10
74850.0
 20
44500.0
 30
0.0
  0
VERTEX
  5
DF3414A0F7FAFA25
100
AcDbEntity
  8
COMMENT
  6
CONTINUOUS
100
AcDbVertex
100
AcDb2dVertex
 10
76700.0
 20
44500.0
 30
0.0
  0
VERTEX
  5
DF3414A0F7FAFA26
100
AcDbEntity
  8
COMMENT
  6
CONTINUOUS
100
AcDbVertex
100
AcDb2dVertex
 10
76700.0
 20
34200.0
 30
0.0
  0
VERTEX
  5
DF3414A0F7FAFA27
100
AcDbEntity
  8
COMMENT
  6
CONTINUOUS
100
AcDbVertex
100
AcDb2dVertex
 10
74850.0
 20
34200.0
 30
0.0
  0
SEQEND
  5
DF3414A0F7FAFA28
100
AcDbEntity
  8
COMMENT
  6
CONTINUOUS
  0
POLYLINE
  5
DF3414A0F7FAF88C
100
AcDbEntity
  8
COMMENT
  6
CONTINUOUS
100
AcDb2dPolyline
 66
     1
 10
0.0
 20
0.0
 30
0.0
 70
     1
  0
VERTEX
  5
DF3414A0F7FAFA29
100
AcDbEntity
  8
COMMENT
  6
CONTINUOUS
100
AcDbVertex
100
AcDb2dVertex
 10
82850.0
 20
44500.0
 30
0.0
  0
VERTEX
  5
DF3414A0F7FAFA2A
100
AcDbEntity
  8
COMMENT
  6
CONTINUOUS
100
AcDbVertex
100
AcDb2dVertex
 10
84700.0
 20
44500.0
 30
0.0
  0
VERTEX
  5
DF3414A0F7FAFA2B
100
AcDbEntity
  8
COMMENT
  6
CONTINUOUS
100
AcDbVertex
100
AcDb2dVertex
 10
84700.0
 20
34200.0
 30
0.0
  0
VERTEX
  5
DF3414A0F7FAFA2C
100
AcDbEntity
  8
COMMENT
  6
CONTINUOUS
100
AcDbVertex
100
AcDb2dVertex
 10
82850.0
 20
34200.0
 30
0.0
  0
SEQEND
  5
DF3414A0F7FAFA2D
100
AcDbEntity
  8
COMMENT
  6
CONTINUOUS
  0
POLYLINE
  5
DF3414A0F7FAF88D
100
AcDbEntity
  8
COMMENT
  6
CONTINUOUS
100
AcDb2dPolyline
 66
     1
 10
0.0
 20
0.0
 30
0.0
 70
     1
  0
VERTEX
  5
DF3414A0F7FAFA2E
100
AcDbEntity
  8
COMMENT
  6
CONTINUOUS
100
AcDbVertex
100
AcDb2dVertex
 10
90850.0
 20
44500.0
 30
0.0
  0
VERTEX
  5
DF3414A0F7FAFA2F
100
AcDbEntity
  8
COMMENT
  6
CONTINUOUS
100
AcDbVertex
100
AcDb2dVertex
 10
92700.0
 20
44500.0
 30
0.0
  0
VERTEX
  5
DF3414A0F7FAFA30
100
AcDbEntity
  8
COMMENT
  6
CONTINUOUS
100
AcDbVertex
100
AcDb2dVertex
 10
92700.0
 20
34200.0
 30
0.0
  0
VERTEX
  5
DF3414A0F7FAFA31
100
AcDbEntity
  8
COMMENT
  6
CONTINUOUS
100
AcDbVertex
100
AcDb2dVertex
 10
90850.0
 20
34200.0
 30
0.0
  0
SEQEND
  5
DF3414A0F7FAFA32
100
AcDbEntity
  8
COMMENT
  6
CONTINUOUS
  0
POLYLINE
  5
DF3414A0F7FAF88E
100
AcDbEntity
  8
COMMENT
  6
CONTINUOUS
100
AcDb2dPolyline
 66
     1
 10
0.0
 20
0.0
 30
0.0
 70
     1
  0
VERTEX
  5
DF3414A0F7FAFA33
100
AcDbEntity
  8
COMMENT
  6
CONTINUOUS
100
AcDbVertex
100
AcDb2dVertex
 10
98850.0
 20
44500.0
 30
0.0
  0
VERTEX
  5
DF3414A0F7FAFA34
100
AcDbEntity
  8
COMMENT
  6
CONTINUOUS
100
AcDbVertex
100
AcDb2dVertex
 10
100700.0
 20
44500.0
 30
0.0
  0
VERTEX
  5
DF3414A0F7FAFA35
100
AcDbEntity
  8
COMMENT
  6
CONTINUOUS
100
AcDbVertex
100
AcDb2dVertex
 10
100700.0
 20
34200.0
 30
0.0
  0
VERTEX
  5
DF3414A0F7FAFA36
100
AcDbEntity
  8
COMMENT
  6
CONTINUOUS
100
AcDbVertex
100
AcDb2dVertex
 10
98850.0
 20
34200.0
 30
0.0
  0
SEQEND
  5
DF3414A0F7FAFA37
100
AcDbEntity
  8
COMMENT
  6
CONTINUOUS
  0
POLYLINE
  5
DF3414A0F7FAF88F
100
AcDbEntity
  8
COMMENT
  6
CONTINUOUS
100
AcDb2dPolyline
 66
     1
 10
0.0
 20
0.0
 30
0.0
 70
     1
  0
VERTEX
  5
DF3414A0F7FAFA38
100
AcDbEntity
  8
COMMENT
  6
CONTINUOUS
100
AcDbVertex
100
AcDb2dVertex
 10
2850.0
 20
60500.0
 30
0.0
  0
VERTEX
  5
DF3414A0F7FAFA39
100
AcDbEntity
  8
COMMENT
  6
CONTINUOUS
100
AcDbVertex
100
AcDb2dVertex
 10
4700.0
 20
60500.0
 30
0.0
  0
VERTEX
  5
DF3414A0F7FAFA3A
100
AcDbEntity
  8
COMMENT
  6
CONTINUOUS
100
AcDbVertex
100
AcDb2dVertex
 10
4700.0
 20
50200.0
 30
0.0
  0
VERTEX
  5
DF3414A0F7FAFA3B
100
AcDbEntity
  8
COMMENT
  6
CONTINUOUS
100
AcDbVertex
100
AcDb2dVertex
 10
2850.0
 20
50200.0
 30
0.0
  0
SEQEND
  5
DF3414A0F7FAFA3C
100
AcDbEntity
  8
COMMENT
  6
CONTINUOUS
  0
POLYLINE
  5
DF3414A0F7FAF890
100
AcDbEntity
  8
COMMENT
  6
CONTINUOUS
100
AcDb2dPolyline
 66
     1
 10
0.0
 20
0.0
 30
0.0
 70
     1
  0
VERTEX
  5
DF3414A0F7FAFA3D
100
AcDbEntity
  8
COMMENT
  6
CONTINUOUS
100
AcDbVertex
100
AcDb2dVertex
 10
10850.0
 20
60500.0
 30
0.0
  0
VERTEX
  5
DF3414A0F7FAFA3E
100
AcDbEntity
  8
COMMENT
  6
CONTINUOUS
100
AcDbVertex
100
AcDb2dVertex
 10
12700.0
 20
60500.0
 30
0.0
  0
VERTEX
  5
DF3414A0F7FAFA3F
100
AcDbEntity
  8
COMMENT
  6
CONTINUOUS
100
AcDbVertex
100
AcDb2dVertex
 10
12700.0
 20
50200.0
 30
0.0
  0
VERTEX
  5
DF3414A0F7FAFA40
100
AcDbEntity
  8
COMMENT
  6
CONTINUOUS
100
AcDbVertex
100
AcDb2dVertex
 10
10850.0
 20
50200.0
 30
0.0
  0
SEQEND
  5
DF3414A0F7FAFA41
100
AcDbEntity
  8
COMMENT
  6
CONTINUOUS
  0
POLYLINE
  5
DF3414A0F7FAF891
100
AcDbEntity
  8
COMMENT
  6
CONTINUOUS
100
AcDb2dPolyline
 66
     1
 10
0.0
 20
0.0
 30
0.0
 70
     1
  0
VERTEX
  5
DF3414A0F7FAFA42
100
AcDbEntity
  8
COMMENT
  6
CONTINUOUS
100
AcDbVertex
100
AcDb2dVertex
 10
18850.0
 20
60500.0
 30
0.0
  0
VERTEX
  5
DF3414A0F7FAFA43
100
AcDbEntity
  8
COMMENT
  6
CONTINUOUS
100
AcDbVertex
100
AcDb2dVertex
 10
20700.0
 20
60500.0
 30
0.0
  0
VERTEX
  5
DF3414A0F7FAFA44
100
AcDbEntity
  8
COMMENT
  6
CONTINUOUS
100
AcDbVertex
100
AcDb2dVertex
 10
20700.0
 20
50200.0
 30
0.0
  0
VERTEX
  5
DF3414A0F7FAFA45
100
AcDbEntity
  8
COMMENT
  6
CONTINUOUS
100
AcDbVertex
100
AcDb2dVertex
 10
18850.0
 20
50200.0
 30
0.0
  0
SEQEND
  5
DF3414A0F7FAFA46
100
AcDbEntity
  8
COMMENT
  6
CONTINUOUS
  0
POLYLINE
  5
DF3414A0F7FAF892
100
AcDbEntity
  8
COMMENT
  6
CONTINUOUS
100
AcDb2dPolyline
 66
     1
 10
0.0
 20
0.0
 30
0.0
 70
     1
  0
VERTEX
  5
DF3414A0F7FAFA47
100
AcDbEntity
  8
COMMENT
  6
CONTINUOUS
100
AcDbVertex
100
AcDb2dVertex
 10
26850.0
 20
60500.0
 30
0.0
  0
VERTEX
  5
DF3414A0F7FAFA48
100
AcDbEntity
  8
COMMENT
  6
CONTINUOUS
100
AcDbVertex
100
AcDb2dVertex
 10
28700.0
 20
60500.0
 30
0.0
  0
VERTEX
  5
DF3414A0F7FAFA49
100
AcDbEntity
  8
COMMENT
  6
CONTINUOUS
100
AcDbVertex
100
AcDb2dVertex
 10
28700.0
 20
50200.0
 30
0.0
  0
VERTEX
  5
DF3414A0F7FAFA4A
100
AcDbEntity
  8
COMMENT
  6
CONTINUOUS
100
AcDbVertex
100
AcDb2dVertex
 10
26850.0
 20
50200.0
 30
0.0
  0
SEQEND
  5
DF3414A0F7FAFA4B
100
AcDbEntity
  8
COMMENT
  6
CONTINUOUS
  0
POLYLINE
  5
DF3414A0F7FAF893
100
AcDbEntity
  8
COMMENT
  6
CONTINUOUS
100
AcDb2dPolyline
 66
     1
 10
0.0
 20
0.0
 30
0.0
 70
     1
  0
VERTEX
  5
DF3414A0F7FAFA4C
100
AcDbEntity
  8
COMMENT
  6
CONTINUOUS
100
AcDbVertex
100
AcDb2dVertex
 10
34850.0
 20
60500.0
 30
0.0
  0
VERTEX
  5
DF3414A0F7FAFA4D
100
AcDbEntity
  8
COMMENT
  6
CONTINUOUS
100
AcDbVertex
100
AcDb2dVertex
 10
36700.0
 20
60500.0
 30
0.0
  0
VERTEX
  5
DF3414A0F7FAFA4E
100
AcDbEntity
  8
COMMENT
  6
CONTINUOUS
100
AcDbVertex
100
AcDb2dVertex
 10
36700.0
 20
50200.0
 30
0.0
  0
VERTEX
  5
DF3414A0F7FAFA4F
100
AcDbEntity
  8
COMMENT
  6
CONTINUOUS
100
AcDbVertex
100
AcDb2dVertex
 10
34850.0
 20
50200.0
 30
0.0
  0
SEQEND
  5
DF3414A0F7FAFA50
100
AcDbEntity
  8
COMMENT
  6
CONTINUOUS
  0
POLYLINE
  5
DF3414A0F7FAF894
100
AcDbEntity
  8
COMMENT
  6
CONTINUOUS
100
AcDb2dPolyline
 66
     1
 10
0.0
 20
0.0
 30
0.0
 70
     1
  0
VERTEX
  5
DF3414A0F7FAFA51
100
AcDbEntity
  8
COMMENT
  6
CONTINUOUS
100
AcDbVertex
100
AcDb2dVertex
 10
42850.0
 20
60500.0
 30
0.0
  0
VERTEX
  5
DF3414A0F7FAFA52
100
AcDbEntity
  8
COMMENT
  6
CONTINUOUS
100
AcDbVertex
100
AcDb2dVertex
 10
44700.0
 20
60500.0
 30
0.0
  0
VERTEX
  5
DF3414A0F7FAFA53
100
AcDbEntity
  8
COMMENT
  6
CONTINUOUS
100
AcDbVertex
100
AcDb2dVertex
 10
44700.0
 20
50200.0
 30
0.0
  0
VERTEX
  5
DF3414A0F7FAFA54
100
AcDbEntity
  8
COMMENT
  6
CONTINUOUS
100
AcDbVertex
100
AcDb2dVertex
 10
42850.0
 20
50200.0
 30
0.0
  0
SEQEND
  5
DF3414A0F7FAFA55
100
AcDbEntity
  8
COMMENT
  6
CONTINUOUS
  0
POLYLINE
  5
DF3414A0F7FAF895
100
AcDbEntity
  8
COMMENT
  6
CONTINUOUS
100
AcDb2dPolyline
 66
     1
 10
0.0
 20
0.0
 30
0.0
 70
     1
  0
VERTEX
  5
DF3414A0F7FAFA56
100
AcDbEntity
  8
COMMENT
  6
CONTINUOUS
100
AcDbVertex
100
AcDb2dVertex
 10
50850.0
 20
60500.0
 30
0.0
  0
VERTEX
  5
DF3414A0F7FAFA57
100
AcDbEntity
  8
COMMENT
  6
CONTINUOUS
100
AcDbVertex
100
AcDb2dVertex
 10
52700.0
 20
60500.0
 30
0.0
  0
VERTEX
  5
DF3414A0F7FAFA58
100
AcDbEntity
  8
COMMENT
  6
CONTINUOUS
100
AcDbVertex
100
AcDb2dVertex
 10
52700.0
 20
50200.0
 30
0.0
  0
VERTEX
  5
DF3414A0F7FAFA59
100
AcDbEntity
  8
COMMENT
  6
CONTINUOUS
100
AcDbVertex
100
AcDb2dVertex
 10
50850.0
 20
50200.0
 30
0.0
  0
SEQEND
  5
DF3414A0F7FAFA5A
100
AcDbEntity
  8
COMMENT
  6
CONTINUOUS
  0
POLYLINE
  5
DF3414A0F7FAF896
100
AcDbEntity
  8
COMMENT
  6
CONTINUOUS
100
AcDb2dPolyline
 66
     1
 10
0.0
 20
0.0
 30
0.0
 70
     1
  0
VERTEX
  5
DF3414A0F7FAFA5B
100
AcDbEntity
  8
COMMENT
  6
CONTINUOUS
100
AcDbVertex
100
AcDb2dVertex
 10
58850.0
 20
60500.0
 30
0.0
  0
VERTEX
  5
DF3414A0F7FAFA5C
100
AcDbEntity
  8
COMMENT
  6
CONTINUOUS
100
AcDbVertex
100
AcDb2dVertex
 10
60700.0
 20
60500.0
 30
0.0
  0
VERTEX
  5
DF3414A0F7FAFA5D
100
AcDbEntity
  8
COMMENT
  6
CONTINUOUS
100
AcDbVertex
100
AcDb2dVertex
 10
60700.0
 20
50200.0
 30
0.0
  0
VERTEX
  5
DF3414A0F7FAFA5E
100
AcDbEntity
  8
COMMENT
  6
CONTINUOUS
100
AcDbVertex
100
AcDb2dVertex
 10
58850.0
 20
50200.0
 30
0.0
  0
SEQEND
  5
DF3414A0F7FAFA5F
100
AcDbEntity
  8
COMMENT
  6
CONTINUOUS
  0
POLYLINE
  5
DF3414A0F7FAF897
100
AcDbEntity
  8
COMMENT
  6
CONTINUOUS
100
AcDb2dPolyline
 66
     1
 10
0.0
 20
0.0
 30
0.0
 70
     1
  0
VERTEX
  5
DF3414A0F7FAFA60
100
AcDbEntity
  8
COMMENT
  6
CONTINUOUS
100
AcDbVertex
100
AcDb2dVertex
 10
66850.0
 20
60500.0
 30
0.0
  0
VERTEX
  5
DF3414A0F7FAFA61
100
AcDbEntity
  8
COMMENT
  6
CONTINUOUS
100
AcDbVertex
100
AcDb2dVertex
 10
68700.0
 20
60500.0
 30
0.0
  0
VERTEX
  5
DF3414A0F7FAFA62
100
AcDbEntity
  8
COMMENT
  6
CONTINUOUS
100
AcDbVertex
100
AcDb2dVertex
 10
68700.0
 20
50200.0
 30
0.0
  0
VERTEX
  5
DF3414A0F7FAFA63
100
AcDbEntity
  8
COMMENT
  6
CONTINUOUS
100
AcDbVertex
100
AcDb2dVertex
 10
66850.0
 20
50200.0
 30
0.0
  0
SEQEND
  5
DF3414A0F7FAFA64
100
AcDbEntity
  8
COMMENT
  6
CONTINUOUS
  0
POLYLINE
  5
DF3414A0F7FAF898
100
AcDbEntity
  8
COMMENT
  6
CONTINUOUS
100
AcDb2dPolyline
 66
     1
 10
0.0
 20
0.0
 30
0.0
 70
     1
  0
VERTEX
  5
DF3414A0F7FAFA65
100
AcDbEntity
  8
COMMENT
  6
CONTINUOUS
100
AcDbVertex
100
AcDb2dVertex
 10
74850.0
 20
60500.0
 30
0.0
  0
VERTEX
  5
DF3414A0F7FAFA66
100
AcDbEntity
  8
COMMENT
  6
CONTINUOUS
100
AcDbVertex
100
AcDb2dVertex
 10
76700.0
 20
60500.0
 30
0.0
  0
VERTEX
  5
DF3414A0F7FAFA67
100
AcDbEntity
  8
COMMENT
  6
CONTINUOUS
100
AcDbVertex
100
AcDb2dVertex
 10
76700.0
 20
50200.0
 30
0.0
  0
VERTEX
  5
DF3414A0F7FAFA68
100
AcDbEntity
  8
COMMENT
  6
CONTINUOUS
100
AcDbVertex
100
AcDb2dVertex
 10
74850.0
 20
50200.0
 30
0.0
  0
SEQEND
  5
DF3414A0F7FAFA69
100
AcDbEntity
  8
COMMENT
  6
CONTINUOUS
  0
POLYLINE
  5
DF3414A0F7FAF899
100
AcDbEntity
  8
COMMENT
  6
CONTINUOUS
100
AcDb2dPolyline
 66
     1
 10
0.0
 20
0.0
 30
0.0
 70
     1
  0
VERTEX
  5
DF3414A0F7FAFA6A
100
AcDbEntity
  8
COMMENT
  6
CONTINUOUS
100
AcDbVertex
100
AcDb2dVertex
 10
82850.0
 20
60500.0
 30
0.0
  0
VERTEX
  5
DF3414A0F7FAFA6B
100
AcDbEntity
  8
COMMENT
  6
CONTINUOUS
100
AcDbVertex
100
AcDb2dVertex
 10
84700.0
 20
60500.0
 30
0.0
  0
VERTEX
  5
DF3414A0F7FAFA6C
100
AcDbEntity
  8
COMMENT
  6
CONTINUOUS
100
AcDbVertex
100
AcDb2dVertex
 10
84700.0
 20
50200.0
 30
0.0
  0
VERTEX
  5
DF3414A0F7FAFA6D
100
AcDbEntity
  8
COMMENT
  6
CONTINUOUS
100
AcDbVertex
100
AcDb2dVertex
 10
82850.0
 20
50200.0
 30
0.0
  0
SEQEND
  5
DF3414A0F7FAFA6E
100
AcDbEntity
  8
COMMENT
  6
CONTINUOUS
  0
POLYLINE
  5
DF3414A0F7FAF89A
100
AcDbEntity
  8
COMMENT
  6
CONTINUOUS
100
AcDb2dPolyline
 66
     1
 10
0.0
 20
0.0
 30
0.0
 70
     1
  0
VERTEX
  5
DF3414A0F7FAFA6F
100
AcDbEntity
  8
COMMENT
  6
CONTINUOUS
100
AcDbVertex
100
AcDb2dVertex
 10
90850.0
 20
60500.0
 30
0.0
  0
VERTEX
  5
DF3414A0F7FAFA70
100
AcDbEntity
  8
COMMENT
  6
CONTINUOUS
100
AcDbVertex
100
AcDb2dVertex
 10
92700.0
 20
60500.0
 30
0.0
  0
VERTEX
  5
DF3414A0F7FAFA71
100
AcDbEntity
  8
COMMENT
  6
CONTINUOUS
100
AcDbVertex
100
AcDb2dVertex
 10
92700.0
 20
50200.0
 30
0.0
  0
VERTEX
  5
DF3414A0F7FAFA72
100
AcDbEntity
  8
COMMENT
  6
CONTINUOUS
100
AcDbVertex
100
AcDb2dVertex
 10
90850.0
 20
50200.0
 30
0.0
  0
SEQEND
  5
DF3414A0F7FAFA73
100
AcDbEntity
  8
COMMENT
  6
CONTINUOUS
  0
POLYLINE
  5
DF3414A0F7FAF89B
100
AcDbEntity
  8
COMMENT
  6
CONTINUOUS
100
AcDb2dPolyline
 66
     1
 10
0.0
 20
0.0
 30
0.0
 70
     1
  0
VERTEX
  5
DF3414A0F7FAFA74
100
AcDbEntity
  8
COMMENT
  6
CONTINUOUS
100
AcDbVertex
100
AcDb2dVertex
 10
98850.0
 20
60500.0
 30
0.0
  0
VERTEX
  5
DF3414A0F7FAFA75
100
AcDbEntity
  8
COMMENT
  6
CONTINUOUS
100
AcDbVertex
100
AcDb2dVertex
 10
100700.0
 20
60500.0
 30
0.0
  0
VERTEX
  5
DF3414A0F7FAFA76
100
AcDbEntity
  8
COMMENT
  6
CONTINUOUS
100
AcDbVertex
100
AcDb2dVertex
 10
100700.0
 20
50200.0
 30
0.0
  0
VERTEX
  5
DF3414A0F7FAFA77
100
AcDbEntity
  8
COMMENT
  6
CONTINUOUS
100
AcDbVertex
100
AcDb2dVertex
 10
98850.0
 20
50200.0
 30
0.0
  0
SEQEND
  5
DF3414A0F7FAFA78
100
AcDbEntity
  8
COMMENT
  6
CONTINUOUS
  0
POLYLINE
  5
DF3414A0F7FAF89C
100
AcDbEntity
  8
COMMENT
  6
CONTINUOUS
100
AcDb2dPolyline
 66
     1
 10
0.0
 20
0.0
 30
0.0
 70
     1
  0
VERTEX
  5
DF3414A0F7FAFA79
100
AcDbEntity
  8
COMMENT
  6
CONTINUOUS
100
AcDbVertex
100
AcDb2dVertex
 10
2850.0
 20
76500.0
 30
0.0
  0
VERTEX
  5
DF3414A0F7FAFA7A
100
AcDbEntity
  8
COMMENT
  6
CONTINUOUS
100
AcDbVertex
100
AcDb2dVertex
 10
4700.0
 20
76500.0
 30
0.0
  0
VERTEX
  5
DF3414A0F7FAFA7B
100
AcDbEntity
  8
COMMENT
  6
CONTINUOUS
100
AcDbVertex
100
AcDb2dVertex
 10
4700.0
 20
66200.0
 30
0.0
  0
VERTEX
  5
DF3414A0F7FAFA7C
100
AcDbEntity
  8
COMMENT
  6
CONTINUOUS
100
AcDbVertex
100
AcDb2dVertex
 10
2850.0
 20
66200.0
 30
0.0
  0
SEQEND
  5
DF3414A0F7FAFA7D
100
AcDbEntity
  8
COMMENT
  6
CONTINUOUS
  0
POLYLINE
  5
DF3414A0F7FAF89D
100
AcDbEntity
  8
COMMENT
  6
CONTINUOUS
100
AcDb2dPolyline
 66
     1
 10
0.0
 20
0.0
 30
0.0
 70
     1
  0
VERTEX
  5
DF3414A0F7FAFA7E
100
AcDbEntity
  8
COMMENT
  6
CONTINUOUS
100
AcDbVertex
100
AcDb2dVertex
 10
10850.0
 20
76500.0
 30
0.0
  0
VERTEX
  5
DF3414A0F7FAFA7F
100
AcDbEntity
  8
COMMENT
  6
CONTINUOUS
100
AcDbVertex
100
AcDb2dVertex
 10
12700.0
 20
76500.0
 30
0.0
  0
VERTEX
  5
DF3414A0F7FAFA80
100
AcDbEntity
  8
COMMENT
  6
CONTINUOUS
100
AcDbVertex
100
AcDb2dVertex
 10
12700.0
 20
66200.0
 30
0.0
  0
VERTEX
  5
DF3414A0F7FAFA81
100
AcDbEntity
  8
COMMENT
  6
CONTINUOUS
100
AcDbVertex
100
AcDb2dVertex
 10
10850.0
 20
66200.0
 30
0.0
  0
SEQEND
  5
DF3414A0F7FAFA82
100
AcDbEntity
  8
COMMENT
  6
CONTINUOUS
  0
POLYLINE
  5
DF3414A0F7FAF89E
100
AcDbEntity
  8
COMMENT
  6
CONTINUOUS
100
AcDb2dPolyline
 66
     1
 10
0.0
 20
0.0
 30
0.0
 70
     1
  0
VERTEX
  5
DF3414A0F7FAFA83
100
AcDbEntity
  8
COMMENT
  6
CONTINUOUS
100
AcDbVertex
100
AcDb2dVertex
 10
18850.0
 20
76500.0
 30
0.0
  0
VERTEX
  5
DF3414A0F7FAFA84
100
AcDbEntity
  8
COMMENT
  6
CONTINUOUS
100
AcDbVertex
100
AcDb2dVertex
 10
20700.0
 20
76500.0
 30
0.0
  0
VERTEX
  5
DF3414A0F7FAFA85
100
AcDbEntity
  8
COMMENT
  6
CONTINUOUS
100
AcDbVertex
100
AcDb2dVertex
 10
20700.0
 20
66200.0
 30
0.0
  0
VERTEX
  5
DF3414A0F7FAFA86
100
AcDbEntity
  8
COMMENT
  6
CONTINUOUS
100
AcDbVertex
100
AcDb2dVertex
 10
18850.0
 20
66200.0
 30
0.0
  0
SEQEND
  5
DF3414A0F7FAFA87
100
AcDbEntity
  8
COMMENT
  6
CONTINUOUS
  0
POLYLINE
  5
DF3414A0F7FAF89F
100
AcDbEntity
  8
COMMENT
  6
CONTINUOUS
100
AcDb2dPolyline
 66
     1
 10
0.0
 20
0.0
 30
0.0
 70
     1
  0
VERTEX
  5
DF3414A0F7FAFA88
100
AcDbEntity
  8
COMMENT
  6
CONTINUOUS
100
AcDbVertex
100
AcDb2dVertex
 10
26850.0
 20
76500.0
 30
0.0
  0
VERTEX
  5
DF3414A0F7FAFA89
100
AcDbEntity
  8
COMMENT
  6
CONTINUOUS
100
AcDbVertex
100
AcDb2dVertex
 10
28700.0
 20
76500.0
 30
0.0
  0
VERTEX
  5
DF3414A0F7FAFA8A
100
AcDbEntity
  8
COMMENT
  6
CONTINUOUS
100
AcDbVertex
100
AcDb2dVertex
 10
28700.0
 20
66200.0
 30
0.0
  0
VERTEX
  5
DF3414A0F7FAFA8B
100
AcDbEntity
  8
COMMENT
  6
CONTINUOUS
100
AcDbVertex
100
AcDb2dVertex
 10
26850.0
 20
66200.0
 30
0.0
  0
SEQEND
  5
DF3414A0F7FAFA8C
100
AcDbEntity
  8
COMMENT
  6
CONTINUOUS
  0
POLYLINE
  5
DF3414A0F7FAF8A0
100
AcDbEntity
  8
COMMENT
  6
CONTINUOUS
100
AcDb2dPolyline
 66
     1
 10
0.0
 20
0.0
 30
0.0
 70
     1
  0
VERTEX
  5
DF3414A0F7FAFA8D
100
AcDbEntity
  8
COMMENT
  6
CONTINUOUS
100
AcDbVertex
100
AcDb2dVertex
 10
34850.0
 20
76500.0
 30
0.0
  0
VERTEX
  5
DF3414A0F7FAFA8E
100
AcDbEntity
  8
COMMENT
  6
CONTINUOUS
100
AcDbVertex
100
AcDb2dVertex
 10
36700.0
 20
76500.0
 30
0.0
  0
VERTEX
  5
DF3414A0F7FAFA8F
100
AcDbEntity
  8
COMMENT
  6
CONTINUOUS
100
AcDbVertex
100
AcDb2dVertex
 10
36700.0
 20
66200.0
 30
0.0
  0
VERTEX
  5
DF3414A0F7FAFA90
100
AcDbEntity
  8
COMMENT
  6
CONTINUOUS
100
AcDbVertex
100
AcDb2dVertex
 10
34850.0
 20
66200.0
 30
0.0
  0
SEQEND
  5
DF3414A0F7FAFA91
100
AcDbEntity
  8
COMMENT
  6
CONTINUOUS
  0
POLYLINE
  5
DF3414A0F7FAF8A1
100
AcDbEntity
  8
COMMENT
  6
CONTINUOUS
100
AcDb2dPolyline
 66
     1
 10
0.0
 20
0.0
 30
0.0
 70
     1
  0
VERTEX
  5
DF3414A0F7FAFA92
100
AcDbEntity
  8
COMMENT
  6
CONTINUOUS
100
AcDbVertex
100
AcDb2dVertex
 10
42850.0
 20
76500.0
 30
0.0
  0
VERTEX
  5
DF3414A0F7FAFA93
100
AcDbEntity
  8
COMMENT
  6
CONTINUOUS
100
AcDbVertex
100
AcDb2dVertex
 10
44700.0
 20
76500.0
 30
0.0
  0
VERTEX
  5
DF3414A0F7FAFA94
100
AcDbEntity
  8
COMMENT
  6
CONTINUOUS
100
AcDbVertex
100
AcDb2dVertex
 10
44700.0
 20
66200.0
 30
0.0
  0
VERTEX
  5
DF3414A0F7FAFA95
100
AcDbEntity
  8
COMMENT
  6
CONTINUOUS
100
AcDbVertex
100
AcDb2dVertex
 10
42850.0
 20
66200.0
 30
0.0
  0
SEQEND
  5
DF3414A0F7FAFA96
100
AcDbEntity
  8
COMMENT
  6
CONTINUOUS
  0
POLYLINE
  5
DF3414A0F7FAF8A2
100
AcDbEntity
  8
COMMENT
  6
CONTINUOUS
100
AcDb2dPolyline
 66
     1
 10
0.0
 20
0.0
 30
0.0
 70
     1
  0
VERTEX
  5
DF3414A0F7FAFA97
100
AcDbEntity
  8
COMMENT
  6
CONTINUOUS
100
AcDbVertex
100
AcDb2dVertex
 10
50850.0
 20
76500.0
 30
0.0
  0
VERTEX
  5
DF3414A0F7FAFA98
100
AcDbEntity
  8
COMMENT
  6
CONTINUOUS
100
AcDbVertex
100
AcDb2dVertex
 10
52700.0
 20
76500.0
 30
0.0
  0
VERTEX
  5
DF3414A0F7FAFA99
100
AcDbEntity
  8
COMMENT
  6
CONTINUOUS
100
AcDbVertex
100
AcDb2dVertex
 10
52700.0
 20
66200.0
 30
0.0
  0
VERTEX
  5
DF3414A0F7FAFA9A
100
AcDbEntity
  8
COMMENT
  6
CONTINUOUS
100
AcDbVertex
100
AcDb2dVertex
 10
50850.0
 20
66200.0
 30
0.0
  0
SEQEND
  5
DF3414A0F7FAFA9B
100
AcDbEntity
  8
COMMENT
  6
CONTINUOUS
  0
POLYLINE
  5
DF3414A0F7FAF8A3
100
AcDbEntity
  8
COMMENT
  6
CONTINUOUS
100
AcDb2dPolyline
 66
     1
 10
0.0
 20
0.0
 30
0.0
 70
     1
  0
VERTEX
  5
DF3414A0F7FAFA9C
100
AcDbEntity
  8
COMMENT
  6
CONTINUOUS
100
AcDbVertex
100
AcDb2dVertex
 10
58850.0
 20
76500.0
 30
0.0
  0
VERTEX
  5
DF3414A0F7FAFA9D
100
AcDbEntity
  8
COMMENT
  6
CONTINUOUS
100
AcDbVertex
100
AcDb2dVertex
 10
60700.0
 20
76500.0
 30
0.0
  0
VERTEX
  5
DF3414A0F7FAFA9E
100
AcDbEntity
  8
COMMENT
  6
CONTINUOUS
100
AcDbVertex
100
AcDb2dVertex
 10
60700.0
 20
66200.0
 30
0.0
  0
VERTEX
  5
DF3414A0F7FAFA9F
100
AcDbEntity
  8
COMMENT
  6
CONTINUOUS
100
AcDbVertex
100
AcDb2dVertex
 10
58850.0
 20
66200.0
 30
0.0
  0
SEQEND
  5
DF3414A0F7FAFAA0
100
AcDbEntity
  8
COMMENT
  6
CONTINUOUS
  0
POLYLINE
  5
DF3414A0F7FAF8A4
100
AcDbEntity
  8
COMMENT
  6
CONTINUOUS
100
AcDb2dPolyline
 66
     1
 10
0.0
 20
0.0
 30
0.0
 70
     1
  0
VERTEX
  5
DF3414A0F7FAFAA1
100
AcDbEntity
  8
COMMENT
  6
CONTINUOUS
100
AcDbVertex
100
AcDb2dVertex
 10
66850.0
 20
76500.0
 30
0.0
  0
VERTEX
  5
DF3414A0F7FAFAA2
100
AcDbEntity
  8
COMMENT
  6
CONTINUOUS
100
AcDbVertex
100
AcDb2dVertex
 10
68700.0
 20
76500.0
 30
0.0
  0
VERTEX
  5
DF3414A0F7FAFAA3
100
AcDbEntity
  8
COMMENT
  6
CONTINUOUS
100
AcDbVertex
100
AcDb2dVertex
 10
68700.0
 20
66200.0
 30
0.0
  0
VERTEX
  5
DF3414A0F7FAFAA4
100
AcDbEntity
  8
COMMENT
  6
CONTINUOUS
100
AcDbVertex
100
AcDb2dVertex
 10
66850.0
 20
66200.0
 30
0.0
  0
SEQEND
  5
DF3414A0F7FAFAA5
100
AcDbEntity
  8
COMMENT
  6
CONTINUOUS
  0
POLYLINE
  5
DF3414A0F7FAF8A5
100
AcDbEntity
  8
COMMENT
  6
CONTINUOUS
100
AcDb2dPolyline
 66
     1
 10
0.0
 20
0.0
 30
0.0
 70
     1
  0
VERTEX
  5
DF3414A0F7FAFAA6
100
AcDbEntity
  8
COMMENT
  6
CONTINUOUS
100
AcDbVertex
100
AcDb2dVertex
 10
74850.0
 20
76500.0
 30
0.0
  0
VERTEX
  5
DF3414A0F7FAFAA7
100
AcDbEntity
  8
COMMENT
  6
CONTINUOUS
100
AcDbVertex
100
AcDb2dVertex
 10
76700.0
 20
76500.0
 30
0.0
  0
VERTEX
  5
DF3414A0F7FAFAA8
100
AcDbEntity
  8
COMMENT
  6
CONTINUOUS
100
AcDbVertex
100
AcDb2dVertex
 10
76700.0
 20
66200.0
 30
0.0
  0
VERTEX
  5
DF3414A0F7FAFAA9
100
AcDbEntity
  8
COMMENT
  6
CONTINUOUS
100
AcDbVertex
100
AcDb2dVertex
 10
74850.0
 20
66200.0
 30
0.0
  0
SEQEND
  5
DF3414A0F7FAFAAA
100
AcDbEntity
  8
COMMENT
  6
CONTINUOUS
  0
POLYLINE
  5
DF3414A0F7FAF8A6
100
AcDbEntity
  8
COMMENT
  6
CONTINUOUS
100
AcDb2dPolyline
 66
     1
 10
0.0
 20
0.0
 30
0.0
 70
     1
  0
VERTEX
  5
DF3414A0F7FAFAAB
100
AcDbEntity
  8
COMMENT
  6
CONTINUOUS
100
AcDbVertex
100
AcDb2dVertex
 10
82850.0
 20
76500.0
 30
0.0
  0
VERTEX
  5
DF3414A0F7FAFAAC
100
AcDbEntity
  8
COMMENT
  6
CONTINUOUS
100
AcDbVertex
100
AcDb2dVertex
 10
84700.0
 20
76500.0
 30
0.0
  0
VERTEX
  5
DF3414A0F7FAFAAD
100
AcDbEntity
  8
COMMENT
  6
CONTINUOUS
100
AcDbVertex
100
AcDb2dVertex
 10
84700.0
 20
66200.0
 30
0.0
  0
VERTEX
  5
DF3414A0F7FAFAAE
100
AcDbEntity
  8
COMMENT
  6
CONTINUOUS
100
AcDbVertex
100
AcDb2dVertex
 10
82850.0
 20
66200.0
 30
0.0
  0
SEQEND
  5
DF3414A0F7FAFAAF
100
AcDbEntity
  8
COMMENT
  6
CONTINUOUS
  0
POLYLINE
  5
DF3414A0F7FAF8A7
100
AcDbEntity
  8
COMMENT
  6
CONTINUOUS
100
AcDb2dPolyline
 66
     1
 10
0.0
 20
0.0
 30
0.0
 70
     1
  0
VERTEX
  5
DF3414A0F7FAFAB0
100
AcDbEntity
  8
COMMENT
  6
CONTINUOUS
100
AcDbVertex
100
AcDb2dVertex
 10
90850.0
 20
76500.0
 30
0.0
  0
VERTEX
  5
DF3414A0F7FAFAB1
100
AcDbEntity
  8
COMMENT
  6
CONTINUOUS
100
AcDbVertex
100
AcDb2dVertex
 10
92700.0
 20
76500.0
 30
0.0
  0
VERTEX
  5
DF3414A0F7FAFAB2
100
AcDbEntity
  8
COMMENT
  6
CONTINUOUS
100
AcDbVertex
100
AcDb2dVertex
 10
92700.0
 20
66200.0
 30
0.0
  0
VERTEX
  5
DF3414A0F7FAFAB3
100
AcDbEntity
  8
COMMENT
  6
CONTINUOUS
100
AcDbVertex
100
AcDb2dVertex
 10
90850.0
 20
66200.0
 30
0.0
  0
SEQEND
  5
DF3414A0F7FAFAB4
100
AcDbEntity
  8
COMMENT
  6
CONTINUOUS
  0
POLYLINE
  5
DF3414A0F7FAF8A8
100
AcDbEntity
  8
COMMENT
  6
CONTINUOUS
100
AcDb2dPolyline
 66
     1
 10
0.0
 20
0.0
 30
0.0
 70
     1
  0
VERTEX
  5
DF3414A0F7FAFAB5
100
AcDbEntity
  8
COMMENT
  6
CONTINUOUS
100
AcDbVertex
100
AcDb2dVertex
 10
98850.0
 20
76500.0
 30
0.0
  0
VERTEX
  5
DF3414A0F7FAFAB6
100
AcDbEntity
  8
COMMENT
  6
CONTINUOUS
100
AcDbVertex
100
AcDb2dVertex
 10
100700.0
 20
76500.0
 30
0.0
  0
VERTEX
  5
DF3414A0F7FAFAB7
100
AcDbEntity
  8
COMMENT
  6
CONTINUOUS
100
AcDbVertex
100
AcDb2dVertex
 10
100700.0
 20
66200.0
 30
0.0
  0
VERTEX
  5
DF3414A0F7FAFAB8
100
AcDbEntity
  8
COMMENT
  6
CONTINUOUS
100
AcDbVertex
100
AcDb2dVertex
 10
98850.0
 20
66200.0
 30
0.0
  0
SEQEND
  5
DF3414A0F7FAFAB9
100
AcDbEntity
  8
COMMENT
  6
CONTINUOUS
  0
POLYLINE
  5
DF3414A0F7FAF8A9
100
AcDbEntity
  8
COMMENT
  6
CONTINUOUS
100
AcDb2dPolyline
 66
     1
 10
0.0
 20
0.0
 30
0.0
 70
     1
  0
VERTEX
  5
DF3414A0F7FAFABA
100
AcDbEntity
  8
COMMENT
  6
CONTINUOUS
100
AcDbVertex
100
AcDb2dVertex
 10
2850.0
 20
92500.0
 30
0.0
  0
VERTEX
  5
DF3414A0F7FAFABB
100
AcDbEntity
  8
COMMENT
  6
CONTINUOUS
100
AcDbVertex
100
AcDb2dVertex
 10
4700.0
 20
92500.0
 30
0.0
  0
VERTEX
  5
DF3414A0F7FAFABC
100
AcDbEntity
  8
COMMENT
  6
CONTINUOUS
100
AcDbVertex
100
AcDb2dVertex
 10
4700.0
 20
82200.0
 30
0.0
  0
VERTEX
  5
DF3414A0F7FAFABD
100
AcDbEntity
  8
COMMENT
  6
CONTINUOUS
100
AcDbVertex
100
AcDb2dVertex
 10
2850.0
 20
82200.0
 30
0.0
  0
SEQEND
  5
DF3414A0F7FAFABE
100
AcDbEntity
  8
COMMENT
  6
CONTINUOUS
  0
POLYLINE
  5
DF3414A0F7FAF8AA
100
AcDbEntity
  8
COMMENT
  6
CONTINUOUS
100
AcDb2dPolyline
 66
     1
 10
0.0
 20
0.0
 30
0.0
 70
     1
  0
VERTEX
  5
DF3414A0F7FAFABF
100
AcDbEntity
  8
COMMENT
  6
CONTINUOUS
100
AcDbVertex
100
AcDb2dVertex
 10
10850.0
 20
92500.0
 30
0.0
  0
VERTEX
  5
DF3414A0F7FAFAC0
100
AcDbEntity
  8
COMMENT
  6
CONTINUOUS
100
AcDbVertex
100
AcDb2dVertex
 10
12700.0
 20
92500.0
 30
0.0
  0
VERTEX
  5
DF3414A0F7FAFAC1
100
AcDbEntity
  8
COMMENT
  6
CONTINUOUS
100
AcDbVertex
100
AcDb2dVertex
 10
12700.0
 20
82200.0
 30
0.0
  0
VERTEX
  5
DF3414A0F7FAFAC2
100
AcDbEntity
  8
COMMENT
  6
CONTINUOUS
100
AcDbVertex
100
AcDb2dVertex
 10
10850.0
 20
82200.0
 30
0.0
  0
SEQEND
  5
DF3414A0F7FAFAC3
100
AcDbEntity
  8
COMMENT
  6
CONTINUOUS
  0
POLYLINE
  5
DF3414A0F7FAF8AB
100
AcDbEntity
  8
COMMENT
  6
CONTINUOUS
100
AcDb2dPolyline
 66
     1
 10
0.0
 20
0.0
 30
0.0
 70
     1
  0
VERTEX
  5
DF3414A0F7FAFAC4
100
AcDbEntity
  8
COMMENT
  6
CONTINUOUS
100
AcDbVertex
100
AcDb2dVertex
 10
18850.0
 20
92500.0
 30
0.0
  0
VERTEX
  5
DF3414A0F7FAFAC5
100
AcDbEntity
  8
COMMENT
  6
CONTINUOUS
100
AcDbVertex
100
AcDb2dVertex
 10
20700.0
 20
92500.0
 30
0.0
  0
VERTEX
  5
DF3414A0F7FAFAC6
100
AcDbEntity
  8
COMMENT
  6
CONTINUOUS
100
AcDbVertex
100
AcDb2dVertex
 10
20700.0
 20
82200.0
 30
0.0
  0
VERTEX
  5
DF3414A0F7FAFAC7
100
AcDbEntity
  8
COMMENT
  6
CONTINUOUS
100
AcDbVertex
100
AcDb2dVertex
 10
18850.0
 20
82200.0
 30
0.0
  0
SEQEND
  5
DF3414A0F7FAFAC8
100
AcDbEntity
  8
COMMENT
  6
CONTINUOUS
  0
POLYLINE
  5
DF3414A0F7FAF8AC
100
AcDbEntity
  8
COMMENT
  6
CONTINUOUS
100
AcDb2dPolyline
 66
     1
 10
0.0
 20
0.0
 30
0.0
 70
     1
  0
VERTEX
  5
DF3414A0F7FAFAC9
100
AcDbEntity
  8
COMMENT
  6
CONTINUOUS
100
AcDbVertex
100
AcDb2dVertex
 10
26850.0
 20
92500.0
 30
0.0
  0
VERTEX
  5
DF3414A0F7FAFACA
100
AcDbEntity
  8
COMMENT
  6
CONTINUOUS
100
AcDbVertex
100
AcDb2dVertex
 10
28700.0
 20
92500.0
 30
0.0
  0
VERTEX
  5
DF3414A0F7FAFACB
100
AcDbEntity
  8
COMMENT
  6
CONTINUOUS
100
AcDbVertex
100
AcDb2dVertex
 10
28700.0
 20
82200.0
 30
0.0
  0
VERTEX
  5
DF3414A0F7FAFACC
100
AcDbEntity
  8
COMMENT
  6
CONTINUOUS
100
AcDbVertex
100
AcDb2dVertex
 10
26850.0
 20
82200.0
 30
0.0
  0
SEQEND
  5
DF3414A0F7FAFACD
100
AcDbEntity
  8
COMMENT
  6
CONTINUOUS
  0
POLYLINE
  5
DF3414A0F7FAF8AD
100
AcDbEntity
  8
COMMENT
  6
CONTINUOUS
100
AcDb2dPolyline
 66
     1
 10
0.0
 20
0.0
 30
0.0
 70
     1
  0
VERTEX
  5
DF3414A0F7FAFACE
100
AcDbEntity
  8
COMMENT
  6
CONTINUOUS
100
AcDbVertex
100
AcDb2dVertex
 10
34850.0
 20
92500.0
 30
0.0
  0
VERTEX
  5
DF3414A0F7FAFACF
100
AcDbEntity
  8
COMMENT
  6
CONTINUOUS
100
AcDbVertex
100
AcDb2dVertex
 10
36700.0
 20
92500.0
 30
0.0
  0
VERTEX
  5
DF3414A0F7FAFAD0
100
AcDbEntity
  8
COMMENT
  6
CONTINUOUS
100
AcDbVertex
100
AcDb2dVertex
 10
36700.0
 20
82200.0
 30
0.0
  0
VERTEX
  5
DF3414A0F7FAFAD1
100
AcDbEntity
  8
COMMENT
  6
CONTINUOUS
100
AcDbVertex
100
AcDb2dVertex
 10
34850.0
 20
82200.0
 30
0.0
  0
SEQEND
  5
DF3414A0F7FAFAD2
100
AcDbEntity
  8
COMMENT
  6
CONTINUOUS
  0
POLYLINE
  5
DF3414A0F7FAF8AE
100
AcDbEntity
  8
COMMENT
  6
CONTINUOUS
100
AcDb2dPolyline
 66
     1
 10
0.0
 20
0.0
 30
0.0
 70
     1
  0
VERTEX
  5
DF3414A0F7FAFAD3
100
AcDbEntity
  8
COMMENT
  6
CONTINUOUS
100
AcDbVertex
100
AcDb2dVertex
 10
42850.0
 20
92500.0
 30
0.0
  0
VERTEX
  5
DF3414A0F7FAFAD4
100
AcDbEntity
  8
COMMENT
  6
CONTINUOUS
100
AcDbVertex
100
AcDb2dVertex
 10
44700.0
 20
92500.0
 30
0.0
  0
VERTEX
  5
DF3414A0F7FAFAD5
100
AcDbEntity
  8
COMMENT
  6
CONTINUOUS
100
AcDbVertex
100
AcDb2dVertex
 10
44700.0
 20
82200.0
 30
0.0
  0
VERTEX
  5
DF3414A0F7FAFAD6
100
AcDbEntity
  8
COMMENT
  6
CONTINUOUS
100
AcDbVertex
100
AcDb2dVertex
 10
42850.0
 20
82200.0
 30
0.0
  0
SEQEND
  5
DF3414A0F7FAFAD7
100
AcDbEntity
  8
COMMENT
  6
CONTINUOUS
  0
POLYLINE
  5
DF3414A0F7FAF8AF
100
AcDbEntity
  8
COMMENT
  6
CONTINUOUS
100
AcDb2dPolyline
 66
     1
 10
0.0
 20
0.0
 30
0.0
 70
     1
  0
VERTEX
  5
DF3414A0F7FAFAD8
100
AcDbEntity
  8
COMMENT
  6
CONTINUOUS
100
AcDbVertex
100
AcDb2dVertex
 10
50850.0
 20
92500.0
 30
0.0
  0
VERTEX
  5
DF3414A0F7FAFAD9
100
AcDbEntity
  8
COMMENT
  6
CONTINUOUS
100
AcDbVertex
100
AcDb2dVertex
 10
52700.0
 20
92500.0
 30
0.0
  0
VERTEX
  5
DF3414A0F7FAFADA
100
AcDbEntity
  8
COMMENT
  6
CONTINUOUS
100
AcDbVertex
100
AcDb2dVertex
 10
52700.0
 20
82200.0
 30
0.0
  0
VERTEX
  5
DF3414A0F7FAFADB
100
AcDbEntity
  8
COMMENT
  6
CONTINUOUS
100
AcDbVertex
100
AcDb2dVertex
 10
50850.0
 20
82200.0
 30
0.0
  0
SEQEND
  5
DF3414A0F7FAFADC
100
AcDbEntity
  8
COMMENT
  6
CONTINUOUS
  0
POLYLINE
  5
DF3414A0F7FAF8B0
100
AcDbEntity
  8
COMMENT
  6
CONTINUOUS
100
AcDb2dPolyline
 66
     1
 10
0.0
 20
0.0
 30
0.0
 70
     1
  0
VERTEX
  5
DF3414A0F7FAFADD
100
AcDbEntity
  8
COMMENT
  6
CONTINUOUS
100
AcDbVertex
100
AcDb2dVertex
 10
58850.0
 20
92500.0
 30
0.0
  0
VERTEX
  5
DF3414A0F7FAFADE
100
AcDbEntity
  8
COMMENT
  6
CONTINUOUS
100
AcDbVertex
100
AcDb2dVertex
 10
60700.0
 20
92500.0
 30
0.0
  0
VERTEX
  5
DF3414A0F7FAFADF
100
AcDbEntity
  8
COMMENT
  6
CONTINUOUS
100
AcDbVertex
100
AcDb2dVertex
 10
60700.0
 20
82200.0
 30
0.0
  0
VERTEX
  5
DF3414A0F7FAFAE0
100
AcDbEntity
  8
COMMENT
  6
CONTINUOUS
100
AcDbVertex
100
AcDb2dVertex
 10
58850.0
 20
82200.0
 30
0.0
  0
SEQEND
  5
DF3414A0F7FAFAE1
100
AcDbEntity
  8
COMMENT
  6
CONTINUOUS
  0
POLYLINE
  5
DF3414A0F7FAF8B1
100
AcDbEntity
  8
COMMENT
  6
CONTINUOUS
100
AcDb2dPolyline
 66
     1
 10
0.0
 20
0.0
 30
0.0
 70
     1
  0
VERTEX
  5
DF3414A0F7FAFAE2
100
AcDbEntity
  8
COMMENT
  6
CONTINUOUS
100
AcDbVertex
100
AcDb2dVertex
 10
66850.0
 20
92500.0
 30
0.0
  0
VERTEX
  5
DF3414A0F7FAFAE3
100
AcDbEntity
  8
COMMENT
  6
CONTINUOUS
100
AcDbVertex
100
AcDb2dVertex
 10
68700.0
 20
92500.0
 30
0.0
  0
VERTEX
  5
DF3414A0F7FAFAE4
100
AcDbEntity
  8
COMMENT
  6
CONTINUOUS
100
AcDbVertex
100
AcDb2dVertex
 10
68700.0
 20
82200.0
 30
0.0
  0
VERTEX
  5
DF3414A0F7FAFAE5
100
AcDbEntity
  8
COMMENT
  6
CONTINUOUS
100
AcDbVertex
100
AcDb2dVertex
 10
66850.0
 20
82200.0
 30
0.0
  0
SEQEND
  5
DF3414A0F7FAFAE6
100
AcDbEntity
  8
COMMENT
  6
CONTINUOUS
  0
POLYLINE
  5
DF3414A0F7FAF8B2
100
AcDbEntity
  8
COMMENT
  6
CONTINUOUS
100
AcDb2dPolyline
 66
     1
 10
0.0
 20
0.0
 30
0.0
 70
     1
  0
VERTEX
  5
DF3414A0F7FAFAE7
100
AcDbEntity
  8
COMMENT
  6
CONTINUOUS
100
AcDbVertex
100
AcDb2dVertex
 10
74850.0
 20
92500.0
 30
0.0
  0
VERTEX
  5
DF3414A0F7FAFAE8
100
AcDbEntity
  8
COMMENT
  6
CONTINUOUS
100
AcDbVertex
100
AcDb2dVertex
 10
76700.0
 20
92500.0
 30
0.0
  0
VERTEX
  5
DF3414A0F7FAFAE9
100
AcDbEntity
  8
COMMENT
  6
CONTINUOUS
100
AcDbVertex
100
AcDb2dVertex
 10
76700.0
 20
82200.0
 30
0.0
  0
VERTEX
  5
DF3414A0F7FAFAEA
100
AcDbEntity
  8
COMMENT
  6
CONTINUOUS
100
AcDbVertex
100
AcDb2dVertex
 10
74850.0
 20
82200.0
 30
0.0
  0
SEQEND
  5
DF3414A0F7FAFAEB
100
AcDbEntity
  8
COMMENT
  6
CONTINUOUS
  0
POLYLINE
  5
DF3414A0F7FAF8B3
100
AcDbEntity
  8
COMMENT
  6
CONTINUOUS
100
AcDb2dPolyline
 66
     1
 10
0.0
 20
0.0
 30
0.0
 70
     1
  0
VERTEX
  5
DF3414A0F7FAFAEC
100
AcDbEntity
  8
COMMENT
  6
CONTINUOUS
100
AcDbVertex
100
AcDb2dVertex
 10
82850.0
 20
92500.0
 30
0.0
  0
VERTEX
  5
DF3414A0F7FAFAED
100
AcDbEntity
  8
COMMENT
  6
CONTINUOUS
100
AcDbVertex
100
AcDb2dVertex
 10
84700.0
 20
92500.0
 30
0.0
  0
VERTEX
  5
DF3414A0F7FAFAEE
100
AcDbEntity
  8
COMMENT
  6
CONTINUOUS
100
AcDbVertex
100
AcDb2dVertex
 10
84700.0
 20
82200.0
 30
0.0
  0
VERTEX
  5
DF3414A0F7FAFAEF
100
AcDbEntity
  8
COMMENT
  6
CONTINUOUS
100
AcDbVertex
100
AcDb2dVertex
 10
82850.0
 20
82200.0
 30
0.0
  0
SEQEND
  5
DF3414A0F7FAFAF0
100
AcDbEntity
  8
COMMENT
  6
CONTINUOUS
  0
POLYLINE
  5
DF3414A0F7FAF8B4
100
AcDbEntity
  8
COMMENT
  6
CONTINUOUS
100
AcDb2dPolyline
 66
     1
 10
0.0
 20
0.0
 30
0.0
 70
     1
  0
VERTEX
  5
DF3414A0F7FAFAF1
100
AcDbEntity
  8
COMMENT
  6
CONTINUOUS
100
AcDbVertex
100
AcDb2dVertex
 10
90850.0
 20
92500.0
 30
0.0
  0
VERTEX
  5
DF3414A0F7FAFAF2
100
AcDbEntity
  8
COMMENT
  6
CONTINUOUS
100
AcDbVertex
100
AcDb2dVertex
 10
92700.0
 20
92500.0
 30
0.0
  0
VERTEX
  5
DF3414A0F7FAFAF3
100
AcDbEntity
  8
COMMENT
  6
CONTINUOUS
100
AcDbVertex
100
AcDb2dVertex
 10
92700.0
 20
82200.0
 30
0.0
  0
VERTEX
  5
DF3414A0F7FAFAF4
100
AcDbEntity
  8
COMMENT
  6
CONTINUOUS
100
AcDbVertex
100
AcDb2dVertex
 10
90850.0
 20
82200.0
 30
0.0
  0
SEQEND
  5
DF3414A0F7FAFAF5
100
AcDbEntity
  8
COMMENT
  6
CONTINUOUS
  0
POLYLINE
  5
DF3414A0F7FAF8B5
100
AcDbEntity
  8
COMMENT
  6
CONTINUOUS
100
AcDb2dPolyline
 66
     1
 10
0.0
 20
0.0
 30
0.0
 70
     1
  0
VERTEX
  5
DF3414A0F7FAFAF6
100
AcDbEntity
  8
COMMENT
  6
CONTINUOUS
100
AcDbVertex
100
AcDb2dVertex
 10
98850.0
 20
92500.0
 30
0.0
  0
VERTEX
  5
DF3414A0F7FAFAF7
100
AcDbEntity
  8
COMMENT
  6
CONTINUOUS
100
AcDbVertex
100
AcDb2dVertex
 10
100700.0
 20
92500.0
 30
0.0
  0
VERTEX
  5
DF3414A0F7FAFAF8
100
AcDbEntity
  8
COMMENT
  6
CONTINUOUS
100
AcDbVertex
100
AcDb2dVertex
 10
100700.0
 20
82200.0
 30
0.0
  0
VERTEX
  5
DF3414A0F7FAFAF9
100
AcDbEntity
  8
COMMENT
  6
CONTINUOUS
100
AcDbVertex
100
AcDb2dVertex
 10
98850.0
 20
82200.0
 30
0.0
  0
SEQEND
  5
DF3414A0F7FAFAFA
100
AcDbEntity
  8
COMMENT
  6
CONTINUOUS
  0
POLYLINE
  5
DF3414A0F7FAF8B6
100
AcDbEntity
  8
COMMENT
  6
CONTINUOUS
100
AcDb2dPolyline
 66
     1
 10
0.0
 20
0.0
 30
0.0
 70
     1
  0
VERTEX
  5
DF3414A0F7FAFAFB
100
AcDbEntity
  8
COMMENT
  6
CONTINUOUS
100
AcDbVertex
100
AcDb2dVertex
 10
2850.0
 20
108500.0
 30
0.0
  0
VERTEX
  5
DF3414A0F7FAFAFC
100
AcDbEntity
  8
COMMENT
  6
CONTINUOUS
100
AcDbVertex
100
AcDb2dVertex
 10
4700.0
 20
108500.0
 30
0.0
  0
VERTEX
  5
DF3414A0F7FAFAFD
100
AcDbEntity
  8
COMMENT
  6
CONTINUOUS
100
AcDbVertex
100
AcDb2dVertex
 10
4700.0
 20
98200.0
 30
0.0
  0
VERTEX
  5
DF3414A0F7FAFAFE
100
AcDbEntity
  8
COMMENT
  6
CONTINUOUS
100
AcDbVertex
100
AcDb2dVertex
 10
2850.0
 20
98200.0
 30
0.0
  0
SEQEND
  5
DF3414A0F7FAFAFF
100
AcDbEntity
  8
COMMENT
  6
CONTINUOUS
  0
POLYLINE
  5
DF3414A0F7FAF8B7
100
AcDbEntity
  8
COMMENT
  6
CONTINUOUS
100
AcDb2dPolyline
 66
     1
 10
0.0
 20
0.0
 30
0.0
 70
     1
  0
VERTEX
  5
DF3414A0F7FAFB00
100
AcDbEntity
  8
COMMENT
  6
CONTINUOUS
100
AcDbVertex
100
AcDb2dVertex
 10
10850.0
 20
108500.0
 30
0.0
  0
VERTEX
  5
DF3414A0F7FAFB01
100
AcDbEntity
  8
COMMENT
  6
CONTINUOUS
100
AcDbVertex
100
AcDb2dVertex
 10
12700.0
 20
108500.0
 30
0.0
  0
VERTEX
  5
DF3414A0F7FAFB02
100
AcDbEntity
  8
COMMENT
  6
CONTINUOUS
100
AcDbVertex
100
AcDb2dVertex
 10
12700.0
 20
98200.0
 30
0.0
  0
VERTEX
  5
DF3414A0F7FAFB03
100
AcDbEntity
  8
COMMENT
  6
CONTINUOUS
100
AcDbVertex
100
AcDb2dVertex
 10
10850.0
 20
98200.0
 30
0.0
  0
SEQEND
  5
DF3414A0F7FAFB04
100
AcDbEntity
  8
COMMENT
  6
CONTINUOUS
  0
POLYLINE
  5
DF3414A0F7FAF8B8
100
AcDbEntity
  8
COMMENT
  6
CONTINUOUS
100
AcDb2dPolyline
 66
     1
 10
0.0
 20
0.0
 30
0.0
 70
     1
  0
VERTEX
  5
DF3414A0F7FAFB05
100
AcDbEntity
  8
COMMENT
  6
CONTINUOUS
100
AcDbVertex
100
AcDb2dVertex
 10
18850.0
 20
108500.0
 30
0.0
  0
VERTEX
  5
DF3414A0F7FAFB06
100
AcDbEntity
  8
COMMENT
  6
CONTINUOUS
100
AcDbVertex
100
AcDb2dVertex
 10
20700.0
 20
108500.0
 30
0.0
  0
VERTEX
  5
DF3414A0F7FAFB07
100
AcDbEntity
  8
COMMENT
  6
CONTINUOUS
100
AcDbVertex
100
AcDb2dVertex
 10
20700.0
 20
98200.0
 30
0.0
  0
VERTEX
  5
DF3414A0F7FAFB08
100
AcDbEntity
  8
COMMENT
  6
CONTINUOUS
100
AcDbVertex
100
AcDb2dVertex
 10
18850.0
 20
98200.0
 30
0.0
  0
SEQEND
  5
DF3414A0F7FAFB09
100
AcDbEntity
  8
COMMENT
  6
CONTINUOUS
  0
POLYLINE
  5
DF3414A0F7FAF8B9
100
AcDbEntity
  8
COMMENT
  6
CONTINUOUS
100
AcDb2dPolyline
 66
     1
 10
0.0
 20
0.0
 30
0.0
 70
     1
  0
VERTEX
  5
DF3414A0F7FAFB0A
100
AcDbEntity
  8
COMMENT
  6
CONTINUOUS
100
AcDbVertex
100
AcDb2dVertex
 10
26850.0
 20
108500.0
 30
0.0
  0
VERTEX
  5
DF3414A0F7FAFB0B
100
AcDbEntity
  8
COMMENT
  6
CONTINUOUS
100
AcDbVertex
100
AcDb2dVertex
 10
28700.0
 20
108500.0
 30
0.0
  0
VERTEX
  5
DF3414A0F7FAFB0C
100
AcDbEntity
  8
COMMENT
  6
CONTINUOUS
100
AcDbVertex
100
AcDb2dVertex
 10
28700.0
 20
98200.0
 30
0.0
  0
VERTEX
  5
DF3414A0F7FAFB0D
100
AcDbEntity
  8
COMMENT
  6
CONTINUOUS
100
AcDbVertex
100
AcDb2dVertex
 10
26850.0
 20
98200.0
 30
0.0
  0
SEQEND
  5
DF3414A0F7FAFB0E
100
AcDbEntity
  8
COMMENT
  6
CONTINUOUS
  0
POLYLINE
  5
DF3414A0F7FAF8BA
100
AcDbEntity
  8
COMMENT
  6
CONTINUOUS
100
AcDb2dPolyline
 66
     1
 10
0.0
 20
0.0
 30
0.0
 70
     1
  0
VERTEX
  5
DF3414A0F7FAFB0F
100
AcDbEntity
  8
COMMENT
  6
CONTINUOUS
100
AcDbVertex
100
AcDb2dVertex
 10
34850.0
 20
108500.0
 30
0.0
  0
VERTEX
  5
DF3414A0F7FAFB10
100
AcDbEntity
  8
COMMENT
  6
CONTINUOUS
100
AcDbVertex
100
AcDb2dVertex
 10
36700.0
 20
108500.0
 30
0.0
  0
VERTEX
  5
DF3414A0F7FAFB11
100
AcDbEntity
  8
COMMENT
  6
CONTINUOUS
100
AcDbVertex
100
AcDb2dVertex
 10
36700.0
 20
98200.0
 30
0.0
  0
VERTEX
  5
DF3414A0F7FAFB12
100
AcDbEntity
  8
COMMENT
  6
CONTINUOUS
100
AcDbVertex
100
AcDb2dVertex
 10
34850.0
 20
98200.0
 30
0.0
  0
SEQEND
  5
DF3414A0F7FAFB13
100
AcDbEntity
  8
COMMENT
  6
CONTINUOUS
  0
POLYLINE
  5
DF3414A0F7FAF8BB
100
AcDbEntity
  8
COMMENT
  6
CONTINUOUS
100
AcDb2dPolyline
 66
     1
 10
0.0
 20
0.0
 30
0.0
 70
     1
  0
VERTEX
  5
DF3414A0F7FAFB14
100
AcDbEntity
  8
COMMENT
  6
CONTINUOUS
100
AcDbVertex
100
AcDb2dVertex
 10
42850.0
 20
108500.0
 30
0.0
  0
VERTEX
  5
DF3414A0F7FAFB15
100
AcDbEntity
  8
COMMENT
  6
CONTINUOUS
100
AcDbVertex
100
AcDb2dVertex
 10
44700.0
 20
108500.0
 30
0.0
  0
VERTEX
  5
DF3414A0F7FAFB16
100
AcDbEntity
  8
COMMENT
  6
CONTINUOUS
100
AcDbVertex
100
AcDb2dVertex
 10
44700.0
 20
98200.0
 30
0.0
  0
VERTEX
  5
DF3414A0F7FAFB17
100
AcDbEntity
  8
COMMENT
  6
CONTINUOUS
100
AcDbVertex
100
AcDb2dVertex
 10
42850.0
 20
98200.0
 30
0.0
  0
SEQEND
  5
DF3414A0F7FAFB18
100
AcDbEntity
  8
COMMENT
  6
CONTINUOUS
  0
POLYLINE
  5
DF3414A0F7FAF8BC
100
AcDbEntity
  8
COMMENT
  6
CONTINUOUS
100
AcDb2dPolyline
 66
     1
 10
0.0
 20
0.0
 30
0.0
 70
     1
  0
VERTEX
  5
DF3414A0F7FAFB19
100
AcDbEntity
  8
COMMENT
  6
CONTINUOUS
100
AcDbVertex
100
AcDb2dVertex
 10
50850.0
 20
108500.0
 30
0.0
  0
VERTEX
  5
DF3414A0F7FAFB1A
100
AcDbEntity
  8
COMMENT
  6
CONTINUOUS
100
AcDbVertex
100
AcDb2dVertex
 10
52700.0
 20
108500.0
 30
0.0
  0
VERTEX
  5
DF3414A0F7FAFB1B
100
AcDbEntity
  8
COMMENT
  6
CONTINUOUS
100
AcDbVertex
100
AcDb2dVertex
 10
52700.0
 20
98200.0
 30
0.0
  0
VERTEX
  5
DF3414A0F7FAFB1C
100
AcDbEntity
  8
COMMENT
  6
CONTINUOUS
100
AcDbVertex
100
AcDb2dVertex
 10
50850.0
 20
98200.0
 30
0.0
  0
SEQEND
  5
DF3414A0F7FAFB1D
100
AcDbEntity
  8
COMMENT
  6
CONTINUOUS
  0
POLYLINE
  5
DF3414A0F7FAF8BD
100
AcDbEntity
  8
COMMENT
  6
CONTINUOUS
100
AcDb2dPolyline
 66
     1
 10
0.0
 20
0.0
 30
0.0
 70
     1
  0
VERTEX
  5
DF3414A0F7FAFB1E
100
AcDbEntity
  8
COMMENT
  6
CONTINUOUS
100
AcDbVertex
100
AcDb2dVertex
 10
58850.0
 20
108500.0
 30
0.0
  0
VERTEX
  5
DF3414A0F7FAFB1F
100
AcDbEntity
  8
COMMENT
  6
CONTINUOUS
100
AcDbVertex
100
AcDb2dVertex
 10
60700.0
 20
108500.0
 30
0.0
  0
VERTEX
  5
DF3414A0F7FAFB20
100
AcDbEntity
  8
COMMENT
  6
CONTINUOUS
100
AcDbVertex
100
AcDb2dVertex
 10
60700.0
 20
98200.0
 30
0.0
  0
VERTEX
  5
DF3414A0F7FAFB21
100
AcDbEntity
  8
COMMENT
  6
CONTINUOUS
100
AcDbVertex
100
AcDb2dVertex
 10
58850.0
 20
98200.0
 30
0.0
  0
SEQEND
  5
DF3414A0F7FAFB22
100
AcDbEntity
  8
COMMENT
  6
CONTINUOUS
  0
POLYLINE
  5
DF3414A0F7FAF8BE
100
AcDbEntity
  8
COMMENT
  6
CONTINUOUS
100
AcDb2dPolyline
 66
     1
 10
0.0
 20
0.0
 30
0.0
 70
     1
  0
VERTEX
  5
DF3414A0F7FAFB23
100
AcDbEntity
  8
COMMENT
  6
CONTINUOUS
100
AcDbVertex
100
AcDb2dVertex
 10
66850.0
 20
108500.0
 30
0.0
  0
VERTEX
  5
DF3414A0F7FAFB24
100
AcDbEntity
  8
COMMENT
  6
CONTINUOUS
100
AcDbVertex
100
AcDb2dVertex
 10
68700.0
 20
108500.0
 30
0.0
  0
VERTEX
  5
DF3414A0F7FAFB25
100
AcDbEntity
  8
COMMENT
  6
CONTINUOUS
100
AcDbVertex
100
AcDb2dVertex
 10
68700.0
 20
98200.0
 30
0.0
  0
VERTEX
  5
DF3414A0F7FAFB26
100
AcDbEntity
  8
COMMENT
  6
CONTINUOUS
100
AcDbVertex
100
AcDb2dVertex
 10
66850.0
 20
98200.0
 30
0.0
  0
SEQEND
  5
DF3414A0F7FAFB27
100
AcDbEntity
  8
COMMENT
  6
CONTINUOUS
  0
POLYLINE
  5
DF3414A0F7FAF8BF
100
AcDbEntity
  8
COMMENT
  6
CONTINUOUS
100
AcDb2dPolyline
 66
     1
 10
0.0
 20
0.0
 30
0.0
 70
     1
  0
VERTEX
  5
DF3414A0F7FAFB28
100
AcDbEntity
  8
COMMENT
  6
CONTINUOUS
100
AcDbVertex
100
AcDb2dVertex
 10
74850.0
 20
108500.0
 30
0.0
  0
VERTEX
  5
DF3414A0F7FAFB29
100
AcDbEntity
  8
COMMENT
  6
CONTINUOUS
100
AcDbVertex
100
AcDb2dVertex
 10
76700.0
 20
108500.0
 30
0.0
  0
VERTEX
  5
DF3414A0F7FAFB2A
100
AcDbEntity
  8
COMMENT
  6
CONTINUOUS
100
AcDbVertex
100
AcDb2dVertex
 10
76700.0
 20
98200.0
 30
0.0
  0
VERTEX
  5
DF3414A0F7FAFB2B
100
AcDbEntity
  8
COMMENT
  6
CONTINUOUS
100
AcDbVertex
100
AcDb2dVertex
 10
74850.0
 20
98200.0
 30
0.0
  0
SEQEND
  5
DF3414A0F7FAFB2C
100
AcDbEntity
  8
COMMENT
  6
CONTINUOUS
  0
POLYLINE
  5
DF3414A0F7FAF8C0
100
AcDbEntity
  8
COMMENT
  6
CONTINUOUS
100
AcDb2dPolyline
 66
     1
 10
0.0
 20
0.0
 30
0.0
 70
     1
  0
VERTEX
  5
DF3414A0F7FAFB2D
100
AcDbEntity
  8
COMMENT
  6
CONTINUOUS
100
AcDbVertex
100
AcDb2dVertex
 10
82850.0
 20
108500.0
 30
0.0
  0
VERTEX
  5
DF3414A0F7FAFB2E
100
AcDbEntity
  8
COMMENT
  6
CONTINUOUS
100
AcDbVertex
100
AcDb2dVertex
 10
84700.0
 20
108500.0
 30
0.0
  0
VERTEX
  5
DF3414A0F7FAFB2F
100
AcDbEntity
  8
COMMENT
  6
CONTINUOUS
100
AcDbVertex
100
AcDb2dVertex
 10
84700.0
 20
98200.0
 30
0.0
  0
VERTEX
  5
DF3414A0F7FAFB30
100
AcDbEntity
  8
COMMENT
  6
CONTINUOUS
100
AcDbVertex
100
AcDb2dVertex
 10
82850.0
 20
98200.0
 30
0.0
  0
SEQEND
  5
DF3414A0F7FAFB31
100
AcDbEntity
  8
COMMENT
  6
CONTINUOUS
  0
POLYLINE
  5
DF3414A0F7FAF8C1
100
AcDbEntity
  8
COMMENT
  6
CONTINUOUS
100
AcDb2dPolyline
 66
     1
 10
0.0
 20
0.0
 30
0.0
 70
     1
  0
VERTEX
  5
DF3414A0F7FAFB32
100
AcDbEntity
  8
COMMENT
  6
CONTINUOUS
100
AcDbVertex
100
AcDb2dVertex
 10
90850.0
 20
108500.0
 30
0.0
  0
VERTEX
  5
DF3414A0F7FAFB33
100
AcDbEntity
  8
COMMENT
  6
CONTINUOUS
100
AcDbVertex
100
AcDb2dVertex
 10
92700.0
 20
108500.0
 30
0.0
  0
VERTEX
  5
DF3414A0F7FAFB34
100
AcDbEntity
  8
COMMENT
  6
CONTINUOUS
100
AcDbVertex
100
AcDb2dVertex
 10
92700.0
 20
98200.0
 30
0.0
  0
VERTEX
  5
DF3414A0F7FAFB35
100
AcDbEntity
  8
COMMENT
  6
CONTINUOUS
100
AcDbVertex
100
AcDb2dVertex
 10
90850.0
 20
98200.0
 30
0.0
  0
SEQEND
  5
DF3414A0F7FAFB36
100
AcDbEntity
  8
COMMENT
  6
CONTINUOUS
  0
POLYLINE
  5
DF3414A0F7FAF8C2
100
AcDbEntity
  8
COMMENT
  6
CONTINUOUS
100
AcDb2dPolyline
 66
     1
 10
0.0
 20
0.0
 30
0.0
 70
     1
  0
VERTEX
  5
DF3414A0F7FAFB37
100
AcDbEntity
  8
COMMENT
  6
CONTINUOUS
100
AcDbVertex
100
AcDb2dVertex
 10
98850.0
 20
108500.0
 30
0.0
  0
VERTEX
  5
DF3414A0F7FAFB38
100
AcDbEntity
  8
COMMENT
  6
CONTINUOUS
100
AcDbVertex
100
AcDb2dVertex
 10
100700.0
 20
108500.0
 30
0.0
  0
VERTEX
  5
DF3414A0F7FAFB39
100
AcDbEntity
  8
COMMENT
  6
CONTINUOUS
100
AcDbVertex
100
AcDb2dVertex
 10
100700.0
 20
98200.0
 30
0.0
  0
VERTEX
  5
DF3414A0F7FAFB3A
100
AcDbEntity
  8
COMMENT
  6
CONTINUOUS
100
AcDbVertex
100
AcDb2dVertex
 10
98850.0
 20
98200.0
 30
0.0
  0
SEQEND
  5
DF3414A0F7FAFB3B
100
AcDbEntity
  8
COMMENT
  6
CONTINUOUS
  0
POLYLINE
  5
DF3414A0F7FAF8C3
100
AcDbEntity
  8
COMMENT
  6
CONTINUOUS
100
AcDb2dPolyline
 66
     1
 10
0.0
 20
0.0
 30
0.0
 70
     1
  0
VERTEX
  5
DF3414A0F7FAFB3C
100
AcDbEntity
  8
COMMENT
  6
CONTINUOUS
100
AcDbVertex
100
AcDb2dVertex
 10
2850.0
 20
124500.0
 30
0.0
  0
VERTEX
  5
DF3414A0F7FAFB3D
100
AcDbEntity
  8
COMMENT
  6
CONTINUOUS
100
AcDbVertex
100
AcDb2dVertex
 10
4700.0
 20
124500.0
 30
0.0
  0
VERTEX
  5
DF3414A0F7FAFB3E
100
AcDbEntity
  8
COMMENT
  6
CONTINUOUS
100
AcDbVertex
100
AcDb2dVertex
 10
4700.0
 20
114200.0
 30
0.0
  0
VERTEX
  5
DF3414A0F7FAFB3F
100
AcDbEntity
  8
COMMENT
  6
CONTINUOUS
100
AcDbVertex
100
AcDb2dVertex
 10
2850.0
 20
114200.0
 30
0.0
  0
SEQEND
  5
DF3414A0F7FAFB40
100
AcDbEntity
  8
COMMENT
  6
CONTINUOUS
  0
POLYLINE
  5
DF3414A0F7FAF8C4
100
AcDbEntity
  8
COMMENT
  6
CONTINUOUS
100
AcDb2dPolyline
 66
     1
 10
0.0
 20
0.0
 30
0.0
 70
     1
  0
VERTEX
  5
DF3414A0F7FAFB41
100
AcDbEntity
  8
COMMENT
  6
CONTINUOUS
100
AcDbVertex
100
AcDb2dVertex
 10
10850.0
 20
124500.0
 30
0.0
  0
VERTEX
  5
DF3414A0F7FAFB42
100
AcDbEntity
  8
COMMENT
  6
CONTINUOUS
100
AcDbVertex
100
AcDb2dVertex
 10
12700.0
 20
124500.0
 30
0.0
  0
VERTEX
  5
DF3414A0F7FAFB43
100
AcDbEntity
  8
COMMENT
  6
CONTINUOUS
100
AcDbVertex
100
AcDb2dVertex
 10
12700.0
 20
114200.0
 30
0.0
  0
VERTEX
  5
DF3414A0F7FAFB44
100
AcDbEntity
  8
COMMENT
  6
CONTINUOUS
100
AcDbVertex
100
AcDb2dVertex
 10
10850.0
 20
114200.0
 30
0.0
  0
SEQEND
  5
DF3414A0F7FAFB45
100
AcDbEntity
  8
COMMENT
  6
CONTINUOUS
  0
POLYLINE
  5
DF3414A0F7FAF8C5
100
AcDbEntity
  8
COMMENT
  6
CONTINUOUS
100
AcDb2dPolyline
 66
     1
 10
0.0
 20
0.0
 30
0.0
 70
     1
  0
VERTEX
  5
DF3414A0F7FAFB46
100
AcDbEntity
  8
COMMENT
  6
CONTINUOUS
100
AcDbVertex
100
AcDb2dVertex
 10
18850.0
 20
124500.0
 30
0.0
  0
VERTEX
  5
DF3414A0F7FAFB47
100
AcDbEntity
  8
COMMENT
  6
CONTINUOUS
100
AcDbVertex
100
AcDb2dVertex
 10
20700.0
 20
124500.0
 30
0.0
  0
VERTEX
  5
DF3414A0F7FAFB48
100
AcDbEntity
  8
COMMENT
  6
CONTINUOUS
100
AcDbVertex
100
AcDb2dVertex
 10
20700.0
 20
114200.0
 30
0.0
  0
VERTEX
  5
DF3414A0F7FAFB49
100
AcDbEntity
  8
COMMENT
  6
CONTINUOUS
100
AcDbVertex
100
AcDb2dVertex
 10
18850.0
 20
114200.0
 30
0.0
  0
SEQEND
  5
DF3414A0F7FAFB4A
100
AcDbEntity
  8
COMMENT
  6
CONTINUOUS
  0
POLYLINE
  5
DF3414A0F7FAF8C6
100
AcDbEntity
  8
COMMENT
  6
CONTINUOUS
100
AcDb2dPolyline
 66
     1
 10
0.0
 20
0.0
 30
0.0
 70
     1
  0
VERTEX
  5
DF3414A0F7FAFB4B
100
AcDbEntity
  8
COMMENT
  6
CONTINUOUS
100
AcDbVertex
100
AcDb2dVertex
 10
26850.0
 20
124500.0
 30
0.0
  0
VERTEX
  5
DF3414A0F7FAFB4C
100
AcDbEntity
  8
COMMENT
  6
CONTINUOUS
100
AcDbVertex
100
AcDb2dVertex
 10
28700.0
 20
124500.0
 30
0.0
  0
VERTEX
  5
DF3414A0F7FAFB4D
100
AcDbEntity
  8
COMMENT
  6
CONTINUOUS
100
AcDbVertex
100
AcDb2dVertex
 10
28700.0
 20
114200.0
 30
0.0
  0
VERTEX
  5
DF3414A0F7FAFB4E
100
AcDbEntity
  8
COMMENT
  6
CONTINUOUS
100
AcDbVertex
100
AcDb2dVertex
 10
26850.0
 20
114200.0
 30
0.0
  0
SEQEND
  5
DF3414A0F7FAFB4F
100
AcDbEntity
  8
COMMENT
  6
CONTINUOUS
  0
POLYLINE
  5
DF3414A0F7FAF8C7
100
AcDbEntity
  8
COMMENT
  6
CONTINUOUS
100
AcDb2dPolyline
 66
     1
 10
0.0
 20
0.0
 30
0.0
 70
     1
  0
VERTEX
  5
DF3414A0F7FAFB50
100
AcDbEntity
  8
COMMENT
  6
CONTINUOUS
100
AcDbVertex
100
AcDb2dVertex
 10
34850.0
 20
124500.0
 30
0.0
  0
VERTEX
  5
DF3414A0F7FAFB51
100
AcDbEntity
  8
COMMENT
  6
CONTINUOUS
100
AcDbVertex
100
AcDb2dVertex
 10
36700.0
 20
124500.0
 30
0.0
  0
VERTEX
  5
DF3414A0F7FAFB52
100
AcDbEntity
  8
COMMENT
  6
CONTINUOUS
100
AcDbVertex
100
AcDb2dVertex
 10
36700.0
 20
114200.0
 30
0.0
  0
VERTEX
  5
DF3414A0F7FAFB53
100
AcDbEntity
  8
COMMENT
  6
CONTINUOUS
100
AcDbVertex
100
AcDb2dVertex
 10
34850.0
 20
114200.0
 30
0.0
  0
SEQEND
  5
DF3414A0F7FAFB54
100
AcDbEntity
  8
COMMENT
  6
CONTINUOUS
  0
POLYLINE
  5
DF3414A0F7FAF8C8
100
AcDbEntity
  8
COMMENT
  6
CONTINUOUS
100
AcDb2dPolyline
 66
     1
 10
0.0
 20
0.0
 30
0.0
 70
     1
  0
VERTEX
  5
DF3414A0F7FAFB55
100
AcDbEntity
  8
COMMENT
  6
CONTINUOUS
100
AcDbVertex
100
AcDb2dVertex
 10
42850.0
 20
124500.0
 30
0.0
  0
VERTEX
  5
DF3414A0F7FAFB56
100
AcDbEntity
  8
COMMENT
  6
CONTINUOUS
100
AcDbVertex
100
AcDb2dVertex
 10
44700.0
 20
124500.0
 30
0.0
  0
VERTEX
  5
DF3414A0F7FAFB57
100
AcDbEntity
  8
COMMENT
  6
CONTINUOUS
100
AcDbVertex
100
AcDb2dVertex
 10
44700.0
 20
114200.0
 30
0.0
  0
VERTEX
  5
DF3414A0F7FAFB58
100
AcDbEntity
  8
COMMENT
  6
CONTINUOUS
100
AcDbVertex
100
AcDb2dVertex
 10
42850.0
 20
114200.0
 30
0.0
  0
SEQEND
  5
DF3414A0F7FAFB59
100
AcDbEntity
  8
COMMENT
  6
CONTINUOUS
  0
POLYLINE
  5
DF3414A0F7FAF8C9
100
AcDbEntity
  8
COMMENT
  6
CONTINUOUS
100
AcDb2dPolyline
 66
     1
 10
0.0
 20
0.0
 30
0.0
 70
     1
  0
VERTEX
  5
DF3414A0F7FAFB5A
100
AcDbEntity
  8
COMMENT
  6
CONTINUOUS
100
AcDbVertex
100
AcDb2dVertex
 10
50850.0
 20
124500.0
 30
0.0
  0
VERTEX
  5
DF3414A0F7FAFB5B
100
AcDbEntity
  8
COMMENT
  6
CONTINUOUS
100
AcDbVertex
100
AcDb2dVertex
 10
52700.0
 20
124500.0
 30
0.0
  0
VERTEX
  5
DF3414A0F7FAFB5C
100
AcDbEntity
  8
COMMENT
  6
CONTINUOUS
100
AcDbVertex
100
AcDb2dVertex
 10
52700.0
 20
114200.0
 30
0.0
  0
VERTEX
  5
DF3414A0F7FAFB5D
100
AcDbEntity
  8
COMMENT
  6
CONTINUOUS
100
AcDbVertex
100
AcDb2dVertex
 10
50850.0
 20
114200.0
 30
0.0
  0
SEQEND
  5
DF3414A0F7FAFB5E
100
AcDbEntity
  8
COMMENT
  6
CONTINUOUS
  0
POLYLINE
  5
DF3414A0F7FAF8CA
100
AcDbEntity
  8
COMMENT
  6
CONTINUOUS
100
AcDb2dPolyline
 66
     1
 10
0.0
 20
0.0
 30
0.0
 70
     1
  0
VERTEX
  5
DF3414A0F7FAFB5F
100
AcDbEntity
  8
COMMENT
  6
CONTINUOUS
100
AcDbVertex
100
AcDb2dVertex
 10
58850.0
 20
124500.0
 30
0.0
  0
VERTEX
  5
DF3414A0F7FAFB60
100
AcDbEntity
  8
COMMENT
  6
CONTINUOUS
100
AcDbVertex
100
AcDb2dVertex
 10
60700.0
 20
124500.0
 30
0.0
  0
VERTEX
  5
DF3414A0F7FAFB61
100
AcDbEntity
  8
COMMENT
  6
CONTINUOUS
100
AcDbVertex
100
AcDb2dVertex
 10
60700.0
 20
114200.0
 30
0.0
  0
VERTEX
  5
DF3414A0F7FAFB62
100
AcDbEntity
  8
COMMENT
  6
CONTINUOUS
100
AcDbVertex
100
AcDb2dVertex
 10
58850.0
 20
114200.0
 30
0.0
  0
SEQEND
  5
DF3414A0F7FAFB63
100
AcDbEntity
  8
COMMENT
  6
CONTINUOUS
  0
POLYLINE
  5
DF3414A0F7FAF8CB
100
AcDbEntity
  8
COMMENT
  6
CONTINUOUS
100
AcDb2dPolyline
 66
     1
 10
0.0
 20
0.0
 30
0.0
 70
     1
  0
VERTEX
  5
DF3414A0F7FAFB64
100
AcDbEntity
  8
COMMENT
  6
CONTINUOUS
100
AcDbVertex
100
AcDb2dVertex
 10
66850.0
 20
124500.0
 30
0.0
  0
VERTEX
  5
DF3414A0F7FAFB65
100
AcDbEntity
  8
COMMENT
  6
CONTINUOUS
100
AcDbVertex
100
AcDb2dVertex
 10
68700.0
 20
124500.0
 30
0.0
  0
VERTEX
  5
DF3414A0F7FAFB66
100
AcDbEntity
  8
COMMENT
  6
CONTINUOUS
100
AcDbVertex
100
AcDb2dVertex
 10
68700.0
 20
114200.0
 30
0.0
  0
VERTEX
  5
DF3414A0F7FAFB67
100
AcDbEntity
  8
COMMENT
  6
CONTINUOUS
100
AcDbVertex
100
AcDb2dVertex
 10
66850.0
 20
114200.0
 30
0.0
  0
SEQEND
  5
DF3414A0F7FAFB68
100
AcDbEntity
  8
COMMENT
  6
CONTINUOUS
  0
POLYLINE
  5
DF3414A0F7FAF8CC
100
AcDbEntity
  8
COMMENT
  6
CONTINUOUS
100
AcDb2dPolyline
 66
     1
 10
0.0
 20
0.0
 30
0.0
 70
     1
  0
VERTEX
  5
DF3414A0F7FAFB69
100
AcDbEntity
  8
COMMENT
  6
CONTINUOUS
100
AcDbVertex
100
AcDb2dVertex
 10
74850.0
 20
124500.0
 30
0.0
  0
VERTEX
  5
DF3414A0F7FAFB6A
100
AcDbEntity
  8
COMMENT
  6
CONTINUOUS
100
AcDbVertex
100
AcDb2dVertex
 10
76700.0
 20
124500.0
 30
0.0
  0
VERTEX
  5
DF3414A0F7FAFB6B
100
AcDbEntity
  8
COMMENT
  6
CONTINUOUS
100
AcDbVertex
100
AcDb2dVertex
 10
76700.0
 20
114200.0
 30
0.0
  0
VERTEX
  5
DF3414A0F7FAFB6C
100
AcDbEntity
  8
COMMENT
  6
CONTINUOUS
100
AcDbVertex
100
AcDb2dVertex
 10
74850.0
 20
114200.0
 30
0.0
  0
SEQEND
  5
DF3414A0F7FAFB6D
100
AcDbEntity
  8
COMMENT
  6
CONTINUOUS
  0
POLYLINE
  5
DF3414A0F7FAF8CD
100
AcDbEntity
  8
COMMENT
  6
CONTINUOUS
100
AcDb2dPolyline
 66
     1
 10
0.0
 20
0.0
 30
0.0
 70
     1
  0
VERTEX
  5
DF3414A0F7FAFB6E
100
AcDbEntity
  8
COMMENT
  6
CONTINUOUS
100
AcDbVertex
100
AcDb2dVertex
 10
82850.0
 20
124500.0
 30
0.0
  0
VERTEX
  5
DF3414A0F7FAFB6F
100
AcDbEntity
  8
COMMENT
  6
CONTINUOUS
100
AcDbVertex
100
AcDb2dVertex
 10
84700.0
 20
124500.0
 30
0.0
  0
VERTEX
  5
DF3414A0F7FAFB70
100
AcDbEntity
  8
COMMENT
  6
CONTINUOUS
100
AcDbVertex
100
AcDb2dVertex
 10
84700.0
 20
114200.0
 30
0.0
  0
VERTEX
  5
DF3414A0F7FAFB71
100
AcDbEntity
  8
COMMENT
  6
CONTINUOUS
100
AcDbVertex
100
AcDb2dVertex
 10
82850.0
 20
114200.0
 30
0.0
  0
SEQEND
  5
DF3414A0F7FAFB72
100
AcDbEntity
  8
COMMENT
  6
CONTINUOUS
  0
POLYLINE
  5
DF3414A0F7FAF8CE
100
AcDbEntity
  8
COMMENT
  6
CONTINUOUS
100
AcDb2dPolyline
 66
     1
 10
0.0
 20
0.0
 30
0.0
 70
     1
  0
VERTEX
  5
DF3414A0F7FAFB73
100
AcDbEntity
  8
COMMENT
  6
CONTINUOUS
100
AcDbVertex
100
AcDb2dVertex
 10
90850.0
 20
124500.0
 30
0.0
  0
VERTEX
  5
DF3414A0F7FAFB74
100
AcDbEntity
  8
COMMENT
  6
CONTINUOUS
100
AcDbVertex
100
AcDb2dVertex
 10
92700.0
 20
124500.0
 30
0.0
  0
VERTEX
  5
DF3414A0F7FAFB75
100
AcDbEntity
  8
COMMENT
  6
CONTINUOUS
100
AcDbVertex
100
AcDb2dVertex
 10
92700.0
 20
114200.0
 30
0.0
  0
VERTEX
  5
DF3414A0F7FAFB76
100
AcDbEntity
  8
COMMENT
  6
CONTINUOUS
100
AcDbVertex
100
AcDb2dVertex
 10
90850.0
 20
114200.0
 30
0.0
  0
SEQEND
  5
DF3414A0F7FAFB77
100
AcDbEntity
  8
COMMENT
  6
CONTINUOUS
  0
POLYLINE
  5
DF3414A0F7FAF8CF
100
AcDbEntity
  8
COMMENT
  6
CONTINUOUS
100
AcDb2dPolyline
 66
     1
 10
0.0
 20
0.0
 30
0.0
 70
     1
  0
VERTEX
  5
DF3414A0F7FAFB78
100
AcDbEntity
  8
COMMENT
  6
CONTINUOUS
100
AcDbVertex
100
AcDb2dVertex
 10
98850.0
 20
124500.0
 30
0.0
  0
VERTEX
  5
DF3414A0F7FAFB79
100
AcDbEntity
  8
COMMENT
  6
CONTINUOUS
100
AcDbVertex
100
AcDb2dVertex
 10
100700.0
 20
124500.0
 30
0.0
  0
VERTEX
  5
DF3414A0F7FAFB7A
100
AcDbEntity
  8
COMMENT
  6
CONTINUOUS
100
AcDbVertex
100
AcDb2dVertex
 10
100700.0
 20
114200.0
 30
0.0
  0
VERTEX
  5
DF3414A0F7FAFB7B
100
AcDbEntity
  8
COMMENT
  6
CONTINUOUS
100
AcDbVertex
100
AcDb2dVertex
 10
98850.0
 20
114200.0
 30
0.0
  0
SEQEND
  5
DF3414A0F7FAFB7C
100
AcDbEntity
  8
COMMENT
  6
CONTINUOUS
  0
POLYLINE
  5
DF3414A0F7FAF8D0
100
AcDbEntity
  8
COMMENT
  6
CONTINUOUS
100
AcDb2dPolyline
 66
     1
 10
0.0
 20
0.0
 30
0.0
 70
     1
  0
VERTEX
  5
DF3414A0F7FAFB7D
100
AcDbEntity
  8
COMMENT
  6
CONTINUOUS
100
AcDbVertex
100
AcDb2dVertex
 10
2850.0
 20
140500.0
 30
0.0
  0
VERTEX
  5
DF3414A0F7FAFB7E
100
AcDbEntity
  8
COMMENT
  6
CONTINUOUS
100
AcDbVertex
100
AcDb2dVertex
 10
4700.0
 20
140500.0
 30
0.0
  0
VERTEX
  5
DF3414A0F7FAFB7F
100
AcDbEntity
  8
COMMENT
  6
CONTINUOUS
100
AcDbVertex
100
AcDb2dVertex
 10
4700.0
 20
130200.0
 30
0.0
  0
VERTEX
  5
DF3414A0F7FAFB80
100
AcDbEntity
  8
COMMENT
  6
CONTINUOUS
100
AcDbVertex
100
AcDb2dVertex
 10
2850.0
 20
130200.0
 30
0.0
  0
SEQEND
  5
DF3414A0F7FAFB81
100
AcDbEntity
  8
COMMENT
  6
CONTINUOUS
  0
POLYLINE
  5
DF3414A0F7FAF8D1
100
AcDbEntity
  8
COMMENT
  6
CONTINUOUS
100
AcDb2dPolyline
 66
     1
 10
0.0
 20
0.0
 30
0.0
 70
     1
  0
VERTEX
  5
DF3414A0F7FAFB82
100
AcDbEntity
  8
COMMENT
  6
CONTINUOUS
100
AcDbVertex
100
AcDb2dVertex
 10
10850.0
 20
140500.0
 30
0.0
  0
VERTEX
  5
DF3414A0F7FAFB83
100
AcDbEntity
  8
COMMENT
  6
CONTINUOUS
100
AcDbVertex
100
AcDb2dVertex
 10
12700.0
 20
140500.0
 30
0.0
  0
VERTEX
  5
DF3414A0F7FAFB84
100
AcDbEntity
  8
COMMENT
  6
CONTINUOUS
100
AcDbVertex
100
AcDb2dVertex
 10
12700.0
 20
130200.0
 30
0.0
  0
VERTEX
  5
DF3414A0F7FAFB85
100
AcDbEntity
  8
COMMENT
  6
CONTINUOUS
100
AcDbVertex
100
AcDb2dVertex
 10
10850.0
 20
130200.0
 30
0.0
  0
SEQEND
  5
DF3414A0F7FAFB86
100
AcDbEntity
  8
COMMENT
  6
CONTINUOUS
  0
POLYLINE
  5
DF3414A0F7FAF8D2
100
AcDbEntity
  8
COMMENT
  6
CONTINUOUS
100
AcDb2dPolyline
 66
     1
 10
0.0
 20
0.0
 30
0.0
 70
     1
  0
VERTEX
  5
DF3414A0F7FAFB87
100
AcDbEntity
  8
COMMENT
  6
CONTINUOUS
100
AcDbVertex
100
AcDb2dVertex
 10
18850.0
 20
140500.0
 30
0.0
  0
VERTEX
  5
DF3414A0F7FAFB88
100
AcDbEntity
  8
COMMENT
  6
CONTINUOUS
100
AcDbVertex
100
AcDb2dVertex
 10
20700.0
 20
140500.0
 30
0.0
  0
VERTEX
  5
DF3414A0F7FAFB89
100
AcDbEntity
  8
COMMENT
  6
CONTINUOUS
100
AcDbVertex
100
AcDb2dVertex
 10
20700.0
 20
130200.0
 30
0.0
  0
VERTEX
  5
DF3414A0F7FAFB8A
100
AcDbEntity
  8
COMMENT
  6
CONTINUOUS
100
AcDbVertex
100
AcDb2dVertex
 10
18850.0
 20
130200.0
 30
0.0
  0
SEQEND
  5
DF3414A0F7FAFB8B
100
AcDbEntity
  8
COMMENT
  6
CONTINUOUS
  0
POLYLINE
  5
DF3414A0F7FAF8D3
100
AcDbEntity
  8
COMMENT
  6
CONTINUOUS
100
AcDb2dPolyline
 66
     1
 10
0.0
 20
0.0
 30
0.0
 70
     1
  0
VERTEX
  5
DF3414A0F7FAFB8C
100
AcDbEntity
  8
COMMENT
  6
CONTINUOUS
100
AcDbVertex
100
AcDb2dVertex
 10
26850.0
 20
140500.0
 30
0.0
  0
VERTEX
  5
DF3414A0F7FAFB8D
100
AcDbEntity
  8
COMMENT
  6
CONTINUOUS
100
AcDbVertex
100
AcDb2dVertex
 10
28700.0
 20
140500.0
 30
0.0
  0
VERTEX
  5
DF3414A0F7FAFB8E
100
AcDbEntity
  8
COMMENT
  6
CONTINUOUS
100
AcDbVertex
100
AcDb2dVertex
 10
28700.0
 20
130200.0
 30
0.0
  0
VERTEX
  5
DF3414A0F7FAFB8F
100
AcDbEntity
  8
COMMENT
  6
CONTINUOUS
100
AcDbVertex
100
AcDb2dVertex
 10
26850.0
 20
130200.0
 30
0.0
  0
SEQEND
  5
DF3414A0F7FAFB90
100
AcDbEntity
  8
COMMENT
  6
CONTINUOUS
  0
POLYLINE
  5
DF3414A0F7FAF8D4
100
AcDbEntity
  8
COMMENT
  6
CONTINUOUS
100
AcDb2dPolyline
 66
     1
 10
0.0
 20
0.0
 30
0.0
 70
     1
  0
VERTEX
  5
DF3414A0F7FAFB91
100
AcDbEntity
  8
COMMENT
  6
CONTINUOUS
100
AcDbVertex
100
AcDb2dVertex
 10
34850.0
 20
140500.0
 30
0.0
  0
VERTEX
  5
DF3414A0F7FAFB92
100
AcDbEntity
  8
COMMENT
  6
CONTINUOUS
100
AcDbVertex
100
AcDb2dVertex
 10
36700.0
 20
140500.0
 30
0.0
  0
VERTEX
  5
DF3414A0F7FAFB93
100
AcDbEntity
  8
COMMENT
  6
CONTINUOUS
100
AcDbVertex
100
AcDb2dVertex
 10
36700.0
 20
130200.0
 30
0.0
  0
VERTEX
  5
DF3414A0F7FAFB94
100
AcDbEntity
  8
COMMENT
  6
CONTINUOUS
100
AcDbVertex
100
AcDb2dVertex
 10
34850.0
 20
130200.0
 30
0.0
  0
SEQEND
  5
DF3414A0F7FAFB95
100
AcDbEntity
  8
COMMENT
  6
CONTINUOUS
  0
POLYLINE
  5
DF3414A0F7FAF8D5
100
AcDbEntity
  8
COMMENT
  6
CONTINUOUS
100
AcDb2dPolyline
 66
     1
 10
0.0
 20
0.0
 30
0.0
 70
     1
  0
VERTEX
  5
DF3414A0F7FAFB96
100
AcDbEntity
  8
COMMENT
  6
CONTINUOUS
100
AcDbVertex
100
AcDb2dVertex
 10
42850.0
 20
140500.0
 30
0.0
  0
VERTEX
  5
DF3414A0F7FAFB97
100
AcDbEntity
  8
COMMENT
  6
CONTINUOUS
100
AcDbVertex
100
AcDb2dVertex
 10
44700.0
 20
140500.0
 30
0.0
  0
VERTEX
  5
DF3414A0F7FAFB98
100
AcDbEntity
  8
COMMENT
  6
CONTINUOUS
100
AcDbVertex
100
AcDb2dVertex
 10
44700.0
 20
130200.0
 30
0.0
  0
VERTEX
  5
DF3414A0F7FAFB99
100
AcDbEntity
  8
COMMENT
  6
CONTINUOUS
100
AcDbVertex
100
AcDb2dVertex
 10
42850.0
 20
130200.0
 30
0.0
  0
SEQEND
  5
DF3414A0F7FAFB9A
100
AcDbEntity
  8
COMMENT
  6
CONTINUOUS
  0
POLYLINE
  5
DF3414A0F7FAF8D6
100
AcDbEntity
  8
COMMENT
  6
CONTINUOUS
100
AcDb2dPolyline
 66
     1
 10
0.0
 20
0.0
 30
0.0
 70
     1
  0
VERTEX
  5
DF3414A0F7FAFB9B
100
AcDbEntity
  8
COMMENT
  6
CONTINUOUS
100
AcDbVertex
100
AcDb2dVertex
 10
50850.0
 20
140500.0
 30
0.0
  0
VERTEX
  5
DF3414A0F7FAFB9C
100
AcDbEntity
  8
COMMENT
  6
CONTINUOUS
100
AcDbVertex
100
AcDb2dVertex
 10
52700.0
 20
140500.0
 30
0.0
  0
VERTEX
  5
DF3414A0F7FAFB9D
100
AcDbEntity
  8
COMMENT
  6
CONTINUOUS
100
AcDbVertex
100
AcDb2dVertex
 10
52700.0
 20
130200.0
 30
0.0
  0
VERTEX
  5
DF3414A0F7FAFB9E
100
AcDbEntity
  8
COMMENT
  6
CONTINUOUS
100
AcDbVertex
100
AcDb2dVertex
 10
50850.0
 20
130200.0
 30
0.0
  0
SEQEND
  5
DF3414A0F7FAFB9F
100
AcDbEntity
  8
COMMENT
  6
CONTINUOUS
  0
POLYLINE
  5
DF3414A0F7FAF8D7
100
AcDbEntity
  8
COMMENT
  6
CONTINUOUS
100
AcDb2dPolyline
 66
     1
 10
0.0
 20
0.0
 30
0.0
 70
     1
  0
VERTEX
  5
DF3414A0F7FAFBA0
100
AcDbEntity
  8
COMMENT
  6
CONTINUOUS
100
AcDbVertex
100
AcDb2dVertex
 10
58850.0
 20
140500.0
 30
0.0
  0
VERTEX
  5
DF3414A0F7FAFBA1
100
AcDbEntity
  8
COMMENT
  6
CONTINUOUS
100
AcDbVertex
100
AcDb2dVertex
 10
60700.0
 20
140500.0
 30
0.0
  0
VERTEX
  5
DF3414A0F7FAFBA2
100
AcDbEntity
  8
COMMENT
  6
CONTINUOUS
100
AcDbVertex
100
AcDb2dVertex
 10
60700.0
 20
130200.0
 30
0.0
  0
VERTEX
  5
DF3414A0F7FAFBA3
100
AcDbEntity
  8
COMMENT
  6
CONTINUOUS
100
AcDbVertex
100
AcDb2dVertex
 10
58850.0
 20
130200.0
 30
0.0
  0
SEQEND
  5
DF3414A0F7FAFBA4
100
AcDbEntity
  8
COMMENT
  6
CONTINUOUS
  0
POLYLINE
  5
DF3414A0F7FAF8D8
100
AcDbEntity
  8
COMMENT
  6
CONTINUOUS
100
AcDb2dPolyline
 66
     1
 10
0.0
 20
0.0
 30
0.0
 70
     1
  0
VERTEX
  5
DF3414A0F7FAFBA5
100
AcDbEntity
  8
COMMENT
  6
CONTINUOUS
100
AcDbVertex
100
AcDb2dVertex
 10
66850.0
 20
140500.0
 30
0.0
  0
VERTEX
  5
DF3414A0F7FAFBA6
100
AcDbEntity
  8
COMMENT
  6
CONTINUOUS
100
AcDbVertex
100
AcDb2dVertex
 10
68700.0
 20
140500.0
 30
0.0
  0
VERTEX
  5
DF3414A0F7FAFBA7
100
AcDbEntity
  8
COMMENT
  6
CONTINUOUS
100
AcDbVertex
100
AcDb2dVertex
 10
68700.0
 20
130200.0
 30
0.0
  0
VERTEX
  5
DF3414A0F7FAFBA8
100
AcDbEntity
  8
COMMENT
  6
CONTINUOUS
100
AcDbVertex
100
AcDb2dVertex
 10
66850.0
 20
130200.0
 30
0.0
  0
SEQEND
  5
DF3414A0F7FAFBA9
100
AcDbEntity
  8
COMMENT
  6
CONTINUOUS
  0
POLYLINE
  5
DF3414A0F7FAF8D9
100
AcDbEntity
  8
COMMENT
  6
CONTINUOUS
100
AcDb2dPolyline
 66
     1
 10
0.0
 20
0.0
 30
0.0
 70
     1
  0
VERTEX
  5
DF3414A0F7FAFBAA
100
AcDbEntity
  8
COMMENT
  6
CONTINUOUS
100
AcDbVertex
100
AcDb2dVertex
 10
74850.0
 20
140500.0
 30
0.0
  0
VERTEX
  5
DF3414A0F7FAFBAB
100
AcDbEntity
  8
COMMENT
  6
CONTINUOUS
100
AcDbVertex
100
AcDb2dVertex
 10
76700.0
 20
140500.0
 30
0.0
  0
VERTEX
  5
DF3414A0F7FAFBAC
100
AcDbEntity
  8
COMMENT
  6
CONTINUOUS
100
AcDbVertex
100
AcDb2dVertex
 10
76700.0
 20
130200.0
 30
0.0
  0
VERTEX
  5
DF3414A0F7FAFBAD
100
AcDbEntity
  8
COMMENT
  6
CONTINUOUS
100
AcDbVertex
100
AcDb2dVertex
 10
74850.0
 20
130200.0
 30
0.0
  0
SEQEND
  5
DF3414A0F7FAFBAE
100
AcDbEntity
  8
COMMENT
  6
CONTINUOUS
  0
POLYLINE
  5
DF3414A0F7FAF8DA
100
AcDbEntity
  8
COMMENT
  6
CONTINUOUS
100
AcDb2dPolyline
 66
     1
 10
0.0
 20
0.0
 30
0.0
 70
     1
  0
VERTEX
  5
DF3414A0F7FAFBAF
100
AcDbEntity
  8
COMMENT
  6
CONTINUOUS
100
AcDbVertex
100
AcDb2dVertex
 10
82850.0
 20
140500.0
 30
0.0
  0
VERTEX
  5
DF3414A0F7FAFBB0
100
AcDbEntity
  8
COMMENT
  6
CONTINUOUS
100
AcDbVertex
100
AcDb2dVertex
 10
84700.0
 20
140500.0
 30
0.0
  0
VERTEX
  5
DF3414A0F7FAFBB1
100
AcDbEntity
  8
COMMENT
  6
CONTINUOUS
100
AcDbVertex
100
AcDb2dVertex
 10
84700.0
 20
130200.0
 30
0.0
  0
VERTEX
  5
DF3414A0F7FAFBB2
100
AcDbEntity
  8
COMMENT
  6
CONTINUOUS
100
AcDbVertex
100
AcDb2dVertex
 10
82850.0
 20
130200.0
 30
0.0
  0
SEQEND
  5
DF3414A0F7FAFBB3
100
AcDbEntity
  8
COMMENT
  6
CONTINUOUS
  0
POLYLINE
  5
DF3414A0F7FAF8DB
100
AcDbEntity
  8
COMMENT
  6
CONTINUOUS
100
AcDb2dPolyline
 66
     1
 10
0.0
 20
0.0
 30
0.0
 70
     1
  0
VERTEX
  5
DF3414A0F7FAFBB4
100
AcDbEntity
  8
COMMENT
  6
CONTINUOUS
100
AcDbVertex
100
AcDb2dVertex
 10
90850.0
 20
140500.0
 30
0.0
  0
VERTEX
  5
DF3414A0F7FAFBB5
100
AcDbEntity
  8
COMMENT
  6
CONTINUOUS
100
AcDbVertex
100
AcDb2dVertex
 10
92700.0
 20
140500.0
 30
0.0
  0
VERTEX
  5
DF3414A0F7FAFBB6
100
AcDbEntity
  8
COMMENT
  6
CONTINUOUS
100
AcDbVertex
100
AcDb2dVertex
 10
92700.0
 20
130200.0
 30
0.0
  0
VERTEX
  5
DF3414A0F7FAFBB7
100
AcDbEntity
  8
COMMENT
  6
CONTINUOUS
100
AcDbVertex
100
AcDb2dVertex
 10
90850.0
 20
130200.0
 30
0.0
  0
SEQEND
  5
DF3414A0F7FAFBB8
100
AcDbEntity
  8
COMMENT
  6
CONTINUOUS
  0
POLYLINE
  5
DF3414A0F7FAF8DC
100
AcDbEntity
  8
COMMENT
  6
CONTINUOUS
100
AcDb2dPolyline
 66
     1
 10
0.0
 20
0.0
 30
0.0
 70
     1
  0
VERTEX
  5
DF3414A0F7FAFBB9
100
AcDbEntity
  8
COMMENT
  6
CONTINUOUS
100
AcDbVertex
100
AcDb2dVertex
 10
98850.0
 20
140500.0
 30
0.0
  0
VERTEX
  5
DF3414A0F7FAFBBA
100
AcDbEntity
  8
COMMENT
  6
CONTINUOUS
100
AcDbVertex
100
AcDb2dVertex
 10
100700.0
 20
140500.0
 30
0.0
  0
VERTEX
  5
DF3414A0F7FAFBBB
100
AcDbEntity
  8
COMMENT
  6
CONTINUOUS
100
AcDbVertex
100
AcDb2dVertex
 10
100700.0
 20
130200.0
 30
0.0
  0
VERTEX
  5
DF3414A0F7FAFBBC
100
AcDbEntity
  8
COMMENT
  6
CONTINUOUS
100
AcDbVertex
100
AcDb2dVertex
 10
98850.0
 20
130200.0
 30
0.0
  0
SEQEND
  5
DF3414A0F7FAFBBD
100
AcDbEntity
  8
COMMENT
  6
CONTINUOUS
  0
POLYLINE
  5
DF3414A0F7FAF8DD
100
AcDbEntity
  8
COMMENT
  6
CONTINUOUS
100
AcDb2dPolyline
 66
     1
 10
0.0
 20
0.0
 30
0.0
 70
     1
  0
VERTEX
  5
DF3414A0F7FAFBBE
100
AcDbEntity
  8
COMMENT
  6
CONTINUOUS
100
AcDbVertex
100
AcDb2dVertex
 10
2850.0
 20
156500.0
 30
0.0
  0
VERTEX
  5
DF3414A0F7FAFBBF
100
AcDbEntity
  8
COMMENT
  6
CONTINUOUS
100
AcDbVertex
100
AcDb2dVertex
 10
4700.0
 20
156500.0
 30
0.0
  0
VERTEX
  5
DF3414A0F7FAFBC0
100
AcDbEntity
  8
COMMENT
  6
CONTINUOUS
100
AcDbVertex
100
AcDb2dVertex
 10
4700.0
 20
146200.0
 30
0.0
  0
VERTEX
  5
DF3414A0F7FAFBC1
100
AcDbEntity
  8
COMMENT
  6
CONTINUOUS
100
AcDbVertex
100
AcDb2dVertex
 10
2850.0
 20
146200.0
 30
0.0
  0
SEQEND
  5
DF3414A0F7FAFBC2
100
AcDbEntity
  8
COMMENT
  6
CONTINUOUS
  0
POLYLINE
  5
DF3414A0F7FAF8DE
100
AcDbEntity
  8
COMMENT
  6
CONTINUOUS
100
AcDb2dPolyline
 66
     1
 10
0.0
 20
0.0
 30
0.0
 70
     1
  0
VERTEX
  5
DF3414A0F7FAFBC3
100
AcDbEntity
  8
COMMENT
  6
CONTINUOUS
100
AcDbVertex
100
AcDb2dVertex
 10
10850.0
 20
156500.0
 30
0.0
  0
VERTEX
  5
DF3414A0F7FAFBC4
100
AcDbEntity
  8
COMMENT
  6
CONTINUOUS
100
AcDbVertex
100
AcDb2dVertex
 10
12700.0
 20
156500.0
 30
0.0
  0
VERTEX
  5
DF3414A0F7FAFBC5
100
AcDbEntity
  8
COMMENT
  6
CONTINUOUS
100
AcDbVertex
100
AcDb2dVertex
 10
12700.0
 20
146200.0
 30
0.0
  0
VERTEX
  5
DF3414A0F7FAFBC6
100
AcDbEntity
  8
COMMENT
  6
CONTINUOUS
100
AcDbVertex
100
AcDb2dVertex
 10
10850.0
 20
146200.0
 30
0.0
  0
SEQEND
  5
DF3414A0F7FAFBC7
100
AcDbEntity
  8
COMMENT
  6
CONTINUOUS
  0
POLYLINE
  5
DF3414A0F7FAF8DF
100
AcDbEntity
  8
COMMENT
  6
CONTINUOUS
100
AcDb2dPolyline
 66
     1
 10
0.0
 20
0.0
 30
0.0
 70
     1
  0
VERTEX
  5
DF3414A0F7FAFBC8
100
AcDbEntity
  8
COMMENT
  6
CONTINUOUS
100
AcDbVertex
100
AcDb2dVertex
 10
18850.0
 20
156500.0
 30
0.0
  0
VERTEX
  5
DF3414A0F7FAFBC9
100
AcDbEntity
  8
COMMENT
  6
CONTINUOUS
100
AcDbVertex
100
AcDb2dVertex
 10
20700.0
 20
156500.0
 30
0.0
  0
VERTEX
  5
DF3414A0F7FAFBCA
100
AcDbEntity
  8
COMMENT
  6
CONTINUOUS
100
AcDbVertex
100
AcDb2dVertex
 10
20700.0
 20
146200.0
 30
0.0
  0
VERTEX
  5
DF3414A0F7FAFBCB
100
AcDbEntity
  8
COMMENT
  6
CONTINUOUS
100
AcDbVertex
100
AcDb2dVertex
 10
18850.0
 20
146200.0
 30
0.0
  0
SEQEND
  5
DF3414A0F7FAFBCC
100
AcDbEntity
  8
COMMENT
  6
CONTINUOUS
  0
POLYLINE
  5
DF3414A0F7FAF8E0
100
AcDbEntity
  8
COMMENT
  6
CONTINUOUS
100
AcDb2dPolyline
 66
     1
 10
0.0
 20
0.0
 30
0.0
 70
     1
  0
VERTEX
  5
DF3414A0F7FAFBCD
100
AcDbEntity
  8
COMMENT
  6
CONTINUOUS
100
AcDbVertex
100
AcDb2dVertex
 10
26850.0
 20
156500.0
 30
0.0
  0
VERTEX
  5
DF3414A0F7FAFBCE
100
AcDbEntity
  8
COMMENT
  6
CONTINUOUS
100
AcDbVertex
100
AcDb2dVertex
 10
28700.0
 20
156500.0
 30
0.0
  0
VERTEX
  5
DF3414A0F7FAFBCF
100
AcDbEntity
  8
COMMENT
  6
CONTINUOUS
100
AcDbVertex
100
AcDb2dVertex
 10
28700.0
 20
146200.0
 30
0.0
  0
VERTEX
  5
DF3414A0F7FAFBD0
100
AcDbEntity
  8
COMMENT
  6
CONTINUOUS
100
AcDbVertex
100
AcDb2dVertex
 10
26850.0
 20
146200.0
 30
0.0
  0
SEQEND
  5
DF3414A0F7FAFBD1
100
AcDbEntity
  8
COMMENT
  6
CONTINUOUS
  0
POLYLINE
  5
DF3414A0F7FAF8E1
100
AcDbEntity
  8
COMMENT
  6
CONTINUOUS
100
AcDb2dPolyline
 66
     1
 10
0.0
 20
0.0
 30
0.0
 70
     1
  0
VERTEX
  5
DF3414A0F7FAFBD2
100
AcDbEntity
  8
COMMENT
  6
CONTINUOUS
100
AcDbVertex
100
AcDb2dVertex
 10
34850.0
 20
156500.0
 30
0.0
  0
VERTEX
  5
DF3414A0F7FAFBD3
100
AcDbEntity
  8
COMMENT
  6
CONTINUOUS
100
AcDbVertex
100
AcDb2dVertex
 10
36700.0
 20
156500.0
 30
0.0
  0
VERTEX
  5
DF3414A0F7FAFBD4
100
AcDbEntity
  8
COMMENT
  6
CONTINUOUS
100
AcDbVertex
100
AcDb2dVertex
 10
36700.0
 20
146200.0
 30
0.0
  0
VERTEX
  5
DF3414A0F7FAFBD5
100
AcDbEntity
  8
COMMENT
  6
CONTINUOUS
100
AcDbVertex
100
AcDb2dVertex
 10
34850.0
 20
146200.0
 30
0.0
  0
SEQEND
  5
DF3414A0F7FAFBD6
100
AcDbEntity
  8
COMMENT
  6
CONTINUOUS
  0
POLYLINE
  5
DF3414A0F7FAF8E2
100
AcDbEntity
  8
COMMENT
  6
CONTINUOUS
100
AcDb2dPolyline
 66
     1
 10
0.0
 20
0.0
 30
0.0
 70
     1
  0
VERTEX
  5
DF3414A0F7FAFBD7
100
AcDbEntity
  8
COMMENT
  6
CONTINUOUS
100
AcDbVertex
100
AcDb2dVertex
 10
42850.0
 20
156500.0
 30
0.0
  0
VERTEX
  5
DF3414A0F7FAFBD8
100
AcDbEntity
  8
COMMENT
  6
CONTINUOUS
100
AcDbVertex
100
AcDb2dVertex
 10
44700.0
 20
156500.0
 30
0.0
  0
VERTEX
  5
DF3414A0F7FAFBD9
100
AcDbEntity
  8
COMMENT
  6
CONTINUOUS
100
AcDbVertex
100
AcDb2dVertex
 10
44700.0
 20
146200.0
 30
0.0
  0
VERTEX
  5
DF3414A0F7FAFBDA
100
AcDbEntity
  8
COMMENT
  6
CONTINUOUS
100
AcDbVertex
100
AcDb2dVertex
 10
42850.0
 20
146200.0
 30
0.0
  0
SEQEND
  5
DF3414A0F7FAFBDB
100
AcDbEntity
  8
COMMENT
  6
CONTINUOUS
  0
POLYLINE
  5
DF3414A0F7FAF8E3
100
AcDbEntity
  8
COMMENT
  6
CONTINUOUS
100
AcDb2dPolyline
 66
     1
 10
0.0
 20
0.0
 30
0.0
 70
     1
  0
VERTEX
  5
DF3414A0F7FAFBDC
100
AcDbEntity
  8
COMMENT
  6
CONTINUOUS
100
AcDbVertex
100
AcDb2dVertex
 10
50850.0
 20
156500.0
 30
0.0
  0
VERTEX
  5
DF3414A0F7FAFBDD
100
AcDbEntity
  8
COMMENT
  6
CONTINUOUS
100
AcDbVertex
100
AcDb2dVertex
 10
52700.0
 20
156500.0
 30
0.0
  0
VERTEX
  5
DF3414A0F7FAFBDE
100
AcDbEntity
  8
COMMENT
  6
CONTINUOUS
100
AcDbVertex
100
AcDb2dVertex
 10
52700.0
 20
146200.0
 30
0.0
  0
VERTEX
  5
DF3414A0F7FAFBDF
100
AcDbEntity
  8
COMMENT
  6
CONTINUOUS
100
AcDbVertex
100
AcDb2dVertex
 10
50850.0
 20
146200.0
 30
0.0
  0
SEQEND
  5
DF3414A0F7FAFBE0
100
AcDbEntity
  8
COMMENT
  6
CONTINUOUS
  0
POLYLINE
  5
DF3414A0F7FAF8E4
100
AcDbEntity
  8
COMMENT
  6
CONTINUOUS
100
AcDb2dPolyline
 66
     1
 10
0.0
 20
0.0
 30
0.0
 70
     1
  0
VERTEX
  5
DF3414A0F7FAFBE1
100
AcDbEntity
  8
COMMENT
  6
CONTINUOUS
100
AcDbVertex
100
AcDb2dVertex
 10
58850.0
 20
156500.0
 30
0.0
  0
VERTEX
  5
DF3414A0F7FAFBE2
100
AcDbEntity
  8
COMMENT
  6
CONTINUOUS
100
AcDbVertex
100
AcDb2dVertex
 10
60700.0
 20
156500.0
 30
0.0
  0
VERTEX
  5
DF3414A0F7FAFBE3
100
AcDbEntity
  8
COMMENT
  6
CONTINUOUS
100
AcDbVertex
100
AcDb2dVertex
 10
60700.0
 20
146200.0
 30
0.0
  0
VERTEX
  5
DF3414A0F7FAFBE4
100
AcDbEntity
  8
COMMENT
  6
CONTINUOUS
100
AcDbVertex
100
AcDb2dVertex
 10
58850.0
 20
146200.0
 30
0.0
  0
SEQEND
  5
DF3414A0F7FAFBE5
100
AcDbEntity
  8
COMMENT
  6
CONTINUOUS
  0
POLYLINE
  5
DF3414A0F7FAF8E5
100
AcDbEntity
  8
COMMENT
  6
CONTINUOUS
100
AcDb2dPolyline
 66
     1
 10
0.0
 20
0.0
 30
0.0
 70
     1
  0
VERTEX
  5
DF3414A0F7FAFBE6
100
AcDbEntity
  8
COMMENT
  6
CONTINUOUS
100
AcDbVertex
100
AcDb2dVertex
 10
66850.0
 20
156500.0
 30
0.0
  0
VERTEX
  5
DF3414A0F7FAFBE7
100
AcDbEntity
  8
COMMENT
  6
CONTINUOUS
100
AcDbVertex
100
AcDb2dVertex
 10
68700.0
 20
156500.0
 30
0.0
  0
VERTEX
  5
DF3414A0F7FAFBE8
100
AcDbEntity
  8
COMMENT
  6
CONTINUOUS
100
AcDbVertex
100
AcDb2dVertex
 10
68700.0
 20
146200.0
 30
0.0
  0
VERTEX
  5
DF3414A0F7FAFBE9
100
AcDbEntity
  8
COMMENT
  6
CONTINUOUS
100
AcDbVertex
100
AcDb2dVertex
 10
66850.0
 20
146200.0
 30
0.0
  0
SEQEND
  5
DF3414A0F7FAFBEA
100
AcDbEntity
  8
COMMENT
  6
CONTINUOUS
  0
POLYLINE
  5
DF3414A0F7FAF8E6
100
AcDbEntity
  8
COMMENT
  6
CONTINUOUS
100
AcDb2dPolyline
 66
     1
 10
0.0
 20
0.0
 30
0.0
 70
     1
  0
VERTEX
  5
DF3414A0F7FAFBEB
100
AcDbEntity
  8
COMMENT
  6
CONTINUOUS
100
AcDbVertex
100
AcDb2dVertex
 10
74850.0
 20
156500.0
 30
0.0
  0
VERTEX
  5
DF3414A0F7FAFBEC
100
AcDbEntity
  8
COMMENT
  6
CONTINUOUS
100
AcDbVertex
100
AcDb2dVertex
 10
76700.0
 20
156500.0
 30
0.0
  0
VERTEX
  5
DF3414A0F7FAFBED
100
AcDbEntity
  8
COMMENT
  6
CONTINUOUS
100
AcDbVertex
100
AcDb2dVertex
 10
76700.0
 20
146200.0
 30
0.0
  0
VERTEX
  5
DF3414A0F7FAFBEE
100
AcDbEntity
  8
COMMENT
  6
CONTINUOUS
100
AcDbVertex
100
AcDb2dVertex
 10
74850.0
 20
146200.0
 30
0.0
  0
SEQEND
  5
DF3414A0F7FAFBEF
100
AcDbEntity
  8
COMMENT
  6
CONTINUOUS
  0
POLYLINE
  5
DF3414A0F7FAF8E7
100
AcDbEntity
  8
COMMENT
  6
CONTINUOUS
100
AcDb2dPolyline
 66
     1
 10
0.0
 20
0.0
 30
0.0
 70
     1
  0
VERTEX
  5
DF3414A0F7FAFBF0
100
AcDbEntity
  8
COMMENT
  6
CONTINUOUS
100
AcDbVertex
100
AcDb2dVertex
 10
82850.0
 20
156500.0
 30
0.0
  0
VERTEX
  5
DF3414A0F7FAFBF1
100
AcDbEntity
  8
COMMENT
  6
CONTINUOUS
100
AcDbVertex
100
AcDb2dVertex
 10
84700.0
 20
156500.0
 30
0.0
  0
VERTEX
  5
DF3414A0F7FAFBF2
100
AcDbEntity
  8
COMMENT
  6
CONTINUOUS
100
AcDbVertex
100
AcDb2dVertex
 10
84700.0
 20
146200.0
 30
0.0
  0
VERTEX
  5
DF3414A0F7FAFBF3
100
AcDbEntity
  8
COMMENT
  6
CONTINUOUS
100
AcDbVertex
100
AcDb2dVertex
 10
82850.0
 20
146200.0
 30
0.0
  0
SEQEND
  5
DF3414A0F7FAFBF4
100
AcDbEntity
  8
COMMENT
  6
CONTINUOUS
  0
POLYLINE
  5
DF3414A0F7FAF8E8
100
AcDbEntity
  8
COMMENT
  6
CONTINUOUS
100
AcDb2dPolyline
 66
     1
 10
0.0
 20
0.0
 30
0.0
 70
     1
  0
VERTEX
  5
DF3414A0F7FAFBF5
100
AcDbEntity
  8
COMMENT
  6
CONTINUOUS
100
AcDbVertex
100
AcDb2dVertex
 10
90850.0
 20
156500.0
 30
0.0
  0
VERTEX
  5
DF3414A0F7FAFBF6
100
AcDbEntity
  8
COMMENT
  6
CONTINUOUS
100
AcDbVertex
100
AcDb2dVertex
 10
92700.0
 20
156500.0
 30
0.0
  0
VERTEX
  5
DF3414A0F7FAFBF7
100
AcDbEntity
  8
COMMENT
  6
CONTINUOUS
100
AcDbVertex
100
AcDb2dVertex
 10
92700.0
 20
146200.0
 30
0.0
  0
VERTEX
  5
DF3414A0F7FAFBF8
100
AcDbEntity
  8
COMMENT
  6
CONTINUOUS
100
AcDbVertex
100
AcDb2dVertex
 10
90850.0
 20
146200.0
 30
0.0
  0
SEQEND
  5
DF3414A0F7FAFBF9
100
AcDbEntity
  8
COMMENT
  6
CONTINUOUS
  0
POLYLINE
  5
DF3414A0F7FAF8E9
100
AcDbEntity
  8
COMMENT
  6
CONTINUOUS
100
AcDb2dPolyline
 66
     1
 10
0.0
 20
0.0
 30
0.0
 70
     1
  0
VERTEX
  5
DF3414A0F7FAFBFA
100
AcDbEntity
  8
COMMENT
  6
CONTINUOUS
100
AcDbVertex
100
AcDb2dVertex
 10
98850.0
 20
156500.0
 30
0.0
  0
VERTEX
  5
DF3414A0F7FAFBFB
100
AcDbEntity
  8
COMMENT
  6
CONTINUOUS
100
AcDbVertex
100
AcDb2dVertex
 10
100700.0
 20
156500.0
 30
0.0
  0
VERTEX
  5
DF3414A0F7FAFBFC
100
AcDbEntity
  8
COMMENT
  6
CONTINUOUS
100
AcDbVertex
100
AcDb2dVertex
 10
100700.0
 20
146200.0
 30
0.0
  0
VERTEX
  5
DF3414A0F7FAFBFD
100
AcDbEntity
  8
COMMENT
  6
CONTINUOUS
100
AcDbVertex
100
AcDb2dVertex
 10
98850.0
 20
146200.0
 30
0.0
  0
SEQEND
  5
DF3414A0F7FAFBFE
100
AcDbEntity
  8
COMMENT
  6
CONTINUOUS
  0
POLYLINE
  5
DF3414A0F7FAF8EA
100
AcDbEntity
  8
COMMENT
  6
CONTINUOUS
100
AcDb2dPolyline
 66
     1
 10
0.0
 20
0.0
 30
0.0
 70
     1
  0
VERTEX
  5
DF3414A0F7FAFBFF
100
AcDbEntity
  8
COMMENT
  6
CONTINUOUS
100
AcDbVertex
100
AcDb2dVertex
 10
2850.0
 20
172500.0
 30
0.0
  0
VERTEX
  5
DF3414A0F7FAFC00
100
AcDbEntity
  8
COMMENT
  6
CONTINUOUS
100
AcDbVertex
100
AcDb2dVertex
 10
4700.0
 20
172500.0
 30
0.0
  0
VERTEX
  5
DF3414A0F7FAFC01
100
AcDbEntity
  8
COMMENT
  6
CONTINUOUS
100
AcDbVertex
100
AcDb2dVertex
 10
4700.0
 20
162200.0
 30
0.0
  0
VERTEX
  5
DF3414A0F7FAFC02
100
AcDbEntity
  8
COMMENT
  6
CONTINUOUS
100
AcDbVertex
100
AcDb2dVertex
 10
2850.0
 20
162200.0
 30
0.0
  0
SEQEND
  5
DF3414A0F7FAFC03
100
AcDbEntity
  8
COMMENT
  6
CONTINUOUS
  0
POLYLINE
  5
DF3414A0F7FAF8EB
100
AcDbEntity
  8
COMMENT
  6
CONTINUOUS
100
AcDb2dPolyline
 66
     1
 10
0.0
 20
0.0
 30
0.0
 70
     1
  0
VERTEX
  5
DF3414A0F7FAFC04
100
AcDbEntity
  8
COMMENT
  6
CONTINUOUS
100
AcDbVertex
100
AcDb2dVertex
 10
10850.0
 20
172500.0
 30
0.0
  0
VERTEX
  5
DF3414A0F7FAFC05
100
AcDbEntity
  8
COMMENT
  6
CONTINUOUS
100
AcDbVertex
100
AcDb2dVertex
 10
12700.0
 20
172500.0
 30
0.0
  0
VERTEX
  5
DF3414A0F7FAFC06
100
AcDbEntity
  8
COMMENT
  6
CONTINUOUS
100
AcDbVertex
100
AcDb2dVertex
 10
12700.0
 20
162200.0
 30
0.0
  0
VERTEX
  5
DF3414A0F7FAFC07
100
AcDbEntity
  8
COMMENT
  6
CONTINUOUS
100
AcDbVertex
100
AcDb2dVertex
 10
10850.0
 20
162200.0
 30
0.0
  0
SEQEND
  5
DF3414A0F7FAFC08
100
AcDbEntity
  8
COMMENT
  6
CONTINUOUS
  0
POLYLINE
  5
DF3414A0F7FAF8EC
100
AcDbEntity
  8
COMMENT
  6
CONTINUOUS
100
AcDb2dPolyline
 66
     1
 10
0.0
 20
0.0
 30
0.0
 70
     1
  0
VERTEX
  5
DF3414A0F7FAFC09
100
AcDbEntity
  8
COMMENT
  6
CONTINUOUS
100
AcDbVertex
100
AcDb2dVertex
 10
18850.0
 20
172500.0
 30
0.0
  0
VERTEX
  5
DF3414A0F7FAFC0A
100
AcDbEntity
  8
COMMENT
  6
CONTINUOUS
100
AcDbVertex
100
AcDb2dVertex
 10
20700.0
 20
172500.0
 30
0.0
  0
VERTEX
  5
DF3414A0F7FAFC0B
100
AcDbEntity
  8
COMMENT
  6
CONTINUOUS
100
AcDbVertex
100
AcDb2dVertex
 10
20700.0
 20
162200.0
 30
0.0
  0
VERTEX
  5
DF3414A0F7FAFC0C
100
AcDbEntity
  8
COMMENT
  6
CONTINUOUS
100
AcDbVertex
100
AcDb2dVertex
 10
18850.0
 20
162200.0
 30
0.0
  0
SEQEND
  5
DF3414A0F7FAFC0D
100
AcDbEntity
  8
COMMENT
  6
CONTINUOUS
  0
POLYLINE
  5
DF3414A0F7FAF8ED
100
AcDbEntity
  8
COMMENT
  6
CONTINUOUS
100
AcDb2dPolyline
 66
     1
 10
0.0
 20
0.0
 30
0.0
 70
     1
  0
VERTEX
  5
DF3414A0F7FAFC0E
100
AcDbEntity
  8
COMMENT
  6
CONTINUOUS
100
AcDbVertex
100
AcDb2dVertex
 10
26850.0
 20
172500.0
 30
0.0
  0
VERTEX
  5
DF3414A0F7FAFC0F
100
AcDbEntity
  8
COMMENT
  6
CONTINUOUS
100
AcDbVertex
100
AcDb2dVertex
 10
28700.0
 20
172500.0
 30
0.0
  0
VERTEX
  5
DF3414A0F7FAFC10
100
AcDbEntity
  8
COMMENT
  6
CONTINUOUS
100
AcDbVertex
100
AcDb2dVertex
 10
28700.0
 20
162200.0
 30
0.0
  0
VERTEX
  5
DF3414A0F7FAFC11
100
AcDbEntity
  8
COMMENT
  6
CONTINUOUS
100
AcDbVertex
100
AcDb2dVertex
 10
26850.0
 20
162200.0
 30
0.0
  0
SEQEND
  5
DF3414A0F7FAFC12
100
AcDbEntity
  8
COMMENT
  6
CONTINUOUS
  0
POLYLINE
  5
DF3414A0F7FAF8EE
100
AcDbEntity
  8
COMMENT
  6
CONTINUOUS
100
AcDb2dPolyline
 66
     1
 10
0.0
 20
0.0
 30
0.0
 70
     1
  0
VERTEX
  5
DF3414A0F7FAFC13
100
AcDbEntity
  8
COMMENT
  6
CONTINUOUS
100
AcDbVertex
100
AcDb2dVertex
 10
34850.0
 20
172500.0
 30
0.0
  0
VERTEX
  5
DF3414A0F7FAFC14
100
AcDbEntity
  8
COMMENT
  6
CONTINUOUS
100
AcDbVertex
100
AcDb2dVertex
 10
36700.0
 20
172500.0
 30
0.0
  0
VERTEX
  5
DF3414A0F7FAFC15
100
AcDbEntity
  8
COMMENT
  6
CONTINUOUS
100
AcDbVertex
100
AcDb2dVertex
 10
36700.0
 20
162200.0
 30
0.0
  0
VERTEX
  5
DF3414A0F7FAFC16
100
AcDbEntity
  8
COMMENT
  6
CONTINUOUS
100
AcDbVertex
100
AcDb2dVertex
 10
34850.0
 20
162200.0
 30
0.0
  0
SEQEND
  5
DF3414A0F7FAFC17
100
AcDbEntity
  8
COMMENT
  6
CONTINUOUS
  0
POLYLINE
  5
DF3414A0F7FAF8EF
100
AcDbEntity
  8
COMMENT
  6
CONTINUOUS
100
AcDb2dPolyline
 66
     1
 10
0.0
 20
0.0
 30
0.0
 70
     1
  0
VERTEX
  5
DF3414A0F7FAFC18
100
AcDbEntity
  8
COMMENT
  6
CONTINUOUS
100
AcDbVertex
100
AcDb2dVertex
 10
42850.0
 20
172500.0
 30
0.0
  0
VERTEX
  5
DF3414A0F7FAFC19
100
AcDbEntity
  8
COMMENT
  6
CONTINUOUS
100
AcDbVertex
100
AcDb2dVertex
 10
44700.0
 20
172500.0
 30
0.0
  0
VERTEX
  5
DF3414A0F7FAFC1A
100
AcDbEntity
  8
COMMENT
  6
CONTINUOUS
100
AcDbVertex
100
AcDb2dVertex
 10
44700.0
 20
162200.0
 30
0.0
  0
VERTEX
  5
DF3414A0F7FAFC1B
100
AcDbEntity
  8
COMMENT
  6
CONTINUOUS
100
AcDbVertex
100
AcDb2dVertex
 10
42850.0
 20
162200.0
 30
0.0
  0
SEQEND
  5
DF3414A0F7FAFC1C
100
AcDbEntity
  8
COMMENT
  6
CONTINUOUS
  0
POLYLINE
  5
DF3414A0F7FAF8F0
100
AcDbEntity
  8
COMMENT
  6
CONTINUOUS
100
AcDb2dPolyline
 66
     1
 10
0.0
 20
0.0
 30
0.0
 70
     1
  0
VERTEX
  5
DF3414A0F7FAFC1D
100
AcDbEntity
  8
COMMENT
  6
CONTINUOUS
100
AcDbVertex
100
AcDb2dVertex
 10
50850.0
 20
172500.0
 30
0.0
  0
VERTEX
  5
DF3414A0F7FAFC1E
100
AcDbEntity
  8
COMMENT
  6
CONTINUOUS
100
AcDbVertex
100
AcDb2dVertex
 10
52700.0
 20
172500.0
 30
0.0
  0
VERTEX
  5
DF3414A0F7FAFC1F
100
AcDbEntity
  8
COMMENT
  6
CONTINUOUS
100
AcDbVertex
100
AcDb2dVertex
 10
52700.0
 20
162200.0
 30
0.0
  0
VERTEX
  5
DF3414A0F7FAFC20
100
AcDbEntity
  8
COMMENT
  6
CONTINUOUS
100
AcDbVertex
100
AcDb2dVertex
 10
50850.0
 20
162200.0
 30
0.0
  0
SEQEND
  5
DF3414A0F7FAFC21
100
AcDbEntity
  8
COMMENT
  6
CONTINUOUS
  0
POLYLINE
  5
DF3414A0F7FAF8F1
100
AcDbEntity
  8
COMMENT
  6
CONTINUOUS
100
AcDb2dPolyline
 66
     1
 10
0.0
 20
0.0
 30
0.0
 70
     1
  0
VERTEX
  5
DF3414A0F7FAFC22
100
AcDbEntity
  8
COMMENT
  6
CONTINUOUS
100
AcDbVertex
100
AcDb2dVertex
 10
58850.0
 20
172500.0
 30
0.0
  0
VERTEX
  5
DF3414A0F7FAFC23
100
AcDbEntity
  8
COMMENT
  6
CONTINUOUS
100
AcDbVertex
100
AcDb2dVertex
 10
60700.0
 20
172500.0
 30
0.0
  0
VERTEX
  5
DF3414A0F7FAFC24
100
AcDbEntity
  8
COMMENT
  6
CONTINUOUS
100
AcDbVertex
100
AcDb2dVertex
 10
60700.0
 20
162200.0
 30
0.0
  0
VERTEX
  5
DF3414A0F7FAFC25
100
AcDbEntity
  8
COMMENT
  6
CONTINUOUS
100
AcDbVertex
100
AcDb2dVertex
 10
58850.0
 20
162200.0
 30
0.0
  0
SEQEND
  5
DF3414A0F7FAFC26
100
AcDbEntity
  8
COMMENT
  6
CONTINUOUS
  0
POLYLINE
  5
DF3414A0F7FAF8F2
100
AcDbEntity
  8
COMMENT
  6
CONTINUOUS
100
AcDb2dPolyline
 66
     1
 10
0.0
 20
0.0
 30
0.0
 70
     1
  0
VERTEX
  5
DF3414A0F7FAFC27
100
AcDbEntity
  8
COMMENT
  6
CONTINUOUS
100
AcDbVertex
100
AcDb2dVertex
 10
66850.0
 20
172500.0
 30
0.0
  0
VERTEX
  5
DF3414A0F7FAFC28
100
AcDbEntity
  8
COMMENT
  6
CONTINUOUS
100
AcDbVertex
100
AcDb2dVertex
 10
68700.0
 20
172500.0
 30
0.0
  0
VERTEX
  5
DF3414A0F7FAFC29
100
AcDbEntity
  8
COMMENT
  6
CONTINUOUS
100
AcDbVertex
100
AcDb2dVertex
 10
68700.0
 20
162200.0
 30
0.0
  0
VERTEX
  5
DF3414A0F7FAFC2A
100
AcDbEntity
  8
COMMENT
  6
CONTINUOUS
100
AcDbVertex
100
AcDb2dVertex
 10
66850.0
 20
162200.0
 30
0.0
  0
SEQEND
  5
DF3414A0F7FAFC2B
100
AcDbEntity
  8
COMMENT
  6
CONTINUOUS
  0
POLYLINE
  5
DF3414A0F7FAF8F3
100
AcDbEntity
  8
COMMENT
  6
CONTINUOUS
100
AcDb2dPolyline
 66
     1
 10
0.0
 20
0.0
 30
0.0
 70
     1
  0
VERTEX
  5
DF3414A0F7FAFC2C
100
AcDbEntity
  8
COMMENT
  6
CONTINUOUS
100
AcDbVertex
100
AcDb2dVertex
 10
74850.0
 20
172500.0
 30
0.0
  0
VERTEX
  5
DF3414A0F7FAFC2D
100
AcDbEntity
  8
COMMENT
  6
CONTINUOUS
100
AcDbVertex
100
AcDb2dVertex
 10
76700.0
 20
172500.0
 30
0.0
  0
VERTEX
  5
DF3414A0F7FAFC2E
100
AcDbEntity
  8
COMMENT
  6
CONTINUOUS
100
AcDbVertex
100
AcDb2dVertex
 10
76700.0
 20
162200.0
 30
0.0
  0
VERTEX
  5
DF3414A0F7FAFC2F
100
AcDbEntity
  8
COMMENT
  6
CONTINUOUS
100
AcDbVertex
100
AcDb2dVertex
 10
74850.0
 20
162200.0
 30
0.0
  0
SEQEND
  5
DF3414A0F7FAFC30
100
AcDbEntity
  8
COMMENT
  6
CONTINUOUS
  0
POLYLINE
  5
DF3414A0F7FAF8F4
100
AcDbEntity
  8
COMMENT
  6
CONTINUOUS
100
AcDb2dPolyline
 66
     1
 10
0.0
 20
0.0
 30
0.0
 70
     1
  0
VERTEX
  5
DF3414A0F7FAFC31
100
AcDbEntity
  8
COMMENT
  6
CONTINUOUS
100
AcDbVertex
100
AcDb2dVertex
 10
82850.0
 20
172500.0
 30
0.0
  0
VERTEX
  5
DF3414A0F7FAFC32
100
AcDbEntity
  8
COMMENT
  6
CONTINUOUS
100
AcDbVertex
100
AcDb2dVertex
 10
84700.0
 20
172500.0
 30
0.0
  0
VERTEX
  5
DF3414A0F7FAFC33
100
AcDbEntity
  8
COMMENT
  6
CONTINUOUS
100
AcDbVertex
100
AcDb2dVertex
 10
84700.0
 20
162200.0
 30
0.0
  0
VERTEX
  5
DF3414A0F7FAFC34
100
AcDbEntity
  8
COMMENT
  6
CONTINUOUS
100
AcDbVertex
100
AcDb2dVertex
 10
82850.0
 20
162200.0
 30
0.0
  0
SEQEND
  5
DF3414A0F7FAFC35
100
AcDbEntity
  8
COMMENT
  6
CONTINUOUS
  0
POLYLINE
  5
DF3414A0F7FAF8F5
100
AcDbEntity
  8
COMMENT
  6
CONTINUOUS
100
AcDb2dPolyline
 66
     1
 10
0.0
 20
0.0
 30
0.0
 70
     1
  0
VERTEX
  5
DF3414A0F7FAFC36
100
AcDbEntity
  8
COMMENT
  6
CONTINUOUS
100
AcDbVertex
100
AcDb2dVertex
 10
90850.0
 20
172500.0
 30
0.0
  0
VERTEX
  5
DF3414A0F7FAFC37
100
AcDbEntity
  8
COMMENT
  6
CONTINUOUS
100
AcDbVertex
100
AcDb2dVertex
 10
92700.0
 20
172500.0
 30
0.0
  0
VERTEX
  5
DF3414A0F7FAFC38
100
AcDbEntity
  8
COMMENT
  6
CONTINUOUS
100
AcDbVertex
100
AcDb2dVertex
 10
92700.0
 20
162200.0
 30
0.0
  0
VERTEX
  5
DF3414A0F7FAFC39
100
AcDbEntity
  8
COMMENT
  6
CONTINUOUS
100
AcDbVertex
100
AcDb2dVertex
 10
90850.0
 20
162200.0
 30
0.0
  0
SEQEND
  5
DF3414A0F7FAFC3A
100
AcDbEntity
  8
COMMENT
  6
CONTINUOUS
  0
POLYLINE
  5
DF3414A0F7FAF8F6
100
AcDbEntity
  8
COMMENT
  6
CONTINUOUS
100
AcDb2dPolyline
 66
     1
 10
0.0
 20
0.0
 30
0.0
 70
     1
  0
VERTEX
  5
DF3414A0F7FAFC3B
100
AcDbEntity
  8
COMMENT
  6
CONTINUOUS
100
AcDbVertex
100
AcDb2dVertex
 10
98850.0
 20
172500.0
 30
0.0
  0
VERTEX
  5
DF3414A0F7FAFC3C
100
AcDbEntity
  8
COMMENT
  6
CONTINUOUS
100
AcDbVertex
100
AcDb2dVertex
 10
100700.0
 20
172500.0
 30
0.0
  0
VERTEX
  5
DF3414A0F7FAFC3D
100
AcDbEntity
  8
COMMENT
  6
CONTINUOUS
100
AcDbVertex
100
AcDb2dVertex
 10
100700.0
 20
162200.0
 30
0.0
  0
VERTEX
  5
DF3414A0F7FAFC3E
100
AcDbEntity
  8
COMMENT
  6
CONTINUOUS
100
AcDbVertex
100
AcDb2dVertex
 10
98850.0
 20
162200.0
 30
0.0
  0
SEQEND
  5
DF3414A0F7FAFC3F
100
AcDbEntity
  8
COMMENT
  6
CONTINUOUS
  0
POLYLINE
  5
DF3414A0F7FAF8F7
100
AcDbEntity
  8
COMMENT
  6
CONTINUOUS
100
AcDb2dPolyline
 66
     1
 10
0.0
 20
0.0
 30
0.0
 70
     1
  0
VERTEX
  5
DF3414A0F7FAFC40
100
AcDbEntity
  8
COMMENT
  6
CONTINUOUS
100
AcDbVertex
100
AcDb2dVertex
 10
2850.0
 20
188500.0
 30
0.0
  0
VERTEX
  5
DF3414A0F7FAFC41
100
AcDbEntity
  8
COMMENT
  6
CONTINUOUS
100
AcDbVertex
100
AcDb2dVertex
 10
4700.0
 20
188500.0
 30
0.0
  0
VERTEX
  5
DF3414A0F7FAFC42
100
AcDbEntity
  8
COMMENT
  6
CONTINUOUS
100
AcDbVertex
100
AcDb2dVertex
 10
4700.0
 20
178200.0
 30
0.0
  0
VERTEX
  5
DF3414A0F7FAFC43
100
AcDbEntity
  8
COMMENT
  6
CONTINUOUS
100
AcDbVertex
100
AcDb2dVertex
 10
2850.0
 20
178200.0
 30
0.0
  0
SEQEND
  5
DF3414A0F7FAFC44
100
AcDbEntity
  8
COMMENT
  6
CONTINUOUS
  0
POLYLINE
  5
DF3414A0F7FAF8F8
100
AcDbEntity
  8
COMMENT
  6
CONTINUOUS
100
AcDb2dPolyline
 66
     1
 10
0.0
 20
0.0
 30
0.0
 70
     1
  0
VERTEX
  5
DF3414A0F7FAFC45
100
AcDbEntity
  8
COMMENT
  6
CONTINUOUS
100
AcDbVertex
100
AcDb2dVertex
 10
10850.0
 20
188500.0
 30
0.0
  0
VERTEX
  5
DF3414A0F7FAFC46
100
AcDbEntity
  8
COMMENT
  6
CONTINUOUS
100
AcDbVertex
100
AcDb2dVertex
 10
12700.0
 20
188500.0
 30
0.0
  0
VERTEX
  5
DF3414A0F7FAFC47
100
AcDbEntity
  8
COMMENT
  6
CONTINUOUS
100
AcDbVertex
100
AcDb2dVertex
 10
12700.0
 20
178200.0
 30
0.0
  0
VERTEX
  5
DF3414A0F7FAFC48
100
AcDbEntity
  8
COMMENT
  6
CONTINUOUS
100
AcDbVertex
100
AcDb2dVertex
 10
10850.0
 20
178200.0
 30
0.0
  0
SEQEND
  5
DF3414A0F7FAFC49
100
AcDbEntity
  8
COMMENT
  6
CONTINUOUS
  0
POLYLINE
  5
DF3414A0F7FAF8F9
100
AcDbEntity
  8
COMMENT
  6
CONTINUOUS
100
AcDb2dPolyline
 66
     1
 10
0.0
 20
0.0
 30
0.0
 70
     1
  0
VERTEX
  5
DF3414A0F7FAFC4A
100
AcDbEntity
  8
COMMENT
  6
CONTINUOUS
100
AcDbVertex
100
AcDb2dVertex
 10
18850.0
 20
188500.0
 30
0.0
  0
VERTEX
  5
DF3414A0F7FAFC4B
100
AcDbEntity
  8
COMMENT
  6
CONTINUOUS
100
AcDbVertex
100
AcDb2dVertex
 10
20700.0
 20
188500.0
 30
0.0
  0
VERTEX
  5
DF3414A0F7FAFC4C
100
AcDbEntity
  8
COMMENT
  6
CONTINUOUS
100
AcDbVertex
100
AcDb2dVertex
 10
20700.0
 20
178200.0
 30
0.0
  0
VERTEX
  5
DF3414A0F7FAFC4D
100
AcDbEntity
  8
COMMENT
  6
CONTINUOUS
100
AcDbVertex
100
AcDb2dVertex
 10
18850.0
 20
178200.0
 30
0.0
  0
SEQEND
  5
DF3414A0F7FAFC4E
100
AcDbEntity
  8
COMMENT
  6
CONTINUOUS
  0
POLYLINE
  5
DF3414A0F7FAF8FA
100
AcDbEntity
  8
COMMENT
  6
CONTINUOUS
100
AcDb2dPolyline
 66
     1
 10
0.0
 20
0.0
 30
0.0
 70
     1
  0
VERTEX
  5
DF3414A0F7FAFC4F
100
AcDbEntity
  8
COMMENT
  6
CONTINUOUS
100
AcDbVertex
100
AcDb2dVertex
 10
26850.0
 20
188500.0
 30
0.0
  0
VERTEX
  5
DF3414A0F7FAFC50
100
AcDbEntity
  8
COMMENT
  6
CONTINUOUS
100
AcDbVertex
100
AcDb2dVertex
 10
28700.0
 20
188500.0
 30
0.0
  0
VERTEX
  5
DF3414A0F7FAFC51
100
AcDbEntity
  8
COMMENT
  6
CONTINUOUS
100
AcDbVertex
100
AcDb2dVertex
 10
28700.0
 20
178200.0
 30
0.0
  0
VERTEX
  5
DF3414A0F7FAFC52
100
AcDbEntity
  8
COMMENT
  6
CONTINUOUS
100
AcDbVertex
100
AcDb2dVertex
 10
26850.0
 20
178200.0
 30
0.0
  0
SEQEND
  5
DF3414A0F7FAFC53
100
AcDbEntity
  8
COMMENT
  6
CONTINUOUS
  0
POLYLINE
  5
DF3414A0F7FAF8FB
100
AcDbEntity
  8
COMMENT
  6
CONTINUOUS
100
AcDb2dPolyline
 66
     1
 10
0.0
 20
0.0
 30
0.0
 70
     1
  0
VERTEX
  5
DF3414A0F7FAFC54
100
AcDbEntity
  8
COMMENT
  6
CONTINUOUS
100
AcDbVertex
100
AcDb2dVertex
 10
34850.0
 20
188500.0
 30
0.0
  0
VERTEX
  5
DF3414A0F7FAFC55
100
AcDbEntity
  8
COMMENT
  6
CONTINUOUS
100
AcDbVertex
100
AcDb2dVertex
 10
36700.0
 20
188500.0
 30
0.0
  0
VERTEX
  5
DF3414A0F7FAFC56
100
AcDbEntity
  8
COMMENT
  6
CONTINUOUS
100
AcDbVertex
100
AcDb2dVertex
 10
36700.0
 20
178200.0
 30
0.0
  0
VERTEX
  5
DF3414A0F7FAFC57
100
AcDbEntity
  8
COMMENT
  6
CONTINUOUS
100
AcDbVertex
100
AcDb2dVertex
 10
34850.0
 20
178200.0
 30
0.0
  0
SEQEND
  5
DF3414A0F7FAFC58
100
AcDbEntity
  8
COMMENT
  6
CONTINUOUS
  0
POLYLINE
  5
DF3414A0F7FAF8FC
100
AcDbEntity
  8
COMMENT
  6
CONTINUOUS
100
AcDb2dPolyline
 66
     1
 10
0.0
 20
0.0
 30
0.0
 70
     1
  0
VERTEX
  5
DF3414A0F7FAFC59
100
AcDbEntity
  8
COMMENT
  6
CONTINUOUS
100
AcDbVertex
100
AcDb2dVertex
 10
42850.0
 20
188500.0
 30
0.0
  0
VERTEX
  5
DF3414A0F7FAFC5A
100
AcDbEntity
  8
COMMENT
  6
CONTINUOUS
100
AcDbVertex
100
AcDb2dVertex
 10
44700.0
 20
188500.0
 30
0.0
  0
VERTEX
  5
DF3414A0F7FAFC5B
100
AcDbEntity
  8
COMMENT
  6
CONTINUOUS
100
AcDbVertex
100
AcDb2dVertex
 10
44700.0
 20
178200.0
 30
0.0
  0
VERTEX
  5
DF3414A0F7FAFC5C
100
AcDbEntity
  8
COMMENT
  6
CONTINUOUS
100
AcDbVertex
100
AcDb2dVertex
 10
42850.0
 20
178200.0
 30
0.0
  0
SEQEND
  5
DF3414A0F7FAFC5D
100
AcDbEntity
  8
COMMENT
  6
CONTINUOUS
  0
POLYLINE
  5
DF3414A0F7FAF8FD
100
AcDbEntity
  8
COMMENT
  6
CONTINUOUS
100
AcDb2dPolyline
 66
     1
 10
0.0
 20
0.0
 30
0.0
 70
     1
  0
VERTEX
  5
DF3414A0F7FAFC5E
100
AcDbEntity
  8
COMMENT
  6
CONTINUOUS
100
AcDbVertex
100
AcDb2dVertex
 10
50850.0
 20
188500.0
 30
0.0
  0
VERTEX
  5
DF3414A0F7FAFC5F
100
AcDbEntity
  8
COMMENT
  6
CONTINUOUS
100
AcDbVertex
100
AcDb2dVertex
 10
52700.0
 20
188500.0
 30
0.0
  0
VERTEX
  5
DF3414A0F7FAFC60
100
AcDbEntity
  8
COMMENT
  6
CONTINUOUS
100
AcDbVertex
100
AcDb2dVertex
 10
52700.0
 20
178200.0
 30
0.0
  0
VERTEX
  5
DF3414A0F7FAFC61
100
AcDbEntity
  8
COMMENT
  6
CONTINUOUS
100
AcDbVertex
100
AcDb2dVertex
 10
50850.0
 20
178200.0
 30
0.0
  0
SEQEND
  5
DF3414A0F7FAFC62
100
AcDbEntity
  8
COMMENT
  6
CONTINUOUS
  0
POLYLINE
  5
DF3414A0F7FAF8FE
100
AcDbEntity
  8
COMMENT
  6
CONTINUOUS
100
AcDb2dPolyline
 66
     1
 10
0.0
 20
0.0
 30
0.0
 70
     1
  0
VERTEX
  5
DF3414A0F7FAFC63
100
AcDbEntity
  8
COMMENT
  6
CONTINUOUS
100
AcDbVertex
100
AcDb2dVertex
 10
58850.0
 20
188500.0
 30
0.0
  0
VERTEX
  5
DF3414A0F7FAFC64
100
AcDbEntity
  8
COMMENT
  6
CONTINUOUS
100
AcDbVertex
100
AcDb2dVertex
 10
60700.0
 20
188500.0
 30
0.0
  0
VERTEX
  5
DF3414A0F7FAFC65
100
AcDbEntity
  8
COMMENT
  6
CONTINUOUS
100
AcDbVertex
100
AcDb2dVertex
 10
60700.0
 20
178200.0
 30
0.0
  0
VERTEX
  5
DF3414A0F7FAFC66
100
AcDbEntity
  8
COMMENT
  6
CONTINUOUS
100
AcDbVertex
100
AcDb2dVertex
 10
58850.0
 20
178200.0
 30
0.0
  0
SEQEND
  5
DF3414A0F7FAFC67
100
AcDbEntity
  8
COMMENT
  6
CONTINUOUS
  0
POLYLINE
  5
DF3414A0F7FAF8FF
100
AcDbEntity
  8
COMMENT
  6
CONTINUOUS
100
AcDb2dPolyline
 66
     1
 10
0.0
 20
0.0
 30
0.0
 70
     1
  0
VERTEX
  5
DF3414A0F7FAFC68
100
AcDbEntity
  8
COMMENT
  6
CONTINUOUS
100
AcDbVertex
100
AcDb2dVertex
 10
66850.0
 20
188500.0
 30
0.0
  0
VERTEX
  5
DF3414A0F7FAFC69
100
AcDbEntity
  8
COMMENT
  6
CONTINUOUS
100
AcDbVertex
100
AcDb2dVertex
 10
68700.0
 20
188500.0
 30
0.0
  0
VERTEX
  5
DF3414A0F7FAFC6A
100
AcDbEntity
  8
COMMENT
  6
CONTINUOUS
100
AcDbVertex
100
AcDb2dVertex
 10
68700.0
 20
178200.0
 30
0.0
  0
VERTEX
  5
DF3414A0F7FAFC6B
100
AcDbEntity
  8
COMMENT
  6
CONTINUOUS
100
AcDbVertex
100
AcDb2dVertex
 10
66850.0
 20
178200.0
 30
0.0
  0
SEQEND
  5
DF3414A0F7FAFC6C
100
AcDbEntity
  8
COMMENT
  6
CONTINUOUS
  0
POLYLINE
  5
DF3414A0F7FAF900
100
AcDbEntity
  8
COMMENT
  6
CONTINUOUS
100
AcDb2dPolyline
 66
     1
 10
0.0
 20
0.0
 30
0.0
 70
     1
  0
VERTEX
  5
DF3414A0F7FAFC6D
100
AcDbEntity
  8
COMMENT
  6
CONTINUOUS
100
AcDbVertex
100
AcDb2dVertex
 10
74850.0
 20
188500.0
 30
0.0
  0
VERTEX
  5
DF3414A0F7FAFC6E
100
AcDbEntity
  8
COMMENT
  6
CONTINUOUS
100
AcDbVertex
100
AcDb2dVertex
 10
76700.0
 20
188500.0
 30
0.0
  0
VERTEX
  5
DF3414A0F7FAFC6F
100
AcDbEntity
  8
COMMENT
  6
CONTINUOUS
100
AcDbVertex
100
AcDb2dVertex
 10
76700.0
 20
178200.0
 30
0.0
  0
VERTEX
  5
DF3414A0F7FAFC70
100
AcDbEntity
  8
COMMENT
  6
CONTINUOUS
100
AcDbVertex
100
AcDb2dVertex
 10
74850.0
 20
178200.0
 30
0.0
  0
SEQEND
  5
DF3414A0F7FAFC71
100
AcDbEntity
  8
COMMENT
  6
CONTINUOUS
  0
POLYLINE
  5
DF3414A0F7FAF901
100
AcDbEntity
  8
COMMENT
  6
CONTINUOUS
100
AcDb2dPolyline
 66
     1
 10
0.0
 20
0.0
 30
0.0
 70
     1
  0
VERTEX
  5
DF3414A0F7FAFC72
100
AcDbEntity
  8
COMMENT
  6
CONTINUOUS
100
AcDbVertex
100
AcDb2dVertex
 10
82850.0
 20
188500.0
 30
0.0
  0
VERTEX
  5
DF3414A0F7FAFC73
100
AcDbEntity
  8
COMMENT
  6
CONTINUOUS
100
AcDbVertex
100
AcDb2dVertex
 10
84700.0
 20
188500.0
 30
0.0
  0
VERTEX
  5
DF3414A0F7FAFC74
100
AcDbEntity
  8
COMMENT
  6
CONTINUOUS
100
AcDbVertex
100
AcDb2dVertex
 10
84700.0
 20
178200.0
 30
0.0
  0
VERTEX
  5
DF3414A0F7FAFC75
100
AcDbEntity
  8
COMMENT
  6
CONTINUOUS
100
AcDbVertex
100
AcDb2dVertex
 10
82850.0
 20
178200.0
 30
0.0
  0
SEQEND
  5
DF3414A0F7FAFC76
100
AcDbEntity
  8
COMMENT
  6
CONTINUOUS
  0
POLYLINE
  5
DF3414A0F7FAF902
100
AcDbEntity
  8
COMMENT
  6
CONTINUOUS
100
AcDb2dPolyline
 66
     1
 10
0.0
 20
0.0
 30
0.0
 70
     1
  0
VERTEX
  5
DF3414A0F7FAFC77
100
AcDbEntity
  8
COMMENT
  6
CONTINUOUS
100
AcDbVertex
100
AcDb2dVertex
 10
90850.0
 20
188500.0
 30
0.0
  0
VERTEX
  5
DF3414A0F7FAFC78
100
AcDbEntity
  8
COMMENT
  6
CONTINUOUS
100
AcDbVertex
100
AcDb2dVertex
 10
92700.0
 20
188500.0
 30
0.0
  0
VERTEX
  5
DF3414A0F7FAFC79
100
AcDbEntity
  8
COMMENT
  6
CONTINUOUS
100
AcDbVertex
100
AcDb2dVertex
 10
92700.0
 20
178200.0
 30
0.0
  0
VERTEX
  5
DF3414A0F7FAFC7A
100
AcDbEntity
  8
COMMENT
  6
CONTINUOUS
100
AcDbVertex
100
AcDb2dVertex
 10
90850.0
 20
178200.0
 30
0.0
  0
SEQEND
  5
DF3414A0F7FAFC7B
100
AcDbEntity
  8
COMMENT
  6
CONTINUOUS
  0
POLYLINE
  5
DF3414A0F7FAF903
100
AcDbEntity
  8
COMMENT
  6
CONTINUOUS
100
AcDb2dPolyline
 66
     1
 10
0.0
 20
0.0
 30
0.0
 70
     1
  0
VERTEX
  5
DF3414A0F7FAFC7C
100
AcDbEntity
  8
COMMENT
  6
CONTINUOUS
100
AcDbVertex
100
AcDb2dVertex
 10
98850.0
 20
188500.0
 30
0.0
  0
VERTEX
  5
DF3414A0F7FAFC7D
100
AcDbEntity
  8
COMMENT
  6
CONTINUOUS
100
AcDbVertex
100
AcDb2dVertex
 10
100700.0
 20
188500.0
 30
0.0
  0
VERTEX
  5
DF3414A0F7FAFC7E
100
AcDbEntity
  8
COMMENT
  6
CONTINUOUS
100
AcDbVertex
100
AcDb2dVertex
 10
100700.0
 20
178200.0
 30
0.0
  0
VERTEX
  5
DF3414A0F7FAFC7F
100
AcDbEntity
  8
COMMENT
  6
CONTINUOUS
100
AcDbVertex
100
AcDb2dVertex
 10
98850.0
 20
178200.0
 30
0.0
  0
SEQEND
  5
DF3414A0F7FAFC80
100
AcDbEntity
  8
COMMENT
  6
CONTINUOUS
  0
POLYLINE
  5
DF3414A0F7FB1576
100
AcDbEntity
  8
COMMENT
  6
CONTINUOUS
100
AcDb2dPolyline
 66
     1
 10
0.0
 20
0.0
 30
0.0
 70
     1
  0
VERTEX
  5
DF3414A0F7FB1577
100
AcDbEntity
  8
COMMENT
  6
CONTINUOUS
100
AcDbVertex
100
AcDb2dVertex
 10
0.0
 20
-16000.0
 30
0.0
  0
VERTEX
  5
DF3414A0F7FB1578
100
AcDbEntity
  8
COMMENT
  6
CONTINUOUS
100
AcDbVertex
100
AcDb2dVertex
 10
104000.0
 20
-16000.0
 30
0.0
  0
VERTEX
  5
DF3414A0F7FB1579
100
AcDbEntity
  8
COMMENT
  6
CONTINUOUS
100
AcDbVertex
100
AcDb2dVertex
 10
104000.0
 20
192000.0
 30
0.0
  0
VERTEX
  5
DF3414A0F7FB157A
100
AcDbEntity
  8
COMMENT
  6
CONTINUOUS
100
AcDbVertex
100
AcDb2dVertex
 10
0.0
 20
192000.0
 30
0.0
  0
SEQEND
  5
DF3414A0F7FB157B
100
AcDbEntity
  8
COMMENT
  6
CONTINUOUS
  0
INSERT
  5
DF3414A0F7FB157F
100
AcDbEntity
  8
SIMPLE
  6
CONTINUOUS
100
AcDbBlockReference
  2
MEGARAM_YGR
 10
0.0
 20
0.0
 30
0.0
  0
ENDSEC
  0
SECTION
  2
OBJECTS
  0
DICTIONARY
  5
C
100
AcDbDictionary
  3
ACAD_GROUP
350
D
  3
ACAD_MLINESTYLE
350
1B
  0
DICTIONARY
  5
D
102
{ACAD_REACTORS
330
C
102
}
100
AcDbDictionary
  0
DICTIONARY
  5
1B
102
{ACAD_REACTORS
330
C
102
}
100
AcDbDictionary
  3
STANDARD
350
1C
  0
MLINESTYLE
  5
1C
102
{ACAD_REACTORS
330
1B
102
}
100
AcDbMlineStyle
  2
STANDARD
 70
     0
  3

 62
   256
 51
90.0
 52
90.0
 71
     2
 49
0.5
 62
   256
  6
BYLAYER
 49
-0.5
 62
   256
  6
BYLAYER
  0
ENDSEC
  0
EOF
